<?xml version="1.0" encoding="UTF-8" standalone="no"?>
<svg
   xmlns:dc="http://purl.org/dc/elements/1.1/"
   xmlns:cc="http://creativecommons.org/ns#"
   xmlns:rdf="http://www.w3.org/1999/02/22-rdf-syntax-ns#"
   xmlns:svg="http://www.w3.org/2000/svg"
   xmlns="http://www.w3.org/2000/svg"
   xmlns:sodipodi="http://sodipodi.sourceforge.net/DTD/sodipodi-0.dtd"
   xmlns:inkscape="http://www.inkscape.org/namespaces/inkscape"
   inkscape:version="1.0 (4035a4fb49, 2020-05-01)"
   sodipodi:docname="uEA7E-car.svg"
   id="svg4460"
   height="100"
   width="100"
   version="1.1">
  <sodipodi:namedview
     inkscape:document-rotation="0"
     inkscape:current-layer="svg4460"
     inkscape:window-maximized="1"
     inkscape:window-y="-8"
     inkscape:window-x="-8"
     inkscape:cy="103.16869"
     inkscape:cx="-84.321062"
     inkscape:zoom="2.8567114"
     showgrid="false"
     id="namedview11"
     inkscape:window-height="1017"
     inkscape:window-width="1920"
     inkscape:pageshadow="2"
     inkscape:pageopacity="0"
     guidetolerance="10"
     gridtolerance="10"
     objecttolerance="10"
     borderopacity="1"
     bordercolor="#666666"
     pagecolor="#ffffff" />
  <defs
     id="defs4462" />
  <metadata
     id="metadata4465">
    <rdf:RDF>
      <cc:Work
         rdf:about="">
        <dc:format>image/svg+xml</dc:format>
        <dc:type
           rdf:resource="http://purl.org/dc/dcmitype/StillImage" />
        <dc:title />
      </cc:Work>
    </rdf:RDF>
  </metadata>
  <g
     transform="matrix(0.93823411,0,0,0.93823411,136.22175,-4.5960041)"
     id="g880">
    <path
       sodipodi:nodetypes="zcccccccccsscssssccsssscssccccccccczcccscccczcccscsccssccsssssscccss"
       transform="translate(-102.27291,-23.628568)"
       d="m 9.7017948,40.494207 c -12.4133812,-0.18266 -29.6579768,0.08407 -33.2076538,9.621027 l -8.722657,20.46875 c -0.37584,-0.425574 -0.871437,-0.756009 -1.460937,-0.921875 l -3.511719,-0.988281 c -1.62908,-0.458375 -3.309208,0.484205 -3.767578,2.113281 l -1.832031,6.50586 c -0.45837,1.629076 0.484191,3.309202 2.113281,3.767578 l 3.513672,0.988281 c 0.11751,0.03306 0.233992,0.04375 0.351562,0.0625 -0.67085,1.672647 -1.089843,3.512916 -1.089843,4.607422 v 23.78906 c 0,1.2199 0.510918,1.78423 1.324218,2.04883 v 6.33789 c 0,2.37209 1.90918,4.28125 4.28125,4.28125 h 11.486329 c 2.372079,0 4.28125,-1.90916 4.28125,-4.28125 v -6.10547 h 53.828124 v 6.10547 c 0,2.37209 1.91112,4.28125 4.283204,4.28125 h 11.484375 c 2.372084,0 4.283203,-1.90916 4.283203,-4.28125 v -6.33789 c 0.813162,-0.26463 1.322265,-0.82903 1.322265,-2.04883 V 86.71875 c 0,-1.094506 -0.418992,-2.934775 -1.089843,-4.607422 0.117569,-0.01875 0.23405,-0.02944 0.351562,-0.0625 L 61.4375,81.060547 c 1.629076,-0.458374 2.571655,-2.138501 2.113281,-3.767578 l -1.830078,-6.50586 c -0.458374,-1.629076 -2.140456,-2.571655 -3.769531,-2.113281 l -3.511719,0.988281 c -0.589491,0.165865 -1.085094,0.496301 -1.460937,0.921875 L 44.255859,50.115234 C 40.45068,40.433833 22.115176,40.676867 9.7017948,40.494207 Z M 45.255859,71.876953 c 0.206623,0.613714 -0.412161,1.022315 -1.058593,1.060547 0,0 -2.115354,0.178899 -5.03125,0.414062 -2.218949,-5.184189 -7.375579,-8.83789 -13.34961,-8.83789 -6.555721,-10e-7 -12.121404,4.402505 -13.90625,10.396484 -0.494752,0.0064 -1.069492,0.02734 -1.529297,0.02734 -11.29377462,1.14e-4 -33.828125,-2 -33.828125,-2 -0.64643,-0.03822 -1.265213,-0.446837 -1.058593,-1.060547 8.67843,-26.455386 8.936992,-24.466726 34.4006633,-24.188621 C 35.358476,47.966433 35.506077,46.076301 45.255859,71.876953 Z M 25.816406,69.513672 c 3.33192,0 6.240624,1.685815 7.9375,4.253906 -5.100398,0.378892 -10.969245,0.765716 -16.439453,0.990234 1.555801,-3.11605 4.759497,-5.244141 8.501953,-5.24414 z m -58.707031,8.585937 c 0.0768,0.113573 0.151338,0.227644 0.236328,0.337891 h -0.330078 z m 5.642578,6.644532 c 2.23409,-0.03695 14.226563,4 14.226563,4 1.49788,0.421141 2.815993,3.252652 2.808593,4.808593 -0.0223,5.240731 -13.545636,3.42197 -19.035156,3.44336 -1.55596,0 -2.808594,-1.252635 -2.808594,-2.808594 v -6.634766 c 0,-1.555959 2.574504,-2.771643 4.808594,-2.808593 z m 75.246094,0 c 2.23409,0.03695 4.808594,1.252634 4.808594,2.808593 V 94.1875 c 0,1.555959 -1.252634,2.808594 -2.808594,2.808594 -5.48952,-0.02139 -19.012856,1.797371 -19.035156,-3.44336 -0.0074,-1.555941 1.310713,-4.387452 2.808593,-4.808593 0,0 11.992473,-4.03695 14.226563,-4 z"
       style="color:#000000;overflow:visible;fill:#000080;stroke:none;stroke-width:5;stroke-linecap:round;stroke-linejoin:round;stroke-miterlimit:4;stroke-dasharray:none;stroke-dashoffset:49;stop-color:#000000"
       id="rect846" />
  </g>
  <g
     id="g910" />
</svg>
