<?xml version="1.0" encoding="UTF-8" standalone="no"?>
<svg
   xmlns:dc="http://purl.org/dc/elements/1.1/"
   xmlns:cc="http://creativecommons.org/ns#"
   xmlns:rdf="http://www.w3.org/1999/02/22-rdf-syntax-ns#"
   xmlns:svg="http://www.w3.org/2000/svg"
   xmlns="http://www.w3.org/2000/svg"
   xmlns:sodipodi="http://sodipodi.sourceforge.net/DTD/sodipodi-0.dtd"
   xmlns:inkscape="http://www.inkscape.org/namespaces/inkscape"
   inkscape:version="1.0 (4035a4fb49, 2020-05-01)"
   sodipodi:docname="uEA81-hiker.svg"
   id="svg4460"
   height="100"
   width="100"
   version="1.1">
  <sodipodi:namedview
     inkscape:document-rotation="0"
     inkscape:current-layer="svg4460"
     inkscape:window-maximized="1"
     inkscape:window-y="-8"
     inkscape:window-x="-8"
     inkscape:cy="83.264806"
     inkscape:cx="41.660078"
     inkscape:zoom="2.8567114"
     showgrid="false"
     id="namedview11"
     inkscape:window-height="1017"
     inkscape:window-width="1920"
     inkscape:pageshadow="2"
     inkscape:pageopacity="0"
     guidetolerance="10"
     gridtolerance="10"
     objecttolerance="10"
     borderopacity="1"
     bordercolor="#666666"
     pagecolor="#ffffff" />
  <defs
     id="defs4462" />
  <metadata
     id="metadata4465">
    <rdf:RDF>
      <cc:Work
         rdf:about="">
        <dc:format>image/svg+xml</dc:format>
        <dc:type
           rdf:resource="http://purl.org/dc/dcmitype/StillImage" />
        <dc:title />
      </cc:Work>
    </rdf:RDF>
  </metadata>
  <path
     style="color:#000000;font-style:normal;font-variant:normal;font-weight:normal;font-stretch:normal;font-size:medium;line-height:normal;font-family:sans-serif;font-variant-ligatures:normal;font-variant-position:normal;font-variant-caps:normal;font-variant-numeric:normal;font-variant-alternates:normal;font-variant-east-asian:normal;font-feature-settings:normal;font-variation-settings:normal;text-indent:0;text-align:start;text-decoration:none;text-decoration-line:none;text-decoration-style:solid;text-decoration-color:#000000;letter-spacing:normal;word-spacing:normal;text-transform:none;writing-mode:lr-tb;direction:ltr;text-orientation:mixed;dominant-baseline:auto;baseline-shift:baseline;text-anchor:start;white-space:normal;shape-padding:0;shape-margin:0;inline-size:0;clip-rule:nonzero;display:inline;overflow:visible;visibility:visible;opacity:1;isolation:auto;mix-blend-mode:normal;color-interpolation:sRGB;color-interpolation-filters:linearRGB;solid-color:#000000;solid-opacity:1;vector-effect:none;fill:#000080;fill-opacity:1;fill-rule:evenodd;stroke:none;stroke-width:0.514342;stroke-linecap:butt;stroke-linejoin:miter;stroke-miterlimit:4;stroke-dasharray:1.02868, 0.514342;stroke-dashoffset:5.04056;stroke-opacity:1;color-rendering:auto;image-rendering:auto;shape-rendering:auto;text-rendering:auto;enable-background:accumulate;stop-color:#000000;stop-opacity:1"
     d="m 46.429814,7.4999999 c 4.054738,0 7.337141,3.3789471 7.337141,7.4336821 0,4.054737 -3.282403,7.433683 -7.337141,7.433683 -4.054738,0 -7.433683,-3.378946 -7.433683,-7.433683 0,-4.054735 3.378945,-7.4336821 7.433683,-7.4336821 z m 0.482707,15.5431541 c 1.834283,0.09654 3.475488,0.868873 4.633979,2.220451 0.579249,0.289625 1.061956,0.675789 1.448119,1.255038 l 7.723313,12.839998 c 0,0 11.681499,4.923608 13.515782,5.695938 3.861652,1.641202 2.027369,6.757893 -2.31699,5.599397 -0.28962,-0.193083 -0.482706,-0.289625 -0.482706,-0.289625 l -9.074889,20.080598 c 0,0 2.896247,6.661352 6.564813,14.191577 3.572032,7.626765 -5.116694,10.909169 -8.302553,3.861653 C 57.435521,81.35412 57.435521,81.35412 57.435521,81.35412 L 52.801542,91.490961 50.870716,90.622088 56.27703,78.844046 47.202141,59.053073 c -0.386163,0.09654 -0.772327,0 -1.255033,0 0,0 -10.523009,23.942249 -13.419248,30.217437 -2.799696,6.275185 -11.102249,2.510074 -8.302553,-3.668571 2.799696,-6.178645 16.1224,-36.203001 16.1224,-36.203001 l -11.778042,0.193083 0.193086,-14.577741 4.344359,-10.13684 8.012933,2.413534 c 0.772327,-2.510076 3.185859,-4.24782 5.792478,-4.24782 z m 5.985564,15.060449 v 11.58496 l 8.302553,18.149771 8.302554,-18.246313 -12.067671,-5.020149 c -0.579241,-0.289623 -1.061948,-0.675789 -1.44812,-1.255037 z"
     id="path849" />
</svg>
