<?xml version="1.0" encoding="UTF-8" standalone="no"?>
<svg
   xmlns:dc="http://purl.org/dc/elements/1.1/"
   xmlns:cc="http://creativecommons.org/ns#"
   xmlns:rdf="http://www.w3.org/1999/02/22-rdf-syntax-ns#"
   xmlns:svg="http://www.w3.org/2000/svg"
   xmlns="http://www.w3.org/2000/svg"
   xmlns:sodipodi="http://sodipodi.sourceforge.net/DTD/sodipodi-0.dtd"
   xmlns:inkscape="http://www.inkscape.org/namespaces/inkscape"
   inkscape:version="1.0 (4035a4fb49, 2020-05-01)"
   sodipodi:docname="uEA80-pedestrian.svg"
   id="svg4460"
   height="100"
   width="100"
   version="1.1">
  <sodipodi:namedview
     inkscape:document-rotation="0"
     inkscape:current-layer="svg4460"
     inkscape:window-maximized="1"
     inkscape:window-y="-8"
     inkscape:window-x="-8"
     inkscape:cy="64.748865"
     inkscape:cx="39.230171"
     inkscape:zoom="2.8567114"
     showgrid="false"
     id="namedview11"
     inkscape:window-height="1017"
     inkscape:window-width="1920"
     inkscape:pageshadow="2"
     inkscape:pageopacity="0"
     guidetolerance="10"
     gridtolerance="10"
     objecttolerance="10"
     borderopacity="1"
     bordercolor="#666666"
     pagecolor="#ffffff" />
  <defs
     id="defs4462" />
  <metadata
     id="metadata4465">
    <rdf:RDF>
      <cc:Work
         rdf:about="">
        <dc:format>image/svg+xml</dc:format>
        <dc:type
           rdf:resource="http://purl.org/dc/dcmitype/StillImage" />
        <dc:title />
      </cc:Work>
    </rdf:RDF>
  </metadata>
  <path
     id="path833"
     style="color:#000000;font-style:normal;font-variant:normal;font-weight:normal;font-stretch:normal;font-size:medium;line-height:normal;font-family:sans-serif;font-variant-ligatures:normal;font-variant-position:normal;font-variant-caps:normal;font-variant-numeric:normal;font-variant-alternates:normal;font-variant-east-asian:normal;font-feature-settings:normal;font-variation-settings:normal;text-indent:0;text-align:start;text-decoration:none;text-decoration-line:none;text-decoration-style:solid;text-decoration-color:#000000;letter-spacing:normal;word-spacing:normal;text-transform:none;writing-mode:lr-tb;direction:ltr;text-orientation:mixed;dominant-baseline:auto;baseline-shift:baseline;text-anchor:start;white-space:normal;shape-padding:0;shape-margin:0;inline-size:0;clip-rule:nonzero;display:inline;overflow:visible;visibility:visible;opacity:1;isolation:auto;mix-blend-mode:normal;color-interpolation:sRGB;color-interpolation-filters:linearRGB;solid-color:#000000;solid-opacity:1;vector-effect:none;fill:#000080;fill-opacity:1;fill-rule:evenodd;stroke:none;stroke-width:0.706096;stroke-linecap:butt;stroke-linejoin:miter;stroke-miterlimit:4;stroke-dasharray:1.41218, 0.706096;stroke-dashoffset:6.91974;stroke-opacity:1;color-rendering:auto;image-rendering:auto;shape-rendering:auto;text-rendering:auto;enable-background:accumulate;stop-color:#000000;stop-opacity:1"
     d="m 55.016525,7.5000001 c -3.843462,0 -6.891732,3.1807979 -6.891732,7.0242619 0,3.843465 3.04827,7.024263 6.891732,7.024263 3.975994,0 7.024264,-3.180798 7.024264,-7.024263 0,-3.843464 -3.04827,-7.0242619 -7.024264,-7.0242619 z M 49.052526,21.018393 c -1.457861,0.132532 -2.650666,0.927732 -3.578398,1.590397 -1.192797,0.927734 -3.048262,2.915733 -3.048262,2.915733 v 0.132532 c -0.132532,0 -7.42186,8.482129 -11.662926,12.458127 -0.397596,0.397599 -0.662669,0.7952 -0.795201,1.325333 L 27.84721,50.970907 c -0.397604,1.325333 0.66266,2.915732 1.987997,3.180799 1.325329,0.265066 2.91573,-0.7952 3.048262,-2.253066 l 2.120537,-10.735193 8.217061,-8.217063 V 54.814371 L 38.582404,66.344765 24.268812,86.622352 c -0.530136,0.7952 -0.7952,1.722932 -0.662668,2.783199 0.132532,0.927733 0.662668,1.855466 1.457869,2.385598 0.7952,0.662666 1.855465,0.795202 2.915729,0.662666 0.927733,-0.265066 1.855465,-0.795199 2.385602,-1.590398 v -0.132533 l 14.446124,-20.410122 0.397596,-0.795199 5.433863,-13.518392 10.735194,14.446124 7.951996,18.554657 c 0.662669,1.722932 3.048262,2.650664 4.771195,1.855465 1.722933,-0.662667 2.650665,-3.048265 1.987997,-4.771198 L 68.00478,67.272497 67.607184,66.477298 57.269595,52.693839 V 35.862117 l 4.108526,4.771197 0.397604,0.397599 10.602654,8.217062 c 0.927732,0.7952 2.783197,0.662666 3.578398,-0.3976 0.7952,-1.060265 0.530136,-2.783197 -0.397596,-3.710931 L 65.221583,37.054916 C 62.040789,33.343984 57.932255,28.175188 56.07679,25.789589 55.149057,24.59679 52.763456,21.415992 49.715194,21.018393 Z" />
</svg>
