<?xml version="1.0" encoding="UTF-8" standalone="no"?>
<svg
   xmlns:dc="http://purl.org/dc/elements/1.1/"
   xmlns:cc="http://creativecommons.org/ns#"
   xmlns:rdf="http://www.w3.org/1999/02/22-rdf-syntax-ns#"
   xmlns:svg="http://www.w3.org/2000/svg"
   xmlns="http://www.w3.org/2000/svg"
   xmlns:sodipodi="http://sodipodi.sourceforge.net/DTD/sodipodi-0.dtd"
   xmlns:inkscape="http://www.inkscape.org/namespaces/inkscape"
   version="1.1"
   width="100"
   height="100"
   id="svg4460"
   sodipodi:docname="uEAB5-signpost.svg"
   inkscape:version="1.0 (4035a4fb49, 2020-05-01)">
  <sodipodi:namedview
     pagecolor="#ffffff"
     bordercolor="#666666"
     borderopacity="1"
     objecttolerance="10"
     gridtolerance="10"
     guidetolerance="10"
     inkscape:pageopacity="0"
     inkscape:pageshadow="2"
     inkscape:window-width="1920"
     inkscape:window-height="1017"
     id="namedview11"
     showgrid="false"
     inkscape:zoom="2.8567114"
     inkscape:cx="-63.851075"
     inkscape:cy="57.349879"
     inkscape:window-x="-8"
     inkscape:window-y="-8"
     inkscape:window-maximized="1"
     inkscape:current-layer="svg4460"
     inkscape:document-rotation="0" />
  <defs
     id="defs4462" />
  <metadata
     id="metadata4465">
    <rdf:RDF>
      <cc:Work
         rdf:about="">
        <dc:format>image/svg+xml</dc:format>
        <dc:type
           rdf:resource="http://purl.org/dc/dcmitype/StillImage" />
        <dc:title />
      </cc:Work>
    </rdf:RDF>
  </metadata>
  <path
     d="M 50 0 A 3.5 3.5 0 0 0 46.5 3.5 L 46.5 8 L 15.396484 8 A 1.50015 1.50015 0 0 0 14.302734 8.4746094 L 8.0703125 15.125 A 1.50015 1.50015 0 0 0 8.0703125 17.175781 L 14.302734 23.828125 A 1.50015 1.50015 0 0 0 15.396484 24.302734 L 46.5 24.302734 L 46.5 30.605469 L 23.396484 30.605469 A 1.50015 1.50015 0 0 0 22.302734 31.080078 L 16.070312 37.730469 A 1.50015 1.50015 0 0 0 16.070312 39.78125 L 22.302734 46.433594 A 1.50015 1.50015 0 0 0 23.396484 46.908203 L 46.5 46.908203 L 46.5 93 L 38.5 93 A 3.5 3.5 0 0 0 35 96.5 A 3.5 3.5 0 0 0 38.5 100 L 61.5 100 A 3.5 3.5 0 0 0 65 96.5 A 3.5 3.5 0 0 0 61.5 93 L 53.5 93 L 53.5 35.605469 L 80.603516 35.605469 A 1.50015 1.50015 0 0 0 81.697266 35.130859 L 87.929688 28.478516 A 1.50015 1.50015 0 0 0 87.929688 26.427734 L 81.697266 19.777344 A 1.50015 1.50015 0 0 0 80.603516 19.302734 L 53.5 19.302734 L 53.5 3.5 A 3.5 3.5 0 0 0 50 0 z "
     style="color:#000000;font-style:normal;font-variant:normal;font-weight:normal;font-stretch:normal;font-size:medium;line-height:normal;font-family:sans-serif;font-variant-ligatures:normal;font-variant-position:normal;font-variant-caps:normal;font-variant-numeric:normal;font-variant-alternates:normal;font-variant-east-asian:normal;font-feature-settings:normal;font-variation-settings:normal;text-indent:0;text-align:start;text-decoration:none;text-decoration-line:none;text-decoration-style:solid;text-decoration-color:#000000;letter-spacing:normal;word-spacing:normal;text-transform:none;writing-mode:lr-tb;direction:ltr;text-orientation:mixed;dominant-baseline:auto;baseline-shift:baseline;text-anchor:start;white-space:normal;shape-padding:0;shape-margin:0;inline-size:0;clip-rule:nonzero;display:inline;overflow:visible;visibility:visible;isolation:auto;mix-blend-mode:normal;color-interpolation:sRGB;color-interpolation-filters:linearRGB;solid-color:#000000;solid-opacity:1;vector-effect:none;fill:#000080;fill-opacity:1;fill-rule:nonzero;stroke:none;stroke-width:3;stroke-linecap:round;stroke-linejoin:round;stroke-miterlimit:4;stroke-dasharray:none;stroke-dashoffset:20;stroke-opacity:1;color-rendering:auto;image-rendering:auto;shape-rendering:auto;text-rendering:auto;enable-background:accumulate;stop-color:#000000"
     id="path885" />
</svg>
