<?xml version="1.0" encoding="UTF-8" standalone="no"?>
<svg
   xmlns:dc="http://purl.org/dc/elements/1.1/"
   xmlns:cc="http://creativecommons.org/ns#"
   xmlns:rdf="http://www.w3.org/1999/02/22-rdf-syntax-ns#"
   xmlns:svg="http://www.w3.org/2000/svg"
   xmlns="http://www.w3.org/2000/svg"
   xmlns:sodipodi="http://sodipodi.sourceforge.net/DTD/sodipodi-0.dtd"
   xmlns:inkscape="http://www.inkscape.org/namespaces/inkscape"
   inkscape:version="1.0 (4035a4fb49, 2020-05-01)"
   sodipodi:docname="uEAC5-flag.svg"
   id="svg4460"
   height="100"
   width="100"
   version="1.1">
  <sodipodi:namedview
     inkscape:document-rotation="0"
     inkscape:current-layer="svg4460"
     inkscape:window-maximized="1"
     inkscape:window-y="-8"
     inkscape:window-x="-8"
     inkscape:cy="30.658665"
     inkscape:cx="91.244004"
     inkscape:zoom="4.04"
     showgrid="false"
     id="namedview11"
     inkscape:window-height="1017"
     inkscape:window-width="1920"
     inkscape:pageshadow="2"
     inkscape:pageopacity="0"
     guidetolerance="10"
     gridtolerance="10"
     objecttolerance="10"
     borderopacity="1"
     bordercolor="#666666"
     pagecolor="#ffffff" />
  <defs
     id="defs4462" />
  <metadata
     id="metadata4465">
    <rdf:RDF>
      <cc:Work
         rdf:about="">
        <dc:format>image/svg+xml</dc:format>
        <dc:type
           rdf:resource="http://purl.org/dc/dcmitype/StillImage" />
        <dc:title></dc:title>
      </cc:Work>
    </rdf:RDF>
  </metadata>
  <path
     d="M 38.004394,76.792481 C 27.41,78.289893 20,81.871151 20,87.143066 20,94.24387 32.381299,100 49.999999,100 67.618699,100 80,94.24387 80,87.143066 80,81.871346 72.590846,78.289983 61.997069,76.792481 61.508333,77.625926 61.018088,78.458096 60.529295,79.291503 68.513772,80.399298 74,82.727598 74,85.429203 74,89.216298 63.254833,92.286131 49.999999,92.286131 36.745165,92.286131 26,89.216298 26,85.429203 c -9.75e-4,-2.692185 5.449671,-5.018452 13.458983,-6.130372 -0.484164,-0.835905 -0.970878,-1.670153 -1.454589,-2.50635 z"
     style="color:#000000;overflow:visible;fill:#000080;fill-opacity:1;stroke:none;stroke-width:24.7397;stroke-linecap:round;stroke-linejoin:round;stroke-miterlimit:4;stroke-dasharray:none;stroke-dashoffset:20;stroke-opacity:1"
     id="path887" />
  <path
     d="M 50 0 A 3.5 3.5 0 0 0 49.888672 0.001953125 A 3.50035 3.50035 0 0 0 49.841797 0.00390625 A 3.5 3.5 0 0 0 49.810547 0.005859375 A 3.50035 3.50035 0 0 0 49.707031 0.01171875 A 3.5 3.5 0 0 0 49.623047 0.021484375 A 3.50035 3.50035 0 0 0 49.560547 0.02734375 A 3.5 3.5 0 0 0 49.449219 0.044921875 A 3.50035 3.50035 0 0 0 49.402344 0.052734375 A 3.5 3.5 0 0 0 49.318359 0.068359375 A 3.50035 3.50035 0 0 0 49.242188 0.083984375 A 3.5 3.5 0 0 0 49.197266 0.09375 A 3.50035 3.50035 0 0 0 49.068359 0.12695312 A 3.50035 3.50035 0 0 0 48.949219 0.16210938 A 3.5 3.5 0 0 0 48.875 0.1875 A 3.50035 3.50035 0 0 0 48.767578 0.22460938 A 3.50035 3.50035 0 0 0 48.623047 0.28320312 A 3.50035 3.50035 0 0 0 48.511719 0.33203125 A 3.5 3.5 0 0 0 48.439453 0.3671875 A 3.50035 3.50035 0 0 0 48.339844 0.41992188 A 3.50035 3.50035 0 0 0 48.214844 0.49023438 A 3.5 3.5 0 0 0 48.203125 0.49609375 A 3.50035 3.50035 0 0 0 48.109375 0.5546875 A 3.5 3.5 0 0 0 47.982422 0.63867188 A 3.50035 3.50035 0 0 0 47.976562 0.64453125 A 3.5 3.5 0 0 0 47.884766 0.71289062 A 3.50035 3.50035 0 0 0 47.835938 0.75 A 3.5 3.5 0 0 0 47.773438 0.80078125 A 3.50035 3.50035 0 0 0 47.703125 0.859375 A 3.5 3.5 0 0 0 47.695312 0.8671875 A 3.50035 3.50035 0 0 0 47.613281 0.94140625 A 3.5 3.5 0 0 0 47.5 1.0507812 A 3.5 3.5 0 0 0 47.404297 1.1542969 A 3.50035 3.50035 0 0 0 47.380859 1.1777344 A 3.5 3.5 0 0 0 47.341797 1.2246094 A 3.50035 3.50035 0 0 0 47.265625 1.3144531 A 3.5 3.5 0 0 0 47.248047 1.3378906 A 3.50035 3.50035 0 0 0 47.166016 1.4472656 A 3.50035 3.50035 0 0 0 47.083984 1.5664062 A 3.5 3.5 0 0 0 47.076172 1.5761719 A 3.50035 3.50035 0 0 0 47.017578 1.6699219 A 3.5 3.5 0 0 0 46.958984 1.7675781 A 3.50035 3.50035 0 0 0 46.921875 1.8359375 A 3.5 3.5 0 0 0 46.916016 1.8457031 A 3.50035 3.50035 0 0 0 46.865234 1.9453125 A 3.5 3.5 0 0 0 46.820312 2.0410156 A 3.50035 3.50035 0 0 0 46.78125 2.1269531 A 3.5 3.5 0 0 0 46.779297 2.1308594 A 3.50035 3.50035 0 0 0 46.738281 2.2324219 A 3.5 3.5 0 0 0 46.697266 2.3417969 A 3.50035 3.50035 0 0 0 46.673828 2.4140625 A 3.5 3.5 0 0 0 46.664062 2.4394531 A 3.50035 3.50035 0 0 0 46.625 2.5742188 A 3.5 3.5 0 0 0 46.621094 2.5917969 A 3.50035 3.50035 0 0 0 46.595703 2.6894531 A 3.5 3.5 0 0 0 46.564453 2.8359375 A 3.5 3.5 0 0 0 46.544922 2.9511719 A 3.50035 3.50035 0 0 0 46.533203 3.0273438 A 3.5 3.5 0 0 0 46.529297 3.0566406 A 3.50035 3.50035 0 0 0 46.515625 3.1796875 A 3.5 3.5 0 0 0 46.511719 3.234375 A 3.50035 3.50035 0 0 0 46.503906 3.34375 A 3.5 3.5 0 0 0 46.503906 3.3691406 A 3.50035 3.50035 0 0 0 46.5 3.5 L 46.5 43.5 L 46.5 83.5 A 3.5 3.5 0 0 0 50 87 A 3.5 3.5 0 0 0 53.5 83.5 L 53.5 45.773438 L 96.421875 26.697266 A 3.50035 3.50035 0 0 0 96.421875 20.300781 L 51.421875 0.30078125 A 3.50035 3.50035 0 0 0 51.369141 0.27929688 A 3.50035 3.50035 0 0 0 51.226562 0.22265625 A 3.50035 3.50035 0 0 0 51.224609 0.22070312 A 3.5 3.5 0 0 0 51.220703 0.21875 A 3.50035 3.50035 0 0 0 51.076172 0.16992188 A 3.50035 3.50035 0 0 0 50.923828 0.125 A 3.50035 3.50035 0 0 0 50.771484 0.0859375 A 3.50035 3.50035 0 0 0 50.617188 0.0546875 A 3.50035 3.50035 0 0 0 50.462891 0.03125 A 3.50035 3.50035 0 0 0 50.306641 0.013671875 A 3.50035 3.50035 0 0 0 50.148438 0.00390625 A 3.50035 3.50035 0 0 0 50.046875 0 A 3.50035 3.50035 0 0 0 50.015625 0 A 3.5 3.5 0 0 0 50 0 z "
     style="color:#000000;font-style:normal;font-variant:normal;font-weight:normal;font-stretch:normal;font-size:medium;line-height:normal;font-family:sans-serif;font-variant-ligatures:normal;font-variant-position:normal;font-variant-caps:normal;font-variant-numeric:normal;font-variant-alternates:normal;font-variant-east-asian:normal;font-feature-settings:normal;font-variation-settings:normal;text-indent:0;text-align:start;text-decoration:none;text-decoration-line:none;text-decoration-style:solid;text-decoration-color:#000000;letter-spacing:normal;word-spacing:normal;text-transform:none;writing-mode:lr-tb;direction:ltr;text-orientation:mixed;dominant-baseline:auto;baseline-shift:baseline;text-anchor:start;white-space:normal;shape-padding:0;shape-margin:0;inline-size:0;clip-rule:nonzero;display:inline;overflow:visible;visibility:visible;isolation:auto;mix-blend-mode:normal;color-interpolation:sRGB;color-interpolation-filters:linearRGB;solid-color:#000000;solid-opacity:1;vector-effect:none;fill:#000080;fill-opacity:1;fill-rule:evenodd;stroke:none;stroke-width:7;stroke-linecap:round;stroke-linejoin:miter;stroke-miterlimit:4;stroke-dasharray:none;stroke-dashoffset:0;stroke-opacity:1;color-rendering:auto;image-rendering:auto;shape-rendering:auto;text-rendering:auto;enable-background:accumulate;stop-color:#000000;stop-opacity:1;opacity:1"
     id="path869" />
</svg>
