<?xml version="1.0" encoding="UTF-8" standalone="no"?>
<svg
   xmlns:dc="http://purl.org/dc/elements/1.1/"
   xmlns:cc="http://creativecommons.org/ns#"
   xmlns:rdf="http://www.w3.org/1999/02/22-rdf-syntax-ns#"
   xmlns:svg="http://www.w3.org/2000/svg"
   xmlns="http://www.w3.org/2000/svg"
   xmlns:sodipodi="http://sodipodi.sourceforge.net/DTD/sodipodi-0.dtd"
   xmlns:inkscape="http://www.inkscape.org/namespaces/inkscape"
   version="1.1"
   width="100"
   height="100"
   id="svg4460"
   sodipodi:docname="uEAC6-flag-o.svg"
   inkscape:version="1.0 (4035a4fb49, 2020-05-01)">
  <path
     d="M 50 0 C 49.96288 6.0685482e-05 49.92577 0.00071180452 49.888672 0.001953125 C 49.873042 0.002499445 49.857407 0.0031505 49.841797 0.00390625 C 49.831377 0.00451069 49.820957 0.005161735 49.810547 0.005859375 C 49.776017 0.007301325 49.741507 0.00925467 49.707031 0.01171875 C 49.679001 0.01463565 49.650997 0.017891175 49.623047 0.021484375 C 49.602197 0.023250675 49.581357 0.02520385 49.560547 0.02734375 C 49.523347 0.03260525 49.486237 0.038465345 49.449219 0.044921875 C 49.433579 0.047419975 49.417944 0.050024175 49.402344 0.052734375 C 49.374284 0.057600875 49.346279 0.062809585 49.318359 0.068359375 C 49.292909 0.073285575 49.267517 0.078494185 49.242188 0.083984375 C 49.227198 0.087141175 49.212216 0.0903965 49.197266 0.09375 C 49.154086 0.1039996 49.111116 0.11506931 49.068359 0.12695312 C 49.028439 0.13796622 48.988719 0.14968678 48.949219 0.16210938 C 48.924389 0.17029537 48.89965 0.1787595 48.875 0.1875 C 48.83899 0.1992876 48.80318 0.21165907 48.767578 0.22460938 C 48.718968 0.24306478 48.670778 0.26260093 48.623047 0.28320312 C 48.585657 0.29883352 48.548547 0.31511205 48.511719 0.33203125 C 48.487499 0.34347305 48.463413 0.3551925 48.439453 0.3671875 C 48.405973 0.3842299 48.372764 0.40181027 48.339844 0.41992188 C 48.297704 0.44250328 48.256024 0.46594568 48.214844 0.49023438 C 48.210944 0.49218038 48.207045 0.49413375 48.203125 0.49609375 C 48.171565 0.51513025 48.140315 0.5346639 48.109375 0.5546875 C 48.066455 0.5817587 48.024125 0.60976007 47.982422 0.63867188 C 47.980422 0.64062288 47.978563 0.64257625 47.976562 0.64453125 C 47.945592 0.66681585 47.914996 0.68960532 47.884766 0.71289062 C 47.868386 0.72511762 47.852107 0.7374878 47.835938 0.75 C 47.814907 0.7666868 47.794078 0.78361495 47.773438 0.80078125 C 47.749747 0.82000525 47.726305 0.8395381 47.703125 0.859375 C 47.700525 0.861975 47.697913 0.8645785 47.695312 0.8671875 C 47.667583 0.8914934 47.640231 0.91623605 47.613281 0.94140625 C 47.574701 0.97701045 47.536931 1.0134781 47.5 1.0507812 C 47.46741 1.0846403 47.435497 1.1191522 47.404297 1.1542969 C 47.396497 1.1620769 47.388639 1.1698854 47.380859 1.1777344 C 47.367699 1.1932454 47.354677 1.2088714 47.341797 1.2246094 C 47.315907 1.2541284 47.290505 1.2840801 47.265625 1.3144531 C 47.259725 1.3222431 47.253877 1.3300546 47.248047 1.3378906 C 47.219997 1.3738116 47.192646 1.4102766 47.166016 1.4472656 C 47.137856 1.4864096 47.110504 1.5261316 47.083984 1.5664062 C 47.081384 1.5696562 47.078772 1.5729119 47.076172 1.5761719 C 47.056152 1.6071119 47.036608 1.6383659 47.017578 1.6699219 C 46.997518 1.7021539 46.977984 1.7347101 46.958984 1.7675781 C 46.946364 1.7902261 46.933995 1.8130145 46.921875 1.8359375 C 46.919875 1.8391875 46.918016 1.8424431 46.916016 1.8457031 C 46.898556 1.8786341 46.881624 1.9118415 46.865234 1.9453125 C 46.849774 1.9769855 46.834802 2.0088906 46.820312 2.0410156 C 46.806902 2.0694846 46.79388 2.0981331 46.78125 2.1269531 L 46.779297 2.1308594 C 46.765097 2.1644974 46.751421 2.1983564 46.738281 2.2324219 C 46.724001 2.2686499 46.710336 2.3051129 46.697266 2.3417969 C 46.689166 2.3657999 46.681378 2.3898895 46.673828 2.4140625 C 46.670528 2.4225125 46.667363 2.4309761 46.664062 2.4394531 C 46.650143 2.4841091 46.63712 2.5290401 46.625 2.5742188 L 46.621094 2.5917969 C 46.612194 2.6242249 46.603693 2.6567811 46.595703 2.6894531 C 46.584243 2.7380531 46.573823 2.7868921 46.564453 2.8359375 C 46.557253 2.8742375 46.550792 2.9126545 46.544922 2.9511719 C 46.540722 2.9765189 46.536823 3.0019107 46.533203 3.0273438 L 46.529297 3.0566406 C 46.523997 3.0975726 46.519495 3.1385946 46.515625 3.1796875 C 46.514225 3.1979065 46.512919 3.216136 46.511719 3.234375 C 46.508519 3.27079 46.505906 3.307253 46.503906 3.34375 C 46.503875 3.35221 46.503875 3.3606766 46.503906 3.3691406 C 46.501868 3.4127214 46.500486 3.4563597 46.5 3.5 L 46.5 43.5 L 46.5 93 L 36.929688 93 A 3.5 3.5 0 0 0 33.429688 96.5 A 3.5 3.5 0 0 0 36.929688 100 L 61.929688 100 A 3.5 3.5 0 0 0 65.429688 96.5 A 3.5 3.5 0 0 0 61.929688 93 L 53.5 93 L 53.5 45.773438 L 96.421875 26.697266 C 99.192253 25.465012 99.192253 21.533035 96.421875 20.300781 L 51.421875 0.30078125 C 51.404355 0.29347725 51.386771 0.28631527 51.369141 0.27929688 C 51.322031 0.25937728 51.274501 0.24049255 51.226562 0.22265625 L 51.224609 0.22070312 L 51.220703 0.21875 C 51.172883 0.2014259 51.124703 0.18514597 51.076172 0.16992188 C 51.025774 0.15379732 50.974943 0.13881978 50.923828 0.125 C 50.873346 0.11083985 50.822551 0.09781573 50.771484 0.0859375 C 50.720293 0.07436542 50.668848 0.06394612 50.617188 0.0546875 C 50.565936 0.04572925 50.514491 0.0379148 50.462891 0.03125 C 50.410946 0.02422143 50.358849 0.018360565 50.306641 0.013671875 C 50.253987 0.009222955 50.201238 0.00596692 50.148438 0.00390625 C 50.114604 0.0021127 50.080746 0.00081048227 50.046875 0 C 50.036458 -4.6498558e-05 50.026042 -4.6498558e-05 50.015625 0 C 50.010417 -1.1625759e-05 50.005208 -1.1625759e-05 50 0 z M 53.5 8.8847656 L 86.382812 23.5 L 53.5 38.113281 L 53.5 8.8847656 z "
     style="color:#000000;font-style:normal;font-variant:normal;font-weight:normal;font-stretch:normal;font-size:medium;line-height:normal;font-family:sans-serif;font-variant-ligatures:normal;font-variant-position:normal;font-variant-caps:normal;font-variant-numeric:normal;font-variant-alternates:normal;font-variant-east-asian:normal;font-feature-settings:normal;font-variation-settings:normal;text-indent:0;text-align:start;text-decoration:none;text-decoration-line:none;text-decoration-style:solid;text-decoration-color:#000000;letter-spacing:normal;word-spacing:normal;text-transform:none;writing-mode:lr-tb;direction:ltr;text-orientation:mixed;dominant-baseline:auto;baseline-shift:baseline;text-anchor:start;white-space:normal;shape-padding:0;shape-margin:0;inline-size:0;clip-rule:nonzero;display:inline;overflow:visible;visibility:visible;opacity:1;isolation:auto;mix-blend-mode:normal;color-interpolation:sRGB;color-interpolation-filters:linearRGB;solid-color:#000000;solid-opacity:1;vector-effect:none;fill:#000080;fill-opacity:1;fill-rule:evenodd;stroke:none;stroke-width:7;stroke-linecap:round;stroke-linejoin:miter;stroke-miterlimit:4;stroke-dasharray:none;stroke-dashoffset:0;stroke-opacity:1;color-rendering:auto;image-rendering:auto;shape-rendering:auto;text-rendering:auto;enable-background:accumulate;stop-color:#000000;stop-opacity:1"
     id="path860" />
  <sodipodi:namedview
     pagecolor="#ffffff"
     bordercolor="#666666"
     borderopacity="1"
     objecttolerance="10"
     gridtolerance="10"
     guidetolerance="10"
     inkscape:pageopacity="0"
     inkscape:pageshadow="2"
     inkscape:window-width="1920"
     inkscape:window-height="1017"
     id="namedview11"
     showgrid="false"
     inkscape:zoom="4.04"
     inkscape:cx="91.244004"
     inkscape:cy="30.658665"
     inkscape:window-x="-8"
     inkscape:window-y="-8"
     inkscape:window-maximized="1"
     inkscape:current-layer="svg4460"
     inkscape:document-rotation="0" />
  <defs
     id="defs4462" />
  <metadata
     id="metadata4465">
    <rdf:RDF>
      <cc:Work
         rdf:about="">
        <dc:format>image/svg+xml</dc:format>
        <dc:type
           rdf:resource="http://purl.org/dc/dcmitype/StillImage" />
        <dc:title />
      </cc:Work>
    </rdf:RDF>
  </metadata>
</svg>
