<?xml version="1.0" encoding="UTF-8" standalone="no"?>
<svg
   xmlns:dc="http://purl.org/dc/elements/1.1/"
   xmlns:cc="http://creativecommons.org/ns#"
   xmlns:rdf="http://www.w3.org/1999/02/22-rdf-syntax-ns#"
   xmlns:svg="http://www.w3.org/2000/svg"
   xmlns="http://www.w3.org/2000/svg"
   xmlns:sodipodi="http://sodipodi.sourceforge.net/DTD/sodipodi-0.dtd"
   xmlns:inkscape="http://www.inkscape.org/namespaces/inkscape"
   inkscape:version="1.0 (4035a4fb49, 2020-05-01)"
   sodipodi:docname="uEAC9-flag-finish.svg"
   id="svg4460"
   height="100"
   width="100"
   version="1.1">
  <path
     d="M 50 0 C 48.067003 0 46.5 1.5670034 46.5 3.5 L 46.5 93 L 36.929688 93 A 3.5 3.5 0 0 0 33.429688 96.5 A 3.5 3.5 0 0 0 36.929688 100 L 61.929688 100 A 3.5 3.5 0 0 0 65.429688 96.5 A 3.5 3.5 0 0 0 61.929688 93 L 53.5 93 L 53.5 47 L 96.5 47 C 98.432917 46.999807 99.999807 45.432917 100 43.5 L 100 3.5 C 99.999807 1.5670834 98.432917 0.00019326267 96.5 0 L 50.5 0 C 50.415274 0.00018124358 50.330583 0.003438595 50.246094 0.009765625 C 50.164203 0.003624335 50.08212 0.00036711978 50 0 z M 63.800781 7 L 73.599609 7 L 73.599609 14.429688 L 83.400391 14.429688 L 83.400391 7 L 93 7 L 93 14.429688 L 83.400391 14.429688 L 83.400391 24.228516 L 93 24.228516 L 93 34.029297 L 83.400391 34.029297 L 83.400391 40 L 73.599609 40 L 73.599609 34.029297 L 63.800781 34.029297 L 63.800781 40 L 54 40 L 54 34.029297 L 63.800781 34.029297 L 63.800781 24.228516 L 54 24.228516 L 54 14.429688 L 63.800781 14.429688 L 63.800781 7 z M 63.800781 14.429688 L 63.800781 24.228516 L 73.599609 24.228516 L 73.599609 14.429688 L 63.800781 14.429688 z M 73.599609 24.228516 L 73.599609 34.029297 L 83.400391 34.029297 L 83.400391 24.228516 L 73.599609 24.228516 z "
     style="color:#000000;font-style:normal;font-variant:normal;font-weight:normal;font-stretch:normal;font-size:medium;line-height:normal;font-family:sans-serif;font-variant-ligatures:normal;font-variant-position:normal;font-variant-caps:normal;font-variant-numeric:normal;font-variant-alternates:normal;font-variant-east-asian:normal;font-feature-settings:normal;font-variation-settings:normal;text-indent:0;text-align:start;text-decoration:none;text-decoration-line:none;text-decoration-style:solid;text-decoration-color:#000000;letter-spacing:normal;word-spacing:normal;text-transform:none;writing-mode:lr-tb;direction:ltr;text-orientation:mixed;dominant-baseline:auto;baseline-shift:baseline;text-anchor:start;white-space:normal;shape-padding:0;shape-margin:0;inline-size:0;clip-rule:nonzero;display:inline;overflow:visible;visibility:visible;opacity:1;isolation:auto;mix-blend-mode:normal;color-interpolation:sRGB;color-interpolation-filters:linearRGB;solid-color:#000000;solid-opacity:1;vector-effect:none;fill:#000080;fill-opacity:1;fill-rule:nonzero;stroke:none;stroke-width:7;stroke-linecap:round;stroke-linejoin:round;stroke-miterlimit:4;stroke-dasharray:none;stroke-dashoffset:0;stroke-opacity:1;color-rendering:auto;image-rendering:auto;shape-rendering:auto;text-rendering:auto;enable-background:accumulate;stop-color:#000000;stop-opacity:1"
     id="path839" />
  <sodipodi:namedview
     inkscape:document-rotation="0"
     inkscape:current-layer="svg4460"
     inkscape:window-maximized="1"
     inkscape:window-y="-8"
     inkscape:window-x="-8"
     inkscape:cy="9.3906047"
     inkscape:cx="43.616064"
     inkscape:zoom="4.04"
     showgrid="false"
     id="namedview11"
     inkscape:window-height="1017"
     inkscape:window-width="1920"
     inkscape:pageshadow="2"
     inkscape:pageopacity="0"
     guidetolerance="10"
     gridtolerance="10"
     objecttolerance="10"
     borderopacity="1"
     bordercolor="#666666"
     pagecolor="#ffffff" />
  <defs
     id="defs4462" />
  <metadata
     id="metadata4465">
    <rdf:RDF>
      <cc:Work
         rdf:about="">
        <dc:format>image/svg+xml</dc:format>
        <dc:type
           rdf:resource="http://purl.org/dc/dcmitype/StillImage" />
        <dc:title />
      </cc:Work>
    </rdf:RDF>
  </metadata>
</svg>
