<?xml version="1.0" encoding="UTF-8" standalone="no"?>
<svg
   xmlns:dc="http://purl.org/dc/elements/1.1/"
   xmlns:cc="http://creativecommons.org/ns#"
   xmlns:rdf="http://www.w3.org/1999/02/22-rdf-syntax-ns#"
   xmlns:svg="http://www.w3.org/2000/svg"
   xmlns="http://www.w3.org/2000/svg"
   xmlns:sodipodi="http://sodipodi.sourceforge.net/DTD/sodipodi-0.dtd"
   xmlns:inkscape="http://www.inkscape.org/namespaces/inkscape"
   version="1.1"
   width="100"
   height="100"
   id="svg4460"
   sodipodi:docname="uEB03-directions.svg"
   inkscape:version="0.92.4 (5da689c313, 2019-01-14)">
  <sodipodi:namedview
     inkscape:document-rotation="0"
     inkscape:current-layer="svg4460"
     inkscape:window-maximized="1"
     inkscape:window-y="-8"
     inkscape:window-x="1272"
     inkscape:cy="18.232767"
     inkscape:cx="85.479892"
     inkscape:zoom="2.8567114"
     showgrid="false"
     id="namedview11"
     inkscape:window-height="1177"
     inkscape:window-width="1920"
     inkscape:pageshadow="2"
     inkscape:pageopacity="0"
     guidetolerance="10"
     gridtolerance="10"
     objecttolerance="10"
     borderopacity="1"
     bordercolor="#666666"
     pagecolor="#ffffff" />
  <defs
     id="defs4462" />
  <metadata
     id="metadata4465">
    <rdf:RDF>
      <cc:Work
         rdf:about="">
        <dc:format>image/svg+xml</dc:format>
        <dc:type
           rdf:resource="http://purl.org/dc/dcmitype/StillImage" />
        <dc:title />
      </cc:Work>
    </rdf:RDF>
  </metadata>
  <path
     id="path816"
     d="m 100,42.333334 c 0,0 -11.90476,-5.476191 -11.90476,-5.476191 0,0 -10.822507,-4.978355 -10.822507,-4.978355 0,0 1.16328,4.459285 1.16328,4.459285 0,0 -11.53732,0 -11.53732,0 -1.829346,-1.411372 -4.157,-2.575835 -6.798986,-3.416906 0,0 -0.534494,-5.587834 -0.534494,-5.587834 0,0 7.826094,0 7.826094,0 0,0 -9.057974,-4.166667 -9.057974,-4.166667 0,0 -8.333333,-3.833333 -8.333333,-3.833333 0,0 -8.333333,3.833333 -8.333333,3.833333 0,0 -9.057974,4.166667 -9.057974,4.166667 0,0 7.826094,0 7.826094,0 0,0 -0.534494,5.587834 -0.534494,5.587834 -2.641986,0.841071 -4.96964,2.005534 -6.798986,3.416906 0,0 -11.53732,0 -11.53732,0 0,0 1.16328,-4.459285 1.16328,-4.459285 0,0 -10.822507,4.978355 -10.822507,4.978355 0,0 -11.90476,5.476191 -11.90476,5.476191 0,0 7.894733,6.052632 7.894733,6.052632 0,0 8.771934,6.725145 8.771934,6.725145 0,0 1.587306,-6.084657 1.587306,-6.084657 0,0 12.88028,0 12.88028,0 1.568307,1.80863 3.89204,3.379411 6.78924,4.561276 0,0 -0.864666,9.039721 -0.864666,9.039721 0,0 -10.58824,0 -10.58824,0 0,0 11.029413,8.455883 11.029413,8.455883 0,0 12.5,9.583333 12.5,9.583333 0,0 12.5,-9.583333 12.5,-9.583333 0,0 11.029413,-8.455883 11.029413,-8.455883 0,0 -10.58824,0 -10.58824,0 0,0 -0.864666,-9.039721 -0.864666,-9.039721 2.8972,-1.181864 5.220933,-2.752646 6.78924,-4.561275 0,0 12.88028,0 12.88028,0 0,0 1.587306,6.084656 1.587306,6.084656 0,0 8.771937,-6.725145 8.771937,-6.725145 0,0 7.89473,-6.052632 7.89473,-6.052632 0,0 0,0 0,0 m -41,0 c 0.232747,2.973904 -3.7208,5.418848 -9,5.418848 -5.2792,0 -9.232747,-2.444944 -9,-5.418848 0.221293,-2.827658 4.175467,-4.952154 9,-4.952154 4.824533,0 8.778707,2.124496 9,4.952154 0,0 0,0 0,0"
     style="color:#000000;font-style:normal;font-variant:normal;font-weight:normal;font-stretch:normal;font-size:medium;line-height:normal;font-family:sans-serif;font-variant-ligatures:normal;font-variant-position:normal;font-variant-caps:normal;font-variant-numeric:normal;font-variant-alternates:normal;font-feature-settings:normal;text-indent:0;text-align:start;text-decoration:none;text-decoration-line:none;text-decoration-style:solid;text-decoration-color:#000000;letter-spacing:normal;word-spacing:normal;text-transform:none;writing-mode:lr-tb;direction:ltr;text-orientation:mixed;dominant-baseline:auto;baseline-shift:baseline;text-anchor:start;white-space:normal;shape-padding:0;clip-rule:nonzero;display:inline;overflow:visible;visibility:visible;opacity:1;isolation:auto;mix-blend-mode:normal;color-interpolation:sRGB;color-interpolation-filters:linearRGB;solid-color:#000000;solid-opacity:1;vector-effect:none;fill:#000000;fill-opacity:1;fill-rule:nonzero;stroke:none;stroke-width:16;stroke-linecap:round;stroke-linejoin:round;stroke-miterlimit:4;stroke-dasharray:none;stroke-dashoffset:20;stroke-opacity:1;paint-order:normal;color-rendering:auto;image-rendering:auto;shape-rendering:auto;text-rendering:auto;enable-background:accumulate"
     inkscape:connector-curvature="0" />
</svg>
