<?xml version="1.0" encoding="UTF-8" standalone="no"?>
<svg
   xmlns:dc="http://purl.org/dc/elements/1.1/"
   xmlns:cc="http://creativecommons.org/ns#"
   xmlns:rdf="http://www.w3.org/1999/02/22-rdf-syntax-ns#"
   xmlns:svg="http://www.w3.org/2000/svg"
   xmlns="http://www.w3.org/2000/svg"
   xmlns:sodipodi="http://sodipodi.sourceforge.net/DTD/sodipodi-0.dtd"
   xmlns:inkscape="http://www.inkscape.org/namespaces/inkscape"
   inkscape:version="1.0 (4035a4fb49, 2020-05-01)"
   sodipodi:docname="uEA06-square-pt.svg"
   id="svg4460"
   height="100"
   width="100"
   version="1.1">
  <sodipodi:namedview
     inkscape:document-rotation="0"
     inkscape:current-layer="svg4460"
     inkscape:window-maximized="1"
     inkscape:window-y="-8"
     inkscape:window-x="-8"
     inkscape:cy="55.721416"
     inkscape:cx="41.469103"
     inkscape:zoom="5.7134227"
     showgrid="false"
     id="namedview11"
     inkscape:window-height="1017"
     inkscape:window-width="1920"
     inkscape:pageshadow="2"
     inkscape:pageopacity="0"
     guidetolerance="10"
     gridtolerance="10"
     objecttolerance="10"
     borderopacity="1"
     bordercolor="#666666"
     pagecolor="#ffffff"
     showguides="false" />
  <defs
     id="defs4462" />
  <metadata
     id="metadata4465">
    <rdf:RDF>
      <cc:Work
         rdf:about="">
        <dc:format>image/svg+xml</dc:format>
        <dc:type
           rdf:resource="http://purl.org/dc/dcmitype/StillImage" />
        <dc:title />
      </cc:Work>
    </rdf:RDF>
  </metadata>
  <path
     d="M 12.550781 0 C 5.66107 -2.2838851e-07 -2.2838852e-07 5.66107 0 12.550781 C 4.6537669e-07 18.56743 4.3174355 23.645542 10 24.835938 L 10 75.263672 C 4.3174351 76.454445 -1.9944718e-07 81.534133 0 87.550781 C -2.283885e-07 94.440493 5.6610701 100.09961 12.550781 100.09961 C 18.596918 100.09961 23.640641 95.7256 24.791016 90 L 75.246094 90 C 76.397621 95.731839 81.498627 100.09961 87.550781 100.09961 C 94.201808 100.09961 99.655828 94.811706 100.0293 88.248047 A 3.5 3.5 0 0 0 100.09961 87.550781 A 3.5 3.5 0 0 0 100.0293 86.853516 C 99.703148 81.117079 95.495014 76.35586 90 75.246094 L 90 24.853516 C 95.494878 23.744081 99.702909 18.984262 100.0293 13.248047 A 3.5 3.5 0 0 0 100.09961 12.550781 A 3.5 3.5 0 0 0 100.0293 11.853516 C 99.656101 5.2896039 94.201991 -2.2048237e-07 87.550781 0 C 81.534133 -1.9944716e-07 76.454445 4.3174351 75.263672 10 L 24.769531 10 C 23.580232 4.3239583 18.561251 4.648988e-07 12.550781 0 z M 12.550781 7 C 15.657411 7.0000002 18.099609 9.4441512 18.099609 12.550781 C 18.099609 15.657411 15.657411 18.099609 12.550781 18.099609 C 9.4441512 18.099609 7.0000002 15.657411 7 12.550781 C 6.9999999 9.444151 9.444151 6.9999999 12.550781 7 z M 87.550781 7 C 90.657412 6.9999999 93.099609 9.444151 93.099609 12.550781 C 93.099609 15.657411 90.657411 18.099609 87.550781 18.099609 C 84.444151 18.099609 82 15.657411 82 12.550781 C 82 9.444151 84.444151 6.9999999 87.550781 7 z M 24.216797 17 L 75.837891 17 C 77.103663 20.294311 79.718702 22.931586 83 24.224609 L 83 75.875 C 79.752203 77.155195 77.155195 79.752203 75.875 83 L 24.175781 83 C 22.890876 79.723531 20.277796 77.105629 17 75.837891 L 17 24.261719 C 20.311799 22.981156 22.94656 20.323811 24.216797 17 z M 12.550781 82 C 15.657411 82 18.099609 84.444151 18.099609 87.550781 C 18.099609 90.657411 15.657411 93.099609 12.550781 93.099609 C 9.444151 93.099609 6.9999999 90.657412 7 87.550781 C 6.9999999 84.444151 9.444151 82 12.550781 82 z M 87.550781 82 C 90.657412 82 93.099609 84.444151 93.099609 87.550781 C 93.099609 90.657412 90.657412 93.099609 87.550781 93.099609 C 84.444151 93.099609 82 90.657412 82 87.550781 C 82 84.444151 84.444151 82 87.550781 82 z "
     style="color:#000000;font-style:normal;font-variant:normal;font-weight:normal;font-stretch:normal;font-size:medium;line-height:normal;font-family:sans-serif;font-variant-ligatures:normal;font-variant-position:normal;font-variant-caps:normal;font-variant-numeric:normal;font-variant-alternates:normal;font-variant-east-asian:normal;font-feature-settings:normal;font-variation-settings:normal;text-indent:0;text-align:start;text-decoration:none;text-decoration-line:none;text-decoration-style:solid;text-decoration-color:#000000;letter-spacing:normal;word-spacing:normal;text-transform:none;writing-mode:lr-tb;direction:ltr;text-orientation:mixed;dominant-baseline:auto;baseline-shift:baseline;text-anchor:start;white-space:normal;shape-padding:0;shape-margin:0;inline-size:0;clip-rule:nonzero;display:inline;overflow:visible;visibility:visible;isolation:auto;mix-blend-mode:normal;color-interpolation:sRGB;color-interpolation-filters:linearRGB;solid-color:#000000;solid-opacity:1;vector-effect:none;fill:#000080;fill-opacity:1;fill-rule:nonzero;stroke:none;stroke-width:7;stroke-linecap:butt;stroke-linejoin:round;stroke-miterlimit:4;stroke-dasharray:none;stroke-dashoffset:188.976;stroke-opacity:1;color-rendering:auto;image-rendering:auto;shape-rendering:auto;text-rendering:auto;enable-background:accumulate;stop-color:#000000;stop-opacity:1;opacity:1"
     id="path860" />
</svg>
