<?xml version="1.0" encoding="UTF-8" standalone="no"?>
<svg
   xmlns:dc="http://purl.org/dc/elements/1.1/"
   xmlns:cc="http://creativecommons.org/ns#"
   xmlns:rdf="http://www.w3.org/1999/02/22-rdf-syntax-ns#"
   xmlns:svg="http://www.w3.org/2000/svg"
   xmlns="http://www.w3.org/2000/svg"
   xmlns:sodipodi="http://sodipodi.sourceforge.net/DTD/sodipodi-0.dtd"
   xmlns:inkscape="http://www.inkscape.org/namespaces/inkscape"
   version="1.1"
   width="100"
   height="100"
   id="svg4460"
   sodipodi:docname="uEA04-polyline.svg"
   inkscape:version="1.0 (4035a4fb49, 2020-05-01)">
  <path
     id="path916"
     style="color:#000000;font-style:normal;font-variant:normal;font-weight:normal;font-stretch:normal;font-size:medium;line-height:normal;font-family:sans-serif;font-variant-ligatures:normal;font-variant-position:normal;font-variant-caps:normal;font-variant-numeric:normal;font-variant-alternates:normal;font-variant-east-asian:normal;font-feature-settings:normal;font-variation-settings:normal;text-indent:0;text-align:start;text-decoration:none;text-decoration-line:none;text-decoration-style:solid;text-decoration-color:#000000;letter-spacing:normal;word-spacing:normal;text-transform:none;writing-mode:lr-tb;direction:ltr;text-orientation:mixed;dominant-baseline:auto;baseline-shift:baseline;text-anchor:start;white-space:normal;shape-padding:0;shape-margin:0;inline-size:0;clip-rule:nonzero;display:inline;overflow:visible;visibility:visible;isolation:auto;mix-blend-mode:normal;color-interpolation:sRGB;color-interpolation-filters:linearRGB;solid-color:#000000;solid-opacity:1;vector-effect:none;fill:#000080;fill-opacity:1;fill-rule:nonzero;stroke:none;stroke-width:7;stroke-linecap:round;stroke-linejoin:round;stroke-miterlimit:4;stroke-dasharray:none;stroke-dashoffset:0;stroke-opacity:1;color-rendering:auto;image-rendering:auto;shape-rendering:auto;text-rendering:auto;enable-background:accumulate;stop-color:#000000"
     d="M 32.550781 11 C 25.66107 11 20 16.66107 20 23.550781 C 20 27.437229 21.802247 30.929893 24.609375 33.238281 L 14.482422 54.166016 C 13.851157 54.066215 13.209283 54 12.550781 54 C 5.66107 54 -2.2838852e-07 59.66107 0 66.550781 C -2.283885e-07 73.440493 5.6610701 79.09961 12.550781 79.099609 C 19.201807 79.099609 24.655831 73.811706 25.029297 67.248047 A 3.5 3.5 0 0 0 25.099609 66.550781 A 3.5 3.5 0 0 0 25.029297 65.853516 C 24.833675 62.412816 23.233085 59.332019 20.804688 57.169922 L 31.048828 36 C 31.542777 36.060026 32.041623 36.099609 32.550781 36.099609 C 37.164226 36.09961 41.197796 33.554133 43.363281 29.804688 L 61.169922 34.511719 C 62.104293 40.357275 67.120053 44.895548 73.171875 45.080078 L 80.177734 66.435547 C 77.052276 68.726678 75 72.41156 75 76.550781 C 75 83.440493 80.66107 89.09961 87.550781 89.099609 C 94.201808 89.09961 99.655828 83.811706 100.0293 77.248047 A 3.5 3.5 0 0 0 100.09961 76.550781 A 3.5 3.5 0 0 0 100.0293 75.853516 C 99.656101 69.289604 94.201991 64 87.550781 64 C 87.283728 64 87.022869 64.02231 86.759766 64.039062 L 79.955078 43.296875 C 83.40598 41.206484 85.787338 37.500471 86.029297 33.248047 A 3.5 3.5 0 0 0 86.099609 32.550781 A 3.5 3.5 0 0 0 86.029297 31.853516 C 85.656104 25.289604 80.201991 20 73.550781 20 C 68.451047 20 64.032035 23.105987 62.076172 27.511719 L 45.056641 23.011719 A 3.5 3.5 0 0 0 45.029297 22.853516 C 44.656104 16.289604 39.201991 11 32.550781 11 z M 32.550781 18 C 35.657412 18 38.099609 20.444151 38.099609 23.550781 C 38.099609 26.657412 35.657412 29.099609 32.550781 29.099609 C 29.444151 29.099609 27 26.657412 27 23.550781 C 27 20.444151 29.444151 18 32.550781 18 z M 73.550781 27 C 76.657412 27 79.099609 29.444151 79.099609 32.550781 C 79.099609 35.657412 76.657412 38.099609 73.550781 38.099609 C 70.444151 38.099609 68 35.657412 68 32.550781 C 68 29.444151 70.444151 27 73.550781 27 z M 12.550781 61 C 15.657411 61 18.099609 63.444151 18.099609 66.550781 C 18.099609 69.657411 15.657411 72.099609 12.550781 72.099609 C 9.444151 72.099609 6.9999999 69.657412 7 66.550781 C 6.9999999 63.444151 9.444151 61 12.550781 61 z M 87.550781 71 C 90.657412 71 93.099609 73.444151 93.099609 76.550781 C 93.099609 79.657412 90.657412 82.099609 87.550781 82.099609 C 84.444151 82.099609 82 79.657412 82 76.550781 C 82 73.444151 84.444151 71 87.550781 71 z " />
  <sodipodi:namedview
     showguides="false"
     pagecolor="#ffffff"
     bordercolor="#666666"
     borderopacity="1"
     objecttolerance="10"
     gridtolerance="10"
     guidetolerance="10"
     inkscape:pageopacity="0"
     inkscape:pageshadow="2"
     inkscape:window-width="1920"
     inkscape:window-height="1017"
     id="namedview11"
     showgrid="false"
     inkscape:zoom="5.7134227"
     inkscape:cx="41.469103"
     inkscape:cy="55.721416"
     inkscape:window-x="-8"
     inkscape:window-y="-8"
     inkscape:window-maximized="1"
     inkscape:current-layer="svg4460"
     inkscape:document-rotation="0" />
  <defs
     id="defs4462" />
  <metadata
     id="metadata4465">
    <rdf:RDF>
      <cc:Work
         rdf:about="">
        <dc:format>image/svg+xml</dc:format>
        <dc:type
           rdf:resource="http://purl.org/dc/dcmitype/StillImage" />
        <dc:title />
      </cc:Work>
    </rdf:RDF>
  </metadata>
</svg>
