<?xml version="1.0" encoding="UTF-8" standalone="no"?>
<svg
   xmlns:dc="http://purl.org/dc/elements/1.1/"
   xmlns:cc="http://creativecommons.org/ns#"
   xmlns:rdf="http://www.w3.org/1999/02/22-rdf-syntax-ns#"
   xmlns:svg="http://www.w3.org/2000/svg"
   xmlns="http://www.w3.org/2000/svg"
   xmlns:sodipodi="http://sodipodi.sourceforge.net/DTD/sodipodi-0.dtd"
   xmlns:inkscape="http://www.inkscape.org/namespaces/inkscape"
   inkscape:version="1.0 (4035a4fb49, 2020-05-01)"
   sodipodi:docname="bbox.svg"
   version="1.1"
   width="100"
   height="100"
   id="svg4460">
  <sodipodi:namedview
     inkscape:current-layer="svg4460"
     inkscape:window-maximized="1"
     inkscape:window-y="-8"
     inkscape:window-x="-8"
     inkscape:cy="50.731114"
     inkscape:cx="29.04146"
     inkscape:zoom="2.662257"
     showgrid="false"
     id="namedview6"
     inkscape:window-height="1017"
     inkscape:window-width="1920"
     inkscape:pageshadow="2"
     inkscape:pageopacity="0"
     guidetolerance="10"
     gridtolerance="10"
     objecttolerance="10"
     borderopacity="1"
     bordercolor="#666666"
     pagecolor="#ffffff" />
  <defs
     id="defs4462" />
  <metadata
     id="metadata4465">
    <rdf:RDF>
      <cc:Work
         rdf:about="">
        <dc:format>image/svg+xml</dc:format>
        <dc:type
           rdf:resource="http://purl.org/dc/dcmitype/StillImage" />
        <dc:title />
      </cc:Work>
    </rdf:RDF>
  </metadata>
  <path
     d="M 0 3 L 0 5.5 L 0 23 L 8.5 23 L 8.5 26 L 11.5 26 L 11.5 23 L 20 23 L 20 14 L 21.5 14 L 21.5 11 L 20 11 L 20 3 L 0 3 z M 80 3 L 80 5.5 L 80 11 L 78.5 11 L 78.5 14 L 80 14 L 80 23 L 88.5 23 L 88.5 26 L 91.5 26 L 91.5 23 L 100 23 L 100 3 L 80 3 z M 5 8 L 15 8 L 15 18 L 5 18 L 5 8 z M 85 8 L 95 8 L 95 18 L 85 18 L 85 8 z M 24.5 11 L 24.5 14 L 30.5 14 L 30.5 11 L 24.5 11 z M 33.5 11 L 33.5 14 L 39.5 14 L 39.5 11 L 33.5 11 z M 42.5 11 L 42.5 13.941406 L 9.8359375 37.953125 A 3.50035 3.50035 0 0 0 9.7753906 38 L 8.5 38 L 8.5 39.978516 A 3.50035 3.50035 0 0 0 8.5 41.566406 L 8.5 44 L 9.5625 44 L 10.980469 47 L 8.5 47 L 8.5 53 L 11.5 53 L 11.5 48.097656 L 29.070312 85.253906 A 3.50035 3.50035 0 0 0 29.548828 86 L 24.5 86 L 24.5 89 L 30.5 89 L 30.5 86.794922 A 3.50035 3.50035 0 0 0 33.5 87.019531 L 33.5 89 L 39.5 89 L 39.5 86 L 34.964844 86 L 90.458984 35.005859 A 3.50035 3.50035 0 0 0 90.464844 35 L 91.5 35 L 91.5 33.210938 A 3.50035 3.50035 0 0 0 91.5 31.646484 L 91.5 29 L 88.914062 29 L 48.5 13.71875 L 48.5 11 L 42.5 11 z M 51.5 11 L 51.5 14 L 57.5 14 L 57.5 11 L 51.5 11 z M 60.5 11 L 60.5 14 L 66.5 14 L 66.5 11 L 60.5 11 z M 69.5 11 L 69.5 14 L 75.5 14 L 75.5 11 L 69.5 11 z M 45.818359 20.189453 L 81.541016 33.695312 L 33.365234 77.962891 L 16.306641 41.884766 L 45.818359 20.189453 z M 8.5 29 L 8.5 35 L 11.5 35 L 11.5 29 L 8.5 29 z M 88.5 38 L 88.5 44 L 91.5 44 L 91.5 38 L 88.5 38 z M 88.5 47 L 88.5 53 L 91.5 53 L 91.5 47 L 88.5 47 z M 8.5 56 L 8.5 62 L 11.5 62 L 11.5 56 L 8.5 56 z M 88.5 56 L 88.5 62 L 91.5 62 L 91.5 56 L 88.5 56 z M 8.5 65 L 8.5 71 L 11.5 71 L 11.5 65 L 8.5 65 z M 88.5 65 L 88.5 71 L 91.5 71 L 91.5 65 L 88.5 65 z M 8.5 74 L 8.5 77 L 0 77 L 0 79.5 L 0 97 L 20 97 L 20 89 L 21.5 89 L 21.5 86 L 20 86 L 20 77 L 11.5 77 L 11.5 74 L 8.5 74 z M 88.5 74 L 88.5 77 L 80 77 L 80 79.5 L 80 86 L 78.5 86 L 78.5 89 L 80 89 L 80 97 L 100 97 L 100 77 L 91.5 77 L 91.5 74 L 88.5 74 z M 5 82 L 15 82 L 15 92 L 5 92 L 5 82 z M 85 82 L 95 82 L 95 92 L 85 92 L 85 82 z M 42.5 86 L 42.5 89 L 48.5 89 L 48.5 86 L 42.5 86 z M 51.5 86 L 51.5 89 L 57.5 89 L 57.5 86 L 51.5 86 z M 60.5 86 L 60.5 89 L 66.5 89 L 66.5 86 L 60.5 86 z M 69.5 86 L 69.5 89 L 75.5 89 L 75.5 86 L 69.5 86 z "
     style="color:#000000;font-style:normal;font-variant:normal;font-weight:normal;font-stretch:normal;font-size:medium;line-height:normal;font-family:sans-serif;font-variant-ligatures:normal;font-variant-position:normal;font-variant-caps:normal;font-variant-numeric:normal;font-variant-alternates:normal;font-variant-east-asian:normal;font-feature-settings:normal;font-variation-settings:normal;text-indent:0;text-align:start;text-decoration:none;text-decoration-line:none;text-decoration-style:solid;text-decoration-color:#000000;letter-spacing:normal;word-spacing:normal;text-transform:none;writing-mode:lr-tb;direction:ltr;text-orientation:mixed;dominant-baseline:auto;baseline-shift:baseline;text-anchor:start;white-space:normal;shape-padding:0;shape-margin:0;inline-size:0;clip-rule:nonzero;display:inline;overflow:visible;visibility:visible;isolation:auto;mix-blend-mode:normal;color-interpolation:sRGB;color-interpolation-filters:linearRGB;solid-color:#000000;solid-opacity:1;vector-effect:none;fill:#000080;fill-opacity:1;fill-rule:nonzero;stroke:none;stroke-width:7;stroke-linecap:round;stroke-linejoin:round;stroke-miterlimit:4;stroke-dasharray:none;stroke-dashoffset:0;stroke-opacity:1;color-rendering:auto;image-rendering:auto;shape-rendering:auto;text-rendering:auto;enable-background:accumulate;stop-color:#000000"
     id="path924" />
</svg>
