<?xml version="1.0" encoding="UTF-8" standalone="no"?>
<svg
   xmlns:dc="http://purl.org/dc/elements/1.1/"
   xmlns:cc="http://creativecommons.org/ns#"
   xmlns:rdf="http://www.w3.org/1999/02/22-rdf-syntax-ns#"
   xmlns:svg="http://www.w3.org/2000/svg"
   xmlns="http://www.w3.org/2000/svg"
   xmlns:sodipodi="http://sodipodi.sourceforge.net/DTD/sodipodi-0.dtd"
   xmlns:inkscape="http://www.inkscape.org/namespaces/inkscape"
   inkscape:version="1.0 (4035a4fb49, 2020-05-01)"
   sodipodi:docname="uEAB0-map-extent.svg"
   version="1.1"
   width="100"
   height="100"
   id="svg4460">
  <sodipodi:namedview
     inkscape:current-layer="svg4460"
     inkscape:window-maximized="1"
     inkscape:window-y="-8"
     inkscape:window-x="-8"
     inkscape:cy="46.03719"
     inkscape:cx="65.071633"
     inkscape:zoom="8"
     showgrid="false"
     id="namedview6"
     inkscape:window-height="1017"
     inkscape:window-width="1920"
     inkscape:pageshadow="2"
     inkscape:pageopacity="0"
     guidetolerance="10"
     gridtolerance="10"
     objecttolerance="10"
     borderopacity="1"
     bordercolor="#666666"
     pagecolor="#ffffff"
     inkscape:document-rotation="0" />
  <defs
     id="defs4462" />
  <metadata
     id="metadata4465">
    <rdf:RDF>
      <cc:Work
         rdf:about="">
        <dc:format>image/svg+xml</dc:format>
        <dc:type
           rdf:resource="http://purl.org/dc/dcmitype/StillImage" />
        <dc:title></dc:title>
      </cc:Work>
    </rdf:RDF>
  </metadata>
  <path
     d="M 0 9 L 0 11.5 L 0 29 L 8.5 29 L 8.5 31.5 L 11.5 31.5 L 11.5 29 L 15.564453 29 C 15.564452 29.522154 15.56445 30.044352 15.564453 30.566406 C 15.564453 30.582056 15.564547 30.597711 15.5625 30.613281 C 15.503 31.091155 15.501737 31.400667 15.523438 31.568359 C 15.574668 31.543849 15.603998 31.540219 15.75 31.429688 C 17.24402 30.147416 17.988989 30.774188 19.949219 31.472656 C 20.432469 31.627307 20.882061 31.716868 21.269531 31.679688 C 21.657001 31.642508 21.990288 31.499762 22.330078 31.117188 C 22.537718 30.883304 22.923034 30.983615 22.990234 31.289062 C 23.013804 31.396593 23.018484 31.393373 23.177734 31.439453 C 23.336984 31.485533 23.615328 31.503347 23.923828 31.529297 C 24.091838 31.543427 24.271275 31.565636 24.453125 31.603516 C 24.388055 31.471937 24.316028 31.352364 24.236328 31.232422 C 24.065638 31.288092 23.888761 31.301016 23.744141 31.253906 C 23.400951 31.142106 23.117814 30.888519 22.902344 30.558594 C 22.686914 30.228669 22.545199 29.797558 22.662109 29.349609 C 22.779009 28.901659 23.163366 28.50757 23.785156 28.269531 C 23.831296 28.251841 23.880285 28.243201 23.929688 28.244141 C 23.999558 28.245341 24.067753 28.265564 24.126953 28.302734 C 24.162513 28.325254 24.215213 28.341738 24.257812 28.361328 C 24.190832 28.293688 24.126978 28.221049 24.080078 28.130859 C 23.945668 27.952548 23.936365 27.613027 23.578125 27.46875 C 23.419045 27.243633 23.365504 26.839409 23.568359 26.53125 C 23.77125 26.223091 24.127373 25.988504 24.720703 25.740234 C 24.765133 25.721014 24.812923 25.710384 24.861328 25.708984 C 24.866528 25.708878 24.871953 25.708878 24.876953 25.708984 C 24.892553 25.677924 24.907081 25.646191 24.925781 25.619141 C 25.039411 25.454511 25.194769 25.335546 25.417969 25.199219 C 25.475069 25.164079 25.540422 25.144578 25.607422 25.142578 C 25.658912 25.141478 25.710012 25.150782 25.757812 25.169922 C 26.022272 25.274142 26.207669 25.369249 26.355469 25.492188 C 26.429369 25.553657 26.496875 25.623134 26.546875 25.724609 C 26.548875 25.728009 26.548781 25.732808 26.550781 25.736328 C 26.618121 25.604004 26.755897 25.522544 26.904297 25.527344 C 26.991447 25.530744 27.074825 25.563834 27.140625 25.621094 C 27.159225 25.637304 27.167947 25.650286 27.185547 25.666016 C 27.185937 25.664916 27.185137 25.663209 27.185547 25.662109 C 27.234187 25.533336 27.304181 25.480897 27.363281 25.435547 C 27.481511 25.344847 27.607282 25.28994 27.794922 25.21875 C 27.834272 25.20357 27.875872 25.194959 27.917969 25.193359 C 27.952229 25.192709 27.986329 25.196658 28.019531 25.205078 C 28.214061 25.251928 28.345669 25.289458 28.474609 25.365234 C 28.480309 25.358334 28.483311 25.35054 28.488281 25.34375 C 28.555041 25.25926 28.654299 25.206819 28.761719 25.199219 C 28.831259 25.194319 28.900791 25.208514 28.962891 25.240234 C 29.187531 25.354262 29.352732 25.456789 29.482422 25.5625 C 29.612112 25.668212 29.722983 25.76931 29.771484 25.962891 C 29.795684 26.059681 29.790487 26.186486 29.742188 26.289062 C 29.693877 26.391638 29.614922 26.461716 29.544922 26.503906 C 29.512222 26.523596 29.483825 26.528636 29.453125 26.541016 C 29.588945 26.579436 29.677763 26.576364 29.726562 26.558594 C 29.819533 26.524744 29.937613 26.384004 30.095703 26.123047 C 30.253793 25.86209 30.443975 25.511559 30.796875 25.244141 C 30.870965 25.188011 30.954969 25.141476 31.042969 25.097656 L 20 25.097656 L 20 9 L 0 9 z M 5 14 L 15 14 L 15 24 L 5 24 L 5 14 z M 22.5 17.5 L 22.5 20.5 L 28.5 20.5 L 28.5 17.5 L 22.5 17.5 z M 31.5 17.5 L 31.5 20.5 L 37.5 20.5 L 37.5 17.5 L 31.5 17.5 z M 40.5 17.5 L 40.5 20.5 L 46.5 20.5 L 46.5 17.5 L 40.5 17.5 z M 49.5 17.5 L 49.5 20.5 L 55.5 20.5 L 55.5 17.5 L 49.5 17.5 z M 58.5 17.5 L 58.5 20.5 L 64.5 20.5 L 64.5 17.5 L 58.5 17.5 z M 67.5 17.5 L 67.5 20.5 L 73.5 20.5 L 73.5 17.5 L 67.5 17.5 z M 76.5 17.5 L 76.5 20.5 L 82.5 20.5 L 82.5 17.5 L 76.5 17.5 z M 85.5 17.5 L 85.5 20.5 L 91.5 20.5 L 91.5 17.5 L 85.5 17.5 z M 88.5 23.5 L 88.5 29.5 L 91.5 29.5 L 91.5 23.5 L 88.5 23.5 z M 43.570312 25.09375 C 43.767032 25.222088 43.957073 25.344586 44.195312 25.515625 C 44.213513 25.529065 44.230494 25.544097 44.246094 25.560547 C 44.498384 25.820936 44.615919 26.145151 44.636719 26.447266 C 44.657509 26.749381 44.599159 27.031379 44.535156 27.292969 C 44.407156 27.816149 44.287847 28.259419 44.373047 28.501953 C 44.415247 28.62306 44.394006 28.757242 44.316406 28.859375 C 43.816206 30.174098 43.804625 30.427206 43.828125 31.896484 C 43.616105 32.245803 43.298542 32.494616 42.951172 32.728516 C 42.259542 33.194221 41.415303 33.619988 40.720703 34.386719 C 40.563953 34.593436 40.403037 34.93218 40.248047 35.291016 C 40.090667 35.655386 39.940471 36.032986 39.738281 36.34375 C 39.637181 36.499131 39.522216 36.644003 39.353516 36.751953 C 39.184826 36.859903 38.942282 36.909019 38.726562 36.847656 C 38.341163 36.738034 38.072906 36.355491 37.759766 35.835938 C 37.327996 35.542004 37.134066 35.067147 37.072266 34.605469 C 37.010146 34.141491 37.06 33.663119 37.125 33.240234 C 37.18083 32.877144 37.237731 32.594834 37.269531 32.386719 C 37.145661 32.368369 37.01379 32.362191 36.90625 32.306641 C 36.75003 31.833033 36.440172 31.738437 36.972656 31.251953 C 36.953056 31.251653 36.954394 31.248047 36.933594 31.248047 C 36.679204 31.246547 36.49696 31.001986 36.568359 30.757812 C 36.723509 30.222196 36.603239 29.229509 36.251953 28.580078 C 36.076313 28.255363 35.854346 28.022978 35.634766 27.923828 C 35.415196 27.824678 35.188531 27.813912 34.837891 28.009766 C 34.665881 28.106466 34.448548 28.056565 34.335938 27.894531 C 34.002338 27.416449 33.576043 26.789332 33.458984 26.105469 C 33.402534 25.775652 33.445374 25.414236 33.632812 25.097656 L 32.630859 25.097656 C 33.42417 25.644567 33.00785 27.137529 32.15625 27.648438 C 32.26082 27.733107 32.3818 27.794311 32.4375 27.9375 C 32.52801 28.170431 32.486954 28.441418 32.365234 28.679688 C 32.337654 28.733928 32.297445 28.780796 32.248047 28.816406 C 32.150137 28.886336 32.053931 28.941354 31.957031 28.996094 C 32.443761 29.165414 32.912654 29.449802 33.333984 29.802734 C 34.071083 30.420167 34.672108 31.22314 34.955078 32.001953 C 35.110308 32.162053 35.223301 32.345206 35.363281 32.591797 C 35.528711 32.883218 35.692398 33.219075 35.798828 33.527344 C 35.851998 33.681478 35.892298 33.826374 35.904297 33.980469 C 35.916257 34.134564 35.912197 34.365724 35.691406 34.525391 C 35.587156 34.600751 35.461565 34.617981 35.359375 34.613281 C 35.370175 34.692741 35.434667 34.780602 35.435547 34.857422 C 35.439847 35.232406 35.327448 35.589784 35.054688 35.824219 C 34.838068 36.010399 34.514077 35.977343 34.210938 35.916016 C 34.320248 36.058774 34.401962 36.233256 34.476562 36.423828 C 34.573802 36.352578 34.653001 36.224846 34.769531 36.191406 C 35.050791 36.110706 35.366622 36.237707 35.544922 36.421875 C 35.879862 36.767854 36.034067 37.277058 36.216797 37.871094 C 36.808977 38.31542 37.098559 38.857079 37.255859 39.367188 C 37.4242 39.913153 37.492646 40.414303 37.722656 40.873047 C 37.818766 41.065417 37.737596 41.299186 37.542969 41.390625 C 37.285989 41.511931 37.054145 41.576259 36.828125 41.568359 C 36.154795 41.193053 36.37345 41.1962 36.21875 41.636719 C 36.09505 41.860233 35.883555 41.961503 35.640625 42.033203 C 35.600585 42.044373 35.559075 42.048975 35.517578 42.046875 C 35.120398 42.030405 34.84993 42.119634 34.599609 42.287109 C 34.34929 42.454579 34.119646 42.716484 33.884766 43.050781 C 33.450336 43.669101 32.959829 44.527641 32.224609 45.306641 C 32.313459 45.730841 32.384636 46.049906 32.384766 46.257812 C 32.384766 46.319063 32.386363 46.381094 32.345703 46.482422 C 32.327623 46.527412 32.275293 46.583612 32.216797 46.632812 C 32.231397 46.637413 32.242913 46.639611 32.257812 46.644531 C 32.530662 46.733981 32.839113 46.858407 33.115234 47.003906 C 33.283023 47.092316 33.437976 47.177439 33.572266 47.292969 C 33.632086 47.251309 33.702591 47.227609 33.775391 47.224609 C 33.810211 47.223209 33.845001 47.226475 33.878906 47.234375 C 34.096136 47.285985 34.255801 47.340506 34.394531 47.421875 C 34.533261 47.503245 34.704172 47.654432 34.701172 47.896484 C 34.698172 48.138535 34.538787 48.268218 34.429688 48.335938 C 34.320577 48.403658 34.213853 48.438831 34.101562 48.462891 C 33.989272 48.486981 33.873783 48.498811 33.751953 48.488281 C 33.671103 48.481281 33.580581 48.455356 33.488281 48.410156 C 33.444071 48.430826 33.402371 48.456046 33.355469 48.472656 C 33.116079 48.555896 32.863356 48.387727 32.847656 48.134766 C 32.824696 48.119676 32.794146 48.098499 32.714844 48.068359 C 32.511554 47.991059 32.180507 47.921086 31.873047 47.853516 C 31.719307 47.819736 31.570514 47.785996 31.433594 47.744141 C 31.296674 47.702291 31.172743 47.668371 31.033203 47.546875 C 30.969953 47.491835 30.901147 47.396798 30.873047 47.273438 C 30.896247 47.383704 30.90425 47.480239 30.90625 47.574219 C 30.91185 47.788972 30.925172 48.010948 30.951172 48.080078 C 30.952572 48.083678 30.952088 48.081484 30.953125 48.083984 C 30.944425 48.081184 30.939019 48.088286 31.011719 48.072266 C 31.236139 48.023196 31.45291 48.181452 31.474609 48.410156 C 31.530179 48.988589 31.672742 49.194231 31.794922 49.275391 C 31.917102 49.356551 32.139962 49.372703 32.482422 49.314453 C 33.156832 49.19976 34.15295 48.802274 35.130859 49.193359 C 36.08915 49.372385 36.772084 49.868583 37.339844 50.369141 C 37.917724 50.878615 38.404584 51.374329 39.027344 51.646484 C 39.886874 51.711724 40.523034 52.018337 40.839844 52.537109 C 41.176044 53.087626 41.157136 53.76045 40.972656 54.404297 C 40.618286 55.641189 39.666334 56.849609 38.621094 57.382812 C 37.927424 59.365086 36.291836 60.349291 35.441406 61.263672 C 35.363636 61.843334 35.124439 62.372467 34.943359 62.863281 C 34.737679 63.420691 34.636313 63.906347 34.925781 64.496094 C 34.951181 64.547794 34.964474 64.604539 34.964844 64.662109 C 34.967044 64.902185 34.943504 65.104795 34.806641 65.294922 C 34.669781 65.485051 34.374678 65.566011 34.179688 65.519531 C 33.789707 65.426581 33.551232 65.148272 33.289062 64.808594 C 33.026893 64.468916 32.787366 64.048474 32.628906 63.613281 C 32.470426 63.17809 32.377751 62.723599 32.519531 62.291016 C 32.523231 62.280436 32.52723 62.270006 32.53125 62.259766 C 33.08347 60.970751 32.96437 58.758212 33.4375 56.796875 C 33.48549 56.396784 33.34214 55.984567 33.080078 55.533203 C 32.817578 55.08111 32.442898 54.607058 32.111328 54.107422 C 31.779748 53.607786 31.480528 53.075084 31.423828 52.464844 C 31.378708 51.978945 31.67625 51.467993 32.03125 50.970703 C 31.78428 50.617426 31.216304 50.130264 30.458984 49.707031 C 29.653684 49.256983 28.699035 48.867258 27.890625 48.667969 L 27.929688 48.675781 C 27.446468 48.608141 27.150103 48.253778 26.814453 47.859375 C 26.638943 47.653135 26.490482 47.419161 26.326172 47.189453 C 25.663742 46.964977 25.170018 46.706359 24.736328 45.867188 C 24.520028 45.544162 24.358531 45.230571 24.269531 44.910156 C 23.308231 44.057174 23.018432 42.924499 22.826172 41.871094 C 22.679352 41.066714 22.554934 40.311981 22.240234 39.675781 C 22.109664 39.745351 21.982081 39.759953 21.863281 39.751953 C 21.618551 39.735383 21.350401 39.628127 21.212891 39.333984 C 21.144191 39.186912 21.135047 39.001131 21.185547 38.837891 C 21.234377 38.679967 21.328601 38.540396 21.457031 38.404297 C 21.086741 37.849087 20.565203 37.362126 20.033203 37.087891 C 19.683753 36.907758 19.33549 36.817608 19.03125 36.830078 C 18.72701 36.842548 18.465383 36.943373 18.220703 37.185547 C 18.209603 37.196677 18.197847 37.207097 18.185547 37.216797 C 17.891877 38.483996 17.095012 37.940005 16.076172 38.828125 C 15.956252 38.879065 15.857721 38.92493 15.681641 38.90625 C 15.648211 38.90265 15.607001 38.860863 15.566406 38.845703 C 15.566916 50.788816 15.565916 62.863917 15.566406 74.859375 L 18.935547 74.859375 C 20.321627 74.955575 21.799372 74.215721 23.201172 73.523438 C 24.594632 73.888235 26.163925 74.415141 27.296875 74.560547 C 27.256625 73.886975 26.970006 73.268399 27.535156 72.863281 C 29.241786 72.754641 31.192744 73.047118 32.896484 73.355469 C 32.854744 73.217237 32.847945 73.137293 32.777344 72.929688 C 32.570784 71.069338 34.435597 70.652605 35.123047 68.777344 C 35.818517 68.293881 36.673547 67.501109 36.960938 68.603516 C 35.891778 70.254372 36.529742 72.781396 36.357422 74.859375 L 39.582031 74.859375 C 40.246251 74.759725 40.925432 74.881974 41.507812 74.902344 C 42.109563 74.923394 42.539973 74.860783 42.845703 74.490234 C 44.103563 72.940351 45.987884 71.238518 48.052734 71.210938 C 50.195604 71.139257 53.187777 71.454034 55.523438 70.794922 C 56.026567 70.510721 56.625723 70.059945 57.302734 69.775391 C 58.135214 69.340567 59.173647 69.509197 60.179688 69.828125 C 61.091797 70.117284 61.946841 70.552582 62.644531 70.921875 C 63.061131 70.679918 63.204246 70.330548 63.410156 69.882812 C 63.523246 69.636925 63.691667 69.346585 64.023438 69.207031 C 64.355198 69.067474 64.745498 69.111916 65.236328 69.291016 L 65.238281 69.291016 C 65.757991 69.481619 66.251849 69.240165 66.912109 69.03125 C 67.242239 68.926794 67.611648 68.837105 68.017578 68.890625 C 68.344788 68.933765 68.674737 69.160382 68.998047 69.421875 C 70.375717 69.031058 71.551508 69.714726 73.085938 69.40625 C 73.652987 69.291242 74.167984 69.108019 74.464844 69.042969 C 74.569164 69.020339 74.678225 69.042283 74.765625 69.103516 C 76.018325 69.984027 77.924763 70.201459 79.458984 71.326172 C 79.470684 71.329172 79.476681 71.336744 79.488281 71.339844 C 79.672647 71.389108 79.835078 71.456449 80 71.521484 L 80 73.5 L 80 91 L 100 91 L 100 71 L 91.5 71 L 91.5 68.5 L 88.5 68.5 L 88.5 71 L 84.464844 71 L 84.464844 39.814453 C 84.116574 39.920533 83.80162 40.072062 83.40625 39.890625 C 83.12101 39.904835 83.092273 39.250307 82.896484 39.916016 C 82.721284 40.037309 82.490767 40.023873 82.335938 39.910156 C 81.945448 39.756311 81.931938 39.385769 81.267578 39.412109 C 81.207478 39.275229 81.249722 39.112309 81.294922 39.037109 C 81.340122 38.961909 81.382222 38.929581 81.419922 38.900391 C 81.710422 38.871361 81.887722 38.551149 82.201172 38.880859 C 82.423252 38.946599 82.285132 39.450603 82.689453 39.025391 C 83.114243 39.021891 83.761084 39.202115 84.277344 38.910156 C 84.342654 38.908856 84.407244 38.924348 84.464844 38.955078 L 84.464844 35.884766 C 84.465844 35.880866 84.465997 35.876967 84.466797 35.873047 C 84.480297 35.397435 84.492328 35.099938 84.486328 34.951172 C 84.486328 34.941672 84.485075 34.947673 84.484375 34.939453 C 84.458985 34.937753 84.439405 34.935951 84.291016 34.894531 C 84.161416 34.858361 83.948996 34.743364 83.759766 34.652344 C 82.571876 36.691068 79.92685 36.154563 79.84375 38.896484 L 79.84375 38.898438 C 79.68885 39.272233 79.540998 39.5705 79.392578 39.785156 C 79.235028 40.013001 79.082023 40.183813 78.833984 40.257812 C 78.709974 40.294812 78.557314 40.290911 78.433594 40.238281 C 78.309884 40.185661 78.221103 40.097996 78.158203 40.009766 C 78.032373 39.833308 77.982172 39.640827 77.951172 39.425781 C 77.889112 38.995692 77.931522 38.466978 78.087891 37.943359 C 78.212381 37.526487 78.489961 37.160763 78.800781 36.832031 C 78.726351 36.886991 78.67851 37.012344 78.599609 37.052734 C 78.24868 37.232441 77.885425 37.272412 77.546875 37.294922 C 76.871955 37.339792 76.291946 37.313011 75.697266 37.787109 C 75.442476 38.011282 75.282506 38.176578 75.191406 38.291016 C 75.244536 38.304886 75.273706 38.316491 75.345703 38.332031 C 75.629733 38.393351 76.029929 38.451462 76.355469 38.751953 C 76.518239 38.902199 76.644541 39.125835 76.681641 39.382812 C 76.718741 39.639789 76.678841 39.921938 76.568359 40.244141 C 76.544399 40.313501 76.500959 40.374522 76.443359 40.419922 C 76.281389 40.548071 76.292294 40.579601 76.308594 40.705078 C 76.324904 40.830556 76.416848 41.034648 76.523438 41.257812 C 76.630058 41.480975 76.772562 41.729975 76.726562 42.072266 C 76.703563 42.243411 76.60994 42.423463 76.46875 42.548828 C 76.38982 42.618908 76.273978 42.652419 76.173828 42.699219 C 76.215478 43.381896 75.9031 44.0441 75.40625 44.53125 C 74.81967 45.106376 74.082441 45.534506 73.363281 45.423828 C 73.133491 45.388538 72.987987 45.158244 73.054688 44.935547 C 73.287537 44.161085 74.002221 43.739494 74.525391 43.240234 C 75.017071 42.771024 75.337372 42.301398 75.263672 41.533203 C 75.179512 41.680869 75.121411 41.817255 75.019531 41.964844 C 74.965991 42.043214 74.885269 42.098894 74.792969 42.121094 C 74.372619 42.220064 74.147677 42.363748 73.998047 42.523438 C 73.848407 42.683127 73.763106 42.876192 73.691406 43.119141 C 73.547996 43.605038 73.493472 44.32202 72.857422 44.798828 C 72.571042 45.012489 72.17396 44.752099 72.255859 44.404297 C 72.331459 44.088682 72.298331 43.944103 72.269531 43.882812 C 72.263731 43.870553 72.241375 43.863846 72.234375 43.853516 C 72.218275 43.969701 72.164375 44.06248 72.109375 44.125 C 72.084275 44.15364 72.046031 44.162477 72.019531 44.185547 C 72.245451 44.623082 72.322873 45.101222 72.189453 45.539062 C 72.127493 45.742415 72.033734 45.935467 71.927734 46.123047 C 72.016754 46.179987 72.078156 46.271169 72.097656 46.375 C 72.180846 46.819651 72.193162 47.109901 72.076172 47.375 C 72.041452 47.45368 71.975984 47.529809 71.896484 47.59375 C 71.946174 47.61156 71.996065 47.62888 72.042969 47.65625 C 72.170279 47.73056 72.285872 47.868526 72.326172 48.011719 C 72.401872 48.28063 72.3011 48.437824 72.25 48.554688 C 72.65878 48.592798 72.728974 49.160311 72.341797 49.296875 C 72.389797 49.280725 72.367319 49.280603 72.349609 49.314453 C 72.334109 49.343453 72.329125 49.382923 72.328125 49.408203 C 72.330125 49.408803 72.348475 49.426587 72.472656 49.404297 C 72.700166 49.363977 72.911275 49.532862 72.921875 49.763672 C 72.761575 51.829936 71.427333 50.493758 74.439453 51.652344 C 74.499153 51.713864 74.494591 51.747193 74.525391 51.802734 C 74.651061 51.710254 74.820285 51.703296 74.953125 51.785156 C 75.048015 51.844406 75.436408 51.961529 75.861328 52.037109 C 76.286248 52.112689 76.76535 52.172082 77.15625 52.232422 C 77.3517 52.262602 77.523562 52.293278 77.669922 52.330078 C 77.743102 52.348478 77.807906 52.367108 77.878906 52.398438 C 77.925486 52.418988 77.984722 52.452778 78.044922 52.511719 C 78.104662 52.474209 78.173641 52.453925 78.244141 52.453125 C 78.305331 52.453195 78.365622 52.467934 78.419922 52.496094 C 78.424622 52.498594 78.428624 52.501206 78.433594 52.503906 L 78.619141 52.599609 C 78.622841 52.601509 78.626839 52.603469 78.630859 52.605469 C 79.034699 52.833528 79.288818 53.016063 79.455078 53.181641 C 79.538208 53.264431 79.60915 53.322779 79.65625 53.490234 C 79.67975 53.573964 79.689903 53.727728 79.595703 53.857422 C 79.501463 53.98712 79.361797 54.02495 79.279297 54.03125 C 79.114267 54.04389 79.036453 53.999588 78.939453 53.955078 C 78.842513 53.910568 78.741826 53.849934 78.634766 53.771484 C 78.445816 53.633024 78.233593 53.413404 78.021484 53.150391 C 77.933784 53.224351 77.864003 53.25103 77.783203 53.28125 C 77.741553 53.29682 77.658075 53.311542 77.609375 53.326172 C 77.618275 53.344382 77.638484 53.371042 77.646484 53.388672 C 77.712784 53.534251 77.789045 53.662315 77.71875 53.894531 C 77.68359 54.010641 77.574493 54.129654 77.470703 54.177734 C 77.366913 54.225804 77.283344 54.227219 77.214844 54.224609 C 77.077794 54.219409 76.976821 54.188527 76.863281 54.154297 C 76.705071 54.106597 76.533664 54.054966 76.365234 54.005859 C 76.602704 54.705596 77.21792 55.361506 77.755859 56.103516 C 78.051959 56.511944 78.315856 56.957549 78.410156 57.480469 C 78.503606 57.99858 78.403256 58.580016 78.054688 59.177734 C 77.844157 59.896324 77.517409 60.362469 77.074219 60.550781 C 77.165239 60.623201 77.244441 60.698163 77.306641 60.783203 C 77.414341 60.930361 77.483887 61.167618 77.396484 61.367188 C 76.836634 61.697952 76.482423 61.968314 75.876953 61.333984 C 75.797443 61.132577 75.872553 60.896954 75.986328 60.753906 C 76.033118 60.695066 76.091844 60.64426 76.152344 60.59375 C 75.899244 60.52049 75.654879 60.39508 75.417969 60.259766 C 74.943069 59.988519 74.473362 59.642386 74.039062 59.388672 C 73.646592 59.159396 73.300771 59.033156 73.050781 59.035156 C 72.510991 59.487188 71.986691 59.713429 71.494141 59.699219 C 70.964581 59.683949 70.523443 59.385692 70.240234 58.986328 C 69.673824 58.187602 69.576045 56.984771 70.015625 56.003906 C 70.063105 55.897344 70.156581 55.818243 70.269531 55.789062 C 71.051951 55.583652 71.660294 55.010136 72.339844 54.492188 C 72.679624 54.233213 73.040454 53.990067 73.464844 53.849609 C 73.889244 53.709197 74.378081 53.686703 74.900391 53.851562 C 75.080211 53.909002 75.19131 54.088913 75.162109 54.275391 C 75.117909 54.553156 75.161383 54.639967 75.175781 54.679688 C 75.287011 54.618477 75.523757 54.366449 75.523438 53.972656 C 75.376897 53.999076 75.228378 53.938126 75.142578 53.816406 C 75.170278 53.856146 75.136982 53.809805 75.076172 53.765625 C 75.015352 53.721405 74.927742 53.663709 74.826172 53.599609 C 74.623032 53.471408 74.364527 53.318109 74.123047 53.146484 C 73.995767 53.056024 73.873819 52.961193 73.761719 52.857422 C 73.750719 52.863422 73.736562 52.878113 73.726562 52.882812 C 73.572423 52.954482 73.476626 52.951284 73.353516 52.958984 C 73.230416 52.966684 73.09804 52.966184 72.96875 52.958984 C 72.92932 52.956784 72.89562 52.948713 72.857422 52.945312 C 72.966002 52.978943 73.054056 53.059095 73.097656 53.164062 C 73.160256 53.315407 73.184031 53.483941 73.144531 53.642578 C 73.105071 53.801215 73.003863 53.929796 72.896484 54.009766 C 72.681744 54.169716 72.46137 54.195876 72.25 54.166016 C 71.33959 53.895939 70.48271 53.793779 69.5 53.824219 C 68.62794 53.781789 67.931473 53.174877 67.408203 52.537109 C 66.884023 51.898234 66.525994 51.207676 66.371094 50.804688 C 66.277364 50.560189 66.451264 50.295866 66.712891 50.285156 C 66.764871 50.283156 66.816734 50.291857 66.865234 50.310547 C 66.966503 50.349717 67.046725 50.408836 67.140625 50.455078 C 66.985195 50.111053 66.825911 49.744914 66.681641 49.4375 C 66.590361 49.242996 66.5038 49.071289 66.4375 48.957031 C 66.405 48.900991 66.378581 48.859632 66.363281 48.839844 C 66.273061 48.779464 66.212766 48.683627 66.197266 48.576172 C 66.136936 48.152721 65.970426 47.979033 65.753906 47.882812 C 65.537376 47.786592 65.227159 47.789096 64.917969 47.910156 C 64.608769 48.031221 64.315592 48.264507 64.138672 48.558594 C 63.961712 48.852681 63.886686 49.20065 64.003906 49.626953 C 64.006906 49.637253 64.009719 49.647683 64.011719 49.658203 C 64.050819 49.867366 64.074238 50.028192 64.085938 50.160156 C 64.097638 50.292118 64.109523 50.38416 64.070312 50.523438 C 64.050742 50.593077 64.011873 50.697727 63.890625 50.779297 C 63.769375 50.860867 63.600472 50.854849 63.513672 50.824219 C 63.340062 50.762969 63.307859 50.693906 63.255859 50.634766 C 63.153129 50.518045 63.071666 50.389474 63.009766 50.308594 C 62.988866 50.301294 62.968619 50.2921 62.949219 50.28125 C 62.527909 50.036791 62.267671 49.625311 62.025391 49.191406 C 61.783111 48.757499 61.564157 48.28539 61.310547 47.875 C 61.056937 47.464608 60.774494 47.126636 60.433594 46.929688 C 60.194624 46.791627 59.830042 46.821061 59.476562 46.833984 C 59.633862 47.847091 58.511665 48.705442 57.671875 49.207031 C 57.762765 49.242041 57.856641 49.265641 57.931641 49.34375 C 58.044311 49.461151 58.10161 49.635716 58.099609 49.777344 C 58.096509 50.0606 57.970292 50.256314 57.826172 50.472656 C 57.682052 50.688996 57.497268 50.91448 57.298828 51.152344 C 56.901948 51.628071 56.445819 52.152246 56.167969 52.611328 C 55.656159 53.923326 55.949916 55.706979 54.878906 57.134766 C 54.315366 58.258606 53.447579 59.283737 52.068359 59.572266 C 51.987429 59.589346 51.903125 59.579762 51.828125 59.544922 C 51.138035 59.223542 50.681574 58.701089 50.402344 58.107422 C 50.123114 57.513755 50.005894 56.852933 49.933594 56.185547 C 49.789004 54.850775 49.799298 53.475082 49.361328 52.605469 C 49.337828 52.557939 49.324266 52.506069 49.322266 52.453125 C 49.283416 51.686033 49.038509 51.314611 48.630859 51.125 C 48.22321 50.935389 47.549229 50.943625 46.667969 51.242188 C 46.606969 51.262557 46.541816 51.267289 46.478516 51.255859 C 44.864166 50.968578 44.043356 49.734871 43.972656 48.435547 C 43.934266 47.729686 44.093036 46.998761 44.410156 46.337891 C 44.342686 46.325361 44.269494 46.304351 44.183594 46.232422 C 44.065114 46.133202 43.997416 45.8925 44.041016 45.748047 C 44.084626 45.603594 44.159541 45.525643 44.244141 45.445312 C 44.311801 45.380812 44.400741 45.343344 44.494141 45.339844 C 44.529051 45.339014 44.563861 45.342943 44.597656 45.351562 C 44.651376 45.364362 44.689076 45.384017 44.734375 45.398438 C 44.795735 45.345447 44.872325 45.313341 44.953125 45.306641 C 44.997845 45.303341 45.042834 45.308043 45.085938 45.320312 C 45.225367 45.164057 45.372456 45.014262 45.535156 44.880859 C 45.557856 44.861759 45.582775 44.845371 45.609375 44.832031 C 45.935565 44.67184 45.951266 44.572183 45.947266 44.349609 C 45.943566 44.127034 45.823486 43.788967 45.697266 43.439453 C 45.571056 43.08994 45.410526 42.71926 45.535156 42.291016 C 45.597486 42.076894 45.761273 41.873238 45.976562 41.751953 C 46.191853 41.630669 46.448907 41.570389 46.773438 41.542969 C 46.787037 41.541569 46.800753 41.541016 46.814453 41.541016 C 46.902893 41.542716 46.896082 41.53805 46.929688 41.53125 C 46.908158 41.46653 46.866648 41.332898 46.777344 41.126953 C 46.668244 40.875352 46.494414 40.573209 46.652344 40.183594 C 46.660444 40.163504 46.690772 40.159795 46.701172 40.140625 C 46.658522 40.102305 46.575762 40.147429 46.539062 40.099609 C 46.453702 39.988313 46.466103 39.832209 46.4375 39.691406 C 46.17821 39.766366 45.909709 39.799984 45.693359 39.654297 C 45.433279 39.479164 45.294693 39.107859 45.396484 38.777344 C 45.479044 38.50926 45.747848 38.296108 46.048828 38.087891 C 46.152688 37.640146 46.250321 37.308015 46.431641 37.078125 C 46.530341 36.952987 46.680587 36.834733 46.873047 36.814453 C 47.065497 36.794173 47.235323 36.881183 47.345703 36.974609 C 47.566473 37.161478 47.68381 37.404248 47.8125 37.699219 C 47.93874 37.988563 48.055602 38.330076 48.164062 38.685547 C 48.241712 38.900049 48.309922 39.016401 48.357422 39.082031 C 48.407242 39.027841 48.471016 38.942633 48.541016 38.826172 C 48.692796 38.573602 48.857801 38.223121 49.025391 37.908203 C 49.097301 37.773077 49.172053 37.649408 49.251953 37.53125 C 49.212353 37.51605 49.164953 37.539784 49.126953 37.521484 C 48.855543 37.390702 48.614036 37.180114 48.447266 36.900391 C 48.280396 36.620668 48.195091 36.261531 48.275391 35.890625 C 48.351731 35.53798 48.575263 35.193641 48.939453 34.886719 C 49.414903 34.235936 50.140279 32.904229 50.974609 31.933594 C 51.395409 31.44404 51.845179 31.02894 52.386719 30.857422 C 52.889379 30.698217 53.458772 30.867121 53.919922 31.316406 C 54.040382 31.339796 54.167334 31.347864 54.277344 31.402344 C 54.451724 31.488704 54.629604 31.604967 54.808594 31.740234 C 55.155724 32.002561 55.497143 32.334816 55.751953 32.669922 C 55.847883 32.395289 56.058748 32.169843 56.304688 32.126953 C 56.438527 32.103603 56.581341 32.117256 56.712891 32.166016 C 57.184801 31.58892 57.306107 31.375512 57.935547 31.917969 C 58.001447 32.017299 58.020662 32.151505 58.013672 32.28125 C 58.291502 32.18327 58.572444 32.109569 58.865234 32.068359 C 58.855534 32.026429 58.831172 31.97674 58.826172 31.935547 C 58.421742 31.706246 57.690506 31.342618 57.447266 30.712891 C 57.625986 29.01482 59.045525 27.092382 61.015625 26.308594 C 61.033225 26.308094 61.050869 26.3086 61.068359 26.310547 C 62.57016 27.552248 60.5796 28.002331 59.75 28.810547 C 59.55149 29.203929 59.449841 29.73505 59.369141 30.220703 C 59.328791 30.46353 59.29329 30.695758 59.242188 30.904297 C 59.357707 31.117166 58.817006 31.477012 59.416016 31.224609 C 59.556776 31.228209 59.674775 31.262397 59.796875 31.304688 C 60.056025 31.394447 60.297323 31.52884 60.564453 31.666016 C 60.533723 31.458315 60.378997 31.262386 60.404297 31.064453 C 60.672867 30.217762 60.897187 29.236479 61.998047 29.341797 C 62.152497 29.435857 62.174403 29.601997 62.220703 29.753906 C 63.152863 29.907554 62.89277 30.032726 63.34375 29.414062 C 63.83716 29.217724 63.953818 28.934712 64.210938 28.494141 C 64.468047 28.05357 64.866871 27.49765 65.744141 27.1875 C 65.826311 27.15861 65.915847 27.15861 65.998047 27.1875 C 66.793887 27.22416 67.134426 26.926316 67.697266 26.109375 C 67.954876 25.896147 68.359362 25.776803 68.789062 25.884766 C 68.813262 25.890866 68.836875 25.899416 68.859375 25.910156 C 69.686385 26.303975 70.126766 26.948825 70.291016 27.587891 C 70.417986 28.081974 70.338037 28.515219 70.273438 28.925781 C 70.666408 29.085536 71.052791 29.132066 71.525391 29.103516 C 72.070971 29.070556 72.709496 29.009655 73.378906 29.298828 C 73.513866 29.357238 73.603375 29.487815 73.609375 29.634766 C 73.628775 30.106178 73.660947 30.336762 73.685547 30.449219 C 73.813727 30.397459 74.148882 30.381152 74.576172 30.445312 C 74.731102 30.21463 74.903572 30.00119 75.101562 29.861328 C 75.049042 29.808618 75.001338 29.748041 74.960938 29.675781 C 74.823177 29.429178 74.854421 29.10464 75.021484 28.800781 C 74.858373 28.762531 74.70335 28.691541 74.568359 28.542969 C 74.558959 28.532579 74.557828 28.516869 74.548828 28.505859 C 74.526128 28.509759 74.508275 28.523437 74.484375 28.523438 C 74.323635 28.523438 74.186888 28.428227 74.117188 28.333984 C 74.047517 28.239744 74.022518 28.143768 74.011719 28.048828 C 73.990119 27.858945 74.032749 27.665649 74.134766 27.441406 C 74.200016 27.296916 74.34758 27.207597 74.505859 27.216797 C 74.553829 27.219697 74.600929 27.231623 74.644531 27.251953 C 74.657931 27.228233 74.665387 27.207954 74.679688 27.183594 C 74.751388 27.060771 74.885264 26.987841 75.027344 26.994141 C 75.044444 26.995041 75.061325 26.9969 75.078125 27 C 76.370565 27.326183 79.354102 28.381546 76.789062 28.683594 C 76.550143 28.716464 76.264801 28.752133 75.988281 28.785156 C 76.234771 29.012692 76.409969 29.2313 76.417969 29.515625 C 76.420869 29.61783 76.386484 29.721319 76.333984 29.8125 C 76.458504 29.84978 76.584041 29.88041 76.707031 29.927734 C 77.541481 30.248766 78.406751 30.720188 78.962891 30.705078 C 79.172151 30.698478 79.347422 30.861166 79.357422 31.070312 C 79.646512 31.248279 79.904154 31.692266 80.708984 31.382812 C 80.838343 31.385413 80.990694 31.397553 81.146484 31.511719 C 81.177384 31.534369 81.168269 31.583198 81.193359 31.613281 C 81.33152 31.587151 81.441331 31.470362 81.587891 31.476562 C 82.669861 31.660384 83.552897 31.994189 84.466797 32.757812 L 84.466797 25.097656 L 43.720703 25.097656 C 43.712203 25.097937 43.703313 25.097937 43.695312 25.097656 C 43.628212 25.093056 43.631013 25.097244 43.570312 25.09375 z M 26.533203 26.201172 C 26.445853 26.362682 26.304946 26.432963 26.191406 26.476562 C 26.054376 26.529173 25.915557 26.552347 25.773438 26.560547 C 25.724747 26.563347 25.675858 26.550228 25.626953 26.548828 C 25.629953 26.554628 25.632766 26.560506 25.634766 26.566406 C 25.675166 26.666811 25.696637 26.723322 25.710938 26.763672 C 25.714637 26.773752 25.718636 26.782585 25.722656 26.796875 C 25.724656 26.803975 25.726469 26.811888 25.730469 26.830078 C 25.732469 26.839178 25.738281 26.872757 25.738281 26.873047 C 25.738281 26.873197 25.740234 26.923728 25.740234 26.923828 C 25.740234 26.923828 25.651355 26.920669 25.564453 26.917969 C 25.643203 26.978109 25.725381 27.047013 25.800781 27.101562 C 25.833581 27.046762 25.832753 26.964176 25.876953 26.916016 C 26.050573 26.726975 26.371409 26.652896 26.599609 26.734375 C 26.779039 26.798445 26.917546 26.914612 27.041016 27.054688 C 27.051816 27.017837 27.054719 26.979718 27.074219 26.945312 C 27.082819 26.930062 27.095469 26.922063 27.105469 26.908203 C 26.908479 26.874543 26.782508 26.752861 26.679688 26.601562 C 26.605197 26.491944 26.560403 26.352858 26.533203 26.201172 z M 28.171875 27.292969 C 28.044595 27.312359 27.926634 27.3273 27.865234 27.34375 C 27.895934 27.39603 27.894312 27.39842 27.945312 27.474609 C 28.031623 27.603448 28.134422 27.792048 28.232422 27.982422 C 28.250522 27.988122 28.274856 28.000053 28.285156 28.001953 C 28.279156 28.000353 28.291922 27.991314 28.294922 27.884766 C 28.298622 27.749855 28.269856 27.561653 28.222656 27.408203 C 28.201756 27.340213 28.196275 27.340304 28.171875 27.292969 z M 75.21875 27.855469 C 75.20335 27.899879 75.156344 27.984776 75.152344 28.009766 C 75.149344 28.028346 75.149438 28.02515 75.148438 28.03125 C 75.148448 28.01636 75.317721 28.082693 75.613281 28.064453 C 75.650631 28.062153 75.70083 28.052428 75.740234 28.048828 C 75.556084 27.997638 75.39253 27.892269 75.21875 27.855469 z M 27.554688 28.330078 C 27.539887 28.392038 27.517522 28.45085 27.482422 28.5 C 27.350552 28.684899 27.179736 28.758646 27.003906 28.816406 C 26.652206 28.931931 26.22327 28.956192 25.78125 28.919922 C 25.5354 28.899752 25.293227 28.853431 25.060547 28.787109 C 25.064547 28.795409 25.067312 28.8039 25.070312 28.8125 C 25.251932 29.3383 25.421005 29.444212 25.546875 29.476562 C 25.672755 29.508913 25.88185 29.456052 26.125 29.345703 C 26.24657 29.290533 26.371036 29.226386 26.503906 29.171875 C 26.636756 29.117365 26.779305 29.057508 26.984375 29.082031 C 27.163705 29.103471 27.338188 29.259268 27.429688 29.427734 C 27.454087 29.354594 27.479684 29.281508 27.521484 29.210938 C 27.630633 29.026754 27.817585 28.867489 28.046875 28.792969 C 28.098705 28.776079 28.157891 28.776878 28.212891 28.767578 C 28.072881 28.749338 27.936765 28.704618 27.796875 28.632812 C 27.718395 28.592433 27.656294 28.526202 27.621094 28.445312 C 27.602494 28.402362 27.575387 28.370862 27.554688 28.330078 z M 28.546875 28.740234 C 28.540175 28.742434 28.534344 28.746047 28.527344 28.748047 C 28.536244 28.748647 28.545687 28.751253 28.554688 28.751953 C 28.551687 28.748753 28.549875 28.743554 28.546875 28.740234 z M 29.425781 29.382812 C 29.377681 29.394202 29.368725 29.396702 29.328125 29.486328 C 29.308525 29.529258 29.32503 29.689282 29.3125 29.763672 C 29.35394 29.638796 29.428588 29.520661 29.492188 29.398438 C 29.480687 29.399217 29.432781 29.381123 29.425781 29.382812 z M 28.283203 29.521484 C 28.220993 29.541714 28.203483 29.561343 28.179688 29.601562 C 28.132088 29.682012 28.116691 29.904617 28.181641 30.095703 C 28.238011 30.261772 28.323406 30.312572 28.316406 30.326172 C 28.342786 30.296342 28.389596 30.189553 28.433594 30.095703 C 28.387894 29.9067 28.423641 29.716716 28.431641 29.525391 C 28.388101 29.528091 28.307803 29.513474 28.283203 29.521484 z M 28.009766 31.042969 C 28.077846 31.216802 28.124338 31.389226 28.148438 31.560547 C 28.255688 31.456717 28.413504 31.424695 28.552734 31.478516 C 28.545834 31.359488 28.534344 31.207473 28.527344 31.082031 C 28.426114 31.115691 28.3206 31.132947 28.21875 31.117188 C 28.13893 31.104837 28.074866 31.072559 28.009766 31.042969 z M 32.154297 32.431641 C 32.096327 32.682656 32.03932 32.996439 31.9375 33.308594 C 31.8774 33.492839 31.688873 33.615349 31.570312 33.78125 C 31.826142 33.958395 32.119481 34.121748 32.175781 34.371094 C 32.221011 34.228677 32.279669 34.106497 32.355469 34.005859 C 32.452289 33.877359 32.562876 33.752818 32.666016 33.628906 C 32.673316 33.620106 32.676594 33.612316 32.683594 33.603516 C 32.669794 33.601816 32.654325 33.607869 32.640625 33.605469 C 32.528595 33.585949 32.41835 33.546279 32.3125 33.464844 C 32.20665 33.383414 32.100944 33.236146 32.089844 33.056641 C 32.078944 32.880729 32.157274 32.723126 32.257812 32.607422 C 32.222302 32.545232 32.189593 32.491201 32.154297 32.431641 z M 88.5 32.5 L 88.5 38.5 L 91.5 38.5 L 91.5 32.5 L 88.5 32.5 z M 15.566406 32.669922 L 15.566406 34.044922 C 15.625966 34.076012 15.67305 34.114548 15.736328 34.142578 C 16.671497 33.690582 16.135318 33.144025 15.566406 32.669922 z M 24.041016 33.289062 C 23.929476 33.285162 23.821764 33.330062 23.746094 33.412109 C 23.616854 33.552807 23.525936 33.673312 23.472656 33.832031 C 23.419456 33.990751 23.453255 34.253726 23.601562 34.388672 C 23.749872 34.523618 23.895272 34.534312 24.013672 34.535156 C 24.132072 34.535998 24.23937 34.514972 24.34375 34.482422 C 24.44813 34.449872 24.548404 34.406481 24.646484 34.333984 C 24.744584 34.261484 24.879376 34.141943 24.884766 33.914062 C 24.889766 33.686181 24.718138 33.518359 24.580078 33.443359 C 24.442008 33.368359 24.292117 33.328666 24.091797 33.294922 C 24.074997 33.291822 24.058116 33.289963 24.041016 33.289062 z M 15.566406 34.232422 L 15.566406 35.814453 C 15.571206 35.813153 15.577311 35.813934 15.582031 35.8125 C 16.505941 35.326374 16.515095 34.928272 15.890625 34.275391 C 15.790985 34.249701 15.684171 34.236662 15.566406 34.232422 z M 31.142578 34.306641 C 31.142578 34.324281 31.141666 34.341905 31.138672 34.359375 C 31.094572 34.721408 31.178434 34.754292 31.177734 34.753906 C 31.177043 34.753526 31.263715 34.761602 31.349609 34.701172 C 31.435479 34.640702 31.462078 34.573966 31.455078 34.535156 C 31.450578 34.509566 31.277998 34.398771 31.142578 34.306641 z M 8.5 34.5 L 8.5 40.5 L 11.5 40.5 L 11.5 34.5 L 8.5 34.5 z M 32.144531 34.544922 C 32.135831 34.776574 32.070531 34.998117 31.949219 35.164062 C 32.002119 35.27303 32.038297 35.391298 32.029297 35.517578 C 32.017697 35.672151 31.937647 35.813724 31.84375 35.902344 C 31.65599 36.07957 31.456989 36.112929 31.261719 36.099609 C 31.164079 36.092909 31.0598 36.07827 30.9375 35.984375 C 30.8152 35.890495 30.725703 35.632229 30.783203 35.46875 C 30.789703 35.45033 30.801594 35.442141 30.808594 35.425781 C 30.807594 35.424981 30.805687 35.424628 30.804688 35.423828 C 30.282618 35.637114 28.790933 37.42005 31.632812 37.962891 C 31.776892 37.971691 31.903737 38.06082 31.960938 38.193359 C 32.014718 37.946931 32.086622 37.725661 32.107422 37.552734 C 31.820702 37.066526 31.733633 36.583833 31.845703 36.175781 C 31.968693 35.728005 32.310151 35.398459 32.712891 35.263672 C 32.920511 35.194182 33.140793 35.333562 33.365234 35.371094 C 33.267144 35.274954 33.168612 35.224227 33.070312 35.101562 C 32.870733 35.108962 32.681087 35.120209 32.523438 35.068359 C 32.419258 35.034099 32.30315 34.97247 32.21875 34.855469 C 32.15055 34.760569 32.144151 34.646065 32.144531 34.544922 z M 25.511719 35.419922 C 25.463919 35.418222 25.416229 35.425526 25.371094 35.441406 C 25.157674 35.516906 25.004816 35.60088 24.884766 35.738281 C 24.824766 35.806981 24.768536 35.892617 24.753906 36.023438 C 24.739306 36.154258 24.807006 36.336854 24.929688 36.425781 C 25.175048 36.603637 25.386057 36.499704 25.529297 36.396484 C 25.672527 36.293262 25.780702 36.139925 25.857422 35.939453 C 25.951622 35.693462 25.775022 35.428046 25.511719 35.419922 z M 31.435547 35.486328 C 31.406747 35.494228 31.379209 35.504666 31.349609 35.509766 L 31.453125 35.542969 C 31.445925 35.520679 31.439547 35.508598 31.435547 35.486328 z M 51.728516 36.615234 C 51.720416 36.753693 51.693163 36.888945 51.664062 37.023438 C 51.674462 37.033927 51.684359 37.045021 51.693359 37.056641 C 51.758529 37.144331 51.801431 37.246438 51.832031 37.349609 C 51.833131 37.249016 51.844672 37.145327 51.888672 37.060547 C 51.896172 37.045687 51.905063 37.031328 51.914062 37.017578 C 51.917262 36.969348 51.939594 36.920949 51.933594 36.873047 C 51.925594 36.808127 51.934284 36.742221 51.958984 36.681641 C 51.879454 36.648291 51.804516 36.669314 51.728516 36.615234 z M 79.669922 36.908203 C 79.603252 36.984393 79.597752 36.992704 79.501953 37.103516 C 79.484453 37.124426 79.464859 37.143416 79.443359 37.160156 C 79.16517 37.368621 78.944843 37.74512 78.820312 38.162109 C 78.695783 38.579097 78.667983 39.032237 78.708984 39.316406 C 78.714984 39.357866 78.721469 39.355862 78.730469 39.388672 C 78.751169 39.365222 78.739372 39.384669 78.763672 39.349609 C 78.871822 39.193197 79.01025 38.931642 79.162109 38.556641 C 79.169709 38.537711 79.178853 38.519423 79.189453 38.501953 C 79.455533 38.062517 79.486194 37.618863 79.558594 37.197266 C 79.574924 37.101966 79.640324 37.005573 79.669922 36.908203 z M 15.566406 37.042969 C 15.566416 37.321132 15.566376 37.604483 15.566406 37.882812 C 15.601466 37.839683 15.626466 37.799782 15.667969 37.753906 C 15.752339 37.660586 15.906168 37.538594 16.017578 37.433594 C 16.002678 37.422724 15.975138 37.430792 15.960938 37.419922 C 15.806017 37.301853 15.689866 37.170673 15.566406 37.042969 z M 52.542969 37.271484 C 52.534669 37.324384 52.521719 37.375364 52.511719 37.427734 L 52.568359 37.412109 C 52.564959 37.418709 52.566359 37.336109 52.542969 37.271484 z M 51.511719 37.476562 C 51.498219 37.506392 51.491463 37.539269 51.476562 37.568359 L 51.541016 37.578125 L 51.541016 37.576172 C 51.540216 37.544182 51.527019 37.509862 51.511719 37.476562 z M 46.964844 37.753906 C 46.907214 37.874134 46.840672 37.993983 46.763672 38.34375 C 46.758072 38.36722 46.750234 38.390109 46.740234 38.412109 C 46.884533 38.278466 47.106586 38.276014 47.253906 38.40625 C 47.206026 38.273532 47.158826 38.114771 47.111328 38.005859 C 47.049938 37.865197 47.016148 37.833336 46.964844 37.753906 z M 46.654297 38.537109 C 46.630797 38.559209 46.604482 38.57824 46.576172 38.59375 C 46.249282 38.777478 46.146106 38.948166 46.128906 39.003906 C 46.111906 39.059636 46.112084 39.013201 46.121094 39.019531 C 46.139784 39.032121 46.409001 39.132513 46.644531 38.548828 L 46.648438 38.550781 C 46.651438 38.545781 46.651297 38.542079 46.654297 38.537109 z M 47.376953 38.751953 C 47.372253 38.780083 47.364416 38.807604 47.353516 38.833984 C 47.344716 38.855584 47.323453 38.856043 47.314453 38.876953 L 47.330078 38.884766 C 47.188428 39.127754 47.128433 39.317633 47.115234 39.439453 C 47.101934 39.561273 47.124134 39.603792 47.146484 39.632812 C 47.191004 39.690863 47.38791 39.775569 47.75 39.697266 L 47.75 39.699219 C 47.7871 39.699749 47.808356 39.687783 47.847656 39.689453 C 47.862656 39.690553 47.877778 39.692513 47.892578 39.695312 C 47.857748 39.663953 47.813758 39.640539 47.785156 39.605469 C 47.648626 39.438115 47.545429 39.227271 47.443359 38.945312 C 47.441359 38.938812 47.4395 38.932381 47.4375 38.925781 C 47.4176 38.860491 47.397253 38.815333 47.376953 38.751953 z M 84.464844 39.160156 C 84.442144 39.289628 84.259612 39.402081 84.392578 39.572266 C 84.418078 39.613536 84.427709 39.613172 84.412109 39.601562 L 84.464844 39.601562 L 84.464844 39.160156 z M 30.539062 40.267578 C 30.386014 40.275778 30.229386 40.356649 29.900391 40.464844 C 29.517001 41.22018 30.353388 41.336104 30.210938 42.224609 C 30.209937 42.247949 30.207844 42.275839 30.214844 42.318359 C 30.217844 42.339619 30.223848 42.363564 30.236328 42.396484 C 30.660198 42.928371 30.691769 42.425253 31.005859 42.345703 C 31.034859 42.284823 31.063297 42.215387 31.091797 42.132812 C 31.101897 42.103392 31.109041 42.052082 31.119141 42.019531 C 31.148841 42.103851 31.177141 42.186548 31.224609 42.259766 C 31.257309 42.310296 31.296718 42.369816 31.396484 42.425781 C 31.496284 42.481751 31.697943 42.491002 31.814453 42.419922 C 32.047483 42.277921 32.018883 42.151102 32.033203 42.060547 C 32.061803 41.879438 32.043756 41.702165 31.972656 41.503906 C 31.901656 41.305646 31.739001 41.052419 31.431641 40.990234 C 31.404541 40.985334 31.377009 40.983375 31.349609 40.984375 C 31.367209 40.904655 31.368893 40.820517 31.345703 40.751953 C 31.300403 40.617511 31.226366 40.553789 31.160156 40.501953 C 30.841646 40.323697 30.69211 40.25933 30.539062 40.267578 z M 57.863281 40.708984 C 57.568101 40.665234 57.274206 40.721464 57.066406 40.896484 C 56.858596 41.071508 56.770153 41.319022 56.740234 41.552734 C 56.680434 42.020158 56.810935 42.517344 56.984375 42.960938 C 57.071075 43.182735 57.171167 43.387995 57.279297 43.5625 C 57.387417 43.737005 57.485736 43.881359 57.666016 43.996094 C 57.756116 44.053464 57.89366 44.114034 58.0625 44.078125 C 58.23134 44.042215 58.355306 43.90626 58.410156 43.794922 C 58.519866 43.572246 58.516108 43.366861 58.498047 43.060547 C 58.492047 42.962237 58.448957 42.869896 58.376953 42.802734 C 58.115413 42.557545 58.058305 42.3979 58.046875 42.292969 C 58.035475 42.188038 58.067272 42.092945 58.138672 41.964844 C 58.210072 41.836743 58.328498 41.721683 58.392578 41.470703 C 58.424578 41.345214 58.414959 41.148871 58.318359 41.005859 C 58.221659 40.862847 58.090032 40.788682 57.951172 40.732422 C 57.922872 40.721142 57.893381 40.713274 57.863281 40.708984 z M 53.96875 40.896484 C 53.91485 40.899784 53.862283 40.914413 53.814453 40.939453 C 53.173733 41.271519 52.798386 41.8302 52.941406 42.396484 C 53.012906 42.679625 53.303398 42.923396 53.617188 42.951172 C 53.869737 42.973532 54.147803 42.847702 54.439453 42.703125 C 54.717693 42.768455 54.960095 42.818076 55.140625 42.841797 C 55.343315 42.868427 55.480396 42.887628 55.660156 42.835938 C 55.750056 42.810138 55.880161 42.749838 55.957031 42.603516 C 56.033931 42.457191 56.004667 42.295181 55.966797 42.207031 C 55.890597 42.030734 55.797549 41.966543 55.693359 41.878906 C 55.276579 41.528356 54.537552 41.13478 54.169922 40.941406 C 54.108222 40.908326 54.03865 40.892784 53.96875 40.896484 z M 59.539062 40.962891 C 59.492863 40.963797 59.447153 40.973064 59.404297 40.990234 C 59.245797 41.054444 59.118139 41.127204 59.011719 41.226562 C 58.905299 41.325922 58.815958 41.468283 58.804688 41.632812 C 58.793388 41.797342 58.864388 41.946704 58.949219 42.041016 C 59.034019 42.135326 59.131915 42.192553 59.234375 42.228516 C 59.336845 42.264476 59.447606 42.279926 59.572266 42.259766 C 59.696926 42.239606 59.846166 42.169055 59.941406 42.035156 C 60.036606 41.901257 60.05862 41.734407 60.039062 41.589844 C 60.019463 41.445281 59.965362 41.309378 59.882812 41.160156 C 59.813812 41.035588 59.681412 40.9596 59.539062 40.962891 z M 50.320312 41.015625 C 50.122143 41.007925 49.950931 41.152896 49.925781 41.349609 C 49.891581 41.624595 50.006281 41.824231 50.101562 42.029297 C 49.955343 41.852209 49.809466 41.659381 49.603516 41.611328 C 49.314186 41.543818 49.032201 41.607329 48.775391 41.716797 C 48.261771 41.935771 47.793911 42.357025 47.425781 42.783203 C 47.241711 42.996292 47.085853 43.210352 46.970703 43.414062 C 46.855553 43.617773 46.755857 43.788063 46.779297 44.056641 C 46.790997 44.19093 46.879843 44.378562 47.033203 44.464844 C 47.186573 44.551124 47.334053 44.544174 47.458984 44.521484 C 47.698874 44.477914 47.938792 44.353925 48.263672 44.152344 L 48.271484 44.148438 C 48.732503 43.925072 48.996969 43.891357 49.099609 43.90625 C 49.202999 43.92125 49.224236 43.94556 49.316406 44.085938 C 49.408606 44.226318 49.514671 44.464701 49.712891 44.703125 C 49.911111 44.941551 50.224863 45.167485 50.658203 45.248047 C 50.713303 45.258267 50.769979 45.256287 50.824219 45.242188 C 50.947529 45.210558 51.267558 45.223793 51.642578 45.283203 C 52.017588 45.342603 52.454198 45.432711 52.892578 45.476562 C 53.330948 45.520412 53.777373 45.525742 54.189453 45.365234 C 54.601533 45.204728 54.952296 44.830861 55.072266 44.300781 C 55.118566 44.096021 54.991356 43.892132 54.787109 43.84375 C 54.52789 43.78173 54.043219 43.595936 53.636719 43.367188 C 53.230209 43.138438 52.923964 42.817804 52.902344 42.746094 C 52.781124 42.350569 52.20571 42.401776 52.15625 42.8125 C 52.13945 42.958021 52.119609 43.001284 52.099609 43.091797 C 52.066009 43.046477 52.043059 43.024436 52.005859 42.96875 C 51.817209 42.686925 51.591993 42.295233 51.345703 41.935547 C 51.099423 41.575861 50.853413 41.234974 50.470703 41.052734 C 50.423603 41.030244 50.372502 41.017615 50.320312 41.015625 z M 88.5 41.5 L 88.5 47.5 L 91.5 47.5 L 91.5 41.5 L 88.5 41.5 z M 8.5 43.5 L 8.5 49.5 L 11.5 49.5 L 11.5 43.5 L 8.5 43.5 z M 44.568359 45.59375 C 44.566359 45.594149 44.574694 45.590009 44.558594 45.599609 C 44.527624 45.618029 44.404516 45.708831 44.416016 45.894531 C 44.424416 46.030393 44.476119 46.044512 44.511719 46.070312 L 44.550781 46.058594 C 44.555481 46.050994 44.55848 46.042756 44.5625 46.035156 C 44.5541 46.018136 44.53725 46.006461 44.53125 45.988281 C 44.47644 45.815398 44.517025 45.699169 44.578125 45.599609 C 44.577125 45.599609 44.569159 45.59375 44.568359 45.59375 z M 54.474609 45.597656 C 54.28555 45.612696 54.135997 45.763909 54.123047 45.953125 C 54.093047 46.382414 54.293195 46.717773 54.453125 47 C 54.613065 47.282226 54.740833 47.523801 54.757812 47.707031 C 54.763813 47.763001 54.781647 47.817016 54.810547 47.865234 C 55.023707 48.227398 55.189816 48.48981 55.322266 48.675781 C 55.388466 48.768771 55.445293 48.841456 55.501953 48.904297 C 55.558653 48.967137 55.596953 49.022519 55.722656 49.080078 C 55.785456 49.108858 55.896593 49.145559 56.033203 49.099609 C 56.169813 49.053659 56.25833 48.928088 56.287109 48.849609 C 56.344709 48.69265 56.318141 48.630905 56.306641 48.558594 C 56.283741 48.413971 56.234841 48.267813 56.167969 48.087891 C 55.900399 47.368202 55.370949 46.251165 54.761719 45.697266 C 54.697219 45.638286 54.614544 45.603136 54.527344 45.597656 C 54.509744 45.596456 54.492099 45.596456 54.474609 45.597656 z M 44.716797 45.724609 C 44.713097 45.734889 44.708098 45.736557 44.705078 45.748047 C 44.699978 45.770427 44.712591 45.784151 44.712891 45.806641 C 44.721891 45.792951 44.731234 45.779205 44.740234 45.765625 C 44.733934 45.749545 44.724797 45.738959 44.716797 45.724609 z M 30.1875 45.748047 C 30.05826 45.762197 29.928275 45.807576 29.796875 45.878906 C 29.534085 46.021572 29.291223 46.277313 29.158203 46.533203 C 29.025203 46.789094 29.013715 47.01739 29.074219 47.144531 C 29.122859 47.246804 29.337723 47.327709 29.626953 47.380859 C 29.725513 47.272638 29.832863 47.147522 29.914062 47.076172 C 30.046112 46.960076 30.150201 46.849603 30.394531 46.845703 C 30.516691 46.843803 30.667394 46.911614 30.746094 46.998047 C 30.820884 47.080167 30.845484 47.154449 30.863281 47.21875 C 30.851051 47.082871 30.900084 46.954749 30.958984 46.875 C 31.082803 46.707442 31.222469 46.637349 31.417969 46.542969 C 31.452539 46.526499 31.489449 46.515266 31.527344 46.509766 C 31.265854 46.250283 30.938226 45.888876 30.634766 45.822266 C 30.613466 45.817566 30.592466 45.811034 30.572266 45.802734 C 30.445236 45.750944 30.31674 45.733907 30.1875 45.748047 z M 71.035156 47.21875 C 70.671936 47.561964 70.293258 47.851517 69.955078 48.023438 C 69.783968 48.110428 69.626159 48.158717 69.449219 48.179688 C 69.465319 48.223177 69.466222 48.226834 69.482422 48.271484 C 69.597292 48.587505 69.718594 48.952915 69.683594 49.345703 C 69.666094 49.542098 69.599784 49.753327 69.455078 49.927734 C 69.310368 50.10214 69.09653 50.223506 68.849609 50.285156 C 68.771779 50.304636 68.689833 50.299181 68.615234 50.269531 C 68.516424 50.229801 68.424072 50.184162 68.326172 50.138672 C 68.382712 50.223452 68.369911 50.224522 68.445312 50.328125 C 68.484013 50.381595 68.508625 50.444166 68.515625 50.509766 C 68.552825 50.841156 68.566575 51.061775 68.546875 51.248047 C 68.541375 51.299937 68.532772 51.351966 68.513672 51.410156 C 68.686722 51.558513 68.857868 51.689934 69.023438 51.810547 C 69.023567 51.808547 69.023298 51.806688 69.023438 51.804688 C 69.074438 51.095579 69.580457 50.309816 70.429688 49.974609 C 70.438388 49.916389 70.447497 49.85634 70.466797 49.8125 C 70.573677 49.569701 70.766128 49.390171 71.111328 49.130859 C 71.113328 49.128859 71.115188 49.1269 71.117188 49.125 C 71.111087 49.09429 71.09875 49.066046 71.09375 49.035156 C 71.01687 48.590403 71.01075 48.120498 71.242188 47.716797 C 71.264287 47.679037 71.292672 47.645347 71.326172 47.617188 C 71.304172 47.603198 71.273959 47.595438 71.255859 47.580078 C 71.141059 47.482778 71.073956 47.356324 71.035156 47.21875 z M 88.5 50.5 L 88.5 56.5 L 91.5 56.5 L 91.5 50.5 L 88.5 50.5 z M 8.5 52.5 L 8.5 58.5 L 11.5 58.5 L 11.5 52.5 L 8.5 52.5 z M 70.902344 52.595703 C 70.591254 52.75647 70.310878 52.849307 70.054688 52.867188 C 70.125748 52.896577 70.204025 52.927528 70.265625 52.955078 C 70.327005 52.982518 70.3826 53.007802 70.4375 53.039062 C 70.49048 53.069232 70.545113 53.077803 70.632812 53.212891 C 70.639013 53.208791 70.648297 53.198813 70.654297 53.195312 C 70.756627 53.131833 70.796875 53.132138 70.859375 53.117188 C 70.921255 53.102398 71.046819 53.086686 71.136719 53.072266 C 70.995339 52.937657 70.935044 52.772265 70.902344 52.595703 z M 72.292969 52.794922 C 72.291969 52.796922 72.290063 52.798881 72.289062 52.800781 C 72.205123 52.924303 72.111023 53.019019 72.007812 53.099609 C 72.010513 53.100409 72.016511 53.100762 72.019531 53.101562 C 72.050231 53.109462 72.078687 53.118406 72.117188 53.134766 C 72.126887 53.138866 72.140744 53.145691 72.152344 53.150391 C 72.276004 53.080071 72.423241 53.014266 72.619141 52.947266 C 72.650141 52.937366 72.682344 52.931487 72.714844 52.929688 C 72.678614 52.924388 72.638014 52.922786 72.603516 52.916016 C 72.546996 52.904836 72.494141 52.893861 72.431641 52.869141 C 72.396061 52.855081 72.345871 52.836602 72.292969 52.794922 z M 72.410156 53.441406 C 72.406156 53.448206 72.402391 53.449701 72.400391 53.457031 C 72.399571 53.460331 72.400781 53.460091 72.400391 53.462891 L 72.451172 53.484375 C 72.445472 53.478175 72.44247 53.463784 72.4375 53.458984 C 72.4142 53.436604 72.422956 53.448906 72.410156 53.441406 z M 88.5 59.5 L 88.5 65.5 L 91.5 65.5 L 91.5 59.5 L 88.5 59.5 z M 8.5 61.5 L 8.5 67.5 L 11.5 67.5 L 11.5 61.5 L 8.5 61.5 z M 8.5 70.5 L 8.5 76.5 L 11.5 76.5 L 11.5 70.5 L 8.5 70.5 z M 85 76 L 95 76 L 95 86 L 85 86 L 85 76 z M 8.5 79.5 L 8.5 82.5 L 14.5 82.5 L 14.5 79.5 L 11.5 79.5 L 10 79.5 L 8.5 79.5 z M 17.5 79.5 L 17.5 82.5 L 23.5 82.5 L 23.5 79.5 L 17.5 79.5 z M 26.5 79.5 L 26.5 82.5 L 32.5 82.5 L 32.5 79.5 L 26.5 79.5 z M 35.5 79.5 L 35.5 82.5 L 41.5 82.5 L 41.5 79.5 L 35.5 79.5 z M 44.5 79.5 L 44.5 82.5 L 50.5 82.5 L 50.5 79.5 L 44.5 79.5 z M 53.5 79.5 L 53.5 82.5 L 59.5 82.5 L 59.5 79.5 L 53.5 79.5 z M 62.5 79.5 L 62.5 82.5 L 68.5 82.5 L 68.5 79.5 L 62.5 79.5 z M 71.5 79.5 L 71.5 82.5 L 77.5 82.5 L 77.5 79.5 L 71.5 79.5 z "
     style="color:#000000;font-style:normal;font-variant:normal;font-weight:normal;font-stretch:normal;font-size:medium;line-height:normal;font-family:sans-serif;font-variant-ligatures:normal;font-variant-position:normal;font-variant-caps:normal;font-variant-numeric:normal;font-variant-alternates:normal;font-variant-east-asian:normal;font-feature-settings:normal;font-variation-settings:normal;text-indent:0;text-align:start;text-decoration:none;text-decoration-line:none;text-decoration-style:solid;text-decoration-color:#000000;letter-spacing:normal;word-spacing:normal;text-transform:none;writing-mode:lr-tb;direction:ltr;text-orientation:mixed;dominant-baseline:auto;baseline-shift:baseline;text-anchor:start;white-space:normal;shape-padding:0;shape-margin:0;inline-size:0;clip-rule:nonzero;display:inline;overflow:visible;visibility:visible;isolation:auto;mix-blend-mode:normal;color-interpolation:sRGB;color-interpolation-filters:linearRGB;solid-color:#000000;solid-opacity:1;vector-effect:none;fill:#000080;fill-opacity:1;fill-rule:nonzero;stroke:none;stroke-width:5;stroke-linecap:round;stroke-linejoin:round;stroke-miterlimit:4;stroke-dasharray:none;stroke-dashoffset:0;stroke-opacity:1;paint-order:normal;color-rendering:auto;image-rendering:auto;shape-rendering:auto;text-rendering:auto;enable-background:accumulate;stop-color:#000000"
     id="path1802" />
</svg>
