<?xml version="1.0" encoding="UTF-8" standalone="no"?>
<svg
   xmlns:dc="http://purl.org/dc/elements/1.1/"
   xmlns:cc="http://creativecommons.org/ns#"
   xmlns:rdf="http://www.w3.org/1999/02/22-rdf-syntax-ns#"
   xmlns:svg="http://www.w3.org/2000/svg"
   xmlns="http://www.w3.org/2000/svg"
   xmlns:sodipodi="http://sodipodi.sourceforge.net/DTD/sodipodi-0.dtd"
   xmlns:inkscape="http://www.inkscape.org/namespaces/inkscape"
   version="1.1"
   width="100"
   height="100"
   id="svg4460"
   sodipodi:docname="uEA9D-wmts.svg"
   inkscape:version="1.0 (4035a4fb49, 2020-05-01)">
  <sodipodi:namedview
     pagecolor="#ffffff"
     bordercolor="#666666"
     borderopacity="1"
     objecttolerance="10"
     gridtolerance="10"
     guidetolerance="10"
     inkscape:pageopacity="0"
     inkscape:pageshadow="2"
     inkscape:window-width="1920"
     inkscape:window-height="1017"
     id="namedview11"
     showgrid="false"
     inkscape:zoom="3.605"
     inkscape:cx="180.26657"
     inkscape:cy="95.256492"
     inkscape:window-x="-8"
     inkscape:window-y="-8"
     inkscape:window-maximized="1"
     inkscape:current-layer="svg4460"
     inkscape:document-rotation="0" />
  <defs
     id="defs4462" />
  <metadata
     id="metadata4465">
    <rdf:RDF>
      <cc:Work
         rdf:about="">
        <dc:format>image/svg+xml</dc:format>
        <dc:type
           rdf:resource="http://purl.org/dc/dcmitype/StillImage" />
        <dc:title />
      </cc:Work>
    </rdf:RDF>
  </metadata>
  <path
     d="M 49.953125 5 C 31.096935 5.0210698 14.253533 16.796015 7.7578125 34.498047 L 2.5 34.498047 C 0.84209619 34.498117 -0.50188289 35.842096 -0.50195312 37.5 L -0.50195312 62.5 C -0.50188289 64.157904 0.84209619 65.501883 2.5 65.501953 L 7.7558594 65.501953 C 14.25775 83.220765 31.125921 94.999394 50 95 C 68.873364 94.998575 85.740544 83.220093 92.242188 65.501953 L 97.5 65.501953 C 99.157903 65.501881 100.50188 64.157903 100.50195 62.5 L 100.50195 37.5 C 100.50188 35.842097 99.157903 34.498119 97.5 34.498047 L 92.244141 34.498047 C 85.74225 16.779235 68.874079 5.0006057 50 5 L 49.953125 5 z M 52.25 10.113281 C 56.99082 10.919864 61.521215 14.825827 65.089844 21.306641 C 66.240162 23.395677 67.269298 25.740003 68.158203 28.28125 L 52.25 28.28125 L 52.25 10.113281 z M 47.75 10.291016 L 47.75 28.28125 L 32.675781 28.28125 C 33.564686 25.740003 34.591869 23.395677 35.742188 21.306641 C 39.101129 15.206628 43.31345 11.392162 47.75 10.291016 z M 37.382812 11.509766 C 35.291207 13.626435 33.411772 16.207528 31.798828 19.136719 C 30.287091 21.88211 28.986258 24.955506 27.917969 28.28125 L 15.808594 28.28125 C 20.790471 20.446054 28.387263 14.450248 37.382812 11.509766 z M 63.851562 11.925781 C 72.309241 14.996952 79.438377 20.805971 84.191406 28.28125 L 72.910156 28.28125 C 71.844072 24.955365 70.544603 21.881504 69.033203 19.136719 C 67.524224 16.396338 65.781937 13.962562 63.851562 11.925781 z M 13.330078 32.78125 L 26.658203 32.78125 C 26.522788 33.342396 26.411541 33.92411 26.291016 34.498047 L 12.580078 34.498047 C 12.818287 33.919155 13.065064 33.3456 13.330078 32.78125 z M 31.306641 32.78125 L 47.75 32.78125 L 47.75 34.498047 L 30.908203 34.498047 C 31.039484 33.924061 31.161231 33.34037 31.306641 32.78125 z M 52.25 32.78125 L 69.525391 32.78125 C 69.6708 33.34037 69.792548 33.924061 69.923828 34.498047 L 52.25 34.498047 L 52.25 32.78125 z M 74.169922 32.78125 L 86.669922 32.78125 C 86.934936 33.3456 87.181713 33.919155 87.419922 34.498047 L 74.535156 34.498047 C 74.415036 33.924081 74.304972 33.342498 74.169922 32.78125 z M 82.144531 42.5 C 84.537621 42.5 86.337758 42.897663 87.542969 43.695312 C 88.756859 44.492959 89.394378 45.559014 89.455078 46.890625 L 85.605469 47.017578 C 85.440729 46.272667 85.083359 45.740983 84.537109 45.417969 C 83.999539 45.088363 83.189289 44.921875 82.105469 44.921875 C 80.986949 44.921875 80.111466 45.095929 79.478516 45.445312 C 79.070996 45.669446 78.867188 45.969952 78.867188 46.345703 C 78.867188 46.688495 79.057943 46.982653 79.439453 47.226562 C 79.925003 47.536392 81.103713 47.859114 82.976562 48.195312 C 84.849423 48.531511 86.233883 48.879621 87.126953 49.242188 C 88.028703 49.598163 88.729532 50.090544 89.232422 50.716797 C 89.743991 51.336457 90 52.105178 90 53.021484 C 90 53.852092 89.696784 54.630335 89.089844 55.355469 C 88.482904 56.080604 87.623511 56.620587 86.513672 56.976562 C 85.403842 57.325945 84.021324 57.5 82.365234 57.5 C 79.954803 57.5 78.10442 57.078167 76.8125 56.234375 C 75.520579 55.38399 74.747545 54.147056 74.496094 52.525391 L 78.242188 52.248047 C 78.467628 53.203905 78.922442 53.907204 79.607422 54.355469 C 80.301072 54.803734 81.233767 55.029297 82.404297 55.029297 C 83.644197 55.029297 84.576882 54.831075 85.201172 54.435547 C 85.834122 54.033427 86.150391 53.565214 86.150391 53.03125 C 86.150391 52.688459 86.014884 52.397472 85.746094 52.160156 C 85.485984 51.916246 85.028101 51.705331 84.369141 51.527344 C 83.918262 51.408686 82.891179 51.197769 81.287109 50.894531 C 79.223498 50.505595 77.773787 50.027861 76.941406 49.460938 C 75.770877 48.66329 75.185547 47.69 75.185547 46.542969 C 75.185547 45.80465 75.45961 45.117953 76.005859 44.478516 C 76.560779 43.832487 77.354919 43.340105 78.386719 43.003906 C 79.42719 42.667708 80.679201 42.5 82.144531 42.5 z M 10 42.746094 L 13.941406 42.746094 L 16.814453 52.705078 L 20.300781 42.746094 L 24.878906 42.746094 L 28.222656 52.873047 L 31.148438 42.746094 L 35.023438 42.746094 L 30.392578 57.244141 L 26.310547 57.244141 L 22.513672 46.40625 L 18.726562 57.244141 L 14.552734 57.244141 L 10 42.746094 z M 36.923828 42.746094 L 42.685547 42.746094 L 46.144531 52.634766 L 49.564453 42.746094 L 55.339844 42.746094 L 55.339844 57.244141 L 51.761719 57.244141 L 51.761719 45.832031 L 47.976562 57.244141 L 44.271484 57.244141 L 40.5 45.832031 L 40.5 57.244141 L 36.923828 57.244141 L 36.923828 42.746094 z M 57.824219 42.746094 L 72.976562 42.746094 L 72.976562 45.199219 L 67.330078 45.199219 L 67.330078 57.244141 L 63.480469 57.244141 L 63.480469 45.199219 L 57.824219 45.199219 L 57.824219 42.746094 z M 12.580078 65.501953 L 26.103516 65.501953 C 26.215939 66.074902 26.318144 66.655834 26.445312 67.216797 L 13.330078 67.216797 C 13.06532 66.652992 12.818082 66.080047 12.580078 65.501953 z M 30.708984 65.501953 L 47.75 65.501953 L 47.75 67.216797 L 31.082031 67.216797 C 30.945425 66.657193 30.831709 66.075256 30.708984 65.501953 z M 52.25 65.501953 L 70.123047 65.501953 C 70.000115 66.075174 69.886591 66.657254 69.75 67.216797 L 52.25 67.216797 L 52.25 65.501953 z M 74.722656 65.501953 L 87.419922 65.501953 C 87.181918 66.080047 86.93468 66.652992 86.669922 67.216797 L 74.380859 67.216797 C 74.507739 66.655709 74.610579 66.074978 74.722656 65.501953 z M 15.808594 71.716797 L 27.632812 71.716797 C 28.750221 75.392109 30.151012 78.773109 31.798828 81.765625 C 33.092679 84.115327 34.560572 86.238127 36.167969 88.082031 C 27.701853 85.012686 20.565238 79.197761 15.808594 71.716797 z M 32.363281 71.716797 L 47.75 71.716797 L 47.75 90.435547 C 47.47293 90.420427 47.199375 90.391744 46.923828 90.371094 C 42.792421 89.021738 38.89178 85.313581 35.742188 79.59375 C 34.456573 77.259007 33.318425 74.609992 32.363281 71.716797 z M 52.25 71.716797 L 68.46875 71.716797 C 67.513607 74.609993 66.37546 77.259007 65.089844 79.59375 C 62.004979 85.196027 58.200983 88.872141 54.164062 90.289062 C 53.530417 90.353572 52.892018 90.400502 52.25 90.435547 L 52.25 71.716797 z M 73.197266 71.716797 L 84.191406 71.716797 C 79.672015 78.824626 73.002024 84.420394 65.085938 87.59375 C 66.52943 85.865666 67.852464 83.909906 69.033203 81.765625 C 70.680931 78.773263 72.081942 75.392941 73.197266 71.716797 z "
     style="color:#000000;overflow:visible;fill:#000080;stroke-width:8.653;stroke-linecap:round;stroke-linejoin:round;stroke-dashoffset:20"
     id="rect910" />
</svg>
