<?xml version="1.0" encoding="UTF-8" standalone="no"?>
<svg
   xmlns:dc="http://purl.org/dc/elements/1.1/"
   xmlns:cc="http://creativecommons.org/ns#"
   xmlns:rdf="http://www.w3.org/1999/02/22-rdf-syntax-ns#"
   xmlns:svg="http://www.w3.org/2000/svg"
   xmlns="http://www.w3.org/2000/svg"
   xmlns:sodipodi="http://sodipodi.sourceforge.net/DTD/sodipodi-0.dtd"
   xmlns:inkscape="http://www.inkscape.org/namespaces/inkscape"
   version="1.1"
   width="100"
   height="100"
   id="svg4460"
   sodipodi:docname="kml-file.svg"
   inkscape:version="1.0 (4035a4fb49, 2020-05-01)">
  <sodipodi:namedview
     pagecolor="#ffffff"
     bordercolor="#666666"
     borderopacity="1"
     objecttolerance="10"
     gridtolerance="10"
     guidetolerance="10"
     inkscape:pageopacity="0"
     inkscape:pageshadow="2"
     inkscape:window-width="1920"
     inkscape:window-height="1017"
     id="namedview11"
     showgrid="false"
     inkscape:zoom="2.8284271"
     inkscape:cx="111.68229"
     inkscape:cy="11.484597"
     inkscape:window-x="-8"
     inkscape:window-y="-8"
     inkscape:window-maximized="1"
     inkscape:current-layer="svg4460"
     inkscape:document-rotation="0" />
  <defs
     id="defs4462" />
  <metadata
     id="metadata4465">
    <rdf:RDF>
      <cc:Work
         rdf:about="">
        <dc:format>image/svg+xml</dc:format>
        <dc:type
           rdf:resource="http://purl.org/dc/dcmitype/StillImage" />
        <dc:title></dc:title>
      </cc:Work>
    </rdf:RDF>
  </metadata>
  <path
     d="M 13.996094 0 C 12.615439 0.00013804476 11.496232 1.1193453 11.496094 2.5 L 11.496094 70 L 0 70 L 0 92 L 11.496094 92 L 11.496094 97.5 C 11.496232 98.880655 12.615439 99.999862 13.996094 100 L 85.996094 100 C 87.376749 99.999862 88.495956 98.880655 88.496094 97.5 L 88.496094 21.625 C 88.522594 20.512022 88.500094 19.848304 87.763672 19.035156 L 69.460938 0.73242188 C 68.984527 0.25584936 68.335919 -0.00824228 67.662109 0 L 13.996094 0 z M 16.496094 5 L 65.398438 5 L 66.650391 19.568359 C 66.754393 20.780413 67.71568 21.741701 68.927734 21.845703 L 83.496094 23.097656 L 83.496094 95 L 16.496094 95 L 16.496094 92 L 80 92 L 80 70 L 16.496094 70 L 16.496094 5 z M 10 73 L 14.205078 73 L 14.205078 79.660156 L 22.699219 73 L 28.351562 73 L 20.511719 78.841797 L 28.779297 88 L 23.337891 88 L 17.613281 80.960938 L 14.205078 83.466797 L 14.205078 88 L 10 88 L 10 73 z M 30.908203 73 L 37.201172 73 L 40.980469 83.232422 L 44.716797 73 L 51.023438 73 L 51.023438 88 L 47.117188 88 L 47.117188 76.191406 L 42.982422 88 L 38.935547 88 L 34.814453 76.191406 L 34.814453 88 L 30.908203 88 L 30.908203 73 z M 55.341797 73.123047 L 59.544922 73.123047 L 59.544922 85.472656 L 70 85.472656 L 70 88 L 55.341797 88 L 55.341797 73.123047 z "
     style="color:#000000;font-style:normal;font-variant:normal;font-weight:normal;font-stretch:normal;font-size:medium;line-height:normal;font-family:sans-serif;font-variant-ligatures:normal;font-variant-position:normal;font-variant-caps:normal;font-variant-numeric:normal;font-variant-alternates:normal;font-variant-east-asian:normal;font-feature-settings:normal;font-variation-settings:normal;text-indent:0;text-align:start;text-decoration:none;text-decoration-line:none;text-decoration-style:solid;text-decoration-color:#000000;letter-spacing:normal;word-spacing:normal;text-transform:none;writing-mode:lr-tb;direction:ltr;text-orientation:mixed;dominant-baseline:auto;baseline-shift:baseline;text-anchor:start;white-space:normal;shape-padding:0;shape-margin:0;inline-size:0;clip-rule:nonzero;display:inline;overflow:visible;visibility:visible;opacity:1;isolation:auto;mix-blend-mode:normal;color-interpolation:sRGB;color-interpolation-filters:linearRGB;solid-color:#000000;solid-opacity:1;vector-effect:none;fill:#000080;fill-opacity:1;fill-rule:nonzero;stroke:none;stroke-width:5;stroke-linecap:round;stroke-linejoin:round;stroke-miterlimit:4;stroke-dasharray:none;stroke-dashoffset:20;stroke-opacity:1;color-rendering:auto;image-rendering:auto;shape-rendering:auto;text-rendering:auto;enable-background:accumulate;stop-color:#000000;stop-opacity:1"
     id="path841" />
  <path
     id="path922"
     d="m 70.771484,9.1152344 8.609375,8.6093746 -7.927734,-0.68164 z"
     style="color:#000000;font-style:normal;font-variant:normal;font-weight:normal;font-stretch:normal;font-size:medium;line-height:normal;font-family:sans-serif;font-variant-ligatures:normal;font-variant-position:normal;font-variant-caps:normal;font-variant-numeric:normal;font-variant-alternates:normal;font-variant-east-asian:normal;font-feature-settings:normal;font-variation-settings:normal;text-indent:0;text-align:start;text-decoration:none;text-decoration-line:none;text-decoration-style:solid;text-decoration-color:#000000;letter-spacing:normal;word-spacing:normal;text-transform:none;writing-mode:lr-tb;direction:ltr;text-orientation:mixed;dominant-baseline:auto;baseline-shift:baseline;text-anchor:start;white-space:normal;shape-padding:0;shape-margin:0;inline-size:0;clip-rule:nonzero;display:inline;overflow:visible;visibility:visible;opacity:1;isolation:auto;mix-blend-mode:normal;color-interpolation:sRGB;color-interpolation-filters:linearRGB;solid-color:#000000;solid-opacity:1;vector-effect:none;fill:#000080;fill-opacity:1;fill-rule:nonzero;stroke:none;stroke-width:5;stroke-linecap:round;stroke-linejoin:round;stroke-miterlimit:4;stroke-dasharray:none;stroke-dashoffset:20;stroke-opacity:1;color-rendering:auto;image-rendering:auto;shape-rendering:auto;text-rendering:auto;enable-background:accumulate;stop-color:#000000;stop-opacity:1" />
  <path
     id="path961"
     fill="#4d4d4d"
     d="m 50,17.506693 a 22.5,22.5 0 0 0 -22.5,22.5 22.5,22.5 0 0 0 22.5,22.5 22.5,22.5 0 0 0 22.5,-22.5 22.5,22.5 0 0 0 -22.5,-22.5 m -0.455625,1.591875 c 9.863435,0 18.180005,6.600937 20.781565,15.629063 -0.48094,0.925312 -1.09406,1.529999 -1.87313,1.5975 -2.6775,0 -6.28031,-6.921563 -8.35593,-9.244688 -3.11063,-3.479063 -7.38563,-6.76125 -14.931567,-6.76125 -1.321876,0 -2.424375,0.07594 -3.344063,0.2025 2.399063,-0.916875 5.003437,-1.423125 7.723125,-1.423125 m -9.365625,5.180625 c 5.619375,0 9.717188,4.28625 14.11875,8.552812 2.80688,2.730938 10.61156,9.973125 16.81875,11.334375 -0.17437,1.150313 -0.44156,2.266876 -0.79031,3.349688 -13.66875,-1.575 -26.521878,-17.057813 -33.828753,-17.057813 -2.719687,0 -5.298749,2.176875 -7.551562,4.429688 1.096875,-3.808125 3.214687,-7.185938 6.035625,-9.818438 1.524375,-0.455625 3.279375,-0.790312 5.1975,-0.790312 m -7.03125,22.24125 c 3.369375,0 12.844687,6.766875 25.39687,6.766875 3.6225,0 7.10157,-0.950625 9.49219,-1.802813 -0.99844,1.479375 -2.17406,2.840625 -3.49875,4.01625 -2.50031,0.781875 -5.90344,1.549688 -9.59625,1.549688 -8.088747,0 -10.271247,-1.884375 -12.464998,-1.884375 -2.480624,0 -2.089687,2.207812 -1.439999,3.878437 -4.618126,-2.134687 -8.350313,-5.833125 -10.515938,-10.431562 0.458437,-1.130625 1.251563,-2.0925 2.6325,-2.0925"
     style="stroke-width:2.8125;fill:#000080" />
</svg>
