<?xml version="1.0" encoding="UTF-8" standalone="no"?>
<svg
   xmlns:dc="http://purl.org/dc/elements/1.1/"
   xmlns:cc="http://creativecommons.org/ns#"
   xmlns:rdf="http://www.w3.org/1999/02/22-rdf-syntax-ns#"
   xmlns:svg="http://www.w3.org/2000/svg"
   xmlns="http://www.w3.org/2000/svg"
   xmlns:sodipodi="http://sodipodi.sourceforge.net/DTD/sodipodi-0.dtd"
   xmlns:inkscape="http://www.inkscape.org/namespaces/inkscape"
   inkscape:version="1.0 (4035a4fb49, 2020-05-01)"
   sodipodi:docname="uEA9E-WFS.svg"
   id="svg4460"
   height="100"
   width="100"
   version="1.1">
  <sodipodi:namedview
     inkscape:document-rotation="0"
     inkscape:current-layer="svg4460"
     inkscape:window-maximized="1"
     inkscape:window-y="-8"
     inkscape:window-x="-8"
     inkscape:cy="11.274349"
     inkscape:cx="116.62196"
     inkscape:zoom="3.605"
     showgrid="false"
     id="namedview11"
     inkscape:window-height="1017"
     inkscape:window-width="1920"
     inkscape:pageshadow="2"
     inkscape:pageopacity="0"
     guidetolerance="10"
     gridtolerance="10"
     objecttolerance="10"
     borderopacity="1"
     bordercolor="#666666"
     pagecolor="#ffffff" />
  <defs
     id="defs4462" />
  <metadata
     id="metadata4465">
    <rdf:RDF>
      <cc:Work
         rdf:about="">
        <dc:format>image/svg+xml</dc:format>
        <dc:type
           rdf:resource="http://purl.org/dc/dcmitype/StillImage" />
        <dc:title />
      </cc:Work>
    </rdf:RDF>
  </metadata>
  <path
     d="M 49.953125 5 A 45 45 0 0 0 7.7578125 34.498047 L 2.5 34.498047 A 3.0020802 3.0020802 0 0 0 -0.50195312 37.5 L -0.50195312 62.5 A 3.0020802 3.0020802 0 0 0 2.5 65.501953 L 7.7558594 65.501953 A 45 45 0 0 0 50 95 A 45 45 0 0 0 92.242188 65.501953 L 97.5 65.501953 A 3.0020802 3.0020802 0 0 0 100.50195 62.5 L 100.50195 37.5 A 3.0020802 3.0020802 0 0 0 97.5 34.498047 L 92.244141 34.498047 A 45 45 0 0 0 50 5 A 45 45 0 0 0 49.953125 5 z M 52.25 10.113281 C 56.99082 10.919864 61.521215 14.825827 65.089844 21.306641 C 66.240162 23.395677 67.269298 25.740003 68.158203 28.28125 L 52.25 28.28125 L 52.25 10.113281 z M 47.75 10.291016 L 47.75 28.28125 L 32.675781 28.28125 C 33.564686 25.740003 34.591869 23.395677 35.742188 21.306641 C 39.101129 15.206628 43.31345 11.392162 47.75 10.291016 z M 37.382812 11.509766 C 35.291207 13.626435 33.411772 16.207528 31.798828 19.136719 C 30.287091 21.88211 28.986258 24.955506 27.917969 28.28125 L 15.808594 28.28125 C 20.790471 20.446054 28.387263 14.450248 37.382812 11.509766 z M 63.851562 11.925781 C 72.309241 14.996952 79.438377 20.805971 84.191406 28.28125 L 72.910156 28.28125 C 71.844072 24.955365 70.544603 21.881504 69.033203 19.136719 C 67.524224 16.396338 65.781937 13.962562 63.851562 11.925781 z M 13.330078 32.78125 L 26.658203 32.78125 C 26.522788 33.342396 26.411541 33.92411 26.291016 34.498047 L 12.580078 34.498047 C 12.818287 33.919155 13.065064 33.3456 13.330078 32.78125 z M 31.306641 32.78125 L 47.75 32.78125 L 47.75 34.498047 L 30.908203 34.498047 C 31.039484 33.924061 31.161231 33.34037 31.306641 32.78125 z M 52.25 32.78125 L 69.525391 32.78125 C 69.6708 33.34037 69.792548 33.924061 69.923828 34.498047 L 52.25 34.498047 L 52.25 32.78125 z M 74.169922 32.78125 L 86.669922 32.78125 C 86.934936 33.3456 87.181713 33.919155 87.419922 34.498047 L 74.535156 34.498047 C 74.415036 33.924081 74.304972 33.342498 74.169922 32.78125 z M 79.125 42.5 C 82.43816 42.5 84.929061 42.899702 86.597656 43.697266 C 88.278243 44.49483 89.162054 45.559154 89.246094 46.890625 L 83.916016 47.019531 C 83.687924 46.274699 83.193772 45.740949 82.4375 45.417969 C 81.69325 45.088397 80.572806 44.923828 79.072266 44.923828 C 77.523736 44.923828 76.309894 45.09792 75.433594 45.447266 C 74.869394 45.671375 74.585938 45.971944 74.585938 46.347656 C 74.585938 46.69041 74.850716 46.982681 75.378906 47.226562 C 76.051136 47.536359 77.684434 47.85915 80.277344 48.195312 C 82.870254 48.531475 84.785058 48.881612 86.021484 49.244141 C 87.269918 49.600078 88.243201 50.09061 88.939453 50.716797 C 89.647697 51.336392 90 52.103322 90 53.019531 C 90 53.850053 89.580528 54.628458 88.740234 55.353516 C 87.899941 56.078574 86.710373 56.618671 85.173828 56.974609 C 83.637297 57.323955 81.724441 57.5 79.431641 57.5 C 76.094471 57.5 73.530806 57.078079 71.742188 56.234375 C 69.953558 55.38408 68.885249 54.146884 68.537109 52.525391 L 73.722656 52.25 C 74.034766 53.205759 74.666904 53.907252 75.615234 54.355469 C 76.575564 54.803687 77.863815 55.027344 79.484375 55.027344 C 81.200975 55.027344 82.491162 54.82908 83.355469 54.433594 C 84.231769 54.031517 84.669937 53.565157 84.669922 53.03125 C 84.669922 52.688496 84.485414 52.397448 84.113281 52.160156 C 83.753156 51.916273 83.115445 51.705313 82.203125 51.527344 C 81.578905 51.408698 80.15829 51.197737 77.9375 50.894531 C 75.0805 50.505637 73.074265 50.027802 71.921875 49.460938 C 70.301295 48.663373 69.492188 47.691831 69.492188 46.544922 C 69.492188 45.806681 69.86874 45.115932 70.625 44.476562 C 71.39326 43.830602 72.493365 43.34007 73.921875 43.003906 C 75.362385 42.667743 77.09628 42.5 79.125 42.5 z M 10 42.748047 L 15.453125 42.748047 L 19.435547 52.703125 L 24.261719 42.748047 L 30.599609 42.748047 L 35.226562 52.873047 L 39.277344 42.748047 L 44.644531 42.748047 L 38.234375 57.242188 L 32.578125 57.242188 L 27.320312 46.40625 L 22.080078 57.242188 L 16.300781 57.242188 L 10 42.748047 z M 47.380859 42.748047 L 65.476562 42.748047 L 65.476562 45.201172 L 52.710938 45.201172 L 52.710938 48.630859 L 63.730469 48.630859 L 63.730469 51.082031 L 52.710938 51.082031 L 52.710938 57.242188 L 47.380859 57.242188 L 47.380859 42.748047 z M 12.580078 65.501953 L 26.103516 65.501953 C 26.215939 66.074902 26.318143 66.655834 26.445312 67.216797 L 13.330078 67.216797 C 13.06532 66.652992 12.818082 66.080047 12.580078 65.501953 z M 30.708984 65.501953 L 47.75 65.501953 L 47.75 67.216797 L 31.082031 67.216797 C 30.945425 66.657193 30.831709 66.075256 30.708984 65.501953 z M 52.25 65.501953 L 70.123047 65.501953 C 70.000115 66.075174 69.886591 66.657254 69.75 67.216797 L 52.25 67.216797 L 52.25 65.501953 z M 74.722656 65.501953 L 87.419922 65.501953 C 87.181918 66.080047 86.93468 66.652992 86.669922 67.216797 L 74.380859 67.216797 C 74.507739 66.655709 74.610579 66.074978 74.722656 65.501953 z M 15.808594 71.716797 L 27.632812 71.716797 C 28.75022 75.392109 30.151012 78.773109 31.798828 81.765625 C 33.092679 84.115327 34.560572 86.238127 36.167969 88.082031 C 27.701853 85.012686 20.565238 79.197761 15.808594 71.716797 z M 32.363281 71.716797 L 47.75 71.716797 L 47.75 90.435547 C 47.47293 90.420427 47.199375 90.391744 46.923828 90.371094 C 42.792421 89.021738 38.891781 85.313581 35.742188 79.59375 C 34.456573 77.259007 33.318425 74.609992 32.363281 71.716797 z M 52.25 71.716797 L 68.46875 71.716797 C 67.513607 74.609993 66.37546 77.259007 65.089844 79.59375 C 62.004979 85.196027 58.200983 88.87214 54.164062 90.289062 C 53.530417 90.353572 52.892018 90.400502 52.25 90.435547 L 52.25 71.716797 z M 73.197266 71.716797 L 84.191406 71.716797 C 79.672015 78.824626 73.002024 84.420394 65.085938 87.59375 C 66.52943 85.865666 67.852464 83.909906 69.033203 81.765625 C 70.680931 78.773263 72.081942 75.392941 73.197266 71.716797 z "
     style="color:#000000;overflow:visible;fill:#000080;stroke-width:8.653;stroke-linecap:round;stroke-linejoin:round;stroke-dashoffset:20"
     id="rect910" />
</svg>
