<?xml version="1.0" encoding="UTF-8" standalone="no"?>
<svg
   xmlns:dc="http://purl.org/dc/elements/1.1/"
   xmlns:cc="http://creativecommons.org/ns#"
   xmlns:rdf="http://www.w3.org/1999/02/22-rdf-syntax-ns#"
   xmlns:svg="http://www.w3.org/2000/svg"
   xmlns="http://www.w3.org/2000/svg"
   xmlns:sodipodi="http://sodipodi.sourceforge.net/DTD/sodipodi-0.dtd"
   xmlns:inkscape="http://www.inkscape.org/namespaces/inkscape"
   inkscape:version="1.0 (4035a4fb49, 2020-05-01)"
   sodipodi:docname="uEA9D-WFS-T.svg"
   id="svg4460"
   height="100"
   width="100"
   version="1.1">
  <sodipodi:namedview
     inkscape:document-rotation="0"
     inkscape:current-layer="svg4460"
     inkscape:window-maximized="1"
     inkscape:window-y="-8"
     inkscape:window-x="-8"
     inkscape:cy="11.274349"
     inkscape:cx="116.62196"
     inkscape:zoom="3.605"
     showgrid="false"
     id="namedview11"
     inkscape:window-height="1017"
     inkscape:window-width="1920"
     inkscape:pageshadow="2"
     inkscape:pageopacity="0"
     guidetolerance="10"
     gridtolerance="10"
     objecttolerance="10"
     borderopacity="1"
     bordercolor="#666666"
     pagecolor="#ffffff" />
  <defs
     id="defs4462" />
  <metadata
     id="metadata4465">
    <rdf:RDF>
      <cc:Work
         rdf:about="">
        <dc:format>image/svg+xml</dc:format>
        <dc:type
           rdf:resource="http://purl.org/dc/dcmitype/StillImage" />
        <dc:title />
      </cc:Work>
    </rdf:RDF>
  </metadata>
  <path
     d="M 49.953125 5 A 45 45 0 0 0 7.7578125 34.498047 L 2.5 34.498047 A 3.0020802 3.0020802 0 0 0 -0.50195312 37.5 L -0.50195312 62.5 A 3.0020802 3.0020802 0 0 0 2.5 65.501953 L 7.7558594 65.501953 A 45 45 0 0 0 50 95 A 45 45 0 0 0 92.242188 65.501953 L 97.5 65.501953 A 3.0020802 3.0020802 0 0 0 100.50195 62.5 L 100.50195 37.5 A 3.0020802 3.0020802 0 0 0 97.5 34.498047 L 92.244141 34.498047 A 45 45 0 0 0 50 5 A 45 45 0 0 0 49.953125 5 z M 52.25 10.113281 C 56.99082 10.919864 61.521215 14.825827 65.089844 21.306641 C 66.240162 23.395677 67.269298 25.740003 68.158203 28.28125 L 52.25 28.28125 L 52.25 10.113281 z M 47.75 10.291016 L 47.75 28.28125 L 32.675781 28.28125 C 33.564686 25.740003 34.591869 23.395677 35.742188 21.306641 C 39.101129 15.206628 43.31345 11.392162 47.75 10.291016 z M 37.382812 11.509766 C 35.291207 13.626435 33.411772 16.207528 31.798828 19.136719 C 30.287091 21.88211 28.986258 24.955506 27.917969 28.28125 L 15.808594 28.28125 C 20.790471 20.446054 28.387263 14.450248 37.382812 11.509766 z M 63.851562 11.925781 C 72.309241 14.996952 79.438377 20.805971 84.191406 28.28125 L 72.910156 28.28125 C 71.844072 24.955365 70.544603 21.881504 69.033203 19.136719 C 67.524224 16.396338 65.781937 13.962562 63.851562 11.925781 z M 13.330078 32.78125 L 26.658203 32.78125 C 26.522788 33.342396 26.411541 33.92411 26.291016 34.498047 L 12.580078 34.498047 C 12.818287 33.919155 13.065064 33.3456 13.330078 32.78125 z M 31.306641 32.78125 L 47.75 32.78125 L 47.75 34.498047 L 30.908203 34.498047 C 31.039484 33.924061 31.161231 33.34037 31.306641 32.78125 z M 52.25 32.78125 L 69.525391 32.78125 C 69.6708 33.34037 69.792548 33.924061 69.923828 34.498047 L 52.25 34.498047 L 52.25 32.78125 z M 74.169922 32.78125 L 86.669922 32.78125 C 86.934936 33.3456 87.181713 33.919155 87.419922 34.498047 L 74.535156 34.498047 C 74.415036 33.924081 74.304972 33.342498 74.169922 32.78125 z M 57.703125 42.5 C 59.989575 42.5 61.709818 42.897664 62.861328 43.695312 C 64.021128 44.49296 64.6295 45.559014 64.6875 46.890625 L 61.009766 47.017578 C 60.852366 46.272667 60.512134 45.740983 59.990234 45.417969 C 59.476604 45.088363 58.703499 44.921875 57.667969 44.921875 C 56.599289 44.921875 55.76101 45.09593 55.15625 45.445312 C 54.7669 45.669446 54.572266 45.969952 54.572266 46.345703 C 54.572266 46.688494 54.754631 46.982653 55.119141 47.226562 C 55.583061 47.536392 56.708637 47.859114 58.498047 48.195312 C 60.287427 48.531512 61.609601 48.879621 62.462891 49.242188 C 63.324441 49.598163 63.996082 50.090544 64.476562 50.716797 C 64.965322 51.336456 65.208984 52.105177 65.208984 53.021484 C 65.208984 53.852092 64.919734 54.630335 64.339844 55.355469 C 63.759944 56.080604 62.939296 56.620588 61.878906 56.976562 C 60.818516 57.325947 59.498306 57.5 57.916016 57.5 C 55.612996 57.5 53.843725 57.078167 52.609375 56.234375 C 51.375025 55.38399 50.636734 54.147056 50.396484 52.525391 L 53.974609 52.248047 C 54.189989 53.203906 54.62679 53.907204 55.28125 54.355469 C 55.94399 54.803734 56.832792 55.029297 57.951172 55.029297 C 59.135812 55.029297 60.02854 54.831075 60.625 54.435547 C 61.22975 54.033426 61.53125 53.565213 61.53125 53.03125 C 61.53125 52.688459 61.403304 52.397472 61.146484 52.160156 C 60.897964 51.916246 60.457715 51.705331 59.828125 51.527344 C 59.397335 51.408686 58.417346 51.197769 56.884766 50.894531 C 54.913116 50.505595 53.527722 50.027861 52.732422 49.460938 C 51.614052 48.66329 51.056641 47.690001 51.056641 46.542969 C 51.056641 45.804651 51.315981 45.117953 51.837891 44.478516 C 52.368081 43.832487 53.127461 43.340105 54.113281 43.003906 C 55.107401 42.667708 56.303085 42.5 57.703125 42.5 z M 10 42.746094 L 13.763672 42.746094 L 16.511719 52.705078 L 19.841797 42.746094 L 24.214844 42.746094 L 27.408203 52.873047 L 30.205078 42.746094 L 33.908203 42.746094 L 29.484375 57.244141 L 25.582031 57.244141 L 21.953125 46.40625 L 18.335938 57.244141 L 14.347656 57.244141 L 10 42.746094 z M 35.796875 42.746094 L 48.285156 42.746094 L 48.285156 45.199219 L 39.474609 45.199219 L 39.474609 48.630859 L 47.080078 48.630859 L 47.080078 51.082031 L 39.474609 51.082031 L 39.474609 57.244141 L 35.796875 57.244141 L 35.796875 42.746094 z M 75.523438 42.746094 L 90 42.746094 L 90 45.199219 L 84.607422 45.199219 L 84.607422 57.244141 L 80.929688 57.244141 L 80.929688 45.199219 L 75.523438 45.199219 L 75.523438 42.746094 z M 67.90625 50.599609 L 74.765625 50.599609 L 74.765625 53.376953 L 67.90625 53.376953 L 67.90625 50.599609 z M 12.580078 65.501953 L 26.103516 65.501953 C 26.215939 66.074902 26.318143 66.655834 26.445312 67.216797 L 13.330078 67.216797 C 13.06532 66.652992 12.818082 66.080047 12.580078 65.501953 z M 30.708984 65.501953 L 47.75 65.501953 L 47.75 67.216797 L 31.082031 67.216797 C 30.945425 66.657193 30.831709 66.075256 30.708984 65.501953 z M 52.25 65.501953 L 70.123047 65.501953 C 70.000115 66.075174 69.886591 66.657254 69.75 67.216797 L 52.25 67.216797 L 52.25 65.501953 z M 74.722656 65.501953 L 87.419922 65.501953 C 87.181918 66.080047 86.93468 66.652992 86.669922 67.216797 L 74.380859 67.216797 C 74.507739 66.655709 74.610579 66.074978 74.722656 65.501953 z M 15.808594 71.716797 L 27.632812 71.716797 C 28.75022 75.392109 30.151012 78.773109 31.798828 81.765625 C 33.092679 84.115327 34.560572 86.238127 36.167969 88.082031 C 27.701853 85.012686 20.565238 79.197761 15.808594 71.716797 z M 32.363281 71.716797 L 47.75 71.716797 L 47.75 90.435547 C 47.47293 90.420427 47.199375 90.391744 46.923828 90.371094 C 42.792421 89.021738 38.891781 85.313581 35.742188 79.59375 C 34.456573 77.259007 33.318425 74.609992 32.363281 71.716797 z M 52.25 71.716797 L 68.46875 71.716797 C 67.513607 74.609993 66.37546 77.259007 65.089844 79.59375 C 62.004979 85.196027 58.200983 88.87214 54.164062 90.289062 C 53.530417 90.353572 52.892018 90.400502 52.25 90.435547 L 52.25 71.716797 z M 73.197266 71.716797 L 84.191406 71.716797 C 79.672015 78.824626 73.002024 84.420394 65.085938 87.59375 C 66.52943 85.865666 67.852464 83.909906 69.033203 81.765625 C 70.680931 78.773263 72.081942 75.392941 73.197266 71.716797 z "
     style="color:#000000;overflow:visible;fill:#000080;stroke-width:8.653;stroke-linecap:round;stroke-linejoin:round;stroke-dashoffset:20"
     id="rect910" />
</svg>
