<?xml version="1.0" encoding="UTF-8" standalone="no"?>
<svg
   xmlns:dc="http://purl.org/dc/elements/1.1/"
   xmlns:cc="http://creativecommons.org/ns#"
   xmlns:rdf="http://www.w3.org/1999/02/22-rdf-syntax-ns#"
   xmlns:svg="http://www.w3.org/2000/svg"
   xmlns="http://www.w3.org/2000/svg"
   xmlns:sodipodi="http://sodipodi.sourceforge.net/DTD/sodipodi-0.dtd"
   xmlns:inkscape="http://www.inkscape.org/namespaces/inkscape"
   inkscape:version="1.0 (4035a4fb49, 2020-05-01)"
   sodipodi:docname="uEA9C-wms.svg"
   id="svg4460"
   height="100"
   width="100"
   version="1.1">
  <sodipodi:namedview
     inkscape:document-rotation="0"
     inkscape:current-layer="svg4460"
     inkscape:window-maximized="1"
     inkscape:window-y="-8"
     inkscape:window-x="-8"
     inkscape:cy="51.108093"
     inkscape:cx="118.39528"
     inkscape:zoom="5.6568542"
     showgrid="false"
     id="namedview11"
     inkscape:window-height="1017"
     inkscape:window-width="1920"
     inkscape:pageshadow="2"
     inkscape:pageopacity="0"
     guidetolerance="10"
     gridtolerance="10"
     objecttolerance="10"
     borderopacity="1"
     bordercolor="#666666"
     pagecolor="#ffffff" />
  <defs
     id="defs4462" />
  <metadata
     id="metadata4465">
    <rdf:RDF>
      <cc:Work
         rdf:about="">
        <dc:format>image/svg+xml</dc:format>
        <dc:type
           rdf:resource="http://purl.org/dc/dcmitype/StillImage" />
        <dc:title />
      </cc:Work>
    </rdf:RDF>
  </metadata>
  <path
     d="M 49.953125 5 A 45 45 0 0 0 7.7578125 34.498047 L 2.5 34.498047 A 3.0020802 3.0020802 0 0 0 -0.50195312 37.5 L -0.50195312 62.5 A 3.0020802 3.0020802 0 0 0 2.5 65.501953 L 7.7558594 65.501953 A 45 45 0 0 0 50 95 A 45 45 0 0 0 92.242188 65.501953 L 97.5 65.501953 A 3.0020802 3.0020802 0 0 0 100.50195 62.5 L 100.50195 37.5 A 3.0020802 3.0020802 0 0 0 97.5 34.498047 L 92.244141 34.498047 A 45 45 0 0 0 50 5 A 45 45 0 0 0 49.953125 5 z M 52.25 10.113281 C 56.99082 10.919864 61.521215 14.825827 65.089844 21.306641 C 66.240162 23.395677 67.269298 25.740003 68.158203 28.28125 L 52.25 28.28125 L 52.25 10.113281 z M 47.75 10.291016 L 47.75 28.28125 L 32.675781 28.28125 C 33.564686 25.740003 34.591869 23.395677 35.742188 21.306641 C 39.101129 15.206628 43.31345 11.392162 47.75 10.291016 z M 37.382812 11.509766 C 35.291207 13.626435 33.411772 16.207528 31.798828 19.136719 C 30.287091 21.88211 28.986258 24.955506 27.917969 28.28125 L 15.808594 28.28125 C 20.790471 20.446054 28.387263 14.450248 37.382812 11.509766 z M 63.851562 11.925781 C 72.309241 14.996952 79.438377 20.805971 84.191406 28.28125 L 72.910156 28.28125 C 71.844072 24.955365 70.544603 21.881504 69.033203 19.136719 C 67.524224 16.396338 65.781937 13.962562 63.851562 11.925781 z M 13.330078 32.78125 L 26.658203 32.78125 C 26.522788 33.342396 26.411541 33.92411 26.291016 34.498047 L 12.580078 34.498047 C 12.818287 33.919155 13.065064 33.3456 13.330078 32.78125 z M 31.306641 32.78125 L 47.75 32.78125 L 47.75 34.498047 L 30.908203 34.498047 C 31.039484 33.924061 31.161231 33.34037 31.306641 32.78125 z M 52.25 32.78125 L 69.525391 32.78125 C 69.6708 33.34037 69.792548 33.924061 69.923828 34.498047 L 52.25 34.498047 L 52.25 32.78125 z M 74.169922 32.78125 L 86.669922 32.78125 C 86.934936 33.3456 87.181713 33.919155 87.419922 34.498047 L 74.535156 34.498047 C 74.415036 33.924081 74.304972 33.342498 74.169922 32.78125 z M 80.136719 42.5 C 83.141413 42.5 85.400826 42.899633 86.914062 43.697266 C 88.438188 44.494898 89.238243 45.55904 89.314453 46.890625 L 84.480469 47.017578 C 84.273627 46.272681 83.826477 45.740977 83.140625 45.417969 C 82.465654 45.088368 81.448713 44.921875 80.087891 44.921875 C 78.683529 44.921875 77.583788 45.09789 76.789062 45.447266 C 76.277394 45.671394 76.021484 45.969959 76.021484 46.345703 C 76.021484 46.688487 76.261224 46.982659 76.740234 47.226562 C 77.349879 47.536386 78.830139 47.859122 81.181641 48.195312 C 83.533142 48.531506 85.269302 48.881581 86.390625 49.244141 C 87.522828 49.600109 88.405686 50.090557 89.037109 50.716797 C 89.679413 51.336446 90 52.105196 90 53.021484 C 90 53.852077 89.619481 54.630348 88.857422 55.355469 C 88.095364 56.080589 87.016529 56.620596 85.623047 56.976562 C 84.229566 57.325939 82.493406 57.5 80.414062 57.5 C 77.387599 57.5 75.063508 57.078151 73.441406 56.234375 C 71.819304 55.384007 70.850864 54.148978 70.535156 52.527344 L 75.238281 52.25 C 75.521339 53.20584 76.09309 53.907213 76.953125 54.355469 C 77.824058 54.803725 78.993211 55.027344 80.462891 55.027344 C 82.019675 55.027344 83.190773 54.829114 83.974609 54.433594 C 84.769327 54.031482 85.166016 53.565202 85.166016 53.03125 C 85.166016 52.688465 84.997642 52.397468 84.660156 52.160156 C 84.33356 51.916252 83.757064 51.705328 82.929688 51.527344 C 82.36358 51.408687 81.07261 51.197763 79.058594 50.894531 C 76.467592 50.505603 74.650585 50.027849 73.605469 49.460938 C 72.13578 48.663303 71.400391 47.689977 71.400391 46.542969 C 71.400391 45.804664 71.743836 45.11794 72.429688 44.478516 C 73.126428 43.832499 74.122463 43.340098 75.417969 43.003906 C 76.724363 42.667714 78.296895 42.5 80.136719 42.5 z M 10 42.746094 L 14.947266 42.746094 L 18.556641 52.705078 L 22.933594 42.746094 L 28.681641 42.746094 L 32.878906 52.873047 L 36.552734 42.746094 L 41.417969 42.746094 L 35.605469 57.242188 L 30.478516 57.242188 L 25.708984 46.40625 L 20.957031 57.242188 L 15.714844 57.242188 L 10 42.746094 z M 43.802734 42.746094 L 51.037109 42.746094 L 55.380859 52.634766 L 59.675781 42.746094 L 66.925781 42.746094 L 66.925781 57.242188 L 62.435547 57.242188 L 62.435547 45.832031 L 57.683594 57.242188 L 53.029297 57.242188 L 48.292969 45.832031 L 48.292969 57.242188 L 43.802734 57.242188 L 43.802734 42.746094 z M 12.580078 65.501953 L 26.103516 65.501953 C 26.215939 66.074902 26.318143 66.655834 26.445312 67.216797 L 13.330078 67.216797 C 13.06532 66.652992 12.818082 66.080047 12.580078 65.501953 z M 30.708984 65.501953 L 47.75 65.501953 L 47.75 67.216797 L 31.082031 67.216797 C 30.945425 66.657193 30.831709 66.075256 30.708984 65.501953 z M 52.25 65.501953 L 70.123047 65.501953 C 70.000115 66.075174 69.886591 66.657254 69.75 67.216797 L 52.25 67.216797 L 52.25 65.501953 z M 74.722656 65.501953 L 87.419922 65.501953 C 87.181918 66.080047 86.93468 66.652992 86.669922 67.216797 L 74.380859 67.216797 C 74.507739 66.655709 74.610579 66.074978 74.722656 65.501953 z M 15.808594 71.716797 L 27.632812 71.716797 C 28.75022 75.392109 30.151012 78.773109 31.798828 81.765625 C 33.092679 84.115327 34.560572 86.238127 36.167969 88.082031 C 27.701853 85.012686 20.565238 79.197761 15.808594 71.716797 z M 32.363281 71.716797 L 47.75 71.716797 L 47.75 90.435547 C 47.47293 90.420427 47.199375 90.391744 46.923828 90.371094 C 42.792421 89.021738 38.891781 85.313581 35.742188 79.59375 C 34.456573 77.259007 33.318425 74.609992 32.363281 71.716797 z M 52.25 71.716797 L 68.46875 71.716797 C 67.513607 74.609993 66.37546 77.259007 65.089844 79.59375 C 62.004979 85.196027 58.200983 88.87214 54.164062 90.289062 C 53.530417 90.353572 52.892018 90.400502 52.25 90.435547 L 52.25 71.716797 z M 73.197266 71.716797 L 84.191406 71.716797 C 79.672015 78.824626 73.002024 84.420394 65.085938 87.59375 C 66.52943 85.865666 67.852464 83.909906 69.033203 81.765625 C 70.680931 78.773263 72.081942 75.392941 73.197266 71.716797 z "
     style="color:#000000;overflow:visible;fill:#000080;stroke-width:8.653;stroke-linecap:round;stroke-linejoin:round;stroke-dashoffset:20"
     id="rect910" />
</svg>
