<?xml version="1.0" encoding="UTF-8" standalone="no"?>
<svg
   xmlns:dc="http://purl.org/dc/elements/1.1/"
   xmlns:cc="http://creativecommons.org/ns#"
   xmlns:rdf="http://www.w3.org/1999/02/22-rdf-syntax-ns#"
   xmlns:svg="http://www.w3.org/2000/svg"
   xmlns="http://www.w3.org/2000/svg"
   xmlns:sodipodi="http://sodipodi.sourceforge.net/DTD/sodipodi-0.dtd"
   xmlns:inkscape="http://www.inkscape.org/namespaces/inkscape"
   inkscape:version="1.0 (4035a4fb49, 2020-05-01)"
   sodipodi:docname="topojson-file.svg"
   id="svg4460"
   height="100"
   width="100"
   version="1.1">
  <sodipodi:namedview
     inkscape:document-rotation="0"
     inkscape:current-layer="svg4460"
     inkscape:window-maximized="1"
     inkscape:window-y="-8"
     inkscape:window-x="-8"
     inkscape:cy="26.39424"
     inkscape:cx="63.654303"
     inkscape:zoom="4"
     showgrid="false"
     id="namedview11"
     inkscape:window-height="1017"
     inkscape:window-width="1920"
     inkscape:pageshadow="2"
     inkscape:pageopacity="0"
     guidetolerance="10"
     gridtolerance="10"
     objecttolerance="10"
     borderopacity="1"
     bordercolor="#666666"
     pagecolor="#ffffff" />
  <defs
     id="defs4462" />
  <metadata
     id="metadata4465">
    <rdf:RDF>
      <cc:Work
         rdf:about="">
        <dc:format>image/svg+xml</dc:format>
        <dc:type
           rdf:resource="http://purl.org/dc/dcmitype/StillImage" />
        <dc:title />
      </cc:Work>
    </rdf:RDF>
  </metadata>
  <path
     d="M 13.996094 0 C 12.615439 0.00013804476 11.496232 1.1193453 11.496094 2.5 L 11.496094 70 L 0 70 L 0 92 L 11.496094 92 L 11.496094 97.5 C 11.496232 98.880655 12.615439 99.999862 13.996094 100 L 85.996094 100 C 87.376749 99.999862 88.495956 98.880655 88.496094 97.5 L 88.496094 21.625 C 88.522594 20.512022 88.500094 19.848304 87.763672 19.035156 L 69.460938 0.73242188 C 68.984527 0.25584936 68.335919 -0.00824228 67.662109 0 L 13.996094 0 z M 16.496094 5 L 65.398438 5 L 66.650391 19.568359 C 66.754393 20.780413 67.71568 21.741701 68.927734 21.845703 L 83.496094 23.097656 L 83.496094 95 L 16.496094 95 L 16.496094 92 L 80 92 L 80 70 L 16.496094 70 L 16.496094 5 z M 70.771484 9.1152344 L 79.380859 17.724609 L 71.453125 17.042969 L 70.771484 9.1152344 z M 50.271484 73 C 51.530894 73 52.477064 73.382227 53.111328 74.148438 C 53.750156 74.914648 54.085248 75.937667 54.117188 77.216797 L 52.091797 77.341797 C 52.005094 76.626245 51.816768 76.113017 51.529297 75.802734 C 51.246386 75.486118 50.820387 75.326172 50.25 75.326172 C 49.661367 75.326172 49.200294 75.496417 48.867188 75.832031 C 48.652722 76.047329 48.544922 76.334371 48.544922 76.695312 C 48.544922 77.024594 48.644924 77.306719 48.845703 77.541016 C 49.101235 77.838635 49.723363 78.147756 50.708984 78.470703 C 51.694605 78.793652 52.420627 79.130239 52.890625 79.478516 C 53.365182 79.820461 53.735342 80.29296 54 80.894531 C 54.269221 81.489769 54.404297 82.225277 54.404297 83.105469 C 54.404297 83.903342 54.245195 84.651102 53.925781 85.347656 C 53.606366 86.044212 53.154381 86.564304 52.570312 86.90625 C 51.986238 87.241862 51.258264 87.410156 50.386719 87.410156 C 49.118186 87.410156 48.144743 87.005849 47.464844 86.195312 C 46.784949 85.378444 46.376474 84.190564 46.244141 82.632812 L 48.216797 82.367188 C 48.335438 83.285372 48.575067 83.958075 48.935547 84.388672 C 49.300597 84.819271 49.792191 85.035156 50.408203 85.035156 C 51.060723 85.035156 51.550364 84.844783 51.878906 84.464844 C 52.212007 84.078573 52.376953 83.630105 52.376953 83.117188 C 52.376953 82.787907 52.307472 82.509214 52.166016 82.28125 C 52.029125 82.046954 51.786246 81.844801 51.439453 81.673828 C 51.202172 81.559846 50.662529 81.35574 49.818359 81.064453 C 48.732354 80.690846 47.969305 80.23208 47.53125 79.6875 C 46.915232 78.92129 46.609375 77.986591 46.609375 76.884766 C 46.609375 76.175547 46.75354 75.514626 47.041016 74.900391 C 47.333056 74.279823 47.748013 73.807324 48.291016 73.484375 C 48.838582 73.161428 49.500329 73 50.271484 73 z M 60.564453 73 C 62.042887 73 63.224143 73.637361 64.109375 74.910156 C 64.999176 76.182953 65.445312 77.951779 65.445312 80.21875 C 65.445312 82.466723 65.00372 84.227205 64.123047 85.5 C 63.242374 86.766465 62.065667 87.400391 60.591797 87.400391 C 59.099676 87.400391 57.913875 86.769898 57.033203 85.509766 C 56.152532 84.243301 55.710938 82.501468 55.710938 80.285156 C 55.710938 78.866718 55.864196 77.677356 56.169922 76.714844 C 56.398075 76.005624 56.709139 75.368264 57.101562 74.804688 C 57.498549 74.241109 57.930396 73.823072 58.400391 73.550781 C 59.025532 73.183507 59.747661 73 60.564453 73 z M 5 73.236328 L 12.974609 73.236328 L 12.974609 75.59375 L 10.003906 75.59375 L 10.003906 87.162109 L 7.9785156 87.162109 L 7.9785156 75.59375 L 5 75.59375 L 5 73.236328 z M 42.576172 73.236328 L 44.595703 73.236328 L 44.595703 82.050781 C 44.595703 83.203263 44.522973 84.092323 44.376953 84.712891 C 44.180744 85.523429 43.824217 86.174049 43.308594 86.667969 C 42.792965 87.155557 42.113696 87.400391 41.269531 87.400391 C 40.27934 87.400391 39.516302 87.016211 38.982422 86.25 C 38.448548 85.477457 38.180281 84.347471 38.175781 82.859375 L 40.083984 82.556641 C 40.106782 83.354514 40.193813 83.916813 40.339844 84.246094 C 40.558874 84.746348 40.890714 84.996094 41.337891 84.996094 C 41.789638 84.996094 42.109788 84.819455 42.296875 84.464844 C 42.483959 84.103902 42.576172 83.359575 42.576172 82.232422 L 42.576172 73.236328 z M 67.039062 73.236328 L 69.009766 73.236328 L 73.117188 82.537109 L 73.117188 73.236328 L 75 73.236328 L 75 87.162109 L 72.966797 87.162109 L 68.921875 78.082031 L 68.921875 87.162109 L 67.039062 87.162109 L 67.039062 73.236328 z M 60.583984 75.402344 C 59.748947 75.402344 59.07747 75.801737 58.566406 76.599609 C 58.055345 77.391149 57.798828 78.587375 57.798828 80.189453 C 57.798828 81.766201 58.061186 82.96438 58.585938 83.78125 C 59.110688 84.591787 59.776321 84.996094 60.583984 84.996094 C 61.391647 84.996094 62.054684 84.59522 62.570312 83.791016 C 63.090499 82.980479 63.349609 81.769039 63.349609 80.154297 C 63.349609 78.558553 63.096344 77.365285 62.589844 76.580078 C 62.087903 75.79487 61.419026 75.402344 60.583984 75.402344 z M 16.533203 76.845703 C 17.6329 76.845701 18.533613 77.34567 19.236328 78.339844 C 19.939037 79.327686 20.291016 80.576419 20.291016 82.089844 C 20.291016 83.615933 19.934494 84.883786 19.222656 85.890625 C 18.515377 86.891132 17.623757 87.390625 16.546875 87.390625 C 15.880668 87.390625 15.243609 87.181605 14.636719 86.763672 C 14.034393 86.345739 13.576568 85.733892 13.261719 84.929688 C 12.946864 84.11915 12.789062 83.135377 12.789062 81.976562 C 12.789062 81.090038 12.946864 80.231879 13.261719 79.402344 C 13.576568 78.57281 14.022704 77.940836 14.597656 77.503906 C 15.177161 77.066975 15.821365 76.845703 16.533203 76.845703 z M 25.806641 76.845703 C 26.650806 76.845702 27.368398 77.306422 27.957031 78.224609 C 28.545664 79.142796 28.839844 80.422429 28.839844 82.0625 C 28.839844 83.746898 28.542416 85.056958 27.949219 85.994141 C 27.356016 86.924993 26.637135 87.390625 25.792969 87.390625 C 25.391417 87.390625 25.027761 87.280226 24.699219 87.058594 C 24.375241 86.836964 24.032361 86.456217 23.671875 85.917969 L 23.671875 91 L 21.748047 91 L 21.748047 77.076172 L 23.541016 77.076172 L 23.541016 78.558594 C 23.773733 78.052007 24.08934 77.638881 24.486328 77.322266 C 24.883311 77.00565 25.32295 76.845703 25.806641 76.845703 z M 33.671875 76.845703 C 34.771573 76.845701 35.67229 77.34567 36.375 78.339844 C 37.077715 79.327686 37.429688 80.576419 37.429688 82.089844 C 37.429687 83.615933 37.075124 84.883786 36.363281 85.890625 C 35.656007 86.891132 34.762429 87.390625 33.685547 87.390625 C 33.019334 87.390625 32.382275 87.181605 31.775391 86.763672 C 31.173066 86.345739 30.715246 85.733892 30.400391 84.929688 C 30.085541 84.11915 29.927734 83.135377 29.927734 81.976562 C 29.927734 81.090038 30.085541 80.231879 30.400391 79.402344 C 30.715246 78.57281 31.161382 77.940836 31.736328 77.503906 C 32.315838 77.066975 32.960032 76.845703 33.671875 76.845703 z M 25.287109 78.955078 C 24.817117 78.955078 24.427478 79.208258 24.117188 79.714844 C 23.806896 80.215097 23.650391 80.961378 23.650391 81.949219 C 23.650391 83.082705 23.812741 83.920265 24.136719 84.464844 C 24.460697 85.003092 24.856832 85.271484 25.322266 85.271484 C 25.769449 85.271484 26.140907 85.025171 26.4375 84.53125 C 26.734104 84.030996 26.882812 83.213563 26.882812 82.080078 C 26.882812 81.02258 26.729549 80.237527 26.423828 79.724609 C 26.118101 79.21169 25.738856 78.955078 25.287109 78.955078 z M 16.541016 79.023438 C 16.039079 79.023437 15.615661 79.288399 15.273438 79.820312 C 14.931204 80.352228 14.761719 81.118634 14.761719 82.119141 C 14.761719 83.119647 14.931204 83.886053 15.273438 84.417969 C 15.615662 84.949883 16.039079 85.214844 16.541016 85.214844 C 17.042952 85.214844 17.463111 84.949883 17.800781 84.417969 C 18.143011 83.886053 18.3125 83.11278 18.3125 82.099609 C 18.3125 81.111767 18.143011 80.352227 17.800781 79.820312 C 17.463111 79.288399 17.042952 79.023438 16.541016 79.023438 z M 33.677734 79.023438 C 33.175798 79.023437 32.754344 79.288399 32.412109 79.820312 C 32.06988 80.352228 31.898438 81.118634 31.898438 82.119141 C 31.898437 83.119647 32.06988 83.886053 32.412109 84.417969 C 32.754344 84.949883 33.175798 85.214844 33.677734 85.214844 C 34.17967 85.214844 34.601788 84.949883 34.939453 84.417969 C 35.281683 83.886053 35.451177 83.11278 35.451172 82.099609 C 35.451172 81.111767 35.281683 80.352227 34.939453 79.820312 C 34.601788 79.288399 34.17967 79.023438 33.677734 79.023438 z "
     style="color:#000000;font-style:normal;font-variant:normal;font-weight:normal;font-stretch:normal;font-size:medium;line-height:normal;font-family:sans-serif;font-variant-ligatures:normal;font-variant-position:normal;font-variant-caps:normal;font-variant-numeric:normal;font-variant-alternates:normal;font-variant-east-asian:normal;font-feature-settings:normal;font-variation-settings:normal;text-indent:0;text-align:start;text-decoration:none;text-decoration-line:none;text-decoration-style:solid;text-decoration-color:#000000;letter-spacing:normal;word-spacing:normal;text-transform:none;writing-mode:lr-tb;direction:ltr;text-orientation:mixed;dominant-baseline:auto;baseline-shift:baseline;text-anchor:start;white-space:normal;shape-padding:0;shape-margin:0;inline-size:0;clip-rule:nonzero;display:inline;overflow:visible;visibility:visible;opacity:1;isolation:auto;mix-blend-mode:normal;color-interpolation:sRGB;color-interpolation-filters:linearRGB;solid-color:#000000;solid-opacity:1;vector-effect:none;fill:#000080;fill-opacity:1;fill-rule:nonzero;stroke:none;stroke-width:5;stroke-linecap:round;stroke-linejoin:round;stroke-miterlimit:4;stroke-dasharray:none;stroke-dashoffset:20;stroke-opacity:1;color-rendering:auto;image-rendering:auto;shape-rendering:auto;text-rendering:auto;enable-background:accumulate;stop-color:#000000;stop-opacity:1"
     id="path841" />
  <path
     id="path862"
     style="color:#000000;font-style:normal;font-variant:normal;font-weight:normal;font-stretch:normal;font-size:medium;line-height:normal;font-family:sans-serif;font-variant-ligatures:normal;font-variant-position:normal;font-variant-caps:normal;font-variant-numeric:normal;font-variant-alternates:normal;font-variant-east-asian:normal;font-feature-settings:normal;font-variation-settings:normal;text-indent:0;text-align:start;text-decoration:none;text-decoration-line:none;text-decoration-style:solid;text-decoration-color:#000000;letter-spacing:normal;word-spacing:normal;text-transform:none;writing-mode:lr-tb;direction:ltr;text-orientation:mixed;dominant-baseline:auto;baseline-shift:baseline;text-anchor:start;white-space:normal;shape-padding:0;shape-margin:0;inline-size:0;clip-rule:nonzero;display:inline;overflow:visible;visibility:visible;opacity:1;isolation:auto;mix-blend-mode:normal;color-interpolation:sRGB;color-interpolation-filters:linearRGB;solid-color:#000000;solid-opacity:1;vector-effect:none;fill:#000080;fill-opacity:1;fill-rule:nonzero;stroke:none;stroke-width:2.50402;stroke-linecap:round;stroke-linejoin:round;stroke-miterlimit:4;stroke-dasharray:none;stroke-dashoffset:188.976;stroke-opacity:1;color-rendering:auto;image-rendering:auto;shape-rendering:auto;text-rendering:auto;enable-background:accumulate;stop-color:#000000;stop-opacity:1"
     d="m 51.25201,18 v 10.11 h 8.852106 C 59.609486,26.696 59.037367,25.391 58.397274,24.229 56.411513,20.623 53.890036,18.449 51.25201,18 Z m -2.504022,0.1 c -2.468714,0.613 -4.812548,2.735 -6.681628,6.13 -0.640094,1.162 -1.212212,2.467 -1.706843,3.881 h 8.388471 z m -5.76903,0.678 c -5.005568,1.636 -9.23247,4.973 -12.004628,9.333 h 6.73836 c 0.59445,-1.851 1.318515,-3.562 2.159716,-5.089 0.897522,-1.63 1.94268,-3.067 3.106552,-4.244 z m 14.728732,0.231 c 1.074155,1.134 2.043867,2.488 2.883537,4.013 0.841018,1.527 1.563562,3.238 2.156784,5.089 h 6.27766 C 66.380851,23.951 62.413957,20.718 57.70769,19.009 Z M 29.595162,30.615 c -1.197757,2.551 -1.9332,5.362 -2.095162,8.329 h 8.408032 c 0.09731,-2.941 0.479491,-5.744 1.103333,-8.329 z m 10.003367,0 c -0.661224,2.542 -1.077406,5.357 -1.183539,8.329 h 10.332998 v -8.329 z m 11.653481,0 v 8.329 h 10.796636 c -0.106132,-2.972 -0.522321,-5.787 -1.183542,-8.329 z m 12.197322,0 c 0.62215,2.586 1.003374,5.388 1.1004,8.329 H 72.5 C 72.338038,35.977 71.602594,33.166 70.404839,30.615 Z M 27.5,41.447 c 0.161962,2.967 0.897405,5.778 2.095162,8.329 h 7.297853 C 36.305217,47.183 35.958837,44.38 35.894338,41.447 Z m 10.898363,0 c 0.07035,2.962 0.451395,5.774 1.074965,8.329 h 9.27466 v -8.329 z m 12.853647,0 v 8.329 h 9.738295 c 0.623567,-2.555 1.004638,-5.367 1.074969,-8.329 z m 13.30946,0 c -0.06448,2.932 -0.408374,5.736 -0.994761,8.329 h 6.83813 C 71.602594,47.225 72.338038,44.414 72.5,41.447 Z M 30.97433,52.28 c 2.646833,4.162 6.617775,7.397 11.328737,9.105 -0.894434,-1.026 -1.710698,-2.207 -2.430661,-3.514 -0.916929,-1.666 -1.697371,-3.546 -2.319151,-5.591 z m 9.212057,0 c 0.531489,1.61 1.164592,3.084 1.879973,4.383 1.752589,3.182 3.922987,5.246 6.221905,5.997 0.153328,0.01 0.305548,0.03 0.459723,0.03 V 52.275 Z m 11.065623,0 v 10.415 c 0.35725,-0.02 0.712595,-0.04 1.065187,-0.08 2.246341,-0.789 4.363506,-2.834 6.080077,-5.951 0.71538,-1.299 1.348482,-2.773 1.879972,-4.383 z m 11.656415,0 c -0.620622,2.045 -1.400321,3.926 -2.317198,5.591 -0.657021,1.193 -1.393657,2.282 -2.196887,3.243 4.4049,-1.766 8.116518,-4.879 10.631331,-8.834 z" />
</svg>
