<?xml version="1.0" encoding="UTF-8" standalone="no"?>
<svg
   xmlns:dc="http://purl.org/dc/elements/1.1/"
   xmlns:cc="http://creativecommons.org/ns#"
   xmlns:rdf="http://www.w3.org/1999/02/22-rdf-syntax-ns#"
   xmlns:svg="http://www.w3.org/2000/svg"
   xmlns="http://www.w3.org/2000/svg"
   xmlns:sodipodi="http://sodipodi.sourceforge.net/DTD/sodipodi-0.dtd"
   xmlns:inkscape="http://www.inkscape.org/namespaces/inkscape"
   version="1.1"
   width="100"
   height="100"
   id="svg4460"
   sodipodi:docname="uEAA2-shape.svg"
   inkscape:version="1.0 (4035a4fb49, 2020-05-01)">
  <sodipodi:namedview
     pagecolor="#ffffff"
     bordercolor="#666666"
     borderopacity="1"
     objecttolerance="10"
     gridtolerance="10"
     guidetolerance="10"
     inkscape:pageopacity="0"
     inkscape:pageshadow="2"
     inkscape:window-width="1920"
     inkscape:window-height="1017"
     id="namedview11"
     showgrid="false"
     inkscape:zoom="5.0982399"
     inkscape:cx="109.01045"
     inkscape:cy="39.389705"
     inkscape:window-x="-8"
     inkscape:window-y="-8"
     inkscape:window-maximized="1"
     inkscape:current-layer="svg4460"
     inkscape:document-rotation="0"
     showguides="false" />
  <defs
     id="defs4462" />
  <metadata
     id="metadata4465">
    <rdf:RDF>
      <cc:Work
         rdf:about="">
        <dc:format>image/svg+xml</dc:format>
        <dc:type
           rdf:resource="http://purl.org/dc/dcmitype/StillImage" />
        <dc:title />
      </cc:Work>
    </rdf:RDF>
  </metadata>
  <path
     id="path841-8"
     style="color:#000000;font-style:normal;font-variant:normal;font-weight:normal;font-stretch:normal;font-size:medium;line-height:normal;font-family:sans-serif;font-variant-ligatures:normal;font-variant-position:normal;font-variant-caps:normal;font-variant-numeric:normal;font-variant-alternates:normal;font-variant-east-asian:normal;font-feature-settings:normal;font-variation-settings:normal;text-indent:0;text-align:start;text-decoration:none;text-decoration-line:none;text-decoration-style:solid;text-decoration-color:#000000;letter-spacing:normal;word-spacing:normal;text-transform:none;writing-mode:lr-tb;direction:ltr;text-orientation:mixed;dominant-baseline:auto;baseline-shift:baseline;text-anchor:start;white-space:normal;shape-padding:0;shape-margin:0;inline-size:0;clip-rule:nonzero;display:inline;overflow:visible;visibility:visible;opacity:1;isolation:auto;mix-blend-mode:normal;color-interpolation:sRGB;color-interpolation-filters:linearRGB;solid-color:#000000;solid-opacity:1;vector-effect:none;fill:#000080;fill-opacity:1;fill-rule:nonzero;stroke:none;stroke-width:5;stroke-linecap:round;stroke-linejoin:round;stroke-miterlimit:4;stroke-dasharray:none;stroke-dashoffset:20;stroke-opacity:1;color-rendering:auto;image-rendering:auto;shape-rendering:auto;text-rendering:auto;enable-background:accumulate;stop-color:#000000;stop-opacity:1"
     d="M 13.996094 0 C 12.615444 0.00014 11.496234 1.11935 11.496094 2.5 L 11.496094 70 L 0 70 L 0 92 L 11.496094 92 L 11.496094 97.5 C 11.496234 98.8806 12.615444 99.999799 13.996094 100 L 85.996094 100 C 87.376754 99.999799 88.495964 98.8806 88.496094 97.5 L 88.496094 21.625 C 88.522594 20.51202 88.500092 19.848306 87.763672 19.035156 L 69.460938 0.73242188 C 68.984527 0.25585188 68.335919 -0.0082399993 67.662109 0 L 13.996094 0 z M 16.496094 5 L 65.398438 5 L 66.650391 19.568359 C 66.754391 20.780419 67.715684 21.741693 68.927734 21.845703 L 83.496094 23.097656 L 83.496094 95 L 16.496094 95 L 16.496094 92 L 80 92 L 80 70 L 16.496094 70 L 16.496094 5 z M 70.771484 9.1152344 L 79.380859 17.724609 L 71.453125 17.042969 L 70.771484 9.1152344 z M 15.884766 74 C 17.726211 74 19.111668 74.318522 20.039062 74.957031 C 20.973128 75.595539 21.463066 76.447731 21.509766 77.513672 L 18.546875 77.617188 C 18.420109 77.020894 18.146892 76.594509 17.726562 76.335938 C 17.312905 76.072091 16.689457 75.939453 15.855469 75.939453 C 14.994793 75.939453 14.321034 76.077744 13.833984 76.357422 C 13.520406 76.536837 13.36328 76.77734 13.363281 77.078125 C 13.363281 77.352526 13.50917 77.587956 13.802734 77.783203 C 14.17636 78.031219 15.08426 78.28947 16.525391 78.558594 C 17.966522 78.827716 19.031545 79.108205 19.71875 79.398438 C 20.412628 79.683392 20.952874 80.076816 21.339844 80.578125 C 21.733486 81.074157 21.929688 81.688381 21.929688 82.421875 C 21.929688 83.086769 21.697503 83.7086 21.230469 84.289062 C 20.763436 84.869525 20.102051 85.302938 19.248047 85.587891 C 18.394044 85.867569 17.330974 86.007812 16.056641 86.007812 C 14.201852 86.007812 12.775363 85.669589 11.78125 84.994141 C 10.787136 84.313417 10.193486 83.323517 10 82.025391 L 12.882812 81.804688 C 13.056283 82.569844 13.406513 83.131402 13.933594 83.490234 C 14.467346 83.849065 15.183277 84.029297 16.083984 84.029297 C 17.038066 84.029297 17.755952 83.871302 18.236328 83.554688 C 18.723376 83.232795 18.966797 82.857118 18.966797 82.429688 C 18.966797 82.155286 18.865032 81.922391 18.658203 81.732422 C 18.458046 81.537175 18.102769 81.369039 17.595703 81.226562 C 17.248765 81.131578 16.458911 80.963442 15.224609 80.720703 C 13.636697 80.409364 12.521362 80.026082 11.880859 79.572266 C 10.980153 78.933756 10.53125 78.154514 10.53125 77.236328 C 10.53125 76.645312 10.739826 76.095847 11.160156 75.583984 C 11.587158 75.066844 12.19823 74.673421 12.992188 74.404297 C 13.792815 74.135174 14.757215 74 15.884766 74 z M 24.412109 74.197266 L 27.224609 74.197266 L 27.224609 78.464844 C 28.131989 77.625811 29.215581 77.205078 30.476562 77.205078 C 31.123738 77.205078 31.708114 77.300265 32.228516 77.490234 C 32.748919 77.680204 33.138225 77.923242 33.398438 78.21875 C 33.665311 78.514259 33.846043 78.840388 33.939453 79.199219 C 34.039508 79.558051 34.089844 80.116492 34.089844 80.871094 L 34.089844 85.802734 L 31.277344 85.802734 L 31.277344 81.361328 C 31.277344 80.48008 31.223942 79.921056 31.117188 79.683594 C 31.01044 79.446132 30.820415 79.258294 30.546875 79.121094 C 30.280003 78.978621 29.942143 78.908203 29.535156 78.908203 C 29.068123 78.908203 28.652108 78.996365 28.285156 79.175781 C 27.918203 79.355196 27.648069 79.628079 27.474609 79.992188 C 27.307807 80.35102 27.224609 80.884687 27.224609 81.591797 L 27.224609 85.802734 L 24.412109 85.802734 L 24.412109 74.197266 z M 41.103516 77.205078 C 42.357831 77.205078 43.292428 77.323085 43.90625 77.560547 C 44.520065 77.792732 44.952356 78.092922 45.199219 78.457031 C 45.452741 78.815863 45.578125 79.47768 45.578125 80.443359 L 45.548828 83.039062 C 45.548828 83.777833 45.592948 84.324179 45.679688 84.677734 C 45.773092 85.026012 45.940638 85.401686 46.1875 85.802734 L 43.40625 85.802734 C 43.332855 85.65498 43.243474 85.434762 43.136719 85.144531 C 43.090019 85.012607 43.057139 84.926986 43.037109 84.884766 C 42.556734 85.254151 42.041229 85.53015 41.494141 85.714844 C 40.947046 85.899539 40.364631 85.992188 39.744141 85.992188 C 38.649944 85.992188 37.786177 85.756756 37.152344 85.287109 C 36.525179 84.817462 36.210938 84.223522 36.210938 83.505859 C 36.210938 83.030935 36.35568 82.60962 36.642578 82.240234 C 36.929468 81.865572 37.32807 81.580012 37.841797 81.384766 C 38.362215 81.184242 39.109884 81.011035 40.083984 80.863281 C 41.398352 80.668034 42.309346 80.485268 42.816406 80.316406 L 42.816406 80.09375 C 42.816406 79.666318 42.682896 79.364963 42.416016 79.185547 C 42.149144 79.000851 41.644877 78.908203 40.904297 78.908203 C 40.403897 78.908203 40.014597 78.986224 39.734375 79.144531 C 39.454152 79.297563 39.226194 79.570444 39.052734 79.960938 L 36.5 79.595703 C 36.786898 78.783055 37.281869 78.181509 37.982422 77.791016 C 38.682974 77.400523 39.722436 77.205078 41.103516 77.205078 z M 54.214844 77.205078 C 55.449149 77.205078 56.496745 77.58836 57.357422 78.353516 C 58.218092 79.118671 58.648438 80.184056 58.648438 81.550781 C 58.648438 82.954446 58.215001 84.047138 57.347656 84.828125 C 56.480311 85.603833 55.429617 85.992188 54.195312 85.992188 C 53.60819 85.992188 53.074125 85.899537 52.59375 85.714844 C 52.120042 85.53015 51.620827 85.214165 51.09375 84.765625 L 51.09375 89 L 48.28125 89 L 48.28125 77.394531 L 50.902344 77.394531 L 50.902344 78.630859 C 51.242604 78.208704 51.704693 77.86541 52.285156 77.601562 C 52.865603 77.337716 53.507624 77.205078 54.214844 77.205078 z M 64.943359 77.205078 C 66.524606 77.205078 67.771492 77.618787 68.685547 78.447266 C 69.599587 79.270467 70.038097 80.535784 69.998047 82.240234 L 62.951172 82.240234 C 62.971174 82.899851 63.199132 83.413818 63.632812 83.783203 C 64.066493 84.147312 64.606731 84.330078 65.253906 84.330078 C 65.694253 84.330078 66.063034 84.234892 66.363281 84.044922 C 66.663506 83.854953 66.891457 83.549108 67.044922 83.126953 L 69.847656 83.498047 C 69.487378 84.310695 68.917342 84.931943 68.136719 85.359375 C 67.362787 85.781529 66.392194 85.992188 65.224609 85.992188 C 63.376497 85.992188 62.006504 85.513719 61.119141 84.558594 C 60.418589 83.793438 60.070312 82.828312 60.070312 81.662109 C 60.070313 80.268999 60.530442 79.178842 61.451172 78.392578 C 62.371887 77.601038 63.535594 77.205078 64.943359 77.205078 z M 65.113281 78.908203 C 64.499466 78.908203 63.992117 79.083945 63.591797 79.4375 C 63.191484 79.791054 62.995153 80.272059 63.001953 80.878906 L 67.205078 80.878906 C 67.185075 80.23512 66.976499 79.746509 66.576172 79.414062 C 66.175852 79.076339 65.687069 78.908203 65.113281 78.908203 z M 53.455078 78.962891 C 52.767868 78.962891 52.19587 79.173548 51.742188 79.595703 C 51.28849 80.01258 51.0625 80.631876 51.0625 81.455078 C 51.0625 82.39965 51.299731 83.100871 51.773438 83.554688 C 52.247146 84.003227 52.823371 84.226562 53.503906 84.226562 C 54.157748 84.226563 54.703047 84.020975 55.136719 83.609375 C 55.570399 83.192497 55.787109 82.510977 55.787109 81.566406 C 55.787109 80.685158 55.562257 80.030947 55.115234 79.603516 C 54.668219 79.176084 54.115596 78.962891 53.455078 78.962891 z M 42.816406 81.765625 C 42.456128 81.86061 41.884124 81.973546 41.103516 82.105469 C 40.322901 82.237393 39.814406 82.365542 39.574219 82.492188 C 39.207266 82.697989 39.023438 82.960729 39.023438 83.277344 C 39.023438 83.588684 39.169319 83.857076 39.462891 84.083984 C 39.756456 84.310892 40.130294 84.423828 40.583984 84.423828 C 41.091044 84.423828 41.576737 84.293143 42.037109 84.029297 C 42.377369 83.828773 42.59833 83.5832 42.705078 83.292969 C 42.778438 83.102999 42.816406 82.740001 42.816406 82.207031 L 42.816406 81.765625 z " />
  <path
     id="path911"
     style="color:#000000;font-style:normal;font-variant:normal;font-weight:normal;font-stretch:normal;font-size:medium;line-height:normal;font-family:sans-serif;font-variant-ligatures:normal;font-variant-position:normal;font-variant-caps:normal;font-variant-numeric:normal;font-variant-alternates:normal;font-variant-east-asian:normal;font-feature-settings:normal;font-variation-settings:normal;text-indent:0;text-align:start;text-decoration:none;text-decoration-line:none;text-decoration-style:solid;text-decoration-color:#000000;letter-spacing:normal;word-spacing:normal;text-transform:none;writing-mode:lr-tb;direction:ltr;text-orientation:mixed;dominant-baseline:auto;baseline-shift:baseline;text-anchor:start;white-space:normal;shape-padding:0;shape-margin:0;inline-size:0;clip-rule:nonzero;display:inline;overflow:visible;visibility:visible;isolation:auto;mix-blend-mode:normal;color-interpolation:sRGB;color-interpolation-filters:linearRGB;solid-color:#000000;solid-opacity:1;vector-effect:none;fill:#000080;fill-opacity:1;fill-rule:nonzero;stroke:none;stroke-width:0.5;stroke-linecap:butt;stroke-linejoin:miter;stroke-miterlimit:4;stroke-dasharray:none;stroke-dashoffset:0;stroke-opacity:1;color-rendering:auto;image-rendering:auto;shape-rendering:auto;text-rendering:auto;enable-background:accumulate;stop-color:#000000"
     d="m 49.869141,18.951173 c -2.060494,0.0074 -2.867082,0.07192 -4.076172,0.328125 C 39.310594,20.652901 34.376081,23.948316 30.830078,29.28125 28.124111,33.350831 27,37.293559 27,42.658203 c 0,4.795668 1.091135,8.481423 3.628906,12.230469 4.178693,6.173188 9.484614,9.270372 17.22461,10.068359 1.828093,0.188476 5.452524,0.09141 7.05664,-0.199219 2.615343,-0.473826 5.806626,-1.758373 7.949219,-3.203124 4.110454,-2.771679 7.721219,-8.066938 9.246094,-13.492188 1.217942,-4.333243 1.194489,-8.968996 -0.08008,-12.935547 -2.27142,-7.068878 -8.209441,-12.184166 -15.927735,-13.755858 -1.94484,-0.396039 -5.54618,-0.539247 -7.429687,-0.289063 -0.683557,0.0908 -1.526194,0.200639 -1.863281,0.242188 -0.424281,0.05227 -0.790402,0.157952 -1.080079,0.384765 -0.30113,0.235782 -0.464843,0.599972 -0.464843,0.978516 0,0.294837 0.08571,0.648353 0.386718,0.978516 0.285975,0.31367 0.739701,0.682236 1.595704,1.380859 0.721991,0.589251 1.461404,1.247797 1.773437,1.550781 l -0.109375,0.01758 c -1.702154,0.266051 -3.86076,0.814075 -5.861328,1.486328 -0.490595,0.164854 -0.940346,0.311967 -1.265625,0.41211 -0.01636,0.005 -0.02386,0.0071 -0.03906,0.01172 -0.0016,-0.0096 -0.0023,-0.0134 -0.0039,-0.02344 -0.04975,-0.307143 -0.10692,-0.732951 -0.162109,-1.203125 -0.110449,-0.940932 -0.21487,-2.071275 -0.25,-2.841797 l -0.07031,-1.544922 0.376953,-0.177734 c 2.303425,-1.089556 7.059375,-2.158198 9.666016,-2.169922 0.593814,-0.0026 1.006443,-0.0271 1.337891,-0.142578 0.160375,-0.05587 0.416429,-0.185605 0.498046,-0.472656 0.08507,-0.299203 -0.08113,-0.549444 -0.21289,-0.681641 -0.152058,-0.152106 -0.338817,-0.192648 -0.46875,-0.21875 -0.14958,-0.03005 -0.325119,-0.05045 -0.548828,-0.06445 -0.446811,-0.02798 -1.090637,-0.03672 -2.033203,-0.0332 z m -1.064453,3.830078 h 0.349609 c 5.31036,-0.01187 10.823639,1.946525 14.292969,4.796875 l -1.1875,-0.433594 c -0.319637,-0.101706 -0.335539,-0.03924 -1,-0.564453 -0.454927,-0.35955 -0.837754,-0.625413 -1.169922,-0.800781 -0.159981,-0.08446 -0.315454,-0.162104 -0.486328,-0.205078 -0.170875,-0.04297 -0.363941,-0.04363 -0.548828,0.02734 v -0.002 c -0.110437,0.04238 -0.260163,0.117244 -0.371094,0.265625 -0.130758,0.174908 -0.152884,0.373432 -0.111328,0.556641 0.02038,0.08983 0.09457,0.145499 0.134765,0.220703 -1.077963,-0.184825 -2.241965,-0.325849 -4.160156,-0.392528 L 52.25,26.169923 50.765625,24.609376 Z m -9.472657,1.287109 c 0.01184,0.175037 0.02513,0.321689 0.03516,0.523438 0.01915,0.385718 0.04344,0.759687 0.06836,1.054687 0.01233,0.146036 0.02447,0.273074 0.03711,0.378907 0.01114,0.09328 0.01638,0.1741 0.05078,0.28125 8.9e-5,2.78e-4 0.01355,0.05761 0.0293,0.15625 0.01668,0.104483 0.03605,0.244821 0.05664,0.404297 0.04132,0.320081 0.08802,0.723764 0.128906,1.11914 0.04091,0.395658 0.07618,0.785661 0.09766,1.072265 0.0056,0.07529 0.0066,0.119012 0.0098,0.177734 -0.07174,0.03799 -0.136729,0.07214 -0.236328,0.125 -0.296207,0.157195 -0.698775,0.367957 -1.134766,0.59375 -1.907422,0.987809 -3.888885,2.19626 -5.121093,3.128906 -0.167947,0.127121 -0.315019,0.234994 -0.460938,0.34375 -0.04307,-0.335552 -0.08446,-0.747866 -0.128906,-1.515625 l -0.08008,-1.386718 0.583984,-0.767579 c 1.650016,-2.136139 3.740409,-4.224143 6.064453,-5.689452 z m 15.486328,4.492188 c 0.457803,0.0043 1.01076,0.02158 1.578125,0.04883 1.135089,0.0545 2.358994,0.14976 3.09961,0.251953 l 1.103515,0.15039 0.488282,0.544922 c 1.259348,1.400702 2.999601,4.227296 3.865234,6.30664 0.01744,0.0419 0.02693,0.0697 0.04297,0.109375 -0.151877,-0.04929 -0.24943,-0.09627 -0.464844,-0.15039 -0.566936,-0.142446 -1.271789,-0.296838 -2.027344,-0.445313 -1.511264,-0.29698 -3.216662,-0.570525 -4.388672,-0.675781 l -0.755859,-0.06836 -0.865234,-1.769531 c -0.556051,-1.136953 -1.429444,-2.694156 -1.986329,-3.53125 l -0.5,-0.751952 c 0.197345,-0.01221 0.439472,-0.02304 0.810547,-0.01953 z m -3.849609,0.240234 0.386719,0.486327 c 0.892903,1.120863 1.916755,2.76363 2.736328,4.402344 0.208552,0.416993 0.362198,0.735918 0.458984,0.962891 0.02195,0.05148 0.03135,0.08107 0.04687,0.123047 -0.01081,2.85e-4 -0.0064,0.0019 -0.01758,0.002 -0.938259,0.0053 -2.438367,0.265557 -4.082031,0.644531 -1.644078,0.379068 -3.407821,0.879712 -4.78125,1.390625 -0.472526,0.175778 -0.935877,0.347691 -1.292969,0.478516 -0.237946,0.08717 -0.317721,0.114137 -0.429687,0.154296 -0.267768,-0.738075 -1.388973,-4.643463 -1.613282,-5.669921 l -0.169921,-0.783203 0.210937,-0.08984 c 1.823054,-0.78146 5.598831,-1.764745 7.732422,-2.007812 h 0.002 z m 13.173828,1.263671 1.226563,0.439453 c 1.285964,0.54626 1.190794,0.468992 1.90039,1.382813 1.133568,1.459811 1.914302,3.71906 2.462891,6.228515 -0.06909,-0.0566 -0.12501,-0.114134 -0.207031,-0.171875 -0.326402,-0.229777 -0.769882,-0.484399 -1.316407,-0.761718 -0.152638,-0.07745 -0.312815,-0.181858 -0.427734,-0.271485 -0.04833,-0.03769 -0.09462,-0.08437 -0.126953,-0.11914 -0.0103,-0.01108 -0.01712,-0.02017 -0.02539,-0.0293 -0.07324,-0.169898 -0.422896,-0.994954 -0.798828,-1.884766 -0.792634,-1.876125 -1.492558,-3.121688 -2.6875,-4.8125 z m -23.853516,1.769531 c 0.0067,0.09159 0.01697,0.176946 0.03711,0.291016 0.02616,0.148178 0.06262,0.334072 0.107422,0.550781 0.08941,0.43252 0.209957,0.98703 0.345703,1.576172 0.271417,1.177973 0.596182,2.4919 0.816406,3.267578 l 0.232422,0.816407 -1.121094,0.597656 c -1.567915,0.836207 -3.477643,2.013873 -4.777343,2.878906 v -0.08594 l -0.789063,0.5625 c -0.162435,0.115448 -0.294029,0.204215 -0.427734,0.294922 -0.0021,-0.0059 -0.0037,-0.0075 -0.0059,-0.01367 C 34.588722,42.234808 34.4376,41.746516 34.279297,41.179688 33.9627,40.04605 33.612741,38.601606 33.380859,37.404297 c -0.07625,-0.393699 -0.13644,-0.676807 -0.154297,-0.849609 -0.01852,-0.179244 -0.01141,-0.201479 0.02148,-0.265626 0.02008,-0.03917 0.126146,-0.160799 0.341797,-0.33789 0.215651,-0.177091 0.534496,-0.416356 0.978515,-0.746094 1.422719,-1.056535 3.204616,-2.149444 4.898438,-3 0.326887,-0.164032 0.585754,-0.278001 0.769531,-0.351562 0.02236,-0.0089 0.03263,-0.01182 0.05273,-0.01953 z m -9.75,2.851563 0.03906,0.591797 -0.369141,0.488281 c 0.116002,-0.385776 0.22128,-0.784393 0.330078,-1.080078 z m 37.109376,2.125 c 0.0023,0.0054 0.01185,0.02976 0.01172,0.0293 -6.5e-5,-2.32e-4 0.0078,0.04118 0.0078,0.04102 -1.8e-5,-1.64e-4 -0.0078,0.0958 -0.0078,0.0957 1.4e-5,-4.8e-5 -0.04299,0.08402 -0.04297,0.08398 5e-6,-8e-6 -0.01373,0.01144 -0.02148,0.01758 -0.09829,-0.0875 -0.184506,-0.18809 -0.175781,-0.167969 z m -12.039063,0.382812 c 0.03992,0.09652 0.08407,0.20159 0.138672,0.34375 0.137253,0.357326 0.312378,0.839764 0.501953,1.375 0.379252,1.070763 0.814114,2.356335 1.103516,3.294922 l 0.55664,1.808594 -1.169922,0.06055 c -3.159434,0.168126 -6.241394,0.804554 -8.714843,1.8125 -0.269057,0.109642 -0.532252,0.211122 -0.730469,0.28125 -0.015,0.0053 -0.02297,0.0068 -0.03711,0.01172 -0.01855,-0.03306 -0.0295,-0.04946 -0.05078,-0.08984 -0.132245,-0.250955 -0.30198,-0.613598 -0.470703,-1.011719 -0.303396,-0.715898 -0.814463,-2.048067 -1.24414,-3.21875 -0.214831,-0.585324 -0.410421,-1.132511 -0.550782,-1.542969 -0.05856,-0.171244 -0.10049,-0.303019 -0.136718,-0.417968 0.09647,-0.05448 0.203461,-0.113476 0.371093,-0.189453 0.431123,-0.195405 1.055796,-0.43848 1.757813,-0.683594 1.404167,-0.490277 3.135006,-0.998432 4.357422,-1.242188 0.709639,-0.141504 1.875115,-0.31577 2.857422,-0.439453 0.49136,-0.06186 0.938869,-0.11129 1.259765,-0.138672 0.0871,-0.0074 0.135263,-0.0099 0.201172,-0.01367 z m 2.722656,0.0059 c 1.589365,0.02983 4.469965,0.505558 6.554688,1.140625 0.495085,0.150818 0.793604,0.262182 0.935547,0.33789 0.155931,0.08317 0.126735,0.06192 0.183593,0.171875 0.04119,0.07965 0.13608,0.335491 0.232422,0.666016 0.09634,0.330525 0.202472,0.746826 0.302735,1.197266 0.200934,0.902713 0.392774,1.97175 0.511718,2.90625 0.06061,0.476192 0.110648,0.971235 0.142578,1.380859 0.02762,0.354388 0.03178,0.608091 0.03125,0.71875 l -0.199218,-0.07227 c -1.186902,-0.432339 -3.471646,-0.975398 -5.333985,-1.28125 l -1.1875,-0.195312 -0.507812,-1.832031 c -0.33031,-1.192889 -0.854416,-2.86712 -1.179688,-3.767579 -0.238085,-0.6591 -0.383358,-1.075661 -0.486328,-1.371093 z m -27.416015,0.96875 c 0.0064,0.04119 0.01399,0.06862 0.01953,0.111328 0.13343,1.027584 0.92802,4.354969 1.271484,5.314453 0.04967,0.138731 0.09421,0.278317 0.128907,0.398438 -0.308183,0.227007 -0.761341,0.534414 -1.230469,0.935546 -0.282795,0.241804 -0.551301,0.500015 -0.75586,0.78711 -0.143657,0.201621 -0.172688,0.469823 -0.205078,0.730468 -0.316578,-1.53535 -0.522594,-3.178441 -0.583984,-4.90039 -0.04524,-1.26902 -0.04547,-2.078619 0,-2.494141 0.01294,-0.118394 0.02176,-0.124367 0.03516,-0.169922 0.03473,-0.0054 0.0723,0.0022 0.105469,-0.0078 v 0.002 c 0.102796,-0.03109 0.204294,-0.07558 0.310547,-0.128906 0.211173,-0.106 0.444284,-0.251607 0.677734,-0.425782 0.08524,-0.0636 0.147634,-0.09868 0.226563,-0.152343 z m 39.072265,1.167969 c 0.08619,0.525886 0.263413,0.961523 0.31836,1.511718 0.180502,1.807462 -0.135706,3.94986 -0.669922,6.208985 -0.08741,-0.09102 -0.100002,-0.228445 -0.203125,-0.304688 -0.140488,-0.103868 -0.174015,-0.15285 -0.181641,-0.167969 -0.0085,-0.01676 -0.0219,-0.05389 -0.01758,-0.216796 0.018,-0.67857 -0.09932,-1.913507 -0.275391,-3.310547 -0.15843,-1.257118 -0.374065,-2.575641 -0.589843,-3.691407 0.424103,0.148419 0.751683,0.242546 1.070312,0.226563 0.166332,-0.0084 0.370637,-0.05676 0.53125,-0.210938 0.01362,-0.01307 0.0054,-0.03124 0.01758,-0.04492 z m -27.421875,1.603515 c 0.0024,0.0062 0.0035,0.0093 0.0059,0.01563 0.08485,0.224117 0.190128,0.527138 0.292968,0.84375 0.218551,0.672847 0.782864,2.228223 1.269532,3.5 0.241554,0.631238 0.462469,1.212651 0.621093,1.640625 0.05599,0.151064 0.0921,0.254181 0.13086,0.361328 -0.0032,0.0019 -0.0045,0.002 -0.0078,0.0039 -0.205328,0.122081 -0.49981,0.285493 -0.822265,0.457031 -1.46153,0.777488 -3.694377,2.218964 -4.931641,3.1875 -0.198726,0.155562 -0.372192,0.285408 -0.523438,0.396484 -0.07763,-0.114443 -0.15546,-0.226219 -0.253906,-0.384765 -0.275163,-0.443154 -0.60055,-1.011349 -0.832031,-1.470704 -0.46748,-0.927689 -1.314788,-2.937634 -1.664063,-3.949218 l -0.125,-0.359375 1.035157,-0.742188 c 1.15355,-0.829239 2.692291,-1.80045 3.955078,-2.529297 0.63156,-0.364518 1.196288,-0.672002 1.599609,-0.865234 0.109367,-0.0524 0.167984,-0.07117 0.25,-0.105469 z M 58.572266,46.625 c 0,0 0,0.002 0,0.002 0.05496,0.181281 0.125185,0.449677 0.203125,0.759766 0.155483,0.618602 0.334598,1.412444 0.472656,2.121093 0.07232,0.371212 0.213161,1.3578 0.328125,2.28125 0.05749,0.461825 0.110407,0.912388 0.148437,1.275391 0.0272,0.259623 0.0346,0.389086 0.04297,0.517578 -0.07847,0.0068 -0.08253,0.01172 -0.253906,0.01172 -0.521461,0 -1.702252,0.136375 -3.916016,0.585938 l -0.01563,0.002 -0.0098,0.0039 L 52.25,54.992188 51.638672,54.039062 c -0.907787,-1.411946 -1.750435,-2.785643 -2.363281,-3.835937 -0.306474,-0.525231 -0.556375,-0.969898 -0.72461,-1.292969 -0.04305,-0.08267 -0.06406,-0.130208 -0.0957,-0.195312 0.0689,-0.03152 0.11052,-0.05463 0.201172,-0.0918 0.370715,-0.151996 0.902403,-0.341287 1.494141,-0.535156 1.183605,-0.38778 2.618085,-0.792904 3.529297,-0.96875 0.668574,-0.129022 1.953479,-0.284626 3.072265,-0.384766 0.559041,-0.05004 1.082075,-0.0848 1.46875,-0.101563 0.148718,-0.0064 0.252345,-0.0075 0.351563,-0.0078 z m -28.515625,0.08594 c 4.84e-4,0.0083 0.0052,0.01333 0.0059,0.02148 6.3e-4,0.0036 -0.0026,0.0061 -0.002,0.0098 z m 31.140625,0.09961 c 0.240327,0.02984 0.504384,0.06503 0.822265,0.111328 1.591127,0.23174 3.977625,0.796538 4.962891,1.162109 l 0.394531,0.146485 0.0078,1.273437 c 0.0053,0.873983 -0.03086,2.219885 -0.07813,2.945313 -0.03922,0.602049 -0.07422,0.937316 -0.128907,1.148437 -0.05576,0.215266 -0.122977,0.336518 -0.30664,0.611328 -0.117003,0.175068 -0.201883,0.286082 -0.259766,0.345704 -0.05788,0.05962 -0.07694,0.06549 -0.103516,0.07227 -0.02706,0.0069 -0.318367,-0.008 -0.863281,-0.166015 l -0.0059,-0.002 -2.072266,-0.507812 -0.01172,-0.0039 -0.01563,-0.0039 c -0.581836,-0.115676 -1.10412,-0.216774 -1.330078,-0.259765 -0.01929,-0.08586 -0.0586,-0.316496 -0.0957,-0.769532 -0.12306,-1.502864 -0.447705,-3.731725 -0.787109,-5.414062 -0.0537,-0.266161 -0.09165,-0.480882 -0.128906,-0.689453 z m -27.882813,0.02734 c 0.780281,1.88066 1.778741,4.017084 2.447266,5.138671 0.233936,0.392477 0.446366,0.750901 0.599609,1.013672 0.03039,0.05211 0.04787,0.08104 0.07227,0.123047 -0.0059,0.0063 -0.0093,0.0089 -0.01563,0.01563 -0.160297,0.168308 -0.38169,0.397574 -0.626953,0.646485 -0.265575,0.269516 -0.506366,0.546246 -0.691407,0.791015 -0.09187,0.121519 -0.171958,0.235239 -0.236328,0.345703 -0.05575,0.09567 -0.127687,0.221223 -0.146484,0.394532 -0.009,0.0826 -0.0176,0.248191 0.04687,0.419921 -1.420604,-1.599888 -2.623998,-3.395274 -3.421875,-5.287109 -0.366985,-0.870159 -0.613448,-1.900789 -0.873047,-2.912109 0.02408,0.02673 0.03886,0.05839 0.06445,0.08398 0.15796,0.157955 0.322554,0.351128 0.617188,0.402344 0.168502,0.02928 0.315553,-0.0092 0.425781,-0.05273 0.10371,-0.04091 0.190943,-0.09085 0.285156,-0.144532 0.264337,-0.15062 0.75906,-0.490074 1.1875,-0.802734 0.158981,-0.11602 0.186689,-0.125815 0.265625,-0.175781 z m 35.980469,1.6875 c -0.0212,0.09535 -0.0527,0.194067 -0.07422,0.289062 l 0.01367,-0.267578 z M 46.15625,49.794922 c 0.140626,0.318038 0.314593,0.673809 0.662109,1.279297 0.452814,0.788949 1.050529,1.780898 1.71875,2.847656 0.411706,0.657257 0.784686,1.269442 1.054688,1.720703 0.09833,0.16435 0.163767,0.27768 0.230469,0.392578 -0.162509,0.104611 -0.367718,0.22977 -0.607422,0.361328 -0.599942,0.329267 -1.738302,1.070657 -2.605469,1.691407 l -1.208984,0.867187 -1.310547,-1.251953 c -0.729713,-0.696836 -1.779834,-1.800736 -2.638672,-2.751953 -0.42942,-0.475611 -0.811931,-0.91533 -1.082031,-1.242188 -0.08631,-0.104446 -0.137074,-0.172169 -0.197266,-0.25 0.13956,-0.120562 0.322094,-0.269756 0.554687,-0.447265 0.514365,-0.392548 1.198451,-0.879391 1.847657,-1.300781 0.758143,-0.492103 1.762566,-1.04958 2.572265,-1.453126 0.404639,-0.201667 0.76453,-0.367244 1.00586,-0.460937 0.0019,-7.43e-4 0.002,-0.0012 0.0039,-0.002 z M 38.089844,55.0625 c 0.885037,1.129439 2.755218,3.065721 4.207031,4.367188 0.511523,0.45855 0.893502,0.82629 1.128906,1.078124 0.05222,0.05587 0.06802,0.08082 0.103516,0.123047 -0.09217,0.11335 -0.205537,0.247689 -0.318359,0.375 -0.100001,0.11284 -0.196706,0.210645 -0.275391,0.283203 -0.04349,-0.01413 -0.08032,-0.02515 -0.134766,-0.04492 -0.186636,-0.06777 -0.433515,-0.165041 -0.703125,-0.277344 -0.539164,-0.224585 -1.173328,-0.510884 -1.644531,-0.748047 -1.977068,-0.995086 -3.811711,-2.46271 -5.392578,-4.173828 0.06185,0.04158 0.12468,0.07977 0.193359,0.0957 0.302257,0.07014 0.608463,0.03332 1.164063,-0.0078 0.159891,-0.01187 0.276583,-0.07743 0.34375,-0.111328 0.0913,-0.04607 0.184474,-0.101465 0.285156,-0.166015 0.20312,-0.130234 0.434933,-0.299332 0.662109,-0.484375 z m 24.070312,0.914062 h 0.113282 c 0.292158,0 0.743844,0.03748 2.009765,0.205079 0.450212,0.0596 0.684918,0.104617 0.939453,0.15039 -0.04103,0.04163 -0.06355,0.07093 -0.109375,0.115235 -0.330773,0.319809 -0.77845,0.708609 -1.253906,1.09375 -0.660733,0.535222 -1.237005,0.913753 -1.748047,1.24414 0.02738,-0.932356 0.05221,-1.867438 0.04883,-2.808594 z m -2.236328,0.0059 V 60.125 c -0.999338,0.503918 -1.949917,0.941265 -2.929687,1.275391 -0.02839,-0.02814 -0.04534,-0.0416 -0.08008,-0.07813 C 56.740154,61.139459 56.498969,60.8647 56.228516,60.539062 55.687394,59.887529 55.019483,59.028121 54.439453,58.216797 54.127081,57.779861 53.894508,57.463079 53.753906,57.25 c -0.02096,-0.03176 -0.02555,-0.04404 -0.04102,-0.07031 0.129941,-0.04382 0.276949,-0.08966 0.537109,-0.171876 1.496313,-0.472892 3.437211,-0.85347 4.931641,-0.96875 z m -8.658203,2.15039 c 0.057,0.07971 0.108846,0.153724 0.185547,0.261719 0.228782,0.322129 0.537317,0.758989 0.871094,1.230469 l 0.07422,0.105469 h 0.0039 l 1.699218,2.326172 c -1.235394,0.224529 -2.418417,0.394901 -3.888671,0.386718 -0.01066,-0.0035 -0.02022,-0.0073 -0.0332,-0.01172 -0.05195,-0.01767 -0.124453,-0.04335 -0.195312,-0.07813 -0.160655,-0.07885 -0.371685,-0.197654 -0.59375,-0.332032 -0.438766,-0.265506 -0.926307,-0.592472 -1.251953,-0.826172 l -0.873047,-0.646484 c 0.590488,-0.442957 1.572251,-1.080271 2.49414,-1.615234 0.499049,-0.289592 0.9655,-0.543323 1.302735,-0.708985 0.09016,-0.04429 0.137956,-0.06226 0.205078,-0.0918 z m -5.679687,3.896485 c 0.01535,0.0091 0.04042,0.02345 0.05664,0.0332 -0.02512,-0.0038 -0.05344,-0.0061 -0.07617,-0.0098 0.007,-0.0085 0.01266,-0.01535 0.01953,-0.02344 z m 4.583984,0.417969 v 0.25 c 0.02345,0 -0.108283,-0.04372 -0.22461,-0.08984 0.0015,-0.0067 0.0039,-0.02149 0.0039,-0.02148 -2.2e-5,4.2e-5 0.05473,-0.07426 0.05469,-0.07422 -4.2e-5,3.9e-5 0.05085,-0.03519 0.05078,-0.03516 -1.3e-4,7.1e-5 0.06076,-0.02349 0.06055,-0.02344 -2.15e-4,5.2e-5 0.02221,-0.0031 0.0293,-0.0039 0.01418,-0.0016 0.02046,-0.002 0.02539,-0.002 z" />
</svg>
