<?xml version="1.0" encoding="UTF-8" standalone="no"?>
<svg
   xmlns:dc="http://purl.org/dc/elements/1.1/"
   xmlns:cc="http://creativecommons.org/ns#"
   xmlns:rdf="http://www.w3.org/1999/02/22-rdf-syntax-ns#"
   xmlns:svg="http://www.w3.org/2000/svg"
   xmlns="http://www.w3.org/2000/svg"
   xmlns:sodipodi="http://sodipodi.sourceforge.net/DTD/sodipodi-0.dtd"
   xmlns:inkscape="http://www.inkscape.org/namespaces/inkscape"
   inkscape:version="1.0 (4035a4fb49, 2020-05-01)"
   sodipodi:docname="uEB2F-folder-map.svg"
   id="svg4460"
   height="100"
   width="100"
   version="1.1">
  <sodipodi:namedview
     inkscape:document-rotation="0"
     inkscape:current-layer="svg4460"
     inkscape:window-maximized="1"
     inkscape:window-y="-8"
     inkscape:window-x="-8"
     inkscape:cy="15.286328"
     inkscape:cx="-115.85938"
     inkscape:zoom="2.5491199"
     showgrid="false"
     id="namedview11"
     inkscape:window-height="1017"
     inkscape:window-width="1920"
     inkscape:pageshadow="2"
     inkscape:pageopacity="0"
     guidetolerance="10"
     gridtolerance="10"
     objecttolerance="10"
     borderopacity="1"
     bordercolor="#666666"
     pagecolor="#ffffff" />
  <defs
     id="defs4462" />
  <metadata
     id="metadata4465">
    <rdf:RDF>
      <cc:Work
         rdf:about="">
        <dc:format>image/svg+xml</dc:format>
        <dc:type
           rdf:resource="http://purl.org/dc/dcmitype/StillImage" />
        <dc:title />
      </cc:Work>
    </rdf:RDF>
  </metadata>
  <path
     d="M 19.015625 2.6171875 C 18.300441 2.6668471 17.683098 3.246171 17.566406 4.0332031 L 16.8125 9.125 L 9.5 9.125 C 7.5670834 9.1251933 6.0001933 10.692083 6 12.625 L 6 33.875 L 3.5 33.875 C 1.3789311 33.874751 -0.25494813 35.745984 0.03125 37.847656 L 6.03125 87.845703 L 6.03125 87.847656 C 6.03859 87.898606 6.0470576 87.949427 6.0566406 88 L 6.0566406 88.003906 C 6.0659606 88.054256 6.0763756 88.104401 6.0878906 88.154297 L 6.0878906 88.15625 C 6.0997976 88.20666 6.1128211 88.256806 6.1269531 88.306641 L 6.1269531 88.310547 C 6.1408291 88.360357 6.155807 88.409847 6.171875 88.458984 L 6.171875 88.460938 C 6.188365 88.510148 6.2059474 88.558988 6.2246094 88.607422 L 6.2246094 88.609375 C 6.2430914 88.657325 6.2626271 88.704865 6.2832031 88.751953 L 6.2832031 88.753906 C 6.3036221 88.801906 6.3251123 88.849446 6.3476562 88.896484 L 6.3476562 88.898438 C 6.3707353 88.944536 6.3948289 88.990118 6.4199219 89.035156 L 6.4199219 89.037109 C 6.4449609 89.082609 6.4710089 89.127539 6.4980469 89.171875 C 6.5083099 89.189545 6.5187269 89.207119 6.5292969 89.224609 C 6.5736099 89.296599 6.6205149 89.366955 6.6699219 89.435547 L 6.671875 89.4375 C 6.702215 89.4792 6.733472 89.52023 6.765625 89.560547 L 6.765625 89.5625 C 6.831109 89.64367 6.9001888 89.721873 6.9726562 89.796875 L 6.9746094 89.798828 C 7.0102574 89.836088 7.0467254 89.872558 7.0839844 89.908203 L 7.0859375 89.910156 C 7.1616175 89.982006 7.240472 90.050432 7.3222656 90.115234 C 7.4041186 90.180194 7.4888385 90.241451 7.5761719 90.298828 C 7.5930099 90.309388 7.6099381 90.319808 7.6269531 90.330078 C 7.6540501 90.348038 7.6813974 90.365622 7.7089844 90.382812 L 7.7109375 90.382812 C 7.7271405 90.392014 7.7434166 90.401176 7.7597656 90.410156 C 7.8186976 90.444456 7.8786189 90.477013 7.9394531 90.507812 C 7.9550191 90.515714 7.9706451 90.52355 7.9863281 90.53125 L 7.9882812 90.53125 C 8.0827453 90.57657 8.1791965 90.61763 8.2773438 90.654297 C 8.4151634 90.705427 8.5560675 90.747837 8.6992188 90.78125 C 8.7089687 90.78385 8.7187386 90.786463 8.7285156 90.789062 L 8.7304688 90.789062 C 8.7810127 90.800602 8.8318061 90.811023 8.8828125 90.820312 L 8.8847656 90.820312 C 9.0390526 90.847673 9.1950023 90.864634 9.3515625 90.871094 L 9.3535156 90.871094 C 9.4023226 90.873294 9.4511449 90.8749 9.5 90.875 L 90.5 90.875 C 91.026862 90.875096 91.54695 90.756257 92.021484 90.527344 C 92.163271 90.459174 92.3003 90.381525 92.431641 90.294922 C 92.738377 90.092177 93.011254 89.84237 93.240234 89.554688 L 93.240234 89.552734 C 93.337994 89.429972 93.427391 89.300774 93.507812 89.166016 C 93.561424 89.075836 93.610952 88.983298 93.65625 88.888672 C 93.67879 88.841632 93.700283 88.794092 93.720703 88.746094 L 93.720703 88.744141 C 93.741303 88.696401 93.760847 88.648211 93.779297 88.599609 L 93.779297 88.597656 C 93.834297 88.450461 93.879318 88.299729 93.914062 88.146484 C 93.925634 88.095294 93.936053 88.043848 93.945312 87.992188 C 93.954112 87.944176 93.96194 87.895988 93.96875 87.847656 L 99.96875 37.847656 C 100.25487 35.746027 98.621016 33.874763 96.5 33.875 L 94 33.875 L 94 21.830078 L 94.939453 15.480469 C 95.072259 14.580922 94.499634 13.751582 93.660156 13.626953 L 19.328125 2.6289062 C 19.223175 2.6134321 19.117794 2.6100933 19.015625 2.6171875 z M 36.183594 8.4550781 L 45.765625 9.8730469 C 48.105447 11.10282 50.531724 12.293071 52.96875 13.416016 C 58.342249 15.892043 63.691962 18.052549 67.867188 19.619141 C 69.195713 20.117623 70.346526 20.528855 71.402344 20.898438 C 70.540254 21.588017 69.693284 22.278669 68.830078 22.964844 C 68.509998 23.219279 68.202096 23.463367 67.882812 23.716797 C 63.091867 21.400331 57.57654 18.984854 50.414062 16.341797 C 45.361486 14.47732 40.626472 11.759557 36.183594 8.4550781 z M 49.398438 10.410156 L 60.582031 12.064453 C 63.773958 13.417412 66.816228 14.630986 69.376953 15.591797 C 71.421394 16.358893 73.174422 16.976707 74.472656 17.408203 C 75.121764 17.623998 75.659141 17.793554 76.052734 17.908203 C 76.446329 18.022842 76.777319 18.082419 76.65625 18.068359 L 76.642578 18.191406 C 77.961099 17.116563 79.234412 16.05702 80.482422 15.007812 L 84.607422 15.619141 C 80.55895 19.100183 76.034409 22.735744 71.507812 26.333984 C 68.255557 28.919238 65.068014 31.458363 62.105469 33.875 L 57.150391 33.875 C 60.911437 30.737229 65.187246 27.357643 69.558594 23.882812 C 70.981807 22.751483 72.389561 21.614602 73.802734 20.478516 C 73.683404 20.439466 73.611464 20.419149 73.484375 20.376953 C 72.135173 19.928498 70.355137 19.298412 68.279297 18.519531 C 64.127636 16.961736 58.799033 14.812179 53.458984 12.351562 C 52.097393 11.724164 50.740561 11.073327 49.398438 10.410156 z M 19.625 11.132812 C 32.263835 22.518346 43.393192 28.091137 57.001953 32.449219 C 56.412992 32.936641 55.880018 33.399475 55.318359 33.875 L 39.464844 33.875 C 34.915134 24.635135 27.229934 18.543635 19.457031 12.261719 L 19.625 11.132812 z M 65.376953 12.773438 L 78.914062 14.777344 C 78.106816 15.451918 77.316488 16.118334 76.478516 16.804688 C 76.440326 16.794567 76.418076 16.79276 76.378906 16.78125 C 76.006927 16.672915 75.481359 16.507489 74.841797 16.294922 C 73.562684 15.869771 71.823683 15.254861 69.791016 14.492188 C 68.447416 13.988056 66.935018 13.396301 65.376953 12.773438 z M 19.257812 13.615234 C 26.678853 19.613997 33.822534 25.380028 38.175781 33.875 L 34.589844 33.875 C 30.790918 27.278426 25.061911 22.386172 18.722656 17.232422 L 19.257812 13.615234 z M 86.148438 15.847656 L 91.65625 16.662109 L 91.154297 20.054688 C 91.122667 20.047687 91.093067 20.03609 91.060547 20.03125 C 91.056747 20.030676 91.052408 20.029797 91.048828 20.029297 C 90.304282 19.925104 89.615867 20.441841 89.505859 21.185547 C 89.395218 21.933359 89.912342 22.629593 90.660156 22.740234 C 90.692646 22.745034 90.723599 22.741641 90.755859 22.744141 L 90.353516 25.470703 C 90.321876 25.463703 90.292296 25.452106 90.259766 25.447266 C 90.255966 25.446694 90.251627 25.445812 90.248047 25.445312 C 89.503502 25.34112 88.815088 25.857858 88.705078 26.601562 C 88.594438 27.349376 89.109606 28.045609 89.857422 28.15625 C 89.889912 28.16105 89.922818 28.157656 89.955078 28.160156 L 89.550781 30.886719 C 89.519151 30.879719 89.489561 30.868121 89.457031 30.863281 C 88.709216 30.75264 88.012985 31.269766 87.902344 32.017578 C 87.791705 32.765391 88.308825 33.461626 89.056641 33.572266 C 89.089131 33.577066 89.122037 33.573672 89.154297 33.576172 L 89.130859 33.740234 L 87.246094 33.710938 C 87.029939 33.419575 86.709017 33.225059 86.349609 33.171875 C 86.275119 33.161295 86.198295 33.156433 86.123047 33.158203 C 85.651767 32.920121 85.200599 32.683867 84.740234 32.447266 C 84.98609 32.233153 85.147498 31.93968 85.195312 31.617188 C 85.305954 30.869374 84.788831 30.173141 84.041016 30.0625 C 83.293203 29.95186 82.596969 30.468981 82.486328 31.216797 C 82.483228 31.237967 82.480716 31.258017 82.478516 31.279297 C 81.431912 30.73025 80.409063 30.184681 79.382812 29.638672 C 79.193219 29.452153 78.954104 29.325855 78.693359 29.273438 C 78.172226 28.996005 77.641674 28.717024 77.119141 28.439453 C 77.30803 28.236636 77.430107 27.981195 77.470703 27.707031 C 77.536193 27.267498 77.385541 26.822838 77.064453 26.515625 L 75.632812 27.65625 C 74.864966 27.251065 74.048312 26.837435 73.261719 26.429688 C 77.742648 22.865588 82.187888 19.287037 86.148438 15.847656 z M 13 16.125 L 15.777344 16.125 L 13.150391 33.875 L 13 33.875 L 13 16.125 z M 89.853516 17.849609 C 88.925925 17.938359 88.108973 18.214446 87.248047 18.685547 C 87.404823 19.186231 87.832616 19.553683 88.351562 19.630859 C 89.099379 19.741499 89.795609 19.224376 89.90625 18.476562 C 89.93725 18.266136 89.919966 18.051656 89.853516 17.849609 z M 18.521484 18.587891 C 24.414463 23.396384 29.655686 27.943739 33.236328 33.875 L 23.083984 33.875 L 26.783203 29.341797 L 17.992188 22.166016 L 18.521484 18.587891 z M 86.126953 19.398438 C 85.517472 19.817283 84.866649 20.300074 84.111328 20.900391 C 84.241043 21.444807 84.690495 21.855699 85.244141 21.9375 C 85.991958 22.04814 86.686234 21.532969 86.796875 20.785156 C 86.878835 20.22944 86.613628 19.678947 86.126953 19.398438 z M 83.064453 21.732422 L 81.042969 23.34375 C 81.21116 23.823483 81.631882 24.171663 82.134766 24.246094 C 82.88258 24.356736 83.578812 23.83961 83.689453 23.091797 C 83.769043 22.555379 83.523103 22.021759 83.064453 21.732422 z M 87.666016 22.326172 C 87.0338 22.365258 86.492742 22.841445 86.396484 23.492188 C 86.285844 24.240001 86.802968 24.936235 87.550781 25.046875 C 88.298596 25.157516 88.994828 24.640391 89.105469 23.892578 C 89.216109 23.144763 88.698989 22.448532 87.951172 22.337891 C 87.947372 22.337318 87.944986 22.338391 87.941406 22.337891 C 87.848338 22.324867 87.756332 22.320588 87.666016 22.326172 z M 80.070312 24.121094 L 77.988281 25.779297 C 78.182918 26.194433 78.571895 26.485195 79.025391 26.552734 C 79.773206 26.663375 80.469438 26.146251 80.580078 25.398438 C 80.652228 24.911494 80.457967 24.424479 80.070312 24.121094 z M 84.556641 24.634766 C 83.924427 24.673852 83.385322 25.150038 83.289062 25.800781 C 83.178422 26.548595 83.693593 27.242876 84.441406 27.353516 C 85.189223 27.464157 85.885453 26.948985 85.996094 26.201172 C 86.106734 25.453358 85.589615 24.757126 84.841797 24.646484 C 84.838297 24.645957 84.835611 24.645031 84.832031 24.644531 C 84.738963 24.631507 84.646957 24.629182 84.556641 24.634766 z M 81.447266 26.941406 C 80.815052 26.980492 80.275946 27.456679 80.179688 28.107422 C 80.069046 28.855236 80.586171 29.551469 81.333984 29.662109 C 82.081798 29.77275 82.778032 29.255628 82.888672 28.507812 C 82.999313 27.759999 82.48219 27.063766 81.734375 26.953125 C 81.730875 26.952599 81.726236 26.951672 81.722656 26.951172 C 81.629588 26.938148 81.537582 26.935823 81.447266 26.941406 z M 86.863281 27.742188 C 86.231065 27.781273 85.691961 28.25746 85.595703 28.908203 C 85.485063 29.656017 86.002187 30.35225 86.75 30.462891 C 87.497816 30.573532 88.194046 30.056407 88.304688 29.308594 C 88.415328 28.560779 87.898207 27.8665 87.150391 27.755859 C 87.146591 27.755287 87.142252 27.754406 87.138672 27.753906 C 87.045604 27.740882 86.953598 27.736604 86.863281 27.742188 z M 16.748047 30.570312 L 20.798828 33.875 L 16.259766 33.875 L 16.748047 30.570312 z M 7.5097656 40.875 L 92.490234 40.875 L 87.445312 83.875 L 12.554688 83.875 L 7.5097656 40.875 z "
     style="color:#000000;font-style:normal;font-variant:normal;font-weight:normal;font-stretch:normal;font-size:medium;line-height:normal;font-family:sans-serif;font-variant-ligatures:normal;font-variant-position:normal;font-variant-caps:normal;font-variant-numeric:normal;font-variant-alternates:normal;font-variant-east-asian:normal;font-feature-settings:normal;font-variation-settings:normal;text-indent:0;text-align:start;text-decoration:none;text-decoration-line:none;text-decoration-style:solid;text-decoration-color:#000000;letter-spacing:normal;word-spacing:normal;text-transform:none;writing-mode:lr-tb;direction:ltr;text-orientation:mixed;dominant-baseline:auto;baseline-shift:baseline;text-anchor:start;white-space:normal;shape-padding:0;shape-margin:0;inline-size:0;clip-rule:nonzero;display:inline;overflow:visible;visibility:visible;opacity:1;isolation:auto;mix-blend-mode:normal;color-interpolation:sRGB;color-interpolation-filters:linearRGB;solid-color:#000000;solid-opacity:1;vector-effect:none;fill:#000080;fill-opacity:1;fill-rule:nonzero;stroke:none;stroke-width:7;stroke-linecap:butt;stroke-linejoin:round;stroke-miterlimit:4;stroke-dasharray:none;stroke-dashoffset:0;stroke-opacity:1;color-rendering:auto;image-rendering:auto;shape-rendering:auto;text-rendering:auto;enable-background:accumulate;stop-color:#000000;stop-opacity:1"
     id="path882" />
</svg>
