<?xml version="1.0" encoding="UTF-8" standalone="no"?>
<svg
   xmlns:dc="http://purl.org/dc/elements/1.1/"
   xmlns:cc="http://creativecommons.org/ns#"
   xmlns:rdf="http://www.w3.org/1999/02/22-rdf-syntax-ns#"
   xmlns:svg="http://www.w3.org/2000/svg"
   xmlns="http://www.w3.org/2000/svg"
   xmlns:sodipodi="http://sodipodi.sourceforge.net/DTD/sodipodi-0.dtd"
   xmlns:inkscape="http://www.inkscape.org/namespaces/inkscape"
   inkscape:version="1.0 (4035a4fb49, 2020-05-01)"
   sodipodi:docname="folder-globe.svg"
   id="svg4460"
   height="100"
   width="100"
   version="1.1">
  <sodipodi:namedview
     inkscape:document-rotation="0"
     inkscape:current-layer="svg4460"
     inkscape:window-maximized="1"
     inkscape:window-y="-8"
     inkscape:window-x="-8"
     inkscape:cy="78.981771"
     inkscape:cx="18.27175"
     inkscape:zoom="7.9999999"
     showgrid="false"
     id="namedview11"
     inkscape:window-height="1017"
     inkscape:window-width="1920"
     inkscape:pageshadow="2"
     inkscape:pageopacity="0"
     guidetolerance="10"
     gridtolerance="10"
     objecttolerance="10"
     borderopacity="1"
     bordercolor="#666666"
     pagecolor="#ffffff" />
  <defs
     id="defs4462" />
  <metadata
     id="metadata4465">
    <rdf:RDF>
      <cc:Work
         rdf:about="">
        <dc:format>image/svg+xml</dc:format>
        <dc:type
           rdf:resource="http://purl.org/dc/dcmitype/StillImage" />
        <dc:title></dc:title>
      </cc:Work>
    </rdf:RDF>
  </metadata>
  <path
     d="M 9.5 9.125 C 7.5670834 9.1251933 6.0001933 10.692083 6 12.625 L 6 33.875 L 3.5 33.875 C 1.3789311 33.874751 -0.25494813 35.745984 0.03125 37.847656 L 6.03125 87.845703 L 6.03125 87.847656 C 6.03859 87.898606 6.0470576 87.949427 6.0566406 88 L 6.0566406 88.003906 C 6.0659606 88.054256 6.0763756 88.104401 6.0878906 88.154297 L 6.0878906 88.15625 C 6.0997976 88.20666 6.1128211 88.256806 6.1269531 88.306641 L 6.1269531 88.310547 C 6.1408291 88.360357 6.155807 88.409847 6.171875 88.458984 L 6.171875 88.460938 C 6.188365 88.510148 6.2059474 88.558988 6.2246094 88.607422 L 6.2246094 88.609375 C 6.2430914 88.657325 6.2626271 88.704865 6.2832031 88.751953 L 6.2832031 88.753906 C 6.3036221 88.801906 6.3251123 88.849446 6.3476562 88.896484 L 6.3476562 88.898438 C 6.3707353 88.944536 6.3948289 88.990118 6.4199219 89.035156 L 6.4199219 89.037109 C 6.4449609 89.082609 6.4710089 89.127539 6.4980469 89.171875 C 6.5083099 89.189545 6.5187269 89.207119 6.5292969 89.224609 C 6.5736099 89.296599 6.6205149 89.366955 6.6699219 89.435547 L 6.671875 89.4375 C 6.702215 89.4792 6.733472 89.52023 6.765625 89.560547 L 6.765625 89.5625 C 6.831109 89.64367 6.9001888 89.721873 6.9726562 89.796875 L 6.9746094 89.798828 C 7.0102574 89.836088 7.0467254 89.872558 7.0839844 89.908203 L 7.0859375 89.910156 C 7.1616175 89.982006 7.240472 90.050432 7.3222656 90.115234 C 7.4041186 90.180194 7.4888385 90.241451 7.5761719 90.298828 C 7.5930099 90.309388 7.6099381 90.319808 7.6269531 90.330078 C 7.6540501 90.348038 7.6813974 90.365622 7.7089844 90.382812 L 7.7109375 90.382812 C 7.7271405 90.392014 7.7434166 90.401176 7.7597656 90.410156 C 7.8186976 90.444456 7.8786189 90.477013 7.9394531 90.507812 C 7.9550191 90.515714 7.9706451 90.52355 7.9863281 90.53125 L 7.9882812 90.53125 C 8.0827453 90.57657 8.1791965 90.61763 8.2773438 90.654297 C 8.4151634 90.705427 8.5560675 90.747837 8.6992188 90.78125 C 8.7089687 90.78385 8.7187386 90.786463 8.7285156 90.789062 L 8.7304688 90.789062 C 8.7810127 90.800602 8.8318061 90.811023 8.8828125 90.820312 L 8.8847656 90.820312 C 9.0390526 90.847673 9.1950023 90.864634 9.3515625 90.871094 L 9.3535156 90.871094 C 9.4023226 90.873294 9.4511449 90.8749 9.5 90.875 L 90.5 90.875 C 91.026862 90.875096 91.54695 90.756257 92.021484 90.527344 C 92.163271 90.459174 92.3003 90.381525 92.431641 90.294922 C 92.738377 90.092177 93.011254 89.84237 93.240234 89.554688 L 93.240234 89.552734 C 93.337994 89.429972 93.427391 89.300774 93.507812 89.166016 C 93.561424 89.075836 93.610952 88.983298 93.65625 88.888672 C 93.67879 88.841632 93.700283 88.794092 93.720703 88.746094 L 93.720703 88.744141 C 93.741303 88.696401 93.760847 88.648211 93.779297 88.599609 L 93.779297 88.597656 C 93.834297 88.450461 93.879318 88.299729 93.914062 88.146484 C 93.925634 88.095294 93.936053 88.043848 93.945312 87.992188 C 93.954112 87.944176 93.96194 87.895988 93.96875 87.847656 L 99.96875 37.847656 C 100.25487 35.746027 98.621016 33.874763 96.5 33.875 L 94 33.875 L 94 21.375 C 93.999807 19.442083 92.432917 17.875193 90.5 17.875 L 40.75 17.875 L 40.75 12.625 C 40.749807 10.692083 39.182917 9.1251933 37.25 9.125 L 9.5 9.125 z M 13 16.125 L 33.75 16.125 L 33.75 21.375 C 33.750193 23.307917 35.317083 24.874807 37.25 24.875 L 87 24.875 L 87 33.875 L 13 33.875 L 13 16.125 z M 51.289062 39.568359 C 54.005469 40.030516 56.601724 42.267078 58.646484 45.980469 C 59.305595 47.177449 59.894971 48.522427 60.404297 49.978516 L 51.289062 49.978516 L 51.289062 39.568359 z M 48.710938 39.669922 L 48.710938 49.978516 L 40.072266 49.978516 C 40.581593 48.522427 41.170966 47.177449 41.830078 45.980469 C 43.754691 42.485271 46.168875 40.30086 48.710938 39.669922 z M 42.769531 40.367188 C 41.571078 41.58 40.496455 43.059908 39.572266 44.738281 C 38.706069 46.311341 37.959766 48.072925 37.347656 49.978516 L 30.408203 49.978516 C 33.262727 45.48909 37.615243 42.052031 42.769531 40.367188 z M 57.9375 40.605469 C 62.783598 42.365195 66.868396 45.695314 69.591797 49.978516 L 63.126953 49.978516 C 62.516106 48.072844 61.772255 46.310994 60.90625 44.738281 C 60.041632 43.168093 59.04357 41.772507 57.9375 40.605469 z M 28.988281 52.556641 L 36.625 52.556641 C 35.982623 55.218586 35.59044 58.104743 35.490234 61.132812 L 26.832031 61.132812 C 26.998806 58.077548 27.754939 55.18305 28.988281 52.556641 z M 39.289062 52.556641 L 48.710938 52.556641 L 48.710938 61.132812 L 38.070312 61.132812 C 38.179597 58.072464 38.608196 55.174674 39.289062 52.556641 z M 51.289062 52.556641 L 61.1875 52.556641 C 61.868369 55.174674 62.296965 58.072465 62.40625 61.132812 L 51.289062 61.132812 L 51.289062 52.556641 z M 63.849609 52.556641 L 71.011719 52.556641 C 72.245059 55.18305 73.001197 58.077548 73.167969 61.132812 L 64.982422 61.132812 C 64.882512 58.104971 64.490244 55.219027 63.849609 52.556641 z M 26.832031 63.710938 L 35.474609 63.710938 C 35.541027 66.730884 35.898648 69.617235 36.503906 72.287109 L 28.988281 72.287109 C 27.754939 69.6607 26.998806 66.766204 26.832031 63.710938 z M 38.052734 63.710938 L 48.710938 63.710938 L 48.710938 72.287109 L 39.160156 72.287109 C 38.518062 69.656787 38.125154 66.761448 38.052734 63.710938 z M 51.289062 63.710938 L 62.423828 63.710938 C 62.351408 66.761448 61.958501 69.656787 61.316406 72.287109 L 51.289062 72.287109 L 51.289062 63.710938 z M 64.994141 63.710938 L 73.167969 63.710938 C 73.001197 66.766203 72.245059 69.6607 71.011719 72.287109 L 63.970703 72.287109 C 64.574513 69.616934 64.927741 66.730503 64.994141 63.710938 z M 30.408203 74.865234 L 37.183594 74.865234 C 37.823848 76.971121 38.628097 78.908389 39.572266 80.623047 C 40.31362 81.969384 41.153209 83.185665 42.074219 84.242188 C 37.223286 82.48351 33.133674 79.151692 30.408203 74.865234 z M 39.894531 74.865234 L 48.710938 74.865234 L 48.710938 85.589844 C 48.552181 85.581184 48.396165 85.566497 48.238281 85.554688 C 45.871059 84.781534 43.634739 82.656267 41.830078 79.378906 C 41.093443 78.041141 40.441811 76.522983 39.894531 74.865234 z M 51.289062 74.865234 L 60.582031 74.865234 C 60.03475 76.522983 59.383119 78.04114 58.646484 79.378906 C 56.878911 82.58891 54.699802 84.693987 52.386719 85.505859 C 52.023652 85.542849 51.656928 85.569784 51.289062 85.589844 L 51.289062 74.865234 z M 63.291016 74.865234 L 69.591797 74.865234 C 67.002267 78.937892 63.180306 82.144614 58.644531 83.962891 C 59.471625 82.972729 60.229707 81.851682 60.90625 80.623047 C 61.850368 78.908477 62.651956 76.971598 63.291016 74.865234 z "
     style="color:#000000;font-style:normal;font-variant:normal;font-weight:normal;font-stretch:normal;font-size:medium;line-height:normal;font-family:sans-serif;font-variant-ligatures:normal;font-variant-position:normal;font-variant-caps:normal;font-variant-numeric:normal;font-variant-alternates:normal;font-variant-east-asian:normal;font-feature-settings:normal;font-variation-settings:normal;text-indent:0;text-align:start;text-decoration:none;text-decoration-line:none;text-decoration-style:solid;text-decoration-color:#000000;letter-spacing:normal;word-spacing:normal;text-transform:none;writing-mode:lr-tb;direction:ltr;text-orientation:mixed;dominant-baseline:auto;baseline-shift:baseline;text-anchor:start;white-space:normal;shape-padding:0;shape-margin:0;inline-size:0;clip-rule:nonzero;display:inline;overflow:visible;visibility:visible;opacity:1;isolation:auto;mix-blend-mode:normal;color-interpolation:sRGB;color-interpolation-filters:linearRGB;solid-color:#000000;solid-opacity:1;vector-effect:none;fill:#000080;fill-opacity:1;fill-rule:nonzero;stroke:none;stroke-width:7;stroke-linecap:butt;stroke-linejoin:round;stroke-miterlimit:4;stroke-dasharray:none;stroke-dashoffset:0;stroke-opacity:1;color-rendering:auto;image-rendering:auto;shape-rendering:auto;text-rendering:auto;enable-background:accumulate;stop-color:#000000;stop-opacity:1"
     id="path882" />
</svg>
