<?xml version="1.0" encoding="UTF-8" standalone="no"?>
<svg
   xmlns:dc="http://purl.org/dc/elements/1.1/"
   xmlns:cc="http://creativecommons.org/ns#"
   xmlns:rdf="http://www.w3.org/1999/02/22-rdf-syntax-ns#"
   xmlns:svg="http://www.w3.org/2000/svg"
   xmlns="http://www.w3.org/2000/svg"
   xmlns:sodipodi="http://sodipodi.sourceforge.net/DTD/sodipodi-0.dtd"
   xmlns:inkscape="http://www.inkscape.org/namespaces/inkscape"
   inkscape:version="1.0 (4035a4fb49, 2020-05-01)"
   sodipodi:docname="earth-net-o.svg"
   id="svg4460"
   height="100"
   width="100"
   version="1.1">
  <sodipodi:namedview
     inkscape:document-rotation="0"
     inkscape:current-layer="svg4460"
     inkscape:window-maximized="1"
     inkscape:window-y="-8"
     inkscape:window-x="-8"
     inkscape:cy="-1.4001561"
     inkscape:cx="-36.013416"
     inkscape:zoom="1.8025"
     showgrid="false"
     id="namedview11"
     inkscape:window-height="1017"
     inkscape:window-width="1920"
     inkscape:pageshadow="2"
     inkscape:pageopacity="0"
     guidetolerance="10"
     gridtolerance="10"
     objecttolerance="10"
     borderopacity="1"
     bordercolor="#666666"
     pagecolor="#ffffff" />
  <defs
     id="defs4462" />
  <metadata
     id="metadata4465">
    <rdf:RDF>
      <cc:Work
         rdf:about="">
        <dc:format>image/svg+xml</dc:format>
        <dc:type
           rdf:resource="http://purl.org/dc/dcmitype/StillImage" />
        <dc:title />
      </cc:Work>
    </rdf:RDF>
  </metadata>
  <path
     d="M 50 0 C 27.922835 -1.3655985e-07 9.9999998 17.922835 10 40 C 10 61.303647 26.69084 78.732122 47.697266 79.927734 L 47.697266 85 L 40 85 A 2.50025 2.50025 0 0 0 37.5 87.5 L 37.5 90 L 0 90 L 0 95 L 37.5 95 L 37.5 97.5 A 2.50025 2.50025 0 0 0 40 100 L 60 100 A 2.50025 2.50025 0 0 0 62.5 97.5 L 62.5 95 L 100 95 L 100 90 L 62.5 90 L 62.5 87.5 A 2.50025 2.50025 0 0 0 60 85 L 52.697266 85 L 52.697266 79.898438 C 73.477091 78.510216 89.931884 61.234124 89.994141 40.119141 A 1.2 1.2 0 0 0 90 40 A 1.2 1.2 0 0 0 89.996094 39.894531 C 89.938007 17.866731 72.041309 0 50 0 z M 49.744141 2.40625 C 50.490233 2.474941 51.233776 2.5662557 51.970703 2.7089844 C 52.024143 4.4723931 52.418128 7.7674346 48.972656 7.6503906 C 46.137224 7.8094714 43.446443 14.249938 41.851562 9.6015625 C 42.037506 7.2173072 46.140218 2.4134179 41.183594 4.1601562 C 40.128042 5.6835058 40.404299 8.5135659 38.449219 8.1796875 C 37.754419 10.689015 35.798508 9.1929276 35.410156 8.1054688 C 34.4705 8.6560616 36.106624 10.068024 35.054688 10.820312 C 38.096303 8.7751911 35.304289 13.378641 37.042969 14.5625 C 35.382153 16.15753 38.353249 20.237138 34.849609 19.205078 C 31.621705 18.690517 37.359682 15.128967 33.40625 16.828125 C 30.921458 17.386123 31.055094 18.804051 32.914062 19.177734 C 31.245318 20.744183 29.118594 20.83009 28.128906 20.125 C 25.593994 21.741893 23.175404 23.741554 21.089844 26.089844 C 18.025132 26.234218 18.714586 32.444578 17.240234 31.8125 C 17.07861 29.90938 17.729334 26.8365 15.773438 27.28125 C 15.280705 27.118675 14.831223 27.335361 14.441406 27.767578 C 19.487289 13.079958 33.361057 2.5159531 49.744141 2.40625 z M 55.164062 2.7617188 C 55.680385 2.8325477 56.191783 2.91432 56.701172 3.0058594 C 57.379926 3.2666023 57.820897 3.6188695 56.794922 3.7460938 L 55.976562 3.4667969 C 55.286597 3.0710335 55.0904 2.8566631 55.164062 2.7617188 z M 63.931641 5.0742188 C 77.803617 10.606141 87.599609 24.144677 87.599609 40 C 87.599609 50.468445 83.326803 59.927961 76.433594 66.742188 C 77.220666 64.596176 77.635628 62.206468 79.105469 60.408203 C 80.043485 57.172286 76.728426 54.859711 78.628906 51.867188 C 76.979794 52.065247 74.060632 50.098647 72.236328 52.78125 C 70.151488 52.80919 68.130927 55.199043 66.193359 53.951172 C 63.618823 52.422932 60.665283 50.635684 59.935547 47.513672 C 60.249179 45.079579 59.501366 41.959937 59.732422 39.703125 C 60.883894 35.798276 63.98725 33.451214 64.628906 29.591797 C 64.893658 29.358807 67.142776 27.60425 67.236328 27.53125 C 69.973624 26.823183 73.697368 22.428742 75.332031 26.833984 C 75.890255 27.237938 79.616914 29.116935 79.28125 27.634766 C 79.37228 25.318823 85.549001 26.574343 82.376953 23.544922 C 82.048417 23.35074 80.797213 22.987545 79.96875 23.21875 C 79.627829 23.29962 78.161988 24.923003 76.910156 22.742188 C 74.983684 20.947639 76.806423 27.550508 74.220703 24.136719 C 76.879959 23.252981 70.842961 20.163854 72.265625 21.960938 C 74.352073 25.505958 70.463001 23.178418 71.167969 20.734375 C 67.802385 20.321513 69.43552 26.641963 66.277344 27.613281 C 66.298384 27.616681 66.320507 27.610683 66.341797 27.613281 L 65.792969 27.685547 L 64.941406 27.763672 C 64.16267 26.970115 61.893862 26.871067 62.566406 24.574219 C 61.134406 22.093631 62.554136 21.147339 65.087891 21.380859 C 67.643931 19.744395 59.771181 17.785608 64.828125 16.931641 C 62.614493 17.073782 61.689648 17.156565 61.402344 14.425781 C 61.75572 17.813333 57.378033 15.698994 59.724609 13.683594 C 60.618881 13.082522 57.669477 11.857644 60.148438 11.439453 C 61.806829 11.351433 65.076517 18.072341 65.675781 14.041016 C 66.802717 13.679365 64.623323 11.523014 65.144531 11.408203 C 62.208691 12.343302 61.351325 7.190754 61.328125 5.2617188 C 62.30066 5.2998128 63.285032 5.2202838 63.931641 5.0742188 z M 36.703125 6.3730469 C 36.491709 6.3988117 36.098059 6.5860212 35.476562 7.03125 C 34.698946 7.3652276 33.144534 9.4215626 34.96875 7.9003906 C 36.336989 7.6728242 37.337381 6.2957509 36.703125 6.3730469 z M 64.679688 7.3789062 C 64.299167 7.4090742 65.537668 8.4064016 64.951172 7.4335938 C 64.820644 7.3898578 64.734007 7.3745863 64.679688 7.3789062 z M 32.476562 7.8378906 C 32.152786 7.8144322 31.675037 7.9580996 31.007812 8.3496094 C 28.826597 8.534907 28.712351 13.331297 28.775391 13.042969 C 29.421127 12.612419 29.99058 11.295887 30.826172 11.373047 C 32.384756 11.211589 33.879563 7.9395434 32.476562 7.8378906 z M 52.667969 7.9257812 C 54.241417 7.8600341 56.708801 9.1129022 53.292969 9.5371094 C 52.738537 9.5343094 52.131059 9.4374338 51.712891 9.0351562 C 51.421179 8.2577427 51.952761 7.9556692 52.667969 7.9257812 z M 64.767578 8.5507812 C 64.111546 8.4910782 67.265114 10.710478 65.933594 9.03125 C 65.274714 8.6986636 64.91897 8.5645572 64.767578 8.5507812 z M 58.189453 9.7832031 C 58.377885 9.7006261 58.724163 10.761718 58.097656 10.058594 C 58.110396 9.8819531 58.146013 9.8022591 58.189453 9.7832031 z M 60.607422 10.363281 C 60.759926 10.405081 61.326989 11.578186 60.654297 10.8125 C 60.551657 10.461426 60.556622 10.349345 60.607422 10.363281 z M 67.457031 10.371094 C 67.126816 10.372494 67.151028 10.718798 68.146484 11.599609 C 68.4371 12.931107 67.749544 13.572748 69.236328 12.371094 C 69.546872 11.326358 68.007383 10.368774 67.457031 10.371094 z M 24.097656 15.230469 C 23.627056 15.175269 24.042826 17.325878 24.574219 15.695312 C 24.361691 15.374162 24.206256 15.243205 24.097656 15.230469 z M 31.525391 16.175781 C 31.229191 16.172181 31.504089 16.871669 32.023438 16.480469 C 31.785381 16.25666 31.624127 16.176981 31.525391 16.175781 z M 77.037109 16.464844 C 76.425821 16.535874 78.386541 20.639783 78.855469 18.769531 C 81.341253 18.387344 78.476987 16.271307 77.921875 17.183594 C 77.456859 16.64735 77.178173 16.448452 77.037109 16.464844 z M 24.154297 17.214844 C 23.789737 17.296104 23.57023 19.529256 24.316406 17.332031 C 24.260766 17.236671 24.206377 17.203236 24.154297 17.214844 z M 72.542969 19.472656 C 72.418451 19.510446 72.705873 19.832189 73.75 20.611328 C 74.123768 20.499562 75.968189 22.218544 75.537109 21.253906 C 74.833485 20.554763 73.069222 19.549057 72.621094 19.474609 C 72.587484 19.469009 72.560759 19.467256 72.542969 19.472656 z M 23.234375 19.492188 C 22.839087 19.412698 22.068233 20.758506 23.417969 19.820312 C 23.397519 19.604543 23.325597 19.510531 23.234375 19.492188 z M 77.935547 21.279297 C 77.728163 21.367927 78.686161 22.723644 78.613281 21.746094 C 78.204129 21.360569 78.004667 21.249753 77.935547 21.279297 z M 69.716797 23.130859 C 70.214373 23.053009 69.916899 25.343186 68.949219 24.212891 C 69.296203 23.446553 69.550933 23.156811 69.716797 23.130859 z M 79.90625 23.9375 C 80.447842 23.86709 80.9151 25.404767 79.410156 24.6875 C 79.536908 24.16385 79.725715 23.960972 79.90625 23.9375 z M 50.675781 26.160156 C 51.260741 26.211986 51.152025 27.159298 49.876953 26.5 C 50.208497 26.225866 50.480797 26.142876 50.675781 26.160156 z M 52.439453 26.761719 C 52.677645 26.851599 52.209105 27.708606 51.931641 27.013672 C 52.200937 26.787382 52.360093 26.731759 52.439453 26.761719 z M 58.791016 30.824219 C 59.12336 30.744249 58.974294 31.935669 58.482422 31.123047 C 58.61211 30.928939 58.714296 30.842675 58.791016 30.824219 z M 18.658203 31.167969 C 18.877483 31.165569 19.364314 32.800417 18.583984 31.871094 C 18.540304 31.350566 18.58508 31.168764 18.658203 31.167969 z M 18.222656 32.488281 C 18.442352 32.525291 18.335084 34.618907 17.894531 33.337891 C 18.040356 32.692013 18.149456 32.475945 18.222656 32.488281 z M 14.363281 33.130859 C 14.814916 33.380903 13.546612 36.692019 14.027344 37.5 C 15.573432 39.852806 13.011851 44.0552 16.671875 44.865234 C 17.967675 42.353779 19.173065 44.63369 19.460938 44.330078 C 20.652977 44.119884 21.501665 47.063461 23.640625 46.666016 C 26.118825 46.405306 24.892741 51.277223 28.273438 51.816406 C 32.401429 53.012464 31.973619 58.543653 36.519531 59.230469 C 39.207339 60.804497 46.73757 61.493042 44.378906 65.816406 C 40.857986 67.267555 43.116714 73.682822 37.931641 72.429688 C 36.789884 72.759026 36.294548 73.91015 35.445312 74.681641 C 30.716731 72.697061 26.487375 69.769429 22.976562 66.140625 C 20.947526 63.024441 18.048755 60.518384 16.728516 56.939453 C 13.952052 53.390412 16.206872 49.577813 15.652344 45.876953 C 15.489184 43.917627 15.007932 47.046857 14.353516 44.560547 C 13.364223 42.532237 13.021351 39.852134 12.488281 37.544922 C 12.579171 36.133207 12.750017 34.743752 12.992188 33.378906 C 13.034987 33.672539 13.104991 33.923853 13.208984 34.107422 C 13.87037 33.304728 14.212736 33.047511 14.363281 33.130859 z M 15.988281 33.162109 C 16.210193 33.185049 16.522472 33.267512 16.945312 33.421875 C 17.736504 35.640801 19.89065 36.361907 19.28125 37.339844 C 20.834666 37.95967 23.097603 40.90607 19.435547 39.587891 C 17.003538 38.607389 20.282034 37.728619 17.40625 36.953125 C 17.293578 35.744107 14.434929 33.001555 15.988281 33.162109 z M 61.351562 33.775391 C 61.715179 33.775294 62.00115 35.244376 60.927734 34.986328 C 61.004044 34.078931 61.186275 33.775435 61.351562 33.775391 z M 19.011719 34.427734 C 19.171058 34.468704 19.424827 34.908118 19.275391 35.439453 L 19.09375 35.318359 C 18.860981 34.749984 18.865491 34.489595 18.949219 34.435547 C 18.966659 34.424287 18.988949 34.421864 19.011719 34.427734 z M 58.615234 34.496094 C 59.64921 34.436624 61.489002 35.278486 59.115234 35.357422 L 58.316406 35.357422 L 58.175781 35.292969 C 57.841261 34.736413 58.145251 34.523126 58.615234 34.496094 z M 16.785156 37.410156 C 17.248556 37.507286 18.587933 38.995696 17.048828 38.460938 C 16.544988 37.610134 16.574524 37.366004 16.785156 37.410156 z M 22.060547 39.666016 C 22.637355 39.593546 23.414904 41.144681 21.652344 40.423828 C 21.698574 39.89451 21.868283 39.690176 22.060547 39.666016 z M 24.869141 42.582031 C 25.102565 42.673781 25.314189 46.200494 24.689453 44.533203 L 24.658203 43.953125 C 24.710703 42.900522 24.7913 42.551447 24.869141 42.582031 z M 52.929688 44.929688 C 53.368184 44.977207 54.759306 45.882737 53.28125 45.589844 C 52.728323 45.06382 52.730376 44.908087 52.929688 44.929688 z M 55.078125 45.421875 C 55.475853 45.415575 55.328044 46.625413 54.714844 45.662109 C 54.865756 45.489428 54.986341 45.423315 55.078125 45.421875 z M 54.722656 46.474609 C 55.332448 46.375939 54.850498 47.586151 54.115234 46.792969 C 54.382458 46.590121 54.581928 46.497377 54.722656 46.474609 z M 53.689453 46.628906 C 53.914381 46.652676 53.785912 47.743413 53.345703 47.066406 C 53.501023 46.732555 53.614493 46.620986 53.689453 46.628906 z M 77.066406 54.080078 C 77.291342 54.103858 77.162866 55.192635 76.722656 54.515625 C 76.877976 54.181774 76.991446 54.072158 77.066406 54.080078 z M 42.5 90 L 57.5 90 L 57.5 95 L 42.5 95 L 42.5 90 z "
     style="color:#000000;overflow:visible;fill:#000080;stroke:none;stroke-width:2.4;stroke-linecap:round;stroke-linejoin:round;stroke-miterlimit:4;stroke-dasharray:none;stroke-dashoffset:188.976;stroke-opacity:1"
     id="path1091-0" />
</svg>
