<?xml version="1.0" encoding="UTF-8" standalone="no"?>
<svg
   xmlns:dc="http://purl.org/dc/elements/1.1/"
   xmlns:cc="http://creativecommons.org/ns#"
   xmlns:rdf="http://www.w3.org/1999/02/22-rdf-syntax-ns#"
   xmlns:svg="http://www.w3.org/2000/svg"
   xmlns="http://www.w3.org/2000/svg"
   xmlns:sodipodi="http://sodipodi.sourceforge.net/DTD/sodipodi-0.dtd"
   xmlns:inkscape="http://www.inkscape.org/namespaces/inkscape"
   version="1.1"
   width="100"
   height="100"
   id="svg4460"
   sodipodi:docname="folder-poi-o.svg"
   inkscape:version="1.0 (4035a4fb49, 2020-05-01)">
  <sodipodi:namedview
     pagecolor="#ffffff"
     bordercolor="#666666"
     borderopacity="1"
     objecttolerance="10"
     gridtolerance="10"
     guidetolerance="10"
     inkscape:pageopacity="0"
     inkscape:pageshadow="2"
     inkscape:window-width="1920"
     inkscape:window-height="1017"
     id="namedview11"
     showgrid="false"
     inkscape:zoom="7.9999999"
     inkscape:cx="14.595821"
     inkscape:cy="49.547744"
     inkscape:window-x="-8"
     inkscape:window-y="-8"
     inkscape:window-maximized="1"
     inkscape:current-layer="svg4460"
     inkscape:document-rotation="0" />
  <defs
     id="defs4462" />
  <metadata
     id="metadata4465">
    <rdf:RDF>
      <cc:Work
         rdf:about="">
        <dc:format>image/svg+xml</dc:format>
        <dc:type
           rdf:resource="http://purl.org/dc/dcmitype/StillImage" />
        <dc:title></dc:title>
      </cc:Work>
    </rdf:RDF>
  </metadata>
  <path
     sodipodi:nodetypes="cccccccccccccccccccccccccccccscccccccccccccccccccccccccccsccccccccccccccccccccccccccccc"
     d="m 9.500012,9.125 c -1.9329166,1.933e-4 -3.4998067,1.567083 -3.5,3.5 v 21.25 h -2.5 c -2.1210689,-2.49e-4 -3.7549481,1.870984 -3.46874997,3.972656 L 6.031262,87.845703 v 0.002 c 0.00734,0.05095 0.015808,0.101724 0.025391,0.152297 v 0.0039 c 0.00932,0.05035 0.019735,0.100495 0.03125,0.150391 v 0.002 c 0.011907,0.05041 0.024931,0.100556 0.039063,0.150391 v 0.0039 c 0.013876,0.04981 0.028854,0.0993 0.044922,0.148437 v 0.002 c 0.01649,0.04921 0.034072,0.09805 0.052734,0.146484 v 0.002 c 0.018482,0.04795 0.038018,0.09549 0.058594,0.142578 v 0.002 c 0.020419,0.048 0.041909,0.09554 0.064453,0.142578 v 0.002 c 0.023079,0.0461 0.047173,0.09168 0.072266,0.136718 v 0.002 c 0.025039,0.0455 0.051087,0.09043 0.078125,0.134766 0.010263,0.01767 0.02068,0.03524 0.03125,0.05273 0.044313,0.07199 0.091218,0.142346 0.140625,0.210938 l 0.00195,0.002 c 0.03034,0.0417 0.061597,0.08273 0.09375,0.123047 v 0.002 c 0.065484,0.08117 0.1345637,0.159373 0.2070312,0.234375 l 0.00195,0.002 c 0.035648,0.03726 0.072116,0.07373 0.109375,0.109375 l 0.00195,0.002 c 0.07568,0.07185 0.1545345,0.140276 0.2363281,0.205078 0.081853,0.06496 0.1665729,0.126217 0.2539063,0.183594 0.016838,0.01056 0.033766,0.02098 0.050781,0.03125 0.027097,0.01796 0.054444,0.03554 0.082031,0.05273 h 0.00195 c 0.016203,0.0092 0.032479,0.01836 0.048828,0.02734 0.058932,0.0343 0.1188533,0.06686 0.1796875,0.09766 0.015566,0.0079 0.031192,0.01574 0.046875,0.02344 h 0.00195 c 0.094464,0.04532 0.1909154,0.08638 0.2890626,0.123047 0.1378197,0.05113 0.2787238,0.09354 0.421875,0.126953 0.00975,0.0026 0.01952,0.0052 0.029297,0.0078 h 0.00195 c 0.050544,0.01154 0.1013373,0.02196 0.1523437,0.03125 h 0.00195 c 0.154287,0.02736 0.3102367,0.04432 0.4667969,0.05078 h 0.00195 c 0.048807,0.0022 0.097654,0.0034 0.1465091,0.0035 h 81 c 0.526862,9.6e-5 1.04695,-0.118743 1.521484,-0.347656 0.141787,-0.06817 0.278816,-0.145819 0.410157,-0.232422 0.306736,-0.202745 0.579613,-0.452552 0.808593,-0.740234 v -0.002 c 0.09776,-0.122762 0.187155,-0.25196 0.267578,-0.386718 0.05361,-0.09018 0.10314,-0.182718 0.148438,-0.277344 0.02254,-0.04704 0.04403,-0.09458 0.06445,-0.142578 v -0.002 c 0.0206,-0.04774 0.04014,-0.09593 0.05859,-0.144532 v -0.002 c 0.055,-0.147195 0.100021,-0.297927 0.134765,-0.451172 0.01157,-0.05119 0.02199,-0.102636 0.03125,-0.154296 0.0088,-0.04801 0.01663,-0.0962 0.02344,-0.144532 l 6,-50 C 100.25488,35.745917 98.621028,33.874763 96.500012,33.875 h -2.5 v -12.5 c -1.93e-4,-1.932917 -1.567083,-3.499807 -3.5,-3.5 h -49.75 v -5.25 c -1.93e-4,-1.932917 -1.567083,-3.4998067 -3.5,-3.5 z m 3.5,7 h 20.75 v 5.25 c 1.93e-4,1.932917 1.567083,3.499807 3.5,3.5 h 49.75 v 9 h -74 z M 7.5097776,40.875 H 92.490246 l -5.044922,43 H 12.5547 Z"
     style="color:#000000;font-style:normal;font-variant:normal;font-weight:normal;font-stretch:normal;font-size:medium;line-height:normal;font-family:sans-serif;font-variant-ligatures:normal;font-variant-position:normal;font-variant-caps:normal;font-variant-numeric:normal;font-variant-alternates:normal;font-variant-east-asian:normal;font-feature-settings:normal;font-variation-settings:normal;text-indent:0;text-align:start;text-decoration:none;text-decoration-line:none;text-decoration-style:solid;text-decoration-color:#000000;letter-spacing:normal;word-spacing:normal;text-transform:none;writing-mode:lr-tb;direction:ltr;text-orientation:mixed;dominant-baseline:auto;baseline-shift:baseline;text-anchor:start;white-space:normal;shape-padding:0;shape-margin:0;inline-size:0;clip-rule:nonzero;display:inline;overflow:visible;visibility:visible;opacity:1;isolation:auto;mix-blend-mode:normal;color-interpolation:sRGB;color-interpolation-filters:linearRGB;solid-color:#000000;solid-opacity:1;vector-effect:none;fill:#000080;fill-opacity:1;fill-rule:nonzero;stroke:none;stroke-width:7;stroke-linecap:butt;stroke-linejoin:round;stroke-miterlimit:4;stroke-dasharray:none;stroke-dashoffset:0;stroke-opacity:1;color-rendering:auto;image-rendering:auto;shape-rendering:auto;text-rendering:auto;enable-background:accumulate;stop-color:#000000;stop-opacity:1"
     id="path882" />
  <path
     d="m 50.000578,43.314493 c -7.268626,0 -13.224265,5.938623 -13.224265,13.186484 0,2.808252 0.896781,5.41792 2.414906,7.563582 l 9.195574,15.896066 c 1.287794,1.682359 2.144095,1.362852 3.214872,-0.08863 L 61.743808,62.611927 c 0.204896,-0.370637 0.365435,-0.765318 0.505607,-1.168322 0.626013,-1.528996 0.974273,-3.196947 0.974272,-4.942629 0,-7.247861 -5.954482,-13.186484 -13.223109,-13.186484 z m 0,6.178862 c 3.913945,0 7.026544,3.104858 7.026545,7.007622 0,3.902765 -3.1126,7.006471 -7.026545,7.006471 -3.913946,0 -7.027699,-3.103706 -7.027699,-7.006471 0,-3.902764 3.113753,-7.007622 7.027699,-7.007622 z"
     style="fill:#000080;stroke-width:1.60959"
     id="path4135" />
</svg>
