<?xml version="1.0" encoding="UTF-8" standalone="no"?>
<svg
   xmlns:dc="http://purl.org/dc/elements/1.1/"
   xmlns:cc="http://creativecommons.org/ns#"
   xmlns:rdf="http://www.w3.org/1999/02/22-rdf-syntax-ns#"
   xmlns:svg="http://www.w3.org/2000/svg"
   xmlns="http://www.w3.org/2000/svg"
   xmlns:sodipodi="http://sodipodi.sourceforge.net/DTD/sodipodi-0.dtd"
   xmlns:inkscape="http://www.inkscape.org/namespaces/inkscape"
   version="1.1"
   width="100"
   height="100"
   id="svg4460"
   sodipodi:docname="earth-net.svg"
   inkscape:version="1.0 (4035a4fb49, 2020-05-01)">
  <sodipodi:namedview
     pagecolor="#ffffff"
     bordercolor="#666666"
     borderopacity="1"
     objecttolerance="10"
     gridtolerance="10"
     guidetolerance="10"
     inkscape:pageopacity="0"
     inkscape:pageshadow="2"
     inkscape:window-width="1920"
     inkscape:window-height="1017"
     id="namedview11"
     showgrid="false"
     inkscape:zoom="3.805"
     inkscape:cx="14.414009"
     inkscape:cy="61.153235"
     inkscape:window-x="-8"
     inkscape:window-y="-8"
     inkscape:window-maximized="1"
     inkscape:current-layer="svg4460"
     inkscape:document-rotation="0" />
  <defs
     id="defs4462" />
  <metadata
     id="metadata4465">
    <rdf:RDF>
      <cc:Work
         rdf:about="">
        <dc:format>image/svg+xml</dc:format>
        <dc:type
           rdf:resource="http://purl.org/dc/dcmitype/StillImage" />
        <dc:title />
      </cc:Work>
    </rdf:RDF>
  </metadata>
  <path
     d="M 50 0 C 27.922834 -1.3520777e-07 9.9999999 17.744936 10 39.603516 C 10 60.696278 26.690778 77.954961 47.697266 79.138672 L 47.697266 85 L 40 85 A 2.50025 2.50025 0 0 0 37.5 87.5 L 37.5 90 L 0 90 L 0 95 L 37.5 95 L 37.5 97.5 A 2.50025 2.50025 0 0 0 40 100 L 60 100 A 2.50025 2.50025 0 0 0 62.5 97.5 L 62.5 95 L 100 95 L 100 90 L 62.5 90 L 62.5 87.5 A 2.50025 2.50025 0 0 0 60 85 L 52.697266 85 L 52.697266 79.107422 C 73.47709 77.732945 89.931883 60.626626 89.994141 39.720703 A 1.2 1.1881188 0 0 0 90 39.603516 A 1.2 1.1881188 0 0 0 89.996094 39.498047 C 89.937989 17.688343 72.041308 0 50 0 z M 50 2.3769531 C 51.753049 2.3769531 53.475103 2.5049778 55.164062 2.734375 C 55.092582 2.828896 55.289028 3.0431287 55.976562 3.4335938 L 56.794922 3.7089844 C 57.818082 3.5833654 57.382566 3.236467 56.707031 2.9785156 C 59.210141 3.4243198 61.627478 4.1136711 63.931641 5.0234375 C 63.285032 5.1680557 62.300658 5.2467013 61.328125 5.2089844 C 61.351325 7.1189202 62.20869 12.220763 65.144531 11.294922 C 64.623322 11.408597 66.802717 13.544273 65.675781 13.902344 C 65.076519 17.893756 61.806831 11.239026 60.148438 11.326172 C 57.669477 11.740221 60.618882 12.953707 59.724609 13.548828 C 57.378033 15.544274 61.75572 17.637214 61.402344 14.283203 C 61.689648 16.986948 62.614491 16.904406 64.828125 16.763672 C 59.77118 17.609184 67.64393 19.549662 65.087891 21.169922 C 62.554131 20.938715 61.134406 21.874049 62.566406 24.330078 C 61.893864 26.604185 64.162671 26.702579 64.941406 27.488281 L 65.792969 27.412109 L 66.341797 27.339844 C 66.320507 27.337344 66.298374 27.343144 66.277344 27.339844 C 69.43552 26.378143 67.802385 20.120522 71.167969 20.529297 C 70.463001 22.949141 74.352074 25.254063 72.265625 21.744141 C 70.842961 19.964852 76.879959 23.02345 74.220703 23.898438 C 76.806421 27.278427 74.983684 20.740797 76.910156 22.517578 C 78.161989 24.676803 79.627831 23.068348 79.96875 22.988281 C 80.797214 22.759365 82.048416 23.120242 82.376953 23.3125 C 85.549002 26.311928 79.372282 25.068315 79.28125 27.361328 C 79.616912 28.828822 75.890254 26.968314 75.332031 26.568359 C 73.697366 22.206734 69.973623 26.556757 67.236328 27.257812 C 67.142778 27.330082 64.893657 29.068144 64.628906 29.298828 C 63.987249 33.120033 60.883896 35.444361 59.732422 39.310547 C 59.501367 41.545015 60.24918 44.632975 59.935547 47.042969 C 60.665283 50.13407 63.618823 51.90486 66.193359 53.417969 C 68.130925 54.653484 70.151489 52.285473 72.236328 52.257812 C 74.060632 49.601768 76.979793 51.549615 78.628906 51.353516 C 76.728426 54.31641 80.043484 56.60667 79.105469 59.810547 C 77.635627 61.591008 77.220665 63.957266 76.433594 66.082031 C 69.643619 72.727817 60.311664 76.832031 50 76.832031 C 44.838228 76.832031 39.921278 75.801363 35.445312 73.941406 C 36.294551 73.177554 36.789884 72.038968 37.931641 71.712891 C 43.116713 72.953619 40.857987 66.602797 44.378906 65.166016 C 46.737569 60.885458 39.20734 60.202975 36.519531 58.644531 C 31.973619 57.964502 32.401429 52.486951 28.273438 51.302734 C 24.89274 50.768889 26.118824 45.944996 23.640625 46.203125 C 21.501665 46.596635 20.652977 43.682511 19.460938 43.890625 C 19.173064 44.19123 17.967675 41.935285 16.671875 44.421875 C 13.011851 43.61986 15.573432 39.458417 14.027344 37.128906 C 13.386368 36.062264 15.854528 30.590548 13.208984 33.769531 C 13.104991 33.587781 13.034984 33.339554 12.992188 33.048828 C 13.333884 31.142132 13.818854 29.28638 14.441406 27.492188 C 14.831491 27.063374 15.280211 26.850593 15.773438 27.011719 C 17.729333 26.571373 17.07861 29.61377 17.240234 31.498047 C 18.714585 32.123866 18.025131 25.973023 21.089844 25.830078 C 23.175405 23.505038 25.593992 21.526665 28.128906 19.925781 C 29.118594 20.62389 31.245317 20.539222 32.914062 18.988281 C 31.055094 18.618298 30.921459 17.214583 33.40625 16.662109 C 37.359683 14.979775 31.621704 18.504204 34.849609 19.013672 C 38.353248 20.035514 35.382153 15.997205 37.042969 14.417969 C 35.304287 13.245831 38.096304 8.6880187 35.054688 10.712891 C 36.106623 9.9680506 34.470499 8.5705316 35.410156 8.0253906 C 35.798509 9.1020826 37.754419 10.584088 38.449219 8.0996094 C 40.404301 8.4301818 40.12804 5.6274075 41.183594 4.1191406 C 46.140216 2.3896967 42.037506 7.1452108 41.851562 9.5058594 C 43.446443 14.108209 46.137226 7.7317245 48.972656 7.5742188 C 52.418129 7.690104 52.024143 4.4275898 51.970703 2.6816406 C 51.225972 2.5388267 50.474896 2.4501364 49.720703 2.3828125 C 49.814353 2.382135 49.906189 2.3769531 50 2.3769531 z M 36.703125 6.3105469 C 37.33738 6.2340156 36.33699 7.5969521 34.96875 7.8222656 C 33.144536 9.3283767 34.698947 7.2916084 35.476562 6.9609375 C 36.098059 6.520117 36.491708 6.3360565 36.703125 6.3105469 z M 64.679688 7.3066406 C 64.734008 7.3023706 64.820643 7.3180251 64.951172 7.3613281 C 65.537668 8.3245032 64.299168 7.3365096 64.679688 7.3066406 z M 32.476562 7.7597656 C 33.879564 7.8604122 32.384752 11.10186 30.826172 11.261719 C 29.99058 11.185319 29.421127 12.487774 28.775391 12.914062 C 28.712341 13.199535 28.826597 8.4510406 31.007812 8.2675781 C 31.675035 7.8799439 32.152787 7.7365394 32.476562 7.7597656 z M 52.667969 7.8457031 C 51.952762 7.8752951 51.42118 8.1755952 51.712891 8.9453125 C 52.131059 9.3436061 52.738535 9.4405882 53.292969 9.4433594 C 56.708801 9.0233524 54.241417 7.7806064 52.667969 7.8457031 z M 64.767578 8.4648438 C 64.91897 8.4784827 65.274714 8.6121124 65.933594 8.9414062 C 67.265114 10.604007 64.111545 8.4057314 64.767578 8.4648438 z M 58.189453 9.6855469 C 58.146023 9.7044209 58.110406 9.7840929 58.097656 9.9589844 C 58.72416 10.655146 58.377883 9.6037877 58.189453 9.6855469 z M 60.607422 10.261719 C 60.556622 10.247929 60.551647 10.357481 60.654297 10.705078 C 61.326984 11.463182 60.759931 10.303102 60.607422 10.261719 z M 67.457031 10.269531 C 68.007385 10.267231 69.546872 11.215607 69.236328 12.25 C 67.749544 13.439728 68.437101 12.80269 68.146484 11.484375 C 67.151029 10.612285 67.126815 10.270919 67.457031 10.269531 z M 24.097656 15.080078 C 24.206255 15.092688 24.36169 15.221091 24.574219 15.539062 C 24.042828 17.153486 23.627055 15.025425 24.097656 15.080078 z M 31.525391 16.015625 C 31.624131 16.016825 31.78538 16.096768 32.023438 16.318359 C 31.504092 16.705687 31.229192 16.012019 31.525391 16.015625 z M 77.037109 16.300781 C 77.178173 16.284561 77.456861 16.482736 77.921875 17.013672 C 78.476987 16.110416 81.341253 18.205581 78.855469 18.583984 C 78.386543 20.43572 76.425822 16.371108 77.037109 16.300781 z M 24.154297 17.044922 C 24.206377 17.033432 24.260764 17.065736 24.316406 17.160156 C 23.57023 19.335627 23.789737 17.125372 24.154297 17.044922 z M 72.542969 19.28125 C 72.560759 19.27585 72.587484 19.277703 72.621094 19.283203 C 73.069221 19.356913 74.833483 20.350749 75.537109 21.042969 C 75.968188 21.998057 74.123768 20.295591 73.75 20.40625 C 72.705872 19.634826 72.418451 19.318664 72.542969 19.28125 z M 23.234375 19.298828 C 23.325595 19.316998 23.39752 19.411368 23.417969 19.625 C 22.068232 20.553905 22.839087 19.220125 23.234375 19.298828 z M 77.935547 21.068359 C 78.004657 21.039099 78.20413 21.149538 78.613281 21.53125 C 78.686161 22.499121 77.728164 21.156108 77.935547 21.068359 z M 69.716797 22.902344 C 69.550934 22.928034 69.296202 23.213906 68.949219 23.972656 C 69.916899 25.09176 70.214374 22.825269 69.716797 22.902344 z M 79.90625 23.701172 C 79.725714 23.724412 79.536909 23.924893 79.410156 24.443359 C 80.9151 25.153525 80.447842 23.631461 79.90625 23.701172 z M 50.675781 25.902344 C 50.480797 25.885244 50.208497 25.966854 49.876953 26.238281 C 51.152024 26.89105 51.260741 25.953662 50.675781 25.902344 z M 52.439453 26.498047 C 52.360093 26.468387 52.200937 26.522042 51.931641 26.746094 C 52.209105 27.434146 52.677646 26.587035 52.439453 26.498047 z M 58.791016 30.519531 C 58.714296 30.537801 58.61211 30.622267 58.482422 30.814453 C 58.974296 31.61903 59.123359 30.440352 58.791016 30.519531 z M 18.658203 30.859375 C 18.585093 30.860152 18.540306 31.039314 18.583984 31.554688 C 19.364311 32.474809 18.87748 30.857014 18.658203 30.859375 z M 18.222656 32.166016 C 18.149456 32.153806 18.040355 32.36833 17.894531 33.007812 C 18.335083 34.276145 18.442351 32.202661 18.222656 32.166016 z M 15.988281 32.833984 C 14.434929 32.67502 17.293578 35.390844 17.40625 36.587891 C 20.282033 37.355707 17.003539 38.224519 19.435547 39.195312 C 23.097604 40.500439 20.834665 37.584393 19.28125 36.970703 C 19.890649 36.00242 17.736504 35.288753 16.945312 33.091797 C 16.522472 32.938963 16.210193 32.856694 15.988281 32.833984 z M 61.351562 33.441406 C 61.186273 33.44145 61.004044 33.740259 60.927734 34.638672 C 62.001148 34.894166 61.715179 33.44131 61.351562 33.441406 z M 19.011719 34.087891 C 18.988949 34.082091 18.966659 34.084603 18.949219 34.095703 C 18.865489 34.149213 18.860979 34.406001 19.09375 34.96875 L 19.275391 35.087891 C 19.424825 34.561783 19.171058 34.128456 19.011719 34.087891 z M 58.615234 34.154297 C 58.145252 34.181067 57.841262 34.392313 58.175781 34.943359 L 58.316406 35.007812 L 59.115234 35.007812 C 61.489002 34.929653 59.649211 34.095419 58.615234 34.154297 z M 16.785156 37.041016 C 16.574524 36.997306 16.544988 37.237698 17.048828 38.080078 C 18.587931 38.609541 17.248556 37.137183 16.785156 37.041016 z M 12.488281 37.160156 C 13.021659 39.448151 13.362857 42.108138 14.353516 44.119141 C 15.007932 46.580834 15.489184 43.481948 15.652344 45.421875 C 16.206872 49.086093 13.952052 52.861098 16.728516 56.375 C 18.048756 59.918496 20.947528 62.400997 22.976562 65.486328 C 16.431976 58.788767 12.400391 49.668109 12.400391 39.603516 C 12.400391 38.781296 12.435381 37.969039 12.488281 37.160156 z M 22.060547 39.273438 C 21.868282 39.297357 21.698574 39.49936 21.652344 40.023438 C 23.414904 40.737156 22.637355 39.201682 22.060547 39.273438 z M 24.869141 42.160156 C 24.791311 42.129876 24.710698 42.475398 24.658203 43.517578 L 24.689453 44.091797 C 25.314189 45.742579 25.102565 42.250997 24.869141 42.160156 z M 52.929688 44.484375 C 52.730376 44.462985 52.728322 44.615904 53.28125 45.136719 C 54.759305 45.426712 53.368181 44.53143 52.929688 44.484375 z M 55.078125 44.972656 C 54.986335 44.974056 54.865757 45.039966 54.714844 45.210938 C 55.328044 46.164704 55.475851 44.96637 55.078125 44.972656 z M 54.722656 46.015625 C 54.581928 46.038165 54.38246 46.129237 54.115234 46.330078 C 54.850498 47.115405 55.332449 45.917929 54.722656 46.015625 z M 53.689453 46.167969 C 53.614483 46.160169 53.501024 46.269064 53.345703 46.599609 C 53.785912 47.269913 53.914382 46.191507 53.689453 46.167969 z M 77.066406 53.544922 C 76.991436 53.537122 76.877977 53.646018 76.722656 53.976562 C 77.162865 54.64687 77.291343 53.56846 77.066406 53.544922 z M 42.5 90 L 57.5 90 L 57.5 95 L 42.5 95 L 42.5 90 z "
     style="color:#000000;font-style:normal;font-variant:normal;font-weight:normal;font-stretch:normal;font-size:medium;line-height:normal;font-family:sans-serif;font-variant-ligatures:normal;font-variant-position:normal;font-variant-caps:normal;font-variant-numeric:normal;font-variant-alternates:normal;font-variant-east-asian:normal;font-feature-settings:normal;font-variation-settings:normal;text-indent:0;text-align:start;text-decoration:none;text-decoration-line:none;text-decoration-style:solid;text-decoration-color:#000000;letter-spacing:normal;word-spacing:normal;text-transform:none;writing-mode:lr-tb;direction:ltr;text-orientation:mixed;dominant-baseline:auto;baseline-shift:baseline;text-anchor:start;white-space:normal;shape-padding:0;shape-margin:0;inline-size:0;clip-rule:nonzero;display:inline;overflow:visible;visibility:visible;opacity:1;isolation:auto;mix-blend-mode:normal;color-interpolation:sRGB;color-interpolation-filters:linearRGB;solid-color:#000000;solid-opacity:1;vector-effect:none;fill:#000080;fill-opacity:1;fill-rule:nonzero;stroke:none;stroke-width:2.38809;stroke-linecap:round;stroke-linejoin:round;stroke-miterlimit:4;stroke-dasharray:none;stroke-dashoffset:188.976;stroke-opacity:1;color-rendering:auto;image-rendering:auto;shape-rendering:auto;text-rendering:auto;enable-background:accumulate;stop-color:#000000;stop-opacity:1"
     id="path919" />
</svg>
