<?xml version="1.0" encoding="UTF-8" standalone="no"?>
<svg
   xmlns:dc="http://purl.org/dc/elements/1.1/"
   xmlns:cc="http://creativecommons.org/ns#"
   xmlns:rdf="http://www.w3.org/1999/02/22-rdf-syntax-ns#"
   xmlns:svg="http://www.w3.org/2000/svg"
   xmlns="http://www.w3.org/2000/svg"
   xmlns:sodipodi="http://sodipodi.sourceforge.net/DTD/sodipodi-0.dtd"
   xmlns:inkscape="http://www.inkscape.org/namespaces/inkscape"
   version="1.1"
   width="100"
   height="100"
   id="svg4460"
   sodipodi:docname="uEB35-folder-poi.svg"
   inkscape:version="1.0 (4035a4fb49, 2020-05-01)">
  <sodipodi:namedview
     pagecolor="#ffffff"
     bordercolor="#666666"
     borderopacity="1"
     objecttolerance="10"
     gridtolerance="10"
     guidetolerance="10"
     inkscape:pageopacity="0"
     inkscape:pageshadow="2"
     inkscape:window-width="1920"
     inkscape:window-height="1017"
     id="namedview11"
     showgrid="false"
     inkscape:zoom="5.6568542"
     inkscape:cx="22.293501"
     inkscape:cy="46.920053"
     inkscape:window-x="-8"
     inkscape:window-y="-8"
     inkscape:window-maximized="1"
     inkscape:current-layer="svg4460"
     inkscape:document-rotation="0" />
  <defs
     id="defs4462" />
  <metadata
     id="metadata4465">
    <rdf:RDF>
      <cc:Work
         rdf:about="">
        <dc:format>image/svg+xml</dc:format>
        <dc:type
           rdf:resource="http://purl.org/dc/dcmitype/StillImage" />
        <dc:title />
      </cc:Work>
    </rdf:RDF>
  </metadata>
  <path
     d="M 9.5 9.125 C 7.5670834 9.1251933 6.0001933 10.692083 6 12.625 L 6 33.875 L 3.5 33.875 C 1.3789311 33.874751 -0.25494813 35.745984 0.03125 37.847656 L 6.03125 87.845703 L 6.03125 87.847656 C 6.03859 87.898606 6.0470576 87.949427 6.0566406 88 L 6.0566406 88.003906 C 6.0659606 88.054256 6.0763756 88.104401 6.0878906 88.154297 L 6.0878906 88.15625 C 6.0997976 88.20666 6.1128211 88.256806 6.1269531 88.306641 L 6.1269531 88.310547 C 6.1408291 88.360357 6.155807 88.409847 6.171875 88.458984 L 6.171875 88.460938 C 6.188365 88.510148 6.2059474 88.558988 6.2246094 88.607422 L 6.2246094 88.609375 C 6.2430914 88.657325 6.2626271 88.704865 6.2832031 88.751953 L 6.2832031 88.753906 C 6.3036221 88.801906 6.3251123 88.849446 6.3476562 88.896484 L 6.3476562 88.898438 C 6.3707353 88.944536 6.3948289 88.990118 6.4199219 89.035156 L 6.4199219 89.037109 C 6.4449609 89.082609 6.4710089 89.127539 6.4980469 89.171875 C 6.5083099 89.189545 6.5187269 89.207119 6.5292969 89.224609 C 6.5736099 89.296599 6.6205149 89.366955 6.6699219 89.435547 L 6.671875 89.4375 C 6.702215 89.4792 6.733472 89.52023 6.765625 89.560547 L 6.765625 89.5625 C 6.831109 89.64367 6.9001888 89.721873 6.9726562 89.796875 L 6.9746094 89.798828 C 7.0102574 89.836088 7.0467254 89.872558 7.0839844 89.908203 L 7.0859375 89.910156 C 7.1616175 89.982006 7.240472 90.050432 7.3222656 90.115234 C 7.4041186 90.180194 7.4888385 90.241451 7.5761719 90.298828 C 7.5930099 90.309388 7.6099381 90.319808 7.6269531 90.330078 C 7.6540501 90.348038 7.6813974 90.365622 7.7089844 90.382812 L 7.7109375 90.382812 C 7.7271405 90.392014 7.7434166 90.401176 7.7597656 90.410156 C 7.8186976 90.444456 7.8786189 90.477012 7.9394531 90.507812 C 7.9550191 90.515714 7.9706451 90.52355 7.9863281 90.53125 L 7.9882812 90.53125 C 8.0827453 90.57657 8.1791965 90.61763 8.2773438 90.654297 C 8.4151634 90.705427 8.5560675 90.747837 8.6992188 90.78125 C 8.7089687 90.78385 8.7187386 90.786463 8.7285156 90.789062 L 8.7304688 90.789062 C 8.7810127 90.800602 8.8318061 90.811023 8.8828125 90.820312 L 8.8847656 90.820312 C 9.0390526 90.847673 9.1950023 90.864634 9.3515625 90.871094 L 9.3535156 90.871094 C 9.4023226 90.873294 9.4511449 90.8749 9.5 90.875 L 90.5 90.875 C 91.026862 90.875096 91.54695 90.756257 92.021484 90.527344 C 92.163271 90.459174 92.3003 90.381525 92.431641 90.294922 C 92.738377 90.092177 93.011254 89.84237 93.240234 89.554688 L 93.240234 89.552734 C 93.337994 89.429972 93.427391 89.300774 93.507812 89.166016 C 93.561424 89.075836 93.610952 88.983298 93.65625 88.888672 C 93.67879 88.841632 93.700283 88.794092 93.720703 88.746094 L 93.720703 88.744141 C 93.741303 88.696401 93.760847 88.648211 93.779297 88.599609 L 93.779297 88.597656 C 93.834297 88.450461 93.879318 88.299729 93.914062 88.146484 C 93.925634 88.095294 93.936053 88.043848 93.945312 87.992188 C 93.954112 87.944176 93.96194 87.895988 93.96875 87.847656 L 99.96875 37.847656 C 100.25487 35.746027 98.621016 33.874763 96.5 33.875 L 94 33.875 L 94 21.375 C 93.999807 19.442083 92.432917 17.875193 90.5 17.875 L 40.75 17.875 L 40.75 12.625 C 40.749807 10.692083 39.182917 9.1251933 37.25 9.125 L 9.5 9.125 z M 13 16.125 L 33.75 16.125 L 33.75 21.375 C 33.750193 23.307917 35.317083 24.874807 37.25 24.875 L 87 24.875 L 87 33.875 L 13 33.875 L 13 16.125 z M 50 39.955078 C 58.560966 39.955077 65.574219 46.94982 65.574219 55.486328 C 65.57422 57.542387 65.16505 59.507748 64.427734 61.308594 C 64.262639 61.783251 64.073357 62.247059 63.832031 62.683594 L 51.886719 83.013672 C 50.625561 84.723223 49.616369 85.098665 48.099609 83.117188 L 37.269531 64.394531 C 35.481488 61.867377 34.425781 58.793879 34.425781 55.486328 C 34.425781 46.949821 41.439035 39.955078 50 39.955078 z M 50 47.232422 C 45.390166 47.232422 41.722656 50.889665 41.722656 55.486328 C 41.722656 60.082993 45.390166 63.738281 50 63.738281 C 54.609832 63.738281 58.277344 60.082993 58.277344 55.486328 C 58.277343 50.889665 54.609832 47.232422 50 47.232422 z "
     style="color:#000000;font-style:normal;font-variant:normal;font-weight:normal;font-stretch:normal;font-size:medium;line-height:normal;font-family:sans-serif;font-variant-ligatures:normal;font-variant-position:normal;font-variant-caps:normal;font-variant-numeric:normal;font-variant-alternates:normal;font-variant-east-asian:normal;font-feature-settings:normal;font-variation-settings:normal;text-indent:0;text-align:start;text-decoration:none;text-decoration-line:none;text-decoration-style:solid;text-decoration-color:#000000;letter-spacing:normal;word-spacing:normal;text-transform:none;writing-mode:lr-tb;direction:ltr;text-orientation:mixed;dominant-baseline:auto;baseline-shift:baseline;text-anchor:start;white-space:normal;shape-padding:0;shape-margin:0;inline-size:0;clip-rule:nonzero;display:inline;overflow:visible;visibility:visible;isolation:auto;mix-blend-mode:normal;color-interpolation:sRGB;color-interpolation-filters:linearRGB;solid-color:#000000;solid-opacity:1;vector-effect:none;fill:#000080;fill-opacity:1;fill-rule:nonzero;stroke:none;stroke-width:7;stroke-linecap:butt;stroke-linejoin:round;stroke-miterlimit:4;stroke-dasharray:none;stroke-dashoffset:0;stroke-opacity:1;color-rendering:auto;image-rendering:auto;shape-rendering:auto;text-rendering:auto;enable-background:accumulate;stop-color:#000000"
     id="path882-8" />
</svg>
