<?xml version="1.0" encoding="UTF-8" standalone="no"?>
<svg
   xmlns:dc="http://purl.org/dc/elements/1.1/"
   xmlns:cc="http://creativecommons.org/ns#"
   xmlns:rdf="http://www.w3.org/1999/02/22-rdf-syntax-ns#"
   xmlns:svg="http://www.w3.org/2000/svg"
   xmlns="http://www.w3.org/2000/svg"
   xmlns:sodipodi="http://sodipodi.sourceforge.net/DTD/sodipodi-0.dtd"
   xmlns:inkscape="http://www.inkscape.org/namespaces/inkscape"
   inkscape:version="1.0 (4035a4fb49, 2020-05-01)"
   sodipodi:docname="uEB30-world-folder-o.svg"
   id="svg4460"
   height="100"
   width="100"
   version="1.1">
  <sodipodi:namedview
     inkscape:document-rotation="0"
     inkscape:current-layer="svg4460"
     inkscape:window-maximized="1"
     inkscape:window-y="-8"
     inkscape:window-x="-8"
     inkscape:cy="50.376725"
     inkscape:cx="24.058204"
     inkscape:zoom="8"
     showgrid="false"
     id="namedview11"
     inkscape:window-height="1017"
     inkscape:window-width="1920"
     inkscape:pageshadow="2"
     inkscape:pageopacity="0"
     guidetolerance="10"
     gridtolerance="10"
     objecttolerance="10"
     borderopacity="1"
     bordercolor="#666666"
     pagecolor="#ffffff" />
  <defs
     id="defs4462" />
  <metadata
     id="metadata4465">
    <rdf:RDF>
      <cc:Work
         rdf:about="">
        <dc:format>image/svg+xml</dc:format>
        <dc:type
           rdf:resource="http://purl.org/dc/dcmitype/StillImage" />
        <dc:title />
      </cc:Work>
    </rdf:RDF>
  </metadata>
  <path
     id="path882"
     style="color:#000000;font-style:normal;font-variant:normal;font-weight:normal;font-stretch:normal;font-size:medium;line-height:normal;font-family:sans-serif;font-variant-ligatures:normal;font-variant-position:normal;font-variant-caps:normal;font-variant-numeric:normal;font-variant-alternates:normal;font-variant-east-asian:normal;font-feature-settings:normal;font-variation-settings:normal;text-indent:0;text-align:start;text-decoration:none;text-decoration-line:none;text-decoration-style:solid;text-decoration-color:#000000;letter-spacing:normal;word-spacing:normal;text-transform:none;writing-mode:lr-tb;direction:ltr;text-orientation:mixed;dominant-baseline:auto;baseline-shift:baseline;text-anchor:start;white-space:normal;shape-padding:0;shape-margin:0;inline-size:0;clip-rule:nonzero;display:inline;overflow:visible;visibility:visible;opacity:1;isolation:auto;mix-blend-mode:normal;color-interpolation:sRGB;color-interpolation-filters:linearRGB;solid-color:#000000;solid-opacity:1;vector-effect:none;fill:#000080;fill-opacity:1;fill-rule:nonzero;stroke:none;stroke-width:7;stroke-linecap:butt;stroke-linejoin:round;stroke-miterlimit:4;stroke-dasharray:none;stroke-dashoffset:0;stroke-opacity:1;color-rendering:auto;image-rendering:auto;shape-rendering:auto;text-rendering:auto;enable-background:accumulate;stop-color:#000000;stop-opacity:1"
     d="m 9.500012,9.125 c -1.9329166,1.933e-4 -3.4998067,1.567083 -3.5,3.5 v 21.25 h -2.5 c -2.1210689,-2.49e-4 -3.7549481,1.870984 -3.46874997,3.972656 L 6.031262,87.845703 v 0.002 C 6.038602,87.898653 6.04707,87.949427 6.056653,88 v 0.0039 c 0.00932,0.05035 0.019735,0.100495 0.03125,0.150391 v 0.002 c 0.011907,0.05041 0.024931,0.100556 0.039063,0.150391 v 0.0039 c 0.013876,0.04981 0.028854,0.0993 0.044922,0.148437 v 0.002 c 0.01649,0.04921 0.034072,0.09805 0.052734,0.146484 v 0.002 c 0.018482,0.04795 0.038018,0.09549 0.058594,0.142578 v 0.002 c 0.020419,0.048 0.041909,0.09554 0.064453,0.142578 v 0.002 c 0.023079,0.0461 0.047173,0.09168 0.072266,0.136718 v 0.002 c 0.025039,0.0455 0.051087,0.09043 0.078125,0.134766 0.010263,0.01767 0.02068,0.03524 0.03125,0.05273 0.044313,0.07199 0.091218,0.142346 0.140625,0.210938 l 0.00195,0.002 c 0.03034,0.0417 0.061597,0.08273 0.09375,0.123047 v 0.002 c 0.065484,0.08117 0.1345637,0.159373 0.2070312,0.234375 l 0.00195,0.002 c 0.035648,0.03726 0.072116,0.07373 0.109375,0.109375 l 0.00195,0.002 c 0.07568,0.07185 0.1545345,0.140276 0.2363281,0.205078 0.081853,0.06496 0.1665729,0.126217 0.2539063,0.183594 0.016838,0.01056 0.033766,0.02098 0.050781,0.03125 0.027097,0.01796 0.054444,0.03554 0.082031,0.05273 h 0.00195 c 0.016203,0.0092 0.032479,0.01836 0.048828,0.02734 0.058932,0.0343 0.1188533,0.06686 0.1796875,0.09766 0.015566,0.0079 0.031192,0.01574 0.046875,0.02344 h 0.00195 c 0.094464,0.04532 0.1909154,0.08638 0.2890626,0.123047 0.1378197,0.05113 0.2787238,0.09354 0.421875,0.126953 0.00975,0.0026 0.01952,0.0052 0.029297,0.0078 h 0.00195 c 0.050544,0.01154 0.1013373,0.02196 0.1523437,0.03125 h 0.00195 c 0.154287,0.02736 0.3102367,0.04432 0.4667969,0.05078 h 0.00195 c 0.048807,0.0022 0.097654,0.0034 0.1465091,0.0035 H 90.500012 c 0.526862,9.6e-5 1.04695,-0.118743 1.521484,-0.347656 0.141787,-0.06817 0.278816,-0.145819 0.410157,-0.232422 0.306736,-0.202745 0.579613,-0.452552 0.808593,-0.740234 v -0.002 c 0.09776,-0.122762 0.187155,-0.25196 0.267578,-0.386718 0.05361,-0.09018 0.10314,-0.182718 0.148438,-0.277344 0.02254,-0.04704 0.04403,-0.09458 0.06445,-0.142578 v -0.002 c 0.0206,-0.04774 0.04014,-0.09593 0.05859,-0.144532 v -0.002 c 0.055,-0.147195 0.100021,-0.297927 0.134765,-0.451172 0.01157,-0.05119 0.02199,-0.102636 0.03125,-0.154296 0.0088,-0.04801 0.01663,-0.0962 0.02344,-0.144532 l 6,-50 C 100.25488,35.745917 98.621028,33.874763 96.500012,33.875 h -2.5 v -12.5 c -1.93e-4,-1.932917 -1.567083,-3.499807 -3.5,-3.5 h -49.75 v -5.25 c -1.93e-4,-1.932917 -1.567083,-3.4998067 -3.5,-3.5 z M 7.5097776,40.875 H 92.490246 l -5.044922,43 H 12.5547 Z"
     sodipodi:nodetypes="cccccccccccccccccccccccccccccscccccccccccccccccccccccccccsccccccccccccccccccccc" />
  <path
     id="path913"
     style="color:#000000;font-style:normal;font-variant:normal;font-weight:normal;font-stretch:normal;font-size:medium;line-height:normal;font-family:sans-serif;font-variant-ligatures:normal;font-variant-position:normal;font-variant-caps:normal;font-variant-numeric:normal;font-variant-alternates:normal;font-variant-east-asian:normal;font-feature-settings:normal;font-variation-settings:normal;text-indent:0;text-align:start;text-decoration:none;text-decoration-line:none;text-decoration-style:solid;text-decoration-color:#000000;letter-spacing:normal;word-spacing:normal;text-transform:none;writing-mode:lr-tb;direction:ltr;text-orientation:mixed;dominant-baseline:auto;baseline-shift:baseline;text-anchor:start;white-space:normal;shape-padding:0;shape-margin:0;inline-size:0;clip-rule:nonzero;display:inline;overflow:visible;visibility:visible;opacity:1;isolation:auto;mix-blend-mode:normal;color-interpolation:sRGB;color-interpolation-filters:linearRGB;solid-color:#000000;solid-opacity:1;vector-effect:none;fill:#000080;fill-opacity:1;fill-rule:nonzero;stroke:none;stroke-width:3.75287;stroke-linecap:round;stroke-linejoin:round;stroke-miterlimit:4;stroke-dasharray:none;stroke-dashoffset:20;stroke-opacity:1;color-rendering:auto;image-rendering:auto;shape-rendering:auto;text-rendering:auto;enable-background:accumulate;stop-color:#000000;stop-opacity:1"
     d="m 89.021609,40.654694 c -9.122567,0.01504 -18.281518,0.0022 -27.418078,0.0065 -6.778653,0 -13.557305,0 -20.335958,0 0.847838,0.23789 1.824831,0.674977 2.23576,1.259775 -0.352648,0.149848 0.569831,0.14961 0.210771,0.515541 -0.394551,0.366595 -0.446255,0.740252 -0.300343,1.149756 -0.243256,0.288483 -0.328928,0.373394 0.104179,0.585851 0.02006,0.371346 -1.13922,-0.05658 -0.342495,0.351884 0.284,0.765398 -1.144594,-0.04383 -1.038374,0.475963 0.578633,-0.380645 0.997861,0.563773 0.522236,0.414821 -0.25721,-0.245712 -0.740284,-0.415465 -0.226192,0.01146 0.446493,0.190831 0.671326,0.89279 0.463744,1.091021 -0.408669,-0.09318 -0.913767,0.02762 -0.1352,0.101635 -0.08911,0.554815 -1.183327,0.886251 -1.872576,1.072383 -0.700502,0.324302 -0.926503,1.098765 -1.885073,1.175174 -0.28253,0.351622 -0.200991,0.925665 -0.556257,1.135989 0.198059,0.557289 -0.492311,1.283866 -0.991083,0.602853 -0.933323,-0.09996 -1.015921,-1.077784 -1.360912,-1.633862 -0.443925,-0.572795 -0.337751,-1.385913 0.298809,-1.814897 0.253456,-0.440806 -0.396098,-0.578038 -0.420444,-0.150871 -1.01898,0.240153 -0.537707,-1.036623 0.264535,-0.684168 0.240817,0.07346 -0.374669,-0.650966 -0.645483,-0.283751 -0.49948,-0.268213 0.328195,-0.90315 -0.242791,-1.291809 -0.2664,-0.579223 -0.34315,-1.3603 -1.147107,-1.622706 -0.408302,-0.330748 -0.740203,0.135865 -1.188246,0.116329 -0.688223,-0.06234 -0.517373,-0.656129 -1.044552,-0.840023 0.374186,-0.348858 0.575043,-0.448519 -0.05602,-0.65705 -0.911263,-0.592109 1.053843,-1.063411 0.943957,-1.081317 -7.263947,-0.0026 -14.541376,0.0053 -21.796897,-0.0038 25.986683,-7.89e-4 51.97347,-0.0018 77.960092,-0.0026 z m -58.850802,0.525234 c 0.717827,0.0215 0.894158,0.47636 0.346413,0.670348 -0.20333,0.365492 -0.35769,0.490871 -0.06557,0.795186 -0.224244,0.305687 -0.771417,0.52772 -0.948053,0.212511 -0.536188,0.18064 -1.37798,-0.133443 -1.707153,0.265616 0.569442,0.58501 2.230649,-0.47636 2.176913,0.532268 0.02574,0.89409 -1.65682,0.349835 -2.411514,0.444337 -0.846024,-0.173219 -0.04258,-1.310307 -1.113715,-1.232354 -0.863,-0.679241 0.370975,-0.66212 0.819143,-0.327939 0.455662,0.162736 0.558111,0.129909 0.808281,-0.246848 0.359366,-0.134272 -0.416399,-0.707641 0.320516,-0.867582 0.557891,-0.176306 1.197615,-0.121238 1.77475,-0.245543 z m -7.430185,0.177219 c 1.213616,-0.203739 0.375601,1.299389 -0.235308,0.5019 -0.60702,-0.147315 -0.225789,-0.534772 0.235308,-0.5019 z m 2.588849,0.04367 c 1.168833,-0.01405 -0.286965,0.772427 -0.449699,0.140692 0.06645,-0.129128 0.303347,-0.126783 0.449699,-0.140692 z m 0.960574,0.0038 c 0.480873,-0.0097 0.335775,0.392826 0.780623,0.434095 -0.04651,0.642328 -1.743201,-0.460353 -0.780623,-0.434095 z m 24.74053,0.08476 c 1.14842,-0.176984 0.289166,0.610914 0.196205,1.098066 -0.289234,0.383915 -0.610448,-0.374056 -0.728938,-0.543189 0.254761,-0.203995 -0.519071,-0.664916 0.308166,-0.554279 -0.05629,-5.47e-4 0.299933,-5.98e-4 0.224567,-5.98e-4 z m 1.32204,0 c 0.589399,0.02268 0.892118,0.419439 0.283742,0.629637 -0.293913,0.262132 -1.013246,-0.569106 -0.283742,-0.629598 z m 17.275195,0 c 0.628754,0.194574 -0.75144,0.179238 0,0 z m -45.463068,0.197766 c 0.575371,-0.02407 0.394295,0.963293 0.08366,0.312062 -0.03677,-0.102068 -0.0892,-0.204015 -0.08366,-0.312062 z m 46.271344,0.08219 c 0.696872,0.06488 0.528433,0.893264 1.442205,0.758614 1.167429,0.248504 0.908116,1.442382 -0.04457,1.774049 0.101657,0.300184 0.647025,0.08626 0.71258,0.224496 0.311917,0.234422 1.202479,-0.04929 1.40814,0.429188 0.84196,0.399986 0.53707,-0.827433 1.323266,-0.321905 1.267708,-0.04171 0.498157,1.111986 1.12685,1.512799 0.238105,-0.134468 0.285872,-0.854729 0.669961,-0.309715 0.394275,0.08393 1.508157,0.05419 1.078562,-0.380111 0.27814,-0.616759 1.576256,-0.151897 2.211601,0.0011 0.435326,0.394666 0.833987,0.847772 1.679046,0.669673 0.958085,-0.27189 0.574077,1.059727 1.451478,0.63102 0.490909,0.215965 0.800833,-0.0115 1.18708,-0.144013 0.268502,0.140279 -0.241386,0.693774 0.418515,0.515182 -0.495236,-0.843333 1.160849,-0.401565 1.663084,-0.235433 0.789066,0.377698 1.355994,1.018378 2.259364,1.240734 0.109221,0.519923 -0.02296,1.655758 -0.922939,0.895557 -0.394272,-0.67236 -1.590157,0.235564 -1.0111,0.741752 -0.113879,0.460761 -1.223203,0.186154 -1.527853,0.717465 -0.300155,0.426642 -0.665088,0.284701 -1.096625,0.253397 -0.195614,0.227759 -0.354449,0.22607 -0.508736,0.143823 -0.390374,0.202203 -0.40241,0.114248 -0.102445,0.285199 -0.203279,0.432436 -0.672554,-0.048 -0.36067,0.465009 0.117296,0.583194 -0.470148,0.971472 -0.723402,1.451353 -0.364981,0.09352 -0.779199,1.053937 -1.05392,0.695727 0.615412,-0.549327 -0.406853,-1.458324 0.316428,-2.023239 0.32924,-0.528898 1.16402,-0.898161 1.420299,-1.403099 -0.485889,0.297843 -0.799038,0.475883 -0.80326,-0.08736 -0.615994,-0.01788 -1.04117,0.590698 -0.952469,0.92114 -0.792315,0.235743 -1.106088,-0.263778 -1.928004,-0.04162 -1.046642,-0.165317 -1.38535,0.793491 -2.08303,1.185425 -0.525447,0.310592 0.442986,0.423072 0.69498,0.334894 0.357668,0.353094 0.459914,0.08441 0.62934,-0.02597 0.249502,0.472596 0.318474,1.180882 0.381027,1.623107 -0.634059,-0.389598 0.07412,0.65913 -0.448812,0.705564 0.19168,0.393689 1.364724,0.435257 0.441512,0.791999 -0.2687,0.262333 -0.898363,-0.05115 -0.547302,0.462714 0.157982,0.787765 -0.422716,1.444457 -1.455318,1.544936 -0.604699,-0.04544 -1.05129,0.971433 -1.235019,0.196516 -0.159084,-0.633639 1.310479,-0.59317 1.635512,-1.085294 0.941751,-0.151502 0.280417,-1.205392 0.918585,-1.629675 0.01615,-0.4713 0.276739,-1.542056 -0.05265,-1.67699 -0.01428,0.803026 -0.685333,1.493105 -1.371754,2.054505 -0.47193,0.172319 -1.032999,0.09376 -1.186933,0.611131 -0.727898,0.225163 0.174966,0.542535 0.03883,0.941682 0.05611,0.303485 -1.001681,0.700881 -0.784745,0.174791 0.187926,-0.505517 -0.524572,-0.419273 -0.283032,-0.87547 -0.510076,0.08034 -1.101086,0.354106 -0.703624,-0.233033 -0.227783,0.07747 -1.121914,0.572096 -0.347211,0.626773 0.66981,-0.171799 0.796127,0.230621 0.128861,0.390396 -0.169315,0.512328 0.7133,1.082262 0.166476,1.601219 -0.40536,0.735979 -1.312388,1.125269 -2.269306,1.320246 0.0013,0.284411 -0.641291,0.94723 -0.691589,0.339938 0.469607,-0.242739 0.308055,-0.521646 -0.180353,-0.239498 -0.54167,0.512264 1.408466,1.344318 0.144858,1.827573 -0.340106,0.287127 -0.662,0.412842 -0.850005,0.0099 -0.381038,-0.101552 -0.778154,-0.81191 -0.736265,-0.103304 -0.172971,0.5915 1.293697,1.061052 0.716217,1.59425 -0.834134,-0.280946 -1.177496,-1.150617 -1.203652,-1.805822 -0.117008,-0.412559 -0.404943,-0.975456 -0.998029,-0.638051 -0.222824,-0.489066 -0.441446,-1.552964 -1.390089,-1.057289 -0.545312,0.348438 -1.122435,0.749839 -1.683667,1.123481 -0.465027,0.559854 0.96783,1.440622 -0.135741,1.654279 -0.258721,-0.337562 0.285645,-1.100448 -0.4229,-0.446045 -0.71047,-0.123066 -0.831389,-1.165851 -1.16064,-1.682276 0.03746,-0.502981 -0.30054,-0.541169 -0.804432,-0.682268 -0.323306,-0.847127 -1.558672,-0.614704 -2.434481,-0.741432 -0.866665,-0.136748 1.197857,0.609003 0.146165,0.967199 -0.431833,0.58933 -1.333637,0.794103 -2.051012,1.112876 -0.442972,0.06319 -1.769929,0.530739 -0.654295,0.533606 0.452234,-0.09947 1.432097,-0.401848 1.037922,0.272858 -0.304272,0.734665 -1.023774,1.305643 -1.794984,1.764418 -0.624241,0.421226 -0.861162,1.093355 -0.50916,1.686485 0.282876,0.680165 -0.06638,1.278159 -0.920248,1.538855 -0.396822,0.413176 0.09689,1.071933 -0.65558,1.386958 -0.317457,0.620132 -0.792464,1.391085 -1.714565,1.551518 -0.761191,0.206206 -1.913414,0.283397 -1.792481,-0.582269 -0.47556,-0.597109 -0.696832,-1.255575 -0.908377,-1.931235 -0.706617,-0.576008 -0.304619,-1.296129 0.0071,-1.909497 0.01346,-0.682781 -0.775802,-1.206577 -1.016925,-1.738302 0.07223,-0.263614 0.373477,-0.821397 -0.194739,-0.828505 -0.588789,0.09663 -0.903733,-0.650221 -1.56966,-0.205806 -0.797589,0.156382 -1.798283,0.361819 -2.48544,-0.103271 -0.583707,-0.441239 -1.522635,-1.037611 -1.474003,-1.661229 0.474664,-0.628695 -0.223178,-1.463932 0.688059,-2.010477 0.764548,-0.452707 0.948303,-1.129458 1.575779,-1.646561 0.778211,-0.615702 -0.797975,-0.345448 -0.450152,-0.991506 -0.18199,-0.637887 0.0473,-1.379521 1.094567,-1.103 0.330578,0.0165 0.773601,0.125241 0.619416,-0.255922 0.345387,-0.554455 -1.271536,-0.74191 -0.514547,-1.034481 0.648943,0.201283 0.134062,-0.449418 0.836401,-0.271826 0.756618,-0.372833 -0.845825,-0.08643 -1.105035,-0.02545 -0.373068,0.09431 0.180766,-0.405781 -0.03241,-0.57791 0.199826,-0.1923 0.09848,-0.282483 0.376828,-0.54872 -0.659389,-0.464056 -0.302368,0.863292 -1.117081,0.707628 -0.686121,0.200387 -0.389527,-0.65973 -0.208106,-0.857737 0.207643,0.01084 0.391155,-0.355126 0.767284,-0.344605 -0.154466,-0.337565 0.165292,-1.374986 0.672032,-0.860979 -0.0051,0.237517 0.610142,0.205536 0.176353,0.561411 0.09948,0.592079 1.094758,0.967968 0.858699,1.592895 0.573039,-0.179704 0.822071,-0.739984 1.450543,-0.872984 -0.253253,-0.344849 -0.199079,-1.18202 0.498159,-1.042108 0.148621,0.436919 -0.581531,1.11016 0.529638,0.964325 0.391386,0.27917 1.012076,-0.39793 1.3196,-0.03925 0.637693,-0.477422 0.204063,-1.489858 1.326535,-1.624665 0.385246,0.104718 1.185252,-0.280802 0.361674,-0.210147 -1.11061,0.599259 -1.785007,-0.638333 -1.02882,-1.212001 0.485556,-0.179835 0.871613,-1.110009 0.05753,-0.743541 -0.02452,0.673247 -1.246654,0.973281 -1.047727,1.687852 0.665447,0.611382 -0.374567,1.060315 -0.424786,1.703342 -0.320667,0.118805 -1.269994,0.588575 -0.946228,-0.0215 0.21875,-0.188007 -0.09303,-0.91638 -0.28989,-0.932245 -0.443504,0.489218 -1.225449,0.330337 -1.106836,-0.330903 -0.327975,-0.758737 0.323755,-1.066923 0.967039,-1.545771 0.610919,-0.51016 0.853637,-1.208439 1.332053,-1.763531 0.419389,-0.619497 1.130173,-1.074913 1.932677,-1.240528 0.339066,-0.526935 1.926109,-0.01756 1.374818,0.433003 0.592242,-0.160902 0.811019,0.376516 1.408008,0.461571 0.805928,0.190788 1.548842,1.300139 0.253227,1.317977 -0.393608,0.01361 -1.23861,-0.513314 -0.732949,0.02439 -0.169347,0.302894 0.525187,0.995866 0.531636,0.707208 -0.416943,-0.30223 -0.01969,-0.628182 0.351485,-0.253515 0.317784,-0.08603 0.394872,-0.878488 1.110301,-0.729759 0.121634,-0.415078 -0.63499,-1.307347 0.439989,-0.862465 0.556819,0.165731 -0.529051,0.756815 0.269022,0.625223 0.313656,-0.389112 1.183023,-0.91853 1.653268,-0.798358 -0.141981,0.460978 0.956169,-0.226543 1.29488,-0.101614 0.0053,-0.260452 -0.879106,-0.475959 -0.390598,-0.72745 0.652622,0.370002 1.493221,0.513582 2.097505,0.929211 -0.292392,-0.497173 -0.672391,-1.141641 -0.142447,-1.636639 0.09064,-0.2684 0.622774,-1.390832 0.874644,-0.765613 -0.489478,0.242016 0.692609,0.13421 0.248251,0.622477 -0.277723,0.889518 0.335413,-0.246951 0.457303,-0.495984 0.275769,0.17271 0.203693,0.812845 0.676777,0.359345 0.368804,-0.209348 1.422997,0.677499 0.730386,0.02159 -0.629268,-0.615887 0.04708,-1.050779 0.897974,-0.971553 0.404646,-0.08702 -0.162426,-0.556016 0.268684,-0.740868 0.433002,-0.304988 1.245103,-0.69163 1.926536,-0.78587 0.438044,0.121743 1.290522,0.142081 0.988676,-0.258571 0.633527,0.05277 0.290879,-0.822087 1.025614,-0.911381 z m -48.533875,0.07448 c 0.66036,0.239929 -0.542426,1.382356 0.363863,0.826629 0.452295,0.04424 1.339766,1.099652 0.996724,0.271329 -0.369844,-0.307441 0.664444,-0.843822 0.502009,-0.231156 0.0069,0.371964 0.946282,0.340149 0.586683,0.889179 0.305194,-0.550525 0.749659,0.351218 -0.01317,0.146476 -0.911012,0.0093 -1.756392,0.785464 -2.437755,-0.0224 -0.440417,-0.22361 -0.07492,-0.449416 -0.663226,-0.355954 -0.221695,-0.237302 0.955219,-0.54666 0.243317,-0.45482 -0.256171,0.54561 -1.578858,0.137742 -0.738385,-0.307874 0.315439,-0.399362 0.600387,-0.629153 1.159947,-0.761407 z m 11.100106,0.03852 c -0.515623,0.179549 0.361803,0.171455 0,0 z m 29.364322,0.475151 c 0.981426,0.498147 -0.715463,0.943693 -1.173127,1.255673 -0.690086,0.561257 -1.326568,1.248357 -1.426843,2.036423 -0.0025,0.364042 0.856375,0.892971 -0.13054,0.760347 -0.487851,-0.02997 -0.422094,-0.558553 -0.87862,-0.632706 0.198572,-0.497327 0.490432,-1.15198 0.825781,-1.743652 0.06209,-0.574865 1.017199,-1.140285 1.761537,-1.194899 0.422902,-0.0504 0.595953,-0.43647 1.021812,-0.481186 z m -40.004224,0.01669 c 0.682337,0.250724 -0.474426,0.203784 0,0 z m 3.460734,0.138693 c 0.512892,0.256718 0.229318,0.806427 0.277614,1.208253 -0.258252,0.117935 -1.014179,0.07881 -0.751444,-0.356408 -0.703565,0.192719 -0.03868,-0.525148 -0.704407,-0.353019 -0.525949,-0.536473 0.239544,-0.313521 0.412705,-0.292611 0.218479,-0.357338 0.633747,0.05102 0.765532,-0.206215 z m 17.3505,0.02825 c -0.83575,0.117905 0.513746,0.784093 0.04272,0.06654 l -0.04274,-0.06654 z m 34.846593,0.405806 c 0.507262,0.223622 0.876345,-0.07923 1.38369,0.322752 0.457561,0.176481 1.623526,0.213582 1.268752,0.680204 -0.730005,0.234977 -0.876109,-0.823173 -1.440926,-0.152663 -0.865953,0.563616 -2.285818,-0.200446 -1.211516,-0.850288 z m -0.589062,0.191343 c 0.330657,0.267598 -0.186318,0.724358 -0.09094,0.142587 0.01902,-0.04471 0.01418,-0.124931 0.09094,-0.142587 z m -50.87673,0.156719 c 1.073175,0.286823 -0.09717,1.280875 -0.29804,0.305685 0.04814,-0.11618 0.124521,-0.272564 0.29804,-0.305685 z m -5.711536,0.725569 c 0.753889,0.118726 1.322632,0.619738 1.779093,0.955008 0.352265,0.136347 0.51564,0.201698 0.650261,0.01019 0.533339,0.460678 0.517106,-0.789333 1.309168,-0.374495 -0.181521,0.666106 -0.193598,1.576004 0.724345,1.896011 0.198904,0.372811 -0.331874,1.013289 -0.98527,0.696772 -0.812452,0.282642 -1.666858,0.286449 -2.295624,-0.172221 -0.868895,-0.195542 0.183036,-0.606664 0.09006,-0.58809 -0.863096,0.150474 -0.718775,-0.969822 -0.806704,-0.959196 -0.246328,0.334655 -0.923078,1.036778 -1.207569,0.315361 -0.706777,-0.400608 0.335308,-1.145476 -0.01885,-1.688567 0.230714,-0.08468 0.508612,-0.09953 0.7611,-0.09081 z m 57.682712,0.166944 c -0.0072,0.325554 1.057899,0.417291 0.517851,0.742489 -0.584644,0.04166 -0.910306,-0.07118 -0.671814,-0.450979 -0.02386,-0.09076 -0.06423,-0.327694 0.153963,-0.29151 z m -51.664933,0.08861 c 1.077256,-0.164197 0.861864,0.786727 0.196418,1.038436 -0.237997,0.522277 0.301526,1.266857 0.509515,1.556162 -0.07703,0.46095 0.698047,-0.103602 0.645569,0.47727 -0.05376,0.256638 0.183586,0.864232 0.289261,0.259813 0.438926,-0.530429 0.06109,-1.025823 -0.589424,-1.230863 -0.45137,-0.553713 -0.365903,-1.5208 0.469588,-1.81211 0.578875,-0.105943 0.355194,0.376796 0.961043,0.02996 0.988097,-0.202828 1.519089,0.46548 1.932582,1.013271 0.593465,0.316296 1.434275,0.728447 1.512905,1.337289 0.337976,0.09374 -0.520946,0.459571 0.201363,0.524782 0.37449,0.128089 1.322082,0.695228 0.84782,1.16069 -0.139149,0.630996 -0.735001,0.236551 -0.923012,-0.132731 -0.355371,0.474208 1.001698,0.865561 0.352365,1.446481 -0.46935,-0.426168 0.06202,0.517845 -0.582629,0.185615 -0.885879,-0.02538 -1.109168,-1.126857 -2.020217,-0.834701 -0.722923,-0.140187 -0.216729,-0.777909 0.383945,-0.581624 0.277832,-0.419016 0.74936,-1.269921 -0.316431,-1.369803 -0.285311,-0.02387 -0.127043,-0.914215 -0.762072,-0.540352 -1.104775,-0.122077 0.08178,0.717254 -0.384001,1.181027 0.161221,0.600316 -1.368179,0.347505 -0.544123,0.756527 0.307238,0.165422 1.450151,0.919653 0.409199,0.806246 -0.342767,-0.210204 -0.949845,0.472196 -1.142802,-0.156512 0.215623,-0.278362 0.256978,-0.671926 -0.01374,-0.223815 -0.660008,0.444159 -1.320023,0.973596 -1.562807,1.643102 -0.01641,0.364713 0.486077,0.584017 0.63203,0.913171 0.732964,0.150332 1.518555,0.559504 2.118686,0.748861 -0.270659,0.413874 0.757269,1.393177 0.604095,0.50914 -0.281898,-0.619048 1.049694,-1.045429 0.141754,-1.633306 -0.266004,-0.274028 0.37847,-0.562561 0.122176,-0.984359 -0.209986,-0.948729 1.39565,-0.283326 1.843686,0.05142 -0.01962,0.45957 0.621942,1.349051 0.889114,0.464238 0.474053,-0.594294 0.722949,0.631587 0.931491,0.907964 0.160122,0.637209 1.404639,0.713381 1.330916,1.418558 -0.08782,0.278183 -0.120161,0.720363 0.447033,0.828194 0.251653,0.384115 0.148561,1.005663 -0.619257,0.640063 -0.487891,-0.05931 -0.987984,-0.132285 -0.56768,-0.598824 0.284527,-0.30334 0.22205,-0.688711 -0.253265,-0.298567 -0.590032,0.04806 -0.277514,0.573155 -0.952928,0.227037 -0.849878,-0.223309 -0.390479,0.05628 0.03482,0.148301 -0.299365,0.548104 0.543939,0.715221 0.879735,0.492755 0.290844,0.508732 -0.964535,0.800712 -1.341935,0.814728 0.179797,-0.619897 -1.391509,0.220824 -0.718111,0.475707 -0.865832,0.03866 -1.264251,0.609555 -1.331179,1.246909 -0.221821,0.587889 -1.747993,0.8249 -1.071018,1.619364 0.361037,0.350669 -0.211029,0.971553 -0.447866,0.346362 0.01107,-0.597147 -1.013707,-0.877428 -1.466552,-0.603196 -0.404864,0.247873 -1.791878,-0.192624 -1.735144,0.681012 -0.361436,0.628162 0.417573,1.866668 1.291675,1.134837 0.128432,-0.515334 1.479603,-0.476896 0.852737,0.140574 -0.586165,0.670966 0.362873,0.413652 0.790516,0.671762 -0.01395,0.526472 0.147886,1.340898 1.07437,1.005991 0.643591,0.195733 1.179852,-0.630628 1.844249,-0.324834 0.808121,0.193556 1.856246,-0.04043 2.418289,0.584516 0.627331,0.549544 2.150736,0.336039 2.08333,1.335343 0.27707,0.08412 0.739397,0.127853 1.020792,0.318581 0.736117,0.302158 2.045545,0.280848 2.270894,0.98369 -0.04178,0.711192 -1.137066,1.131516 -0.933717,1.919557 -0.06181,0.86729 -1.09916,1.011653 -1.835491,1.399924 -0.294952,0.729043 -0.82043,1.506228 -1.636022,1.96163 -0.887001,-0.196555 0.06888,0.745297 -0.86223,0.808687 -0.78948,-0.112723 -0.62639,0.679533 -1.336046,0.617549 0.69529,0.202553 -0.158878,0.807669 -0.515881,1.075563 0.639303,0.308653 0.148488,0.886917 -0.329594,1.217144 -0.104852,0.492557 0.499542,0.972584 0.776175,1.209115 -0.991072,0.324097 -1.741687,-0.158145 -1.955003,-0.871454 -0.135727,-0.543928 -0.145084,-1.118273 -0.295637,-1.516019 0.563189,-0.177776 0.38987,-0.626584 0.184706,-0.824118 0.115646,-0.649642 0.203065,-1.303475 0.496778,-1.923943 0.06991,-0.982018 0.470768,-1.955266 0.313987,-2.943492 -0.624563,-0.478073 -1.45972,-0.865074 -1.717068,-1.612817 -0.580762,-0.497739 -0.603959,-1.00903 -0.467609,-1.621726 0.417849,-0.446211 0.942181,-0.937125 0.477296,-1.50095 -0.498187,0.403447 -1.508922,-0.174094 -1.85813,-0.662463 -0.872955,-0.443108 -1.772488,-0.656305 -2.761617,-0.821397 -0.755541,-0.189244 -1.366227,-0.525268 -1.463865,-1.126204 -0.667775,-0.472405 -1.177407,-1.209431 -1.739329,-1.635882 0.258821,0.541798 0.971465,1.049505 1.131552,1.592665 -0.665343,-0.01775 -0.78424,-0.738854 -1.335624,-0.927992 0.309352,-0.333402 -0.548561,-0.921035 -0.864547,-1.228353 -0.746259,-0.405525 -1.132091,-1.189318 -1.154013,-1.878878 -0.0284,-0.708437 0.200785,-1.55898 -0.792942,-1.943523 -0.0045,-0.633561 -0.693353,-1.159769 -1.0086,-1.775984 -0.451639,-0.429983 -0.945083,-0.703664 -1.612453,-1.006254 -0.485298,-0.08312 -1.423831,-0.446486 -1.661058,-0.411028 0.433305,0.224467 -0.827137,0.535375 -1.001535,0.416662 0.187247,-0.54715 -0.09137,-0.355888 -0.271214,0.04234 0.0047,0.315405 -0.344589,0.53143 0.196995,0.194712 0.465269,0.16065 -0.537807,0.933082 -0.523605,0.669409 0.17989,-0.822929 -0.699499,0.2541 -1.124803,0.30144 -0.08539,0.276896 -1.743129,0.522278 -0.754617,0.02295 0.381467,-0.107023 1.481505,-0.762327 1.069274,-0.916703 -0.274365,-0.131746 -1.011167,0.04688 -0.849702,-0.403215 -0.726763,-0.0077 -1.13054,-1.041543 -0.300128,-1.290068 0.51973,-0.05575 0.761043,-0.590467 0.130693,-0.403867 -0.801346,0.121507 -0.766555,-0.76059 -0.40481,-1.010371 0.297981,-0.126892 0.655912,0.512041 0.605958,-0.06345 -0.675259,-0.23406 -1.245589,-1.015684 -0.330948,-1.220892 0.384278,-0.589952 1.398481,-1.271951 2.234369,-0.863059 0.739512,0.33071 1.668022,0.38207 2.515839,0.53807 0.749379,0.2615 1.469584,0.723353 2.170579,0.08288 0.389166,-0.166163 0.83494,-0.252347 1.06235,-0.306693 0.231927,0.318725 0.328539,0.704017 0.503339,0.145742 0.37936,0.188828 1.323184,0.364863 1.973608,0.558361 0.599913,-0.0334 0.461587,0.45934 0.410112,0.54233 0.773408,-0.05595 1.247056,-0.02018 1.926469,-0.246979 0.403931,0.111685 1.659347,0.489454 1.338348,-0.138655 -0.219852,-0.0097 0.264127,-0.910454 0.47325,-0.495687 0.290599,0.381952 0.85515,0.376376 0.225269,-0.04228 -0.255177,-0.723769 0.267576,-1.468161 0.117476,-2.230524 0.04218,-0.13361 0.191339,-0.245894 0.375562,-0.251985 z m -0.624198,0.200334 c -0.277383,0.492295 0.469225,0.975213 -0.09042,1.411328 -0.543133,0.427863 -0.755614,-0.446378 -1.163786,-0.595187 -0.281581,-0.580282 0.804258,0.158378 0.333746,-0.375666 -0.496002,-0.546165 0.520665,-0.416223 0.920451,-0.440475 z m 45.41955,0.175935 c -0.539268,-0.1157 -0.720623,0.67468 0,0 z m 15.666995,1.167331 c 1.239207,0.328036 -1.049076,0.780052 -0.329927,0.09807 l 0.15957,-0.07982 z M 63.548101,46.10352 c -0.05917,0.263689 -0.192303,1.372604 0.279087,1.12974 -0.514566,-0.223722 0.03134,-0.810563 -0.279087,-1.12974 z m 2.153749,0.05779 c -0.251396,0.411496 0.177722,0.298967 0,0 z m -7.420146,0.697317 c 0.903813,0.20119 -0.568657,0.868658 -0.265252,0.188573 0.0743,-0.06655 0.137573,-0.171898 0.265252,-0.188573 z m -27.4482,0.607424 c 0.731133,0.305722 -0.585402,0.881256 -0.330488,0.195661 0.02323,-0.113446 0.166559,-0.232212 0.330488,-0.195661 z m 32.856843,0.06548 c -0.268829,0.258137 -0.383058,0.945153 0.0063,0.302703 0.03206,-0.08117 0.189785,-0.278125 -0.0063,-0.302703 z m -0.45351,0.675483 c -0.895767,0.08056 0.2476,0.206023 0,0 z m -20.715839,0.04109 c 0.408481,0.655606 1.387399,-0.344008 1.846287,0.25602 0.611216,0.565606 -0.825467,1.368962 -1.446304,0.98956 -0.555565,0.08781 -0.434444,-0.159551 -0.449277,-0.438235 -0.595734,0.131738 0.464677,-0.510587 -0.355058,-0.287172 -0.203435,-0.152042 0.197172,-0.470998 0.404352,-0.520173 z m -21.55927,0.105304 c -0.279391,0.0628 0.255855,0.34383 -0.26793,0.466527 -0.138695,0.250595 0.635875,-0.280789 0.841356,-0.301237 -0.172957,-0.07919 -0.419088,-0.02301 -0.573426,-0.16529 z m 68.061553,1.085142 c 0.12939,0.436624 -0.273693,0.09512 0,0 z m -58.706874,0.05524 c 0.808122,0.377388 -0.595986,0.211999 0,0 z m -0.893632,0.246563 c 0.459826,0.204013 -0.890359,0.629637 -0.274239,0.09511 l 0.140442,-0.07674 0.133771,-0.01835 z m 0.550571,0.224731 c 0.525652,0.17243 -0.485139,0.611578 -0.116478,0.03702 z m -7.364932,0.218312 c -0.388661,0.0039 -0.687465,0.558097 -0.133881,0.186212 -0.01275,-0.0288 0.215807,-0.120048 0.133881,-0.186212 z m 31.631866,0.173371 c -0.288411,0.391387 0.818928,0.371754 0.110014,0.02558 l -0.110206,-0.02558 z m -43.177112,0.331335 c 0.311454,0.140851 -0.155251,0.403229 0,0 z M 52.5233,51.414948 c -0.130373,0.524401 0.553263,0.172051 0,0 z m -0.942153,0.04109 c 0.483914,0.202953 -0.544872,0.637006 -0.148873,0.07062 l 0.04391,-0.05017 0.10503,-0.02045 z m 32.522143,0.861697 c 0.611529,0.198394 -0.190365,0.485239 -0.102802,0.01651 z m -65.696944,0.31591 c 0.419232,0.06398 0.335249,1.129532 -0.04749,0.407195 -0.04852,-0.10839 -0.278464,-0.434828 0.04749,-0.407195 z m -7.341499,0.03596 c 0.221357,2.7e-5 -0.160139,0.320949 0,0 z m 14.843642,0.278672 c -0.0335,0.115609 0.353296,0.478749 0.10604,0.03451 l -0.106083,-0.03451 z m 59.732718,0.07705 c 0.633148,0.19311 -0.751971,0.179913 0,0 z m 2.762893,0.15667 c 0.396584,0.213585 -0.389124,0.182018 0,0 z m 0.394939,0 c 0.400277,0.211737 -0.389882,0.183714 0,0 z m -2.111915,0.09375 c 0.131648,0.311572 -0.666144,0.14851 0,0 z m 1.194856,0.05779 c 0.414127,0.297765 -0.886841,0.05884 -0.09381,0.0039 z m -59.642347,0.983695 c -0.396407,-0.03044 -0.951815,0.54508 -0.231408,0.248668 0.371343,-0.126851 0.304854,0.37814 0.776752,0.07233 0.06709,-0.231054 -0.324906,-0.311527 -0.545344,-0.321 z m 30.527372,0.405799 c -1.309262,0.07074 -0.769003,1.09826 -0.188458,1.573085 -1.02539,0.459545 1.147842,1.112152 0.583125,0.212946 -0.158988,-0.44715 -0.443184,-0.912723 -0.68918,-1.28006 0.342743,-0.239509 1.271094,-0.188171 0.435336,-0.500901 l -0.140808,-0.0053 z m -3.142765,0.05779 c -1.409036,0.21878 0.665095,0.296568 0,0 z m 25.132117,0.06424 c 0.131747,0.311494 -0.666218,0.14855 0,0 z m -26.260035,0.04241 c -0.779153,0.04635 -1.16166,1.534554 0.04519,0.99895 0.608314,-0.390488 1.517511,0.512348 1.98847,-0.06807 -0.413982,-0.498436 -1.158813,-0.621646 -1.785979,-0.624092 -0.22314,-0.06994 0.0423,-0.310363 -0.247671,-0.306779 z m 6.218599,0.05649 c -0.852939,0.07567 0.04582,0.869894 0.144153,0.191085 0.02944,-0.07545 -0.01939,-0.192268 -0.144153,-0.191085 z m -31.553209,0.01795 c 0.06472,0.35855 0.487137,0.815419 0.274301,0.174981 -0.0487,-0.07544 -0.156503,-0.172635 -0.274301,-0.174981 z m 0.512083,0.02439 c -0.175196,0.215432 0.452538,0.129061 0,0 z m 50.639093,0 c 0.31026,0.187219 -0.810039,0.57896 -0.255074,0.125557 l 0.135352,-0.08879 0.119715,-0.03675 z m -29.941658,0.0027 c -0.285179,0.63899 0.956426,0.842292 1.239814,1.31663 -0.07457,0.231252 -0.540091,-0.275134 -0.316655,0.157552 0.01949,0.527853 -1.10197,0.823238 -1.030657,0.237834 1.067623,0.05129 0.391308,-0.607504 -0.163657,-0.776673 -0.32675,-0.429201 -0.660514,-0.684807 -1.244415,-0.301797 -0.689504,-0.223308 -0.742989,0.552234 -1.254352,0.796366 0.209958,0.60267 -1.179607,0.616452 -1.052364,0.878481 1.031736,-0.05187 2.023453,-0.477034 3.10556,-0.390104 0.675634,0.151791 -0.280657,1.049116 0.836724,0.915432 0.479197,0.188034 1.197863,0.78186 1.44089,0.105943 0.818891,-0.279631 1.662555,0.51732 2.571221,0.182096 0.868971,0.363898 1.219992,-1.37906 0.14194,-0.911607 -0.670292,0.07221 -1.491557,-0.171667 -1.43423,-0.721724 0.01929,-0.679376 -0.843419,0.02322 -0.447675,0.350951 -0.547588,0.840871 -0.979303,-0.635428 -1.242964,-0.988312 -0.411955,-0.303847 -0.875453,-0.550497 -1.14918,-0.851063 z m -21.750049,0.03209 c -0.590295,0.07743 -0.1376,1.293336 -0.196165,0.456303 -0.04499,-0.16773 0.206661,-0.323374 0.196165,-0.456303 z m 20.861438,0.608707 c 0.463322,0.194003 -0.03307,1.463569 -0.21939,0.670979 0.02897,-0.218299 0.0061,-0.504117 0.21939,-0.670979 z m 9.69104,0.32747 c -0.159589,0.231608 0.474368,0.09319 0,0 z M 48.232534,56.28087 c 0.370921,0.387495 -0.706313,0.114636 0,0 z m 10.067576,2.248619 c -0.429272,0.30914 0.611021,0.601514 0.563963,0.897024 0.186264,0.421073 1.273563,-0.441898 0.775577,-0.307503 -0.662024,0.13114 -0.918412,-0.364265 -1.33954,-0.589521 z m -13.886425,0.145113 c 0.330141,0.180485 -0.361637,0.280939 0,0 z m -0.530488,0.02952 c 0.821928,0.111744 -0.287372,0.423835 -0.08504,0.04123 l 0.08504,-0.04103 z m 11.187123,0.220883 c 0.08362,0.574733 0.693377,1.199298 0.923584,1.78486 0.0855,0.242067 0.726854,0.844764 0.848949,0.695871 C 56.740817,60.704105 55.996454,60.254693 55.714006,59.63258 55.493379,59.402828 55.43058,59.068117 55.07032,58.925005 Z m -24.804121,0.09632 c 0.433341,0.0624 0.340257,0.394022 -0.0066,0.124564 -0.251778,0.05845 -0.129486,-0.146092 0.0066,-0.124564 z m 44.074088,0.303065 c 0.386693,0.320402 -0.409016,1.218123 -0.356048,0.33876 0.03885,-0.145177 0.185207,-0.274916 0.356048,-0.33876 z m -44.040622,0.01157 c 0.61152,0.28136 -0.394439,0.420422 0,0 z m -0.880241,0.368566 c 0.741184,0.116963 2.117403,0.361727 2.089122,1.014143 -0.386263,0.152048 -0.883885,-0.08284 -0.388876,-0.239786 -0.685933,-0.02959 -1.321478,-0.615169 -1.9111,-0.374864 -0.750958,0.04556 -0.275513,-0.332376 0.210854,-0.399493 z m 1.798978,0.06934 c 0.572858,0.247571 -0.566032,0.246558 0,0 z m -18.732784,0.156671 c 0.397926,0.209317 -0.384895,0.186014 0,0 z m 0.252691,0.07833 c 0.517488,-0.04649 1.144267,0.85543 0.441801,0.43663 0.0067,-0.204168 -0.66539,-0.271477 -0.441801,-0.43663 z m 18.655808,0.07192 c 0.307584,0.152508 -0.413376,0.237768 0,0 z m 0.49367,0.24143 c 0.501777,-0.01525 0.992758,0.501073 0.162777,0.416327 -0.438556,0.373154 -0.560785,-0.446836 -0.162777,-0.416327 z m -1.419098,0.245276 c 1.017044,0.301065 -0.84241,0.214301 0,0 z m 2.40477,0.0053 c 0.803964,0.31127 -0.857625,0.211243 0,0 z m 41.301155,0.0076 c 0.992034,0.02334 -0.274213,0.858869 0.630872,0.836291 0.492616,0.425268 -0.212673,0.248464 -0.435086,0.258984 0.669681,0.0737 0.163538,1.010345 0.884932,0.513664 0.635267,0.280137 -0.09725,1.188844 -0.449726,0.508404 -0.881696,0.157492 0.109859,-0.339997 -0.396037,-0.597233 -0.285769,-0.500922 -0.67216,-1.016406 -0.234955,-1.52011 z m -0.26106,1.312485 c 0.321804,0.380453 -1.112848,0.934908 -0.326552,0.251431 0.09991,-0.08916 0.188611,-0.193524 0.326552,-0.251431 z m 10.3939,0 c 0.359516,0.192695 -0.483205,0.15456 0,0 z m 0.04853,0.323619 c 0.652722,0.303622 -0.394247,0.257472 0,0 z m 0.883589,0.10787 c 0.332907,0.292978 -0.344745,0.123105 0,0 z m -11.953567,0.272247 c 0.176048,0.151311 0.590924,0.298909 0.631221,0.452529 -0.658431,0.262016 0.210226,0.735263 -0.468425,1.006623 -0.0066,0.752687 -1.793366,0.68211 -1.780557,-0.01618 -0.419129,-0.698225 1.023387,-0.676692 1.379924,-1.169809 0.08887,-0.08595 0.158962,-0.1819 0.237837,-0.273141 z m 0.977302,0.237576 c 0.384951,0.219687 -0.247133,0.165613 0,0 z m -5.512396,0.11686 c 0.944587,0.193911 1.462771,0.940227 2.296389,1.166153 0.09442,0.258834 0.842783,0.346677 0.07369,0.313209 -0.485484,0.722468 1.148195,0.427839 1.572597,0.757652 0.555502,0.536953 -1.088785,0.05925 -1.490975,0.05226 -0.700211,-0.237026 -1.252187,-0.729609 -1.655218,-1.22126 -0.12283,-0.314459 -0.472204,-0.467836 -0.816255,-0.628471 -0.147031,-0.09435 -0.37327,-0.505721 0.01977,-0.439549 z m 6.964963,0.540647 c 0.756412,0.229056 -0.209623,0.869913 -0.145592,0.191341 0.01755,-0.05556 0.03696,-0.178986 0.145592,-0.191341 z m -0.624202,0.09246 c 0.531104,0.301112 -1.498443,0.376791 -0.666041,0.428924 0.787271,-0.08644 -0.177798,0.304406 0.179569,0.653548 -0.298035,0.279027 -0.473236,-0.271444 -0.471287,0.243482 -0.636816,-0.01835 -0.469709,-1.249158 0.17127,-1.270197 0.266796,0.04728 0.539193,0.04267 0.786489,-0.05577 z m -20.335967,0.347986 c -0.768988,0.447499 0.514732,0.23884 0,0 z m 21.957555,0.04878 c 0.570874,-0.207107 0.450648,0.709259 0.878315,0.287009 0.233819,-0.249545 0.550352,-0.102603 0.852563,-0.02466 0.823881,0.06017 1.349192,0.817137 2.196778,0.522356 0.280081,-0.372141 1.066759,-0.255887 0.512786,0.12396 -0.39934,0.159616 -1.491874,0.06888 -0.656706,0.543811 0.919346,0.600185 -0.698887,0.257507 -0.911486,-0.09392 -0.391388,-0.09971 -0.780351,0.506385 -1.226515,0.05293 -0.705171,0.142159 -0.356432,-0.142193 -0.408975,-0.450838 -0.448892,-0.19766 -1.965474,-0.467494 -1.380431,-0.948046 l 0.143739,-0.0125 z m 3.243179,0.187495 c 0.369351,0.151871 -0.484119,0.168684 0,0 z m 0.736323,0.07833 c 0.397953,0.20931 -0.384881,0.186009 0,0 z m -4.694072,0.102736 c 1.378361,0.158905 -1.234351,0.47729 -0.554503,0.05773 0.181028,-0.03523 0.367617,-0.05601 0.554503,-0.05773 z m 5.641256,0.463595 c 0.598804,0.160924 0.62294,0.564121 1.214936,0.499539 0.676608,0.287252 -0.302759,0.476378 -0.301682,0.05938 -0.413297,0.07272 -0.684863,-0.332981 -0.945228,-0.505544 l 0.03194,-0.05339 z m -6.156686,0.407088 c 0.662769,0.357815 -1.451652,0.71043 -0.43197,0.181821 0.122246,-0.0843 0.252353,-0.187068 0.43197,-0.181821 z m -1.427465,0.08347 c 0.444218,-0.0622 0.970463,0.138706 0.236743,0.165573 -0.387054,0.113216 -1.512313,-0.06241 -0.557318,-0.158683 l 0.148498,-0.0053 0.172073,-0.0021 z m 4.971868,0.401953 c 0.368336,0.531548 0.645643,1.098956 1.071019,1.574413 0.597565,0.461982 1.361203,1.018175 1.310326,1.725954 0.06703,0.715853 -0.574622,1.339696 -0.820585,1.978778 -0.651572,0.360347 -1.912249,0.414788 -2.287045,-0.252824 -0.373338,-0.328957 -1.082071,-0.32893 -1.306348,-0.816998 -0.712539,-0.37731 -1.663081,-0.05688 -2.311693,0.221423 -0.719066,0.219448 -1.993973,0.527477 -1.759293,-0.468829 -0.07939,-0.626985 -0.586387,-1.205421 -0.324596,-1.85672 0.507126,-0.444507 1.789287,-0.300993 2.032343,-1.077139 0.411697,-0.154679 0.861824,-0.676541 1.321849,-0.306393 0.400471,-0.626642 0.997164,-0.681242 1.81438,-0.429233 -0.408892,0.442134 0.279212,0.93821 0.816375,0.850676 0.24767,-0.349662 -0.07564,-0.931266 0.443268,-1.143108 z m -22.059637,0.150246 c 0.365859,0.01019 -0.233326,0.462694 0,0 z m 1.23837,0.120712 c 0.799535,0.461965 -0.05909,1.296372 -0.128321,1.892442 0.0034,0.771492 -1.363814,0.749722 -1.156799,-0.04806 0.21645,-0.547 0.02743,-1.200994 0.910062,-1.434896 0.115948,-0.145361 0.175573,-0.340017 0.375058,-0.409468 z m -0.925427,0.01157 c 0.534018,0.246085 -0.339871,0.160374 0,0 z m 26.343707,1.397202 c 0.382596,0.03754 1.120928,0.807635 0.306971,0.419502 -0.0903,-0.07587 -0.532674,-0.334362 -0.306971,-0.419502 z m -23.987468,0.15667 c 0.398,0.206332 -0.379739,0.192189 0,0 z m 18.095195,2.668556 c -0.388014,0.216398 0.247908,0.169755 0,0 z m 7.893739,0.02696 c 0.558221,0.156277 0.555388,0.825565 1.235019,0.665193 -0.04192,0.50943 -0.64032,0.804512 -1.040967,1.196879 -0.364955,0.381932 -0.731802,1.108004 -1.466766,1.124468 0.01132,-0.317017 -0.443455,-0.523876 0.181876,-0.82066 0.529288,-0.300462 0.881538,-0.8843 1.464587,-0.881243 -0.441906,-0.280282 0.125033,-0.781624 -0.412344,-1.13982 0.0012,-0.01334 -0.09065,-0.186726 0.0386,-0.144817 z m -5.773458,1.343267 c 1.139615,-0.06974 -0.223269,1.396273 -0.373487,0.332671 -0.197543,-0.251601 0.05841,-0.378171 0.373487,-0.332671 z m -44.89074,6.5558 c 0.271256,0.248006 -0.606928,0.721594 -0.546916,1.169658 -0.285632,0.967777 -0.0891,1.978871 -0.02112,2.959891 0.05065,0.392367 0.306907,0.726518 -0.140584,0.956454 0.108474,0.421962 -0.109966,1.010522 0.678485,0.83412 2.302133,0 4.604262,0 6.90639,0 0.662754,-0.50252 1.313539,-0.918004 1.72753,-1.574025 0.933162,-0.113242 1.316281,-0.780237 2.058705,-1.104473 0.66454,-0.09636 1.78218,-0.111486 1.753472,-0.799863 0.467615,0.06313 0.566414,0.677625 1.264008,0.493696 0.802947,0.03807 1.647481,0.0355 2.255521,-0.312197 0.699689,0.302249 1.841644,0.557387 2.648337,0.280281 0.444006,-0.103718 0.727715,-0.486167 1.236691,-0.374996 0.104074,-0.706267 1.34323,0.893789 1.573496,-0.151949 0.565819,-0.432883 1.338162,-0.608989 1.962821,-0.871559 0.348174,-0.216509 1.237764,-0.747439 1.830669,-0.166066 0.471745,0.604604 1.766399,0.40651 2.593271,0.563932 0.380491,0.09521 0.424588,0.474035 0.877818,0.241922 0.407037,0.434027 1.010226,0.622994 1.166632,0.0094 0.605754,-0.19023 0.924014,-0.538011 0.622605,-1.023599 0.317973,-0.303952 0.894316,0.457176 1.40932,-0.0012 0.460494,0.34913 1.862577,0.385023 1.761791,-0.381597 0.515883,-0.115759 0.791087,0.441515 1.298775,0.06883 0.306003,0.155546 0.774635,-0.271938 0.994793,0.226189 0.640326,0.848907 1.531521,-0.586948 2.095961,0.187317 0.426466,0.09626 1.344219,0.488442 1.219291,-0.217207 0.24931,-0.111474 0.446108,0.412467 0.839544,0.153586 0.58407,-0.02216 0.985125,0.67382 1.184392,-0.0874 0.608539,0.140121 0.960432,-0.138102 1.271009,-0.376745 -0.152908,0.724843 1.140462,0.606695 1.770446,0.755292 0.637323,0.05589 0.756031,0.805011 1.629958,0.661326 0.655877,-0.01874 1.009917,0.366961 1.55834,0.414604 0.534238,0.495267 1.057569,0.852759 1.914462,0.813395 0.597224,0.261056 1.015258,0.552779 0.662308,1.093045 -0.673473,0.553358 -0.828495,1.722023 -2.068916,1.480396 -23.957101,0.0012 -47.937051,0.01723 -71.879874,-2.04e-4 1.974692,0 3.949386,0 5.924077,0 0.796505,-0.345862 1.715367,-0.504446 2.560638,-0.798995 0.293913,-0.294136 0.554106,-0.411482 0.992926,-0.201914 0.641154,0.180544 1.307714,0.36249 1.993883,0.291867 0.370379,0.08962 1.151355,0.458881 1.276373,0.474811 0.09902,-0.536097 0.911759,-0.303662 0.804126,0.17714 0.786936,0.341212 0.337303,-0.549064 0.538392,-0.85466 -0.642866,-0.05286 -0.449834,-1.166331 0.491965,-0.979409 0.493214,-0.01788 0.888619,-0.127234 1.044036,0.338353 0.975256,-0.133218 1.921522,0.02742 2.87483,0.177389 0.653796,0.09114 0.947913,-0.472807 1.521609,-0.014 0.314454,0.07527 0.622272,0.450965 0.476939,-0.03853 -0.402217,-0.375377 -0.797202,-0.765495 -0.353148,-0.976922 -0.547962,-0.08038 0.03024,-0.325789 -0.0691,-0.630412 0.432855,-0.227273 0.908916,-0.664114 1.296096,-0.282918 0.57201,-0.387337 -0.02735,-1.055995 0.660106,-1.415953 0.441068,-0.530634 1.071463,-0.977765 1.856814,-1.185977 z" />
</svg>
