<?xml version="1.0" encoding="UTF-8" standalone="no"?>
<svg
   inkscape:version="1.3.2 (091e20ef0f, 2023-11-25)"
   sodipodi:docname="uEB5A-i3s-file.svg"
   id="svg4460"
   height="100"
   width="100"
   version="1.1"
   xmlns:inkscape="http://www.inkscape.org/namespaces/inkscape"
   xmlns:sodipodi="http://sodipodi.sourceforge.net/DTD/sodipodi-0.dtd"
   xmlns="http://www.w3.org/2000/svg"
   xmlns:svg="http://www.w3.org/2000/svg"
   xmlns:rdf="http://www.w3.org/1999/02/22-rdf-syntax-ns#"
   xmlns:cc="http://creativecommons.org/ns#"
   xmlns:dc="http://purl.org/dc/elements/1.1/">
  <sodipodi:namedview
     inkscape:document-rotation="0"
     inkscape:current-layer="svg4460"
     inkscape:window-maximized="1"
     inkscape:window-y="31"
     inkscape:window-x="0"
     inkscape:cy="46.271302"
     inkscape:cx="68.412584"
     inkscape:zoom="11.313708"
     showgrid="false"
     id="namedview11"
     inkscape:window-height="2105"
     inkscape:window-width="3840"
     inkscape:pageshadow="2"
     inkscape:pageopacity="0"
     guidetolerance="10"
     gridtolerance="10"
     objecttolerance="10"
     borderopacity="1"
     bordercolor="#666666"
     pagecolor="#ffffff"
     inkscape:showpageshadow="2"
     inkscape:pagecheckerboard="0"
     inkscape:deskcolor="#d1d1d1" />
  <defs
     id="defs4462">
    <inkscape:perspective
       sodipodi:type="inkscape:persp3d"
       inkscape:vp_x="-60 : 50 : 1"
       inkscape:vp_y="0 : 1000 : 0"
       inkscape:vp_z="40 : 50 : 1"
       inkscape:persp3d-origin="-10 : 33.333333 : 1"
       id="perspective58" />
    <inkscape:perspective
       sodipodi:type="inkscape:persp3d"
       inkscape:vp_x="-50 : 16.666667 : 0"
       inkscape:vp_y="0 : 999.99997 : 0"
       inkscape:vp_z="50 : 16.666667 : 0"
       inkscape:persp3d-origin="43.546529 : 32.947023 : 1"
       id="perspective1" />
  </defs>
  <metadata
     id="metadata4465">
    <rdf:RDF>
      <cc:Work
         rdf:about="">
        <dc:format>image/svg+xml</dc:format>
        <dc:type
           rdf:resource="http://purl.org/dc/dcmitype/StillImage" />
      </cc:Work>
    </rdf:RDF>
  </metadata>
  <path
     id="path841"
     style="color:#000000;font-style:normal;font-variant:normal;font-weight:normal;font-stretch:normal;font-size:medium;line-height:normal;font-family:sans-serif;font-variant-ligatures:normal;font-variant-position:normal;font-variant-caps:normal;font-variant-numeric:normal;font-variant-alternates:normal;font-variant-east-asian:normal;font-feature-settings:normal;font-variation-settings:normal;text-indent:0;text-align:start;text-decoration:none;text-decoration-line:none;text-decoration-style:solid;text-decoration-color:#000000;letter-spacing:normal;word-spacing:normal;text-transform:none;writing-mode:lr-tb;direction:ltr;text-orientation:mixed;dominant-baseline:auto;baseline-shift:baseline;text-anchor:start;white-space:normal;shape-padding:0;shape-margin:0;inline-size:0;clip-rule:nonzero;display:inline;overflow:visible;visibility:visible;opacity:1;isolation:auto;mix-blend-mode:normal;color-interpolation:sRGB;color-interpolation-filters:linearRGB;solid-color:#000000;solid-opacity:1;vector-effect:none;fill:#000080;fill-opacity:1;fill-rule:nonzero;stroke:none;stroke-width:5;stroke-linecap:round;stroke-linejoin:round;stroke-miterlimit:4;stroke-dasharray:none;stroke-dashoffset:20;stroke-opacity:1;color-rendering:auto;image-rendering:auto;shape-rendering:auto;text-rendering:auto;enable-background:accumulate;stop-color:#000000;stop-opacity:1"
     d="M 13.996094 0 C 12.61544 0.00013804462 11.496232 1.1193467 11.496094 2.5 L 11.496094 70 L 0 70 L 0 92 L 11.496094 92 L 11.496094 97.5 C 11.496232 98.880654 12.61544 99.999862 13.996094 100 L 85.996094 100 C 87.376747 99.999862 88.495956 98.880654 88.496094 97.5 L 88.496094 21.625 C 88.522594 20.512023 88.500093 19.848303 87.763672 19.035156 L 69.460938 0.73242188 C 68.984527 0.25584983 68.335919 -0.0082422718 67.662109 0 L 13.996094 0 z M 16.496094 5 L 65.398438 5 L 66.650391 19.568359 C 66.754393 20.780412 67.715682 21.741701 68.927734 21.845703 L 83.496094 23.097656 L 83.496094 95 L 16.496094 95 L 16.496094 92 L 80 92 L 80 70 L 16.496094 70 L 16.496094 5 z M 39.914062 72.783203 C 41.907113 72.783203 43.347442 73.153431 44.236328 73.896484 C 45.125215 74.639538 45.570312 75.574222 45.570312 76.699219 C 45.570312 77.358939 45.390407 77.955514 45.029297 78.490234 C 44.668187 79.024955 44.121743 79.493708 43.392578 79.896484 C 43.982854 80.042317 44.435548 80.213759 44.748047 80.408203 C 45.25499 80.720702 45.646051 81.132597 45.923828 81.646484 C 46.20855 82.153428 46.351562 82.762372 46.351562 83.470703 C 46.351562 84.35959 46.119573 85.213761 45.654297 86.033203 C 45.18902 86.845701 44.517576 87.473525 43.642578 87.917969 C 42.76758 88.355468 41.61892 88.574219 40.195312 88.574219 C 38.806427 88.574219 37.70985 88.410372 36.904297 88.083984 C 36.105688 87.757596 35.44466 87.283202 34.923828 86.658203 C 34.409941 86.02626 34.014105 85.23459 33.736328 84.283203 L 37.976562 83.720703 C 38.143229 84.574868 38.400826 85.168621 38.748047 85.501953 C 39.102213 85.828341 39.550132 85.990234 40.091797 85.990234 C 40.66124 85.990234 41.132813 85.7819 41.507812 85.365234 C 41.889756 84.948569 42.080078 84.393661 42.080078 83.699219 C 42.080078 82.990887 41.897351 82.441622 41.529297 82.052734 C 41.168187 81.663846 40.673827 81.470703 40.048828 81.470703 C 39.715496 81.470703 39.25716 81.554037 38.673828 81.720703 L 38.892578 78.689453 C 39.128689 78.724175 39.313368 78.740234 39.445312 78.740234 C 40.000867 78.740234 40.462024 78.56315 40.830078 78.208984 C 41.205077 77.854819 41.392578 77.435329 41.392578 76.949219 C 41.392578 76.483942 41.25434 76.111761 40.976562 75.833984 C 40.698785 75.556207 40.316188 75.417969 39.830078 75.417969 C 39.330079 75.417969 38.923827 75.571398 38.611328 75.876953 C 38.298829 76.175563 38.087673 76.702042 37.976562 77.458984 L 33.966797 76.740234 C 34.300129 75.46246 34.93837 74.483288 35.882812 73.802734 C 36.834199 73.122181 38.177956 72.783203 39.914062 72.783203 z M 57.017578 72.783203 C 58.968962 72.783203 60.455732 73.147788 61.476562 73.876953 C 62.504338 74.599173 63.116103 75.750655 63.310547 77.333984 L 58.861328 77.595703 C 58.743273 76.908205 58.493272 76.408202 58.111328 76.095703 C 57.736329 75.783204 57.215493 75.626953 56.548828 75.626953 C 56.000218 75.626953 55.588324 75.744358 55.310547 75.980469 C 55.03277 76.209635 54.892578 76.490886 54.892578 76.824219 C 54.892578 77.067274 55.007162 77.286025 55.236328 77.480469 C 55.45855 77.681857 55.986981 77.869358 56.820312 78.042969 C 58.882807 78.487412 60.35916 78.938152 61.248047 79.396484 C 62.143878 79.847872 62.792536 80.410375 63.195312 81.083984 C 63.605034 81.757594 63.810547 82.512372 63.810547 83.345703 C 63.810547 84.324867 63.539712 85.226348 62.998047 86.052734 C 62.456382 86.879121 61.698782 87.508899 60.726562 87.939453 C 59.754343 88.363063 58.527991 88.574219 57.048828 88.574219 C 54.451613 88.574219 52.654294 88.074216 51.654297 87.074219 C 50.654299 86.074221 50.087022 84.803381 49.955078 83.261719 L 54.445312 82.980469 C 54.542534 83.709634 54.740452 84.264541 55.039062 84.646484 C 55.525172 85.264538 56.220271 85.574219 57.123047 85.574219 C 57.796656 85.574219 58.312718 85.417968 58.673828 85.105469 C 59.041883 84.786025 59.226562 84.418619 59.226562 84.001953 C 59.226562 83.606121 59.052299 83.251952 58.705078 82.939453 C 58.357857 82.626954 57.552948 82.330511 56.289062 82.052734 C 54.219623 81.587458 52.74327 80.97005 51.861328 80.199219 C 50.972442 79.428387 50.529297 78.446394 50.529297 77.251953 C 50.529297 76.467233 50.75369 75.727646 51.205078 75.033203 C 51.66341 74.331816 52.348093 73.782551 53.257812 73.386719 C 54.174477 72.983942 55.427304 72.783203 57.017578 72.783203 z M 24.435547 73.042969 L 29.164062 73.042969 L 29.164062 88.314453 L 24.435547 88.314453 L 24.435547 73.042969 z " />
  <path
     style="color:#000000;font-style:normal;font-variant:normal;font-weight:normal;font-stretch:normal;font-size:medium;line-height:normal;font-family:sans-serif;font-variant-ligatures:normal;font-variant-position:normal;font-variant-caps:normal;font-variant-numeric:normal;font-variant-alternates:normal;font-variant-east-asian:normal;font-feature-settings:normal;font-variation-settings:normal;text-indent:0;text-align:start;text-decoration:none;text-decoration-line:none;text-decoration-style:solid;text-decoration-color:#000000;letter-spacing:normal;word-spacing:normal;text-transform:none;writing-mode:lr-tb;direction:ltr;text-orientation:mixed;dominant-baseline:auto;baseline-shift:baseline;text-anchor:start;white-space:normal;shape-padding:0;shape-margin:0;inline-size:0;clip-rule:nonzero;display:inline;overflow:visible;visibility:visible;opacity:1;isolation:auto;mix-blend-mode:normal;color-interpolation:sRGB;color-interpolation-filters:linearRGB;solid-color:#000000;solid-opacity:1;vector-effect:none;fill:#000080;fill-opacity:1;fill-rule:nonzero;stroke:none;stroke-width:5;stroke-linecap:round;stroke-linejoin:round;stroke-miterlimit:4;stroke-dasharray:none;stroke-dashoffset:20;stroke-opacity:1;color-rendering:auto;image-rendering:auto;shape-rendering:auto;text-rendering:auto;enable-background:accumulate;stop-color:#000000;stop-opacity:1"
     d="m 70.771484,9.1152344 8.609375,8.6093746 -7.927734,-0.68164 z"
     id="path922" />
  <path
     id="path61"
     style="color:#000000;fill:#000080;fill-rule:evenodd;stroke-linejoin:round;-inkscape-stroke:none"
     d="M 37.835938 14.582031 A 1.889954 1.889954 0 0 0 37.259766 14.671875 L 26.146484 18.232422 A 1.889954 1.889954 0 0 0 26.029297 18.294922 A 1.889954 1.889954 0 0 0 25.755859 18.439453 A 1.889954 1.889954 0 0 0 25.451172 18.662109 A 1.889954 1.889954 0 0 0 25.244141 18.898438 A 1.889954 1.889954 0 0 0 25.042969 19.21875 A 1.889954 1.889954 0 0 0 24.935547 19.501953 A 1.889954 1.889954 0 0 0 24.863281 19.878906 A 1.889954 1.889954 0 0 0 24.833984 20.03125 L 24.833984 46.433594 A 1.889954 1.889954 0 0 0 26.146484 48.232422 L 39.927734 52.648438 A 1.889954 1.889954 0 0 0 40.349609 52.726562 A 1.889954 1.889954 0 0 0 40.414062 52.730469 A 1.889954 1.889954 0 0 0 41.039062 52.654297 A 1.889954 1.889954 0 0 0 41.080078 52.648438 L 52.193359 49.087891 A 1.889954 1.889954 0 0 0 53.505859 47.289062 L 53.505859 20.886719 A 1.889954 1.889954 0 0 0 53.494141 20.738281 A 1.889954 1.889954 0 0 0 53.486328 20.632812 A 1.889954 1.889954 0 0 0 53.404297 20.279297 A 1.889954 1.889954 0 0 0 53.361328 20.175781 A 1.889954 1.889954 0 0 0 53.238281 19.927734 A 1.889954 1.889954 0 0 0 53.175781 19.826172 A 1.889954 1.889954 0 0 0 52.939453 19.539062 A 1.889954 1.889954 0 0 0 52.890625 19.496094 A 1.889954 1.889954 0 0 0 52.640625 19.304688 A 1.889954 1.889954 0 0 0 52.535156 19.240234 A 1.889954 1.889954 0 0 0 52.205078 19.091797 A 1.889954 1.889954 0 0 0 52.193359 19.085938 L 38.412109 14.671875 A 1.889954 1.889954 0 0 0 37.835938 14.582031 z M 37.835938 18.457031 L 45.421875 20.886719 L 43.761719 21.417969 L 40.503906 22.460938 L 32.919922 20.03125 L 37.835938 18.457031 z M 28.613281 22.623047 L 38.615234 25.826172 L 38.615234 48.259766 L 28.613281 45.054688 L 28.613281 22.623047 z M 49.726562 23.476562 L 49.726562 45.910156 L 42.394531 48.257812 L 42.394531 25.824219 L 46.201172 24.605469 L 49.726562 23.476562 z " />
  <path
     style="color:#000000;fill:#000080;stroke-linecap:round;stroke-linejoin:round;-inkscape-stroke:none"
     d="m 64.849609,34.191406 a 1.889765,1.889765 0 0 0 -2.041015,1.72461 l -1.398438,16.765625 a 1.889765,1.889765 0 0 0 1.726563,2.039062 1.889765,1.889765 0 0 0 2.039062,-1.724609 l 1.400391,-16.765625 a 1.889765,1.889765 0 0 0 -1.726563,-2.039063 z"
     id="path64" />
  <path
     style="color:#000000;fill:#000080;stroke-linecap:round;stroke-linejoin:round;-inkscape-stroke:none"
     d="m 57.341797,56.802734 -20.076172,2.234375 a 1.889765,1.889765 0 0 0 -1.669922,2.085938 1.889765,1.889765 0 0 0 2.087891,1.669922 l 20.076172,-2.234375 a 1.889765,1.889765 0 0 0 1.669921,-2.087891 1.889765,1.889765 0 0 0 -2.08789,-1.667969 z"
     id="path64-7" />
  <path
     style="color:#000000;fill:#000080;-inkscape-stroke:none"
     d="m 32.792969,54.527344 c -3.395138,0 -6.189453,2.792362 -6.189453,6.1875 0,3.395137 2.794315,6.1875 6.189453,6.1875 3.395137,0 6.1875,-2.792363 6.1875,-6.1875 0,-3.395138 -2.792363,-6.1875 -6.1875,-6.1875 z m 0,3.779297 c 1.352529,0 2.408203,1.055673 2.408203,2.408203 0,1.352529 -1.055674,2.408203 -2.408203,2.408203 -1.35253,0 -2.410157,-1.055674 -2.410157,-2.408203 0,-1.35253 1.057627,-2.408203 2.410157,-2.408203 z"
     id="path1" />
  <path
     style="color:#000000;fill:#000080;-inkscape-stroke:none"
     d="m 62.539062,51.255859 c -3.395137,0 -6.1875,2.792363 -6.1875,6.1875 0,3.395138 2.792363,6.189454 6.1875,6.189453 3.395138,0 6.187501,-2.794315 6.1875,-6.189453 0,-3.395137 -2.792362,-6.1875 -6.1875,-6.1875 z m 0,3.779297 c 1.35253,0 2.408204,1.055674 2.408204,2.408203 0,1.35253 -1.055674,2.408204 -2.408204,2.408203 -1.352529,0 -2.408203,-1.055673 -2.408203,-2.408203 0,-1.352529 1.055674,-2.408203 2.408203,-2.408203 z"
     id="path1-5" />
  <path
     style="color:#000000;fill:#000080;-inkscape-stroke:none"
     d="m 65.001953,25.511719 c -3.395137,0 -6.1875,2.792362 -6.1875,6.1875 0,3.395137 2.792363,6.189453 6.1875,6.189453 3.395137,0 6.1875,-2.794316 6.1875,-6.189453 0,-3.395138 -2.792363,-6.1875 -6.1875,-6.1875 z m 0,3.779297 c 1.35253,0 2.408203,1.055673 2.408203,2.408203 0,1.352529 -1.055673,2.410156 -2.408203,2.410156 -1.35253,0 -2.408203,-1.057627 -2.408203,-2.410156 0,-1.35253 1.055673,-2.408203 2.408203,-2.408203 z"
     id="path1-54" />
</svg>
