<?xml version="1.0" encoding="UTF-8" standalone="no"?>
<svg
   inkscape:version="1.3.2 (091e20ef0f, 2023-11-25)"
   sodipodi:docname="uEAA5-wcs.svg"
   id="svg4460"
   height="100"
   width="100"
   version="1.1"
   xmlns:inkscape="http://www.inkscape.org/namespaces/inkscape"
   xmlns:sodipodi="http://sodipodi.sourceforge.net/DTD/sodipodi-0.dtd"
   xmlns="http://www.w3.org/2000/svg"
   xmlns:svg="http://www.w3.org/2000/svg"
   xmlns:rdf="http://www.w3.org/1999/02/22-rdf-syntax-ns#"
   xmlns:cc="http://creativecommons.org/ns#"
   xmlns:dc="http://purl.org/dc/elements/1.1/">
  <sodipodi:namedview
     inkscape:document-rotation="0"
     inkscape:current-layer="svg4460"
     inkscape:window-maximized="1"
     inkscape:window-y="31"
     inkscape:window-x="0"
     inkscape:cy="50.066298"
     inkscape:cx="61.687956"
     inkscape:zoom="10.19648"
     showgrid="false"
     id="namedview11"
     inkscape:window-height="2105"
     inkscape:window-width="3840"
     inkscape:pageshadow="2"
     inkscape:pageopacity="0"
     guidetolerance="10"
     gridtolerance="10"
     objecttolerance="10"
     borderopacity="1"
     bordercolor="#666666"
     pagecolor="#ffffff"
     inkscape:showpageshadow="2"
     inkscape:pagecheckerboard="0"
     inkscape:deskcolor="#d1d1d1" />
  <defs
     id="defs4462" />
  <metadata
     id="metadata4465">
    <rdf:RDF>
      <cc:Work
         rdf:about="">
        <dc:format>image/svg+xml</dc:format>
        <dc:type
           rdf:resource="http://purl.org/dc/dcmitype/StillImage" />
      </cc:Work>
    </rdf:RDF>
  </metadata>
  <path
     id="rect910"
     style="color:#000000;overflow:visible;fill:#000080;stroke-width:8.653;stroke-linecap:round;stroke-linejoin:round;stroke-dashoffset:20"
     d="M 49.953125 5 C 31.096954 5.0210698 14.253527 16.796033 7.7578125 34.498047 L 2.5 34.498047 C 0.84209785 34.498117 -0.50188289 35.842098 -0.50195312 37.5 L -0.50195312 62.5 C -0.50188289 64.157902 0.84209785 65.501883 2.5 65.501953 L 7.7558594 65.501953 C 14.257743 83.220747 31.12594 94.999394 50 95 C 68.873345 94.998575 85.74055 83.220075 92.242188 65.501953 L 97.5 65.501953 C 99.157901 65.501881 100.50188 64.157901 100.50195 62.5 L 100.50195 37.5 C 100.50188 35.842099 99.157901 34.498119 97.5 34.498047 L 92.244141 34.498047 C 85.742256 16.779253 68.87406 5.0006057 50 5 L 49.953125 5 z M 52.25 10.113281 C 56.990815 10.919863 61.521218 14.825833 65.089844 21.306641 C 66.240161 23.395675 67.269299 25.740006 68.158203 28.28125 L 52.25 28.28125 L 52.25 10.113281 z M 47.75 10.291016 L 47.75 28.28125 L 32.675781 28.28125 C 33.564685 25.740006 34.59187 23.395675 35.742188 21.306641 C 39.101125 15.206634 43.313454 11.392161 47.75 10.291016 z M 37.382812 11.509766 C 35.29121 13.626433 33.411771 16.207531 31.798828 19.136719 C 30.287093 21.882107 28.986257 24.955509 27.917969 28.28125 L 15.808594 28.28125 C 20.790466 20.446062 28.387272 14.450245 37.382812 11.509766 z M 63.851562 11.925781 C 72.309233 14.996949 79.438382 20.805978 84.191406 28.28125 L 72.910156 28.28125 C 71.844073 24.955368 70.544602 21.881501 69.033203 19.136719 C 67.524226 16.39634 65.781936 13.96256 63.851562 11.925781 z M 13.330078 32.78125 L 26.658203 32.78125 C 26.522788 33.342395 26.411541 33.92411 26.291016 34.498047 L 12.580078 34.498047 C 12.818287 33.919155 13.065064 33.345599 13.330078 32.78125 z M 31.306641 32.78125 L 47.75 32.78125 L 47.75 34.498047 L 30.908203 34.498047 C 31.039484 33.924061 31.161231 33.340369 31.306641 32.78125 z M 52.25 32.78125 L 69.525391 32.78125 C 69.670799 33.340369 69.792548 33.924061 69.923828 34.498047 L 52.25 34.498047 L 52.25 32.78125 z M 74.169922 32.78125 L 86.669922 32.78125 C 86.934936 33.345599 87.181713 33.919155 87.419922 34.498047 L 74.535156 34.498047 C 74.415036 33.924081 74.304972 33.342497 74.169922 32.78125 z M 79.125 42.5 C 82.438157 42.5 84.929063 42.899702 86.597656 43.697266 C 88.278242 44.494829 89.162054 45.559155 89.246094 46.890625 L 83.916016 47.019531 C 83.687924 46.2747 83.193771 45.740948 82.4375 45.417969 C 81.693251 45.088397 80.572804 44.923828 79.072266 44.923828 C 77.523737 44.923828 76.309893 45.09792 75.433594 45.447266 C 74.869394 45.671374 74.585938 45.971945 74.585938 46.347656 C 74.585938 46.69041 74.850717 46.982682 75.378906 47.226562 C 76.051136 47.536359 77.684436 47.859151 80.277344 48.195312 C 82.870251 48.531475 84.78506 48.881612 86.021484 49.244141 C 87.269917 49.600077 88.243202 50.090611 88.939453 50.716797 C 89.647696 51.336391 90 52.103323 90 53.019531 C 90 53.850052 89.580528 54.628458 88.740234 55.353516 C 87.899942 56.078573 86.710372 56.618672 85.173828 56.974609 C 83.637299 57.323955 81.724438 57.5 79.431641 57.5 C 76.094474 57.5 73.530804 57.078078 71.742188 56.234375 C 69.953559 55.384081 68.885249 54.146882 68.537109 52.525391 L 73.722656 52.25 C 74.034766 53.205758 74.666905 53.907252 75.615234 54.355469 C 76.575563 54.803686 77.863817 55.027344 79.484375 55.027344 C 81.200973 55.027344 82.491163 54.829079 83.355469 54.433594 C 84.231768 54.031517 84.669937 53.565156 84.669922 53.03125 C 84.669922 52.688496 84.485414 52.397448 84.113281 52.160156 C 83.753157 51.916273 83.115444 51.705313 82.203125 51.527344 C 81.578906 51.408698 80.158288 51.197737 77.9375 50.894531 C 75.080503 50.505638 73.074264 50.027801 71.921875 49.460938 C 70.301297 48.663373 69.492188 47.69183 69.492188 46.544922 C 69.492188 45.806682 69.868741 45.115932 70.625 44.476562 C 71.393259 43.830603 72.493366 43.34007 73.921875 43.003906 C 75.362384 42.667744 77.096282 42.5 79.125 42.5 z M 56.310547 42.746094 C 59.246093 42.746094 61.550182 43.111715 63.224609 43.845703 C 64.909634 44.579692 66.160545 45.70811 66.976562 47.228516 L 60.619141 48.103516 C 60.39659 47.664433 60.163668 47.343783 59.919922 47.140625 C 59.517212 46.799845 59.024276 46.537013 58.441406 46.353516 C 57.858535 46.170018 57.206967 46.078125 56.486328 46.078125 C 54.854292 46.078125 53.603381 46.484244 52.734375 47.296875 C 52.077322 47.899794 51.748047 48.847638 51.748047 50.138672 C 51.748047 51.73772 52.139603 52.835275 52.923828 53.431641 C 53.708053 54.021453 54.810385 54.316406 56.230469 54.316406 C 57.608161 54.316406 58.648212 54.07606 59.347656 53.597656 C 60.057698 53.119253 60.570743 52.424605 60.888672 51.513672 L 67.199219 52.693359 C 66.775313 53.787789 66.108662 54.701558 65.197266 55.435547 C 64.285869 56.169536 63.15142 56.724109 61.794922 57.097656 C 60.449021 57.471205 58.732266 57.658203 56.644531 57.658203 C 54.111696 57.658203 52.040529 57.432658 50.429688 56.980469 C 48.829444 56.521725 47.445038 55.719123 46.279297 54.572266 C 45.113557 53.425407 44.53125 51.957067 44.53125 50.167969 C 44.53125 47.782504 45.554265 45.949802 47.599609 44.671875 C 49.655552 43.387394 52.558983 42.746094 56.310547 42.746094 z M 10 42.748047 L 15.453125 42.748047 L 19.435547 52.703125 L 24.261719 42.748047 L 30.599609 42.748047 L 35.226562 52.873047 L 39.277344 42.748047 L 44.644531 42.748047 L 38.234375 57.242188 L 32.578125 57.242188 L 27.320312 46.40625 L 22.080078 57.242188 L 16.300781 57.242188 L 10 42.748047 z M 12.580078 65.501953 L 26.103516 65.501953 C 26.215939 66.074902 26.318144 66.655834 26.445312 67.216797 L 13.330078 67.216797 C 13.06532 66.652992 12.818082 66.080047 12.580078 65.501953 z M 30.708984 65.501953 L 47.75 65.501953 L 47.75 67.216797 L 31.082031 67.216797 C 30.945425 66.657193 30.831709 66.075256 30.708984 65.501953 z M 52.25 65.501953 L 70.123047 65.501953 C 70.000115 66.075174 69.886591 66.657254 69.75 67.216797 L 52.25 67.216797 L 52.25 65.501953 z M 74.722656 65.501953 L 87.419922 65.501953 C 87.181918 66.080047 86.93468 66.652992 86.669922 67.216797 L 74.380859 67.216797 C 74.507739 66.655709 74.610579 66.074978 74.722656 65.501953 z M 15.808594 71.716797 L 27.632812 71.716797 C 28.750219 75.392105 30.151014 78.773112 31.798828 81.765625 C 33.092678 84.115325 34.560573 86.238129 36.167969 88.082031 C 27.701861 85.012689 20.565233 79.197753 15.808594 71.716797 z M 32.363281 71.716797 L 47.75 71.716797 L 47.75 90.435547 C 47.47293 90.420427 47.199375 90.391744 46.923828 90.371094 C 42.792425 89.021739 38.891777 85.313575 35.742188 79.59375 C 34.456574 77.259009 33.318424 74.609989 32.363281 71.716797 z M 52.25 71.716797 L 68.46875 71.716797 C 67.513608 74.60999 66.375458 77.259009 65.089844 79.59375 C 62.004982 85.196021 58.200979 88.872142 54.164062 90.289062 C 53.530418 90.353572 52.892017 90.400502 52.25 90.435547 L 52.25 71.716797 z M 73.197266 71.716797 L 84.191406 71.716797 C 79.67202 78.824619 73.002016 84.420397 65.085938 87.59375 C 66.529428 85.865668 67.852465 83.909904 69.033203 81.765625 C 70.680929 78.773266 72.081943 75.392937 73.197266 71.716797 z " />
</svg>
