<?xml version="1.0" encoding="UTF-8" standalone="no"?>
<svg
   version="1.1"
   width="100"
   height="100"
   id="svg4460"
   sodipodi:docname="uEB5E-wps.svg"
   inkscape:version="1.3.2 (091e20ef0f, 2023-11-25)"
   xmlns:inkscape="http://www.inkscape.org/namespaces/inkscape"
   xmlns:sodipodi="http://sodipodi.sourceforge.net/DTD/sodipodi-0.dtd"
   xmlns="http://www.w3.org/2000/svg"
   xmlns:svg="http://www.w3.org/2000/svg"
   xmlns:rdf="http://www.w3.org/1999/02/22-rdf-syntax-ns#"
   xmlns:cc="http://creativecommons.org/ns#"
   xmlns:dc="http://purl.org/dc/elements/1.1/">
  <sodipodi:namedview
     pagecolor="#ffffff"
     bordercolor="#666666"
     borderopacity="1"
     objecttolerance="10"
     gridtolerance="10"
     guidetolerance="10"
     inkscape:pageopacity="0"
     inkscape:pageshadow="2"
     inkscape:window-width="3840"
     inkscape:window-height="2105"
     id="namedview11"
     showgrid="false"
     inkscape:zoom="7.21"
     inkscape:cx="78.640777"
     inkscape:cy="35.714286"
     inkscape:window-x="0"
     inkscape:window-y="31"
     inkscape:window-maximized="1"
     inkscape:current-layer="svg4460"
     inkscape:document-rotation="0"
     inkscape:showpageshadow="2"
     inkscape:pagecheckerboard="0"
     inkscape:deskcolor="#d1d1d1" />
  <defs
     id="defs4462" />
  <metadata
     id="metadata4465">
    <rdf:RDF>
      <cc:Work
         rdf:about="">
        <dc:format>image/svg+xml</dc:format>
        <dc:type
           rdf:resource="http://purl.org/dc/dcmitype/StillImage" />
      </cc:Work>
    </rdf:RDF>
  </metadata>
  <path
     id="rect910"
     style="color:#000000;overflow:visible;fill:#000080;stroke-width:8.653;stroke-linecap:round;stroke-linejoin:round;stroke-dashoffset:20"
     d="M 49.953125 5 A 45 45 0 0 0 7.7578125 34.498047 L 2.5 34.498047 A 3.0020802 3.0020802 0 0 0 -0.50195312 37.5 L -0.50195312 62.5 A 3.0020802 3.0020802 0 0 0 2.5 65.501953 L 7.7558594 65.501953 A 45 45 0 0 0 50 95 A 45 45 0 0 0 92.242188 65.501953 L 97.5 65.501953 A 3.0020802 3.0020802 0 0 0 100.50195 62.5 L 100.50195 37.5 A 3.0020802 3.0020802 0 0 0 97.5 34.498047 L 92.244141 34.498047 A 45 45 0 0 0 50 5 A 45 45 0 0 0 49.953125 5 z M 52.25 10.113281 C 56.99081 10.919862 61.521221 14.825839 65.089844 21.306641 C 66.24016 23.395673 67.2693 25.740009 68.158203 28.28125 L 52.25 28.28125 L 52.25 10.113281 z M 47.75 10.291016 L 47.75 28.28125 L 32.675781 28.28125 C 33.564684 25.740009 34.591871 23.395673 35.742188 21.306641 C 39.101121 15.20664 43.313458 11.39216 47.75 10.291016 z M 37.382812 11.509766 C 35.291213 13.626431 33.41177 16.207534 31.798828 19.136719 C 30.287095 21.882104 28.986256 24.955512 27.917969 28.28125 L 15.808594 28.28125 C 20.790461 20.44607 28.387281 14.450242 37.382812 11.509766 z M 63.851562 11.925781 C 72.309225 14.996946 79.438387 20.805985 84.191406 28.28125 L 72.910156 28.28125 C 71.844074 24.955371 70.544601 21.881498 69.033203 19.136719 C 67.524228 16.396342 65.781935 13.962558 63.851562 11.925781 z M 13.330078 32.78125 L 26.658203 32.78125 C 26.522788 33.342394 26.411541 33.92411 26.291016 34.498047 L 12.580078 34.498047 C 12.818287 33.919155 13.065064 33.345598 13.330078 32.78125 z M 31.306641 32.78125 L 47.75 32.78125 L 47.75 34.498047 L 30.908203 34.498047 C 31.039484 33.924061 31.161231 33.340368 31.306641 32.78125 z M 52.25 32.78125 L 69.525391 32.78125 C 69.670798 33.340368 69.792548 33.924061 69.923828 34.498047 L 52.25 34.498047 L 52.25 32.78125 z M 74.169922 32.78125 L 86.669922 32.78125 C 86.934936 33.345598 87.181713 33.919155 87.419922 34.498047 L 74.535156 34.498047 C 74.415036 33.924081 74.304972 33.342496 74.169922 32.78125 z M 74.003906 41.794922 C 76.241919 41.794922 77.946412 42.159508 79.117188 42.888672 C 80.295927 43.610892 80.995745 44.764328 81.21875 46.347656 L 76.117188 46.607422 C 75.981792 45.919924 75.695858 45.419921 75.257812 45.107422 C 74.827732 44.794923 74.231385 44.638672 73.466797 44.638672 C 72.837605 44.638672 72.3635 44.756077 72.044922 44.992188 C 71.726344 45.221353 71.566406 45.502605 71.566406 45.835938 C 71.566406 46.078992 71.69811 46.297744 71.960938 46.492188 C 72.2158 46.693576 72.821609 46.881077 73.777344 47.054688 C 76.142788 47.49913 77.834065 47.951825 78.853516 48.410156 C 79.880931 48.861544 80.625952 49.424047 81.087891 50.097656 C 81.557794 50.771265 81.792969 51.524091 81.792969 52.357422 C 81.792969 53.336585 81.482556 54.24002 80.861328 55.066406 C 80.2401 55.892792 79.370884 56.520618 78.255859 56.951172 C 77.140835 57.374782 75.735492 57.585937 74.039062 57.585938 C 71.060355 57.585938 68.998444 57.085934 67.851562 56.085938 C 66.704681 55.085941 66.055622 53.815099 65.904297 52.273438 L 71.052734 51.992188 C 71.164237 52.721352 71.391903 53.278213 71.734375 53.660156 C 72.291887 54.27821 73.087667 54.585938 74.123047 54.585938 C 74.895599 54.585938 75.488192 54.429686 75.902344 54.117188 C 76.32446 53.797744 76.537109 53.430337 76.537109 53.013672 C 76.537109 52.61784 76.337676 52.263671 75.939453 51.951172 C 75.54123 51.638673 74.6175 51.344183 73.167969 51.066406 C 70.79456 50.60113 69.10133 49.981768 68.089844 49.210938 C 67.070393 48.440107 66.560547 47.458112 66.560547 46.263672 C 66.560547 45.478952 66.820201 44.739364 67.337891 44.044922 C 67.863545 43.343535 68.648062 42.794269 69.691406 42.398438 C 70.742715 41.995661 72.180045 41.794922 74.003906 41.794922 z M 18.320312 42.054688 L 23.457031 42.054688 L 25.308594 50.585938 L 28.007812 42.054688 L 33.134766 42.054688 L 35.845703 50.585938 L 37.697266 42.054688 L 42.810547 42.054688 L 38.951172 57.326172 L 33.648438 57.326172 L 30.578125 47.710938 L 27.519531 57.326172 L 22.214844 57.326172 L 18.320312 42.054688 z M 46.861328 42.054688 L 55.857422 42.054688 C 57.816679 42.054688 59.280289 42.46094 60.251953 43.273438 C 61.231581 44.085935 61.722656 45.242193 61.722656 46.742188 C 61.722656 48.283849 61.188331 49.489369 60.121094 50.357422 C 59.061821 51.225474 57.442027 51.660156 55.259766 51.660156 L 52.296875 51.660156 L 52.296875 57.326172 L 46.861328 57.326172 L 46.861328 42.054688 z M 52.296875 45.160156 L 52.296875 48.566406 L 53.623047 48.566406 C 54.666391 48.566406 55.398196 48.410155 55.820312 48.097656 C 56.242429 47.778213 56.453125 47.37196 56.453125 46.878906 C 56.453125 46.399741 56.270662 45.993488 55.904297 45.660156 C 55.537932 45.326824 54.849377 45.160156 53.837891 45.160156 L 52.296875 45.160156 z M 12.580078 65.501953 L 26.103516 65.501953 C 26.215939 66.074902 26.318145 66.655834 26.445312 67.216797 L 13.330078 67.216797 C 13.06532 66.652992 12.818082 66.080047 12.580078 65.501953 z M 30.708984 65.501953 L 47.75 65.501953 L 47.75 67.216797 L 31.082031 67.216797 C 30.945425 66.657193 30.831709 66.075256 30.708984 65.501953 z M 52.25 65.501953 L 70.123047 65.501953 C 70.000115 66.075174 69.886591 66.657254 69.75 67.216797 L 52.25 67.216797 L 52.25 65.501953 z M 74.722656 65.501953 L 87.419922 65.501953 C 87.181918 66.080047 86.93468 66.652992 86.669922 67.216797 L 74.380859 67.216797 C 74.507739 66.655709 74.610579 66.074978 74.722656 65.501953 z M 15.808594 71.716797 L 27.632812 71.716797 C 28.750219 75.392101 30.151016 78.773115 31.798828 81.765625 C 33.092677 84.115323 34.560574 86.238131 36.167969 88.082031 C 27.701869 85.012692 20.565228 79.197745 15.808594 71.716797 z M 32.363281 71.716797 L 47.75 71.716797 L 47.75 90.435547 C 47.47293 90.420427 47.199375 90.391744 46.923828 90.371094 C 42.792429 89.021737 38.891773 85.313569 35.742188 79.59375 C 34.456575 77.259011 33.318423 74.609986 32.363281 71.716797 z M 52.25 71.716797 L 68.46875 71.716797 C 67.513609 74.609987 66.375456 77.259011 65.089844 79.59375 C 62.004985 85.196015 58.200975 88.872144 54.164062 90.289062 C 53.530419 90.353572 52.892016 90.400502 52.25 90.435547 L 52.25 71.716797 z M 73.197266 71.716797 L 84.191406 71.716797 C 79.672025 78.824612 73.002008 84.4204 65.085938 87.59375 C 66.529426 85.86567 67.852466 83.909902 69.033203 81.765625 C 70.680927 78.773269 72.081944 75.392933 73.197266 71.716797 z " />
</svg>
