<?xml version="1.0" encoding="UTF-8" standalone="no"?>
<svg
   version="1.1"
   width="100"
   height="100"
   id="svg4460"
   sodipodi:docname="uEB5B-i3s-web.svg"
   inkscape:version="1.3.2 (091e20ef0f, 2023-11-25)"
   xmlns:inkscape="http://www.inkscape.org/namespaces/inkscape"
   xmlns:sodipodi="http://sodipodi.sourceforge.net/DTD/sodipodi-0.dtd"
   xmlns="http://www.w3.org/2000/svg"
   xmlns:svg="http://www.w3.org/2000/svg"
   xmlns:rdf="http://www.w3.org/1999/02/22-rdf-syntax-ns#"
   xmlns:cc="http://creativecommons.org/ns#"
   xmlns:dc="http://purl.org/dc/elements/1.1/">
  <sodipodi:namedview
     pagecolor="#ffffff"
     bordercolor="#666666"
     borderopacity="1"
     objecttolerance="10"
     gridtolerance="10"
     guidetolerance="10"
     inkscape:pageopacity="0"
     inkscape:pageshadow="2"
     inkscape:window-width="3840"
     inkscape:window-height="2105"
     id="namedview11"
     showgrid="false"
     inkscape:zoom="7.21"
     inkscape:cx="78.640777"
     inkscape:cy="35.714286"
     inkscape:window-x="0"
     inkscape:window-y="31"
     inkscape:window-maximized="1"
     inkscape:current-layer="svg4460"
     inkscape:document-rotation="0"
     inkscape:showpageshadow="2"
     inkscape:pagecheckerboard="0"
     inkscape:deskcolor="#d1d1d1" />
  <defs
     id="defs4462" />
  <metadata
     id="metadata4465">
    <rdf:RDF>
      <cc:Work
         rdf:about="">
        <dc:format>image/svg+xml</dc:format>
        <dc:type
           rdf:resource="http://purl.org/dc/dcmitype/StillImage" />
      </cc:Work>
    </rdf:RDF>
  </metadata>
  <path
     id="rect910"
     style="color:#000000;overflow:visible;fill:#000080;stroke-width:8.653;stroke-linecap:round;stroke-linejoin:round;stroke-dashoffset:20"
     d="M 49.953125 5 A 45 45 0 0 0 7.7578125 34.498047 L 2.5 34.498047 A 3.0020802 3.0020802 0 0 0 -0.50195312 37.5 L -0.50195312 62.5 A 3.0020802 3.0020802 0 0 0 2.5 65.501953 L 7.7558594 65.501953 A 45 45 0 0 0 50 95 A 45 45 0 0 0 92.242188 65.501953 L 97.5 65.501953 A 3.0020802 3.0020802 0 0 0 100.50195 62.5 L 100.50195 37.5 A 3.0020802 3.0020802 0 0 0 97.5 34.498047 L 92.244141 34.498047 A 45 45 0 0 0 50 5 A 45 45 0 0 0 49.953125 5 z M 52.25 10.113281 C 56.99081 10.919862 61.521221 14.825839 65.089844 21.306641 C 66.24016 23.395673 67.2693 25.740009 68.158203 28.28125 L 52.25 28.28125 L 52.25 10.113281 z M 47.75 10.291016 L 47.75 28.28125 L 32.675781 28.28125 C 33.564684 25.740009 34.591871 23.395673 35.742188 21.306641 C 39.101121 15.20664 43.313458 11.39216 47.75 10.291016 z M 37.382812 11.509766 C 35.291213 13.626431 33.41177 16.207534 31.798828 19.136719 C 30.287095 21.882104 28.986256 24.955512 27.917969 28.28125 L 15.808594 28.28125 C 20.790461 20.44607 28.387281 14.450242 37.382812 11.509766 z M 63.851562 11.925781 C 72.309225 14.996946 79.438387 20.805985 84.191406 28.28125 L 72.910156 28.28125 C 71.844074 24.955371 70.544601 21.881498 69.033203 19.136719 C 67.524228 16.396342 65.781935 13.962558 63.851562 11.925781 z M 13.330078 32.78125 L 26.658203 32.78125 C 26.522788 33.342394 26.411541 33.92411 26.291016 34.498047 L 12.580078 34.498047 C 12.818287 33.919155 13.065064 33.345598 13.330078 32.78125 z M 31.306641 32.78125 L 47.75 32.78125 L 47.75 34.498047 L 30.908203 34.498047 C 31.039484 33.924061 31.161231 33.340368 31.306641 32.78125 z M 52.25 32.78125 L 69.525391 32.78125 C 69.670798 33.340368 69.792548 33.924061 69.923828 34.498047 L 52.25 34.498047 L 52.25 32.78125 z M 74.169922 32.78125 L 86.669922 32.78125 C 86.934936 33.345598 87.181713 33.919155 87.419922 34.498047 L 74.535156 34.498047 C 74.415036 33.924081 74.304972 33.342496 74.169922 32.78125 z M 44.546875 41.685547 C 47.719348 41.685547 50.012833 42.057729 51.427734 42.800781 C 52.842635 43.543834 53.548828 44.47852 53.548828 45.603516 C 53.548828 46.263235 53.262304 46.859811 52.6875 47.394531 C 52.112696 47.929251 51.244645 48.398005 50.083984 48.800781 C 51.023567 48.946614 51.742808 49.116103 52.240234 49.310547 C 53.04717 49.623046 53.671125 50.036894 54.113281 50.550781 C 54.566492 51.057724 54.792969 51.664716 54.792969 52.373047 C 54.792969 53.261932 54.422253 54.116106 53.681641 54.935547 C 52.941028 55.748044 51.875215 56.377823 50.482422 56.822266 C 49.089629 57.259764 47.260193 57.478516 44.994141 57.478516 C 42.783358 57.478516 41.03616 57.314669 39.753906 56.988281 C 38.482706 56.661894 37.432559 56.185544 36.603516 55.560547 C 35.785526 54.928605 35.155047 54.136932 34.712891 53.185547 L 41.462891 52.623047 C 41.728185 53.47721 42.136757 54.070965 42.689453 54.404297 C 43.253203 54.730684 43.96592 54.894531 44.828125 54.894531 C 45.734546 54.894531 46.48512 54.686196 47.082031 54.269531 C 47.689997 53.852866 47.994141 53.297957 47.994141 52.603516 C 47.994141 51.895185 47.701092 51.345919 47.115234 50.957031 C 46.540431 50.568144 45.756571 50.373047 44.761719 50.373047 C 44.231131 50.373047 43.500794 50.456381 42.572266 50.623047 L 42.921875 47.591797 C 43.297708 47.626519 43.590757 47.644531 43.800781 47.644531 C 44.685094 47.644531 45.420002 47.467447 46.005859 47.113281 C 46.602771 46.759116 46.900391 46.339625 46.900391 45.853516 C 46.900391 45.38824 46.680438 45.016058 46.238281 44.738281 C 45.796125 44.460505 45.187836 44.322266 44.414062 44.322266 C 43.618181 44.322266 42.970082 44.473743 42.472656 44.779297 C 41.97523 45.077907 41.639753 45.60634 41.462891 46.363281 L 35.078125 45.644531 C 35.608713 44.366758 36.625574 43.387584 38.128906 42.707031 C 39.643292 42.026478 41.783396 41.685547 44.546875 41.685547 z M 71.771484 41.685547 C 74.877634 41.685547 77.244215 42.050133 78.869141 42.779297 C 80.50512 43.501516 81.4776 44.654954 81.787109 46.238281 L 74.707031 46.498047 C 74.519115 45.81055 74.121637 45.310546 73.513672 44.998047 C 72.916761 44.685548 72.086566 44.529297 71.025391 44.529297 C 70.152131 44.529297 69.494891 44.648655 69.052734 44.884766 C 68.610578 45.113931 68.388672 45.395184 68.388672 45.728516 C 68.388672 45.97157 68.572721 46.190322 68.9375 46.384766 C 69.291225 46.586154 70.130562 46.773655 71.457031 46.947266 C 74.740044 47.391708 77.089005 47.84245 78.503906 48.300781 C 79.929861 48.752168 80.962389 49.314673 81.603516 49.988281 C 82.255697 50.66189 82.582031 51.414717 82.582031 52.248047 C 82.582031 53.22721 82.151268 54.130646 81.289062 54.957031 C 80.426857 55.783417 79.221376 56.411243 77.673828 56.841797 C 76.12628 57.265406 74.176749 57.478516 71.822266 57.478516 C 67.688102 57.478516 64.824186 56.978512 63.232422 55.978516 C 61.640658 54.97852 60.739321 53.707676 60.529297 52.166016 L 67.675781 51.884766 C 67.830536 52.613929 68.145775 53.168838 68.621094 53.550781 C 69.394868 54.168834 70.500491 54.478516 71.9375 54.478516 C 73.00973 54.478516 73.8334 54.322264 74.408203 54.009766 C 74.994061 53.690322 75.287109 53.320962 75.287109 52.904297 C 75.287109 52.508465 75.009727 52.154296 74.457031 51.841797 C 73.904336 51.529298 72.62314 51.234808 70.611328 50.957031 C 67.317262 50.491755 64.9683 49.874346 63.564453 49.103516 C 62.149552 48.332685 61.441406 47.348737 61.441406 46.154297 C 61.441406 45.369578 61.801027 44.629989 62.519531 43.935547 C 63.24909 43.234161 64.339047 42.686847 65.787109 42.291016 C 67.246226 41.888239 69.240138 41.685547 71.771484 41.685547 z M 19.90625 41.947266 L 27.433594 41.947266 L 27.433594 57.216797 L 19.90625 57.216797 L 19.90625 41.947266 z M 12.580078 65.501953 L 26.103516 65.501953 C 26.215939 66.074902 26.318145 66.655834 26.445312 67.216797 L 13.330078 67.216797 C 13.06532 66.652992 12.818082 66.080047 12.580078 65.501953 z M 30.708984 65.501953 L 47.75 65.501953 L 47.75 67.216797 L 31.082031 67.216797 C 30.945425 66.657193 30.831709 66.075256 30.708984 65.501953 z M 52.25 65.501953 L 70.123047 65.501953 C 70.000115 66.075174 69.886591 66.657254 69.75 67.216797 L 52.25 67.216797 L 52.25 65.501953 z M 74.722656 65.501953 L 87.419922 65.501953 C 87.181918 66.080047 86.93468 66.652992 86.669922 67.216797 L 74.380859 67.216797 C 74.507739 66.655709 74.610579 66.074978 74.722656 65.501953 z M 15.808594 71.716797 L 27.632812 71.716797 C 28.750219 75.392101 30.151016 78.773115 31.798828 81.765625 C 33.092677 84.115323 34.560574 86.238131 36.167969 88.082031 C 27.701869 85.012692 20.565228 79.197745 15.808594 71.716797 z M 32.363281 71.716797 L 47.75 71.716797 L 47.75 90.435547 C 47.47293 90.420427 47.199375 90.391744 46.923828 90.371094 C 42.792429 89.021737 38.891773 85.313569 35.742188 79.59375 C 34.456575 77.259011 33.318423 74.609986 32.363281 71.716797 z M 52.25 71.716797 L 68.46875 71.716797 C 67.513609 74.609987 66.375456 77.259011 65.089844 79.59375 C 62.004985 85.196015 58.200975 88.872144 54.164062 90.289062 C 53.530419 90.353572 52.892016 90.400502 52.25 90.435547 L 52.25 71.716797 z M 73.197266 71.716797 L 84.191406 71.716797 C 79.672025 78.824612 73.002008 84.4204 65.085938 87.59375 C 66.529426 85.86567 67.852466 83.909902 69.033203 81.765625 C 70.680927 78.773269 72.081944 75.392933 73.197266 71.716797 z " />
</svg>
