<?xml version="1.0" encoding="UTF-8" standalone="no"?>
<svg
   version="1.1"
   width="100"
   height="100"
   id="svg4460"
   sodipodi:docname="uEB5F-wcps.svg"
   inkscape:version="1.3.2 (091e20ef0f, 2023-11-25)"
   xmlns:inkscape="http://www.inkscape.org/namespaces/inkscape"
   xmlns:sodipodi="http://sodipodi.sourceforge.net/DTD/sodipodi-0.dtd"
   xmlns="http://www.w3.org/2000/svg"
   xmlns:svg="http://www.w3.org/2000/svg"
   xmlns:rdf="http://www.w3.org/1999/02/22-rdf-syntax-ns#"
   xmlns:cc="http://creativecommons.org/ns#"
   xmlns:dc="http://purl.org/dc/elements/1.1/">
  <sodipodi:namedview
     pagecolor="#ffffff"
     bordercolor="#666666"
     borderopacity="1"
     objecttolerance="10"
     gridtolerance="10"
     guidetolerance="10"
     inkscape:pageopacity="0"
     inkscape:pageshadow="2"
     inkscape:window-width="3840"
     inkscape:window-height="2105"
     id="namedview11"
     showgrid="false"
     inkscape:zoom="7.21"
     inkscape:cx="78.640777"
     inkscape:cy="35.714286"
     inkscape:window-x="0"
     inkscape:window-y="31"
     inkscape:window-maximized="1"
     inkscape:current-layer="svg4460"
     inkscape:document-rotation="0"
     inkscape:showpageshadow="2"
     inkscape:pagecheckerboard="0"
     inkscape:deskcolor="#d1d1d1" />
  <defs
     id="defs4462" />
  <metadata
     id="metadata4465">
    <rdf:RDF>
      <cc:Work
         rdf:about="">
        <dc:format>image/svg+xml</dc:format>
        <dc:type
           rdf:resource="http://purl.org/dc/dcmitype/StillImage" />
      </cc:Work>
    </rdf:RDF>
  </metadata>
  <path
     id="rect910"
     style="color:#000000;overflow:visible;fill:#000080;stroke-width:8.653;stroke-linecap:round;stroke-linejoin:round;stroke-dashoffset:20"
     d="M 49.953125 5 A 45 45 0 0 0 7.7578125 34.498047 L 2.5 34.498047 A 3.0020802 3.0020802 0 0 0 -0.50195312 37.5 L -0.50195312 62.5 A 3.0020802 3.0020802 0 0 0 2.5 65.501953 L 7.7558594 65.501953 A 45 45 0 0 0 50 95 A 45 45 0 0 0 92.242188 65.501953 L 97.5 65.501953 A 3.0020802 3.0020802 0 0 0 100.50195 62.5 L 100.50195 37.5 A 3.0020802 3.0020802 0 0 0 97.5 34.498047 L 92.244141 34.498047 A 45 45 0 0 0 50 5 A 45 45 0 0 0 49.953125 5 z M 52.25 10.113281 C 56.99081 10.919862 61.521221 14.825839 65.089844 21.306641 C 66.24016 23.395673 67.2693 25.740009 68.158203 28.28125 L 52.25 28.28125 L 52.25 10.113281 z M 47.75 10.291016 L 47.75 28.28125 L 32.675781 28.28125 C 33.564684 25.740009 34.591871 23.395673 35.742188 21.306641 C 39.101121 15.20664 43.313458 11.39216 47.75 10.291016 z M 37.382812 11.509766 C 35.291213 13.626431 33.41177 16.207534 31.798828 19.136719 C 30.287095 21.882104 28.986256 24.955512 27.917969 28.28125 L 15.808594 28.28125 C 20.790461 20.44607 28.387281 14.450242 37.382812 11.509766 z M 63.851562 11.925781 C 72.309225 14.996946 79.438387 20.805985 84.191406 28.28125 L 72.910156 28.28125 C 71.844074 24.955371 70.544601 21.881498 69.033203 19.136719 C 67.524228 16.396342 65.781935 13.962558 63.851562 11.925781 z M 13.330078 32.78125 L 26.658203 32.78125 C 26.522788 33.342394 26.411541 33.92411 26.291016 34.498047 L 12.580078 34.498047 C 12.818287 33.919155 13.065064 33.345598 13.330078 32.78125 z M 31.306641 32.78125 L 47.75 32.78125 L 47.75 34.498047 L 30.908203 34.498047 C 31.039484 33.924061 31.161231 33.340368 31.306641 32.78125 z M 52.25 32.78125 L 69.525391 32.78125 C 69.670798 33.340368 69.792548 33.924061 69.923828 34.498047 L 52.25 34.498047 L 52.25 32.78125 z M 74.169922 32.78125 L 86.669922 32.78125 C 86.934936 33.345598 87.181713 33.919155 87.419922 34.498047 L 74.535156 34.498047 C 74.415036 33.924081 74.304972 33.342496 74.169922 32.78125 z M 45.716797 41.583984 C 47.640403 41.583984 49.150827 41.972224 50.248047 42.75 C 51.352211 43.527776 52.17231 44.722877 52.707031 46.333984 L 48.541016 47.259766 C 48.395183 46.794489 48.241753 46.455512 48.082031 46.240234 C 47.818143 45.879124 47.495225 45.600694 47.113281 45.40625 C 46.731338 45.211806 46.304252 45.115234 45.832031 45.115234 C 44.76259 45.115234 43.94249 45.545141 43.373047 46.40625 C 42.942492 47.045137 42.728516 48.047964 42.728516 49.416016 C 42.728516 51.110456 42.984159 52.274307 43.498047 52.90625 C 44.011934 53.531248 44.735462 53.84375 45.666016 53.84375 C 46.568791 53.84375 47.248699 53.590928 47.707031 53.083984 C 48.172308 52.577041 48.508464 51.840275 48.716797 50.875 L 52.853516 52.125 C 52.575739 53.284719 52.138236 54.253474 51.541016 55.03125 C 50.943795 55.809026 50.199433 56.395183 49.310547 56.791016 C 48.428605 57.186848 47.303599 57.384766 45.935547 57.384766 C 44.275829 57.384766 42.918834 57.145181 41.863281 56.666016 C 40.814673 56.179906 39.908418 55.330509 39.144531 54.115234 C 38.380644 52.89996 37.998047 51.343094 37.998047 49.447266 C 37.998047 46.919494 38.669491 44.979163 40.009766 43.625 C 41.356984 42.263892 43.25847 41.583984 45.716797 41.583984 z M 80.791016 41.583984 C 82.742399 41.583984 84.227216 41.94857 85.248047 42.677734 C 86.275822 43.399955 86.887587 44.551436 87.082031 46.134766 L 82.634766 46.396484 C 82.51671 45.708986 82.266709 45.208984 81.884766 44.896484 C 81.509767 44.583985 80.988931 44.427734 80.322266 44.427734 C 79.773656 44.427734 79.359808 44.545139 79.082031 44.78125 C 78.804254 45.010416 78.666016 45.291668 78.666016 45.625 C 78.666016 45.868055 78.7806 46.086806 79.009766 46.28125 C 79.231987 46.482638 79.758466 46.670139 80.591797 46.84375 C 82.654292 47.288193 84.130645 47.738933 85.019531 48.197266 C 85.915362 48.648653 86.56402 49.211156 86.966797 49.884766 C 87.376518 50.558375 87.582031 51.313153 87.582031 52.146484 C 87.582031 53.125649 87.311197 54.027129 86.769531 54.853516 C 86.227866 55.679902 85.470267 56.30968 84.498047 56.740234 C 83.525827 57.163844 82.301428 57.375 80.822266 57.375 C 78.22505 57.375 76.425779 56.874997 75.425781 55.875 C 74.425784 54.875003 73.86046 53.604163 73.728516 52.0625 L 78.216797 51.78125 C 78.314019 52.510415 78.511937 53.065322 78.810547 53.447266 C 79.296657 54.06532 79.991756 54.375 80.894531 54.375 C 81.568141 54.375 82.086155 54.218749 82.447266 53.90625 C 82.81532 53.586806 82.998047 53.2194 82.998047 52.802734 C 82.998047 52.406902 82.825737 52.052734 82.478516 51.740234 C 82.131294 51.427735 81.324433 51.131293 80.060547 50.853516 C 77.991108 50.388239 76.516708 49.770831 75.634766 49 C 74.745879 48.229169 74.300781 47.247176 74.300781 46.052734 C 74.300781 45.268014 74.527128 44.528427 74.978516 43.833984 C 75.436848 43.132597 76.119577 42.583332 77.029297 42.1875 C 77.945961 41.784723 79.200742 41.583984 80.791016 41.583984 z M 14.009766 41.84375 L 18.488281 41.84375 L 20.103516 50.375 L 22.457031 41.84375 L 26.925781 41.84375 L 29.291016 50.375 L 30.904297 41.84375 L 35.363281 41.84375 L 31.998047 57.115234 L 27.373047 57.115234 L 24.697266 47.5 L 22.029297 57.115234 L 17.404297 57.115234 L 14.009766 41.84375 z M 57.123047 41.84375 L 64.966797 41.84375 C 66.675126 41.84375 67.953561 42.250002 68.800781 43.0625 C 69.654946 43.874998 70.082031 45.031254 70.082031 46.53125 C 70.082031 48.072913 69.6161 49.278431 68.685547 50.146484 C 67.761938 51.014538 66.350038 51.447266 64.447266 51.447266 L 61.863281 51.447266 L 61.863281 57.115234 L 57.123047 57.115234 L 57.123047 41.84375 z M 61.863281 44.947266 L 61.863281 48.353516 L 63.019531 48.353516 C 63.929251 48.353516 64.567492 48.197265 64.935547 47.884766 C 65.303601 47.565322 65.488281 47.15907 65.488281 46.666016 C 65.488281 46.18685 65.329209 45.780598 65.009766 45.447266 C 64.690322 45.113933 64.088973 44.947266 63.207031 44.947266 L 61.863281 44.947266 z M 12.580078 65.501953 L 26.103516 65.501953 C 26.215939 66.074902 26.318145 66.655834 26.445312 67.216797 L 13.330078 67.216797 C 13.06532 66.652992 12.818082 66.080047 12.580078 65.501953 z M 30.708984 65.501953 L 47.75 65.501953 L 47.75 67.216797 L 31.082031 67.216797 C 30.945425 66.657193 30.831709 66.075256 30.708984 65.501953 z M 52.25 65.501953 L 70.123047 65.501953 C 70.000115 66.075174 69.886591 66.657254 69.75 67.216797 L 52.25 67.216797 L 52.25 65.501953 z M 74.722656 65.501953 L 87.419922 65.501953 C 87.181918 66.080047 86.93468 66.652992 86.669922 67.216797 L 74.380859 67.216797 C 74.507739 66.655709 74.610579 66.074978 74.722656 65.501953 z M 15.808594 71.716797 L 27.632812 71.716797 C 28.750219 75.392101 30.151016 78.773115 31.798828 81.765625 C 33.092677 84.115323 34.560574 86.238131 36.167969 88.082031 C 27.701869 85.012692 20.565228 79.197745 15.808594 71.716797 z M 32.363281 71.716797 L 47.75 71.716797 L 47.75 90.435547 C 47.47293 90.420427 47.199375 90.391744 46.923828 90.371094 C 42.792429 89.021737 38.891773 85.313569 35.742188 79.59375 C 34.456575 77.259011 33.318423 74.609986 32.363281 71.716797 z M 52.25 71.716797 L 68.46875 71.716797 C 67.513609 74.609987 66.375456 77.259011 65.089844 79.59375 C 62.004985 85.196015 58.200975 88.872144 54.164062 90.289062 C 53.530419 90.353572 52.892016 90.400502 52.25 90.435547 L 52.25 71.716797 z M 73.197266 71.716797 L 84.191406 71.716797 C 79.672025 78.824612 73.002008 84.4204 65.085938 87.59375 C 66.529426 85.86567 67.852466 83.909902 69.033203 81.765625 C 70.680927 78.773269 72.081944 75.392933 73.197266 71.716797 z " />
</svg>
