<?xml version="1.0" encoding="UTF-8" standalone="no"?>
<svg
   version="1.1"
   width="100"
   height="100"
   id="svg4460"
   sodipodi:docname="uEB5D-3dtiles-web.svg"
   inkscape:version="1.3.2 (091e20ef0f, 2023-11-25)"
   xmlns:inkscape="http://www.inkscape.org/namespaces/inkscape"
   xmlns:sodipodi="http://sodipodi.sourceforge.net/DTD/sodipodi-0.dtd"
   xmlns="http://www.w3.org/2000/svg"
   xmlns:svg="http://www.w3.org/2000/svg"
   xmlns:rdf="http://www.w3.org/1999/02/22-rdf-syntax-ns#"
   xmlns:cc="http://creativecommons.org/ns#"
   xmlns:dc="http://purl.org/dc/elements/1.1/">
  <sodipodi:namedview
     pagecolor="#ffffff"
     bordercolor="#666666"
     borderopacity="1"
     objecttolerance="10"
     gridtolerance="10"
     guidetolerance="10"
     inkscape:pageopacity="0"
     inkscape:pageshadow="2"
     inkscape:window-width="3840"
     inkscape:window-height="2105"
     id="namedview11"
     showgrid="false"
     inkscape:zoom="7.21"
     inkscape:cx="78.640777"
     inkscape:cy="35.714286"
     inkscape:window-x="0"
     inkscape:window-y="31"
     inkscape:window-maximized="1"
     inkscape:current-layer="svg4460"
     inkscape:document-rotation="0"
     inkscape:showpageshadow="2"
     inkscape:pagecheckerboard="0"
     inkscape:deskcolor="#d1d1d1" />
  <defs
     id="defs4462" />
  <metadata
     id="metadata4465">
    <rdf:RDF>
      <cc:Work
         rdf:about="">
        <dc:format>image/svg+xml</dc:format>
        <dc:type
           rdf:resource="http://purl.org/dc/dcmitype/StillImage" />
      </cc:Work>
    </rdf:RDF>
  </metadata>
  <path
     id="rect910"
     style="color:#000000;overflow:visible;fill:#000080;stroke-width:8.653;stroke-linecap:round;stroke-linejoin:round;stroke-dashoffset:20"
     d="M 49.953125 5 A 45 45 0 0 0 7.7578125 34.498047 L 2.5 34.498047 A 3.0020802 3.0020802 0 0 0 -0.50195312 37.5 L -0.50195312 62.5 A 3.0020802 3.0020802 0 0 0 2.5 65.501953 L 7.7558594 65.501953 A 45 45 0 0 0 50 95 A 45 45 0 0 0 92.242188 65.501953 L 97.5 65.501953 A 3.0020802 3.0020802 0 0 0 100.50195 62.5 L 100.50195 37.5 A 3.0020802 3.0020802 0 0 0 97.5 34.498047 L 92.244141 34.498047 A 45 45 0 0 0 50 5 A 45 45 0 0 0 49.953125 5 z M 52.25 10.113281 C 56.99081 10.919862 61.521221 14.825839 65.089844 21.306641 C 66.24016 23.395673 67.2693 25.740009 68.158203 28.28125 L 52.25 28.28125 L 52.25 10.113281 z M 47.75 10.291016 L 47.75 28.28125 L 32.675781 28.28125 C 33.564684 25.740009 34.591871 23.395673 35.742188 21.306641 C 39.101121 15.20664 43.313458 11.39216 47.75 10.291016 z M 37.382812 11.509766 C 35.291213 13.626431 33.41177 16.207534 31.798828 19.136719 C 30.287095 21.882104 28.986256 24.955512 27.917969 28.28125 L 15.808594 28.28125 C 20.790461 20.44607 28.387281 14.450242 37.382812 11.509766 z M 63.851562 11.925781 C 72.309225 14.996946 79.438387 20.805985 84.191406 28.28125 L 72.910156 28.28125 C 71.844074 24.955371 70.544601 21.881498 69.033203 19.136719 C 67.524228 16.396342 65.781935 13.962558 63.851562 11.925781 z M 13.330078 32.78125 L 26.658203 32.78125 C 26.522788 33.342394 26.411541 33.92411 26.291016 34.498047 L 12.580078 34.498047 C 12.818287 33.919155 13.065064 33.345598 13.330078 32.78125 z M 31.306641 32.78125 L 47.75 32.78125 L 47.75 34.498047 L 30.908203 34.498047 C 31.039484 33.924061 31.161231 33.340368 31.306641 32.78125 z M 52.25 32.78125 L 69.525391 32.78125 C 69.670798 33.340368 69.792548 33.924061 69.923828 34.498047 L 52.25 34.498047 L 52.25 32.78125 z M 74.169922 32.78125 L 86.669922 32.78125 C 86.934936 33.345598 87.181713 33.919155 87.419922 34.498047 L 74.535156 34.498047 C 74.415036 33.924081 74.304972 33.342496 74.169922 32.78125 z M 10.59375 41.882812 C 12.436981 41.882813 13.769729 42.254994 14.591797 42.998047 C 15.413865 43.7411 15.824219 44.675786 15.824219 45.800781 C 15.824219 46.460501 15.658184 47.057077 15.324219 47.591797 C 14.990254 48.126517 14.4849 48.595271 13.810547 48.998047 C 14.356451 49.14388 14.773492 49.313369 15.0625 49.507812 C 15.531336 49.820311 15.895447 50.23416 16.152344 50.748047 C 16.415662 51.254989 16.546875 51.861982 16.546875 52.570312 C 16.546875 53.459198 16.332645 54.313371 15.902344 55.132812 C 15.472042 55.945309 14.852192 56.575089 14.042969 57.019531 C 13.233745 57.45703 12.170109 57.675781 10.853516 57.675781 C 9.5690342 57.675781 8.553593 57.511934 7.8085938 57.185547 C 7.0700169 56.859159 6.4601962 56.38281 5.9785156 55.757812 C 5.5032575 55.125871 5.1377557 54.334198 4.8808594 53.382812 L 8.8007812 52.820312 C 8.954919 53.674476 9.1925515 54.26823 9.5136719 54.601562 C 9.8412146 54.92795 10.256865 55.091797 10.757812 55.091797 C 11.28445 55.091797 11.719596 54.883462 12.066406 54.466797 C 12.419639 54.050132 12.597656 53.495223 12.597656 52.800781 C 12.597656 52.092451 12.426325 51.543184 12.085938 51.154297 C 11.751972 50.76541 11.296767 50.570312 10.71875 50.570312 C 10.410474 50.570313 9.9867478 50.653646 9.4472656 50.820312 L 9.6484375 47.789062 C 9.8667993 47.823785 10.038131 47.841797 10.160156 47.841797 C 10.673949 47.841797 11.101019 47.664712 11.441406 47.310547 C 11.788216 46.956382 11.960938 46.53689 11.960938 46.050781 C 11.960938 45.585505 11.833068 45.213324 11.576172 44.935547 C 11.319276 44.65777 10.965194 44.519531 10.515625 44.519531 C 10.053212 44.519531 9.6776802 44.671008 9.3886719 44.976562 C 9.0996636 45.275172 8.9035398 45.803605 8.8007812 46.560547 L 5.0917969 45.841797 C 5.4000724 44.564024 5.991787 43.58485 6.8652344 42.904297 C 7.7451042 42.223744 8.9881482 41.882813 10.59375 41.882812 z M 20.699219 42.144531 L 27.181641 42.144531 C 28.4597 42.144531 29.491857 42.332033 30.275391 42.707031 C 31.065347 43.08203 31.716676 43.618926 32.230469 44.320312 C 32.744261 45.021699 33.11645 45.838979 33.347656 46.769531 C 33.578863 47.700083 33.695313 48.6849 33.695312 49.726562 C 33.695312 51.358501 33.520638 52.626523 33.173828 53.529297 C 32.833441 54.425127 32.358176 55.177954 31.748047 55.789062 C 31.137918 56.393227 30.483246 56.796659 29.783203 56.998047 C 28.826264 57.275824 27.958752 57.414062 27.181641 57.414062 L 20.699219 57.414062 L 20.699219 42.144531 z M 36.845703 42.144531 L 50.111328 42.144531 L 50.111328 45.914062 L 45.660156 45.914062 L 45.660156 57.414062 L 41.294922 57.414062 L 41.294922 45.914062 L 36.845703 45.914062 L 36.845703 42.144531 z M 53.820312 42.144531 L 57.740234 42.144531 L 57.740234 45.029297 L 53.820312 45.029297 L 53.820312 42.144531 z M 62.230469 42.144531 L 66.160156 42.144531 L 66.160156 57.414062 L 62.230469 57.414062 L 62.230469 42.144531 z M 25.0625 45.601562 L 25.0625 53.945312 L 26.132812 53.945312 C 27.044794 53.945313 27.692781 53.838324 28.078125 53.623047 C 28.463469 53.400826 28.766013 53.018227 28.984375 52.476562 C 29.202737 51.927954 29.310547 51.04253 29.310547 49.820312 C 29.310547 48.202263 29.068181 47.095267 28.580078 46.498047 C 28.091975 45.900827 27.282687 45.601563 26.152344 45.601562 L 25.0625 45.601562 z M 75.802734 46.101562 C 77.267043 46.101562 78.423727 46.341148 79.271484 46.820312 C 80.119242 47.299477 80.763885 47.994578 81.207031 48.904297 C 81.650177 49.814016 81.873047 50.998704 81.873047 52.457031 L 81.873047 52.935547 L 74.011719 52.935547 C 74.082365 53.6161 74.251743 54.123699 74.521484 54.457031 C 74.900406 54.936196 75.395731 55.175781 76.005859 55.175781 C 76.391204 55.175781 76.756706 55.071614 77.103516 54.863281 C 77.315455 54.731337 77.543058 54.497395 77.787109 54.164062 L 81.650391 54.550781 C 81.059529 55.661888 80.346632 56.459203 79.511719 56.945312 C 78.676806 57.424477 77.480567 57.664063 75.919922 57.664062 C 74.564794 57.664062 73.497814 57.460502 72.720703 57.050781 C 71.943592 56.634116 71.298949 55.977861 70.785156 55.082031 C 70.277786 54.179257 70.023438 53.11957 70.023438 51.904297 C 70.023437 50.175137 70.533525 48.776472 71.554688 47.707031 C 72.582273 46.637591 73.998038 46.101562 75.802734 46.101562 z M 90.234375 46.101562 C 91.454632 46.101562 92.353624 46.202909 92.931641 46.404297 C 93.51608 46.605685 94.001374 46.918187 94.386719 47.341797 C 94.778486 47.765406 95.102479 48.338327 95.359375 49.060547 L 91.640625 49.457031 C 91.544289 49.102866 91.384941 48.842447 91.160156 48.675781 C 90.851881 48.45356 90.477739 48.341797 90.041016 48.341797 C 89.59787 48.341797 89.273876 48.427952 89.068359 48.601562 C 88.869265 48.768229 88.769531 48.973742 88.769531 49.216797 C 88.769531 49.487629 88.899354 49.693143 89.15625 49.832031 C 89.413146 49.97092 89.971429 50.095921 90.832031 50.207031 C 92.13578 50.366753 93.104416 50.588326 93.740234 50.873047 C 94.376053 51.157768 94.861347 51.564021 95.195312 52.091797 C 95.5357 52.619573 95.707031 53.200089 95.707031 53.832031 C 95.707031 54.470918 95.52567 55.091148 95.166016 55.695312 C 94.812783 56.299477 94.251158 56.783422 93.480469 57.144531 C 92.716202 57.498697 91.672625 57.675781 90.349609 57.675781 C 88.480689 57.675781 87.147941 57.386934 86.351562 56.810547 C 85.561606 56.23416 85.054862 55.414058 84.830078 54.351562 L 88.722656 53.957031 C 88.883216 54.457029 89.107476 54.81402 89.396484 55.029297 C 89.685493 55.244574 90.071054 55.351562 90.552734 55.351562 C 91.079372 55.351562 91.486382 55.231336 91.775391 54.988281 C 92.000175 54.807726 92.113281 54.581379 92.113281 54.310547 C 92.113281 54.004993 91.965353 53.768229 91.669922 53.601562 C 91.457982 53.483507 90.896357 53.337673 89.984375 53.164062 C 88.622825 52.907119 87.675638 52.672308 87.142578 52.457031 C 86.615941 52.23481 86.168812 51.862628 85.802734 51.341797 C 85.44308 50.820966 85.263672 50.227211 85.263672 49.560547 C 85.263672 48.831383 85.459796 48.203557 85.851562 47.675781 C 86.243329 47.148006 86.781552 46.75499 87.46875 46.498047 C 88.155948 46.234159 89.078342 46.101562 90.234375 46.101562 z M 53.820312 46.351562 L 57.740234 46.351562 L 57.740234 57.414062 L 53.820312 57.414062 L 53.820312 46.351562 z M 75.966797 48.613281 C 75.343823 48.613281 74.847109 48.879342 74.474609 49.414062 C 74.23698 49.747395 74.085708 50.244577 74.021484 50.904297 L 77.884766 50.904297 C 77.807697 50.084856 77.601543 49.498697 77.267578 49.144531 C 76.940035 48.790366 76.506279 48.613281 75.966797 48.613281 z M 12.580078 65.501953 L 26.103516 65.501953 C 26.215939 66.074902 26.318145 66.655834 26.445312 67.216797 L 13.330078 67.216797 C 13.06532 66.652992 12.818082 66.080047 12.580078 65.501953 z M 30.708984 65.501953 L 47.75 65.501953 L 47.75 67.216797 L 31.082031 67.216797 C 30.945425 66.657193 30.831709 66.075256 30.708984 65.501953 z M 52.25 65.501953 L 70.123047 65.501953 C 70.000115 66.075174 69.886591 66.657254 69.75 67.216797 L 52.25 67.216797 L 52.25 65.501953 z M 74.722656 65.501953 L 87.419922 65.501953 C 87.181918 66.080047 86.93468 66.652992 86.669922 67.216797 L 74.380859 67.216797 C 74.507739 66.655709 74.610579 66.074978 74.722656 65.501953 z M 15.808594 71.716797 L 27.632812 71.716797 C 28.750219 75.392101 30.151016 78.773115 31.798828 81.765625 C 33.092677 84.115323 34.560574 86.238131 36.167969 88.082031 C 27.701869 85.012692 20.565228 79.197745 15.808594 71.716797 z M 32.363281 71.716797 L 47.75 71.716797 L 47.75 90.435547 C 47.47293 90.420427 47.199375 90.391744 46.923828 90.371094 C 42.792429 89.021737 38.891773 85.313569 35.742188 79.59375 C 34.456575 77.259011 33.318423 74.609986 32.363281 71.716797 z M 52.25 71.716797 L 68.46875 71.716797 C 67.513609 74.609987 66.375456 77.259011 65.089844 79.59375 C 62.004985 85.196015 58.200975 88.872144 54.164062 90.289062 C 53.530419 90.353572 52.892016 90.400502 52.25 90.435547 L 52.25 71.716797 z M 73.197266 71.716797 L 84.191406 71.716797 C 79.672025 78.824612 73.002008 84.4204 65.085938 87.59375 C 66.529426 85.86567 67.852466 83.909902 69.033203 81.765625 C 70.680927 78.773269 72.081944 75.392933 73.197266 71.716797 z " />
</svg>
