<?xml version="1.0" encoding="UTF-8" standalone="no"?>
<svg
   inkscape:version="1.3.2 (091e20ef0f, 2023-11-25)"
   sodipodi:docname="uEB5C-3dtiles-file.svg"
   id="svg4460"
   height="100"
   width="100"
   version="1.1"
   xmlns:inkscape="http://www.inkscape.org/namespaces/inkscape"
   xmlns:sodipodi="http://sodipodi.sourceforge.net/DTD/sodipodi-0.dtd"
   xmlns="http://www.w3.org/2000/svg"
   xmlns:svg="http://www.w3.org/2000/svg"
   xmlns:rdf="http://www.w3.org/1999/02/22-rdf-syntax-ns#"
   xmlns:cc="http://creativecommons.org/ns#"
   xmlns:dc="http://purl.org/dc/elements/1.1/">
  <sodipodi:namedview
     inkscape:document-rotation="0"
     inkscape:current-layer="svg4460"
     inkscape:window-maximized="1"
     inkscape:window-y="31"
     inkscape:window-x="0"
     inkscape:cy="43.70804"
     inkscape:cx="71.948118"
     inkscape:zoom="11.313708"
     showgrid="false"
     id="namedview11"
     inkscape:window-height="2105"
     inkscape:window-width="3840"
     inkscape:pageshadow="2"
     inkscape:pageopacity="0"
     guidetolerance="10"
     gridtolerance="10"
     objecttolerance="10"
     borderopacity="1"
     bordercolor="#666666"
     pagecolor="#ffffff"
     inkscape:showpageshadow="2"
     inkscape:pagecheckerboard="0"
     inkscape:deskcolor="#d1d1d1" />
  <defs
     id="defs4462">
    <inkscape:perspective
       sodipodi:type="inkscape:persp3d"
       inkscape:vp_x="-60 : 50 : 1"
       inkscape:vp_y="0 : 1000 : 0"
       inkscape:vp_z="40 : 50 : 1"
       inkscape:persp3d-origin="-10 : 33.333333 : 1"
       id="perspective58" />
    <inkscape:perspective
       sodipodi:type="inkscape:persp3d"
       inkscape:vp_x="-50 : 16.666667 : 0"
       inkscape:vp_y="0 : 999.99997 : 0"
       inkscape:vp_z="50 : 16.666667 : 0"
       inkscape:persp3d-origin="43.546529 : 32.947023 : 1"
       id="perspective1" />
  </defs>
  <metadata
     id="metadata4465">
    <rdf:RDF>
      <cc:Work
         rdf:about="">
        <dc:format>image/svg+xml</dc:format>
        <dc:type
           rdf:resource="http://purl.org/dc/dcmitype/StillImage" />
      </cc:Work>
    </rdf:RDF>
  </metadata>
  <path
     id="path841"
     style="color:#000000;font-style:normal;font-variant:normal;font-weight:normal;font-stretch:normal;font-size:medium;line-height:normal;font-family:sans-serif;font-variant-ligatures:normal;font-variant-position:normal;font-variant-caps:normal;font-variant-numeric:normal;font-variant-alternates:normal;font-variant-east-asian:normal;font-feature-settings:normal;font-variation-settings:normal;text-indent:0;text-align:start;text-decoration:none;text-decoration-line:none;text-decoration-style:solid;text-decoration-color:#000000;letter-spacing:normal;word-spacing:normal;text-transform:none;writing-mode:lr-tb;direction:ltr;text-orientation:mixed;dominant-baseline:auto;baseline-shift:baseline;text-anchor:start;white-space:normal;shape-padding:0;shape-margin:0;inline-size:0;clip-rule:nonzero;display:inline;overflow:visible;visibility:visible;opacity:1;isolation:auto;mix-blend-mode:normal;color-interpolation:sRGB;color-interpolation-filters:linearRGB;solid-color:#000000;solid-opacity:1;vector-effect:none;fill:#000080;fill-opacity:1;fill-rule:nonzero;stroke:none;stroke-width:5;stroke-linecap:round;stroke-linejoin:round;stroke-miterlimit:4;stroke-dasharray:none;stroke-dashoffset:20;stroke-opacity:1;color-rendering:auto;image-rendering:auto;shape-rendering:auto;text-rendering:auto;enable-background:accumulate;stop-color:#000000;stop-opacity:1"
     d="M 13.996094 0 C 12.615442 0.00013804434 11.496232 1.1193495 11.496094 2.5 L 11.496094 70 L 0 70 L 0 92 L 11.496094 92 L 11.496094 97.5 C 11.496232 98.880652 12.615442 99.999862 13.996094 100 L 85.996094 100 C 87.376743 99.999862 88.495956 98.880652 88.496094 97.5 L 88.496094 21.625 C 88.522594 20.512025 88.500091 19.848301 87.763672 19.035156 L 69.460938 0.73242188 C 68.984527 0.25585077 68.335919 -0.0082422554 67.662109 0 L 13.996094 0 z M 16.496094 5 L 65.398438 5 L 66.650391 19.568359 C 66.754393 20.78041 67.715686 21.741701 68.927734 21.845703 L 83.496094 23.097656 L 83.496094 95 L 16.496094 95 L 16.496094 92 L 80 92 L 80 70 L 16.496094 70 L 16.496094 5 z M 10.171875 72.9375 C 11.55744 72.9375 12.557829 73.309681 13.175781 74.052734 C 13.793734 74.795788 14.103516 75.728518 14.103516 76.853516 C 14.103516 77.513236 13.977606 78.111763 13.726562 78.646484 C 13.475519 79.181205 13.096758 79.649958 12.589844 80.052734 C 13.000203 80.198567 13.314001 80.368056 13.53125 80.5625 C 13.883676 80.874999 14.156499 81.288847 14.349609 81.802734 C 14.547547 82.309678 14.646484 82.916668 14.646484 83.625 C 14.646484 84.513887 14.483616 85.368058 14.160156 86.1875 C 13.836697 86.999998 13.371969 87.627822 12.763672 88.072266 C 12.155375 88.509765 11.356877 88.728516 10.367188 88.728516 C 9.4016366 88.728516 8.6381445 88.566622 8.078125 88.240234 C 7.5229333 87.913846 7.0652066 87.437498 6.703125 86.8125 C 6.3458712 86.180557 6.0700633 85.388887 5.8769531 84.4375 L 8.8242188 83.875 C 8.9400849 84.729165 9.1179873 85.322917 9.359375 85.65625 C 9.6055905 85.982638 9.918357 86.146484 10.294922 86.146484 C 10.690798 86.146484 11.018598 85.93815 11.279297 85.521484 C 11.544823 85.104819 11.677734 84.547958 11.677734 83.853516 C 11.677734 83.145184 11.54884 82.597872 11.292969 82.208984 C 11.041926 81.820096 10.700123 81.625 10.265625 81.625 C 10.033893 81.625 9.7141251 81.708334 9.3085938 81.875 L 9.4609375 78.84375 C 9.6250811 78.878472 9.7539758 78.896484 9.8457031 78.896484 C 10.231923 78.896484 10.552723 78.7194 10.808594 78.365234 C 11.069292 78.011069 11.199219 77.589626 11.199219 77.103516 C 11.199219 76.638239 11.103266 76.268011 10.910156 75.990234 C 10.717046 75.712457 10.451224 75.572266 10.113281 75.572266 C 9.7656829 75.572266 9.4828739 75.725695 9.265625 76.03125 C 9.0483761 76.32986 8.9014628 76.858292 8.8242188 77.615234 L 6.0351562 76.896484 C 6.2668885 75.61871 6.712566 74.639538 7.3691406 73.958984 C 8.030543 73.27843 8.9649364 72.9375 10.171875 72.9375 z M 17.767578 73.197266 L 22.640625 73.197266 C 23.601348 73.197266 24.375858 73.384767 24.964844 73.759766 C 25.558658 74.134765 26.049327 74.673613 26.435547 75.375 C 26.821767 76.076387 27.101591 76.891712 27.275391 77.822266 C 27.44919 78.752819 27.537109 79.739586 27.537109 80.78125 C 27.537109 82.41319 27.40523 83.681209 27.144531 84.583984 C 26.88866 85.479816 26.532855 86.23264 26.074219 86.84375 C 25.615582 87.447915 25.121928 87.851346 24.595703 88.052734 C 23.876368 88.330511 23.224783 88.46875 22.640625 88.46875 L 17.767578 88.46875 L 17.767578 73.197266 z M 29.904297 73.197266 L 39.876953 73.197266 L 39.876953 76.96875 L 36.53125 76.96875 L 36.53125 88.46875 L 33.25 88.46875 L 33.25 76.96875 L 29.904297 76.96875 L 29.904297 73.197266 z M 42.664062 73.197266 L 45.611328 73.197266 L 45.611328 76.083984 L 42.664062 76.083984 L 42.664062 73.197266 z M 48.986328 73.197266 L 51.941406 73.197266 L 51.941406 88.46875 L 48.986328 88.46875 L 48.986328 73.197266 z M 21.048828 76.65625 L 21.048828 85 L 21.851562 85 C 22.537104 85 23.024788 84.893012 23.314453 84.677734 C 23.604118 84.455513 23.83195 84.072915 23.996094 83.53125 C 24.160237 82.98264 24.242188 82.097219 24.242188 80.875 C 24.242188 79.256948 24.058316 78.149955 23.691406 77.552734 C 23.324497 76.955514 22.714919 76.65625 21.865234 76.65625 L 21.048828 76.65625 z M 59.189453 77.15625 C 60.290181 77.15625 61.159611 77.395834 61.796875 77.875 C 62.434139 78.354166 62.918838 79.049264 63.251953 79.958984 C 63.585068 80.868704 63.751953 82.051436 63.751953 83.509766 L 63.751953 83.990234 L 57.841797 83.990234 C 57.894902 84.670788 58.023797 85.176433 58.226562 85.509766 C 58.5114 85.988931 58.88316 86.228516 59.341797 86.228516 C 59.631462 86.228516 59.90727 86.124348 60.167969 85.916016 C 60.327285 85.784071 60.498186 85.552083 60.681641 85.21875 L 63.585938 85.603516 C 63.141784 86.714624 62.606124 87.51389 61.978516 88 C 61.350908 88.479166 60.450488 88.71875 59.277344 88.71875 C 58.258688 88.71875 57.457205 88.513237 56.873047 88.103516 C 56.288889 87.68685 55.802236 87.030597 55.416016 86.134766 C 55.034623 85.23199 54.84375 84.174259 54.84375 82.958984 C 54.84375 81.229822 55.228481 79.829207 55.996094 78.759766 C 56.768534 77.690324 57.832854 77.15625 59.189453 77.15625 z M 70.037109 77.15625 C 70.954383 77.15625 71.629955 77.257596 72.064453 77.458984 C 72.503779 77.660373 72.868538 77.972874 73.158203 78.396484 C 73.452696 78.820094 73.697515 79.393014 73.890625 80.115234 L 71.095703 80.509766 C 71.023287 80.1556 70.901393 79.895182 70.732422 79.728516 C 70.50069 79.506294 70.220865 79.396484 69.892578 79.396484 C 69.559463 79.396484 69.316598 79.482639 69.162109 79.65625 C 69.012449 79.822916 68.9375 80.028429 68.9375 80.271484 C 68.9375 80.542317 69.033452 80.745877 69.226562 80.884766 C 69.419673 81.023654 69.839409 81.148655 70.486328 81.259766 C 71.466362 81.419487 72.19588 81.643013 72.673828 81.927734 C 73.151776 82.212456 73.516535 82.618708 73.767578 83.146484 C 74.023449 83.674261 74.150391 84.252823 74.150391 84.884766 C 74.150391 85.523653 74.016448 86.145835 73.746094 86.75 C 73.480567 87.354165 73.057846 87.836155 72.478516 88.197266 C 71.904013 88.551431 71.119517 88.728516 70.125 88.728516 C 68.720123 88.728516 67.717782 88.441622 67.119141 87.865234 C 66.525327 87.288847 66.143581 86.468747 65.974609 85.40625 L 68.900391 85.009766 C 69.021084 85.509764 69.190954 85.868707 69.408203 86.083984 C 69.625452 86.299262 69.915262 86.40625 70.277344 86.40625 C 70.67322 86.40625 70.978064 86.284071 71.195312 86.041016 C 71.364284 85.860461 71.449219 85.636067 71.449219 85.365234 C 71.449219 85.05968 71.339264 84.822916 71.117188 84.65625 C 70.957872 84.538195 70.53515 84.392361 69.849609 84.21875 C 68.826125 83.961806 68.113594 83.725043 67.712891 83.509766 C 67.317015 83.287544 66.982213 82.917316 66.707031 82.396484 C 66.436677 81.875652 66.300781 81.281899 66.300781 80.615234 C 66.300781 79.886069 66.447694 79.256292 66.742188 78.728516 C 67.036681 78.200739 67.442415 77.809678 67.958984 77.552734 C 68.475554 77.288846 69.168114 77.15625 70.037109 77.15625 z M 42.664062 77.40625 L 45.611328 77.40625 L 45.611328 88.46875 L 42.664062 88.46875 L 42.664062 77.40625 z M 59.3125 79.666016 C 58.844208 79.666016 58.469463 79.934029 58.189453 80.46875 C 58.010826 80.802083 57.897887 81.299264 57.849609 81.958984 L 60.753906 81.958984 C 60.695973 81.139542 60.542059 80.551431 60.291016 80.197266 C 60.0448 79.8431 59.718031 79.666016 59.3125 79.666016 z " />
  <path
     style="color:#000000;font-style:normal;font-variant:normal;font-weight:normal;font-stretch:normal;font-size:medium;line-height:normal;font-family:sans-serif;font-variant-ligatures:normal;font-variant-position:normal;font-variant-caps:normal;font-variant-numeric:normal;font-variant-alternates:normal;font-variant-east-asian:normal;font-feature-settings:normal;font-variation-settings:normal;text-indent:0;text-align:start;text-decoration:none;text-decoration-line:none;text-decoration-style:solid;text-decoration-color:#000000;letter-spacing:normal;word-spacing:normal;text-transform:none;writing-mode:lr-tb;direction:ltr;text-orientation:mixed;dominant-baseline:auto;baseline-shift:baseline;text-anchor:start;white-space:normal;shape-padding:0;shape-margin:0;inline-size:0;clip-rule:nonzero;display:inline;overflow:visible;visibility:visible;opacity:1;isolation:auto;mix-blend-mode:normal;color-interpolation:sRGB;color-interpolation-filters:linearRGB;solid-color:#000000;solid-opacity:1;vector-effect:none;fill:#000080;fill-opacity:1;fill-rule:nonzero;stroke:none;stroke-width:5;stroke-linecap:round;stroke-linejoin:round;stroke-miterlimit:4;stroke-dasharray:none;stroke-dashoffset:20;stroke-opacity:1;color-rendering:auto;image-rendering:auto;shape-rendering:auto;text-rendering:auto;enable-background:accumulate;stop-color:#000000;stop-opacity:1"
     d="m 70.771484,9.1152344 8.609375,8.6093746 -7.927734,-0.68164 z"
     id="path922" />
  <path
     id="path61"
     style="color:#000000;fill:#000080;fill-rule:evenodd;stroke-linejoin:round;-inkscape-stroke:none"
     d="M 37.835938 14.582031 A 1.889954 1.889954 0 0 0 37.259766 14.671875 L 26.146484 18.232422 A 1.889954 1.889954 0 0 0 26.029297 18.294922 A 1.889954 1.889954 0 0 0 25.755859 18.439453 A 1.889954 1.889954 0 0 0 25.451172 18.662109 A 1.889954 1.889954 0 0 0 25.244141 18.898438 A 1.889954 1.889954 0 0 0 25.042969 19.21875 A 1.889954 1.889954 0 0 0 24.935547 19.501953 A 1.889954 1.889954 0 0 0 24.863281 19.878906 A 1.889954 1.889954 0 0 0 24.833984 20.03125 L 24.833984 46.433594 A 1.889954 1.889954 0 0 0 26.146484 48.232422 L 39.927734 52.648438 A 1.889954 1.889954 0 0 0 40.349609 52.726562 A 1.889954 1.889954 0 0 0 40.414062 52.730469 A 1.889954 1.889954 0 0 0 41.039062 52.654297 A 1.889954 1.889954 0 0 0 41.080078 52.648438 L 52.193359 49.087891 A 1.889954 1.889954 0 0 0 53.505859 47.289062 L 53.505859 20.886719 A 1.889954 1.889954 0 0 0 53.494141 20.738281 A 1.889954 1.889954 0 0 0 53.486328 20.632812 A 1.889954 1.889954 0 0 0 53.404297 20.279297 A 1.889954 1.889954 0 0 0 53.361328 20.175781 A 1.889954 1.889954 0 0 0 53.238281 19.927734 A 1.889954 1.889954 0 0 0 53.175781 19.826172 A 1.889954 1.889954 0 0 0 52.939453 19.539062 A 1.889954 1.889954 0 0 0 52.890625 19.496094 A 1.889954 1.889954 0 0 0 52.640625 19.304688 A 1.889954 1.889954 0 0 0 52.535156 19.240234 A 1.889954 1.889954 0 0 0 52.205078 19.091797 A 1.889954 1.889954 0 0 0 52.193359 19.085938 L 38.412109 14.671875 A 1.889954 1.889954 0 0 0 37.835938 14.582031 z M 37.835938 18.457031 L 45.421875 20.886719 L 43.761719 21.417969 L 40.503906 22.460938 L 32.919922 20.03125 L 37.835938 18.457031 z M 28.613281 22.623047 L 38.615234 25.826172 L 38.615234 48.259766 L 28.613281 45.054688 L 28.613281 22.623047 z M 49.726562 23.476562 L 49.726562 45.910156 L 42.394531 48.257812 L 42.394531 25.824219 L 46.201172 24.605469 L 49.726562 23.476562 z " />
  <path
     style="color:#000000;fill:#000080;stroke-linecap:round;stroke-linejoin:round;-inkscape-stroke:none"
     d="m 64.849609,34.191406 a 1.889765,1.889765 0 0 0 -2.041015,1.72461 l -1.398438,16.765625 a 1.889765,1.889765 0 0 0 1.726563,2.039062 1.889765,1.889765 0 0 0 2.039062,-1.724609 l 1.400391,-16.765625 a 1.889765,1.889765 0 0 0 -1.726563,-2.039063 z"
     id="path64" />
  <path
     style="color:#000000;fill:#000080;stroke-linecap:round;stroke-linejoin:round;-inkscape-stroke:none"
     d="m 57.341797,56.802734 -20.076172,2.234375 a 1.889765,1.889765 0 0 0 -1.669922,2.085938 1.889765,1.889765 0 0 0 2.087891,1.669922 l 20.076172,-2.234375 a 1.889765,1.889765 0 0 0 1.669921,-2.087891 1.889765,1.889765 0 0 0 -2.08789,-1.667969 z"
     id="path64-7" />
  <path
     style="color:#000000;fill:#000080;-inkscape-stroke:none"
     d="m 32.792969,54.527344 c -3.395138,0 -6.189453,2.792362 -6.189453,6.1875 0,3.395137 2.794315,6.1875 6.189453,6.1875 3.395137,0 6.1875,-2.792363 6.1875,-6.1875 0,-3.395138 -2.792363,-6.1875 -6.1875,-6.1875 z m 0,3.779297 c 1.352529,0 2.408203,1.055673 2.408203,2.408203 0,1.352529 -1.055674,2.408203 -2.408203,2.408203 -1.35253,0 -2.410157,-1.055674 -2.410157,-2.408203 0,-1.35253 1.057627,-2.408203 2.410157,-2.408203 z"
     id="path1" />
  <path
     style="color:#000000;fill:#000080;-inkscape-stroke:none"
     d="m 62.539062,51.255859 c -3.395137,0 -6.1875,2.792363 -6.1875,6.1875 0,3.395138 2.792363,6.189454 6.1875,6.189453 3.395138,0 6.187501,-2.794315 6.1875,-6.189453 0,-3.395137 -2.792362,-6.1875 -6.1875,-6.1875 z m 0,3.779297 c 1.35253,0 2.408204,1.055674 2.408204,2.408203 0,1.35253 -1.055674,2.408204 -2.408204,2.408203 -1.352529,0 -2.408203,-1.055673 -2.408203,-2.408203 0,-1.352529 1.055674,-2.408203 2.408203,-2.408203 z"
     id="path1-5" />
  <path
     style="color:#000000;fill:#000080;-inkscape-stroke:none"
     d="m 65.001953,25.511719 c -3.395137,0 -6.1875,2.792362 -6.1875,6.1875 0,3.395137 2.792363,6.189453 6.1875,6.189453 3.395137,0 6.1875,-2.794316 6.1875,-6.189453 0,-3.395138 -2.792363,-6.1875 -6.1875,-6.1875 z m 0,3.779297 c 1.35253,0 2.408203,1.055673 2.408203,2.408203 0,1.352529 -1.055673,2.410156 -2.408203,2.410156 -1.35253,0 -2.408203,-1.057627 -2.408203,-2.410156 0,-1.35253 1.055673,-2.408203 2.408203,-2.408203 z"
     id="path1-54" />
</svg>
