<?xml version="1.0" encoding="UTF-8" standalone="no"?>
<svg
   version="1.1"
   width="100"
   height="100"
   id="svg4460"
   sodipodi:docname="uEB64-sos.svg"
   inkscape:version="1.3.2 (091e20ef0f, 2023-11-25)"
   xmlns:inkscape="http://www.inkscape.org/namespaces/inkscape"
   xmlns:sodipodi="http://sodipodi.sourceforge.net/DTD/sodipodi-0.dtd"
   xmlns="http://www.w3.org/2000/svg"
   xmlns:svg="http://www.w3.org/2000/svg"
   xmlns:rdf="http://www.w3.org/1999/02/22-rdf-syntax-ns#"
   xmlns:cc="http://creativecommons.org/ns#"
   xmlns:dc="http://purl.org/dc/elements/1.1/">
  <sodipodi:namedview
     pagecolor="#ffffff"
     bordercolor="#666666"
     borderopacity="1"
     objecttolerance="10"
     gridtolerance="10"
     guidetolerance="10"
     inkscape:pageopacity="0"
     inkscape:pageshadow="2"
     inkscape:window-width="3840"
     inkscape:window-height="2105"
     id="namedview11"
     showgrid="false"
     inkscape:zoom="7.21"
     inkscape:cx="78.640777"
     inkscape:cy="35.714286"
     inkscape:window-x="0"
     inkscape:window-y="31"
     inkscape:window-maximized="1"
     inkscape:current-layer="svg4460"
     inkscape:document-rotation="0"
     inkscape:showpageshadow="2"
     inkscape:pagecheckerboard="0"
     inkscape:deskcolor="#d1d1d1" />
  <defs
     id="defs4462" />
  <metadata
     id="metadata4465">
    <rdf:RDF>
      <cc:Work
         rdf:about="">
        <dc:format>image/svg+xml</dc:format>
        <dc:type
           rdf:resource="http://purl.org/dc/dcmitype/StillImage" />
      </cc:Work>
    </rdf:RDF>
  </metadata>
  <path
     id="rect910"
     style="color:#000000;overflow:visible;fill:#000080;stroke-width:8.653;stroke-linecap:round;stroke-linejoin:round;stroke-dashoffset:20"
     d="M 49.953125 5 A 45 45 0 0 0 7.7578125 34.498047 L 2.5 34.498047 A 3.0020802 3.0020802 0 0 0 -0.50195312 37.5 L -0.50195312 62.5 A 3.0020802 3.0020802 0 0 0 2.5 65.501953 L 7.7558594 65.501953 A 45 45 0 0 0 50 95 A 45 45 0 0 0 92.242188 65.501953 L 97.5 65.501953 A 3.0020802 3.0020802 0 0 0 100.50195 62.5 L 100.50195 37.5 A 3.0020802 3.0020802 0 0 0 97.5 34.498047 L 92.244141 34.498047 A 45 45 0 0 0 50 5 A 45 45 0 0 0 49.953125 5 z M 52.25 10.113281 C 56.99081 10.919862 61.521221 14.825839 65.089844 21.306641 C 66.24016 23.395673 67.2693 25.740009 68.158203 28.28125 L 52.25 28.28125 L 52.25 10.113281 z M 47.75 10.291016 L 47.75 28.28125 L 32.675781 28.28125 C 33.564684 25.740009 34.591871 23.395673 35.742188 21.306641 C 39.101121 15.20664 43.313458 11.39216 47.75 10.291016 z M 37.382812 11.509766 C 35.291213 13.626431 33.41177 16.207534 31.798828 19.136719 C 30.287095 21.882104 28.986256 24.955512 27.917969 28.28125 L 15.808594 28.28125 C 20.790461 20.44607 28.387281 14.450242 37.382812 11.509766 z M 63.851562 11.925781 C 72.309225 14.996946 79.438387 20.805985 84.191406 28.28125 L 72.910156 28.28125 C 71.844074 24.955371 70.544601 21.881498 69.033203 19.136719 C 67.524228 16.396342 65.781935 13.962558 63.851562 11.925781 z M 13.330078 32.78125 L 26.658203 32.78125 C 26.522788 33.342394 26.411541 33.92411 26.291016 34.498047 L 12.580078 34.498047 C 12.818287 33.919155 13.065064 33.345598 13.330078 32.78125 z M 31.306641 32.78125 L 47.75 32.78125 L 47.75 34.498047 L 30.908203 34.498047 C 31.039484 33.924061 31.161231 33.340368 31.306641 32.78125 z M 52.25 32.78125 L 69.525391 32.78125 C 69.670798 33.340368 69.792548 33.924061 69.923828 34.498047 L 52.25 34.498047 L 52.25 32.78125 z M 74.169922 32.78125 L 86.669922 32.78125 C 86.934936 33.345598 87.181713 33.919155 87.419922 34.498047 L 74.535156 34.498047 C 74.415036 33.924081 74.304972 33.342496 74.169922 32.78125 z M 27.744141 41.933594 C 30.208887 41.933594 32.087566 42.298178 33.376953 43.027344 C 34.675111 43.749565 35.445809 44.901043 35.691406 46.484375 L 30.074219 46.746094 C 29.925106 46.058594 29.609377 45.558593 29.126953 45.246094 C 28.653301 44.933594 27.994392 44.777344 27.152344 44.777344 C 26.459408 44.777344 25.938744 44.894749 25.587891 45.130859 C 25.237037 45.360026 25.060547 45.641276 25.060547 45.974609 C 25.060547 46.217665 25.204686 46.436415 25.494141 46.630859 C 25.774823 46.832248 26.44158 47.019748 27.494141 47.193359 C 30.099228 47.637803 31.963206 48.088542 33.085938 48.546875 C 34.21744 48.998263 35.038137 49.560765 35.546875 50.234375 C 36.064384 50.907985 36.322266 51.662761 36.322266 52.496094 C 36.322266 53.475259 35.981039 54.376737 35.296875 55.203125 C 34.612711 56.029513 33.657675 56.659289 32.429688 57.089844 C 31.2017 57.513454 29.653451 57.724609 27.785156 57.724609 C 24.504676 57.724609 22.231823 57.224608 20.96875 56.224609 C 19.705677 55.22461 18.990874 53.953774 18.824219 52.412109 L 24.494141 52.130859 C 24.616939 52.860025 24.866973 53.414931 25.244141 53.796875 C 25.858134 54.41493 26.736679 54.724609 27.876953 54.724609 C 28.727773 54.724609 29.379828 54.568359 29.835938 54.255859 C 30.300818 53.936415 30.533203 53.56901 30.533203 53.152344 C 30.533203 52.756511 30.31552 52.402343 29.876953 52.089844 C 29.438386 51.777344 28.420602 51.480902 26.824219 51.203125 C 24.21036 50.737848 22.346382 50.120442 21.232422 49.349609 C 20.109691 48.578777 19.548828 47.596787 19.548828 46.402344 C 19.548828 45.617622 19.832207 44.878037 20.402344 44.183594 C 20.981252 43.482206 21.847049 42.932942 22.996094 42.537109 C 24.15391 42.134332 25.735504 41.933594 27.744141 41.933594 z M 71.714844 41.933594 C 74.17959 41.933594 76.05827 42.298178 77.347656 43.027344 C 78.645814 43.749565 79.416512 44.901043 79.662109 46.484375 L 74.044922 46.746094 C 73.895809 46.058594 73.58008 45.558593 73.097656 45.246094 C 72.624004 44.933594 71.965095 44.777344 71.123047 44.777344 C 70.430111 44.777344 69.909447 44.894749 69.558594 45.130859 C 69.20774 45.360026 69.03125 45.641276 69.03125 45.974609 C 69.03125 46.217665 69.17539 46.436415 69.464844 46.630859 C 69.745527 46.832248 70.412283 47.019748 71.464844 47.193359 C 74.069931 47.637803 75.933909 48.088542 77.056641 48.546875 C 78.188143 48.998263 79.008841 49.560765 79.517578 50.234375 C 80.035087 50.907985 80.294922 51.662761 80.294922 52.496094 C 80.294922 53.475259 79.951742 54.376737 79.267578 55.203125 C 78.583414 56.029513 77.628378 56.659289 76.400391 57.089844 C 75.172403 57.513454 73.624154 57.724609 71.755859 57.724609 C 68.475379 57.724609 66.202526 57.224608 64.939453 56.224609 C 63.67638 55.22461 62.961577 53.953774 62.794922 52.412109 L 68.464844 52.130859 C 68.587642 52.860025 68.837676 53.414931 69.214844 53.796875 C 69.828837 54.41493 70.707382 54.724609 71.847656 54.724609 C 72.698476 54.724609 73.350531 54.568359 73.806641 54.255859 C 74.271522 53.936415 74.503906 53.56901 74.503906 53.152344 C 74.503906 52.756511 74.286223 52.402343 73.847656 52.089844 C 73.409089 51.777344 72.391305 51.480902 70.794922 51.203125 C 68.181063 50.737848 66.317085 50.120442 65.203125 49.349609 C 64.080394 48.578777 63.519531 47.596787 63.519531 46.402344 C 63.519531 45.617622 63.80291 44.878037 64.373047 44.183594 C 64.951955 43.482206 65.817752 42.932942 66.966797 42.537109 C 68.124613 42.134332 69.706207 41.933594 71.714844 41.933594 z M 41.822266 42.193359 L 51.730469 42.193359 C 53.888218 42.193359 55.502162 42.59961 56.572266 43.412109 C 57.65114 44.224609 58.189453 45.380861 58.189453 46.880859 C 58.189453 48.422524 57.603094 49.628039 56.427734 50.496094 C 55.261146 51.364148 53.475612 51.796875 51.072266 51.796875 L 47.808594 51.796875 L 47.808594 57.464844 L 41.822266 57.464844 L 41.822266 42.193359 z M 47.808594 45.296875 L 47.808594 48.703125 L 49.269531 48.703125 C 50.418576 48.703125 51.226525 48.546875 51.691406 48.234375 C 52.156287 47.914931 52.388672 47.50868 52.388672 47.015625 C 52.388672 46.536459 52.186685 46.130208 51.783203 45.796875 C 51.379722 45.463542 50.619819 45.296875 49.505859 45.296875 L 47.808594 45.296875 z M 12.580078 65.501953 L 26.103516 65.501953 C 26.215939 66.074902 26.318145 66.655834 26.445312 67.216797 L 13.330078 67.216797 C 13.06532 66.652992 12.818082 66.080047 12.580078 65.501953 z M 30.708984 65.501953 L 47.75 65.501953 L 47.75 67.216797 L 31.082031 67.216797 C 30.945425 66.657193 30.831709 66.075256 30.708984 65.501953 z M 52.25 65.501953 L 70.123047 65.501953 C 70.000115 66.075174 69.886591 66.657254 69.75 67.216797 L 52.25 67.216797 L 52.25 65.501953 z M 74.722656 65.501953 L 87.419922 65.501953 C 87.181918 66.080047 86.93468 66.652992 86.669922 67.216797 L 74.380859 67.216797 C 74.507739 66.655709 74.610579 66.074978 74.722656 65.501953 z M 15.808594 71.716797 L 27.632812 71.716797 C 28.750219 75.392101 30.151016 78.773115 31.798828 81.765625 C 33.092677 84.115323 34.560574 86.238131 36.167969 88.082031 C 27.701869 85.012692 20.565228 79.197745 15.808594 71.716797 z M 32.363281 71.716797 L 47.75 71.716797 L 47.75 90.435547 C 47.47293 90.420427 47.199375 90.391744 46.923828 90.371094 C 42.792429 89.021737 38.891773 85.313569 35.742188 79.59375 C 34.456575 77.259011 33.318423 74.609986 32.363281 71.716797 z M 52.25 71.716797 L 68.46875 71.716797 C 67.513609 74.609987 66.375456 77.259011 65.089844 79.59375 C 62.004985 85.196015 58.200975 88.872144 54.164062 90.289062 C 53.530419 90.353572 52.892016 90.400502 52.25 90.435547 L 52.25 71.716797 z M 73.197266 71.716797 L 84.191406 71.716797 C 79.672025 78.824612 73.002008 84.4204 65.085938 87.59375 C 66.529426 85.86567 67.852466 83.909902 69.033203 81.765625 C 70.680927 78.773269 72.081944 75.392933 73.197266 71.716797 z " />
</svg>
