<?xml version="1.0" encoding="UTF-8" standalone="no"?>
<svg
   version="1.1"
   width="100"
   height="100"
   id="svg4460"
   sodipodi:docname="uEB62-tjs.svg"
   inkscape:version="1.3.2 (091e20ef0f, 2023-11-25)"
   xmlns:inkscape="http://www.inkscape.org/namespaces/inkscape"
   xmlns:sodipodi="http://sodipodi.sourceforge.net/DTD/sodipodi-0.dtd"
   xmlns="http://www.w3.org/2000/svg"
   xmlns:svg="http://www.w3.org/2000/svg"
   xmlns:rdf="http://www.w3.org/1999/02/22-rdf-syntax-ns#"
   xmlns:cc="http://creativecommons.org/ns#"
   xmlns:dc="http://purl.org/dc/elements/1.1/">
  <sodipodi:namedview
     pagecolor="#ffffff"
     bordercolor="#666666"
     borderopacity="1"
     objecttolerance="10"
     gridtolerance="10"
     guidetolerance="10"
     inkscape:pageopacity="0"
     inkscape:pageshadow="2"
     inkscape:window-width="3840"
     inkscape:window-height="2105"
     id="namedview11"
     showgrid="false"
     inkscape:zoom="7.21"
     inkscape:cx="78.640777"
     inkscape:cy="35.714286"
     inkscape:window-x="0"
     inkscape:window-y="31"
     inkscape:window-maximized="1"
     inkscape:current-layer="svg4460"
     inkscape:document-rotation="0"
     inkscape:showpageshadow="2"
     inkscape:pagecheckerboard="0"
     inkscape:deskcolor="#d1d1d1" />
  <defs
     id="defs4462" />
  <metadata
     id="metadata4465">
    <rdf:RDF>
      <cc:Work
         rdf:about="">
        <dc:format>image/svg+xml</dc:format>
        <dc:type
           rdf:resource="http://purl.org/dc/dcmitype/StillImage" />
      </cc:Work>
    </rdf:RDF>
  </metadata>
  <path
     id="rect910"
     style="color:#000000;overflow:visible;fill:#000080;stroke-width:8.653;stroke-linecap:round;stroke-linejoin:round;stroke-dashoffset:20"
     d="M 49.953125 5 A 45 45 0 0 0 7.7578125 34.498047 L 2.5 34.498047 A 3.0020802 3.0020802 0 0 0 -0.50195312 37.5 L -0.50195312 62.5 A 3.0020802 3.0020802 0 0 0 2.5 65.501953 L 7.7558594 65.501953 A 45 45 0 0 0 50 95 A 45 45 0 0 0 92.242188 65.501953 L 97.5 65.501953 A 3.0020802 3.0020802 0 0 0 100.50195 62.5 L 100.50195 37.5 A 3.0020802 3.0020802 0 0 0 97.5 34.498047 L 92.244141 34.498047 A 45 45 0 0 0 50 5 A 45 45 0 0 0 49.953125 5 z M 52.25 10.113281 C 56.99081 10.919862 61.521221 14.825839 65.089844 21.306641 C 66.24016 23.395673 67.2693 25.740009 68.158203 28.28125 L 52.25 28.28125 L 52.25 10.113281 z M 47.75 10.291016 L 47.75 28.28125 L 32.675781 28.28125 C 33.564684 25.740009 34.591871 23.395673 35.742188 21.306641 C 39.101121 15.20664 43.313458 11.39216 47.75 10.291016 z M 37.382812 11.509766 C 35.291213 13.626431 33.41177 16.207534 31.798828 19.136719 C 30.287095 21.882104 28.986256 24.955512 27.917969 28.28125 L 15.808594 28.28125 C 20.790461 20.44607 28.387281 14.450242 37.382812 11.509766 z M 63.851562 11.925781 C 72.309225 14.996946 79.438387 20.805985 84.191406 28.28125 L 72.910156 28.28125 C 71.844074 24.955371 70.544601 21.881498 69.033203 19.136719 C 67.524228 16.396342 65.781935 13.962558 63.851562 11.925781 z M 13.330078 32.78125 L 26.658203 32.78125 C 26.522788 33.342394 26.411541 33.92411 26.291016 34.498047 L 12.580078 34.498047 C 12.818287 33.919155 13.065064 33.345598 13.330078 32.78125 z M 31.306641 32.78125 L 47.75 32.78125 L 47.75 34.498047 L 30.908203 34.498047 C 31.039484 33.924061 31.161231 33.340368 31.306641 32.78125 z M 52.25 32.78125 L 69.525391 32.78125 C 69.670798 33.340368 69.792548 33.924061 69.923828 34.498047 L 52.25 34.498047 L 52.25 32.78125 z M 74.169922 32.78125 L 86.669922 32.78125 C 86.934936 33.345598 87.181713 33.919155 87.419922 34.498047 L 74.535156 34.498047 C 74.415036 33.924081 74.304972 33.342496 74.169922 32.78125 z M 70.076172 41.808594 C 72.512836 41.808594 74.367882 42.173179 75.642578 42.902344 C 76.925946 43.624564 77.690794 44.778 77.933594 46.361328 L 72.378906 46.621094 C 72.231492 45.933596 71.918333 45.433593 71.441406 45.121094 C 70.973151 44.808595 70.322689 44.652344 69.490234 44.652344 C 68.805194 44.652344 68.290215 44.771702 67.943359 45.007812 C 67.596503 45.236978 67.423828 45.51823 67.423828 45.851562 C 67.423828 46.094617 67.565406 46.313369 67.851562 46.507812 C 68.129047 46.709201 68.78951 46.896702 69.830078 47.070312 C 72.405485 47.514756 74.247482 47.965496 75.357422 48.423828 C 76.476033 48.875216 77.286121 49.437719 77.789062 50.111328 C 78.300675 50.784937 78.556641 51.537763 78.556641 52.371094 C 78.556641 53.350257 78.219338 54.253692 77.542969 55.080078 C 76.866599 55.906464 75.921028 56.53429 74.707031 56.964844 C 73.493035 57.388454 71.962243 57.601563 70.115234 57.601562 C 66.87213 57.601562 64.625635 57.101559 63.376953 56.101562 C 62.128271 55.101566 61.422569 53.830724 61.257812 52.289062 L 66.863281 52.007812 C 66.984681 52.736977 67.232598 53.291885 67.605469 53.673828 C 68.212467 54.291882 69.079749 54.601563 70.207031 54.601562 C 71.048157 54.601562 71.693618 54.445312 72.144531 54.132812 C 72.604116 53.813369 72.833984 53.444009 72.833984 53.027344 C 72.833984 52.631512 72.617164 52.277343 72.183594 51.964844 C 71.750024 51.652345 70.744211 51.357855 69.166016 51.080078 C 66.581938 50.614802 64.73994 49.997393 63.638672 49.226562 C 62.528732 48.455732 61.972656 47.471784 61.972656 46.277344 C 61.972656 45.492624 62.254718 44.753036 62.818359 44.058594 C 63.390672 43.357207 64.244906 42.809895 65.380859 42.414062 C 66.525484 42.011286 68.090421 41.808594 70.076172 41.808594 z M 18.945312 42.070312 L 36.855469 42.070312 L 36.855469 45.839844 L 30.847656 45.839844 L 30.847656 57.339844 L 24.955078 57.339844 L 24.955078 45.839844 L 18.945312 45.839844 L 18.945312 42.070312 z M 49.955078 42.070312 L 55.859375 42.070312 L 55.859375 50.371094 C 55.859375 52.114144 55.663651 53.441843 55.273438 54.351562 C 54.891896 55.261282 54.115952 56.03212 52.945312 56.664062 C 51.783345 57.296005 50.291698 57.611328 48.470703 57.611328 C 46.545652 57.611328 45.055958 57.402994 43.998047 56.986328 C 42.940136 56.569663 42.120046 55.962671 41.539062 55.164062 C 40.96675 54.358509 40.627494 53.364146 40.523438 52.183594 L 46.15625 51.570312 C 46.164921 52.243922 46.238211 52.743925 46.376953 53.070312 C 46.515696 53.3967 46.750565 53.65994 47.080078 53.861328 C 47.305535 53.993272 47.626741 54.058594 48.042969 54.058594 C 48.701995 54.058594 49.182829 53.86545 49.486328 53.476562 C 49.798499 53.08073 49.955078 52.416881 49.955078 51.486328 L 49.955078 42.070312 z M 12.580078 65.501953 L 26.103516 65.501953 C 26.215939 66.074902 26.318145 66.655834 26.445312 67.216797 L 13.330078 67.216797 C 13.06532 66.652992 12.818082 66.080047 12.580078 65.501953 z M 30.708984 65.501953 L 47.75 65.501953 L 47.75 67.216797 L 31.082031 67.216797 C 30.945425 66.657193 30.831709 66.075256 30.708984 65.501953 z M 52.25 65.501953 L 70.123047 65.501953 C 70.000115 66.075174 69.886591 66.657254 69.75 67.216797 L 52.25 67.216797 L 52.25 65.501953 z M 74.722656 65.501953 L 87.419922 65.501953 C 87.181918 66.080047 86.93468 66.652992 86.669922 67.216797 L 74.380859 67.216797 C 74.507739 66.655709 74.610579 66.074978 74.722656 65.501953 z M 15.808594 71.716797 L 27.632812 71.716797 C 28.750219 75.392101 30.151016 78.773115 31.798828 81.765625 C 33.092677 84.115323 34.560574 86.238131 36.167969 88.082031 C 27.701869 85.012692 20.565228 79.197745 15.808594 71.716797 z M 32.363281 71.716797 L 47.75 71.716797 L 47.75 90.435547 C 47.47293 90.420427 47.199375 90.391744 46.923828 90.371094 C 42.792429 89.021737 38.891773 85.313569 35.742188 79.59375 C 34.456575 77.259011 33.318423 74.609986 32.363281 71.716797 z M 52.25 71.716797 L 68.46875 71.716797 C 67.513609 74.609987 66.375456 77.259011 65.089844 79.59375 C 62.004985 85.196015 58.200975 88.872144 54.164062 90.289062 C 53.530419 90.353572 52.892016 90.400502 52.25 90.435547 L 52.25 71.716797 z M 73.197266 71.716797 L 84.191406 71.716797 C 79.672025 78.824612 73.002008 84.4204 65.085938 87.59375 C 66.529426 85.86567 67.852466 83.909902 69.033203 81.765625 C 70.680927 78.773269 72.081944 75.392933 73.197266 71.716797 z " />
</svg>
