<?xml version="1.0" encoding="UTF-8" standalone="no"?>
<svg
   version="1.1"
   width="100"
   height="100"
   id="svg4460"
   sodipodi:docname="uEB64-sos.svg"
   inkscape:version="1.3.2 (091e20ef0f, 2023-11-25)"
   xmlns:inkscape="http://www.inkscape.org/namespaces/inkscape"
   xmlns:sodipodi="http://sodipodi.sourceforge.net/DTD/sodipodi-0.dtd"
   xmlns="http://www.w3.org/2000/svg"
   xmlns:svg="http://www.w3.org/2000/svg"
   xmlns:rdf="http://www.w3.org/1999/02/22-rdf-syntax-ns#"
   xmlns:cc="http://creativecommons.org/ns#"
   xmlns:dc="http://purl.org/dc/elements/1.1/">
  <sodipodi:namedview
     pagecolor="#ffffff"
     bordercolor="#666666"
     borderopacity="1"
     objecttolerance="10"
     gridtolerance="10"
     guidetolerance="10"
     inkscape:pageopacity="0"
     inkscape:pageshadow="2"
     inkscape:window-width="3840"
     inkscape:window-height="2105"
     id="namedview11"
     showgrid="false"
     inkscape:zoom="7.21"
     inkscape:cx="78.640777"
     inkscape:cy="35.714286"
     inkscape:window-x="0"
     inkscape:window-y="31"
     inkscape:window-maximized="1"
     inkscape:current-layer="svg4460"
     inkscape:document-rotation="0"
     inkscape:showpageshadow="2"
     inkscape:pagecheckerboard="0"
     inkscape:deskcolor="#d1d1d1" />
  <defs
     id="defs4462" />
  <metadata
     id="metadata4465">
    <rdf:RDF>
      <cc:Work
         rdf:about="">
        <dc:format>image/svg+xml</dc:format>
        <dc:type
           rdf:resource="http://purl.org/dc/dcmitype/StillImage" />
      </cc:Work>
    </rdf:RDF>
  </metadata>
  <path
     id="rect910"
     style="color:#000000;overflow:visible;fill:#000080;stroke-width:8.653;stroke-linecap:round;stroke-linejoin:round;stroke-dashoffset:20"
     d="M 49.953125 5 A 45 45 0 0 0 7.7578125 34.498047 L 2.5 34.498047 A 3.0020802 3.0020802 0 0 0 -0.50195312 37.5 L -0.50195312 62.5 A 3.0020802 3.0020802 0 0 0 2.5 65.501953 L 7.7558594 65.501953 A 45 45 0 0 0 50 95 A 45 45 0 0 0 92.242188 65.501953 L 97.5 65.501953 A 3.0020802 3.0020802 0 0 0 100.50195 62.5 L 100.50195 37.5 A 3.0020802 3.0020802 0 0 0 97.5 34.498047 L 92.244141 34.498047 A 45 45 0 0 0 50 5 A 45 45 0 0 0 49.953125 5 z M 52.25 10.113281 C 56.99081 10.919862 61.521221 14.825839 65.089844 21.306641 C 66.24016 23.395673 67.2693 25.740009 68.158203 28.28125 L 52.25 28.28125 L 52.25 10.113281 z M 47.75 10.291016 L 47.75 28.28125 L 32.675781 28.28125 C 33.564684 25.740009 34.591871 23.395673 35.742188 21.306641 C 39.101121 15.20664 43.313458 11.39216 47.75 10.291016 z M 37.382812 11.509766 C 35.291213 13.626431 33.41177 16.207534 31.798828 19.136719 C 30.287095 21.882104 28.986256 24.955512 27.917969 28.28125 L 15.808594 28.28125 C 20.790461 20.44607 28.387281 14.450242 37.382812 11.509766 z M 63.851562 11.925781 C 72.309225 14.996946 79.438387 20.805985 84.191406 28.28125 L 72.910156 28.28125 C 71.844074 24.955371 70.544601 21.881498 69.033203 19.136719 C 67.524228 16.396342 65.781935 13.962558 63.851562 11.925781 z M 13.330078 32.78125 L 26.658203 32.78125 C 26.522788 33.342394 26.411541 33.92411 26.291016 34.498047 L 12.580078 34.498047 C 12.818287 33.919155 13.065064 33.345598 13.330078 32.78125 z M 31.306641 32.78125 L 47.75 32.78125 L 47.75 34.498047 L 30.908203 34.498047 C 31.039484 33.924061 31.161231 33.340368 31.306641 32.78125 z M 52.25 32.78125 L 69.525391 32.78125 C 69.670798 33.340368 69.792548 33.924061 69.923828 34.498047 L 52.25 34.498047 L 52.25 32.78125 z M 74.169922 32.78125 L 86.669922 32.78125 C 86.934936 33.345598 87.181713 33.919155 87.419922 34.498047 L 74.535156 34.498047 C 74.415036 33.924081 74.304972 33.342496 74.169922 32.78125 z M 25.191406 41.933594 C 27.656152 41.933594 29.534832 42.298178 30.824219 43.027344 C 32.122377 43.749565 32.893074 44.901043 33.138672 46.484375 L 27.521484 46.746094 C 27.372372 46.058594 27.056642 45.558593 26.574219 45.246094 C 26.100567 44.933594 25.441658 44.777344 24.599609 44.777344 C 23.906674 44.777344 23.38601 44.894749 23.035156 45.130859 C 22.684303 45.360026 22.507813 45.641276 22.507812 45.974609 C 22.507812 46.217665 22.653905 46.436415 22.943359 46.630859 C 23.224042 46.832248 23.890799 47.019748 24.943359 47.193359 C 27.548447 47.637803 29.410472 48.088542 30.533203 48.546875 C 31.664706 48.998263 32.485403 49.560765 32.994141 50.234375 C 33.51165 50.907985 33.771484 51.662761 33.771484 52.496094 C 33.771484 53.475259 33.428305 54.376737 32.744141 55.203125 C 32.059976 56.029513 31.10494 56.659289 29.876953 57.089844 C 28.648966 57.513454 27.100717 57.724609 25.232422 57.724609 C 21.951942 57.724609 19.679088 57.224608 18.416016 56.224609 C 17.152943 55.22461 16.43814 53.953774 16.271484 52.412109 L 21.943359 52.130859 C 22.066158 52.860025 22.316192 53.414931 22.693359 53.796875 C 23.307353 54.41493 24.183945 54.724609 25.324219 54.724609 C 26.175039 54.724609 26.829047 54.568359 27.285156 54.255859 C 27.750037 53.936415 27.982422 53.56901 27.982422 53.152344 C 27.982422 52.756511 27.762786 52.402343 27.324219 52.089844 C 26.885652 51.777344 25.867868 51.480902 24.271484 51.203125 C 21.657626 50.737848 19.793647 50.120442 18.679688 49.349609 C 17.556956 48.578777 16.996094 47.596787 16.996094 46.402344 C 16.996094 45.617622 17.281426 44.878037 17.851562 44.183594 C 18.430471 43.482206 19.294314 42.932942 20.443359 42.537109 C 21.601176 42.134332 23.18277 41.933594 25.191406 41.933594 z M 48.505859 41.933594 C 51.716169 41.933594 54.19101 42.616321 55.927734 43.984375 C 57.664459 45.345485 58.533203 47.256513 58.533203 49.714844 C 58.533203 51.499564 58.149825 52.963543 57.386719 54.109375 C 56.632384 55.248263 55.536156 56.138456 54.097656 56.777344 C 52.667928 57.409288 50.884347 57.724609 48.744141 57.724609 C 46.568849 57.724609 44.765666 57.450954 43.335938 56.902344 C 41.914981 56.353733 40.760905 55.484374 39.875 54.296875 C 38.989095 53.109376 38.546875 51.624564 38.546875 49.839844 C 38.546875 47.346791 39.423467 45.404512 41.177734 44.015625 C 42.932002 42.626738 45.374492 41.933594 48.505859 41.933594 z M 72.150391 41.933594 C 74.615137 41.933594 76.491863 42.298178 77.78125 43.027344 C 79.079408 43.749565 79.850106 44.901043 80.095703 46.484375 L 74.478516 46.746094 C 74.329403 46.058594 74.013674 45.558593 73.53125 45.246094 C 73.057598 44.933594 72.400642 44.777344 71.558594 44.777344 C 70.865658 44.777344 70.343041 44.894749 69.992188 45.130859 C 69.641334 45.360026 69.464844 45.641276 69.464844 45.974609 C 69.464844 46.217665 69.610936 46.436415 69.900391 46.630859 C 70.181073 46.832248 70.84783 47.019748 71.900391 47.193359 C 74.505478 47.637803 76.369456 48.088542 77.492188 48.546875 C 78.62369 48.998263 79.442434 49.560765 79.951172 50.234375 C 80.468681 50.907985 80.728516 51.662761 80.728516 52.496094 C 80.728516 53.475259 80.385336 54.376737 79.701172 55.203125 C 79.017008 56.029513 78.061972 56.659289 76.833984 57.089844 C 75.605997 57.513454 74.057748 57.724609 72.189453 57.724609 C 68.908973 57.724609 66.63612 57.224608 65.373047 56.224609 C 64.109974 55.22461 63.395171 53.953774 63.228516 52.412109 L 68.900391 52.130859 C 69.023189 52.860025 69.273223 53.414931 69.650391 53.796875 C 70.264384 54.41493 71.140976 54.724609 72.28125 54.724609 C 73.13207 54.724609 73.786078 54.568359 74.242188 54.255859 C 74.707068 53.936415 74.939453 53.56901 74.939453 53.152344 C 74.939453 52.756511 74.719817 52.402343 74.28125 52.089844 C 73.842683 51.777344 72.824899 51.480902 71.228516 51.203125 C 68.614657 50.737848 66.750679 50.120442 65.636719 49.349609 C 64.513988 48.578777 63.953125 47.596787 63.953125 46.402344 C 63.953125 45.617622 64.238457 44.878037 64.808594 44.183594 C 65.387502 43.482206 66.251345 42.932942 67.400391 42.537109 C 68.558207 42.134332 70.141754 41.933594 72.150391 41.933594 z M 48.494141 45.505859 C 47.292467 45.505859 46.32763 45.842015 45.599609 46.515625 C 44.871588 47.189235 44.507813 48.303821 44.507812 49.859375 C 44.507812 51.40104 44.866688 52.509983 45.585938 53.183594 C 46.313959 53.857204 47.301345 54.193359 48.546875 54.193359 C 49.82749 54.193359 50.817824 53.862847 51.519531 53.203125 C 52.221238 52.543403 52.572266 51.360675 52.572266 49.652344 C 52.572266 48.214845 52.203589 47.165581 51.466797 46.505859 C 50.738776 45.839193 49.748442 45.505859 48.494141 45.505859 z M 12.580078 65.501953 L 26.103516 65.501953 C 26.215939 66.074902 26.318145 66.655834 26.445312 67.216797 L 13.330078 67.216797 C 13.06532 66.652992 12.818082 66.080047 12.580078 65.501953 z M 30.708984 65.501953 L 47.75 65.501953 L 47.75 67.216797 L 31.082031 67.216797 C 30.945425 66.657193 30.831709 66.075256 30.708984 65.501953 z M 52.25 65.501953 L 70.123047 65.501953 C 70.000115 66.075174 69.886591 66.657254 69.75 67.216797 L 52.25 67.216797 L 52.25 65.501953 z M 74.722656 65.501953 L 87.419922 65.501953 C 87.181918 66.080047 86.93468 66.652992 86.669922 67.216797 L 74.380859 67.216797 C 74.507739 66.655709 74.610579 66.074978 74.722656 65.501953 z M 15.808594 71.716797 L 27.632812 71.716797 C 28.750219 75.392101 30.151016 78.773115 31.798828 81.765625 C 33.092677 84.115323 34.560574 86.238131 36.167969 88.082031 C 27.701869 85.012692 20.565228 79.197745 15.808594 71.716797 z M 32.363281 71.716797 L 47.75 71.716797 L 47.75 90.435547 C 47.47293 90.420427 47.199375 90.391744 46.923828 90.371094 C 42.792429 89.021737 38.891773 85.313569 35.742188 79.59375 C 34.456575 77.259011 33.318423 74.609986 32.363281 71.716797 z M 52.25 71.716797 L 68.46875 71.716797 C 67.513609 74.609987 66.375456 77.259011 65.089844 79.59375 C 62.004985 85.196015 58.200975 88.872144 54.164062 90.289062 C 53.530419 90.353572 52.892016 90.400502 52.25 90.435547 L 52.25 71.716797 z M 73.197266 71.716797 L 84.191406 71.716797 C 79.672025 78.824612 73.002008 84.4204 65.085938 87.59375 C 66.529426 85.86567 67.852466 83.909902 69.033203 81.765625 C 70.680927 78.773269 72.081944 75.392933 73.197266 71.716797 z " />
</svg>
