<?xml version="1.0" encoding="UTF-8" standalone="no"?>
<svg
   version="1.1"
   width="100"
   height="100"
   id="svg4460"
   sodipodi:docname="uEB67-openls.svg"
   inkscape:version="1.3.2 (091e20ef0f, 2023-11-25)"
   xmlns:inkscape="http://www.inkscape.org/namespaces/inkscape"
   xmlns:sodipodi="http://sodipodi.sourceforge.net/DTD/sodipodi-0.dtd"
   xmlns="http://www.w3.org/2000/svg"
   xmlns:svg="http://www.w3.org/2000/svg"
   xmlns:rdf="http://www.w3.org/1999/02/22-rdf-syntax-ns#"
   xmlns:cc="http://creativecommons.org/ns#"
   xmlns:dc="http://purl.org/dc/elements/1.1/">
  <sodipodi:namedview
     pagecolor="#ffffff"
     bordercolor="#666666"
     borderopacity="1"
     objecttolerance="10"
     gridtolerance="10"
     guidetolerance="10"
     inkscape:pageopacity="0"
     inkscape:pageshadow="2"
     inkscape:window-width="3840"
     inkscape:window-height="2105"
     id="namedview11"
     showgrid="false"
     inkscape:zoom="7.21"
     inkscape:cx="78.640777"
     inkscape:cy="35.714286"
     inkscape:window-x="0"
     inkscape:window-y="31"
     inkscape:window-maximized="1"
     inkscape:current-layer="svg4460"
     inkscape:document-rotation="0"
     inkscape:showpageshadow="2"
     inkscape:pagecheckerboard="0"
     inkscape:deskcolor="#d1d1d1" />
  <defs
     id="defs4462" />
  <metadata
     id="metadata4465">
    <rdf:RDF>
      <cc:Work
         rdf:about="">
        <dc:format>image/svg+xml</dc:format>
        <dc:type
           rdf:resource="http://purl.org/dc/dcmitype/StillImage" />
      </cc:Work>
    </rdf:RDF>
  </metadata>
  <path
     id="rect910"
     style="color:#000000;overflow:visible;fill:#000080;stroke-width:8.653;stroke-linecap:round;stroke-linejoin:round;stroke-dashoffset:20"
     d="M 49.953125 5 A 45 45 0 0 0 7.7578125 34.498047 L 2.5 34.498047 A 3.0020802 3.0020802 0 0 0 -0.50195312 37.5 L -0.50195312 62.5 A 3.0020802 3.0020802 0 0 0 2.5 65.501953 L 7.7558594 65.501953 A 45 45 0 0 0 50 95 A 45 45 0 0 0 92.242188 65.501953 L 97.5 65.501953 A 3.0020802 3.0020802 0 0 0 100.50195 62.5 L 100.50195 37.5 A 3.0020802 3.0020802 0 0 0 97.5 34.498047 L 92.244141 34.498047 A 45 45 0 0 0 50 5 A 45 45 0 0 0 49.953125 5 z M 52.25 10.113281 C 56.99081 10.919862 61.521221 14.825839 65.089844 21.306641 C 66.24016 23.395673 67.2693 25.740009 68.158203 28.28125 L 52.25 28.28125 L 52.25 10.113281 z M 47.75 10.291016 L 47.75 28.28125 L 32.675781 28.28125 C 33.564684 25.740009 34.591871 23.395673 35.742188 21.306641 C 39.101121 15.20664 43.313458 11.39216 47.75 10.291016 z M 37.382812 11.509766 C 35.291213 13.626431 33.41177 16.207534 31.798828 19.136719 C 30.287095 21.882104 28.986256 24.955512 27.917969 28.28125 L 15.808594 28.28125 C 20.790461 20.44607 28.387281 14.450242 37.382812 11.509766 z M 63.851562 11.925781 C 72.309225 14.996946 79.438387 20.805985 84.191406 28.28125 L 72.910156 28.28125 C 71.844074 24.955371 70.544601 21.881498 69.033203 19.136719 C 67.524228 16.396342 65.781935 13.962558 63.851562 11.925781 z M 13.330078 32.78125 L 26.658203 32.78125 C 26.522788 33.342394 26.411541 33.92411 26.291016 34.498047 L 12.580078 34.498047 C 12.818287 33.919155 13.065064 33.345598 13.330078 32.78125 z M 31.306641 32.78125 L 47.75 32.78125 L 47.75 34.498047 L 30.908203 34.498047 C 31.039484 33.924061 31.161231 33.340368 31.306641 32.78125 z M 52.25 32.78125 L 69.525391 32.78125 C 69.670798 33.340368 69.792548 33.924061 69.923828 34.498047 L 52.25 34.498047 L 52.25 32.78125 z M 74.169922 32.78125 L 86.669922 32.78125 C 86.934936 33.345598 87.181713 33.919155 87.419922 34.498047 L 74.535156 34.498047 C 74.415036 33.924081 74.304972 33.342496 74.169922 32.78125 z M 11.951172 40.958984 C 14.267778 40.958984 16.053395 41.64367 17.306641 43.011719 C 18.559886 44.372824 19.185547 46.281912 19.185547 48.740234 C 19.185547 50.524948 18.910044 51.990891 18.359375 53.136719 C 17.815036 54.275602 17.02437 55.163848 15.986328 55.802734 C 14.954616 56.434676 13.665498 56.75 12.121094 56.75 C 10.551372 56.75 9.2524155 56.476343 8.2207031 55.927734 C 7.1953202 55.379126 6.3619382 54.511713 5.7226562 53.324219 C 5.0833743 52.136724 4.7636719 50.649948 4.7636719 48.865234 C 4.7636719 46.37219 5.3962046 44.431851 6.6621094 43.042969 C 7.9280142 41.654086 9.6915318 40.958984 11.951172 40.958984 z M 88.181641 40.958984 C 89.960237 40.958984 91.313701 41.323571 92.244141 42.052734 C 93.18091 42.774953 93.738789 43.928393 93.916016 45.511719 L 89.861328 45.771484 C 89.753726 45.083988 89.525858 44.583983 89.177734 44.271484 C 88.83594 43.958986 88.361541 43.802734 87.753906 43.802734 C 87.253874 43.802734 86.876228 43.92014 86.623047 44.15625 C 86.369866 44.385416 86.244141 44.666668 86.244141 45 C 86.244141 45.243054 86.347766 45.461806 86.556641 45.65625 C 86.759185 45.857638 87.240457 46.04514 88 46.21875 C 89.879869 46.663192 91.224977 47.115888 92.035156 47.574219 C 92.851665 48.025606 93.443434 48.588111 93.810547 49.261719 C 94.183989 49.935327 94.371094 50.688155 94.371094 51.521484 C 94.371094 52.500647 94.124562 53.404084 93.630859 54.230469 C 93.137157 55.056854 92.44668 55.684681 91.560547 56.115234 C 90.674414 56.538844 89.557173 56.75 88.208984 56.75 C 85.841742 56.75 84.202467 56.249995 83.291016 55.25 C 82.379564 54.250005 81.864402 52.97916 81.744141 51.4375 L 85.835938 51.15625 C 85.924551 51.885413 86.104784 52.442276 86.376953 52.824219 C 86.82002 53.442271 87.452553 53.75 88.275391 53.75 C 88.889354 53.75 89.360318 53.593749 89.689453 53.28125 C 90.024918 52.961807 90.193359 52.594399 90.193359 52.177734 C 90.193359 51.781903 90.035226 51.427733 89.71875 51.115234 C 89.402274 50.802736 88.667598 50.508245 87.515625 50.230469 C 85.629427 49.765193 84.284318 49.14583 83.480469 48.375 C 82.67029 47.60417 82.265625 46.622173 82.265625 45.427734 C 82.265625 44.643016 82.471393 43.903426 82.882812 43.208984 C 83.300561 42.507599 83.924739 41.958332 84.753906 41.5625 C 85.589403 41.159724 86.73218 40.958984 88.181641 40.958984 z M 67.701172 41.21875 L 72.001953 41.21875 L 72.001953 52.730469 L 78.714844 52.730469 L 78.714844 56.490234 L 67.701172 56.490234 L 67.701172 41.21875 z M 11.941406 44.53125 C 11.074261 44.53125 10.378866 44.869361 9.8535156 45.542969 C 9.3281651 46.216577 9.0644531 47.33117 9.0644531 48.886719 C 9.0644531 50.428378 9.324729 51.535376 9.84375 52.208984 C 10.3691 52.882592 11.081676 53.21875 11.980469 53.21875 C 12.904579 53.21875 13.618638 52.890188 14.125 52.230469 C 14.631362 51.57075 14.884766 50.38606 14.884766 48.677734 C 14.884766 47.240241 14.619571 46.190969 14.087891 45.53125 C 13.56254 44.864586 12.846528 44.53125 11.941406 44.53125 z M 29.953125 45.177734 C 31.301314 45.177734 32.341947 45.743061 33.076172 46.875 C 33.816726 48.006939 34.1875 49.40756 34.1875 51.074219 C 34.1875 52.914488 33.784318 54.320751 32.980469 55.292969 C 32.176619 56.258242 31.161521 56.740234 29.933594 56.740234 C 29.338618 56.740234 28.794484 56.628471 28.300781 56.40625 C 27.813408 56.184029 27.376335 55.855467 26.990234 55.417969 L 26.990234 60.699219 L 23.087891 60.699219 L 23.087891 45.427734 L 26.705078 45.427734 L 26.705078 47.0625 C 27.205111 46.375003 27.664283 45.911023 28.082031 45.667969 C 28.645359 45.341581 29.269536 45.177734 29.953125 45.177734 z M 43.074219 45.177734 C 44.51735 45.177734 45.65669 45.41732 46.492188 45.896484 C 47.327685 46.375649 47.963653 47.070751 48.400391 47.980469 C 48.837128 48.890187 49.054688 50.072923 49.054688 51.53125 L 49.054688 52.011719 L 41.306641 52.011719 C 41.376265 52.692271 41.544707 53.197918 41.810547 53.53125 C 42.183989 54.010414 42.672133 54.25 43.273438 54.25 C 43.653209 54.25 44.013674 54.145832 44.355469 53.9375 C 44.564343 53.805556 44.788775 53.573566 45.029297 53.240234 L 48.835938 53.625 C 48.253621 54.736106 47.551354 55.535376 46.728516 56.021484 C 45.905678 56.500649 44.725574 56.740234 43.1875 56.740234 C 41.85197 56.740234 40.801029 56.53472 40.035156 56.125 C 39.269284 55.708335 38.633315 55.052079 38.126953 54.15625 C 37.626921 53.253476 37.376953 52.195741 37.376953 50.980469 C 37.376953 49.25131 37.880324 47.850689 38.886719 46.78125 C 39.899443 45.711811 41.295623 45.177734 43.074219 45.177734 z M 59.896484 45.177734 C 60.966174 45.177734 61.802992 45.529083 62.404297 46.230469 C 63.011931 46.92491 63.314453 48.000658 63.314453 49.458984 L 63.314453 56.490234 L 59.431641 56.490234 L 59.431641 50.40625 C 59.431641 49.711809 59.314271 49.222221 59.080078 48.9375 C 58.845886 48.645835 58.517828 48.5 58.09375 48.5 C 57.625365 48.5 57.244283 48.695097 56.953125 49.083984 C 56.661967 49.472871 56.517578 50.170795 56.517578 51.177734 L 56.517578 56.490234 L 52.652344 56.490234 L 52.652344 45.427734 L 56.251953 45.427734 L 56.251953 47.230469 C 56.789963 46.494361 57.334097 45.968749 57.884766 45.65625 C 58.435434 45.336807 59.105294 45.177734 59.896484 45.177734 z M 43.234375 47.6875 C 42.620411 47.6875 42.130784 47.955515 41.763672 48.490234 C 41.529479 48.823566 41.379701 49.32075 41.316406 49.980469 L 45.125 49.980469 C 45.049046 49.161028 44.84476 48.572915 44.515625 48.21875 C 44.192819 47.864585 43.766055 47.6875 43.234375 47.6875 z M 28.689453 48.292969 C 28.19575 48.292969 27.784213 48.504125 27.455078 48.927734 C 27.125943 49.351344 26.960938 50.03885 26.960938 50.990234 C 26.960938 51.86523 27.129379 52.513891 27.464844 52.9375 C 27.800309 53.361109 28.223637 53.574219 28.736328 53.574219 C 29.185724 53.574219 29.56337 53.371526 29.867188 52.96875 C 30.171005 52.55903 30.322266 51.868702 30.322266 50.896484 C 30.322266 50.000655 30.164132 49.344399 29.847656 48.927734 C 29.53118 48.504125 29.145179 48.292969 28.689453 48.292969 z M 12.580078 65.501953 L 26.103516 65.501953 C 26.215939 66.074902 26.318145 66.655834 26.445312 67.216797 L 13.330078 67.216797 C 13.06532 66.652992 12.818082 66.080047 12.580078 65.501953 z M 30.708984 65.501953 L 47.75 65.501953 L 47.75 67.216797 L 31.082031 67.216797 C 30.945425 66.657193 30.831709 66.075256 30.708984 65.501953 z M 52.25 65.501953 L 70.123047 65.501953 C 70.000115 66.075174 69.886591 66.657254 69.75 67.216797 L 52.25 67.216797 L 52.25 65.501953 z M 74.722656 65.501953 L 87.419922 65.501953 C 87.181918 66.080047 86.93468 66.652992 86.669922 67.216797 L 74.380859 67.216797 C 74.507739 66.655709 74.610579 66.074978 74.722656 65.501953 z M 15.808594 71.716797 L 27.632812 71.716797 C 28.750219 75.392101 30.151016 78.773115 31.798828 81.765625 C 33.092677 84.115323 34.560574 86.238131 36.167969 88.082031 C 27.701869 85.012692 20.565228 79.197745 15.808594 71.716797 z M 32.363281 71.716797 L 47.75 71.716797 L 47.75 90.435547 C 47.47293 90.420427 47.199375 90.391744 46.923828 90.371094 C 42.792429 89.021737 38.891773 85.313569 35.742188 79.59375 C 34.456575 77.259011 33.318423 74.609986 32.363281 71.716797 z M 52.25 71.716797 L 68.46875 71.716797 C 67.513609 74.609987 66.375456 77.259011 65.089844 79.59375 C 62.004985 85.196015 58.200975 88.872144 54.164062 90.289062 C 53.530419 90.353572 52.892016 90.400502 52.25 90.435547 L 52.25 71.716797 z M 73.197266 71.716797 L 84.191406 71.716797 C 79.672025 78.824612 73.002008 84.4204 65.085938 87.59375 C 66.529426 85.86567 67.852466 83.909902 69.033203 81.765625 C 70.680927 78.773269 72.081944 75.392933 73.197266 71.716797 z " />
</svg>
