<?xml version="1.0" encoding="UTF-8" standalone="no"?>
<svg
   inkscape:version="1.3.2 (091e20ef0f, 2023-11-25)"
   sodipodi:docname="uEB61-wmc.svg"
   id="svg4460"
   height="100"
   width="100"
   version="1.1"
   xmlns:inkscape="http://www.inkscape.org/namespaces/inkscape"
   xmlns:sodipodi="http://sodipodi.sourceforge.net/DTD/sodipodi-0.dtd"
   xmlns="http://www.w3.org/2000/svg"
   xmlns:svg="http://www.w3.org/2000/svg"
   xmlns:rdf="http://www.w3.org/1999/02/22-rdf-syntax-ns#"
   xmlns:cc="http://creativecommons.org/ns#"
   xmlns:dc="http://purl.org/dc/elements/1.1/">
  <sodipodi:namedview
     inkscape:document-rotation="0"
     inkscape:current-layer="svg4460"
     inkscape:window-maximized="1"
     inkscape:window-y="31"
     inkscape:window-x="0"
     inkscape:cy="117.875"
     inkscape:cx="243"
     inkscape:zoom="4"
     showgrid="false"
     id="namedview11"
     inkscape:window-height="2105"
     inkscape:window-width="3840"
     inkscape:pageshadow="2"
     inkscape:pageopacity="0"
     guidetolerance="10"
     gridtolerance="10"
     objecttolerance="10"
     borderopacity="1"
     bordercolor="#666666"
     pagecolor="#ffffff"
     inkscape:showpageshadow="2"
     inkscape:pagecheckerboard="0"
     inkscape:deskcolor="#d1d1d1" />
  <defs
     id="defs4462">
    <inkscape:perspective
       sodipodi:type="inkscape:persp3d"
       inkscape:vp_x="-60 : 50 : 1"
       inkscape:vp_y="0 : 1000 : 0"
       inkscape:vp_z="40 : 50 : 1"
       inkscape:persp3d-origin="-10 : 33.333333 : 1"
       id="perspective58" />
    <inkscape:perspective
       sodipodi:type="inkscape:persp3d"
       inkscape:vp_x="-50 : 16.666667 : 0"
       inkscape:vp_y="0 : 999.99997 : 0"
       inkscape:vp_z="50 : 16.666667 : 0"
       inkscape:persp3d-origin="43.546529 : 32.947023 : 1"
       id="perspective1" />
  </defs>
  <metadata
     id="metadata4465">
    <rdf:RDF>
      <cc:Work
         rdf:about="">
        <dc:format>image/svg+xml</dc:format>
        <dc:type
           rdf:resource="http://purl.org/dc/dcmitype/StillImage" />
      </cc:Work>
    </rdf:RDF>
  </metadata>
  <path
     id="path841"
     style="color:#000000;font-style:normal;font-variant:normal;font-weight:normal;font-stretch:normal;font-size:medium;line-height:normal;font-family:sans-serif;font-variant-ligatures:normal;font-variant-position:normal;font-variant-caps:normal;font-variant-numeric:normal;font-variant-alternates:normal;font-variant-east-asian:normal;font-feature-settings:normal;font-variation-settings:normal;text-indent:0;text-align:start;text-decoration:none;text-decoration-line:none;text-decoration-style:solid;text-decoration-color:#000000;letter-spacing:normal;word-spacing:normal;text-transform:none;writing-mode:lr-tb;direction:ltr;text-orientation:mixed;dominant-baseline:auto;baseline-shift:baseline;text-anchor:start;white-space:normal;shape-padding:0;shape-margin:0;inline-size:0;clip-rule:nonzero;display:inline;overflow:visible;visibility:visible;opacity:1;isolation:auto;mix-blend-mode:normal;color-interpolation:sRGB;color-interpolation-filters:linearRGB;solid-color:#000000;solid-opacity:1;vector-effect:none;fill:#000080;fill-opacity:1;fill-rule:nonzero;stroke:none;stroke-width:5;stroke-linecap:round;stroke-linejoin:round;stroke-miterlimit:4;stroke-dasharray:none;stroke-dashoffset:20;stroke-opacity:1;color-rendering:auto;image-rendering:auto;shape-rendering:auto;text-rendering:auto;enable-background:accumulate;stop-color:#000000;stop-opacity:1"
     d="M 13.996094 0 C 12.615444 0.00013804406 11.496232 1.1193523 11.496094 2.5 L 11.496094 70 L 0 70 L 0 92 L 11.496094 92 L 11.496094 97.5 C 11.496232 98.88065 12.615444 99.999862 13.996094 100 L 85.996094 100 C 87.376739 99.999862 88.495956 98.88065 88.496094 97.5 L 88.496094 21.625 C 88.522594 20.512027 88.500093 19.848299 87.763672 19.035156 L 69.460938 0.73242188 C 68.984527 0.25585171 68.335919 -0.0082422418 67.662109 0 L 13.996094 0 z M 16.496094 5 L 65.398438 5 L 66.650391 19.568359 C 66.754393 20.780408 67.71569 21.741701 68.927734 21.845703 L 83.496094 23.097656 L 83.496094 95 L 16.496094 95 L 16.496094 92 L 80 92 L 80 70 L 16.496094 70 L 16.496094 5 z M 65.373047 72.349609 C 67.537107 72.349609 69.236329 72.78711 70.470703 73.662109 C 71.712889 74.537109 72.634766 75.880861 73.236328 77.693359 L 68.548828 78.736328 C 68.384766 78.212891 68.21289 77.830078 68.033203 77.587891 C 67.736328 77.181641 67.373046 76.86914 66.943359 76.650391 C 66.513672 76.431641 66.033203 76.322266 65.501953 76.322266 C 64.298829 76.322266 63.376952 76.806642 62.736328 77.775391 C 62.251954 78.49414 62.009766 79.623048 62.009766 81.162109 C 62.009766 83.068357 62.298829 84.376954 62.876953 85.087891 C 63.455078 85.791015 64.267579 86.142578 65.314453 86.142578 C 66.330077 86.142578 67.095704 85.857421 67.611328 85.287109 C 68.134765 84.716797 68.513672 83.888671 68.748047 82.802734 L 73.400391 84.208984 C 73.087891 85.513671 72.595702 86.603516 71.923828 87.478516 C 71.251954 88.353515 70.416015 89.013672 69.416016 89.458984 C 68.423829 89.904296 67.158202 90.126953 65.619141 90.126953 C 63.751955 90.126953 62.224608 89.857421 61.037109 89.318359 C 59.857423 88.771485 58.83789 87.814452 57.978516 86.447266 C 57.119141 85.080079 56.689453 83.330076 56.689453 81.197266 C 56.689453 78.353518 57.443361 76.16992 58.951172 74.646484 C 60.466795 73.115236 62.607425 72.349609 65.373047 72.349609 z M 8.8886719 72.642578 L 13.927734 72.642578 L 15.744141 82.240234 L 18.392578 72.642578 L 23.419922 72.642578 L 26.080078 82.240234 L 27.896484 72.642578 L 32.912109 72.642578 L 29.126953 89.822266 L 23.923828 89.822266 L 20.912109 79.005859 L 17.912109 89.822266 L 12.708984 89.822266 L 8.8886719 72.642578 z M 34.599609 72.642578 L 41.583984 72.642578 L 44.279297 83.095703 L 46.962891 72.642578 L 53.923828 72.642578 L 53.923828 89.822266 L 49.587891 89.822266 L 49.587891 76.720703 L 46.224609 89.822266 L 42.298828 89.822266 L 38.947266 76.720703 L 38.947266 89.822266 L 34.599609 89.822266 L 34.599609 72.642578 z " />
  <path
     style="color:#000000;font-style:normal;font-variant:normal;font-weight:normal;font-stretch:normal;font-size:medium;line-height:normal;font-family:sans-serif;font-variant-ligatures:normal;font-variant-position:normal;font-variant-caps:normal;font-variant-numeric:normal;font-variant-alternates:normal;font-variant-east-asian:normal;font-feature-settings:normal;font-variation-settings:normal;text-indent:0;text-align:start;text-decoration:none;text-decoration-line:none;text-decoration-style:solid;text-decoration-color:#000000;letter-spacing:normal;word-spacing:normal;text-transform:none;writing-mode:lr-tb;direction:ltr;text-orientation:mixed;dominant-baseline:auto;baseline-shift:baseline;text-anchor:start;white-space:normal;shape-padding:0;shape-margin:0;inline-size:0;clip-rule:nonzero;display:inline;overflow:visible;visibility:visible;opacity:1;isolation:auto;mix-blend-mode:normal;color-interpolation:sRGB;color-interpolation-filters:linearRGB;solid-color:#000000;solid-opacity:1;vector-effect:none;fill:#000080;fill-opacity:1;fill-rule:nonzero;stroke:none;stroke-width:5;stroke-linecap:round;stroke-linejoin:round;stroke-miterlimit:4;stroke-dasharray:none;stroke-dashoffset:20;stroke-opacity:1;color-rendering:auto;image-rendering:auto;shape-rendering:auto;text-rendering:auto;enable-background:accumulate;stop-color:#000000;stop-opacity:1"
     d="m 70.771484,9.1152344 8.609375,8.6093746 -7.927734,-0.68164 z"
     id="path922" />
  <path
     d="m 49.276688,17.096022 a 2.8933518,1.5878004 0 0 0 -2.076191,0.465229 L 19.476916,32.775076 a 2.8933518,1.5878004 0 0 0 0,2.246015 l 27.723581,15.213825 a 2.8933518,1.5878004 0 0 0 4.092582,0 l 27.72358,-15.213825 a 2.8933518,1.5878004 0 0 0 0,-2.246015 L 51.293079,17.561251 A 2.8933518,1.5878004 0 0 0 49.276688,17.096022 Z M 49.246779,20.929078 72.880195,33.898083 49.246806,46.867089 25.614608,33.898083 Z M 21.52442,39.643482 19.476934,40.76649 a 2.8933518,1.5878004 0 0 0 0,2.246015 L 47.200497,58.22633 a 2.8933518,1.5878004 0 0 0 4.092582,0 l 27.72358,-15.213825 a 2.8933518,1.5878004 0 0 0 -8.95e-4,-2.246015 l -2.046291,-1.123008 -4.092574,2.244819 0.0027,0.0013 -23.632162,12.968976 -23.633398,-12.969005 0.0027,-0.0013 z m 0,7.991414 -2.047486,1.123007 a 2.8933518,1.5878004 0 0 0 0,2.246016 l 27.723581,15.213824 a 2.8933518,1.5878004 0 0 0 4.092582,0 l 27.72358,-15.213824 a 2.8933518,1.5878004 0 0 0 -8.95e-4,-2.246016 l -2.046291,-1.123007 -4.092574,2.24482 0.0027,0.0013 -23.632162,12.968977 -23.633398,-12.969005 0.0027,-0.0013 z"
     style="color:#000000;font-style:normal;font-variant:normal;font-weight:normal;font-stretch:normal;font-size:medium;line-height:normal;font-family:sans-serif;font-variant-ligatures:normal;font-variant-position:normal;font-variant-caps:normal;font-variant-numeric:normal;font-variant-alternates:normal;font-variant-east-asian:normal;font-feature-settings:normal;font-variation-settings:normal;text-indent:0;text-align:start;text-decoration:none;text-decoration-line:none;text-decoration-style:solid;text-decoration-color:#000000;letter-spacing:normal;word-spacing:normal;text-transform:none;writing-mode:lr-tb;direction:ltr;text-orientation:mixed;dominant-baseline:auto;baseline-shift:baseline;text-anchor:start;white-space:normal;shape-padding:0;shape-margin:0;inline-size:0;clip-rule:nonzero;display:inline;overflow:visible;visibility:visible;isolation:auto;mix-blend-mode:normal;color-interpolation:sRGB;color-interpolation-filters:linearRGB;solid-color:#000000;solid-opacity:1;vector-effect:none;fill:#000080;fill-opacity:1;fill-rule:nonzero;stroke:none;stroke-width:4.28633;stroke-linecap:round;stroke-linejoin:round;stroke-miterlimit:4;stroke-dasharray:none;stroke-dashoffset:0;stroke-opacity:1;paint-order:normal;color-rendering:auto;image-rendering:auto;shape-rendering:auto;text-rendering:auto;enable-background:accumulate;stop-color:#000000"
     id="path884" />
</svg>
