<?xml version="1.0" encoding="UTF-8" standalone="no"?>
<svg
   version="1.1"
   width="100"
   height="100"
   id="svg4460"
   sodipodi:docname="uEB66-csw.svg"
   inkscape:version="1.3.2 (091e20ef0f, 2023-11-25)"
   xmlns:inkscape="http://www.inkscape.org/namespaces/inkscape"
   xmlns:sodipodi="http://sodipodi.sourceforge.net/DTD/sodipodi-0.dtd"
   xmlns="http://www.w3.org/2000/svg"
   xmlns:svg="http://www.w3.org/2000/svg"
   xmlns:rdf="http://www.w3.org/1999/02/22-rdf-syntax-ns#"
   xmlns:cc="http://creativecommons.org/ns#"
   xmlns:dc="http://purl.org/dc/elements/1.1/">
  <sodipodi:namedview
     pagecolor="#ffffff"
     bordercolor="#666666"
     borderopacity="1"
     objecttolerance="10"
     gridtolerance="10"
     guidetolerance="10"
     inkscape:pageopacity="0"
     inkscape:pageshadow="2"
     inkscape:window-width="3840"
     inkscape:window-height="2105"
     id="namedview11"
     showgrid="false"
     inkscape:zoom="7.21"
     inkscape:cx="78.640777"
     inkscape:cy="35.714286"
     inkscape:window-x="0"
     inkscape:window-y="31"
     inkscape:window-maximized="1"
     inkscape:current-layer="svg4460"
     inkscape:document-rotation="0"
     inkscape:showpageshadow="2"
     inkscape:pagecheckerboard="0"
     inkscape:deskcolor="#d1d1d1" />
  <defs
     id="defs4462" />
  <metadata
     id="metadata4465">
    <rdf:RDF>
      <cc:Work
         rdf:about="">
        <dc:format>image/svg+xml</dc:format>
        <dc:type
           rdf:resource="http://purl.org/dc/dcmitype/StillImage" />
      </cc:Work>
    </rdf:RDF>
  </metadata>
  <path
     id="rect910"
     style="color:#000000;overflow:visible;fill:#000080;stroke-width:8.653;stroke-linecap:round;stroke-linejoin:round;stroke-dashoffset:20"
     d="M 49.953125 5 A 45 45 0 0 0 7.7578125 34.498047 L 2.5 34.498047 A 3.0020802 3.0020802 0 0 0 -0.50195312 37.5 L -0.50195312 62.5 A 3.0020802 3.0020802 0 0 0 2.5 65.501953 L 7.7558594 65.501953 A 45 45 0 0 0 50 95 A 45 45 0 0 0 92.242188 65.501953 L 97.5 65.501953 A 3.0020802 3.0020802 0 0 0 100.50195 62.5 L 100.50195 37.5 A 3.0020802 3.0020802 0 0 0 97.5 34.498047 L 92.244141 34.498047 A 45 45 0 0 0 50 5 A 45 45 0 0 0 49.953125 5 z M 52.25 10.113281 C 56.99081 10.919862 61.521221 14.825839 65.089844 21.306641 C 66.24016 23.395673 67.2693 25.740009 68.158203 28.28125 L 52.25 28.28125 L 52.25 10.113281 z M 47.75 10.291016 L 47.75 28.28125 L 32.675781 28.28125 C 33.564684 25.740009 34.591871 23.395673 35.742188 21.306641 C 39.101121 15.20664 43.313458 11.39216 47.75 10.291016 z M 37.382812 11.509766 C 35.291213 13.626431 33.41177 16.207534 31.798828 19.136719 C 30.287095 21.882104 28.986256 24.955512 27.917969 28.28125 L 15.808594 28.28125 C 20.790461 20.44607 28.387281 14.450242 37.382812 11.509766 z M 63.851562 11.925781 C 72.309225 14.996946 79.438387 20.805985 84.191406 28.28125 L 72.910156 28.28125 C 71.844074 24.955371 70.544601 21.881498 69.033203 19.136719 C 67.524228 16.396342 65.781935 13.962558 63.851562 11.925781 z M 13.330078 32.78125 L 26.658203 32.78125 C 26.522788 33.342394 26.411541 33.92411 26.291016 34.498047 L 12.580078 34.498047 C 12.818287 33.919155 13.065064 33.345598 13.330078 32.78125 z M 31.306641 32.78125 L 47.75 32.78125 L 47.75 34.498047 L 30.908203 34.498047 C 31.039484 33.924061 31.161231 33.340368 31.306641 32.78125 z M 52.25 32.78125 L 69.525391 32.78125 C 69.670798 33.340368 69.792548 33.924061 69.923828 34.498047 L 52.25 34.498047 L 52.25 32.78125 z M 74.169922 32.78125 L 86.669922 32.78125 C 86.934936 33.345598 87.181713 33.919155 87.419922 34.498047 L 74.535156 34.498047 C 74.415036 33.924081 74.304972 33.342496 74.169922 32.78125 z M 27.308594 41.845703 C 29.434454 41.845703 31.103822 42.233943 32.316406 43.011719 C 33.536665 43.789495 34.44226 44.984596 35.033203 46.595703 L 30.427734 47.521484 C 30.266568 47.056208 30.09839 46.71723 29.921875 46.501953 C 29.630241 46.140843 29.273665 45.862413 28.851562 45.667969 C 28.42946 45.473525 27.957419 45.376953 27.435547 45.376953 C 26.253661 45.376953 25.348066 45.80686 24.71875 46.667969 C 24.242926 47.306856 24.003906 48.309682 24.003906 49.677734 C 24.003906 51.372174 24.289503 52.536026 24.857422 53.167969 C 25.425341 53.792967 26.223559 54.105469 27.251953 54.105469 C 28.249649 54.105469 29.00129 53.852646 29.507812 53.345703 C 30.02201 52.83876 30.394762 52.101994 30.625 51.136719 L 35.193359 52.386719 C 34.886376 53.546438 34.404155 54.515193 33.744141 55.292969 C 33.084126 56.070745 32.261644 56.656902 31.279297 57.052734 C 30.304625 57.448567 29.062675 57.646484 27.550781 57.646484 C 25.716555 57.646484 24.215365 57.4069 23.048828 56.927734 C 21.889966 56.441625 20.889126 55.592228 20.044922 54.376953 C 19.200717 53.161678 18.779297 51.604813 18.779297 49.708984 C 18.779297 47.181213 19.518805 45.240882 21 43.886719 C 22.48887 42.525611 24.59179 41.845703 27.308594 41.845703 z M 46.832031 41.845703 C 48.98859 41.845703 50.631602 42.210288 51.759766 42.939453 C 52.895604 43.661673 53.570268 44.813155 53.785156 46.396484 L 48.871094 46.658203 C 48.740626 45.970705 48.463118 45.470702 48.041016 45.158203 C 47.626588 44.845704 47.051213 44.689453 46.314453 44.689453 C 45.708161 44.689453 45.252296 44.806858 44.945312 45.042969 C 44.638329 45.272135 44.484375 45.553386 44.484375 45.886719 C 44.484375 46.129774 44.611973 46.348525 44.865234 46.542969 C 45.110821 46.744357 45.692331 46.931858 46.613281 47.105469 C 48.892633 47.549912 50.523512 48.000652 51.505859 48.458984 C 52.495881 48.910372 53.21503 49.472875 53.660156 50.146484 C 54.112957 50.820094 54.337891 51.574872 54.337891 52.408203 C 54.337891 53.387367 54.040024 54.288848 53.441406 55.115234 C 52.842789 55.941621 52.006083 56.571399 50.931641 57.001953 C 49.857199 57.425563 48.501874 57.636719 46.867188 57.636719 C 43.996892 57.636719 42.009437 57.136716 40.904297 56.136719 C 39.799157 55.136721 39.173161 53.865881 39.027344 52.324219 L 43.990234 52.042969 C 44.097679 52.772134 44.316477 53.327041 44.646484 53.708984 C 45.183705 54.327038 45.94957 54.636719 46.947266 54.636719 C 47.6917 54.636719 48.264984 54.480468 48.664062 54.167969 C 49.070816 53.848525 49.273437 53.481119 49.273438 53.064453 C 49.273438 52.668621 49.080995 52.314452 48.697266 52.001953 C 48.313536 51.689454 47.424118 51.393011 46.027344 51.115234 C 43.740317 50.649958 42.109438 50.03255 41.134766 49.261719 C 40.152419 48.490887 39.660156 47.508895 39.660156 46.314453 C 39.660156 45.529733 39.911308 44.790146 40.410156 44.095703 C 40.916679 43.394316 41.672364 42.845051 42.677734 42.449219 C 43.69078 42.046442 45.074551 41.845703 46.832031 41.845703 z M 57.435547 42.105469 L 62.384766 42.105469 L 64.169922 50.636719 L 66.771484 42.105469 L 71.710938 42.105469 L 74.322266 50.636719 L 76.107422 42.105469 L 81.035156 42.105469 L 77.316406 57.376953 L 72.205078 57.376953 L 69.246094 47.761719 L 66.298828 57.376953 L 61.1875 57.376953 L 57.435547 42.105469 z M 12.580078 65.501953 L 26.103516 65.501953 C 26.215939 66.074902 26.318145 66.655834 26.445312 67.216797 L 13.330078 67.216797 C 13.06532 66.652992 12.818082 66.080047 12.580078 65.501953 z M 30.708984 65.501953 L 47.75 65.501953 L 47.75 67.216797 L 31.082031 67.216797 C 30.945425 66.657193 30.831709 66.075256 30.708984 65.501953 z M 52.25 65.501953 L 70.123047 65.501953 C 70.000115 66.075174 69.886591 66.657254 69.75 67.216797 L 52.25 67.216797 L 52.25 65.501953 z M 74.722656 65.501953 L 87.419922 65.501953 C 87.181918 66.080047 86.93468 66.652992 86.669922 67.216797 L 74.380859 67.216797 C 74.507739 66.655709 74.610579 66.074978 74.722656 65.501953 z M 15.808594 71.716797 L 27.632812 71.716797 C 28.750219 75.392101 30.151016 78.773115 31.798828 81.765625 C 33.092677 84.115323 34.560574 86.238131 36.167969 88.082031 C 27.701869 85.012692 20.565228 79.197745 15.808594 71.716797 z M 32.363281 71.716797 L 47.75 71.716797 L 47.75 90.435547 C 47.47293 90.420427 47.199375 90.391744 46.923828 90.371094 C 42.792429 89.021737 38.891773 85.313569 35.742188 79.59375 C 34.456575 77.259011 33.318423 74.609986 32.363281 71.716797 z M 52.25 71.716797 L 68.46875 71.716797 C 67.513609 74.609987 66.375456 77.259011 65.089844 79.59375 C 62.004985 85.196015 58.200975 88.872144 54.164062 90.289062 C 53.530419 90.353572 52.892016 90.400502 52.25 90.435547 L 52.25 71.716797 z M 73.197266 71.716797 L 84.191406 71.716797 C 79.672025 78.824612 73.002008 84.4204 65.085938 87.59375 C 66.529426 85.86567 67.852466 83.909902 69.033203 81.765625 C 70.680927 78.773269 72.081944 75.392933 73.197266 71.716797 z " />
</svg>
