<?xml version="1.0" encoding="UTF-8" standalone="no"?>
<svg
   inkscape:version="1.3.2 (091e20ef0f, 2023-11-25)"
   sodipodi:docname="uEB63-sld.svg"
   id="svg4460"
   height="100"
   width="100"
   version="1.1"
   xmlns:inkscape="http://www.inkscape.org/namespaces/inkscape"
   xmlns:sodipodi="http://sodipodi.sourceforge.net/DTD/sodipodi-0.dtd"
   xmlns="http://www.w3.org/2000/svg"
   xmlns:svg="http://www.w3.org/2000/svg"
   xmlns:rdf="http://www.w3.org/1999/02/22-rdf-syntax-ns#"
   xmlns:cc="http://creativecommons.org/ns#"
   xmlns:dc="http://purl.org/dc/elements/1.1/">
  <sodipodi:namedview
     inkscape:document-rotation="0"
     inkscape:current-layer="svg4460"
     inkscape:window-maximized="1"
     inkscape:window-y="31"
     inkscape:window-x="0"
     inkscape:cy="57.562501"
     inkscape:cx="64.500001"
     inkscape:zoom="7.9999999"
     showgrid="false"
     id="namedview11"
     inkscape:window-height="2105"
     inkscape:window-width="3840"
     inkscape:pageshadow="2"
     inkscape:pageopacity="0"
     guidetolerance="10"
     gridtolerance="10"
     objecttolerance="10"
     borderopacity="1"
     bordercolor="#666666"
     pagecolor="#ffffff"
     inkscape:showpageshadow="2"
     inkscape:pagecheckerboard="0"
     inkscape:deskcolor="#d1d1d1" />
  <defs
     id="defs4462">
    <inkscape:perspective
       sodipodi:type="inkscape:persp3d"
       inkscape:vp_x="-60 : 50 : 1"
       inkscape:vp_y="0 : 1000 : 0"
       inkscape:vp_z="40 : 50 : 1"
       inkscape:persp3d-origin="-10 : 33.333333 : 1"
       id="perspective58" />
    <inkscape:perspective
       sodipodi:type="inkscape:persp3d"
       inkscape:vp_x="-50 : 16.666667 : 0"
       inkscape:vp_y="0 : 999.99997 : 0"
       inkscape:vp_z="50 : 16.666667 : 0"
       inkscape:persp3d-origin="43.546529 : 32.947023 : 1"
       id="perspective1" />
  </defs>
  <metadata
     id="metadata4465">
    <rdf:RDF>
      <cc:Work
         rdf:about="">
        <dc:format>image/svg+xml</dc:format>
        <dc:type
           rdf:resource="http://purl.org/dc/dcmitype/StillImage" />
      </cc:Work>
    </rdf:RDF>
  </metadata>
  <path
     id="path841"
     style="color:#000000;font-style:normal;font-variant:normal;font-weight:normal;font-stretch:normal;font-size:medium;line-height:normal;font-family:sans-serif;font-variant-ligatures:normal;font-variant-position:normal;font-variant-caps:normal;font-variant-numeric:normal;font-variant-alternates:normal;font-variant-east-asian:normal;font-feature-settings:normal;font-variation-settings:normal;text-indent:0;text-align:start;text-decoration:none;text-decoration-line:none;text-decoration-style:solid;text-decoration-color:#000000;letter-spacing:normal;word-spacing:normal;text-transform:none;writing-mode:lr-tb;direction:ltr;text-orientation:mixed;dominant-baseline:auto;baseline-shift:baseline;text-anchor:start;white-space:normal;shape-padding:0;shape-margin:0;inline-size:0;clip-rule:nonzero;display:inline;overflow:visible;visibility:visible;opacity:1;isolation:auto;mix-blend-mode:normal;color-interpolation:sRGB;color-interpolation-filters:linearRGB;solid-color:#000000;solid-opacity:1;vector-effect:none;fill:#000080;fill-opacity:1;fill-rule:nonzero;stroke:none;stroke-width:5;stroke-linecap:round;stroke-linejoin:round;stroke-miterlimit:4;stroke-dasharray:none;stroke-dashoffset:20;stroke-opacity:1;color-rendering:auto;image-rendering:auto;shape-rendering:auto;text-rendering:auto;enable-background:accumulate;stop-color:#000000;stop-opacity:1"
     d="M 13.996094 0 C 12.615444 0.00013804406 11.496232 1.1193523 11.496094 2.5 L 11.496094 70 L 0 70 L 0 92 L 11.496094 92 L 11.496094 97.5 C 11.496232 98.88065 12.615444 99.999862 13.996094 100 L 85.996094 100 C 87.376739 99.999862 88.495956 98.88065 88.496094 97.5 L 88.496094 21.625 C 88.522594 20.512027 88.500093 19.848299 87.763672 19.035156 L 69.460938 0.73242188 C 68.984527 0.25585171 68.335919 -0.0082422418 67.662109 0 L 13.996094 0 z M 16.496094 5 L 65.398438 5 L 66.650391 19.568359 C 66.754393 20.780408 67.71569 21.741701 68.927734 21.845703 L 83.496094 23.097656 L 83.496094 95 L 16.496094 95 L 16.496094 92 L 80 92 L 80 70 L 16.496094 70 L 16.496094 5 z M 28.816406 72.003906 C 31.011717 72.003906 32.683595 72.414063 33.832031 73.234375 C 34.98828 74.046874 35.675781 75.343752 35.894531 77.125 L 30.890625 77.417969 C 30.757813 76.644532 30.476562 76.082031 30.046875 75.730469 C 29.625 75.378907 29.039062 75.203125 28.289062 75.203125 C 27.671876 75.203125 27.207031 75.335938 26.894531 75.601562 C 26.582032 75.859375 26.425781 76.175782 26.425781 76.550781 C 26.425781 76.824218 26.554688 77.070313 26.8125 77.289062 C 27.0625 77.515625 27.656251 77.726563 28.59375 77.921875 C 30.91406 78.421875 32.57422 78.929688 33.574219 79.445312 C 34.58203 79.953124 35.3125 80.585938 35.765625 81.34375 C 36.226562 82.101562 36.457031 82.94922 36.457031 83.886719 C 36.457031 84.98828 36.152343 86.003907 35.542969 86.933594 C 34.933594 87.86328 34.08203 88.570313 32.988281 89.054688 C 31.894532 89.53125 30.515623 89.769531 28.851562 89.769531 C 25.92969 89.769531 23.906249 89.20703 22.78125 88.082031 C 21.656251 86.957032 21.019531 85.527342 20.871094 83.792969 L 25.921875 83.476562 C 26.03125 84.296874 26.253907 84.921875 26.589844 85.351562 C 27.136718 86.046874 27.91797 86.394531 28.933594 86.394531 C 29.691405 86.394531 30.273438 86.21875 30.679688 85.867188 C 31.09375 85.507813 31.300781 85.09375 31.300781 84.625 C 31.300781 84.179688 31.105468 83.78125 30.714844 83.429688 C 30.324219 83.078125 29.417967 82.746093 27.996094 82.433594 C 25.667971 81.910157 24.007812 81.214843 23.015625 80.347656 C 22.015626 79.48047 21.515625 78.374999 21.515625 77.03125 C 21.515625 76.148438 21.769532 75.316405 22.277344 74.535156 C 22.792968 73.746095 23.562501 73.128906 24.585938 72.683594 C 25.617186 72.230469 27.027346 72.003906 28.816406 72.003906 z M 39.128906 72.296875 L 44.4375 72.296875 L 44.4375 85.246094 L 52.722656 85.246094 L 52.722656 89.476562 L 39.128906 89.476562 L 39.128906 72.296875 z M 55.207031 72.296875 L 63.09375 72.296875 C 64.648436 72.296875 65.902345 72.507813 66.855469 72.929688 C 67.816405 73.351562 68.609376 73.957032 69.234375 74.746094 C 69.859374 75.535155 70.3125 76.453126 70.59375 77.5 C 70.875 78.546874 71.015625 79.656251 71.015625 80.828125 C 71.015625 82.664061 70.804687 84.089845 70.382812 85.105469 C 69.96875 86.11328 69.390624 86.960938 68.648438 87.648438 C 67.906251 88.328124 67.109374 88.78125 66.257812 89.007812 C 65.093751 89.320312 64.039062 89.476562 63.09375 89.476562 L 55.207031 89.476562 L 55.207031 72.296875 z M 60.515625 76.1875 L 60.515625 85.574219 L 61.816406 85.574219 C 62.92578 85.574219 63.714844 85.453125 64.183594 85.210938 C 64.652343 84.960938 65.019532 84.531249 65.285156 83.921875 C 65.550781 83.304688 65.683594 82.308592 65.683594 80.933594 C 65.683594 79.113283 65.386718 77.867187 64.792969 77.195312 C 64.199219 76.523438 63.214842 76.1875 61.839844 76.1875 L 60.515625 76.1875 z " />
  <path
     style="color:#000000;font-style:normal;font-variant:normal;font-weight:normal;font-stretch:normal;font-size:medium;line-height:normal;font-family:sans-serif;font-variant-ligatures:normal;font-variant-position:normal;font-variant-caps:normal;font-variant-numeric:normal;font-variant-alternates:normal;font-variant-east-asian:normal;font-feature-settings:normal;font-variation-settings:normal;text-indent:0;text-align:start;text-decoration:none;text-decoration-line:none;text-decoration-style:solid;text-decoration-color:#000000;letter-spacing:normal;word-spacing:normal;text-transform:none;writing-mode:lr-tb;direction:ltr;text-orientation:mixed;dominant-baseline:auto;baseline-shift:baseline;text-anchor:start;white-space:normal;shape-padding:0;shape-margin:0;inline-size:0;clip-rule:nonzero;display:inline;overflow:visible;visibility:visible;opacity:1;isolation:auto;mix-blend-mode:normal;color-interpolation:sRGB;color-interpolation-filters:linearRGB;solid-color:#000000;solid-opacity:1;vector-effect:none;fill:#000080;fill-opacity:1;fill-rule:nonzero;stroke:none;stroke-width:5;stroke-linecap:round;stroke-linejoin:round;stroke-miterlimit:4;stroke-dasharray:none;stroke-dashoffset:20;stroke-opacity:1;color-rendering:auto;image-rendering:auto;shape-rendering:auto;text-rendering:auto;enable-background:accumulate;stop-color:#000000;stop-opacity:1"
     d="m 70.771484,9.1152344 8.609375,8.6093746 -7.927734,-0.68164 z"
     id="path922" />
  <path
     id="path65"
     style="fill:#000080;fill-opacity:1;stroke:none;stroke-width:3.66776;stroke-linecap:round;stroke-linejoin:round;stroke-dasharray:none;stroke-opacity:1"
     d="m 70.260756,22.836341 c -2.904676,-0.200507 -7.926528,6.550997 -15.558759,10.940056 -1.033504,0.594337 -2.000794,1.235433 -2.897779,1.906718 1.044226,3.169043 3.138232,5.74842 7.367677,7.344037 0.648568,-0.890338 1.252425,-1.783264 1.796176,-2.601294 4.979763,-7.491678 12.985681,-14.516699 10.409225,-17.050787 -0.329965,-0.339573 -0.701589,-0.510086 -1.11654,-0.53873 z M 51.010689,36.296882 c -0.41403,0.337804 -0.811776,0.681376 -1.18189,1.033206 1.073604,3.320345 3.282673,6.001144 7.8662,7.592237 0.301328,-0.353982 0.593249,-0.717983 0.877549,-1.087079 -4.140653,-1.668298 -6.408678,-4.350745 -7.561859,-7.538364 z m -1.926874,1.783579 c -1.929933,2.072383 -3.018078,4.335585 -2.729738,6.599435 h -0.0019 c 1.01871,1.682195 2.519022,3.1163 4.733164,4.215558 2.19505,0.04885 4.178168,-1.344763 5.911321,-3.191971 -4.351347,-1.644966 -6.718093,-4.368007 -7.912835,-7.623022 z m -3.784663,6.643688 c -0.0098,6.33e-4 -0.01814,0.0013 -0.02801,0.002 -7.273727,2.414881 1.328855,4.932566 -8.50289,15.169083 7.529379,-2.16791 13.698785,-5.434769 14.292846,-8.846708 0.01142,-0.390396 0.01209,-0.753603 0.0056,-1.098623 -2.760024,-1.304577 -4.589171,-3.108543 -5.767552,-5.225676 z" />
  <path
     id="path75"
     style="color:#000000;fill:#000080;stroke-linecap:round;stroke-linejoin:round;-inkscape-stroke:none"
     d="m 33.660156,23.466797 c -2.921069,0.07696 -6.910023,2.586011 -9.919922,7.806641 -0.0071,0.01336 -0.01366,0.02705 -0.01953,0.04102 -3.136504,6.870514 -4.911407,12.517671 -4.308594,17.691406 0.602815,5.173737 3.61294,9.788074 9.806641,14.494141 0.0083,0.0061 0.01674,0.01199 0.02539,0.01758 6.28865,4.165541 14.5823,3.756541 20.595703,1.017578 3.006701,-1.36948 5.459155,-3.326499 6.798828,-5.660156 1.339673,-2.333657 1.514982,-5.076683 -0.0332,-7.757812 -0.11038,-0.19009 -0.334752,-0.282243 -0.546875,-0.22461 -0.44841,0.120897 -0.796151,0.16082 -1.810547,0.271484 -0.244352,0.02615 -0.430584,0.230834 -0.433594,0.476563 -0.03061,3.086705 -1.263371,4.630263 -3.013672,5.619141 -1.750301,0.988878 -4.061975,1.341059 -6.099609,1.736328 -0.215549,0.04234 -0.375775,0.224194 -0.390625,0.443359 -0.06254,0.960095 -0.940789,1.838952 -2.201172,2.455078 -1.260383,0.616128 -2.845198,0.930221 -3.984375,0.851563 -2.251389,-0.154976 -3.942107,-2.043695 -3.800781,-4.214844 0.07649,-1.174298 0.30369,-2.101225 0.77539,-2.849609 0.471701,-0.748386 1.196565,-1.348914 2.373047,-1.847657 0.03688,-0.01582 0.07165,-0.03616 0.103516,-0.06055 0.992207,-0.750732 1.464878,-1.797163 1.68164,-2.882813 0.216764,-1.08565 0.202375,-2.231364 0.238282,-3.318359 0.03591,-1.086996 0.124475,-2.107638 0.464844,-2.927735 0.340369,-0.820096 0.896821,-1.461181 2.03125,-1.898437 0.418231,-0.159619 0.415682,-0.752188 -0.0039,-0.908203 -1.589754,-0.595407 -2.455344,-0.810241 -2.886719,-1.039063 -0.215686,-0.114411 -0.327349,-0.210745 -0.457031,-0.40039 -0.129682,-0.189645 -0.266597,-0.489255 -0.439453,-0.951172 -1.187715,-3.173901 -0.467743,-5.614282 -0.01563,-7.992188 0.226062,-1.188953 0.38655,-2.364484 0.144531,-3.568359 -0.242017,-1.203875 -0.899078,-2.406852 -2.199218,-3.607422 -0.626141,-0.578231 -1.50094,-0.838155 -2.47461,-0.8125 z m -6.193865,14.532515 c 1.337509,0.179379 2.268258,0.403469 2.81836,0.632812 0.558492,0.232842 0.67342,0.431187 0.6875,0.509766 0.131898,0.73612 -2.56159,1.033514 -1.452616,1.656938 0.832954,0.469869 1.901326,0.735821 2.66211,1.107422 0.380391,0.1858 0.668803,0.391665 0.820312,0.595703 0.15151,0.204038 0.210116,0.394064 0.128906,0.753906 -0.01138,0.05043 -0.15401,0.258277 -0.476562,0.460938 -0.322552,0.202661 -0.782858,0.40341 -1.279297,0.568359 -0.992877,0.329899 -2.170915,0.512304 -2.685547,0.476563 -0.651423,-0.0451 -2.234572,-0.211652 -3.449219,-0.6875 -0.607322,-0.237925 -1.108715,-0.552963 -1.373046,-0.902344 -0.264331,-0.349381 -0.357679,-0.708171 -0.138672,-1.314453 0.331536,-0.520561 0.300105,-1.216862 0.319806,-1.52022 0.01407,-0.590496 0.04129,-1.036704 0.109375,-1.333984 0.06809,-0.29728 0.146548,-0.427298 0.304687,-0.546875 0.312416,-0.236233 1.226027,-0.392259 3.003906,-0.457031 z m -0.538557,10.522172 c 1.347802,-0.02964 1.166643,1.172682 2.75,1.320313 1.162157,0.08047 1.854116,0.444055 2.277344,0.927734 0.420157,0.480169 0.596638,1.122573 0.589844,1.851563 -0.07245,1.042164 -0.770235,1.414406 -1.625639,1.802909 -0.859328,0.390286 -1.884561,0.728583 -3.038424,0.511544 -1.532355,-0.288233 -2.610056,-0.756224 -3.261718,-1.376953 -0.637038,-0.6068 -0.910751,-1.365146 -0.855469,-2.439453 0.154443,-0.490558 0.465099,-1.136034 0.982422,-1.652344 0.513065,-0.512063 1.211413,-0.891293 2.18164,-0.945313 z"
     sodipodi:nodetypes="cccsccssccccsccsccsccsssccssssscsccssssssscsssssscccscssscscss" />
</svg>
