<?xml version="1.0" encoding="UTF-8" standalone="no"?>
<svg
   xmlns:dc="http://purl.org/dc/elements/1.1/"
   xmlns:cc="http://creativecommons.org/ns#"
   xmlns:rdf="http://www.w3.org/1999/02/22-rdf-syntax-ns#"
   xmlns:svg="http://www.w3.org/2000/svg"
   xmlns="http://www.w3.org/2000/svg"
   xmlns:sodipodi="http://sodipodi.sourceforge.net/DTD/sodipodi-0.dtd"
   xmlns:inkscape="http://www.inkscape.org/namespaces/inkscape"
   inkscape:version="1.0 (4035a4fb49, 2020-05-01)"
   sodipodi:docname="uEA5E-map-search.svg"
   id="svg4460"
   height="100"
   width="100"
   version="1.1">
  <sodipodi:namedview
     inkscape:document-rotation="0"
     inkscape:current-layer="svg4460"
     inkscape:window-maximized="1"
     inkscape:window-y="-8"
     inkscape:window-x="-8"
     inkscape:cy="75.079461"
     inkscape:cx="59.375738"
     inkscape:zoom="4"
     showgrid="false"
     id="namedview11"
     inkscape:window-height="1017"
     inkscape:window-width="1920"
     inkscape:pageshadow="2"
     inkscape:pageopacity="0"
     guidetolerance="10"
     gridtolerance="10"
     objecttolerance="10"
     borderopacity="1"
     bordercolor="#666666"
     pagecolor="#ffffff" />
  <defs
     id="defs4462" />
  <metadata
     id="metadata4465">
    <rdf:RDF>
      <cc:Work
         rdf:about="">
        <dc:format>image/svg+xml</dc:format>
        <dc:type
           rdf:resource="http://purl.org/dc/dcmitype/StillImage" />
        <dc:title />
      </cc:Work>
    </rdf:RDF>
  </metadata>
  <path
     d="M 34.189453 5 A 2.50025 2.50025 0 0 0 33.113281 5.2324219 L 1.4472656 19.943359 A 2.50025 2.50025 0 0 0 0 22.210938 L 0 92.5 A 2.50025 2.50025 0 0 0 3.5527344 94.767578 L 34.166016 80.546875 L 64.779297 94.767578 A 2.50025 2.50025 0 0 0 66.886719 94.767578 L 82.326172 87.595703 L 88.888672 98.960938 A 2.633037 3.9650251 60 0 0 93.638672 99.257812 A 2.633037 3.9650251 60 0 0 95.755859 94.996094 L 89.546875 84.240234 L 98.552734 80.056641 A 2.50025 2.50025 0 0 0 100 77.789062 L 100 7.5 A 2.50025 2.50025 0 0 0 96.447266 5.2324219 L 65.833984 19.453125 L 35.220703 5.2324219 A 2.50025 2.50025 0 0 0 34.189453 5 z M 35.646484 10.943359 L 64.322266 24.265625 L 64.316406 25.158203 C 60.372371 25.281101 56.404273 26.345887 52.757812 28.451172 C 40.94288 35.272527 36.873958 50.460458 43.695312 62.275391 C 48.07007 69.852693 55.878933 74.218625 64.035156 74.578125 L 63.953125 88.871094 L 35.277344 75.548828 L 35.646484 10.943359 z M 32.646484 10.962891 L 32.275391 75.912109 L 5 88.582031 L 5 23.806641 L 32.646484 10.962891 z M 95 11.417969 L 95 76.195312 L 87.037109 79.894531 L 83.542969 73.84375 A 2.633037 3.9650251 60 0 0 81.332031 72.804688 L 79.648438 69.890625 C 89.772185 62.552171 92.969209 48.573207 86.583984 37.513672 C 83.173307 31.606205 77.669502 27.635741 71.542969 25.994141 C 70.160581 25.623731 68.745525 25.378701 67.316406 25.25 L 67.322266 24.275391 L 95 11.417969 z M 64.630859 30.626953 C 66.492638 30.576615 68.343739 30.799533 70.126953 31.277344 C 74.882191 32.551507 79.151127 35.647796 81.818359 40.267578 C 87.152824 49.507144 84.009096 61.239754 74.769531 66.574219 C 65.529967 71.908684 53.795402 68.764956 48.460938 59.525391 C 43.126472 50.285826 46.270201 38.551263 55.509766 33.216797 C 58.39713 31.549777 61.527895 30.710849 64.630859 30.626953 z M 75.199219 72.458984 L 76.882812 75.375 A 2.633037 3.9650251 60 0 0 76.675781 77.808594 L 79.816406 83.248047 L 66.951172 89.224609 L 67.035156 74.525391 C 69.800042 74.312287 72.559982 73.637452 75.199219 72.458984 z "
     style="color:#000000;font-style:normal;font-variant:normal;font-weight:normal;font-stretch:normal;font-size:medium;line-height:normal;font-family:sans-serif;font-variant-ligatures:normal;font-variant-position:normal;font-variant-caps:normal;font-variant-numeric:normal;font-variant-alternates:normal;font-variant-east-asian:normal;font-feature-settings:normal;font-variation-settings:normal;text-indent:0;text-align:start;text-decoration:none;text-decoration-line:none;text-decoration-style:solid;text-decoration-color:#000000;letter-spacing:normal;word-spacing:normal;text-transform:none;writing-mode:lr-tb;direction:ltr;text-orientation:mixed;dominant-baseline:auto;baseline-shift:baseline;text-anchor:start;white-space:normal;shape-padding:0;shape-margin:0;inline-size:0;clip-rule:nonzero;display:inline;overflow:visible;visibility:visible;opacity:1;isolation:auto;mix-blend-mode:normal;color-interpolation:sRGB;color-interpolation-filters:linearRGB;solid-color:#000000;solid-opacity:1;vector-effect:none;fill:#000080;fill-opacity:1;fill-rule:evenodd;stroke:none;stroke-width:3;stroke-linecap:butt;stroke-linejoin:miter;stroke-miterlimit:4;stroke-dasharray:none;stroke-dashoffset:0;stroke-opacity:1;color-rendering:auto;image-rendering:auto;shape-rendering:auto;text-rendering:auto;enable-background:accumulate;stop-color:#000000;stop-opacity:1"
     id="path967-3" />
</svg>
