<?xml version="1.0" encoding="UTF-8" standalone="no"?>
<svg
   xmlns:dc="http://purl.org/dc/elements/1.1/"
   xmlns:cc="http://creativecommons.org/ns#"
   xmlns:rdf="http://www.w3.org/1999/02/22-rdf-syntax-ns#"
   xmlns:svg="http://www.w3.org/2000/svg"
   xmlns="http://www.w3.org/2000/svg"
   xmlns:sodipodi="http://sodipodi.sourceforge.net/DTD/sodipodi-0.dtd"
   xmlns:inkscape="http://www.inkscape.org/namespaces/inkscape"
   inkscape:version="1.0 (4035a4fb49, 2020-05-01)"
   sodipodi:docname="uEA67-search-feature.svg"
   id="svg4460"
   height="100"
   width="100"
   version="1.1">
  <sodipodi:namedview
     inkscape:document-rotation="0"
     inkscape:current-layer="svg4460"
     inkscape:window-maximized="1"
     inkscape:window-y="-8"
     inkscape:window-x="-8"
     inkscape:cy="48.840809"
     inkscape:cx="23.27213"
     inkscape:zoom="2.8284272"
     showgrid="false"
     id="namedview11"
     inkscape:window-height="1017"
     inkscape:window-width="1920"
     inkscape:pageshadow="2"
     inkscape:pageopacity="0"
     guidetolerance="10"
     gridtolerance="10"
     objecttolerance="10"
     borderopacity="1"
     bordercolor="#666666"
     pagecolor="#ffffff" />
  <defs
     id="defs4462" />
  <metadata
     id="metadata4465">
    <rdf:RDF>
      <cc:Work
         rdf:about="">
        <dc:format>image/svg+xml</dc:format>
        <dc:type
           rdf:resource="http://purl.org/dc/dcmitype/StillImage" />
        <dc:title />
      </cc:Work>
    </rdf:RDF>
  </metadata>
  <path
     d="M 1.9648438 0 C 0.87979375 0.00054 0.00036 0.94291875 0 2.1054688 L 0 72.894531 C 0.00036 74.057081 0.87979375 74.99946 1.9648438 75 L 43.9375 75 C 42.432794 73.737511 41.057499 72.320961 39.830078 70.787109 L 35.650391 70.787109 C 36.209514 69.555227 36.745334 68.299324 37.265625 67.027344 C 36.939603 66.457218 36.637639 65.87457 36.351562 65.283203 C 35.618168 67.167379 34.828908 68.996515 33.998047 70.787109 L 29.568359 70.787109 C 31.094739 67.645243 32.488672 64.419421 33.664062 61.005859 C 31.328482 59.082991 29.833984 56.171536 29.833984 52.927734 C 29.833984 50.175727 30.917352 47.670089 32.669922 45.796875 C 26.760172 32.587181 16.085331 25.796867 3.9316406 18.582031 L 3.9316406 13.908203 C 16.449185 21.291661 28.395911 28.3464 35.357422 42.169922 C 35.585409 41.560339 35.837341 40.960197 36.105469 40.367188 C 28.71269 26.588735 16.41496 19.519816 3.9316406 12.158203 L 3.9316406 10.699219 C 18.739195 20.536486 31.545984 25.647727 45.574219 28.806641 C 50.246075 25.449319 55.898442 23.447792 61.664062 23.28125 C 62.451472 23.256491 63.24029 23.264291 64.027344 23.300781 C 65.822643 21.37952 67.62995 19.44946 69.472656 17.480469 C 71.060966 15.783308 72.628415 14.082157 74.203125 12.380859 C 74.044885 12.353859 73.94986 12.34214 73.78125 12.3125 C 71.99092 11.997806 69.620769 11.53415 66.849609 10.9375 C 61.307299 9.744201 54.167375 8.0210201 46.953125 5.9082031 C 45.113655 5.3694841 43.274665 4.8004956 41.453125 4.2128906 L 55.90625 4.2128906 C 60.19639 5.3267626 64.272946 6.2913257 67.691406 7.0273438 C 70.420656 7.6149698 72.751929 8.0702429 74.474609 8.3730469 C 75.335959 8.5244489 76.047156 8.6376414 76.566406 8.7089844 C 77.085656 8.7803244 77.517078 8.7939681 77.361328 8.7988281 L 77.367188 8.9570312 C 78.833658 7.3509012 80.244863 5.7734016 81.626953 4.2128906 L 86.958984 4.2128906 C 82.490064 9.3730876 77.446221 14.816953 72.394531 20.214844 C 71.218206 21.471784 70.085339 22.692431 68.923828 23.935547 C 69.684346 24.099458 70.438513 24.290706 71.183594 24.515625 C 80.045899 27.076279 87.389808 34.168179 90.380859 42.878906 C 91.919103 43.778799 93.271749 44.562883 94.222656 45.03125 C 94.204656 45.13182 94.195513 45.233771 94.195312 45.335938 C 94.195312 46.302436 94.978822 47.085938 95.945312 47.085938 C 95.987612 47.085907 96.026609 47.071399 96.068359 47.068359 L 96.068359 50.597656 C 96.027059 50.594756 95.987362 50.585938 95.945312 50.585938 C 95.940313 50.58592 95.936341 50.585918 95.931641 50.585938 C 94.970491 50.593438 94.195282 51.374752 94.195312 52.335938 C 94.195312 53.302436 94.978813 54.085938 95.945312 54.085938 C 95.987313 54.085938 96.027119 54.077139 96.068359 54.074219 L 96.068359 57.597656 C 96.027059 57.594756 95.987353 57.585938 95.945312 57.585938 C 94.978813 57.585938 94.195312 58.369439 94.195312 59.335938 C 94.195312 60.302436 94.978813 61.085938 95.945312 61.085938 C 95.987313 61.085938 96.027119 61.077139 96.068359 61.074219 L 96.068359 70.787109 L 86.382812 70.787109 C 86.669816 70.989065 86.945123 71.206625 87.191406 71.457031 C 88.111044 72.629686 89.008169 73.81957 89.917969 75 L 98.035156 75 C 99.120206 74.99946 99.999641 74.057081 100 72.894531 L 100 2.1054688 C 99.999641 0.94291875 99.120206 0.00054 98.035156 0 L 1.9648438 0 z M 24.373047 4.2128906 L 36.757812 4.2128906 C 39.947223 5.3304096 43.23889 6.3834343 46.53125 7.3476562 C 53.79068 9.4737043 60.961406 11.20423 66.535156 12.404297 C 68.308686 12.78615 69.841594 13.091465 71.246094 13.361328 C 70.284804 14.39479 69.342256 15.425714 68.378906 16.455078 C 68.021696 16.836768 67.678656 17.203714 67.322266 17.583984 C 60.829466 15.550727 53.400956 13.527935 43.847656 11.525391 C 37.108536 10.112748 30.610507 7.5608616 24.373047 4.2128906 z M 62.103516 4.2128906 L 79.599609 4.2128906 C 78.704879 5.2171106 77.829827 6.209509 76.898438 7.234375 C 76.848237 7.228775 76.821231 7.2297762 76.769531 7.2226562 C 76.278801 7.1552363 75.583035 7.0437033 74.734375 6.8945312 C 73.037055 6.5961853 70.721332 6.1447889 68.007812 5.5605469 C 66.214163 5.1743619 64.190626 4.7091086 62.103516 4.2128906 z M 88.949219 4.2128906 L 96.068359 4.2128906 L 96.068359 8.5976562 C 96.027059 8.5947562 95.987352 8.5859375 95.945312 8.5859375 C 95.940313 8.5859185 95.936341 8.5859175 95.931641 8.5859375 C 94.970481 8.5934375 94.195283 9.3747515 94.195312 10.335938 C 94.195312 11.302435 94.978813 12.085938 95.945312 12.085938 C 95.987313 12.085938 96.027109 12.077139 96.068359 12.074219 L 96.068359 15.597656 C 96.027059 15.594756 95.987363 15.585937 95.945312 15.585938 C 95.940313 15.585919 95.936341 15.585918 95.931641 15.585938 C 94.970481 15.593438 94.195283 16.374752 94.195312 17.335938 C 94.195312 18.302436 94.978813 19.085938 95.945312 19.085938 C 95.987313 19.085938 96.027109 19.077139 96.068359 19.074219 L 96.068359 22.597656 C 96.027059 22.594756 95.987363 22.585937 95.945312 22.585938 C 94.978813 22.585938 94.195312 23.369439 94.195312 24.335938 C 94.195312 25.302436 94.978813 26.085938 95.945312 26.085938 C 95.987313 26.085938 96.027109 26.077139 96.068359 26.074219 L 96.068359 27.369141 C 95.276559 27.117631 94.470439 26.866843 93.699219 26.615234 C 93.369789 26.276836 92.917583 26.085948 92.445312 26.085938 C 92.349113 26.086492 92.253043 26.094938 92.158203 26.111328 C 91.517603 25.898397 90.901911 25.685751 90.275391 25.472656 C 90.546271 25.155851 90.695182 24.75276 90.695312 24.335938 C 90.695312 23.369439 89.911812 22.585938 88.945312 22.585938 C 87.978813 22.585938 87.195312 23.369439 87.195312 24.335938 C 87.195333 24.363298 87.195916 24.390649 87.197266 24.417969 C 85.770836 23.919406 84.374729 23.420403 82.974609 22.921875 C 82.699919 22.721451 82.372783 22.605394 82.033203 22.587891 C 81.322183 22.334528 80.599529 22.081404 79.886719 21.828125 C 80.087659 21.536266 80.195263 21.190282 80.195312 20.835938 C 80.195882 20.267785 79.920621 19.734713 79.457031 19.40625 L 77.861328 21.115234 C 76.814338 20.746353 75.701999 20.378273 74.630859 20.009766 C 79.631179 14.663597 84.583709 9.3039476 88.949219 4.2128906 z M 94.009766 6.0527344 C 92.853206 6.3385584 91.871794 6.8407343 90.871094 7.5976562 C 91.163064 8.2015592 91.774533 8.5854345 92.445312 8.5859375 C 93.411812 8.5859375 94.195312 7.8024355 94.195312 6.8359375 C 94.195153 6.5639995 94.131616 6.2958394 94.009766 6.0527344 z M 89.587891 8.7089844 C 88.895431 9.3527654 88.163272 10.085743 87.320312 10.986328 C 87.586242 11.650607 88.229782 12.08608 88.945312 12.085938 C 89.911812 12.085938 90.695312 11.302436 90.695312 10.335938 C 90.694982 9.6177595 90.255901 8.9726904 89.587891 8.7089844 z M 92.431641 12.085938 C 91.470481 12.093438 90.695283 12.874752 90.695312 13.835938 C 90.695312 14.802435 91.478813 15.585937 92.445312 15.585938 C 93.411812 15.585938 94.195312 14.802435 94.195312 13.835938 C 94.195312 12.869438 93.411812 12.085937 92.445312 12.085938 C 92.440313 12.085919 92.436341 12.085917 92.431641 12.085938 z M 86.152344 12.234375 L 83.896484 14.650391 C 84.198974 15.225661 84.795363 15.585901 85.445312 15.585938 C 86.411812 15.585938 87.195312 14.802435 87.195312 13.835938 C 87.195612 13.142613 86.786564 12.51449 86.152344 12.234375 z M 88.931641 15.585938 C 87.970481 15.593438 87.195283 16.374752 87.195312 17.335938 C 87.195312 18.302436 87.978813 19.085938 88.945312 19.085938 C 89.911812 19.085938 90.695312 18.302436 90.695312 17.335938 C 90.695312 16.369439 89.911812 15.585938 88.945312 15.585938 C 88.940313 15.585919 88.936341 15.585917 88.931641 15.585938 z M 82.810547 15.814453 L 80.488281 18.302734 C 80.812121 18.791356 81.359112 19.085376 81.945312 19.085938 C 82.911812 19.085938 83.695312 18.302436 83.695312 17.335938 C 83.695432 16.706577 83.357607 16.125621 82.810547 15.814453 z M 85.431641 19.085938 C 84.470481 19.093438 83.695283 19.874751 83.695312 20.835938 C 83.695312 21.802436 84.478813 22.585938 85.445312 22.585938 C 86.411812 22.585938 87.195312 21.802436 87.195312 20.835938 C 87.195312 19.869439 86.411812 19.085938 85.445312 19.085938 C 85.440313 19.085919 85.436341 19.085919 85.431641 19.085938 z M 92.431641 19.085938 C 91.470481 19.093438 90.695283 19.874751 90.695312 20.835938 C 90.695312 21.802436 91.478813 22.585938 92.445312 22.585938 C 93.411812 22.585938 94.195312 21.802436 94.195312 20.835938 C 94.195312 19.869439 93.411812 19.085938 92.445312 19.085938 C 92.440313 19.085919 92.436341 19.085919 92.431641 19.085938 z M 3.9316406 20.333984 C 15.408511 27.174878 25.252399 33.60704 30.912109 45.556641 C 29.304759 47.594753 28.333984 50.154111 28.333984 52.927734 C 28.333984 56.245243 29.715631 59.260263 31.925781 61.435547 C 30.761881 64.680395 29.395504 67.766728 27.902344 70.787109 L 23.574219 70.787109 L 26.324219 66.025391 L 23.402344 64.337891 L 24.443359 62.533203 L 20.396484 60.197266 L 14.28125 70.787109 L 3.9316406 70.787109 L 3.9316406 35.820312 L 11.615234 40.402344 L 16.392578 32.390625 L 3.9316406 24.958984 L 3.9316406 20.333984 z M 58.65625 37.417969 C 57.588429 37.713013 56.551201 38.115158 55.566406 38.625 C 55.565833 38.625668 55.565026 38.626285 55.564453 38.626953 C 52.77028 41.881818 50.477461 44.769903 48.970703 47.091797 C 50.100563 48.761995 50.761719 50.771025 50.761719 52.927734 C 50.761719 54.721016 50.30361 56.411506 49.5 57.890625 C 52.632213 60.339634 55.155791 63.639273 57.410156 67.308594 C 58.10261 67.561991 58.813692 67.762561 59.539062 67.910156 C 57.246371 63.967983 54.66551 60.306746 51.355469 57.462891 C 51.937209 56.06104 52.261719 54.530362 52.261719 52.927734 C 52.261719 50.830468 51.705907 48.855969 50.742188 47.134766 C 52.527096 44.543729 55.346842 41.16833 58.65625 37.417969 z M 67.199219 37.501953 C 67.119713 38.298994 67.126712 39.106139 67.216797 39.925781 C 67.445307 40.0309 67.693792 40.085527 67.945312 40.085938 C 68.855768 40.085938 69.595993 39.388559 69.679688 38.5 C 68.881128 38.10003 68.053057 37.761336 67.199219 37.501953 z M 18.197266 39.892578 L 14.574219 46.167969 L 12.142578 50.378906 L 18.417969 54.001953 L 20.849609 49.791016 L 23.341797 51.230469 L 26.964844 44.955078 L 24.472656 43.515625 L 18.197266 39.892578 z M 71.431641 40.085938 C 70.470481 40.093438 69.695283 40.874752 69.695312 41.835938 C 69.695312 42.802436 70.478813 43.585938 71.445312 43.585938 C 72.411812 43.585938 73.195312 42.802436 73.195312 41.835938 C 73.195312 40.869439 72.411812 40.085938 71.445312 40.085938 C 71.440313 40.08592 71.436341 40.085918 71.431641 40.085938 z M 74.931641 43.585938 C 73.970481 43.593438 73.195283 44.374752 73.195312 45.335938 C 73.195312 46.302436 73.978813 47.085938 74.945312 47.085938 C 75.890465 47.085938 76.655894 46.335397 76.689453 45.398438 C 76.407236 44.841232 76.093237 44.302804 75.744141 43.787109 C 75.503681 43.662741 75.234706 43.585938 74.945312 43.585938 C 74.940313 43.58592 74.936341 43.585918 74.931641 43.585938 z M 68.21875 43.607422 C 68.23245 43.638262 68.239906 43.668339 68.253906 43.699219 C 68.231006 45.112256 68.171314 46.161844 68.115234 47.076172 C 69.011094 46.988772 69.694542 46.236049 69.695312 45.335938 C 69.695323 44.474998 69.06911 43.741944 68.21875 43.607422 z M 71.431641 47.085938 C 70.470481 47.093438 69.695283 47.874753 69.695312 48.835938 C 69.695312 49.802436 70.478813 50.585938 71.445312 50.585938 C 72.411812 50.585938 73.195312 49.802436 73.195312 48.835938 C 73.195312 47.869439 72.411812 47.085938 71.445312 47.085938 C 71.440313 47.08592 71.436341 47.085918 71.431641 47.085938 z M 92.431641 47.085938 C 92.107099 47.08847 91.806328 47.183729 91.546875 47.339844 C 91.73115 48.385547 91.862209 49.440583 91.929688 50.5 C 92.09356 50.550776 92.26475 50.585938 92.445312 50.585938 C 93.411812 50.585938 94.195312 49.802436 94.195312 48.835938 C 94.195312 47.869439 93.411812 47.085938 92.445312 47.085938 C 92.440313 47.08592 92.436341 47.085918 92.431641 47.085938 z M 77.533203 47.347656 C 77.031723 47.655575 76.695293 48.204923 76.695312 48.835938 C 76.695312 49.749035 77.3968 50.490249 78.289062 50.570312 C 78.154115 49.472668 77.902634 48.391445 77.533203 47.347656 z M 74.931641 50.585938 C 73.970481 50.593438 73.195283 51.374752 73.195312 52.335938 C 73.195312 53.302436 73.978813 54.085938 74.945312 54.085938 C 75.911812 54.085938 76.695312 53.302436 76.695312 52.335938 C 76.695312 51.369439 75.911812 50.585938 74.945312 50.585938 C 74.940313 50.58592 74.936341 50.585918 74.931641 50.585938 z M 68.238281 50.609375 C 68.461691 51.165339 68.895581 51.603507 69.681641 52.123047 C 69.588141 51.354857 69.001151 50.739301 68.238281 50.609375 z M 92.431641 54.085938 C 92.256489 54.087304 92.090876 54.120756 91.931641 54.169922 C 91.866904 55.233889 91.755695 56.296311 91.578125 57.347656 C 91.834661 57.495191 92.128138 57.585938 92.445312 57.585938 C 93.411812 57.585938 94.195312 56.802436 94.195312 55.835938 C 94.195312 54.869439 93.411812 54.085938 92.445312 54.085938 C 92.440313 54.08592 92.436341 54.085918 92.431641 54.085938 z M 78.328125 54.097656 C 77.416609 54.159293 76.695284 54.910352 76.695312 55.835938 C 76.695312 56.515548 77.086328 57.098807 77.652344 57.388672 C 77.992819 56.319749 78.217536 55.215092 78.328125 54.097656 z M 65.810547 55.859375 C 62.583277 55.859375 59.933594 58.509057 59.933594 61.736328 C 59.933594 64.963599 62.583277 67.611328 65.810547 67.611328 C 69.037817 67.611328 71.685547 64.963599 71.685547 61.736328 C 71.685547 58.509057 69.037817 55.859375 65.810547 55.859375 z M 65.810547 58.859375 C 67.416497 58.859375 68.685547 60.130377 68.685547 61.736328 C 68.685547 63.342278 67.416497 64.611328 65.810547 64.611328 C 64.204597 64.611328 62.933594 63.342278 62.933594 61.736328 C 62.933594 60.130377 64.204597 58.859375 65.810547 58.859375 z "
     style="color:#000000;font-style:normal;font-variant:normal;font-weight:normal;font-stretch:normal;font-size:medium;line-height:normal;font-family:sans-serif;font-variant-ligatures:normal;font-variant-position:normal;font-variant-caps:normal;font-variant-numeric:normal;font-variant-alternates:normal;font-variant-east-asian:normal;font-feature-settings:normal;font-variation-settings:normal;text-indent:0;text-align:start;text-decoration:none;text-decoration-line:none;text-decoration-style:solid;text-decoration-color:#000000;letter-spacing:normal;word-spacing:normal;text-transform:none;writing-mode:lr-tb;direction:ltr;text-orientation:mixed;dominant-baseline:auto;baseline-shift:baseline;text-anchor:start;white-space:normal;shape-padding:0;shape-margin:0;inline-size:0;clip-rule:nonzero;display:inline;overflow:visible;visibility:visible;isolation:auto;mix-blend-mode:normal;color-interpolation:sRGB;color-interpolation-filters:linearRGB;solid-color:#000000;solid-opacity:1;vector-effect:none;fill:#000080;fill-opacity:1;fill-rule:nonzero;stroke:none;stroke-width:4.0691;stroke-linecap:round;stroke-linejoin:round;stroke-miterlimit:4;stroke-dasharray:none;stroke-dashoffset:188.976;stroke-opacity:1;color-rendering:auto;image-rendering:auto;shape-rendering:auto;text-rendering:auto;enable-background:accumulate;stop-color:#000000"
     id="path4492" />
  <path
     id="path877-7"
     style="color:#000000;font-style:normal;font-variant:normal;font-weight:normal;font-stretch:normal;font-size:medium;line-height:normal;font-family:sans-serif;font-variant-ligatures:normal;font-variant-position:normal;font-variant-caps:normal;font-variant-numeric:normal;font-variant-alternates:normal;font-variant-east-asian:normal;font-feature-settings:normal;font-variation-settings:normal;text-indent:0;text-align:start;text-decoration:none;text-decoration-line:none;text-decoration-style:solid;text-decoration-color:#000000;letter-spacing:normal;word-spacing:normal;text-transform:none;writing-mode:lr-tb;direction:ltr;text-orientation:mixed;dominant-baseline:auto;baseline-shift:baseline;text-anchor:start;white-space:normal;shape-padding:0;shape-margin:0;inline-size:0;clip-rule:nonzero;display:inline;overflow:visible;visibility:visible;isolation:auto;mix-blend-mode:normal;color-interpolation:sRGB;color-interpolation-filters:linearRGB;solid-color:#000000;solid-opacity:1;vector-effect:none;fill:#000080;fill-opacity:1;fill-rule:nonzero;stroke:none;stroke-width:5.62215;stroke-linecap:round;stroke-linejoin:round;stroke-miterlimit:4;stroke-dasharray:none;stroke-dashoffset:20;stroke-opacity:1;color-rendering:auto;image-rendering:auto;shape-rendering:auto;text-rendering:auto;enable-background:accumulate;stop-color:#000000"
     d="m 66.128569,27.495129 c -6.421938,-0.869687 -13.174974,0.702324 -18.720069,4.924668 -11.09019,8.444688 -13.246305,24.36585 -4.801617,35.45604 7.904723,10.381067 22.339511,12.883637 33.249923,6.237136 l 2.083453,2.736146 a 2.6902856,4.0512343 52.712333 0 0 0.105901,2.493801 l 15.118981,19.855364 a 2.6902856,4.0512343 52.712333 0 0 4.852742,-0.314501 2.6902856,4.0512343 52.712333 0 0 1.593862,-4.594303 L 84.492765,74.434116 A 2.6902856,4.0512343 52.712333 0 0 82.115638,73.668572 L 80.032184,70.932427 C 89.341356,62.182857 90.769309,47.602542 82.86454,37.221414 78.642196,31.676319 72.550507,28.364817 66.128569,27.495129 Z M 65.37874,33.03201 c 4.984523,0.675026 9.711072,3.259989 13.013047,7.596387 6.603951,8.672799 4.938266,20.97253 -3.734531,27.576482 C 65.984458,74.80883 53.684726,73.143145 47.080774,64.470347 40.476823,55.79755 42.142508,43.497818 50.815306,36.893866 55.151705,33.59189 60.394217,32.356983 65.37874,33.03201 Z" />
</svg>
