<?xml version="1.0" encoding="UTF-8" standalone="no"?>
<svg
   xmlns:dc="http://purl.org/dc/elements/1.1/"
   xmlns:cc="http://creativecommons.org/ns#"
   xmlns:rdf="http://www.w3.org/1999/02/22-rdf-syntax-ns#"
   xmlns:svg="http://www.w3.org/2000/svg"
   xmlns="http://www.w3.org/2000/svg"
   xmlns:sodipodi="http://sodipodi.sourceforge.net/DTD/sodipodi-0.dtd"
   xmlns:inkscape="http://www.inkscape.org/namespaces/inkscape"
   version="1.1"
   width="100"
   height="100"
   id="svg4460"
   sodipodi:docname="uEA64-search-attribtues.svg"
   inkscape:version="1.0 (4035a4fb49, 2020-05-01)">
  <sodipodi:namedview
     pagecolor="#ffffff"
     bordercolor="#666666"
     borderopacity="1"
     objecttolerance="10"
     gridtolerance="10"
     guidetolerance="10"
     inkscape:pageopacity="0"
     inkscape:pageshadow="2"
     inkscape:window-width="1920"
     inkscape:window-height="1017"
     id="namedview11"
     showgrid="false"
     inkscape:zoom="8.0000002"
     inkscape:cx="54.552337"
     inkscape:cy="38.221363"
     inkscape:window-x="-8"
     inkscape:window-y="-8"
     inkscape:window-maximized="1"
     inkscape:current-layer="svg4460"
     inkscape:document-rotation="0" />
  <defs
     id="defs4462" />
  <metadata
     id="metadata4465">
    <rdf:RDF>
      <cc:Work
         rdf:about="">
        <dc:format>image/svg+xml</dc:format>
        <dc:type
           rdf:resource="http://purl.org/dc/dcmitype/StillImage" />
        <dc:title />
      </cc:Work>
    </rdf:RDF>
  </metadata>
  <path
     d="m 37.179831,6.609878e-5 c -9.530233,0 -19.061096,3.62359560122 -26.308594,10.87109390122 -14.4949968,14.494996 -14.4949968,38.122191 0,52.617187 13.568165,13.568166 35.097661,14.366388 49.685547,2.527344 l 3.576171,3.576172 a 3.9563019,5.9576969 45 0 0 0.646485,3.613281 L 90.730612,99.156316 A 3.9563019,5.9576969 45 0 0 97.740377,97.7403 3.9563019,5.9576969 45 0 0 99.156393,90.730535 L 73.205221,64.779363 A 3.9563019,5.9576969 45 0 0 69.589987,64.132878 L 66.013815,60.556707 C 77.853191,45.968899 77.056669,24.439405 63.488424,10.87116 56.240926,3.6236617 46.710063,6.609878e-5 37.179831,6.609878e-5 Z m 0,8.21679690122 c 7.397091,10e-8 14.795171,2.834234 20.46289,8.501953 11.335439,11.33544 11.335439,29.588389 0,40.923828 -11.335439,11.335439 -29.588388,11.335439 -40.923828,0 -11.3354393,-11.335439 -11.3354393,-29.588388 0,-40.923828 5.66772,-5.66772 13.063846,-8.5019531 20.460938,-8.501953 z"
     style="color:#000000;font-style:normal;font-variant:normal;font-weight:normal;font-stretch:normal;font-size:medium;line-height:normal;font-family:sans-serif;font-variant-ligatures:normal;font-variant-position:normal;font-variant-caps:normal;font-variant-numeric:normal;font-variant-alternates:normal;font-variant-east-asian:normal;font-feature-settings:normal;font-variation-settings:normal;text-indent:0;text-align:start;text-decoration:none;text-decoration-line:none;text-decoration-style:solid;text-decoration-color:#000000;letter-spacing:normal;word-spacing:normal;text-transform:none;writing-mode:lr-tb;direction:ltr;text-orientation:mixed;dominant-baseline:auto;baseline-shift:baseline;text-anchor:start;white-space:normal;shape-padding:0;shape-margin:0;inline-size:0;clip-rule:nonzero;display:inline;overflow:visible;visibility:visible;isolation:auto;mix-blend-mode:normal;color-interpolation:sRGB;color-interpolation-filters:linearRGB;solid-color:#000000;solid-opacity:1;vector-effect:none;fill:#000080;fill-opacity:1;fill-rule:nonzero;stroke:none;stroke-width:8.26787;stroke-linecap:round;stroke-linejoin:round;stroke-miterlimit:4;stroke-dasharray:none;stroke-dashoffset:20;stroke-opacity:1;color-rendering:auto;image-rendering:auto;shape-rendering:auto;text-rendering:auto;enable-background:accumulate;stop-color:#000000"
     id="path877-7" />
  <g
     style="font-style:normal;font-weight:normal;font-size:61.8668px;line-height:100%;font-family:sans-serif;text-align:end;letter-spacing:0px;word-spacing:0px;text-anchor:end;fill:#000000;fill-opacity:1;stroke:none;stroke-width:2.47467px;stroke-linecap:butt;stroke-linejoin:miter;stroke-opacity:1"
     id="text833"
     aria-label="A">
    <path
       id="path838"
       style="font-style:normal;font-variant:normal;font-weight:normal;font-stretch:normal;font-family:'Times New Roman';-inkscape-font-specification:'Times New Roman, ';stroke-width:2.47467px;fill:#000080"
       d="M 42.989845,40.144328 H 27.130437 l -2.779173,6.464597 q -1.027085,2.386463 -1.027085,3.564591 0,0.93646 0.876043,1.661461 0.906252,0.694794 3.866675,0.906252 V 53.85894 H 15.167911 v -1.117711 q 2.567714,-0.453126 3.322924,-1.178127 1.540628,-1.450003 3.413549,-5.890638 L 36.31379,11.959893 h 1.057293 l 14.258364,34.075072 q 1.721879,4.108342 3.111465,5.346887 1.419795,1.208335 3.927092,1.359377 V 53.85894 H 42.506511 v -1.117711 q 2.44688,-0.120833 3.292715,-0.815626 0.876044,-0.694793 0.876044,-1.691671 0,-1.329169 -1.208336,-4.198967 z M 42.14401,37.908906 35.196079,21.354704 28.066897,37.908906 Z" />
  </g>
</svg>
