<?xml version="1.0" encoding="UTF-8" standalone="no"?>
<svg
   xmlns:dc="http://purl.org/dc/elements/1.1/"
   xmlns:cc="http://creativecommons.org/ns#"
   xmlns:rdf="http://www.w3.org/1999/02/22-rdf-syntax-ns#"
   xmlns:svg="http://www.w3.org/2000/svg"
   xmlns="http://www.w3.org/2000/svg"
   xmlns:sodipodi="http://sodipodi.sourceforge.net/DTD/sodipodi-0.dtd"
   xmlns:inkscape="http://www.inkscape.org/namespaces/inkscape"
   inkscape:version="1.0 (4035a4fb49, 2020-05-01)"
   sodipodi:docname="uEA67-search-layer-alt.svg"
   id="svg4460"
   height="100"
   width="100"
   version="1.1">
  <sodipodi:namedview
     inkscape:document-rotation="0"
     inkscape:current-layer="svg4460"
     inkscape:window-maximized="1"
     inkscape:window-y="-8"
     inkscape:window-x="-8"
     inkscape:cy="65.329413"
     inkscape:cx="2.7267007"
     inkscape:zoom="2.8284272"
     showgrid="false"
     id="namedview11"
     inkscape:window-height="1017"
     inkscape:window-width="1920"
     inkscape:pageshadow="2"
     inkscape:pageopacity="0"
     guidetolerance="10"
     gridtolerance="10"
     objecttolerance="10"
     borderopacity="1"
     bordercolor="#666666"
     pagecolor="#ffffff" />
  <defs
     id="defs4462" />
  <metadata
     id="metadata4465">
    <rdf:RDF>
      <cc:Work
         rdf:about="">
        <dc:format>image/svg+xml</dc:format>
        <dc:type
           rdf:resource="http://purl.org/dc/dcmitype/StillImage" />
        <dc:title />
      </cc:Work>
    </rdf:RDF>
  </metadata>
  <path
     d="M 28.134766 0 A 3.50035 3.50035 0 0 0 25.466797 1.234375 L 0.83203125 30.25 A 3.50035 3.50035 0 0 0 3.5019531 36.015625 L 29.240234 35.998047 C 34.90961 28.249634 44.0607 23.185547 54.332031 23.185547 C 64.587896 23.185547 73.726557 28.234235 79.398438 35.962891 L 96.501953 35.951172 A 3.50035 3.50035 0 0 0 99.167969 30.185547 L 74.589844 1.234375 A 3.50035 3.50035 0 0 0 71.921875 0 L 28.134766 0 z M 89.910156 40.955078 L 82.398438 40.960938 C 82.971053 42.158002 83.46529 43.397729 83.882812 44.671875 L 88.943359 50.632812 L 85.195312 50.634766 C 85.336353 51.828583 85.417969 53.039667 85.417969 54.269531 C 85.417969 55.406565 85.351284 56.528263 85.230469 57.634766 L 96.501953 57.626953 A 3.50035 3.50035 0 0 0 99.167969 51.861328 L 89.910156 40.955078 z M 19.287109 41.003906 L 10.099609 41.011719 L 0.83203125 51.925781 A 3.50035 3.50035 0 0 0 3.5019531 57.691406 L 23.441406 57.677734 C 23.317483 56.557265 23.248047 55.421375 23.248047 54.269531 C 23.248047 53.054477 23.32715 51.857653 23.464844 50.677734 L 11.068359 50.685547 L 19.287109 41.003906 z M 89.910156 62.548828 L 84.279297 62.552734 C 83.994626 63.573415 83.657445 64.572444 83.273438 65.548828 L 88.943359 72.226562 L 79.644531 72.232422 C 77.734964 74.909473 75.418408 77.277328 72.779297 79.236328 L 96.501953 79.220703 A 3.50035 3.50035 0 0 0 99.167969 73.455078 L 89.910156 62.548828 z M 19.287109 62.597656 L 10.099609 62.605469 L 0.83203125 73.519531 A 3.50035 3.50035 0 0 0 3.5019531 79.285156 L 35.921875 79.261719 C 33.279641 77.306114 30.958232 74.942319 29.044922 72.267578 L 11.068359 72.279297 L 19.287109 62.597656 z "
     style="color:#000000;font-style:normal;font-variant:normal;font-weight:normal;font-stretch:normal;font-size:medium;line-height:normal;font-family:sans-serif;font-variant-ligatures:normal;font-variant-position:normal;font-variant-caps:normal;font-variant-numeric:normal;font-variant-alternates:normal;font-variant-east-asian:normal;font-feature-settings:normal;font-variation-settings:normal;text-indent:0;text-align:start;text-decoration:none;text-decoration-line:none;text-decoration-style:solid;text-decoration-color:#000000;letter-spacing:normal;word-spacing:normal;text-transform:none;writing-mode:lr-tb;direction:ltr;text-orientation:mixed;dominant-baseline:auto;baseline-shift:baseline;text-anchor:start;white-space:normal;shape-padding:0;shape-margin:0;inline-size:0;clip-rule:nonzero;display:inline;overflow:visible;visibility:visible;opacity:1;isolation:auto;mix-blend-mode:normal;color-interpolation:sRGB;color-interpolation-filters:linearRGB;solid-color:#000000;solid-opacity:1;vector-effect:none;fill:#000080;fill-opacity:1;fill-rule:nonzero;stroke:none;stroke-width:7;stroke-linecap:round;stroke-linejoin:round;stroke-miterlimit:4;stroke-dasharray:none;stroke-dashoffset:0;stroke-opacity:1;color-rendering:auto;image-rendering:auto;shape-rendering:auto;text-rendering:auto;enable-background:accumulate;stop-color:#000000;stop-opacity:1"
     id="path832-9" />
  <path
     id="path877-7"
     style="color:#000000;font-style:normal;font-variant:normal;font-weight:normal;font-stretch:normal;font-size:medium;line-height:normal;font-family:sans-serif;font-variant-ligatures:normal;font-variant-position:normal;font-variant-caps:normal;font-variant-numeric:normal;font-variant-alternates:normal;font-variant-east-asian:normal;font-feature-settings:normal;font-variation-settings:normal;text-indent:0;text-align:start;text-decoration:none;text-decoration-line:none;text-decoration-style:solid;text-decoration-color:#000000;letter-spacing:normal;word-spacing:normal;text-transform:none;writing-mode:lr-tb;direction:ltr;text-orientation:mixed;dominant-baseline:auto;baseline-shift:baseline;text-anchor:start;white-space:normal;shape-padding:0;shape-margin:0;inline-size:0;clip-rule:nonzero;display:inline;overflow:visible;visibility:visible;isolation:auto;mix-blend-mode:normal;color-interpolation:sRGB;color-interpolation-filters:linearRGB;solid-color:#000000;solid-opacity:1;vector-effect:none;fill:#000080;fill-opacity:1;fill-rule:nonzero;stroke:none;stroke-width:6.04629;stroke-linecap:round;stroke-linejoin:round;stroke-miterlimit:4;stroke-dasharray:none;stroke-dashoffset:20;stroke-opacity:1;color-rendering:auto;image-rendering:auto;shape-rendering:auto;text-rendering:auto;enable-background:accumulate;stop-color:#000000"
     d="m 54.059671,26.870123 c -6.96945,0 -13.939361,2.649932 -19.23945,7.950021 -10.600178,10.600177 -10.600178,27.878723 0,38.4789 9.922387,9.922387 25.666887,10.506126 36.334995,1.848244 l 2.61525,2.615252 a 2.8932399,4.3568582 45 0 0 0.472774,2.642389 l 18.978068,18.978068 a 2.8932399,4.3568582 45 0 0 5.126235,-1.035531 2.8932399,4.3568582 45 0 0 1.035531,-5.126235 L 80.405006,74.243163 a 2.8932399,4.3568582 45 0 0 -2.643817,-0.472774 l -2.615252,-2.61525 c 8.658125,-10.668051 8.075629,-26.41255 -1.846816,-36.334995 -5.300088,-5.300089 -12.27,-7.950021 -19.23945,-7.950021 z m 0,6.008936 c 5.409486,0 10.819695,2.072673 14.964493,6.21747 8.289596,8.289597 8.289596,21.637962 0,29.927558 -8.289596,8.289596 -21.637961,8.289596 -29.927558,0 -8.289596,-8.289596 -8.289596,-21.637961 0,-29.927558 4.144799,-4.144798 9.553579,-6.21747 14.963065,-6.21747 z" />
</svg>
