<?xml version="1.0" encoding="UTF-8" standalone="no"?>
<svg
   xmlns:dc="http://purl.org/dc/elements/1.1/"
   xmlns:cc="http://creativecommons.org/ns#"
   xmlns:rdf="http://www.w3.org/1999/02/22-rdf-syntax-ns#"
   xmlns:svg="http://www.w3.org/2000/svg"
   xmlns="http://www.w3.org/2000/svg"
   xmlns:sodipodi="http://sodipodi.sourceforge.net/DTD/sodipodi-0.dtd"
   xmlns:inkscape="http://www.inkscape.org/namespaces/inkscape"
   version="1.1"
   width="100"
   height="100"
   id="svg4460"
   sodipodi:docname="uEA61-search-globe.svg"
   inkscape:version="1.0 (4035a4fb49, 2020-05-01)">
  <sodipodi:namedview
     pagecolor="#ffffff"
     bordercolor="#666666"
     borderopacity="1"
     objecttolerance="10"
     gridtolerance="10"
     guidetolerance="10"
     inkscape:pageopacity="0"
     inkscape:pageshadow="2"
     inkscape:window-width="1920"
     inkscape:window-height="1017"
     id="namedview11"
     showgrid="false"
     inkscape:zoom="2.8284272"
     inkscape:cx="30.297853"
     inkscape:cy="85.344147"
     inkscape:window-x="-8"
     inkscape:window-y="-8"
     inkscape:window-maximized="1"
     inkscape:current-layer="svg4460"
     inkscape:document-rotation="0" />
  <defs
     id="defs4462" />
  <metadata
     id="metadata4465">
    <rdf:RDF>
      <cc:Work
         rdf:about="">
        <dc:format>image/svg+xml</dc:format>
        <dc:type
           rdf:resource="http://purl.org/dc/dcmitype/StillImage" />
        <dc:title />
      </cc:Work>
    </rdf:RDF>
  </metadata>
  <path
     d="M 45 0 C 42.671553 0 40.383921 0.17786395 38.150391 0.51953125 C 36.662639 0.74711539 35.199875 1.0482258 33.763672 1.4179688 C 33.04495 1.6029999 32.333302 1.8061757 31.628906 2.0253906 C 16.835573 6.6292239 5.305133 18.66605 1.4179688 33.759766 C 1.4176552 33.760982 1.4182822 33.762456 1.4179688 33.763672 C 1.0482258 35.199875 0.74711539 36.662639 0.51953125 38.150391 C 0.5193364 38.151662 0.51972599 38.153025 0.51953125 38.154297 C 0.40589881 38.897556 0.30916214 39.647632 0.23242188 40.402344 L 0.23242188 40.404297 C 0.15564764 41.159665 0.097469098 41.919651 0.05859375 42.685547 C 0.019594034 43.452366 7.307152e-09 44.223615 0 45 C 0 45.775725 0.019659891 46.546324 0.05859375 47.3125 L 0.05859375 47.314453 C 0.097527177 48.079969 0.15556748 48.840667 0.23242188 49.595703 L 0.23242188 49.597656 C 0.309308 50.352681 0.40567071 51.102104 0.51953125 51.845703 C 0.51972554 51.846974 0.51933686 51.848339 0.51953125 51.849609 C 0.74711539 53.337361 1.0482258 54.800125 1.4179688 56.236328 C 1.418284 56.237553 1.4176534 56.23901 1.4179688 56.240234 C 5.3051331 71.33395 16.835573 83.370776 31.628906 87.974609 C 32.332102 88.193451 33.042292 88.397256 33.759766 88.582031 C 33.760982 88.582345 33.762456 88.581718 33.763672 88.582031 C 34.481161 88.766745 35.204722 88.934279 35.935547 89.083984 C 35.936794 89.08424 35.938206 89.083729 35.939453 89.083984 C 36.670297 89.233629 37.407153 89.366774 38.150391 89.480469 C 38.151662 89.480664 38.153025 89.480274 38.154297 89.480469 C 38.897557 89.594101 39.647632 89.690838 40.402344 89.767578 L 40.404297 89.767578 C 41.159665 89.844352 41.919651 89.902531 42.685547 89.941406 C 43.452366 89.980406 44.223615 90 45 90 C 45.77507 90 46.545009 89.980275 47.310547 89.941406 C 48.468932 89.88271 49.610414 89.765941 50.744141 89.621094 C 51.108025 89.574542 51.474802 89.537637 51.835938 89.482422 C 51.83923 89.481919 51.842411 89.480972 51.845703 89.480469 C 54.078896 89.138928 56.258391 88.632248 58.371094 87.974609 C 64.024232 86.214911 69.194082 83.361576 73.648438 79.673828 C 69.599479 81.311924 65.18349 81.997029 60.826172 81.724609 C 55.971532 83.817919 50.630037 85 45 85 C 39.788673 85 34.818031 83.997649 30.255859 82.191406 C 30.584817 81.876958 30.954481 81.61724 31.421875 81.482422 C 37.255069 82.892195 34.716708 75.677461 38.677734 74.044922 C 41.331226 69.181148 32.859715 68.405544 29.835938 66.634766 C 24.721796 65.862099 25.200623 59.638531 20.556641 58.292969 C 16.753371 57.68639 18.133672 52.204749 15.345703 52.498047 C 12.939378 52.945171 11.983621 49.634626 10.642578 49.871094 C 10.318724 50.212666 8.9636313 47.649228 7.5058594 50.474609 C 4.0193391 49.702975 5.5418825 46.197316 5.0371094 43.533203 C 5.1967531 39.095129 6.0718224 34.843135 7.5585938 30.890625 C 8.4111138 31.661519 8.004772 34.120402 8.1464844 35.789062 C 9.8051271 36.500149 9.026816 29.512029 12.474609 29.349609 C 14.820859 26.707788 17.542761 24.459625 20.394531 22.640625 C 21.507928 23.433849 23.900011 23.338424 25.777344 21.576172 C 23.686009 21.155779 23.536645 19.559387 26.332031 18.931641 C 30.779633 17.020093 24.325646 21.026588 27.957031 21.605469 C 31.898617 22.766534 28.555414 18.177217 30.423828 16.382812 C 28.467817 15.050973 31.607358 9.8711185 28.185547 12.171875 C 29.368973 11.325553 27.528827 9.7385563 28.585938 9.1191406 C 29.022832 10.342529 31.222258 12.024158 32.003906 9.2011719 C 33.553078 9.4657313 33.860609 7.9571966 34.320312 6.4472656 C 35.434401 6.1401484 36.567686 5.8810169 37.71875 5.6699219 C 37.334586 7.1170438 35.945002 9.3522206 35.832031 10.800781 C 37.626267 16.030192 40.653896 8.7844343 43.84375 8.6054688 C 46.599074 8.6990681 47.16084 6.8541222 47.240234 5.0664062 C 50.928218 5.2693302 54.478869 5.9750612 57.832031 7.1074219 C 58.118179 9.6759819 59.225788 13.729423 62.037109 12.833984 C 61.450751 12.963147 63.902567 15.388065 62.634766 15.794922 C 61.960596 20.330153 58.281703 12.770124 56.416016 12.869141 C 53.627192 13.339605 56.945507 14.718326 55.939453 15.394531 C 53.29956 17.661851 58.223719 20.041457 57.826172 16.230469 C 58.149388 19.302595 59.19131 19.206784 61.681641 19.046875 C 56.763899 19.877334 62.702314 21.637665 62.548828 23.289062 C 64.158834 23.285225 65.765714 23.408594 67.355469 23.662109 C 67.721831 23.386254 68.188892 23.249672 68.8125 23.326172 C 68.757009 23.518552 68.734484 23.708206 68.726562 23.896484 C 69.095198 23.973284 69.462716 24.055426 69.828125 24.146484 C 69.956489 23.983362 70.532672 24.16937 71.158203 24.507812 C 71.166687 24.510365 71.175112 24.513065 71.183594 24.515625 C 72.233979 24.819121 73.260473 25.193272 74.263672 25.619141 C 74.413412 25.190119 74.686437 25.037182 75.273438 25.583984 C 75.46331 25.914761 75.658567 26.161601 75.853516 26.351562 C 76.161278 26.505589 76.461752 26.6728 76.763672 26.837891 C 77.674037 26.973579 78.464406 26.180496 78.714844 26.121094 C 79.182235 25.990654 79.767601 26.029257 80.283203 26.126953 C 80.764547 27.026426 81.208155 27.949562 81.621094 28.888672 C 81.295057 29.023214 80.899215 29.135763 80.492188 29.251953 C 84.611631 32.405559 87.904207 36.647925 89.857422 41.458984 C 89.589908 38.030604 88.938805 34.708085 87.943359 31.537109 C 87.725671 30.843665 87.492139 30.157125 87.242188 29.478516 C 87.14991 29.227681 87.045816 28.983095 86.949219 28.734375 C 86.782002 28.30432 86.617454 27.872773 86.4375 27.449219 C 86.279453 27.07683 86.105215 26.712888 85.9375 26.345703 C 85.805179 26.056308 85.681209 25.76264 85.542969 25.476562 C 85.350293 25.077429 85.141509 24.687407 84.9375 24.294922 C 84.805464 24.041142 84.681625 23.78218 84.544922 23.53125 C 84.203783 22.9045 83.848128 22.288006 83.478516 21.679688 C 77.463283 11.779647 67.737838 4.3793322 56.236328 1.4179688 C 56.231759 1.4167911 56.227226 1.4152388 56.222656 1.4140625 C 54.790034 1.0456851 53.329625 0.74645346 51.845703 0.51953125 C 51.843079 0.51912948 51.840515 0.51797944 51.837891 0.51757812 C 51.096466 0.40433533 50.34853 0.30895125 49.595703 0.23242188 C 49.593775 0.23222561 49.591772 0.23261789 49.589844 0.23242188 C 48.835696 0.15585683 48.077149 0.097378979 47.3125 0.05859375 L 47.310547 0.05859375 C 46.545237 0.019808092 45.774888 0 45 0 z M 29.824219 7.9785156 C 29.431248 8.3645427 28.810644 8.7668348 28.089844 8.8867188 C 26.992745 9.8015637 27.004044 9.5565406 27.365234 9.0820312 C 28.169472 8.6871482 28.990542 8.3198929 29.824219 7.9785156 z M 61.589844 8.59375 C 61.721773 8.6538492 61.855175 8.7119523 61.986328 8.7734375 C 61.973017 8.9094795 61.754021 8.7645449 61.589844 8.59375 z M 48 8.9160156 C 47.195392 8.9496386 46.597605 9.2894756 46.925781 10.164062 C 47.396219 10.616625 48.081343 10.727319 48.705078 10.730469 C 52.547881 10.253237 49.770126 8.8420501 48 8.9160156 z M 61.613281 9.6191406 C 61.783596 9.6346386 62.182589 9.785997 62.923828 10.160156 C 64.421784 12.049282 60.875245 9.5519747 61.613281 9.6191406 z M 25.894531 9.8359375 C 25.747813 10.974497 24.607406 12.672919 23.429688 12.794922 C 22.489649 12.708122 21.847546 14.18946 21.121094 14.673828 C 21.09029 14.814715 21.111338 13.865918 21.330078 12.742188 C 22.78143 11.676299 24.302754 10.701213 25.894531 9.8359375 z M 54.212891 11.005859 C 54.164021 11.027299 54.123711 11.117685 54.109375 11.316406 C 54.81419 12.107419 54.424877 10.91296 54.212891 11.005859 z M 56.933594 11.660156 C 56.876444 11.644486 56.870858 11.769106 56.986328 12.164062 C 57.7431 13.025457 57.10517 11.707179 56.933594 11.660156 z M 64.638672 11.667969 C 65.257817 11.665369 66.989986 12.742643 66.640625 13.917969 C 64.967997 15.269826 65.741005 14.548713 65.414062 13.050781 C 64.294179 12.05987 64.26718 11.669547 64.638672 11.667969 z M 16.123047 17.314453 C 16.204008 17.397196 16.289964 17.498238 16.394531 17.65625 C 16.034299 18.761615 15.726442 18.320392 15.650391 17.810547 C 15.805625 17.643028 15.964992 17.479283 16.123047 17.314453 z M 24.214844 18.199219 C 24.325922 18.200519 24.507579 18.289223 24.775391 18.541016 C 24.19113 18.981085 23.88162 18.195121 24.214844 18.199219 z M 75.310547 18.892578 C 76.019427 19.715151 76.696986 20.564315 77.337891 21.443359 C 76.775299 22.426895 75.409163 19.860431 75.310547 18.892578 z M 15.923828 19.367188 C 15.982418 19.354128 16.044827 19.39076 16.107422 19.498047 C 15.267975 21.969922 15.513699 19.458594 15.923828 19.367188 z M 70.359375 21.908203 C 70.379355 21.902203 70.409376 21.903856 70.447266 21.910156 C 70.95141 21.993916 72.936942 23.123621 73.728516 23.910156 C 74.213481 24.995372 72.139238 23.061764 71.71875 23.1875 C 70.544108 22.310971 70.219299 21.950713 70.359375 21.908203 z M 14.888672 21.927734 C 14.9913 21.948374 15.070747 22.054135 15.09375 22.296875 C 13.5753 23.35234 14.443975 21.838308 14.888672 21.927734 z M 76.427734 23.939453 C 76.505494 23.906223 76.729158 24.031129 77.189453 24.464844 C 77.271443 25.564585 76.194427 24.039157 76.427734 23.939453 z M 78.644531 26.929688 C 78.46039 26.953622 78.27141 27.158531 78.130859 27.632812 C 78.307266 27.74229 78.484177 27.851598 78.658203 27.964844 C 79.624061 28.127544 79.169623 26.861424 78.644531 26.929688 z M 9.7402344 35.0625 C 9.6579744 35.063393 9.6090724 35.267923 9.6582031 35.853516 C 10.536071 36.899002 9.9869237 35.059819 9.7402344 35.0625 z M 9.2519531 36.548828 C 9.1696038 36.534949 9.0468641 36.777295 8.8828125 37.503906 C 9.3784324 38.945046 9.4991106 36.590466 9.2519531 36.548828 z M 62.798828 36.851562 C 61.869275 36.84306 60.943544 36.937125 60.03125 37.101562 C 58.684195 39.530896 56.823176 41.702271 55.949219 44.666016 C 55.689281 47.204925 56.53057 50.714775 56.177734 53.453125 C 56.998686 56.965382 60.322403 58.976046 63.21875 60.695312 C 65.398501 62.099165 67.670184 59.410334 70.015625 59.378906 C 72.067962 56.360982 75.353736 58.572427 77.208984 58.349609 C 76.862053 58.895892 76.67597 59.422006 76.59375 59.935547 C 78.866384 55.645587 79.055111 50.27006 76.931641 45.875 C 74.454028 40.497636 68.728519 36.810992 62.798828 36.851562 z M 6.7382812 37.308594 C 4.9907638 37.127971 8.2052755 40.212124 8.3320312 41.572266 C 11.567281 42.444695 7.8792323 43.432094 10.615234 44.535156 C 14.735039 46.018104 12.188995 42.705116 10.441406 42.007812 C 11.126979 40.907635 8.7025891 40.095895 7.8125 37.599609 C 7.336806 37.425951 6.9879316 37.334398 6.7382812 37.308594 z M 57.769531 37.996094 C 57.583582 37.996143 57.37882 38.338556 57.292969 39.359375 C 58.50056 39.64968 58.178599 37.995985 57.769531 37.996094 z M 10.136719 38.732422 C 10.111159 38.725822 10.087979 38.727534 10.068359 38.740234 C 9.9741672 38.801034 9.9686041 39.094954 10.230469 39.734375 L 10.433594 39.869141 C 10.601706 39.271389 10.315971 38.778514 10.136719 38.732422 z M 55.179688 38.830078 C 54.815051 39.03158 54.457267 39.243599 54.109375 39.472656 C 54.135443 39.547281 54.145071 39.613037 54.199219 39.703125 L 54.357422 39.777344 L 55.253906 39.777344 C 57.575908 39.700132 56.313228 38.974629 55.179688 38.830078 z M 7.6328125 42.087891 C 7.3958519 42.038221 7.3628687 42.310427 7.9296875 43.267578 C 9.661176 43.869181 8.1541364 42.197161 7.6328125 42.087891 z M 13.568359 44.623047 C 13.352062 44.650227 13.159432 44.881083 13.107422 45.476562 C 15.090298 46.28752 14.217266 44.541514 13.568359 44.623047 z M 16.726562 47.904297 C 16.638993 47.869887 16.549292 48.26309 16.490234 49.447266 L 16.525391 50.099609 C 17.228218 51.975309 16.989165 48.007516 16.726562 47.904297 z M 48.294922 50.544922 C 48.070696 50.520622 48.069364 50.695334 48.691406 51.287109 C 50.354216 51.616613 48.788236 50.598387 48.294922 50.544922 z M 6.1582031 50.84375 C 6.2463994 50.867308 6.3134863 51.060269 6.359375 51.611328 C 6.5390404 52.810396 6.4543829 54.018681 6.3203125 55.228516 C 5.9787162 53.929676 5.7012416 52.605132 5.4902344 51.257812 C 5.7680616 51.315546 5.9971106 50.800721 6.1582031 50.84375 z M 50.712891 51.099609 C 50.609634 51.101209 50.474463 51.176832 50.304688 51.371094 C 50.994537 52.454809 51.160334 51.092467 50.712891 51.099609 z M 50.3125 52.285156 C 50.154181 52.310766 49.931485 52.414375 49.630859 52.642578 C 50.458028 53.534906 50.998514 52.17415 50.3125 52.285156 z M 49.150391 52.458984 C 49.066061 52.450084 48.938407 52.573637 48.763672 52.949219 C 49.258905 53.710851 49.403435 52.48573 49.150391 52.458984 z M 75.449219 60.839844 C 75.364889 60.830944 75.237235 60.954496 75.0625 61.330078 C 75.557733 62.091712 75.702272 60.86659 75.449219 60.839844 z "
     style="color:#000000;font-style:normal;font-variant:normal;font-weight:normal;font-stretch:normal;font-size:medium;line-height:normal;font-family:sans-serif;font-variant-ligatures:normal;font-variant-position:normal;font-variant-caps:normal;font-variant-numeric:normal;font-variant-alternates:normal;font-variant-east-asian:normal;font-feature-settings:normal;font-variation-settings:normal;text-indent:0;text-align:start;text-decoration:none;text-decoration-line:none;text-decoration-style:solid;text-decoration-color:#000000;letter-spacing:normal;word-spacing:normal;text-transform:none;writing-mode:lr-tb;direction:ltr;text-orientation:mixed;dominant-baseline:auto;baseline-shift:baseline;text-anchor:start;white-space:normal;shape-padding:0;shape-margin:0;inline-size:0;clip-rule:nonzero;display:inline;overflow:visible;visibility:visible;opacity:1;isolation:auto;mix-blend-mode:normal;color-interpolation:sRGB;color-interpolation-filters:linearRGB;solid-color:#000000;solid-opacity:1;vector-effect:none;fill:#000080;fill-opacity:1;fill-rule:nonzero;stroke:none;stroke-width:2.7;stroke-linecap:round;stroke-linejoin:round;stroke-miterlimit:4;stroke-dasharray:none;stroke-dashoffset:188.976;stroke-opacity:1;color-rendering:auto;image-rendering:auto;shape-rendering:auto;text-rendering:auto;enable-background:accumulate;stop-color:#000000;stop-opacity:1"
     id="path919" />
  <path
     d="m 66.128569,27.495129 c -6.421938,-0.869687 -13.174974,0.702324 -18.720069,4.924668 -11.09019,8.444688 -13.246305,24.36585 -4.801617,35.45604 7.904723,10.381067 22.339511,12.883637 33.249923,6.237136 l 2.083453,2.736146 a 2.6902856,4.0512343 52.712333 0 0 0.105901,2.493801 l 15.118981,19.855372 a 2.6902856,4.0512343 52.712333 0 0 4.852738,-0.31451 2.6902856,4.0512343 52.712333 0 0 1.59387,-4.594302 L 84.492765,74.434116 A 2.6902856,4.0512343 52.712333 0 0 82.115638,73.668572 L 80.032184,70.932427 C 89.341356,62.182857 90.769309,47.602542 82.86454,37.221414 78.642196,31.676319 72.550507,28.364817 66.128569,27.495129 Z M 65.37874,33.03201 c 4.984523,0.675026 9.711072,3.259989 13.013047,7.596387 6.603951,8.672799 4.938266,20.97253 -3.734531,27.576482 C 65.984458,74.80883 53.684726,73.143145 47.080774,64.470347 40.476823,55.79755 42.142508,43.497818 50.815306,36.893866 55.151705,33.59189 60.394217,32.356983 65.37874,33.03201 Z"
     style="color:#000000;font-style:normal;font-variant:normal;font-weight:normal;font-stretch:normal;font-size:medium;line-height:normal;font-family:sans-serif;font-variant-ligatures:normal;font-variant-position:normal;font-variant-caps:normal;font-variant-numeric:normal;font-variant-alternates:normal;font-variant-east-asian:normal;font-feature-settings:normal;font-variation-settings:normal;text-indent:0;text-align:start;text-decoration:none;text-decoration-line:none;text-decoration-style:solid;text-decoration-color:#000000;letter-spacing:normal;word-spacing:normal;text-transform:none;writing-mode:lr-tb;direction:ltr;text-orientation:mixed;dominant-baseline:auto;baseline-shift:baseline;text-anchor:start;white-space:normal;shape-padding:0;shape-margin:0;inline-size:0;clip-rule:nonzero;display:inline;overflow:visible;visibility:visible;isolation:auto;mix-blend-mode:normal;color-interpolation:sRGB;color-interpolation-filters:linearRGB;solid-color:#000000;solid-opacity:1;vector-effect:none;fill:#000080;fill-opacity:1;fill-rule:nonzero;stroke:none;stroke-width:5.62215;stroke-linecap:round;stroke-linejoin:round;stroke-miterlimit:4;stroke-dasharray:none;stroke-dashoffset:20;stroke-opacity:1;color-rendering:auto;image-rendering:auto;shape-rendering:auto;text-rendering:auto;enable-background:accumulate;stop-color:#000000"
     id="path877-7" />
</svg>
