<?xml version="1.0" encoding="UTF-8" standalone="no"?>
<svg
   xmlns:dc="http://purl.org/dc/elements/1.1/"
   xmlns:cc="http://creativecommons.org/ns#"
   xmlns:rdf="http://www.w3.org/1999/02/22-rdf-syntax-ns#"
   xmlns:svg="http://www.w3.org/2000/svg"
   xmlns="http://www.w3.org/2000/svg"
   xmlns:sodipodi="http://sodipodi.sourceforge.net/DTD/sodipodi-0.dtd"
   xmlns:inkscape="http://www.inkscape.org/namespaces/inkscape"
   version="1.1"
   width="100"
   height="100"
   id="svg4460"
   sodipodi:docname="uEA66-search-layer.svg"
   inkscape:version="1.0 (4035a4fb49, 2020-05-01)">
  <sodipodi:namedview
     pagecolor="#ffffff"
     bordercolor="#666666"
     borderopacity="1"
     objecttolerance="10"
     gridtolerance="10"
     guidetolerance="10"
     inkscape:pageopacity="0"
     inkscape:pageshadow="2"
     inkscape:window-width="1920"
     inkscape:window-height="1017"
     id="namedview11"
     showgrid="false"
     inkscape:zoom="2.8284272"
     inkscape:cx="2.7267007"
     inkscape:cy="65.329413"
     inkscape:window-x="-8"
     inkscape:window-y="-8"
     inkscape:window-maximized="1"
     inkscape:current-layer="svg4460"
     inkscape:document-rotation="0" />
  <defs
     id="defs4462" />
  <metadata
     id="metadata4465">
    <rdf:RDF>
      <cc:Work
         rdf:about="">
        <dc:format>image/svg+xml</dc:format>
        <dc:type
           rdf:resource="http://purl.org/dc/dcmitype/StillImage" />
        <dc:title />
      </cc:Work>
    </rdf:RDF>
  </metadata>
  <path
     d="M 28.134766 0 A 3.50035 3.50035 0 0 0 25.466797 1.234375 L 0.83203125 30.25 A 3.50035 3.50035 0 0 0 3.5019531 36.015625 L 38.564453 35.992188 C 43.67981 28.418531 52.528205 23.545143 61.664062 23.28125 C 64.876169 23.18025 68.10589 23.586553 71.183594 24.515625 C 77.543413 26.353216 83.116542 30.52971 86.867188 35.957031 L 96.501953 35.951172 A 3.50035 3.50035 0 0 0 99.167969 30.185547 L 74.589844 1.234375 A 3.50035 3.50035 0 0 0 71.921875 0 L 28.134766 0 z M 89.634766 40.955078 C 89.94137 41.669476 90.228991 42.391931 90.474609 43.130859 C 92.075328 47.776376 92.383693 52.80819 91.521484 57.630859 L 96.501953 57.626953 A 3.50035 3.50035 0 0 0 99.167969 51.861328 L 89.910156 40.955078 L 89.634766 40.955078 z M 19.287109 41.003906 L 10.099609 41.011719 L 0.83203125 51.925781 A 3.50035 3.50035 0 0 0 3.5019531 57.691406 L 33.884766 57.669922 C 33.484788 55.362354 33.370605 53.007841 33.527344 50.669922 L 11.068359 50.685547 L 19.287109 41.003906 z M 78.296875 50.640625 L 47.171875 50.660156 C 46.933915 52.595506 47.044266 54.573558 47.541016 56.464844 C 47.641274 56.869415 47.762126 57.267321 47.896484 57.660156 L 77.572266 57.640625 C 78.327542 55.40001 78.574906 52.989337 78.296875 50.640625 z M 19.287109 62.597656 L 10.099609 62.605469 L 0.83203125 73.519531 A 3.50035 3.50035 0 0 0 3.5019531 79.285156 L 50.708984 79.251953 C 47.062896 77.621193 43.779496 75.210053 41.085938 72.259766 L 11.068359 72.279297 L 19.287109 62.597656 z M 90.115234 62.791016 C 89.23708 65.154063 88.054092 67.398138 86.587891 69.453125 L 88.943359 72.226562 L 87.785156 72.226562 C 89.596132 74.545767 91.385393 76.880993 93.167969 79.222656 L 96.501953 79.220703 A 3.50035 3.50035 0 0 0 99.167969 73.455078 L 90.115234 62.791016 z "
     style="color:#000000;font-style:normal;font-variant:normal;font-weight:normal;font-stretch:normal;font-size:medium;line-height:normal;font-family:sans-serif;font-variant-ligatures:normal;font-variant-position:normal;font-variant-caps:normal;font-variant-numeric:normal;font-variant-alternates:normal;font-variant-east-asian:normal;font-feature-settings:normal;font-variation-settings:normal;text-indent:0;text-align:start;text-decoration:none;text-decoration-line:none;text-decoration-style:solid;text-decoration-color:#000000;letter-spacing:normal;word-spacing:normal;text-transform:none;writing-mode:lr-tb;direction:ltr;text-orientation:mixed;dominant-baseline:auto;baseline-shift:baseline;text-anchor:start;white-space:normal;shape-padding:0;shape-margin:0;inline-size:0;clip-rule:nonzero;display:inline;overflow:visible;visibility:visible;opacity:1;isolation:auto;mix-blend-mode:normal;color-interpolation:sRGB;color-interpolation-filters:linearRGB;solid-color:#000000;solid-opacity:1;vector-effect:none;fill:#000080;fill-opacity:1;fill-rule:nonzero;stroke:none;stroke-width:7;stroke-linecap:round;stroke-linejoin:round;stroke-miterlimit:4;stroke-dasharray:none;stroke-dashoffset:0;stroke-opacity:1;color-rendering:auto;image-rendering:auto;shape-rendering:auto;text-rendering:auto;enable-background:accumulate;stop-color:#000000;stop-opacity:1"
     id="path832-9-9" />
  <path
     d="M 66.12857,27.495132 C 59.70663,26.625445 52.9536,28.197456 47.4085,32.4198 36.31831,40.864488 34.1622,56.78565 42.60688,67.87584 c 7.90473,10.381067 22.33951,12.883637 33.24993,6.237136 l 2.08345,2.736146 a 2.6902856,4.0512343 52.712333 0 0 0.1059,2.493801 l 15.11898,19.855368 a 2.6902856,4.0512343 52.712333 0 0 4.85274,-0.31451 2.6902856,4.0512343 52.712333 0 0 1.59387,-4.5943 L 84.49277,74.434119 A 2.6902856,4.0512343 52.712333 0 0 82.11564,73.668575 L 80.03218,70.93243 C 89.34136,62.18286 90.76931,47.602545 82.86454,37.221417 78.6422,31.676322 72.55051,28.36482 66.12857,27.495132 Z m -0.74983,5.536881 c 4.98452,0.675026 9.71107,3.259989 13.01305,7.596387 6.60395,8.672799 4.93826,20.97253 -3.73453,27.576482 -8.6728,6.603951 -20.97253,4.938266 -27.57649,-3.734532 -6.60395,-8.672797 -4.93826,-20.972529 3.73454,-27.576481 4.3364,-3.301976 9.57891,-4.536883 14.56343,-3.861856 z"
     style="color:#000000;font-style:normal;font-variant:normal;font-weight:normal;font-stretch:normal;font-size:medium;line-height:normal;font-family:sans-serif;font-variant-ligatures:normal;font-variant-position:normal;font-variant-caps:normal;font-variant-numeric:normal;font-variant-alternates:normal;font-variant-east-asian:normal;font-feature-settings:normal;font-variation-settings:normal;text-indent:0;text-align:start;text-decoration:none;text-decoration-line:none;text-decoration-style:solid;text-decoration-color:#000000;letter-spacing:normal;word-spacing:normal;text-transform:none;writing-mode:lr-tb;direction:ltr;text-orientation:mixed;dominant-baseline:auto;baseline-shift:baseline;text-anchor:start;white-space:normal;shape-padding:0;shape-margin:0;inline-size:0;clip-rule:nonzero;display:inline;overflow:visible;visibility:visible;isolation:auto;mix-blend-mode:normal;color-interpolation:sRGB;color-interpolation-filters:linearRGB;solid-color:#000000;solid-opacity:1;vector-effect:none;fill:#000080;fill-opacity:1;fill-rule:nonzero;stroke:none;stroke-width:5.62215;stroke-linecap:round;stroke-linejoin:round;stroke-miterlimit:4;stroke-dasharray:none;stroke-dashoffset:20;stroke-opacity:1;color-rendering:auto;image-rendering:auto;shape-rendering:auto;text-rendering:auto;enable-background:accumulate;stop-color:#000000"
     id="path877-7-6" />
</svg>
