<?xml version="1.0" encoding="UTF-8" standalone="no"?>
<svg
   xmlns:dc="http://purl.org/dc/elements/1.1/"
   xmlns:cc="http://creativecommons.org/ns#"
   xmlns:rdf="http://www.w3.org/1999/02/22-rdf-syntax-ns#"
   xmlns:svg="http://www.w3.org/2000/svg"
   xmlns="http://www.w3.org/2000/svg"
   xmlns:sodipodi="http://sodipodi.sourceforge.net/DTD/sodipodi-0.dtd"
   xmlns:inkscape="http://www.inkscape.org/namespaces/inkscape"
   inkscape:version="1.0 (4035a4fb49, 2020-05-01)"
   sodipodi:docname="uEA65-search-propertie.svg"
   id="svg4460"
   height="100"
   width="100"
   version="1.1">
  <sodipodi:namedview
     inkscape:document-rotation="0"
     inkscape:current-layer="svg4460"
     inkscape:window-maximized="1"
     inkscape:window-y="-8"
     inkscape:window-x="-8"
     inkscape:cy="38.221363"
     inkscape:cx="54.552337"
     inkscape:zoom="8.0000002"
     showgrid="false"
     id="namedview11"
     inkscape:window-height="1017"
     inkscape:window-width="1920"
     inkscape:pageshadow="2"
     inkscape:pageopacity="0"
     guidetolerance="10"
     gridtolerance="10"
     objecttolerance="10"
     borderopacity="1"
     bordercolor="#666666"
     pagecolor="#ffffff" />
  <defs
     id="defs4462" />
  <metadata
     id="metadata4465">
    <rdf:RDF>
      <cc:Work
         rdf:about="">
        <dc:format>image/svg+xml</dc:format>
        <dc:type
           rdf:resource="http://purl.org/dc/dcmitype/StillImage" />
        <dc:title />
      </cc:Work>
    </rdf:RDF>
  </metadata>
  <path
     d="M 37.179688 0 C 27.649454 0 18.118592 3.6235955 10.871094 10.871094 C -3.6239031 25.36609 -3.6239031 48.993285 10.871094 63.488281 C 24.439259 77.056447 45.968755 77.854669 60.556641 66.015625 L 64.132812 69.591797 A 3.9563019 5.9576969 45 0 0 64.779297 73.205078 L 90.730469 99.15625 A 3.9563019 5.9576969 45 0 0 97.740234 97.740234 A 3.9563019 5.9576969 45 0 0 99.15625 90.730469 L 73.205078 64.779297 A 3.9563019 5.9576969 45 0 0 69.589844 64.132812 L 66.013672 60.556641 C 77.853048 45.968833 77.056526 24.439339 63.488281 10.871094 C 56.240783 3.6235954 46.70992 -4.7369516e-15 37.179688 0 z M 37.179688 8.2167969 C 44.576778 8.216797 51.974859 11.051031 57.642578 16.71875 C 60.445953 19.522126 62.553937 22.749163 63.970703 26.189453 L 45.433594 26.189453 L 45.433594 32.060547 L 65.681641 32.060547 C 66.571017 37.006395 66.164319 42.133699 64.455078 46.910156 L 45.433594 46.910156 L 45.433594 52.78125 L 61.556641 52.78125 C 60.450015 54.501143 59.150271 56.134885 57.642578 57.642578 C 46.307139 68.978017 28.05419 68.978017 16.71875 57.642578 C 5.3833107 46.307139 5.3833107 28.05419 16.71875 16.71875 C 22.38647 11.05103 29.782596 8.2167968 37.179688 8.2167969 z M 25.603516 20.757812 C 23.479425 20.757812 21.691406 22.545831 21.691406 24.669922 L 21.691406 33.580078 C 21.691406 35.704169 23.479425 37.492188 25.603516 37.492188 L 34.513672 37.492188 C 36.637763 37.492188 38.425781 35.704169 38.425781 33.580078 L 38.425781 24.669922 C 38.425781 22.545831 36.637763 20.757812 34.513672 20.757812 L 25.603516 20.757812 z M 26.691406 25.757812 L 33.425781 25.757812 L 33.425781 32.492188 L 26.691406 32.492188 L 26.691406 25.757812 z M 25.603516 41.478516 C 23.479422 41.478516 21.691406 43.266533 21.691406 45.390625 L 21.691406 54.300781 C 21.691406 56.424872 23.479425 58.212891 25.603516 58.212891 L 34.513672 58.212891 C 36.637763 58.212891 38.425781 56.424872 38.425781 54.300781 L 38.425781 45.390625 C 38.425781 43.266533 36.637765 41.478516 34.513672 41.478516 L 25.603516 41.478516 z M 26.691406 46.478516 L 33.425781 46.478516 L 33.425781 53.212891 L 26.691406 53.212891 L 26.691406 46.478516 z "
     style="color:#000000;font-style:normal;font-variant:normal;font-weight:normal;font-stretch:normal;font-size:medium;line-height:normal;font-family:sans-serif;font-variant-ligatures:normal;font-variant-position:normal;font-variant-caps:normal;font-variant-numeric:normal;font-variant-alternates:normal;font-variant-east-asian:normal;font-feature-settings:normal;font-variation-settings:normal;text-indent:0;text-align:start;text-decoration:none;text-decoration-line:none;text-decoration-style:solid;text-decoration-color:#000000;letter-spacing:normal;word-spacing:normal;text-transform:none;writing-mode:lr-tb;direction:ltr;text-orientation:mixed;dominant-baseline:auto;baseline-shift:baseline;text-anchor:start;white-space:normal;shape-padding:0;shape-margin:0;inline-size:0;clip-rule:nonzero;display:inline;overflow:visible;visibility:visible;isolation:auto;mix-blend-mode:normal;color-interpolation:sRGB;color-interpolation-filters:linearRGB;solid-color:#000000;solid-opacity:1;vector-effect:none;fill:#000080;fill-opacity:1;fill-rule:nonzero;stroke:none;stroke-width:8.26787;stroke-linecap:round;stroke-linejoin:round;stroke-miterlimit:4;stroke-dasharray:none;stroke-dashoffset:20;stroke-opacity:1;color-rendering:auto;image-rendering:auto;shape-rendering:auto;text-rendering:auto;enable-background:accumulate;stop-color:#000000"
     id="path877-7" />
</svg>
