<?xml version="1.0" encoding="UTF-8" standalone="no"?>
<svg
   xmlns:dc="http://purl.org/dc/elements/1.1/"
   xmlns:cc="http://creativecommons.org/ns#"
   xmlns:rdf="http://www.w3.org/1999/02/22-rdf-syntax-ns#"
   xmlns:svg="http://www.w3.org/2000/svg"
   xmlns="http://www.w3.org/2000/svg"
   xmlns:sodipodi="http://sodipodi.sourceforge.net/DTD/sodipodi-0.dtd"
   xmlns:inkscape="http://www.inkscape.org/namespaces/inkscape"
   version="1.1"
   width="100"
   height="100"
   id="svg4460"
   sodipodi:docname="uEAFA-search-globe-alt.svg"
   inkscape:version="0.92.4 (5da689c313, 2019-01-14)">
  <sodipodi:namedview
     pagecolor="#ffffff"
     bordercolor="#666666"
     borderopacity="1"
     objecttolerance="10"
     gridtolerance="10"
     guidetolerance="10"
     inkscape:pageopacity="0"
     inkscape:pageshadow="2"
     inkscape:window-width="1920"
     inkscape:window-height="1177"
     id="namedview11"
     showgrid="false"
     inkscape:zoom="1"
     inkscape:cx="-28.590089"
     inkscape:cy="67.072276"
     inkscape:window-x="1272"
     inkscape:window-y="-8"
     inkscape:window-maximized="1"
     inkscape:current-layer="svg4460"
     inkscape:document-rotation="0" />
  <defs
     id="defs4462" />
  <metadata
     id="metadata4465">
    <rdf:RDF>
      <cc:Work
         rdf:about="">
        <dc:format>image/svg+xml</dc:format>
        <dc:type
           rdf:resource="http://purl.org/dc/dcmitype/StillImage" />
        <dc:title></dc:title>
      </cc:Work>
    </rdf:RDF>
  </metadata>
  <path
     style="color:#000000;font-style:normal;font-variant:normal;font-weight:normal;font-stretch:normal;font-size:medium;line-height:normal;font-family:sans-serif;font-variant-ligatures:normal;font-variant-position:normal;font-variant-caps:normal;font-variant-numeric:normal;font-variant-alternates:normal;font-feature-settings:normal;text-indent:0;text-align:start;text-decoration:none;text-decoration-line:none;text-decoration-style:solid;text-decoration-color:#000000;letter-spacing:normal;word-spacing:normal;text-transform:none;writing-mode:lr-tb;direction:ltr;text-orientation:mixed;dominant-baseline:auto;baseline-shift:baseline;text-anchor:start;white-space:normal;shape-padding:0;clip-rule:nonzero;display:inline;overflow:visible;visibility:visible;isolation:auto;mix-blend-mode:normal;color-interpolation:sRGB;color-interpolation-filters:linearRGB;solid-color:#000000;solid-opacity:1;vector-effect:none;fill:#000080;fill-opacity:1;fill-rule:nonzero;stroke:none;stroke-width:5.62214994;stroke-linecap:round;stroke-linejoin:round;stroke-miterlimit:4;stroke-dasharray:none;stroke-dashoffset:20;stroke-opacity:1;color-rendering:auto;image-rendering:auto;shape-rendering:auto;text-rendering:auto;enable-background:accumulate"
     d="M 63.636719 36.787109 C 63.228382 36.7853 62.815448 36.803114 62.396484 36.839844 C 57.754447 36.817244 53.469502 39.211638 50.597656 42.75 L 66.255859 42.75 C 66.19764 40.789343 66.056666 38.870228 65.853516 36.994141 C 65.134686 36.866585 64.396229 36.790475 63.636719 36.787109 z M 65.853516 36.994141 C 67.543141 37.293962 69.111566 37.920959 70.529297 38.796875 C 69.111566 37.920959 67.543141 37.293962 65.853516 36.994141 z M 70.529297 38.796875 C 70.629601 40.099352 70.705507 41.414723 70.742188 42.75 L 74.810547 42.75 C 73.62499 41.174259 72.18117 39.817451 70.529297 38.796875 z M 50.597656 42.75 C 50.332361 43.076866 50.079919 43.41221 49.839844 43.757812 C 50.080261 43.413387 50.332682 43.076471 50.597656 42.75 z M 74.822266 42.767578 C 75.06959 43.097132 75.305113 43.436099 75.529297 43.783203 C 75.304933 43.435574 75.069805 43.097424 74.822266 42.767578 z M 75.560547 43.830078 C 75.768769 44.154717 75.965115 44.488096 76.152344 44.826172 C 75.96509 44.487742 75.768802 44.155005 75.560547 43.830078 z M 49.769531 43.859375 C 49.542136 44.191906 49.323684 44.529193 49.121094 44.876953 C 49.324597 44.529981 49.541374 44.191315 49.769531 43.859375 z M 76.240234 44.988281 C 76.416633 45.314623 76.582026 45.645493 76.738281 45.982422 C 76.582289 45.645941 76.416296 45.314269 76.240234 44.988281 z M 49.046875 45.011719 C 48.636217 45.731954 48.27332 46.47729 47.978516 47.25 C 48.27339 46.477107 48.634472 45.730123 49.046875 45.011719 z M 47.978516 47.25 C 47.655351 48.097046 47.417415 48.972227 47.25 49.863281 L 47.25 56.013672 C 47.621679 58.039789 48.458983 59.86205 49.619141 61.447266 C 54.651952 61.734903 59.440295 62.487093 63.851562 63.638672 C 65.225334 58.692856 66.08098 53.139427 66.255859 47.25 L 47.978516 47.25 z M 47.25 56.013672 C 47.212695 55.810316 47.192071 55.59986 47.164062 55.392578 C 47.191978 55.599881 47.212699 55.810332 47.25 56.013672 z M 47.25 49.863281 C 47.16494 50.316008 47.103988 50.772213 47.0625 51.232422 C 47.107274 50.773268 47.164998 50.315697 47.25 49.863281 z M 76.796875 46.105469 C 76.96282 46.470432 77.118215 46.841539 77.259766 47.216797 C 77.118028 46.841038 76.963076 46.471096 76.796875 46.105469 z M 70.744141 47.25 C 70.570481 53.570298 69.672151 59.54993 68.169922 64.933594 C 69.172377 65.275419 70.140093 65.646767 71.091797 66.03125 C 72.119349 65.392274 73.079165 64.608159 73.935547 63.65625 C 78.722164 59.38192 79.36204 52.820222 77.273438 47.25 L 70.744141 47.25 z M 47.011719 51.787109 C 47.002633 51.967273 47.000143 52.147261 46.998047 52.328125 C 47.001397 52.147611 47.00125 51.966893 47.011719 51.787109 z M 49.632812 61.464844 C 49.836838 61.742703 50.049878 62.012678 50.273438 62.275391 C 50.049997 62.01256 49.836871 61.742754 49.632812 61.464844 z M 50.302734 62.308594 C 50.524173 62.567231 50.753143 62.819088 50.992188 63.0625 C 50.753718 62.819233 50.523749 62.566999 50.302734 62.308594 z M 51.039062 63.109375 C 51.279265 63.351855 51.526827 63.587683 51.783203 63.814453 C 51.527178 63.587502 51.278977 63.352006 51.039062 63.109375 z M 51.783203 63.814453 C 52.043245 64.044466 52.308708 64.267083 52.583984 64.480469 C 52.309355 64.267073 52.042646 64.044434 51.783203 63.814453 z M 52.716797 64.578125 C 52.967217 64.768252 53.220876 64.954689 53.482422 65.130859 C 53.220746 64.954244 52.967287 64.768755 52.716797 64.578125 z M 53.511719 65.148438 C 53.795147 65.338517 54.083761 65.522008 54.378906 65.695312 C 54.084231 65.521981 53.794626 65.338553 53.511719 65.148438 z M 54.578125 65.804688 C 54.831718 65.949172 55.086649 66.090718 55.347656 66.222656 C 55.086946 66.090715 54.831347 65.949198 54.578125 65.804688 z M 71.083984 66.035156 C 70.763449 66.234183 70.436921 66.418152 70.103516 66.587891 C 70.436951 66.418099 70.763504 66.23415 71.083984 66.035156 z M 55.458984 66.277344 C 55.750935 66.422373 56.045758 66.562359 56.345703 66.691406 C 56.04549 66.562243 55.751049 66.42258 55.458984 66.277344 z M 56.345703 66.691406 C 58.260536 67.515237 60.325458 68.002705 62.396484 68.119141 C 62.418595 68.059599 62.44289 68.003133 62.464844 67.943359 C 60.508909 67.44173 58.46171 67.024028 56.345703 66.691406 z M 62.396484 68.119141 C 62.777172 68.140543 63.15701 68.148969 63.537109 68.144531 C 63.157222 68.148881 62.777052 68.140537 62.396484 68.119141 z M 63.537109 68.144531 C 63.917215 68.140093 64.296132 68.122679 64.673828 68.091797 C 64.296414 68.122516 63.916997 68.140182 63.537109 68.144531 z M 64.673828 68.091797 C 65.051621 68.060907 65.427223 68.016934 65.800781 67.958984 C 65.427634 68.016698 65.051242 68.061077 64.673828 68.091797 z M 65.800781 67.958984 C 66.168851 67.901886 66.534282 67.831997 66.896484 67.748047 C 66.533796 67.831999 66.169372 67.901976 65.800781 67.958984 z M 70.076172 66.601562 C 69.744804 66.769312 69.406773 66.923021 69.064453 67.0625 C 69.406936 66.922878 69.744705 66.769403 70.076172 66.601562 z M 69.064453 67.0625 C 68.722507 67.201826 68.376586 67.327752 68.025391 67.439453 C 68.376483 67.32765 68.722634 67.201851 69.064453 67.0625 z M 67.945312 67.462891 C 67.606257 67.568554 67.262013 67.66356 66.916016 67.744141 C 67.262838 67.663265 67.605468 67.56893 67.945312 67.462891 z "
     id="path877-7-0" />
  <path
     d="m 66.128569,27.495129 c -6.421938,-0.869687 -13.174974,0.702324 -18.720069,4.924668 -11.09019,8.444688 -13.246305,24.36585 -4.801617,35.45604 7.904723,10.381067 22.339511,12.883637 33.249923,6.237136 l 2.083453,2.736146 a 2.6902856,4.0512343 52.712333 0 0 0.105901,2.493801 l 15.118981,19.855372 a 2.6902856,4.0512343 52.712333 0 0 4.852738,-0.31451 2.6902856,4.0512343 52.712333 0 0 1.59387,-4.594302 L 84.492765,74.434116 A 2.6902856,4.0512343 52.712333 0 0 82.115638,73.668572 L 80.032184,70.932427 C 89.341356,62.182857 90.769309,47.602542 82.86454,37.221414 78.642196,31.676319 72.550507,28.364817 66.128569,27.495129 Z M 65.37874,33.03201 c 4.984523,0.675026 9.711072,3.259989 13.013047,7.596387 6.603951,8.672799 4.938266,20.97253 -3.734531,27.576482 C 65.984458,74.80883 53.684726,73.143145 47.080774,64.470347 40.476823,55.79755 42.142508,43.497818 50.815306,36.893866 55.151705,33.59189 60.394217,32.356983 65.37874,33.03201 Z"
     style="color:#000000;font-style:normal;font-variant:normal;font-weight:normal;font-stretch:normal;font-size:medium;line-height:normal;font-family:sans-serif;font-variant-ligatures:normal;font-variant-position:normal;font-variant-caps:normal;font-variant-numeric:normal;font-variant-alternates:normal;font-variant-east-asian:normal;font-feature-settings:normal;font-variation-settings:normal;text-indent:0;text-align:start;text-decoration:none;text-decoration-line:none;text-decoration-style:solid;text-decoration-color:#000000;letter-spacing:normal;word-spacing:normal;text-transform:none;writing-mode:lr-tb;direction:ltr;text-orientation:mixed;dominant-baseline:auto;baseline-shift:baseline;text-anchor:start;white-space:normal;shape-padding:0;shape-margin:0;inline-size:0;clip-rule:nonzero;display:inline;overflow:visible;visibility:visible;isolation:auto;mix-blend-mode:normal;color-interpolation:sRGB;color-interpolation-filters:linearRGB;solid-color:#000000;solid-opacity:1;vector-effect:none;fill:#000080;fill-opacity:1;fill-rule:nonzero;stroke:none;stroke-width:5.62215;stroke-linecap:round;stroke-linejoin:round;stroke-miterlimit:4;stroke-dasharray:none;stroke-dashoffset:20;stroke-opacity:1;color-rendering:auto;image-rendering:auto;shape-rendering:auto;text-rendering:auto;enable-background:accumulate;stop-color:#000000"
     id="path877-7" />
  <path
     style="color:#000000;font-style:normal;font-variant:normal;font-weight:normal;font-stretch:normal;font-size:medium;line-height:normal;font-family:sans-serif;font-variant-ligatures:normal;font-variant-position:normal;font-variant-caps:normal;font-variant-numeric:normal;font-variant-alternates:normal;font-feature-settings:normal;text-indent:0;text-align:start;text-decoration:none;text-decoration-line:none;text-decoration-style:solid;text-decoration-color:#000000;letter-spacing:normal;word-spacing:normal;text-transform:none;writing-mode:lr-tb;direction:ltr;text-orientation:mixed;dominant-baseline:auto;baseline-shift:baseline;text-anchor:start;white-space:normal;shape-padding:0;clip-rule:nonzero;display:inline;overflow:visible;visibility:visible;opacity:1;isolation:auto;mix-blend-mode:normal;color-interpolation:sRGB;color-interpolation-filters:linearRGB;solid-color:#000000;solid-opacity:1;vector-effect:none;fill:#000080;fill-opacity:1;fill-rule:nonzero;stroke:none;stroke-width:4.5;stroke-linecap:round;stroke-linejoin:round;stroke-miterlimit:4;stroke-dasharray:none;stroke-dashoffset:188.97599792;stroke-opacity:1;color-rendering:auto;image-rendering:auto;shape-rendering:auto;text-rendering:auto;enable-background:accumulate"
     d="M 45 0 C 20.173836 0 0 20.173836 0 45 C 0 69.826163 20.173836 90 45 90 C 55.82153 90 65.757464 86.166356 73.523438 79.785156 C 69.811285 81.368746 65.832688 82.002224 61.875 81.818359 C 60.891651 82.269133 59.895129 82.695934 58.871094 83.068359 C 59.273402 82.624595 59.664343 82.158077 60.048828 81.679688 C 58.32832 81.491011 56.622754 81.148876 54.953125 80.667969 C 52.552267 83.129133 49.939356 84.695618 47.25 85.257812 L 47.25 77.283203 C 45.65047 76.305838 44.139692 75.188032 42.75 73.939453 L 42.75 85.257812 C 38.160775 84.298461 33.790175 80.433383 30.326172 74.142578 C 29.293594 72.267361 28.359116 70.186734 27.535156 67.943359 C 30.424544 67.202332 33.505786 66.635339 36.728516 66.273438 C 36.205843 65.284338 35.737992 64.261784 35.345703 63.201172 C 35.168795 62.791433 35.01465 62.37722 34.861328 61.962891 C 31.832272 62.355536 28.914136 62.916675 26.148438 63.638672 C 24.774667 58.692856 23.91902 53.139426 23.744141 47.25 L 33.898438 47.25 C 34.220004 45.721405 34.659125 44.215971 35.214844 42.75 L 23.744141 42.75 C 23.919101 36.857825 24.775495 31.303025 26.150391 26.355469 C 31.248845 27.683287 36.849783 28.4804 42.75 28.642578 L 42.75 31.257812 C 47.561655 26.570749 53.853579 23.480978 60.810547 23.28125 C 64.01552 23.159602 67.241251 23.437518 70.341797 24.277344 C 72.466042 23.456957 74.46481 22.532169 76.314453 21.513672 C 76.720487 21.290091 77.111995 21.054308 77.503906 20.820312 C 79.898815 24.037719 81.821232 27.627348 83.183594 31.482422 C 86.098745 34.454828 88.372024 38.08322 89.880859 42.009766 C 88.33624 18.576746 68.819355 4.5596696e-15 45 0 z M 42.75 4.7421875 L 42.75 24.152344 C 37.320363 23.991118 32.180767 23.248079 27.535156 22.056641 C 28.359116 19.813266 29.293594 17.732639 30.326172 15.857422 C 33.790175 9.5666169 38.160775 5.7015395 42.75 4.7421875 z M 47.25 4.7421875 C 51.839225 5.7015395 56.209825 9.5666169 59.673828 15.857422 C 60.706407 17.732639 61.640885 19.813266 62.464844 22.056641 C 57.819234 23.248079 52.679637 23.991119 47.25 24.152344 L 47.25 4.7421875 z M 31.128906 6.9316406 C 29.370264 8.8715016 27.778612 11.150705 26.382812 13.685547 C 25.188683 15.854147 24.128714 18.230147 23.207031 20.769531 C 20.519673 19.851807 18.049367 18.777296 15.857422 17.570312 C 15.707412 17.487713 15.566918 17.403966 15.419922 17.320312 C 19.723552 12.721435 25.08841 9.1284746 31.128906 6.9316406 z M 58.871094 6.9316406 C 64.911589 9.1284746 70.276448 12.721434 74.580078 17.320312 C 74.433082 17.403972 74.292589 17.48771 74.142578 17.570312 C 71.950051 18.777617 69.479205 19.853601 66.791016 20.771484 C 65.870984 18.231248 64.811358 15.854224 63.617188 13.685547 C 62.221387 11.150705 60.629735 8.8715016 58.871094 6.9316406 z M 12.496094 20.820312 C 12.888005 21.054309 13.279514 21.290091 13.685547 21.513672 C 16.152261 22.871956 18.882816 24.061039 21.824219 25.0625 C 20.317698 30.446522 19.414146 36.4273 19.240234 42.75 L 4.5644531 42.75 C 5.0121171 34.548931 7.8933908 27.003749 12.496094 20.820312 z M 4.5644531 47.25 L 19.240234 47.25 C 19.414128 53.572064 20.317971 59.551947 21.824219 64.935547 C 18.88378 65.938516 16.152127 67.128117 13.685547 68.486328 C 13.279514 68.709909 12.888005 68.943737 12.496094 69.177734 C 7.8933907 62.994298 5.0121171 55.451068 4.5644531 47.25 z M 23.207031 69.230469 C 24.128714 71.769853 25.188683 74.145852 26.382812 76.314453 C 27.778613 78.849294 29.370264 81.128497 31.128906 83.068359 C 25.08841 80.871524 19.723552 77.278565 15.419922 72.679688 C 15.566918 72.596028 15.707412 72.51229 15.857422 72.429688 C 18.049367 71.222703 20.519673 70.148194 23.207031 69.230469 z "
     id="path1052" />
</svg>
