<?xml version="1.0" encoding="UTF-8" standalone="no"?>
<svg
   xmlns:dc="http://purl.org/dc/elements/1.1/"
   xmlns:cc="http://creativecommons.org/ns#"
   xmlns:rdf="http://www.w3.org/1999/02/22-rdf-syntax-ns#"
   xmlns:svg="http://www.w3.org/2000/svg"
   xmlns="http://www.w3.org/2000/svg"
   xmlns:sodipodi="http://sodipodi.sourceforge.net/DTD/sodipodi-0.dtd"
   xmlns:inkscape="http://www.inkscape.org/namespaces/inkscape"
   inkscape:version="1.0 (4035a4fb49, 2020-05-01)"
   sodipodi:docname="uEB13-search-data.svg"
   id="svg4460"
   height="100"
   width="100"
   version="1.1">
  <sodipodi:namedview
     inkscape:document-rotation="0"
     inkscape:current-layer="svg4460"
     inkscape:window-maximized="1"
     inkscape:window-y="-8"
     inkscape:window-x="-8"
     inkscape:cy="58.978924"
     inkscape:cx="14.875033"
     inkscape:zoom="2.8284272"
     showgrid="false"
     id="namedview11"
     inkscape:window-height="1017"
     inkscape:window-width="1920"
     inkscape:pageshadow="2"
     inkscape:pageopacity="0"
     guidetolerance="10"
     gridtolerance="10"
     objecttolerance="10"
     borderopacity="1"
     bordercolor="#666666"
     pagecolor="#ffffff" />
  <defs
     id="defs4462" />
  <metadata
     id="metadata4465">
    <rdf:RDF>
      <cc:Work
         rdf:about="">
        <dc:format>image/svg+xml</dc:format>
        <dc:type
           rdf:resource="http://purl.org/dc/dcmitype/StillImage" />
        <dc:title />
      </cc:Work>
    </rdf:RDF>
  </metadata>
  <path
     d="M 59.626953 21.710938 C 53.949453 21.757537 48.241979 23.567162 43.392578 27.259766 C 31.455591 36.349252 29.135122 53.486841 38.224609 65.423828 C 46.732901 76.597547 62.27019 79.290717 74.013672 72.136719 L 76.255859 75.082031 A 2.8957037 4.3605683 52.712333 0 0 76.369141 77.765625 L 92.642578 99.136719 A 2.8957037 4.3605683 52.712333 0 0 97.867188 98.798828 A 2.8957037 4.3605683 52.712333 0 0 99.582031 93.853516 L 83.308594 72.482422 A 2.8957037 4.3605683 52.712333 0 0 80.75 71.658203 L 78.507812 68.712891 C 88.527791 59.295243 90.064983 43.601518 81.556641 32.427734 C 77.011898 26.45924 70.455257 22.895078 63.542969 21.958984 C 62.246915 21.783467 60.937145 21.700184 59.626953 21.710938 z M 60.535156 27.742188 C 60.528219 27.903867 60.507812 28.051573 60.507812 28.220703 C 60.507812 29.98326 60.886352 31.345022 61.646484 32.304688 C 62.406616 33.259605 63.489132 33.736328 64.890625 33.736328 C 66.287368 33.736328 67.364868 33.259605 68.125 32.304688 C 68.628848 31.668581 68.950974 30.838967 69.121094 29.849609 C 70.167831 30.357203 71.179605 30.949443 72.142578 31.634766 L 71.666016 31.634766 L 71.666016 33.529297 L 74.4375 33.529297 C 75.259655 34.309782 76.032412 35.163573 76.742188 36.095703 C 77.16963 36.657052 77.562416 37.232915 77.925781 37.820312 C 77.523753 38.049932 77.170406 38.352076 76.869141 38.732422 C 76.10901 39.687339 75.728516 41.047145 75.728516 42.814453 C 75.728516 44.57701 76.10901 45.938772 76.869141 46.898438 C 77.629274 47.853355 78.709835 48.330078 80.111328 48.330078 C 80.446701 48.330078 80.761852 48.299218 81.060547 48.244141 C 81.203675 52.668372 79.97003 57.087009 77.423828 60.824219 L 76.683594 60.824219 L 76.683594 52.080078 L 74.076172 52.080078 L 71.603516 52.59375 L 71.603516 54.458984 L 74.089844 53.947266 L 74.089844 60.824219 L 71.666016 60.824219 L 71.666016 62.71875 L 75.970703 62.71875 C 75.016036 63.826198 73.934514 64.854568 72.722656 65.777344 C 72.296343 66.101962 71.859608 66.401833 71.417969 66.689453 C 70.9798 66.551518 70.495142 66.482422 69.964844 66.482422 C 68.563351 66.482422 67.482789 66.960255 66.722656 67.919922 C 66.433244 68.283497 66.216479 68.725391 66.037109 69.207031 C 65.338462 69.419997 64.632262 69.594151 63.921875 69.732422 C 63.731846 69.021385 63.445626 68.413493 63.052734 67.919922 C 62.292601 66.960255 61.213149 66.482422 59.816406 66.482422 C 58.414912 66.482422 57.334351 66.960255 56.574219 67.919922 C 56.189076 68.403757 55.903098 68.994685 55.712891 69.6875 C 54.206866 69.384374 52.730218 68.932361 51.314453 68.304688 L 51.314453 66.675781 L 48.707031 66.675781 L 48.40625 66.738281 C 46.781421 65.686641 45.281791 64.391067 43.953125 62.867188 C 44.163037 62.892182 44.367063 62.925781 44.59375 62.925781 C 45.990492 62.925781 47.069946 62.447102 47.830078 61.492188 C 48.590211 60.532519 48.970703 59.172712 48.970703 57.410156 C 48.970703 55.642847 48.590211 54.283041 47.830078 53.328125 C 47.069946 52.368458 45.990492 51.888672 44.59375 51.888672 C 43.192256 51.888671 42.111694 52.368458 41.351562 53.328125 C 40.676349 54.176361 40.319311 55.362425 40.244141 56.851562 C 39.103367 54.041195 38.597919 51.06544 38.708984 48.125 L 43.589844 48.125 L 43.589844 46.228516 L 41.166016 46.228516 L 41.166016 39.005859 C 42.228291 37.005874 43.623824 35.150665 45.347656 33.529297 L 48.662109 33.529297 L 48.662109 31.634766 L 47.697266 31.634766 C 48.609976 30.990035 49.551794 30.417957 50.523438 29.935547 C 50.698126 30.885458 51.011082 31.68743 51.5 32.304688 C 52.260131 33.259605 53.340693 33.736328 54.742188 33.736328 C 56.13893 33.736328 57.218383 33.259605 57.978516 32.304688 C 58.738647 31.345022 59.117187 29.98326 59.117188 28.220703 C 59.117188 28.053622 59.096614 27.907856 59.089844 27.748047 C 59.571961 27.729703 60.053844 27.727569 60.535156 27.742188 z M 63.255859 28.013672 C 64.355837 28.190777 65.443736 28.445609 66.505859 28.794922 C 66.472198 29.8188 66.356157 30.581738 66.144531 31.044922 C 65.892737 31.596016 65.474977 31.871094 64.890625 31.871094 C 64.301523 31.871094 63.8807 31.596016 63.628906 31.044922 C 63.377112 30.493825 63.251954 29.543704 63.251953 28.199219 C 63.251953 28.132433 63.255227 28.078468 63.255859 28.013672 z M 56.371094 28.041016 C 56.371554 28.096518 56.375 28.14227 56.375 28.199219 C 56.375 29.543704 56.24984 30.493825 55.998047 31.044922 C 55.746252 31.596016 55.326538 31.871094 54.742188 31.871094 C 54.153084 31.871094 53.734216 31.596016 53.482422 31.044922 C 53.275139 30.591245 53.157632 29.850989 53.121094 28.859375 C 54.188917 28.496757 55.275039 28.226675 56.371094 28.041016 z M 59.816406 37.292969 C 58.414913 37.292969 57.334352 37.772756 56.574219 38.732422 C 55.814088 39.687339 55.433594 41.047145 55.433594 42.814453 C 55.433594 44.57701 55.814088 45.938772 56.574219 46.898438 C 57.334352 47.853355 58.414913 48.330078 59.816406 48.330078 C 61.213149 48.330078 62.292601 47.853355 63.052734 46.898438 C 63.812867 45.938772 64.193359 44.57701 64.193359 42.814453 C 64.193359 41.047145 63.812867 39.687339 63.052734 38.732422 C 62.292601 37.772756 61.213149 37.292969 59.816406 37.292969 z M 48.707031 37.484375 L 46.232422 37.998047 L 46.232422 39.865234 L 48.720703 39.353516 L 48.720703 46.228516 L 46.296875 46.228516 L 46.296875 48.125 L 53.738281 48.125 L 53.738281 46.228516 L 51.314453 46.228516 L 51.314453 37.484375 L 48.707031 37.484375 z M 69.001953 37.484375 L 66.527344 37.998047 L 66.527344 39.865234 L 69.015625 39.353516 L 69.015625 46.228516 L 66.59375 46.228516 L 66.59375 48.125 L 74.033203 48.125 L 74.033203 46.228516 L 71.611328 46.228516 L 71.611328 37.484375 L 69.001953 37.484375 z M 59.816406 39.167969 C 60.405509 39.16797 60.823269 39.439983 61.070312 39.986328 C 61.322105 40.527922 61.447266 41.46469 61.447266 42.794922 C 61.447266 44.139406 61.322104 45.085623 61.070312 45.636719 C 60.818517 46.187815 60.400758 46.464844 59.816406 46.464844 C 59.227304 46.464844 58.806482 46.187815 58.554688 45.636719 C 58.302894 45.085623 58.177735 44.139406 58.177734 42.794922 C 58.177735 41.46469 58.302893 40.527922 58.554688 39.986328 C 58.806481 39.439983 59.227304 39.16797 59.816406 39.167969 z M 78.992188 39.755859 C 79.994521 41.830091 80.61135 44.016643 80.896484 46.226562 C 80.680216 46.381676 80.420835 46.464844 80.111328 46.464844 C 79.522226 46.464844 79.101403 46.187815 78.849609 45.636719 C 78.597815 45.085623 78.472656 44.139406 78.472656 42.794922 C 78.472656 41.46469 78.597815 40.527922 78.849609 39.986328 C 78.89022 39.898211 78.942801 39.829756 78.992188 39.755859 z M 64.890625 51.888672 C 63.489132 51.888671 62.406616 52.368458 61.646484 53.328125 C 60.886352 54.283041 60.507812 55.642847 60.507812 57.410156 C 60.507812 59.172712 60.886352 60.532519 61.646484 61.492188 C 62.406616 62.447102 63.489132 62.925781 64.890625 62.925781 C 66.287368 62.925781 67.364868 62.447102 68.125 61.492188 C 68.885133 60.532519 69.265625 59.172712 69.265625 57.410156 C 69.265625 55.642847 68.885133 54.283041 68.125 53.328125 C 67.364868 52.368458 66.287368 51.888672 64.890625 51.888672 z M 53.78125 52.080078 L 51.308594 52.59375 L 51.308594 54.458984 L 53.794922 53.947266 L 53.794922 60.824219 L 51.371094 60.824219 L 51.371094 62.71875 L 58.8125 62.71875 L 58.8125 60.824219 L 56.388672 60.824219 L 56.388672 52.080078 L 53.78125 52.080078 z M 44.59375 53.759766 C 45.182853 53.759766 45.602566 54.035686 45.849609 54.582031 C 46.101402 55.123625 46.226563 56.058441 46.226562 57.388672 C 46.226562 58.733155 46.101402 59.679373 45.849609 60.230469 C 45.597815 60.781565 45.178101 61.058594 44.59375 61.058594 C 44.004647 61.058594 43.583824 60.781565 43.332031 60.230469 C 43.080236 59.679373 42.955078 58.733155 42.955078 57.388672 C 42.955078 56.058441 43.080236 55.123625 43.332031 54.582031 C 43.583824 54.035686 44.004647 53.759766 44.59375 53.759766 z M 64.890625 53.759766 C 65.479729 53.759766 65.897488 54.035686 66.144531 54.582031 C 66.396324 55.123625 66.521484 56.058441 66.521484 57.388672 C 66.521484 58.733155 66.396324 59.679373 66.144531 60.230469 C 65.892737 60.781565 65.474977 61.058594 64.890625 61.058594 C 64.301523 61.058594 63.8807 60.781565 63.628906 60.230469 C 63.377112 59.679373 63.251954 58.733155 63.251953 57.388672 C 63.251954 56.058441 63.377112 55.123625 63.628906 54.582031 C 63.8807 54.035686 64.301523 53.759766 64.890625 53.759766 z M 59.816406 68.355469 C 60.405508 68.355469 60.823269 68.627482 61.070312 69.173828 C 61.174687 69.398333 61.251479 69.707939 61.3125 70.068359 C 60.312398 70.1358 59.312139 70.119175 58.316406 70.044922 C 58.377011 69.695481 58.452637 69.393334 58.554688 69.173828 C 58.806481 68.627482 59.227303 68.355469 59.816406 68.355469 z "
     style="font-style:normal;font-weight:bold;font-size:12.3161px;line-height:100%;font-family:sans-serif;text-align:center;letter-spacing:0px;word-spacing:0px;text-anchor:middle;fill:#000080;fill-opacity:1;stroke:none;stroke-width:0.583783px;stroke-linecap:butt;stroke-linejoin:miter;stroke-opacity:1"
     id="path867" />
  <path
     d="M 1.9648438 12.5 C 0.87979741 12.50054 0.00035983633 13.442919 0 14.605469 L 0 85.394531 C 0.00035983633 86.557081 0.87979741 87.49946 1.9648438 87.5 L 78.748047 87.5 C 77.693471 86.112169 76.64125 84.722029 75.582031 83.337891 C 75.570078 83.320476 75.555023 83.30448 75.542969 83.287109 L 61.150391 83.287109 C 60.567472 82.202963 59.967941 81.13327 59.349609 80.082031 C 58.742423 80.072855 58.1349 80.051833 57.529297 80.007812 C 58.180303 81.075783 58.813379 82.169525 59.427734 83.287109 L 54.792969 83.287109 C 53.928913 81.819197 53.046183 80.428427 52.132812 79.138672 C 51.677508 79.023287 51.224997 78.898124 50.775391 78.761719 C 50.407456 78.653664 50.046476 78.526757 49.683594 78.404297 C 50.824787 79.85327 51.930295 81.499714 53.015625 83.287109 L 35.650391 83.287109 C 36.548594 81.30816 37.412045 79.294566 38.191406 77.191406 C 38.876827 77.315286 39.577863 77.390625 40.296875 77.390625 C 41.984113 77.390626 43.589927 77.026847 45.050781 76.384766 C 44.484221 76.078585 43.927076 75.755248 43.380859 75.414062 C 42.403934 75.718023 41.370505 75.890625 40.296875 75.890625 C 39.230424 75.890625 38.199729 75.727717 37.228516 75.427734 C 36.26426 78.158773 35.170959 80.759363 33.998047 83.287109 L 29.568359 83.287109 C 31.094735 80.145243 32.488675 76.919421 33.664062 73.505859 C 31.328488 71.582991 29.833984 68.671536 29.833984 65.427734 C 29.833985 63.732163 30.247017 62.131124 30.972656 60.712891 C 30.9066 60.549283 30.832653 60.389445 30.769531 60.224609 C 30.599074 59.79142 30.450115 59.350353 30.300781 58.910156 C 29.063486 60.790471 28.333985 63.027621 28.333984 65.427734 C 28.333984 68.745243 29.715632 71.760263 31.925781 73.935547 C 30.761883 77.180395 29.395507 80.266728 27.902344 83.287109 L 23.574219 83.287109 L 26.324219 78.525391 L 23.402344 76.837891 L 24.443359 75.033203 L 20.396484 72.697266 L 14.28125 83.287109 L 3.9316406 83.287109 L 3.9316406 48.320312 L 11.615234 52.902344 L 16.392578 44.890625 L 3.9316406 37.458984 L 3.9316406 32.833984 C 14.354031 39.046342 23.41795 44.93572 29.236328 54.912109 C 29.012421 53.741415 28.857433 52.557891 28.769531 51.369141 C 22.613424 42.474492 13.757583 36.915035 3.9316406 31.082031 L 3.9316406 26.408203 C 13.170339 31.857638 22.09517 37.131443 28.941406 45.070312 C 29.021779 44.426062 29.120934 43.784644 29.240234 43.146484 C 22.141671 35.304555 13.087969 30.057833 3.9316406 24.658203 L 3.9316406 23.199219 C 13.50065 29.556302 22.235517 33.929906 31.003906 37.085938 C 31.714506 35.332023 32.580805 33.642264 33.609375 32.048828 C 35.724852 28.703278 38.521004 25.825792 41.738281 23.537109 C 35.750964 22.062119 29.956721 19.70994 24.373047 16.712891 L 36.757812 16.712891 C 39.947221 17.83041 43.238896 18.883434 46.53125 19.847656 C 46.928085 19.963876 47.316833 20.065854 47.712891 20.179688 C 48.492662 19.847657 49.287984 19.556942 50.091797 19.289062 C 49.04625 18.997592 48.006585 18.716727 46.953125 18.408203 C 45.113657 17.869484 43.274662 17.300496 41.453125 16.712891 L 55.90625 16.712891 C 57.296131 17.073753 58.605616 17.389971 59.935547 17.716797 C 63.997238 17.734631 68.055496 18.527389 71.8125 20.074219 C 72.215227 20.235953 72.609447 20.416239 73.003906 20.595703 C 73.493723 20.687465 74.054217 20.799153 74.474609 20.873047 C 75.335951 21.024449 76.047154 21.137641 76.566406 21.208984 C 77.085659 21.280324 77.517079 21.293968 77.361328 21.298828 L 77.367188 21.457031 C 78.833652 19.850901 80.244864 18.273402 81.626953 16.712891 L 86.958984 16.712891 C 84.675483 19.349619 82.232143 22.061801 79.722656 24.802734 C 80.107291 25.120609 80.484443 25.449204 80.853516 25.785156 C 83.672031 22.710041 86.419934 19.662543 88.949219 16.712891 L 96.068359 16.712891 L 96.068359 21.097656 C 96.027069 21.094756 95.987351 21.085938 95.945312 21.085938 C 95.940714 21.085918 95.936211 21.085918 95.931641 21.085938 C 94.970486 21.093438 94.195284 21.874752 94.195312 22.835938 C 94.195312 23.802436 94.978814 24.585938 95.945312 24.585938 C 95.987342 24.585938 96.027072 24.577139 96.068359 24.574219 L 96.068359 28.097656 C 96.027069 28.094756 95.987351 28.085936 95.945312 28.085938 C 95.940714 28.085918 95.936211 28.085916 95.931641 28.085938 C 94.970486 28.093438 94.195284 28.874752 94.195312 29.835938 C 94.195312 30.802436 94.978814 31.585938 95.945312 31.585938 C 95.987342 31.585938 96.027072 31.577139 96.068359 31.574219 L 96.068359 35.097656 C 96.027069 35.094756 95.987351 35.085938 95.945312 35.085938 C 94.978814 35.085938 94.195312 35.869439 94.195312 36.835938 C 94.195312 37.802436 94.978814 38.585938 95.945312 38.585938 C 95.987342 38.585938 96.027072 38.577139 96.068359 38.574219 L 96.068359 39.869141 C 95.276561 39.617631 94.47044 39.366843 93.699219 39.115234 C 93.369792 38.776836 92.917582 38.585949 92.445312 38.585938 C 92.349074 38.586492 92.253045 38.594938 92.158203 38.611328 C 91.517603 38.398397 90.901908 38.185751 90.275391 37.972656 C 90.546273 37.655851 90.69518 37.252761 90.695312 36.835938 C 90.695312 35.869439 89.911811 35.085938 88.945312 35.085938 C 88.599411 35.085938 88.279308 35.190097 88.007812 35.363281 C 88.92895 37.264752 89.667034 39.253718 90.169922 41.310547 C 91.335681 45.907014 91.368748 50.751506 90.378906 55.376953 C 91.918104 56.277406 93.271313 57.062668 94.222656 57.53125 C 94.204666 57.63182 94.195512 57.733771 94.195312 57.835938 C 94.195312 58.802436 94.978814 59.585938 95.945312 59.585938 C 95.987583 59.585907 96.026612 59.571399 96.068359 59.568359 L 96.068359 63.097656 C 96.027069 63.094756 95.987351 63.085938 95.945312 63.085938 C 95.940714 63.08592 95.936211 63.085918 95.931641 63.085938 C 94.970486 63.093438 94.195285 63.874752 94.195312 64.835938 C 94.195312 65.802436 94.978814 66.585938 95.945312 66.585938 C 95.987342 66.585938 96.027072 66.577139 96.068359 66.574219 L 96.068359 70.097656 C 96.027069 70.094756 95.987351 70.085938 95.945312 70.085938 C 94.978814 70.085938 94.195312 70.869439 94.195312 71.835938 C 94.195312 72.802436 94.978814 73.585938 95.945312 73.585938 C 95.987342 73.585938 96.027072 73.577139 96.068359 73.574219 L 96.068359 82.628906 C 97.161627 84.069254 98.254909 85.509583 99.351562 86.947266 C 99.746824 86.562149 99.999809 86.011999 100 85.394531 L 100 14.605469 C 99.99964 13.442919 99.120202 12.50054 98.035156 12.5 L 1.9648438 12.5 z M 62.103516 16.712891 L 79.599609 16.712891 C 78.704873 17.717111 77.829828 18.709509 76.898438 19.734375 C 76.848236 19.728775 76.821248 19.729776 76.769531 19.722656 C 76.278809 19.655236 75.583033 19.543703 74.734375 19.394531 C 73.037059 19.096185 70.721339 18.644789 68.007812 18.060547 C 66.214168 17.674362 64.190622 17.20911 62.103516 16.712891 z M 94.009766 18.552734 C 92.853205 18.838558 91.871799 19.340734 90.871094 20.097656 C 91.163062 20.701559 91.774537 21.085434 92.445312 21.085938 C 93.411811 21.085938 94.195312 20.302436 94.195312 19.335938 C 94.195156 19.064 94.131632 18.795839 94.009766 18.552734 z M 89.587891 21.208984 C 88.895431 21.852765 88.163271 22.585743 87.320312 23.486328 C 87.586241 24.150607 88.229782 24.586079 88.945312 24.585938 C 89.911811 24.585938 90.695312 23.802436 90.695312 22.835938 C 90.694982 22.11776 90.255901 21.47269 89.587891 21.208984 z M 92.431641 24.585938 C 91.470486 24.593438 90.695284 25.374751 90.695312 26.335938 C 90.695312 27.302436 91.478814 28.085938 92.445312 28.085938 C 93.411811 28.085938 94.195312 27.302436 94.195312 26.335938 C 94.195312 25.369439 93.411811 24.585938 92.445312 24.585938 C 92.440714 24.585918 92.436212 24.585916 92.431641 24.585938 z M 86.152344 24.734375 L 83.896484 27.150391 C 84.198971 27.725661 84.795363 28.085901 85.445312 28.085938 C 86.411811 28.085938 87.195312 27.302436 87.195312 26.335938 C 87.195611 25.642612 86.786563 25.01449 86.152344 24.734375 z M 88.931641 28.085938 C 87.970486 28.093438 87.195284 28.874751 87.195312 29.835938 C 87.195312 30.802436 87.978814 31.585938 88.945312 31.585938 C 89.911811 31.585938 90.695312 30.802436 90.695312 29.835938 C 90.695312 28.869439 89.911811 28.085938 88.945312 28.085938 C 88.940714 28.085918 88.936212 28.085916 88.931641 28.085938 z M 92.431641 31.585938 C 91.470486 31.593438 90.695284 32.374752 90.695312 33.335938 C 90.695312 34.302436 91.478814 35.085938 92.445312 35.085938 C 93.411811 35.085938 94.195312 34.302436 94.195312 33.335938 C 94.195312 32.369439 93.411811 31.585938 92.445312 31.585938 C 92.440714 31.585919 92.436212 31.585918 92.431641 31.585938 z M 85.890625 31.648438 C 86.33894 32.32104 86.755282 33.013773 87.150391 33.71875 C 87.177956 33.59539 87.195312 33.467609 87.195312 33.335938 C 87.195312 32.523938 86.640578 31.845996 85.890625 31.648438 z M 18.197266 52.392578 L 14.574219 58.667969 L 12.142578 62.878906 L 18.417969 66.501953 L 20.849609 62.291016 L 23.341797 63.730469 L 26.964844 57.455078 L 24.472656 56.015625 L 18.197266 52.392578 z M 90.099609 56.529297 C 89.839835 57.555978 89.530216 58.568758 89.169922 59.564453 C 90.029456 59.453409 90.695312 58.725705 90.695312 57.835938 C 90.695312 57.313736 90.462343 56.849938 90.099609 56.529297 z M 92.431641 59.585938 C 91.470486 59.593438 90.695284 60.374753 90.695312 61.335938 C 90.695312 62.302436 91.478814 63.085938 92.445312 63.085938 C 93.411811 63.085938 94.195312 62.302436 94.195312 61.335938 C 94.195312 60.369439 93.411811 59.585938 92.445312 59.585938 C 92.440714 59.58592 92.436212 59.585918 92.431641 59.585938 z M 88.931641 63.085938 C 87.970486 63.093438 87.195284 63.874752 87.195312 64.835938 C 87.195312 65.802436 87.978814 66.585938 88.945312 66.585938 C 89.911811 66.585938 90.695312 65.802436 90.695312 64.835938 C 90.695312 63.869439 89.911811 63.085938 88.945312 63.085938 C 88.940714 63.08592 88.936212 63.085918 88.931641 63.085938 z M 33.886719 66.214844 C 34.197551 68.814748 36.021656 70.916544 38.46875 71.626953 C 36.744664 70.001537 35.203864 68.183761 33.886719 66.214844 z M 92.431641 66.585938 C 91.470486 66.593436 90.695284 67.374752 90.695312 68.335938 C 90.695312 69.302436 91.478814 70.085938 92.445312 70.085938 C 93.411811 70.085938 94.195312 69.302436 94.195312 68.335938 C 94.195312 67.369439 93.411811 66.585938 92.445312 66.585938 C 92.440714 66.58592 92.436212 66.585919 92.431641 66.585938 z M 85.568359 66.597656 C 85.180632 67.161231 84.779795 67.715736 84.353516 68.251953 C 84.798544 68.59328 85.548024 68.974192 85.992188 69.486328 C 86.09 69.611341 86.185501 69.738182 86.283203 69.863281 C 86.824297 69.565636 87.195312 68.99712 87.195312 68.335938 C 87.195312 67.411472 86.476514 66.661755 85.568359 66.597656 z M 88.945312 70.085938 C 88.201095 70.085938 87.569453 70.552086 87.316406 71.207031 C 87.77075 71.792301 88.219452 72.381956 88.671875 72.96875 L 90.289062 72.955078 C 90.551119 72.640977 90.694857 72.244997 90.695312 71.835938 C 90.695312 70.869439 89.911811 70.085938 88.945312 70.085938 z M 69.894531 78.443359 C 67.977075 79.091872 65.997157 79.551366 63.990234 79.816406 C 64.564759 80.005687 65.175506 80.111328 65.810547 80.111328 C 67.393039 80.111328 68.834575 79.472774 69.894531 78.443359 z "
     style="color:#000000;font-style:normal;font-variant:normal;font-weight:normal;font-stretch:normal;font-size:medium;line-height:normal;font-family:sans-serif;font-variant-ligatures:normal;font-variant-position:normal;font-variant-caps:normal;font-variant-numeric:normal;font-variant-alternates:normal;font-variant-east-asian:normal;font-feature-settings:normal;font-variation-settings:normal;text-indent:0;text-align:start;text-decoration:none;text-decoration-line:none;text-decoration-style:solid;text-decoration-color:#000000;letter-spacing:normal;word-spacing:normal;text-transform:none;writing-mode:lr-tb;direction:ltr;text-orientation:mixed;dominant-baseline:auto;baseline-shift:baseline;text-anchor:start;white-space:normal;shape-padding:0;shape-margin:0;inline-size:0;clip-rule:nonzero;display:inline;overflow:visible;visibility:visible;isolation:auto;mix-blend-mode:normal;color-interpolation:sRGB;color-interpolation-filters:linearRGB;solid-color:#000000;solid-opacity:1;vector-effect:none;fill:#000080;fill-opacity:1;fill-rule:nonzero;stroke:none;stroke-width:4.0691;stroke-linecap:round;stroke-linejoin:round;stroke-miterlimit:4;stroke-dasharray:none;stroke-dashoffset:188.976;stroke-opacity:1;color-rendering:auto;image-rendering:auto;shape-rendering:auto;text-rendering:auto;enable-background:accumulate;stop-color:#000000"
     id="path4492" />
</svg>
