<?xml version="1.0" encoding="UTF-8" standalone="no"?>
<svg
   xmlns:dc="http://purl.org/dc/elements/1.1/"
   xmlns:cc="http://creativecommons.org/ns#"
   xmlns:rdf="http://www.w3.org/1999/02/22-rdf-syntax-ns#"
   xmlns:svg="http://www.w3.org/2000/svg"
   xmlns="http://www.w3.org/2000/svg"
   xmlns:sodipodi="http://sodipodi.sourceforge.net/DTD/sodipodi-0.dtd"
   xmlns:inkscape="http://www.inkscape.org/namespaces/inkscape"
   inkscape:version="1.0 (4035a4fb49, 2020-05-01)"
   sodipodi:docname="uEA5D-hydro-map.svg"
   id="svg4460"
   height="100"
   width="100"
   version="1.1">
  <sodipodi:namedview
     inkscape:document-rotation="0"
     inkscape:current-layer="svg4460"
     inkscape:window-maximized="1"
     inkscape:window-y="-8"
     inkscape:window-x="-8"
     inkscape:cy="35.402015"
     inkscape:cx="-4.849951"
     inkscape:zoom="5.713423"
     showgrid="false"
     id="namedview11"
     inkscape:window-height="1017"
     inkscape:window-width="1920"
     inkscape:pageshadow="2"
     inkscape:pageopacity="0"
     guidetolerance="10"
     gridtolerance="10"
     objecttolerance="10"
     borderopacity="1"
     bordercolor="#666666"
     pagecolor="#ffffff" />
  <defs
     id="defs4462" />
  <metadata
     id="metadata4465">
    <rdf:RDF>
      <cc:Work
         rdf:about="">
        <dc:format>image/svg+xml</dc:format>
        <dc:type
           rdf:resource="http://purl.org/dc/dcmitype/StillImage" />
        <dc:title />
      </cc:Work>
    </rdf:RDF>
  </metadata>
  <path
     id="path1013"
     style="color:#000000;font-style:normal;font-variant:normal;font-weight:normal;font-stretch:normal;font-size:medium;line-height:normal;font-family:sans-serif;font-variant-ligatures:normal;font-variant-position:normal;font-variant-caps:normal;font-variant-numeric:normal;font-variant-alternates:normal;font-variant-east-asian:normal;font-feature-settings:normal;font-variation-settings:normal;text-indent:0;text-align:start;text-decoration:none;text-decoration-line:none;text-decoration-style:solid;text-decoration-color:#000000;letter-spacing:normal;word-spacing:normal;text-transform:none;writing-mode:lr-tb;direction:ltr;text-orientation:mixed;dominant-baseline:auto;baseline-shift:baseline;text-anchor:start;white-space:normal;shape-padding:0;shape-margin:0;inline-size:0;clip-rule:nonzero;display:inline;overflow:visible;visibility:visible;isolation:auto;mix-blend-mode:normal;color-interpolation:sRGB;color-interpolation-filters:linearRGB;solid-color:#000000;solid-opacity:1;vector-effect:none;fill:#000080;fill-opacity:1;fill-rule:nonzero;stroke:none;stroke-width:4.94234;stroke-linecap:round;stroke-linejoin:round;stroke-miterlimit:4;stroke-dasharray:none;stroke-dashoffset:20;stroke-opacity:1;color-rendering:auto;image-rendering:auto;shape-rendering:auto;text-rendering:auto;enable-background:accumulate;stop-color:#000000"
     d="M 2.4752476,12.5 A 2.4754951,2.4673519 0 0 0 1.25e-7,14.967104 V 85.032896 A 2.4754951,2.4673519 0 0 0 2.4752476,87.5 H 97.524753 A 2.4754951,2.4673519 0 0 0 100,85.032896 V 14.967104 A 2.4754951,2.4673519 0 0 0 97.524753,12.5 Z m 2.4752476,4.934207 H 95.049505 V 82.565793 H 17.750233 c 0.07375,-0.03964 0.133171,-0.06964 0.206915,-0.109822 1.923928,-1.040035 3.801825,-2.079696 3.801825,-2.079696 3.098003,-2.340236 6.107878,-5.137104 9.452352,-7.048596 0.0048,-0.0027 0.0087,-0.005 0.01353,-0.0077 0.601357,-0.333322 1.275477,-0.626357 1.974397,-0.905893 0.617338,0.354321 1.798285,1.024928 3.525294,1.906221 2.295925,1.171575 5.012688,2.454161 7.147277,2.918122 4.131526,0.897964 7.931141,-0.31275 10.970375,-0.01179 1.347116,0.1335 2.36945,0.819536 3.449875,1.622893 1.080431,0.803357 2.229258,1.855018 3.927522,1.802143 1.530446,-0.04714 3.810168,-0.724715 6.497525,-1.353054 2.687359,-0.628286 5.633983,-1.209932 7.508896,-1.166089 0.682574,0.015 1.249955,-0.522429 1.266631,-1.202722 0.01382,-0.578464 -0.378079,-1.089375 -0.941755,-1.227771 -0.08685,-0.02143 -0.175454,-0.03214 -0.264928,-0.03429 -2.402565,-0.05571 -5.399857,0.588643 -8.133509,1.227772 -2.733655,0.639107 -5.352806,1.270971 -6.008277,1.291371 -0.487652,0.015 -1.241783,-0.474964 -2.370823,-1.314503 -1.129039,-0.839572 -2.623084,-1.896483 -4.685567,-2.10089 -3.779966,-0.374678 -7.381015,0.776572 -10.688041,0.05786 -1.584686,-0.344464 -4.322216,-1.570414 -6.547803,-2.706107 -0.597528,-0.304928 -1.013842,-0.540964 -1.519957,-0.813428 2.10832,-0.687215 4.248747,-1.379015 6.027615,-2.324475 0.524232,0.180643 1.085639,0.517285 1.817759,0.946393 0.904285,0.529928 2.07044,1.143396 3.625851,1.322207 1.650798,0.18975 3.33853,-0.23325 5.022046,-0.651429 1.683513,-0.418286 3.35907,-0.857036 4.730043,-0.911678 1.34365,-0.05357 2.899472,0.294214 4.395498,0.603321 1.496027,0.309 2.951672,0.696964 4.405167,0.06214 1.66806,-0.729107 4.511804,-1.6755 5.706606,-2.2281 -0.187119,0.08679 -0.07772,0.01286 0.21465,0.0675 0.292408,0.05464 0.727302,0.181821 1.22022,0.323786 0.985839,0.283928 2.219487,0.674035 3.575572,0.4125 1.305871,-0.251786 2.931639,-1.037465 4.434174,-1.773225 1.502534,-0.73575 2.761449,-1.426297 2.761449,-1.426297 0.599223,-0.327536 0.819648,-1.077621 0.491181,-1.674932 -0.166793,-0.302464 -0.452681,-0.520929 -0.788985,-0.603321 -0.300889,-0.07393 -0.619545,-0.03214 -0.891475,0.115607 0,0 -1.217051,0.666321 -2.662825,1.374257 -1.445774,0.707893 -3.237217,1.453575 -3.815363,1.565068 -0.527929,0.101785 -1.464668,-0.08464 -2.4153,-0.3585 -0.475317,-0.136929 -0.950536,-0.28425 -1.446473,-0.377786 -0.495936,-0.09321 -1.052243,-0.192857 -1.719136,0.115607 -0.724296,0.335036 -3.779879,1.388625 -5.656327,2.208836 -0.318763,0.139286 -1.462149,0.07929 -2.91035,-0.21975 -1.448201,-0.299143 -3.181843,-0.723857 -4.996907,-0.651429 -1.787738,0.07179 -3.579093,0.573107 -5.22896,0.983036 -1.649868,0.409929 -3.161767,0.706179 -4.140238,0.593679 -1.073851,-0.123429 -1.826883,-0.513108 -2.65509,-0.998358 -0.112755,-0.06643 -0.247485,-0.138214 -0.363551,-0.208178 0.33755,-0.167357 0.670614,-0.342964 1.024907,-0.574393 1.014683,-0.662571 1.978501,-1.672232 3.46728,-3.770046 0,0 0.0057,-0.0038 0.0058,-0.0038 0.0089,-0.01071 1.327036,-1.642307 4.008742,-3.147482 2.194858,0.269143 4.056803,-0.601821 5.493889,-1.90815 2.585433,-0.281464 6.402973,-0.102857 10.254873,0.103929 4.862039,0.261 9.769376,0.560142 13.172958,-0.674572 6.358263,-2.306689 10.365099,-8.064343 10.365099,-8.064343 0.394902,-0.556285 0.262351,-1.325839 -0.295869,-1.719268 -0.127214,-0.09 -0.270189,-0.154071 -0.421566,-0.190821 -0.493478,-0.12 -1.010047,0.07286 -1.303373,0.485679 0,0 -3.78166,5.2101 -9.189356,7.17195 -2.479399,0.899464 -7.354031,0.786214 -12.196396,0.526178 -3.469596,-0.186321 -6.899851,-0.439071 -9.767558,-0.210107 0.369519,-0.393643 0.805573,-0.812679 1.330446,-1.247046 0.968135,-0.801215 3.042597,-1.827193 5.277305,-2.912336 2.234705,-1.085143 4.651718,-2.26515 6.538133,-3.727639 3.73868,-2.898504 8.978574,-9.353797 8.978574,-9.353797 0.43358,-0.527357 0.355621,-1.305096 -0.17404,-1.736614 -0.144863,-0.118072 -0.314969,-0.203572 -0.496983,-0.24675 -0.460967,-0.109179 -0.943381,0.05464 -1.243426,0.420214 0,0 -5.399233,6.501118 -8.584081,8.970247 -1.575352,1.221321 -3.878663,2.378614 -6.101098,3.4578 -1.261082,0.612321 -2.472207,1.192446 -3.560102,1.7925 0.03048,-0.239786 0.0567,-0.473036 0.09862,-0.726643 0.27427,-1.658893 0.956725,-3.421168 1.547029,-3.885697 0.959846,-0.755357 3.908174,-2.585346 6.797263,-4.753028 2.889084,-2.167682 5.829382,-4.654972 7.069924,-7.482268 0.273161,-0.623786 -0.01273,-1.349743 -0.638149,-1.622893 -0.05675,-0.02464 -0.114163,-0.045 -0.174041,-0.06214 -0.59138,-0.158464 -1.210906,0.1365 -1.456141,0.695786 -0.840828,1.916314 -3.517034,4.420189 -6.29061,6.501203 -2.773575,2.081015 -5.534515,3.759043 -6.841739,4.787733 -1.676761,1.319485 -2.145349,3.539603 -2.45591,5.417989 -0.227458,1.375757 -0.277543,2.380907 -0.295869,2.947039 -0.703424,0.625714 -1.285623,1.240125 -1.742343,1.796357 -1.334566,-0.162 -2.493263,0.387536 -3.068919,1.063929 -0.61654,0.95175 -1.300969,1.740932 -2.05755,2.3823 0.730887,-1.84575 1.42484,-3.865597 2.07302,-5.8401 0.679556,-2.070086 1.287752,-4.058379 1.775217,-5.633872 0.48746,-1.575492 0.90205,-2.835096 1.003635,-3.062678 0.06089,-0.136393 0.439235,-0.650143 1.019106,-1.183436 0.579872,-0.53325 1.353141,-1.132821 2.210319,-1.70385 1.714352,-1.142036 3.795019,-2.174014 5.283106,-2.540346 1.495467,-0.368143 2.485131,-1.552211 3.534963,-2.962447 1.04983,-1.410246 2.055909,-3.13875 2.935489,-4.833985 0.87958,-1.695247 1.627849,-3.349972 2.134901,-4.606554 0.253521,-0.628286 0.444806,-1.150007 0.570467,-1.563139 0.06281,-0.206572 0.110249,-0.373072 0.141166,-0.593679 0.01547,-0.110357 0.04563,-0.219964 -0.0039,-0.495321 -0.02473,-0.137679 -0.06384,-0.3435 -0.278466,-0.599465 -0.160974,-0.192 -0.464855,-0.355821 -0.748375,-0.420214 v -0.002 c -0.0945,-0.02143 -0.186895,-0.03 -0.27073,-0.02679 -0.682533,0.02786 -1.214852,0.601393 -1.187346,1.281739 6.93e-4,0.015 0.0024,0.03107 0.0039,0.04607 -0.01,0.04071 -0.0064,0.03107 -0.02514,0.09214 -0.08775,0.288535 -0.26243,0.772821 -0.498917,1.358839 -0.472974,1.172121 -1.198075,2.775311 -2.038212,4.394528 -0.840137,1.619229 -1.802046,3.261793 -2.722772,4.498618 -0.920728,1.236815 -1.903622,1.978918 -2.140702,2.03729 -1.921109,0.472928 -4.042483,1.563107 -5.898052,2.781267 0.201314,-0.418071 0.399854,-0.805607 0.584004,-1.096703 0.996993,-1.576061 3.538934,-2.896007 4.878945,-5.550986 0.664785,-1.31715 1.023243,-2.969936 1.268564,-4.352132 0.245287,-1.382196 0.348082,-2.488296 0.348082,-2.488296 0.05454,-0.576858 -0.301193,-1.114608 -0.854733,-1.291383 -0.08525,-0.02679 -0.171948,-0.04607 -0.261062,-0.05357 -0.680752,-0.06429 -1.286061,0.435536 -1.349783,1.11405 0,0 -0.09421,1.01175 -0.321009,2.289782 -0.2268,1.278022 -0.614806,2.826654 -1.042311,3.673672 -0.844569,1.673357 -3.24431,2.942185 -4.762918,5.342828 -1.462321,2.311661 -2.81366,6.564814 -2.81366,6.564814 -0.005,0.01607 -0.0092,0.03214 -0.01354,0.04821 -0.281851,0.672535 -0.59087,1.690414 -1.050046,3.174471 -0.48902,1.580539 -1.093713,3.552707 -1.763614,5.593393 -1.339041,4.079025 -3.02838,8.511654 -4.279471,10.282821 -7.56e-4,0.0011 -0.0031,0.0029 -0.0039,0.0038 -0.0053,0.007 -0.01009,0.01393 -0.01548,0.02143 -1.430222,2.019397 -2.15624,2.723518 -2.829131,3.162911 -0.668272,0.436393 -1.546247,0.719036 -3.090192,1.617107 -0.01717,0.01004 -0.02907,0.015 -0.04641,0.02464 -1.972624,1.154014 -5.391525,1.952507 -8.615021,3.205307 -0.159684,0.03214 -0.309769,0.09643 -0.444772,0.186965 -7.99e-4,4.39e-4 -0.003,-5.15e-4 -0.0039,0 -0.0145,0.0059 -0.02808,0.01179 -0.04255,0.01714 0.294761,-1.117639 0.426372,-1.626921 0.872138,-3.311325 0.752122,-2.842028 1.496545,-5.631439 1.639851,-6.148489 0.06551,-0.124393 0.10957,-0.258 0.129565,-0.397071 0,0 0.0038,-0.03 0.0039,-0.03107 0.02868,-0.06536 0.262794,-0.697393 0.62848,-1.563139 0.39685,-0.939536 0.923927,-2.1555 1.498686,-3.444311 1.14952,-2.577632 2.501438,-5.469396 3.329982,-6.977282 0.769081,-1.399671 1.670618,-2.186057 2.755646,-3.147482 1.085029,-0.961393 2.341628,-2.092907 3.386062,-3.982071 1.092315,-1.975758 2.083053,-5.311083 2.889077,-8.270583 0.806029,-2.959489 1.372989,-5.485457 1.372989,-5.485457 0.1419,-0.633643 -0.233759,-1.267864 -0.858601,-1.451346 -0.02596,-0.0077 -0.05285,-0.015 -0.07929,-0.02143 -0.66734,-0.148714 -1.328654,0.269572 -1.477413,0.934822 0,0 -0.556333,2.476457 -1.345916,5.375582 -0.789586,2.899136 -1.866727,6.278164 -2.666692,7.725128 -0.847843,1.533568 -1.787903,2.377125 -2.86394,3.33059 -1.076037,0.953464 -2.303353,2.02275 -3.28357,3.806668 -0.727209,1.32346 -1.705933,3.413046 -2.660891,5.510507 0.01188,-1.135093 -0.02267,-2.256547 -0.145034,-3.238072 -0.292246,-2.344275 -1.646969,-4.334432 -2.479114,-6.192814 -0.832126,-1.858393 -1.21229,-3.297364 -0.232055,-4.939993 1.228588,-2.058814 2.761173,-4.51365 3.867574,-6.934886 0.484631,-2.700139 2.465697,-6.237085 1.732674,-8.816046 -0.180467,-0.601821 -0.424396,-1.345157 -1.127398,-1.991025 -0.475992,-0.295393 -0.930834,-0.436714 -1.34785,-0.454929 -1.807069,-0.07929 -2.899065,2.137736 -1.879642,3.989765 2.180071,1.922668 1.351967,4.067603 0.369354,6.25065 -1.008364,2.206693 -2.496461,4.605621 -3.743812,6.695871 -1.495703,2.506436 -0.84067,5.102679 0.100557,7.204725 0.941229,2.102047 2.096947,3.996182 2.283802,5.495089 0.407505,3.268886 -0.357288,9.31784 -0.448638,10.020686 -0.0018,0.0059 -0.0059,0.01286 -0.0077,0.01929 -0.156062,0.539786 -0.943979,3.519064 -1.732673,6.499275 -0.723927,2.735496 -1.31131,4.96095 -1.421334,5.377521 -3.839333,2.255947 -9.358073,6.970532 -9.361463,6.973425 h -0.002 c -0.314093,0.173679 -1.687703,0.934072 -3.411201,1.865754 -0.955095,0.516321 -1.920515,1.030928 -2.658958,1.412807 -0.369221,0.190929 -0.684149,0.350571 -0.899211,0.452893 -0.07379,0.03536 -0.112348,0.05143 -0.156636,0.07179 -0.07107,0.0052 -0.139408,0.0069 -0.257194,0.015 -0.23469,0.01714 -0.545956,0.03857 -0.90888,0.0675 -0.725849,0.05679 -1.65826,0.132535 -2.5796724,0.208178 -0.3024267,0.02464 -0.4295115,0.03536 -0.5975404,0.05036 H 8.4622526 l 3.3705914,-4.421507 c 0.02121,-0.02786 0.04122,-0.05679 0.05995,-0.08679 0.08762,-0.09214 0.166559,-0.193607 0.22432,-0.314142 0.796935,-1.662547 1.062754,-3.114858 1.117729,-4.165168 0.04065,-0.776679 -0.04329,-1.064036 -0.09089,-1.329922 0.509251,-2.854296 1.526942,-4.852596 2.599009,-6.759482 1.078436,-1.918221 2.247749,-3.761636 2.765316,-6.161989 0.542087,-2.514075 -0.250539,-4.410847 -0.626547,-6.073318 -0.376009,-1.662471 -0.529995,-3.177118 0.90888,-5.897925 1.521887,-2.877771 2.238549,-3.621761 2.916151,-4.278879 0.677602,-0.657107 1.488324,-1.3935 2.490718,-3.473228 0.295198,-0.61425 0.03401,-1.351489 -0.58207,-1.646014 -0.05606,-0.02679 -0.114554,-0.04929 -0.174041,-0.0675 -0.584454,-0.17775 -1.21057,0.09536 -1.47548,0.643714 -0.900343,1.867993 -1.22661,2.037128 -1.985999,2.773564 -0.75939,0.736393 -1.780516,1.876243 -3.378326,4.897586 -1.68082,3.178307 -1.572298,5.657314 -1.135133,7.590203 0.437171,1.93289 1.007163,3.230111 0.622679,5.013236 -0.409,1.896857 -1.393104,3.492118 -2.506188,5.471968 -0.42374,0.75375 -0.85276,1.5897 -1.262763,2.480593 -0.402832,-2.393186 -0.854579,-4.937325 -1.32271,-7.304947 -0.339048,-1.714767 0.226457,-3.787617 0.903079,-6.298821 0.676621,-2.511204 1.411594,-5.447046 0.966893,-8.817975 -0.06228,-0.472929 -0.393405,-0.865821 -0.848933,-1.011857 -0.174522,-0.05571 -0.357692,-0.07393 -0.539527,-0.05036 -0.677817,0.08893 -1.155461,0.71025 -1.065517,1.385818 0.374424,2.838182 -0.236641,5.380853 -0.9030778,7.854257 -0.6664353,2.473403 -1.4414739,4.889357 -0.9417542,7.416739 0.8331772,4.213886 1.687598,9.320368 2.119431,12.323957 0.0011,0.0056 0.0028,0.01179 0.0039,0.01714 0.0038,0.02464 0.0083,0.04714 0.01353,0.07179 v 0.002 l -0.002,0.002 c 0.0028,0.01071 0.0066,0.02143 0.0097,0.03321 0,0 0.09005,0.307928 0.05028,1.067786 -0.03873,0.740142 -0.22814,1.81965 -0.8373304,3.126278 -0.022267,0.02464 -0.043555,0.04929 -0.063815,0.075 l -4.507651,5.913289 H 4.9504952 Z" />
</svg>
