<?xml version="1.0" encoding="UTF-8" standalone="no"?>
<svg
   xmlns:dc="http://purl.org/dc/elements/1.1/"
   xmlns:cc="http://creativecommons.org/ns#"
   xmlns:rdf="http://www.w3.org/1999/02/22-rdf-syntax-ns#"
   xmlns:svg="http://www.w3.org/2000/svg"
   xmlns="http://www.w3.org/2000/svg"
   xmlns:sodipodi="http://sodipodi.sourceforge.net/DTD/sodipodi-0.dtd"
   xmlns:inkscape="http://www.inkscape.org/namespaces/inkscape"
   version="1.1"
   width="100"
   height="100"
   id="svg4460"
   sodipodi:docname="map-route.svg"
   inkscape:version="1.0 (4035a4fb49, 2020-05-01)">
  <sodipodi:namedview
     pagecolor="#ffffff"
     bordercolor="#666666"
     borderopacity="1"
     objecttolerance="10"
     gridtolerance="10"
     guidetolerance="10"
     inkscape:pageopacity="0"
     inkscape:pageshadow="2"
     inkscape:window-width="1920"
     inkscape:window-height="1017"
     id="namedview11"
     showgrid="false"
     inkscape:zoom="5.6568543"
     inkscape:cx="-22.473733"
     inkscape:cy="66.843634"
     inkscape:window-x="-8"
     inkscape:window-y="-8"
     inkscape:window-maximized="1"
     inkscape:current-layer="svg4460"
     inkscape:document-rotation="0" />
  <defs
     id="defs4462" />
  <metadata
     id="metadata4465">
    <rdf:RDF>
      <cc:Work
         rdf:about="">
        <dc:format>image/svg+xml</dc:format>
        <dc:type
           rdf:resource="http://purl.org/dc/dcmitype/StillImage" />
        <dc:title></dc:title>
      </cc:Work>
    </rdf:RDF>
  </metadata>
  <path
     d="M 83.117188 0 C 76.236282 0 70.4188 4.7349837 68.738281 11.091797 L 66.886719 10.232422 C 66.549125 10.075668 66.180789 9.9962576 65.808594 10 C 65.452867 10.0034 65.101954 10.082608 64.779297 10.232422 L 34.166016 24.453125 L 3.5527344 10.232422 C 3.2300773 10.08261 2.8791643 10.003366 2.5234375 10 C 1.1336389 9.9871108 7.9200869e-05 11.110188 0 12.5 L 0 82.787109 C 4.8005406e-05 83.76017 0.56467936 84.644881 1.4472656 85.054688 L 33.113281 99.763672 C 33.450279 99.920142 33.817915 99.999548 34.189453 99.996094 C 34.545839 99.992994 34.897447 99.913757 35.220703 99.763672 L 65.833984 85.544922 L 96.447266 99.763672 C 98.104294 100.53263 99.999739 99.324751 100 97.498047 L 100 27.210938 C 99.999952 26.237876 99.43532 25.353166 98.552734 24.943359 L 95.322266 23.441406 L 96.333984 21.71875 C 96.564587 21.301611 96.746539 20.857864 96.904297 20.404297 C 97.608858 18.683463 98 16.806503 98 14.841797 C 98 6.6845732 91.297786 2.3684758e-15 83.117188 0 z M 83.117188 6.953125 C 87.522203 6.953125 91.025391 10.449367 91.025391 14.841797 C 91.025391 19.234227 87.522202 22.726563 83.117188 22.726562 C 78.712177 22.726562 75.208984 19.234227 75.208984 14.841797 C 75.208984 10.449367 78.712178 6.953125 83.117188 6.953125 z M 66.951172 15.775391 L 68.328125 16.416016 C 68.603714 18.974121 69.532542 21.345719 70.953125 23.353516 L 81.300781 41.244141 C 82.75015 43.137581 83.714797 42.778127 84.919922 41.144531 L 92.777344 27.771484 L 95 28.804688 L 95 93.580078 L 67.322266 80.722656 L 67.095703 41.046875 C 67.503969 41.134865 67.911471 41.219756 68.320312 41.316406 L 69.240234 37.425781 C 68.525384 37.25679 67.801986 37.099054 67.072266 36.953125 L 66.951172 15.775391 z M 63.953125 16.128906 L 64.068359 36.464844 C 63.041589 36.331009 62.006606 36.222657 60.955078 36.183594 L 60.806641 40.179688 C 61.89522 40.220126 62.991768 40.337746 64.091797 40.498047 L 64.322266 80.732422 L 35.646484 94.054688 L 35.277344 29.451172 L 63.953125 16.128906 z M 5 16.417969 L 32.275391 29.087891 L 32.646484 94.035156 L 5 81.191406 L 5 16.417969 z M 56.542969 36.457031 C 55.166173 36.703915 53.757382 37.144902 52.445312 37.908203 C 50.861474 38.819609 49.580272 40.154845 48.712891 41.728516 L 52.214844 43.660156 C 52.738071 42.710877 53.524743 41.897874 54.441406 41.371094 L 54.447266 41.367188 L 54.453125 41.363281 C 55.26002 40.892943 56.220861 40.577121 57.25 40.392578 L 56.542969 36.457031 z M 73.208984 38.488281 L 72.076172 42.322266 C 74.578647 43.061679 77.05835 43.91289 79.523438 44.832031 L 80.921875 41.083984 C 78.390196 40.140014 75.82138 39.260173 73.208984 38.488281 z M 47.207031 46.083984 L 47.177734 46.242188 L 47.173828 46.255859 C 46.675283 49.087032 46.72752 51.872573 46.839844 54.521484 L 50.835938 54.351562 C 50.726984 51.782148 50.703981 49.295556 51.113281 46.962891 L 51.136719 46.837891 L 47.207031 46.083984 z M 51.074219 58.294922 L 47.083984 58.564453 C 47.264467 61.232578 47.456133 63.848878 47.449219 66.414062 L 51.449219 66.423828 C 51.456719 63.654318 51.253549 60.946001 51.074219 58.294922 z M 47.25 70.183594 C 47.140444 71.136713 46.975647 72.064828 46.736328 72.953125 L 46.734375 72.958984 L 46.732422 72.966797 C 46.382578 74.301921 45.793318 75.53823 44.970703 76.505859 L 48.017578 79.095703 C 49.305659 77.580553 50.123298 75.7978 50.597656 73.994141 L 50.599609 73.988281 C 50.900077 72.871593 51.095205 71.747482 51.222656 70.638672 L 47.25 70.183594 z M 13.482422 74.082031 L 11.685547 77.65625 C 14.16688 78.903252 16.730504 79.934433 19.314453 80.826172 L 20.619141 77.044922 C 18.163613 76.197501 15.766729 75.230018 13.482422 74.082031 z M 24.318359 78.195312 L 23.253906 82.050781 C 25.900479 82.782316 28.619628 83.363473 31.400391 83.675781 L 31.845703 79.701172 C 29.324885 79.418058 26.810555 78.884176 24.318359 78.195312 z M 42.458984 78.476562 C 40.467112 79.496522 38.061622 79.874236 35.589844 79.904297 L 35.638672 83.904297 C 38.472791 83.869827 41.502561 83.459968 44.28125 82.037109 L 42.458984 78.476562 z "
     style="color:#000000;font-style:normal;font-variant:normal;font-weight:normal;font-stretch:normal;font-size:medium;line-height:normal;font-family:sans-serif;font-variant-ligatures:normal;font-variant-position:normal;font-variant-caps:normal;font-variant-numeric:normal;font-variant-alternates:normal;font-variant-east-asian:normal;font-feature-settings:normal;font-variation-settings:normal;text-indent:0;text-align:start;text-decoration:none;text-decoration-line:none;text-decoration-style:solid;text-decoration-color:#000000;letter-spacing:normal;word-spacing:normal;text-transform:none;writing-mode:lr-tb;direction:ltr;text-orientation:mixed;dominant-baseline:auto;baseline-shift:baseline;text-anchor:start;white-space:normal;shape-padding:0;shape-margin:0;inline-size:0;clip-rule:nonzero;display:inline;overflow:visible;visibility:visible;opacity:1;isolation:auto;mix-blend-mode:normal;color-interpolation:sRGB;color-interpolation-filters:linearRGB;solid-color:#000000;solid-opacity:1;vector-effect:none;fill:#000080;fill-opacity:1;fill-rule:evenodd;stroke:none;stroke-width:2.99995;stroke-linecap:butt;stroke-linejoin:miter;stroke-miterlimit:4;stroke-dasharray:none;stroke-dashoffset:0;stroke-opacity:1;color-rendering:auto;image-rendering:auto;shape-rendering:auto;text-rendering:auto;enable-background:accumulate;stop-color:#000000;stop-opacity:1"
     id="path967" />
</svg>
