<?xml version="1.0" encoding="UTF-8" standalone="no"?>
<svg
   xmlns:dc="http://purl.org/dc/elements/1.1/"
   xmlns:cc="http://creativecommons.org/ns#"
   xmlns:rdf="http://www.w3.org/1999/02/22-rdf-syntax-ns#"
   xmlns:svg="http://www.w3.org/2000/svg"
   xmlns="http://www.w3.org/2000/svg"
   xmlns:sodipodi="http://sodipodi.sourceforge.net/DTD/sodipodi-0.dtd"
   xmlns:inkscape="http://www.inkscape.org/namespaces/inkscape"
   inkscape:version="1.0 (4035a4fb49, 2020-05-01)"
   sodipodi:docname="uEA5C-contour-map.svg"
   id="svg4460"
   height="100"
   width="100"
   version="1.1">
  <sodipodi:namedview
     inkscape:document-rotation="0"
     inkscape:current-layer="svg4460"
     inkscape:window-maximized="1"
     inkscape:window-y="-8"
     inkscape:window-x="-8"
     inkscape:cy="42.262196"
     inkscape:cx="43.271678"
     inkscape:zoom="4.0400001"
     showgrid="false"
     id="namedview11"
     inkscape:window-height="1017"
     inkscape:window-width="1920"
     inkscape:pageshadow="2"
     inkscape:pageopacity="0"
     guidetolerance="10"
     gridtolerance="10"
     objecttolerance="10"
     borderopacity="1"
     bordercolor="#666666"
     pagecolor="#ffffff" />
  <defs
     id="defs4462" />
  <metadata
     id="metadata4465">
    <rdf:RDF>
      <cc:Work
         rdf:about="">
        <dc:format>image/svg+xml</dc:format>
        <dc:type
           rdf:resource="http://purl.org/dc/dcmitype/StillImage" />
        <dc:title />
      </cc:Work>
    </rdf:RDF>
  </metadata>
  <g
     aria-label="284"
     id="text1135-7-0"
     style="font-style:normal;font-weight:normal;font-size:10.6667px;line-height:100%;font-family:sans-serif;text-align:end;letter-spacing:0px;word-spacing:0px;text-anchor:end;fill:#000080;fill-opacity:1;stroke:none;stroke-width:1.43075263;stroke-linecap:butt;stroke-linejoin:miter;stroke-miterlimit:4;stroke-dasharray:none;stroke-opacity:1"
     transform="matrix(1.7473321,0,0,1.7473321,-30.238474,-31.36847)" />
  <path
     id="path1401"
     style="color:#000000;font-style:normal;font-variant:normal;font-weight:normal;font-stretch:normal;font-size:medium;line-height:normal;font-family:sans-serif;font-variant-ligatures:normal;font-variant-position:normal;font-variant-caps:normal;font-variant-numeric:normal;font-variant-alternates:normal;font-variant-east-asian:normal;font-feature-settings:normal;font-variation-settings:normal;text-indent:0;text-align:start;text-decoration:none;text-decoration-line:none;text-decoration-style:solid;text-decoration-color:#000000;letter-spacing:normal;word-spacing:normal;text-transform:none;writing-mode:lr-tb;direction:ltr;text-orientation:mixed;dominant-baseline:auto;baseline-shift:baseline;text-anchor:start;white-space:normal;shape-padding:0;shape-margin:0;inline-size:0;clip-rule:nonzero;display:inline;overflow:visible;visibility:visible;isolation:auto;mix-blend-mode:normal;color-interpolation:sRGB;color-interpolation-filters:linearRGB;solid-color:#000000;solid-opacity:1;vector-effect:none;fill:#000080;fill-opacity:1;fill-rule:nonzero;stroke:none;stroke-width:4.94235;stroke-linecap:round;stroke-linejoin:round;stroke-miterlimit:4;stroke-dasharray:none;stroke-dashoffset:20;stroke-opacity:1;color-rendering:auto;image-rendering:auto;shape-rendering:auto;text-rendering:auto;enable-background:accumulate;stop-color:#000000"
     d="M 2.4752473,12.5 A 2.4754951,2.467352 0 0 0 -2.2e-7,14.967105 v 70.06579 A 2.4754951,2.467352 0 0 0 2.4752473,87.5 H 97.524753 A 2.4754951,2.467352 0 0 0 100,85.032895 V 14.967105 A 2.4754951,2.467352 0 0 0 97.524753,12.5 Z m 2.4752475,4.934211 h 0.572401 c -0.1214892,1.101887 -0.2960338,2.11984 -0.572401,2.887283 z m 3.0669865,0 h 8.7832607 c -0.825097,3.028322 -1.619539,6.068466 -2.003403,8.068204 -1.013682,5.280758 -1.032668,9.216091 -1.502553,12.676681 -0.469718,3.459347 -1.454192,6.5271 -1.367188,9.05312 0.043,1.248564 0.39409,2.143797 0.632349,2.686832 0.238258,0.543035 0.234265,0.514081 0.222385,0.558954 -0.08633,0.326062 -0.171516,0.476716 -0.204981,0.53197 0.03799,0.01589 0.02539,0.02774 -0.0116,0.02506 -6.15e-4,9.35e-4 -0.0034,0.007 -0.0039,0.0077 -0.0096,-0.0036 0.0032,-0.0085 -0.04448,-0.0097 0.04394,0.0011 0.03014,6.07e-4 0.04835,0.002 0.002,-0.003 0.0082,-0.01952 0.0116,-0.02506 -0.02856,-0.01194 -0.05234,-0.01857 -0.102492,-0.05397 -0.149681,-0.105658 -0.360292,-0.29612 -0.553032,-0.51462 -0.385481,-0.436999 -0.678933,-1.137625 -0.655554,-0.99648 -0.04918,-0.296909 -0.50104,-3.378719 -1.131265,-6.638055 C 9.5047535,39.54751 8.813875,36.16688 7.7254794,34.289551 6.868738,32.811794 5.6855563,32.258363 4.9504948,32.0441 v -5.922981 c 0.543502,-1.446648 1.2237584,-2.854509 1.81776,-3.850996 0.8639146,-1.449289 1.0973718,-3.164617 1.2492265,-4.835912 z m 11.3551977,0 h 0.411897 c -0.611574,2.22256 -0.993213,4.830822 -1.285969,7.497686 -0.445598,4.05919 -0.645022,8.186982 -0.860535,10.782022 -0.213444,2.570142 -0.474633,3.082696 -0.59754,4.236482 -0.122908,1.153785 -0.03812,2.560357 0.435102,6.572522 0.484551,4.108157 2.045982,12.521529 3.884978,20.320852 0.919498,3.899663 1.906871,7.634527 2.871674,10.593134 0.482402,1.479303 0.956708,2.762382 1.431003,3.798957 0.229336,0.501218 0.443089,0.940323 0.680693,1.329923 H 23.955755 C 23.206148,78.099655 22.447662,73.781311 21.041537,71.230597 19.778798,68.939987 18.959035,67.96406 18.094446,67.38731 17.229856,66.81056 16.836145,66.833378 15.946008,66.074732 14.714079,65.024786 12.999746,64.159075 11.486695,63.262618 9.9736434,62.366161 8.7518121,61.344813 8.5647431,60.928506 8.3841716,60.526658 8.3912414,60.383114 8.3907022,60.390754 c -5.392e-4,0.0076 -0.030355,0.05177 0.077351,-0.125283 0.2154135,-0.354097 0.781664,-1.416644 0.5782024,-2.854518 -0.3870311,-2.735172 -2.1424171,-7.635728 -4.0938275,-10.196084 -6.041e-4,-7.92e-4 -0.00133,-0.0012 -0.00193,-0.002 V 34.661497 c 0.1679687,0.145195 0.3494214,0.373552 0.6323484,0.86156 0.5687079,0.980941 1.5042486,4.55864 2.1213645,7.75018 0.617116,3.19154 1.0332008,6.052448 1.1196628,6.57445 0.1590241,0.960052 0.6526275,1.559142 1.2376242,2.222322 0.292498,0.33159 0.614332,0.640374 0.982363,0.900108 0.368031,0.259735 0.77853,0.5144 1.411664,0.530042 0.691796,0.01709 1.452966,-0.266305 1.914449,-0.76326 0.461484,-0.496956 0.653555,-1.058695 0.804456,-1.628675 0.242925,-0.917576 -0.132028,-1.689973 -0.346148,-2.177991 -0.21412,-0.48802 -0.397365,-0.911705 -0.427367,-1.78287 -0.05902,-1.713438 0.844908,-4.946995 1.345916,-8.636796 0.50084,-3.688562 0.509569,-7.483499 1.481281,-12.545616 0.384528,-2.003194 1.254213,-5.290641 2.144569,-8.530787 z m 3.001237,0 h 4.586944 c -0.391563,0.339758 -0.733062,0.707307 -1.024907,1.156455 -0.642116,0.988212 -1.067408,2.175511 -1.916383,4.294305 -1.810818,4.519269 -3.807278,13.752882 -3.53303,20.538652 0.274307,6.78738 2.956264,12.31409 4.641089,18.139006 0.833444,2.881451 1.547334,6.679294 2.419168,10.120913 0.871835,3.441619 1.756598,6.536604 3.676129,8.291787 0.856232,0.78292 1.719491,1.2108 2.558401,1.279811 0.838909,0.06901 1.517232,-0.222394 1.955059,-0.433671 0.417682,-0.201557 0.624939,-0.270926 0.603341,-0.275622 -0.02185,-0.02847 6.51e-4,-0.01185 0.02901,-0.01349 0.0023,-1.32e-4 -0.03005,0.01326 -0.02901,0.01349 0.01624,0.02115 0.04658,0.05384 0.172107,0.208162 0.262014,0.322125 0.37212,0.959881 0.384824,1.81178 h -6.948097 c -0.266365,-0.156618 -0.606807,-0.383056 -1.109994,-0.805663 -0.06885,-0.05783 -0.510723,-0.647963 -0.922416,-1.547724 -0.411694,-0.899761 -0.866107,-2.114839 -1.330446,-3.538754 -0.928679,-2.847829 -1.905933,-6.534742 -2.815594,-10.392681 -1.819321,-7.715877 -3.376963,-16.164421 -3.8347,-20.04523 -0.469052,-3.9768 -0.519609,-5.213678 -0.433168,-6.025134 0.08645,-0.811454 0.378469,-1.58656 0.603341,-4.294304 0.222806,-2.682844 0.420267,-6.75677 0.854734,-10.714562 0.315565,-2.874647 0.791499,-5.695446 1.413598,-7.767526 z m 19.235382,0 h 15.857054 c -1.849701,0.427717 -3.721571,0.926628 -5.520962,1.455206 -2.961955,0.870086 -5.716213,1.794826 -7.775759,2.499871 -1.029772,0.352524 -1.887353,0.649883 -2.500386,0.855778 -0.306517,0.102947 -0.553827,0.1822 -0.717435,0.231291 -0.02632,0.0079 -0.0325,0.0093 -0.05415,0.01542 0.01308,-0.004 0.03764,5.63e-4 -0.110226,-0.04433 -0.212639,-0.06456 -0.5164,-0.164982 -0.876003,-0.281404 -0.719205,-0.232843 -1.667257,-0.528246 -2.726639,-0.743986 -2.118766,-0.43148 -4.797648,-0.600307 -6.96937,0.97335 -2.159155,1.564553 -3.163046,4.27311 -3.828898,7.168098 -0.665852,2.894986 -0.95897,6.069409 -1.303372,8.731239 -0.738733,5.709559 0.876423,10.60972 2.17551,16.622122 0.674659,3.122388 2.07395,8.051738 3.395731,12.248791 0.66089,2.098527 1.300605,4.007465 1.825495,5.416067 0.262444,0.704303 0.49322,1.279705 0.701964,1.723119 0.104371,0.221708 0.197871,0.405501 0.324876,0.597503 0.0635,0.096 0.129843,0.193993 0.264929,0.323807 0.135086,0.129814 0.363137,0.385485 0.930151,0.385485 0.42051,0 0.516547,-0.06625 0.736774,-0.121428 0.220226,-0.05518 0.469823,-0.122551 0.754177,-0.190814 0.568709,-0.13653 1.269538,-0.276482 1.995668,-0.319953 1.45226,-0.08694 2.848823,0.14694 3.877243,1.472554 0.385551,0.496965 0.628769,1.496951 0.607209,2.850662 -0.01536,0.964633 -0.168092,2.095753 -0.35775,3.263125 h -2.88521 c 0.01289,-1.215237 -0.188566,-2.372733 -0.995901,-3.365285 -0.580049,-0.713126 -1.433068,-1.176374 -2.208384,-1.1314 -0.775317,0.04497 -1.231874,0.370558 -1.566368,0.53197 -0.334492,0.161413 -0.499998,0.209057 -0.674891,0.194671 -0.174893,-0.01439 -0.494618,-0.09475 -1.088723,-0.637979 -0.98114,-0.897135 -2.105346,-3.747033 -2.949025,-7.077508 -0.84368,-3.330475 -1.552114,-7.130673 -2.440439,-10.201865 -1.758716,-6.08038 -4.296395,-11.370566 -4.546334,-17.554997 -0.250009,-6.186037 1.758997,-15.536545 3.357054,-19.524825 0.855464,-2.134985 1.30388,-3.260074 1.697866,-3.866416 0.393986,-0.606343 0.746759,-0.867184 1.885442,-1.538087 0.986286,-0.581111 0.971961,-0.450672 2.123298,-0.304533 1.151338,0.146139 3.065798,0.366778 6.590347,-0.08095 0.876518,-0.111345 1.903245,-0.322264 2.995437,-0.574373 z m 29.869275,0 h 9.349862 c 0.938991,0.956176 1.833091,1.987509 2.803991,3.081954 3.423369,3.858976 4.838959,7.007206 6.288676,12.776906 1.378251,5.48527 0.961949,15.195205 0.785117,20.970395 -0.08118,2.651141 -0.905092,5.259158 -1.49675,7.594059 -0.29583,1.167451 -0.539594,2.267078 -0.549196,3.344084 -0.0096,1.077006 0.26386,2.210115 1.071317,3.058825 0.671549,0.705854 1.441358,1.168254 2.245128,1.331852 0.80377,0.163596 1.580296,0.02048 2.233524,-0.239002 0.297747,-0.118272 0.573907,-0.262122 0.839263,-0.414396 v 1.036955 c -1.443073,1.171718 -2.693491,2.115617 -3.490486,2.496016 l -0.03094,0.01543 -0.03287,0.01735 c -1.242304,0.684599 -2.151814,1.052276 -2.711169,1.179584 -0.559355,0.127309 -0.647448,0.04271 -0.667156,0.02891 -0.01971,-0.0138 -0.154402,-0.157822 -0.278466,-0.616776 -0.124063,-0.458955 -0.218289,-1.151149 -0.324876,-1.96212 l -0.002,-0.002 v -0.0038 c -0.221526,-1.629134 0.06301,-4.72487 0.350059,-8.237788 0.287048,-3.512918 0.55182,-7.500181 0.139232,-11.277369 C 87.204495,44.322686 85.815415,33.874897 82.017714,27.680407 80.248823,24.79514 78.835156,22.504684 76.858369,20.658794 75.428163,19.32329 73.711831,18.271449 71.478573,17.434211 Z m 12.703049,0 h 3.310644 c 2.785853,3.524562 4.784616,7.581132 5.712407,10.756964 1.155215,3.954282 0.03185,6.254063 0.2862,9.750848 0.238501,3.278789 0.924696,6.097725 0.997834,8.841103 0.03017,1.13219 -0.453099,3.000146 -0.804455,4.712557 -0.175678,0.856205 -0.320575,1.679569 -0.290068,2.494089 0.0305,0.814519 0.31091,1.812646 1.19508,2.341823 0.161554,0.09669 0.313241,0.165743 0.460241,0.215871 v 9.355725 c -0.64519,0.498534 -1.264523,0.963208 -1.755878,1.158383 -0.339054,0.134682 -0.582824,0.162371 -0.821859,0.113719 -0.239038,-0.04865 -0.533746,-0.180113 -0.943689,-0.610994 -0.274027,-0.288027 -0.398766,-0.643365 -0.392559,-1.339561 0.0062,-0.696196 0.193115,-1.654402 0.473778,-2.762002 0.561327,-2.2152 1.475357,-5.025445 1.570235,-8.1241 0.175276,-5.724409 0.70854,-15.415661 -0.856667,-21.644994 -1.49374,-5.944905 -3.181681,-9.692693 -6.835938,-13.811934 -0.431573,-0.48649 -0.867906,-0.967297 -1.305306,-1.447497 z m 6.412438,0 h 4.455445 v 8.451762 C 94.08656,23.209742 92.579188,20.239292 90.59406,17.434211 Z M 65.232442,18.73715 c 1.140262,-0.03616 2.115991,0.03235 2.836865,0.215872 3.42646,0.872312 5.443574,1.963974 7.096999,3.507915 1.653425,1.543942 2.976277,3.630624 4.739712,6.506991 3.266953,5.328776 4.845189,15.697846 5.633122,22.911312 0.379561,3.474834 0.139442,7.329514 -0.145034,10.810933 -0.284475,3.481419 -0.638831,6.53242 -0.334545,8.769788 0.105353,0.801985 0.194647,1.560374 0.388692,2.278218 0.194548,0.71971 0.514236,1.481 1.245358,1.992958 0.731122,0.511958 1.690022,0.5727 2.63962,0.356574 0.936981,-0.213256 1.989403,-0.677986 3.314511,-1.405094 0.741494,-0.355851 1.546579,-0.874914 2.401763,-1.499537 v 3.681383 c -0.52308,0.490858 -1.002692,0.937664 -1.357518,1.256682 -0.394663,0.354835 -0.742403,0.616965 -0.692295,0.585938 -0.531417,0.329063 -2.061694,1.144212 -3.612315,1.725046 -1.550622,0.580835 -3.2162,0.782254 -3.610381,0.634123 -0.562627,-0.211432 -0.945139,-0.343378 -1.113861,-0.422107 -0.168722,-0.07873 -0.09855,-0.02921 -0.141166,-0.09252 -0.08522,-0.126612 -0.392944,-1.05097 -1.038445,-3.101228 -0.491973,-1.56263 -0.335638,-5.002195 -0.09089,-8.744732 0.244749,-3.742535 0.513708,-7.856263 -0.195313,-11.367958 -1.361469,-6.743227 -4.783305,-14.540496 -7.545634,-18.578459 -1.377929,-2.014254 -2.604441,-3.051397 -3.63552,-3.76619 -1.031078,-0.714794 -1.738177,-1.074597 -2.527459,-1.979468 -0.57677,-0.661236 -0.449425,-1.501309 -0.839263,-3.002929 -0.38984,-1.50162 -1.613503,-3.204128 -4.596613,-4.375257 -0.849536,-0.333517 -1.800922,-0.529233 -2.82913,-0.612921 -0.385578,-0.03138 -0.781415,-0.04696 -1.187346,-0.04819 -2.841513,-0.0086 -6.150027,0.68886 -9.473624,1.63253 -5.064518,1.437972 -10.03273,3.558377 -12.909962,5.497018 -2.648708,1.784671 -4.047124,2.577771 -5.081992,3.881837 -1.03487,1.304065 -1.400472,2.79933 -2.136836,5.630011 -0.850566,3.269694 -0.258318,7.819643 0.740641,12.279631 0.998959,4.459988 2.44548,8.728618 3.685799,11.211837 1.177099,2.356651 2.029134,3.759608 3.030243,4.727975 1.00111,0.968368 2.136032,1.358237 3.320313,1.63253 1.053913,0.2441 2.013683,-0.249788 2.651222,-0.786389 0.637539,-0.536602 1.128471,-1.170773 1.58764,-1.719264 0.459168,-0.548491 0.896783,-0.999937 1.154471,-1.162238 0.257687,-0.1623 0.10581,-0.168387 0.313273,-0.04819 0.03149,0.01825 0.322438,0.385094 0.471844,1.281738 0.149407,0.896646 0.182117,2.165041 0.158571,3.565739 -0.04709,2.801395 -0.312191,6.113663 0.100557,8.78328 0.05644,0.365039 0.07941,0.766724 0.08895,1.18344 h -2.912283 c 0.169912,-1.099365 0.30645,-2.189091 0.322941,-3.224584 0.02582,-1.621293 -0.17711,-3.175982 -1.125463,-4.398386 -1.639386,-2.113136 -4.092492,-2.539817 -5.983138,-2.42663 -0.945322,0.0566 -1.787746,0.232044 -2.426903,0.385485 -0.123805,0.02972 -0.194608,0.04995 -0.30167,0.0771 -0.144369,-0.327935 -0.306088,-0.708063 -0.51052,-1.256681 -0.4991,-1.339391 -1.13237,-3.222704 -1.784886,-5.29464 -1.305031,-4.14387 -2.699169,-9.073808 -3.337717,-12.029065 -1.327279,-6.142884 -2.79479,-10.71917 -2.138768,-15.789474 0.352977,-2.728104 0.64871,-5.832795 1.26083,-8.494166 0.612119,-2.66137 1.575428,-4.786579 2.869739,-5.724455 1.281751,-0.928773 3.202086,-0.921479 5.020112,-0.551244 0.909013,0.185117 1.763396,0.44847 2.455909,0.672672 0.346258,0.112101 0.651123,0.215044 0.920483,0.296823 0.269361,0.08178 0.412884,0.169614 0.879874,0.169614 0.27531,0 0.32456,-0.03243 0.421565,-0.05589 0.09701,-0.02347 0.190693,-0.05074 0.297803,-0.08288 0.214222,-0.06427 0.476845,-0.149563 0.794787,-0.256347 0.635883,-0.21357 1.490414,-0.511181 2.513923,-0.86156 2.047019,-0.700758 4.76644,-1.613782 7.671334,-2.467105 2.904894,-0.853324 5.99624,-1.645321 8.760055,-2.108604 1.381908,-0.231642 2.686703,-0.372459 3.826966,-0.408615 z m -5.507426,8.796773 c 1.433474,-0.03965 2.623467,0.08476 3.418935,0.39705 2.536281,0.99571 2.86393,1.75237 3.10953,2.698396 0.2456,0.946025 0.09324,2.542749 1.367187,4.003263 1.061436,1.216881 2.089254,1.767329 2.9819,2.386154 0.892646,0.618826 1.778626,1.337276 3.005105,3.13014 2.446489,3.576268 5.890114,11.373213 7.162748,17.676424 0.608036,3.011522 0.396804,6.986815 0.152769,10.718416 -0.244034,3.731599 -0.586414,7.149603 0.199181,9.644839 0.632072,2.00761 0.767271,2.880449 1.343982,3.737279 0.171335,0.254557 0.402618,0.461782 0.645884,0.639905 h -5.542234 c 0.422473,-1.993443 -0.01876,-4.405938 -0.810256,-7.106419 -0.931474,-3.178047 -2.45351,-6.717131 -4.213722,-10.045744 -1.760215,-3.328614 -3.753097,-6.437222 -5.671798,-8.742804 -0.959351,-1.152792 -1.895375,-2.107191 -2.829131,-2.800551 -0.817037,-0.606688 -1.654167,-1.070399 -2.600944,-1.106342 -0.135253,-0.0051 -0.271864,-0.0016 -0.411897,0.01157 -0.936973,0.08804 -1.670299,0.603005 -2.341815,1.268246 -0.671518,0.665243 -1.291796,1.533315 -1.871906,2.578897 -1.160222,2.09116 -2.148791,4.900034 -2.666694,8.139519 -1.471083,9.201737 0.243522,13.486819 2.564202,17.803634 h -6.493657 c -0.01423,-0.528576 -0.04906,-1.051094 -0.12763,-1.559287 -0.336979,-2.179558 -0.120437,-5.456857 -0.07154,-8.365029 0.02445,-1.454086 0.007,-2.820065 -0.191446,-4.010974 -0.198438,-1.190907 -0.553762,-2.365376 -1.670792,-3.012566 -0.941056,-0.545234 -2.139917,-0.369387 -2.879409,0.09637 -0.739492,0.465759 -1.24869,1.089091 -1.732673,1.667223 -0.483983,0.578134 -0.935138,1.121073 -1.284035,1.414731 -0.348897,0.293659 -0.419996,0.284848 -0.493116,0.267912 C 40.701958,68.8164 40.232311,68.664207 39.613638,68.065769 38.994966,67.46733 38.21059,66.277133 37.07651,64.006609 36.005648,61.862655 34.549683,57.642702 33.589891,53.357581 32.6301,49.072459 32.208712,44.622383 32.829912,42.234405 c 0.735405,-2.826991 1.060938,-3.935222 1.682395,-4.718339 0.621458,-0.783115 1.843801,-1.561232 4.526997,-3.36914 2.454676,-1.653931 7.353566,-3.788827 12.202196,-5.165501 3.030394,-0.860422 6.0944,-1.381412 8.483525,-1.447497 z m -14.279085,9.213095 c -0.297546,-0.02964 -0.597664,-0.02535 -0.897277,0.0058 -0.599226,0.06228 -1.200297,0.231562 -1.800356,0.452945 -1.200118,0.442764 -2.406239,1.151025 -3.463412,2.029579 -1.057176,0.878555 -1.971608,1.92235 -2.504255,3.132068 -0.532647,1.209717 -0.623127,2.701256 0.141167,3.964715 0.68089,1.125582 1.716327,1.843827 2.79819,1.977539 1.081861,0.133712 2.070489,-0.229784 2.921951,-0.728567 1.702929,-0.997567 3.021096,-2.581093 3.714806,-3.812449 0.472689,-0.839038 1.357108,-1.818669 1.862237,-3.027985 0.252564,-0.604659 0.422997,-1.406032 0.07736,-2.191485 -0.345645,-0.785451 -1.082711,-1.286762 -1.964727,-1.603618 -0.293153,-0.105312 -0.588128,-0.168882 -0.885675,-0.198525 z m -0.224319,2.47867 c 0.118573,0.006 0.210813,0.02088 0.27073,0.04241 0.486311,0.174702 0.536958,0.285749 0.52599,0.264057 -0.0033,0.02441 -0.01592,0.09462 -0.08509,0.260203 -0.236678,0.566626 -1.081112,1.609737 -1.734607,2.769711 -0.432475,0.767657 -1.685446,2.232503 -2.809792,2.891139 -0.562173,0.329318 -1.050978,0.445291 -1.363321,0.406687 -0.312342,-0.0386 -0.586887,-0.14485 -0.984297,-0.801809 -0.314006,-0.519085 -0.304978,-0.994164 0.0058,-1.69999 0.31078,-0.705825 0.981638,-1.528431 1.823561,-2.228104 0.841924,-0.699673 1.847712,-1.281568 2.736309,-1.609401 0.666448,-0.245875 1.258993,-0.312826 1.614712,-0.294897 z M 4.9504948,52.571187 c 0.8062489,1.977066 1.4893056,4.093526 1.6437192,5.184775 0.1288529,0.910611 0.045129,0.754992 -0.2436573,1.229698 -0.1443931,0.237353 -0.3902702,0.678632 -0.4293007,1.231626 -0.039031,0.552992 0.1084532,1.104223 0.3848237,1.719263 0.7268156,1.61747 2.3221057,2.503858 3.9159193,3.448165 1.593812,0.944308 3.276682,1.85084 4.115098,2.565404 1.180208,1.005868 1.967735,1.212631 2.380492,1.487973 0.412758,0.275342 0.964413,0.821454 2.154239,2.979801 0.938506,1.702452 1.826277,5.852953 2.568069,10.147897 H 19.94508 C 18.328456,78.169179 16.662719,74.483525 14.545946,72.101793 12.787464,70.123209 11.295026,69.593545 10.291615,69.434236 9.2882037,69.274927 9.1483194,69.472921 8.1489788,68.416555 7.3754916,67.598932 6.6865252,65.265666 5.9309249,62.817383 5.6512411,61.911156 5.3422534,60.975271 4.9504948,60.082365 Z M 61.26431,55.232961 c 0.105414,-0.0099 0.613674,0.106078 1.301438,0.616777 0.687766,0.510698 1.525815,1.340894 2.403699,2.395791 1.755766,2.109793 3.691249,5.109125 5.38753,8.316842 1.696282,3.207718 3.160197,6.634461 4.026145,9.588945 0.843575,2.878152 1.00169,5.328298 0.618812,6.414473 H 59.510365 c -2.604824,-4.610681 -4.447515,-7.823396 -2.914218,-17.414293 0.475197,-2.972393 1.397118,-5.547499 2.388228,-7.333856 0.495555,-0.893179 1.01127,-1.588831 1.450341,-2.023797 0.43907,-0.434968 0.790816,-0.557237 0.829594,-0.560882 z M 4.9504948,67.892295 c 0.354486,0.82234 0.7954532,1.579475 1.3981282,2.21654 1.3715119,1.449775 2.7821393,1.639074 3.5543007,1.761667 0.7721613,0.122595 1.2793303,0.167411 2.7904543,1.867677 1.580211,1.778005 3.052543,4.923258 4.550201,8.82761 H 13.611927 C 12.487319,80.170623 11.20708,78.057007 9.6747369,76.698705 8.0358272,75.245937 6.3666665,74.702432 4.9504948,74.482165 Z m 0,9.072395 c 0.9651429,0.186384 1.9573949,0.582781 3.0785892,1.576634 0.8763541,0.776819 1.8484037,2.255549 2.774984,4.024465 H 4.9504948 Z m 90.0990102,3.257349 v 2.34375 h -4.354888 c 1.563162,-0.621267 2.929085,-1.338599 3.612314,-1.761667 0.266913,-0.165277 0.489971,-0.356513 0.742574,-0.582083 z" />
</svg>
