<?xml version="1.0" encoding="UTF-8" standalone="no"?>
<svg
   xmlns:dc="http://purl.org/dc/elements/1.1/"
   xmlns:cc="http://creativecommons.org/ns#"
   xmlns:rdf="http://www.w3.org/1999/02/22-rdf-syntax-ns#"
   xmlns:svg="http://www.w3.org/2000/svg"
   xmlns="http://www.w3.org/2000/svg"
   xmlns:sodipodi="http://sodipodi.sourceforge.net/DTD/sodipodi-0.dtd"
   xmlns:inkscape="http://www.inkscape.org/namespaces/inkscape"
   inkscape:version="1.0 (4035a4fb49, 2020-05-01)"
   sodipodi:docname="uEA5B-bus-map.svg"
   id="svg4460"
   height="100"
   width="100"
   version="1.1">
  <sodipodi:namedview
     inkscape:document-rotation="0"
     inkscape:current-layer="svg4460"
     inkscape:window-maximized="1"
     inkscape:window-y="-8"
     inkscape:window-x="-8"
     inkscape:cy="96.576446"
     inkscape:cx="23.012922"
     inkscape:zoom="4.0400001"
     showgrid="false"
     id="namedview11"
     inkscape:window-height="1017"
     inkscape:window-width="1920"
     inkscape:pageshadow="2"
     inkscape:pageopacity="0"
     guidetolerance="10"
     gridtolerance="10"
     objecttolerance="10"
     borderopacity="1"
     bordercolor="#666666"
     pagecolor="#ffffff" />
  <defs
     id="defs4462" />
  <metadata
     id="metadata4465">
    <rdf:RDF>
      <cc:Work
         rdf:about="">
        <dc:format>image/svg+xml</dc:format>
        <dc:type
           rdf:resource="http://purl.org/dc/dcmitype/StillImage" />
        <dc:title />
      </cc:Work>
    </rdf:RDF>
  </metadata>
  <g
     style="font-style:normal;font-weight:normal;font-size:10.6667px;line-height:100%;font-family:sans-serif;text-align:end;letter-spacing:0px;word-spacing:0px;text-anchor:end;fill:#ff0000;fill-opacity:1;stroke:none;stroke-width:3;stroke-linecap:butt;stroke-linejoin:miter;stroke-miterlimit:4;stroke-dasharray:none;stroke-opacity:1"
     id="text1135-7-0"
     aria-label="284"
     transform="translate(-13.118813,29.455442)" />
  <path
     id="path1305"
     style="color:#000000;font-style:normal;font-variant:normal;font-weight:normal;font-stretch:normal;font-size:medium;line-height:normal;font-family:sans-serif;font-variant-ligatures:normal;font-variant-position:normal;font-variant-caps:normal;font-variant-numeric:normal;font-variant-alternates:normal;font-variant-east-asian:normal;font-feature-settings:normal;font-variation-settings:normal;text-indent:0;text-align:start;text-decoration:none;text-decoration-line:none;text-decoration-style:solid;text-decoration-color:#000000;letter-spacing:normal;word-spacing:normal;text-transform:none;writing-mode:lr-tb;direction:ltr;text-orientation:mixed;dominant-baseline:auto;baseline-shift:baseline;text-anchor:start;white-space:normal;shape-padding:0;shape-margin:0;inline-size:0;clip-rule:nonzero;display:inline;overflow:visible;visibility:visible;isolation:auto;mix-blend-mode:normal;color-interpolation:sRGB;color-interpolation-filters:linearRGB;solid-color:#000000;solid-opacity:1;vector-effect:none;fill:#000080;fill-opacity:1;fill-rule:nonzero;stroke:none;stroke-width:4.94235;stroke-linecap:round;stroke-linejoin:round;stroke-miterlimit:4;stroke-dasharray:none;stroke-dashoffset:20;stroke-opacity:1;color-rendering:auto;image-rendering:auto;shape-rendering:auto;text-rendering:auto;enable-background:accumulate;stop-color:#000000"
     d="M 2.4752475,12.5 A 2.475495,2.467352 0 0 0 0,14.967105 v 70.06579 A 2.475495,2.467352 0 0 0 2.4752475,87.5 H 97.524752 A 2.475495,2.467352 0 0 0 100,85.032895 V 14.967105 A 2.475495,2.467352 0 0 0 97.524752,12.5 Z m 3.5736386,4.934211 h 2.9954363 l 9.8275066,9.903114 c -0.03491,0.131553 -0.08221,0.258463 -0.108292,0.393195 l -2.800124,0.01157 z m 10.2142639,0 h 5.805228 l 0.16824,5.894068 c -0.02773,0.01293 -0.05156,0.03099 -0.07928,0.04433 z m 10.943301,0 h 64.468596 c -1.914491,2.029608 -3.831432,4.064398 -5.73368,6.065609 -0.681249,-0.327678 -1.43613,-0.528115 -2.270266,-0.528115 -2.816279,0 -5.19601,1.937395 -5.917388,4.529452 L 30.849706,27.686189 C 30.459203,25.748604 29.131802,24.1412 27.374691,23.324424 Z m 67.843054,3.90111 v 6.098375 l -5.776222,0.02313 c 1.915603,-2.019027 3.847427,-4.073326 5.776222,-6.121505 z m -90.09901,2.353387 8.069694,8.386231 a 2.5673335,2.5588883 0 0 0 1.86417,0.788317 l 5.267637,-0.0212 c 0.650047,0.75655 1.465093,1.362604 2.405631,1.736611 l 0.545327,18.944669 c -2.138601,0.964291 -3.649055,3.109023 -3.649055,5.581826 v 1.262464 c -4.280968,-0.0086 -9.5117897,-0.0194 -14.503404,-0.02891 z m 19.85806,3.145559 c 1.158534,0 2.053682,0.892203 2.053682,2.046926 0,1.154723 -0.895148,2.046927 -2.053682,2.046927 -1.158532,0 -2.053682,-0.892204 -2.053682,-2.046927 0,-1.154723 0.89515,-2.046926 2.053682,-2.046926 z m 58.862546,0.231292 c 1.15853,0 2.053682,0.892203 2.053682,2.046925 0,1.154723 -0.895151,2.046927 -2.053682,2.046927 -1.158533,0 -2.053681,-0.892204 -2.053681,-2.046927 0,-1.154722 0.895148,-2.046925 2.053681,-2.046925 z m 11.378404,5.491236 v 2.432411 l -10.202661,0.119501 c 1.472194,-0.333089 2.657362,-1.270699 3.465346,-2.524929 z m -17.823716,0.06554 c -0.844298,0.87623 -1.693594,1.759621 -2.515857,2.607807 l -9.924195,0.115647 a 2.5673335,2.5588883 0 0 0 -1.823562,0.786389 l -11.724551,12.2218 C 49.897803,47.976427 48.461486,48.033391 47.167002,48.56985 L 31.514929,32.79965 Z m 4.820932,2.384227 c 0.159629,0.04441 0.313272,0.09963 0.477644,0.131064 l -0.611076,0.0077 c 0.04529,-0.04712 0.08837,-0.09195 0.133432,-0.138774 z m -54.302677,1.270169 15.965346,16.08437 c -0.394114,1.243866 -0.38664,2.579577 0.02707,3.818231 L 39.677442,60.4081 C 38.840965,60.406 34.902419,60.4013 31.775987,60.39654 v -1.291376 c 0,-2.425859 -1.460888,-4.528274 -3.534962,-5.51822 z m 67.305461,3.827868 v 42.46119 H 80.909653 L 59.531637,61.022949 c 0.547787,-1.257929 0.64669,-2.654927 0.313273,-3.972425 3.554937,-3.091882 8.395953,-7.837371 14.42025,-13.977693 0.824323,-0.840201 1.804307,-1.876196 2.658958,-2.754292 z M 69.691754,40.403346 C 64.36796,45.806528 59.927207,50.096074 56.864945,52.831389 L 55.424273,51.397384 65.926671,40.447676 Z M 49.549428,52.152935 c 0.515632,0 1.030241,0.203824 1.442605,0.614849 l 4.372293,4.35791 c 0.824737,0.82202 0.824737,2.057544 0,2.879574 l -0.01547,0.01543 c -0.824707,0.821988 -2.064349,0.82201 -2.889078,0 l -4.370359,-4.357911 c -0.824727,-0.82202 -0.824708,-2.057585 0,-2.879574 l 0.01547,-0.01542 c 0.41237,-0.411017 0.928897,-0.614849 1.444539,-0.614849 z m -23.946086,4.916863 h 0.0232 c 1.166358,0 2.042079,0.872853 2.042079,2.035362 v 6.163908 c 0,1.1625 -0.875721,2.035362 -2.042079,2.035362 h -0.0232 c -1.166355,0 -2.04208,-0.872851 -2.04208,-2.035362 V 59.10516 c 0,-1.16251 0.875722,-2.035383 2.04208,-2.035362 z m 21.306466,3.207237 0.152769,0.154194 a 2.5673335,2.5588883 0 0 0 -0.156636,-0.0077 h -0.141167 z m 8.763924,4.136257 18.01516,18.152497 H 69.937346 L 53.387995,65.88199 l 0.0077,-1.231625 c 0.766969,0.06255 1.535946,-0.01735 2.278001,-0.237073 z M 4.950495,65.452174 c 5.174731,0.01 10.830411,0.02167 14.522742,0.02891 0.116237,3.261299 2.832047,5.917199 6.130105,5.917199 h 0.0232 c 3.289782,0 5.995248,-2.642102 6.124303,-5.892142 1.219096,0.0032 2.51743,0.0066 3.032179,0.0077 L 18.427057,82.565789 H 4.950495 Z m 36.91793,0.0771 c 0.296056,5.94e-4 3.889038,0.0066 3.954595,0.0077 l 2.421101,2.443984 -0.07155,14.584832 H 25.529857 Z m 11.482828,7.599836 9.361464,9.436677 h -9.405941 z" />
</svg>
