<?xml version="1.0" encoding="UTF-8" standalone="no"?>
<svg
   xmlns:dc="http://purl.org/dc/elements/1.1/"
   xmlns:cc="http://creativecommons.org/ns#"
   xmlns:rdf="http://www.w3.org/1999/02/22-rdf-syntax-ns#"
   xmlns:svg="http://www.w3.org/2000/svg"
   xmlns="http://www.w3.org/2000/svg"
   xmlns:sodipodi="http://sodipodi.sourceforge.net/DTD/sodipodi-0.dtd"
   xmlns:inkscape="http://www.inkscape.org/namespaces/inkscape"
   version="1.1"
   width="100"
   height="100"
   id="svg4460"
   sodipodi:docname="uEA55-map-poi.svg"
   inkscape:version="1.0 (4035a4fb49, 2020-05-01)">
  <path
     d="M 57.5 0 C 47.880828 0 40 7.8594778 40 17.451172 C 40 18.850429 40.169308 20.211578 40.486328 21.517578 L 34.166016 24.453125 L 3.5527344 10.232422 A 2.50025 2.50025 0 0 0 2.5234375 10 A 2.50025 2.50025 0 0 0 0 12.5 L 0 82.789062 A 2.50025 2.50025 0 0 0 1.4472656 85.056641 L 33.113281 99.767578 A 2.50025 2.50025 0 0 0 34.189453 100 A 2.50025 2.50025 0 0 0 35.220703 99.767578 L 65.833984 85.546875 L 96.447266 99.767578 A 2.50025 2.50025 0 0 0 100 97.5 L 100 27.210938 A 2.50025 2.50025 0 0 0 98.552734 24.943359 L 74.609375 13.820312 C 72.919699 5.9542951 65.871009 -1.1842379e-15 57.5 0 z M 57.5 8.1777344 C 62.679649 8.1777344 66.798828 12.286321 66.798828 17.451172 C 66.798828 22.616023 62.679649 26.722656 57.5 26.722656 C 52.320349 26.722656 48.201172 22.616023 48.201172 17.451172 C 48.201172 12.286321 52.320349 8.1777344 57.5 8.1777344 z M 5 16.417969 L 32.275391 29.087891 L 32.646484 94.037109 L 5 81.193359 L 5 16.417969 z M 74.873047 19.455078 L 95 28.804688 L 95 93.582031 L 67.322266 80.724609 L 67.064453 35.707031 L 73.041016 25.537109 C 73.312172 25.046615 73.525438 24.525515 73.710938 23.992188 C 74.295878 22.563514 74.687437 21.03858 74.873047 19.455078 z M 42.367188 26.158203 C 42.626995 26.603516 42.898413 27.041311 43.195312 27.460938 L 55.365234 48.496094 C 57.069472 50.722501 58.20209 50.299771 59.619141 48.378906 L 64.09375 40.763672 L 64.322266 80.734375 L 35.646484 94.056641 L 35.277344 29.451172 L 42.367188 26.158203 z "
     style="color:#000000;font-style:normal;font-variant:normal;font-weight:normal;font-stretch:normal;font-size:medium;line-height:normal;font-family:sans-serif;font-variant-ligatures:normal;font-variant-position:normal;font-variant-caps:normal;font-variant-numeric:normal;font-variant-alternates:normal;font-variant-east-asian:normal;font-feature-settings:normal;font-variation-settings:normal;text-indent:0;text-align:start;text-decoration:none;text-decoration-line:none;text-decoration-style:solid;text-decoration-color:#000000;letter-spacing:normal;word-spacing:normal;text-transform:none;writing-mode:lr-tb;direction:ltr;text-orientation:mixed;dominant-baseline:auto;baseline-shift:baseline;text-anchor:start;white-space:normal;shape-padding:0;shape-margin:0;inline-size:0;clip-rule:nonzero;display:inline;overflow:visible;visibility:visible;isolation:auto;mix-blend-mode:normal;color-interpolation:sRGB;color-interpolation-filters:linearRGB;solid-color:#000000;solid-opacity:1;vector-effect:none;fill:#000080;fill-opacity:1;fill-rule:evenodd;stroke:none;stroke-width:3;stroke-linecap:butt;stroke-linejoin:miter;stroke-miterlimit:4;stroke-dasharray:none;stroke-dashoffset:0;stroke-opacity:1;color-rendering:auto;image-rendering:auto;shape-rendering:auto;text-rendering:auto;enable-background:accumulate;stop-color:#000000"
     id="path967" />
  <sodipodi:namedview
     pagecolor="#ffffff"
     bordercolor="#666666"
     borderopacity="1"
     objecttolerance="10"
     gridtolerance="10"
     guidetolerance="10"
     inkscape:pageopacity="0"
     inkscape:pageshadow="2"
     inkscape:window-width="1920"
     inkscape:window-height="1017"
     id="namedview11"
     showgrid="false"
     inkscape:zoom="2.8567114"
     inkscape:cx="107.59541"
     inkscape:cy="97.350221"
     inkscape:window-x="-8"
     inkscape:window-y="-8"
     inkscape:window-maximized="1"
     inkscape:current-layer="svg4460"
     inkscape:document-rotation="0" />
  <defs
     id="defs4462" />
  <metadata
     id="metadata4465">
    <rdf:RDF>
      <cc:Work
         rdf:about="">
        <dc:format>image/svg+xml</dc:format>
        <dc:type
           rdf:resource="http://purl.org/dc/dcmitype/StillImage" />
        <dc:title />
      </cc:Work>
    </rdf:RDF>
  </metadata>
</svg>
