<?xml version="1.0" encoding="UTF-8" standalone="no"?>
<svg
   xmlns:dc="http://purl.org/dc/elements/1.1/"
   xmlns:cc="http://creativecommons.org/ns#"
   xmlns:rdf="http://www.w3.org/1999/02/22-rdf-syntax-ns#"
   xmlns:svg="http://www.w3.org/2000/svg"
   xmlns="http://www.w3.org/2000/svg"
   xmlns:sodipodi="http://sodipodi.sourceforge.net/DTD/sodipodi-0.dtd"
   xmlns:inkscape="http://www.inkscape.org/namespaces/inkscape"
   inkscape:version="1.0 (4035a4fb49, 2020-05-01)"
   sodipodi:docname="uEA5A-landcover-map.svg"
   id="svg4460"
   height="100"
   width="100"
   version="1.1">
  <sodipodi:namedview
     inkscape:document-rotation="0"
     inkscape:current-layer="svg4460"
     inkscape:window-maximized="1"
     inkscape:window-y="-8"
     inkscape:window-x="-8"
     inkscape:cy="-15.963253"
     inkscape:cx="106.0183"
     inkscape:zoom="2.0200001"
     showgrid="false"
     id="namedview11"
     inkscape:window-height="1017"
     inkscape:window-width="1920"
     inkscape:pageshadow="2"
     inkscape:pageopacity="0"
     guidetolerance="10"
     gridtolerance="10"
     objecttolerance="10"
     borderopacity="1"
     bordercolor="#666666"
     pagecolor="#ffffff" />
  <defs
     id="defs4462" />
  <metadata
     id="metadata4465">
    <rdf:RDF>
      <cc:Work
         rdf:about="">
        <dc:format>image/svg+xml</dc:format>
        <dc:type
           rdf:resource="http://purl.org/dc/dcmitype/StillImage" />
        <dc:title />
      </cc:Work>
    </rdf:RDF>
  </metadata>
  <path
     id="path1680"
     style="color:#000000;font-style:normal;font-variant:normal;font-weight:normal;font-stretch:normal;font-size:medium;line-height:normal;font-family:sans-serif;font-variant-ligatures:normal;font-variant-position:normal;font-variant-caps:normal;font-variant-numeric:normal;font-variant-alternates:normal;font-variant-east-asian:normal;font-feature-settings:normal;font-variation-settings:normal;text-indent:0;text-align:start;text-decoration:none;text-decoration-line:none;text-decoration-style:solid;text-decoration-color:#000000;letter-spacing:normal;word-spacing:normal;text-transform:none;writing-mode:lr-tb;direction:ltr;text-orientation:mixed;dominant-baseline:auto;baseline-shift:baseline;text-anchor:start;white-space:normal;shape-padding:0;shape-margin:0;inline-size:0;clip-rule:nonzero;display:inline;overflow:visible;visibility:visible;isolation:auto;mix-blend-mode:normal;color-interpolation:sRGB;color-interpolation-filters:linearRGB;solid-color:#000000;solid-opacity:1;vector-effect:none;fill:#000080;fill-opacity:1;fill-rule:nonzero;stroke:none;stroke-width:4.94235;stroke-linecap:round;stroke-linejoin:round;stroke-miterlimit:4;stroke-dasharray:none;stroke-dashoffset:20;stroke-opacity:1;color-rendering:auto;image-rendering:auto;shape-rendering:auto;text-rendering:auto;enable-background:accumulate;stop-color:#000000"
     d="M 2.4752475,12.5 A 2.475495,2.467352 0 0 0 0,14.967105 v 70.06579 A 2.475495,2.467352 0 0 0 2.4752475,87.5 H 97.524752 A 2.475495,2.467352 0 0 0 100,85.032895 V 14.967105 A 2.475495,2.467352 0 0 0 97.524752,12.5 Z m 3.5620359,4.934211 H 11.76516 a 2.4752475,2.4671053 0 0 0 -0.388691,1.324141 2.4752475,2.4671053 0 0 0 2.475248,2.467106 2.4752475,2.4671053 0 0 0 2.475247,-2.467106 2.4752475,2.4671053 0 0 0 -0.0077,-0.188887 l 2.061417,2.692613 a 2.4752475,2.4671053 0 0 0 -2.053683,2.430485 2.4752475,2.4671053 0 0 0 2.475248,2.467105 2.4752475,2.4671053 0 0 0 2.239326,-1.420513 l 1.382658,1.807926 a 2.4752475,2.4671053 0 0 0 -1.146737,2.079692 2.4752475,2.4671053 0 0 0 2.475248,2.467106 2.4752475,2.4671053 0 0 0 1.661124,-0.639906 l 1.278232,1.669151 a 2.4752475,2.4671053 0 0 0 -0.464109,1.43786 2.4752475,2.4671053 0 0 0 0.59174,1.599764 l -1.353651,1.553504 a 2.4752475,2.4671053 0 0 0 -1.713336,-0.686163 2.4752475,2.4671053 0 0 0 -2.475248,2.467105 2.4752475,2.4671053 0 0 0 0.945622,1.940918 l -0.139231,0.159976 -1.247294,1.430151 a 2.4752475,2.4671053 0 0 0 -2.034344,-1.063939 2.4752475,2.4671053 0 0 0 -0.07155,0 2.4752475,2.4671053 0 0 0 -2.403698,2.467105 2.4752475,2.4671053 0 0 0 2.475248,2.467105 2.4752475,2.4671053 0 0 0 1.22022,-0.32188 l -0.233988,1.898514 -0.421566,3.423109 a 2.4752475,2.4671053 0 0 0 -0.564666,-0.06554 2.4752475,2.4671053 0 0 0 -0.07155,0 2.4752475,2.4671053 0 0 0 -2.403698,2.467105 2.4752475,2.4671053 0 0 0 0.09476,0.674599 l -5.69307,-2.33604 a 2.4752475,2.4671053 0 0 0 -1.8274288,-0.805664 2.4752475,2.4671053 0 0 0 -0.07155,0 2.4752475,2.4671053 0 0 0 -0.054146,0.0038 L 6.0256807,49.707031 A 2.4752475,2.4671053 0 0 0 6.4259747,48.363615 2.4752475,2.4671053 0 0 0 4.950495,46.1066 V 40.75221 A 2.4752475,2.4671053 0 0 0 6.4259747,38.495194 2.4752475,2.4671053 0 0 0 4.950495,36.238179 v -5.35439 A 2.4752475,2.4671053 0 0 0 6.4259747,28.626773 2.4752475,2.4671053 0 0 0 4.950495,26.369758 v -5.35439 A 2.4752475,2.4671053 0 0 0 6.4259747,18.758352 2.4752475,2.4671053 0 0 0 6.0372834,17.434211 Z m 13.1497526,0 h 11.287515 l 29.811263,38.0763 -8.075495,8.27444 -0.102491,0.200452 c 0,0 -3.676883,7.207563 -7.385133,14.538574 -0.734286,1.451644 -1.37226,2.726878 -2.03241,4.041812 H 32.582379 L 39.182395,70.698627 C 50.837149,60.271838 49.464257,53.815207 43.562423,43.668405 L 30.992806,32.8594 Z m 15.054532,0 h 0.181777 l -0.102492,0.102153 z m 2.9819,0 h 2.492652 l -3.074722,3.064607 -1.092589,-1.395457 z m 5.292776,0 h 2.490717 l -6.045018,6.027061 -1.09259,-1.395457 z m 5.292775,0 h 2.490718 l -9.019184,8.989514 -1.092589,-1.393528 z m 5.290841,0 h 2.492653 L 43.601098,29.386179 42.508509,27.99265 Z m 6.737315,0 h 4.088026 a 1.9801979,1.9736841 0 0 0 1.916383,1.480263 1.9801979,1.9736841 0 0 0 1.916383,-1.480263 h 4.088026 a 1.9801979,1.9736841 0 0 0 1.916383,1.480263 1.9801979,1.9736841 0 0 0 1.916383,-1.480263 h 4.088026 a 1.9801979,1.9736841 0 0 0 1.916383,1.480263 1.9801979,1.9736841 0 0 0 1.916383,-1.480263 h 4.088026 a 1.9801979,1.9736841 0 0 0 1.916383,1.480263 1.9801979,1.9736841 0 0 0 1.916384,-1.480263 h 3.529161 v 2.149079 a 1.9801979,1.9736841 0 0 0 -1.485149,-0.668816 1.9801979,1.9736841 0 0 0 -1.980198,1.973684 1.9801979,1.9736841 0 0 0 1.980198,1.973684 1.9801979,1.9736841 0 0 0 1.485149,-0.670745 v 5.28693 a 1.9801979,1.9736841 0 0 0 -1.485149,-0.668816 1.9801979,1.9736841 0 0 0 -0.0097,0 1.9801979,1.9736841 0 0 0 -1.970529,1.973684 1.9801979,1.9736841 0 0 0 1.980198,1.973684 1.9801979,1.9736841 0 0 0 1.485149,-0.670745 v 5.28693 a 1.9801979,1.9736841 0 0 0 -1.485118,-0.668817 1.9801979,1.9736841 0 0 0 -0.0097,0 1.9801979,1.9736841 0 0 0 -1.970529,1.973685 1.9801979,1.9736841 0 0 0 1.980198,1.973684 1.9801979,1.9736841 0 0 0 1.485149,-0.670745 v 5.28693 a 1.9801979,1.9736841 0 0 0 -1.485118,-0.668817 1.9801979,1.9736841 0 0 0 -1.927986,1.524594 l -3.126933,0.414397 -0.887608,0.117572 a 1.9801979,1.9736841 0 0 0 0.0019,-0.08288 1.9801979,1.9736841 0 0 0 -1.980198,-1.973684 1.9801979,1.9736841 0 0 0 -1.980198,1.973684 1.9801979,1.9736841 0 0 0 0.09282,0.593647 l -1.431002,0.188889 -3.014774,0.397049 a 1.9801979,1.9736841 0 0 0 0.392593,-1.179589 1.9801979,1.9736841 0 0 0 -1.980198,-1.973684 1.9801979,1.9736841 0 0 0 -1.643719,0.871196 l -0.930151,-1.435932 a 1.9801979,1.9736841 0 0 0 0.593672,-1.408948 1.9801979,1.9736841 0 0 0 -1.980198,-1.973684 1.9801979,1.9736841 0 0 0 -0.0097,0 1.9801979,1.9736841 0 0 0 -0.707765,0.13492 l -1.268534,-1.960192 a 1.9801979,1.9736841 0 0 0 0.0058,-0.148412 1.9801979,1.9736841 0 0 0 -1.301438,-1.852257 l -5.257968,-8.11639 a 1.9801979,1.9736841 0 0 0 0.618812,0.100226 1.9801979,1.9736841 0 0 0 1.980198,-1.973685 1.9801979,1.9736841 0 0 0 -1.980198,-1.973684 1.9801979,1.9736841 0 0 0 -0.0097,0 1.9801979,1.9736841 0 0 0 -1.958926,1.761667 L 62.635365,22.71343 a 1.9801979,1.9736841 0 0 0 1.226021,-1.825272 1.9801979,1.9736841 0 0 0 -1.980198,-1.973684 1.9801979,1.9736841 0 0 0 -1.357519,0.539679 l -0.937886,-1.447497 a 1.9801979,1.9736841 0 0 0 0,-0.002 1.9801979,1.9736841 0 0 0 0.251392,-0.570471 z m 9.964805,1.480263 a 1.9801979,1.9736841 0 0 0 -1.980198,1.973684 1.9801979,1.9736841 0 0 0 1.980198,1.973684 1.9801979,1.9736841 0 0 0 1.980198,-1.973684 1.9801979,1.9736841 0 0 0 -1.980198,-1.973684 z m 7.920792,0 a 1.9801979,1.9736841 0 0 0 -1.980198,1.973684 1.9801979,1.9736841 0 0 0 1.980198,1.973684 1.9801979,1.9736841 0 0 0 1.980198,-1.973684 1.9801979,1.9736841 0 0 0 -1.980198,-1.973684 z m 7.920792,0 a 1.9801979,1.9736841 0 0 0 -1.980198,1.973684 1.9801979,1.9736841 0 0 0 1.980198,1.973684 1.9801979,1.9736841 0 0 0 1.980198,-1.973684 1.9801979,1.9736841 0 0 0 -1.980198,-1.973684 z m -28.900448,0.163831 0.978496,1.509174 -11.801903,11.763081 -1.090656,-1.395456 c 5.288575,-5.271552 8.354456,-8.328597 11.914063,-11.876799 z M 8.9012222,21.225458 a 2.4752475,2.4671053 0 0 0 -2.4752475,2.467105 2.4752475,2.4671053 0 0 0 2.4752475,2.467105 2.4752475,2.4671053 0 0 0 2.4752468,-2.467105 2.4752475,2.4671053 0 0 0 -2.4752468,-2.467105 z m 49.9187808,1.058156 0.978496,1.509174 -11.558246,11.520226 -1.092589,-1.395456 z m 14.932704,0.578228 a 1.9801979,1.9736841 0 0 0 -1.970529,1.973684 1.9801979,1.9736841 0 0 0 1.980198,1.973685 1.9801979,1.9736841 0 0 0 1.980198,-1.973685 1.9801979,1.9736841 0 0 0 -1.980198,-1.973684 1.9801979,1.9736841 0 0 0 -0.0097,0 z m 7.920792,0 a 1.9801979,1.9736841 0 0 0 -1.970529,1.973684 1.9801979,1.9736841 0 0 0 1.980198,1.973685 1.9801979,1.9736841 0 0 0 1.980198,-1.973685 1.9801979,1.9736841 0 0 0 -1.980198,-1.973684 1.9801979,1.9736841 0 0 0 -0.0097,0 z m 7.920792,0 a 1.9801979,1.9736841 0 0 0 -1.970529,1.973684 1.9801979,1.9736841 0 0 0 1.980198,1.973685 1.9801979,1.9736841 0 0 0 1.980198,-1.973685 1.9801979,1.9736841 0 0 0 -1.980198,-1.973684 1.9801979,1.9736841 0 0 0 -0.0097,0 z m -28.697401,2.627081 0.976563,1.511102 -11.312655,11.275443 -1.092589,-1.395457 z m -47.045173,0.670745 a 2.4752475,2.4671053 0 0 0 -2.475248,2.467105 2.4752475,2.4671053 0 0 0 2.475248,2.467106 2.4752475,2.4671053 0 0 0 2.475247,-2.467106 2.4752475,2.4671053 0 0 0 -2.475247,-2.467105 z m 55.940594,0.649543 a 1.9801979,1.9736841 0 0 0 -1.970529,1.973684 1.9801979,1.9736841 0 0 0 1.980198,1.973684 1.9801979,1.9736841 0 0 0 1.980198,-1.973684 1.9801979,1.9736841 0 0 0 -1.980198,-1.973684 1.9801979,1.9736841 0 0 0 -0.0097,0 z m 7.920792,0 a 1.9801979,1.9736841 0 0 0 -1.970529,1.973684 1.9801979,1.9736841 0 0 0 1.980198,1.973684 1.9801979,1.9736841 0 0 0 1.980198,-1.973684 1.9801979,1.9736841 0 0 0 -1.980198,-1.973684 1.9801979,1.9736841 0 0 0 -0.0097,0 z m 7.920792,0 a 1.9801979,1.9736841 0 0 0 -1.970529,1.973684 1.9801979,1.9736841 0 0 0 1.980198,1.973684 1.9801979,1.9736841 0 0 0 1.980198,-1.973684 1.9801979,1.9736841 0 0 0 -1.980198,-1.973684 1.9801979,1.9736841 0 0 0 -0.0097,0 z m -22.662051,1.886949 0.864403,1.331852 0.114094,0.177323 -11.070932,11.034514 -1.092589,-1.395457 z m 10.780863,2.060419 a 1.9801979,1.9736841 0 0 0 -1.970529,1.973684 1.9801979,1.9736841 0 0 0 1.980198,1.973684 1.9801979,1.9736841 0 0 0 1.980198,-1.973684 1.9801979,1.9736841 0 0 0 -1.980198,-1.973684 1.9801979,1.9736841 0 0 0 -0.0097,0 z m 7.920792,0 a 1.9801979,1.9736841 0 0 0 -1.970529,1.973684 1.9801979,1.9736841 0 0 0 1.980198,1.973684 1.9801979,1.9736841 0 0 0 1.980198,-1.973684 1.9801979,1.9736841 0 0 0 -1.980198,-1.973684 1.9801979,1.9736841 0 0 0 -0.0097,0 z m 7.920792,0 a 1.9801979,1.9736841 0 0 0 -1.970529,1.973684 1.9801979,1.9736841 0 0 0 1.980198,1.973684 1.9801979,1.9736841 0 0 0 1.980198,-1.973684 1.9801979,1.9736841 0 0 0 -1.980198,-1.973684 1.9801979,1.9736841 0 0 0 -0.0097,0 z m -80.6930688,0.3373 a 2.4752475,2.4671053 0 0 0 -2.4752475,2.467105 2.4752475,2.4671053 0 0 0 2.4752475,2.467105 2.4752475,2.4671053 0 0 0 2.4752468,-2.467105 2.4752475,2.4671053 0 0 0 -2.4752468,-2.467105 z m 9.9009898,0 a 2.4752475,2.4671053 0 0 0 -2.475248,2.467105 2.4752475,2.4671053 0 0 0 2.475248,2.467105 2.4752475,2.4671053 0 0 0 2.475247,-2.467105 2.4752475,2.4671053 0 0 0 -2.475247,-2.467105 z m 46.24652,0.807591 0.193378,0.298751 0.783184,1.210423 -10.827274,10.791659 -1.090656,-1.395456 z m 12.664371,2.802477 a 1.9801979,1.9736841 0 0 0 -1.970529,1.973685 1.9801979,1.9736841 0 0 0 1.980198,1.973684 1.9801979,1.9736841 0 0 0 1.980198,-1.973684 1.9801979,1.9736841 0 0 0 -1.980198,-1.973685 1.9801979,1.9736841 0 0 0 -0.0097,0 z m 7.920792,0 a 1.9801979,1.9736841 0 0 0 -1.970529,1.973685 1.9801979,1.9736841 0 0 0 1.980198,1.973684 1.9801979,1.9736841 0 0 0 1.980198,-1.973684 1.9801979,1.9736841 0 0 0 -1.980198,-1.973685 1.9801979,1.9736841 0 0 0 -0.0097,0 z m -18.508276,0.402832 0.386757,0.597503 0.589805,0.911672 L 57.518564,47.164756 56.427909,45.7693 Z m -53.273902,0.92131 a 2.4752475,2.4671053 0 0 0 -2.475248,2.467105 2.4752475,2.4671053 0 0 0 2.475248,2.467106 2.4752475,2.4671053 0 0 0 2.475247,-2.467106 2.4752475,2.4671053 0 0 0 -2.475247,-2.467105 z m 55.348855,2.284 0.978496,1.509174 -10.339959,10.305947 -1.09259,-1.395456 z m 12.472927,0.339227 A 1.9801979,1.9736841 0 0 0 79.70297,40.625 a 1.9801979,1.9736841 0 0 0 1.980198,1.973684 1.9801979,1.9736841 0 0 0 1.980198,-1.973684 1.9801979,1.9736841 0 0 0 -1.980198,-1.973684 1.9801979,1.9736841 0 0 0 -0.0097,0 z m 7.920792,0 A 1.9801979,1.9736841 0 0 0 87.623762,40.625 1.9801979,1.9736841 0 0 0 89.60396,42.598684 1.9801979,1.9736841 0 0 0 91.584158,40.625 1.9801979,1.9736841 0 0 0 89.60396,38.651316 a 1.9801979,1.9736841 0 0 0 -0.0097,0 z M 8.8296721,40.9623 A 2.4752475,2.4671053 0 0 0 6.4259747,43.429405 2.4752475,2.4671053 0 0 0 8.9012222,45.89651 2.4752475,2.4671053 0 0 0 11.376469,43.429405 2.4752475,2.4671053 0 0 0 8.9012222,40.9623 a 2.4752475,2.4671053 0 0 0 -0.07155,0 z m 62.4477869,0.555098 0.978497,1.509175 -10.096303,10.06309 -1.09259,-1.395455 z m -37.807471,3.033769 a 5.5195138,5.5013575 0 0 1 0.02127,0 5.5195138,5.5013575 0 0 1 5.519029,5.500873 5.5195138,5.5013575 0 0 1 -5.519029,5.500874 5.5195138,5.5013575 0 0 1 -5.519028,-5.500874 5.5195138,5.5013575 0 0 1 5.497757,-5.500873 z m 39.88436,0.171541 0.976562,1.511102 -2.394029,2.386152 -5.5403,3.037625 z M 13.780167,45.89651 a 2.4752475,2.4671053 0 0 0 -2.403698,2.467105 2.4752475,2.4671053 0 0 0 2.475248,2.467106 2.4752475,2.4671053 0 0 0 2.475247,-2.467106 2.4752475,2.4671053 0 0 0 -2.475247,-2.467105 2.4752475,2.4671053 0 0 0 -0.07155,0 z m 81.269338,0.765189 v 1.108269 l -0.982364,-0.979132 z m -3.455677,0.456799 3.455677,3.44431 v 2.482526 l -5.656328,-5.637722 0.632349,-0.08288 z m -4.67203,0.616776 8.127707,8.100971 v 2.484453 C 91.01736,54.301816 86.182947,49.483306 84.721148,48.026316 Z m -4.673964,0.616777 12.801671,12.75956 v 2.484452 L 80.047184,48.643092 Z m -4.673964,0.616776 c 2.298283,2.290722 10.191764,10.158237 17.475635,17.418149 v 2.484452 L 75.926284,49.811112 77.428837,48.988101 Z m -3.453743,1.832982 20.929378,20.860532 v 2.484452 L 72.51315,51.682643 Z m -3.415069,1.87153 24.344447,24.264367 v 2.484452 L 69.098081,53.556101 Z M 6.4994585,53.103156 8.2650061,53.82594 4.950495,57.129548 v -2.482524 z m 60.7924665,1.441715 27.75758,27.668199 v 0.352719 H 92.91267 L 65.684948,55.427632 Z m -57.042853,0.09638 0.07155,0.02891 1.692063,0.695801 -7.0621901,7.038959 v -2.482524 z m 3.749613,1.538086 1.36332,0.56088 0.400294,0.163832 -10.811804,10.776235 v -2.482525 z m 49.880105,0.238996 c 8.381057,8.353833 18.259277,18.200639 26.231823,26.147461 H 87.619895 L 62.480662,57.509252 63.163289,56.809596 Z m -46.132426,1.299085 1.407797,0.578228 0.214651,0.289115 -14.418317,14.370888 v -2.482525 c 4.1746583,-4.16146 8.076012,-8.051168 12.795869,-12.755706 z m 43.353575,1.20657 23.719832,23.641806 H 82.32712 L 59.87005,60.182591 Z m -40.536047,1.260535 1.063583,1.424369 -16.67698,16.622122 v -2.484452 z m 37.925434,1.412804 21.03767,20.968467 H 77.034345 L 57.26137,62.857859 Z M 22.822555,63.208651 23.886139,64.633018 5.8941832,82.565789 H 4.950495 V 81.021921 Z M 55.880647,64.27259 74.23422,82.565789 H 71.741568 L 54.652692,65.531198 v -0.002 z m -30.799428,1.960192 0.249458,0.335371 0.812191,1.088996 -14.95591,14.90864 H 8.6943069 Z m 28.629719,1.150673 15.230507,15.182334 H 66.450727 L 52.873608,69.033331 c 0.181699,-0.356483 0.730089,-1.439609 0.83733,-1.649876 z M 27.575804,69.021767 29.617883,69.46893 16.4778,82.565789 h -2.490718 z m 4.339419,0.950221 2.042079,0.447163 -12.186727,12.146638 h -2.490718 z m 20.01663,0.913599 11.716816,11.680202 H 61.157951 L 51.094524,72.535465 c 0.306426,-0.602202 0.584001,-1.152451 0.837329,-1.649878 z m -17.011525,1.364619 -3.101794,5.576043 -4.755184,4.73954 h -2.492651 z m 15.232441,2.137515 8.205059,8.178068 h -2.492652 l -6.55167,-6.530119 c 0.385614,-0.759555 0.48536,-0.951671 0.839263,-1.647949 z m -1.779084,3.502133 4.691367,4.675935 h -2.492651 l -3.037979,-3.027985 c 0.419633,-0.829287 0.429999,-0.840537 0.839263,-1.64795 z m -1.775217,3.505988 1.173809,1.169947 h -1.76168 c 0.191707,-0.382352 0.376141,-0.750742 0.587871,-1.169947 z" />
</svg>
