<?xml version="1.0" encoding="UTF-8" standalone="no"?>
<svg
   xmlns:dc="http://purl.org/dc/elements/1.1/"
   xmlns:cc="http://creativecommons.org/ns#"
   xmlns:rdf="http://www.w3.org/1999/02/22-rdf-syntax-ns#"
   xmlns:svg="http://www.w3.org/2000/svg"
   xmlns="http://www.w3.org/2000/svg"
   xmlns:sodipodi="http://sodipodi.sourceforge.net/DTD/sodipodi-0.dtd"
   xmlns:inkscape="http://www.inkscape.org/namespaces/inkscape"
   version="1.1"
   width="100"
   height="100"
   id="svg4460"
   sodipodi:docname="uEA6D-story-map.svg"
   inkscape:version="1.0 (4035a4fb49, 2020-05-01)">
  <sodipodi:namedview
     pagecolor="#ffffff"
     bordercolor="#666666"
     borderopacity="1"
     objecttolerance="10"
     gridtolerance="10"
     guidetolerance="10"
     inkscape:pageopacity="0"
     inkscape:pageshadow="2"
     inkscape:window-width="1920"
     inkscape:window-height="1017"
     id="namedview11"
     showgrid="false"
     inkscape:zoom="7.9999999"
     inkscape:cx="85.844673"
     inkscape:cy="36.111886"
     inkscape:window-x="-8"
     inkscape:window-y="-8"
     inkscape:window-maximized="1"
     inkscape:current-layer="svg4460"
     inkscape:document-rotation="0" />
  <defs
     id="defs4462" />
  <metadata
     id="metadata4465">
    <rdf:RDF>
      <cc:Work
         rdf:about="">
        <dc:format>image/svg+xml</dc:format>
        <dc:type
           rdf:resource="http://purl.org/dc/dcmitype/StillImage" />
        <dc:title />
      </cc:Work>
    </rdf:RDF>
  </metadata>
  <path
     id="path1223"
     style="color:#000000;overflow:visible;fill:#000080;fill-opacity:1;stroke:none;stroke-width:8.30041;stroke-linecap:round;stroke-linejoin:round;stroke-miterlimit:4;stroke-dasharray:none;stroke-dashoffset:20;stroke-opacity:1"
     d="m 50,3.1816406 c -27.371294,0 -50.00000021104091,18.8041784 -50,42.5000004 0,11.891622 5.7111793,22.540624 14.849609,30.208984 -0.03145,0.122741 -0.05147,0.222669 -0.08398,0.347656 -2.804988,8.915267 -9.698487,15.068102 -13.5175781,17.273438 -2.3944205,1.3796 -1.11143093,5.050805 1.6210937,4.638672 C 10.359415,97.026984 22.782435,93.76458 32.974609,85.630859 38.302843,87.274591 44.035031,88.181641 50,88.181641 c 27.371294,0 50,-18.804179 50,-42.5 C 100,21.985819 77.371294,3.1816406 50,3.1816406 Z m -5.957031,5.9179688 c 0.0801,-0.00699 0.224715,0.037767 0.474609,0.1601562 0.728482,0.102543 2.727055,-0.2880693 2.166016,0.9003904 1.430267,0.302449 2.821758,-0.5902297 4.28125,-0.1874998 1.29881,0.2778998 2.830157,0.6695678 3.662109,1.6425778 0.517307,0.24504 -1.894035,-0.782556 -1.386719,0.324219 0.580024,1.183427 2.186889,1.044864 3.216797,0.453125 1.369442,-0.189115 0.224589,1.195252 1.154297,1.544922 -0.901793,0.08826 -2.284928,0.758088 -3.492187,0.824219 -1.092075,-0.02236 -0.889105,0.959867 0.08594,0.904297 1.101078,0.259959 2.688832,-0.523653 3.076172,0.898437 0.918672,0.225633 0.855864,1.274244 0.244141,1.558594 0.422589,0.577799 1.233818,1.06878 0.798828,1.664062 -0.557281,1.057555 -1.850672,0.868654 -3.056641,1.050782 -1.123292,0.08037 -2.360665,-0.809522 -3.408203,-0.01172 -1.227357,0.721089 -1.308669,2.285402 -2.566406,2.953125 -0.914408,1.410847 -0.322635,2.139386 0.160156,2.570312 0.800813,0.275573 2.636014,0.11355 3.558594,-0.580078 0.09254,-0.573592 -0.140047,-1.257717 -0.22461,-1.662109 0.239096,0.189956 0.30939,0.317631 0.304688,0.398437 0.02589,0.27087 0.470194,0.473846 0.517578,0.521485 0.589094,0.342486 -0.06473,1.394508 -0.09766,1.648437 -1.160962,-0.105254 -2.398514,0.06877 -3.597657,0.150391 0.103398,0.531827 -1.275866,1.010937 -1.216796,1.041016 -1.255123,-0.225706 -1.83553,0.25909 -2.671875,0.841796 -0.05887,0.0233 -0.732422,0.210938 -0.732422,0.210938 0.07742,0.08337 -0.22395,0.466559 -0.09961,0.453125 1.588417,-0.171626 1.738581,0.699278 1.683594,1.494141 -0.670398,0.93088 -3.523013,-0.524409 -2.994141,1.457031 -0.234355,0.960983 -0.804578,2.529268 0.94336,2.371093 h 0.002 c 0,0 0.921679,-0.21289 0.988281,-0.21289 0.0666,0 2.113281,-0.775391 2.113282,-0.775391 l 0.05859,-0.0039 c 0.01463,-0.122778 0.09469,-0.290663 0.273438,-0.527344 0.47466,-0.665391 1.384975,-1.265563 2.300781,-1.263672 -0.440034,0.472855 0.457493,1.469722 0.257812,1.828125 l 0.855469,0.06641 c 0.208461,-0.173256 0.225664,-0.297871 0.353516,-0.466797 0.13471,-0.147984 -0.326769,-0.962174 -0.185547,-1.019532 0.02017,-0.0082 0.05318,-0.0035 0.101562,0.02344 0.59697,0.272631 2.365995,1.274233 0.792969,1.378906 0.03216,1.08753 0.191168,0.624878 1.119141,0.890625 0.526698,-0.0258 0.739556,-1.296644 1.298828,-1.386719 0.0799,-0.01286 0.165767,-6.76e-4 0.261719,0.04102 0.217951,0.260735 0.476815,0.567021 0.763672,0.855469 0.3893,0.277436 1.009174,0.213281 1.482421,-0.160156 0.246986,-0.347844 -0.236927,-1.072921 -0.167968,-1.050782 0.203817,0.271306 0.718554,0.883047 0.767578,1.138672 0.784616,0.597346 1.792378,0.452749 2.539062,0.820313 0.677276,-0.190256 1.613912,-0.0021 0.84961,0.707031 -1.164043,0.161095 -2.462396,0.353131 -3.617188,-0.03125 -0.962012,-0.437136 -2.11916,-0.208994 -2.433594,0.746094 C 54.704491,35.90879 53.619859,35.558838 52.68559,35.13478 49.902762,33.728809 47.173714,34.235284 44.599652,34.91017 l 0.226563,-0.214844 c -0.590396,0.645537 -1.612804,1.132565 -1.802734,2.152344 -0.820803,0.837993 -2.085395,1.214429 -2.625,2.375 -1.177755,0.920574 -0.341893,2.202677 -0.679688,3.335938 -0.570658,0.490006 -0.972802,0.972033 -0.232422,1.570312 0.284415,1.031146 1.610987,3.415037 1.976563,4.457032 1.102427,0.754167 2.34856,1.893067 3.851562,1.197265 1.395742,0.158749 2.683697,-0.271382 3.929688,-0.583984 0.77044,0.573319 1.57847,0.850401 2.529297,0.96875 0.365991,0.999267 -0.713212,2.348519 0.751953,3.039062 0.866676,0.991921 1.426727,2.428368 1.023437,3.640625 -0.909762,0.980913 -1.044382,2.3955 -0.177734,3.439453 0.796684,1.195963 0.232531,2.696037 1.234375,3.861329 0.651354,0.715778 -0.236425,2.689101 1.322265,2.513671 1.195893,-0.5513 2.692511,0.140834 3.785157,-0.695312 0.968995,-0.719663 2.071273,-1.407856 2.564453,-2.460938 0.653442,-0.920013 2.076634,-1.253237 1.697265,-2.570312 -0.02837,-1.529575 2.491438,-1.115404 2.742188,-2.59375 0.708948,-1.469778 -0.477987,-2.954036 -0.160156,-4.435547 0.673272,-1.261208 1.782989,-4.221057 2.982421,-5.117188 1.343976,-1.274607 2.012375,-3.045053 1.982422,-4.779296 -0.890151,-0.963759 -2.446657,0.944163 -3.115234,0.273437 l -2.248047,-1.990234 0.0059,-0.002 c -0.428425,-0.332419 -0.992789,-1.036627 -1.050781,-1.31836 -0.198338,-0.398369 -0.414473,-0.794852 -0.791015,-1.291015 -0.376539,-0.496162 -1.586764,-1.941685 -1.396485,-1.757813 0.538202,0.567124 1.135956,1.231718 1.738281,1.898438 0.602325,0.666721 1.117133,1.606455 1.966797,2.279296 1.98573,1.911038 2.847428,1.738392 4.777344,0.476563 0.817225,-0.783537 2.052415,-1.272588 2.232422,-2.453125 0.478998,-0.887986 -0.117449,-1.769099 -0.84375,-2.152344 -0.808084,-0.130859 -1.626453,0.0572 -2.529297,-0.130859 -0.442847,-0.524603 -1.190531,-0.91531 -1.703125,-1.277344 -0.02332,-0.05038 -0.09625,-0.12401 -0.191406,-0.259765 -0.06229,-0.05805 -0.05588,-0.06813 -0.03125,-0.06641 0.02463,0.0017 0.06673,0.01449 0.07422,0.0039 0.114961,0.0842 0.182767,0.156959 0.216796,0.18164 l 1.332032,0.765625 c 0.745091,0.589703 1.698047,0.461723 2.660156,0.556641 1.333629,0.07354 3.076343,-0.692054 3.990234,0.601562 0.43961,1.063675 2.34053,0.903669 2.294922,2.300782 0.749745,1.457059 1.693211,2.859582 2.251953,4.375 0.401136,0.768855 1.453182,0.445922 1.455079,1.332031 1.194461,0.981158 1.796856,-0.954303 0.958984,-1.646485 -0.672039,-1.237731 -1.284344,-2.680566 -0.833984,-4.042968 0.735743,-1.010579 0.347506,-2.490393 1.355468,-3.316407 1.568842,0.117453 1.498866,1.875308 2.302735,2.722657 1.649424,0.08189 1.676615,1.905057 1.992187,3.013672 -0.351762,1.134027 1.148324,2.227733 0.990234,3.126953 -0.765534,-1.044096 -2.136632,0.123256 -1.171874,0.93164 1.00148,1.149064 1.217306,2.624477 1.626953,3.994141 0.198471,1.104377 0.798871,2.115969 1.068359,3.183594 0.208798,1.085797 1.327289,1.603509 2.128906,2.318359 -1.751803,4.769013 -4.616662,9.149453 -8.351922,12.918332 -5.297097,4.694801 -18.98239,11.624244 -21.782843,8.483135 0.187759,-0.924377 -1.37815,-0.782131 -0.916016,-1.652343 -0.964651,-1.004822 -4.519773,0.25902 -5.769531,0.103515 -1.029578,-0.105695 -1.772902,-0.45248 -2.736328,-0.0039 -1.153653,-0.06515 -2.234842,-0.47599 -3.396485,-0.474609 -0.165948,1.97e-4 -0.334253,0.0081 -0.503906,0.02734 -1.319807,0.313813 -2.67609,0.298143 -4.003906,0.521485 -1.014626,0.462256 -0.787979,1.997586 -2.060547,2.160156 -0.128828,0.886101 -1.005431,1.04085 -1.689453,0.824219 -0.415065,0.409014 0.611631,1.358538 -0.47461,0.908203 -0.433869,-0.154053 -0.719702,-0.03484 -0.632812,0.132812 0.0093,0.0016 -0.120829,0.223758 -0.208985,0.38086 -0.07575,-0.01356 -0.152913,-0.02324 -0.228515,-0.03711 -0.223829,-0.300915 -0.665028,-0.872763 -0.623047,-0.990234 -0.674325,-0.571323 -0.968252,-0.309577 -2.009766,0.05557 -0.738807,-0.746531 -2.713166,-0.622795 -2.580078,-1.935547 -0.143281,-1.09834 -0.452273,-0.784133 -0.960937,-0.986328 -0.903841,1.130839 0.109978,2.354376 0.783203,3.248047 0.270439,0.395987 0.585431,0.711904 -0.31836,0.595703 -3.263767,-0.97042 -2.540491,-0.948079 -4.957031,0.894531 -5.460132,4.267587 -11.696806,7.038939 -17.367187,8.847656 2.936082,-3.375403 5.662958,-7.706063 7.310547,-12.976562 1.26522,-3.74735 1.354981,-3.223102 -1.300782,-5.439453 C 10.046817,65.420995 5,55.99334 5,45.681641 c 0,-3.752297 0.6782065,-7.384332 1.2281839,-8.64048 0.5499775,-1.256149 -0.2657256,2.308765 2.2640034,3.128767 0.7376567,0.321058 0.4448905,1.347847 1.2773437,1.804687 1.096346,0.904541 0.373519,2.229826 1.31836,3.177735 0.303171,0.656873 0.674117,1.143595 1.466797,0.730468 1.33125,0.466932 0.07554,2.25216 -0.47461,3.054688 -0.868364,1.049433 -0.04295,2.352834 -0.527344,3.474609 0.369853,1.44602 1.649003,2.531509 2.179688,3.927735 0.378992,1.406136 1.764994,2.024959 2.978516,2.75 1.015211,0.928458 0.976482,2.307081 1.455078,3.46289 0.396469,1.188797 0.69263,2.410554 1.384765,3.498047 0.634522,1.270479 0.804836,2.693323 1.763672,3.830078 0.746463,1.005287 1.495763,2.003398 2.134766,3.066407 0.653052,0.765124 1.573574,1.389623 2.058593,2.253906 1.27462,0.38751 3.111426,1.399889 4.234376,0.304687 0.45538,-1.274454 -1.365442,-0.730242 -1.94336,-1.537109 -1.238506,-0.585914 -0.29431,-2.226868 -1.873047,-2.464844 0.386904,-0.502441 -0.478818,-1.010728 -0.15039,-1.730468 -0.222209,-0.624852 -0.663208,-1.532126 0.357421,-1.759766 0.598643,-0.761866 -0.44243,-1.735599 0.619141,-2.267578 0.333894,-1.234767 0.899148,-2.467561 0.730469,-3.757813 -0.358422,-1.624833 2.196501,-1.130143 2.453125,-2.511719 0.565449,-1.22119 0.191283,-2.540317 0.400391,-3.798828 0.622082,-1.130754 2.17044,-2.459815 1.035156,-3.765625 -1.202613,-0.935459 -2.756322,-1.263873 -4.171875,-1.699218 -0.922562,-0.647764 -2.784201,-0.347773 -2.480469,-1.726563 -0.253912,-1.362259 -1.65448,-1.893464 -2.958984,-2.238281 -1.217734,-0.354566 -0.881054,-1.716107 -1.501954,-2.298828 -3.080002,-0.68839 -2.928482,-0.480642 -3.482421,-1.052735 -0.849782,-0.333199 -1.313106,-0.03132 -2.0625,0.28711 -0.286596,0.56968 -0.953942,0.849868 -1.671875,0.892578 -1.73937,0.354616 -0.719381,-1.87792 -0.361328,-2.621094 0.385149,-0.931716 -1.178159,-1.390222 -1.314454,-1.484375 0.492126,-1.057333 1.115363,-2.956641 2.822266,-2.152344 0.581885,0.256204 0.477244,0.746436 0.304688,1.095703 1.589016,0.239157 1.478426,1.345713 2.460937,2.025391 0.600689,-0.725802 2.955879,0.805056 2.388672,-0.755859 -1.059598,-0.791154 -2.480362,-1.055636 -3.333985,-2.138672 -0.412008,-1.148035 1.668403,-2.006647 0.84375,-3.232422 -0.359397,-0.64356 -0.680072,0.416072 -0.371093,-0.488281 0.122006,-1.396192 1.573281,-2.085731 2.910156,-2.388672 1.070899,-0.781006 1.660805,-2.232073 3.265625,-2.275391 1.175019,0.107156 1.348332,-1.719492 2.394531,-0.609375 0.933949,-0.03884 2.394418,-0.06166 3.023438,-0.833984 0.274603,0.05369 1.963316,1.290616 2.460937,0.0918 0.433868,-0.678554 -0.327867,-1.653408 0.691406,-2.083985 0.350357,-1.234142 -0.119387,-2.593342 0.955079,-3.65039 0.756464,-1.03774 2.164476,-1.323687 3.347656,-1.806641 0.605671,-0.4227 -0.118366,-0.96218 0.699219,-1.341797 0.724451,-0.768408 0.986706,-2.103934 2.257812,-2.205078 0.766778,-0.438866 0.366372,0.179731 0.589844,0.394531 0.832113,1.112068 -1.433551,1.528631 -1.845703,2.427735 -1.120634,0.893977 -2.40026,2.086559 -2.109375,3.544922 0.710209,1.71751 2.359077,-0.04274 3.203125,-0.679688 1.753061,-0.567694 3.6072,-0.820055 5.380859,-1.316406 0.732933,-0.348702 0.328764,-1.105589 1.169922,-1.498047 0.746417,-0.733854 0.855355,-1.845883 1.966797,-2.117188 0.25855,-1.380234 -1.653726,-1.661563 -2.792969,-1.6875 -0.299917,-1.252167 -1.880636,-1.127739 -2.923828,-1.589843 0.95614,-0.381431 -1.121696,-0.350135 -0.460938,-0.828125 -0.651887,-0.06583 -1.331587,-0.958211 -1.958984,-0.357422 -0.241162,-0.315336 -2.58517,-0.0021 -1.640625,-1.115234 2.069279,-1.239448 4.896996,-0.934739 6.755859,-2.5136724 0.308332,-0.2742208 -0.01765,-0.7641924 0.222657,-0.7851562 z M 61.240234,9.359375 c 1.898598,0.4061459 3.741448,0.919942 5.53125,1.519531 -0.523013,-0.04537 -0.992833,-0.05864 -1.289062,0.0332 C 64.880468,11.098739 63.250508,10.739669 62.078125,9.75 61.837343,9.6544925 61.483883,9.504772 61.240234,9.359375 Z m 16.003907,6.478516 c 1.689761,1.074848 3.283359,2.247455 4.771484,3.505859 0.02493,0.102228 0.04091,0.207044 0.03711,0.320312 -1.591725,-0.418859 -2.477047,-1.838413 -3.734375,-2.703124 -0.364977,-0.367527 -0.723707,-0.741519 -1.074219,-1.123047 z m -25,0.912109 c -0.136547,-0.0064 -0.257944,0.01315 -0.332032,0.06055 -0.471851,0.275248 -0.745438,1.488356 0.154297,0.917969 0.491102,0.240692 1.644813,0.276804 0.888672,-0.394532 0.237897,-0.32396 -0.301295,-0.564536 -0.710937,-0.583987 z m 3.376953,0.203125 c -0.07581,0.0059 -0.160186,0.02172 -0.251953,0.04883 -0.799719,1.066402 0.144692,2.501917 1.230468,3.064453 0.815764,0.470814 2.1739,-0.648066 0.816407,-0.888672 -1.203867,-0.156202 -0.657821,-2.313443 -1.794922,-2.224609 z m -5.367188,0.515625 c -0.08656,-0.0066 -0.17745,-0.0014 -0.277344,0.01172 l -0.152343,-0.0078 c -1.514739,0.136646 -1.554171,1.878406 0.0039,1.994141 1.530545,0.27153 1.726217,-1.897714 0.427734,-1.998047 z m -12.820312,0.06836 c 0.01347,-0.0074 0.03363,-0.0023 0.05664,0.0332 -0.08789,0.134662 -0.09705,-0.01105 -0.05664,-0.0332 z m -4.84375,1.472657 c 0.525501,0.06022 0.508725,0.566471 -0.181641,0.238281 -0.279414,0.05059 -0.563661,-0.166011 -0.07617,-0.232422 0.0969,-0.0133 0.182741,-0.01402 0.257813,-0.0059 z m -3.044922,0.03516 c 0.08933,-0.0074 0.178756,-0.0037 0.261719,0.0332 -0.368946,0.798981 0.321911,1.748598 -0.916016,2.1875 -0.716281,0.370539 -1.990126,1.988719 -2.246094,0.433594 -0.08416,-1.331173 1.149629,-2.522837 2.634766,-2.626953 0.08686,-8.43e-4 0.17629,-0.02001 0.265625,-0.02734 z m 2.367187,2.748047 c -0.01424,0.660893 -0.939734,0.05504 0,0 z m 51.251953,0.412109 c 0.512706,0.375218 1.448814,0.928843 1.642579,0.421875 0.182226,0.251639 0.792097,0.536967 1.228515,0.613281 3.480151,3.879216 6.0797,8.328128 7.558594,13.134766 -0.427088,-0.811911 -0.349663,-1.834573 -1.138672,-2.464844 -1.584875,0.467562 0.0032,2.121091 0.0957,3.080078 0.726842,0.966181 0.76602,1.715249 1.44336,2.738282 -0.531825,0.968873 -0.471714,2.409054 0.01758,3.298828 0.762383,-0.02538 0.598038,-1.411551 0.763672,-1.085938 0.098,0.818705 0.152179,1.646314 0.185547,2.478516 -0.150976,-0.303554 -0.352329,-0.584287 -0.664063,-0.769531 -1.184123,0.870258 -0.290376,2.47532 -1.222656,3.490234 -0.924534,0.728711 -0.996522,1.845413 -0.810547,2.861328 0.281149,0.891817 -0.07117,2.616243 1.230469,2.675781 0.107691,0.387626 0.291657,0.667641 0.550781,0.681641 -0.148325,0.591158 -0.312682,1.17674 -0.494141,1.757813 -0.253303,-0.611811 -0.448046,-1.253027 -1.271484,-1.111329 -0.795097,-1.110152 0.229365,-2.584099 -0.720703,-3.65625 -0.310515,-1.086226 0.169686,-2.151403 -0.263672,-3.208984 0,-1.406921 -1.138781,-2.401745 -1.681641,-3.634766 -0.378354,-0.545793 -0.452688,-2.463958 0.230469,-1.089843 0.40055,0.471193 0.822916,1.935525 1.289062,1.730468 0.562493,-1.410068 1.021548,-2.985193 0.382813,-4.439453 -0.01689,-1.084647 -1.77432,-2.069585 -1.669922,-2.783203 1.720498,-0.426195 -0.765985,-2.229474 0.07617,-3.24414 0.277754,-0.798829 -0.534261,-2.217172 0.746094,-1.683594 0.60271,-1.102494 -0.799626,-2.219054 -1.53125,-3.046875 -0.947544,-0.602765 -0.959258,-1.694557 -1.681641,-2.451172 -0.794862,-0.917761 -1.68267,-1.798664 -2.828125,-2.371094 -0.652096,-0.420908 -1.656428,-1.288869 -1.462891,-1.921875 z m -40.736328,0.03125 c -0.07697,0.0057 -0.155851,0.02462 -0.230468,0.05859 -0.225179,0.641552 -1.942274,0.257972 -0.847657,0.935547 0.638765,1.031434 2.563013,1.055545 3.408203,0.277343 0.417758,-0.972156 -0.846072,-1.41404 -1.646484,-1.134765 -0.216657,-0.0646 -0.452676,-0.153761 -0.683594,-0.136719 z m 4.095704,3.207031 c -0.584415,0.01901 -1.08053,0.374572 -1.042969,1.066407 -0.6872,0.433372 -2.169895,1.569876 -1.105469,2.158203 1.330487,-0.144058 2.173535,-0.564235 3.369141,-0.982422 l 0.158203,-0.554688 c -0.332014,-0.38473 -0.566929,-0.845637 -0.328125,-1.357421 -0.317401,-0.23053 -0.700135,-0.341483 -1.050781,-0.330079 z m -18.884766,1.605469 c 0.02781,0.01543 0.05387,0.04156 0.08398,0.04883 0.447542,0.635402 -1.393439,0.373253 -0.179687,-0.04297 0.03765,-0.02571 0.06788,-0.02129 0.0957,-0.0059 z m 37.351562,2.570313 c 0.273884,0.47274 1.88257,1.009267 1.472657,1.335937 -0.491151,-0.271237 -1.654143,-1.09056 -1.472657,-1.335937 z m -6.02539,0.578125 c 0.500542,1.247151 2.093182,-0.02532 2.957031,0.609375 0.520316,0.143483 0.990562,0.731906 0.07031,0.478515 -0.998866,-0.877118 -3.170794,1.155062 -3.382813,-0.259765 0.06063,-0.293048 0.224287,-0.557513 0.355469,-0.828125 z m 7.957031,1.441406 c 0.03964,-0.0038 0.08961,-3.9e-4 0.148437,0.01367 1.05809,0.07109 0.745971,1.308162 -0.101562,0.560547 -0.160646,-0.129945 -0.32433,-0.547304 -0.04687,-0.574219 z M 12.75,32.453125 l 0.119141,0.06055 c 0.156192,1.466376 2.237535,-0.270913 2.208984,1.228516 -0.139824,0.863863 -0.893864,1.991618 0.123047,2.71289 0.769842,0.55477 -0.362842,0.662389 -0.69336,0.138672 -0.910132,-0.456995 -1.633713,0.847202 -2.691406,0.269531 -1.105432,-0.368498 -1.378948,2.061107 -2.2773435,0.705078 -0.2165747,-0.951531 0.5254895,-1.859573 0.8867185,-2.742187 0.554076,-0.89033 1.075964,-1.927074 2.179688,-2.363281 z m 44.970703,1.847656 c -1.748922,0.395552 0.108811,0.660806 0.814453,0.66211 0.306053,-0.548453 -0.266839,-0.4832 -0.814453,-0.66211 z m -43.167969,5.015625 c -0.821302,0.01202 0.217616,1.294181 0.982422,1.123047 0.508763,-0.119468 0.161019,-0.332643 -0.08203,-0.78125 -0.110052,-0.122834 -0.263624,-0.19902 -0.427734,-0.261719 -0.199459,-0.05815 -0.355327,-0.0818 -0.472657,-0.08008 z m 57.113282,3.125 c -0.06076,0.0049 -0.136034,0.159413 0.04492,0.06055 -0.0075,-0.04607 -0.02466,-0.0622 -0.04492,-0.06055 z m 19.791015,7.832032 c 0.0603,-0.0065 0.131431,0.03929 0.03125,0.158203 -0.140992,-0.09258 -0.09155,-0.151617 -0.03125,-0.158203 z m -21.359375,6.472656 c -0.188328,0.308174 -0.542327,0.993082 -1.009765,0.55664 0.605783,1.376238 -2.42026,1.086377 -1.833985,2.611328 -0.304081,1.087561 -1.546275,2.512958 -0.357422,3.476563 1.469786,0.507581 1.994629,-0.940526 2.458985,-1.851563 0.517449,-0.927317 1.038166,-1.848932 1.595703,-2.757812 -0.119254,-0.63601 0.204763,-1.985127 -0.853516,-2.035156 z m -0.693359,15.699218 c -1.413351,0.206088 -0.640074,2.133879 0.496094,1.132813 0.147767,-0.370633 0.05098,-1.082867 -0.496094,-1.132813 z m -39.847656,0.25 c -1.610171,0.03536 -0.06971,2.324033 0.646484,0.863282 0.155604,-0.910531 -0.192313,-0.611057 -0.646484,-0.863282 z"
     sodipodi:nodetypes="sscccccsssccccccccccccccccccccccccccsccccscccccccscccsccccccccccccccccccccccccccccccccccccscscccccccccccccccccccccccccccccccsccccccccccccccccccscccccccccccccccccccccccccccccccccccccccccccccccccccccccccccccccsccsccccccccccccccccccccccccccccccccccccccccccccccccccccccccccccccccccccccccccsccccccsccscccccccccccccccccccccccccccccccccccccccccccscsccccccccccccc" />
</svg>
