<?xml version="1.0" encoding="UTF-8" standalone="no"?>
<svg
   xmlns:dc="http://purl.org/dc/elements/1.1/"
   xmlns:cc="http://creativecommons.org/ns#"
   xmlns:rdf="http://www.w3.org/1999/02/22-rdf-syntax-ns#"
   xmlns:svg="http://www.w3.org/2000/svg"
   xmlns="http://www.w3.org/2000/svg"
   xmlns:sodipodi="http://sodipodi.sourceforge.net/DTD/sodipodi-0.dtd"
   xmlns:inkscape="http://www.inkscape.org/namespaces/inkscape"
   inkscape:version="1.0 (4035a4fb49, 2020-05-01)"
   sodipodi:docname="uEA6B-pirate-map.svg"
   id="svg4460"
   height="100"
   width="100"
   version="1.1">
  <sodipodi:namedview
     inkscape:document-rotation="0"
     inkscape:current-layer="svg4460"
     inkscape:window-maximized="1"
     inkscape:window-y="-8"
     inkscape:window-x="-8"
     inkscape:cy="139.9801"
     inkscape:cx="209.59158"
     inkscape:zoom="2"
     showgrid="false"
     id="namedview11"
     inkscape:window-height="1017"
     inkscape:window-width="1920"
     inkscape:pageshadow="2"
     inkscape:pageopacity="0"
     guidetolerance="10"
     gridtolerance="10"
     objecttolerance="10"
     borderopacity="1"
     bordercolor="#666666"
     pagecolor="#ffffff" />
  <defs
     id="defs4462" />
  <metadata
     id="metadata4465">
    <rdf:RDF>
      <cc:Work
         rdf:about="">
        <dc:format>image/svg+xml</dc:format>
        <dc:type
           rdf:resource="http://purl.org/dc/dcmitype/StillImage" />
        <dc:title />
      </cc:Work>
    </rdf:RDF>
  </metadata>
  <path
     id="path869"
     style="color:#000000;font-style:normal;font-variant:normal;font-weight:normal;font-stretch:normal;font-size:medium;line-height:normal;font-family:sans-serif;font-variant-ligatures:normal;font-variant-position:normal;font-variant-caps:normal;font-variant-numeric:normal;font-variant-alternates:normal;font-variant-east-asian:normal;font-feature-settings:normal;font-variation-settings:normal;text-indent:0;text-align:start;text-decoration:none;text-decoration-line:none;text-decoration-style:solid;text-decoration-color:#000000;letter-spacing:normal;word-spacing:normal;text-transform:none;writing-mode:lr-tb;direction:ltr;text-orientation:mixed;dominant-baseline:auto;baseline-shift:baseline;text-anchor:start;white-space:normal;shape-padding:0;shape-margin:0;inline-size:0;clip-rule:nonzero;display:inline;overflow:visible;visibility:visible;isolation:auto;mix-blend-mode:normal;color-interpolation:sRGB;color-interpolation-filters:linearRGB;solid-color:#000000;solid-opacity:1;vector-effect:none;fill:#000080;fill-opacity:1;fill-rule:evenodd;stroke:none;stroke-width:0.0501538;stroke-linecap:butt;stroke-linejoin:miter;stroke-miterlimit:4;stroke-dasharray:none;stroke-dashoffset:0;stroke-opacity:1;color-rendering:auto;image-rendering:auto;shape-rendering:auto;text-rendering:auto;enable-background:accumulate;stop-color:#000000"
     d="M 32.424892,0.28371635 C 18.482127,5.8006363 10.256899,22.451706 16.074744,46.224616 c 0.501538,2.10647 4.31323,5.115696 4.614153,7.12185 0.200615,2.006152 -3.209847,3.009229 -3.310153,4.814767 -1e-6,3.611075 -0.601846,6.820921 -1.304001,9.729843 l -7.1218436,-1.70523 c -2.5076913,2.908923 -4.8147677,5.617229 -6.01846,8.526151 -0.8024605,2.106461 -1.3039995,4.614152 -0.2006149,7.021536 19.3593785,12.137227 52.1599835,18.055379 71.6196715,18.255994 2.908921,0.100313 3.911998,-0.501538 4.915075,-2.607999 0.300922,-0.702153 0.702153,-1.70523 1.103383,-2.908922 0.902769,-2.407384 1.805538,-5.717537 2.607999,-9.830151 0.702154,-4.012306 1.203692,-8.827074 1.003077,-13.842457 0,-2.607999 -6.519998,-4.513845 -6.319382,-7.222152 0.100307,-2.006153 5.416614,-4.814767 3.510769,-8.726766 -4.513846,-9.228304 -3.209847,-16.249844 -0.50154,-21.867074 2.608,-5.71753 7.924307,-10.63261 15.848612,-15.94891 2.307075,-1.60493 1.604922,-5.216 -1.203693,-5.71754 L 34.130122,0.08309635 c -0.601846,-0.20061 -1.203692,0 -1.70523,0.20062 z m 1.70523,6.21906995 53.263369,9.7298397 c -5.316306,4.21293 -9.930458,8.62646 -12.438149,14.04308 -3.410462,7.32246 -3.410461,14.84553 0.300922,25.377835 0.802462,2.407384 -5.817844,6.319383 -5.416613,8.626459 0.40123,2.407384 7.523073,5.617229 7.623381,7.924305 0.100309,4.513846 0,7.623383 -0.702153,11.334766 -0.601846,3.711383 -1.303999,6.820921 -2.307076,8.927382 -0.902769,1.504615 -3.41046,0.200615 -4.31323,-3.009231 -1.003077,-3.911998 -0.501539,-6.018459 1.70523,-9.027689 -16.550764,-1.404307 -33.101528,-4.814767 -49.652292,-11.033842 0.902768,-3.109538 1.504615,-4.915076 1.604923,-9.02769 0,-2.006153 3.410461,-2.206768 3.109537,-4.513845 -0.200616,-2.407384 -4.112614,-8.52615 -4.71446,-11.13415 -5.316307,-21.36553 1.604923,-33.70337 11.936611,-38.2172197 z m 6.419692,2.10646 -4.814768,4.0123097 c -2.006154,0 -3.912,1.00307 -5.216,2.50769 l -4.313229,1.00308 2.708307,2.80861 c -0.300923,2.20677 0.40123,4.51385 2.106462,6.01846 l -0.501539,6.01846 4.313229,-4.31323 c 2.206769,0.10031 4.413538,-0.80246 5.817844,-2.50769 l 3.711384,-0.50154 -2.006153,-3.31015 c 0.200615,-2.20677 -0.501539,-4.51385 -2.106461,-6.01846 z m -4.513845,8.2252297 c 0.200615,0 0.501537,0 0.702153,0.10031 1.504615,0.70215 1.905846,2.7083 1.103384,4.0123 -0.702153,1.40431 -2.608,2.10647 -3.81169,1.10339 -1.504616,-1.10339 -1.304,-3.41046 -10e-7,-4.51385 0.501539,-0.50153 1.304,-0.80246 2.006154,-0.70215 z m 19.158763,8.72677 -3.510769,2.20677 3.009231,4.91507 -4.513846,2.30708 1.905847,3.71138 4.71446,-2.40738 3.811691,6.11876 3.510767,-2.20676 -3.510767,-5.81785 5.717537,-2.90892 -1.905846,-3.71138 -6.018461,3.00922 z m -9.629535,8.42584 -2.006154,0.40123 c -2.307077,0.70215 -4.614152,1.90585 -6.41969,3.61108 l 2.808614,3.10953 c 1.805537,-1.70523 4.112615,-2.7083 6.519999,-3.10953 z m -11.334767,7.824 -0.902769,1.60492 c -0.501538,1.304 -1.003076,2.80861 -1.404307,4.21292 l -0.300922,2.908924 4.212921,0.401231 c 0.100307,-1.604923 0.300923,-3.209845 0.902769,-4.714455 0.200616,-0.90277 0.702153,-1.60493 1.103384,-2.30708 z m 1.805539,12.538455 -4.012308,1.103385 c 0.50154,1.70523 0.902769,3.510768 1.905847,5.015384 0.501538,1.203691 1.203692,2.206768 1.905845,3.209844 l 3.410461,-2.507692 C 38.242736,59.766155 37.339968,58.26154 36.738122,56.556311 Z m 5.717535,9.328613 -2.507691,3.41046 c 2.307076,1.805538 5.115691,3.109538 7.823999,4.112615 l 1.604922,-3.811692 c -2.507692,-1.003076 -4.915076,-2.006153 -6.92123,-3.711383 z m 10.833229,5.316306 -1.705231,3.811691 c 2.106462,1.003077 4.212923,2.307076 5.516921,4.413537 l 3.510769,-2.307076 c -0.802462,-1.304 -1.805538,-2.307076 -3.00923,-3.310153 -1.303999,-1.003076 -2.808614,-1.905845 -4.313229,-2.607999 z"
     sodipodi:nodetypes="ccccccccccccccccccccccccccccccccccccccccccccccccccccccccccccccccccccsccccccccccccccsccccccssccccccccccccccccccccccccccccccccccccccccccccccccccccccccccccccccccccccccccccccccccccccccccccccccccccccccccccccccccccccccccccccccccccccccccccccccccccccccccccccccccccccccccccccccccccccccccccccscccccccccccccccccccccccccccccccccccccsccccccsccssccccccssscsccsscccscccccccccccccccccccccccccccccccccccccscccccccccccccccccccccccccccccccccccccccccccccccccccccccccccccccccccccccccccccccccccccccccccccccccccccccccccccccccccccccccccccsccccccccccscccccsccccccccccccccsscccccsssccccccccscssscccccccccccccscsscccccsccsccccccccccccccccccccccccsscccccccccccccccccssccccccsccccccccccccccscccccccccccccccccccccccccccccccccccccccccccsccccccsccccsccccccccccccccccccccccccccccccccccccccccccccccccccccccsccccscccccccscccccscscccccccccccccccccccccccccccccccccccccccccccccccccccccccccccccccccc" />
</svg>
