<?xml version="1.0" encoding="UTF-8" standalone="no"?>
<svg
   xmlns:dc="http://purl.org/dc/elements/1.1/"
   xmlns:cc="http://creativecommons.org/ns#"
   xmlns:rdf="http://www.w3.org/1999/02/22-rdf-syntax-ns#"
   xmlns:svg="http://www.w3.org/2000/svg"
   xmlns="http://www.w3.org/2000/svg"
   xmlns:sodipodi="http://sodipodi.sourceforge.net/DTD/sodipodi-0.dtd"
   xmlns:inkscape="http://www.inkscape.org/namespaces/inkscape"
   version="1.1"
   width="100"
   height="100"
   id="svg4460"
   sodipodi:docname="uEA6D-story-map.svg"
   inkscape:version="0.92.4 (5da689c313, 2019-01-14)">
  <sodipodi:namedview
     pagecolor="#ffffff"
     bordercolor="#666666"
     borderopacity="1"
     objecttolerance="10"
     gridtolerance="10"
     guidetolerance="10"
     inkscape:pageopacity="0"
     inkscape:pageshadow="2"
     inkscape:window-width="1920"
     inkscape:window-height="1177"
     id="namedview11"
     showgrid="false"
     inkscape:zoom="4"
     inkscape:cx="-30.14205"
     inkscape:cy="38.302137"
     inkscape:window-x="1272"
     inkscape:window-y="-8"
     inkscape:window-maximized="1"
     inkscape:current-layer="svg4460"
     inkscape:document-rotation="0" />
  <defs
     id="defs4462" />
  <metadata
     id="metadata4465">
    <rdf:RDF>
      <cc:Work
         rdf:about="">
        <dc:format>image/svg+xml</dc:format>
        <dc:type
           rdf:resource="http://purl.org/dc/dcmitype/StillImage" />
        <dc:title />
      </cc:Work>
    </rdf:RDF>
  </metadata>
  <path
     style="color:#000000;font-style:normal;font-variant:normal;font-weight:normal;font-stretch:normal;font-size:medium;line-height:normal;font-family:sans-serif;font-variant-ligatures:normal;font-variant-position:normal;font-variant-caps:normal;font-variant-numeric:normal;font-variant-alternates:normal;font-feature-settings:normal;text-indent:0;text-align:start;text-decoration:none;text-decoration-line:none;text-decoration-style:solid;text-decoration-color:#000000;letter-spacing:normal;word-spacing:normal;text-transform:none;writing-mode:lr-tb;direction:ltr;text-orientation:mixed;dominant-baseline:auto;baseline-shift:baseline;text-anchor:start;white-space:normal;shape-padding:0;clip-rule:nonzero;display:inline;overflow:visible;visibility:visible;opacity:1;isolation:auto;mix-blend-mode:normal;color-interpolation:sRGB;color-interpolation-filters:linearRGB;solid-color:#000000;solid-opacity:1;vector-effect:none;fill:#000080;fill-opacity:1;fill-rule:nonzero;stroke:none;stroke-width:5.52378893;stroke-linecap:round;stroke-linejoin:round;stroke-miterlimit:4;stroke-dasharray:none;stroke-dashoffset:4;stroke-opacity:1;paint-order:normal;color-rendering:auto;image-rendering:auto;shape-rendering:auto;text-rendering:auto;enable-background:accumulate"
     d="M 49.998922,3.8475983 C 22.679192,3.8475983 5.0000001e-7,22.237846 5.0000001e-7,45.560836 5.0000001e-7,59.403236 8.0015405,71.494159 20.209301,79.046649 c -0.82548,4.521084 -4.818225,8.426306 -8.617975,12.450103 a 2.7621707,2.7621707 0 0 0 2.349769,4.634803 C 22.895514,95.01335 31.138608,90.18839 37.24458,85.897441 c 4.080559,0.899722 8.356474,1.37879 12.754342,1.37879 C 77.318652,87.276231 100,68.883825 100,45.560836 100,22.237846 77.318652,3.8475983 49.998922,3.8475983 Z m 0,5.5237885 c 24.858077,0 44.47729,16.4867422 44.47729,36.1894492 0,19.702706 -19.619213,36.191606 -44.47729,36.191606 -2.38527,0 -4.720531,-0.155072 -6.995362,-0.448808 -0.251005,-0.03223 -0.499307,-0.07002 -0.748731,-0.105725 -0.358233,-0.05141 -0.71733,-0.101362 -1.072392,-0.159672 -0.266441,-0.0438 -0.529483,-0.09471 -0.794044,-0.14241 -0.301139,-0.05417 -0.603218,-0.107073 -0.901933,-0.166145 -0.327883,-0.06504 -0.652563,-0.136262 -0.977451,-0.207143 -0.266351,-0.05793 -0.534068,-0.112975 -0.798361,-0.174776 -0.563478,-0.131758 -1.122734,-0.271789 -1.676556,-0.420756 -0.888041,0.636063 -1.830058,1.288177 -2.817996,1.944114 -0.0059,0.0039 -0.01141,0.0068 -0.01727,0.01083 -0.784219,0.520446 -1.615302,1.041744 -2.451181,1.560039 -2.730218,1.696229 -5.682532,3.337487 -8.7647,4.63912 1.378099,-1.887089 2.556206,-3.966343 3.2517,-6.287626 0.104587,-0.349076 0.192973,-0.705354 0.274032,-1.065918 0.0292,-0.128073 0.05802,-0.256712 0.08415,-0.386234 0.06004,-0.303408 0.11346,-0.609612 0.155358,-0.921351 0.03187,-0.22976 0.05199,-0.464666 0.07337,-0.699104 0.02002,-0.229612 0.04655,-0.456312 0.0561,-0.690474 0.02222,-0.5058 0.02312,-1.020661 -0.0086,-1.54925 a 2.7621707,2.7621707 0 0 0 -0.08847,-0.573956 c -0.0014,-7.58e-4 -0.0029,-0.0014 -0.0043,-0.0022 -0.01028,-0.0055 -0.0199,-0.01176 -0.0302,-0.01727 C 25.077966,75.53231 24.426903,75.157511 23.78471,74.774338 23.553248,74.635941 23.326578,74.493278 23.098551,74.351423 12.378307,67.692428 5.5238095,57.194472 5.5238095,45.56082 5.5238095,25.858113 25.140864,9.3713703 49.998942,9.3713703 Z m -2.047685,2.1642042 c -0.346605,0.0032 -0.694479,0.02033 -1.042185,0.03237 0.04656,0.119347 0.05235,0.265404 -0.04747,0.476859 1.362156,0.288046 2.685962,-0.562644 4.075952,-0.179092 1.236956,0.264666 2.696718,0.63768 3.489049,1.564354 0.492675,0.233371 -1.803683,-0.745508 -1.320531,0.308556 0.552407,1.127074 2.083112,0.995097 3.063977,0.431546 1.304225,-0.180114 0.212847,1.138555 1.098285,1.471572 -0.858856,0.08409 -2.175293,0.722433 -3.325062,0.785414 -1.040076,-0.02133 -0.846584,0.913858 0.08199,0.860934 1.048645,0.24758 2.559145,-0.497749 2.928039,0.85662 0.874921,0.214885 0.815634,1.213709 0.233035,1.484518 0.402466,0.550284 1.175954,1.016831 0.761679,1.583773 -0.530741,1.007188 -1.762238,0.82773 -2.910778,1.001187 -1.069796,0.07657 -2.249738,-0.770611 -3.247383,-0.01083 -1.168912,0.686751 -1.244709,2.1756 -2.44255,2.811523 -0.870863,1.343663 -0.308759,2.038617 0.15104,2.449022 0.762677,0.26245 2.511149,0.108222 3.389795,-0.552379 0.08809,-0.546277 -0.133083,-1.19864 -0.213616,-1.583773 0.227714,0.180904 0.293612,0.302799 0.289136,0.379761 0.02467,0.257971 0.448987,0.450906 0.494121,0.496277 0.561034,0.326176 -0.06135,1.32899 -0.09278,1.570827 -1.105682,-0.100245 -2.284436,0.06467 -3.426475,0.142411 0.09848,0.506501 -1.214958,0.963909 -1.158701,0.992556 -1.195352,-0.214958 -1.749605,0.245561 -2.546122,0.800518 -0.05607,0.02219 -0.696946,0.200668 -0.696946,0.200668 0.07373,0.0794 -0.21336,0.444341 -0.09494,0.431546 1.512775,-0.163452 1.655562,0.667092 1.603194,1.424103 -0.638473,0.886549 -3.354048,-0.499662 -2.850362,1.38742 -0.223195,0.915219 -0.767083,2.407628 0.897616,2.256986 h 0.0022 c 0,0 0.877341,-0.202827 0.940771,-0.202827 0.06342,0 2.013161,-0.737944 2.013162,-0.737944 l 0.0561,-0.0043 c 0.01393,-0.116931 0.08869,-0.275184 0.258928,-0.500593 0.452056,-0.633705 1.32006,-1.205814 2.192254,-1.204014 -0.419079,0.450337 0.436153,1.399953 0.245981,1.741289 l 0.813464,0.06257 c 0.19853,-0.165005 0.214842,-0.283611 0.336606,-0.444493 0.128295,-0.140936 -0.311431,-0.916351 -0.176934,-0.970978 0.01923,-0.0078 0.05104,-0.0041 0.0971,0.02158 0.568541,0.259648 2.253326,1.214369 0.755206,1.314058 0.03067,1.03574 0.182139,0.594895 1.065917,0.847987 0.501619,-0.02457 0.703743,-1.234744 1.23638,-1.32053 0.0761,-0.01225 0.158916,-8.69e-4 0.250296,0.03884 0.207572,0.248319 0.453966,0.540911 0.727156,0.815622 0.370761,0.264225 0.960451,0.202455 1.411155,-0.153199 0.235228,-0.331279 -0.225349,-1.022271 -0.159672,-1.001187 0.194104,0.258387 0.684784,0.841887 0.731471,1.085339 0.747255,0.568899 1.707684,0.431039 2.418816,0.781099 0.645018,-0.181196 1.537051,-0.0021 0.809147,0.67321 -1.108615,0.153425 -2.346096,0.335869 -3.445894,-0.0302 -0.916198,-0.416319 -2.017935,-0.197555 -2.317402,0.712051 -0.854311,-0.365897 -1.887219,-0.700894 -2.776998,-1.104758 -2.650308,-1.339017 -5.249457,-0.856362 -7.700939,-0.213615 l 0.215773,-0.204984 c -0.56228,0.614795 -1.536668,1.078628 -1.717553,2.049843 -0.781716,0.798088 -1.984744,1.158156 -2.498652,2.263459 -1.121668,0.876735 -0.325611,2.096886 -0.647319,3.176179 -0.543484,0.466672 -0.927369,0.925519 -0.222246,1.495307 0.270868,0.982042 1.535532,3.251882 1.883699,4.244256 1.049928,0.718251 2.236713,1.804106 3.66814,1.141439 1.329275,0.151188 2.55485,-0.25898 3.741504,-0.556695 0.733752,0.546017 1.502478,0.810796 2.408026,0.923509 0.348561,0.95168 -0.679023,2.235857 0.716367,2.893516 0.825407,0.944684 1.359378,2.312944 0.975293,3.467471 -0.866436,0.934201 -0.993682,2.281196 -0.168301,3.275435 0.758741,1.139009 0.219673,2.566972 1.173805,3.676772 0.620332,0.681692 -0.224349,2.562155 1.260114,2.39508 1.138941,-0.525047 2.564961,0.133904 3.605568,-0.662423 0.922855,-0.685392 1.972855,-1.340363 2.442549,-2.343296 0.622323,-0.876201 1.977444,-1.194669 1.616141,-2.449022 -0.02705,-1.456735 2.372044,-1.062656 2.610853,-2.470601 0.675188,-1.399786 -0.455894,-2.811718 -0.153199,-4.222678 0.641208,-1.201148 1.699419,-4.020856 2.841731,-4.874312 1.279978,-1.213909 1.916537,-2.898997 1.888013,-4.550653 -0.847769,-0.917864 -2.330137,0.897713 -2.966879,0.258928 l -2.140468,-1.894488 0.0043,-0.0022 c -0.408018,-0.316588 -0.945948,-0.987482 -1.001186,-1.255798 -0.188886,-0.379398 -0.39444,-0.757371 -0.753047,-1.229907 -0.358609,-0.472534 -1.51038,-1.849515 -1.329162,-1.674399 0.51258,0.540116 1.081341,1.173209 1.654979,1.808178 0.573645,0.634971 1.063712,1.529878 1.872909,2.170677 1.891168,1.820032 2.712638,1.65702 4.550653,0.455281 0.778303,-0.746225 1.953927,-1.212504 2.125364,-2.336822 0.45619,-0.845698 -0.110964,-1.684849 -0.802676,-2.049843 -0.769608,-0.124628 -1.550339,0.05396 -2.410184,-0.12515 -0.421761,-0.49962 -1.132276,-0.872165 -1.620455,-1.216959 -0.02219,-0.04798 -0.09273,-0.11669 -0.183408,-0.245981 -0.05934,-0.05528 -0.05372,-0.06636 -0.0302,-0.06473 0.02343,0.0017 0.06405,0.01436 0.0712,0.0043 0.109481,0.08019 0.174733,0.149112 0.207142,0.172618 l 1.268745,0.729313 c 0.709608,0.561621 1.616882,0.440404 2.533175,0.530802 1.270121,0.07004 2.929393,-0.660215 3.799763,0.571798 0.418674,1.013022 2.229219,0.861674 2.185781,2.192255 0.714036,1.387672 1.612651,2.723324 2.144783,4.166576 0.382037,0.732241 1.383453,0.424834 1.385263,1.268746 1.137577,0.934434 1.712847,-0.909451 0.914877,-1.56867 -0.640036,-1.178789 -1.225116,-2.551868 -0.796202,-3.84939 0.700703,-0.962454 0.332521,-2.37224 1.29248,-3.158918 1.49413,0.11186 1.426675,1.786595 2.192254,2.593592 1.570882,0.07798 1.596102,1.813959 1.896645,2.869781 -0.335009,1.080023 1.095647,2.12127 0.945086,2.977668 -0.729085,-0.994375 -2.036522,0.116939 -1.117705,0.886827 0.953789,1.094344 1.159118,2.499639 1.549251,3.804077 0.189027,1.051786 0.761801,2.014828 1.018449,3.031611 0.138458,0.720011 0.699672,1.176868 1.283849,1.618298 0.09441,-0.237649 0.196717,-0.471803 0.284819,-0.71205 0.133339,-0.363602 0.248286,-0.735337 0.366815,-1.104758 -0.155781,-0.101826 -0.353931,-0.14849 -0.627944,-0.10134 -0.757226,-1.057285 0.218669,-2.461483 -0.686157,-3.482576 -0.295724,-1.034499 0.160268,-2.048128 -0.252455,-3.055346 0,-1.339922 -1.084027,-2.288854 -1.601036,-3.463157 -0.360342,-0.519802 -0.430539,-2.346545 0.220089,-1.037868 0.381475,0.448755 0.783796,1.843798 1.227748,1.648506 0.535703,-1.342919 0.972979,-2.841987 0.364656,-4.226993 -0.0161,-1.032995 -1.689675,-1.972216 -1.590247,-2.651851 1.638568,-0.405899 -0.730869,-2.123523 0.0712,-3.089869 0.264523,-0.760788 -0.507327,-2.111363 0.71205,-1.603194 0.09699,-0.177409 0.122742,-0.35402 0.122991,-0.530802 -0.258877,-0.493557 -0.529022,-0.980957 -0.813464,-1.458625 -0.0601,-0.10093 -0.126512,-0.197554 -0.187723,-0.297767 0,0 -0.0021,-0.0022 -0.0021,-0.0022 -0.205585,-0.216852 -0.411048,-0.423531 -0.578274,-0.612743 -0.902417,-0.574061 -0.913047,-1.614081 -1.601036,-2.334663 -0.757008,-0.874057 -1.604103,-1.711817 -2.695005,-2.256986 -0.621046,-0.400866 -1.57606,-1.229048 -1.391736,-1.831913 0.300093,0.219618 0.738353,0.478316 1.085338,0.552379 -0.03666,-0.036 -0.07107,-0.07418 -0.107891,-0.110045 -8.478819,-8.258128 -21.205991,-12.702358 -32.801795,-12.396175 -0.607526,-0.02249 -1.217624,-0.03145 -1.829755,-0.0259 z m -3.795448,0.211457 c -15.54364,1.559403 -31.325723,11.669408 -35.4061925,26.807639 0,0 0,0.0022 0,0.0022 0.191792,0.771986 0.611694,1.703809 1.7391305,2.069263 0.702529,0.30577 0.424149,1.282469 1.216959,1.717554 1.044137,0.861466 0.355953,2.124527 1.2558,3.027295 0.288734,0.625592 0.641119,1.088243 1.396051,0.694789 1.267854,0.444697 0.07298,2.146468 -0.450965,2.910778 -0.827014,0.999458 -0.04143,2.239446 -0.502752,3.307801 0.35224,1.377158 1.570324,2.411768 2.075737,3.741503 0.360944,1.339174 1.681682,1.928971 2.837414,2.619484 0.966866,0.884244 0.929459,2.196244 1.385263,3.297012 0.377588,1.132185 0.659199,2.29583 1.318374,3.331535 0.604304,1.209977 0.765538,2.566099 1.678713,3.648721 0.710915,0.957414 1.426165,1.907021 2.03474,2.919409 0.596585,0.698967 1.417863,1.279739 1.892329,2.052001 0.13305,0.07086 0.267289,0.139864 0.401337,0.2093 0.0038,0.0019 0.0071,0.0045 0.01083,0.0065 1.184992,0.413495 2.711085,1.12065 3.687561,0.168302 0.433695,-1.213763 -1.298778,-0.694497 -1.849175,-1.46294 -1.179526,-0.558012 -0.280888,-2.120967 -1.784443,-2.34761 0.368479,-0.478514 -0.457355,-0.963041 -0.144568,-1.648507 -0.211627,-0.595095 -0.631104,-1.459757 0.340922,-1.676556 0.570135,-0.725585 -0.421958,-1.651083 0.589061,-2.15773 0.317994,-1.175965 0.857593,-2.350865 0.696947,-3.579674 -0.341354,-1.547456 2.092419,-1.077138 2.336822,-2.392923 0.538522,-1.163035 0.180611,-2.417775 0.379759,-3.616355 0.592459,-1.076905 2.067304,-2.342522 0.986083,-3.586147 -1.145339,-0.890866 -2.624237,-1.203685 -3.97238,-1.618298 -0.878628,-0.616917 -2.651984,-0.333217 -2.362716,-1.646348 -0.24182,-1.297387 -1.575614,-1.801283 -2.817995,-2.129679 -1.159744,-0.337681 -0.839241,-1.635125 -1.430575,-2.190096 -2.933327,-0.655609 -2.788873,-0.458496 -3.316432,-1.003345 -0.809314,-0.317331 -1.249825,-0.02923 -1.963533,0.274032 -0.272947,0.542551 -0.908658,0.80947 -1.592405,0.850146 -1.656539,0.337729 -0.686238,-1.788711 -0.345237,-2.496494 0.366808,-0.887346 -1.121678,-1.323644 -1.251483,-1.413314 0.468691,-1.006981 1.062914,-2.815838 2.688531,-2.049844 0.554174,0.244004 0.453474,0.70955 0.289135,1.042185 1.513347,0.227768 1.407573,1.2817 2.343296,1.929011 0.572084,-0.691238 2.8166,0.768057 2.276406,-0.718525 -1.009263,-0.753478 -2.363207,-1.005438 -3.176179,-2.036897 -0.392388,-1.093364 1.590215,-1.91168 0.804834,-3.079082 -0.342283,-0.612912 -0.648134,0.397375 -0.353869,-0.463912 0.116195,-1.329704 1.497315,-1.987892 2.770526,-2.276404 1.019901,-0.743815 1.58305,-2.125105 3.111447,-2.166361 1.119063,0.102057 1.284344,-1.637681 2.28072,-0.58043 0.889474,-0.03699 2.279348,-0.05851 2.878413,-0.794045 0.261526,0.05113 1.869371,1.228033 2.343294,0.08632 0.413207,-0.64624 -0.312627,-1.572882 0.658107,-1.982954 0.333672,-1.175373 -0.112735,-2.471559 0.910562,-3.478261 0.720441,-0.988321 2.062291,-1.25975 3.189126,-1.719711 0.576828,-0.40257 -0.11407,-0.915844 0.664581,-1.277376 0.689951,-0.731818 0.940683,-2.005304 2.151256,-2.101628 0.730264,-0.417971 0.34818,0.173031 0.561011,0.377603 0.792487,1.05911 -1.366026,1.454634 -1.75855,2.310928 -1.067268,0.851398 -2.285879,1.987927 -2.008847,3.376848 0.676388,1.635717 2.247176,-0.04067 3.051029,-0.647319 1.669577,-0.540656 3.435413,-0.780928 5.124609,-1.253642 0.698029,-0.332094 0.314446,-1.052499 1.115547,-1.42626 0.710873,-0.698912 0.814395,-1.759097 1.872909,-2.017477 0.246238,-1.314511 -1.57549,-1.582804 -2.66048,-1.607509 -0.285635,-1.19254 -1.792116,-1.072475 -2.785629,-1.512568 0.910606,-0.363275 -1.067313,-0.334502 -0.438021,-0.78973 -0.620843,-0.06266 -1.268917,-0.913101 -1.866436,-0.340921 -0.229678,-0.300323 -2.46176,-0.0013 -1.562196,-1.061603 1.970737,-1.180416 4.664011,-0.889175 6.434351,-2.392923 0.01215,-0.01083 0.01141,-0.02521 0.02158,-0.03668 z m 8.000863,6.574604 c -0.130047,-0.0057 -0.244467,0.01094 -0.315029,0.0561 -0.449383,0.262143 -0.710158,1.419256 0.146727,0.876039 0.467722,0.229229 1.565961,0.261767 0.84583,-0.377603 0.22656,-0.308533 -0.287395,-0.536013 -0.677528,-0.554536 z m 3.217176,0.192038 c -0.0722,0.0057 -0.154266,0.02166 -0.241666,0.04747 -0.761636,1.015616 0.139732,2.3815 1.173805,2.917251 0.776912,0.448389 2.069637,-0.616679 0.776783,-0.84583 -1.146531,-0.148762 -0.625972,-2.203491 -1.708922,-2.118891 z m -5.111662,0.491962 c -0.08244,-0.0066 -0.170266,-0.0013 -0.265402,0.01083 l -0.144567,-0.0065 c -1.442605,0.130134 -1.4796,1.788574 0.0043,1.898803 1.457658,0.258599 1.644459,-1.807568 0.407812,-1.903119 z m -12.210596,0.06473 c 0.01283,-0.0066 0.03203,-0.0011 0.05395,0.03237 -0.08371,0.128247 -0.09242,-0.01125 -0.05395,-0.03237 z m -4.613226,1.402525 c 0.500476,0.05734 0.484871,0.539121 -0.172619,0.226562 -0.266107,0.04819 -0.537642,-0.156841 -0.07337,-0.220089 0.09228,-0.01267 0.174485,-0.01406 0.245981,-0.0065 z m -2.899989,0.03452 c 0.08508,-0.0066 0.171285,-0.0052 0.250297,0.0302 -0.351378,0.760941 0.305094,1.666368 -0.873881,2.084368 -0.682171,0.352894 -1.894533,1.893189 -2.138311,0.412126 -0.08015,-1.267778 1.095027,-2.401656 2.50944,-2.500809 0.08272,-8.09e-4 0.167374,-0.01895 0.252455,-0.02589 z m 2.254828,2.617327 c -0.01357,0.629417 -0.894982,0.05238 0,0 z m 10.014025,0.420757 c -0.0733,0.0057 -0.146868,0.02372 -0.217931,0.0561 -0.214456,0.610998 -1.849482,0.245828 -0.806991,0.891142 0.608345,0.982312 2.440285,1.004384 3.245226,0.263242 0.397864,-0.925863 -0.806375,-1.344844 -1.568669,-1.078864 -0.20634,-0.06152 -0.431713,-0.147861 -0.651635,-0.131622 z m 3.901176,3.055346 c -0.556584,0.01811 -1.028328,0.355245 -0.992556,1.014133 -0.654475,0.412735 -2.066709,1.496007 -1.052973,2.056317 1.267128,-0.137198 2.069876,-0.538183 3.208545,-0.936455 l 0.151041,-0.526486 c -0.316202,-0.366408 -0.540301,-0.807227 -0.31287,-1.294637 -0.302286,-0.219553 -0.667239,-0.323734 -1.001187,-0.312872 z m -17.98468,1.527673 c 0.02648,0.01469 0.05116,0.04056 0.07984,0.04747 0.426229,0.605143 -1.326411,0.355402 -0.17046,-0.041 0.03586,-0.02448 0.06413,-0.02111 0.09062,-0.0065 z m 35.572338,2.449024 c 0.260847,0.450228 1.792914,0.961946 1.402524,1.273061 -0.467761,-0.25832 -1.575362,-1.039369 -1.402524,-1.273061 z m -5.737405,0.550222 c 0.476704,1.187759 1.993126,-0.02404 2.815838,0.580428 0.495542,0.13665 0.943339,0.696606 0.06689,0.455282 -0.951293,-0.835348 -3.019566,1.101469 -3.221491,-0.245982 0.05771,-0.279093 0.21383,-0.532004 0.338763,-0.789728 z m 7.577948,1.372315 c 0.03772,-0.0036 0.08422,-4.38e-4 0.140252,0.01295 1.007702,0.0677 0.71007,1.24713 -0.0971,0.535117 -0.153,-0.123756 -0.307374,-0.52243 -0.04315,-0.548064 z m -51.593484,0.776783 0.11436,0.0561 c 0.148754,1.396544 2.130979,-0.256376 2.103787,1.171647 -0.133165,0.822726 -0.851967,1.89588 0.116518,2.582804 0.733181,0.528351 -0.345488,0.630399 -0.660266,0.13162 -0.866791,-0.435232 -1.556058,0.806932 -2.563383,0.25677 -1.05279,-0.350949 -1.312908,1.964666 -2.168519,0.673212 -0.206262,-0.906217 0.499645,-1.772428 0.843672,-2.61301 0.52769,-0.847932 1.024573,-1.835078 2.075736,-2.250513 z m 75.511922,1.585932 c -0.772796,0.603033 0.411676,1.925556 0.489805,2.733843 0.52192,0.693784 0.671876,1.272017 0.990398,1.93117 -0.03315,-0.145584 -0.05755,-0.295581 -0.09279,-0.440173 -0.356279,-1.462068 -0.829516,-2.866576 -1.38742,-4.224836 z m -32.683137,0.172618 c -1.665634,0.376716 0.104742,0.630974 0.776782,0.632216 0.291485,-0.522334 -0.25524,-0.461826 -0.776782,-0.632216 z m -41.111231,4.777215 c -0.782191,0.01145 0.208069,1.233219 0.936454,1.070234 0.484535,-0.113779 0.151644,-0.317173 -0.07984,-0.744417 C 17.01246,40.021472 16.86791,39.947872 16.711615,39.88816 16.521655,39.83278 16.372391,39.811 16.260649,39.81264 Z m 75.494658,0.757363 c -0.321988,0.892278 -0.226515,2.035522 0.181251,2.776999 0.07642,-0.0025 0.138096,-0.02611 0.196353,-0.05394 -0.01515,-0.185378 -0.01991,-0.368304 -0.03884,-0.554537 -0.08491,-0.735515 -0.203136,-1.455715 -0.338763,-2.168519 z m -21.100442,2.218147 c -0.0579,0.0046 -0.13132,0.152414 0.041,0.05825 -0.0066,-0.04388 -0.02175,-0.05983 -0.041,-0.05825 z m 21.523358,1.180283 c -1.075913,0.834439 -0.256271,2.340432 -1.134967,3.297011 -0.880511,0.694009 -0.94959,1.75552 -0.772467,2.723056 0.257353,0.816332 -0.02828,2.352856 1.048657,2.522386 0.07358,-0.27837 0.155106,-0.553671 0.220089,-0.835042 0.568612,-2.462046 0.791927,-5.03969 0.638688,-7.707411 z m -2.675585,6.278994 c 0.05743,-0.0062 0.125664,0.03779 0.0302,0.151041 -0.134276,-0.08817 -0.08773,-0.144769 -0.0302,-0.151041 z m -20.343079,6.164635 c -0.179352,0.293498 -0.515011,0.946459 -0.96019,0.530802 0.576933,1.310699 -2.306113,1.033374 -1.747761,2.485705 -0.2896,1.035769 -1.473157,2.394397 -0.340921,3.312115 1.399796,0.483409 1.901047,-0.895213 2.343295,-1.762866 0.492806,-0.883156 0.988051,-1.762517 1.519042,-2.628115 -0.113573,-0.605722 0.194418,-1.889995 -0.813465,-1.937641 z M 68.4993,71.362972 c -1.346056,0.196274 -0.609522,2.032259 0.472543,1.078865 0.140731,-0.352983 0.0485,-1.031298 -0.472543,-1.078865 z M 30.549144,71.60248 c -1.533494,0.03367 -0.06497,2.213284 0.61711,0.822095 0.148193,-0.86717 -0.184568,-0.581881 -0.61711,-0.822095 z m 29.804724,3.150286 c -1.395636,-0.07214 -3.522032,0.577142 -4.414716,0.46607 -0.980549,-0.100666 -1.688988,-0.431491 -2.606536,-0.0043 -1.098713,-0.06204 -2.128115,-0.452282 -3.234438,-0.450965 -0.158046,1.88e-4 -0.317443,0.0076 -0.479017,0.02589 -1.256956,0.298869 -2.550282,0.283572 -3.814867,0.496279 -0.966307,0.440242 -0.749409,1.903645 -1.961376,2.058474 -0.122692,0.843903 -0.958219,0.98957 -1.609667,0.783255 -0.179146,0.176536 -0.07624,0.452917 -0.0065,0.668897 4.47181,0.640118 9.166518,0.788945 13.962671,0.46607 3.034485,-0.261435 6.106246,-0.904794 9.114252,-1.872909 -1.350891,0.127642 -2.423216,-0.05112 -2.997087,-0.69479 0.178819,-0.880358 -1.314012,-0.746371 -0.87388,-1.575143 -0.229678,-0.239243 -0.613653,-0.342769 -1.078866,-0.366814 z m -25.472002,1.020606 c -0.361342,0.452092 -0.390774,0.91888 -0.267559,1.372317 0.190851,0.05694 0.377535,0.120034 0.56964,0.174776 0.355952,0.101428 0.718729,0.190908 1.078866,0.28482 -0.304471,-0.195985 -0.509896,-0.458857 -0.466071,-0.891143 -0.136457,-1.046035 -0.430436,-0.748204 -0.914876,-0.94077 z m 4.460026,2.423131 c -0.07396,0.01016 -0.165177,0.04434 -0.248137,0.06905 0.01529,0.0031 0.03002,0.0077 0.04532,0.01083 0.309536,0.06216 0.624384,0.113426 0.936456,0.170461 -0.270469,-0.205486 -0.48894,-0.284002 -0.733629,-0.250298 z"
     id="path823-6"
     inkscape:connector-curvature="0" />
</svg>
