<?xml version="1.0" encoding="UTF-8" standalone="no"?>
<svg
   xmlns:dc="http://purl.org/dc/elements/1.1/"
   xmlns:cc="http://creativecommons.org/ns#"
   xmlns:rdf="http://www.w3.org/1999/02/22-rdf-syntax-ns#"
   xmlns:svg="http://www.w3.org/2000/svg"
   xmlns="http://www.w3.org/2000/svg"
   xmlns:sodipodi="http://sodipodi.sourceforge.net/DTD/sodipodi-0.dtd"
   xmlns:inkscape="http://www.inkscape.org/namespaces/inkscape"
   inkscape:version="1.0 (4035a4fb49, 2020-05-01)"
   sodipodi:docname="uEA85-map-legend.svg"
   id="svg4460"
   height="100"
   width="100"
   version="1.1">
  <sodipodi:namedview
     inkscape:document-rotation="0"
     inkscape:current-layer="svg4460"
     inkscape:window-maximized="1"
     inkscape:window-y="-8"
     inkscape:window-x="-8"
     inkscape:cy="55.627631"
     inkscape:cx="56.761733"
     inkscape:zoom="5.6568545"
     showgrid="false"
     id="namedview11"
     inkscape:window-height="1017"
     inkscape:window-width="1920"
     inkscape:pageshadow="2"
     inkscape:pageopacity="0"
     guidetolerance="10"
     gridtolerance="10"
     objecttolerance="10"
     borderopacity="1"
     bordercolor="#666666"
     pagecolor="#ffffff" />
  <defs
     id="defs4462" />
  <metadata
     id="metadata4465">
    <rdf:RDF>
      <cc:Work
         rdf:about="">
        <dc:format>image/svg+xml</dc:format>
        <dc:type
           rdf:resource="http://purl.org/dc/dcmitype/StillImage" />
        <dc:title />
      </cc:Work>
    </rdf:RDF>
  </metadata>
  <path
     d="M 12.496094 5.0859375 A 2.0835416 2.0835416 0 0 0 12.466797 5.0878906 A 2.0835416 2.0835416 0 0 0 10.695312 6.1289062 L 0.27929688 24.171875 A 2.0835416 2.0835416 0 0 0 2.0839844 27.296875 L 22.917969 27.296875 A 2.0835416 2.0835416 0 0 0 24.720703 24.171875 L 14.304688 6.1289062 A 2.0835416 2.0835416 0 0 0 12.496094 5.0859375 z M 40 14.486328 L 40 21.486328 L 55 21.486328 L 55 14.486328 L 40 14.486328 z M 62 14.486328 L 62 21.486328 L 100 21.486328 L 100 14.486328 L 62 14.486328 z M 2.0839844 39.671875 A 2.0835416 2.0835416 0 0 0 0 41.755859 L 0 58.421875 A 2.0835416 2.0835416 0 0 0 2.0839844 60.505859 L 22.916016 60.505859 A 2.0835416 2.0835416 0 0 0 25 58.421875 L 25 41.755859 A 2.0835416 2.0835416 0 0 0 22.916016 39.671875 L 2.0839844 39.671875 z M 40 47.837891 L 40 54.837891 L 67 54.837891 L 67 47.837891 L 40 47.837891 z M 74 47.837891 L 74 54.837891 L 100 54.837891 L 100 47.837891 L 74 47.837891 z M 12.5 69.914062 C 5.62112 69.914062 0 75.535183 0 82.414062 C 0 89.292942 5.62112 94.914062 12.5 94.914062 C 19.37888 94.914062 25 89.292942 25 82.414062 C 25 75.535183 19.37888 69.914062 12.5 69.914062 z M 40 81.189453 L 40 88.189453 L 55 88.189453 L 55 81.189453 L 40 81.189453 z M 62 81.189453 L 62 88.189453 L 100 88.189453 L 100 81.189453 L 62 81.189453 z "
     style="color:#000000;font-style:normal;font-variant:normal;font-weight:normal;font-stretch:normal;font-size:medium;line-height:normal;font-family:sans-serif;font-variant-ligatures:normal;font-variant-position:normal;font-variant-caps:normal;font-variant-numeric:normal;font-variant-alternates:normal;font-variant-east-asian:normal;font-feature-settings:normal;font-variation-settings:normal;text-indent:0;text-align:start;text-decoration:none;text-decoration-line:none;text-decoration-style:solid;text-decoration-color:#000000;letter-spacing:normal;word-spacing:normal;text-transform:none;writing-mode:lr-tb;direction:ltr;text-orientation:mixed;dominant-baseline:auto;baseline-shift:baseline;text-anchor:start;white-space:normal;shape-padding:0;shape-margin:0;inline-size:0;clip-rule:nonzero;display:inline;overflow:visible;visibility:visible;opacity:1;isolation:auto;mix-blend-mode:normal;color-interpolation:sRGB;color-interpolation-filters:linearRGB;solid-color:#000000;solid-opacity:1;vector-effect:none;fill:#000080;fill-opacity:1;fill-rule:evenodd;stroke:none;stroke-width:7;stroke-linecap:butt;stroke-linejoin:miter;stroke-miterlimit:4;stroke-dasharray:none;stroke-dashoffset:0;stroke-opacity:1;color-rendering:auto;image-rendering:auto;shape-rendering:auto;text-rendering:auto;enable-background:accumulate;stop-color:#000000;stop-opacity:1"
     id="path898" />
</svg>
