<?xml version="1.0" encoding="UTF-8" standalone="no"?>
<svg
   xmlns:dc="http://purl.org/dc/elements/1.1/"
   xmlns:cc="http://creativecommons.org/ns#"
   xmlns:rdf="http://www.w3.org/1999/02/22-rdf-syntax-ns#"
   xmlns:svg="http://www.w3.org/2000/svg"
   xmlns="http://www.w3.org/2000/svg"
   xmlns:sodipodi="http://sodipodi.sourceforge.net/DTD/sodipodi-0.dtd"
   xmlns:inkscape="http://www.inkscape.org/namespaces/inkscape"
   version="1.1"
   width="100"
   height="100"
   id="svg4460"
   sodipodi:docname="uEA86-map-legend-o.svg"
   inkscape:version="1.0 (4035a4fb49, 2020-05-01)">
  <sodipodi:namedview
     pagecolor="#ffffff"
     bordercolor="#666666"
     borderopacity="1"
     objecttolerance="10"
     gridtolerance="10"
     guidetolerance="10"
     inkscape:pageopacity="0"
     inkscape:pageshadow="2"
     inkscape:window-width="1920"
     inkscape:window-height="1017"
     id="namedview11"
     showgrid="false"
     inkscape:zoom="2.8284272"
     inkscape:cx="-21.539087"
     inkscape:cy="97.674632"
     inkscape:window-x="-8"
     inkscape:window-y="-8"
     inkscape:window-maximized="1"
     inkscape:current-layer="svg4460"
     inkscape:document-rotation="0" />
  <defs
     id="defs4462" />
  <metadata
     id="metadata4465">
    <rdf:RDF>
      <cc:Work
         rdf:about="">
        <dc:format>image/svg+xml</dc:format>
        <dc:type
           rdf:resource="http://purl.org/dc/dcmitype/StillImage" />
        <dc:title />
      </cc:Work>
    </rdf:RDF>
  </metadata>
  <path
     d="M 12.466797,5.0870508 A 2.0835416,2.0835416 0 0 0 10.695312,6.1280664 L 0.2792969,24.171035 a 2.0835416,2.0835416 0 0 0 1.8046875,3.125 H 22.917969 a 2.0835416,2.0835416 0 0 0 1.802734,-3.125 L 14.304688,6.1280664 A 2.0835416,2.0835416 0 0 0 12.466797,5.0870508 Z M 12.5,11.337051 19.306641,23.128067 H 5.6914062 Z M 40,14.485489 v 7 h 15 v -7 z m 22,0 v 7 h 38 v -7 z M 2.0839844,39.671035 A 2.0835416,2.0835416 0 0 0 2.3595078e-8,41.75502 V 58.421035 A 2.0835416,2.0835416 0 0 0 2.0839844,60.50502 H 22.916016 A 2.0835416,2.0835416 0 0 0 25,58.421035 V 41.75502 a 2.0835416,2.0835416 0 0 0 -2.083984,-2.083985 z m 2.0820312,4.167969 H 20.833984 v 12.5 H 4.1660156 Z M 40,47.837051 v 7 h 27 v -7 z m 34,0 v 7 h 26 v -7 z M 12.5,69.913223 c -6.8788821,0 -12.499999976404922,5.621116 -12.499999976404922,12.5 0,6.878883 5.621117876404922,12.5 12.499999976404922,12.5 6.878884,0 12.5,-5.621117 12.5,-12.5 0,-6.878884 -5.621116,-12.5 -12.5,-12.5 z m 0,4.166016 c 4.62705,0 8.333984,3.706934 8.333984,8.333984 0,4.627048 -3.706934,8.333984 -8.333984,8.333984 -4.6270482,0 -8.3339844,-3.706936 -8.3339844,-8.333984 0,-4.62705 3.7069362,-8.333984 8.3339844,-8.333984 z M 40,81.188613 v 7 h 15 v -7 z m 22,0 v 7 h 38 v -7 z"
     style="color:#000000;font-style:normal;font-variant:normal;font-weight:normal;font-stretch:normal;font-size:medium;line-height:normal;font-family:sans-serif;font-variant-ligatures:normal;font-variant-position:normal;font-variant-caps:normal;font-variant-numeric:normal;font-variant-alternates:normal;font-variant-east-asian:normal;font-feature-settings:normal;font-variation-settings:normal;text-indent:0;text-align:start;text-decoration:none;text-decoration-line:none;text-decoration-style:solid;text-decoration-color:#000000;letter-spacing:normal;word-spacing:normal;text-transform:none;writing-mode:lr-tb;direction:ltr;text-orientation:mixed;dominant-baseline:auto;baseline-shift:baseline;text-anchor:start;white-space:normal;shape-padding:0;shape-margin:0;inline-size:0;clip-rule:nonzero;display:inline;overflow:visible;visibility:visible;opacity:1;isolation:auto;mix-blend-mode:normal;color-interpolation:sRGB;color-interpolation-filters:linearRGB;solid-color:#000000;solid-opacity:1;vector-effect:none;fill:#000080;fill-opacity:1;fill-rule:evenodd;stroke:none;stroke-width:7;stroke-linecap:butt;stroke-linejoin:miter;stroke-miterlimit:4;stroke-dasharray:none;stroke-dashoffset:0;stroke-opacity:1;color-rendering:auto;image-rendering:auto;shape-rendering:auto;text-rendering:auto;enable-background:accumulate;stop-color:#000000;stop-opacity:1"
     id="path937-7" />
</svg>
