<?xml version="1.0" encoding="UTF-8" standalone="no"?>
<svg
   xmlns:dc="http://purl.org/dc/elements/1.1/"
   xmlns:cc="http://creativecommons.org/ns#"
   xmlns:rdf="http://www.w3.org/1999/02/22-rdf-syntax-ns#"
   xmlns:svg="http://www.w3.org/2000/svg"
   xmlns="http://www.w3.org/2000/svg"
   xmlns:sodipodi="http://sodipodi.sourceforge.net/DTD/sodipodi-0.dtd"
   xmlns:inkscape="http://www.inkscape.org/namespaces/inkscape"
   inkscape:version="1.0 (4035a4fb49, 2020-05-01)"
   sodipodi:docname="uEA95-map-options-alt.svg"
   id="svg4460"
   height="100"
   width="100"
   version="1.1">
  <sodipodi:namedview
     inkscape:document-rotation="0"
     inkscape:current-layer="svg4460"
     inkscape:window-maximized="1"
     inkscape:window-y="-8"
     inkscape:window-x="-8"
     inkscape:cy="32.199791"
     inkscape:cx="91.370174"
     inkscape:zoom="22.627417"
     showgrid="false"
     id="namedview11"
     inkscape:window-height="1017"
     inkscape:window-width="1920"
     inkscape:pageshadow="2"
     inkscape:pageopacity="0"
     guidetolerance="10"
     gridtolerance="10"
     objecttolerance="10"
     borderopacity="1"
     bordercolor="#666666"
     pagecolor="#ffffff" />
  <defs
     id="defs4462" />
  <metadata
     id="metadata4465">
    <rdf:RDF>
      <cc:Work
         rdf:about="">
        <dc:format>image/svg+xml</dc:format>
        <dc:type
           rdf:resource="http://purl.org/dc/dcmitype/StillImage" />
        <dc:title />
      </cc:Work>
    </rdf:RDF>
  </metadata>
  <path
     sodipodi:nodetypes="ccccccccccccccccccccccccccccc"
     d="M 2.5234375,5 C 1.1336389,4.9871104 7.9200869e-5,6.1101417 0,7.5 v 70.289062 c 4.8005406e-5,0.973094 0.56467934,1.857759 1.4472656,2.267579 L 33.113281,94.767578 c 0.336998,0.156475 0.704634,0.235874 1.076172,0.232422 0.356386,-0.0031 0.707994,-0.08233 1.03125,-0.232422 L 65.833984,80.546875 96.447266,94.767578 C 98.104294,95.536557 99.999739,94.326765 100,92.5 V 36.302734 l -5,6.167969 V 88.582031 L 67.322266,75.724609 67.142578,44.511719 64.146484,45.074219 64.322266,75.734375 35.646484,89.056641 35.277344,24.451172 51.53125,16.900391 54.886719,9.8261719 34.166016,19.453125 3.5527344,5.2324219 C 3.2300773,5.0826045 2.8791643,5.0033661 2.5234375,5 Z M 5,11.417969 32.275391,24.087891 32.646484,89.037109 5,76.193359 Z"
     style="color:#000000;font-style:normal;font-variant:normal;font-weight:normal;font-stretch:normal;font-size:medium;line-height:normal;font-family:sans-serif;font-variant-ligatures:normal;font-variant-position:normal;font-variant-caps:normal;font-variant-numeric:normal;font-variant-alternates:normal;font-variant-east-asian:normal;font-feature-settings:normal;font-variation-settings:normal;text-indent:0;text-align:start;text-decoration:none;text-decoration-line:none;text-decoration-style:solid;text-decoration-color:#000000;letter-spacing:normal;word-spacing:normal;text-transform:none;writing-mode:lr-tb;direction:ltr;text-orientation:mixed;dominant-baseline:auto;baseline-shift:baseline;text-anchor:start;white-space:normal;shape-padding:0;shape-margin:0;inline-size:0;clip-rule:nonzero;display:inline;overflow:visible;visibility:visible;opacity:1;isolation:auto;mix-blend-mode:normal;color-interpolation:sRGB;color-interpolation-filters:linearRGB;solid-color:#000000;solid-opacity:1;vector-effect:none;fill:#000080;fill-opacity:1;fill-rule:evenodd;stroke:none;stroke-width:3;stroke-linecap:butt;stroke-linejoin:miter;stroke-miterlimit:4;stroke-dasharray:none;stroke-dashoffset:0;stroke-opacity:1;color-rendering:auto;image-rendering:auto;shape-rendering:auto;text-rendering:auto;enable-background:accumulate;stop-color:#000000;stop-opacity:1"
     id="path967" />
  <path
     id="path917"
     style="color:#000000;font-style:normal;font-variant:normal;font-weight:normal;font-stretch:normal;font-size:medium;line-height:normal;font-family:sans-serif;font-variant-ligatures:normal;font-variant-position:normal;font-variant-caps:normal;font-variant-numeric:normal;font-variant-alternates:normal;font-variant-east-asian:normal;font-feature-settings:normal;font-variation-settings:normal;text-indent:0;text-align:start;text-decoration:none;text-decoration-line:none;text-decoration-style:solid;text-decoration-color:#000000;letter-spacing:normal;word-spacing:normal;text-transform:none;writing-mode:lr-tb;direction:ltr;text-orientation:mixed;dominant-baseline:auto;baseline-shift:baseline;text-anchor:start;white-space:normal;shape-padding:0;shape-margin:0;inline-size:0;clip-rule:nonzero;display:inline;overflow:visible;visibility:visible;opacity:1;isolation:auto;mix-blend-mode:normal;color-interpolation:sRGB;color-interpolation-filters:linearRGB;solid-color:#000000;solid-opacity:1;vector-effect:none;fill:#000080;fill-opacity:1;fill-rule:nonzero;stroke:none;stroke-width:7.875;stroke-linecap:round;stroke-linejoin:round;stroke-miterlimit:4;stroke-dasharray:none;stroke-dashoffset:20;stroke-opacity:1;color-rendering:auto;image-rendering:auto;shape-rendering:auto;text-rendering:auto;enable-background:accumulate;stop-color:#000000;stop-opacity:1"
     d="M 74.125,0 A 1.1251125,1.1251125 0 0 0 73,1.125 V 7.4144529 C 71.958951,7.7279787 70.961297,8.1451206 70.021387,8.6572265 L 65.56797,4.2038086 A 1.1251125,1.1251125 0 0 0 64.758496,3.8742188 1.1251125,1.1251125 0 0 0 63.97627,4.2038086 l -4.772461,4.7724611 a 1.1251125,1.1251125 0 0 0 0,1.5916983 l 4.453418,4.453419 C 63.145122,15.961298 62.727979,16.958951 62.414453,18 H 56.125 A 1.1251125,1.1251125 0 0 0 55,19.125 v 6.75 A 1.1251125,1.1251125 0 0 0 56.125,27 h 6.289453 c 0.313526,1.041049 0.730669,2.038703 1.242774,2.978613 l -4.453418,4.453417 a 1.1251125,1.1251125 0 0 0 0,1.5917 l 4.772461,4.772461 a 1.1251125,1.1251125 0 0 0 1.5917,0 l 4.453417,-4.453417 C 70.961297,36.85488 71.958951,37.272021 73,37.585547 V 43.875 A 1.1251125,1.1251125 0 0 0 74.125,45 h 6.75 A 1.1251125,1.1251125 0 0 0 82,43.875 v -6.289453 c 1.041049,-0.313526 2.038702,-0.730667 2.978613,-1.242773 l 4.453418,4.453417 a 1.1251125,1.1251125 0 0 0 1.591695,0 L 95.79619,36.02373 a 1.1251125,1.1251125 0 0 0 0,-1.5917 L 91.342776,29.978613 C 91.854876,29.038703 92.272026,28.041049 92.585541,27 H 98.875 A 1.1251125,1.1251125 0 0 0 100,25.875 v -6.75 A 1.1251125,1.1251125 0 0 0 98.875,18 h -6.289459 c -0.313515,-1.041049 -0.730665,-2.038702 -1.242765,-2.978613 l 4.453414,-4.453419 a 1.1251125,1.1251125 0 0 0 0,-1.5916983 L 91.023726,4.2038086 A 1.1251125,1.1251125 0 0 0 90.214255,3.8742188 1.1251125,1.1251125 0 0 0 89.432031,4.2038086 L 84.978613,8.6572265 C 84.038702,8.1451206 83.041049,7.7279787 82,7.4144529 V 1.125 A 1.1251125,1.1251125 0 0 0 80.875,0 Z M 77.5,14.625 c 4.39588,0 7.875,3.47912 7.875,7.875 0,4.39588 -3.47912,7.875 -7.875,7.875 -4.39588,0 -7.875,-3.47912 -7.875,-7.875 0,-4.39588 3.47912,-7.875 7.875,-7.875 z" />
</svg>
