<?xml version="1.0" encoding="UTF-8" standalone="no"?>
<svg
   xmlns:dc="http://purl.org/dc/elements/1.1/"
   xmlns:cc="http://creativecommons.org/ns#"
   xmlns:rdf="http://www.w3.org/1999/02/22-rdf-syntax-ns#"
   xmlns:svg="http://www.w3.org/2000/svg"
   xmlns="http://www.w3.org/2000/svg"
   xmlns:sodipodi="http://sodipodi.sourceforge.net/DTD/sodipodi-0.dtd"
   xmlns:inkscape="http://www.inkscape.org/namespaces/inkscape"
   inkscape:version="1.0 (4035a4fb49, 2020-05-01)"
   sodipodi:docname="uEA94-map-options.svg"
   id="svg4460"
   height="100"
   width="100"
   version="1.1">
  <sodipodi:namedview
     inkscape:document-rotation="0"
     inkscape:current-layer="svg4460"
     inkscape:window-maximized="1"
     inkscape:window-y="-8"
     inkscape:window-x="-8"
     inkscape:cy="48.410436"
     inkscape:cx="79.202683"
     inkscape:zoom="2.8284272"
     showgrid="false"
     id="namedview11"
     inkscape:window-height="1017"
     inkscape:window-width="1920"
     inkscape:pageshadow="2"
     inkscape:pageopacity="0"
     guidetolerance="10"
     gridtolerance="10"
     objecttolerance="10"
     borderopacity="1"
     bordercolor="#666666"
     pagecolor="#ffffff" />
  <defs
     id="defs4462" />
  <metadata
     id="metadata4465">
    <rdf:RDF>
      <cc:Work
         rdf:about="">
        <dc:format>image/svg+xml</dc:format>
        <dc:type
           rdf:resource="http://purl.org/dc/dcmitype/StillImage" />
        <dc:title />
      </cc:Work>
    </rdf:RDF>
  </metadata>
  <path
     id="path967"
     style="color:#000000;font-style:normal;font-variant:normal;font-weight:normal;font-stretch:normal;font-size:medium;line-height:normal;font-family:sans-serif;font-variant-ligatures:normal;font-variant-position:normal;font-variant-caps:normal;font-variant-numeric:normal;font-variant-alternates:normal;font-variant-east-asian:normal;font-feature-settings:normal;font-variation-settings:normal;text-indent:0;text-align:start;text-decoration:none;text-decoration-line:none;text-decoration-style:solid;text-decoration-color:#000000;letter-spacing:normal;word-spacing:normal;text-transform:none;writing-mode:lr-tb;direction:ltr;text-orientation:mixed;dominant-baseline:auto;baseline-shift:baseline;text-anchor:start;white-space:normal;shape-padding:0;shape-margin:0;inline-size:0;clip-rule:nonzero;display:inline;overflow:visible;visibility:visible;opacity:1;isolation:auto;mix-blend-mode:normal;color-interpolation:sRGB;color-interpolation-filters:linearRGB;solid-color:#000000;solid-opacity:1;vector-effect:none;fill:#000080;fill-opacity:1;fill-rule:evenodd;stroke:none;stroke-width:3;stroke-linecap:butt;stroke-linejoin:miter;stroke-miterlimit:4;stroke-dasharray:none;stroke-dashoffset:0;stroke-opacity:1;color-rendering:auto;image-rendering:auto;shape-rendering:auto;text-rendering:auto;enable-background:accumulate;stop-color:#000000;stop-opacity:1"
     d="M 2.5234375,0 C 1.1336389,-0.01288965 7.9200869e-5,1.1101417 0,2.5 v 70.289062 c 4.8005406e-5,0.973093 0.56467932,1.857759 1.4472656,2.267579 L 33.113281,89.767578 c 0.336998,0.156475 0.704634,0.235874 1.076172,0.232422 0.356386,-0.0031 0.707994,-0.08233 1.03125,-0.232422 L 49.513672,83.128906 C 48.297341,81.855718 47.079687,80.583652 45.863281,79.310547 L 35.646484,84.056641 35.578125,72.0625 c -0.991575,0.156661 -1.993908,0.234154 -2.998047,0.236328 L 32.646484,84.037109 5,71.193359 V 6.4179688 l 27.275391,12.6699222 0.06445,11.328125 c 0.996078,-0.149014 2.003432,-0.229729 2.998047,-0.277344 L 35.277344,19.451172 63.953125,6.1289062 64.289062,64.886719 67.304688,67.771484 66.951172,5.7753906 95,18.804688 v 64.777343 l -21.708984,-10.083984 6.755859,6.460937 c 1.368712,1.437326 2.984602,2.676442 4.283203,4.179688 l 12.117188,5.628906 C 98.104294,90.536557 99.999739,89.326765 100,87.5 V 17.210938 c -4.8e-5,-0.973094 -0.56468,-1.857759 -1.447266,-2.267579 L 66.886719,0.23242188 C 66.549125,0.0756631 66.180789,-0.0037425 65.808594,0 65.452867,0.00336607 65.101954,0.08260449 64.779297,0.23242188 L 34.166016,14.453125 3.5527344,0.23242188 C 3.2300773,0.08260451 2.8791643,0.00336608 2.5234375,0 Z"
     sodipodi:nodetypes="cccccccccccccccccccccccccccccccccccccc" />
  <path
     d="M 35.572266 34.132812 C 33.654216 34.153596 31.696844 34.498763 29.787109 35.181641 C 28.871859 35.509089 28.609355 36.678046 29.296875 37.365234 L 37.996094 46.064453 L 35.841797 52.90625 L 28.998047 55.0625 L 20.298828 46.363281 C 19.771688 45.83584 18.913121 45.847212 18.400391 46.388672 C 18.274091 46.52204 18.177104 46.680564 18.115234 46.853516 C 15.930034 52.964666 17.199616 59.547592 21.509766 63.859375 C 26.213646 68.563246 33.311087 69.459112 39.492188 66.857422 L 69.447266 98.177734 C 72.291596 101.02205 77.585368 100.33846 80.429688 97.494141 C 83.274007 94.649818 83.955638 89.35605 81.111328 86.511719 L 49.792969 56.556641 C 52.394649 50.375549 51.496839 43.280043 46.792969 38.576172 C 43.828689 35.612867 39.791976 34.087089 35.572266 34.132812 z M 74.4375 89 A 2.5000002 2.5000002 0 0 1 76.9375 91.5 A 2.5000002 2.5000002 0 0 1 74.4375 94 A 2.5000002 2.5000002 0 0 1 71.9375 91.5 A 2.5000002 2.5000002 0 0 1 74.4375 89 z "
     style="color:#000000;font-style:normal;font-variant:normal;font-weight:normal;font-stretch:normal;font-size:medium;line-height:normal;font-family:sans-serif;font-variant-ligatures:normal;font-variant-position:normal;font-variant-caps:normal;font-variant-numeric:normal;font-variant-alternates:normal;font-variant-east-asian:normal;font-feature-settings:normal;font-variation-settings:normal;text-indent:0;text-align:start;text-decoration:none;text-decoration-line:none;text-decoration-style:solid;text-decoration-color:#000000;letter-spacing:normal;word-spacing:normal;text-transform:none;writing-mode:lr-tb;direction:ltr;text-orientation:mixed;dominant-baseline:auto;baseline-shift:baseline;text-anchor:start;white-space:normal;shape-padding:0;shape-margin:0;inline-size:0;clip-rule:nonzero;display:inline;overflow:visible;visibility:visible;isolation:auto;mix-blend-mode:normal;color-interpolation:sRGB;color-interpolation-filters:linearRGB;solid-color:#000000;solid-opacity:1;vector-effect:none;fill:#000080;fill-opacity:1;fill-rule:nonzero;stroke:none;stroke-width:2.64849;stroke-linecap:round;stroke-linejoin:round;stroke-miterlimit:4;stroke-dasharray:none;stroke-dashoffset:20;stroke-opacity:1;color-rendering:auto;image-rendering:auto;shape-rendering:auto;text-rendering:auto;enable-background:accumulate;stop-color:#000000"
     id="path851" />
</svg>
