<?xml version="1.0" encoding="UTF-8" standalone="no"?>
<svg
   xmlns:dc="http://purl.org/dc/elements/1.1/"
   xmlns:cc="http://creativecommons.org/ns#"
   xmlns:rdf="http://www.w3.org/1999/02/22-rdf-syntax-ns#"
   xmlns:svg="http://www.w3.org/2000/svg"
   xmlns="http://www.w3.org/2000/svg"
   xmlns:sodipodi="http://sodipodi.sourceforge.net/DTD/sodipodi-0.dtd"
   xmlns:inkscape="http://www.inkscape.org/namespaces/inkscape"
   version="1.1"
   width="100"
   height="100"
   id="svg4460"
   sodipodi:docname="uEA54-map-stat.svg"
   inkscape:version="1.0 (4035a4fb49, 2020-05-01)">
  <sodipodi:namedview
     pagecolor="#ffffff"
     bordercolor="#666666"
     borderopacity="1"
     objecttolerance="10"
     gridtolerance="10"
     guidetolerance="10"
     inkscape:pageopacity="0"
     inkscape:pageshadow="2"
     inkscape:window-width="1920"
     inkscape:window-height="1017"
     id="namedview11"
     showgrid="false"
     inkscape:zoom="2"
     inkscape:cx="61.271574"
     inkscape:cy="86.25316"
     inkscape:window-x="-8"
     inkscape:window-y="-8"
     inkscape:window-maximized="1"
     inkscape:current-layer="svg4460"
     inkscape:document-rotation="0" />
  <defs
     id="defs4462" />
  <metadata
     id="metadata4465">
    <rdf:RDF>
      <cc:Work
         rdf:about="">
        <dc:format>image/svg+xml</dc:format>
        <dc:type
           rdf:resource="http://purl.org/dc/dcmitype/StillImage" />
        <dc:title />
      </cc:Work>
    </rdf:RDF>
  </metadata>
  <path
     d="M 2.5234375 5 A 2.50025 2.50025 0 0 0 0 7.5 L 0 77.789062 A 2.50025 2.50025 0 0 0 1.4472656 80.056641 L 33.113281 94.767578 A 2.50025 2.50025 0 0 0 34.189453 95 A 2.50025 2.50025 0 0 0 35.220703 94.767578 L 65.833984 80.546875 L 96.447266 94.767578 A 2.50025 2.50025 0 0 0 100 92.5 L 100 22.210938 A 2.50025 2.50025 0 0 0 98.552734 19.943359 L 66.886719 5.2324219 A 2.50025 2.50025 0 0 0 65.808594 5 A 2.50025 2.50025 0 0 0 64.779297 5.2324219 L 34.166016 19.453125 L 3.5527344 5.2324219 A 2.50025 2.50025 0 0 0 2.5234375 5 z M 66.951172 10.775391 L 95 23.804688 L 95 88.582031 L 67.322266 75.724609 L 66.951172 10.775391 z M 63.953125 11.128906 L 64.322266 75.734375 L 35.646484 89.056641 L 35.583984 78.185547 C 34.58648 78.264106 33.583293 78.275243 32.583984 78.21875 L 32.646484 89.037109 L 5 76.193359 L 5 11.417969 L 32.275391 24.087891 L 32.320312 31.996094 C 33.324517 31.99081 34.327543 32.047653 35.322266 32.177734 L 35.277344 24.451172 L 63.953125 11.128906 z "
     style="color:#000000;font-style:normal;font-variant:normal;font-weight:normal;font-stretch:normal;font-size:medium;line-height:normal;font-family:sans-serif;font-variant-ligatures:normal;font-variant-position:normal;font-variant-caps:normal;font-variant-numeric:normal;font-variant-alternates:normal;font-variant-east-asian:normal;font-feature-settings:normal;font-variation-settings:normal;text-indent:0;text-align:start;text-decoration:none;text-decoration-line:none;text-decoration-style:solid;text-decoration-color:#000000;letter-spacing:normal;word-spacing:normal;text-transform:none;writing-mode:lr-tb;direction:ltr;text-orientation:mixed;dominant-baseline:auto;baseline-shift:baseline;text-anchor:start;white-space:normal;shape-padding:0;shape-margin:0;inline-size:0;clip-rule:nonzero;display:inline;overflow:visible;visibility:visible;opacity:1;isolation:auto;mix-blend-mode:normal;color-interpolation:sRGB;color-interpolation-filters:linearRGB;solid-color:#000000;solid-opacity:1;vector-effect:none;fill:#000080;fill-opacity:1;fill-rule:evenodd;stroke:none;stroke-width:3;stroke-linecap:butt;stroke-linejoin:miter;stroke-miterlimit:4;stroke-dasharray:none;stroke-dashoffset:0;stroke-opacity:1;color-rendering:auto;image-rendering:auto;shape-rendering:auto;text-rendering:auto;enable-background:accumulate;stop-color:#000000;stop-opacity:1"
     id="path967" />
  <path
     d="M 44.8202,34.729614 37.808481,51.723755 56.18934,52.02063 A 18.384775,18.384775 0 0 0 44.8202,34.729614 Z M 32.365122,35.985473 A 18.384775,18.384775 0 0 0 17.093637,44.14563 18.384775,18.384775 0 0 0 19.431528,67.428833 L 32.370981,54.370239 39.511606,37.428833 a 18.384775,18.384775 0 0 0 -7.146484,-1.44336 z M 33.745981,55.870239 20.56434,68.684692 a 18.384775,18.384775 0 0 0 20.097657,4.220703 18.384775,18.384775 0 0 0 11.46875,-17.035156 z"
     style="color:#000000;overflow:visible;fill:#000080;stroke-width:3.3121;stroke-linecap:round;stroke-linejoin:round;stroke-dashoffset:20;stop-color:#000000"
     id="path830-9" />
</svg>
