<?xml version="1.0" encoding="UTF-8" standalone="no"?>
<svg
   xmlns:dc="http://purl.org/dc/elements/1.1/"
   xmlns:cc="http://creativecommons.org/ns#"
   xmlns:rdf="http://www.w3.org/1999/02/22-rdf-syntax-ns#"
   xmlns:svg="http://www.w3.org/2000/svg"
   xmlns="http://www.w3.org/2000/svg"
   xmlns:sodipodi="http://sodipodi.sourceforge.net/DTD/sodipodi-0.dtd"
   xmlns:inkscape="http://www.inkscape.org/namespaces/inkscape"
   version="1.1"
   width="100"
   height="100"
   id="svg4460"
   sodipodi:docname="uEAB9-phone-map.svg"
   inkscape:version="1.0 (4035a4fb49, 2020-05-01)">
  <path
     d="M 22.5 0 C 19.738691 0.00027608953 17.500276 2.2386906 17.5 5 L 17.5 95 C 17.500276 97.761309 19.738691 99.999724 22.5 100 L 77.5 100 C 80.261309 99.999724 82.499724 97.761309 82.5 95 L 82.5 5 C 82.499724 2.2386906 80.261309 0.00027608953 77.5 0 L 22.5 0 z M 27.5 10 L 50.785156 10 L 47.539062 15.443359 L 54.333984 19.494141 L 59.996094 10 L 63.910156 10 C 58.343438 19.266817 52.921598 27.189987 43.166016 31.810547 C 41.437322 30.447209 39.266613 29.623047 36.914062 29.623047 C 34.100209 29.623047 31.542314 30.795306 29.697266 32.669922 C 28.954314 32.403432 28.224454 32.119077 27.5 31.828125 L 27.5 25.591797 L 28.767578 26.324219 L 30.748047 22.890625 L 27.5 21.015625 L 27.5 10 z M 65.400391 10 L 69.371094 10 C 63.146902 20.538021 57.013084 30.48699 44.986328 36.111328 C 45.497088 37.229261 45.791016 38.465642 45.791016 39.769531 C 45.791016 41.578693 45.2399 43.264575 44.300781 44.671875 C 50.164614 48.633127 58.405465 56.490592 66.980469 64.515625 C 68.419975 65.862814 69.863624 67.193652 71.306641 68.529297 C 71.329541 68.39508 71.338091 68.312943 71.363281 68.169922 C 71.624346 66.684673 72.009875 64.717857 72.5 62.433594 L 72.5 74.234375 C 69.907753 71.880344 67.280847 69.446745 64.660156 66.994141 C 55.780348 58.683846 47.116957 50.534977 41.865234 47.126953 C 40.448595 48.085283 38.743351 48.646484 36.914062 48.646484 C 35.393029 48.646484 33.959645 48.257791 32.705078 47.576172 C 31.271942 49.409116 29.486917 50.990071 27.5 52.425781 L 27.5 48.078125 C 28.488125 47.232769 29.36517 46.352071 30.085938 45.421875 C 28.809742 43.883726 28.039063 41.912377 28.039062 39.769531 C 28.039062 38.864984 28.177202 37.991743 28.431641 37.167969 C 28.114162 37.055876 27.81305 36.927066 27.5 36.810547 L 27.5 33.191406 C 28.342585 33.523114 29.193109 33.845174 30.0625 34.144531 C 31.693449 32.163536 34.162721 30.896484 36.914062 30.896484 C 39.248275 30.896484 41.374063 31.814278 42.962891 33.300781 C 53.771401 28.465193 59.514528 19.855597 65.400391 10 z M 70.859375 10 L 72.037109 10 C 62.343274 24.889132 58.254772 37.47406 55.798828 52.404297 C 52.211133 49.176989 48.878062 46.3489 45.978516 44.285156 C 46.665724 42.920554 47.0625 41.390302 47.0625 39.769531 C 47.0625 38.716654 46.898785 37.69995 46.595703 36.742188 C 58.53209 30.743994 64.66441 20.509499 70.859375 10 z M 39.076172 15.890625 L 36.003906 21.212891 L 39.574219 23.275391 L 38.353516 25.388672 L 43.675781 28.462891 L 44.898438 26.347656 L 47.970703 21.025391 L 42.648438 17.953125 L 39.076172 15.890625 z M 36.914062 34.289062 C 33.866025 34.289062 31.433594 36.721503 31.433594 39.769531 C 31.433594 42.817568 33.866025 45.253906 36.914062 45.253906 C 39.962091 45.253906 42.398438 42.817568 42.398438 39.769531 C 42.398438 36.721503 39.962091 34.289062 36.914062 34.289062 z M 36.914062 35.560547 C 39.274501 35.560547 41.125 37.409092 41.125 39.769531 C 41.125 42.129979 39.274501 43.980469 36.914062 43.980469 C 34.553615 43.980469 32.705078 42.129979 32.705078 39.769531 C 32.705078 37.409092 34.553615 35.560547 36.914062 35.560547 z M 72.5 40.755859 L 72.5 56.712891 C 72.05126 58.595139 71.633232 60.408747 71.285156 62.025391 C 70.961276 63.529672 70.7035 64.830209 70.474609 66.021484 C 69.598043 65.206133 68.722696 64.40499 67.849609 63.587891 C 67.525865 63.284911 67.215118 62.995651 66.892578 62.693359 C 68.617159 57.186264 70.332717 50.884215 72.03125 42.78125 C 72.173378 42.103215 72.330948 41.428034 72.5 40.755859 z M 27.5 43.519531 C 27.763011 44.170764 28.088798 44.791409 28.474609 45.369141 C 28.178672 45.701215 27.841706 46.026131 27.5 46.349609 L 27.5 43.519531 z M 41.828125 48.628906 C 45.057072 50.853245 49.660422 54.890159 54.71875 59.515625 C 54.39225 61.483389 53.936614 63.39119 53.386719 65.224609 C 53.104867 64.895674 52.692934 64.705264 52.259766 64.705078 C 51.439996 64.705078 50.775391 65.369683 50.775391 66.189453 C 50.775391 67.009224 51.439996 67.673828 52.259766 67.673828 C 52.374738 67.673284 52.489798 67.659783 52.601562 67.632812 C 52.191857 68.793477 51.751938 69.913608 51.292969 70.998047 C 50.963593 71.280272 50.775094 71.693209 50.775391 72.126953 C 50.775357 72.151293 50.776136 72.174959 50.777344 72.199219 C 50.531506 72.749284 50.280835 73.282033 50.029297 73.808594 C 49.80446 73.679484 49.550289 73.611388 49.291016 73.611328 C 48.471245 73.611328 47.806641 74.275932 47.806641 75.095703 C 47.806616 75.690119 48.160401 76.227415 48.707031 76.460938 C 48.398622 77.049248 48.106471 77.553517 47.804688 78.101562 C 47.805416 78.088842 47.805789 78.077173 47.806641 78.064453 C 47.806658 78.060253 47.806658 78.056754 47.806641 78.052734 C 47.799841 77.237501 47.137533 76.580052 46.322266 76.580078 C 45.502504 76.580078 44.837891 77.244683 44.837891 78.064453 C 44.837891 78.884224 45.502504 79.548828 46.322266 79.548828 C 46.617434 79.548574 46.90563 79.459885 47.150391 79.294922 C 45.615465 82.005959 44.283761 84.144554 43.611328 85.509766 C 43.526028 85.494496 43.440175 85.486498 43.353516 85.486328 C 42.907134 85.486328 42.512354 85.688131 42.240234 86 L 38.53125 86 C 38.259049 85.687212 37.862901 85.486314 37.416016 85.486328 C 36.96963 85.486328 36.574852 85.688131 36.302734 86 L 32.591797 86 C 32.319679 85.688131 31.924902 85.486328 31.478516 85.486328 C 31.03213 85.486328 30.637352 85.688131 30.365234 86 L 27.5 86 L 27.5 65.992188 C 28.098239 66.248273 28.754987 66.392578 29.443359 66.392578 C 32.18068 66.392578 34.427734 64.147486 34.427734 61.410156 C 34.427734 58.672835 32.18068 56.425781 29.443359 56.425781 C 28.754987 56.425781 28.098239 56.569901 27.5 56.826172 L 27.5 54.003906 C 29.569983 52.5829 31.474434 51.005598 33.068359 49.150391 C 34.257387 49.643805 35.554744 49.917969 36.914062 49.917969 C 38.692935 49.917969 40.36823 49.446319 41.828125 48.628906 z M 29.443359 58.970703 C 30.805501 58.970703 31.882812 60.048014 31.882812 61.410156 C 31.882812 62.772307 30.805501 63.849609 29.443359 63.849609 C 28.640159 63.849609 27.942652 63.469493 27.5 62.882812 L 27.5 59.9375 C 27.942652 59.350819 28.640159 58.970703 29.443359 58.970703 z M 49.320312 62.544922 C 48.865066 62.532101 48.407206 62.552538 47.943359 62.603516 C 47.854199 62.797335 47.806989 63.00736 47.806641 63.220703 C 47.806641 64.040474 48.471246 64.705078 49.291016 64.705078 C 50.110787 64.705078 50.775391 64.040474 50.775391 63.220703 C 50.775611 63.035969 50.740781 62.853806 50.673828 62.681641 C 50.226915 62.604087 49.77556 62.557743 49.320312 62.544922 z M 41.876953 63.365234 C 41.951083 64.12508 42.590056 64.704424 43.353516 64.705078 C 44.083752 64.705086 44.706215 64.174397 44.820312 63.453125 C 44.794193 63.464745 44.768397 63.470542 44.742188 63.482422 C 43.543669 63.463002 42.652474 63.412792 41.876953 63.365234 z M 38.880859 63.46875 C 38.409302 63.658243 38.038322 64.026636 37.597656 64.693359 C 38.249223 64.614049 38.770663 64.115813 38.880859 63.46875 z M 40.384766 64.705078 C 39.565004 64.705078 38.900391 65.369683 38.900391 66.189453 C 38.900391 67.009224 39.565004 67.673828 40.384766 67.673828 C 41.204536 67.673828 41.869141 67.009224 41.869141 66.189453 C 41.869158 66.185253 41.869158 66.181754 41.869141 66.177734 C 41.862341 65.362492 41.200033 64.705052 40.384766 64.705078 z M 46.322266 64.705078 C 45.502495 64.705078 44.837891 65.369683 44.837891 66.189453 C 44.837891 67.009224 45.502495 67.673828 46.322266 67.673828 C 47.142036 67.673828 47.806641 67.009224 47.806641 66.189453 C 47.806658 66.185253 47.806658 66.181754 47.806641 66.177734 C 47.799841 65.362492 47.137532 64.705052 46.322266 64.705078 z M 37.416016 67.673828 C 36.596254 67.673828 35.931641 68.338433 35.931641 69.158203 C 35.931641 69.977974 36.596254 70.642578 37.416016 70.642578 C 38.235787 70.642578 38.900391 69.977974 38.900391 69.158203 C 38.900408 69.154003 38.900408 69.150504 38.900391 69.146484 C 38.893591 68.331242 38.231283 67.673801 37.416016 67.673828 z M 43.353516 67.673828 C 42.533745 67.673828 41.869141 68.338433 41.869141 69.158203 C 41.869141 69.977974 42.533745 70.642578 43.353516 70.642578 C 44.173286 70.642578 44.837891 69.977974 44.837891 69.158203 C 44.837908 69.154003 44.837908 69.150504 44.837891 69.146484 C 44.831091 68.331242 44.168782 67.673801 43.353516 67.673828 z M 49.291016 67.673828 C 48.471246 67.673828 47.806641 68.338433 47.806641 69.158203 C 47.806641 69.977974 48.471246 70.642578 49.291016 70.642578 C 50.110787 70.642578 50.775391 69.977974 50.775391 69.158203 C 50.775391 68.338433 50.110787 67.673828 49.291016 67.673828 z M 64.833984 68.890625 C 67.403346 71.293771 69.968428 73.667279 72.5 75.957031 L 72.5 79.666016 C 72.495367 79.661676 72.492925 79.658643 72.488281 79.654297 C 71.924849 79.879854 71.556522 80.426301 71.556641 81.033203 C 71.556641 81.661651 71.948349 82.195564 72.5 82.412109 L 72.5 85.591797 C 72.276106 85.679685 72.083221 85.8218 71.927734 86 L 68.21875 86 C 67.946549 85.687211 67.550402 85.486314 67.103516 85.486328 C 66.65713 85.486328 66.262352 85.688131 65.990234 86 L 62.279297 86 C 62.007179 85.688131 61.612401 85.486328 61.166016 85.486328 C 60.71963 85.486328 60.324852 85.688131 60.052734 86 L 58.933594 86 C 59.033057 85.686752 59.13306 85.369012 59.232422 85.064453 C 59.519448 84.785036 59.681633 84.402525 59.681641 84.001953 C 59.681175 83.920353 59.674096 83.838253 59.660156 83.757812 C 59.84076 83.214463 60.020433 82.691561 60.201172 82.160156 C 60.469886 82.389913 60.812476 82.517468 61.166016 82.517578 C 61.985787 82.517578 62.650391 81.852973 62.650391 81.033203 C 62.650391 80.213432 61.985787 79.548828 61.166016 79.548828 C 61.142776 79.548852 61.118853 79.549631 61.095703 79.550781 C 61.518574 78.340905 61.942397 77.15631 62.365234 75.96875 C 62.535235 75.735762 62.633586 75.457948 62.648438 75.169922 C 62.863334 74.566845 63.078141 73.954212 63.292969 73.349609 C 63.54052 73.520052 63.834221 73.611294 64.134766 73.611328 C 64.616663 73.61182 65.067108 73.377577 65.345703 72.984375 L 63.896484 71.630859 C 64.209371 70.742818 64.521428 69.799149 64.833984 68.890625 z M 34.447266 70.642578 C 33.627495 70.642578 32.962891 71.307182 32.962891 72.126953 C 32.962891 72.946724 33.627495 73.611328 34.447266 73.611328 C 35.267037 73.611328 35.931641 72.946724 35.931641 72.126953 C 35.931658 72.122753 35.931658 72.119254 35.931641 72.115234 C 35.924841 71.299992 35.262533 70.642553 34.447266 70.642578 z M 40.384766 70.642578 C 39.565004 70.642578 38.900391 71.307182 38.900391 72.126953 C 38.900391 72.946724 39.565004 73.611328 40.384766 73.611328 C 41.204536 73.611328 41.869141 72.946724 41.869141 72.126953 C 41.869158 72.122753 41.869158 72.119254 41.869141 72.115234 C 41.862341 71.299992 41.200033 70.642551 40.384766 70.642578 z M 46.322266 70.642578 C 45.502495 70.642578 44.837891 71.307182 44.837891 72.126953 C 44.837891 72.946724 45.502495 73.611328 46.322266 73.611328 C 47.142036 73.611328 47.806641 72.946724 47.806641 72.126953 C 47.806658 72.122753 47.806658 72.119254 47.806641 72.115234 C 47.799841 71.299992 47.137532 70.642551 46.322266 70.642578 z M 31.478516 73.611328 C 31.098979 73.611175 30.734737 73.756795 30.458984 74.017578 L 30.476562 76.191406 C 30.750255 76.441866 31.10752 76.58012 31.478516 76.580078 C 32.298287 76.580078 32.962891 75.915474 32.962891 75.095703 C 32.962891 74.275933 32.298287 73.611328 31.478516 73.611328 z M 37.416016 73.611328 C 36.596254 73.611328 35.931641 74.275932 35.931641 75.095703 C 35.931641 75.915474 36.596254 76.580078 37.416016 76.580078 C 38.235787 76.580078 38.900391 75.915474 38.900391 75.095703 C 38.900408 75.091503 38.900408 75.088004 38.900391 75.083984 C 38.893591 74.268742 38.231283 73.611301 37.416016 73.611328 z M 43.353516 73.611328 C 42.533745 73.611328 41.869141 74.275932 41.869141 75.095703 C 41.869141 75.915474 42.533745 76.580078 43.353516 76.580078 C 44.173286 76.580078 44.837891 75.915474 44.837891 75.095703 C 44.837908 75.091503 44.837908 75.088004 44.837891 75.083984 C 44.831091 74.268742 44.168782 73.611301 43.353516 73.611328 z M 66.283203 73.859375 C 65.868762 74.134059 65.619616 74.598497 65.619141 75.095703 C 65.619141 75.915474 66.283745 76.580078 67.103516 76.580078 C 67.637329 76.580179 68.128649 76.294086 68.392578 75.830078 L 66.283203 73.859375 z M 34.447266 76.580078 C 33.627495 76.580078 32.962891 77.244682 32.962891 78.064453 C 32.962891 78.884224 33.627495 79.548828 34.447266 79.548828 C 35.267037 79.548828 35.931641 78.884224 35.931641 78.064453 C 35.931658 78.060253 35.931658 78.056754 35.931641 78.052734 C 35.924841 77.237492 35.262533 76.580051 34.447266 76.580078 z M 40.384766 76.580078 C 39.565004 76.580078 38.900391 77.244682 38.900391 78.064453 C 38.900391 78.884224 39.565004 79.548828 40.384766 79.548828 C 41.204536 79.548828 41.869141 78.884224 41.869141 78.064453 C 41.869158 78.060253 41.869158 78.056754 41.869141 78.052734 C 41.862341 77.237492 41.200033 76.580051 40.384766 76.580078 z M 64.134766 76.580078 C 63.314995 76.580078 62.650391 77.244682 62.650391 78.064453 C 62.650391 78.884224 63.314995 79.548828 64.134766 79.548828 C 64.954536 79.548828 65.619141 78.884224 65.619141 78.064453 C 65.619158 78.060253 65.619158 78.056754 65.619141 78.052734 C 65.612341 77.237492 64.950033 76.580051 64.134766 76.580078 z M 69.380859 76.75 C 68.892924 77.006568 68.587925 77.513176 68.587891 78.064453 C 68.587891 78.884224 69.252495 79.548828 70.072266 79.548828 C 70.660338 79.549082 71.192102 79.201998 71.429688 78.664062 L 69.380859 76.75 z M 31.478516 79.548828 C 31.122626 79.549133 30.779065 79.67749 30.509766 79.910156 L 30.529297 82.171875 C 30.795711 82.394151 31.131558 82.517188 31.478516 82.517578 C 32.298287 82.517578 32.962891 81.852974 32.962891 81.033203 C 32.962891 80.213432 32.298287 79.548828 31.478516 79.548828 z M 37.416016 79.548828 C 36.596254 79.548828 35.931641 80.213432 35.931641 81.033203 C 35.931641 81.852974 36.596254 82.517578 37.416016 82.517578 C 38.235787 82.517578 38.900391 81.852974 38.900391 81.033203 C 38.900408 81.029003 38.900408 81.025504 38.900391 81.021484 C 38.893591 80.206242 38.231283 79.548802 37.416016 79.548828 z M 43.353516 79.548828 C 42.533745 79.548828 41.869141 80.213432 41.869141 81.033203 C 41.869141 81.852974 42.533745 82.517578 43.353516 82.517578 C 44.173286 82.517578 44.837891 81.852974 44.837891 81.033203 C 44.837908 81.029003 44.837908 81.025504 44.837891 81.021484 C 44.831091 80.206242 44.168782 79.548802 43.353516 79.548828 z M 67.103516 79.548828 C 66.283745 79.548828 65.619141 80.213432 65.619141 81.033203 C 65.619141 81.852974 66.283745 82.517578 67.103516 82.517578 C 67.923286 82.517578 68.587891 81.852974 68.587891 81.033203 C 68.587908 81.029003 68.587908 81.025504 68.587891 81.021484 C 68.581091 80.206242 67.918782 79.548802 67.103516 79.548828 z M 34.447266 82.517578 C 33.627495 82.517578 32.962891 83.182182 32.962891 84.001953 C 32.962891 84.821723 33.627495 85.486328 34.447266 85.486328 C 35.267037 85.486328 35.931641 84.821723 35.931641 84.001953 C 35.931658 83.997753 35.931658 83.994254 35.931641 83.990234 C 35.924841 83.174992 35.262533 82.517552 34.447266 82.517578 z M 40.384766 82.517578 C 39.565004 82.517578 38.900391 83.182182 38.900391 84.001953 C 38.900391 84.821723 39.565004 85.486328 40.384766 85.486328 C 41.204536 85.486328 41.869141 84.821723 41.869141 84.001953 C 41.869158 83.997753 41.869158 83.994254 41.869141 83.990234 C 41.862341 83.174992 41.200033 82.517552 40.384766 82.517578 z M 64.134766 82.517578 C 63.314995 82.517578 62.650391 83.182182 62.650391 84.001953 C 62.650391 84.821723 63.314995 85.486328 64.134766 85.486328 C 64.954536 85.486328 65.619141 84.821723 65.619141 84.001953 C 65.619158 83.997753 65.619158 83.994254 65.619141 83.990234 C 65.612341 83.174992 64.950033 82.517552 64.134766 82.517578 z M 70.072266 82.517578 C 69.252495 82.517578 68.587891 83.182182 68.587891 84.001953 C 68.587891 84.821723 69.252495 85.486328 70.072266 85.486328 C 70.892036 85.486328 71.556641 84.821723 71.556641 84.001953 C 71.556658 83.997753 71.556658 83.994254 71.556641 83.990234 C 71.549841 83.174992 70.887532 82.517552 70.072266 82.517578 z M 45 90.410156 L 55 90.410156 L 55 95 L 45 95 L 45 90.410156 z "
     style="color:#000000;font-style:normal;font-variant:normal;font-weight:normal;font-stretch:normal;font-size:medium;line-height:normal;font-family:sans-serif;font-variant-ligatures:normal;font-variant-position:normal;font-variant-caps:normal;font-variant-numeric:normal;font-variant-alternates:normal;font-variant-east-asian:normal;font-feature-settings:normal;font-variation-settings:normal;text-indent:0;text-align:start;text-decoration:none;text-decoration-line:none;text-decoration-style:solid;text-decoration-color:#000000;letter-spacing:normal;word-spacing:normal;text-transform:none;writing-mode:lr-tb;direction:ltr;text-orientation:mixed;dominant-baseline:auto;baseline-shift:baseline;text-anchor:start;white-space:normal;shape-padding:0;shape-margin:0;inline-size:0;clip-rule:nonzero;display:inline;overflow:visible;visibility:visible;isolation:auto;mix-blend-mode:normal;color-interpolation:sRGB;color-interpolation-filters:linearRGB;solid-color:#000000;solid-opacity:1;vector-effect:none;fill:#000080;fill-opacity:1;fill-rule:nonzero;stroke:none;stroke-width:3.45135;stroke-linecap:round;stroke-linejoin:round;stroke-miterlimit:4;stroke-dasharray:none;stroke-dashoffset:188.976;stroke-opacity:1;color-rendering:auto;image-rendering:auto;shape-rendering:auto;text-rendering:auto;enable-background:accumulate;stop-color:#000000"
     id="path4492" />
  <sodipodi:namedview
     pagecolor="#ffffff"
     bordercolor="#666666"
     borderopacity="1"
     objecttolerance="10"
     gridtolerance="10"
     guidetolerance="10"
     inkscape:pageopacity="0"
     inkscape:pageshadow="2"
     inkscape:window-width="1920"
     inkscape:window-height="1017"
     id="namedview11"
     showgrid="false"
     inkscape:zoom="1.01"
     inkscape:cx="-213.23552"
     inkscape:cy="196.65846"
     inkscape:window-x="-8"
     inkscape:window-y="-8"
     inkscape:window-maximized="1"
     inkscape:current-layer="svg4460"
     inkscape:document-rotation="0" />
  <defs
     id="defs4462" />
  <metadata
     id="metadata4465">
    <rdf:RDF>
      <cc:Work
         rdf:about="">
        <dc:format>image/svg+xml</dc:format>
        <dc:type
           rdf:resource="http://purl.org/dc/dcmitype/StillImage" />
        <dc:title />
      </cc:Work>
    </rdf:RDF>
  </metadata>
</svg>
