<?xml version="1.0" encoding="UTF-8" standalone="no"?>
<svg
   xmlns:dc="http://purl.org/dc/elements/1.1/"
   xmlns:cc="http://creativecommons.org/ns#"
   xmlns:rdf="http://www.w3.org/1999/02/22-rdf-syntax-ns#"
   xmlns:svg="http://www.w3.org/2000/svg"
   xmlns="http://www.w3.org/2000/svg"
   xmlns:sodipodi="http://sodipodi.sourceforge.net/DTD/sodipodi-0.dtd"
   xmlns:inkscape="http://www.inkscape.org/namespaces/inkscape"
   version="1.1"
   width="100"
   height="100"
   id="svg4460"
   sodipodi:docname="hex-map.svg"
   inkscape:version="1.0 (4035a4fb49, 2020-05-01)">
  <path
     d="M 2.5 12.5 A 2.50025 2.50025 0 0 0 0 15 L 0 85 A 2.50025 2.50025 0 0 0 2.5 87.5 L 97.5 87.5 A 2.50025 2.50025 0 0 0 100 85 L 100 15 A 2.50025 2.50025 0 0 0 97.5 12.5 L 2.5 12.5 z M 7.2675781 17.5 L 20.917969 17.5 L 27.742188 29.320312 L 20.917969 41.142578 L 7.2675781 41.142578 L 5 37.214844 L 5 21.427734 L 7.2675781 17.5 z M 25.535156 17.5 L 50.525391 17.5 L 44.857422 27.320312 L 31.207031 27.320312 L 25.535156 17.5 z M 55.144531 17.5 L 68.794922 17.5 L 75.619141 29.320312 L 68.794922 41.142578 L 55.144531 41.142578 L 48.320312 29.320312 L 55.144531 17.5 z M 73.412109 17.5 L 95 17.5 L 95 23.396484 L 92.734375 27.320312 L 79.083984 27.320312 L 73.412109 17.5 z M 31.207031 31.320312 L 44.855469 31.320312 L 48.269531 37.230469 L 51.681641 43.142578 L 44.857422 54.962891 L 31.207031 54.962891 L 24.380859 43.142578 L 31.207031 31.320312 z M 79.083984 31.320312 L 92.732422 31.320312 L 95 35.248047 L 95 51.037109 L 92.734375 54.962891 L 79.083984 54.962891 L 72.257812 43.142578 L 75.671875 37.230469 L 79.083984 31.320312 z M 7.2675781 45.142578 L 20.917969 45.142578 L 24.330078 51.052734 L 27.742188 56.962891 L 24.330078 62.873047 L 20.917969 68.783203 L 7.2675781 68.783203 L 5 64.855469 L 5 49.070312 L 7.2675781 45.142578 z M 55.144531 45.142578 L 68.794922 45.142578 L 72.207031 51.052734 L 75.619141 56.962891 L 72.207031 62.873047 L 68.794922 68.783203 L 55.144531 68.783203 L 51.732422 62.873047 L 48.320312 56.962891 L 51.732422 51.052734 L 55.144531 45.142578 z M 31.207031 58.962891 L 44.855469 58.962891 L 47.267578 63.140625 L 51.679688 70.783203 L 44.917969 82.5 L 31.146484 82.5 L 24.380859 70.783203 L 27.792969 64.873047 L 31.207031 58.962891 z M 79.083984 58.962891 L 92.732422 58.962891 L 95 62.890625 L 95 78.681641 L 92.794922 82.5 L 79.023438 82.5 L 76.804688 78.65625 L 72.259766 70.783203 L 79.083984 58.962891 z M 7.2675781 72.783203 L 20.917969 72.783203 L 26.527344 82.5 L 5 82.5 L 5 76.710938 L 7.2675781 72.783203 z M 55.144531 72.783203 L 68.794922 72.783203 L 72.207031 78.695312 L 74.402344 82.5 L 49.535156 82.5 L 55.144531 72.783203 z "
     style="color:#000000;font-style:normal;font-variant:normal;font-weight:normal;font-stretch:normal;font-size:medium;line-height:normal;font-family:sans-serif;font-variant-ligatures:normal;font-variant-position:normal;font-variant-caps:normal;font-variant-numeric:normal;font-variant-alternates:normal;font-variant-east-asian:normal;font-feature-settings:normal;font-variation-settings:normal;text-indent:0;text-align:start;text-decoration:none;text-decoration-line:none;text-decoration-style:solid;text-decoration-color:#000000;letter-spacing:normal;word-spacing:normal;text-transform:none;writing-mode:lr-tb;direction:ltr;text-orientation:mixed;dominant-baseline:auto;baseline-shift:baseline;text-anchor:start;white-space:normal;shape-padding:0;shape-margin:0;inline-size:0;clip-rule:nonzero;display:inline;overflow:visible;visibility:visible;opacity:1;isolation:auto;mix-blend-mode:normal;color-interpolation:sRGB;color-interpolation-filters:linearRGB;solid-color:#000000;solid-opacity:1;vector-effect:none;fill:#000080;fill-opacity:1;fill-rule:nonzero;stroke:none;stroke-width:4;stroke-linecap:round;stroke-linejoin:round;stroke-miterlimit:4;stroke-dasharray:none;stroke-dashoffset:20;stroke-opacity:1;color-rendering:auto;image-rendering:auto;shape-rendering:auto;text-rendering:auto;enable-background:accumulate;stop-color:#000000;stop-opacity:1"
     id="path958" />
  <sodipodi:namedview
     pagecolor="#ffffff"
     bordercolor="#666666"
     borderopacity="1"
     objecttolerance="10"
     gridtolerance="10"
     guidetolerance="10"
     inkscape:pageopacity="0"
     inkscape:pageshadow="2"
     inkscape:window-width="1920"
     inkscape:window-height="1017"
     id="namedview11"
     showgrid="false"
     inkscape:zoom="8.0800002"
     inkscape:cx="65.736605"
     inkscape:cy="58.078746"
     inkscape:window-x="-8"
     inkscape:window-y="-8"
     inkscape:window-maximized="1"
     inkscape:current-layer="svg4460"
     inkscape:document-rotation="0" />
  <defs
     id="defs4462" />
  <metadata
     id="metadata4465">
    <rdf:RDF>
      <cc:Work
         rdf:about="">
        <dc:format>image/svg+xml</dc:format>
        <dc:type
           rdf:resource="http://purl.org/dc/dcmitype/StillImage" />
        <dc:title />
      </cc:Work>
    </rdf:RDF>
  </metadata>
</svg>
