<?xml version="1.0" encoding="UTF-8" standalone="no"?>
<svg
   xmlns:dc="http://purl.org/dc/elements/1.1/"
   xmlns:cc="http://creativecommons.org/ns#"
   xmlns:rdf="http://www.w3.org/1999/02/22-rdf-syntax-ns#"
   xmlns:svg="http://www.w3.org/2000/svg"
   xmlns="http://www.w3.org/2000/svg"
   xmlns:sodipodi="http://sodipodi.sourceforge.net/DTD/sodipodi-0.dtd"
   xmlns:inkscape="http://www.inkscape.org/namespaces/inkscape"
   inkscape:version="0.92.4 (5da689c313, 2019-01-14)"
   sodipodi:docname="uEADA-map-swipe-h.svg"
   id="svg4460"
   height="100"
   width="100"
   version="1.1">
  <sodipodi:namedview
     inkscape:document-rotation="0"
     inkscape:current-layer="svg4460"
     inkscape:window-maximized="1"
     inkscape:window-y="-8"
     inkscape:window-x="1272"
     inkscape:cy="50.928314"
     inkscape:cx="76.371309"
     inkscape:zoom="5.713423"
     showgrid="false"
     id="namedview11"
     inkscape:window-height="1177"
     inkscape:window-width="1920"
     inkscape:pageshadow="2"
     inkscape:pageopacity="0"
     guidetolerance="10"
     gridtolerance="10"
     objecttolerance="10"
     borderopacity="1"
     bordercolor="#666666"
     pagecolor="#ffffff" />
  <defs
     id="defs4462" />
  <metadata
     id="metadata4465">
    <rdf:RDF>
      <cc:Work
         rdf:about="">
        <dc:format>image/svg+xml</dc:format>
        <dc:type
           rdf:resource="http://purl.org/dc/dcmitype/StillImage" />
        <dc:title />
      </cc:Work>
    </rdf:RDF>
  </metadata>
  <path
     style="color:#000000;font-style:normal;font-variant:normal;font-weight:normal;font-stretch:normal;font-size:medium;line-height:normal;font-family:sans-serif;font-variant-ligatures:normal;font-variant-position:normal;font-variant-caps:normal;font-variant-numeric:normal;font-variant-alternates:normal;font-variant-east-asian:normal;font-feature-settings:normal;font-variation-settings:normal;text-indent:0;text-align:start;text-decoration:none;text-decoration-line:none;text-decoration-style:solid;text-decoration-color:#000000;letter-spacing:normal;word-spacing:normal;text-transform:none;writing-mode:lr-tb;direction:ltr;text-orientation:mixed;dominant-baseline:auto;baseline-shift:baseline;text-anchor:start;white-space:normal;shape-padding:0;shape-margin:0;inline-size:0;clip-rule:nonzero;display:inline;overflow:visible;visibility:visible;isolation:auto;mix-blend-mode:normal;color-interpolation:sRGB;color-interpolation-filters:linearRGB;solid-color:#000000;solid-opacity:1;vector-effect:none;fill:#000080;fill-opacity:1;fill-rule:nonzero;stroke:none;stroke-width:4.0691;stroke-linecap:round;stroke-linejoin:round;stroke-miterlimit:4;stroke-dasharray:none;stroke-dashoffset:188.976;stroke-opacity:1;color-rendering:auto;image-rendering:auto;shape-rendering:auto;text-rendering:auto;enable-background:accumulate;stop-color:#000000"
     d="M 1.9648438 12.5 C 0.87979726 12.50054 0.00035983633 13.442919 0 14.605469 L 0 85.394531 C 0.00035983633 86.557081 0.87979726 87.49946 1.9648438 87.5 L 98.035156 87.5 C 99.120202 87.49946 99.99964 86.557081 100 85.394531 L 100 14.605469 C 99.99964 13.442919 99.120202 12.50054 98.035156 12.5 L 1.9648438 12.5 z M 24.373047 16.712891 L 36.757812 16.712891 C 39.947221 17.83041 43.238896 18.883434 46.53125 19.847656 C 47.396308 20.101003 48.247435 20.328428 49.107422 20.570312 L 50 19.5 L 51.4375 21.224609 C 56.958213 22.723991 62.226379 23.976587 66.535156 24.904297 C 68.308684 25.28615 69.841591 25.591465 71.246094 25.861328 C 70.284801 26.89479 69.34225 27.925714 68.378906 28.955078 C 68.021696 29.336768 67.678659 29.703714 67.322266 30.083984 C 63.926221 29.020494 60.248098 27.960661 56.169922 26.904297 L 63.792969 36.052734 C 65.655035 34.057 67.55207 32.032676 69.472656 29.980469 C 71.060968 28.283308 72.62841 26.582157 74.203125 24.880859 C 74.044887 24.853859 73.949868 24.84214 73.78125 24.8125 C 71.990922 24.497806 69.620766 24.03415 66.849609 23.4375 C 61.307296 22.244201 54.167378 20.52102 46.953125 18.408203 C 45.113657 17.869484 43.274662 17.300496 41.453125 16.712891 L 55.90625 16.712891 C 60.196394 17.826763 64.272948 18.791326 67.691406 19.527344 C 70.42065 20.11497 72.751926 20.570243 74.474609 20.873047 C 75.335951 21.024449 76.047154 21.137641 76.566406 21.208984 C 77.085659 21.280324 77.517079 21.293968 77.361328 21.298828 L 77.367188 21.457031 C 78.833652 19.850901 80.244864 18.273402 81.626953 16.712891 L 86.958984 16.712891 C 82.490067 21.873088 77.446221 27.316953 72.394531 32.714844 C 70.333744 34.916861 68.380594 37.02948 66.392578 39.169922 L 72.5 46.5 L 96.033203 46.5 L 96.033203 48.5 L 53.5 48.5 L 53.5 40.771484 L 60.242188 40.771484 L 50 28.476562 L 39.757812 40.771484 L 46.5 40.771484 L 46.5 48.5 L 3.9667969 48.5 L 3.9667969 46.5 L 27.5 46.5 L 30.416016 43 L 29.109375 43 C 22.03062 35.238566 13.031336 30.024435 3.9316406 24.658203 L 3.9316406 23.199219 C 14.727176 30.371133 24.462059 35.020195 34.380859 38.242188 L 45.857422 24.470703 C 45.172869 24.322208 44.555025 24.173668 43.847656 24.025391 C 37.108533 22.612748 30.610509 20.060862 24.373047 16.712891 z M 62.103516 16.712891 L 79.599609 16.712891 C 78.704873 17.717111 77.829828 18.709509 76.898438 19.734375 C 76.848236 19.728775 76.821248 19.729776 76.769531 19.722656 C 76.278809 19.655236 75.583033 19.543703 74.734375 19.394531 C 73.037059 19.096185 70.721339 18.644789 68.007812 18.060547 C 66.214168 17.674362 64.190622 17.20911 62.103516 16.712891 z M 88.949219 16.712891 L 96.068359 16.712891 L 96.068359 21.097656 C 96.027069 21.094756 95.987354 21.085938 95.945312 21.085938 C 95.940714 21.085918 95.936211 21.085918 95.931641 21.085938 C 94.970486 21.093438 94.195284 21.874752 94.195312 22.835938 C 94.195312 23.802436 94.978814 24.585938 95.945312 24.585938 C 95.987342 24.585938 96.027072 24.577139 96.068359 24.574219 L 96.068359 28.097656 C 96.027069 28.094756 95.987354 28.085936 95.945312 28.085938 C 95.940714 28.085918 95.936211 28.085916 95.931641 28.085938 C 94.970486 28.093438 94.195284 28.874752 94.195312 29.835938 C 94.195312 30.802436 94.978814 31.585938 95.945312 31.585938 C 95.987342 31.585938 96.027072 31.577139 96.068359 31.574219 L 96.068359 35.097656 C 96.027069 35.094756 95.987354 35.085938 95.945312 35.085938 C 94.978814 35.085938 94.195312 35.869439 94.195312 36.835938 C 94.195312 37.802436 94.978814 38.585938 95.945312 38.585938 C 95.987342 38.585938 96.027072 38.577139 96.068359 38.574219 L 96.068359 39.869141 C 95.276561 39.617631 94.47044 39.366843 93.699219 39.115234 C 93.369792 38.776836 92.917585 38.585949 92.445312 38.585938 C 92.349075 38.586492 92.253045 38.594938 92.158203 38.611328 C 91.517603 38.398397 90.901908 38.185751 90.275391 37.972656 C 90.546273 37.655851 90.69518 37.252761 90.695312 36.835938 C 90.695312 35.869439 89.911811 35.085938 88.945312 35.085938 C 87.978814 35.085938 87.195312 35.869439 87.195312 36.835938 C 87.195337 36.863298 87.195912 36.890649 87.197266 36.917969 C 85.770837 36.419406 84.374728 35.920403 82.974609 35.421875 C 82.699919 35.221451 82.372788 35.105394 82.033203 35.087891 C 81.322185 34.834528 80.59953 34.581404 79.886719 34.328125 C 80.087661 34.036266 80.19527 33.690282 80.195312 33.335938 C 80.195892 32.767786 79.920614 32.234713 79.457031 31.90625 L 77.861328 33.615234 C 76.814339 33.246353 75.701994 32.878273 74.630859 32.509766 C 79.631179 27.163597 84.58371 21.803948 88.949219 16.712891 z M 94.009766 18.552734 C 92.853205 18.838558 91.871799 19.340734 90.871094 20.097656 C 91.163062 20.701559 91.77454 21.085434 92.445312 21.085938 C 93.411811 21.085938 94.195312 20.302436 94.195312 19.335938 C 94.195156 19.064 94.131632 18.795839 94.009766 18.552734 z M 89.587891 21.208984 C 88.895431 21.852765 88.163271 22.585743 87.320312 23.486328 C 87.586241 24.150607 88.229782 24.586079 88.945312 24.585938 C 89.911811 24.585938 90.695312 23.802436 90.695312 22.835938 C 90.694982 22.11776 90.255901 21.47269 89.587891 21.208984 z M 92.431641 24.585938 C 91.470486 24.593438 90.695284 25.374751 90.695312 26.335938 C 90.695312 27.302436 91.478814 28.085938 92.445312 28.085938 C 93.411811 28.085938 94.195312 27.302436 94.195312 26.335938 C 94.195312 25.369439 93.411811 24.585938 92.445312 24.585938 C 92.440714 24.585918 92.436212 24.585916 92.431641 24.585938 z M 86.152344 24.734375 L 83.896484 27.150391 C 84.198971 27.725661 84.795363 28.085901 85.445312 28.085938 C 86.411811 28.085938 87.195312 27.302436 87.195312 26.335938 C 87.195611 25.642612 86.786563 25.01449 86.152344 24.734375 z M 3.9316406 26.408203 C 12.343519 31.36994 20.493648 36.187433 27.054688 43 L 21.263672 43 C 16.196464 38.498601 10.268887 34.84403 3.9316406 31.082031 L 3.9316406 26.408203 z M 88.931641 28.085938 C 87.970486 28.093438 87.195284 28.874751 87.195312 29.835938 C 87.195312 30.802436 87.978814 31.585938 88.945312 31.585938 C 89.911811 31.585938 90.695312 30.802436 90.695312 29.835938 C 90.695312 28.869439 89.911811 28.085938 88.945312 28.085938 C 88.940714 28.085918 88.936212 28.085916 88.931641 28.085938 z M 82.810547 28.314453 L 80.488281 30.802734 C 80.812129 31.291356 81.359116 31.585376 81.945312 31.585938 C 82.911811 31.585938 83.695312 30.802436 83.695312 29.835938 C 83.695436 29.206577 83.357602 28.625621 82.810547 28.314453 z M 85.431641 31.585938 C 84.470486 31.593438 83.695284 32.374752 83.695312 33.335938 C 83.695312 34.302436 84.478814 35.085938 85.445312 35.085938 C 86.411811 35.085938 87.195312 34.302436 87.195312 33.335938 C 87.195312 32.369439 86.411811 31.585938 85.445312 31.585938 C 85.440714 31.585919 85.436212 31.585917 85.431641 31.585938 z M 92.431641 31.585938 C 91.470486 31.593438 90.695284 32.374752 90.695312 33.335938 C 90.695312 34.302436 91.478814 35.085938 92.445312 35.085938 C 93.411811 35.085938 94.195312 34.302436 94.195312 33.335938 C 94.195312 32.369439 93.411811 31.585938 92.445312 31.585938 C 92.440714 31.585919 92.436212 31.585917 92.431641 31.585938 z M 3.9316406 32.833984 C 9.4090337 36.098833 14.506726 39.277141 18.962891 43 L 13.222656 43 L 3.9316406 37.458984 L 3.9316406 32.833984 z M 3.9667969 51.5 L 46.5 51.5 L 46.5 59.228516 L 39.753906 59.228516 L 50 71.523438 L 60.246094 59.228516 L 53.5 59.228516 L 53.5 51.5 L 96.033203 51.5 L 96.033203 53.5 L 72.5 53.5 L 69.583984 57 L 73.417969 57 C 73.281174 57.249468 73.195303 57.531515 73.195312 57.835938 C 73.195312 58.802436 73.978814 59.585938 74.945312 59.585938 C 75.911811 59.585938 76.695312 58.802436 76.695312 57.835938 C 76.695312 57.531568 76.611261 57.249317 76.474609 57 L 80.417969 57 C 80.281174 57.249468 80.195303 57.531515 80.195312 57.835938 C 80.195312 58.802436 80.978814 59.585938 81.945312 59.585938 C 82.911811 59.585938 83.695312 58.802436 83.695312 57.835938 C 83.695312 57.531568 83.611261 57.249317 83.474609 57 L 87.417969 57 C 87.281174 57.249468 87.195304 57.531515 87.195312 57.835938 C 87.195312 58.802436 87.978814 59.585938 88.945312 59.585938 C 89.911811 59.585938 90.695312 58.802436 90.695312 57.835938 C 90.695312 57.531568 90.611261 57.249317 90.474609 57 L 93.224609 57 C 93.5752 57.191767 93.930625 57.387411 94.222656 57.53125 C 94.204666 57.63182 94.195512 57.733771 94.195312 57.835938 C 94.195312 58.802436 94.978814 59.585938 95.945312 59.585938 C 95.987583 59.585907 96.026612 59.571399 96.068359 59.568359 L 96.068359 63.097656 C 96.027069 63.094756 95.987354 63.085938 95.945312 63.085938 C 95.940714 63.08592 95.936211 63.085918 95.931641 63.085938 C 94.970486 63.093438 94.195285 63.874752 94.195312 64.835938 C 94.195312 65.802436 94.978814 66.585938 95.945312 66.585938 C 95.987342 66.585938 96.027072 66.577139 96.068359 66.574219 L 96.068359 70.097656 C 96.027069 70.094756 95.987354 70.085938 95.945312 70.085938 C 94.978814 70.085938 94.195312 70.869439 94.195312 71.835938 C 94.195312 72.802436 94.978814 73.585938 95.945312 73.585938 C 95.987342 73.585938 96.027072 73.577139 96.068359 73.574219 L 96.068359 83.287109 L 61.150391 83.287109 C 59.403055 80.037314 57.528754 76.895445 55.314453 74.123047 L 54.314453 75.322266 C 56.19824 77.73021 57.863218 80.441071 59.427734 83.287109 L 54.792969 83.287109 C 53.783048 81.571393 52.746135 79.964949 51.666016 78.5 L 50.652344 79.716797 C 51.452762 80.830556 52.241108 82.011582 53.015625 83.287109 L 35.650391 83.287109 C 36.548594 81.30816 37.412045 79.294566 38.191406 77.191406 C 38.876827 77.315286 39.577863 77.390625 40.296875 77.390625 C 42.408804 77.390626 44.397637 76.828293 46.126953 75.851562 L 45.148438 74.677734 C 43.694781 75.445752 42.047252 75.890626 40.296875 75.890625 C 39.230424 75.890625 38.199729 75.727717 37.228516 75.427734 C 36.26426 78.158773 35.170959 80.759363 33.998047 83.287109 L 29.568359 83.287109 C 31.094735 80.145243 32.488675 76.919421 33.664062 73.505859 C 31.328488 71.582991 29.833984 68.671536 29.833984 65.427734 C 29.833985 63.002369 30.676766 60.768628 32.076172 58.990234 L 27.5 53.5 L 3.9667969 53.5 L 3.9667969 51.5 z M 3.9316406 57 L 15.537109 57 L 14.574219 58.667969 L 12.142578 62.878906 L 18.417969 66.501953 L 20.849609 62.291016 L 23.341797 63.730469 L 26.964844 57.455078 L 26.177734 57 L 30.373047 57 C 30.552359 57.352494 30.740426 57.694158 30.912109 58.056641 C 29.30475 60.094753 28.333985 62.654111 28.333984 65.427734 C 28.333984 68.745243 29.715632 71.760263 31.925781 73.935547 C 30.761883 77.180395 29.395507 80.266728 27.902344 83.287109 L 23.574219 83.287109 L 26.324219 78.525391 L 23.402344 76.837891 L 24.443359 75.033203 L 20.396484 72.697266 L 14.28125 83.287109 L 3.9316406 83.287109 L 3.9316406 57 z M 69.511719 57.083984 L 68.154297 58.714844 C 68.1404 58.986599 68.129976 59.335743 68.115234 59.576172 C 69.011093 59.488772 69.694544 58.736049 69.695312 57.835938 C 69.695315 57.566074 69.622989 57.313973 69.511719 57.083984 z M 71.431641 59.585938 C 70.470486 59.593438 69.695283 60.374753 69.695312 61.335938 C 69.695312 62.302436 70.478814 63.085938 71.445312 63.085938 C 72.411811 63.085938 73.195312 62.302436 73.195312 61.335938 C 73.195312 60.369439 72.411811 59.585938 71.445312 59.585938 C 71.440714 59.58592 71.436212 59.585918 71.431641 59.585938 z M 78.431641 59.585938 C 77.470486 59.593438 76.695283 60.374753 76.695312 61.335938 C 76.695312 62.302436 77.478814 63.085938 78.445312 63.085938 C 79.411811 63.085938 80.195312 62.302436 80.195312 61.335938 C 80.195312 60.369439 79.411811 59.585938 78.445312 59.585938 C 78.440714 59.58592 78.436212 59.585918 78.431641 59.585938 z M 85.431641 59.585938 C 84.470486 59.593438 83.695284 60.374753 83.695312 61.335938 C 83.695312 62.302436 84.478814 63.085938 85.445312 63.085938 C 86.411811 63.085938 87.195312 62.302436 87.195312 61.335938 C 87.195312 60.369439 86.411811 59.585938 85.445312 59.585938 C 85.440714 59.58592 85.436212 59.585918 85.431641 59.585938 z M 92.431641 59.585938 C 91.470486 59.593438 90.695284 60.374753 90.695312 61.335938 C 90.695312 62.302436 91.478814 63.085938 92.445312 63.085938 C 93.411811 63.085938 94.195312 62.302436 94.195312 61.335938 C 94.195312 60.369439 93.411811 59.585938 92.445312 59.585938 C 92.440714 59.58592 92.436212 59.585918 92.431641 59.585938 z M 34.716797 62.160156 C 34.159141 63.11759 33.833985 64.230472 33.833984 65.427734 C 33.833984 69.021328 36.70328 71.890625 40.296875 71.890625 C 41.074189 71.890625 41.813981 71.748742 42.501953 71.501953 L 41.455078 70.246094 C 41.082708 70.332424 40.699134 70.390625 40.296875 70.390625 C 37.513941 70.390625 35.333984 68.210668 35.333984 65.427734 C 35.333984 64.703096 35.488093 64.023432 35.755859 63.408203 L 34.716797 62.160156 z M 74.931641 63.085938 C 73.970486 63.093438 73.195284 63.874752 73.195312 64.835938 C 73.195312 65.802436 73.978814 66.585938 74.945312 66.585938 C 75.911811 66.585938 76.695312 65.802436 76.695312 64.835938 C 76.695312 63.869439 75.911811 63.085938 74.945312 63.085938 C 74.940714 63.08592 74.936212 63.085918 74.931641 63.085938 z M 81.931641 63.085938 C 80.970486 63.093438 80.195284 63.874752 80.195312 64.835938 C 80.195312 65.802436 80.978814 66.585938 81.945312 66.585938 C 82.911811 66.585938 83.695312 65.802436 83.695312 64.835938 C 83.695312 63.869439 82.911811 63.085938 81.945312 63.085938 C 81.940714 63.08592 81.936212 63.085918 81.931641 63.085938 z M 88.931641 63.085938 C 87.970486 63.093438 87.195284 63.874752 87.195312 64.835938 C 87.195312 65.802436 87.978814 66.585938 88.945312 66.585938 C 89.911811 66.585938 90.695312 65.802436 90.695312 64.835938 C 90.695312 63.869439 89.911811 63.085938 88.945312 63.085938 C 88.940714 63.08592 88.936212 63.085918 88.931641 63.085938 z M 68.238281 63.109375 C 68.461695 63.665339 68.895582 64.103507 69.681641 64.623047 C 69.588121 63.854857 69.001158 63.239301 68.238281 63.109375 z M 78.431641 66.585938 C 77.470486 66.593435 76.695283 67.374752 76.695312 68.335938 C 76.695312 69.302436 77.478814 70.085938 78.445312 70.085938 C 79.411811 70.085938 80.195312 69.302436 80.195312 68.335938 C 80.195312 67.369439 79.411811 66.585938 78.445312 66.585938 C 78.440714 66.58592 78.436212 66.585919 78.431641 66.585938 z M 85.431641 66.585938 C 84.470486 66.593435 83.695284 67.374752 83.695312 68.335938 C 83.695312 69.302436 84.478814 70.085938 85.445312 70.085938 C 86.411811 70.085938 87.195312 69.302436 87.195312 68.335938 C 87.195312 67.369439 86.411811 66.585938 85.445312 66.585938 C 85.440714 66.58592 85.436212 66.585919 85.431641 66.585938 z M 92.431641 66.585938 C 91.470486 66.593435 90.695284 67.374752 90.695312 68.335938 C 90.695312 69.302436 91.478814 70.085938 92.445312 70.085938 C 93.411811 70.085938 94.195312 69.302436 94.195312 68.335938 C 94.195312 67.369439 93.411811 66.585938 92.445312 66.585938 C 92.440714 66.58592 92.436212 66.585919 92.431641 66.585938 z M 65.810547 68.359375 C 62.583276 68.359375 59.933594 71.009057 59.933594 74.236328 C 59.933594 77.463599 62.583276 80.111328 65.810547 80.111328 C 69.037818 80.111328 71.685547 77.463599 71.685547 74.236328 C 71.685547 71.009057 69.037818 68.359375 65.810547 68.359375 z M 81.945312 70.085938 C 80.978814 70.085938 80.195312 70.869439 80.195312 71.835938 C 80.195133 72.283406 80.366371 72.713949 80.673828 73.039062 L 83.236328 73.017578 C 83.531618 72.694898 83.695366 72.273331 83.695312 71.835938 C 83.695312 70.869439 82.911811 70.085938 81.945312 70.085938 z M 88.945312 70.085938 C 87.978814 70.085938 87.195312 70.869439 87.195312 71.835938 C 87.195675 72.255525 87.346781 72.661016 87.621094 72.978516 L 90.289062 72.955078 C 90.551119 72.640977 90.694857 72.244994 90.695312 71.835938 C 90.695312 70.869439 89.911811 70.085938 88.945312 70.085938 z M 65.810547 71.359375 C 67.416498 71.359375 68.685547 72.630377 68.685547 74.236328 C 68.685547 75.842278 67.416498 77.111328 65.810547 77.111328 C 64.204596 77.111328 62.933594 75.842278 62.933594 74.236328 C 62.933594 72.630377 64.204596 71.359375 65.810547 71.359375 z "
     id="path4492" />
</svg>
