<?xml version="1.0" encoding="UTF-8" standalone="no"?>
<svg
   xmlns:dc="http://purl.org/dc/elements/1.1/"
   xmlns:cc="http://creativecommons.org/ns#"
   xmlns:rdf="http://www.w3.org/1999/02/22-rdf-syntax-ns#"
   xmlns:svg="http://www.w3.org/2000/svg"
   xmlns="http://www.w3.org/2000/svg"
   xmlns:sodipodi="http://sodipodi.sourceforge.net/DTD/sodipodi-0.dtd"
   xmlns:inkscape="http://www.inkscape.org/namespaces/inkscape"
   inkscape:version="0.92.4 (5da689c313, 2019-01-14)"
   sodipodi:docname="uEADB-magnify-map.svg"
   id="svg4460"
   height="100"
   width="100"
   version="1.1">
  <sodipodi:namedview
     inkscape:document-rotation="0"
     inkscape:current-layer="svg4460"
     inkscape:window-maximized="1"
     inkscape:window-y="-8"
     inkscape:window-x="1272"
     inkscape:cy="-118.38692"
     inkscape:cx="-4.8269741"
     inkscape:zoom="1.4283558"
     showgrid="false"
     id="namedview11"
     inkscape:window-height="1177"
     inkscape:window-width="1920"
     inkscape:pageshadow="2"
     inkscape:pageopacity="0"
     guidetolerance="10"
     gridtolerance="10"
     objecttolerance="10"
     borderopacity="1"
     bordercolor="#666666"
     pagecolor="#ffffff" />
  <defs
     id="defs4462" />
  <metadata
     id="metadata4465">
    <rdf:RDF>
      <cc:Work
         rdf:about="">
        <dc:format>image/svg+xml</dc:format>
        <dc:type
           rdf:resource="http://purl.org/dc/dcmitype/StillImage" />
        <dc:title />
      </cc:Work>
    </rdf:RDF>
  </metadata>
  <path
     style="opacity:1;fill:#000080;fill-opacity:1;stroke:none;stroke-width:4;stroke-linecap:round;stroke-linejoin:miter;stroke-miterlimit:4;stroke-dasharray:none;stroke-dashoffset:0;stroke-opacity:1;paint-order:normal"
     d="M 1.9648438,12.5 C 0.87979716,12.50054 3.5983633e-4,13.442919 0,14.605469 V 85.394531 C 3.5983633e-4,86.557081 0.87979716,87.49946 1.9648438,87.5 H 98.035156 C 99.120202,87.49946 99.99964,86.557081 100,85.394531 V 14.605469 C 99.99964,13.442919 99.120202,12.50054 98.035156,12.5 Z m 37.1542972,1.833984 c 15.524263,0 28.167968,12.645659 28.167968,28.169922 0,15.524262 -12.643705,28.167969 -28.167968,28.167969 -15.524264,0 -28.169922,-12.643707 -28.169922,-28.167969 0,-15.524263 12.645658,-28.169922 28.169922,-28.169922 z m 0,2 c -14.439633,0 -26.169922,11.730289 -26.169922,26.169922 0,14.439632 11.730289,26.167969 26.169922,26.167969 14.439632,0 26.167968,-11.728337 26.167968,-26.167969 0,-14.439633 -11.728336,-26.169922 -26.167968,-26.169922 z m 22.984375,0.378907 h 17.496093 c -0.894736,1.00422 -1.769781,1.996618 -2.701171,3.021484 -0.0502,-0.0056 -0.07719,-0.0046 -0.128907,-0.01172 -0.490722,-0.06742 -1.186498,-0.178953 -2.035156,-0.328125 -1.697316,-0.298346 -4.013036,-0.749742 -6.726563,-1.333984 -1.793644,-0.386185 -3.81719,-0.851437 -5.904296,-1.347656 z m 19.523437,0 h 5.332031 c -4.468917,5.160197 -9.512763,10.604062 -14.564453,16.001953 -0.364849,0.389853 -0.717621,0.769838 -1.076172,1.154297 -0.387618,-1.444584 -0.897918,-2.86292 -1.509765,-4.251953 1.472702,-1.576944 2.931833,-3.156052 4.394531,-4.736329 -0.158238,-0.027 -0.253257,-0.03872 -0.421875,-0.06836 -1.790328,-0.314694 -4.160484,-0.77835 -6.931641,-1.375 -0.222245,-0.04785 -0.486914,-0.112208 -0.714843,-0.162109 -1.344218,-1.876821 -2.885441,-3.601658 -4.583985,-5.15625 2.187217,0.52542 4.2736,1.006219 6.140625,1.408203 2.729244,0.587626 5.06052,1.042899 6.783203,1.345703 0.861342,0.151402 1.572545,0.264594 2.091797,0.335937 0.519253,0.07134 0.950673,0.08498 0.794922,0.08984 l 0.0059,0.158203 c 1.466464,-1.60613 2.877676,-3.183629 4.259765,-4.74414 z m 7.322266,0 h 7.11914 v 4.384765 c -0.04129,-0.0029 -0.08101,-0.01172 -0.123047,-0.01172 -0.0046,-2e-5 -0.0091,-2e-5 -0.01367,0 -0.961155,0.0075 -1.736357,0.788814 -1.736329,1.75 0,0.966498 0.783502,1.75 1.75,1.75 0.04203,0 0.08176,-0.0088 0.123047,-0.01172 v 3.523437 c -0.04129,-0.0029 -0.08101,-0.01172 -0.123047,-0.01172 -0.0046,-2e-5 -0.0091,-2.3e-5 -0.01367,0 -0.961155,0.0075 -1.736357,0.788814 -1.736329,1.75 0,0.966498 0.783502,1.75 1.75,1.75 0.04203,0 0.08176,-0.0088 0.123047,-0.01172 v 3.523437 c -0.04129,-0.0029 -0.08101,-0.01172 -0.123047,-0.01172 -0.966498,0 -1.75,0.783501 -1.75,1.75 0,0.966498 0.783502,1.75 1.75,1.75 0.04203,0 0.08176,-0.0088 0.123047,-0.01172 v 1.294922 c -0.791798,-0.25151 -1.597919,-0.502298 -2.36914,-0.753907 -0.329427,-0.338398 -0.781632,-0.529285 -1.253907,-0.529296 -0.09624,5.54e-4 -0.192267,0.009 -0.287109,0.02539 -0.6406,-0.212931 -1.256295,-0.425577 -1.882812,-0.638672 0.270882,-0.316805 0.419789,-0.719895 0.419921,-1.136718 0,-0.966499 -0.783501,-1.75 -1.75,-1.75 -0.966498,0 -1.75,0.783501 -1.75,1.75 2.5e-5,0.02736 5.54e-4,0.05471 0.002,0.08203 -1.426429,-0.498563 -2.822538,-0.997566 -4.222657,-1.496094 -0.27469,-0.200424 -0.601821,-0.316481 -0.941406,-0.333984 -0.711018,-0.253363 -1.433673,-0.506487 -2.146484,-0.759766 0.200942,-0.291859 0.308551,-0.637843 0.308593,-0.992187 5.8e-4,-0.568152 -0.274698,-1.101225 -0.738281,-1.429688 l -1.595703,1.708984 c -1.046989,-0.368881 -2.159334,-0.736961 -3.230469,-1.105468 5.00032,-5.346169 9.952851,-10.705818 14.31836,-15.796875 z m 5.060547,1.839843 c -1.156561,0.285824 -2.137967,0.788 -3.138672,1.544922 0.291968,0.603903 0.903448,0.987776 1.574218,0.988282 0.966499,0 1.75,-0.783502 1.75,-1.75 -1.56e-4,-0.271938 -0.06368,-0.540099 -0.185546,-0.783204 z m -4.421875,2.65625 c -0.69246,0.643781 -1.42462,1.376759 -2.267579,2.277344 0.265929,0.664279 0.90947,1.099751 1.625,1.09961 0.966499,0 1.75,-0.783502 1.75,-1.75 -3.3e-4,-0.718179 -0.439411,-1.363248 -1.107421,-1.626954 z M 3.9316406,23.199219 C 5.9581189,24.545491 7.934567,25.766547 9.8925781,26.9375 9.716566,27.259102 9.5466531,27.58331 9.3808594,27.910156 7.5762599,26.819657 5.7612157,25.737132 3.9316406,24.658203 Z m 88.5000004,1.386719 c -0.961155,0.0075 -1.736357,0.788813 -1.736329,1.75 0,0.966498 0.783502,1.75 1.75,1.75 0.966499,0 1.75,-0.783502 1.75,-1.75 0,-0.966499 -0.783501,-1.75 -1.75,-1.75 -0.0046,-2e-5 -0.0091,-2.3e-5 -0.01367,0 z m -6.279297,0.148437 -2.25586,2.416016 c 0.302487,0.57527 0.898879,0.935508 1.548828,0.935547 0.966499,0 1.75,-0.783502 1.75,-1.75 2.99e-4,-0.693326 -0.408749,-1.321448 -1.042968,-1.601563 z m -18.826172,0.330078 c 1.411175,0.297323 2.751218,0.572319 3.919922,0.796875 -0.713724,0.767307 -1.419665,1.531966 -2.128906,2.296875 -0.415746,-0.817839 -0.861111,-1.62601 -1.361329,-2.414062 -0.135574,-0.231596 -0.288447,-0.451803 -0.429687,-0.679688 z m -63.3945314,1.34375 c 1.6136541,0.951812 3.2075185,1.905589 4.7910156,2.863281 -0.5652648,1.245798 -1.052116,2.525129 -1.4628906,3.828125 -1.1048594,-0.671836 -2.1940215,-1.344336 -3.328125,-2.017578 z m 85.0000004,1.677735 c -0.961155,0.0075 -1.736357,0.788813 -1.736329,1.75 0,0.966498 0.783502,1.75 1.75,1.75 0.966499,0 1.75,-0.783502 1.75,-1.75 0,-0.966499 -0.783501,-1.75 -1.75,-1.75 -0.0046,-2e-5 -0.0091,-2.3e-5 -0.01367,0 z m -6.121094,0.228515 -2.322266,2.488281 c 0.323848,0.488622 0.870835,0.782641 1.457031,0.783204 0.966499,0 1.75,-0.783502 1.75,-1.75 1.24e-4,-0.629361 -0.33771,-1.210317 -0.884765,-1.521485 z m -63.818359,1.744141 c 11.634948,6.311688 24.356881,9.135264 37.138671,11.878906 l 5.726563,-5.994141 c 0.16371,0.569064 0.31431,1.144474 0.435547,1.730469 -6.715341,7.217957 -12.75896,13.926297 -16.216797,19.044922 -1.659191,-1.10721 -3.646316,-1.755859 -5.779297,-1.755859 -1.537277,0 -2.994476,0.345088 -4.3125,0.947265 -4.492919,-9.607388 -11.336098,-16.011195 -19.138672,-21.433594 0.174557,-0.484988 0.367548,-0.961981 0.572266,-1.43164 7.71962,5.330531 14.619067,11.636598 19.308593,20.96875 1.129191,-0.357329 2.328983,-0.550781 3.570313,-0.550781 1.910868,0 3.715363,0.469087 5.324219,1.279297 2.433126,-3.418532 5.767305,-7.348278 9.572265,-11.578126 -13.131417,-2.160051 -24.721377,-5.393023 -37.048828,-11.634765 0.263324,-0.502764 0.550107,-0.990132 0.847657,-1.470703 z m 66.439453,1.527344 c -0.961155,0.0075 -1.736357,0.788814 -1.736329,1.75 0,0.966498 0.783502,1.75 1.75,1.75 0.966499,0 1.75,-0.783502 1.75,-1.75 0,-0.966499 -0.783501,-1.75 -1.75,-1.75 -0.0046,-2e-5 -0.0091,-2.2e-5 -0.01367,0 z m 7,0 c -0.961155,0.0075 -1.736357,0.788814 -1.736329,1.75 0,0.966498 0.783502,1.75 1.75,1.75 0.966499,0 1.75,-0.783502 1.75,-1.75 0,-0.966499 -0.783501,-1.75 -1.75,-1.75 -0.0046,-2e-5 -0.0091,-2.2e-5 -0.01367,0 z M 3.9316406,32.833984 c 0.9879866,0.588899 1.9294937,1.176821 2.890625,1.763672 -0.3565345,1.35004 -0.6211014,2.722704 -0.7988281,4.109375 L 3.9316406,37.458984 Z m 11.8339844,5.808594 c 7.065464,5.078027 13.021239,10.974736 16.904297,19.654297 -1.5128,1.616943 -2.522301,3.706493 -2.771484,6.017578 -0.483109,-0.20416 -0.953881,-0.431343 -1.419922,-0.666015 0.318778,-2.08385 1.176981,-3.998428 2.433593,-5.591797 -3.622913,-7.649218 -8.97637,-13.027131 -15.359375,-17.708985 0.05179,-0.57451 0.120873,-1.143213 0.212891,-1.705078 z m 47.005859,4.433594 c -0.01969,0.829083 -0.07903,1.647405 -0.18164,2.453125 -5.024771,5.523032 -9.389475,10.537079 -11.847656,14.105469 0.490372,0.875806 0.871196,1.81882 1.130859,2.808593 -0.440363,0.282035 -0.887965,0.553629 -1.347656,0.806641 -0.284287,-1.327767 -0.816209,-2.566558 -1.554688,-3.658203 2.656252,-4.093248 7.816655,-9.992759 13.800781,-16.515625 z m -47.240234,1.300781 0.861328,0.513672 -0.68164,1.142578 c -0.08138,-0.545551 -0.136128,-1.099128 -0.179688,-1.65625 z m 57.615234,2.556641 c 1.368413,0.483041 2.690214,0.99989 3.96875,1.541015 0.332742,0.388326 0.818703,0.611679 1.330078,0.611329 0.02866,3.6e-5 0.05731,-4.92e-4 0.08594,-0.002 0.64852,0.289836 1.275671,0.584305 1.896484,0.88086 -0.152223,0.265082 -0.232348,0.565413 -0.232422,0.871094 0,0.966498 0.783502,1.75 1.75,1.75 0.700812,3e-5 1.334057,-0.418038 1.609376,-1.0625 0.693612,0.363604 1.289401,0.708655 1.935546,1.064453 -0.01496,-8.59e-4 -0.02994,-0.0015 -0.04492,-0.002 -0.0046,-1.8e-5 -0.0091,-2e-5 -0.01367,0 -0.961155,0.0075 -1.736358,0.788814 -1.736329,1.75 0,0.966498 0.783502,1.75 1.75,1.75 0.966499,0 1.75,-0.783502 1.75,-1.75 -2.98e-4,-0.347992 -0.104338,-0.687994 -0.298828,-0.976563 3.196272,1.809658 5.716602,3.379086 7.326172,4.171875 -0.01799,0.10057 -0.02714,0.202521 -0.02734,0.304688 0,0.966498 0.783502,1.75 1.75,1.75 0.04227,-3.1e-5 0.0813,-0.01454 0.123047,-0.01758 v 3.529297 c -0.04129,-0.0029 -0.08101,-0.01172 -0.123047,-0.01172 -0.0046,-1.8e-5 -0.0091,-2.1e-5 -0.01367,0 -0.961155,0.0075 -1.736355,0.788814 -1.736329,1.75 0,0.966498 0.783502,1.75 1.75,1.75 0.04203,0 0.08176,-0.0088 0.123047,-0.01172 v 3.523437 c -0.04129,-0.0029 -0.08101,-0.01172 -0.123047,-0.01172 -0.966498,0 -1.75,0.783501 -1.75,1.75 0,0.966498 0.783502,1.75 1.75,1.75 0.04203,0 0.08176,-0.0088 0.123047,-0.01172 v 9.71289 H 61.150391 c -2.134715,-3.970264 -4.468655,-7.769112 -7.376953,-10.933593 6.248237,-2.99815 11.19359,-8.040452 14.410156,-14.019532 -0.02157,0.440504 -0.04518,0.864083 -0.06836,1.242188 0.895859,-0.0874 1.57931,-0.840123 1.580078,-1.740234 4e-6,-0.521381 -0.231543,-0.993359 -0.601562,-1.316407 0.247772,-0.531888 0.482185,-1.069836 0.703125,-1.613281 0.237204,0.685255 0.882502,1.179688 1.648437,1.179688 0.966499,0 1.75,-0.783502 1.75,-1.75 0,-0.966499 -0.783501,-1.75 -1.75,-1.75 -0.0046,-1.8e-5 -0.0091,-2e-5 -0.01367,0 -0.313298,0.0024 -0.604048,0.09197 -0.857422,0.238281 0.412471,-1.231614 0.75446,-2.485884 1.027343,-3.753907 0.892262,-0.08006 1.59375,-0.821277 1.59375,-1.734374 -6.39e-4,-0.135554 -0.01703,-0.270573 -0.04883,-0.402344 z M 3.9316406,48.320312 6.7109375,49.978516 C 6.8049538,50.340844 6.8912086,50.703433 7,51.064453 c 1.0272957,4.171898 2.9274546,7.972371 5.455078,11.275391 l -0.3125,0.539062 1.402344,0.808594 c 4.660163,5.462572 11.094594,9.386294 18.050781,11.123047 -1.091014,2.924463 -2.335893,5.730669 -3.693359,8.476562 h -4.328125 l 2.75,-4.761718 -2.921875,-1.6875 1.041015,-1.804688 -4.046875,-2.335937 -6.115234,10.589843 H 3.9316406 Z m 71.0136714,0.765626 c -0.966498,0 -1.75,0.783501 -1.75,1.75 0,0.966498 0.783502,1.75 1.75,1.75 0.966499,0 1.75,-0.783502 1.75,-1.75 0,-0.966499 -0.783501,-1.75 -1.75,-1.75 z m -56.748046,3.30664 6.27539,3.623047 2.492188,1.439453 -2.222656,3.851563 c -2.88582,-2.208516 -5.247459,-5.0649 -6.867188,-8.355469 z m 60.234375,0.19336 c -0.961155,0.0075 -1.736358,0.788814 -1.736329,1.75 0,0.966498 0.783502,1.75 1.75,1.75 0.966499,0 1.75,-0.783502 1.75,-1.75 0,-0.966499 -0.783501,-1.75 -1.75,-1.75 -0.0046,-1.8e-5 -0.0091,-2e-5 -0.01367,0 z m -3.5,3.5 c -0.961155,0.0075 -1.736358,0.788814 -1.736329,1.75 0,0.966498 0.783502,1.75 1.75,1.75 0.966499,0 1.75,-0.783502 1.75,-1.75 0,-0.966499 -0.783501,-1.75 -1.75,-1.75 -0.0046,-1.8e-5 -0.0091,-2e-5 -0.01367,0 z m 7,0 c -0.961155,0.0075 -1.736358,0.788814 -1.736329,1.75 0,0.966498 0.783502,1.75 1.75,1.75 0.966499,0 1.75,-0.783502 1.75,-1.75 0,-0.966499 -0.783501,-1.75 -1.75,-1.75 -0.0046,-1.8e-5 -0.0091,-2e-5 -0.01367,0 z m 7,0 c -0.961155,0.0075 -1.736357,0.788814 -1.736329,1.75 0,0.966498 0.783502,1.75 1.75,1.75 0.966499,0 1.75,-0.783502 1.75,-1.75 0,-0.966499 -0.783501,-1.75 -1.75,-1.75 -0.0046,-1.8e-5 -0.0091,-2e-5 -0.01367,0 z m -48.634766,2.876953 c 3.419865,0 6.180037,2.602554 6.439453,5.951171 -2.390639,0.810958 -4.950396,1.257813 -7.617187,1.257813 -1.814476,0 -3.578564,-0.210151 -5.275391,-0.595703 -0.0011,-0.05013 -0.0098,-0.098 -0.0098,-0.148438 10e-7,-3.593595 2.869297,-6.464843 6.462891,-6.464843 z m 31.134766,0.623047 c -0.961155,0.0075 -1.736358,0.788815 -1.736329,1.75 0,0.966498 0.783502,1.75 1.75,1.75 0.966499,0 1.75,-0.783502 1.75,-1.75 0,-0.966499 -0.783501,-1.75 -1.75,-1.75 -0.0046,-1.8e-5 -0.0091,-2e-5 -0.01367,0 z m 7,0 c -0.961155,0.0075 -1.736358,0.788815 -1.736329,1.75 0,0.966498 0.783502,1.75 1.75,1.75 0.966499,0 1.75,-0.783502 1.75,-1.75 0,-0.966499 -0.783501,-1.75 -1.75,-1.75 -0.0046,-1.8e-5 -0.0091,-2e-5 -0.01367,0 z m 7,0 c -0.961155,0.0075 -1.736357,0.788815 -1.736329,1.75 0,0.966498 0.783502,1.75 1.75,1.75 0.966499,0 1.75,-0.783502 1.75,-1.75 0,-0.966499 -0.783501,-1.75 -1.75,-1.75 -0.0046,-1.8e-5 -0.0091,-2e-5 -0.01367,0 z m 7,0 c -0.961155,0.0075 -1.736357,0.788815 -1.736329,1.75 0,0.966498 0.783502,1.75 1.75,1.75 0.966499,0 1.75,-0.783502 1.75,-1.75 0,-0.966499 -0.783501,-1.75 -1.75,-1.75 -0.0046,-1.8e-5 -0.0091,-2e-5 -0.01367,0 z m -17.5,3.5 c -0.961155,0.0075 -1.736357,0.788814 -1.736329,1.75 0,0.966498 0.783502,1.75 1.75,1.75 0.966499,0 1.75,-0.783502 1.75,-1.75 0,-0.966499 -0.783501,-1.75 -1.75,-1.75 -0.0046,-1.8e-5 -0.0091,-2e-5 -0.01367,0 z m 7,0 c -0.961155,0.0075 -1.736357,0.788814 -1.736329,1.75 0,0.966498 0.783502,1.75 1.75,1.75 0.966499,0 1.75,-0.783502 1.75,-1.75 0,-0.966499 -0.783501,-1.75 -1.75,-1.75 -0.0046,-1.8e-5 -0.0091,-2e-5 -0.01367,0 z m 7,0 c -0.961155,0.0075 -1.736357,0.788814 -1.736329,1.75 0,0.966498 0.783502,1.75 1.75,1.75 0.966499,0 1.75,-0.783502 1.75,-1.75 0,-0.966499 -0.783501,-1.75 -1.75,-1.75 -0.0046,-1.8e-5 -0.0091,-2e-5 -0.01367,0 z m -20.69336,0.02344 c 0.223414,0.555964 0.657301,0.994132 1.44336,1.513672 -0.09352,-0.76819 -0.680483,-1.383746 -1.44336,-1.513672 z m 10.19336,3.476563 c -0.961155,0.0075 -1.736358,0.788814 -1.736329,1.75 0,0.966498 0.783502,1.75 1.75,1.75 0.966499,0 1.75,-0.783502 1.75,-1.75 0,-0.966499 -0.783501,-1.75 -1.75,-1.75 -0.0046,-1.8e-5 -0.0091,-1.9e-5 -0.01367,0 z m 7,0 c -0.961155,0.0075 -1.736357,0.788814 -1.736329,1.75 0,0.966498 0.783502,1.75 1.75,1.75 0.966499,0 1.75,-0.783502 1.75,-1.75 0,-0.966499 -0.783501,-1.75 -1.75,-1.75 -0.0046,-1.8e-5 -0.0091,-1.9e-5 -0.01367,0 z m 7,0 c -0.961155,0.0075 -1.736357,0.788814 -1.736329,1.75 0,0.966498 0.783502,1.75 1.75,1.75 0.966499,0 1.75,-0.783502 1.75,-1.75 0,-0.966499 -0.783501,-1.75 -1.75,-1.75 -0.0046,-1.8e-5 -0.0091,-1.9e-5 -0.01367,0 z m -26.621094,1.773437 c -3.227271,0 -5.876953,2.649682 -5.876953,5.876953 0,3.227271 2.649682,5.875 5.876953,5.875 3.227271,0 5.875,-2.647729 5.875,-5.875 0,-3.227271 -2.647729,-5.876953 -5.875,-5.876953 z m 16.134765,1.726563 c -0.966498,0 -1.75,0.783501 -1.75,1.75 -1.79e-4,0.447468 0.171059,0.878011 0.478516,1.203124 l 2.5625,-0.02148 c 0.29529,-0.32268 0.459038,-0.744248 0.458984,-1.18164 0,-0.966499 -0.783501,-1.75 -1.75,-1.75 z m 7,0 c -0.966498,0 -1.75,0.783501 -1.75,1.75 3.63e-4,0.419587 0.151469,0.825078 0.425782,1.142578 l 2.667968,-0.02344 c 0.262057,-0.314101 0.405795,-0.710086 0.40625,-1.11914 0,-0.966499 -0.783501,-1.75 -1.75,-1.75 z m -23.134765,1.273437 c 1.605951,0 2.875,1.271002 2.875,2.876953 0,1.60595 -1.269049,2.875 -2.875,2.875 -1.605951,0 -2.876953,-1.26905 -2.876953,-2.875 0,-1.605951 1.271002,-2.876953 2.876953,-2.876953 z m -13.494141,1.660156 c 2.746091,2.902362 5.019753,6.462757 7.111328,10.267578 h -4.634765 c -2.034005,-3.455495 -4.172937,-6.498489 -6.572266,-8.726562 1.385938,-0.409815 2.755165,-0.915185 4.095703,-1.541016 z m -19.25,2.123047 c 1.340127,0.272227 2.695623,0.459448 4.058594,0.564453 -0.939529,2.628195 -1.994506,5.139539 -3.126953,7.580078 h -4.429688 c 1.279223,-2.633129 2.455557,-5.332372 3.498047,-8.144531 z m 13.832032,0.236328 c 2.167579,1.931697 4.173177,4.706676 6.117187,7.908203 H 35.650391 c 0.898203,-1.978949 1.761654,-3.992543 2.541015,-6.095703 0.685421,0.12388 1.386457,0.199219 2.105469,0.199219 2.433054,10e-7 4.704343,-0.744747 6.601563,-2.011719 z m -4.5625,0.302735 c -0.660864,0.132095 -1.340797,0.208984 -2.039063,0.208984 -0.466941,0 -0.925713,-0.03736 -1.376953,-0.09766 1.138456,0.02404 2.278079,-0.01098 3.416016,-0.111328 z"
     id="path1242"
     inkscape:connector-curvature="0"
     sodipodi:nodetypes="cccccccccsssssssssscccccscccsccccsccssccccccccccscccccsccssscccccccscccccccccccccccccccccccccccsscccccccccccccccccccssccccccccccccsccccsccccccssccccsscccccccccccccccccccccccccccccccccccccsccccccccccsccssscccccccccssccccccccccccccccccccccsssssccccccccssccccssccccssccccssccscscssccssccccssccccssccccssccccssccccssccccsscccccccssccccssccccssccssssssccccssccccssssssccccccccccccccsccscc" />
</svg>
