<?xml version="1.0" encoding="UTF-8" standalone="no"?>
<svg
   xmlns:dc="http://purl.org/dc/elements/1.1/"
   xmlns:cc="http://creativecommons.org/ns#"
   xmlns:rdf="http://www.w3.org/1999/02/22-rdf-syntax-ns#"
   xmlns:svg="http://www.w3.org/2000/svg"
   xmlns="http://www.w3.org/2000/svg"
   xmlns:sodipodi="http://sodipodi.sourceforge.net/DTD/sodipodi-0.dtd"
   xmlns:inkscape="http://www.inkscape.org/namespaces/inkscape"
   inkscape:version="0.92.4 (5da689c313, 2019-01-14)"
   sodipodi:docname="uEAE1-map-send.svg"
   id="svg4460"
   height="100"
   width="100"
   version="1.1">
  <sodipodi:namedview
     inkscape:document-rotation="0"
     inkscape:current-layer="svg4460"
     inkscape:window-maximized="1"
     inkscape:window-y="-8"
     inkscape:window-x="1272"
     inkscape:cy="23.624428"
     inkscape:cx="73.373318"
     inkscape:zoom="5.6568543"
     showgrid="false"
     id="namedview11"
     inkscape:window-height="1177"
     inkscape:window-width="1920"
     inkscape:pageshadow="2"
     inkscape:pageopacity="0"
     guidetolerance="10"
     gridtolerance="10"
     objecttolerance="10"
     borderopacity="1"
     bordercolor="#666666"
     pagecolor="#ffffff" />
  <defs
     id="defs4462" />
  <metadata
     id="metadata4465">
    <rdf:RDF>
      <cc:Work
         rdf:about="">
        <dc:format>image/svg+xml</dc:format>
        <dc:type
           rdf:resource="http://purl.org/dc/dcmitype/StillImage" />
        <dc:title />
      </cc:Work>
    </rdf:RDF>
  </metadata>
  <path
     style="color:#000000;font-style:normal;font-variant:normal;font-weight:normal;font-stretch:normal;font-size:medium;line-height:normal;font-family:sans-serif;font-variant-ligatures:normal;font-variant-position:normal;font-variant-caps:normal;font-variant-numeric:normal;font-variant-alternates:normal;font-feature-settings:normal;text-indent:0;text-align:start;text-decoration:none;text-decoration-line:none;text-decoration-style:solid;text-decoration-color:#000000;letter-spacing:normal;word-spacing:normal;text-transform:none;writing-mode:lr-tb;direction:ltr;text-orientation:mixed;dominant-baseline:auto;baseline-shift:baseline;text-anchor:start;white-space:normal;shape-padding:0;clip-rule:nonzero;display:inline;overflow:visible;visibility:visible;opacity:1;isolation:auto;mix-blend-mode:normal;color-interpolation:sRGB;color-interpolation-filters:linearRGB;solid-color:#000000;solid-opacity:1;vector-effect:none;fill:#000080;fill-opacity:1;fill-rule:evenodd;stroke:none;stroke-width:3;stroke-linecap:butt;stroke-linejoin:miter;stroke-miterlimit:4;stroke-dasharray:none;stroke-dashoffset:0;stroke-opacity:1;color-rendering:auto;image-rendering:auto;shape-rendering:auto;text-rendering:auto;enable-background:accumulate"
     d="M 65.808594 5 A 2.50025 2.50025 0 0 0 64.779297 5.2324219 L 34.166016 19.453125 L 3.5527344 5.2324219 A 2.50025 2.50025 0 0 0 0 7.5 L 0 77.789062 A 2.50025 2.50025 0 0 0 1.4472656 80.056641 L 33.113281 94.767578 A 2.50025 2.50025 0 0 0 34.189453 95 A 2.50025 2.50025 0 0 0 35.220703 94.767578 L 65.833984 80.546875 L 96.447266 94.767578 A 2.50025 2.50025 0 0 0 100 92.5 L 100 49.867188 L 95 54.886719 L 95 88.582031 L 67.322266 75.724609 L 67.265625 65.798828 L 64.265625 65.798828 L 64.322266 75.734375 L 35.646484 89.056641 L 35.511719 65.441406 C 34.309124 65.020719 33.264265 64.247823 32.5 63.25 L 32.646484 89.037109 L 5 76.193359 L 5 11.417969 L 32.275391 24.087891 L 32.291016 26.839844 C 33.020793 25.774215 34.064291 24.937825 35.277344 24.458984 L 35.277344 24.451172 L 63.953125 11.128906 L 64.027344 24.013672 L 67.027344 24.013672 L 66.951172 10.775391 L 95 23.804688 L 95 34.925781 L 100 39.945312 L 100 22.210938 A 2.50025 2.50025 0 0 0 98.552734 19.943359 L 66.886719 5.2324219 A 2.50025 2.50025 0 0 0 65.808594 5 z "
     id="path967" />
  <path
     style="color:#000000;font-style:normal;font-variant:normal;font-weight:normal;font-stretch:normal;font-size:medium;line-height:normal;font-family:sans-serif;font-variant-ligatures:normal;font-variant-position:normal;font-variant-caps:normal;font-variant-numeric:normal;font-variant-alternates:normal;font-feature-settings:normal;text-indent:0;text-align:start;text-decoration:none;text-decoration-line:none;text-decoration-style:solid;text-decoration-color:#000000;letter-spacing:normal;word-spacing:normal;text-transform:none;writing-mode:lr-tb;direction:ltr;text-orientation:mixed;dominant-baseline:auto;baseline-shift:baseline;text-anchor:start;white-space:normal;shape-padding:0;clip-rule:nonzero;display:inline;overflow:visible;visibility:visible;isolation:auto;mix-blend-mode:normal;color-interpolation:sRGB;color-interpolation-filters:linearRGB;solid-color:#000000;solid-opacity:1;vector-effect:none;fill:#000080;fill-opacity:1;fill-rule:nonzero;stroke:none;stroke-width:5.82051086;stroke-linecap:round;stroke-linejoin:round;stroke-miterlimit:4;stroke-dasharray:none;stroke-dashoffset:20;stroke-opacity:1;color-rendering:auto;image-rendering:auto;shape-rendering:auto;text-rendering:auto;enable-background:accumulate"
     d="m 37.582642,27.512926 c -1.607223,1.6e-4 -2.910095,1.303032 -2.910256,2.910255 v 28.966137 c 1.6e-4,1.607224 1.303032,2.910096 2.910256,2.910256 h 40.743576 c 1.607223,-1.61e-4 2.910094,-1.303032 2.910255,-2.910255 V 30.423181 c -1.61e-4,-1.607223 -1.303032,-2.910094 -2.910255,-2.910255 z m 7.373405,5.820512 H 71.041486 L 58.090849,43.969512 Z M 86.324874,31.177357 V 58.635143 L 100,44.90625 Z m -45.831978,4.661628 16.374736,13.259851 c 0.744937,0.602839 1.73434,0.599203 2.47599,-0.0091 L 75.415962,35.889005 V 56.479062 H 40.492896 Z"
     id="path864"
     inkscape:connector-curvature="0"
     sodipodi:nodetypes="cccccccccccccccccccccccc" />
</svg>
