<?xml version="1.0" encoding="UTF-8" standalone="no"?>
<svg
   xmlns:dc="http://purl.org/dc/elements/1.1/"
   xmlns:cc="http://creativecommons.org/ns#"
   xmlns:rdf="http://www.w3.org/1999/02/22-rdf-syntax-ns#"
   xmlns:svg="http://www.w3.org/2000/svg"
   xmlns="http://www.w3.org/2000/svg"
   xmlns:sodipodi="http://sodipodi.sourceforge.net/DTD/sodipodi-0.dtd"
   xmlns:inkscape="http://www.inkscape.org/namespaces/inkscape"
   inkscape:version="0.92.4 (5da689c313, 2019-01-14)"
   sodipodi:docname="uEAE0-map-share.svg"
   id="svg4460"
   height="100"
   width="100"
   version="1.1">
  <sodipodi:namedview
     inkscape:document-rotation="0"
     inkscape:current-layer="svg4460"
     inkscape:window-maximized="1"
     inkscape:window-y="-8"
     inkscape:window-x="1272"
     inkscape:cy="54.293666"
     inkscape:cx="43.611566"
     inkscape:zoom="8.0000001"
     showgrid="false"
     id="namedview11"
     inkscape:window-height="1177"
     inkscape:window-width="1920"
     inkscape:pageshadow="2"
     inkscape:pageopacity="0"
     guidetolerance="10"
     gridtolerance="10"
     objecttolerance="10"
     borderopacity="1"
     bordercolor="#666666"
     pagecolor="#ffffff" />
  <defs
     id="defs4462" />
  <metadata
     id="metadata4465">
    <rdf:RDF>
      <cc:Work
         rdf:about="">
        <dc:format>image/svg+xml</dc:format>
        <dc:type
           rdf:resource="http://purl.org/dc/dcmitype/StillImage" />
        <dc:title />
      </cc:Work>
    </rdf:RDF>
  </metadata>
  <path
     style="color:#000000;font-style:normal;font-variant:normal;font-weight:normal;font-stretch:normal;font-size:medium;line-height:normal;font-family:sans-serif;font-variant-ligatures:normal;font-variant-position:normal;font-variant-caps:normal;font-variant-numeric:normal;font-variant-alternates:normal;font-feature-settings:normal;text-indent:0;text-align:start;text-decoration:none;text-decoration-line:none;text-decoration-style:solid;text-decoration-color:#000000;letter-spacing:normal;word-spacing:normal;text-transform:none;writing-mode:lr-tb;direction:ltr;text-orientation:mixed;dominant-baseline:auto;baseline-shift:baseline;text-anchor:start;white-space:normal;shape-padding:0;clip-rule:nonzero;display:inline;overflow:visible;visibility:visible;opacity:1;isolation:auto;mix-blend-mode:normal;color-interpolation:sRGB;color-interpolation-filters:linearRGB;solid-color:#000000;solid-opacity:1;vector-effect:none;fill:#000080;fill-opacity:1;fill-rule:evenodd;stroke:none;stroke-width:3;stroke-linecap:butt;stroke-linejoin:miter;stroke-miterlimit:4;stroke-dasharray:none;stroke-dashoffset:0;stroke-opacity:1;color-rendering:auto;image-rendering:auto;shape-rendering:auto;text-rendering:auto;enable-background:accumulate"
     d="m 65.808594,5 c -0.355727,0.00337 -0.70664,0.082605 -1.029297,0.2324219 L 34.166016,19.453125 3.5527344,5.2324219 C 1.8957066,4.463442 2.6034937e-4,5.6732348 0,7.5 v 70.289062 c 4.8005406e-5,0.973093 0.56467932,1.857759 1.4472656,2.267579 L 33.113281,94.767578 c 0.336998,0.156475 0.704634,0.235874 1.076172,0.232422 0.356386,-0.0031 0.707994,-0.08233 1.03125,-0.232422 L 65.833984,80.546875 96.447266,94.767578 C 98.104294,95.536557 99.999739,94.326765 100,92.5 V 22.210938 c -4.8e-5,-0.973094 -0.56468,-1.857759 -1.447266,-2.267579 l -2.451172,-1.138671 c -0.813915,1.497651 -1.897441,2.864905 -3.167968,4.039062 L 95,23.804688 v 20.621093 c 3.065708,4.75045 3.706601,11.113948 0.04883,15.892578 -0.0155,0.0251 -0.03319,0.04733 -0.04883,0.07227 V 88.582031 L 67.322266,75.724609 67.179688,50.923828 c -0.864745,-0.757714 -1.905808,-1.39101 -3.009766,-1.976562 l 0.152344,26.787109 -28.675782,13.322266 -0.36914,-64.605469 28.675781,-13.322266 0.0293,5.277344 c 0.993087,-0.754022 1.985372,-1.501332 2.988281,-2.154297 l -0.01953,-3.476562 2.205078,1.02539 C 69.248736,10.084052 69.700709,8.4196452 70.423828,6.875 L 66.886719,5.2324219 C 66.549125,5.0756631 66.180789,4.9962575 65.808594,5 Z M 5,11.417969 32.275391,24.087891 32.646484,89.037109 5,76.193359 Z"
     id="path967"
     inkscape:connector-curvature="0"
     sodipodi:nodetypes="ccccccccccccccccccccccccccccccccccccccccc" />
  <path
     style="opacity:1;fill:#000080;fill-opacity:1;stroke:#ffffff;stroke-width:0;stroke-linecap:round;stroke-linejoin:round;stroke-miterlimit:4;stroke-dasharray:none;stroke-dashoffset:0;stroke-opacity:1;paint-order:normal"
     d="M 83.347021,2.5000006 A 10.192237,10.192237 0 0 0 73.154783,12.692238 10.192237,10.192237 0 0 0 73.484354,15.233664 L 57.286929,25.07864 A 10.192237,10.192237 0 0 0 50.231103,22.229767 10.192237,10.192237 0 0 0 40.038865,32.422006 10.192237,10.192237 0 0 0 50.231103,42.614244 10.192237,10.192237 0 0 0 56.919759,40.09715 l 16.445154,9.997595 A 10.192237,10.192237 0 0 0 73.154783,52.14956 10.192237,10.192237 0 0 0 83.347021,62.341796 10.192237,10.192237 0 0 0 93.539259,52.14956 10.192237,10.192237 0 0 0 83.347021,41.957322 10.192237,10.192237 0 0 0 76.019141,45.080464 L 59.994237,35.341657 a 10.192237,10.192237 0 0 0 0.429104,-2.919651 10.192237,10.192237 0 0 0 -0.305235,-2.437467 L 76.368622,20.106385 A 10.192237,10.192237 0 0 0 83.347021,22.884477 10.192237,10.192237 0 0 0 93.539259,12.692238 10.192237,10.192237 0 0 0 83.347021,2.5000006 Z"
     id="path812"
     inkscape:connector-curvature="0" />
</svg>
