<?xml version="1.0" encoding="UTF-8" standalone="no"?>
<svg
   xmlns:dc="http://purl.org/dc/elements/1.1/"
   xmlns:cc="http://creativecommons.org/ns#"
   xmlns:rdf="http://www.w3.org/1999/02/22-rdf-syntax-ns#"
   xmlns:svg="http://www.w3.org/2000/svg"
   xmlns="http://www.w3.org/2000/svg"
   xmlns:sodipodi="http://sodipodi.sourceforge.net/DTD/sodipodi-0.dtd"
   xmlns:inkscape="http://www.inkscape.org/namespaces/inkscape"
   inkscape:version="0.92.4 (5da689c313, 2019-01-14)"
   sodipodi:docname="uEAE2-map-share-alt.svg"
   id="svg4460"
   height="100"
   width="100"
   version="1.1">
  <sodipodi:namedview
     inkscape:document-rotation="0"
     inkscape:current-layer="svg4460"
     inkscape:window-maximized="1"
     inkscape:window-y="-8"
     inkscape:window-x="1272"
     inkscape:cy="32.38121"
     inkscape:cx="45.294148"
     inkscape:zoom="5.6568543"
     showgrid="false"
     id="namedview11"
     inkscape:window-height="1177"
     inkscape:window-width="1920"
     inkscape:pageshadow="2"
     inkscape:pageopacity="0"
     guidetolerance="10"
     gridtolerance="10"
     objecttolerance="10"
     borderopacity="1"
     bordercolor="#666666"
     pagecolor="#ffffff" />
  <defs
     id="defs4462" />
  <metadata
     id="metadata4465">
    <rdf:RDF>
      <cc:Work
         rdf:about="">
        <dc:format>image/svg+xml</dc:format>
        <dc:type
           rdf:resource="http://purl.org/dc/dcmitype/StillImage" />
        <dc:title />
      </cc:Work>
    </rdf:RDF>
  </metadata>
  <path
     style="color:#000000;font-style:normal;font-variant:normal;font-weight:normal;font-stretch:normal;font-size:medium;line-height:normal;font-family:sans-serif;font-variant-ligatures:normal;font-variant-position:normal;font-variant-caps:normal;font-variant-numeric:normal;font-variant-alternates:normal;font-feature-settings:normal;text-indent:0;text-align:start;text-decoration:none;text-decoration-line:none;text-decoration-style:solid;text-decoration-color:#000000;letter-spacing:normal;word-spacing:normal;text-transform:none;writing-mode:lr-tb;direction:ltr;text-orientation:mixed;dominant-baseline:auto;baseline-shift:baseline;text-anchor:start;white-space:normal;shape-padding:0;clip-rule:nonzero;display:inline;overflow:visible;visibility:visible;opacity:1;isolation:auto;mix-blend-mode:normal;color-interpolation:sRGB;color-interpolation-filters:linearRGB;solid-color:#000000;solid-opacity:1;vector-effect:none;fill:#000080;fill-opacity:1;fill-rule:evenodd;stroke:none;stroke-width:3;stroke-linecap:butt;stroke-linejoin:miter;stroke-miterlimit:4;stroke-dasharray:none;stroke-dashoffset:0;stroke-opacity:1;color-rendering:auto;image-rendering:auto;shape-rendering:auto;text-rendering:auto;enable-background:accumulate"
     d="m 65.808594,5 c -0.355727,0.00337 -0.70664,0.082605 -1.029297,0.2324219 L 34.166016,19.453125 3.5527344,5.2324219 C 1.8957066,4.463442 2.6034937e-4,5.6732348 0,7.5 v 70.289062 c 4.8005406e-5,0.973093 0.56467932,1.857759 1.4472656,2.267579 L 33.113281,94.767578 c 0.336998,0.156475 0.704634,0.235874 1.076172,0.232422 0.356386,-0.0031 0.707994,-0.08233 1.03125,-0.232422 L 65.833984,80.546875 96.447266,94.767578 C 98.104294,95.536557 99.999739,94.326765 100,92.5 V 32.960938 c -1.508118,1.758682 -3.246646,3.402548 -5,5.029296 V 88.582031 L 67.322266,75.724609 67.146484,45.050781 c -1.022676,0.342742 -2.025622,0.722184 -2.992187,1.166016 l 0.167969,29.517578 -28.675782,13.322266 -0.04297,-7.421875 c -0.990877,0.388549 -2.137605,-0.09529 -3.001954,-0.402344 L 32.64648,89.037109 5,76.193359 v -64.77539 l 27.275391,12.669922 0.08789,15.429687 2.964844,-6.066406 -0.05078,-9 11.677734,-5.425781 c 5.645693,-4.90436 12.364209,-8.491537 19.923548,-10.0931622 l 0.0081,-3.6998069 C 66.549125,5.0756631 66.180789,4.9962575 65.808594,5 Z"
     id="path967"
     inkscape:connector-curvature="0"
     sodipodi:nodetypes="cccccccccccccccccccccccccccccccccc" />
  <path
     style="opacity:1;fill:#000080;fill-opacity:1;stroke:none;stroke-width:13.05921364;stroke-linecap:round;stroke-linejoin:round;stroke-miterlimit:4;stroke-dasharray:none;stroke-dashoffset:0;stroke-opacity:1;paint-order:normal"
     d="m 72.20083,0 v 12.130593 c -20.371784,2.082434 -31.444908,17.09691 -37.216927,31.685027 -6.038601,15.261874 -1.933154,32.489562 -1.933154,32.489562 0.503167,1.844529 2.090472,2.31 2.39146,0.665898 0,0 10.36456,-34.090128 36.758621,-37.14818 V 54.769525 L 100,27.384762 Z"
     id="path814"
     inkscape:connector-curvature="0"
     sodipodi:nodetypes="ccscccccc" />
</svg>
