<?xml version="1.0" encoding="UTF-8" standalone="no"?>
<svg
   xmlns:dc="http://purl.org/dc/elements/1.1/"
   xmlns:cc="http://creativecommons.org/ns#"
   xmlns:rdf="http://www.w3.org/1999/02/22-rdf-syntax-ns#"
   xmlns:svg="http://www.w3.org/2000/svg"
   xmlns="http://www.w3.org/2000/svg"
   xmlns:sodipodi="http://sodipodi.sourceforge.net/DTD/sodipodi-0.dtd"
   xmlns:inkscape="http://www.inkscape.org/namespaces/inkscape"
   inkscape:version="0.92.4 (5da689c313, 2019-01-14)"
   sodipodi:docname="map-rm.svg"
   id="svg4460"
   height="100"
   width="100"
   version="1.1">
  <sodipodi:namedview
     inkscape:document-rotation="0"
     inkscape:current-layer="svg4460"
     inkscape:window-maximized="1"
     inkscape:window-y="-8"
     inkscape:window-x="1272"
     inkscape:cy="37.092812"
     inkscape:cx="66.722698"
     inkscape:zoom="5.6568543"
     showgrid="false"
     id="namedview11"
     inkscape:window-height="1177"
     inkscape:window-width="1920"
     inkscape:pageshadow="2"
     inkscape:pageopacity="0"
     guidetolerance="10"
     gridtolerance="10"
     objecttolerance="10"
     borderopacity="1"
     bordercolor="#666666"
     pagecolor="#ffffff" />
  <defs
     id="defs4462" />
  <metadata
     id="metadata4465">
    <rdf:RDF>
      <cc:Work
         rdf:about="">
        <dc:format>image/svg+xml</dc:format>
        <dc:type
           rdf:resource="http://purl.org/dc/dcmitype/StillImage" />
        <dc:title></dc:title>
      </cc:Work>
    </rdf:RDF>
  </metadata>
  <path
     style="color:#000000;font-style:normal;font-variant:normal;font-weight:normal;font-stretch:normal;font-size:medium;line-height:normal;font-family:sans-serif;font-variant-ligatures:normal;font-variant-position:normal;font-variant-caps:normal;font-variant-numeric:normal;font-variant-alternates:normal;font-feature-settings:normal;text-indent:0;text-align:start;text-decoration:none;text-decoration-line:none;text-decoration-style:solid;text-decoration-color:#000000;letter-spacing:normal;word-spacing:normal;text-transform:none;writing-mode:lr-tb;direction:ltr;text-orientation:mixed;dominant-baseline:auto;baseline-shift:baseline;text-anchor:start;white-space:normal;shape-padding:0;clip-rule:nonzero;display:inline;overflow:visible;visibility:visible;opacity:1;isolation:auto;mix-blend-mode:normal;color-interpolation:sRGB;color-interpolation-filters:linearRGB;solid-color:#000000;solid-opacity:1;vector-effect:none;fill:#000080;fill-opacity:1;fill-rule:evenodd;stroke:none;stroke-width:3;stroke-linecap:butt;stroke-linejoin:miter;stroke-miterlimit:4;stroke-dasharray:none;stroke-dashoffset:0;stroke-opacity:1;color-rendering:auto;image-rendering:auto;shape-rendering:auto;text-rendering:auto;enable-background:accumulate"
     d="M 77.5,5 C 67.805405,5 60,12.805405 60,22.5 60,32.194595 67.805405,40 77.5,40 87.194595,40 95,32.194595 95,22.5 95,12.805405 87.194595,5 77.5,5 Z M 2.5859375,5.0019531 C 1.1726174,4.9534879 4.1534671e-4,6.0858493 0,7.5 v 70.289062 c 4.8005406e-5,0.973093 0.56467932,1.857759 1.4472656,2.267579 L 33.113281,94.767578 c 0.336998,0.156475 0.704634,0.235874 1.076172,0.232422 0.356386,-0.0031 0.707994,-0.08233 1.03125,-0.232422 L 65.833984,80.546875 96.447266,94.767578 C 98.104294,95.536557 99.999739,94.326765 100,92.5 v -70 c 0,5.337971 -1.877016,10.247358 -5,14.111328 V 88.582031 L 67.322266,75.724609 67.132812,42.455078 C 66.078288,41.904414 65.069907,41.276867 64.121094,40.572266 L 64.322266,75.734375 35.646484,89.056641 35.277344,24.451172 56.427734,14.625 c 1.109133,-2.954169 2.82351,-5.6141399 4.990235,-7.8320312 L 34.166016,19.453125 3.5527344,5.2324219 C 3.249139,5.0916749 2.9203789,5.0133038 2.5859375,5.0019531 Z M 100,22.5 v -0.289062 c 1.6e-4,-0.08872 -0.0044,-0.177389 -0.01367,-0.265626 C 99.990858,22.13041 100,22.313842 100,22.5 Z M 90,19 v 7 H 65 V 19 Z M 5,11.417969 32.275391,24.087891 32.646484,89.037109 5,76.193359 Z"
     id="path967"
     inkscape:connector-curvature="0"
     sodipodi:nodetypes="ssssscccccccccccccccccccccccccccccccccccccc" />
</svg>
