<?xml version="1.0" encoding="UTF-8" standalone="no"?>
<svg
   xmlns:dc="http://purl.org/dc/elements/1.1/"
   xmlns:cc="http://creativecommons.org/ns#"
   xmlns:rdf="http://www.w3.org/1999/02/22-rdf-syntax-ns#"
   xmlns:svg="http://www.w3.org/2000/svg"
   xmlns="http://www.w3.org/2000/svg"
   xmlns:sodipodi="http://sodipodi.sourceforge.net/DTD/sodipodi-0.dtd"
   xmlns:inkscape="http://www.inkscape.org/namespaces/inkscape"
   inkscape:version="0.92.4 (5da689c313, 2019-01-14)"
   sodipodi:docname="uEAEE-map-time.svg"
   id="svg4460"
   height="100"
   width="100"
   version="1.1">
  <sodipodi:namedview
     inkscape:document-rotation="0"
     inkscape:current-layer="svg4460"
     inkscape:window-maximized="1"
     inkscape:window-y="-8"
     inkscape:window-x="1272"
     inkscape:cy="44.117627"
     inkscape:cx="-4.6653082"
     inkscape:zoom="8.0000004"
     showgrid="false"
     id="namedview11"
     inkscape:window-height="1177"
     inkscape:window-width="1920"
     inkscape:pageshadow="2"
     inkscape:pageopacity="0"
     guidetolerance="10"
     gridtolerance="10"
     objecttolerance="10"
     borderopacity="1"
     bordercolor="#666666"
     pagecolor="#ffffff" />
  <defs
     id="defs4462" />
  <metadata
     id="metadata4465">
    <rdf:RDF>
      <cc:Work
         rdf:about="">
        <dc:format>image/svg+xml</dc:format>
        <dc:type
           rdf:resource="http://purl.org/dc/dcmitype/StillImage" />
        <dc:title />
      </cc:Work>
    </rdf:RDF>
  </metadata>
  <path
     style="opacity:1;fill:#000080;fill-opacity:1;stroke:none;stroke-width:6.39669228;stroke-linecap:round;stroke-linejoin:round;stroke-miterlimit:4;stroke-dasharray:none;stroke-dashoffset:0;stroke-opacity:1;paint-order:normal"
     d="M 33.523438 34.986328 A 20 20 0 0 0 13.523438 54.986328 A 20 20 0 0 0 33.523438 74.986328 A 20 20 0 0 0 53.523438 54.986328 A 20 20 0 0 0 33.523438 34.986328 z M 39.726562 39.074219 A 2.50025 2.50025 0 0 1 41.853516 42.855469 L 34.953125 54.806641 L 42.201172 59.478516 A 2.50025 2.50025 0 1 1 39.492188 63.681641 L 30.242188 57.720703 A 2.50025 2.50025 0 0 1 29.431641 54.369141 L 37.523438 40.355469 A 2.50025 2.50025 0 0 1 39.726562 39.074219 z "
     id="path826" />
  <path
     inkscape:connector-curvature="0"
     d="M 2.5234375,5.0000093 A 2.50025,2.50025 0 0 0 0,7.5000093 V 77.789071 A 2.50025,2.50025 0 0 0 1.4472656,80.05665 L 33.113281,94.767587 a 2.50025,2.50025 0 0 0 1.076172,0.232422 2.50025,2.50025 0 0 0 1.03125,-0.232422 L 65.833984,80.546884 96.447266,94.767587 A 2.50025,2.50025 0 0 0 100,92.500009 V 22.210947 A 2.50025,2.50025 0 0 0 98.552734,19.943368 L 66.886719,5.2324312 A 2.50025,2.50025 0 0 0 65.808594,5.0000093 2.50025,2.50025 0 0 0 64.779297,5.2324312 L 34.166016,19.453134 3.5527344,5.2324312 A 2.50025,2.50025 0 0 0 2.5234375,5.0000093 Z M 66.951172,10.7754 95,23.804697 V 88.58204 L 67.322266,75.724618 Z m -2.998047,0.353515 0.369141,64.605469 -28.675782,13.322266 -0.0625,-10.871094 c -0.997504,0.07856 -2.000691,0.0897 -3,0.0332 l 0.0625,10.818359 L 5,76.193368 v -64.77539 l 27.275391,12.669922 0.04492,7.908203 c 1.004205,-0.0053 2.007231,0.05156 3.001954,0.18164 l -0.04492,-7.726562 z"
     style="color:#000000;font-style:normal;font-variant:normal;font-weight:normal;font-stretch:normal;font-size:medium;line-height:normal;font-family:sans-serif;font-variant-ligatures:normal;font-variant-position:normal;font-variant-caps:normal;font-variant-numeric:normal;font-variant-alternates:normal;font-feature-settings:normal;text-indent:0;text-align:start;text-decoration:none;text-decoration-line:none;text-decoration-style:solid;text-decoration-color:#000000;letter-spacing:normal;word-spacing:normal;text-transform:none;writing-mode:lr-tb;direction:ltr;text-orientation:mixed;dominant-baseline:auto;baseline-shift:baseline;text-anchor:start;white-space:normal;shape-padding:0;clip-rule:nonzero;display:inline;overflow:visible;visibility:visible;opacity:1;isolation:auto;mix-blend-mode:normal;color-interpolation:sRGB;color-interpolation-filters:linearRGB;solid-color:#000000;solid-opacity:1;vector-effect:none;fill:#000080;fill-opacity:1;fill-rule:evenodd;stroke:none;stroke-width:3;stroke-linecap:butt;stroke-linejoin:miter;stroke-miterlimit:4;stroke-dasharray:none;stroke-dashoffset:0;stroke-opacity:1;color-rendering:auto;image-rendering:auto;shape-rendering:auto;text-rendering:auto;enable-background:accumulate"
     id="path967-0" />
</svg>
