<?xml version="1.0" encoding="UTF-8" standalone="no"?>
<svg
   xmlns:dc="http://purl.org/dc/elements/1.1/"
   xmlns:cc="http://creativecommons.org/ns#"
   xmlns:rdf="http://www.w3.org/1999/02/22-rdf-syntax-ns#"
   xmlns:svg="http://www.w3.org/2000/svg"
   xmlns="http://www.w3.org/2000/svg"
   xmlns:sodipodi="http://sodipodi.sourceforge.net/DTD/sodipodi-0.dtd"
   xmlns:inkscape="http://www.inkscape.org/namespaces/inkscape"
   inkscape:version="0.92.4 (5da689c313, 2019-01-14)"
   sodipodi:docname="uEAEF-time-map.svg"
   id="svg4460"
   height="100"
   width="100"
   version="1.1">
  <sodipodi:namedview
     inkscape:document-rotation="0"
     inkscape:current-layer="svg4460"
     inkscape:window-maximized="1"
     inkscape:window-y="-8"
     inkscape:window-x="1272"
     inkscape:cy="29.508117"
     inkscape:cx="40.135039"
     inkscape:zoom="2.8284273"
     showgrid="false"
     id="namedview11"
     inkscape:window-height="1177"
     inkscape:window-width="1920"
     inkscape:pageshadow="2"
     inkscape:pageopacity="0"
     guidetolerance="10"
     gridtolerance="10"
     objecttolerance="10"
     borderopacity="1"
     bordercolor="#666666"
     pagecolor="#ffffff" />
  <defs
     id="defs4462" />
  <metadata
     id="metadata4465">
    <rdf:RDF>
      <cc:Work
         rdf:about="">
        <dc:format>image/svg+xml</dc:format>
        <dc:type
           rdf:resource="http://purl.org/dc/dcmitype/StillImage" />
        <dc:title />
      </cc:Work>
    </rdf:RDF>
  </metadata>
  <path
     style="color:#000000;font-style:normal;font-variant:normal;font-weight:normal;font-stretch:normal;font-size:medium;line-height:normal;font-family:sans-serif;text-indent:0;text-align:start;text-decoration:none;text-decoration-line:none;text-decoration-style:solid;text-decoration-color:#000000;letter-spacing:normal;word-spacing:normal;text-transform:none;writing-mode:lr-tb;direction:ltr;baseline-shift:baseline;text-anchor:start;white-space:normal;clip-rule:nonzero;display:inline;overflow:visible;visibility:visible;opacity:1;isolation:auto;mix-blend-mode:normal;color-interpolation:sRGB;color-interpolation-filters:linearRGB;solid-color:#000000;solid-opacity:1;fill:#000080;fill-opacity:1;fill-rule:nonzero;stroke:none;stroke-width:8.64055824;stroke-linecap:round;stroke-linejoin:round;stroke-miterlimit:4;stroke-dasharray:none;stroke-dashoffset:0;stroke-opacity:1;marker:none;color-rendering:auto;image-rendering:auto;shape-rendering:auto;text-rendering:auto;enable-background:accumulate"
     d="M 2.4746094 12.5 A 2.475495 2.467352 0 0 0 0 14.966797 L 0 56.675781 L 0 83.357422 L 0 85.033203 A 2.475495 2.467352 0 0 0 2.4746094 87.5 L 97.525391 87.5 A 2.475495 2.467352 0 0 0 100 85.033203 L 100 83.357422 L 100 56.675781 L 100 14.966797 A 2.475495 2.467352 0 0 0 97.525391 12.5 L 2.4746094 12.5 z M 6.0371094 17.433594 L 11.765625 17.433594 A 2.4752475 2.4671053 0 0 0 11.376953 18.757812 A 2.4752475 2.4671053 0 0 0 13.851562 21.224609 A 2.4752475 2.4671053 0 0 0 16.326172 18.757812 A 2.4752475 2.4671053 0 0 0 16.318359 18.570312 L 18.380859 21.261719 A 2.4752475 2.4671053 0 0 0 16.326172 23.693359 A 2.4752475 2.4671053 0 0 0 18.802734 26.160156 A 2.4752475 2.4671053 0 0 0 21.041016 24.738281 L 22.423828 26.546875 A 2.4752475 2.4671053 0 0 0 21.277344 28.626953 A 2.4752475 2.4671053 0 0 0 23.751953 31.09375 A 2.4752475 2.4671053 0 0 0 25.414062 30.453125 L 26.691406 32.123047 A 2.4752475 2.4671053 0 0 0 26.228516 33.560547 A 2.4752475 2.4671053 0 0 0 26.820312 35.160156 L 25.466797 36.714844 A 2.4752475 2.4671053 0 0 0 23.751953 36.027344 A 2.4752475 2.4671053 0 0 0 21.277344 38.496094 A 2.4752475 2.4671053 0 0 0 22.222656 40.435547 L 22.083984 40.595703 L 20.835938 42.025391 A 2.4752475 2.4671053 0 0 0 18.802734 40.962891 A 2.4752475 2.4671053 0 0 0 18.730469 40.962891 A 2.4752475 2.4671053 0 0 0 16.326172 43.429688 A 2.4752475 2.4671053 0 0 0 18.802734 45.896484 A 2.4752475 2.4671053 0 0 0 20.023438 45.574219 L 19.789062 47.472656 L 19.367188 50.896484 A 2.4752475 2.4671053 0 0 0 18.802734 50.830078 A 2.4752475 2.4671053 0 0 0 18.730469 50.830078 A 2.4752475 2.4671053 0 0 0 16.445312 52.548828 L 12.951172 52.548828 L 10.728516 51.636719 A 2.4752475 2.4671053 0 0 0 8.9003906 50.830078 A 2.4752475 2.4671053 0 0 0 8.8300781 50.830078 A 2.4752475 2.4671053 0 0 0 8.7753906 50.833984 L 6.0253906 49.707031 A 2.4752475 2.4671053 0 0 0 6.4257812 48.363281 A 2.4752475 2.4671053 0 0 0 4.9511719 46.107422 L 4.9511719 40.751953 A 2.4752475 2.4671053 0 0 0 6.4257812 38.496094 A 2.4752475 2.4671053 0 0 0 4.9511719 36.238281 L 4.9511719 30.882812 A 2.4752475 2.4671053 0 0 0 6.4257812 28.626953 A 2.4752475 2.4671053 0 0 0 4.9511719 26.369141 L 4.9511719 21.015625 A 2.4752475 2.4671053 0 0 0 6.4257812 18.757812 A 2.4752475 2.4671053 0 0 0 6.0371094 17.433594 z M 19.1875 17.433594 L 30.474609 17.433594 L 57.966797 52.548828 L 47.554688 52.548828 C 46.874395 49.799549 45.456426 46.924125 43.5625 43.667969 L 30.992188 32.859375 L 19.1875 17.433594 z M 34.242188 17.433594 L 34.423828 17.433594 L 34.320312 17.537109 L 34.242188 17.433594 z M 37.222656 17.433594 L 39.716797 17.433594 L 36.640625 20.498047 L 35.548828 19.103516 L 37.222656 17.433594 z M 42.515625 17.433594 L 45.007812 17.433594 L 38.962891 23.460938 L 37.869141 22.066406 L 42.515625 17.433594 z M 47.808594 17.433594 L 50.298828 17.433594 L 41.28125 26.423828 L 40.1875 25.029297 L 47.808594 17.433594 z M 53.099609 17.433594 L 55.591797 17.433594 L 43.601562 29.386719 L 42.507812 27.992188 L 53.099609 17.433594 z M 59.837891 17.433594 L 63.925781 17.433594 A 1.9801979 1.9736841 0 0 0 65.841797 18.914062 A 1.9801979 1.9736841 0 0 0 67.757812 17.433594 L 71.845703 17.433594 A 1.9801979 1.9736841 0 0 0 73.761719 18.914062 A 1.9801979 1.9736841 0 0 0 75.679688 17.433594 L 79.767578 17.433594 A 1.9801979 1.9736841 0 0 0 81.683594 18.914062 A 1.9801979 1.9736841 0 0 0 83.599609 17.433594 L 87.6875 17.433594 A 1.9801979 1.9736841 0 0 0 89.603516 18.914062 A 1.9801979 1.9736841 0 0 0 91.519531 17.433594 L 95.048828 17.433594 L 95.048828 19.583984 A 1.9801979 1.9736841 0 0 0 93.564453 18.914062 A 1.9801979 1.9736841 0 0 0 91.583984 20.888672 A 1.9801979 1.9736841 0 0 0 93.564453 22.861328 A 1.9801979 1.9736841 0 0 0 95.048828 22.191406 L 95.048828 27.478516 A 1.9801979 1.9736841 0 0 0 93.564453 26.808594 A 1.9801979 1.9736841 0 0 0 93.554688 26.808594 A 1.9801979 1.9736841 0 0 0 91.583984 28.783203 A 1.9801979 1.9736841 0 0 0 93.564453 30.755859 A 1.9801979 1.9736841 0 0 0 95.048828 30.085938 L 95.048828 35.373047 A 1.9801979 1.9736841 0 0 0 93.564453 34.703125 A 1.9801979 1.9736841 0 0 0 93.554688 34.703125 A 1.9801979 1.9736841 0 0 0 91.583984 36.677734 A 1.9801979 1.9736841 0 0 0 93.564453 38.650391 A 1.9801979 1.9736841 0 0 0 95.048828 37.980469 L 95.048828 43.267578 A 1.9801979 1.9736841 0 0 0 93.564453 42.599609 A 1.9801979 1.9736841 0 0 0 91.636719 44.123047 L 88.509766 44.537109 L 87.621094 44.654297 A 1.9801979 1.9736841 0 0 0 87.623047 44.572266 A 1.9801979 1.9736841 0 0 0 85.642578 42.599609 A 1.9801979 1.9736841 0 0 0 83.664062 44.572266 A 1.9801979 1.9736841 0 0 0 83.755859 45.166016 L 82.324219 45.355469 L 79.310547 45.751953 A 1.9801979 1.9736841 0 0 0 79.703125 44.572266 A 1.9801979 1.9736841 0 0 0 77.722656 42.599609 A 1.9801979 1.9736841 0 0 0 76.078125 43.470703 L 75.148438 42.033203 A 1.9801979 1.9736841 0 0 0 75.742188 40.625 A 1.9801979 1.9736841 0 0 0 73.761719 38.650391 A 1.9801979 1.9736841 0 0 0 73.751953 38.650391 A 1.9801979 1.9736841 0 0 0 73.044922 38.787109 L 71.777344 36.826172 A 1.9801979 1.9736841 0 0 0 71.78125 36.677734 A 1.9801979 1.9736841 0 0 0 70.480469 34.826172 L 65.222656 26.708984 A 1.9801979 1.9736841 0 0 0 65.841797 26.808594 A 1.9801979 1.9736841 0 0 0 67.822266 24.835938 A 1.9801979 1.9736841 0 0 0 65.841797 22.861328 A 1.9801979 1.9736841 0 0 0 65.832031 22.861328 A 1.9801979 1.9736841 0 0 0 63.873047 24.623047 L 62.634766 22.712891 A 1.9801979 1.9736841 0 0 0 63.861328 20.888672 A 1.9801979 1.9736841 0 0 0 61.880859 18.914062 A 1.9801979 1.9736841 0 0 0 60.523438 19.455078 L 59.585938 18.005859 A 1.9801979 1.9736841 0 0 0 59.585938 18.003906 A 1.9801979 1.9736841 0 0 0 59.837891 17.433594 z M 69.802734 18.914062 A 1.9801979 1.9736841 0 0 0 67.822266 20.888672 A 1.9801979 1.9736841 0 0 0 69.802734 22.861328 A 1.9801979 1.9736841 0 0 0 71.78125 20.888672 A 1.9801979 1.9736841 0 0 0 69.802734 18.914062 z M 77.722656 18.914062 A 1.9801979 1.9736841 0 0 0 75.742188 20.888672 A 1.9801979 1.9736841 0 0 0 77.722656 22.861328 A 1.9801979 1.9736841 0 0 0 79.703125 20.888672 A 1.9801979 1.9736841 0 0 0 77.722656 18.914062 z M 85.644531 18.914062 A 1.9801979 1.9736841 0 0 0 83.664062 20.888672 A 1.9801979 1.9736841 0 0 0 85.644531 22.861328 A 1.9801979 1.9736841 0 0 0 87.623047 20.888672 A 1.9801979 1.9736841 0 0 0 85.644531 18.914062 z M 56.742188 19.078125 L 57.720703 20.587891 L 45.919922 32.349609 L 44.828125 30.955078 C 50.1167 25.683526 53.18258 22.626327 56.742188 19.078125 z M 8.9003906 21.224609 A 2.4752475 2.4671053 0 0 0 6.4257812 23.693359 A 2.4752475 2.4671053 0 0 0 8.9003906 26.160156 A 2.4752475 2.4671053 0 0 0 11.376953 23.693359 A 2.4752475 2.4671053 0 0 0 8.9003906 21.224609 z M 58.820312 22.283203 L 59.798828 23.792969 L 48.240234 35.3125 L 47.148438 33.917969 L 58.820312 22.283203 z M 73.751953 22.861328 A 1.9801979 1.9736841 0 0 0 71.78125 24.835938 A 1.9801979 1.9736841 0 0 0 73.761719 26.808594 A 1.9801979 1.9736841 0 0 0 75.742188 24.835938 A 1.9801979 1.9736841 0 0 0 73.761719 22.861328 A 1.9801979 1.9736841 0 0 0 73.751953 22.861328 z M 81.673828 22.861328 A 1.9801979 1.9736841 0 0 0 79.703125 24.835938 A 1.9801979 1.9736841 0 0 0 81.683594 26.808594 A 1.9801979 1.9736841 0 0 0 83.664062 24.835938 A 1.9801979 1.9736841 0 0 0 81.683594 22.861328 A 1.9801979 1.9736841 0 0 0 81.673828 22.861328 z M 89.59375 22.861328 A 1.9801979 1.9736841 0 0 0 87.623047 24.835938 A 1.9801979 1.9736841 0 0 0 89.603516 26.808594 A 1.9801979 1.9736841 0 0 0 91.583984 24.835938 A 1.9801979 1.9736841 0 0 0 89.603516 22.861328 A 1.9801979 1.9736841 0 0 0 89.59375 22.861328 z M 60.896484 25.488281 L 61.873047 27 L 50.560547 38.275391 L 49.46875 36.880859 L 60.896484 25.488281 z M 13.851562 26.160156 A 2.4752475 2.4671053 0 0 0 11.376953 28.626953 A 2.4752475 2.4671053 0 0 0 13.851562 31.09375 A 2.4752475 2.4671053 0 0 0 16.326172 28.626953 A 2.4752475 2.4671053 0 0 0 13.851562 26.160156 z M 69.792969 26.808594 A 1.9801979 1.9736841 0 0 0 67.822266 28.783203 A 1.9801979 1.9736841 0 0 0 69.802734 30.755859 A 1.9801979 1.9736841 0 0 0 71.78125 28.783203 A 1.9801979 1.9736841 0 0 0 69.802734 26.808594 A 1.9801979 1.9736841 0 0 0 69.792969 26.808594 z M 77.712891 26.808594 A 1.9801979 1.9736841 0 0 0 75.742188 28.783203 A 1.9801979 1.9736841 0 0 0 77.722656 30.755859 A 1.9801979 1.9736841 0 0 0 79.703125 28.783203 A 1.9801979 1.9736841 0 0 0 77.722656 26.808594 A 1.9801979 1.9736841 0 0 0 77.712891 26.808594 z M 85.634766 26.808594 A 1.9801979 1.9736841 0 0 0 83.664062 28.783203 A 1.9801979 1.9736841 0 0 0 85.644531 30.755859 A 1.9801979 1.9736841 0 0 0 87.623047 28.783203 A 1.9801979 1.9736841 0 0 0 85.644531 26.808594 A 1.9801979 1.9736841 0 0 0 85.634766 26.808594 z M 62.972656 28.695312 L 63.835938 30.027344 L 63.951172 30.205078 L 52.878906 41.240234 L 51.787109 39.84375 L 62.972656 28.695312 z M 73.751953 30.755859 A 1.9801979 1.9736841 0 0 0 71.78125 32.730469 A 1.9801979 1.9736841 0 0 0 73.761719 34.703125 A 1.9801979 1.9736841 0 0 0 75.742188 32.730469 A 1.9801979 1.9736841 0 0 0 73.761719 30.755859 A 1.9801979 1.9736841 0 0 0 73.751953 30.755859 z M 81.673828 30.755859 A 1.9801979 1.9736841 0 0 0 79.703125 32.730469 A 1.9801979 1.9736841 0 0 0 81.683594 34.703125 A 1.9801979 1.9736841 0 0 0 83.664062 32.730469 A 1.9801979 1.9736841 0 0 0 81.683594 30.755859 A 1.9801979 1.9736841 0 0 0 81.673828 30.755859 z M 89.59375 30.755859 A 1.9801979 1.9736841 0 0 0 87.623047 32.730469 A 1.9801979 1.9736841 0 0 0 89.603516 34.703125 A 1.9801979 1.9736841 0 0 0 91.583984 32.730469 A 1.9801979 1.9736841 0 0 0 89.603516 30.755859 A 1.9801979 1.9736841 0 0 0 89.59375 30.755859 z M 8.9003906 31.09375 A 2.4752475 2.4671053 0 0 0 6.4257812 33.560547 A 2.4752475 2.4671053 0 0 0 8.9003906 36.027344 A 2.4752475 2.4671053 0 0 0 11.376953 33.560547 A 2.4752475 2.4671053 0 0 0 8.9003906 31.09375 z M 18.802734 31.09375 A 2.4752475 2.4671053 0 0 0 16.326172 33.560547 A 2.4752475 2.4671053 0 0 0 18.802734 36.027344 A 2.4752475 2.4671053 0 0 0 21.277344 33.560547 A 2.4752475 2.4671053 0 0 0 18.802734 31.09375 z M 65.048828 31.902344 L 65.242188 32.201172 L 66.025391 33.410156 L 55.197266 44.203125 L 54.107422 42.806641 L 65.048828 31.902344 z M 77.712891 34.703125 A 1.9801979 1.9736841 0 0 0 75.742188 36.677734 A 1.9801979 1.9736841 0 0 0 77.722656 38.650391 A 1.9801979 1.9736841 0 0 0 79.703125 36.677734 A 1.9801979 1.9736841 0 0 0 77.722656 34.703125 A 1.9801979 1.9736841 0 0 0 77.712891 34.703125 z M 85.634766 34.703125 A 1.9801979 1.9736841 0 0 0 83.664062 36.677734 A 1.9801979 1.9736841 0 0 0 85.644531 38.650391 A 1.9801979 1.9736841 0 0 0 87.623047 36.677734 A 1.9801979 1.9736841 0 0 0 85.644531 34.703125 A 1.9801979 1.9736841 0 0 0 85.634766 34.703125 z M 67.125 35.107422 L 67.511719 35.705078 L 68.101562 36.615234 L 57.519531 47.164062 L 56.427734 45.769531 L 67.125 35.107422 z M 13.851562 36.027344 A 2.4752475 2.4671053 0 0 0 11.376953 38.496094 A 2.4752475 2.4671053 0 0 0 13.851562 40.962891 A 2.4752475 2.4671053 0 0 0 16.326172 38.496094 A 2.4752475 2.4671053 0 0 0 13.851562 36.027344 z M 69.201172 38.3125 L 70.179688 39.820312 L 59.839844 50.126953 L 58.746094 48.732422 L 69.201172 38.3125 z M 81.673828 38.650391 A 1.9801979 1.9736841 0 0 0 79.703125 40.625 A 1.9801979 1.9736841 0 0 0 81.683594 42.599609 A 1.9801979 1.9736841 0 0 0 83.664062 40.625 A 1.9801979 1.9736841 0 0 0 81.683594 38.650391 A 1.9801979 1.9736841 0 0 0 81.673828 38.650391 z M 89.59375 38.650391 A 1.9801979 1.9736841 0 0 0 87.623047 40.625 A 1.9801979 1.9736841 0 0 0 89.603516 42.599609 A 1.9801979 1.9736841 0 0 0 91.583984 40.625 A 1.9801979 1.9736841 0 0 0 89.603516 38.650391 A 1.9801979 1.9736841 0 0 0 89.59375 38.650391 z M 8.8300781 40.962891 A 2.4752475 2.4671053 0 0 0 6.4257812 43.429688 A 2.4752475 2.4671053 0 0 0 8.9003906 45.896484 A 2.4752475 2.4671053 0 0 0 11.376953 43.429688 A 2.4752475 2.4671053 0 0 0 8.9003906 40.962891 A 2.4752475 2.4671053 0 0 0 8.8300781 40.962891 z M 71.277344 41.517578 L 72.255859 43.027344 L 62.703125 52.548828 L 61.736328 52.548828 L 61.066406 51.693359 L 71.277344 41.517578 z M 33.470703 44.550781 A 5.5195138 5.5013575 0 0 1 33.492188 44.550781 A 5.5195138 5.5013575 0 0 1 39.009766 50.052734 A 5.5195138 5.5013575 0 0 1 38.402344 52.548828 L 28.574219 52.548828 A 5.5195138 5.5013575 0 0 1 27.972656 50.052734 A 5.5195138 5.5013575 0 0 1 33.470703 44.550781 z M 73.353516 44.722656 L 74.330078 46.234375 L 71.9375 48.619141 L 66.396484 51.658203 L 73.353516 44.722656 z M 13.779297 45.896484 A 2.4752475 2.4671053 0 0 0 11.376953 48.363281 A 2.4752475 2.4671053 0 0 0 13.851562 50.830078 A 2.4752475 2.4671053 0 0 0 16.326172 48.363281 A 2.4752475 2.4671053 0 0 0 13.851562 45.896484 A 2.4752475 2.4671053 0 0 0 13.779297 45.896484 z M 95.048828 46.662109 L 95.048828 47.769531 L 94.066406 46.791016 L 95.048828 46.662109 z M 91.59375 47.119141 L 95.048828 50.5625 L 95.048828 52.548828 L 94.550781 52.548828 L 89.392578 47.408203 L 90.025391 47.324219 L 91.59375 47.119141 z M 86.921875 47.734375 L 91.751953 52.548828 L 89.257812 52.548828 L 84.720703 48.025391 L 86.921875 47.734375 z M 82.248047 48.351562 L 86.458984 52.548828 L 83.966797 52.548828 L 80.046875 48.642578 L 82.248047 48.351562 z M 77.574219 48.96875 L 81.166016 52.548828 L 78.673828 52.548828 L 75.925781 49.810547 L 77.429688 48.988281 L 77.574219 48.96875 z M 74.121094 50.802734 L 75.873047 52.548828 L 73.380859 52.548828 L 72.513672 51.683594 L 74.121094 50.802734 z M 4.8730469 60.802734 L 14.800781 60.802734 L 14.800781 71.457031 L 19.238281 71.457031 L 19.238281 60.802734 L 26.023438 60.802734 L 26.023438 71.457031 L 30.458984 71.457031 L 30.458984 60.802734 L 37.236328 60.802734 L 37.236328 71.457031 L 41.671875 71.457031 L 41.671875 60.802734 L 48.457031 60.802734 L 48.457031 75.609375 L 52.894531 75.609375 L 52.894531 60.802734 L 59.679688 60.802734 L 59.679688 71.457031 L 64.115234 71.457031 L 64.115234 60.802734 L 70.892578 60.802734 L 70.892578 71.457031 L 75.330078 71.457031 L 75.330078 60.802734 L 82.115234 60.802734 L 82.115234 71.457031 L 86.550781 71.457031 L 86.550781 60.802734 L 95.126953 60.802734 L 95.048828 82.566406 L 4.796875 82.566406 L 4.8730469 60.802734 z "
     id="path830" />
</svg>
