<?xml version="1.0" encoding="UTF-8" standalone="no"?>
<svg
   xmlns:dc="http://purl.org/dc/elements/1.1/"
   xmlns:cc="http://creativecommons.org/ns#"
   xmlns:rdf="http://www.w3.org/1999/02/22-rdf-syntax-ns#"
   xmlns:svg="http://www.w3.org/2000/svg"
   xmlns="http://www.w3.org/2000/svg"
   xmlns:sodipodi="http://sodipodi.sourceforge.net/DTD/sodipodi-0.dtd"
   xmlns:inkscape="http://www.inkscape.org/namespaces/inkscape"
   inkscape:version="0.92.4 (5da689c313, 2019-01-14)"
   sodipodi:docname="uEAF7-map-favorite.svg"
   id="svg4460"
   height="100"
   width="100"
   version="1.1">
  <sodipodi:namedview
     inkscape:document-rotation="0"
     inkscape:current-layer="svg4460"
     inkscape:window-maximized="1"
     inkscape:window-y="-8"
     inkscape:window-x="1272"
     inkscape:cy="68.382287"
     inkscape:cx="2.5527584"
     inkscape:zoom="5.6568543"
     showgrid="false"
     id="namedview11"
     inkscape:window-height="1177"
     inkscape:window-width="1920"
     inkscape:pageshadow="2"
     inkscape:pageopacity="0"
     guidetolerance="10"
     gridtolerance="10"
     objecttolerance="10"
     borderopacity="1"
     bordercolor="#666666"
     pagecolor="#ffffff" />
  <defs
     id="defs4462" />
  <metadata
     id="metadata4465">
    <rdf:RDF>
      <cc:Work
         rdf:about="">
        <dc:format>image/svg+xml</dc:format>
        <dc:type
           rdf:resource="http://purl.org/dc/dcmitype/StillImage" />
        <dc:title />
      </cc:Work>
    </rdf:RDF>
  </metadata>
  <path
     style="color:#000000;font-style:normal;font-variant:normal;font-weight:normal;font-stretch:normal;font-size:medium;line-height:normal;font-family:sans-serif;font-variant-ligatures:normal;font-variant-position:normal;font-variant-caps:normal;font-variant-numeric:normal;font-variant-alternates:normal;font-variant-east-asian:normal;font-feature-settings:normal;font-variation-settings:normal;text-indent:0;text-align:start;text-decoration:none;text-decoration-line:none;text-decoration-style:solid;text-decoration-color:#000000;letter-spacing:normal;word-spacing:normal;text-transform:none;writing-mode:lr-tb;direction:ltr;text-orientation:mixed;dominant-baseline:auto;baseline-shift:baseline;text-anchor:start;white-space:normal;shape-padding:0;shape-margin:0;inline-size:0;clip-rule:nonzero;display:inline;overflow:visible;visibility:visible;opacity:1;isolation:auto;mix-blend-mode:normal;color-interpolation:sRGB;color-interpolation-filters:linearRGB;solid-color:#000000;solid-opacity:1;vector-effect:none;fill:#000080;fill-opacity:1;fill-rule:evenodd;stroke:none;stroke-width:3;stroke-linecap:butt;stroke-linejoin:miter;stroke-miterlimit:4;stroke-dasharray:none;stroke-dashoffset:0;stroke-opacity:1;color-rendering:auto;image-rendering:auto;shape-rendering:auto;text-rendering:auto;enable-background:accumulate;stop-color:#000000;stop-opacity:1"
     d="M 2.5859375 5.0019531 A 2.50025 2.50025 0 0 0 0 7.5 L 0 77.789062 A 2.50025 2.50025 0 0 0 1.4472656 80.056641 L 33.113281 94.767578 A 2.50025 2.50025 0 0 0 34.189453 95 A 2.50025 2.50025 0 0 0 35.220703 94.767578 L 65.833984 80.546875 L 96.447266 94.767578 A 2.50025 2.50025 0 0 0 100 92.5 L 100 26.966797 C 98.565029 29.310713 96.844795 31.491384 95 33.417969 L 95 88.582031 L 67.322266 75.724609 L 67.121094 40.583984 C 66.085911 39.722815 65.079862 38.818706 64.105469 37.876953 L 64.322266 75.734375 L 35.646484 89.056641 L 35.277344 24.451172 L 50.902344 17.191406 C 50.674158 15.315516 50.778111 13.413944 51.164062 11.556641 L 34.166016 19.453125 L 3.5527344 5.2324219 A 2.50025 2.50025 0 0 0 2.5859375 5.0019531 z M 5 11.417969 L 32.275391 24.087891 L 32.646484 89.037109 L 5 76.193359 L 5 11.417969 z "
     id="path967" />
  <path
     style="fill:#000080;stroke-width:4.7938962"
     d="M 69.828433,2.2505552e-6 C 72.520396,3.2295467e-4 75.084159,1.5012058 77.388892,2.8571519 79.693626,1.5012036 82.257389,3.2295467e-4 84.949351,2.2505552e-6 93.234904,2.2505552e-6 99.999938,6.7650372 99.999938,15.05059 c 8.2e-5,0.01102 8.2e-5,0.02198 0,0.03297 -0.102849,7.007939 -5.746635,13.501118 -11.011016,18.622026 -5.264419,5.120902 -10.487939,8.762658 -10.487939,8.762658 -0.782274,0.544897 -1.822981,0.537853 -2.597808,-0.01759 0,0 -4.89251,-3.498598 -9.940685,-8.545076 -5.048176,-5.046475 -10.491834,-11.572332 -11.173651,-18.639607 -0.0067,-0.07158 -0.01125,-0.143456 -0.01125,-0.215384 C 54.777586,6.765035 61.542617,0 69.82817,0 Z"
     id="path4135"
     inkscape:connector-curvature="0" />
</svg>
