<?xml version="1.0" encoding="UTF-8" standalone="no"?>
<svg
   xmlns:dc="http://purl.org/dc/elements/1.1/"
   xmlns:cc="http://creativecommons.org/ns#"
   xmlns:rdf="http://www.w3.org/1999/02/22-rdf-syntax-ns#"
   xmlns:svg="http://www.w3.org/2000/svg"
   xmlns="http://www.w3.org/2000/svg"
   xmlns:sodipodi="http://sodipodi.sourceforge.net/DTD/sodipodi-0.dtd"
   xmlns:inkscape="http://www.inkscape.org/namespaces/inkscape"
   inkscape:version="0.92.4 (5da689c313, 2019-01-14)"
   sodipodi:docname="uEB00-map-smiley.svg"
   id="svg4460"
   height="100"
   width="100"
   version="1.1">
  <sodipodi:namedview
     inkscape:document-rotation="0"
     inkscape:current-layer="svg4460"
     inkscape:window-maximized="1"
     inkscape:window-y="-8"
     inkscape:window-x="1272"
     inkscape:cy="68.382287"
     inkscape:cx="2.5527584"
     inkscape:zoom="5.6568543"
     showgrid="false"
     id="namedview11"
     inkscape:window-height="1177"
     inkscape:window-width="1920"
     inkscape:pageshadow="2"
     inkscape:pageopacity="0"
     guidetolerance="10"
     gridtolerance="10"
     objecttolerance="10"
     borderopacity="1"
     bordercolor="#666666"
     pagecolor="#ffffff" />
  <defs
     id="defs4462" />
  <metadata
     id="metadata4465">
    <rdf:RDF>
      <cc:Work
         rdf:about="">
        <dc:format>image/svg+xml</dc:format>
        <dc:type
           rdf:resource="http://purl.org/dc/dcmitype/StillImage" />
        <dc:title />
      </cc:Work>
    </rdf:RDF>
  </metadata>
  <path
     style="color:#000000;font-style:normal;font-variant:normal;font-weight:normal;font-stretch:normal;font-size:medium;line-height:normal;font-family:sans-serif;font-variant-ligatures:normal;font-variant-position:normal;font-variant-caps:normal;font-variant-numeric:normal;font-variant-alternates:normal;font-variant-east-asian:normal;font-feature-settings:normal;font-variation-settings:normal;text-indent:0;text-align:start;text-decoration:none;text-decoration-line:none;text-decoration-style:solid;text-decoration-color:#000000;letter-spacing:normal;word-spacing:normal;text-transform:none;writing-mode:lr-tb;direction:ltr;text-orientation:mixed;dominant-baseline:auto;baseline-shift:baseline;text-anchor:start;white-space:normal;shape-padding:0;shape-margin:0;inline-size:0;clip-rule:nonzero;display:inline;overflow:visible;visibility:visible;opacity:1;isolation:auto;mix-blend-mode:normal;color-interpolation:sRGB;color-interpolation-filters:linearRGB;solid-color:#000000;solid-opacity:1;vector-effect:none;fill:#000080;fill-opacity:1;fill-rule:evenodd;stroke:none;stroke-width:3;stroke-linecap:butt;stroke-linejoin:miter;stroke-miterlimit:4;stroke-dasharray:none;stroke-dashoffset:0;stroke-opacity:1;color-rendering:auto;image-rendering:auto;shape-rendering:auto;text-rendering:auto;enable-background:accumulate;stop-color:#000000;stop-opacity:1"
     d="M 2.5859375 5.0019531 A 2.50025 2.50025 0 0 0 0 7.5 L 0 77.789062 A 2.50025 2.50025 0 0 0 1.4472656 80.056641 L 33.113281 94.767578 A 2.50025 2.50025 0 0 0 34.189453 95 A 2.50025 2.50025 0 0 0 35.220703 94.767578 L 65.833984 80.546875 L 96.447266 94.767578 A 2.50025 2.50025 0 0 0 100 92.5 L 100 40.917969 C 98.667682 43.339559 96.998396 45.569726 95 47.511719 L 95 88.582031 L 67.322266 75.724609 L 67.203125 54.933594 C 66.188402 54.683236 65.185826 54.379887 64.199219 54.033203 L 64.322266 75.734375 L 35.646484 89.056641 L 35.277344 24.451172 L 44.691406 20.078125 C 45.207599 17.811617 45.985136 15.600407 46.996094 13.492188 L 34.166016 19.453125 L 3.5527344 5.2324219 A 2.50025 2.50025 0 0 0 2.5859375 5.0019531 z M 5 11.417969 L 32.275391 24.087891 L 32.646484 89.037109 L 5 76.193359 L 5 11.417969 z "
     id="path967" />
  <path
     inkscape:connector-curvature="0"
     style="color:#000000;font-style:normal;font-variant:normal;font-weight:normal;font-stretch:normal;font-size:medium;line-height:normal;font-family:sans-serif;font-variant-ligatures:normal;font-variant-position:normal;font-variant-caps:normal;font-variant-numeric:normal;font-variant-alternates:normal;font-feature-settings:normal;text-indent:0;text-align:start;text-decoration:none;text-decoration-line:none;text-decoration-style:solid;text-decoration-color:#000000;letter-spacing:normal;word-spacing:normal;text-transform:none;writing-mode:lr-tb;direction:ltr;text-orientation:mixed;dominant-baseline:auto;baseline-shift:baseline;text-anchor:start;white-space:normal;shape-padding:0;clip-rule:nonzero;display:inline;overflow:visible;visibility:visible;opacity:1;isolation:auto;mix-blend-mode:normal;color-interpolation:sRGB;color-interpolation-filters:linearRGB;solid-color:#000000;solid-opacity:1;vector-effect:none;fill:#000080;fill-opacity:1;fill-rule:nonzero;stroke:none;stroke-width:5.76399994;stroke-linecap:round;stroke-linejoin:round;stroke-miterlimit:4;stroke-dasharray:none;stroke-dashoffset:20;stroke-opacity:1;paint-order:normal;color-rendering:auto;image-rendering:auto;shape-rendering:auto;text-rendering:auto;enable-background:accumulate"
     d="M 74.0625,0 C 59.771489,0 48.125,11.646489 48.125,25.9375 c 0,14.291011 11.646489,25.937503 25.9375,25.937503 C 88.353511,51.875003 100,40.228511 100,25.9375 100,11.646489 88.353511,0 74.0625,0 Z m 0,5.763672 c 11.175914,0 20.173828,8.997914 20.173828,20.173828 0,11.175914 -8.997914,20.173828 -20.173828,20.173828 -11.175914,0 -20.173828,-8.997914 -20.173828,-20.173828 0,-11.175914 8.997914,-20.173828 20.173828,-20.173828 z m -7.625,11.121094 a 4.4314185,4.4314185 0 0 0 -4.431641,4.43164 4.4314185,4.4314185 0 0 0 4.431641,4.431641 4.4314185,4.4314185 0 0 0 4.431641,-4.431641 4.4314185,4.4314185 0 0 0 -4.431641,-4.43164 z m 15.25,0 a 4.4314185,4.4314185 0 0 0 -4.431641,4.43164 4.4314185,4.4314185 0 0 0 4.431641,4.431641 4.4314185,4.4314185 0 0 0 4.431641,-4.431641 4.4314185,4.4314185 0 0 0 -4.431641,-4.43164 z M 65.802734,32.607422 A 2.4329552,2.4329552 0 0 0 64.375,36.974609 c 2.498654,1.963479 5.905149,2.918883 9.525391,2.980469 3.62024,0.06158 7.093068,-0.784743 9.724609,-2.621094 A 2.4330568,2.4330568 0 1 0 80.839844,33.34375 c -1.475942,1.029946 -4.108157,1.792863 -6.857422,1.746094 -2.749266,-0.04676 -5.279119,-0.903747 -6.59961,-1.941406 a 2.4329552,2.4329552 0 0 0 -1.580078,-0.541016 z"
     id="path939" />
</svg>
