<?xml version="1.0" encoding="UTF-8" standalone="no"?>
<svg
   xmlns:dc="http://purl.org/dc/elements/1.1/"
   xmlns:cc="http://creativecommons.org/ns#"
   xmlns:rdf="http://www.w3.org/1999/02/22-rdf-syntax-ns#"
   xmlns:svg="http://www.w3.org/2000/svg"
   xmlns="http://www.w3.org/2000/svg"
   xmlns:sodipodi="http://sodipodi.sourceforge.net/DTD/sodipodi-0.dtd"
   xmlns:inkscape="http://www.inkscape.org/namespaces/inkscape"
   inkscape:version="0.92.4 (5da689c313, 2019-01-14)"
   sodipodi:docname="uEB05-map-unlock.svg"
   id="svg4460"
   height="100"
   width="100"
   version="1.1">
  <sodipodi:namedview
     inkscape:document-rotation="0"
     inkscape:current-layer="svg4460"
     inkscape:window-maximized="1"
     inkscape:window-y="-8"
     inkscape:window-x="1272"
     inkscape:cy="71.880392"
     inkscape:cx="23.475631"
     inkscape:zoom="5.6568543"
     showgrid="false"
     id="namedview11"
     inkscape:window-height="1177"
     inkscape:window-width="1920"
     inkscape:pageshadow="2"
     inkscape:pageopacity="0"
     guidetolerance="10"
     gridtolerance="10"
     objecttolerance="10"
     borderopacity="1"
     bordercolor="#666666"
     pagecolor="#ffffff" />
  <defs
     id="defs4462" />
  <metadata
     id="metadata4465">
    <rdf:RDF>
      <cc:Work
         rdf:about="">
        <dc:format>image/svg+xml</dc:format>
        <dc:type
           rdf:resource="http://purl.org/dc/dcmitype/StillImage" />
        <dc:title />
      </cc:Work>
    </rdf:RDF>
  </metadata>
  <path
     style="opacity:1;vector-effect:none;fill:#000080;fill-opacity:1;stroke:none;stroke-width:2.40626907;stroke-linecap:round;stroke-linejoin:round;stroke-miterlimit:4;stroke-dasharray:none;stroke-dashoffset:20;stroke-opacity:1;paint-order:normal"
     d="M 68.197266,0 C 58.751221,0 50.910733,6.5649605 50.001953,14.882812 h 8.386719 c 0.831391,-4.227432 4.863828,-7.3847651 9.808594,-7.3847651 5.557928,0 9.974609,3.9855241 9.974609,9.0000001 v 6.271484 H 49.910156 v 0 0 c -2.357753,0.513831 -4.101562,2.558191 -4.101562,4.847657 v 30.708984 c 0,2.686064 2.395874,4.847656 5.373047,4.847656 h 34.033203 c 2.977171,0 5.373047,-2.161592 5.373047,-4.847656 V 27.617188 c 0,-2.289465 -1.745765,-4.185388 -4.103516,-4.699219 V 16.498047 C 86.484375,7.4306771 78.247331,0 68.197266,0 Z m 0,33.193359 c 3.122426,0 5.654297,2.397653 5.654296,5.355469 -0.0027,1.892474 -1.058828,3.643522 -2.779296,4.605469 l 2.146484,5.119141 c 0.715747,1.70609 -0.176557,3.840189 -1.607422,3.839843 H 64.783203 C 64.154331,52.112328 63.5688,51.671809 63.226562,50.945312 62.845624,50.138863 62.823137,49.10704 63.171875,48.273438 l 2.150391,-5.119141 c -1.719403,-0.962601 -2.775225,-2.713526 -2.777344,-4.605469 0,-2.957816 2.529917,-5.355469 5.652344,-5.355469 z"
     id="path929"
     inkscape:connector-curvature="0"
     sodipodi:nodetypes="sccssccccsssssscssscccccccccs" />
  <path
     style="color:#000000;font-style:normal;font-variant:normal;font-weight:normal;font-stretch:normal;font-size:medium;line-height:normal;font-family:sans-serif;font-variant-ligatures:normal;font-variant-position:normal;font-variant-caps:normal;font-variant-numeric:normal;font-variant-alternates:normal;font-feature-settings:normal;text-indent:0;text-align:start;text-decoration:none;text-decoration-line:none;text-decoration-style:solid;text-decoration-color:#000000;letter-spacing:normal;word-spacing:normal;text-transform:none;writing-mode:lr-tb;direction:ltr;text-orientation:mixed;dominant-baseline:auto;baseline-shift:baseline;text-anchor:start;white-space:normal;shape-padding:0;clip-rule:nonzero;display:inline;overflow:visible;visibility:visible;opacity:1;isolation:auto;mix-blend-mode:normal;color-interpolation:sRGB;color-interpolation-filters:linearRGB;solid-color:#000000;solid-opacity:1;vector-effect:none;fill:#000080;fill-opacity:1;fill-rule:evenodd;stroke:none;stroke-width:3;stroke-linecap:butt;stroke-linejoin:miter;stroke-miterlimit:4;stroke-dasharray:none;stroke-dashoffset:0;stroke-opacity:1;color-rendering:auto;image-rendering:auto;shape-rendering:auto;text-rendering:auto;enable-background:accumulate"
     d="M 2.5859375,5.0019531 C 1.1726174,4.9534879 4.1534671e-4,6.0858493 0,7.5 v 70.289062 c 4.8005406e-5,0.973096 0.56467938,1.857759 1.4472656,2.267579 L 33.113281,94.767578 c 0.336998,0.156475 0.704634,0.235874 1.076172,0.232422 0.356386,-0.0031 0.707994,-0.08233 1.03125,-0.232422 L 65.833984,80.546875 96.447266,94.767578 C 98.104294,95.536557 99.999739,94.326765 100,92.5 V 22.210938 c -4.8e-5,-0.973094 -0.56468,-1.857759 -1.447266,-2.267579 L 95,17.794922 V 88.582031 L 67.322266,75.724609 67.271484,66.990234 h -3 l 0.05078,8.744141 -28.675782,13.322266 -0.36914,-64.605469 10.300781,-4.785156 c -0.165558,-1.910912 -0.04399,-3.815434 0.332031,-5.667969 L 34.166016,19.453125 3.5527344,5.2324219 C 3.249139,5.0916749 2.9203789,5.0133038 2.5859375,5.0019531 Z M 5,11.417969 32.275391,24.087891 32.646484,89.037109 5,76.193359 Z"
     id="path967-6"
     inkscape:connector-curvature="0"
     sodipodi:nodetypes="cccccccccccccccccccccccccccccc" />
</svg>
