<?xml version="1.0" encoding="UTF-8" standalone="no"?>
<svg
   xmlns:dc="http://purl.org/dc/elements/1.1/"
   xmlns:cc="http://creativecommons.org/ns#"
   xmlns:rdf="http://www.w3.org/1999/02/22-rdf-syntax-ns#"
   xmlns:svg="http://www.w3.org/2000/svg"
   xmlns="http://www.w3.org/2000/svg"
   xmlns:sodipodi="http://sodipodi.sourceforge.net/DTD/sodipodi-0.dtd"
   xmlns:inkscape="http://www.inkscape.org/namespaces/inkscape"
   inkscape:version="0.92.4 (5da689c313, 2019-01-14)"
   sodipodi:docname="uEB02-map-control.svg"
   id="svg4460"
   height="100"
   width="100"
   version="1.1">
  <sodipodi:namedview
     inkscape:document-rotation="0"
     inkscape:current-layer="svg4460"
     inkscape:window-maximized="1"
     inkscape:window-y="-8"
     inkscape:window-x="1272"
     inkscape:cy="47.948165"
     inkscape:cx="68.780365"
     inkscape:zoom="11.313709"
     showgrid="false"
     id="namedview11"
     inkscape:window-height="1177"
     inkscape:window-width="1920"
     inkscape:pageshadow="2"
     inkscape:pageopacity="0"
     guidetolerance="10"
     gridtolerance="10"
     objecttolerance="10"
     borderopacity="1"
     bordercolor="#666666"
     pagecolor="#ffffff" />
  <defs
     id="defs4462" />
  <metadata
     id="metadata4465">
    <rdf:RDF>
      <cc:Work
         rdf:about="">
        <dc:format>image/svg+xml</dc:format>
        <dc:type
           rdf:resource="http://purl.org/dc/dcmitype/StillImage" />
        <dc:title />
      </cc:Work>
    </rdf:RDF>
  </metadata>
  <path
     style="color:#000000;font-style:normal;font-variant:normal;font-weight:normal;font-stretch:normal;font-size:medium;line-height:normal;font-family:sans-serif;font-variant-ligatures:normal;font-variant-position:normal;font-variant-caps:normal;font-variant-numeric:normal;font-variant-alternates:normal;font-feature-settings:normal;text-indent:0;text-align:start;text-decoration:none;text-decoration-line:none;text-decoration-style:solid;text-decoration-color:#000000;letter-spacing:normal;word-spacing:normal;text-transform:none;writing-mode:lr-tb;direction:ltr;text-orientation:mixed;dominant-baseline:auto;baseline-shift:baseline;text-anchor:start;white-space:normal;shape-padding:0;clip-rule:nonzero;display:inline;overflow:visible;visibility:visible;opacity:1;isolation:auto;mix-blend-mode:normal;color-interpolation:sRGB;color-interpolation-filters:linearRGB;solid-color:#000000;solid-opacity:1;vector-effect:none;fill:#000080;fill-opacity:1;fill-rule:evenodd;stroke:none;stroke-width:3;stroke-linecap:butt;stroke-linejoin:miter;stroke-miterlimit:4;stroke-dasharray:none;stroke-dashoffset:0;stroke-opacity:1;color-rendering:auto;image-rendering:auto;shape-rendering:auto;text-rendering:auto;enable-background:accumulate"
     d="m 65.808594,5 c -0.355727,0.00337 -0.70664,0.082605 -1.029297,0.2324219 L 34.166016,19.453125 3.5527344,5.2324219 C 1.8957066,4.463442 2.6034937e-4,5.6732348 0,7.5 v 70.289062 c 4.8005406e-5,0.973093 0.56467932,1.857759 1.4472656,2.267579 L 33.113281,94.767578 c 0.336998,0.156475 0.704634,0.235874 1.076172,0.232422 0.356386,-0.0031 0.707994,-0.08233 1.03125,-0.232422 L 65.833984,80.546875 96.447266,94.767578 C 98.104294,95.536557 99.999739,94.326765 100,92.5 V 22.210938 c -4.8e-5,-0.973094 -0.56468,-1.857759 -1.447266,-2.267579 L 66.886719,5.2324219 C 66.549125,5.0756631 66.180789,4.9962575 65.808594,5 Z M 66.951172,10.775391 95,23.804688 v 64.777343 l -27.677734,-12.857422 -3,0.0098 -28.675782,13.322266 -0.36914,-64.605469 28.675781,-13.322266 0.05078,10.88086 h 3 z M 5,11.417969 32.275391,24.087891 32.646484,89.037109 5,76.193359 Z"
     id="path967"
     inkscape:connector-curvature="0"
     sodipodi:nodetypes="ccccccccccccccccccccccccccccccccc" />
  <path
     style="opacity:1;fill:#000080;fill-opacity:1;stroke:none;stroke-width:7.01426983;stroke-linecap:round;stroke-linejoin:round;stroke-miterlimit:4;stroke-dasharray:none;stroke-dashoffset:0;stroke-opacity:1;paint-order:normal"
     d="m 41.366174,66.968157 h 19.80664 a 7.4999995,7.4999995 0 0 0 7.0625,5 7.4999995,7.4999995 0 0 0 7.0625,-5 l 14.769532,10e-7 v -5 l -14.769531,-1e-6 a 7.4999995,7.4999995 0 0 0 -7.0625,-5 7.4999995,7.4999995 0 0 0 -7.060547,5 H 41.366174 Z m 0,-16.130859 h 4.923828 a 7.4999995,7.4999995 0 0 0 7.0625,5 7.4999995,7.4999995 0 0 0 7.0625,-5 l 29.652344,1e-6 v -5 H 60.415002 a 7.4999995,7.4999995 0 0 0 -7.0625,-5 7.4999995,7.4999995 0 0 0 -7.060547,5 h -4.925781 z m 0,-16.13086 H 71.28219 a 7.4999995,7.4999995 0 0 0 7.0625,5 7.4999995,7.4999995 0 0 0 7.062499,-5 h 4.660157 v -5 h -4.660157 a 7.4999995,7.4999995 0 0 0 -7.062499,-5 7.4999995,7.4999995 0 0 0 -7.060547,5 H 41.366174 Z"
     id="path981"
     inkscape:connector-curvature="0" />
</svg>
