<?xml version="1.0" encoding="UTF-8" standalone="no"?>
<svg
   xmlns:dc="http://purl.org/dc/elements/1.1/"
   xmlns:cc="http://creativecommons.org/ns#"
   xmlns:rdf="http://www.w3.org/1999/02/22-rdf-syntax-ns#"
   xmlns:svg="http://www.w3.org/2000/svg"
   xmlns="http://www.w3.org/2000/svg"
   xmlns:sodipodi="http://sodipodi.sourceforge.net/DTD/sodipodi-0.dtd"
   xmlns:inkscape="http://www.inkscape.org/namespaces/inkscape"
   version="1.1"
   width="100"
   height="100"
   id="svg4460"
   sodipodi:docname="uEB0B-weather-map.svg"
   inkscape:version="0.92.4 (5da689c313, 2019-01-14)">
  <sodipodi:namedview
     pagecolor="#ffffff"
     bordercolor="#666666"
     borderopacity="1"
     objecttolerance="10"
     gridtolerance="10"
     guidetolerance="10"
     inkscape:pageopacity="0"
     inkscape:pageshadow="2"
     inkscape:window-width="1920"
     inkscape:window-height="1177"
     id="namedview11"
     showgrid="false"
     inkscape:zoom="5.7134229"
     inkscape:cx="96.353186"
     inkscape:cy="27.754819"
     inkscape:window-x="1272"
     inkscape:window-y="-8"
     inkscape:window-maximized="1"
     inkscape:current-layer="svg4460"
     inkscape:document-rotation="0" />
  <defs
     id="defs4462" />
  <metadata
     id="metadata4465">
    <rdf:RDF>
      <cc:Work
         rdf:about="">
        <dc:format>image/svg+xml</dc:format>
        <dc:type
           rdf:resource="http://purl.org/dc/dcmitype/StillImage" />
        <dc:title />
      </cc:Work>
    </rdf:RDF>
  </metadata>
  <path
     style="opacity:1;vector-effect:none;fill:#000080;fill-opacity:1;stroke:none;stroke-width:5.15030527;stroke-linecap:round;stroke-linejoin:round;stroke-miterlimit:4;stroke-dasharray:none;stroke-dashoffset:4;stroke-opacity:1;paint-order:normal"
     d="M 2.5 12.5 A 2.50025 2.50025 0 0 0 0 15 L 0 85 A 2.50025 2.50025 0 0 0 2.5 87.5 L 97.5 87.5 A 2.50025 2.50025 0 0 0 100 85 L 100 15 A 2.50025 2.50025 0 0 0 97.5 12.5 L 2.5 12.5 z M 5 17.5 L 77.066406 17.5 C 73.586299 19.05374 70.238153 21.007169 67.041016 23.242188 C 57.504167 29.909099 49.217693 39.056403 42.402344 47.597656 L 42.386719 47.617188 L 42.371094 47.636719 C 32.273515 61.179368 20.147646 68.395035 5 71.056641 L 5 17.5 z M 86.447266 17.5 L 95 17.5 L 95 31.097656 C 82.556285 29.541255 73.126929 31.990887 66.175781 35.400391 L 66.167969 35.404297 L 66.158203 35.408203 C 52.917698 42.118646 48.520455 52.180301 44.431641 61.658203 C 41.091239 69.401279 37.944477 76.745029 30.183594 82.5 L 5 82.5 L 5 74.048828 C 21.007397 71.32854 34.15668 63.651978 44.746094 49.46875 C 51.472061 41.039514 59.612376 32.095825 68.759766 25.701172 C 74.326911 21.809355 80.236409 18.86668 86.447266 17.5 z M 24.123047 20.085938 A 2.0002 2.0002 0 0 0 22.154297 22.113281 L 22.154297 27.179688 A 10.280336 10.280336 0 0 0 18.443359 28.712891 L 14.863281 25.132812 A 2.0002 2.0002 0 0 0 13.427734 24.527344 A 2.0002 2.0002 0 0 0 12.033203 27.960938 L 15.611328 31.539062 A 10.280336 10.280336 0 0 0 14.072266 35.253906 L 9.0136719 35.253906 A 2.0002 2.0002 0 1 0 9.0136719 39.253906 L 14.080078 39.253906 A 10.280336 10.280336 0 0 0 15.615234 42.962891 L 12.033203 46.544922 A 2.000477 2.000477 0 1 0 14.863281 49.373047 L 18.441406 45.794922 A 10.280336 10.280336 0 0 0 22.154297 47.333984 L 22.154297 52.392578 A 2.0002 2.0002 0 1 0 26.154297 52.392578 L 26.154297 47.326172 A 10.280336 10.280336 0 0 0 29.865234 45.792969 L 33.445312 49.373047 A 2.0002 2.0002 0 1 0 36.273438 46.544922 L 32.695312 42.966797 A 10.280336 10.280336 0 0 0 34.234375 39.253906 L 39.292969 39.253906 A 2.0002 2.0002 0 1 0 39.292969 35.253906 L 34.228516 35.253906 A 10.280336 10.280336 0 0 0 32.691406 31.542969 L 36.273438 27.960938 A 2.0002 2.0002 0 0 0 34.820312 24.527344 A 2.0002 2.0002 0 0 0 33.445312 25.132812 L 29.867188 28.710938 A 10.280336 10.280336 0 0 0 26.154297 27.171875 L 26.154297 22.113281 A 2.0002 2.0002 0 0 0 24.123047 20.085938 z M 87.142578 33.501953 L 92.28125 41.693359 L 95 38.236328 L 95 82.5 L 34.849609 82.5 C 35.433716 81.961133 35.990512 81.411591 36.521484 80.853516 L 47.505859 80.390625 L 43.566406 70.707031 C 44.911881 68.104641 46.061565 65.457581 47.1875 62.847656 C 50.571473 55.003581 53.789685 47.496296 61.832031 41.572266 L 71.84375 46.089844 L 72.65625 35.943359 C 73.089434 35.792909 73.529869 35.647752 73.978516 35.507812 L 81.195312 42.5 L 85.25 33.552734 C 85.870035 33.523614 86.500529 33.50761 87.142578 33.501953 z M 69.517578 52.873047 C 66.018851 52.873591 62.93256 55.132614 61.917969 58.435547 C 61.422945 58.309056 60.913698 58.243306 60.402344 58.240234 C 56.982017 58.240394 54.209074 60.975711 54.208984 64.349609 C 54.209069 67.564546 56.727298 70.194259 59.923828 70.435547 C 59.883428 70.101327 59.857432 69.762601 59.857422 69.417969 C 59.857546 64.674441 63.797759 60.808817 68.550781 60.808594 A 2.50025 2.50025 0 0 1 68.566406 60.808594 C 68.592756 60.808794 68.618191 60.817959 68.644531 60.818359 C 70.125598 58.187558 72.648035 56.298838 75.597656 55.679688 C 74.139653 53.964588 71.955824 52.874512 69.517578 52.873047 z M 77.666016 57.941406 C 74.167289 57.94195 71.080997 60.200973 70.066406 63.503906 C 69.571382 63.377415 69.062135 63.311667 68.550781 63.308594 C 65.130454 63.308755 62.35751 66.04407 62.357422 69.417969 C 62.35751 72.791865 65.130454 75.527185 68.550781 75.527344 L 84.183594 75.527344 C 87.041642 75.52801 89.358051 73.24308 89.357422 70.423828 C 89.354522 68.145158 87.81968 66.144455 85.597656 65.521484 C 85.458152 61.298144 81.949746 57.943981 77.666016 57.941406 z "
     id="path888-7" />
</svg>
