<?xml version="1.0" encoding="UTF-8" standalone="no"?>
<svg
   xmlns:dc="http://purl.org/dc/elements/1.1/"
   xmlns:cc="http://creativecommons.org/ns#"
   xmlns:rdf="http://www.w3.org/1999/02/22-rdf-syntax-ns#"
   xmlns:svg="http://www.w3.org/2000/svg"
   xmlns="http://www.w3.org/2000/svg"
   xmlns:sodipodi="http://sodipodi.sourceforge.net/DTD/sodipodi-0.dtd"
   xmlns:inkscape="http://www.inkscape.org/namespaces/inkscape"
   inkscape:version="0.92.4 (5da689c313, 2019-01-14)"
   sodipodi:docname="uEB2C-map-edit.svg"
   id="svg4460"
   height="100"
   width="100"
   version="1.1">
  <sodipodi:namedview
     inkscape:document-rotation="0"
     inkscape:current-layer="svg4460"
     inkscape:window-maximized="1"
     inkscape:window-y="-8"
     inkscape:window-x="1272"
     inkscape:cy="35.533357"
     inkscape:cx="101.87475"
     inkscape:zoom="5.6568543"
     showgrid="false"
     id="namedview11"
     inkscape:window-height="1177"
     inkscape:window-width="1920"
     inkscape:pageshadow="2"
     inkscape:pageopacity="0"
     guidetolerance="10"
     gridtolerance="10"
     objecttolerance="10"
     borderopacity="1"
     bordercolor="#666666"
     pagecolor="#ffffff" />
  <defs
     id="defs4462" />
  <metadata
     id="metadata4465">
    <rdf:RDF>
      <cc:Work
         rdf:about="">
        <dc:format>image/svg+xml</dc:format>
        <dc:type
           rdf:resource="http://purl.org/dc/dcmitype/StillImage" />
        <dc:title />
      </cc:Work>
    </rdf:RDF>
  </metadata>
  <path
     style="color:#000000;font-style:normal;font-variant:normal;font-weight:normal;font-stretch:normal;font-size:medium;line-height:normal;font-family:sans-serif;font-variant-ligatures:normal;font-variant-position:normal;font-variant-caps:normal;font-variant-numeric:normal;font-variant-alternates:normal;font-variant-east-asian:normal;font-feature-settings:normal;font-variation-settings:normal;text-indent:0;text-align:start;text-decoration:none;text-decoration-line:none;text-decoration-style:solid;text-decoration-color:#000000;letter-spacing:normal;word-spacing:normal;text-transform:none;writing-mode:lr-tb;direction:ltr;text-orientation:mixed;dominant-baseline:auto;baseline-shift:baseline;text-anchor:start;white-space:normal;shape-padding:0;shape-margin:0;inline-size:0;clip-rule:nonzero;display:inline;overflow:visible;visibility:visible;opacity:1;isolation:auto;mix-blend-mode:normal;color-interpolation:sRGB;color-interpolation-filters:linearRGB;solid-color:#000000;solid-opacity:1;vector-effect:none;fill:#000080;fill-opacity:1;fill-rule:evenodd;stroke:none;stroke-width:3;stroke-linecap:butt;stroke-linejoin:miter;stroke-miterlimit:4;stroke-dasharray:none;stroke-dashoffset:0;stroke-opacity:1;color-rendering:auto;image-rendering:auto;shape-rendering:auto;text-rendering:auto;enable-background:accumulate;stop-color:#000000;stop-opacity:1"
     d="M 65.808594 5 A 2.50025 2.50025 0 0 0 64.779297 5.2324219 L 34.166016 19.453125 L 3.5527344 5.2324219 A 2.50025 2.50025 0 0 0 0 7.5 L 0 77.789062 A 2.50025 2.50025 0 0 0 1.4472656 80.056641 L 33.113281 94.767578 A 2.50025 2.50025 0 0 0 34.189453 95 A 2.50025 2.50025 0 0 0 35.220703 94.767578 L 65.833984 80.546875 L 96.447266 94.767578 A 2.50025 2.50025 0 0 0 100 92.5 L 100 22.210938 A 2.50025 2.50025 0 0 0 98.699219 20.021484 C 97.523321 21.34281 96.276364 22.6154 95 23.867188 L 95 88.582031 L 67.322266 75.724609 L 67.181641 51.230469 C 66.233104 51.917095 65.241405 52.54279 64.193359 53.087891 L 64.322266 75.734375 L 35.646484 89.056641 L 35.277344 24.451172 L 63.953125 11.128906 L 63.990234 17.511719 C 65.002858 16.546102 65.995911 15.568159 66.972656 14.580078 L 66.951172 10.775391 L 69.603516 12.007812 C 70.961125 10.888499 72.218422 9.6165921 73.429688 8.2714844 L 66.886719 5.2324219 A 2.50025 2.50025 0 0 0 65.808594 5 z M 5 11.417969 L 32.275391 24.087891 L 32.646484 89.037109 L 5 76.193359 L 5 11.417969 z "
     id="path967" />
  <path
     style="color:#000000;font-style:normal;font-variant:normal;font-weight:normal;font-stretch:normal;font-size:medium;line-height:normal;font-family:sans-serif;font-variant-ligatures:normal;font-variant-position:normal;font-variant-caps:normal;font-variant-numeric:normal;font-variant-alternates:normal;font-feature-settings:normal;text-indent:0;text-align:start;text-decoration:none;text-decoration-line:none;text-decoration-style:solid;text-decoration-color:#000000;letter-spacing:normal;word-spacing:normal;text-transform:none;writing-mode:lr-tb;direction:ltr;text-orientation:mixed;dominant-baseline:auto;baseline-shift:baseline;text-anchor:start;white-space:normal;shape-padding:0;clip-rule:nonzero;display:inline;overflow:visible;visibility:visible;opacity:1;isolation:auto;mix-blend-mode:normal;color-interpolation:sRGB;color-interpolation-filters:linearRGB;solid-color:#000000;solid-opacity:1;vector-effect:none;fill:#000080;fill-opacity:1;fill-rule:nonzero;stroke:none;stroke-width:5.95278072;stroke-linecap:round;stroke-linejoin:round;stroke-miterlimit:4;stroke-dasharray:none;stroke-dashoffset:4;stroke-opacity:1;paint-order:normal;color-rendering:auto;image-rendering:auto;shape-rendering:auto;text-rendering:auto;enable-background:accumulate"
     d="m 90.361278,0.87164167 c -1.16242,-1.16218908 -3.04683,-1.16218872 -4.209251,0 L 51.341846,35.681822 c -0.290548,0.290606 -0.507491,0.626607 -0.652762,0.9849 l -4.75514,16.623255 c -0.217836,0.686904 0.116758,0.980278 0.858293,0.753061 l 16.541043,-4.73212 c 0.358292,-0.145273 0.694294,-0.362215 0.984898,-0.652763 L 99.12836,13.847974 c 1.16218,-1.16242 1.16218,-3.04683 0,-4.2092511 z m -7.576652,11.78590333 4.55783,4.55783 -25.128904,25.128903 -4.557828,-4.55783 z"
     id="rect812"
     inkscape:connector-curvature="0" />
</svg>
