<?xml version="1.0" encoding="UTF-8" standalone="no"?>
<svg
   xmlns:dc="http://purl.org/dc/elements/1.1/"
   xmlns:cc="http://creativecommons.org/ns#"
   xmlns:rdf="http://www.w3.org/1999/02/22-rdf-syntax-ns#"
   xmlns:svg="http://www.w3.org/2000/svg"
   xmlns="http://www.w3.org/2000/svg"
   xmlns:sodipodi="http://sodipodi.sourceforge.net/DTD/sodipodi-0.dtd"
   xmlns:inkscape="http://www.inkscape.org/namespaces/inkscape"
   version="1.1"
   width="100"
   height="100"
   id="svg4460"
   sodipodi:docname="story-map-o.svg"
   inkscape:version="0.92.4 (5da689c313, 2019-01-14)">
  <sodipodi:namedview
     pagecolor="#ffffff"
     bordercolor="#666666"
     borderopacity="1"
     objecttolerance="10"
     gridtolerance="10"
     guidetolerance="10"
     inkscape:pageopacity="0"
     inkscape:pageshadow="2"
     inkscape:window-width="1920"
     inkscape:window-height="1177"
     id="namedview11"
     showgrid="false"
     inkscape:zoom="4"
     inkscape:cx="-30.14205"
     inkscape:cy="38.302137"
     inkscape:window-x="1272"
     inkscape:window-y="-8"
     inkscape:window-maximized="1"
     inkscape:current-layer="svg4460"
     inkscape:document-rotation="0" />
  <defs
     id="defs4462" />
  <metadata
     id="metadata4465">
    <rdf:RDF>
      <cc:Work
         rdf:about="">
        <dc:format>image/svg+xml</dc:format>
        <dc:type
           rdf:resource="http://purl.org/dc/dcmitype/StillImage" />
        <dc:title></dc:title>
      </cc:Work>
    </rdf:RDF>
  </metadata>
  <path
     inkscape:connector-curvature="0"
     style="color:#000000;overflow:visible;fill:#000080;fill-opacity:1;stroke:none;stroke-width:7.90513468;stroke-linecap:round;stroke-linejoin:round;stroke-miterlimit:4;stroke-dasharray:none;stroke-dashoffset:20;stroke-opacity:1"
     d="M 49.99892,3.8475935 C 22.679185,3.8475935 -2.5e-6,22.237843 -2.5e-6,45.560836 c 0,13.842401 8.00154,25.933324 20.2093025,33.485815 -0.825486,4.521083 -4.818236,8.426307 -8.617984,12.450104 a 2.7621709,2.7621709 0 0 0 2.349776,4.634804 c 8.954416,-1.118205 17.197512,-5.943165 23.303486,-10.234115 4.080556,0.899721 8.356477,1.37879 12.754342,1.37879 C 77.318656,87.276234 100,68.883827 100,45.560836 100,22.237843 77.318655,3.8475935 49.99892,3.8475935 Z m 0,5.5237893 c 24.85808,0 44.477288,16.4867442 44.477288,36.1894532 0,19.702707 -19.619208,36.191609 -44.477288,36.191609 -2.385272,0 -4.720531,-0.155072 -6.99536,-0.448808 -0.251001,-0.03223 -0.499318,-0.07002 -0.748739,-0.105726 -0.35824,-0.0514 -0.717319,-0.101361 -1.072387,-0.159671 -0.266436,-0.0438 -0.529478,-0.09471 -0.794045,-0.14241 -0.301135,-0.05417 -0.60322,-0.107073 -0.901935,-0.166146 -0.327894,-0.06504 -0.652559,-0.136262 -0.977446,-0.207142 -0.266346,-0.05793 -0.534062,-0.112976 -0.798364,-0.174776 -0.563471,-0.131759 -1.122744,-0.27179 -1.676559,-0.420757 -0.888049,0.636063 -1.830065,1.288178 -2.817994,1.944114 -0.0055,0.0039 -0.01138,0.0069 -0.01723,0.01083 -0.784224,0.520446 -1.615311,1.041744 -2.451182,1.560038 -2.730221,1.69623 -5.682532,3.337488 -8.764707,4.639121 1.378097,-1.887089 2.556211,-3.966343 3.2517,-6.287626 0.10462,-0.349077 0.192979,-0.705355 0.274035,-1.065919 0.02917,-0.128072 0.058,-0.256711 0.08418,-0.386233 0.05999,-0.30341 0.113469,-0.609612 0.155362,-0.921352 0.03193,-0.22976 0.05203,-0.464665 0.07336,-0.699104 0.02,-0.229612 0.04651,-0.456311 0.05612,-0.690473 0.02221,-0.505801 0.02331,-1.020662 -0.0088,-1.549251 a 2.7621709,2.7621709 0 0 0 -0.08849,-0.573956 c -0.0011,-7.58e-4 -0.0033,-0.0014 -0.0044,-0.0022 -0.0099,-0.0055 -0.01988,-0.01176 -0.03016,-0.01726 C 25.077703,75.532311 24.426636,75.157513 23.78444,74.77434 23.552982,74.635943 23.326308,74.49328 23.098286,74.351424 12.378069,67.692441 5.5235775,57.194483 5.5235775,45.56083 5.5235775,25.858122 25.14063,9.3713772 49.99871,9.3713772 Z m -3.089875,2.1965692 c -0.915524,0.03168 -1.833512,0.08682 -2.753256,0.179092 -0.0099,0.01147 -0.0099,0.02587 -0.02154,0.03668 -1.770341,1.503748 -4.463608,1.212507 -6.434342,2.392922 -0.89956,1.060253 1.332515,0.761282 1.562194,1.061605 0.59752,-0.57218 1.245593,0.278259 1.866433,0.340921 -0.629281,0.455228 1.348634,0.426453 0.438026,0.78973 0.993509,0.440092 2.49999,0.320028 2.785625,1.512568 1.084994,0.0247 2.906717,0.292998 2.660478,1.607509 -1.058513,0.258381 -1.162029,1.318565 -1.872907,2.017478 -0.801093,0.37376 -0.41751,1.094165 -1.115541,1.42626 -1.689197,0.472714 -3.455042,0.712984 -5.124618,1.253641 -0.803855,0.606655 -2.374633,2.283037 -3.051032,0.647319 -0.277029,-1.38892 0.941575,-2.52545 2.008848,-3.376848 0.39252,-0.856294 2.55104,-1.251819 1.758553,-2.310929 -0.21282,-0.204572 0.16926,-0.795574 -0.561007,-0.377603 -1.210571,0.09632 -1.461318,1.369811 -2.151262,2.101629 -0.778655,0.361532 -0.08772,0.874806 -0.664578,1.277377 -1.126831,0.45996 -2.468681,0.731389 -3.189127,1.719711 -1.023293,1.006702 -0.576893,2.302888 -0.910563,3.478261 -0.97074,0.410071 -0.244892,1.336714 -0.658104,1.982954 -0.473919,1.141724 -2.081762,-0.03519 -2.343291,-0.08631 -0.599066,0.735539 -1.98894,0.757058 -2.878414,0.794045 -0.996381,-1.057251 -1.161664,0.682487 -2.280728,0.58043 -1.5284,0.04125 -2.091539,1.422546 -3.111441,2.16636 -1.273211,0.288513 -2.654324,0.946702 -2.770522,2.276406 -0.294264,0.861287 0.0116,-0.149001 0.353865,0.463912 0.785383,1.167402 -1.197227,1.985716 -0.804839,3.079081 0.81297,1.03146 2.166917,1.283419 3.176179,2.036897 0.540194,1.486582 -1.704321,0.02729 -2.276398,0.718525 -0.935718,-0.647311 -0.829949,-1.701243 -2.343301,-1.929011 0.164343,-0.332634 0.265031,-0.79818 -0.289138,-1.042184 -1.625618,-0.765995 -2.219834,1.042863 -2.688527,2.049844 0.129809,0.08967 1.618293,0.525968 1.25148,1.413314 -0.340994,0.707783 -1.311292,2.834222 0.345237,2.496493 0.683746,-0.04068 1.319468,-0.307594 1.592409,-0.850145 0.713707,-0.303266 1.154218,-0.591364 1.963531,-0.274032 0.527566,0.544849 0.383108,0.347735 3.316428,1.003344 0.591332,0.554971 0.270842,1.852415 1.430584,2.190096 1.242377,0.328396 2.576174,0.832293 2.817994,2.12968 -0.28927,1.313131 1.484088,1.029432 2.362713,1.646349 1.348147,0.414613 2.827031,0.727432 3.972378,1.618298 1.081215,1.243626 -0.393615,2.509241 -0.986085,3.586147 -0.199155,1.198579 0.158776,2.453321 -0.37975,3.616356 -0.244405,1.315784 -2.678176,0.845466 -2.336828,2.392922 0.160654,1.228809 -0.378954,2.40371 -0.696947,3.579675 -1.011008,0.506647 -0.01889,1.432146 -0.589057,2.157731 -0.972021,0.216798 -0.552556,1.08146 -0.340929,1.676556 -0.31279,0.685466 0.513039,1.169993 0.144569,1.648506 1.503553,0.226643 0.604921,1.789598 1.784449,2.347611 0.550402,0.768442 2.282872,0.249177 1.849177,1.46294 -0.976473,0.952348 -2.502575,0.245193 -3.68756,-0.168303 2.380687,1.232218 4.915775,2.24228 7.575789,3.035927 -0.122982,-0.453216 -0.09357,-0.92046 0.26755,-1.372316 0.484447,0.192566 0.778434,-0.105262 0.914883,0.94077 -0.04386,0.432286 0.161604,0.695157 0.466065,0.891143 0.93141,0.242883 1.873438,0.467096 2.830942,0.660265 0.357401,-0.106422 0.629547,-0.08635 0.981777,0.18125 0.710943,0.129932 1.427931,0.246013 2.151251,0.349552 -0.06982,-0.215981 -0.172829,-0.492361 0.0066,-0.668897 0.651443,0.206315 1.48697,0.06065 1.609665,-0.783256 1.211964,-0.154828 0.995067,-1.618231 1.961377,-2.058474 1.264583,-0.212707 2.557923,-0.197409 3.814872,-0.496278 0.161582,-0.01831 0.320966,-0.02571 0.479011,-0.0259 1.106316,-0.0013 2.135729,0.388922 3.234445,0.450966 0.917546,-0.427176 1.625983,-0.09633 2.606533,0.0043 1.190244,0.148096 4.574878,-1.056231 5.493584,-0.09925 -0.440123,0.828771 1.052691,0.694785 0.873875,1.575143 0.573866,0.643676 1.646199,0.822432 2.997086,0.694788 10.867526,-3.497675 20.856968,-11.344102 24.95847,-21.667927 -0.584185,-0.44143 -1.145391,-0.898286 -1.283851,-1.618296 -0.256646,-1.016784 -0.829408,-1.979826 -1.018443,-3.031612 -0.390134,-1.304438 -0.595474,-2.709736 -1.549257,-3.804079 -0.918816,-0.769888 0.388621,-1.881202 1.117706,-0.886827 0.150556,-0.856398 -1.280094,-1.897643 -0.945088,-2.977667 -0.300549,-1.055821 -0.325759,-2.791786 -1.896637,-2.869782 -0.765575,-0.806997 -0.698128,-2.481731 -2.192259,-2.593592 -0.959969,0.786679 -0.591775,2.196464 -1.292479,3.158918 -0.428911,1.297522 0.156158,2.670602 0.796199,3.84939 0.797967,0.65922 0.222708,2.503104 -0.914872,1.56867 -0.0022,-0.843911 -1.00323,-0.536504 -1.385267,-1.268746 -0.53214,-1.443252 -1.43075,-2.778904 -2.144788,-4.166576 0.04342,-1.330582 -1.767093,-1.179233 -2.185774,-2.192254 -0.870362,-1.232013 -2.529642,-0.501757 -3.79976,-0.571799 -0.916297,-0.0904 -1.823568,0.03082 -2.533177,-0.530802 L 67.765843,37.0572 c -0.03237,-0.02351 -0.09766,-0.09242 -0.207142,-0.172618 -0.0066,0.01005 -0.04784,-0.0027 -0.07115,-0.0043 -0.02353,-0.0017 -0.02917,0.0094 0.03016,0.06473 0.0907,0.129291 0.161217,0.198001 0.183412,0.245981 0.488181,0.344794 1.198684,0.71734 1.620447,1.21696 0.859845,0.179103 1.640577,5.2e-4 2.410184,0.125148 0.691711,0.364995 1.258872,1.204145 0.802684,2.049844 -0.171436,1.124319 -1.347064,1.590597 -2.125366,2.336822 -1.838008,1.201739 -2.659484,1.364751 -4.550652,-0.455281 -0.809191,-0.640799 -1.299262,-1.535705 -1.872908,-2.170677 -0.573634,-0.634969 -1.142397,-1.268062 -1.654982,-1.808178 -0.181214,-0.175116 0.970541,1.201864 1.329156,1.674399 0.358605,0.472534 0.564156,0.850507 0.753047,1.229906 0.05524,0.268316 0.593167,0.939209 1.001187,1.255799 l -0.0044,0.0022 2.140469,1.894488 c 0.636738,0.638785 2.119102,-1.176792 2.966871,-0.258928 0.0285,1.651656 -0.608025,3.336745 -1.888009,4.550654 -1.142309,0.853455 -2.200523,3.673165 -2.841736,4.874312 -0.302692,1.41096 0.828392,2.822892 0.153208,4.222677 -0.238815,1.407946 -2.637908,1.013866 -2.610863,2.470601 0.361311,1.254355 -0.993807,1.572823 -1.616139,2.449024 -0.469688,1.002933 -1.519694,1.657904 -2.442543,2.343296 -1.040615,0.796327 -2.466626,0.137376 -3.605576,0.662422 -1.484463,0.167075 -0.639776,-1.713387 -1.260109,-2.395079 -0.954135,-1.1098 -0.415068,-2.537763 -1.173805,-3.676773 -0.825376,-0.994238 -0.69813,-2.341235 0.168299,-3.275434 0.384091,-1.154529 -0.149883,-2.522789 -0.975292,-3.467473 -1.395386,-0.657659 -0.367807,-1.941835 -0.716369,-2.893516 -0.905548,-0.112713 -1.674272,-0.377492 -2.408019,-0.923509 -1.186653,0.297715 -2.412238,0.707884 -3.741505,0.556694 -1.431435,0.662667 -2.61821,-0.423186 -3.668139,-1.141439 -0.348175,-0.992373 -1.612836,-3.262214 -1.8837,-4.244255 -0.705123,-0.569788 -0.321242,-1.028635 0.222244,-1.495307 0.321705,-1.079293 -0.47435,-2.299444 0.647322,-3.176179 0.5139,-1.105302 1.716937,-1.465371 2.498641,-2.263459 0.180882,-0.971216 1.155279,-1.435048 1.717557,-2.049844 -1.664694,0.150643 -1.12081,-1.341767 -0.897616,-2.256986 -0.503681,-1.887082 2.211891,-0.500871 2.850363,-1.38742 0.05237,-0.757011 -0.09037,-1.587555 -1.603191,-1.424103 -0.118419,0.01279 0.168719,-0.352147 0.0949,-0.431546 0,0 0.640881,-0.178475 0.696947,-0.200669 0.796509,-0.554957 1.350766,-1.015475 2.546114,-0.800517 -0.05623,-0.02865 1.257181,-0.486055 1.158703,-0.992557 1.142043,-0.07774 2.320798,-0.242656 3.426473,-0.14241 0.03137,-0.241837 0.653807,-1.244651 0.0928,-1.570827 -0.04518,-0.04537 -0.469455,-0.238308 -0.494125,-0.496279 0.0044,-0.07696 -0.06142,-0.198856 -0.289137,-0.37976 0.08054,0.385134 0.30171,1.037497 0.213616,1.583774 -0.878647,0.660599 -2.627114,0.814829 -3.389795,0.552379 -0.4598,-0.410405 -1.021901,-1.10536 -0.151031,-2.449024 1.197845,-0.635922 1.273631,-2.124772 2.442542,-2.811522 0.997641,-0.759822 2.177599,0.08733 3.247392,0.01083 1.148539,-0.173457 2.380024,0.006 2.910772,-1.001187 0.414273,-0.566942 -0.359201,-1.03349 -0.761676,-1.583774 0.582605,-0.270809 0.641876,-1.269633 -0.233037,-1.484518 -0.368901,-1.354368 -1.879403,-0.609039 -2.92804,-0.856619 -0.928582,0.05293 -1.122091,-0.882267 -0.08197,-0.860934 1.149766,-0.06298 2.466218,-0.70132 3.325068,-0.785415 -0.885437,-0.333017 0.205942,-1.651683 -1.098279,-1.47157 -0.98086,0.563552 -2.511568,0.695529 -3.06398,-0.431546 -0.483144,-1.054063 1.813195,-0.07518 1.320528,-0.308555 -0.792332,-0.926674 -2.252082,-1.299688 -3.489046,-1.564354 -1.389985,-0.383552 -2.713794,0.467138 -4.075949,0.179091 0.09987,-0.211455 0.09401,-0.357512 0.0475,-0.476859 z m -1.816808,23.842921 -0.21577,0.204983 c 2.451491,-0.642747 5.050622,-1.125401 7.700936,0.213616 0.889772,0.403864 1.922698,0.738861 2.777008,1.104758 0.299466,-0.909606 1.401197,-1.12837 2.317395,-0.712051 1.099797,0.366076 2.337281,0.183632 3.445894,0.0302 0.727903,-0.675349 -0.164122,-0.854407 -0.809146,-0.673212 -0.711133,-0.35006 -1.671554,-0.212199 -2.418813,-0.781099 -0.04673,-0.243452 -0.537365,-0.826952 -0.731471,-1.085338 -0.06562,-0.02109 0.394897,0.669907 0.159672,1.001187 -0.450697,0.355653 -1.040406,0.417423 -1.411152,0.153199 -0.273196,-0.274712 -0.51959,-0.567304 -0.727162,-0.815622 -0.09136,-0.03971 -0.174198,-0.0511 -0.250294,-0.03884 -0.532637,0.08579 -0.734764,1.295962 -1.236379,1.320532 -0.883773,-0.253092 -1.035258,0.187751 -1.065926,-0.847989 1.498129,-0.09969 -0.186659,-1.05441 -0.755201,-1.314058 -0.04607,-0.02564 -0.07789,-0.02942 -0.09711,-0.02158 -0.134493,0.05463 0.305233,0.830044 0.176938,0.97098 -0.121767,0.160881 -0.138073,0.279486 -0.336609,0.444492 l -0.813465,-0.06257 c 0.190173,-0.341336 -0.665065,-1.290952 -0.245986,-1.741288 -0.872195,-0.0018 -1.740192,0.570309 -2.192248,1.204013 -0.170232,0.22541 -0.245002,0.383663 -0.258922,0.500594 l -0.05612,0.0043 c 0,0 -1.949732,0.737944 -2.013156,0.737944 -0.06341,0 -0.940768,0.202827 -0.940768,0.202827 z m 7.064408,-17.089224 c 0.390134,0.01853 0.9041,0.246003 0.677526,0.554536 0.720125,0.63937 -0.378104,0.606832 -0.845825,0.377603 -0.856884,0.543218 -0.596105,-0.613896 -0.146723,-0.876038 0.07059,-0.04514 0.184969,-0.06184 0.315022,-0.0561 z m 3.217176,0.192038 c 1.08295,-0.0846 0.562399,1.970129 1.708928,2.11889 1.292854,0.229152 1.22e-4,1.294219 -0.776788,0.845831 -1.034076,-0.535752 -1.935448,-1.901635 -1.173806,-2.917252 0.08739,-0.02581 0.16947,-0.04173 0.241666,-0.04747 z m -5.111659,0.491962 h 0.0022 c 1.236655,0.09555 1.049852,2.161718 -0.40781,1.903117 -1.483911,-0.110232 -1.446802,-1.768667 -0.0044,-1.898802 l 0.144568,0.0065 c 0.09512,-0.0121 0.182958,-0.01739 0.265396,-0.01083 z m -12.210591,0.06473 c -0.03845,0.02112 -0.02972,0.16061 0.05391,0.03237 -0.02187,-0.0335 -0.0411,-0.039 -0.05391,-0.03237 z m -4.613237,1.402525 c -0.07148,-0.0076 -0.153694,-0.0062 -0.245974,0.0065 -0.464275,0.06325 -0.192748,0.268277 0.07335,0.220088 0.657486,0.31256 0.673096,-0.169225 0.172619,-0.226562 z m -2.89999,0.03452 c -0.08507,0.007 -0.169724,0.02509 -0.252448,0.0259 -1.41441,0.09915 -2.589597,1.233031 -2.509446,2.50081 0.243776,1.481062 1.456148,-0.05924 2.138314,-0.412127 1.178975,-0.418 0.522506,-1.323427 0.873885,-2.084368 -0.07899,-0.03537 -0.165227,-0.03683 -0.250305,-0.0302 z m 2.254833,2.617328 c -0.894975,0.05238 -0.01359,0.629417 0,0 z m 48.81217,0.390549 c -0.184329,0.602866 0.770701,1.431047 1.391741,1.831913 1.090904,0.545169 1.937988,1.382928 2.695002,2.256985 0.687988,0.720583 0.698627,1.760604 1.601037,2.334665 0.167835,0.189897 0.374082,0.397178 0.580429,0.614953 -1.444471,-2.364825 -3.193369,-4.532142 -5.182861,-6.486137 -0.346983,-0.07406 -0.785262,-0.332761 -1.085348,-0.552379 z m -38.798147,0.0302 c 0.219913,-0.01624 0.445306,0.0701 0.651642,0.131622 0.762294,-0.26598 1.966535,0.153002 1.568667,1.078865 -0.804937,0.741141 -2.63688,0.719069 -3.245226,-0.263243 -1.042494,-0.645313 0.592537,-0.280143 0.806993,-0.891143 0.07103,-0.03238 0.144623,-0.05035 0.217924,-0.0561 z m 3.901176,3.055346 c 0.333947,-0.01083 0.698892,0.09332 1.001187,0.312871 -0.227436,0.487411 -0.0033,0.928231 0.312879,1.294638 l -0.151043,0.526487 c -1.138674,0.398272 -1.941413,0.799257 -3.208548,0.936455 -1.013737,-0.56031 0.398497,-1.643583 1.052978,-2.056317 -0.03579,-0.658889 0.435959,-0.996027 0.992547,-1.014134 z m -17.984674,1.527678 c -0.02651,-0.01464 -0.0548,-0.01805 -0.09059,0.0065 -1.155952,0.396399 0.59668,0.646141 0.170453,0.041 -0.02872,-0.007 -0.05336,-0.03278 -0.07987,-0.04747 z m 35.572332,2.449024 c -0.17284,0.233692 0.934768,1.01474 1.402534,1.27306 0.390388,-0.311114 -1.14169,-0.822832 -1.402534,-1.27306 z m -5.737395,0.55022 c -0.124937,0.257725 -0.281061,0.510637 -0.338774,0.78973 0.201939,1.347451 2.270211,-0.589368 3.221496,0.245981 0.876449,0.241324 0.428713,-0.318631 -0.06684,-0.455281 -0.822714,-0.604473 -2.339126,0.60733 -2.81583,-0.58043 z m 30.316104,1.182437 c -2.55e-4,0.176782 -0.02596,0.353393 -0.122993,0.530802 -1.219376,-0.508169 -0.447526,0.842405 -0.71205,1.603194 -0.802076,0.966346 1.567298,2.68397 -0.07115,3.089869 -0.09943,0.679635 1.574147,1.618856 1.590244,2.65185 0.608323,1.385006 0.171049,2.884074 -0.364659,4.226994 -0.443947,0.195291 -0.846267,-1.199752 -1.227739,-1.648505 -0.650626,-1.308679 -0.580429,0.518066 -0.22009,1.037868 0.517015,1.174303 1.601037,2.123235 1.601037,3.463156 0.412726,1.007218 -0.04331,2.020847 0.252448,3.055346 0.90483,1.021095 -0.07104,2.425292 0.686165,3.482577 0.274013,-0.04715 0.472152,-4.96e-4 0.6279,0.101417 0.147607,-0.460038 0.281747,-0.925106 0.405645,-1.393894 -1.076939,-0.169531 -0.791303,-1.706055 -1.048658,-2.522387 -0.177126,-0.967536 -0.108045,-2.029047 0.772469,-2.723056 0.878692,-0.956577 0.05899,-2.462572 1.134973,-3.297012 -0.01293,-0.224434 -0.02685,-0.449643 -0.04529,-0.675369 -0.05822,0.02784 -0.119933,0.0514 -0.196349,0.05394 -0.407766,-0.741482 -0.50325,-1.88472 -0.181257,-2.776999 -0.06662,-0.35028 -0.141586,-0.697455 -0.220079,-1.042183 -0.318524,-0.659151 -0.468484,-1.237385 -0.990405,-1.931169 -0.07811,-0.808287 -1.262594,-2.13081 -0.489805,-2.733843 -0.357776,-0.87105 -0.74643,-1.725431 -1.180279,-2.552595 z m -22.738161,0.18988 c -0.264213,0.02563 -0.109813,0.424308 0.0432,0.548064 0.80717,0.712013 1.104791,-0.467418 0.09711,-0.535117 -0.05601,-0.01339 -0.102522,-0.01659 -0.140249,-0.01295 z m -51.593486,0.776783 -0.138095,0.0086 c -1.051166,0.415435 -1.548053,1.402581 -2.07574,2.250513 -0.344033,0.840582 -1.049929,1.706794 -0.843671,2.613012 0.855613,1.291453 1.115728,-1.024162 2.168519,-0.673212 1.007329,0.550161 1.696587,-0.692003 2.56338,-0.25677 0.314779,0.498778 1.393454,0.396729 0.66027,-0.131622 -0.968486,-0.686924 -0.249675,-1.760077 -0.116519,-2.582803 0.02718,-1.428023 -1.955035,0.224897 -2.10379,-1.171647 z m 42.82879,1.75855 c 0.521545,0.170391 1.068268,0.10988 0.776778,0.632215 -0.672036,-0.0012 -2.44241,-0.255499 -0.776778,-0.632215 z M 8.7495915,38.554678 c -0.606755,2.251033 -0.964597,4.608935 -1.014134,7.070881 1.916534,13.847924 9.0271525,23.015052 18.8909285,28.268425 -0.474461,-0.772263 -1.295738,-1.353035 -1.892329,-2.052002 -0.608567,-1.012388 -1.32382,-1.961995 -2.034743,-2.919409 -0.913171,-1.082622 -1.074399,-2.438744 -1.678713,-3.648721 -0.659176,-1.035705 -0.940779,-2.19935 -1.318374,-3.331536 -0.455801,-1.100767 -0.418405,-2.412768 -1.385267,-3.297012 -1.155731,-0.690513 -2.476458,-1.28031 -2.837416,-2.619485 -0.505415,-1.329735 -1.723488,-2.364345 -2.075729,-3.741504 0.461324,-1.068354 -0.324258,-2.308342 0.502753,-3.307801 0.523953,-0.764311 1.718815,-2.466081 0.450962,-2.910777 -0.754925,0.393452 -1.10731,-0.0692 -1.396049,-0.694789 C 12.061633,44.468179 12.74982,43.205117 11.70568,42.343651 10.912873,41.908567 11.19125,40.931867 10.488723,40.626099 9.3603345,40.260335 8.9411455,39.327034 8.7495915,38.554678 Z m 7.5110605,1.257957 c 0.111747,-0.0017 0.26101,0.02014 0.450962,0.07552 0.156302,0.05971 0.300848,0.133313 0.405656,0.250297 0.23148,0.427244 0.564322,0.630638 0.07987,0.744417 -0.728389,0.162984 -1.718638,-1.058789 -0.936448,-1.070234 z m 54.394213,2.975517 c 0.01922,-0.0015 0.03436,0.01437 0.04099,0.05825 -0.17232,0.09415 -0.09888,-0.05361 -0.04099,-0.05825 z m 18.847778,7.459273 c -0.05756,0.0063 -0.104068,0.06287 0.03016,0.151042 0.09545,-0.113251 0.02718,-0.157228 -0.03016,-0.151042 z M 69.159565,56.41206 c 1.007881,0.04765 0.699898,1.331921 0.813467,1.937643 -0.530991,0.865598 -1.026232,1.744959 -1.519042,2.628115 -0.442246,0.867653 -0.943508,2.246275 -2.343302,1.762866 -1.132244,-0.917718 0.05126,-2.276346 0.340928,-3.312116 -0.558356,-1.452331 2.324698,-1.175005 1.74776,-2.485706 0.445185,0.415659 0.780843,-0.237304 0.960189,-0.530802 z m -0.660269,14.950913 c 0.521037,0.04757 0.613283,0.725883 0.472549,1.078866 -1.082066,0.953394 -1.818608,-0.882591 -0.472549,-1.078866 z m -37.950157,0.239509 c 0.432546,0.240214 0.765299,-0.04507 0.617107,0.822095 -0.682089,1.391189 -2.150599,-0.788422 -0.617107,-0.822095 z"
     id="path1223-9-6" />
</svg>
