<?xml version="1.0" encoding="UTF-8" standalone="no"?>
<svg
   xmlns:dc="http://purl.org/dc/elements/1.1/"
   xmlns:cc="http://creativecommons.org/ns#"
   xmlns:rdf="http://www.w3.org/1999/02/22-rdf-syntax-ns#"
   xmlns:svg="http://www.w3.org/2000/svg"
   xmlns="http://www.w3.org/2000/svg"
   xmlns:sodipodi="http://sodipodi.sourceforge.net/DTD/sodipodi-0.dtd"
   xmlns:inkscape="http://www.inkscape.org/namespaces/inkscape"
   version="1.1"
   width="100"
   height="100"
   id="svg4460"
   sodipodi:docname="uEA6D-story-maps.svg"
   inkscape:version="0.92.4 (5da689c313, 2019-01-14)">
  <sodipodi:namedview
     pagecolor="#ffffff"
     bordercolor="#666666"
     borderopacity="1"
     objecttolerance="10"
     gridtolerance="10"
     guidetolerance="10"
     inkscape:pageopacity="0"
     inkscape:pageshadow="2"
     inkscape:window-width="1920"
     inkscape:window-height="1177"
     id="namedview11"
     showgrid="false"
     inkscape:zoom="2"
     inkscape:cx="-225.30156"
     inkscape:cy="-6.1380603"
     inkscape:window-x="1272"
     inkscape:window-y="-8"
     inkscape:window-maximized="1"
     inkscape:current-layer="svg4460"
     inkscape:document-rotation="0" />
  <defs
     id="defs4462" />
  <metadata
     id="metadata4465">
    <rdf:RDF>
      <cc:Work
         rdf:about="">
        <dc:format>image/svg+xml</dc:format>
        <dc:type
           rdf:resource="http://purl.org/dc/dcmitype/StillImage" />
        <dc:title></dc:title>
      </cc:Work>
    </rdf:RDF>
  </metadata>
  <path
     style="color:#000000;font-style:normal;font-variant:normal;font-weight:normal;font-stretch:normal;font-size:medium;line-height:normal;font-family:sans-serif;font-variant-ligatures:normal;font-variant-position:normal;font-variant-caps:normal;font-variant-numeric:normal;font-variant-alternates:normal;font-feature-settings:normal;text-indent:0;text-align:start;text-decoration:none;text-decoration-line:none;text-decoration-style:solid;text-decoration-color:#000000;letter-spacing:normal;word-spacing:normal;text-transform:none;writing-mode:lr-tb;direction:ltr;text-orientation:mixed;dominant-baseline:auto;baseline-shift:baseline;text-anchor:start;white-space:normal;shape-padding:0;clip-rule:nonzero;display:inline;overflow:visible;visibility:visible;opacity:1;isolation:auto;mix-blend-mode:normal;color-interpolation:sRGB;color-interpolation-filters:linearRGB;solid-color:#000000;solid-opacity:1;vector-effect:none;fill:#000080;fill-opacity:1;fill-rule:nonzero;stroke:none;stroke-width:4.41903114;stroke-linecap:round;stroke-linejoin:round;stroke-miterlimit:4;stroke-dasharray:none;stroke-dashoffset:4;stroke-opacity:1;paint-order:normal;color-rendering:auto;image-rendering:auto;shape-rendering:auto;text-rendering:auto;enable-background:accumulate"
     d="m 40,9.1547201 c -21.855784,0 -40,14.7127009 -40,33.3710939 0,11.07392 6.4017602,20.74707 16.167969,26.789062 -0.660384,3.616868 -3.854731,6.739946 -6.8945315,9.958984 a 2.2097366,2.2097366 0 0 0 1.8789065,3.707032 c 7.163535,-0.894564 13.757801,-4.752788 18.642578,-8.185547 3.264447,0.719778 6.686783,1.101562 10.205078,1.101562 21.855784,0 40,-14.712703 40,-33.371093 C 80,23.867422 61.855784,9.1547201 40,9.1547201 Z m 0,4.4199219 c 19.886462,0 35.580078,13.189006 35.580078,28.951172 0,15.762164 -15.693616,28.953124 -35.580078,28.953124 -1.908216,0 -3.777791,-0.124386 -5.597656,-0.359374 -0.200804,-0.02578 -0.398117,-0.05542 -0.597656,-0.08398 -0.286586,-0.04113 -0.575326,-0.08226 -0.859376,-0.128906 -0.213152,-0.03504 -0.423117,-0.07512 -0.634765,-0.113281 -0.240912,-0.04334 -0.481731,-0.08556 -0.720703,-0.132813 -0.262306,-0.05203 -0.523292,-0.10931 -0.783203,-0.166015 -0.21308,-0.04634 -0.427238,-0.09118 -0.638672,-0.140626 -0.450783,-0.105406 -0.896787,-0.216764 -1.339844,-0.335937 -0.710433,0.50885 -1.465509,1.029939 -2.255859,1.554687 -0.0047,0.0031 -0.009,0.0065 -0.01367,0.0098 -0.627375,0.416357 -1.292235,0.833411 -1.960938,1.248047 -2.184174,1.356984 -4.545983,2.669631 -7.011718,3.710937 1.102478,-1.50967 2.045167,-3.17227 2.601562,-5.029296 0.08367,-0.279261 0.153903,-0.565065 0.21875,-0.853516 0.02336,-0.102458 0.04746,-0.204977 0.06836,-0.308594 0.04803,-0.242727 0.08953,-0.48889 0.123047,-0.738281 0.0255,-0.183808 0.04344,-0.371044 0.06055,-0.558594 0.01602,-0.18369 0.03533,-0.365405 0.04297,-0.552734 0.01778,-0.40464 0.01954,-0.81541 -0.0059,-1.238281 A 2.2097366,2.2097366 0 0 0 20.625,66.803157 c -0.0011,-6.07e-4 -0.0028,-0.0013 -0.0039,-0.002 -0.0082,-0.0044 -0.0152,-0.0093 -0.02344,-0.01367 -0.534495,-0.284334 -1.056557,-0.584087 -1.570312,-0.890625 -0.185185,-0.11071 -0.366406,-0.22636 -0.548828,-0.339843 C 9.9023203,60.229868 4.4199219,51.832736 4.4199219,42.525814 4.4199219,26.763647 20.113537,13.574642 40,13.574642 Z m -1.638672,1.730468 c -0.277284,0.0026 -0.555819,0.01575 -0.833984,0.02539 0.03725,0.09548 0.04275,0.213648 -0.03711,0.382813 1.089725,0.230436 2.147773,-0.451373 3.259766,-0.144532 0.989564,0.211733 2.157151,0.510613 2.791016,1.251953 0.39414,0.186696 -1.443163,-0.597157 -1.056641,0.246094 0.441926,0.90166 1.66648,0.796544 2.451172,0.345703 1.04338,-0.144091 0.170555,0.911321 0.878906,1.177735 -0.687085,0.06727 -1.740341,0.578521 -2.660156,0.628906 -0.832061,-0.01706 -0.676451,0.729839 0.06641,0.6875 0.838916,0.198064 2.046682,-0.397948 2.341797,0.685547 0.699937,0.171908 0.653579,0.970852 0.1875,1.1875 0.321973,0.440227 0.938842,0.814024 0.607422,1.267578 -0.424592,0.80575 -1.409293,0.662015 -2.328125,0.800781 -0.855837,0.06126 -1.79954,-0.617555 -2.597656,-0.0098 -0.93513,0.549399 -0.994852,1.741261 -1.953125,2.25 -0.69669,1.07493 -0.246746,1.63066 0.121093,1.958984 0.610142,0.20996 2.008021,0.08708 2.710938,-0.441406 0.07047,-0.437021 -0.107449,-0.959472 -0.171875,-1.267578 0.182171,0.144722 0.236002,0.243117 0.232422,0.304687 0.01974,0.206377 0.358424,0.360188 0.394531,0.396484 0.448828,0.260941 -0.04908,1.06239 -0.07422,1.25586 -0.884545,-0.0802 -1.826602,0.05304 -2.740234,0.115234 0.07878,0.405201 -0.972739,0.770051 -0.927734,0.792969 -0.956281,-0.171967 -1.399897,0.196659 -2.03711,0.640625 -0.04486,0.01775 -0.55664,0.160156 -0.55664,0.160156 0.05898,0.06352 -0.17091,0.355939 -0.07617,0.345703 1.21022,-0.130761 1.325098,0.535016 1.283203,1.140625 -0.510778,0.709239 -2.684199,-0.400291 -2.28125,1.109375 -0.178556,0.732175 -0.613009,1.925201 0.71875,1.804688 h 0.002 c 0,0 0.701209,-0.16211 0.751953,-0.16211 0.05074,0 1.611327,-0.589843 1.611328,-0.589843 l 0.04492,-0.0039 c 0.01114,-0.09354 0.07084,-0.220062 0.207031,-0.40039 0.361645,-0.506964 1.05615,-0.964331 1.753906,-0.962891 -0.335264,0.36027 0.347451,1.11951 0.195313,1.392578 l 0.652344,0.05078 c 0.158824,-0.132004 0.170167,-0.226762 0.267578,-0.355468 0.102636,-0.112749 -0.248222,-0.733643 -0.140625,-0.777344 0.01538,-0.0062 0.04127,-0.003 0.07813,0.01758 0.454833,0.207718 1.802011,0.97103 0.603515,1.050781 0.02454,0.828592 0.146493,0.475261 0.853516,0.677735 0.401295,-0.01966 0.562171,-0.98606 0.988281,-1.054688 0.06088,-0.0098 0.128068,-0.0025 0.201172,0.0293 0.166058,0.198655 0.361526,0.434528 0.580078,0.654297 0.296609,0.21138 0.768344,0.161476 1.128907,-0.123047 0.188183,-0.265023 -0.179495,-0.817648 -0.126954,-0.800781 0.155283,0.20671 0.548589,0.672425 0.585938,0.867187 0.597804,0.455119 1.364689,0.344952 1.933594,0.625 0.516015,-0.144957 1.23076,-0.0012 0.648437,0.539063 -0.886892,0.12274 -1.877974,0.269417 -2.757812,-0.02344 -0.732959,-0.333055 -1.613942,-0.159325 -1.853516,0.56836 -0.683449,-0.292718 -1.50888,-0.559722 -2.220703,-0.882813 -2.120247,-1.071213 -4.200923,-0.686072 -6.162109,-0.171875 l 0.173828,-0.164062 c -0.449824,0.491836 -1.230292,0.863653 -1.375,1.640625 -0.625373,0.638471 -1.586921,0.926304 -1.998047,1.810547 -0.897335,0.701388 -0.260211,1.67758 -0.517578,2.541015 -0.434787,0.373337 -0.741834,0.739483 -0.177735,1.195313 0.216694,0.785634 1.227326,2.602585 1.50586,3.396484 0.839942,0.574601 1.790405,1.442244 2.935547,0.91211 1.06342,0.12095 2.042864,-0.207141 2.992187,-0.445313 0.587002,0.436814 1.203297,0.650063 1.927735,0.740234 0.278849,0.761344 -0.544047,1.788327 0.572265,2.314453 0.660325,0.755748 1.086565,1.849817 0.779297,2.773438 -0.693149,0.747361 -0.793118,1.825703 -0.132812,2.621094 0.606993,0.911207 0.174195,2.053566 0.9375,2.941406 0.496265,0.545353 -0.179758,2.049676 1.007812,1.916016 0.911153,-0.420038 2.05228,0.105812 2.884766,-0.53125 0.738284,-0.548313 1.579323,-1.070701 1.955078,-1.873047 0.497858,-0.700961 1.582011,-0.955503 1.292968,-1.958985 -0.02164,-1.165388 1.896844,-0.850206 2.087891,-1.976562 0.540151,-1.119829 -0.365203,-2.250138 -0.123047,-3.378906 0.512966,-0.960919 1.359588,-3.217626 2.273438,-3.900391 1.023982,-0.971127 1.534537,-2.317347 1.511718,-3.638672 -0.678215,-0.734291 -1.865605,0.718059 -2.375,0.207031 l -1.710937,-1.515625 0.002,-0.002 c -0.326415,-0.253271 -0.756591,-0.791206 -0.800781,-1.005859 -0.151109,-0.303518 -0.314677,-0.604393 -0.601563,-0.982422 -0.286887,-0.378027 -1.207475,-1.479937 -1.0625,-1.339844 0.410064,0.432092 0.863355,0.937338 1.322266,1.445313 0.458916,0.507977 0.852642,1.223688 1.5,1.736328 1.512934,1.456025 2.16826,1.326626 3.638672,0.365234 0.622643,-0.59698 1.564022,-0.969686 1.701172,-1.86914 0.364952,-0.676559 -0.08921,-1.348629 -0.642578,-1.640625 -0.615687,-0.0997 -1.239859,0.04368 -1.927735,-0.09961 -0.337409,-0.399696 -0.906332,-0.698774 -1.296875,-0.974609 -0.01775,-0.03838 -0.07394,-0.09188 -0.146484,-0.195313 -0.04747,-0.04422 -0.04226,-0.05404 -0.02344,-0.05273 0.01874,0.0014 0.05092,0.012 0.05664,0.0039 0.08758,0.06415 0.140089,0.119867 0.166016,0.138672 l 1.015625,0.582031 c 0.567686,0.449297 1.292355,0.353463 2.02539,0.425782 1.016097,0.05603 2.342767,-0.528579 3.039063,0.457031 0.334939,0.810418 1.78475,0.689441 1.75,1.753906 0.571229,1.110138 1.289139,2.179382 1.714843,3.333985 0.30563,0.585793 1.107927,0.338541 1.109376,1.013671 0.91006,0.747547 1.368844,-0.726531 0.730468,-1.253906 -0.512028,-0.943031 -0.979849,-2.042061 -0.636718,-3.080078 0.560562,-0.769963 0.267189,-1.898001 1.035156,-2.527344 1.195304,0.08949 1.141443,1.428621 1.753906,2.074219 1.256706,0.06238 1.277144,1.452217 1.517578,2.296875 -0.268007,0.864018 0.876309,1.697695 0.75586,2.382813 -0.583269,-0.7955 -1.629586,0.09307 -0.894532,0.708984 0.763031,0.875475 0.926175,1.999419 1.238282,3.042969 0.151221,0.841429 0.611087,1.612355 0.816406,2.425781 0.110766,0.576009 0.558048,0.941778 1.02539,1.294922 0.07553,-0.19012 0.158035,-0.378116 0.228516,-0.570313 0.106671,-0.290882 0.198146,-0.589228 0.292969,-0.884765 -0.124625,-0.08146 -0.282743,-0.117801 -0.501953,-0.08008 -0.605781,-0.845828 0.175032,-1.970235 -0.548828,-2.78711 -0.23658,-0.827599 0.129007,-1.637585 -0.201172,-2.443359 0,-1.071938 -0.867643,-1.832043 -1.28125,-2.771485 -0.288274,-0.415842 -0.344722,-1.87702 0.175781,-0.830078 0.30518,0.359004 0.627261,1.476547 0.982422,1.320313 0.428563,-1.074335 0.777673,-2.274808 0.291015,-3.382813 -0.01288,-0.826396 -1.351026,-1.577385 -1.271484,-2.121094 1.310855,-0.324719 -0.585014,-1.699579 0.05664,-2.472656 0.211619,-0.60863 -0.405189,-1.687785 0.570312,-1.28125 0.07759,-0.141927 0.09746,-0.284355 0.09766,-0.425781 -0.207101,-0.394845 -0.422836,-0.783881 -0.65039,-1.166016 -0.04808,-0.08074 -0.101423,-0.15811 -0.150391,-0.238281 l -0.002,-0.002 c -0.164468,-0.173481 -0.32911,-0.338864 -0.462891,-0.490234 -0.721933,-0.459249 -0.730859,-1.290723 -1.28125,-1.867188 -0.605607,-0.699246 -1.281576,-1.370506 -2.154296,-1.806641 -0.496837,-0.320692 -1.260741,-0.982551 -1.113282,-1.464843 0.240074,0.175695 0.5896,0.382155 0.867188,0.441406 -0.02933,-0.0288 -0.05649,-0.05919 -0.08594,-0.08789 -6.783055,-6.606503 -16.965543,-10.160962 -26.242187,-9.916015 -0.486021,-0.01799 -0.973186,-0.02592 -1.462891,-0.02148 z m -3.037109,0.169922 C 22.889307,16.722555 10.264376,24.80976 7,36.920345 v 0.002 c 0.1534336,0.617589 0.4886758,1.361934 1.390625,1.654297 0.5620232,0.244616 0.3403614,1.026932 0.9746094,1.375 0.8353096,0.689173 0.2840285,1.699661 1.0039066,2.421875 0.230987,0.500474 0.513241,0.871403 1.117187,0.55664 1.014283,0.355757 0.05782,1.716677 -0.361328,2.328125 -0.661611,0.799566 -0.03328,1.791801 -0.402344,2.646485 0.281792,1.101726 1.255825,1.928399 1.660156,2.992187 0.288756,1.071339 1.346899,1.543293 2.271485,2.095703 0.773493,0.707396 0.742779,1.758058 1.107422,2.638672 0.302071,0.905748 0.527347,1.835499 1.054687,2.664063 0.483443,0.967982 0.61321,2.053824 1.34375,2.919922 0.568732,0.765931 1.140093,1.526027 1.626953,2.335937 0.477268,0.559174 1.134099,1.022815 1.513672,1.640625 0.10644,0.05669 0.215027,0.11242 0.322266,0.167969 0.003,0.0015 0.0048,0.0023 0.0078,0.0039 0.947993,0.330796 2.168038,0.896645 2.949219,0.134766 0.346956,-0.97101 -1.038198,-0.555167 -1.478516,-1.169922 -0.943621,-0.446409 -0.22489,-1.695638 -1.427734,-1.876953 0.294783,-0.382811 -0.365464,-0.77194 -0.115234,-1.320313 -0.169302,-0.476076 -0.504183,-1.166404 0.273437,-1.339844 0.456108,-0.580467 -0.338112,-1.321244 0.470703,-1.726562 0.254395,-0.940772 0.685158,-1.880234 0.556641,-2.863281 -0.273083,-1.237965 1.673619,-0.863388 1.869141,-1.916016 0.430818,-0.930428 0.145368,-1.933714 0.304687,-2.892578 0.473967,-0.861524 1.65404,-1.874241 0.789063,-2.869141 C 24.905995,46.811167 23.723045,46.560629 22.644531,46.228938 21.941629,45.735406 20.522492,45.963037 20.753906,44.912532 20.56045,43.874622 19.493905,43.472124 18.5,43.209407 c -0.927795,-0.270145 -0.671464,-1.307976 -1.144531,-1.751953 -2.346661,-0.524487 -2.23225,-0.366855 -2.654297,-0.802734 -0.647452,-0.253865 -0.999346,-0.02386 -1.570313,0.21875 -0.218357,0.43404 -0.726439,0.647147 -1.273437,0.679687 -1.325231,0.270184 -0.550145,-1.429866 -0.277344,-1.996093 0.293446,-0.709877 -0.896156,-1.059124 -1,-1.13086 0.374953,-0.805585 0.849897,-2.25342 2.150391,-1.640625 0.443339,0.195203 0.363893,0.567876 0.232422,0.833985 1.210678,0.182214 1.124467,1.025119 1.873047,1.542968 0.457667,-0.552991 2.25442,0.615047 1.822265,-0.574218 -0.807411,-0.602784 -1.890637,-0.805693 -2.541015,-1.63086 -0.31391,-0.874691 1.270882,-1.528969 0.642578,-2.46289 -0.273827,-0.49033 -0.516662,0.317935 -0.28125,-0.371094 0.09296,-1.063763 1.196274,-1.589504 2.214843,-1.820313 0.815921,-0.595052 1.267517,-1.699418 2.490235,-1.732422 0.89525,0.08164 1.027117,-1.310644 1.824218,-0.464843 0.71158,-0.02959 1.823483,-0.04634 2.302735,-0.634766 0.209221,0.0409 1.495862,0.981725 1.875,0.06836 0.330566,-0.516992 -0.251197,-1.257879 0.525391,-1.585937 0.266937,-0.940298 -0.09013,-1.977842 0.728515,-2.783203 0.576352,-0.790657 1.651267,-1.007031 2.552735,-1.375 0.461462,-0.322056 -0.09167,-0.734212 0.53125,-1.023438 0.55196,-0.585454 0.752245,-1.602628 1.720703,-1.679687 0.584211,-0.334377 0.278953,0.137123 0.449218,0.300781 0.633989,0.847288 -1.094184,1.164574 -1.408203,1.849609 -0.853815,0.681119 -1.827093,1.590035 -1.605468,2.701172 0.541111,1.308573 1.796371,-0.03226 2.439453,-0.517578 1.335662,-0.432525 2.748252,-0.625735 4.099609,-1.003906 0.558423,-0.265675 0.251697,-0.841616 0.892578,-1.140625 0.568699,-0.55913 0.651236,-1.406577 1.498047,-1.613281 0.196991,-1.051608 -1.258961,-1.267346 -2.126953,-1.28711 -0.228508,-0.954032 -1.433705,-0.85691 -2.228516,-1.208984 0.728485,-0.29062 -0.854995,-0.268631 -0.351562,-0.632813 -0.496674,-0.05013 -1.014173,-0.729228 -1.492188,-0.271484 -0.183743,-0.240258 -1.969651,-0.0013 -1.25,-0.849609 1.576589,-0.944333 3.730213,-0.711064 5.146485,-1.914063 0.0097,-0.0087 0.0094,-0.02013 0.01758,-0.0293 z m 6.40039,5.259766 c -0.104038,-0.0046 -0.195504,0.0088 -0.251953,0.04492 -0.359507,0.209714 -0.56832,1.133792 0.117188,0.699218 0.374178,0.183383 1.253839,0.210715 0.677734,-0.300781 0.181248,-0.246826 -0.230863,-0.428541 -0.542969,-0.443359 z m 2.574219,0.152344 c -0.05776,0.0046 -0.123439,0.01841 -0.193359,0.03906 -0.609309,0.812493 0.112195,1.905383 0.939453,2.333984 0.62153,0.358711 1.655378,-0.494413 0.621094,-0.677734 -0.917224,-0.11901 -0.500828,-1.762992 -1.367188,-1.695312 z m -4.089844,0.394531 c -0.06595,-0.0053 -0.134828,-0.0019 -0.210937,0.0078 l -0.117188,-0.0039 c -1.154084,0.104107 -1.183173,1.429395 0.0039,1.517578 1.166126,0.206879 1.315489,-1.445043 0.326172,-1.521484 z m -9.767578,0.05078 c 0.01026,-0.0053 0.02543,-0.0014 0.04297,0.02539 -0.06697,0.102597 -0.07375,-0.0085 -0.04297,-0.02539 z M 26.75,22.455501 c 0.400381,0.04587 0.389273,0.431688 -0.136719,0.181641 -0.212885,0.03855 -0.430007,-0.127137 -0.05859,-0.177735 0.07382,-0.01014 0.138115,-0.01 0.195312,-0.0039 z m -2.318359,0.02734 c 0.06806,-0.0053 0.136008,-0.0049 0.199218,0.02344 -0.281103,0.608752 0.243962,1.333569 -0.699218,1.667969 -0.545737,0.282315 -1.515915,1.514928 -1.710938,0.330078 -0.06412,-1.014223 0.876283,-1.922631 2.007813,-2.001953 0.06618,-6.48e-4 0.13506,-0.01398 0.203125,-0.01953 z m 1.802734,2.09375 c -0.01086,0.503534 -0.715986,0.0419 0,0 z m 8.011719,0.335937 c -0.05864,0.0046 -0.116978,0.01902 -0.173828,0.04492 -0.171565,0.488798 -1.480478,0.19664 -0.646485,0.712891 0.486676,0.78585 1.95175,0.803851 2.595703,0.210937 0.318291,-0.74069 -0.644071,-1.076065 -1.253906,-0.863281 -0.165072,-0.04922 -0.345547,-0.11846 -0.521484,-0.105469 z m 3.121094,2.445313 c -0.445268,0.01449 -0.82354,0.283437 -0.794922,0.810547 -0.52358,0.330188 -1.652786,1.196283 -0.841797,1.644531 1.013703,-0.109759 1.655471,-0.42943 2.566406,-0.748047 l 0.121094,-0.421875 c -0.252962,-0.293127 -0.431945,-0.645228 -0.25,-1.035156 -0.241829,-0.175642 -0.533623,-0.25869 -0.800781,-0.25 z m -14.388672,1.220703 c 0.02118,0.01175 0.04151,0.03353 0.06445,0.03906 0.340984,0.484114 -1.061479,0.283919 -0.136719,-0.0332 0.02869,-0.01958 0.05107,-0.01755 0.07227,-0.0059 z M 81.3125,29.596126 c 1.877483,4.290621 2.874959,9.018751 2.708984,14.083984 C 83.266556,63.662909 64.386797,77.830189 45.546875,79.71136 51.133947,82.826921 57.839279,84.631282 65,84.631282 c 3.078508,0 6.073294,-0.335038 8.929688,-0.964844 4.274173,3.003665 10.044402,6.381319 16.3125,7.164063 a 1.9335195,1.9335195 0 0 0 1.644531,-3.246094 C 89.226895,84.767749 86.431349,82.034321 85.853516,78.869564 94.39895,73.58282 100,65.11979 100,55.43011 100,44.111315 92.366212,34.456381 81.3125,29.596126 Z m -29.875,0.943359 c 0.208678,0.360183 1.433406,0.768687 1.121094,1.017579 C 52.184385,31.350407 51.29923,30.726439 51.4375,30.539485 Z m -4.589844,0.439453 c 0.381363,0.950207 1.593784,-0.01873 2.251953,0.464844 0.396434,0.10932 0.753897,0.55634 0.05273,0.363282 -0.761034,-0.668279 -2.414632,0.880695 -2.576172,-0.197266 0.04617,-0.223274 0.171538,-0.424681 0.271484,-0.63086 z m 6.0625,1.097657 c 0.03018,-0.0029 0.06651,-9.45e-4 0.111328,0.0098 0.806162,0.05416 0.567611,0.999298 -0.07813,0.429688 -0.1224,-0.099 -0.244582,-0.418945 -0.0332,-0.439453 z m -41.27539,0.621093 0.0918,0.04492 c 0.119003,1.117236 1.703394,-0.204918 1.681641,0.9375 -0.106532,0.658181 -0.681034,1.516868 0.09375,2.066407 0.586545,0.422681 -0.275521,0.504491 -0.527344,0.105468 -0.693433,-0.348185 -1.244921,0.645209 -2.050781,0.205079 -0.842232,-0.28076 -1.0518392,1.572225 -1.736328,0.539062 -0.1650096,-0.724974 0.4005596,-1.417379 0.6757812,-2.089844 0.4221518,-0.678346 0.8192258,-1.468433 1.6601568,-1.800781 z m 60.410156,1.269532 c -0.618237,0.482426 0.328122,1.540871 0.390625,2.1875 0.417536,0.555028 0.538152,1.0176 0.792969,1.544922 -0.02652,-0.116467 -0.04603,-0.237842 -0.07422,-0.353516 -0.285023,-1.169654 -0.663052,-2.292298 -1.109375,-3.378906 z m -26.146484,0.138672 c -1.332507,0.301373 0.08346,0.502913 0.621093,0.503906 0.233188,-0.417867 -0.203859,-0.367594 -0.621093,-0.503906 z m -32.890626,3.820312 c -0.625752,0.0092 0.167292,0.98781 0.75,0.857422 0.387628,-0.09102 0.120733,-0.253908 -0.06445,-0.595703 -0.08385,-0.09359 -0.199182,-0.153402 -0.324218,-0.201172 -0.151968,-0.0443 -0.271934,-0.06186 -0.361329,-0.06055 z m 60.396485,0.605469 c -0.257591,0.713822 -0.181682,1.629474 0.144531,2.222656 0.06114,-0.002 0.111597,-0.02071 0.158203,-0.04297 -0.01212,-0.148302 -0.01611,-0.294372 -0.03125,-0.443359 -0.06793,-0.588412 -0.162983,-1.166085 -0.271484,-1.736328 z m -16.880859,1.775391 c -0.04632,0.0037 -0.104653,0.122206 0.0332,0.04687 -0.0053,-0.0351 -0.0178,-0.04813 -0.0332,-0.04687 z m 17.21875,0.943359 c -0.860732,0.667551 -0.205247,1.873408 -0.908204,2.638672 -0.704409,0.555207 -0.758885,1.403706 -0.617187,2.177734 0.205883,0.653066 -0.02366,1.881954 0.837891,2.017578 0.05886,-0.222696 0.125748,-0.442873 0.177734,-0.667969 0.45489,-1.969636 0.632356,-4.031838 0.509766,-6.166015 z m -2.140626,5.023437 c 0.04594,-0.005 0.101762,0.03049 0.02539,0.121094 -0.107421,-0.07054 -0.07141,-0.116076 -0.02539,-0.121094 z m -16.273437,4.931641 c -0.143481,0.234798 -0.413387,0.758306 -0.769531,0.425781 0.461547,1.048559 -1.843167,0.826417 -1.396485,1.988282 -0.23168,0.828614 -1.179226,1.916215 -0.273437,2.65039 1.119837,0.386727 1.521201,-0.716034 1.875,-1.410156 0.394245,-0.706525 0.790052,-1.411038 1.214844,-2.103516 -0.09086,-0.484578 0.155916,-1.512664 -0.650391,-1.550781 z m -0.529297,11.960937 c -1.076844,0.15702 -0.486746,1.625997 0.378906,0.863282 0.112585,-0.282387 0.03793,-0.825229 -0.378906,-0.863282 z m -30.359375,0.191407 c -1.226795,0.02694 -0.05153,1.771154 0.494141,0.658203 0.118555,-0.693736 -0.148107,-0.466032 -0.494141,-0.658203 z m 23.84375,2.521484 c -1.116509,-0.05771 -2.817103,0.461905 -3.53125,0.373047 -0.784439,-0.08053 -1.351898,-0.345699 -2.085937,-0.0039 -0.87897,-0.04963 -1.702833,-0.362382 -2.587891,-0.361328 -0.126437,1.5e-4 -0.253554,0.0069 -0.382813,0.02148 -1.005564,0.239095 -2.041066,0.226319 -3.052734,0.396484 -0.773045,0.352194 -0.598786,1.522622 -1.568359,1.646485 -0.09815,0.675123 -0.765952,0.792005 -1.28711,0.626953 -0.143317,0.141229 -0.06165,0.362372 -0.0059,0.535156 3.577448,0.512094 7.333,0.631347 11.169922,0.373047 2.427588,-0.209148 4.88461,-0.723555 7.291016,-1.498047 -1.080714,0.102113 -1.937388,-0.04171 -2.396485,-0.55664 0.143055,-0.704287 -1.051325,-0.596748 -0.699219,-1.259766 -0.183742,-0.191394 -0.49111,-0.273733 -0.863281,-0.292969 z M 27.90625,66.695735 c -0.289074,0.361673 -0.313416,0.734908 -0.214844,1.097657 0.152681,0.04555 0.301394,0.09488 0.455078,0.138672 0.284761,0.08114 0.575172,0.153386 0.863282,0.228515 -0.243577,-0.156788 -0.408107,-0.367062 -0.373047,-0.712891 -0.109166,-0.836827 -0.342917,-0.5979 -0.730469,-0.751953 z m 3.566406,1.9375 c -0.05917,0.0081 -0.130897,0.03687 -0.197265,0.05664 0.01223,0.0025 0.02292,0.0053 0.03516,0.0078 0.247629,0.04973 0.500342,0.09109 0.75,0.136719 -0.216375,-0.164388 -0.39214,-0.228135 -0.587891,-0.201172 z"
     id="path823-6"
     inkscape:connector-curvature="0" />
</svg>
