<?xml version="1.0" encoding="UTF-8" standalone="no"?>
<svg
   xmlns:dc="http://purl.org/dc/elements/1.1/"
   xmlns:cc="http://creativecommons.org/ns#"
   xmlns:rdf="http://www.w3.org/1999/02/22-rdf-syntax-ns#"
   xmlns:svg="http://www.w3.org/2000/svg"
   xmlns="http://www.w3.org/2000/svg"
   xmlns:sodipodi="http://sodipodi.sourceforge.net/DTD/sodipodi-0.dtd"
   xmlns:inkscape="http://www.inkscape.org/namespaces/inkscape"
   version="1.1"
   width="100"
   height="100"
   id="svg4460"
   sodipodi:docname="uEB4C-map-users.svg"
   inkscape:version="1.0 (4035a4fb49, 2020-05-01)">
  <sodipodi:namedview
     pagecolor="#ffffff"
     bordercolor="#666666"
     borderopacity="1"
     objecttolerance="10"
     gridtolerance="10"
     guidetolerance="10"
     inkscape:pageopacity="0"
     inkscape:pageshadow="2"
     inkscape:window-width="1920"
     inkscape:window-height="1017"
     id="namedview11"
     showgrid="false"
     inkscape:zoom="5.6568543"
     inkscape:cx="34.814505"
     inkscape:cy="68.382287"
     inkscape:window-x="-8"
     inkscape:window-y="-8"
     inkscape:window-maximized="1"
     inkscape:current-layer="svg4460"
     inkscape:document-rotation="0" />
  <defs
     id="defs4462" />
  <metadata
     id="metadata4465">
    <rdf:RDF>
      <cc:Work
         rdf:about="">
        <dc:format>image/svg+xml</dc:format>
        <dc:type
           rdf:resource="http://purl.org/dc/dcmitype/StillImage" />
        <dc:title />
      </cc:Work>
    </rdf:RDF>
  </metadata>
  <path
     d="M 2.5234375 5 A 2.50025 2.50025 0 0 0 0 7.5 L 0 77.789062 A 2.50025 2.50025 0 0 0 1.4472656 80.056641 L 20.349609 88.837891 C 20.379053 87.058096 20.496343 85.273616 20.765625 83.517578 L 5 76.193359 L 5 11.417969 L 32.275391 24.087891 L 32.390625 44.244141 C 33.287698 43.336218 34.292815 42.540828 35.376953 41.869141 L 35.277344 24.451172 L 63.953125 11.128906 L 64.107422 37.972656 C 65.039518 37.226504 66.043942 36.571863 67.095703 36.007812 L 66.951172 10.775391 L 95 23.804688 L 95 52.636719 C 95.002854 52.858169 95.005448 53.079667 95 53.300781 L 95 71.199219 C 96.465774 72.308182 97.790636 73.598288 98.888672 75.083984 C 99.289625 75.620312 99.655451 76.174059 100 76.740234 L 100 22.210938 A 2.50025 2.50025 0 0 0 98.552734 19.943359 L 66.886719 5.2324219 A 2.50025 2.50025 0 0 0 65.808594 5 A 2.50025 2.50025 0 0 0 64.779297 5.2324219 L 34.166016 19.453125 L 3.5527344 5.2324219 A 2.50025 2.50025 0 0 0 2.5234375 5 z M 32.521484 67.214844 L 32.525391 67.675781 C 32.631363 67.63445 32.733166 67.582351 32.839844 67.542969 C 32.728985 67.438342 32.629405 67.322506 32.521484 67.214844 z "
     style="color:#000000;font-style:normal;font-variant:normal;font-weight:normal;font-stretch:normal;font-size:medium;line-height:normal;font-family:sans-serif;font-variant-ligatures:normal;font-variant-position:normal;font-variant-caps:normal;font-variant-numeric:normal;font-variant-alternates:normal;font-variant-east-asian:normal;font-feature-settings:normal;font-variation-settings:normal;text-indent:0;text-align:start;text-decoration:none;text-decoration-line:none;text-decoration-style:solid;text-decoration-color:#000000;letter-spacing:normal;word-spacing:normal;text-transform:none;writing-mode:lr-tb;direction:ltr;text-orientation:mixed;dominant-baseline:auto;baseline-shift:baseline;text-anchor:start;white-space:normal;shape-padding:0;shape-margin:0;inline-size:0;clip-rule:nonzero;display:inline;overflow:visible;visibility:visible;opacity:1;isolation:auto;mix-blend-mode:normal;color-interpolation:sRGB;color-interpolation-filters:linearRGB;solid-color:#000000;solid-opacity:1;vector-effect:none;fill:#000080;fill-opacity:1;fill-rule:evenodd;stroke:none;stroke-width:3;stroke-linecap:butt;stroke-linejoin:miter;stroke-miterlimit:4;stroke-dasharray:none;stroke-dashoffset:0;stroke-opacity:1;color-rendering:auto;image-rendering:auto;shape-rendering:auto;text-rendering:auto;enable-background:accumulate;stop-color:#000000;stop-opacity:1"
     id="path967" />
  <path
     style="opacity:1;vector-effect:none;fill:#000080;fill-opacity:1;stroke:none;stroke-width:3.62065;stroke-linecap:round;stroke-linejoin:round;stroke-miterlimit:4;stroke-dasharray:none;stroke-dashoffset:4;stroke-opacity:1;paint-order:normal"
     d="m 75.999086,37.769017 c -8.284271,0 -15,6.715729 -15,15 0,8.284271 6.715729,15 15,15 8.284271,0 15,-6.715729 15,-15 0,-8.284271 -6.715729,-15 -15,-15 z m 0,32.222656 c -16.568542,0 -24,7.431458 -24,24 v 2.000002 c 0.07552,3.939816 1.817778,4.056085 5.5,4.000002 h 37 c 4.696162,-0.0036 5.532854,0.005 5.500002,-4.000002 v -2.000002 c 0,-16.568542 -7.43146,-24 -24.000002,-24 z"
     id="path812"
     inkscape:connector-curvature="0"
     sodipodi:nodetypes="sssssssccccss" />
  <path
     style="opacity:1;vector-effect:none;fill:#000080;fill-opacity:1;stroke:none;stroke-width:2.96647;stroke-linecap:round;stroke-linejoin:round;stroke-miterlimit:4;stroke-dasharray:none;stroke-dashoffset:4;stroke-opacity:1;paint-order:normal"
     d="m 44,43.390625 c -6.78747,0 -12.291016,5.503546 -12.291016,12.291016 0,6.78747 5.503546,12.289062 12.291016,12.289062 6.78747,0 12.289063,-5.501592 12.289062,-12.289062 0,-6.78747 -5.501592,-12.291016 -12.289062,-12.291016 z m 0,26.400391 c -13.57494,0 -19.664063,6.089122 -19.664062,19.664062 v 1.638672 c 0.06188,3.22797 1.488941,3.323294 4.505859,3.277344 H 47.964844 C 47.477386,86.282577 49.866263,77.692678 55.816406,72.232422 52.803628,70.586164 48.89114,69.791016 44,69.791016 Z"
     id="path812-4" />
</svg>
