<?xml version="1.0" encoding="UTF-8" standalone="no"?>
<svg
   xmlns:dc="http://purl.org/dc/elements/1.1/"
   xmlns:cc="http://creativecommons.org/ns#"
   xmlns:rdf="http://www.w3.org/1999/02/22-rdf-syntax-ns#"
   xmlns:svg="http://www.w3.org/2000/svg"
   xmlns="http://www.w3.org/2000/svg"
   xmlns:sodipodi="http://sodipodi.sourceforge.net/DTD/sodipodi-0.dtd"
   xmlns:inkscape="http://www.inkscape.org/namespaces/inkscape"
   version="1.1"
   width="100"
   height="100"
   id="svg4460"
   sodipodi:docname="uEA23-earth-asia.svg"
   inkscape:version="1.0 (4035a4fb49, 2020-05-01)">
  <sodipodi:namedview
     pagecolor="#ffffff"
     bordercolor="#666666"
     borderopacity="1"
     objecttolerance="10"
     gridtolerance="10"
     guidetolerance="10"
     inkscape:pageopacity="0"
     inkscape:pageshadow="2"
     inkscape:window-width="1920"
     inkscape:window-height="1017"
     id="namedview11"
     showgrid="false"
     inkscape:zoom="3.805"
     inkscape:cx="118.93578"
     inkscape:cy="43.854271"
     inkscape:window-x="-8"
     inkscape:window-y="-8"
     inkscape:window-maximized="1"
     inkscape:current-layer="svg4460"
     inkscape:document-rotation="0" />
  <defs
     id="defs4462" />
  <metadata
     id="metadata4465">
    <rdf:RDF>
      <cc:Work
         rdf:about="">
        <dc:format>image/svg+xml</dc:format>
        <dc:type
           rdf:resource="http://purl.org/dc/dcmitype/StillImage" />
        <dc:title />
      </cc:Work>
    </rdf:RDF>
  </metadata>
  <path
     d="M 50 0 C 22.403544 -1.7069981e-07 -1.706998e-07 22.403544 0 50 C 7.32047e-15 77.596456 22.403544 100 50 100 C 77.546342 100 99.911024 77.675897 99.992188 50.148438 A 1.5 1.5 0 0 0 100 50 A 1.5 1.5 0 0 0 99.994141 49.867188 C 99.921533 22.332437 77.551636 0 50 0 z M 50 3 C 51.691497 3 53.360785 3.0937011 55.005859 3.2675781 C 55.017507 3.4836141 54.602521 3.6334655 53.34375 3.5839844 C 52.6944 4.1518344 52.833513 4.2467312 50.283203 4.3320312 C 49.771613 6.5582313 43.821161 5.2821887 47.707031 4.1367188 C 53.352751 2.8244187 45.896934 2.7758562 44.621094 4.9726562 C 48.242964 6.5304862 41.727072 5.2479825 40.544922 6.3828125 C 39.827445 5.6453759 38.242788 5.0395754 36.503906 4.9726562 C 40.779152 3.6946944 45.306715 3 50 3 z M 85.917969 19.683594 C 87.2573 21.269159 88.48864 22.947821 89.611328 24.703125 C 89.657971 25.073342 89.670225 25.441379 89.625 25.804688 C 90.26817 27.741938 89.036106 25.894658 89.003906 25.648438 C 87.405845 23.993768 86.799265 21.824302 85.917969 19.683594 z M 14.896484 19.878906 C 15.819175 19.749361 10.853909 23.866741 12.876953 23.435547 C 14.819893 19.025517 15.783142 24.243583 12.919922 24.564453 C 10.560882 30.390623 15.967625 21.563452 16.015625 24.732422 C 14.571355 27.820852 16.220123 29.773234 19.001953 28.339844 C 21.669373 27.277554 19.533259 30.0461 21.068359 30 C 23.147519 27.1392 22.46357 30.138394 20.75 32.246094 C 18.04222 33.473914 15.472402 31.400988 13.664062 29.830078 C 11.684333 33.902608 10.103011 28.163638 11.431641 26.580078 C 13.218423 26.049671 11.504404 24.940123 10.794922 24.068359 C 11.083544 23.632654 11.382947 23.204639 11.685547 22.779297 C 11.998669 22.546078 12.100779 22.364948 12.091797 22.208984 C 12.466242 21.698869 12.853786 21.199205 13.248047 20.705078 C 14.16602 20.166708 14.692573 19.907535 14.896484 19.878906 z M 24.46875 19.894531 C 24.35782 21.505511 28.938113 20.988018 28.658203 23.861328 C 27.112203 24.986238 25.89707 23.110134 24.46875 22.958984 C 20.15801 24.451134 21.79452 21.062451 24.46875 19.894531 z M 36.980469 20.212891 C 37.348342 20.226006 37.604572 20.406826 37.642578 20.804688 C 34.153778 21.833707 37.316922 26.078192 37.039062 28.794922 C 34.566203 29.678362 31.472311 27.486349 34.744141 25.505859 C 31.708998 23.250457 35.386351 20.156058 36.980469 20.212891 z M 84.896484 23.96875 C 86.388071 23.8057 88.032891 26.325828 89.460938 28.935547 C 88.800607 24.327677 93.377537 35.225013 91.498047 28.976562 C 91.595687 28.764768 91.66242 28.544949 91.705078 28.320312 C 95.081232 34.807025 97 42.175565 97 50 C 97 52.082895 96.849987 54.12968 96.587891 56.140625 C 96.015265 56.225919 95.985922 61.481586 95.023438 60.146484 C 94.191808 60.852014 97.20094 54.577056 95 58.478516 C 91.54292 62.068906 93.465892 55.867542 94.763672 54.138672 C 95.718792 54.659192 96.545543 53.59401 96.001953 51.09375 C 95.612063 47.03317 93.73566 45.750934 92.78125 42.121094 C 91.19631 42.896404 93.726831 48.190601 92.832031 50.613281 C 92.102921 53.773681 90.638511 61.278884 87.675781 60.746094 C 86.060081 57.007664 88.025264 64.186867 87.208984 65.529297 C 87.837744 66.460087 92.546586 67.443032 91.916016 63.451172 C 93.669566 58.537682 92.676033 62.831263 92.533203 65.564453 C 94.910783 67.404403 88.533123 69.968399 90.751953 68.162109 C 89.105593 67.515549 87.75001 69.347283 86.34375 69.158203 C 85.12901 70.216623 85.031903 68.285954 85.564453 67.652344 C 89.276873 65.938384 83.86293 66.550214 84.75 64.771484 C 85.20937 60.888324 82.117945 58.295992 80.609375 55.789062 C 79.928335 50.953863 84.555366 54.507734 84.347656 56.402344 C 89.308036 54.182964 87.322757 47.63869 84.310547 44.6875 C 86.358997 40.42591 85.163268 45.194654 86.710938 45.808594 C 87.083787 43.041454 87.973675 41.555391 89.828125 39.175781 C 91.038045 34.899401 89.462129 30.532942 86.417969 27.482422 C 88.068399 25.300862 82.867189 24.584839 84.599609 24.037109 C 84.697564 24.001629 84.797045 23.97962 84.896484 23.96875 z M 31.785156 36.546875 C 31.350276 39.161665 37.369969 39.901787 35.199219 41.523438 C 34.622259 41.731487 34.009759 41.968483 33.380859 41.814453 C 33.706689 40.379723 28.821676 36.486275 31.785156 36.546875 z M 19.267578 37.257812 C 19.670572 37.173098 20.285264 38.083253 20.101562 39.673828 C 20.802193 43.683398 22.240204 47.269321 22.865234 51.087891 C 22.924184 52.827121 22.096901 51.268411 21.832031 50.769531 C 19.546581 47.654991 19.96615 43.325829 19.1875 39.412109 C 18.770112 37.992159 18.954138 37.323702 19.267578 37.257812 z M 37.458984 41.332031 C 40.080514 42.650101 45.747009 40.905693 48.449219 43.533203 C 50.238649 41.510493 48.170608 46.700641 51.205078 46.988281 C 54.507348 45.732771 52.78185 49.01174 53.96875 51.21875 C 55.69575 54.31737 56.098753 59.069101 59.195312 60.931641 C 62.118533 56.950371 60.433632 65.296325 63.701172 62.515625 C 64.372192 59.144175 61.067462 56.642768 62.070312 52.986328 C 63.942563 50.793888 66.843195 48.717036 68.421875 45.947266 C 71.022575 43.267916 73.409423 45.295142 74.814453 47.914062 C 74.628123 50.508803 75.900341 51.393607 78.050781 49.935547 C 79.170631 53.355707 77.868334 57.835335 81.027344 60.359375 C 83.578354 66.236115 77.711045 57.918942 76.609375 61.482422 C 79.013535 63.762392 78.359845 66.017982 80.015625 68.388672 C 81.591545 68.115182 83.262485 71.393069 85.640625 71.261719 C 87.796909 70.543126 90.860228 70.655669 92.853516 69.308594 C 91.55024 72.199413 89.966178 74.932951 88.130859 77.476562 C 86.658831 78.807982 85.499568 80.375931 84.417969 82.005859 C 75.83906 91.228087 63.601834 97 50 97 C 39.035981 97 28.961926 93.243894 20.970703 86.960938 C 20.644883 85.16002 21.960327 85.471078 21.296875 83.878906 C 18.036925 80.689986 25.357636 81.283161 22.691406 77.556641 C 21.718936 75.070061 20.172773 72.03531 20.914062 69.5 C 22.488663 66.99808 25.280138 65.765016 27.423828 63.628906 C 28.808268 60.980696 31.544497 58.497643 30.998047 55.501953 C 29.131827 55.197773 28.085096 55.807572 25.941406 55.888672 C 20.658096 54.644662 27.881226 53.852684 29.316406 52.746094 C 32.657726 51.789494 36.515597 50.598776 38.623047 47.728516 C 41.726427 45.813316 39.905324 42.832491 37.458984 41.332031 z M 93.755859 49.923828 C 94.261742 50.159288 94.706674 53.676721 93.677734 55.109375 C 92.620694 56.875285 92.075566 52.649495 93.160156 52.140625 C 93.283225 50.387172 93.525913 49.816801 93.755859 49.923828 z M 94.818359 61.871094 C 94.915951 61.852763 95.046948 62.058943 95.242188 62.603516 C 95.264312 62.571729 95.279233 62.563307 95.300781 62.533203 C 94.966432 63.745939 94.594871 64.944035 94.167969 66.115234 C 93.550918 66.57219 92.981261 66.79634 93.226562 65.507812 C 94.624745 66.246627 94.395464 61.950529 94.818359 61.871094 z M 29.724609 78.876953 C 29.350758 78.921705 28.935318 79.259831 28.498047 79.998047 C 24.566087 80.356037 26.112758 84.898326 27.835938 87.066406 C 29.105328 88.845686 31.253574 88.093039 30.871094 85.824219 C 32.203935 83.971475 31.344632 78.683028 29.724609 78.876953 z "
     style="fill:#000080;stroke-width:0.208996"
     id="path1012" />
</svg>
