<?xml version="1.0" encoding="UTF-8" standalone="no"?>
<svg
   xmlns:dc="http://purl.org/dc/elements/1.1/"
   xmlns:cc="http://creativecommons.org/ns#"
   xmlns:rdf="http://www.w3.org/1999/02/22-rdf-syntax-ns#"
   xmlns:svg="http://www.w3.org/2000/svg"
   xmlns="http://www.w3.org/2000/svg"
   xmlns:sodipodi="http://sodipodi.sourceforge.net/DTD/sodipodi-0.dtd"
   xmlns:inkscape="http://www.inkscape.org/namespaces/inkscape"
   inkscape:version="1.0 (4035a4fb49, 2020-05-01)"
   sodipodi:docname="uEA28-earth-pacific.svg"
   id="svg4460"
   height="100"
   width="100"
   version="1.1">
  <sodipodi:namedview
     inkscape:document-rotation="0"
     inkscape:current-layer="svg4460"
     inkscape:window-maximized="1"
     inkscape:window-y="-8"
     inkscape:window-x="-8"
     inkscape:cy="29.875082"
     inkscape:cx="74.565793"
     inkscape:zoom="5.3810826"
     showgrid="false"
     id="namedview11"
     inkscape:window-height="1017"
     inkscape:window-width="1920"
     inkscape:pageshadow="2"
     inkscape:pageopacity="0"
     guidetolerance="10"
     gridtolerance="10"
     objecttolerance="10"
     borderopacity="1"
     bordercolor="#666666"
     pagecolor="#ffffff" />
  <defs
     id="defs4462" />
  <metadata
     id="metadata4465">
    <rdf:RDF>
      <cc:Work
         rdf:about="">
        <dc:format>image/svg+xml</dc:format>
        <dc:type
           rdf:resource="http://purl.org/dc/dcmitype/StillImage" />
        <dc:title />
      </cc:Work>
    </rdf:RDF>
  </metadata>
  <path
     id="path1028"
     style="fill:#000080;stroke-width:0.208996"
     d="M 50 0 C 22.403544 -1.7069981e-07 -1.706998e-07 22.403544 0 50 C 7.32047e-15 77.596456 22.403544 100 50 100 C 77.546342 100 99.911024 77.675897 99.992188 50.148438 A 1.5 1.5 0 0 0 100 50 A 1.5 1.5 0 0 0 99.994141 49.867188 C 99.921533 22.332437 77.551636 0 50 0 z M 43.853516 3.4121094 C 43.811404 3.6596105 42.242183 5.2691159 43.351562 5 C 49.887172 5.3075829 41.559846 7.0713579 39.166016 7.8417969 C 38.965336 8.5803539 45.495089 6.8885445 47.636719 6.0742188 C 51.163079 5.1865206 55.912241 4.018674 59.550781 6.5898438 C 62.561811 8.7411137 65.697717 9.0461289 68.617188 12.033203 C 70.283387 15.944815 73.3784 19.10132 76.6875 21.701172 C 79.94986 23.655393 82.080196 27.273223 84.572266 29.986328 C 88.454476 33.729495 84.83179 28.006504 83.5 26.75 C 84.53673 27.094247 88.462264 32.129396 88.652344 32.541016 C 89.573777 36.427495 93.453673 36.92506 95.738281 39.191406 C 96.554407 42.662916 97 46.277902 97 50 C 97 75.975135 75.975135 97 50 97 C 41.800837 97 34.097759 94.90097 27.390625 91.216797 C 27.49985 90.963741 27.570841 90.716124 27.613281 90.652344 C 30.425551 88.282342 24.203251 85.322615 23.332031 85.445312 C 26.092019 86.637148 25.16952 88.520537 25.326172 90.009766 C 15.386398 83.870781 7.9186816 74.132248 4.7207031 62.605469 C 5.334093 63.380467 5.9919028 64.083118 6.4648438 63.988281 C 5.3459537 61.759736 2.5880306 59.315188 4.9316406 57.773438 C 5.4364706 58.854317 7.1923025 62.237703 8.0078125 62.615234 C 9.7473625 65.648442 10.486355 63.606612 8.765625 61.546875 C 5.873595 60.438262 4.4849006 53.963611 3.4628906 54.328125 C 4.2545134 56.624765 4.0228409 57.158724 3.4921875 56.777344 C 3.1729879 54.563865 3 52.302465 3 50 C 2.9999998 27.185392 19.222022 8.1949974 40.769531 3.9101562 C 41.49429 3.8593912 42.220165 3.8485744 42.947266 3.9414062 C 43.372675 3.6285275 43.582066 3.4965478 43.714844 3.4296875 C 43.760974 3.4235301 43.807343 3.4181331 43.853516 3.4121094 z M 90.714844 26.519531 C 92.175987 29.049444 93.409808 31.725369 94.384766 34.525391 C 94.380353 34.54529 94.377652 34.566138 94.373047 34.585938 L 94.373047 34.587891 L 94.242188 34.755859 L 94.054688 34.757812 C 92.193158 33.069101 90.000386 28.156549 90.714844 26.519531 z M 43.873047 31.943359 C 43.156206 31.931997 46.355033 33.852001 46.103516 35.169922 C 49.219986 35.400053 46.627218 32.135193 45.085938 32.291016 C 44.412859 32.051503 44.038472 31.945981 43.873047 31.943359 z M 22.101562 70.929688 C 21.811883 70.956457 21.447397 71.127076 20.990234 71.498047 C 20.677884 73.999615 22.532634 73.841875 23.214844 73.921875 C 23.216842 73.38509 23.356841 70.813686 22.101562 70.929688 z " />
</svg>
