<?xml version="1.0" encoding="UTF-8" standalone="no"?>
<svg
   xmlns:dc="http://purl.org/dc/elements/1.1/"
   xmlns:cc="http://creativecommons.org/ns#"
   xmlns:rdf="http://www.w3.org/1999/02/22-rdf-syntax-ns#"
   xmlns:svg="http://www.w3.org/2000/svg"
   xmlns="http://www.w3.org/2000/svg"
   xmlns:sodipodi="http://sodipodi.sourceforge.net/DTD/sodipodi-0.dtd"
   xmlns:inkscape="http://www.inkscape.org/namespaces/inkscape"
   inkscape:version="1.0 (4035a4fb49, 2020-05-01)"
   sodipodi:docname="earth-euro-africa-o.svg"
   id="svg4460"
   height="100"
   width="100"
   version="1.1">
  <sodipodi:namedview
     inkscape:document-rotation="0"
     inkscape:current-layer="svg4460"
     inkscape:window-maximized="1"
     inkscape:window-y="-8"
     inkscape:window-x="-8"
     inkscape:cy="54.139615"
     inkscape:cx="75.165445"
     inkscape:zoom="5.3810826"
     showgrid="false"
     id="namedview11"
     inkscape:window-height="1017"
     inkscape:window-width="1920"
     inkscape:pageshadow="2"
     inkscape:pageopacity="0"
     guidetolerance="10"
     gridtolerance="10"
     objecttolerance="10"
     borderopacity="1"
     bordercolor="#666666"
     pagecolor="#ffffff" />
  <defs
     id="defs4462" />
  <metadata
     id="metadata4465">
    <rdf:RDF>
      <cc:Work
         rdf:about="">
        <dc:format>image/svg+xml</dc:format>
        <dc:type
           rdf:resource="http://purl.org/dc/dcmitype/StillImage" />
        <dc:title />
      </cc:Work>
    </rdf:RDF>
  </metadata>
  <path
     id="path1091-0"
     style="color:#000000;overflow:visible;fill:#000080;stroke:none;stroke-width:3;stroke-linecap:round;stroke-linejoin:round;stroke-miterlimit:4;stroke-dasharray:none;stroke-dashoffset:188.976;stroke-opacity:1"
     d="M 50 0 C 22.403544 -1.7069981e-07 -1.706998e-07 22.403544 0 50 C 7.32047e-15 77.596456 22.403544 100 50 100 C 77.546342 100 99.911024 77.675897 99.992188 50.148438 A 1.5 1.5 0 0 0 100 50 A 1.5 1.5 0 0 0 99.994141 49.867188 C 99.921533 22.332437 77.551636 0 50 0 z M 58.132812 3.7148438 C 58.858859 3.841355 59.578821 3.9831998 60.292969 4.1425781 C 61.036584 4.7750312 61.671386 5.2428487 61.785156 4.4882812 C 78.80738 8.8769482 92.068385 22.556734 95.878906 39.804688 C 95.125231 44.091419 97.547472 49.403663 96.398438 52.701172 C 95.959659 51.173902 96.371298 50.187003 95.341797 51.457031 C 93.353887 47.97277 93.634983 41.575581 90.105469 40.179688 C 89.183278 36.729715 87.335261 37.157585 83.732422 37.861328 C 78.034262 36.923407 87.102585 39.710855 84.447266 42.580078 C 83.815757 45.651031 81.028128 48.532313 78.162109 50.220703 C 76.130652 51.451718 70.608374 55.772424 76.003906 53.771484 C 78.03144 53.913568 79.623733 50.612581 80.322266 53.986328 C 79.194118 57.996926 77.761306 62.142523 74.34375 64.792969 C 72.11452 66.668354 69.810742 70.499337 69.15625 71.84375 C 69.788637 72.871287 68.5665 75.772193 69.716797 76.496094 C 71.6676 82.632026 62.949991 82.106041 63.208984 86.931641 C 60.353366 89.562707 57.555693 93.41985 52.982422 93.712891 C 47.104775 96.118202 44.259487 89.935761 41.802734 85.865234 C 37.366963 82.736445 42.891033 78.945792 40.689453 75.310547 C 39.84595 71.673384 34.687507 69.745788 36.453125 65.75 C 38.144266 62.40491 31.872204 63.796366 31.279297 60.455078 C 28.063462 59.426527 25.464988 62.487326 22.035156 60.714844 C 16.843033 61.248682 16.223316 54.51536 13.580078 51.726562 C 13.346485 47.436743 14.830663 43.309873 16.042969 39.1875 C 16.929227 38.195049 17.673013 37.37704 18.101562 36.716797 C 20.436383 33.417272 22.705639 32.187146 23.861328 30.462891 C 25.064435 29.719824 26.327047 28.89357 28.339844 28.275391 C 32.041402 28.515539 35.994853 26.902497 39.837891 26.935547 C 42.819901 27.437356 38.686934 32.122011 42.992188 31.644531 C 44.225057 31.730491 47.203767 35.711309 48.074219 33.466797 C 50.026121 28.710192 54.635382 34.980836 57.859375 33.123047 C 61.253812 34.96862 63.958745 30.354445 61.513672 28.482422 C 61.597672 30.540714 59.430213 30.73604 59.345703 28.814453 C 56.896845 27.417951 53.430384 32.020305 51.191406 29.107422 C 47.971049 27.499567 48.551501 22.925402 45.005859 21.808594 C 44.221323 21.314627 43.811114 21.081956 43.664062 21.041016 C 43.026852 20.863616 47.334796 24.258178 47.580078 25.3125 C 45.737915 24.34813 44.811717 29.887182 43.304688 28.740234 C 41.140842 26.925816 41.947941 26.281817 44.460938 25.910156 C 45.958689 25.877296 39.120786 19.993627 40.378906 25.359375 C 37.45394 27.75361 39.378837 21.427094 40.822266 21.671875 C 37.814461 21.529568 35.781743 22.616765 33.298828 24.509766 C 32.25684 26.595471 30.24728 28.02629 28.064453 28.193359 C 27.730404 28.163285 26.993057 28.091472 26.470703 28.039062 C 26.571248 27.39609 26.22103 26.856866 25.189453 26.759766 C 26.100493 23.061745 28.10633 19.205038 32.458984 21.240234 C 33.694786 18.550995 31.653038 17.219854 34.34375 16 C 30.401073 17.735276 35.140812 13.336615 31.753906 15.037109 C 28.533478 14.458203 34.971729 11.944756 35.207031 10.638672 C 39.483627 8.8422242 36.841495 11.051097 37.322266 13.449219 C 37.282986 16.723126 40.033133 13.52311 41.96875 12.853516 C 41.856415 10.974036 46.060212 10.35351 42.273438 11.041016 C 39.612958 8.4846451 46.694418 6.7891661 47.8125 5.2128906 C 51.544316 3.0432784 57.147128 7.1858375 58.5625 5.1660156 C 62.236397 5.4105585 58.771221 5.1105444 58.132812 3.7148438 z M 38.738281 4.3652344 C 37.040003 4.9660472 35.303553 5.4565668 33.570312 5.953125 C 35.249034 5.3274397 36.97477 4.7983577 38.738281 4.3652344 z M 35.167969 6.21875 C 36.644486 6.1908036 37.854763 6.8312057 34.953125 7.6386719 C 34.335795 7.7905839 33.681261 7.9624732 33.050781 7.7304688 C 32.710836 6.6661921 34.019566 6.240486 35.167969 6.21875 z M 49.28125 9.9765625 C 48.928779 10.028476 48.41876 10.327424 47.724609 10.998047 C 47.584043 12.778123 43.12205 13.424436 47 13.023438 C 49.36556 14.159878 50.808624 9.7516044 49.28125 9.9765625 z M 70.771484 18.705078 C 69.901687 18.601623 67.224992 21.370309 70.5625 22.474609 C 73.601123 23.401014 70.683916 27.952265 75.351562 26.726562 C 75.677461 24.502909 70.421377 21.012122 70.748047 19.933594 C 71.149093 19.092516 71.061417 18.739568 70.771484 18.705078 z M 57.232422 19.578125 C 55.83803 20.844563 53.809674 24.624981 57.941406 23.353516 C 59.324988 21.55527 67.291304 25.085429 64.199219 21.964844 C 61.671381 20.079328 58.965528 21.901351 57.232422 19.578125 z M 16.835938 33.753906 C 17.138445 33.798903 17.497646 34.104035 17.941406 34.263672 L 17.708984 34.982422 C 17.328443 34.861131 16.798835 34.781101 16.087891 34.744141 C 16.300508 33.914873 16.542067 33.710196 16.835938 33.753906 z M 75.214844 34.261719 C 73.97248 35.363819 78.264975 38.208343 79.296875 38.882812 L 79.900391 38.457031 C 81.180348 36.246893 75.894139 36.621047 75.214844 34.261719 z M 62.677734 37.291016 C 62.575651 39.138193 64.589316 40.805462 65.414062 42.632812 C 66.726124 45.26947 68.259647 48.570991 70.117188 49.869141 C 70.344482 50.33732 71.454335 51.64997 72.021484 50.929688 C 70.632244 49.004435 70.563982 46.554668 68.421875 45.03125 C 66.863063 42.360521 65.115803 38.953571 62.677734 37.291016 z M 77.263672 76.195312 C 78.223951 76.259631 77.003534 81.482586 75.535156 82.193359 C 74.253239 83.719411 72.231578 88.087554 69.847656 87.003906 C 70.051354 82.649787 72.784133 79.630714 76.226562 77.09375 C 76.704261 76.440362 77.042069 76.180472 77.263672 76.195312 z " />
</svg>
