<?xml version="1.0" encoding="UTF-8" standalone="no"?>
<svg
   xmlns:dc="http://purl.org/dc/elements/1.1/"
   xmlns:cc="http://creativecommons.org/ns#"
   xmlns:rdf="http://www.w3.org/1999/02/22-rdf-syntax-ns#"
   xmlns:svg="http://www.w3.org/2000/svg"
   xmlns="http://www.w3.org/2000/svg"
   xmlns:sodipodi="http://sodipodi.sourceforge.net/DTD/sodipodi-0.dtd"
   xmlns:inkscape="http://www.inkscape.org/namespaces/inkscape"
   inkscape:version="1.0 (4035a4fb49, 2020-05-01)"
   sodipodi:docname="uEA27-earth-north.svg"
   id="svg4460"
   height="100"
   width="100"
   version="1.1">
  <sodipodi:namedview
     inkscape:document-rotation="0"
     inkscape:current-layer="svg4460"
     inkscape:window-maximized="1"
     inkscape:window-y="-8"
     inkscape:window-x="-8"
     inkscape:cy="42.661408"
     inkscape:cx="55.262217"
     inkscape:zoom="5.3810826"
     showgrid="false"
     id="namedview11"
     inkscape:window-height="1017"
     inkscape:window-width="1920"
     inkscape:pageshadow="2"
     inkscape:pageopacity="0"
     guidetolerance="10"
     gridtolerance="10"
     objecttolerance="10"
     borderopacity="1"
     bordercolor="#666666"
     pagecolor="#ffffff" />
  <defs
     id="defs4462" />
  <metadata
     id="metadata4465">
    <rdf:RDF>
      <cc:Work
         rdf:about="">
        <dc:format>image/svg+xml</dc:format>
        <dc:type
           rdf:resource="http://purl.org/dc/dcmitype/StillImage" />
        <dc:title />
      </cc:Work>
    </rdf:RDF>
  </metadata>
  <path
     id="path1044"
     style="fill:#000080;stroke-width:0.208996"
     d="M 50 0 C 22.403544 -1.7069981e-07 -1.706998e-07 22.403544 0 50 C 7.32047e-15 77.596456 22.403544 100 50 100 C 77.546342 100 99.911024 77.675897 99.992188 50.148438 A 1.5 1.5 0 0 0 100 50 A 1.5 1.5 0 0 0 99.994141 49.867188 C 99.921533 22.332437 77.551636 0 50 0 z M 50 3 C 50.865476 3 51.724235 3.0261774 52.578125 3.0722656 C 53.025818 3.4846617 52.21172 4.5282605 52.984375 6.0976562 C 58.233235 5.9794962 52.511347 8.8489712 50.123047 8.0195312 C 47.516697 6.2416612 45.640032 10.404132 44.289062 9.0449219 C 47.636942 7.7701519 44.147568 5.2234331 46.304688 4.1582031 C 44.502948 4.5529131 41.077315 6.6681456 41.484375 8.8847656 C 39.605715 10.733246 34.470143 12.370463 36.533203 15.007812 C 33.276543 15.163242 34.337179 17.819299 31.505859 18.199219 C 28.999409 20.528059 30.93654 17.537807 29.625 16.398438 C 28.66895 15.798068 22.821928 21.398429 25.492188 16.261719 C 25.145698 13.885839 33.259429 8.5330641 29.724609 10.365234 C 26.949539 12.871754 23.376321 15.958186 23.525391 19.759766 C 21.292211 18.711506 23.832519 22.137279 22.949219 23.443359 C 22.006239 27.728769 17.287841 29.438801 14.238281 31.894531 C 17.838241 31.309661 12.515934 33.213898 11.839844 35.236328 C 8.3619233 37.624448 3.9924919 39.662646 3.7324219 44.822266 C 3.5161142 45.327 3.3242272 45.837383 3.1542969 46.349609 C 5.0166645 22.085246 25.254732 2.9999998 50 3 z M 54.753906 3.2382812 C 55.28115 3.2911403 55.802282 3.3634837 56.324219 3.4335938 C 55.651885 3.5863611 55.05168 3.8822311 54.607422 4.4335938 C 54.450824 3.9248484 54.528501 3.5388374 54.753906 3.2382812 z M 45.578125 15.808594 C 47.760362 15.836314 50.322271 16.296134 51.783203 18.613281 C 47.138313 18.042101 50.410694 20.373906 53.121094 20.097656 C 50.904154 17.722606 55.362469 15.347991 55.599609 17.550781 C 55.490139 19.783821 61.475329 19.465757 58.287109 21.966797 C 59.525799 23.973457 55.029504 29.9816 59.777344 27.46875 C 59.007044 23.51219 61.127604 25.477879 63.958984 26.849609 C 65.949604 27.405319 67.681344 28.128981 67.083984 29.300781 C 68.640444 28.711751 66.976512 32.15591 70.882812 31.53125 C 73.258583 34.51654 66.180438 35.637106 64.955078 31.285156 C 61.776588 30.672526 67.920784 37.276728 70.240234 36.142578 C 72.116304 32.576588 72.403765 36.504884 72.984375 38.490234 C 69.965025 39.925874 74.947881 40.523313 73.457031 41.195312 C 68.846701 42.046122 65.402471 45.544858 66.494141 50.486328 C 68.891501 50.881568 66.957736 56.97272 68.447266 59.78125 C 70.403686 64.24001 73.108501 55.727831 71.925781 60.994141 C 73.946731 63.248631 72.234846 64.917034 71.916016 67.490234 C 71.113896 67.970444 67.111963 65.430442 66.601562 63.919922 C 65.886933 61.754052 65.225701 63.275974 64.394531 64.277344 C 62.435831 65.647984 66.567652 67.498311 63.482422 69.025391 C 62.613222 72.494701 66.911505 72.399277 66.359375 68.904297 C 67.167705 68.206737 67.165829 74.601844 69.412109 70.521484 C 75.050509 66.682944 65.007836 73.940478 70.072266 73.205078 C 73.612846 74.384868 70.554601 77.167879 67.931641 77.292969 C 66.520861 78.115859 67.019806 84.50812 70.066406 82.25 C 69.952196 84.04904 68.008987 88.679061 65.966797 88.837891 C 64.272007 88.234031 66.383139 89.993912 64.755859 90.726562 C 63.684418 91.725568 62.833738 93.908898 63.210938 95.107422 C 59.019116 96.331539 54.589588 97 50 97 C 40.513837 97 31.695248 94.186638 24.3125 89.361328 C 23.262344 88.031855 22.914741 87.973646 23.083984 88.529297 C 21.818213 87.643796 20.597825 86.698191 19.427734 85.695312 C 19.547095 85.520325 18.581907 84.278209 18.228516 83.964844 C 17.326176 82.513594 12.549896 78.461609 14.322266 78.474609 C 16.893726 84.060409 15.476139 77.426151 13.136719 75.962891 C 13.479739 78.487011 12.477006 77.274564 11.447266 75.402344 C 7.6657639 71.892851 10.620765 75.136718 11.988281 77.644531 C 8.9752849 73.506958 6.6165957 68.862379 5.0761719 63.855469 C 5.186009 63.619615 5.3171225 63.38681 5.4980469 63.162109 C 7.8780269 67.271459 11.2561 69.612158 11.3125 74.736328 C 13.25452 77.887388 12.471955 73.169866 13.609375 72.884766 C 16.557325 75.435656 17.348962 72.761475 20.070312 72.671875 C 22.558023 75.029615 21.690979 71.552286 23.855469 72.535156 C 24.861839 73.982876 29.591769 76.464566 30.011719 73.603516 C 28.821529 73.981656 26.554501 72.117291 28.207031 70.363281 C 25.881791 67.472411 28.678509 70.240876 29.605469 71.535156 C 28.911879 69.722646 31.822778 71.514009 32.767578 71.105469 C 27.715778 72.242939 34.506426 78.182568 35.259766 74.892578 C 33.866346 72.643408 34.659109 71.399018 34.662109 68.673828 C 31.503049 67.170198 35.433515 58.167172 31.140625 61.226562 C 30.902005 59.409492 31.432531 55.615936 29.582031 54.853516 C 30.951351 52.413496 31.492942 57.973793 32.857422 59.289062 C 34.566442 60.476622 34.919679 56.025881 37.130859 56.113281 C 37.168909 53.768791 36.617954 51.781591 37.277344 49.181641 C 37.690434 46.205221 35.245169 40.193322 32.042969 44.982422 C 30.364779 50.429992 31.004661 41.42813 34.488281 42.84375 C 35.344611 39.69784 36.171026 46.974977 39.103516 43.560547 C 41.593376 41.826447 39.785194 43.917021 40.677734 45.550781 C 43.818574 47.451321 41.310502 51.577053 40.951172 54.070312 C 39.947412 57.752633 39.139991 63.69557 43.238281 65.71875 C 45.148731 62.70218 46.533453 60.036646 49.539062 58.160156 C 53.763893 56.930546 53.914825 53.563993 53.953125 50.095703 C 54.512905 48.037493 53.155166 46.134577 53.003906 44.085938 C 54.737676 40.857168 49.337562 38.559832 46.513672 40.232422 C 45.853902 37.873362 39.469755 35.451524 39.109375 38.308594 C 39.466375 36.203354 37.638704 36.048262 35.771484 37.289062 C 36.822324 36.333802 34.468254 36.624788 35.433594 35.742188 C 36.928214 37.079498 39.29053 35.475819 36.3125 34.162109 C 34.46789 31.755299 31.932281 36.331636 33.837891 37.853516 C 36.447581 40.582926 32.559727 39.049069 31.466797 40.630859 C 32.537447 42.582789 27.928927 42.723944 29.998047 41.777344 C 30.416007 40.152874 34.745439 38.786246 31.886719 37.097656 C 33.984179 35.039636 33.665691 31.233287 30.019531 33.273438 C 31.065921 34.323038 27.414816 37.312906 28.222656 35.253906 C 30.535686 32.529176 27.619139 29.200312 30.730469 26.914062 C 32.715389 25.475042 36.780563 19.538333 32.976562 19.689453 C 33.185492 15.970273 40.924972 18.689047 43.576172 15.873047 C 44.164029 15.839457 44.850713 15.799354 45.578125 15.808594 z M 59.498047 31.986328 C 58.641905 31.972746 59.388271 34.451719 59.939453 35.566406 C 61.532183 36.212986 61.253168 33.818639 60.955078 32.974609 C 60.246926 32.273699 59.783428 31.990855 59.498047 31.986328 z M 59.056641 38.669922 C 57.163335 38.819599 57.290278 44.109979 60.824219 43.207031 L 61.216797 43.224609 C 59.980057 41.377539 61.952075 42.136101 61.640625 40.587891 C 58.462145 40.395261 62.335058 38.544365 59.986328 38.953125 C 59.637358 38.731581 59.327113 38.648539 59.056641 38.669922 z M 89.916016 42.572266 C 89.591196 46.613166 96.065771 41.761772 94.212891 46.763672 C 93.721711 48.218152 93.392006 46.09731 93.003906 45.8125 C 90.737036 48.1933 89.643466 44.481896 89.916016 42.572266 z M 32.5625 48.826172 C 32.76022 48.866491 32.29484 49.974856 33.048828 49.714844 C 30.747898 50.465634 35.392144 52.3035 32.115234 52.875 C 29.177284 51.13724 28.282829 56.157043 26.037109 57.039062 C 26.806839 60.378582 23.538024 58.683643 22.902344 60.095703 L 22.902344 60.091797 L 22.791016 60.386719 C 21.598716 59.232169 22.932316 56.516278 21.722656 54.492188 C 19.744436 49.971487 24.256692 48.036763 27.826172 49.757812 C 25.106032 51.027032 29.531932 51.937857 26.638672 52.554688 C 29.590962 54.798817 28.779678 49.286179 31.705078 49.662109 C 32.245181 49.010044 32.472627 48.807845 32.5625 48.826172 z M 90.730469 52.099609 C 92.241579 53.171999 88.372691 57.479793 88.494141 59.914062 C 87.369461 61.801203 86.935206 57.553183 86.878906 56.970703 C 89.348106 56.450113 88.432299 53.312659 90.730469 52.099609 z M 75.433594 53.960938 C 77.24813 54.214933 78.609634 59.373056 75.759766 60.626953 C 75.359846 60.424583 74.652787 61.809644 75.248047 60.490234 C 77.095357 59.558274 73.940386 56.273403 75.066406 53.976562 C 75.19028 53.947281 75.312625 53.944004 75.433594 53.960938 z M 57.087891 58.017578 C 56.705308 58.050899 56.220868 58.204166 55.626953 58.515625 C 52.382563 58.112025 53.391973 60.657342 54.226562 61.726562 C 57.538665 63.422837 59.765967 57.784329 57.087891 58.017578 z M 92.261719 58.757812 C 95.307309 61.422852 90.183605 67.065412 87.984375 69.888672 C 88.098265 72.165022 83.015758 76.948189 82.142578 73.849609 C 78.958448 74.720779 75.666788 79.792364 72.111328 81.839844 C 70.671348 82.367634 73.898888 80.307645 73.804688 80.078125 C 74.981728 76.765905 75.620595 73.563074 78.171875 70.871094 C 79.368115 68.932104 77.730869 76.324294 80.412109 73.146484 C 76.710649 70.426404 86.759977 68.297476 82.154297 72.166016 C 84.367447 74.772926 84.519239 69.252454 84.761719 67.458984 C 83.230419 68.453964 77.245324 68.291791 82.271484 67.644531 C 84.461494 65.470111 88.526974 69.939071 89.964844 65.269531 C 89.894334 61.532591 92.955209 61.473492 92.261719 58.757812 z " />
</svg>
