<?xml version="1.0" encoding="UTF-8" standalone="no"?>
<svg
   xmlns:dc="http://purl.org/dc/elements/1.1/"
   xmlns:cc="http://creativecommons.org/ns#"
   xmlns:rdf="http://www.w3.org/1999/02/22-rdf-syntax-ns#"
   xmlns:svg="http://www.w3.org/2000/svg"
   xmlns="http://www.w3.org/2000/svg"
   xmlns:sodipodi="http://sodipodi.sourceforge.net/DTD/sodipodi-0.dtd"
   xmlns:inkscape="http://www.inkscape.org/namespaces/inkscape"
   version="1.1"
   width="100"
   height="100"
   id="svg4460"
   sodipodi:docname="uEA38-globe-o.svg"
   inkscape:version="1.0 (4035a4fb49, 2020-05-01)">
  <sodipodi:namedview
     pagecolor="#ffffff"
     bordercolor="#666666"
     borderopacity="1"
     objecttolerance="10"
     gridtolerance="10"
     guidetolerance="10"
     inkscape:pageopacity="0"
     inkscape:pageshadow="2"
     inkscape:window-width="1920"
     inkscape:window-height="1017"
     id="namedview11"
     showgrid="false"
     inkscape:zoom="2.6905413"
     inkscape:cx="158.89261"
     inkscape:cy="47.214522"
     inkscape:window-x="-8"
     inkscape:window-y="-8"
     inkscape:window-maximized="1"
     inkscape:current-layer="svg4460"
     inkscape:document-rotation="0" />
  <defs
     id="defs4462" />
  <metadata
     id="metadata4465">
    <rdf:RDF>
      <cc:Work
         rdf:about="">
        <dc:format>image/svg+xml</dc:format>
        <dc:type
           rdf:resource="http://purl.org/dc/dcmitype/StillImage" />
        <dc:title />
      </cc:Work>
    </rdf:RDF>
  </metadata>
  <path
     d="M 49.947266 0 A 50 50 0 0 0 0 50 A 50 50 0 0 0 50 100 A 50 50 0 0 0 100 50 A 50 50 0 0 0 50 0 A 50 50 0 0 0 49.947266 0 z M 52.5 5.6816406 C 57.767578 6.577844 62.802435 10.918236 66.767578 18.119141 C 68.045709 20.440292 69.188109 23.045533 70.175781 25.869141 L 52.5 25.869141 L 52.5 5.6816406 z M 47.5 5.8789062 L 47.5 25.869141 L 30.75 25.869141 C 31.737672 23.045533 32.880072 20.440292 34.158203 18.119141 C 37.890361 11.341349 42.5705 7.1024017 47.5 5.8789062 z M 35.980469 7.2324219 C 33.656462 9.5842768 31.569505 12.452374 29.777344 15.707031 C 28.097637 18.757465 26.651832 22.17387 25.464844 25.869141 L 12.009766 25.869141 C 17.545184 17.163368 25.985415 10.499624 35.980469 7.2324219 z M 65.390625 7.6953125 C 74.788044 11.107725 82.70909 17.563275 87.990234 25.869141 L 75.455078 25.869141 C 74.27054 22.173713 72.827771 18.756792 71.148438 15.707031 C 69.471795 12.662163 67.535486 9.9584025 65.390625 7.6953125 z M 9.2558594 30.869141 L 24.064453 30.869141 C 22.818773 36.03111 22.055644 41.62805 21.861328 47.5 L 5.0722656 47.5 C 5.3956707 41.575313 6.8641975 35.962202 9.2558594 30.869141 z M 29.230469 30.869141 L 47.5 30.869141 L 47.5 47.5 L 26.867188 47.5 C 27.07911 41.565457 27.910149 35.945958 29.230469 30.869141 z M 52.5 30.869141 L 71.695312 30.869141 C 73.015632 35.945958 73.846672 41.565457 74.058594 47.5 L 52.5 47.5 L 52.5 30.869141 z M 76.855469 30.869141 L 90.744141 30.869141 C 93.135803 35.962202 94.604329 41.575313 94.927734 47.5 L 79.052734 47.5 C 78.858992 41.628492 78.09777 36.031966 76.855469 30.869141 z M 5.0722656 52.5 L 21.833984 52.5 C 21.962781 58.356194 22.654426 63.953511 23.828125 69.130859 L 9.2558594 69.130859 C 6.8641975 64.037798 5.3956707 58.424687 5.0722656 52.5 z M 26.833984 52.5 L 47.5 52.5 L 47.5 69.130859 L 28.980469 69.130859 C 27.735338 64.030209 26.974419 58.415464 26.833984 52.5 z M 52.5 52.5 L 74.091797 52.5 C 73.951362 58.415464 73.190444 64.030209 71.945312 69.130859 L 52.5 69.130859 L 52.5 52.5 z M 79.076172 52.5 L 94.927734 52.5 C 94.604329 58.424687 93.135803 64.037798 90.744141 69.130859 L 77.089844 69.130859 C 78.260736 63.952928 78.947413 58.355459 79.076172 52.5 z M 12.009766 74.130859 L 25.146484 74.130859 C 26.388048 78.214539 27.946438 81.969904 29.777344 85.294922 C 31.214957 87.905702 32.844862 90.263718 34.630859 92.3125 C 25.224063 88.902117 17.294926 82.443041 12.009766 74.130859 z M 30.404297 74.130859 L 47.5 74.130859 L 47.5 94.927734 C 47.192144 94.910934 46.888194 94.880362 46.582031 94.857422 C 41.991579 93.35814 37.657754 89.23818 34.158203 82.882812 C 32.729742 80.288653 31.465568 77.345521 30.404297 74.130859 z M 52.5 74.130859 L 70.521484 74.130859 C 69.460213 77.345521 68.19604 80.288653 66.767578 82.882812 C 63.33995 89.107564 59.11242 93.191264 54.626953 94.765625 C 53.922902 94.837305 53.213353 94.888795 52.5 94.927734 L 52.5 74.130859 z M 75.775391 74.130859 L 87.990234 74.130859 C 82.968688 82.028446 75.557371 88.245533 66.761719 91.771484 C 68.365599 89.851391 69.836506 87.677457 71.148438 85.294922 C 72.979247 81.970075 74.536142 78.215463 75.775391 74.130859 z "
     style="color:#000000;overflow:visible;fill:#000080;stroke-width:3.64359;stroke-linecap:round;stroke-linejoin:round;stroke-dashoffset:188.976"
     id="path865" />
</svg>
