<?xml version="1.0" encoding="UTF-8" standalone="no"?>
<svg
   xmlns:dc="http://purl.org/dc/elements/1.1/"
   xmlns:cc="http://creativecommons.org/ns#"
   xmlns:rdf="http://www.w3.org/1999/02/22-rdf-syntax-ns#"
   xmlns:svg="http://www.w3.org/2000/svg"
   xmlns="http://www.w3.org/2000/svg"
   xmlns:sodipodi="http://sodipodi.sourceforge.net/DTD/sodipodi-0.dtd"
   xmlns:inkscape="http://www.inkscape.org/namespaces/inkscape"
   inkscape:version="1.0 (4035a4fb49, 2020-05-01)"
   sodipodi:docname="earth-australia-o.svg"
   id="svg4460"
   height="100"
   width="100"
   version="1.1">
  <sodipodi:namedview
     inkscape:document-rotation="0"
     inkscape:current-layer="svg4460"
     inkscape:window-maximized="1"
     inkscape:window-y="-8"
     inkscape:window-x="-8"
     inkscape:cy="50.669997"
     inkscape:cx="55.165521"
     inkscape:zoom="5.3810826"
     showgrid="false"
     id="namedview11"
     inkscape:window-height="1017"
     inkscape:window-width="1920"
     inkscape:pageshadow="2"
     inkscape:pageopacity="0"
     guidetolerance="10"
     gridtolerance="10"
     objecttolerance="10"
     borderopacity="1"
     bordercolor="#666666"
     pagecolor="#ffffff" />
  <defs
     id="defs4462" />
  <metadata
     id="metadata4465">
    <rdf:RDF>
      <cc:Work
         rdf:about="">
        <dc:format>image/svg+xml</dc:format>
        <dc:type
           rdf:resource="http://purl.org/dc/dcmitype/StillImage" />
        <dc:title />
      </cc:Work>
    </rdf:RDF>
  </metadata>
  <path
     id="path1091-0"
     style="color:#000000;overflow:visible;fill:#000080;stroke:none;stroke-width:3;stroke-linecap:round;stroke-linejoin:round;stroke-miterlimit:4;stroke-dasharray:none;stroke-dashoffset:188.976;stroke-opacity:1"
     d="M 50 0 C 22.403544 -1.7069981e-07 -1.706998e-07 22.403544 0 50 C 7.32047e-15 77.596456 22.403544 100 50 100 C 77.546342 100 99.911024 77.675897 99.992188 50.148438 A 1.5 1.5 0 0 0 100 50 A 1.5 1.5 0 0 0 99.994141 49.867188 C 99.921533 22.332437 77.551636 0 50 0 z M 50 3 C 50.449426 3 50.893465 3.0206982 51.339844 3.0332031 C 52.133165 3.2040207 52.827427 3.383397 53.142578 3.5839844 C 54.311218 3.2826465 54.591924 3.2546114 54.529297 3.2207031 C 60.349963 3.7763739 65.855963 5.3948361 70.859375 7.875 C 70.857327 8.0212796 70.858779 8.172705 70.882812 8.3632812 C 69.103433 8.8028213 73.175464 12.216231 71.546875 14.337891 C 71.33234 17.265251 67.875006 20.819864 66.242188 20.646484 C 68.348297 23.446714 67.972472 28.383668 64.306641 27.992188 C 61.562495 28.089488 60.336847 30.849339 58.384766 32.318359 C 59.26667 29.620119 56.759511 29.439085 57.070312 27.453125 C 55.329141 28.685105 55.511031 29.472955 53.996094 27.265625 C 55.536123 26.133655 53.191702 23.341315 52.601562 23.046875 C 51.224624 23.820785 49.785725 23.420981 51.925781 25.056641 C 46.492727 26.666171 54.188394 30.365599 51.167969 33.855469 C 49.298764 38.285959 44.80023 40.822537 40.203125 41.373047 C 41.532682 44.428957 35.484571 46.119706 37.818359 42.347656 C 39.270859 39.423596 32.116348 43.605311 36.146484 45.306641 C 38.580471 47.299711 39.328882 52.356694 35.617188 53.458984 C 33.516427 55.866274 32.587794 54.563591 31.091797 52.431641 C 29.460731 47.764231 26.487409 52.647949 28.777344 55.162109 C 31.970351 57.686199 32.050119 60.689459 33.101562 63.943359 C 32.285148 66.216579 38.793359 66.716548 35.728516 67.892578 C 31.625749 67.972278 38.47172 72.173569 39.28125 70.255859 C 41.582724 71.507419 46.570051 71.206873 44.074219 72.470703 C 46.83574 72.796513 51.577203 73.360746 48.296875 69.660156 C 47.119791 67.774696 48.008645 64.205729 50.652344 62.699219 C 52.861258 65.047169 56.275628 59.57883 55.425781 63.28125 C 53.652573 64.69086 52.390644 65.982789 55.671875 66.099609 C 56.993754 68.995279 60.561991 66.404979 59.910156 64.443359 C 61.816252 63.905699 65.770585 64.52707 67.591797 65.21875 C 70.608853 65.21575 75.555341 65.876926 76.839844 67.978516 C 77.877579 66.719356 81.246438 67.583488 80.287109 65.267578 C 78.51208 64.623118 79.414028 62.248939 81.013672 64.449219 C 83.183011 64.593219 84.509506 68.236582 87.232422 68.195312 C 89.301677 71.867302 84.743453 69.503974 85.353516 68.621094 C 83.79834 72.171524 83.18046 63.779111 81.621094 67.082031 C 79.906055 68.006941 75.913949 70.711579 79.402344 70.568359 C 81.688802 69.730629 78.938529 75.237438 76.419922 72.392578 C 73.262479 68.856278 71.167617 75.609267 74.064453 76.560547 C 74.156483 78.930147 76.16797 80.342118 77.113281 82.298828 C 79.607013 84.783438 73.939714 88.758631 71.914062 90.744141 C 70.943383 91.154394 69.953471 92.168829 69.017578 92.986328 C 68.196204 93.349881 67.364903 93.69464 66.519531 94.011719 C 66.210315 93.855686 65.923372 93.53846 65.666016 92.976562 C 62.964249 92.843362 61.22636 90.913928 58.091797 90.929688 C 53.895965 91.251216 48.928509 94.010204 45.142578 92.115234 C 45.456162 89.403374 39.704275 84.815055 45.261719 83.578125 C 49.578792 83.879875 51.646217 80.432137 54.740234 78.304688 C 56.841082 77.192138 59.940421 79.619351 59.867188 76.238281 C 60.003751 74.157671 66.192543 75.177533 66.957031 75.314453 C 66.103944 78.037133 65.502297 79.163688 69.121094 78.892578 C 69.716118 80.865878 72.679036 73.052166 71.017578 73.003906 C 69.629002 71.769526 65.659668 73.299792 68.748047 70.826172 C 67.300055 67.382912 62.095398 70.610056 61.980469 66.566406 C 59.192024 66.265116 64.578033 70.741246 60.326172 68.472656 C 56.608374 69.979066 54.775598 66.715619 51.611328 66.787109 C 53.282702 68.445149 55.297101 72.233173 51.626953 70.783203 C 49.537854 67.436423 50.146098 71.869329 50.914062 72.724609 C 51.394405 70.239869 51.545562 74.381856 53.748047 72.509766 C 55.501532 70.995966 61.384194 73.269271 57.433594 72.869141 C 57.888587 73.168481 50.095441 78.138821 52.865234 74.269531 C 52.885444 73.070861 48.993653 74.673788 51.611328 75.205078 C 48.796631 75.662838 45.572225 73.340764 42.207031 73.433594 C 38.363139 73.000474 34.225826 72.481974 31.636719 69.339844 C 29.639557 66.445614 26.530708 67.081041 26.074219 63.087891 C 25.39634 61.118321 23.052776 58.573212 23.302734 56.513672 C 26.030476 56.213352 29.654409 63.114927 27.839844 57.623047 C 25.923644 55.247607 25.340528 51.640592 26.355469 48.794922 C 26.647419 45.902612 25.471137 45.936932 23.591797 46.326172 C 23.096179 44.070772 23.617465 38.062891 19.357422 39.775391 C 16.948605 42.355631 12.635735 43.799582 12.550781 47.695312 C 11.420177 49.223363 14.830638 56.140018 11.486328 54.142578 C 11.707469 51.227908 11.161291 51.847439 9.9628906 51.855469 C 8.7396366 47.588409 8.8044562 42.929738 9.3320312 38.642578 C 7.1486564 36.597968 10.649837 33.946449 6.6015625 33.417969 C 5.6846572 31.593054 5.8704183 37.230551 4.2949219 39.048828 C 9.2257275 18.36578 27.797857 2.9999998 50 3 z M 66.892578 7.6660156 C 66.789362 7.6561104 66.689399 7.6595715 66.595703 7.6757812 C 66.145964 7.753588 65.859648 8.1354481 66.246094 8.8613281 C 63.568498 7.7418681 56.73965 10.327787 62.443359 11.779297 C 62.227604 10.291927 67.65799 15.892529 65.197266 15.386719 C 66.315388 16.810269 66.498391 17.343664 65.595703 17.246094 C 66.007348 18.167244 67.172599 18.477123 68.056641 18.095703 C 72.586891 16.278363 70.365626 12.110411 67.833984 9.6503906 C 68.458318 8.4365414 67.61509 7.7353522 66.892578 7.6660156 z M 78.246094 12.423828 C 78.485905 12.604308 78.716918 12.795533 78.953125 12.980469 C 78.116961 12.867146 78.067114 12.678979 78.246094 12.423828 z M 63.205078 13.550781 C 63.088185 13.50969 63.12378 13.962019 63.435547 15.207031 C 63.218397 18.903281 60.025287 19.884646 57.730469 20.884766 C 54.635226 23.036586 58.956269 24.390934 58.238281 27.333984 C 57.955266 27.863184 58.90714 27.876784 58.927734 27.458984 C 60.487507 25.000424 62.886368 26.039772 64.107422 24.169922 C 66.262338 23.949852 63.680297 20.325183 65.078125 19.101562 C 65.284368 18.23181 63.555756 13.674054 63.205078 13.550781 z M 50.96875 36.978516 C 51.622257 37.022244 51.98432 37.718823 51.125 39.449219 C 50.737971 40.231999 51.528847 41.328129 49.576172 40.449219 C 47.981631 38.648825 49.879571 36.905635 50.96875 36.978516 z M 50.664062 43.3125 C 51.658547 43.212582 52.650162 44.43473 52.238281 46.560547 C 49.799341 48.400937 55.122464 48.454485 54.853516 50.390625 C 56.657026 52.195395 58.53112 59.391494 54.244141 58.714844 C 52.455541 54.610954 51.354917 60.037833 48.478516 59.876953 C 45.440537 60.828783 49.811758 63.134072 47.746094 64.326172 C 45.940345 64.514792 45.960291 70.129247 44.566406 69.341797 C 43.569514 68.418877 38.580181 69.169123 37.925781 66.470703 C 35.653914 65.112753 37.481195 61.316283 36.007812 59.101562 C 37.44782 59.354143 38.250376 64.610691 40.054688 60.863281 C 44.107002 59.915171 45.296501 55.616076 47.849609 53.041016 C 50.414831 50.958456 48.736539 48.955918 49 46.142578 C 49.116165 44.267562 49.890575 43.390214 50.664062 43.3125 z M 50.148438 51.791016 C 49.41238 54.119696 43.881927 56.590379 48.505859 58.511719 L 49.253906 58.515625 L 49.490234 58.296875 C 51.997577 57.409075 51.421542 54.330424 51.402344 52.414062 C 50.210492 52.789082 50.545411 52.981536 50.148438 51.791016 z M 58.861328 61.931641 C 59.407577 61.987716 59.638934 62.783519 58.792969 64.691406 C 59.379366 65.835876 57.812835 67.712884 57.041016 66.089844 C 56.166351 63.799863 57.950914 61.838181 58.861328 61.931641 z " />
</svg>
