<?xml version="1.0" encoding="UTF-8" standalone="no"?>
<svg
   xmlns:dc="http://purl.org/dc/elements/1.1/"
   xmlns:cc="http://creativecommons.org/ns#"
   xmlns:rdf="http://www.w3.org/1999/02/22-rdf-syntax-ns#"
   xmlns:svg="http://www.w3.org/2000/svg"
   xmlns="http://www.w3.org/2000/svg"
   xmlns:sodipodi="http://sodipodi.sourceforge.net/DTD/sodipodi-0.dtd"
   xmlns:inkscape="http://www.inkscape.org/namespaces/inkscape"
   inkscape:version="1.0 (4035a4fb49, 2020-05-01)"
   sodipodi:docname="earth-north-o.svg"
   id="svg4460"
   height="100"
   width="100"
   version="1.1">
  <sodipodi:namedview
     inkscape:document-rotation="0"
     inkscape:current-layer="svg4460"
     inkscape:window-maximized="1"
     inkscape:window-y="-8"
     inkscape:window-x="-8"
     inkscape:cy="42.661408"
     inkscape:cx="55.262217"
     inkscape:zoom="5.3810826"
     showgrid="false"
     id="namedview11"
     inkscape:window-height="1017"
     inkscape:window-width="1920"
     inkscape:pageshadow="2"
     inkscape:pageopacity="0"
     guidetolerance="10"
     gridtolerance="10"
     objecttolerance="10"
     borderopacity="1"
     bordercolor="#666666"
     pagecolor="#ffffff" />
  <defs
     id="defs4462" />
  <metadata
     id="metadata4465">
    <rdf:RDF>
      <cc:Work
         rdf:about="">
        <dc:format>image/svg+xml</dc:format>
        <dc:type
           rdf:resource="http://purl.org/dc/dcmitype/StillImage" />
        <dc:title />
      </cc:Work>
    </rdf:RDF>
  </metadata>
  <path
     id="path1091-1"
     style="color:#000000;overflow:visible;fill:#000080;stroke:none;stroke-width:3;stroke-linecap:round;stroke-linejoin:round;stroke-miterlimit:4;stroke-dasharray:none;stroke-dashoffset:188.976;stroke-opacity:1"
     d="M 50 0 C 22.403544 -1.7069981e-07 -1.706998e-07 22.403544 0 50 C 7.32047e-15 77.596456 22.403544 100 50 100 C 77.546342 100 99.911024 77.675897 99.992188 50.148438 A 1.5 1.5 0 0 0 100 50 A 1.5 1.5 0 0 0 99.994141 49.867188 C 99.921533 22.332437 77.551636 0 50 0 z M 52.578125 3.0722656 C 53.307619 3.1116397 54.033673 3.1660739 54.753906 3.2382812 C 54.528413 3.5388708 54.450824 3.9248484 54.607422 4.4335938 C 55.05168 3.8822311 55.651972 3.5863737 56.324219 3.4335938 C 79.302125 6.5201383 97 26.171002 97 50 C 97 71.385547 82.743061 89.403553 63.210938 95.107422 C 62.833766 93.909184 63.684418 91.725569 64.755859 90.726562 C 66.383139 89.993912 64.272007 88.234031 65.966797 88.837891 C 68.008987 88.679061 69.952196 84.04904 70.066406 82.25 C 67.019806 84.50812 66.520861 78.115859 67.931641 77.292969 C 70.554601 77.167879 73.612846 74.384868 70.072266 73.205078 C 65.007836 73.940478 75.050509 66.682944 69.412109 70.521484 C 67.165829 74.601844 67.167705 68.206737 66.359375 68.904297 C 66.911505 72.399277 62.613222 72.494701 63.482422 69.025391 C 66.567652 67.498311 62.435831 65.647984 64.394531 64.277344 C 65.225701 63.275974 65.886933 61.754052 66.601562 63.919922 C 67.111964 65.430442 71.113896 67.970444 71.916016 67.490234 C 72.234846 64.917034 73.946731 63.248631 71.925781 60.994141 C 73.108501 55.727831 70.403686 64.24001 68.447266 59.78125 C 66.957736 56.97272 68.891501 50.881568 66.494141 50.486328 C 65.402471 45.544858 68.846701 42.046122 73.457031 41.195312 C 74.947881 40.523314 69.965025 39.925874 72.984375 38.490234 C 72.403765 36.504884 72.116304 32.576588 70.240234 36.142578 C 67.920784 37.276728 61.776588 30.672526 64.955078 31.285156 C 66.180438 35.637106 73.258584 34.51654 70.882812 31.53125 C 66.976512 32.15591 68.640444 28.711751 67.083984 29.300781 C 67.681344 28.128981 65.949604 27.405319 63.958984 26.849609 C 61.127604 25.477879 59.007044 23.51219 59.777344 27.46875 C 55.029504 29.9816 59.525799 23.973457 58.287109 21.966797 C 61.475329 19.465757 55.490139 19.783821 55.599609 17.550781 C 55.362469 15.347991 50.904154 17.722606 53.121094 20.097656 C 50.410694 20.373906 47.138313 18.042101 51.783203 18.613281 C 50.322271 16.296134 47.760362 15.836314 45.578125 15.808594 C 44.850713 15.799354 44.164029 15.839457 43.576172 15.873047 C 40.924972 18.689047 33.185493 15.970273 32.976562 19.689453 C 36.780563 19.538333 32.715389 25.475042 30.730469 26.914062 C 27.619139 29.200312 30.535686 32.529176 28.222656 35.253906 C 27.414816 37.312906 31.065921 34.323037 30.019531 33.273438 C 33.665691 31.233287 33.984179 35.039636 31.886719 37.097656 C 34.745439 38.786246 30.416007 40.152874 29.998047 41.777344 C 27.928927 42.723944 32.537447 42.582789 31.466797 40.630859 C 32.559727 39.049069 36.447581 40.582926 33.837891 37.853516 C 31.932281 36.331636 34.46789 31.755299 36.3125 34.162109 C 39.29053 35.475819 36.928214 37.079498 35.433594 35.742188 C 34.468254 36.624788 36.822324 36.333802 35.771484 37.289062 C 37.638704 36.048262 39.466375 36.203354 39.109375 38.308594 C 39.469755 35.451524 45.853902 37.873362 46.513672 40.232422 C 49.337562 38.559832 54.737676 40.857168 53.003906 44.085938 C 53.155166 46.134577 54.512905 48.037493 53.953125 50.095703 C 53.914825 53.563993 53.763894 56.930546 49.539062 58.160156 C 46.533454 60.036646 45.148731 62.70218 43.238281 65.71875 C 39.139991 63.69557 39.947412 57.752633 40.951172 54.070312 C 41.310502 51.577053 43.818574 47.451321 40.677734 45.550781 C 39.785194 43.917021 41.593376 41.826447 39.103516 43.560547 C 36.171026 46.974977 35.344611 39.69784 34.488281 42.84375 C 31.004661 41.42813 30.364779 50.429992 32.042969 44.982422 C 35.245169 40.193322 37.690434 46.205221 37.277344 49.181641 C 36.617954 51.781591 37.168909 53.768791 37.130859 56.113281 C 34.919679 56.025881 34.566442 60.476622 32.857422 59.289062 C 31.492942 57.973793 30.951351 52.413496 29.582031 54.853516 C 31.432531 55.615936 30.902005 59.409492 31.140625 61.226562 C 35.433515 58.167172 31.503049 67.170198 34.662109 68.673828 C 34.659109 71.399018 33.866346 72.643408 35.259766 74.892578 C 34.506426 78.182568 27.715778 72.242939 32.767578 71.105469 C 31.822778 71.514009 28.911879 69.722646 29.605469 71.535156 C 28.678509 70.240876 25.881791 67.472411 28.207031 70.363281 C 26.554501 72.117291 28.821529 73.981656 30.011719 73.603516 C 29.591769 76.464566 24.861839 73.982876 23.855469 72.535156 C 21.690979 71.552286 22.558023 75.029615 20.070312 72.671875 C 17.348962 72.761475 16.557325 75.435656 13.609375 72.884766 C 12.471955 73.169866 13.25452 77.887388 11.3125 74.736328 C 11.2561 69.612158 7.8780269 67.271459 5.4980469 63.162109 C 5.3171225 63.38681 5.1860249 63.619601 5.0761719 63.855469 C 3.7287046 59.475734 3 54.824219 3 50 C 3 48.772112 3.0620301 47.559535 3.1542969 46.355469 C 3.3247067 45.841286 3.5152984 45.328904 3.7324219 44.822266 C 3.9924919 39.662646 8.361923 37.624448 11.839844 35.236328 C 12.515934 33.213898 17.838241 31.309661 14.238281 31.894531 C 17.287841 29.438801 22.006239 27.728769 22.949219 23.443359 C 23.832519 22.137279 21.292211 18.711506 23.525391 19.759766 C 23.376321 15.958186 26.949539 12.871754 29.724609 10.365234 C 33.259429 8.5330645 25.145698 13.885839 25.492188 16.261719 C 22.821928 21.398429 28.66895 15.798068 29.625 16.398438 C 30.93654 17.537807 28.999409 20.528059 31.505859 18.199219 C 34.337179 17.819299 33.276543 15.163243 36.533203 15.007812 C 34.470143 12.370464 39.605715 10.733246 41.484375 8.8847656 C 41.077315 6.6681456 44.502948 4.5529131 46.304688 4.1582031 C 44.147568 5.2234331 47.636942 7.7701519 44.289062 9.0449219 C 45.640032 10.404132 47.516697 6.2416613 50.123047 8.0195312 C 52.511347 8.8489712 58.233235 5.9794962 52.984375 6.0976562 C 52.212051 4.528934 53.024751 3.4851952 52.578125 3.0722656 z M 59.498047 31.986328 C 59.783428 31.990855 60.246926 32.273699 60.955078 32.974609 C 61.253168 33.818639 61.532183 36.212986 59.939453 35.566406 C 59.388271 34.451719 58.641905 31.972746 59.498047 31.986328 z M 59.056641 38.669922 C 59.327113 38.648539 59.637358 38.731581 59.986328 38.953125 C 62.335058 38.544365 58.462145 40.395261 61.640625 40.587891 C 61.952075 42.136101 59.980057 41.377539 61.216797 43.224609 L 60.824219 43.207031 C 57.290278 44.109979 57.163335 38.819599 59.056641 38.669922 z M 89.916016 42.572266 C 89.643466 44.481896 90.737036 48.1933 93.003906 45.8125 C 93.392006 46.09731 93.721711 48.218152 94.212891 46.763672 C 96.065771 41.761772 89.591196 46.613166 89.916016 42.572266 z M 32.5625 48.826172 C 32.472627 48.807845 32.245181 49.010044 31.705078 49.662109 C 28.779678 49.286179 29.590962 54.798817 26.638672 52.554688 C 29.531932 51.937857 25.106032 51.027032 27.826172 49.757812 C 24.256692 48.036763 19.744436 49.971486 21.722656 54.492188 C 22.932316 56.516278 21.598716 59.232169 22.791016 60.386719 L 22.902344 60.091797 L 22.902344 60.095703 C 23.538024 58.683643 26.806839 60.378583 26.037109 57.039062 C 28.282829 56.157044 29.177284 51.13724 32.115234 52.875 C 35.392144 52.3035 30.747898 50.465634 33.048828 49.714844 C 32.29484 49.974856 32.76022 48.866491 32.5625 48.826172 z M 90.730469 52.099609 C 88.432299 53.312659 89.348106 56.450113 86.878906 56.970703 C 86.935206 57.553183 87.369461 61.801203 88.494141 59.914062 C 88.372691 57.479793 92.241579 53.171999 90.730469 52.099609 z M 75.433594 53.960938 C 75.312625 53.944004 75.19028 53.947281 75.066406 53.976562 C 73.940386 56.273404 77.095357 59.558274 75.248047 60.490234 C 74.652787 61.809644 75.359846 60.424583 75.759766 60.626953 C 78.609634 59.373056 77.24813 54.214933 75.433594 53.960938 z M 57.087891 58.017578 C 59.765967 57.784329 57.538665 63.422837 54.226562 61.726562 C 53.391973 60.657342 52.382563 58.112025 55.626953 58.515625 C 56.220868 58.204166 56.705308 58.050899 57.087891 58.017578 z M 92.261719 58.757812 C 92.955209 61.473492 89.894334 61.532591 89.964844 65.269531 C 88.526974 69.939071 84.461494 65.470111 82.271484 67.644531 C 77.245324 68.291791 83.230419 68.453964 84.761719 67.458984 C 84.519239 69.252454 84.367447 74.772926 82.154297 72.166016 C 86.759977 68.297476 76.710649 70.426404 80.412109 73.146484 C 77.730869 76.324294 79.368115 68.932104 78.171875 70.871094 C 75.620595 73.563074 74.981728 76.765905 73.804688 80.078125 C 73.898888 80.307645 70.671348 82.367634 72.111328 81.839844 C 75.666788 79.792364 78.958448 74.720779 82.142578 73.849609 C 83.015758 76.948189 88.098265 72.165022 87.984375 69.888672 C 90.183605 67.065412 95.307309 61.422853 92.261719 58.757812 z M 9.6269531 73.865234 C 9.7393294 73.865007 10.259261 74.299794 11.447266 75.402344 C 12.477006 77.274564 13.479739 78.487011 13.136719 75.962891 C 15.476139 77.426151 16.893726 84.060409 14.322266 78.474609 C 12.549896 78.461609 17.326176 82.513594 18.228516 83.964844 C 18.581907 84.278209 19.547446 85.520105 19.427734 85.695312 C 16.680501 83.340676 14.208285 80.677674 12.066406 77.753906 C 11.14107 76.01589 9.3770134 73.86574 9.6269531 73.865234 z M 23.136719 88.191406 C 23.30047 88.213917 23.683718 88.56531 24.3125 89.361328 C 23.898137 89.090503 23.489117 88.812717 23.083984 88.529297 C 23.016149 88.306388 23.027004 88.176324 23.136719 88.191406 z " />
</svg>
