<?xml version="1.0" encoding="UTF-8" standalone="no"?>
<svg
   xmlns:dc="http://purl.org/dc/elements/1.1/"
   xmlns:cc="http://creativecommons.org/ns#"
   xmlns:rdf="http://www.w3.org/1999/02/22-rdf-syntax-ns#"
   xmlns:svg="http://www.w3.org/2000/svg"
   xmlns="http://www.w3.org/2000/svg"
   xmlns:sodipodi="http://sodipodi.sourceforge.net/DTD/sodipodi-0.dtd"
   xmlns:inkscape="http://www.inkscape.org/namespaces/inkscape"
   inkscape:version="1.0 (4035a4fb49, 2020-05-01)"
   sodipodi:docname="uEA37-globe-alt.svg"
   id="svg4460"
   height="100"
   width="100"
   version="1.1">
  <sodipodi:namedview
     inkscape:document-rotation="0"
     inkscape:current-layer="svg4460"
     inkscape:window-maximized="1"
     inkscape:window-y="-8"
     inkscape:window-x="-8"
     inkscape:cy="58.351341"
     inkscape:cx="124.42877"
     inkscape:zoom="3.805"
     showgrid="false"
     id="namedview11"
     inkscape:window-height="1017"
     inkscape:window-width="1920"
     inkscape:pageshadow="2"
     inkscape:pageopacity="0"
     guidetolerance="10"
     gridtolerance="10"
     objecttolerance="10"
     borderopacity="1"
     bordercolor="#666666"
     pagecolor="#ffffff" />
  <defs
     id="defs4462" />
  <metadata
     id="metadata4465">
    <rdf:RDF>
      <cc:Work
         rdf:about="">
        <dc:format>image/svg+xml</dc:format>
        <dc:type
           rdf:resource="http://purl.org/dc/dcmitype/StillImage" />
        <dc:title />
      </cc:Work>
    </rdf:RDF>
  </metadata>
  <path
     d="M 47.5 5.2695312 C 42.400861 6.3354777 37.544204 10.629358 33.695312 17.619141 C 32.548003 19.702716 31.509261 22.015173 30.59375 24.507812 C 35.75554 25.831631 41.46707 26.656797 47.5 26.835938 L 47.5 5.2695312 z M 52.5 5.2695312 L 52.5 26.835938 C 58.53293 26.656799 64.24446 25.831632 69.40625 24.507812 C 68.490739 22.015173 67.451998 19.702716 66.304688 17.619141 C 62.455795 10.629358 57.599139 6.3354777 52.5 5.2695312 z M 34.587891 7.7011719 C 27.876229 10.142099 21.914624 14.134277 17.132812 19.244141 C 17.296142 19.33709 17.452463 19.431658 17.619141 19.523438 C 20.054636 20.864531 22.799202 22.058431 25.785156 23.078125 C 26.809248 20.256587 27.987643 17.616587 29.314453 15.207031 C 30.865341 12.39054 32.633845 9.8565742 34.587891 7.7011719 z M 65.412109 7.7011719 C 67.366155 9.8565742 69.134659 12.39054 70.685547 15.207031 C 72.012404 17.616672 73.190633 20.257594 74.212891 23.080078 C 77.199767 22.060208 79.944718 20.864887 82.380859 19.523438 C 82.547537 19.431656 82.703858 19.337091 82.867188 19.244141 C 78.085376 14.134277 72.123771 10.142099 65.412109 7.7011719 z M 13.884766 23.134766 C 8.7706501 30.00525 5.5696696 38.387702 5.0722656 47.5 L 21.378906 47.5 C 21.572141 40.474778 22.576088 33.829903 24.25 27.847656 C 20.981775 26.734921 17.947825 25.413502 15.207031 23.904297 C 14.755883 23.655874 14.320222 23.394762 13.884766 23.134766 z M 86.115234 23.134766 C 85.679778 23.394762 85.244117 23.655874 84.792969 23.904297 C 82.050255 25.414559 79.013105 26.736636 75.742188 27.849609 C 77.411117 33.831967 78.410594 40.47683 78.603516 47.5 L 94.927734 47.5 C 94.430331 38.387702 91.22935 30.00525 86.115234 23.134766 z M 29.056641 29.283203 C 27.528979 34.780487 26.577213 40.953139 26.382812 47.5 L 47.5 47.5 L 47.5 31.824219 C 40.944204 31.644021 34.72159 30.758556 29.056641 29.283203 z M 70.943359 29.283203 C 65.278701 30.757938 59.055256 31.6421 52.5 31.822266 L 52.5 47.5 L 73.617188 47.5 C 73.422788 40.953139 72.471021 34.780487 70.943359 29.283203 z M 5.0722656 52.5 C 5.5696696 61.612298 8.7706501 69.99475 13.884766 76.865234 C 14.320222 76.605238 14.755883 76.344126 15.207031 76.095703 C 17.947676 74.58658 20.982846 73.264801 24.25 72.150391 C 22.576391 66.168613 21.572121 59.524516 21.378906 52.5 L 5.0722656 52.5 z M 26.382812 52.5 C 26.577123 59.043807 27.528276 65.213633 29.054688 70.708984 C 34.719732 69.230102 40.942429 68.340527 47.5 68.160156 L 47.5 52.5 L 26.382812 52.5 z M 52.5 52.5 L 52.5 68.160156 C 59.057571 68.340527 65.280267 69.230102 70.945312 70.708984 C 72.471724 65.213633 73.422877 59.043807 73.617188 52.5 L 52.5 52.5 z M 78.605469 52.5 C 78.412513 59.522553 77.413284 66.166589 75.744141 72.148438 C 79.01354 73.263262 82.050679 74.585674 84.792969 76.095703 C 85.244117 76.344126 85.679778 76.605238 86.115234 76.865234 C 91.22935 69.99475 94.430331 61.612298 94.927734 52.5 L 78.605469 52.5 z M 47.5 73.164062 C 41.46707 73.343201 35.75554 74.168368 30.59375 75.492188 C 31.509261 77.984827 32.548002 80.297284 33.695312 82.380859 C 37.544205 89.370642 42.400861 93.664522 47.5 94.730469 L 47.5 73.164062 z M 52.5 73.164062 L 52.5 94.730469 C 57.599139 93.664522 62.455796 89.370642 66.304688 82.380859 C 67.451998 80.297284 68.490739 77.984826 69.40625 75.492188 C 64.24446 74.168368 58.53293 73.343202 52.5 73.164062 z M 74.212891 76.919922 C 73.190414 79.742395 72.012425 82.383289 70.685547 84.792969 C 69.134659 87.60946 67.366155 90.143426 65.412109 92.298828 C 72.123771 89.857901 78.085375 85.865723 82.867188 80.755859 C 82.703859 80.66291 82.547537 80.568342 82.380859 80.476562 C 79.944718 79.135114 77.199767 77.939792 74.212891 76.919922 z M 25.785156 76.921875 C 22.799202 77.941569 20.054636 79.135469 17.619141 80.476562 C 17.452463 80.568344 17.296142 80.662909 17.132812 80.755859 C 21.914624 85.865723 27.876229 89.857901 34.587891 92.298828 C 32.633845 90.143426 30.865341 87.60946 29.314453 84.792969 C 27.987643 82.383413 26.809248 79.743413 25.785156 76.921875 z "
     style="color:#000000;font-style:normal;font-variant:normal;font-weight:normal;font-stretch:normal;font-size:medium;line-height:normal;font-family:sans-serif;font-variant-ligatures:normal;font-variant-position:normal;font-variant-caps:normal;font-variant-numeric:normal;font-variant-alternates:normal;font-variant-east-asian:normal;font-feature-settings:normal;font-variation-settings:normal;text-indent:0;text-align:start;text-decoration:none;text-decoration-line:none;text-decoration-style:solid;text-decoration-color:#000000;letter-spacing:normal;word-spacing:normal;text-transform:none;writing-mode:lr-tb;direction:ltr;text-orientation:mixed;dominant-baseline:auto;baseline-shift:baseline;text-anchor:start;white-space:normal;shape-padding:0;shape-margin:0;inline-size:0;clip-rule:nonzero;display:inline;overflow:visible;visibility:visible;isolation:auto;mix-blend-mode:normal;color-interpolation:sRGB;color-interpolation-filters:linearRGB;solid-color:#000000;solid-opacity:1;vector-effect:none;fill:#000080;fill-opacity:1;fill-rule:nonzero;stroke:none;stroke-width:5;stroke-linecap:round;stroke-linejoin:round;stroke-miterlimit:4;stroke-dasharray:none;stroke-dashoffset:188.976;stroke-opacity:1;color-rendering:auto;image-rendering:auto;shape-rendering:auto;text-rendering:auto;enable-background:accumulate;stop-color:#000000;stop-opacity:1;opacity:1"
     id="path862" />
</svg>
