<?xml version="1.0" encoding="UTF-8" standalone="no"?>
<svg
   xmlns:dc="http://purl.org/dc/elements/1.1/"
   xmlns:cc="http://creativecommons.org/ns#"
   xmlns:rdf="http://www.w3.org/1999/02/22-rdf-syntax-ns#"
   xmlns:svg="http://www.w3.org/2000/svg"
   xmlns="http://www.w3.org/2000/svg"
   xmlns:sodipodi="http://sodipodi.sourceforge.net/DTD/sodipodi-0.dtd"
   xmlns:inkscape="http://www.inkscape.org/namespaces/inkscape"
   inkscape:version="1.0 (4035a4fb49, 2020-05-01)"
   sodipodi:docname="earth-asia-o.svg"
   id="svg4460"
   height="100"
   width="100"
   version="1.1">
  <sodipodi:namedview
     inkscape:document-rotation="0"
     inkscape:current-layer="svg4460"
     inkscape:window-maximized="1"
     inkscape:window-y="-8"
     inkscape:window-x="-8"
     inkscape:cy="46.140338"
     inkscape:cx="105.00166"
     inkscape:zoom="3.805"
     showgrid="false"
     id="namedview11"
     inkscape:window-height="1017"
     inkscape:window-width="1920"
     inkscape:pageshadow="2"
     inkscape:pageopacity="0"
     guidetolerance="10"
     gridtolerance="10"
     objecttolerance="10"
     borderopacity="1"
     bordercolor="#666666"
     pagecolor="#ffffff" />
  <defs
     id="defs4462" />
  <metadata
     id="metadata4465">
    <rdf:RDF>
      <cc:Work
         rdf:about="">
        <dc:format>image/svg+xml</dc:format>
        <dc:type
           rdf:resource="http://purl.org/dc/dcmitype/StillImage" />
        <dc:title />
      </cc:Work>
    </rdf:RDF>
  </metadata>
  <path
     id="path1091-8"
     style="color:#000000;overflow:visible;fill:#000080;stroke:none;stroke-width:3;stroke-linecap:round;stroke-linejoin:round;stroke-miterlimit:4;stroke-dasharray:none;stroke-dashoffset:188.976;stroke-opacity:1"
     d="M 50 0 C 22.403544 -1.7069981e-07 -1.706998e-07 22.403544 0 50 C 7.32047e-15 77.596456 22.403544 100 50 100 C 77.546342 100 99.911024 77.675897 99.992188 50.148438 A 1.5 1.5 0 0 0 100 50 A 1.5 1.5 0 0 0 99.994141 49.867188 C 99.921533 22.332437 77.551636 0 50 0 z M 48.759766 3.2382812 C 50.077485 3.1398594 50.529891 3.4805687 47.707031 4.1367188 C 43.821161 5.2821887 49.771613 6.5582313 50.283203 4.3320312 C 52.833513 4.2467312 52.6944 4.1518344 53.34375 3.5839844 C 54.602521 3.6334655 55.01779 3.4835633 55.005859 3.2675781 C 67.37987 4.5754558 78.3088 10.6783 85.916016 19.683594 C 86.796828 21.824176 87.406069 23.993999 89.003906 25.648438 C 89.036106 25.894658 90.26817 27.741938 89.625 25.804688 C 89.670067 25.442649 89.659488 25.075945 89.613281 24.707031 C 90.360607 25.875701 91.057486 27.07817 91.701172 28.314453 C 91.658515 28.540689 91.596361 28.763306 91.498047 28.976562 C 93.377537 35.225013 88.800607 24.327677 89.460938 28.935547 C 87.937686 26.151847 86.166879 23.469429 84.599609 24.037109 C 82.867189 24.584839 88.068399 25.300862 86.417969 27.482422 C 89.462129 30.532942 91.038045 34.899401 89.828125 39.175781 C 87.973675 41.555391 87.083787 43.041454 86.710938 45.808594 C 85.163268 45.194654 86.358997 40.42591 84.310547 44.6875 C 87.322757 47.63869 89.308036 54.182964 84.347656 56.402344 C 84.555366 54.507734 79.928335 50.953864 80.609375 55.789062 C 82.117945 58.295992 85.20937 60.888324 84.75 64.771484 C 83.86293 66.550214 89.276873 65.938384 85.564453 67.652344 C 85.031903 68.285954 85.12901 70.216623 86.34375 69.158203 C 87.75001 69.347283 89.105593 67.515549 90.751953 68.162109 C 88.533123 69.968399 94.910783 67.404403 92.533203 65.564453 C 92.676033 62.831263 93.669566 58.537682 91.916016 63.451172 C 92.546586 67.443032 87.837744 66.460087 87.208984 65.529297 C 88.025264 64.186867 86.060081 57.007664 87.675781 60.746094 C 90.638511 61.278884 92.102921 53.773681 92.832031 50.613281 C 93.726831 48.190601 91.19631 42.896404 92.78125 42.121094 C 93.73566 45.750934 95.612063 47.03317 96.001953 51.09375 C 96.545543 53.59401 95.718792 54.659192 94.763672 54.138672 C 93.465892 55.867542 91.54292 62.068906 95 58.478516 C 97.20094 54.577056 94.191807 60.852014 95.023438 60.146484 C 95.985921 61.481586 96.015268 56.225974 96.587891 56.140625 C 96.303764 58.320599 95.872618 60.452223 95.300781 62.527344 C 95.279719 62.556792 95.263805 62.572457 95.242188 62.603516 C 94.200907 59.699126 94.947402 66.417124 93.226562 65.507812 C 92.981261 66.79634 93.550974 66.572061 94.167969 66.115234 C 93.772229 67.20094 93.327253 68.262073 92.855469 69.308594 C 90.862228 70.656937 87.797669 70.542873 85.640625 71.261719 C 83.262485 71.393069 81.591545 68.115182 80.015625 68.388672 C 78.359845 66.017982 79.013535 63.762392 76.609375 61.482422 C 77.711045 57.918942 83.578354 66.236115 81.027344 60.359375 C 77.868334 57.835335 79.170631 53.355707 78.050781 49.935547 C 75.900341 51.393607 74.628123 50.508804 74.814453 47.914062 C 73.409423 45.295142 71.022575 43.267916 68.421875 45.947266 C 66.843195 48.717036 63.942563 50.793888 62.070312 52.986328 C 61.067462 56.642768 64.372192 59.144175 63.701172 62.515625 C 60.433632 65.296325 62.118534 56.950371 59.195312 60.931641 C 56.098754 59.069101 55.69575 54.31737 53.96875 51.21875 C 52.78185 49.01174 54.507348 45.732771 51.205078 46.988281 C 48.170608 46.700641 50.238649 41.510493 48.449219 43.533203 C 45.747009 40.905693 40.080514 42.650101 37.458984 41.332031 C 39.905324 42.832491 41.726427 45.813316 38.623047 47.728516 C 36.515597 50.598776 32.657726 51.789494 29.316406 52.746094 C 27.881226 53.852684 20.658096 54.644662 25.941406 55.888672 C 28.085096 55.807572 29.131827 55.197773 30.998047 55.501953 C 31.544497 58.497643 28.808268 60.980696 27.423828 63.628906 C 25.280138 65.765016 22.488663 66.99808 20.914062 69.5 C 20.172773 72.03531 21.718936 75.070061 22.691406 77.556641 C 25.357636 81.283161 18.036925 80.689986 21.296875 83.878906 C 21.960327 85.471078 20.644805 85.159875 20.970703 86.960938 C 10.029717 78.358782 3 65.011116 3 50 C 2.9999999 40.409894 5.872056 31.499934 10.794922 24.068359 C 11.504152 24.94039 13.218423 26.049671 11.431641 26.580078 C 10.103011 28.163638 11.684334 33.902608 13.664062 29.830078 C 15.472403 31.400988 18.04222 33.473914 20.75 32.246094 C 22.46357 30.138394 23.147519 27.1392 21.068359 30 C 19.533259 30.0461 21.669373 27.277554 19.001953 28.339844 C 16.220123 29.773234 14.571355 27.820852 16.015625 24.732422 C 15.967625 21.563452 10.560882 30.390623 12.919922 24.564453 C 15.783142 24.243583 14.819893 19.025517 12.876953 23.435547 C 10.853909 23.866741 15.819175 19.749361 14.896484 19.878906 C 14.691938 19.907624 14.173547 20.161277 13.25 20.703125 C 19.145035 13.315761 27.216696 7.7488005 36.503906 4.9726562 C 38.242842 5.0392541 39.827445 5.6453759 40.544922 6.3828125 C 41.727072 5.2479825 48.242964 6.5304862 44.621094 4.9726562 C 45.259014 3.8742563 47.442046 3.3367031 48.759766 3.2382812 z M 24.46875 19.894531 C 21.79452 21.062451 20.15801 24.451134 24.46875 22.958984 C 25.89707 23.110134 27.112203 24.986238 28.658203 23.861328 C 28.938113 20.988018 24.35782 21.505511 24.46875 19.894531 z M 36.980469 20.212891 C 35.386351 20.156058 31.708998 23.250457 34.744141 25.505859 C 31.472311 27.486349 34.566203 29.678362 37.039062 28.794922 C 37.316922 26.078192 34.153778 21.833707 37.642578 20.804688 C 37.604572 20.406826 37.348342 20.226006 36.980469 20.212891 z M 12.091797 22.208984 C 12.100963 22.365268 11.999896 22.547409 11.685547 22.78125 C 11.821075 22.590734 11.953511 22.397374 12.091797 22.208984 z M 31.785156 36.546875 C 28.821676 36.486275 33.706689 40.379723 33.380859 41.814453 C 34.009759 41.968483 34.622259 41.731487 35.199219 41.523438 C 37.369969 39.901787 31.350276 39.161665 31.785156 36.546875 z M 19.267578 37.257812 C 18.954138 37.323702 18.770112 37.992159 19.1875 39.412109 C 19.96615 43.325829 19.546581 47.654991 21.832031 50.769531 C 22.096901 51.268411 22.924184 52.827121 22.865234 51.087891 C 22.240204 47.269321 20.802193 43.683398 20.101562 39.673828 C 20.285265 38.083253 19.670572 37.173099 19.267578 37.257812 z M 93.669922 49.916016 C 93.467741 49.977461 93.267842 50.606354 93.160156 52.140625 C 92.075566 52.649495 92.620694 56.875285 93.677734 55.109375 C 94.706674 53.676721 94.261742 50.159288 93.755859 49.923828 C 93.727116 49.91045 93.698805 49.907238 93.669922 49.916016 z M 88.128906 77.480469 C 86.975839 79.078224 85.726987 80.601076 84.386719 82.039062 C 85.477119 80.398349 86.646156 78.821146 88.128906 77.480469 z M 29.724609 78.876953 C 31.344632 78.683028 32.203935 83.971475 30.871094 85.824219 C 31.253574 88.093039 29.105328 88.845686 27.835938 87.066406 C 26.112758 84.898326 24.566087 80.356037 28.498047 79.998047 C 28.935318 79.259831 29.350758 78.921705 29.724609 78.876953 z " />
</svg>
