<?xml version="1.0" encoding="UTF-8" standalone="no"?>
<svg
   xmlns:dc="http://purl.org/dc/elements/1.1/"
   xmlns:cc="http://creativecommons.org/ns#"
   xmlns:rdf="http://www.w3.org/1999/02/22-rdf-syntax-ns#"
   xmlns:svg="http://www.w3.org/2000/svg"
   xmlns="http://www.w3.org/2000/svg"
   xmlns:sodipodi="http://sodipodi.sourceforge.net/DTD/sodipodi-0.dtd"
   xmlns:inkscape="http://www.inkscape.org/namespaces/inkscape"
   version="1.1"
   width="100"
   height="100"
   id="svg4460"
   sodipodi:docname="globe-alt.svg"
   inkscape:version="1.0 (4035a4fb49, 2020-05-01)">
  <sodipodi:namedview
     pagecolor="#ffffff"
     bordercolor="#666666"
     borderopacity="1"
     objecttolerance="10"
     gridtolerance="10"
     guidetolerance="10"
     inkscape:pageopacity="0"
     inkscape:pageshadow="2"
     inkscape:window-width="1920"
     inkscape:window-height="1017"
     id="namedview11"
     showgrid="false"
     inkscape:zoom="3.805"
     inkscape:cx="124.42877"
     inkscape:cy="58.351341"
     inkscape:window-x="-8"
     inkscape:window-y="-8"
     inkscape:window-maximized="1"
     inkscape:current-layer="svg4460"
     inkscape:document-rotation="0" />
  <defs
     id="defs4462" />
  <metadata
     id="metadata4465">
    <rdf:RDF>
      <cc:Work
         rdf:about="">
        <dc:format>image/svg+xml</dc:format>
        <dc:type
           rdf:resource="http://purl.org/dc/dcmitype/StillImage" />
        <dc:title></dc:title>
      </cc:Work>
    </rdf:RDF>
  </metadata>
  <path
     d="M 50 0 C 22.415374 0 -4.7369516e-15 22.415374 0 50 C 7.4713768e-15 77.584626 22.415374 100 50 100 C 77.50354 100 99.857036 77.713325 99.988281 50.240234 A 2.5 2.5 0 0 0 100 50 A 2.5 2.5 0 0 0 99.986328 49.746094 A 2.5 2.5 0 0 0 99.986328 49.734375 C 99.841255 22.273096 77.494958 1.4210855e-14 50 0 z M 47.5 5.2695312 L 47.5 26.835938 C 41.46707 26.656798 35.75554 25.831631 30.59375 24.507812 C 31.509261 22.015173 32.548002 19.702716 33.695312 17.619141 C 37.544204 10.629358 42.400861 6.3354777 47.5 5.2695312 z M 52.5 5.2695312 C 57.599139 6.3354777 62.455796 10.629358 66.304688 17.619141 C 67.451998 19.702716 68.490739 22.015173 69.40625 24.507812 C 64.24446 25.831631 58.53293 26.656799 52.5 26.835938 L 52.5 5.2695312 z M 34.587891 7.7011719 C 32.633845 9.8565742 30.865341 12.39054 29.314453 15.207031 C 27.987643 17.616587 26.809248 20.256587 25.785156 23.078125 C 22.799202 22.058431 20.054636 20.864531 17.619141 19.523438 C 17.452463 19.431657 17.296141 19.33709 17.132812 19.244141 C 21.914624 14.134277 27.876229 10.142099 34.587891 7.7011719 z M 65.412109 7.7011719 C 72.123771 10.142099 78.085376 14.134277 82.867188 19.244141 C 82.703859 19.33709 82.547537 19.431657 82.380859 19.523438 C 79.944718 20.864887 77.199767 22.060208 74.212891 23.080078 C 73.190633 20.257594 72.012404 17.616672 70.685547 15.207031 C 69.134659 12.39054 67.366155 9.8565742 65.412109 7.7011719 z M 13.884766 23.134766 C 14.320222 23.394762 14.755883 23.655874 15.207031 23.904297 C 17.947825 25.413502 20.981775 26.734921 24.25 27.847656 C 22.576088 33.829903 21.572141 40.474778 21.378906 47.5 L 5.0722656 47.5 C 5.5696696 38.387702 8.7706505 30.00525 13.884766 23.134766 z M 86.115234 23.134766 C 91.22935 30.00525 94.430331 38.387702 94.927734 47.5 L 78.603516 47.5 C 78.410594 40.47683 77.411117 33.831967 75.742188 27.849609 C 79.013106 26.736636 82.050255 25.414559 84.792969 23.904297 C 85.244117 23.655874 85.679778 23.394762 86.115234 23.134766 z M 29.056641 29.283203 C 34.72159 30.758556 40.944204 31.644021 47.5 31.824219 L 47.5 47.5 L 26.382812 47.5 C 26.577212 40.953139 27.528979 34.780487 29.056641 29.283203 z M 70.943359 29.283203 C 72.471021 34.780487 73.422788 40.953139 73.617188 47.5 L 52.5 47.5 L 52.5 31.822266 C 59.055256 31.6421 65.278701 30.757938 70.943359 29.283203 z M 5.0722656 52.5 L 21.378906 52.5 C 21.572121 59.524516 22.576391 66.168613 24.25 72.150391 C 20.982846 73.264801 17.947676 74.58658 15.207031 76.095703 C 14.755883 76.344126 14.320222 76.605238 13.884766 76.865234 C 8.7706505 69.99475 5.5696696 61.612298 5.0722656 52.5 z M 26.382812 52.5 L 47.5 52.5 L 47.5 68.160156 C 40.942429 68.340527 34.719733 69.230102 29.054688 70.708984 C 27.528276 65.213633 26.577122 59.043807 26.382812 52.5 z M 52.5 52.5 L 73.617188 52.5 C 73.422878 59.043807 72.471724 65.213633 70.945312 70.708984 C 65.280267 69.230102 59.057571 68.340527 52.5 68.160156 L 52.5 52.5 z M 78.605469 52.5 L 94.927734 52.5 C 94.430331 61.612298 91.22935 69.99475 86.115234 76.865234 C 85.679778 76.605238 85.244117 76.344126 84.792969 76.095703 C 82.050679 74.585674 79.01354 73.263263 75.744141 72.148438 C 77.413284 66.166589 78.412513 59.522553 78.605469 52.5 z M 47.5 73.164062 L 47.5 94.730469 C 42.400861 93.664522 37.544204 89.370642 33.695312 82.380859 C 32.548002 80.297284 31.509261 77.984827 30.59375 75.492188 C 35.75554 74.168369 41.46707 73.343201 47.5 73.164062 z M 52.5 73.164062 C 58.53293 73.343201 64.24446 74.168369 69.40625 75.492188 C 68.490739 77.984827 67.451998 80.297284 66.304688 82.380859 C 62.455796 89.370642 57.599139 93.664522 52.5 94.730469 L 52.5 73.164062 z M 74.212891 76.919922 C 77.199767 77.939792 79.944718 79.135113 82.380859 80.476562 C 82.547537 80.568343 82.703859 80.66291 82.867188 80.755859 C 78.085376 85.865723 72.123771 89.857901 65.412109 92.298828 C 67.366155 90.143426 69.134659 87.60946 70.685547 84.792969 C 72.012425 82.383289 73.190414 79.742395 74.212891 76.919922 z M 25.785156 76.921875 C 26.809248 79.743413 27.987643 82.383413 29.314453 84.792969 C 30.865341 87.60946 32.633845 90.143426 34.587891 92.298828 C 27.876229 89.857901 21.914624 85.865723 17.132812 80.755859 C 17.296141 80.66291 17.452463 80.568343 17.619141 80.476562 C 20.054636 79.135468 22.799202 77.941569 25.785156 76.921875 z "
     style="color:#000000;font-style:normal;font-variant:normal;font-weight:normal;font-stretch:normal;font-size:medium;line-height:normal;font-family:sans-serif;font-variant-ligatures:normal;font-variant-position:normal;font-variant-caps:normal;font-variant-numeric:normal;font-variant-alternates:normal;font-variant-east-asian:normal;font-feature-settings:normal;font-variation-settings:normal;text-indent:0;text-align:start;text-decoration:none;text-decoration-line:none;text-decoration-style:solid;text-decoration-color:#000000;letter-spacing:normal;word-spacing:normal;text-transform:none;writing-mode:lr-tb;direction:ltr;text-orientation:mixed;dominant-baseline:auto;baseline-shift:baseline;text-anchor:start;white-space:normal;shape-padding:0;shape-margin:0;inline-size:0;clip-rule:nonzero;display:inline;overflow:visible;visibility:visible;isolation:auto;mix-blend-mode:normal;color-interpolation:sRGB;color-interpolation-filters:linearRGB;solid-color:#000000;solid-opacity:1;vector-effect:none;fill:#000080;fill-opacity:1;fill-rule:nonzero;stroke:none;stroke-width:5;stroke-linecap:round;stroke-linejoin:round;stroke-miterlimit:4;stroke-dasharray:none;stroke-dashoffset:188.976;stroke-opacity:1;color-rendering:auto;image-rendering:auto;shape-rendering:auto;text-rendering:auto;enable-background:accumulate;stop-color:#000000;stop-opacity:1;opacity:1"
     id="path1052" />
</svg>
