<?xml version="1.0" encoding="UTF-8" standalone="no"?>
<svg
   xmlns:dc="http://purl.org/dc/elements/1.1/"
   xmlns:cc="http://creativecommons.org/ns#"
   xmlns:rdf="http://www.w3.org/1999/02/22-rdf-syntax-ns#"
   xmlns:svg="http://www.w3.org/2000/svg"
   xmlns="http://www.w3.org/2000/svg"
   xmlns:sodipodi="http://sodipodi.sourceforge.net/DTD/sodipodi-0.dtd"
   xmlns:inkscape="http://www.inkscape.org/namespaces/inkscape"
   inkscape:version="1.0 (4035a4fb49, 2020-05-01)"
   sodipodi:docname="uEA82-globe-poi.svg"
   id="svg4460"
   height="100"
   width="100"
   version="1.1">
  <sodipodi:namedview
     inkscape:document-rotation="0"
     inkscape:current-layer="svg4460"
     inkscape:window-maximized="1"
     inkscape:window-y="-8"
     inkscape:window-x="-8"
     inkscape:cy="44.924052"
     inkscape:cx="185.44371"
     inkscape:zoom="1.9025"
     showgrid="false"
     id="namedview11"
     inkscape:window-height="1017"
     inkscape:window-width="1920"
     inkscape:pageshadow="2"
     inkscape:pageopacity="0"
     guidetolerance="10"
     gridtolerance="10"
     objecttolerance="10"
     borderopacity="1"
     bordercolor="#666666"
     pagecolor="#ffffff" />
  <defs
     id="defs4462" />
  <metadata
     id="metadata4465">
    <rdf:RDF>
      <cc:Work
         rdf:about="">
        <dc:format>image/svg+xml</dc:format>
        <dc:type
           rdf:resource="http://purl.org/dc/dcmitype/StillImage" />
        <dc:title />
      </cc:Work>
    </rdf:RDF>
  </metadata>
  <path
     d="M 49.94726,6.9432255e-6 A 50,50 0 0 0 0,50.000007 50,50 0 0 0 50,100.00001 50,50 0 0 0 68.505854,96.449227 c -1.675261,-2.86786 -3.337704,-5.74305 -4.996094,-8.62109 -2.71012,3.45933 -5.7294,5.83068 -8.88281,6.9375 -0.70405,0.0717 -1.4136,0.12317 -2.12695,0.16211 v -20.79688 h 2.99609 c -0.91839,-1.58398 -1.66274,-3.26075 -2.2168,-5 H 52.5 v -3.10937 c -0.63419,-3.34178 -0.63256,-6.80489 0,-10.14844 v -3.37305 h 0.87109 c 0.40308,-1.22139 0.88806,-2.41582 1.47266,-3.56445 0.24053,-0.48854 0.50217,-0.96464 0.77343,-1.43555 H 52.5 v -16.63085 h 19.195307 c 0.330235,1.26979 0.629499,2.57406 0.896485,3.9082 1.619774,-0.40366 3.277375,-0.64557 4.951172,-0.72461 -0.210879,-1.07637 -0.436694,-2.14128 -0.6875,-3.18359 h 13.888672 c 1.100888,2.34434 1.99554,4.80326 2.683593,7.34765 2.302435,1.4727 4.384436,3.28952 6.158204,5.3711 A 50,50 0 0 0 50,6.9432255e-6 a 50,50 0 0 0 -0.0527,0 z M 52.5,5.6816469 c 5.26757,0.89621 10.30243,5.2366001 14.267573,12.4375101 1.278131,2.32115 2.420531,4.92639 3.408203,7.75 H 52.5 Z m -5,0.19727 V 25.869157 H 30.75 c 0.98767,-2.82361 2.13007,-5.42885 3.4082,-7.75 C 37.89036,11.341357 42.5705,7.1024169 47.5,5.8789169 Z m -11.51954,1.35352 c -2.324,2.35185 -4.41096,5.2199501 -6.20312,8.4746101 -1.67971,3.05043 -3.12551,6.46683 -4.3125,10.16211 H 12.00976 c 5.53542,-8.70578 13.97565,-15.36952 23.9707,-18.6367201 z m 29.41016,0.46289 C 74.788039,11.107737 82.709085,17.563287 87.990229,25.869157 H 75.455073 c -1.184538,-3.69543 -2.627308,-7.11235 -4.30664,-10.16211 C 69.47179,12.662177 67.535481,9.9584169 65.39062,7.6953269 Z M 9.2558504,30.869157 H 24.06445 c -1.24568,5.16196 -2.00881,10.7589 -2.20313,16.63085 H 5.07226 c 0.32341,-5.92468 1.7919304,-11.53779 4.1835904,-16.63085 z m 19.9746096,0 H 47.5 v 16.63085 H 26.86718 c 0.21193,-5.93454 1.04296,-11.55404 2.36328,-16.63085 z m -24.1582,21.63085 h 16.76172 c 0.1288,5.8562 0.82044,11.45352 1.99414,16.63086 H 9.2558504 C 6.8641904,64.037807 5.39567,58.424697 5.07226,52.500007 Z m 21.76172,0 H 47.5 v 16.63086 H 28.98046 c -1.24513,-5.10065 -2.00605,-10.71539 -2.14648,-16.63086 z m -14.82422,21.63086 h 13.13672 c 1.24156,4.08368 2.79995,7.83905 4.63086,11.16407 1.43761,2.61078 3.06752,4.96879 4.85351,7.01757 -9.40679,-3.41038 -17.33593,-9.86945 -22.62109,-18.18164 z m 18.39453,0 H 47.5 v 20.79688 c -0.30786,-0.0168 -0.61181,-0.0474 -0.91797,-0.0703 -4.59046,-1.49928 -8.92428,-5.61924 -12.42383,-11.97461 -1.42846,-2.59416 -2.69264,-5.53729 -3.75391,-8.75195 z"
     style="color:#000000;overflow:visible;fill:#000080;stroke-width:3.64359;stroke-linecap:round;stroke-linejoin:round;stroke-dashoffset:188.976"
     id="path865" />
  <path
     d="m 79.00092,40 c -11.543009,0 -21.000916,9.430889 -21.000916,20.940922 0,4.459667 1.424142,8.603976 3.835013,12.011417 l 14.603117,25.243894 c 2.045094,2.671697 3.404952,2.164287 5.105412,-0.140748 L 97.649866,70.645473 C 97.975252,70.056878 98.230198,69.430106 98.452798,68.79011 99.44695,66.361976 100.00001,63.713168 100,60.940922 100,49.430889 90.543929,40 79.00092,40 Z m 0,9.812399 c 6.21558,0 11.158571,4.930698 11.158571,11.128523 0,6.19782 -4.942991,11.126687 -11.158571,11.126687 -6.215579,0 -11.160401,-4.928867 -11.160401,-11.126687 0,-6.197825 4.944822,-11.128523 11.160401,-11.128523 z"
     style="fill:#000080;stroke-width:2.55611"
     id="path4135-0" />
</svg>
