<?xml version="1.0" encoding="UTF-8" standalone="no"?>
<svg
   xmlns:dc="http://purl.org/dc/elements/1.1/"
   xmlns:cc="http://creativecommons.org/ns#"
   xmlns:rdf="http://www.w3.org/1999/02/22-rdf-syntax-ns#"
   xmlns:svg="http://www.w3.org/2000/svg"
   xmlns="http://www.w3.org/2000/svg"
   xmlns:sodipodi="http://sodipodi.sourceforge.net/DTD/sodipodi-0.dtd"
   xmlns:inkscape="http://www.inkscape.org/namespaces/inkscape"
   inkscape:version="1.0 (4035a4fb49, 2020-05-01)"
   sodipodi:docname="uEABB-network.svg"
   id="svg4460"
   height="100"
   width="100"
   version="1.1">
  <sodipodi:namedview
     inkscape:document-rotation="0"
     inkscape:current-layer="svg4460"
     inkscape:window-maximized="1"
     inkscape:window-y="-8"
     inkscape:window-x="-8"
     inkscape:cy="58.078746"
     inkscape:cx="65.736605"
     inkscape:zoom="8.0800002"
     showgrid="false"
     id="namedview11"
     inkscape:window-height="1017"
     inkscape:window-width="1920"
     inkscape:pageshadow="2"
     inkscape:pageopacity="0"
     guidetolerance="10"
     gridtolerance="10"
     objecttolerance="10"
     borderopacity="1"
     bordercolor="#666666"
     pagecolor="#ffffff" />
  <defs
     id="defs4462" />
  <metadata
     id="metadata4465">
    <rdf:RDF>
      <cc:Work
         rdf:about="">
        <dc:format>image/svg+xml</dc:format>
        <dc:type
           rdf:resource="http://purl.org/dc/dcmitype/StillImage" />
        <dc:title />
      </cc:Work>
    </rdf:RDF>
  </metadata>
  <path
     d="M 52.505859 7.078125 C 55.44057 11.319087 58.05062 15.624339 60.34375 19.988281 A 7.5 7.5 0 0 1 61.386719 19.914062 A 7.5 7.5 0 0 1 68.134766 24.144531 C 71.456546 23.851778 74.801138 23.664681 78.173828 23.613281 C 80.104968 23.583851 82.044057 23.595544 83.992188 23.646484 C 76.610978 14.130779 65.32412 7.811214 52.505859 7.078125 z M 46.427734 7.1582031 C 46.280878 7.1702231 46.132757 7.1779162 45.986328 7.1914062 C 42.611408 14.097133 39.97108 20.921178 38.083984 27.65625 A 7.5 7.5 0 0 1 40.166016 29.572266 C 44.724849 28.196504 49.333803 27.04801 53.996094 26.142578 A 7.5 7.5 0 0 1 55.916016 22.285156 C 53.218699 17.170507 50.065212 12.127046 46.427734 7.1582031 z M 39.988281 8.1796875 C 29.403823 10.69479 20.345479 17.099387 14.416016 25.820312 C 19.086251 26.893489 23.651693 28.143383 28.113281 29.568359 A 7.5 7.5 0 0 1 33.244141 26.589844 C 34.91891 20.487417 37.167053 14.34545 39.988281 8.1796875 z M 81.111328 28.597656 C 76.929268 28.571268 72.791579 28.741668 68.693359 29.097656 A 7.5 7.5 0 0 1 66.220703 33.146484 C 67.608983 36.883782 68.782101 40.659662 69.738281 44.472656 A 7.5 7.5 0 0 1 74.78125 47.21875 C 80.51575 45.500587 86.404908 44.138348 92.455078 43.154297 C 91.633788 37.998292 89.894879 33.155225 87.417969 28.787109 C 85.305249 28.677166 83.202568 28.610856 81.111328 28.597656 z M 11.732422 30.361328 C 9.6099679 34.49786 8.1344996 39.021535 7.4472656 43.806641 C 13.738752 40.195433 20.138193 37.042968 26.646484 34.369141 A 7.5 7.5 0 0 1 26.644531 34.339844 C 21.812566 32.797488 16.834232 31.484057 11.732422 30.361328 z M 54.826172 31.044922 C 50.380887 31.909314 45.984268 33.003324 41.632812 34.314453 A 7.5 7.5 0 0 1 41.619141 34.570312 C 49.419907 37.883812 56.840628 41.828319 63.867188 46.414062 A 7.5 7.5 0 0 1 64.923828 45.603516 C 64.016488 42.00475 62.904541 38.441025 61.587891 34.910156 A 7.5 7.5 0 0 1 61.386719 34.914062 A 7.5 7.5 0 0 1 54.826172 31.044922 z M 28.505859 38.986328 C 21.214827 41.99011 14.051279 45.627165 7.0039062 49.861328 C 7.0038063 49.9078 7 49.95349 7 50 C 7 61.365529 11.392507 71.67775 18.566406 79.357422 C 22.714604 75.652732 26.978185 72.199323 31.357422 69.001953 C 29.477364 59.703105 29.204272 50.197353 30.435547 40.556641 A 7.5 7.5 0 0 1 28.505859 38.986328 z M 39.626953 39.144531 A 7.5 7.5 0 0 1 35.267578 41.449219 C 34.215288 49.743798 34.364537 57.894744 35.775391 65.892578 C 43.932948 60.358079 52.486955 55.704186 61.447266 51.978516 A 7.5 7.5 0 0 1 61.447266 51.931641 A 7.5 7.5 0 0 1 61.529297 50.841797 C 54.628953 46.301164 47.326403 42.408671 39.626953 39.144531 z M 92.953125 48.138672 C 87.301475 49.069458 81.807476 50.354748 76.447266 51.947266 A 7.5 7.5 0 0 1 75.748047 55.09375 C 80.453277 58.937847 84.947667 63.122464 89.216797 67.666016 C 91.641437 62.278274 93 56.30266 93 50 C 93 49.375788 92.979325 48.756314 92.953125 48.138672 z M 63.134766 56.667969 C 53.959275 60.499047 45.223914 65.350564 36.896484 71.173828 C 38.716108 78.511698 41.612794 85.71711 45.625 92.78125 C 47.063106 92.9258 48.523094 93 50 93 C 55.83227 93 61.386905 91.839714 66.453125 89.746094 C 68.145645 79.331724 68.478596 69.174552 67.384766 59.265625 A 7.5 7.5 0 0 1 63.134766 56.667969 z M 72.316406 58.728516 C 73.346236 67.977232 73.19118 77.418131 71.90625 87.019531 C 77.97767 83.425521 83.087476 78.387974 86.753906 72.365234 C 82.199906 67.395354 77.386326 62.852982 72.316406 58.728516 z M 32.605469 74.283203 C 29.061705 76.948393 25.593661 79.797419 22.197266 82.818359 C 27.095463 86.969649 32.933818 90.046351 39.359375 91.675781 C 36.440129 85.980311 34.195631 80.176053 32.605469 74.283203 z "
     style="color:#000000;overflow:visible;fill:#000080;fill-opacity:1;stroke:none;stroke-width:4.59091;stroke-linecap:round;stroke-linejoin:round;stroke-miterlimit:4;stroke-dasharray:none;stroke-dashoffset:20;stroke-opacity:1;stop-color:#000000"
     id="path860" />
</svg>
