<?xml version="1.0" encoding="UTF-8" standalone="no"?>
<svg
   xmlns:dc="http://purl.org/dc/elements/1.1/"
   xmlns:cc="http://creativecommons.org/ns#"
   xmlns:rdf="http://www.w3.org/1999/02/22-rdf-syntax-ns#"
   xmlns:svg="http://www.w3.org/2000/svg"
   xmlns="http://www.w3.org/2000/svg"
   xmlns:sodipodi="http://sodipodi.sourceforge.net/DTD/sodipodi-0.dtd"
   xmlns:inkscape="http://www.inkscape.org/namespaces/inkscape"
   inkscape:version="1.0 (4035a4fb49, 2020-05-01)"
   sodipodi:docname="uEABC-network-o.svg"
   id="svg4460"
   height="100"
   width="100"
   version="1.1">
  <sodipodi:namedview
     inkscape:document-rotation="0"
     inkscape:current-layer="svg4460"
     inkscape:window-maximized="1"
     inkscape:window-y="-8"
     inkscape:window-x="-8"
     inkscape:cy="40.47882"
     inkscape:cx="15.701101"
     inkscape:zoom="5.7134229"
     showgrid="false"
     id="namedview11"
     inkscape:window-height="1017"
     inkscape:window-width="1920"
     inkscape:pageshadow="2"
     inkscape:pageopacity="0"
     guidetolerance="10"
     gridtolerance="10"
     objecttolerance="10"
     borderopacity="1"
     bordercolor="#666666"
     pagecolor="#ffffff" />
  <defs
     id="defs4462" />
  <metadata
     id="metadata4465">
    <rdf:RDF>
      <cc:Work
         rdf:about="">
        <dc:format>image/svg+xml</dc:format>
        <dc:type
           rdf:resource="http://purl.org/dc/dcmitype/StillImage" />
        <dc:title />
      </cc:Work>
    </rdf:RDF>
  </metadata>
  <path
     d="M 50 0 C 22.427219 0 -4.7369516e-15 22.427219 0 50 C 7.6287745e-15 77.572781 22.427219 100 50 100 C 77.572781 100 100 77.572781 100 50 C 100 22.427219 77.572781 -4.7369516e-15 50 0 z M 52.505859 7.078125 C 65.324118 7.8112147 76.610977 14.130779 83.992188 23.646484 C 82.044055 23.595549 80.104972 23.58385 78.173828 23.613281 C 74.801135 23.664683 71.456548 23.851778 68.134766 24.144531 A 7.5 7.5 0 0 0 61.386719 19.914062 A 7.5 7.5 0 0 0 60.34375 19.988281 C 58.050624 15.624343 55.440571 11.319087 52.505859 7.078125 z M 46.427734 7.1582031 C 50.065212 12.127046 53.218703 17.170507 55.916016 22.285156 A 7.5 7.5 0 0 0 53.996094 26.142578 C 49.333803 27.04801 44.724849 28.196504 40.166016 29.572266 A 7.5 7.5 0 0 0 38.083984 27.65625 C 39.97108 20.921178 42.611408 14.097133 45.986328 7.1914062 C 46.132757 7.1779149 46.280878 7.1702293 46.427734 7.1582031 z M 39.988281 8.1796875 C 37.167053 14.34545 34.91891 20.487417 33.244141 26.589844 A 7.5 7.5 0 0 0 28.113281 29.568359 C 23.651693 28.143385 19.086251 26.893489 14.416016 25.820312 C 20.345479 17.099386 29.403823 10.69479 39.988281 8.1796875 z M 81.111328 28.597656 C 83.202573 28.610852 85.305253 28.677161 87.417969 28.787109 C 89.894877 33.155225 91.633786 37.998292 92.455078 43.154297 C 86.404907 44.138348 80.515746 45.500587 74.78125 47.21875 A 7.5 7.5 0 0 0 69.738281 44.472656 C 68.7821 40.659662 67.608977 36.883782 66.220703 33.146484 A 7.5 7.5 0 0 0 68.693359 29.097656 C 72.791578 28.741668 76.929266 28.571268 81.111328 28.597656 z M 11.732422 30.361328 C 16.834232 31.484057 21.812566 32.797488 26.644531 34.339844 A 7.5 7.5 0 0 0 26.646484 34.369141 C 20.138193 37.042968 13.738752 40.195433 7.4472656 43.806641 C 8.1344993 39.021535 9.6099681 34.49786 11.732422 30.361328 z M 54.826172 31.044922 A 7.5 7.5 0 0 0 61.386719 34.914062 A 7.5 7.5 0 0 0 61.587891 34.910156 C 62.904541 38.441025 64.016487 42.00475 64.923828 45.603516 A 7.5 7.5 0 0 0 63.867188 46.414062 C 56.840629 41.828327 49.419907 37.883811 41.619141 34.570312 A 7.5 7.5 0 0 0 41.632812 34.314453 C 45.984267 33.003324 50.380887 31.909314 54.826172 31.044922 z M 28.505859 38.986328 A 7.5 7.5 0 0 0 30.435547 40.556641 C 29.204272 50.197353 29.477364 59.703104 31.357422 69.001953 C 26.978185 72.199321 22.714604 75.652733 18.566406 79.357422 C 11.392507 71.677757 7 61.365529 7 50 C 7 49.953492 7.0037595 49.907801 7.0039062 49.861328 C 14.051279 45.627165 21.214827 41.99011 28.505859 38.986328 z M 39.626953 39.144531 C 47.326403 42.408671 54.628956 46.301164 61.529297 50.841797 A 7.5 7.5 0 0 0 61.447266 51.931641 A 7.5 7.5 0 0 0 61.447266 51.978516 C 52.486958 55.704186 43.932948 60.358079 35.775391 65.892578 C 34.364537 57.894744 34.215288 49.743798 35.267578 41.449219 A 7.5 7.5 0 0 0 39.626953 39.144531 z M 92.953125 48.138672 C 92.979312 48.756314 93 49.375788 93 50 C 93 56.30266 91.641439 62.27827 89.216797 67.666016 C 84.947669 63.12246 80.453275 58.937847 75.748047 55.09375 A 7.5 7.5 0 0 0 76.447266 51.947266 C 81.807482 50.354748 87.301477 49.069458 92.953125 48.138672 z M 63.134766 56.667969 A 7.5 7.5 0 0 0 67.384766 59.265625 C 68.478604 69.174556 68.145648 79.331718 66.453125 89.746094 C 61.386911 91.83971 55.832272 93 50 93 C 48.523094 93 47.063106 92.925828 45.625 92.78125 C 41.612794 85.717108 38.716108 78.511702 36.896484 71.173828 C 45.223914 65.350568 53.959279 60.499047 63.134766 56.667969 z M 72.316406 58.728516 C 77.386327 62.852982 82.199912 67.395351 86.753906 72.365234 C 83.087478 78.387971 77.977666 83.425521 71.90625 87.019531 C 73.191178 77.418132 73.346242 67.977235 72.316406 58.728516 z M 32.605469 74.283203 C 34.195631 80.176048 36.440129 85.980311 39.359375 91.675781 C 32.933818 90.046353 27.095463 86.969651 22.197266 82.818359 C 25.593661 79.797421 29.061705 76.948389 32.605469 74.283203 z "
     style="color:#000000;overflow:visible;fill:#000080;fill-opacity:1;stroke:none;stroke-width:4.59091;stroke-linecap:round;stroke-linejoin:round;stroke-miterlimit:4;stroke-dasharray:none;stroke-dashoffset:20;stroke-opacity:1;stop-color:#000000"
     id="path899" />
</svg>
