<?xml version="1.0" encoding="UTF-8" standalone="no"?>
<svg
   xmlns:dc="http://purl.org/dc/elements/1.1/"
   xmlns:cc="http://creativecommons.org/ns#"
   xmlns:rdf="http://www.w3.org/1999/02/22-rdf-syntax-ns#"
   xmlns:svg="http://www.w3.org/2000/svg"
   xmlns="http://www.w3.org/2000/svg"
   xmlns:sodipodi="http://sodipodi.sourceforge.net/DTD/sodipodi-0.dtd"
   xmlns:inkscape="http://www.inkscape.org/namespaces/inkscape"
   inkscape:version="1.0 (4035a4fb49, 2020-05-01)"
   sodipodi:docname="uEAC1-tag-globe.svg"
   id="svg4460"
   height="100"
   width="100"
   version="1.1">
  <sodipodi:namedview
     inkscape:document-rotation="0"
     inkscape:current-layer="svg4460"
     inkscape:window-maximized="1"
     inkscape:window-y="-8"
     inkscape:window-x="-8"
     inkscape:cy="56.210995"
     inkscape:cx="124.89651"
     inkscape:zoom="3.805"
     showgrid="false"
     id="namedview11"
     inkscape:window-height="1017"
     inkscape:window-width="1920"
     inkscape:pageshadow="2"
     inkscape:pageopacity="0"
     guidetolerance="10"
     gridtolerance="10"
     objecttolerance="10"
     borderopacity="1"
     bordercolor="#666666"
     pagecolor="#ffffff" />
  <defs
     id="defs4462" />
  <metadata
     id="metadata4465">
    <rdf:RDF>
      <cc:Work
         rdf:about="">
        <dc:format>image/svg+xml</dc:format>
        <dc:type
           rdf:resource="http://purl.org/dc/dcmitype/StillImage" />
        <dc:title />
      </cc:Work>
    </rdf:RDF>
  </metadata>
  <path
     d="M 22.634766 22.726562 A 9.091912 9.091912 0 0 0 15.34375 26.388672 L 1.7988281 44.570312 A 9.091912 9.091912 0 0 0 1.7988281 55.429688 L 15.34375 73.611328 A 9.091912 9.091912 0 0 0 22.634766 77.273438 L 90.908203 77.273438 A 9.091912 9.091912 0 0 0 100 68.181641 L 100 31.818359 A 9.091912 9.091912 0 0 0 90.908203 22.726562 L 22.634766 22.726562 z M 66.613281 30.134766 C 68.958193 30.533719 71.199724 32.466324 72.964844 35.671875 C 73.533816 36.705157 74.040798 37.866092 74.480469 39.123047 L 66.613281 39.123047 L 66.613281 30.134766 z M 64.386719 30.222656 L 64.386719 39.123047 L 56.931641 39.123047 C 57.371312 37.866092 57.878295 36.705156 58.447266 35.671875 C 60.108672 32.654677 62.192307 30.767306 64.386719 30.222656 z M 59.259766 30.826172 C 58.225212 31.873123 57.295844 33.148815 56.498047 34.597656 C 55.75031 35.955585 55.106524 37.478061 54.578125 39.123047 L 48.587891 39.123047 C 51.052034 35.247589 54.810374 32.280599 59.259766 30.826172 z M 72.351562 31.03125 C 76.53491 32.550318 80.061157 35.425614 82.412109 39.123047 L 76.832031 39.123047 C 76.304724 37.477992 75.661633 35.955285 74.914062 34.597656 C 74.16769 33.242205 73.306366 32.038686 72.351562 31.03125 z M 47.363281 41.347656 L 53.955078 41.347656 C 53.400552 43.645555 53.061109 46.137999 52.974609 48.751953 L 45.5 48.751953 C 45.643966 46.114525 46.298611 43.61488 47.363281 41.347656 z M 56.253906 41.347656 L 64.386719 41.347656 L 64.386719 48.751953 L 55.203125 48.751953 C 55.297465 46.110137 55.666153 43.607649 56.253906 41.347656 z M 66.613281 41.347656 L 75.158203 41.347656 C 75.745956 43.607649 76.114644 46.110137 76.208984 48.751953 L 66.613281 48.751953 L 66.613281 41.347656 z M 77.455078 41.347656 L 83.636719 41.347656 C 84.701389 43.61488 85.356036 46.114525 85.5 48.751953 L 78.433594 48.751953 C 78.347348 46.138197 78.008099 43.645936 77.455078 41.347656 z M 16.113281 43.636719 A 6.363702 6.3637406 0 0 1 16.138672 43.636719 A 6.363702 6.3637406 0 0 1 22.501953 50 A 6.363702 6.3637406 0 0 1 16.138672 56.363281 A 6.363702 6.3637406 0 0 1 9.7753906 50 A 6.363702 6.3637406 0 0 1 16.113281 43.636719 z M 45.5 50.976562 L 52.960938 50.976562 C 53.018272 53.583503 53.327125 56.076114 53.849609 58.380859 L 47.363281 58.380859 C 46.298611 56.113634 45.643966 53.613994 45.5 50.976562 z M 55.1875 50.976562 L 64.386719 50.976562 L 64.386719 58.380859 L 56.142578 58.380859 C 55.588296 56.110256 55.25002 53.609887 55.1875 50.976562 z M 66.613281 50.976562 L 76.224609 50.976562 C 76.162092 53.609886 75.823814 56.110256 75.269531 58.380859 L 66.613281 58.380859 L 66.613281 50.976562 z M 78.443359 50.976562 L 85.5 50.976562 C 85.356036 53.613995 84.701389 56.113635 83.636719 58.380859 L 77.558594 58.380859 C 78.079828 56.075854 78.386039 53.583174 78.443359 50.976562 z M 48.587891 60.605469 L 54.435547 60.605469 C 54.98824 62.423357 55.683003 64.096012 56.498047 65.576172 C 57.138014 66.738385 57.863149 67.787184 58.658203 68.699219 C 54.47068 67.181057 50.940629 64.305712 48.587891 60.605469 z M 56.777344 60.605469 L 64.386719 60.605469 L 64.386719 69.865234 C 64.249675 69.857744 64.114806 69.844184 63.978516 69.833984 C 61.935033 69.166567 60.005124 67.331105 58.447266 64.501953 C 57.811374 63.347139 57.249779 62.036504 56.777344 60.605469 z M 66.613281 60.605469 L 74.634766 60.605469 C 74.162331 62.036505 73.600738 63.347138 72.964844 64.501953 C 71.439004 67.272956 69.557294 69.092129 67.560547 69.792969 C 67.247131 69.824899 66.930836 69.847914 66.613281 69.865234 L 66.613281 60.605469 z M 76.974609 60.605469 L 82.412109 60.605469 C 80.17672 64.121154 76.876403 66.889369 72.960938 68.458984 C 73.67492 67.604232 74.330044 66.636782 74.914062 65.576172 C 75.729064 64.096087 76.422945 62.423767 76.974609 60.605469 z "
     style="color:#000000;font-style:normal;font-variant:normal;font-weight:normal;font-stretch:normal;font-size:medium;line-height:normal;font-family:sans-serif;font-variant-ligatures:normal;font-variant-position:normal;font-variant-caps:normal;font-variant-numeric:normal;font-variant-alternates:normal;font-variant-east-asian:normal;font-feature-settings:normal;font-variation-settings:normal;text-indent:0;text-align:start;text-decoration:none;text-decoration-line:none;text-decoration-style:solid;text-decoration-color:#000000;letter-spacing:normal;word-spacing:normal;text-transform:none;writing-mode:lr-tb;direction:ltr;text-orientation:mixed;dominant-baseline:auto;baseline-shift:baseline;text-anchor:start;white-space:normal;shape-padding:0;shape-margin:0;inline-size:0;clip-rule:nonzero;display:inline;overflow:visible;visibility:visible;isolation:auto;mix-blend-mode:normal;color-interpolation:sRGB;color-interpolation-filters:linearRGB;solid-color:#000000;solid-opacity:1;vector-effect:none;fill:#000080;fill-opacity:1;fill-rule:nonzero;stroke:none;stroke-width:18.182;stroke-linecap:round;stroke-linejoin:round;stroke-miterlimit:4;stroke-dasharray:none;stroke-dashoffset:0;stroke-opacity:1;color-rendering:auto;image-rendering:auto;shape-rendering:auto;text-rendering:auto;enable-background:accumulate;stop-color:#000000"
     id="path848" />
  <path
     id="path848-0"
     style="color:#000000;font-style:normal;font-variant:normal;font-weight:normal;font-stretch:normal;font-size:medium;line-height:normal;font-family:sans-serif;font-variant-ligatures:normal;font-variant-position:normal;font-variant-caps:normal;font-variant-numeric:normal;font-variant-alternates:normal;font-variant-east-asian:normal;font-feature-settings:normal;font-variation-settings:normal;text-indent:0;text-align:start;text-decoration:none;text-decoration-line:none;text-decoration-style:solid;text-decoration-color:#000000;letter-spacing:normal;word-spacing:normal;text-transform:none;writing-mode:lr-tb;direction:ltr;text-orientation:mixed;dominant-baseline:auto;baseline-shift:baseline;text-anchor:start;white-space:normal;shape-padding:0;shape-margin:0;inline-size:0;clip-rule:nonzero;display:inline;overflow:visible;visibility:visible;isolation:auto;mix-blend-mode:normal;color-interpolation:sRGB;color-interpolation-filters:linearRGB;solid-color:#000000;solid-opacity:1;vector-effect:none;fill:#000080;fill-opacity:1;fill-rule:nonzero;stroke:none;stroke-width:18.1819;stroke-linecap:round;stroke-linejoin:round;stroke-miterlimit:4;stroke-dasharray:none;stroke-dashoffset:0;stroke-opacity:1;color-rendering:auto;image-rendering:auto;shape-rendering:auto;text-rendering:auto;enable-background:accumulate;stop-color:#000000"
     d="m 22.634646,22.726562 a 9.0918639,9.0918639 0 0 0 -7.290977,3.662091 L 1.7988186,44.570196 a 9.0918639,9.0918639 0 0 0 0,10.859319 L 15.343669,73.611059 a 9.0918639,9.0918639 0 0 0 7.290977,3.66209 H 90.907722 A 9.0918639,9.0918639 0 0 0 99.999471,68.1814 V 31.818311 a 9.0918639,9.0918639 0 0 0 -9.091749,-9.091749 z m 43.978282,7.408165 c 2.3449,0.398951 4.586419,2.331545 6.35153,5.537079 0.568969,1.033277 1.075948,2.194206 1.515617,3.451154 h -7.867147 z m -2.22655,0.08789 V 39.12296 H 56.93134 c 0.439668,-1.256948 0.946649,-2.417878 1.515617,-3.451154 1.661397,-3.017182 3.745021,-4.904543 5.939421,-5.44919 z m -5.126926,0.603513 c -1.034548,1.046946 -1.963911,2.322631 -2.761704,3.771464 -0.747733,1.357922 -1.391516,2.88039 -1.919912,4.525367 h -5.990202 c 2.46413,-3.875437 6.22245,-6.842412 10.671818,-8.296831 z m 13.091727,0.205077 c 4.183326,1.51906 7.709554,4.394341 10.060494,8.091754 H 76.831624 C 76.30432,37.477914 75.661232,35.955215 74.913665,34.597593 74.167297,33.242149 73.305978,32.038637 72.351179,31.031206 Z M 47.36303,41.347557 h 6.591762 c -0.554523,2.297887 -0.893964,4.790318 -0.980463,7.404258 h -7.47457 c 0.143965,-2.637414 0.798607,-5.137046 1.863271,-7.404258 z m 8.890578,0 h 8.13277 v 7.404258 h -9.183545 c 0.09434,-2.641802 0.463025,-5.144277 1.050775,-7.404258 z m 10.35932,0 h 8.544877 c 0.58775,2.259981 0.956436,4.762456 1.050776,7.404258 h -9.595653 z m 10.84174,0 h 6.181608 c 1.064665,2.267212 1.719308,4.766844 1.863271,7.404258 h -7.066368 c -0.08625,-2.613742 -0.425493,-5.10599 -0.978511,-7.404258 z m -61.341472,2.289051 a 6.3636683,6.3637069 0 0 1 0.02539,0 6.3636683,6.3637069 0 0 1 6.363248,6.363248 6.3636683,6.3637069 0 0 1 -6.363247,6.363247 6.3636683,6.3637069 0 0 1 -6.3632481,-6.363247 6.3636683,6.3637069 0 0 1 6.3378571,-6.363248 z m 29.386563,7.339804 h 7.460899 c 0.05733,2.606928 0.366185,5.099525 0.888666,7.404258 H 47.36303 c -1.064664,-2.267213 -1.719306,-4.766839 -1.863271,-7.404258 z m 9.687449,0 h 9.19917 v 7.404258 h -8.244097 c -0.554279,-2.270591 -0.892553,-4.770946 -0.955073,-7.404258 z m 11.42572,0 h 9.611278 c -0.06252,2.633311 -0.400793,5.133667 -0.955073,7.404258 h -8.656205 z m 11.830016,0 h 7.056603 c -0.143963,2.63742 -0.798606,5.137046 -1.863271,7.404258 h -6.078093 c 0.521232,-2.304993 0.827441,-4.797659 0.884761,-7.404258 z m -29.85531,9.628856 h 5.847625 c 0.55269,1.817879 1.247449,3.490525 2.062489,4.970677 0.639964,1.162207 1.365095,2.211 2.160144,3.123031 -4.1875,-1.518154 -7.717533,-4.393484 -10.070258,-8.093708 z m 8.189409,0 h 7.609335 v 9.259716 c -0.137043,-0.0075 -0.271911,-0.02105 -0.408201,-0.03125 -2.043472,-0.667414 -3.973371,-2.502866 -5.53122,-5.332003 -0.635889,-1.154808 -1.197481,-2.465436 -1.669914,-3.896463 z m 9.835885,0 h 8.021443 c -0.472433,1.431029 -1.034023,2.741655 -1.669913,3.896464 -1.525832,2.770988 -3.407532,4.590152 -5.404269,5.290988 -0.313414,0.03193 -0.629707,0.05495 -0.947261,0.07227 z m 10.361274,0 h 5.437471 c -2.235377,3.515667 -5.535677,6.283867 -9.451121,7.853474 0.713978,-0.854748 1.369099,-1.822192 1.953113,-2.882797 0.814998,-1.480077 1.508875,-3.152388 2.060537,-4.970677 z" />
</svg>
