<?xml version="1.0" encoding="UTF-8" standalone="no"?>
<svg
   xmlns:dc="http://purl.org/dc/elements/1.1/"
   xmlns:cc="http://creativecommons.org/ns#"
   xmlns:rdf="http://www.w3.org/1999/02/22-rdf-syntax-ns#"
   xmlns:svg="http://www.w3.org/2000/svg"
   xmlns="http://www.w3.org/2000/svg"
   xmlns:sodipodi="http://sodipodi.sourceforge.net/DTD/sodipodi-0.dtd"
   xmlns:inkscape="http://www.inkscape.org/namespaces/inkscape"
   inkscape:version="1.0 (4035a4fb49, 2020-05-01)"
   sodipodi:docname="uEAC4-tags-o.svg"
   id="svg4460"
   height="100"
   width="100"
   version="1.1">
  <sodipodi:namedview
     inkscape:document-rotation="0"
     inkscape:current-layer="svg4460"
     inkscape:window-maximized="1"
     inkscape:window-y="-8"
     inkscape:window-x="-8"
     inkscape:cy="66.332439"
     inkscape:cx="50.508733"
     inkscape:zoom="4"
     showgrid="false"
     id="namedview11"
     inkscape:window-height="1017"
     inkscape:window-width="1920"
     inkscape:pageshadow="2"
     inkscape:pageopacity="0"
     guidetolerance="10"
     gridtolerance="10"
     objecttolerance="10"
     borderopacity="1"
     bordercolor="#666666"
     pagecolor="#ffffff" />
  <defs
     id="defs4462" />
  <metadata
     id="metadata4465">
    <rdf:RDF>
      <cc:Work
         rdf:about="">
        <dc:format>image/svg+xml</dc:format>
        <dc:type
           rdf:resource="http://purl.org/dc/dcmitype/StillImage" />
        <dc:title />
      </cc:Work>
    </rdf:RDF>
  </metadata>
  <path
     id="path867"
     style="color:#000000;font-style:normal;font-variant:normal;font-weight:normal;font-stretch:normal;font-size:medium;line-height:normal;font-family:sans-serif;font-variant-ligatures:normal;font-variant-position:normal;font-variant-caps:normal;font-variant-numeric:normal;font-variant-alternates:normal;font-variant-east-asian:normal;font-feature-settings:normal;font-variation-settings:normal;text-indent:0;text-align:start;text-decoration:none;text-decoration-line:none;text-decoration-style:solid;text-decoration-color:#000000;letter-spacing:normal;word-spacing:normal;text-transform:none;writing-mode:lr-tb;direction:ltr;text-orientation:mixed;dominant-baseline:auto;baseline-shift:baseline;text-anchor:start;white-space:normal;shape-padding:0;shape-margin:0;inline-size:0;clip-rule:nonzero;display:inline;overflow:visible;visibility:visible;opacity:1;isolation:auto;mix-blend-mode:normal;color-interpolation:sRGB;color-interpolation-filters:linearRGB;solid-color:#000000;solid-opacity:1;vector-effect:none;fill:#000080;fill-opacity:1;fill-rule:evenodd;stroke:none;stroke-width:4.74086;stroke-linecap:butt;stroke-linejoin:miter;stroke-miterlimit:4;stroke-dasharray:none;stroke-dashoffset:0;stroke-opacity:1;color-rendering:auto;image-rendering:auto;shape-rendering:auto;text-rendering:auto;enable-background:accumulate;stop-color:#000000;stop-opacity:1"
     d="M 27.831233,2.1404091e-5 C 27.139697,0.0015914 26.446614,0.0944814 25.773517,0.2775356 24.742765,0.5570516 23.780853,1.042071 22.942872,1.7041641 L 7.4801928,13.920955 c -2.7387424,2.165324 -3.7309586,5.872134 -2.442125,9.116855 l 7.2811502,18.309769 c 0.92211,2.320775 2.887274,4.069572 5.299493,4.715686 l 57.317987,15.359897 c 4.215689,1.128249 8.547443,-1.37579 9.675994,-5.591397 l 8.179474,-30.528616 c 1.128942,-4.215041 -1.372489,-8.546133 -5.587285,-9.675996 L 29.886894,0.2672572 C 29.212982,0.0872411 28.522768,-0.0015423 27.831233,2.1404091e-5 Z M 28.030632,4.2182371 c 0.142897,0.0081 0.284247,0.024688 0.425522,0.049336 19.039694,5.0486319 38.059886,10.1822119 57.089808,15.2715029 1.964368,0.2514 3.580738,2.187949 3.272612,4.179158 -2.641364,10.171207 -5.417763,20.310527 -8.121915,30.466947 -0.253927,1.967495 -2.188505,3.558542 -4.179158,3.272611 C 57.969733,52.542513 39.43888,47.544863 20.901601,42.585088 19.317145,42.161243 17.393036,41.918799 16.500431,40.340306 14.025458,34.389682 11.713387,28.369756 9.3117862,22.388221 8.4928612,20.929137 8.4452022,18.946126 9.6221912,17.660202 14.060173,14.008416 18.618925,10.513211 23.115548,6.9317093 c 1.421516,-0.9872861 2.645879,-2.5793132 4.485451,-2.7114165 0.143152,-0.00963 0.286737,-0.010167 0.429633,-0.00205 z M 59.474017,15.049513 c -3.981074,0.215723 -7.725682,1.828012 -10.607209,4.473117 l 4.927419,1.319734 c 0.797314,-1.236837 1.663306,-2.347011 2.577799,-3.299335 0.975719,-1.016081 2.020093,-1.860256 3.101991,-2.493516 z m 4.351834,0.633144 c -1.925382,-0.03565 -4.054877,1.05796 -6.086811,3.17394 -0.695863,0.724646 -1.369584,1.566631 -2.00838,2.503794 l 6.134091,1.644529 z m 1.852151,0.417298 -1.981657,7.396268 6.47122,1.732921 C 70.082925,24.098139 69.92274,23.032753 69.682429,22.05726 68.93691,19.030984 67.519192,16.94508 65.678002,16.099955 Z m -47.41587,0.074 c -0.49353,0.0034 -0.986309,0.07263 -1.465686,0.207622 -1.876419,0.529844 -3.335508,2.00796 -3.839973,3.891366 -0.790686,2.950764 0.961119,5.982939 3.911922,6.773402 2.950753,0.790705 5.982912,-0.959041 6.773402,-3.909867 0.7907,-2.950769 -0.959065,-5.984995 -3.909867,-6.775458 -0.481038,-0.128932 -0.976266,-0.19043 -1.469798,-0.187061 z m 51.938324,1.930265 c 0.563429,1.039284 1.006549,2.219089 1.321789,3.498735 0.315739,1.2817 0.508516,2.674601 0.579696,4.144212 l 4.592347,1.23134 C 75.575241,23.418426 73.307194,20.276115 70.200456,18.10422 Z m -52.028772,2.287951 c 0.635839,-0.05914 1.322411,0.38295 1.408127,1.042219 0.27696,1.061936 -0.988087,2.003456 -1.915875,1.404017 -1.157415,-0.502252 -0.705472,-2.402052 0.507748,-2.446236 z m 29.196548,0.690702 c -1.375675,1.630528 -2.465882,3.541746 -3.165717,5.67979 l 6.150537,1.64864 c 0.64738,-2.131399 1.475265,-4.106859 2.438013,-5.875079 z m 7.314041,1.959044 c -0.98173,1.729709 -1.835634,3.708086 -2.495572,5.860689 l 7.554553,2.022769 1.632194,-6.090922 z m 8.522769,2.283842 -1.632195,6.090923 7.893737,2.115275 c 0.504747,-2.194185 0.754164,-4.334376 0.768818,-6.323213 z m 8.919512,2.390733 c -0.05167,2.012679 -0.321201,4.137436 -0.826376,6.306768 l 5.813408,1.558191 c 0.462956,-2.201514 0.47477,-4.404195 0.09867,-6.504111 z m -28.411287,0.875713 c -0.46295,2.201528 -0.474769,4.404195 -0.09867,6.504109 l 5.334439,1.428685 c 0.07821,-2.011263 0.374904,-4.128872 0.902435,-6.28621 z m 7.969797,2.13583 c -0.529054,2.180191 -0.802412,4.312469 -0.846932,6.302657 l 6.781625,1.817203 1.632194,-6.090922 z m 9.400536,2.520241 -1.632194,6.090922 7.120808,1.907653 c 0.956532,-1.745815 1.785551,-3.728613 2.417457,-5.881245 z m 9.731498,2.606577 c -0.621755,2.1318 -1.422974,4.116288 -2.359899,5.897691 l 5.001423,1.338235 c 1.375673,-1.630529 2.463833,-3.541736 3.163661,-5.67979 z m -26.684532,1.340291 c 1.119892,3.562784 3.389632,6.706325 6.5,8.878399 -0.453025,-0.925587 -0.817151,-1.947218 -1.087445,-3.044434 -0.344242,-1.397378 -0.548347,-2.927672 -0.602308,-4.545066 z m 6.738456,1.804871 c 0.07321,1.281434 0.245339,2.484562 0.513915,3.574793 0.657978,2.670931 1.841369,4.60625 3.375396,5.605787 0.109895,0.03834 0.217707,0.07915 0.328905,0.115117 l 2.041271,-7.618278 z m 8.091081,2.168721 -2.041271,7.618279 c 0.265061,0.05577 0.530668,0.107216 0.79554,0.150063 1.7972,-0.136415 3.745824,-1.218285 5.611954,-3.161606 0.77771,-0.80988 1.528326,-1.765711 2.232447,-2.838868 z m 33.153695,0.803763 -1.253953,4.709519 0.174732,0.353574 c 0.395935,0.80358 0.33348,1.859041 -0.1994,2.468848 l -0.05345,0.05961 -0.04111,0.06578 C 85.272076,58.188621 79.739904,66.717697 74.301498,75.309149 l -0.02056,0.03494 -0.02055,0.03701 c -0.327828,0.622392 -0.858065,1.209268 -1.438963,1.562302 -0.580898,0.353034 -1.170975,0.484838 -1.792536,0.333017 h -0.0062 l -0.0041,-0.0021 C 70.258983,77.097509 69.437803,76.313999 68.235243,75.652445 56.173705,67.943614 44.149185,60.173226 32.113175,52.415256 26.993904,50.890571 21.679029,49.308949 17.034904,47.857857 l 51.130447,32.781621 0.01645,0.01032 0.01645,0.01031 c 3.138394,1.848945 7.390879,0.714524 9.20936,-2.433902 l -0.02467,0.04317 c 5.752445,-8.956002 11.55864,-17.885205 17.283986,-26.869617 l 0.0185,-0.02672 0.01439,-0.02877 c 1.475996,-2.658751 0.914262,-6.105072 -1.303289,-8.173307 z m -24.62887,1.480076 c -0.854675,1.374288 -1.794824,2.598477 -2.791587,3.636464 -0.714273,0.743816 -1.466918,1.394735 -2.242727,1.940543 3.567223,-0.428185 6.893403,-1.979012 9.507432,-4.378557 z M 20.934492,55.671423 55.796441,97.456837 c 2.281033,2.938573 6.787577,3.407733 9.624603,1.003161 8.219455,-6.853181 16.463276,-13.684669 24.665873,-20.566884 l 0.01645,-0.01439 0.01439,-0.01439 c 2.725397,-2.478448 2.853805,-6.930381 0.330961,-9.591712 l -0.03906,-0.04111 -0.04523,-0.03906 c -0.19798,-0.167594 -0.538998,-0.322881 -0.881879,-0.304238 -0.342881,0.01864 -0.597839,0.174538 -0.754427,0.304238 -0.313177,0.2594 -0.407175,0.473317 -0.513915,0.666033 -0.10674,0.192718 -0.19111,0.368032 -0.256958,0.487192 -0.06584,0.11916 -0.145553,0.176544 -0.0185,0.0699 l 0.03701,-0.02877 c -0.28627,0.218732 -0.56171,0.581688 -0.631089,0.992884 -0.06938,0.411196 0.05048,0.743426 0.150063,0.955882 0.199183,0.424912 0.331557,0.62837 0.306294,0.536527 l 0.01645,0.05756 0.02261,0.05756 c 0.400254,0.991677 0.0756,2.353562 -0.774984,2.888204 l -0.06578,0.04111 -0.05756,0.04933 C 78.986148,81.763804 70.868515,88.395766 62.83503,95.135996 61.834765,95.926551 60.14685,95.963339 59.332185,95.059936 50.857909,84.971098 42.434367,74.834782 34.00027,64.706052 Z" />
</svg>
