<?xml version="1.0" encoding="UTF-8" standalone="no"?>
<svg
   xmlns:dc="http://purl.org/dc/elements/1.1/"
   xmlns:cc="http://creativecommons.org/ns#"
   xmlns:rdf="http://www.w3.org/1999/02/22-rdf-syntax-ns#"
   xmlns:svg="http://www.w3.org/2000/svg"
   xmlns="http://www.w3.org/2000/svg"
   xmlns:sodipodi="http://sodipodi.sourceforge.net/DTD/sodipodi-0.dtd"
   xmlns:inkscape="http://www.inkscape.org/namespaces/inkscape"
   version="1.1"
   width="100"
   height="100"
   id="svg4460"
   sodipodi:docname="uEAFD-globe-share.svg"
   inkscape:version="0.92.4 (5da689c313, 2019-01-14)">
  <sodipodi:namedview
     pagecolor="#ffffff"
     bordercolor="#666666"
     borderopacity="1"
     objecttolerance="10"
     gridtolerance="10"
     guidetolerance="10"
     inkscape:pageopacity="0"
     inkscape:pageshadow="2"
     inkscape:window-width="1920"
     inkscape:window-height="1177"
     id="namedview11"
     showgrid="false"
     inkscape:zoom="3.805"
     inkscape:cx="81.721805"
     inkscape:cy="58.351341"
     inkscape:window-x="1272"
     inkscape:window-y="-8"
     inkscape:window-maximized="1"
     inkscape:current-layer="svg4460"
     inkscape:document-rotation="0" />
  <defs
     id="defs4462" />
  <metadata
     id="metadata4465">
    <rdf:RDF>
      <cc:Work
         rdf:about="">
        <dc:format>image/svg+xml</dc:format>
        <dc:type
           rdf:resource="http://purl.org/dc/dcmitype/StillImage" />
        <dc:title />
      </cc:Work>
    </rdf:RDF>
  </metadata>
  <path
     style="color:#000000;overflow:visible;fill:#000080;stroke-width:3.64358997;stroke-linecap:round;stroke-linejoin:round;stroke-dashoffset:188.97599792"
     d="M 49.947266 0 A 50 50 0 0 0 0 50 A 50 50 0 0 0 50 100 A 50 50 0 0 0 98.720703 60.958984 C 97.02838 62.296098 95.032104 63.120244 92.935547 63.488281 C 92.327341 65.428346 91.597451 67.313727 90.744141 69.130859 L 77.089844 69.130859 C 77.845131 65.790813 78.395967 62.274728 78.728516 58.628906 C 77.472104 57.186766 76.520041 55.467899 76.025391 53.494141 C 76.038956 50.66733 74.510828 48.887943 72.4375 47.5 L 52.5 47.5 L 52.5 43.386719 C 50.684081 42.807244 48.970983 41.901684 47.5 40.703125 L 47.5 47.5 L 26.867188 47.5 C 27.07911 41.565457 27.910149 35.945958 29.230469 30.869141 L 42.34375 30.869141 C 42.212387 29.151315 42.461393 27.463111 43.017578 25.869141 L 30.75 25.869141 C 31.737672 23.045533 32.880072 20.440292 34.158203 18.119141 C 37.890361 11.341349 42.5705 7.1024012 47.5 5.8789062 L 47.5 19.394531 C 48.977708 18.116189 50.683054 17.101172 52.5 16.445312 L 52.5 5.6816406 C 57.402222 6.5156835 62.101303 10.336459 65.925781 16.666016 C 67.402508 16.122816 68.807171 15.140234 70.197266 14.091797 C 68.749926 11.705588 67.14498 9.5463716 65.390625 7.6953125 C 68.269374 8.7406502 71.007957 10.074062 73.576172 11.65625 C 74.24399 11.230048 74.916873 10.84074 75.605469 10.568359 C 75.551286 9.4544429 75.666818 8.3559298 75.898438 7.2851562 A 50 50 0 0 0 50 0 A 50 50 0 0 0 49.947266 0 z M 35.980469 7.2324219 C 33.656462 9.5842769 31.569505 12.452374 29.777344 15.707031 C 28.097637 18.757465 26.651832 22.17387 25.464844 25.869141 L 12.009766 25.869141 C 17.545184 17.163368 25.985415 10.499624 35.980469 7.2324219 z M 92.683594 24.078125 C 90.79975 24.562231 88.832947 24.652233 86.900391 24.240234 C 87.274235 24.775391 87.639355 25.317298 87.990234 25.869141 L 76.648438 25.869141 C 74.680265 27.325129 72.749018 28.958973 70.685547 29.775391 C 70.832302 30.183867 71.030888 30.542055 71.261719 30.869141 L 71.695312 30.869141 C 71.755599 31.100952 71.808953 31.340166 71.867188 31.574219 C 73.373352 33.032245 75.728455 33.671089 77.675781 34.71875 C 77.43147 33.411676 77.158145 32.12702 76.855469 30.869141 L 90.744141 30.869141 C 91.452563 32.377731 92.068709 33.936821 92.609375 35.53125 C 94.862447 36.004574 96.913001 37.107873 98.636719 38.628906 A 50 50 0 0 0 92.683594 24.078125 z M 9.2558594 30.869141 L 24.064453 30.869141 C 22.818773 36.03111 22.055644 41.62805 21.861328 47.5 L 5.0722656 47.5 C 5.3956706 41.575313 6.8641984 35.962202 9.2558594 30.869141 z M 5.0722656 52.5 L 21.833984 52.5 C 21.962781 58.356194 22.654426 63.953511 23.828125 69.130859 L 9.2558594 69.130859 C 6.8641984 64.037798 5.3956706 58.424687 5.0722656 52.5 z M 26.833984 52.5 L 47.5 52.5 L 47.5 69.130859 L 28.980469 69.130859 C 27.735338 64.030209 26.974419 58.415464 26.833984 52.5 z M 52.5 52.5 L 74.091797 52.5 C 73.951367 58.415464 73.190443 64.030209 71.945312 69.130859 L 52.5 69.130859 L 52.5 52.5 z M 12.009766 74.130859 L 25.146484 74.130859 C 26.388048 78.214539 27.946438 81.969904 29.777344 85.294922 C 31.214957 87.905702 32.844862 90.263718 34.630859 92.3125 C 25.224063 88.902117 17.294926 82.443041 12.009766 74.130859 z M 30.404297 74.130859 L 47.5 74.130859 L 47.5 94.927734 C 47.192144 94.910934 46.888194 94.880322 46.582031 94.857422 C 41.991579 93.358124 37.657754 89.238181 34.158203 82.882812 C 32.729742 80.288653 31.465568 77.345521 30.404297 74.130859 z M 52.5 74.130859 L 70.521484 74.130859 C 69.460214 77.345521 68.196038 80.288654 66.767578 82.882812 C 63.339948 89.107564 59.112423 93.191261 54.626953 94.765625 C 53.922902 94.837325 53.213353 94.888794 52.5 94.927734 L 52.5 74.130859 z M 75.775391 74.130859 L 87.990234 74.130859 C 82.968694 82.028446 75.557369 88.245533 66.761719 91.771484 C 68.365599 89.851391 69.836497 87.677457 71.148438 85.294922 C 72.979237 81.970075 74.536141 78.215463 75.775391 74.130859 z "
     id="path865" />
  <path
     style="opacity:1;fill:#000080;fill-opacity:1;stroke:#ffffff;stroke-width:0;stroke-linecap:round;stroke-linejoin:round;stroke-miterlimit:4;stroke-dasharray:none;stroke-dashoffset:0;stroke-opacity:1;paint-order:normal"
     d="M 89.807761,5.0000006e-7 A 10.192237,10.192237 0 0 0 79.615523,10.192238 10.192237,10.192237 0 0 0 79.945094,12.733664 L 63.747669,22.57864 A 10.192237,10.192237 0 0 0 56.691843,19.729767 10.192237,10.192237 0 0 0 46.499605,29.922006 10.192237,10.192237 0 0 0 56.691843,40.114244 10.192237,10.192237 0 0 0 63.380499,37.59715 l 16.445154,9.997595 A 10.192237,10.192237 0 0 0 79.615523,49.64956 10.192237,10.192237 0 0 0 89.807761,59.841796 10.192237,10.192237 0 0 0 99.999999,49.64956 10.192237,10.192237 0 0 0 89.807761,39.457322 10.192237,10.192237 0 0 0 82.479881,42.580464 L 66.454977,32.841657 a 10.192237,10.192237 0 0 0 0.429104,-2.919651 10.192237,10.192237 0 0 0 -0.305235,-2.437467 L 82.829362,17.606385 A 10.192237,10.192237 0 0 0 89.807761,20.384477 10.192237,10.192237 0 0 0 99.999999,10.192238 10.192237,10.192237 0 0 0 89.807761,5.0000006e-7 Z"
     id="path812"
     inkscape:connector-curvature="0" />
</svg>
