<?xml version="1.0" encoding="UTF-8" standalone="no"?>
<svg
   xmlns:dc="http://purl.org/dc/elements/1.1/"
   xmlns:cc="http://creativecommons.org/ns#"
   xmlns:rdf="http://www.w3.org/1999/02/22-rdf-syntax-ns#"
   xmlns:svg="http://www.w3.org/2000/svg"
   xmlns="http://www.w3.org/2000/svg"
   xmlns:sodipodi="http://sodipodi.sourceforge.net/DTD/sodipodi-0.dtd"
   xmlns:inkscape="http://www.inkscape.org/namespaces/inkscape"
   version="1.1"
   width="100"
   height="100"
   id="svg4460"
   sodipodi:docname="uEAF8-globe-earth-alt.svg"
   inkscape:version="0.92.4 (5da689c313, 2019-01-14)">
  <sodipodi:namedview
     pagecolor="#ffffff"
     bordercolor="#666666"
     borderopacity="1"
     objecttolerance="10"
     gridtolerance="10"
     guidetolerance="10"
     inkscape:pageopacity="0"
     inkscape:pageshadow="2"
     inkscape:window-width="1920"
     inkscape:window-height="1177"
     id="namedview11"
     showgrid="false"
     inkscape:zoom="5.3810826"
     inkscape:cx="96.596761"
     inkscape:cy="62.959285"
     inkscape:window-x="1272"
     inkscape:window-y="-8"
     inkscape:window-maximized="1"
     inkscape:current-layer="svg4460"
     inkscape:document-rotation="0" />
  <defs
     id="defs4462" />
  <metadata
     id="metadata4465">
    <rdf:RDF>
      <cc:Work
         rdf:about="">
        <dc:format>image/svg+xml</dc:format>
        <dc:type
           rdf:resource="http://purl.org/dc/dcmitype/StillImage" />
        <dc:title />
      </cc:Work>
    </rdf:RDF>
  </metadata>
  <path
     d="M 68.623788,7.8251937 A 35,35 0 0 0 20.771997,20.380012 35,35 0 0 0 33.308175,68.263665 35,35 0 0 0 81.191827,55.727487 35,35 0 0 0 68.65565,7.8438334 35,35 0 0 0 68.623786,7.8251955 Z M 68.15783,12.160358 c 2.865875,2.403441 4.373708,6.805593 4.224103,12.557947 -0.04822,1.854221 -0.278872,3.832113 -0.680199,5.88725 L 61.022057,24.357613 Z M 65.06711,10.512172 58.001065,22.590239 47.880744,16.669537 c 1.594823,-1.356903 3.205947,-2.527175 4.79866,-3.477824 4.650743,-2.775907 8.976835,-3.6827612 12.387706,-2.679541 z M 57.628594,7.2581003 c -2.235482,0.5995091 -4.510218,1.594722 -6.743478,2.9276977 -2.093127,1.249333 -4.174294,2.802463 -6.197654,4.61557 L 36.557926,10.045337 C 42.979687,6.7419544 50.434726,5.6991396 57.628594,7.2581003 Z M 75.23454,17.933526 c 4.471704,5.383525 6.975712,12.083847 7.230656,18.968988 l -7.573719,-4.430861 c 0.590544,-2.651476 0.926622,-5.225956 0.989985,-7.662218 0.06326,-2.432355 -0.150945,-4.7504 -0.646922,-6.875909 z m -42.107893,-5.840634 8.947326,5.234464 c -2.577263,2.678536 -5.01672,5.790452 -7.209712,9.269588 l -10.143923,-5.93451 c 2.289629,-3.46537 5.161002,-6.337716 8.406309,-8.569542 z m 12.068625,7.06052 11.03842,6.457819 -5.878589,10.048336 -12.46631,-7.293178 c 2.225755,-3.510732 4.714217,-6.612273 7.306479,-9.212977 z m 14.059411,8.225192 11.597775,6.785059 c -0.996792,3.534103 -2.481029,7.223146 -4.450697,10.883696 L 53.376095,37.426941 Z m 14.715533,8.609043 8.391513,4.909296 c -0.355231,3.92261 -1.452043,7.833129 -3.350868,11.52713 l -9.591649,-5.611411 c 1.958371,-3.616038 3.476673,-7.266523 4.551004,-10.825015 z M 22.952964,23.683426 33.080366,29.60827 c -1.992196,3.58383 -3.552817,7.210198 -4.673732,10.753215 l -8.804538,-5.150928 c 0.355231,-3.92261 1.452042,-7.83313 3.350868,-11.527131 z m 13.148394,7.692218 12.486372,7.304915 -5.878589,10.048337 -11.18947,-6.546188 c 1.050646,-3.521926 2.57557,-7.183311 4.581687,-10.807064 z m 15.507363,9.072288 13.045728,7.632155 c -2.175815,3.524476 -4.620234,6.647928 -7.175492,9.289609 L 45.730133,50.496269 Z m 16.057278,9.394005 9.577487,5.603129 c -2.289628,3.46537 -5.161002,6.337716 -8.406307,8.569541 l -8.249904,-4.826449 c 2.537718,-2.714615 4.931171,-5.853875 7.078724,-9.346221 z m -48.167371,-10.636951 7.937183,4.643497 c -0.693327,2.906215 -1.079177,5.726052 -1.148257,8.382201 -0.05424,2.085589 0.09704,4.086428 0.451949,5.955604 -4.478087,-5.385613 -6.985737,-12.090925 -7.240875,-18.981302 z m 11.113944,6.502001 10.329196,6.0429 -7.351171,12.565437 c -0.180068,-0.118969 -0.352908,-0.24488 -0.529781,-0.366962 -2.243586,-2.528473 -3.405773,-6.549643 -3.273734,-11.626549 0.0539,-2.072312 0.330403,-4.2974 0.825491,-6.614826 z M 43.962759,53.517261 54.85131,59.8874 c -1.777522,1.567162 -3.581655,2.898544 -5.361699,3.961004 -4.27126,2.549406 -8.269012,3.522445 -11.53562,2.888172 -0.450726,-0.205552 -0.897632,-0.425251 -1.342403,-0.653879 z m 14.062952,8.227263 7.380188,4.317638 c -5.825608,2.99672 -12.501096,4.13336 -19.06175,3.154693 1.647766,-0.593186 3.304917,-1.386746 4.939751,-2.362534 2.28142,-1.361722 4.549253,-3.07993 6.741811,-5.109797 z"
     style="color:#000000;overflow:visible;fill:#000080;stroke-width:2.55051303;stroke-linecap:round;stroke-linejoin:round;stroke-dashoffset:188.97599792"
     id="path865"
     inkscape:connector-curvature="0" />
  <path
     inkscape:connector-curvature="0"
     style="color:#000000;overflow:visible;fill:#000080;fill-opacity:1;stroke:none;stroke-width:24.73972702;stroke-linecap:round;stroke-linejoin:round;stroke-miterlimit:4;stroke-dasharray:none;stroke-dashoffset:20;stroke-opacity:1"
     d="M 72.408203,0.00390599 A 3.0003,3.0003 0 0 0 71.011719,5.5878903 C 83.333669,13.057118 90.396004,26.477009 89.464844,40.537109 88.533684,54.597208 79.753699,67.033598 66.541016,72.898438 53.328333,78.763276 37.863834,77.056083 26.337891,68.474609 a 3.0003,3.0003 0 1 0 -3.583985,4.8125 c 2.622225,1.952339 5.418824,3.592541 8.335938,4.916016 C 24.329744,80.082093 20,83.116873 20,87.142578 20,94.243383 32.3813,100 50,100 67.6187,100 80,94.243383 80,87.142578 80,83.17243 75.795282,80.163946 69.195312,78.279297 84.263864,71.494905 94.376172,57.165612 95.451172,40.933594 96.531447,24.621913 88.304103,9.0543799 74.121094,0.45703099 a 3.0003,3.0003 0 0 0 -1.712891,-0.453125 z M 35.640625,79.980469 c 3.522644,1.164281 7.171584,1.89808 10.859375,2.195312 v 2.070313 a 3.50035,2.7250029 0 1 0 7,0 v -2.03125 C 57.257113,81.949027 60.998837,81.223532 64.638672,80.035156 70.315429,81.282315 74,83.226498 74,85.429688 c 0,3.787096 -10.745168,6.857421 -24,6.857421 -13.254833,0 -24,-3.070326 -24,-6.857421 -6.22e-4,-2.234045 3.78649,-4.20394 9.640625,-5.449219 z"
     id="path887-9" />
</svg>
