<?xml version="1.0" encoding="UTF-8" standalone="no"?>
<svg
   xmlns:dc="http://purl.org/dc/elements/1.1/"
   xmlns:cc="http://creativecommons.org/ns#"
   xmlns:rdf="http://www.w3.org/1999/02/22-rdf-syntax-ns#"
   xmlns:svg="http://www.w3.org/2000/svg"
   xmlns="http://www.w3.org/2000/svg"
   xmlns:sodipodi="http://sodipodi.sourceforge.net/DTD/sodipodi-0.dtd"
   xmlns:inkscape="http://www.inkscape.org/namespaces/inkscape"
   version="1.1"
   width="100"
   height="100"
   id="svg4460"
   sodipodi:docname="uEAF9-globe-earth.svg"
   inkscape:version="0.92.4 (5da689c313, 2019-01-14)">
  <sodipodi:namedview
     pagecolor="#ffffff"
     bordercolor="#666666"
     borderopacity="1"
     objecttolerance="10"
     gridtolerance="10"
     guidetolerance="10"
     inkscape:pageopacity="0"
     inkscape:pageshadow="2"
     inkscape:window-width="1920"
     inkscape:window-height="1177"
     id="namedview11"
     showgrid="false"
     inkscape:zoom="1.3452707"
     inkscape:cx="-1.077675"
     inkscape:cy="-2.301989"
     inkscape:window-x="1272"
     inkscape:window-y="-8"
     inkscape:window-maximized="1"
     inkscape:current-layer="svg4460"
     inkscape:document-rotation="0" />
  <defs
     id="defs4462" />
  <metadata
     id="metadata4465">
    <rdf:RDF>
      <cc:Work
         rdf:about="">
        <dc:format>image/svg+xml</dc:format>
        <dc:type
           rdf:resource="http://purl.org/dc/dcmitype/StillImage" />
        <dc:title />
      </cc:Work>
    </rdf:RDF>
  </metadata>
  <path
     style="color:#000000;overflow:visible;fill:#000080;fill-opacity:1;stroke:none;stroke-width:24.73972702;stroke-linecap:round;stroke-linejoin:round;stroke-miterlimit:4;stroke-dasharray:none;stroke-dashoffset:20;stroke-opacity:1"
     d="M 72.408203 0.00390625 A 3.0003 3.0003 0 0 0 71.011719 5.5878906 C 83.333669 13.057118 90.396004 26.477009 89.464844 40.537109 C 88.533684 54.597208 79.753699 67.033598 66.541016 72.898438 C 53.328333 78.763276 37.863834 77.056083 26.337891 68.474609 A 3.0003 3.0003 0 1 0 22.753906 73.287109 C 25.376131 75.239448 28.17273 76.87965 31.089844 78.203125 C 24.329744 80.082093 20 83.116873 20 87.142578 C 20 94.243383 32.3813 100 50 100 C 67.6187 100 80 94.243383 80 87.142578 C 80 83.17243 75.795282 80.163946 69.195312 78.279297 C 84.263864 71.494905 94.376172 57.165612 95.451172 40.933594 C 96.531447 24.621913 88.304103 9.0543802 74.121094 0.45703125 A 3.0003 3.0003 0 0 0 72.408203 0.00390625 z M 35.640625 79.980469 C 39.163269 81.14475 42.812209 81.878549 46.5 82.175781 L 46.5 84.246094 A 3.50035 2.7250029 0 1 0 53.5 84.246094 L 53.5 82.214844 C 57.257113 81.949027 60.998837 81.223532 64.638672 80.035156 C 70.315429 81.282315 74 83.226498 74 85.429688 C 74 89.216784 63.254832 92.287109 50 92.287109 C 36.745167 92.287109 26 89.216783 26 85.429688 C 25.999378 83.195643 29.78649 81.225748 35.640625 79.980469 z "
     id="path887" />
  <g
     id="g852"
     transform="matrix(0.92657724,0.37578297,-0.37579945,0.9265366,17.560797,-15.353009)">
    <path
       inkscape:connector-curvature="0"
       id="path1091-0"
       style="color:#000000;overflow:visible;fill:#000080;stroke:none;stroke-width:2.09999943;stroke-linecap:round;stroke-linejoin:round;stroke-miterlimit:4;stroke-dasharray:none;stroke-dashoffset:188.97599792;stroke-opacity:1"
       d="m 50.640242,1.8459471 c -19.317506,0 -34.999974,15.6824789 -34.999974,34.9999979 0,19.31752 15.682468,34.999999 34.999974,34.999999 19.282426,0 34.937691,-15.626872 34.994505,-34.896092 a 1.0499992,1.05 0 0 0 0.0055,-0.103907 1.0499992,1.05 0 0 0 -0.0041,-0.09297 C 85.585289,17.478653 69.926373,1.8459471 50.640242,1.8459471 Z m -0.224219,2.1054688 c 0.65283,0.060103 1.303431,0.1403464 1.948242,0.2652343 0.04676,1.5429828 0.391154,4.4254605 -2.623632,4.3230467 -2.481001,0.1391957 -4.83475,5.7749451 -6.230269,1.7076161 0.162701,-2.0862225 3.753255,-6.2903086 -0.583788,-4.7619128 -0.923608,1.3329312 -0.683248,3.8099169 -2.393944,3.5177734 -0.607949,2.1956604 -2.319369,0.8872678 -2.659177,-0.064259 -0.822199,0.4817685 0.610091,1.7165514 -0.310352,2.3748044 2.661413,-1.7894796 0.219084,2.238538 1.740429,3.274413 -1.453213,1.395651 1.146152,4.964967 -1.919529,4.061914 -2.824416,-0.450241 2.19597,-3.566254 -1.263281,-2.079492 -2.174192,0.488249 -2.057261,1.729277 -0.430664,2.05625 -1.460151,1.370643 -3.321716,1.445469 -4.187692,0.828516 -2.218046,1.414781 -4.334312,3.163801 -6.159176,5.218555 -2.681621,0.126329 -2.077322,5.561078 -3.36738,5.00801 -0.141421,-1.665229 0.427619,-4.354 -1.283789,-3.964843 -0.43114,-0.142254 -0.823753,0.04701 -1.164841,0.425194 C 23.942323,13.290568 36.080835,4.047406 50.416023,3.9514159 Z m 4.74277,0.3103519 c 0.451781,0.061976 0.899597,0.1345513 1.345311,0.214648 0.593909,0.2281502 0.97976,0.5353583 0.08203,0.6466802 L 55.869729,4.8797365 C 55.26601,4.5334431 55.094338,4.3448438 55.158793,4.2617678 Z m 7.671285,2.0234375 c 12.137969,4.8404317 20.71014,16.6873337 20.71014,30.5607397 0,9.159889 -3.738361,17.436965 -9.769916,23.399415 0.688689,-1.877762 1.050412,-3.969098 2.336522,-5.542578 0.820764,-2.831427 -2.078543,-4.85459 -0.415625,-7.473049 -1.442971,0.173303 -3.99826,-1.547471 -5.594526,0.799805 -1.824233,0.02445 -3.591539,2.115911 -5.28691,1.024024 -2.252717,-1.33721 -4.837063,-2.901053 -5.475581,-5.632812 0.274428,-2.129832 -0.379909,-4.859859 -0.177735,-6.83457 1.007537,-3.416742 3.721947,-5.47008 4.283395,-8.847069 0.231658,-0.203867 2.199977,-1.739446 2.281834,-1.803321 2.395133,-0.619558 5.653065,-4.464353 7.083393,-0.609765 0.488447,0.35346 3.749953,1.996898 3.456248,0.7 0.07965,-2.02645 5.483936,-0.927186 2.708396,-3.577929 -0.287468,-0.16991 -1.381929,-0.488049 -2.106833,-0.285744 -0.298306,0.07076 -1.5816,1.491221 -2.676952,-0.416993 -1.685661,-1.57023 -0.09043,4.207964 -2.352928,1.2209 2.326848,-0.773273 -2.95518,-3.47694 -1.71035,-1.904492 1.82564,3.101892 -1.57798,1.065293 -0.961133,-1.073242 -2.944883,-0.361256 -1.515891,5.168455 -4.279294,6.018358 0.01841,0.003 0.0388,-8.72e-4 0.05742,0.0014 l -0.48125,0.06289 -0.74375,0.06836 c -0.681393,-0.694362 -2.667965,-0.782054 -2.079489,-2.791795 -1.253,-2.170514 -0.0104,-2.997495 2.206638,-2.793164 2.236534,-1.431907 -4.651775,-3.14653 -0.226952,-3.89375 -1.936928,0.124372 -2.74685,0.197833 -2.99824,-2.191603 0.309203,2.964108 -3.520244,1.114061 -1.466991,-0.649413 0.782487,-0.525938 -1.798581,-1.598732 0.370508,-1.96465 1.451092,-0.07702 4.311381,5.803778 4.835738,2.276368 0.986067,-0.316445 -0.920902,-2.20325 -0.464843,-2.30371 -2.56886,0.818212 -3.31837,-3.6906088 -3.338669,-5.3785145 0.850966,0.033329 1.711949,-0.03626 2.277731,-0.1640625 z M 39.005485,7.4227052 c -0.184989,0.02254 -0.529433,0.18601 -1.073242,0.5755855 -0.680412,0.2922308 -2.040523,2.0911813 -0.444335,0.7601558 1.197208,-0.1991194 2.07255,-1.4033753 1.517577,-1.3357413 z m 24.479474,0.8804687 c -0.332955,0.026399 0.751073,0.8990574 0.237891,0.047853 -0.114213,-0.038268 -0.190361,-0.051633 -0.237891,-0.047853 z M 35.307246,8.7037593 c -0.283305,-0.020524 -0.701334,0.1058668 -1.285155,0.4484372 -1.908563,0.1621369 -2.00887,4.3593185 -1.95371,4.1070315 0.565018,-0.376732 1.063973,-1.529039 1.795116,-1.461524 1.363759,-0.141275 2.671372,-3.004998 1.443749,-3.0939447 z m 17.666783,0.076567 c 1.376766,-0.057529 3.537092,1.0397571 0.548242,1.4109357 -0.485127,-0.0026 -1.017695,-0.08824 -1.383593,-0.4402336 -0.255247,-0.6802358 0.209545,-0.9445497 0.835351,-0.9707021 z m 10.587492,0.5468753 c -0.574027,-0.052234 2.185002,1.8904174 1.019923,0.4210938 -0.57652,-0.291015 -0.887455,-0.40904 -1.019923,-0.4210938 z m -5.755855,1.0787104 c 0.164879,-0.07226 0.467528,0.857226 -0.08066,0.241992 0.01115,-0.154562 0.04266,-0.225317 0.08066,-0.241992 z m 2.116405,0.508593 c 0.133441,0.03658 0.629618,1.062359 0.04101,0.392383 -0.08981,-0.307189 -0.08546,-0.404577 -0.04101,-0.392383 z m 5.992379,0.0069 c -0.288938,0.0012 -0.266727,0.3039 0.604296,1.074609 0.254289,1.165061 -0.348006,1.726838 0.95293,0.67539 0.271726,-0.914143 -1.075668,-1.752031 -1.557226,-1.749999 z m -37.939426,4.251964 c -0.411774,-0.0483 -0.04798,1.8328 0.416993,0.406056 -0.185962,-0.281008 -0.321968,-0.394912 -0.416993,-0.406056 z m 6.499605,0.827147 c -0.259174,-0.0032 -0.01829,0.608903 0.436133,0.266603 -0.208298,-0.195834 -0.349739,-0.265552 -0.436133,-0.266603 z m 39.823409,0.251564 c -0.534878,0.06216 1.181092,3.654439 1.591405,2.017968 2.175058,-0.334413 -0.331854,-2.187312 -0.817579,-1.389061 -0.406888,-0.469215 -0.650395,-0.64325 -0.773826,-0.628907 z m -46.272429,0.657618 c -0.318989,0.0711 -0.510715,2.023743 0.142188,0.101171 -0.04868,-0.08344 -0.09662,-0.111329 -0.142188,-0.101171 z m 42.339032,1.975585 c -0.108953,0.03307 0.143226,0.313566 1.056836,0.995313 0.327047,-0.0978 1.941256,1.405971 1.56406,0.561913 -0.615669,-0.61175 -2.160424,-1.490716 -2.552535,-1.555859 -0.02941,-0.0048 -0.05281,-0.006 -0.06836,-0.0014 z m -43.144304,0.01641 c -0.345877,-0.06956 -1.021057,1.108029 0.15996,0.28711 -0.01789,-0.188798 -0.08014,-0.271058 -0.15996,-0.28711 z m 47.863834,1.564062 c -0.181462,0.07756 0.65576,1.264147 0.591991,0.40879 -0.358009,-0.337335 -0.531512,-0.43464 -0.591991,-0.40879 z m -7.191403,1.620118 c 0.435379,-0.06812 0.175431,1.935102 -0.671288,0.946094 0.303612,-0.670545 0.526157,-0.923386 0.671288,-0.946094 z m 8.915424,0.705468 c 0.473893,-0.06161 0.88206,1.283859 -0.434766,0.65625 0.110909,-0.458194 0.276797,-0.635712 0.434766,-0.65625 z m -25.577325,1.945461 c 0.511839,0.04535 0.417054,0.873565 -0.698634,0.296679 0.290102,-0.239866 0.528023,-0.3118 0.698634,-0.296679 z m 1.543553,0.526366 c 0.208419,0.07864 -0.201555,0.828184 -0.444336,0.220117 0.235635,-0.198003 0.374896,-0.246332 0.444336,-0.220117 z m 5.557612,3.554688 c 0.290801,-0.06998 0.161054,0.972177 -0.269334,0.261133 0.113477,-0.169845 0.202205,-0.244984 0.269334,-0.261133 z m -35.116184,0.299381 c 0.19187,-0.0022 0.618529,1.428394 -0.06426,0.615234 -0.03821,-0.45546 2.77e-4,-0.614539 0.06426,-0.615234 z m -0.380078,1.155275 c 0.192235,0.03238 0.09838,1.86464 -0.28711,0.743748 0.127598,-0.565143 0.223061,-0.754542 0.28711,-0.743748 z m -3.378318,0.563281 c 0.395181,0.218789 -0.714586,3.115673 -0.293944,3.822656 1.352826,2.058706 -0.887872,5.736142 2.314646,6.444923 1.133825,-2.197523 2.188541,-0.203286 2.440428,-0.468946 1.043035,-0.183922 1.785635,2.391708 3.657225,2.043945 2.168422,-0.228122 1.0956,4.034464 4.053707,4.506249 3.611991,1.046552 3.23834,5.887709 7.216011,6.488673 2.35183,1.377273 8.940777,1.979752 6.876947,5.762694 -3.080802,1.269756 -1.105443,6.882431 -5.642378,5.785938 -0.999036,0.28817 -1.432112,1.295062 -2.175194,1.970116 -4.137505,-1.736506 -7.838188,-4.297843 -10.910149,-7.473045 -1.775405,-2.726661 -4.312171,-4.919802 -5.467379,-8.051367 -2.429403,-3.105412 -0.455412,-6.441436 -0.940623,-9.679688 -0.142765,-1.714411 -0.564886,1.02435 -1.137499,-1.151171 -0.865631,-1.774772 -1.165985,-4.119862 -1.632421,-6.138673 0.07953,-1.235249 0.229702,-2.450682 0.4416,-3.644922 0.03745,0.256928 0.09905,0.476487 0.19004,0.637109 0.578711,-0.702355 0.877257,-0.927422 1.008983,-0.854491 z m 1.423241,0.02734 c 0.194174,0.02007 0.466734,0.09189 0.836718,0.226955 0.692292,1.941559 2.577169,2.573211 2.043945,3.428905 1.359238,0.542348 3.339648,3.119423 0.135352,1.966015 -2.128007,-0.857938 0.740333,-1.626521 -1.775976,-2.305078 -0.09859,-1.05789 -2.59922,-3.457281 -1.240039,-3.316797 z m 39.692159,0.535937 c 0.318163,-8.5e-5 0.568732,1.285362 -0.370507,1.059571 0.06677,-0.793973 0.22588,-1.059532 0.370507,-1.059571 z m -37.04802,0.571486 c 0.139422,0.03585 0.361811,0.419651 0.231054,0.88457 l -0.158593,-0.105274 c -0.203672,-0.497329 -0.199043,-0.72517 -0.125781,-0.772461 0.01525,-0.0099 0.0334,-0.01197 0.05333,-0.0069 z m 34.654077,0.05879 c 0.904727,-0.05203 2.514545,0.685619 0.437499,0.754688 h -0.698633 l -0.123046,-0.05743 c -0.292705,-0.486987 -0.02705,-0.673612 0.38418,-0.697264 z m -36.602317,2.551172 c 0.405474,0.08499 1.577771,1.386663 0.231053,0.91875 -0.44086,-0.744454 -0.415357,-0.957383 -0.231053,-0.91875 z m 4.616989,1.972852 c 0.504706,-0.06342 1.184035,1.293833 -0.358204,0.663086 0.04045,-0.463153 0.189972,-0.641946 0.358204,-0.663086 z m 2.456833,2.55117 c 0.204246,0.08028 0.389418,3.166499 -0.157227,1.707619 l -0.02735,-0.507227 c 0.04593,-0.921028 0.11646,-1.227152 0.184571,-1.200392 z m 24.553302,2.054883 c 0.383684,0.04158 1.600916,0.833235 0.307618,0.576954 -0.483811,-0.460272 -0.482014,-0.595853 -0.307618,-0.576954 z m 1.879883,0.430665 c 0.348011,-0.0055 0.219362,1.053437 -0.317188,0.210548 0.132049,-0.151096 0.236877,-0.209288 0.317188,-0.210548 z M 54.77188,42.51157 c 0.533566,-0.08634 0.112887,0.972941 -0.530469,0.278907 0.233822,-0.177492 0.407332,-0.258984 0.530469,-0.278907 z m -0.90371,0.135352 c 0.196811,0.02079 0.08439,0.973828 -0.300781,0.381447 0.135904,-0.292122 0.235191,-0.388378 0.300781,-0.381447 z m 20.454477,6.518749 c 0.196819,0.02079 0.08439,0.973829 -0.300781,0.381446 0.135905,-0.292119 0.23519,-0.388376 0.300781,-0.381446 z" />
  </g>
</svg>
