<?xml version="1.0" encoding="UTF-8" standalone="no"?>
<svg
   xmlns:dc="http://purl.org/dc/elements/1.1/"
   xmlns:cc="http://creativecommons.org/ns#"
   xmlns:rdf="http://www.w3.org/1999/02/22-rdf-syntax-ns#"
   xmlns:svg="http://www.w3.org/2000/svg"
   xmlns="http://www.w3.org/2000/svg"
   xmlns:sodipodi="http://sodipodi.sourceforge.net/DTD/sodipodi-0.dtd"
   xmlns:inkscape="http://www.inkscape.org/namespaces/inkscape"
   version="1.1"
   width="100"
   height="100"
   id="svg4460"
   sodipodi:docname="uEAFB-globe-favorite.svg"
   inkscape:version="0.92.4 (5da689c313, 2019-01-14)">
  <sodipodi:namedview
     pagecolor="#ffffff"
     bordercolor="#666666"
     borderopacity="1"
     objecttolerance="10"
     gridtolerance="10"
     guidetolerance="10"
     inkscape:pageopacity="0"
     inkscape:pageshadow="2"
     inkscape:window-width="1920"
     inkscape:window-height="1177"
     id="namedview11"
     showgrid="false"
     inkscape:zoom="1.9025"
     inkscape:cx="-2.9218131"
     inkscape:cy="34.494298"
     inkscape:window-x="1272"
     inkscape:window-y="-8"
     inkscape:window-maximized="1"
     inkscape:current-layer="svg4460"
     inkscape:document-rotation="0" />
  <defs
     id="defs4462" />
  <metadata
     id="metadata4465">
    <rdf:RDF>
      <cc:Work
         rdf:about="">
        <dc:format>image/svg+xml</dc:format>
        <dc:type
           rdf:resource="http://purl.org/dc/dcmitype/StillImage" />
        <dc:title />
      </cc:Work>
    </rdf:RDF>
  </metadata>
  <path
     style="color:#000000;overflow:visible;fill:#000080;stroke-width:3.64358997;stroke-linecap:round;stroke-linejoin:round;stroke-dashoffset:188.97599792"
     d="M 49.947266,0 C 22.353625,0.02910248 -1.5346905e-5,22.406343 0,50 c 0,27.614237 22.385763,50 50,50 27.614237,0 50,-22.385763 50,-50 -0.01678,-6.246621 -1.20393,-12.434785 -3.5,-18.244141 -1.301487,1.478608 -2.476643,2.747904 -3.865234,3.84961 1.269887,3.766614 2.066848,7.752013 2.292968,11.894531 h -15.875 c -0.01316,-0.398732 -0.03632,-0.793307 -0.05469,-1.189453 -2.014724,0.780941 -3.412829,-0.02852 -5.042969,-0.958985 0.04378,0.71113 0.07778,1.427604 0.103516,2.148438 H 52.5 V 30.869141 h 5.414062 c -1.221266,-1.619254 -2.358258,-3.292433 -3.40625,-5 H 52.5 V 22.421875 C 50.053461,17.659504 50.362694,12.181753 52.5,7.4492188 V 5.6816406 c 0.271698,0.046226 0.542155,0.1074035 0.8125,0.171875 C 54.410194,3.893654 55.823591,2.1037795 57.484375,0.60351562 55.008236,0.21503769 52.506392,0.0132971 50,0 Z M 47.5,5.8789062 V 25.869141 H 30.75 c 0.987672,-2.823608 2.130072,-5.428849 3.408203,-7.75 C 37.890361,11.341349 42.5705,7.1024012 47.5,5.8789062 Z M 35.980469,7.2324219 c -2.324007,2.351855 -4.410964,5.2199521 -6.203125,8.4746091 -1.679707,3.050434 -3.125512,6.466839 -4.3125,10.16211 H 12.009766 C 17.545184,17.163368 25.985415,10.499625 35.980469,7.2324219 Z M 9.2558594,30.869141 H 24.064453 C 22.818773,36.03111 22.055644,41.62805 21.861328,47.5 H 5.0722656 C 5.3956706,41.575313 6.8641974,35.962202 9.2558594,30.869141 Z m 19.9746096,0 H 47.5 V 47.5 H 26.867188 C 27.07911,41.565457 27.910149,35.945958 29.230469,30.869141 Z M 5.0722656,52.5 H 21.833984 c 0.128797,5.856194 0.820442,11.453511 1.994141,16.630859 H 9.2558594 C 6.8641974,64.037798 5.3956706,58.424687 5.0722656,52.5 Z m 21.7617184,0 H 47.5 V 69.130859 H 28.980469 C 27.735338,64.030209 26.974419,58.415464 26.833984,52.5 Z M 52.5,52.5 h 21.591797 c -0.14044,5.915464 -0.901354,11.530209 -2.146485,16.630859 H 52.5 Z m 26.576172,0 h 15.851562 c -0.3234,5.924687 -1.791933,11.537798 -4.183593,16.630859 H 77.089844 C 78.260744,63.952928 78.947412,58.355459 79.076172,52.5 Z M 12.009766,74.130859 h 13.136718 c 1.241564,4.08368 2.799954,7.839045 4.63086,11.164063 1.437613,2.61078 3.067518,4.968794 4.853515,7.017578 C 25.224063,88.902115 17.294926,82.443041 12.009766,74.130859 Z m 18.394531,0 H 47.5 v 20.796875 c -0.307856,-0.0168 -0.611806,-0.04741 -0.917969,-0.07031 -4.590452,-1.49928 -8.924277,-5.619241 -12.423828,-11.97461 -1.428461,-2.594159 -2.692635,-5.537291 -3.753906,-8.751953 z m 22.095703,0 h 18.021484 c -1.06127,3.214662 -2.325444,6.157794 -3.753906,8.751953 -3.427628,6.224752 -7.655158,10.308453 -12.140625,11.882813 -0.704051,0.0717 -1.4136,0.123169 -2.126953,0.162109 z m 23.275391,0 h 12.214843 c -5.02154,7.897587 -12.432864,14.114676 -21.228515,17.640625 1.603881,-1.920091 3.074789,-4.094027 4.386719,-6.476562 1.830809,-3.324847 3.387703,-7.079459 4.626953,-11.164063 z"
     id="path865"
     inkscape:connector-curvature="0"
     sodipodi:nodetypes="csscccccccccccccccccccccccsccscccccccccccccccccccccccccccccccccccsccccccscccsccccccsc" />
  <path
     style="fill:#000080;stroke-width:4.7938962"
     d="m 69.82843,2e-6 c 2.69197,3.21e-4 5.25573,1.501204 7.56046,2.85715 2.30473,-1.355948 4.8685,-2.856829 7.56046,-2.85715 8.28555,0 15.05059,6.765035 15.05059,15.050588 8e-5,0.01102 8e-5,0.02198 0,0.03297 -0.10285,7.007939 -5.74664,13.501118 -11.01102,18.622026 -5.26442,5.120902 -10.48794,8.762658 -10.48794,8.762658 -0.78227,0.544897 -1.82298,0.537853 -2.59781,-0.01759 0,0 -4.89251,-3.498598 -9.94068,-8.545076 -5.04818,-5.046475 -10.49183,-11.572332 -11.17365,-18.639607 -0.007,-0.07158 -0.0112,-0.143456 -0.0112,-0.215384 C 54.77764,6.765035 61.54267,0 69.82822,0 Z"
     id="path4135"
     inkscape:connector-curvature="0" />
</svg>
