<?xml version="1.0" encoding="UTF-8" standalone="no"?>
<svg
   xmlns:dc="http://purl.org/dc/elements/1.1/"
   xmlns:cc="http://creativecommons.org/ns#"
   xmlns:rdf="http://www.w3.org/1999/02/22-rdf-syntax-ns#"
   xmlns:svg="http://www.w3.org/2000/svg"
   xmlns="http://www.w3.org/2000/svg"
   xmlns:sodipodi="http://sodipodi.sourceforge.net/DTD/sodipodi-0.dtd"
   xmlns:inkscape="http://www.inkscape.org/namespaces/inkscape"
   version="1.1"
   width="100"
   height="100"
   id="svg4460"
   sodipodi:docname="uEAFC-globe-options.svg"
   inkscape:version="0.92.4 (5da689c313, 2019-01-14)">
  <sodipodi:namedview
     pagecolor="#ffffff"
     bordercolor="#666666"
     borderopacity="1"
     objecttolerance="10"
     gridtolerance="10"
     guidetolerance="10"
     inkscape:pageopacity="0"
     inkscape:pageshadow="2"
     inkscape:window-width="1920"
     inkscape:window-height="1177"
     id="namedview11"
     showgrid="false"
     inkscape:zoom="3.805"
     inkscape:cx="96.382318"
     inkscape:cy="4.2870664"
     inkscape:window-x="1272"
     inkscape:window-y="-8"
     inkscape:window-maximized="1"
     inkscape:current-layer="svg4460"
     inkscape:document-rotation="0" />
  <defs
     id="defs4462" />
  <metadata
     id="metadata4465">
    <rdf:RDF>
      <cc:Work
         rdf:about="">
        <dc:format>image/svg+xml</dc:format>
        <dc:type
           rdf:resource="http://purl.org/dc/dcmitype/StillImage" />
        <dc:title />
      </cc:Work>
    </rdf:RDF>
  </metadata>
  <path
     style="color:#000000;overflow:visible;fill:#000080;stroke-width:3.64358997;stroke-linecap:round;stroke-linejoin:round;stroke-dashoffset:188.97599792"
     d="M 49.947266,0 C 22.353625,0.02910248 -1.5346905e-5,22.406343 0,50 c 0,27.614237 22.385763,50 50,50 27.614237,0 50,-22.385763 50,-50 -0.01897,-3.947819 -0.505431,-7.879499 -1.449219,-11.712891 l -4.191406,4.191407 c 0.276821,1.646238 0.475417,3.318833 0.568359,5.021484 H 52.5 V 5.6816406 c 1.266095,0.215408 2.51851,0.6349821 3.746094,1.2402344 0.02301,-0.027015 0.04712,-0.053079 0.07227,-0.078125 L 61.712891,1.4492188 C 57.879499,0.50543085 53.947819,0.01896987 50,0 Z M 47.5,5.8789062 V 25.869141 H 30.75 c 0.987672,-2.823608 2.130072,-5.428849 3.408203,-7.75 C 37.890361,11.341349 42.5705,7.1024017 47.5,5.8789062 Z M 35.980469,7.2324219 c -2.324007,2.3518549 -4.410964,5.2199521 -6.203125,8.4746091 -1.679707,3.050434 -3.125512,6.466839 -4.3125,10.16211 H 12.009766 C 17.545184,17.163368 25.985415,10.499623 35.980469,7.2324219 Z M 9.2558594,30.869141 H 24.064453 C 22.818773,36.03111 22.055644,41.62805 21.861328,47.5 H 5.0722656 C 5.3956706,41.575313 6.8641974,35.962202 9.2558594,30.869141 Z m 19.9746096,0 H 47.5 V 47.5 H 26.867188 C 27.07911,41.565457 27.910149,35.945958 29.230469,30.869141 Z M 5.0722656,52.5 H 21.833984 c 0.128797,5.856194 0.820442,11.453511 1.994141,16.630859 H 9.2558594 C 6.8641974,64.037798 5.3956706,58.424687 5.0722656,52.5 Z m 21.7617184,0 H 47.5 V 69.130859 H 28.980469 C 27.735338,64.030209 26.974419,58.415464 26.833984,52.5 Z M 52.5,52.5 h 21.591797 c -0.14044,5.915464 -0.901348,11.530209 -2.146485,16.630859 H 52.5 Z m 26.576172,0 h 15.851562 c -0.32341,5.924687 -1.791923,11.537798 -4.183593,16.630859 H 77.089844 C 78.260734,63.952928 78.947422,58.355459 79.076172,52.5 Z M 12.009766,74.130859 h 13.136718 c 1.241564,4.08368 2.799954,7.839045 4.63086,11.164063 1.437613,2.61078 3.067518,4.968796 4.853515,7.017578 C 25.224063,88.902117 17.294926,82.443041 12.009766,74.130859 Z m 18.394531,0 H 47.5 v 20.796875 c -0.307856,-0.0168 -0.611806,-0.04737 -0.917969,-0.07031 -4.590452,-1.499284 -8.924277,-5.619241 -12.423828,-11.97461 -1.428461,-2.594158 -2.692635,-5.537291 -3.753906,-8.751953 z m 22.095703,0 h 18.021484 c -1.061271,3.214662 -2.325444,6.157794 -3.753906,8.751953 -3.427628,6.224752 -7.655158,10.308452 -12.140625,11.882813 -0.704051,0.07168 -1.4136,0.12317 -2.126953,0.162109 z m 23.275391,0 h 12.214843 c -5.02155,7.897587 -12.432866,14.114674 -21.228515,17.640625 1.60388,-1.920093 3.074787,-4.094027 4.386719,-6.476562 1.830809,-3.324847 3.387703,-7.079459 4.626953,-11.164063 z"
     id="path865"
     inkscape:connector-curvature="0"
     sodipodi:nodetypes="cssccccccccccccccsccscccccccccccccccccccccccccccccccccccsccccccscccsccccccscc" />
  <path
     inkscape:connector-curvature="0"
     id="path917"
     style="color:#000000;font-style:normal;font-variant:normal;font-weight:normal;font-stretch:normal;font-size:medium;line-height:normal;font-family:sans-serif;font-variant-ligatures:normal;font-variant-position:normal;font-variant-caps:normal;font-variant-numeric:normal;font-variant-alternates:normal;font-feature-settings:normal;text-indent:0;text-align:start;text-decoration:none;text-decoration-line:none;text-decoration-style:solid;text-decoration-color:#000000;letter-spacing:normal;word-spacing:normal;text-transform:none;writing-mode:lr-tb;direction:ltr;text-orientation:mixed;dominant-baseline:auto;baseline-shift:baseline;text-anchor:start;white-space:normal;shape-padding:0;clip-rule:nonzero;display:inline;overflow:visible;visibility:visible;opacity:1;isolation:auto;mix-blend-mode:normal;color-interpolation:sRGB;color-interpolation-filters:linearRGB;solid-color:#000000;solid-opacity:1;vector-effect:none;fill:#000080;fill-opacity:1;fill-rule:nonzero;stroke:none;stroke-width:7.875;stroke-linecap:round;stroke-linejoin:round;stroke-miterlimit:4;stroke-dasharray:none;stroke-dashoffset:20;stroke-opacity:1;color-rendering:auto;image-rendering:auto;shape-rendering:auto;text-rendering:auto;enable-background:accumulate"
     d="M 74.125,0 A 1.1251125,1.1251125 0 0 0 73,1.125 V 7.414453 C 71.95895,7.727979 70.9613,8.145121 70.02139,8.657226 L 65.56797,4.203809 A 1.1251125,1.1251125 0 0 0 64.7585,3.874219 1.1251125,1.1251125 0 0 0 63.97627,4.203809 L 59.20381,8.97627 a 1.1251125,1.1251125 0 0 0 0,1.591698 l 4.45342,4.453419 C 63.14512,15.961298 62.72798,16.958951 62.41446,18 H 56.125 A 1.1251125,1.1251125 0 0 0 55,19.125 v 6.75 A 1.1251125,1.1251125 0 0 0 56.125,27 h 6.28946 c 0.31352,1.041049 0.73066,2.038703 1.24277,2.978613 l -4.45342,4.453417 a 1.1251125,1.1251125 0 0 0 0,1.5917 l 4.77246,4.772461 a 1.1251125,1.1251125 0 0 0 1.5917,0 l 4.45342,-4.453417 C 70.9613,36.85488 71.95895,37.272021 73,37.585547 V 43.875 A 1.1251125,1.1251125 0 0 0 74.125,45 h 6.75 A 1.1251125,1.1251125 0 0 0 82,43.875 v -6.289453 c 1.04105,-0.313526 2.0387,-0.730667 2.97862,-1.242773 l 4.45341,4.453417 a 1.1251125,1.1251125 0 0 0 1.5917,0 l 4.77246,-4.772461 a 1.1251125,1.1251125 0 0 0 0,-1.5917 L 91.34278,29.978613 C 91.85488,29.038703 92.27203,28.041049 92.58554,27 H 98.875 A 1.1251125,1.1251125 0 0 0 100,25.875 v -6.75 A 1.1251125,1.1251125 0 0 0 98.875,18 h -6.28946 c -0.31351,-1.041049 -0.73066,-2.038702 -1.24276,-2.978613 l 4.45341,-4.453419 a 1.1251125,1.1251125 0 0 0 0,-1.591698 L 91.02373,4.203809 a 1.1251125,1.1251125 0 0 0 -0.80947,-0.32959 1.1251125,1.1251125 0 0 0 -0.78223,0.32959 L 84.97862,8.657226 C 84.0387,8.145121 83.04105,7.727979 82,7.414453 V 1.125 A 1.1251125,1.1251125 0 0 0 80.875,0 Z M 77.5,14.625 c 4.39588,0 7.875,3.47912 7.875,7.875 0,4.39588 -3.47912,7.875 -7.875,7.875 -4.39588,0 -7.875,-3.47912 -7.875,-7.875 0,-4.39588 3.47912,-7.875 7.875,-7.875 z" />
</svg>
