<?xml version="1.0" encoding="UTF-8" standalone="no"?>
<svg
   xmlns:dc="http://purl.org/dc/elements/1.1/"
   xmlns:cc="http://creativecommons.org/ns#"
   xmlns:rdf="http://www.w3.org/1999/02/22-rdf-syntax-ns#"
   xmlns:svg="http://www.w3.org/2000/svg"
   xmlns="http://www.w3.org/2000/svg"
   xmlns:sodipodi="http://sodipodi.sourceforge.net/DTD/sodipodi-0.dtd"
   xmlns:inkscape="http://www.inkscape.org/namespaces/inkscape"
   version="1.1"
   width="100"
   height="100"
   id="svg4460"
   sodipodi:docname="uEAFF-globe-smiley.svg"
   inkscape:version="0.92.4 (5da689c313, 2019-01-14)">
  <sodipodi:namedview
     pagecolor="#ffffff"
     bordercolor="#666666"
     borderopacity="1"
     objecttolerance="10"
     gridtolerance="10"
     guidetolerance="10"
     inkscape:pageopacity="0"
     inkscape:pageshadow="2"
     inkscape:window-width="1920"
     inkscape:window-height="1177"
     id="namedview11"
     showgrid="false"
     inkscape:zoom="3.805"
     inkscape:cx="44.902987"
     inkscape:cy="47.969604"
     inkscape:window-x="1272"
     inkscape:window-y="-8"
     inkscape:window-maximized="1"
     inkscape:current-layer="svg4460"
     inkscape:document-rotation="0" />
  <defs
     id="defs4462" />
  <metadata
     id="metadata4465">
    <rdf:RDF>
      <cc:Work
         rdf:about="">
        <dc:format>image/svg+xml</dc:format>
        <dc:type
           rdf:resource="http://purl.org/dc/dcmitype/StillImage" />
        <dc:title></dc:title>
      </cc:Work>
    </rdf:RDF>
  </metadata>
  <path
     style="color:#000000;font-style:normal;font-variant:normal;font-weight:normal;font-stretch:normal;font-size:medium;line-height:normal;font-family:sans-serif;font-variant-ligatures:normal;font-variant-position:normal;font-variant-caps:normal;font-variant-numeric:normal;font-variant-alternates:normal;font-feature-settings:normal;text-indent:0;text-align:start;text-decoration:none;text-decoration-line:none;text-decoration-style:solid;text-decoration-color:#000000;letter-spacing:normal;word-spacing:normal;text-transform:none;writing-mode:lr-tb;direction:ltr;text-orientation:mixed;dominant-baseline:auto;baseline-shift:baseline;text-anchor:start;white-space:normal;shape-padding:0;clip-rule:nonzero;display:inline;overflow:visible;visibility:visible;opacity:1;isolation:auto;mix-blend-mode:normal;color-interpolation:sRGB;color-interpolation-filters:linearRGB;solid-color:#000000;solid-opacity:1;vector-effect:none;fill:#000080;fill-opacity:1;fill-rule:nonzero;stroke:none;stroke-width:5.76399994;stroke-linecap:round;stroke-linejoin:round;stroke-miterlimit:4;stroke-dasharray:none;stroke-dashoffset:20;stroke-opacity:1;paint-order:normal;color-rendering:auto;image-rendering:auto;shape-rendering:auto;text-rendering:auto;enable-background:accumulate"
     d="M 74.0625 0 C 59.771489 0 48.125 11.646489 48.125 25.9375 C 48.125 40.228511 59.771489 51.875 74.0625 51.875 C 88.353511 51.875 100 40.228511 100 25.9375 C 100 11.646489 88.353511 0 74.0625 0 z M 74.0625 5.7636719 C 85.238414 5.7636719 94.236328 14.761586 94.236328 25.9375 C 94.236328 37.113414 85.238414 46.111328 74.0625 46.111328 C 62.886586 46.111328 53.888672 37.113414 53.888672 25.9375 C 53.888672 14.761586 62.886586 5.7636719 74.0625 5.7636719 z M 66.4375 16.884766 A 4.4314185 4.4314185 0 0 0 62.005859 21.316406 A 4.4314185 4.4314185 0 0 0 66.4375 25.748047 A 4.4314185 4.4314185 0 0 0 70.869141 21.316406 A 4.4314185 4.4314185 0 0 0 66.4375 16.884766 z M 81.6875 16.884766 A 4.4314185 4.4314185 0 0 0 77.255859 21.316406 A 4.4314185 4.4314185 0 0 0 81.6875 25.748047 A 4.4314185 4.4314185 0 0 0 86.119141 21.316406 A 4.4314185 4.4314185 0 0 0 81.6875 16.884766 z M 65.802734 32.607422 A 2.4329552 2.4329552 0 0 0 64.375 36.974609 C 66.873654 38.938088 70.280149 39.893492 73.900391 39.955078 C 77.520631 40.016658 80.993459 39.170335 83.625 37.333984 A 2.4329552 2.4329552 0 1 0 80.839844 33.34375 C 79.363902 34.373696 76.731687 35.136613 73.982422 35.089844 C 71.233156 35.043084 68.703303 34.186097 67.382812 33.148438 A 2.4329552 2.4329552 0 0 0 65.802734 32.607422 z "
     id="path939" />
  <path
     style="color:#000000;overflow:visible;fill:#000080;stroke-width:3.64358997;stroke-linecap:round;stroke-linejoin:round;stroke-dashoffset:188.97599792"
     d="M 49.947266,0 C 22.353625,0.02910248 -1.5346905e-5,22.406343 0,50 0,77.614237 22.385763,100 50,100 77.614237,100 100,77.614237 100,50 99.98727,47.351828 99.744819,44.714321 99.314453,42.105469 96.11507,46.714581 92.695743,50.032155 88.248047,52.5 h 6.679687 c -0.32341,5.924687 -1.791923,11.537798 -4.183593,16.630859 H 77.089844 c 0.963938,-4.262747 1.592909,-8.813396 1.859375,-13.554687 -1.656672,0.234282 -3.334971,0.324013 -5.011719,0.277344 -0.301432,4.685429 -0.985058,9.151681 -1.992188,13.277343 H 52.5 V 52.5 h 8.050781 C 54.977918,49.639724 50.33231,45.368973 47.5,40.019531 V 47.5 H 26.867188 c 0.211922,-5.934543 1.042961,-11.554042 2.363281,-16.630859 h 15.107422 c -0.282067,-1.660153 -0.405238,-3.331947 -0.371094,-5 H 30.75 c 0.987672,-2.823608 2.130072,-5.428849 3.408203,-7.75 C 37.890361,11.341349 42.5705,7.1024017 47.5,5.8789062 V 12.466797 C 49.964183,7.7593689 53.588568,3.6386288 57.964844,0.6953125 55.333229,0.25735406 52.671866,0.01283872 50,0 Z M 35.980469,7.2324219 c -2.324007,2.3518549 -4.410964,5.2199521 -6.203125,8.4746091 -1.679707,3.050434 -3.125512,6.466839 -4.3125,10.16211 H 12.009766 C 17.545184,17.163368 25.985415,10.499623 35.980469,7.2324219 Z M 9.2558594,30.869141 H 24.064453 C 22.818773,36.03111 22.055644,41.62805 21.861328,47.5 H 5.0722656 C 5.3956706,41.575313 6.8641974,35.962202 9.2558594,30.869141 Z M 5.0722656,52.5 H 21.833984 c 0.128797,5.856194 0.820442,11.453511 1.994141,16.630859 H 9.2558594 C 6.8641974,64.037798 5.3956706,58.424687 5.0722656,52.5 Z m 21.7617184,0 H 47.5 V 69.130859 H 28.980469 C 27.735338,64.030209 26.974419,58.415464 26.833984,52.5 Z M 12.009766,74.130859 h 13.136718 c 1.241564,4.08368 2.799954,7.839045 4.63086,11.164063 1.437613,2.61078 3.067518,4.968796 4.853515,7.017578 C 25.224063,88.902117 17.294926,82.443041 12.009766,74.130859 Z m 18.394531,0 H 47.5 v 20.796875 c -0.307856,-0.0168 -0.611806,-0.04737 -0.917969,-0.07031 -4.590452,-1.499284 -8.924277,-5.61924 -12.423828,-11.97461 -1.428461,-2.594157 -2.692635,-5.537291 -3.753906,-8.751953 z m 22.095703,0 h 18.021484 c -1.061271,3.214662 -2.325444,6.157794 -3.753906,8.751953 -3.427628,6.224752 -7.655158,10.308452 -12.140625,11.882813 -0.704051,0.07168 -1.4136,0.12317 -2.126953,0.162109 z m 23.275391,0 h 12.214843 c -5.02155,7.897587 -12.432866,14.114674 -21.228515,17.640625 1.60388,-1.920093 3.074787,-4.094027 4.386719,-6.476562 1.830809,-3.324847 3.387703,-7.079459 4.626953,-11.164063 z"
     id="path865"
     inkscape:connector-curvature="0"
     sodipodi:nodetypes="csscccccccccccccccccccsccccccsccccccccccccccccccccsccccccsccascacaccsac" />
</svg>
