<?xml version="1.0" encoding="UTF-8" standalone="no"?>
<svg
   xmlns:dc="http://purl.org/dc/elements/1.1/"
   xmlns:cc="http://creativecommons.org/ns#"
   xmlns:rdf="http://www.w3.org/1999/02/22-rdf-syntax-ns#"
   xmlns:svg="http://www.w3.org/2000/svg"
   xmlns="http://www.w3.org/2000/svg"
   xmlns:sodipodi="http://sodipodi.sourceforge.net/DTD/sodipodi-0.dtd"
   xmlns:inkscape="http://www.inkscape.org/namespaces/inkscape"
   version="1.1"
   width="100"
   height="100"
   id="svg4460"
   sodipodi:docname="uEAFE-globe-star.svg"
   inkscape:version="0.92.4 (5da689c313, 2019-01-14)">
  <sodipodi:namedview
     pagecolor="#ffffff"
     bordercolor="#666666"
     borderopacity="1"
     objecttolerance="10"
     gridtolerance="10"
     guidetolerance="10"
     inkscape:pageopacity="0"
     inkscape:pageshadow="2"
     inkscape:window-width="1920"
     inkscape:window-height="1177"
     id="namedview11"
     showgrid="false"
     inkscape:zoom="2.6905413"
     inkscape:cx="30.908115"
     inkscape:cy="108.23244"
     inkscape:window-x="1272"
     inkscape:window-y="-8"
     inkscape:window-maximized="1"
     inkscape:current-layer="svg4460"
     inkscape:document-rotation="0" />
  <defs
     id="defs4462" />
  <metadata
     id="metadata4465">
    <rdf:RDF>
      <cc:Work
         rdf:about="">
        <dc:format>image/svg+xml</dc:format>
        <dc:type
           rdf:resource="http://purl.org/dc/dcmitype/StillImage" />
        <dc:title />
      </cc:Work>
    </rdf:RDF>
  </metadata>
  <path
     style="color:#000000;overflow:visible;fill:#000080;stroke-width:3.64358997;stroke-linecap:round;stroke-linejoin:round;stroke-dashoffset:188.97599792"
     d="M 49.947266,0 C 22.353625,0.02910248 -1.5346905e-5,22.406343 0,50 c 0,27.614237 22.385763,50 50,50 27.614237,0 50,-22.385763 50,-50 -0.02035,-7.312582 -1.644453,-14.531696 -4.757812,-21.148438 -0.0136,0.01219 -0.03144,0.02691 -0.04492,0.03906 l -2.673899,2.67381 2.61582,12.263157 c 0.262627,2.407619 -0.204044,3.344915 -1.211455,5.029833 -2.291058,2.36687 -5.04405,2.742809 -7.469892,1.438163 L 81.259766,47.5 h -2.207032 c -0.01609,-0.487768 -0.04253,-0.971197 -0.06641,-1.455078 l -3.528595,-1.929727 -1.526092,0.916055 c 0.05347,0.816699 0.09733,1.639115 0.126953,2.46875 h -5.080078 l -4.258973,2.554632 c -1.410223,0.845885 -3.043958,1.109517 -4.729309,0.89654 C 57.8421,50.371354 56.626026,49.107669 56.021484,47.5 H 52.5 V 30.869141 h 4.40625 L 47.5,21.203125 v 4.666016 H 30.75 c 0.98767,-2.823608 2.130073,-5.428849 3.408203,-7.75 C 37.890363,11.341349 42.5705,7.1024012 47.5,5.8789062 v 9.6347658 c 0.990518,-1.691264 2.864792,-2.53387 5,-2.984375 V 5.6816406 c 3.389908,0.5767449 6.682179,2.5873494 9.65625,5.8613284 l 2.249816,-0.321287 3.744325,-7.8076195 C 62.364752,1.1588409 56.209641,0.00107333 50,0 Z M 35.980469,7.2324219 c -2.32401,2.351855 -4.410965,5.2199521 -6.203125,8.4746091 -1.6797,3.050434 -3.12551,6.466839 -4.3125,10.16211 H 12.009766 C 17.545186,17.163368 25.985409,10.499623 35.980469,7.2324219 Z M 9.2558594,30.869141 H 24.064453 C 22.818773,36.03111 22.055638,41.62805 21.861328,47.5 H 5.0722656 c 0.32341,-5.924687 1.7919338,-11.537798 4.1835938,-16.630859 z m 19.9746096,0 H 47.5 V 47.5 H 26.867188 c 0.211919,-5.934543 1.042961,-11.554042 2.363281,-16.630859 z M 5.0722656,52.5 H 21.833984 c 0.1288,5.856194 0.820441,11.453511 1.994141,16.630859 H 9.2558594 C 6.8641994,64.037798 5.3956756,58.424687 5.0722656,52.5 Z m 21.7617184,0 H 47.5 V 69.130859 H 28.980469 C 27.735339,64.030209 26.974424,58.415464 26.833984,52.5 Z M 52.5,52.5 h 21.591797 c -0.140435,5.915464 -0.901353,11.530209 -2.146485,16.630859 H 52.5 Z m 26.576172,0 h 15.851562 c -0.323405,5.924687 -1.791931,11.537798 -4.183593,16.630859 H 77.089844 C 78.260736,63.952928 78.947413,58.355459 79.076172,52.5 Z M 12.009766,74.130859 h 13.136718 c 1.24157,4.08368 2.79996,7.839045 4.63086,11.164063 1.43762,2.61078 3.067515,4.968796 4.853515,7.017578 -9.4068,-3.410383 -17.335933,-9.869459 -22.621093,-18.181641 z m 18.394531,0 H 47.5 v 20.796875 c -0.30786,-0.0168 -0.611809,-0.04737 -0.917969,-0.07031 -4.59045,-1.499284 -8.924278,-5.619242 -12.423828,-11.97461 -1.42846,-2.594159 -2.692636,-5.537291 -3.753906,-8.751953 z m 22.095703,0 h 18.021484 c -1.061271,3.214662 -2.325444,6.157795 -3.753906,8.751953 -3.427628,6.224752 -7.655158,10.308452 -12.140625,11.882813 -0.704051,0.07168 -1.4136,0.12317 -2.126953,0.162109 z m 23.275391,0 h 12.214843 c -5.021546,7.897587 -12.432863,14.114674 -21.228515,17.640625 1.60388,-1.920093 3.074787,-4.094027 4.386719,-6.476562 1.830809,-3.324847 3.387704,-7.079459 4.626953,-11.164063 z"
     id="path865"
     inkscape:connector-curvature="0"
     sodipodi:nodetypes="cssccccccscccccccsccccccccscccccccccccccccccccccccccccccccccccccccccccccccccccccscccsccccccscc" />
  <path
     style="color:#000000;font-style:normal;font-variant:normal;font-weight:normal;font-stretch:normal;font-size:medium;line-height:normal;font-family:sans-serif;font-variant-ligatures:normal;font-variant-position:normal;font-variant-caps:normal;font-variant-numeric:normal;font-variant-alternates:normal;font-feature-settings:normal;text-indent:0;text-align:start;text-decoration:none;text-decoration-line:none;text-decoration-style:solid;text-decoration-color:#000000;letter-spacing:normal;word-spacing:normal;text-transform:none;writing-mode:lr-tb;direction:ltr;text-orientation:mixed;dominant-baseline:auto;baseline-shift:baseline;text-anchor:start;white-space:normal;shape-padding:0;clip-rule:nonzero;display:inline;overflow:visible;visibility:visible;opacity:1;isolation:auto;mix-blend-mode:normal;color-interpolation:sRGB;color-interpolation-filters:linearRGB;solid-color:#000000;solid-opacity:1;vector-effect:none;fill:#000080;fill-opacity:1;fill-rule:nonzero;stroke:none;stroke-width:3;stroke-linecap:round;stroke-linejoin:round;stroke-miterlimit:4;stroke-dasharray:none;stroke-dashoffset:0;stroke-opacity:1;paint-order:normal;color-rendering:auto;image-rendering:auto;shape-rendering:auto;text-rendering:auto;enable-background:accumulate"
     d="M 75.334345,1.0961174e-4 A 1.50015,1.50015 0 0 0 73.971065,0.83604661 l -6.81445,13.80859439 -15.23828,2.212891 a 1.50015,1.50015 0 0 0 -0.83008,2.558593 l 11.02539,10.748047 -2.60156,15.177735 a 1.50015,1.50015 0 0 0 2.17578,1.580078 l 13.6289,-7.164063 13.62891,7.164063 a 1.50015,1.50015 0 0 0 2.17773,-1.580078 l -2.60351,-15.177735 11.02734,-10.748047 a 1.50015,1.50015 0 0 0 -0.83203,-2.558593 L 83.476925,14.644641 76.662475,0.83604661 A 1.50015,1.50015 0 0 0 75.334345,1.0961174e-4 Z"
     id="path828"
     inkscape:connector-curvature="0" />
</svg>
