<?xml version="1.0" encoding="UTF-8" standalone="no"?>
<svg
   xmlns:dc="http://purl.org/dc/elements/1.1/"
   xmlns:cc="http://creativecommons.org/ns#"
   xmlns:rdf="http://www.w3.org/1999/02/22-rdf-syntax-ns#"
   xmlns:svg="http://www.w3.org/2000/svg"
   xmlns="http://www.w3.org/2000/svg"
   xmlns:sodipodi="http://sodipodi.sourceforge.net/DTD/sodipodi-0.dtd"
   xmlns:inkscape="http://www.inkscape.org/namespaces/inkscape"
   version="1.1"
   width="100"
   height="100"
   id="svg4460"
   sodipodi:docname="uEB0F-earth-network.svg"
   inkscape:version="1.0 (4035a4fb49, 2020-05-01)">
  <sodipodi:namedview
     pagecolor="#ffffff"
     bordercolor="#666666"
     borderopacity="1"
     objecttolerance="10"
     gridtolerance="10"
     guidetolerance="10"
     inkscape:pageopacity="0"
     inkscape:pageshadow="2"
     inkscape:window-width="1920"
     inkscape:window-height="1017"
     id="namedview11"
     showgrid="false"
     inkscape:zoom="7.61"
     inkscape:cx="21.595226"
     inkscape:cy="53.717465"
     inkscape:window-x="-8"
     inkscape:window-y="-8"
     inkscape:window-maximized="1"
     inkscape:current-layer="svg4460"
     inkscape:document-rotation="0" />
  <defs
     id="defs4462" />
  <metadata
     id="metadata4465">
    <rdf:RDF>
      <cc:Work
         rdf:about="">
        <dc:format>image/svg+xml</dc:format>
        <dc:type
           rdf:resource="http://purl.org/dc/dcmitype/StillImage" />
        <dc:title />
      </cc:Work>
    </rdf:RDF>
  </metadata>
  <path
     d="M 37.328125 0 C 30.454177 0 24.828125 5.6260522 24.828125 12.5 C 24.828125 19.373948 30.454177 25 37.328125 25 C 38.643924 25 39.913778 24.791737 41.107422 24.410156 L 47.683594 38.386719 C 39.559217 43.505572 35.317784 53.510056 37.929688 63.257812 C 38.396825 65.001195 39.063128 66.636804 39.888672 68.158203 L 22.138672 79.5625 L 22.136719 79.560547 C 19.839072 76.779576 16.366596 75 12.5 75 C 5.6260522 75 0 80.626052 0 87.5 C 0 94.373948 5.6260522 100 12.5 100 C 19.373948 100 25 94.373948 25 87.5 C 25 85.922764 24.691854 84.416387 24.152344 83.023438 L 42.103516 71.490234 C 47.522248 78.237118 56.60818 81.544908 65.486328 79.166016 C 77.466433 75.955956 84.606544 63.589481 81.396484 51.609375 C 80.377025 47.804702 78.431913 44.491674 75.871094 41.839844 L 85.748047 29.03125 C 87.041865 29.64616 88.480829 30 90 30 C 95.493236 30 100 25.493236 100 20 C 100 14.506764 95.493236 10 90 10 C 84.506764 10 80 14.506764 80 20 C 80 22.538934 80.970913 24.859011 82.548828 26.628906 L 72.841797 39.214844 C 67.541113 35.388577 60.6293 33.879989 53.839844 35.699219 C 52.947567 35.938303 52.0863 36.233584 51.25 36.570312 L 44.669922 22.583984 C 47.786331 20.304896 49.828125 16.633243 49.828125 12.5 C 49.828125 5.6260522 44.202073 0 37.328125 0 z M 37.328125 5 C 41.499872 5 44.828125 8.3282528 44.828125 12.5 C 44.828125 16.671747 41.499872 20 37.328125 20 C 33.156378 20 29.828125 16.671747 29.828125 12.5 C 29.828125 8.3282528 33.156378 5 37.328125 5 z M 90 15 C 92.791035 15 95 17.208965 95 20 C 95 22.791035 92.791035 25 90 25 C 87.208965 25 85 22.791035 85 20 C 85 17.208965 87.208965 15 90 15 z M 60.453125 37.445312 C 68.957185 37.781806 76.62789 43.569268 78.966797 52.207031 A 0.60000005 0.60000005 0 0 1 78.982422 52.257812 A 0.60000005 0.60000005 0 0 1 78.994141 52.316406 C 81.812634 62.960604 75.482935 73.900146 64.839844 76.751953 C 54.177392 79.608949 43.202698 73.27378 40.345703 62.611328 C 37.488707 51.948875 43.825829 40.972229 54.488281 38.115234 C 56.484244 37.580418 58.49065 37.36766 60.453125 37.445312 z M 58.113281 38.701172 C 57.85542 38.722882 57.598374 38.74865 57.339844 38.78125 C 57.316554 38.836639 57.437828 38.915707 57.822266 39.017578 L 58.253906 39.044922 C 58.732954 38.850702 58.474835 38.739262 58.113281 38.701172 z M 61.873047 38.763672 C 61.57966 38.917891 61.113301 39.083951 60.638672 39.191406 C 60.899513 40.120056 61.980452 42.497559 63.277344 41.666016 C 63.040477 41.788914 64.372466 42.54864 63.875 42.869141 C 64.107269 44.893672 61.658691 42.06905 60.869141 42.326172 C 59.726012 42.848943 61.309193 43.060774 60.955078 43.466797 C 60.082578 44.743834 62.470377 45.197754 61.861328 43.607422 C 62.353475 44.889109 62.789137 44.728161 63.839844 44.373047 C 61.508039 45.439899 65.563714 45.369107 64.541016 46.490234 C 63.287125 46.705334 62.723714 47.344704 63.736328 48.357422 C 63.708748 49.553746 64.81808 49.309313 65.296875 49.591797 L 65.697266 49.443359 L 65.953125 49.337891 C 65.942515 49.339391 65.932515 49.344603 65.921875 49.345703 C 67.321461 48.467894 65.715649 45.626766 67.394531 45.390625 C 67.37034 46.662236 69.550421 47.281951 68.083984 45.839844 C 67.16433 45.156027 70.478553 45.867727 69.308594 46.638672 C 70.99918 47.95279 69.265088 44.999791 70.427734 45.617188 C 71.314541 46.508442 71.812608 45.534342 71.966797 45.451172 C 72.336993 45.232295 72.988063 45.245655 73.171875 45.296875 C 75.095893 46.34948 71.949342 46.541579 72.205078 47.671875 C 72.558999 48.344268 70.515236 47.919729 70.193359 47.796875 C 68.833797 45.880846 67.605383 48.485439 66.375 49.181641 C 66.339265 49.229003 65.480523 50.366885 65.382812 50.513672 C 65.572361 52.460664 64.376962 53.996342 64.326172 56.03125 C 64.506634 57.151107 65.272024 58.561181 65.435547 59.777344 C 66.192 61.190725 67.84984 61.671261 69.291016 62.076172 C 70.388276 62.428106 71.053356 61.011808 72.056641 60.728516 C 72.590558 59.196837 74.256514 59.770004 75.027344 59.460938 C 74.496744 61.152156 76.395598 61.839222 76.361328 63.523438 C 75.884195 64.582144 75.993037 65.791388 75.890625 66.929688 C 78.337963 62.746621 79.178935 57.62423 77.824219 52.568359 C 75.772388 44.910824 69.288581 39.640219 61.873047 38.763672 z M 55.789062 39.169922 C 55.414686 39.196355 55.045004 39.247167 54.675781 39.310547 C 46.777559 41.483656 41.444458 48.380392 40.908203 56.126953 C 41.040528 55.867763 41.229265 55.705953 41.488281 55.720703 C 42.375353 55.252794 42.458875 56.820526 42.783203 57.71875 C 43.577061 57.833224 42.438939 54.923364 43.900391 54.457031 C 44.603748 53.053003 45.514276 51.774955 46.529297 50.666016 C 47.098531 50.878472 48.113571 50.562332 48.716797 49.589844 C 47.770628 49.649936 47.522535 48.981675 48.650391 48.390625 C 50.339866 47.058385 48.030705 49.520769 49.65625 49.351562 C 51.481938 49.396603 49.519534 47.811437 50.115234 46.826172 C 49.122314 46.479413 49.874252 43.894059 48.669922 45.275391 C 49.080615 44.775933 48.107665 44.305485 48.490234 43.917969 C 48.818521 44.392916 49.955967 44.862374 49.966797 43.560547 C 50.954235 43.468793 50.454921 42.137945 50.767578 41.265625 C 52.9354 39.780581 51.576178 42.631072 51.794922 43.806641 C 53.166734 45.845241 53.631646 42.387121 54.980469 41.943359 C 56.659647 41.554009 56.043075 40.014667 55.789062 39.169922 z M 62.669922 39.771484 C 63.07907 40.165445 62.353329 39.843107 62.533203 39.779297 C 62.558878 39.770155 62.601222 39.767284 62.669922 39.771484 z M 62.726562 40.333984 C 62.801462 40.321044 62.990308 40.340656 63.351562 40.416016 C 64.211945 41.054713 62.401998 40.390044 62.726562 40.333984 z M 64.259766 40.865234 C 64.525266 40.792893 65.393686 41.056807 65.378906 41.601562 C 64.816351 42.374316 65.066571 41.974596 64.753906 41.369141 C 64.15915 41.072563 64.100469 40.908664 64.259766 40.865234 z M 57.421875 41.517578 C 57.214125 41.513742 56.988633 41.538814 56.800781 41.597656 C 56.459225 41.704645 56.242884 41.9201 56.484375 42.257812 C 56.738394 42.397984 57.044368 42.365322 57.3125 42.294922 C 58.508619 41.809736 58.045126 41.529085 57.421875 41.517578 z M 60.951172 41.748047 C 60.924831 41.74789 60.938203 41.802712 61.033203 41.958984 C 61.457174 42.24173 61.030242 41.748497 60.951172 41.748047 z M 59.708984 41.78125 C 59.690484 41.796077 59.682539 41.838811 59.699219 41.925781 C 60.092755 42.184289 59.789304 41.71698 59.708984 41.78125 z M 69.675781 42.568359 C 69.74179 42.542183 69.903285 42.601972 70.197266 42.800781 C 70.347305 42.288342 72.004599 42.940998 70.853516 43.447266 C 70.86907 44.411212 69.389746 42.681775 69.675781 42.568359 z M 48.974609 42.910156 C 49.1061 42.986091 48.802439 43.625854 48.25 43.876953 C 47.565824 44.847692 48.050477 43.652552 48.382812 43.390625 C 48.625355 43.095167 48.791845 42.953862 48.890625 42.914062 C 48.927665 42.899136 48.955825 42.899308 48.974609 42.910156 z M 47.039062 44.167969 C 47.729814 44.035503 47.431071 45.810167 46.699219 46.089844 C 46.285684 46.160711 46.179979 46.870605 45.923828 47.162109 C 45.930693 47.309517 45.367016 44.977234 46.396484 44.605469 C 46.668063 44.330045 46.879661 44.198539 47.039062 44.167969 z M 67.933594 44.59375 C 68.159656 44.571718 69.141966 44.829566 69.572266 45.076172 C 69.905295 45.486274 68.791054 44.893749 68.625 44.996094 C 68.019895 44.75492 67.839281 44.637886 67.894531 44.603516 C 67.902421 44.598616 67.916634 44.59545 67.933594 44.59375 z M 70.734375 44.777344 C 70.763933 44.754133 70.873598 44.782769 71.121094 44.916016 C 71.282796 45.378704 70.645685 44.846984 70.734375 44.777344 z M 72.128906 45.800781 C 72.094745 45.792383 72.060854 45.79363 72.029297 45.806641 C 71.945146 45.841341 71.880219 45.963115 71.886719 46.232422 C 72.603912 46.365124 72.368038 45.859568 72.128906 45.800781 z M 67.003906 46.736328 C 66.9272 46.770338 66.841837 46.942404 66.773438 47.357422 C 67.387063 47.778086 67.234144 46.634343 67.003906 46.736328 z M 47.658203 48.318359 C 47.706052 48.306139 47.793563 48.325054 47.9375 48.402344 C 47.737347 48.658494 47.514684 48.354949 47.658203 48.318359 z M 43.949219 48.824219 C 44.003318 48.816312 44.094081 48.858729 44.238281 48.986328 C 44.192664 49.842599 43.714793 48.858459 43.949219 48.824219 z M 44.232422 49.775391 C 44.256032 49.763081 44.286982 49.771687 44.326172 49.810547 C 44.250192 50.968241 44.066869 49.861811 44.232422 49.775391 z M 58.199219 50.662109 C 58.102812 50.678996 57.98207 50.754387 57.857422 50.929688 C 58.558553 51.083097 58.488441 50.611449 58.199219 50.662109 z M 59.128906 50.724609 C 59.086701 50.720409 59.016796 50.767971 58.916016 50.912109 C 59.139956 51.211831 59.255576 50.737189 59.128906 50.724609 z M 44.083984 50.994141 C 44.130402 50.991196 44.177064 51.027337 44.214844 51.128906 C 43.684391 51.756688 43.882793 51.006901 44.083984 50.994141 z M 62.775391 51.863281 C 62.759433 51.855482 62.741427 51.855031 62.722656 51.865234 C 62.687992 51.884076 62.648818 51.938296 62.611328 52.048828 C 62.911209 52.33654 62.887096 51.917874 62.775391 51.863281 z M 64.339844 52.958984 C 64.260024 52.980395 64.212399 53.149541 64.292969 53.597656 C 64.844784 53.583374 64.515445 52.911874 64.339844 52.958984 z M 63.535156 53.597656 C 63.390238 53.599269 63.236201 53.619526 63.113281 53.660156 C 62.889796 53.734032 62.770322 53.876058 63.003906 54.101562 L 63.080078 54.115234 L 63.464844 54.011719 C 64.317014 53.752706 63.96991 53.592818 63.535156 53.597656 z M 43.384766 57.224609 C 43.349576 57.23445 43.351033 57.328466 43.439453 57.574219 C 43.936564 57.922072 43.490359 57.195069 43.384766 57.224609 z M 43.345703 57.917969 C 43.308753 57.921483 43.283705 58.040291 43.296875 58.371094 C 43.675404 58.932771 43.456597 57.907409 43.345703 57.917969 z M 42.353516 58.533203 C 41.582533 58.656678 43.316503 59.610349 43.527344 60.179688 C 45.016593 60.18207 43.548157 61.030632 44.849609 61.189453 C 46.788872 61.352169 45.314821 60.22333 44.484375 60.125 C 44.652138 59.57383 43.516917 59.504429 42.847656 58.535156 C 42.623465 58.515346 42.463664 58.515563 42.353516 58.533203 z M 41.564453 58.728516 C 41.480962 58.707745 41.348355 58.876349 41.132812 59.349609 C 41.058839 59.274409 40.992264 59.161667 40.933594 59.025391 C 40.993254 59.715902 41.089776 60.409934 41.228516 61.103516 C 41.784549 62.148828 42.296841 63.398424 43.037109 64.25 C 43.674925 65.366107 43.503563 63.791635 43.835938 64.716797 C 44.582686 66.432413 43.986902 68.565167 45.787109 69.919922 C 46.887884 71.477561 48.61288 72.314217 49.996094 73.556641 C 52.161293 74.854887 54.582496 75.721803 57.123047 76.068359 C 57.433359 75.585859 57.522443 74.965015 58.03125 74.658203 C 60.697617 74.592423 58.778334 71.787349 60.291016 70.630859 C 60.870678 68.237599 57.14439 68.879145 55.642578 68.466797 C 53.358187 68.723376 52.847672 65.996575 50.699219 65.953125 C 48.996691 66.130214 48.960016 63.617838 47.796875 64.064453 C 46.815271 64.533207 46.023118 63.220785 45.474609 63.476562 C 45.374874 63.660448 44.498079 62.717028 44.197266 64.097656 C 42.324786 64.180082 43.017982 61.819052 41.966797 60.882812 C 41.630065 60.554797 41.814927 58.790866 41.564453 58.728516 z M 43.976562 58.753906 C 43.964802 58.754066 43.954566 58.757825 43.947266 58.765625 C 43.913846 58.802558 43.944882 58.927494 44.130859 59.171875 L 44.234375 59.207031 C 44.237788 58.931076 44.058842 58.753063 43.976562 58.753906 z M 62.818359 59.396484 C 62.774225 59.409058 62.724368 59.455665 62.673828 59.558594 C 63.094641 59.944481 63.00962 59.341924 62.818359 59.396484 z M 61.716797 59.435547 C 61.617742 59.450908 61.63754 59.526491 61.972656 59.708984 C 62.724405 59.659166 61.934726 59.401747 61.716797 59.435547 z M 62.871094 59.935547 C 62.84709 59.930534 62.81842 59.93535 62.783203 59.951172 C 62.718183 59.98038 62.634059 60.051045 62.53125 60.183594 C 62.931785 60.43553 63.03912 59.970637 62.871094 59.935547 z M 62.302734 60.158203 C 62.265484 60.164073 62.225169 60.232723 62.193359 60.414062 C 62.493571 60.684064 62.414445 60.140573 62.302734 60.158203 z M 43.287109 60.482422 C 43.179665 60.488357 43.197343 60.609373 43.550781 60.955078 C 44.363311 61.014172 43.523483 60.469352 43.287109 60.482422 z M 74.558594 60.732422 C 74.521343 60.738293 74.479076 60.804989 74.447266 60.986328 C 74.747479 61.25633 74.670308 60.714792 74.558594 60.732422 z M 46.238281 60.878906 C 46.198622 60.871897 46.160602 60.874966 46.126953 60.888672 C 46.037213 60.925221 45.981154 61.045021 46.027344 61.306641 C 46.853806 61.411685 46.515898 60.927969 46.238281 60.878906 z M 47.861328 61.933594 C 47.819827 61.928884 47.824734 62.107873 47.935547 62.623047 L 48.025391 62.898438 C 48.542833 63.622843 47.985933 61.947694 47.861328 61.933594 z M 12.5 80 C 16.671747 80 20 83.328253 20 87.5 C 20 91.671747 16.671747 95 12.5 95 C 8.3282528 95 5 91.671747 5 87.5 C 5 83.328253 8.3282528 80 12.5 80 z "
     style="color:#000000;overflow:visible;fill:#000080;stroke:none;stroke-width:1.2;stroke-linecap:round;stroke-linejoin:round;stroke-miterlimit:4;stroke-dasharray:none;stroke-dashoffset:188.976;stroke-opacity:1"
     id="path1091-0" />
</svg>
