<?xml version="1.0" encoding="UTF-8" standalone="no"?>
<svg
   xmlns:dc="http://purl.org/dc/elements/1.1/"
   xmlns:cc="http://creativecommons.org/ns#"
   xmlns:rdf="http://www.w3.org/1999/02/22-rdf-syntax-ns#"
   xmlns:svg="http://www.w3.org/2000/svg"
   xmlns="http://www.w3.org/2000/svg"
   xmlns:sodipodi="http://sodipodi.sourceforge.net/DTD/sodipodi-0.dtd"
   xmlns:inkscape="http://www.inkscape.org/namespaces/inkscape"
   version="1.1"
   width="100"
   height="100"
   id="svg4460"
   sodipodi:docname="uEB0C-globe-user.svg"
   inkscape:version="0.92.4 (5da689c313, 2019-01-14)">
  <sodipodi:namedview
     pagecolor="#ffffff"
     bordercolor="#666666"
     borderopacity="1"
     objecttolerance="10"
     gridtolerance="10"
     guidetolerance="10"
     inkscape:pageopacity="0"
     inkscape:pageshadow="2"
     inkscape:window-width="1920"
     inkscape:window-height="1177"
     id="namedview11"
     showgrid="false"
     inkscape:zoom="3.805"
     inkscape:cx="11.40384"
     inkscape:cy="10.97487"
     inkscape:window-x="1272"
     inkscape:window-y="-8"
     inkscape:window-maximized="1"
     inkscape:current-layer="svg4460"
     inkscape:document-rotation="0" />
  <defs
     id="defs4462" />
  <metadata
     id="metadata4465">
    <rdf:RDF>
      <cc:Work
         rdf:about="">
        <dc:format>image/svg+xml</dc:format>
        <dc:type
           rdf:resource="http://purl.org/dc/dcmitype/StillImage" />
        <dc:title />
      </cc:Work>
    </rdf:RDF>
  </metadata>
  <path
     style="color:#000000;overflow:visible;fill:#000080;stroke-width:3.64358997;stroke-linecap:round;stroke-linejoin:round;stroke-dashoffset:188.97599792"
     d="M 49.947266,0 C 22.353625,0.02910248 -1.5346905e-5,22.406343 0,50 0.01026073,77.340338 21.978622,99.60277 49.316406,99.976562 46.321158,92.378553 47.937741,83.064234 52.5,76.21875 v -2.087891 h 1.515625 c 1.566301,-1.865004 3.766417,-3.506308 6.384766,-5 H 52.5 V 52.5 h 4.539062 c 0.101018,-1.6822 0.422985,-3.36673 0.935547,-5 H 52.5 V 30.869141 h 19.195312 c 0.259149,0.996461 0.494377,2.020087 0.714844,3.05664 1.857304,-0.299279 3.536242,-0.313173 5.083985,-0.117154 -0.197734,-0.992454 -0.406882,-1.976165 -0.638672,-2.939453 h 13.888672 c 2.134541,4.545519 3.533764,9.505281 4.039858,14.731078 0.428395,4.940755 0.421846,9.388065 -1.105908,15.238924 -0.626379,2.527411 -1.469299,4.967766 -2.500357,7.307341 1.127941,1.18624 2.494511,2.308127 3.867188,3.453125 C 98.291448,64.861009 99.984725,57.479869 100,50 100,22.385763 77.614237,0 50,0 Z M 52.5,5.6816406 c 5.267578,0.8962034 10.302435,5.2365954 14.267578,12.4375004 1.278131,2.321151 2.420531,4.926392 3.408203,7.75 H 52.5 Z m -5,0.1972656 V 25.869141 H 30.75 c 0.987672,-2.823608 2.130072,-5.428849 3.408203,-7.75 C 37.890361,11.341349 42.5705,7.1024017 47.5,5.8789062 Z M 35.980469,7.2324219 c -2.324007,2.3518549 -4.410964,5.2199521 -6.203125,8.4746091 -1.679707,3.050434 -3.125512,6.466839 -4.3125,10.16211 H 12.009766 C 17.545184,17.163368 25.985415,10.499624 35.980469,7.2324219 Z M 65.390625,7.6953125 C 74.788044,11.107725 82.70909,17.563275 87.990234,25.869141 H 75.455078 C 74.27054,22.173713 72.82777,18.756792 71.148438,15.707031 69.471795,12.662163 67.535486,9.9584025 65.390625,7.6953125 Z M 9.2558594,30.869141 H 24.064453 C 22.818773,36.03111 22.055644,41.62805 21.861328,47.5 H 5.0722656 C 5.3956707,41.575313 6.8641975,35.962202 9.2558594,30.869141 Z m 19.9746096,0 H 47.5 V 47.5 H 26.867188 C 27.07911,41.565457 27.910149,35.945958 29.230469,30.869141 Z M 5.0722656,52.5 H 21.833984 c 0.128797,5.856194 0.820442,11.453511 1.994141,16.630859 H 9.2558594 C 6.8641975,64.037798 5.3956707,58.424687 5.0722656,52.5 Z m 21.7617184,0 H 47.5 V 69.130859 H 28.980469 C 27.735338,64.030209 26.974419,58.415464 26.833984,52.5 Z M 12.009766,74.130859 h 13.136718 c 1.241564,4.08368 2.799954,7.839045 4.63086,11.164063 1.437613,2.61078 3.067518,4.968796 4.853515,7.017578 C 25.224063,88.902117 17.294926,82.443041 12.009766,74.130859 Z m 18.394531,0 H 47.5 v 20.796875 c -0.307856,-0.0168 -0.611806,-0.04737 -0.917969,-0.07031 -4.590452,-1.499282 -8.924277,-5.619241 -12.423828,-11.97461 -1.428461,-2.594159 -2.692635,-5.537291 -3.753906,-8.751953 z"
     id="path865"
     inkscape:connector-curvature="0"
     sodipodi:nodetypes="cccccccccccccccccccccccsccsccccccsccsccccccccccccccccccccccccccccccsccccccscc" />
  <path
     style="opacity:1;vector-effect:none;fill:#000080;fill-opacity:1;stroke:none;stroke-width:3.62065101;stroke-linecap:round;stroke-linejoin:round;stroke-miterlimit:4;stroke-dasharray:none;stroke-dashoffset:4;stroke-opacity:1;paint-order:normal"
     d="m 75.999086,37.769017 c -8.284271,0 -15,6.715729 -15,15 0,8.284271 6.715729,15 15,15 8.284271,0 15,-6.715729 15,-15 0,-8.284271 -6.715729,-15 -15,-15 z m 0,32.222656 c -16.568542,0 -24,7.431458 -24,24 v 2.000002 c 0.07552,3.939816 1.817778,4.056085 5.5,4.000002 h 37 c 4.696162,-0.0036 5.532854,0.005 5.500002,-4.000002 v -2.000002 c 0,-16.568542 -7.43146,-24 -24.000002,-24 z"
     id="path812"
     inkscape:connector-curvature="0"
     sodipodi:nodetypes="sssssssccccss" />
</svg>
