<?xml version="1.0" encoding="UTF-8" standalone="no"?>
<svg
   xmlns:dc="http://purl.org/dc/elements/1.1/"
   xmlns:cc="http://creativecommons.org/ns#"
   xmlns:rdf="http://www.w3.org/1999/02/22-rdf-syntax-ns#"
   xmlns:svg="http://www.w3.org/2000/svg"
   xmlns="http://www.w3.org/2000/svg"
   xmlns:sodipodi="http://sodipodi.sourceforge.net/DTD/sodipodi-0.dtd"
   xmlns:inkscape="http://www.inkscape.org/namespaces/inkscape"
   version="1.1"
   width="100"
   height="100"
   id="svg4460"
   sodipodi:docname="uEB0E-globe-shield.svg"
   inkscape:version="0.92.4 (5da689c313, 2019-01-14)">
  <sodipodi:namedview
     pagecolor="#ffffff"
     bordercolor="#666666"
     borderopacity="1"
     objecttolerance="10"
     gridtolerance="10"
     guidetolerance="10"
     inkscape:pageopacity="0"
     inkscape:pageshadow="2"
     inkscape:window-width="1920"
     inkscape:window-height="1177"
     id="namedview11"
     showgrid="false"
     inkscape:zoom="1.3452707"
     inkscape:cx="-231.97582"
     inkscape:cy="-54.199934"
     inkscape:window-x="1272"
     inkscape:window-y="-8"
     inkscape:window-maximized="1"
     inkscape:current-layer="svg4460"
     inkscape:document-rotation="0" />
  <defs
     id="defs4462" />
  <metadata
     id="metadata4465">
    <rdf:RDF>
      <cc:Work
         rdf:about="">
        <dc:format>image/svg+xml</dc:format>
        <dc:type
           rdf:resource="http://purl.org/dc/dcmitype/StillImage" />
        <dc:title />
      </cc:Work>
    </rdf:RDF>
  </metadata>
  <path
     style="color:#000000;overflow:visible;fill:#000080;stroke-width:3.64358997;stroke-linecap:round;stroke-linejoin:round;stroke-dashoffset:188.97599792"
     d="M 49.947266,0 C 22.353625,0.02910248 -1.5346905e-5,22.406343 0,50 c 0,27.614237 22.385763,50 50,50 27.614237,0 50,-22.385763 50,-50 -0.0184,-5.552818 -0.961649,-11.063785 -2.791016,-16.306641 -1.037068,1.956554 -2.203467,3.828199 -3.507812,5.576172 0.649969,2.658803 1.072477,5.407661 1.226562,8.230469 H 84.986328 C 82.701303,48.956528 80.19033,50.122788 77.433594,50.917969 74.354985,50.256167 71.565868,49.074842 69.048828,47.5 H 52.5 V 30.869141 h 3.013672 c -0.736408,-1.636499 -1.392277,-3.306817 -1.964844,-5 H 52.5 V 22.421875 C 50.593639,16.898876 49.984609,9.017094 50,0 Z M 47.5,5.8789062 V 25.869141 H 30.75 c 0.987672,-2.823608 2.130072,-5.428849 3.408203,-7.75 C 37.890361,11.341349 42.5705,7.1024017 47.5,5.8789062 Z M 35.980469,7.2324219 c -2.324007,2.3518549 -4.410964,5.2199521 -6.203125,8.4746091 -1.679707,3.050434 -3.125512,6.466839 -4.3125,10.16211 H 12.009766 C 17.545184,17.163368 25.985415,10.499624 35.980469,7.2324219 Z M 9.2558594,30.869141 H 24.064453 C 22.818773,36.03111 22.055644,41.62805 21.861328,47.5 H 5.0722656 C 5.3956707,41.575313 6.8641975,35.962202 9.2558594,30.869141 Z m 19.9746096,0 H 47.5 V 47.5 H 26.867188 C 27.07911,41.565457 27.910149,35.945958 29.230469,30.869141 Z M 5.0722656,52.5 H 21.833984 c 0.128797,5.856194 0.820442,11.453511 1.994141,16.630859 H 9.2558594 C 6.8641975,64.037798 5.3956707,58.424687 5.0722656,52.5 Z m 21.7617184,0 H 47.5 V 69.130859 H 28.980469 C 27.735338,64.030209 26.974419,58.415464 26.833984,52.5 Z M 52.5,52.5 h 21.591797 c -0.140435,5.915464 -0.901353,11.530209 -2.146485,16.630859 H 52.5 Z m 26.576172,0 h 15.851562 c -0.323405,5.924687 -1.791931,11.537798 -4.183593,16.630859 H 77.089844 C 78.260736,63.952928 78.947413,58.355459 79.076172,52.5 Z M 12.009766,74.130859 h 13.136718 c 1.241564,4.08368 2.799954,7.839045 4.63086,11.164063 1.437613,2.61078 3.067518,4.968796 4.853515,7.017578 C 25.224063,88.902117 17.294926,82.443041 12.009766,74.130859 Z m 18.394531,0 H 47.5 v 20.796875 c -0.307856,-0.0168 -0.611806,-0.04737 -0.917969,-0.07031 -4.590452,-1.499282 -8.924277,-5.619241 -12.423828,-11.97461 -1.428461,-2.594159 -2.692635,-5.537291 -3.753906,-8.751953 z m 22.095703,0 h 18.021484 c -1.061271,3.214662 -2.325444,6.157794 -3.753906,8.751953 -3.427628,6.224752 -7.655158,10.308452 -12.140625,11.882813 -0.704051,0.07168 -1.4136,0.12317 -2.126953,0.162109 z m 23.275391,0 h 12.214843 c -5.021546,7.897587 -12.432863,14.114674 -21.228515,17.640625 1.60388,-1.920093 3.074787,-4.094027 4.386719,-6.476562 1.830809,-3.324847 3.387704,-7.079459 4.626953,-11.164063 z"
     id="path865"
     inkscape:connector-curvature="0"
     sodipodi:nodetypes="cssccccccccccccccccccsccscccccccccccccccccccccccccccccccccccsccccccscccsccccccscc" />
  <path
     style="color:#000000;font-style:normal;font-variant:normal;font-weight:normal;font-stretch:normal;font-size:medium;line-height:normal;font-family:sans-serif;font-variant-ligatures:normal;font-variant-position:normal;font-variant-caps:normal;font-variant-numeric:normal;font-variant-alternates:normal;font-feature-settings:normal;text-indent:0;text-align:start;text-decoration:none;text-decoration-line:none;text-decoration-style:solid;text-decoration-color:#000000;letter-spacing:normal;word-spacing:normal;text-transform:none;writing-mode:lr-tb;direction:ltr;text-orientation:mixed;dominant-baseline:auto;baseline-shift:baseline;text-anchor:start;white-space:normal;shape-padding:0;clip-rule:nonzero;display:inline;overflow:visible;visibility:visible;opacity:1;isolation:auto;mix-blend-mode:normal;color-interpolation:sRGB;color-interpolation-filters:linearRGB;solid-color:#000000;solid-opacity:1;vector-effect:none;fill:#000080;fill-opacity:1;fill-rule:nonzero;stroke:none;stroke-width:5;stroke-linecap:round;stroke-linejoin:round;stroke-miterlimit:4;stroke-dasharray:none;stroke-dashoffset:4;stroke-opacity:1;paint-order:normal;color-rendering:auto;image-rendering:auto;shape-rendering:auto;text-rendering:auto;enable-background:accumulate"
     d="M 56.5 0 A 2.50025 2.50025 0 0 0 54 2.5234375 C 54.179856 20.992393 59.499423 32.154964 64.974609 38.619141 C 70.449796 45.083317 76.287109 46.896484 76.287109 46.896484 A 2.50025 2.50025 0 0 0 77 46.998047 A 2.50025 2.50025 0 0 0 77.027344 47 A 2.50025 2.50025 0 0 0 77.730469 46.890625 C 77.730469 46.890625 83.63485 45.019559 89.154297 38.523438 C 94.673744 32.027356 100 20.850416 100 2.5 A 2.50025 2.50025 0 0 0 97.5 0 L 77 0 L 56.5 0 z M 59.203125 5 L 77 5 L 77 41.759766 C 76.998812 41.760189 76.995321 41.761298 76.994141 41.761719 C 76.075689 41.440587 72.853231 40.185003 68.789062 35.386719 C 64.353323 30.149745 59.834436 20.82587 59.203125 5 z "
     id="path832" />
</svg>
