<?xml version="1.0" encoding="UTF-8" standalone="no"?>
<svg
   xmlns:dc="http://purl.org/dc/elements/1.1/"
   xmlns:cc="http://creativecommons.org/ns#"
   xmlns:rdf="http://www.w3.org/1999/02/22-rdf-syntax-ns#"
   xmlns:svg="http://www.w3.org/2000/svg"
   xmlns="http://www.w3.org/2000/svg"
   xmlns:sodipodi="http://sodipodi.sourceforge.net/DTD/sodipodi-0.dtd"
   xmlns:inkscape="http://www.inkscape.org/namespaces/inkscape"
   inkscape:version="1.0 (4035a4fb49, 2020-05-01)"
   sodipodi:docname="uEB0F-earth-network.svg"
   id="svg4460"
   height="100"
   width="100"
   version="1.1">
  <sodipodi:namedview
     inkscape:document-rotation="0"
     inkscape:current-layer="svg4460"
     inkscape:window-maximized="1"
     inkscape:window-y="-8"
     inkscape:window-x="-8"
     inkscape:cy="16.579052"
     inkscape:cx="11.60566"
     inkscape:zoom="3.805"
     showgrid="false"
     id="namedview11"
     inkscape:window-height="1017"
     inkscape:window-width="1920"
     inkscape:pageshadow="2"
     inkscape:pageopacity="0"
     guidetolerance="10"
     gridtolerance="10"
     objecttolerance="10"
     borderopacity="1"
     bordercolor="#666666"
     pagecolor="#ffffff" />
  <defs
     id="defs4462" />
  <metadata
     id="metadata4465">
    <rdf:RDF>
      <cc:Work
         rdf:about="">
        <dc:format>image/svg+xml</dc:format>
        <dc:type
           rdf:resource="http://purl.org/dc/dcmitype/StillImage" />
        <dc:title />
      </cc:Work>
    </rdf:RDF>
  </metadata>
  <path
     d="M 37.328125 0 C 30.454177 0 24.828125 5.6260522 24.828125 12.5 C 24.828125 19.373948 30.454177 25 37.328125 25 C 38.643924 25 39.913778 24.791737 41.107422 24.410156 L 47.683594 38.386719 C 39.559217 43.505572 35.317784 53.510056 37.929688 63.257812 C 38.396825 65.001195 39.063128 66.636804 39.888672 68.158203 L 22.138672 79.5625 C 22.138672 79.5625 22.136719 79.560547 22.136719 79.560547 C 19.839025 76.779529 16.366596 75 12.5 75 C 5.6260522 75 0 80.626052 0 87.5 C 0 94.373948 5.6260522 100 12.5 100 C 19.373948 100 25 94.373948 25 87.5 C 25 85.922764 24.691854 84.416387 24.152344 83.023438 L 42.103516 71.490234 C 47.522248 78.237118 56.60818 81.544908 65.486328 79.166016 C 77.466433 75.955956 84.606544 63.589481 81.396484 51.609375 C 80.377025 47.804702 78.431913 44.491674 75.871094 41.839844 L 85.748047 29.03125 C 87.041865 29.64616 88.480829 30 90 30 C 95.493236 30 100 25.493236 100 20 C 100 14.506764 95.493236 10 90 10 C 84.506764 10 80 14.506764 80 20 C 80 22.538934 80.970913 24.859011 82.548828 26.628906 L 72.841797 39.214844 C 67.541113 35.388577 60.6293 33.879989 53.839844 35.699219 C 52.947567 35.938303 52.0863 36.233583 51.25 36.570312 L 44.669922 22.583984 C 47.786331 20.304896 49.828125 16.633243 49.828125 12.5 C 49.828125 5.6260522 44.202073 0 37.328125 0 z M 37.328125 5 C 41.499872 5 44.828125 8.3282528 44.828125 12.5 C 44.828125 16.671747 41.499872 20 37.328125 20 C 33.156378 20 29.828125 16.671747 29.828125 12.5 C 29.828125 8.3282528 33.156378 5 37.328125 5 z M 90 15 C 92.791035 15 95 17.208965 95 20 C 95 22.791035 92.791035 25 90 25 C 87.208965 25 85 22.791035 85 20 C 85 17.208965 87.208965 15 90 15 z M 58.361328 38.984375 C 58.324538 39.004795 58.309709 39.022302 58.253906 39.044922 L 57.976562 39.025391 C 58.104735 39.013391 58.233367 38.993665 58.361328 38.984375 z M 61.251953 39.013672 C 64.738556 39.310178 68.030034 40.586023 70.773438 42.646484 C 70.520759 42.580254 70.251577 42.608617 70.195312 42.800781 C 69.901331 42.601971 69.741788 42.542188 69.675781 42.568359 C 69.389741 42.681766 70.867116 44.409259 70.851562 43.445312 C 71.179727 43.300979 71.266685 43.147425 71.238281 43.009766 C 74.200805 45.386521 76.471612 48.68262 77.533203 52.644531 C 78.810961 57.413191 78.099028 62.225197 75.927734 66.236328 C 75.967424 65.310001 75.97941 64.368864 76.361328 63.521484 C 76.395598 61.837268 74.494791 61.152156 75.025391 59.460938 C 74.254562 59.770004 72.590558 59.196835 72.056641 60.728516 C 71.053357 61.011808 70.388276 62.428108 69.291016 62.076172 C 67.849842 61.671259 66.192001 61.190725 65.435547 59.777344 C 65.272025 58.561179 64.506633 57.151106 64.326172 56.03125 C 64.376962 53.996342 65.572362 52.460666 65.382812 50.513672 C 65.480523 50.366885 66.337312 49.229003 66.373047 49.181641 C 67.603429 48.485439 68.83575 45.880848 70.195312 47.796875 C 70.51719 47.91973 72.558998 48.34427 72.205078 47.671875 C 71.949332 46.541581 75.09394 46.349481 73.169922 45.296875 C 72.986123 45.245605 72.335041 45.232293 71.964844 45.451172 C 71.810656 45.534342 71.314541 46.506489 70.427734 45.615234 C 69.265088 44.997837 70.997228 47.952789 69.306641 46.638672 C 70.476599 45.867727 67.162378 45.156025 68.082031 45.839844 C 69.548469 47.281952 67.37034 46.660284 67.394531 45.388672 C 65.715651 45.624813 67.321459 48.465943 65.921875 49.34375 C 65.932475 49.34265 65.942515 49.337438 65.953125 49.335938 L 65.697266 49.443359 L 65.296875 49.591797 C 64.81808 49.309313 63.708748 49.553745 63.736328 48.357422 C 62.723713 47.344704 63.287098 46.705342 64.541016 46.490234 C 65.563714 45.369107 61.508038 45.439898 63.839844 44.373047 C 62.789136 44.728161 62.353474 44.88911 61.861328 43.607422 C 62.470377 45.197754 60.082581 44.741877 60.955078 43.464844 C 61.309194 43.058821 59.726007 42.848944 60.869141 42.326172 C 61.658692 42.06905 64.107269 44.891719 63.875 42.867188 C 64.372464 42.546687 63.040477 41.786963 63.277344 41.664062 C 61.980452 42.495607 60.899512 40.118103 60.638672 39.189453 C 60.851201 39.141303 61.057826 39.078857 61.251953 39.013672 z M 55.845703 39.357422 C 56.11667 40.224297 56.552548 41.576891 54.980469 41.941406 C 53.631647 42.385167 53.166734 45.845242 51.794922 43.806641 C 51.576179 42.631072 52.935399 39.780581 50.767578 41.265625 C 50.454921 42.137945 50.954235 43.468792 49.966797 43.560547 C 49.955967 44.862374 48.818522 44.392916 48.490234 43.917969 C 48.107667 44.305486 49.080615 44.775934 48.669922 45.275391 C 49.874252 43.894059 49.120361 46.477461 50.113281 46.824219 C 49.517581 47.809485 51.481938 49.394651 49.65625 49.349609 C 48.030703 49.518817 50.339865 47.058383 48.650391 48.390625 C 47.522539 48.981673 47.770622 49.649936 48.716797 49.589844 C 48.113568 50.562332 47.098526 50.87652 46.529297 50.664062 C 45.51427 51.773004 44.603748 53.053004 43.900391 54.457031 C 42.43893 54.923354 43.577058 57.833225 42.783203 57.71875 C 42.458865 56.820529 42.375352 55.252793 41.488281 55.720703 C 41.399971 55.715703 41.32252 55.736531 41.25 55.769531 C 41.612348 51.709323 43.305002 47.914591 46.011719 44.953125 C 45.553382 45.707426 45.929528 47.282618 45.923828 47.160156 C 46.179978 46.868651 46.285674 46.160712 46.699219 46.089844 C 47.431062 45.810169 47.72786 44.035501 47.037109 44.167969 C 46.877701 44.198539 46.666111 44.330042 46.394531 44.605469 C 46.357431 44.618829 46.327976 44.641876 46.294922 44.660156 C 48.559308 42.290129 51.467771 40.477417 54.875 39.564453 C 55.19816 39.477863 55.522335 39.426043 55.845703 39.357422 z M 62.669922 39.769531 C 62.601232 39.765331 62.556925 39.770158 62.53125 39.779297 C 62.351378 39.843117 63.079072 40.163494 62.669922 39.769531 z M 62.724609 40.333984 C 62.400046 40.390044 64.211945 41.052757 63.351562 40.414062 C 62.990308 40.338702 62.799509 40.321044 62.724609 40.333984 z M 64.259766 40.865234 C 64.100466 40.908644 64.159152 41.072562 64.753906 41.369141 C 65.066571 41.974596 64.814401 42.374321 65.376953 41.601562 C 65.391733 41.056807 64.525266 40.792894 64.259766 40.865234 z M 57.421875 41.515625 C 58.044942 41.527295 58.508618 41.809737 57.3125 42.294922 C 57.044368 42.365322 56.736441 42.397989 56.482422 42.257812 C 56.240931 41.920102 56.459225 41.704645 56.800781 41.597656 C 56.988634 41.538814 57.214186 41.511735 57.421875 41.515625 z M 60.951172 41.746094 C 61.030232 41.746547 61.457172 42.239778 61.033203 41.957031 C 60.938203 41.800758 60.92483 41.745937 60.951172 41.746094 z M 59.707031 41.779297 C 59.787351 41.715027 60.092794 42.184288 59.699219 41.925781 C 59.682539 41.838811 59.688511 41.794122 59.707031 41.779297 z M 48.974609 42.910156 C 48.955836 42.89935 48.927665 42.899136 48.890625 42.914062 C 48.791855 42.953862 48.625356 43.095169 48.382812 43.390625 C 48.050472 43.652555 47.565825 44.845741 48.25 43.875 C 48.802439 43.623902 49.106023 42.985803 48.974609 42.910156 z M 67.933594 44.59375 C 67.916634 44.59535 67.902421 44.596663 67.894531 44.601562 C 67.839281 44.635933 68.019894 44.752965 68.625 44.994141 C 68.791053 44.891796 69.905295 45.48432 69.572266 45.074219 C 69.141966 44.827614 68.159658 44.571713 67.933594 44.59375 z M 70.734375 44.777344 C 70.645685 44.846984 71.282796 45.376751 71.121094 44.914062 C 70.873597 44.780816 70.763934 44.754131 70.734375 44.777344 z M 72.128906 45.800781 C 72.368109 45.859548 72.603915 46.365123 71.886719 46.232422 C 71.880219 45.963115 71.945139 45.841339 72.029297 45.806641 C 72.060854 45.79363 72.094734 45.792386 72.128906 45.800781 z M 67.003906 46.736328 C 67.234141 46.634333 67.385105 47.776134 66.771484 47.355469 C 66.839894 46.940453 66.927159 46.770327 67.003906 46.736328 z M 47.65625 48.318359 C 47.512731 48.354949 47.737269 48.656539 47.9375 48.400391 C 47.793564 48.323101 47.704091 48.306159 47.65625 48.318359 z M 43.947266 48.822266 C 43.71284 48.856506 44.192644 49.8426 44.238281 48.986328 C 44.094078 48.858727 44.001364 48.814364 43.947266 48.822266 z M 44.232422 49.773438 C 44.066869 49.859857 44.250132 50.96633 44.326172 49.808594 C 44.286962 49.769744 44.256082 49.761098 44.232422 49.773438 z M 58.199219 50.662109 C 58.488439 50.611439 58.556601 51.083098 57.855469 50.929688 C 57.980117 50.754385 58.102813 50.678996 58.199219 50.662109 z M 59.126953 50.724609 C 59.253622 50.737189 59.139952 51.21183 58.916016 50.912109 C 59.016791 50.767969 59.084748 50.720409 59.126953 50.724609 z M 44.082031 50.992188 C 43.880836 51.004958 43.684375 51.754737 44.214844 51.126953 C 44.177054 51.025388 44.128475 50.989239 44.082031 50.992188 z M 62.773438 51.863281 C 62.885489 51.918014 62.913157 52.336541 62.613281 52.048828 C 62.650791 51.938303 62.686035 51.884076 62.720703 51.865234 C 62.739473 51.855031 62.75743 51.855462 62.773438 51.863281 z M 64.339844 52.957031 C 64.515445 52.909931 64.84478 53.583372 64.292969 53.597656 C 64.212399 53.149539 64.260024 52.978442 64.339844 52.957031 z M 63.535156 53.597656 C 63.969938 53.592928 64.318967 53.752722 63.466797 54.011719 L 63.080078 54.115234 L 63.003906 54.101562 C 62.770321 53.876055 62.889793 53.734032 63.113281 53.660156 C 63.2362 53.619523 63.390229 53.599232 63.535156 53.597656 z M 43.382812 57.224609 C 43.488407 57.195069 43.93659 57.920111 43.439453 57.572266 C 43.350993 57.326523 43.347603 57.234454 43.382812 57.224609 z M 43.34375 57.917969 C 43.454643 57.907409 43.673477 58.930812 43.294922 58.369141 C 43.281762 58.038337 43.3068 57.921483 43.34375 57.917969 z M 42.351562 58.533203 C 42.461705 58.515553 42.623462 58.513367 42.847656 58.533203 C 43.516922 59.502474 44.650185 59.571878 44.482422 60.123047 C 45.312875 60.221377 46.788831 61.35218 44.849609 61.189453 C 43.548153 61.030632 45.016597 60.182068 43.527344 60.179688 C 43.316465 59.610358 41.580573 58.656681 42.351562 58.533203 z M 41.564453 58.728516 C 41.814934 58.790826 41.630057 60.552846 41.966797 60.880859 C 43.017976 61.817098 42.324783 64.180083 44.197266 64.097656 C 44.498082 62.717028 45.374868 63.660449 45.474609 63.476562 C 46.023119 63.220785 46.813318 64.531252 47.794922 64.0625 C 48.958063 63.615883 48.996692 66.12826 50.699219 65.951172 C 52.847668 65.994622 53.356236 68.721422 55.640625 68.464844 C 57.14243 68.877213 60.868726 68.235648 60.289062 70.628906 C 58.776381 71.785398 60.697618 74.592423 58.03125 74.658203 C 57.616415 74.90835 57.466175 75.359034 57.261719 75.78125 C 52.158508 75.118122 47.546108 72.329999 44.568359 68.109375 C 44.245266 67.00859 44.299508 65.779883 43.835938 64.714844 C 43.503582 63.789677 43.674921 65.366108 43.037109 64.25 C 42.545975 63.685024 42.160895 62.950525 41.791016 62.210938 C 41.515203 61.179023 41.353915 60.145169 41.257812 59.117188 C 41.394315 58.859086 41.500495 58.712604 41.564453 58.728516 z M 43.976562 58.753906 C 44.058822 58.753077 44.235833 58.931078 44.232422 59.207031 L 44.130859 59.173828 C 43.944888 58.929451 43.913822 58.802563 43.947266 58.765625 C 43.954266 58.757925 43.964812 58.754056 43.976562 58.753906 z M 62.818359 59.394531 C 63.00962 59.339971 63.094641 59.944481 62.673828 59.558594 C 62.724368 59.455666 62.77422 59.407104 62.818359 59.394531 z M 61.716797 59.435547 C 61.934724 59.401747 62.722453 59.659167 61.970703 59.708984 C 61.635588 59.526488 61.617742 59.450907 61.716797 59.435547 z M 62.871094 59.935547 C 63.039132 59.970402 62.931775 60.433579 62.53125 60.181641 C 62.634059 60.049091 62.718183 59.980379 62.783203 59.951172 C 62.81842 59.93535 62.847088 59.930568 62.871094 59.935547 z M 62.302734 60.158203 C 62.414443 60.140583 62.493576 60.684064 62.193359 60.414062 C 62.225169 60.232726 62.265502 60.164079 62.302734 60.158203 z M 43.287109 60.480469 C 43.523482 60.467409 44.36136 61.014172 43.548828 60.955078 C 43.19539 60.609373 43.179668 60.486403 43.287109 60.480469 z M 74.556641 60.730469 C 74.668354 60.712849 74.747483 61.256332 74.447266 60.986328 C 74.479076 60.804991 74.519409 60.736344 74.556641 60.730469 z M 46.238281 60.878906 C 46.515829 60.927988 46.853815 61.409735 46.027344 61.304688 C 45.981164 61.043064 46.037221 60.923268 46.126953 60.886719 C 46.160603 60.873013 46.198632 60.871895 46.238281 60.878906 z M 47.859375 61.933594 C 47.983982 61.947694 48.542871 63.622832 48.025391 62.898438 L 47.935547 62.623047 C 47.824685 62.107885 47.817824 61.928895 47.859375 61.933594 z M 12.5 80 C 16.671747 80 20 83.328253 20 87.5 C 20 91.671747 16.671747 95 12.5 95 C 8.3282528 95 5 91.671747 5 87.5 C 5 83.328253 8.3282528 80 12.5 80 z "
     style="color:#000000;overflow:visible;fill:#000080;stroke:none;stroke-width:1.2;stroke-linecap:round;stroke-linejoin:round;stroke-miterlimit:4;stroke-dasharray:none;stroke-dashoffset:188.976;stroke-opacity:1"
     id="path1091-0" />
</svg>
