<?xml version="1.0" encoding="UTF-8" standalone="no"?>
<svg
   xmlns:dc="http://purl.org/dc/elements/1.1/"
   xmlns:cc="http://creativecommons.org/ns#"
   xmlns:rdf="http://www.w3.org/1999/02/22-rdf-syntax-ns#"
   xmlns:svg="http://www.w3.org/2000/svg"
   xmlns="http://www.w3.org/2000/svg"
   xmlns:sodipodi="http://sodipodi.sourceforge.net/DTD/sodipodi-0.dtd"
   xmlns:inkscape="http://www.inkscape.org/namespaces/inkscape"
   version="1.1"
   width="100"
   height="100"
   id="svg4460"
   sodipodi:docname="uEB0D-globe-users.svg"
   inkscape:version="0.92.4 (5da689c313, 2019-01-14)">
  <sodipodi:namedview
     pagecolor="#ffffff"
     bordercolor="#666666"
     borderopacity="1"
     objecttolerance="10"
     gridtolerance="10"
     guidetolerance="10"
     inkscape:pageopacity="0"
     inkscape:pageshadow="2"
     inkscape:window-width="1920"
     inkscape:window-height="1177"
     id="namedview11"
     showgrid="false"
     inkscape:zoom="3.805"
     inkscape:cx="-29.758561"
     inkscape:cy="18.459838"
     inkscape:window-x="1272"
     inkscape:window-y="-8"
     inkscape:window-maximized="1"
     inkscape:current-layer="svg4460"
     inkscape:document-rotation="0" />
  <defs
     id="defs4462" />
  <metadata
     id="metadata4465">
    <rdf:RDF>
      <cc:Work
         rdf:about="">
        <dc:format>image/svg+xml</dc:format>
        <dc:type
           rdf:resource="http://purl.org/dc/dcmitype/StillImage" />
        <dc:title />
      </cc:Work>
    </rdf:RDF>
  </metadata>
  <path
     style="color:#000000;overflow:visible;fill:#000080;stroke-width:3.64358997;stroke-linecap:round;stroke-linejoin:round;stroke-dashoffset:188.97599792"
     d="M 49.947266,0 C 22.353625,0.02910248 -1.5346905e-5,22.406343 0,50 0.02832856,65.883744 7.6019435,80.809137 20.404297,90.210938 20.139346,88.178611 20.191474,86.0815 20.521484,84.007812 17.23104,81.150868 14.358352,77.824575 12.009766,74.130859 h 12.445312 c 1.181863,-1.844813 2.399598,-3.670058 4.525391,-5 C 27.735338,64.030209 26.974419,58.415464 26.833984,52.5 h 1.345704 c 0.397739,-1.746285 1.050847,-3.440195 1.929687,-5 H 26.867188 C 27.07911,41.565457 27.910149,35.945958 29.230469,30.869141 H 47.5 v 8.888671 c 1.84616,0.289322 3.521856,0.911775 5,1.804688 V 30.869141 h 19.195312 c 0.259149,0.996461 0.494377,2.020087 0.714844,3.05664 1.694662,-0.253602 3.389323,-0.301568 5.083985,-0.117187 -0.197734,-0.992454 -0.406882,-1.976165 -0.638672,-2.939453 h 13.888672 c 2.038512,4.341025 3.406378,9.059858 3.966145,14.02741 0.579661,5.049145 0.5911,10.975109 -1.246265,16.771617 -0.599642,2.232855 -1.36843,4.395522 -2.286324,6.478316 1.127941,1.18624 2.494511,2.308127 3.867188,3.453125 C 98.291448,64.861009 99.984725,57.479869 100,50 100,22.385763 77.614237,0 50,0 Z M 52.5,5.6816406 c 5.267578,0.8962034 10.302435,5.2365954 14.267578,12.4375004 1.278131,2.321151 2.420531,4.926392 3.408203,7.75 H 52.5 Z m -5,0.1972656 V 25.869141 H 30.75 c 0.987672,-2.823608 2.130072,-5.428849 3.408203,-7.75 C 37.890361,11.341349 42.5705,7.1024017 47.5,5.8789062 Z M 35.980469,7.2324219 c -2.324007,2.3518549 -4.410964,5.2199521 -6.203125,8.4746091 -1.679707,3.050434 -3.125512,6.466839 -4.3125,10.16211 H 12.009766 C 17.545184,17.163368 25.985415,10.499624 35.980469,7.2324219 Z M 65.390625,7.6953125 C 74.788044,11.107725 82.70909,17.563275 87.990234,25.869141 H 75.455078 C 74.27054,22.173713 72.82777,18.756792 71.148438,15.707031 69.471795,12.662163 67.535486,9.9584025 65.390625,7.6953125 Z M 9.2558594,30.869141 H 24.064453 C 22.818773,36.03111 22.055644,41.62805 21.861328,47.5 H 5.0722656 C 5.3956707,41.575313 6.8641975,35.962202 9.2558594,30.869141 Z M 5.0722656,52.5 H 21.833984 c 0.128797,5.856194 0.820442,11.453511 1.994141,16.630859 H 9.2558594 C 6.8641975,64.037798 5.3956707,58.424687 5.0722656,52.5 Z"
     id="path865"
     inkscape:connector-curvature="0"
     sodipodi:nodetypes="ccccccccccccccccccccccccccsccsccccccsccscccccccccccccccccc" />
  <path
     style="opacity:1;vector-effect:none;fill:#000080;fill-opacity:1;stroke:none;stroke-width:3.62065101;stroke-linecap:round;stroke-linejoin:round;stroke-miterlimit:4;stroke-dasharray:none;stroke-dashoffset:4;stroke-opacity:1;paint-order:normal"
     d="m 75.999086,37.769017 c -8.284271,0 -15,6.715729 -15,15 0,8.284271 6.715729,15 15,15 8.284271,0 15,-6.715729 15,-15 0,-8.284271 -6.715729,-15 -15,-15 z m 0,32.222656 c -16.568542,0 -24,7.431458 -24,24 v 2.000002 c 0.07552,3.939816 1.817778,4.056085 5.5,4.000002 h 37 c 4.696162,-0.0036 5.532854,0.005 5.500002,-4.000002 v -2.000002 c 0,-16.568542 -7.43146,-24 -24.000002,-24 z"
     id="path812"
     inkscape:connector-curvature="0"
     sodipodi:nodetypes="sssssssccccss" />
  <path
     style="opacity:1;vector-effect:none;fill:#000080;fill-opacity:1;stroke:none;stroke-width:2.96647215;stroke-linecap:round;stroke-linejoin:round;stroke-miterlimit:4;stroke-dasharray:none;stroke-dashoffset:4;stroke-opacity:1;paint-order:normal"
     d="M 44 43.390625 C 37.21253 43.390625 31.708984 48.894171 31.708984 55.681641 C 31.708984 62.469111 37.21253 67.970703 44 67.970703 C 50.78747 67.970703 56.289063 62.469111 56.289062 55.681641 C 56.289062 48.894171 50.78747 43.390625 44 43.390625 z M 44 69.791016 C 30.42506 69.791016 24.335937 75.880138 24.335938 89.455078 L 24.335938 91.09375 C 24.397817 94.32172 25.824879 94.417044 28.841797 94.371094 L 47.964844 94.371094 C 47.477386 86.282577 49.866263 77.692678 55.816406 72.232422 C 52.803628 70.586164 48.89114 69.791016 44 69.791016 z "
     id="path812-4" />
</svg>
