<?xml version="1.0" encoding="UTF-8" standalone="no"?>
<svg
   xmlns:dc="http://purl.org/dc/elements/1.1/"
   xmlns:cc="http://creativecommons.org/ns#"
   xmlns:rdf="http://www.w3.org/1999/02/22-rdf-syntax-ns#"
   xmlns:svg="http://www.w3.org/2000/svg"
   xmlns="http://www.w3.org/2000/svg"
   xmlns:sodipodi="http://sodipodi.sourceforge.net/DTD/sodipodi-0.dtd"
   xmlns:inkscape="http://www.inkscape.org/namespaces/inkscape"
   version="1.1"
   width="100"
   height="100"
   id="svg4460"
   sodipodi:docname="uEB10-earth-network-o.svg"
   inkscape:version="1.0 (4035a4fb49, 2020-05-01)">
  <sodipodi:namedview
     pagecolor="#ffffff"
     bordercolor="#666666"
     borderopacity="1"
     objecttolerance="10"
     gridtolerance="10"
     guidetolerance="10"
     inkscape:pageopacity="0"
     inkscape:pageshadow="2"
     inkscape:window-width="1920"
     inkscape:window-height="1017"
     id="namedview11"
     showgrid="false"
     inkscape:zoom="7.61"
     inkscape:cx="21.595226"
     inkscape:cy="53.717465"
     inkscape:window-x="-8"
     inkscape:window-y="-8"
     inkscape:window-maximized="1"
     inkscape:current-layer="svg4460"
     inkscape:document-rotation="0" />
  <defs
     id="defs4462" />
  <metadata
     id="metadata4465">
    <rdf:RDF>
      <cc:Work
         rdf:about="">
        <dc:format>image/svg+xml</dc:format>
        <dc:type
           rdf:resource="http://purl.org/dc/dcmitype/StillImage" />
        <dc:title></dc:title>
      </cc:Work>
    </rdf:RDF>
  </metadata>
  <path
     d="M 37.328125 0 C 30.454177 0 24.828125 5.6260522 24.828125 12.5 C 24.828125 19.373948 30.454177 25 37.328125 25 C 38.643924 25 39.913778 24.791737 41.107422 24.410156 L 47.683594 38.386719 C 39.559217 43.505572 35.317784 53.510056 37.929688 63.257812 C 38.396825 65.001195 39.063128 66.636804 39.888672 68.158203 L 22.138672 79.5625 L 22.136719 79.560547 C 19.839072 76.779576 16.366596 75 12.5 75 C 5.6260522 75 0 80.626052 0 87.5 C 0 94.373948 5.6260522 100 12.5 100 C 19.373948 100 25 94.373948 25 87.5 C 25 85.922764 24.691854 84.416387 24.152344 83.023438 L 42.103516 71.490234 C 47.522248 78.237118 56.60818 81.544908 65.486328 79.166016 C 77.466433 75.955956 84.606544 63.589481 81.396484 51.609375 C 80.377025 47.804702 78.431913 44.491674 75.871094 41.839844 L 85.748047 29.03125 C 87.041865 29.64616 88.480829 30 90 30 C 95.493236 30 100 25.493236 100 20 C 100 14.506764 95.493236 10 90 10 C 84.506764 10 80 14.506764 80 20 C 80 22.538934 80.970913 24.859011 82.548828 26.628906 L 72.841797 39.214844 C 67.541113 35.388577 60.6293 33.879989 53.839844 35.699219 C 52.947567 35.938303 52.0863 36.233584 51.25 36.570312 L 44.669922 22.583984 C 47.786331 20.304896 49.828125 16.633243 49.828125 12.5 C 49.828125 5.6260522 44.202073 0 37.328125 0 z M 37.328125 5 C 41.499872 5 44.828125 8.3282528 44.828125 12.5 C 44.828125 16.671747 41.499872 20 37.328125 20 C 33.156378 20 29.828125 16.671747 29.828125 12.5 C 29.828125 8.3282528 33.156378 5 37.328125 5 z M 90 15 C 92.791035 15 95 17.208965 95 20 C 95 22.791035 92.791035 25 90 25 C 87.208965 25 85 22.791035 85 20 C 85 17.208965 87.208965 15 90 15 z M 60.453125 37.445312 C 68.957172 37.781805 76.627895 43.569293 78.966797 52.207031 A 0.59999886 0.59999886 0 0 1 78.982422 52.257812 A 0.59999886 0.59999886 0 0 1 78.994141 52.316406 C 81.81263 62.960582 75.482919 73.90015 64.839844 76.751953 C 54.177413 79.608943 43.202693 73.273759 40.345703 62.611328 C 37.488713 51.948897 43.825851 40.972224 54.488281 38.115234 C 56.484242 37.580418 58.490653 37.36766 60.453125 37.445312 z M 60.007812 38.636719 C 59.381187 38.6259 58.750777 38.647938 58.117188 38.701172 C 58.477169 38.739576 58.731631 38.851238 58.253906 39.044922 L 57.822266 39.017578 C 57.439177 38.916086 57.317654 38.83662 57.339844 38.78125 C 56.494156 38.887917 55.645489 39.048529 54.798828 39.275391 C 54.753525 39.287531 54.709182 39.302013 54.664062 39.314453 C 55.037102 39.24969 55.410725 39.196632 55.789062 39.169922 C 56.043073 40.014667 56.659651 41.554008 54.980469 41.943359 C 53.631651 42.38712 53.166733 45.845236 51.794922 43.806641 C 51.576177 42.631074 52.935392 39.780584 50.767578 41.265625 C 50.454913 42.137945 50.954224 43.468797 49.966797 43.560547 C 49.955965 44.86237 48.818521 44.392914 48.490234 43.917969 C 48.107663 44.305485 49.080607 44.775935 48.669922 45.275391 C 49.874244 43.894063 49.122325 46.479411 50.115234 46.826172 C 49.519541 47.811435 51.48194 49.396603 49.65625 49.351562 C 48.030711 49.520767 50.339853 47.058388 48.650391 48.390625 C 47.522539 48.981672 47.77063 49.649934 48.716797 49.589844 C 48.11358 50.562328 47.098521 50.878474 46.529297 50.666016 C 45.514277 51.774954 44.603736 53.053007 43.900391 54.457031 C 42.438928 54.923362 43.577058 57.833226 42.783203 57.71875 C 42.45886 56.820534 42.375348 55.252795 41.488281 55.720703 C 41.229009 55.705936 41.04055 55.867302 40.908203 56.126953 C 40.842043 57.082709 40.849414 58.051101 40.933594 59.025391 C 40.992264 59.161666 41.058833 59.274419 41.132812 59.349609 C 41.995001 57.45657 41.517815 60.445462 41.966797 60.882812 C 43.017971 61.819051 42.324796 64.180076 44.197266 64.097656 C 44.498095 62.717026 45.374869 63.660447 45.474609 63.476562 C 46.023123 63.220782 46.815277 64.533203 47.796875 64.064453 C 48.960019 63.617837 48.996704 66.130212 50.699219 65.953125 C 52.847663 65.996576 53.358195 68.723374 55.642578 68.466797 C 57.144391 68.879162 60.870684 68.237604 60.291016 70.630859 C 58.778346 71.787346 60.697599 74.592423 58.03125 74.658203 C 57.522441 74.965015 57.433348 75.585861 57.123047 76.068359 C 59.527861 76.396403 62.036359 76.261731 64.529297 75.59375 C 69.509439 74.259325 73.479952 71.050115 75.890625 66.929688 C 75.993038 65.79139 75.884164 64.582142 76.361328 63.523438 C 76.395596 61.839225 74.496745 61.152152 75.027344 59.460938 C 74.256517 59.770003 72.590558 59.196838 72.056641 60.728516 C 71.053359 61.011805 70.388273 62.428108 69.291016 62.076172 C 67.849845 61.67126 66.192 61.190723 65.435547 59.777344 C 65.272025 58.561183 64.506633 57.151104 64.326172 56.03125 C 64.376966 53.996345 65.572361 52.460659 65.382812 50.513672 C 65.480526 50.366884 66.33926 49.229001 66.375 49.181641 C 67.605378 48.485437 68.8338 45.880852 70.193359 47.796875 C 70.515235 47.91973 72.558998 48.344269 72.205078 47.671875 C 71.949339 46.541582 75.095889 46.349478 73.171875 45.296875 C 72.988074 45.245599 72.336993 45.232297 71.966797 45.451172 C 71.812611 45.534341 71.314539 46.50844 70.427734 45.617188 C 69.265089 44.999792 70.999174 47.952786 69.308594 46.638672 C 70.47855 45.867731 67.164333 45.156028 68.083984 45.839844 C 69.550419 47.281948 67.370341 46.662235 67.394531 45.390625 C 65.715653 45.626766 67.321457 48.467894 65.921875 49.345703 C 65.932475 49.344603 65.942515 49.339391 65.953125 49.337891 L 65.697266 49.443359 L 65.296875 49.591797 C 64.81808 49.309314 63.708748 49.553747 63.736328 48.357422 C 62.723716 47.344707 63.287086 46.705345 64.541016 46.490234 C 65.563712 45.369108 61.508043 45.439895 63.839844 44.373047 C 62.789137 44.728159 62.353473 44.889109 61.861328 43.607422 C 62.470375 45.197753 60.082582 44.743829 60.955078 43.466797 C 61.309192 43.060775 59.726014 42.848942 60.869141 42.326172 C 61.658691 42.069052 64.107269 44.893668 63.875 42.869141 C 64.372466 42.548642 63.040479 41.788919 63.277344 41.666016 C 61.980455 42.497559 60.899512 40.120054 60.638672 39.191406 C 61.113299 39.083949 61.579659 38.917892 61.873047 38.763672 C 61.257179 38.690872 60.634438 38.647537 60.007812 38.636719 z M 62.669922 39.771484 C 62.601208 39.767204 62.558873 39.770097 62.533203 39.779297 C 62.35333 39.843077 63.079067 40.165415 62.669922 39.771484 z M 62.726562 40.333984 C 62.401999 40.390044 64.211944 41.054708 63.351562 40.416016 C 62.990309 40.340636 62.801473 40.321054 62.726562 40.333984 z M 64.259766 40.865234 C 64.100466 40.908645 64.159153 41.072564 64.753906 41.369141 C 65.066571 41.974595 64.816352 42.374317 65.378906 41.601562 C 65.393689 41.056807 64.525281 40.792954 64.259766 40.865234 z M 57.421875 41.517578 C 58.045124 41.529085 58.508621 41.809734 57.3125 42.294922 C 57.044376 42.365319 56.738389 42.397982 56.484375 42.257812 C 56.242885 41.9201 56.459225 41.704643 56.800781 41.597656 C 56.988633 41.538814 57.214125 41.513743 57.421875 41.517578 z M 60.951172 41.748047 C 61.030242 41.748496 61.457172 42.241729 61.033203 41.958984 C 60.938203 41.802712 60.924822 41.74786 60.951172 41.748047 z M 59.708984 41.78125 C 59.789344 41.716978 60.092792 42.184287 59.699219 41.925781 C 59.682519 41.838816 59.690424 41.79606 59.708984 41.78125 z M 69.675781 42.568359 C 69.389745 42.68177 70.869066 44.411209 70.853516 43.447266 C 72.004598 42.941 70.347304 42.288343 70.197266 42.800781 C 69.903284 42.601966 69.741791 42.542179 69.675781 42.568359 z M 48.974609 42.910156 C 48.955825 42.899308 48.927664 42.899136 48.890625 42.914062 C 48.791849 42.953866 48.62536 43.09517 48.382812 43.390625 C 48.05048 43.652553 47.565829 44.847691 48.25 43.876953 C 48.802468 43.625854 49.106101 42.986092 48.974609 42.910156 z M 47.039062 44.167969 C 46.879663 44.198539 46.668067 44.330038 46.396484 44.605469 C 45.367055 44.977221 45.930728 47.309519 45.923828 47.162109 C 46.179973 46.870607 46.28567 46.160714 46.699219 46.089844 C 47.431005 45.810186 47.729816 44.035495 47.039062 44.167969 z M 67.933594 44.59375 C 67.916604 44.59535 67.902431 44.598716 67.894531 44.603516 C 67.839283 44.637881 68.019899 44.754918 68.625 44.996094 C 68.791052 44.893743 69.905294 45.486269 69.572266 45.076172 C 69.141966 44.829568 68.159655 44.57171 67.933594 44.59375 z M 70.734375 44.777344 C 70.645685 44.846986 71.282796 45.378703 71.121094 44.916016 C 70.873596 44.782734 70.763935 44.754124 70.734375 44.777344 z M 72.128906 45.800781 C 72.368037 45.859566 72.603916 46.365124 71.886719 46.232422 C 71.880171 45.963117 71.945137 45.841341 72.029297 45.806641 C 72.060854 45.793629 72.094745 45.792383 72.128906 45.800781 z M 67.003906 46.736328 C 67.234141 46.63434 67.38706 47.778085 66.773438 47.357422 C 66.841845 46.942407 66.927156 46.770328 67.003906 46.736328 z M 47.658203 48.318359 C 47.514674 48.354929 47.737297 48.658473 47.9375 48.402344 C 47.793561 48.325094 47.706103 48.306119 47.658203 48.318359 z M 43.949219 48.824219 C 43.714797 48.858458 44.192651 49.842593 44.238281 48.986328 C 44.094079 48.858734 44.003239 48.816219 43.949219 48.824219 z M 44.232422 49.775391 C 44.066874 49.861821 44.250142 50.968284 44.326172 49.810547 C 44.286902 49.771727 44.256112 49.763041 44.232422 49.775391 z M 58.199219 50.662109 C 58.488449 50.61144 58.558554 51.083097 57.857422 50.929688 C 57.982065 50.754379 58.102839 50.679029 58.199219 50.662109 z M 59.128906 50.724609 C 59.255576 50.737195 59.139947 51.21183 58.916016 50.912109 C 59.01679 50.767968 59.086696 50.720409 59.128906 50.724609 z M 44.083984 50.994141 C 43.882792 51.006903 43.684386 51.756684 44.214844 51.128906 C 44.177045 51.027339 44.130414 50.991241 44.083984 50.994141 z M 62.775391 51.863281 C 62.887096 51.917873 62.911206 52.33654 62.611328 52.048828 C 62.648847 51.938302 62.687946 51.884054 62.722656 51.865234 C 62.741427 51.85503 62.759433 51.855482 62.775391 51.863281 z M 64.339844 52.958984 C 64.515442 52.911883 64.844781 53.583376 64.292969 53.597656 C 64.2124 53.149542 64.260024 52.980394 64.339844 52.958984 z M 63.535156 53.597656 C 63.969909 53.592829 64.317014 53.752741 63.464844 54.011719 L 63.080078 54.115234 L 63.003906 54.101562 C 62.770318 53.876058 62.889793 53.734026 63.113281 53.660156 C 63.2362 53.619525 63.390239 53.599266 63.535156 53.597656 z M 43.384766 57.224609 C 43.490356 57.195082 43.93659 57.922064 43.439453 57.574219 C 43.350993 57.328477 43.349476 57.234509 43.384766 57.224609 z M 43.345703 57.917969 C 43.456594 57.907412 43.675425 58.932763 43.296875 58.371094 C 43.283725 58.040287 43.308783 57.921469 43.345703 57.917969 z M 42.353516 58.533203 C 42.463656 58.515543 42.623452 58.515326 42.847656 58.535156 C 43.516918 59.504426 44.652142 59.57383 44.484375 60.125 C 45.314848 60.22332 46.788827 61.352179 44.849609 61.189453 C 43.548156 61.030632 45.016601 60.182088 43.527344 60.179688 C 43.316469 59.610358 41.58253 58.656676 42.353516 58.533203 z M 43.976562 58.753906 C 44.058861 58.753062 44.237775 58.931078 44.234375 59.207031 L 44.130859 59.173828 C 43.944922 58.929452 43.913846 58.802555 43.947266 58.765625 C 43.954216 58.757875 43.964813 58.753948 43.976562 58.753906 z M 62.818359 59.396484 C 63.009625 59.341949 63.094641 59.94448 62.673828 59.558594 C 62.724369 59.455669 62.774189 59.409064 62.818359 59.396484 z M 61.716797 59.435547 C 61.934708 59.401757 62.724402 59.659164 61.972656 59.708984 C 61.637535 59.52649 61.617747 59.450907 61.716797 59.435547 z M 62.871094 59.935547 C 63.03912 59.970639 62.931782 60.435529 62.53125 60.183594 C 62.634063 60.051044 62.718223 59.980362 62.783203 59.951172 C 62.81842 59.935351 62.84709 59.930534 62.871094 59.935547 z M 62.302734 60.158203 C 62.414442 60.140577 62.493575 60.684064 62.193359 60.414062 C 62.225161 60.232726 62.265484 60.164103 62.302734 60.158203 z M 43.287109 60.482422 C 43.523471 60.469365 44.363314 61.014168 43.550781 60.955078 C 43.197339 60.609377 43.179665 60.488322 43.287109 60.482422 z M 74.558594 60.732422 C 74.670306 60.714796 74.74748 61.256331 74.447266 60.986328 C 74.479076 60.804992 74.521384 60.738322 74.558594 60.732422 z M 46.238281 60.878906 C 46.515899 60.92797 46.853813 61.411687 46.027344 61.306641 C 45.98118 61.045017 46.037223 60.925222 46.126953 60.888672 C 46.160602 60.874966 46.198622 60.871897 46.238281 60.878906 z M 41.228516 61.095703 C 41.308662 61.497122 41.39644 61.899709 41.503906 62.300781 C 42.819383 67.210205 45.95992 71.136554 49.996094 73.556641 C 48.612887 72.314217 46.887882 71.477557 45.787109 69.919922 C 43.986901 68.56517 44.582673 66.432412 43.835938 64.716797 C 43.503587 63.791631 43.676873 65.366105 43.039062 64.25 C 42.297767 63.39725 41.785165 62.142743 41.228516 61.095703 z M 47.861328 61.933594 C 47.98594 61.947699 48.544839 63.622827 48.027344 62.898438 L 47.935547 62.623047 C 47.824707 62.107883 47.819738 61.928894 47.861328 61.933594 z M 12.5 80 C 16.671747 80 20 83.328253 20 87.5 C 20 91.671747 16.671747 95 12.5 95 C 8.3282528 95 5 91.671747 5 87.5 C 5 83.328253 8.3282528 80 12.5 80 z "
     style="color:#000000;overflow:visible;fill:#000080;stroke:none;stroke-width:1.2;stroke-linecap:round;stroke-linejoin:round;stroke-miterlimit:4;stroke-dasharray:none;stroke-dashoffset:188.976;stroke-opacity:1"
     id="path1091-0" />
</svg>
