<?xml version="1.0" encoding="UTF-8" standalone="no"?>
<svg
   xmlns:dc="http://purl.org/dc/elements/1.1/"
   xmlns:cc="http://creativecommons.org/ns#"
   xmlns:rdf="http://www.w3.org/1999/02/22-rdf-syntax-ns#"
   xmlns:svg="http://www.w3.org/2000/svg"
   xmlns="http://www.w3.org/2000/svg"
   xmlns:sodipodi="http://sodipodi.sourceforge.net/DTD/sodipodi-0.dtd"
   xmlns:inkscape="http://www.inkscape.org/namespaces/inkscape"
   inkscape:version="1.0 (4035a4fb49, 2020-05-01)"
   sodipodi:docname="uEA90-compass.svg"
   id="svg4460"
   height="100"
   width="100"
   version="1.1">
  <path
     d="M 49.949219 0 A 1.5176518 1.5176518 0 0 0 48.927734 0.44335938 L 45.691406 3.6796875 C 36.093674 4.5644649 27.332447 8.3670942 20.310547 14.199219 L 15.716797 14.199219 A 1.5176518 1.5176518 0 0 0 14.609375 14.679688 A 1.5176518 1.5176518 0 0 0 14.199219 15.716797 L 14.199219 20.310547 C 8.3670942 27.332447 4.5644649 36.093674 3.6796875 45.691406 L 0.44335938 48.927734 A 1.5176518 1.5176518 0 0 0 0.44335938 51.074219 L 3.6796875 54.310547 C 4.5647984 63.907522 8.367486 72.668025 14.199219 79.689453 L 14.199219 84.283203 A 1.5176518 1.5176518 0 0 0 15.716797 85.800781 L 20.310547 85.800781 C 27.331975 91.632514 36.092478 95.435202 45.689453 96.320312 L 48.925781 99.556641 A 1.5176518 1.5176518 0 0 0 51.072266 99.556641 L 54.306641 96.320312 C 63.90513 95.435868 72.667081 91.633298 79.689453 85.800781 L 84.28125 85.800781 A 1.5176518 1.5176518 0 0 0 85.800781 84.283203 L 85.798828 79.691406 C 91.63234 72.668677 95.435779 63.906097 96.320312 54.306641 L 99.556641 51.072266 A 1.5176518 1.5176518 0 0 0 99.556641 48.925781 L 96.320312 45.689453 C 95.435112 36.091512 91.631556 27.330379 85.798828 20.308594 L 85.800781 15.716797 A 1.5176518 1.5176518 0 0 0 84.28125 14.199219 L 79.689453 14.199219 C 72.668025 8.367486 63.907522 4.5647984 54.310547 3.6796875 L 51.074219 0.44335938 A 1.5176518 1.5176518 0 0 0 49.949219 0 z M 45.238281 8.7519531 L 48.927734 12.441406 A 1.5176518 1.5176518 0 0 0 51.072266 12.441406 L 54.759766 8.7519531 C 62.663688 9.6513855 69.88564 12.760768 75.798828 17.451172 L 75.798828 22.683594 A 1.5176518 1.5176518 0 0 0 77.318359 24.201172 L 82.548828 24.201172 C 87.23885 30.113879 90.348328 37.335113 91.248047 45.238281 L 87.558594 48.927734 A 1.5176518 1.5176518 0 0 0 87.558594 51.074219 L 91.248047 54.763672 C 90.348041 62.666086 87.238468 69.886602 82.548828 75.798828 L 77.318359 75.798828 A 1.5176518 1.5176518 0 0 0 76.208984 76.28125 A 1.5176518 1.5176518 0 0 0 75.798828 77.316406 L 75.798828 82.548828 C 69.886602 87.238468 62.666086 90.348041 54.763672 91.248047 L 51.074219 87.558594 A 1.5176518 1.5176518 0 0 0 49.949219 87.115234 A 1.5176518 1.5176518 0 0 0 48.927734 87.558594 L 45.238281 91.248047 C 37.334155 90.348219 30.112324 87.237848 24.199219 82.546875 L 24.199219 77.316406 A 1.5176518 1.5176518 0 0 0 22.683594 75.798828 L 17.451172 75.798828 C 12.760768 69.88564 9.6513855 62.663688 8.7519531 54.759766 L 12.441406 51.072266 A 1.5176518 1.5176518 0 0 0 12.441406 48.927734 L 8.7519531 45.238281 C 9.6516722 37.335113 12.76115 30.113879 17.451172 24.201172 L 22.683594 24.201172 A 1.5176518 1.5176518 0 0 0 24.199219 22.683594 L 24.199219 17.453125 C 30.112324 12.762152 37.334155 9.6517813 45.238281 8.7519531 z M 50 46.560547 C 48.10029 46.560547 46.560547 48.10029 46.560547 50 C 46.560547 51.89971 48.10029 53.439453 50 53.439453 C 51.89971 53.439453 53.439453 51.89971 53.439453 50 C 53.439453 48.10029 51.89971 46.560547 50 46.560547 z "
     style="color:#000000;font-style:normal;font-variant:normal;font-weight:normal;font-stretch:normal;font-size:medium;line-height:normal;font-family:sans-serif;font-variant-ligatures:normal;font-variant-position:normal;font-variant-caps:normal;font-variant-numeric:normal;font-variant-alternates:normal;font-variant-east-asian:normal;font-feature-settings:normal;font-variation-settings:normal;text-indent:0;text-align:start;text-decoration:none;text-decoration-line:none;text-decoration-style:solid;text-decoration-color:#000000;letter-spacing:normal;word-spacing:normal;text-transform:none;writing-mode:lr-tb;direction:ltr;text-orientation:mixed;dominant-baseline:auto;baseline-shift:baseline;text-anchor:start;white-space:normal;shape-padding:0;shape-margin:0;inline-size:0;clip-rule:nonzero;display:inline;overflow:visible;visibility:visible;isolation:auto;mix-blend-mode:normal;color-interpolation:sRGB;color-interpolation-filters:linearRGB;solid-color:#000000;solid-opacity:1;vector-effect:none;fill:#000080;fill-opacity:1;fill-rule:nonzero;stroke:none;stroke-width:5;stroke-linecap:round;stroke-linejoin:round;stroke-miterlimit:4;stroke-dasharray:none;stroke-dashoffset:20;stroke-opacity:1;color-rendering:auto;image-rendering:auto;shape-rendering:auto;text-rendering:auto;enable-background:accumulate;stop-color:#000000;stop-opacity:1;opacity:1"
     id="path903" />
  <sodipodi:namedview
     inkscape:document-rotation="0"
     inkscape:current-layer="svg4460"
     inkscape:window-maximized="1"
     inkscape:window-y="-8"
     inkscape:window-x="-8"
     inkscape:cy="16.395005"
     inkscape:cx="14.037906"
     inkscape:zoom="4"
     showgrid="false"
     id="namedview11"
     inkscape:window-height="1017"
     inkscape:window-width="1920"
     inkscape:pageshadow="2"
     inkscape:pageopacity="0"
     guidetolerance="10"
     gridtolerance="10"
     objecttolerance="10"
     borderopacity="1"
     bordercolor="#666666"
     pagecolor="#ffffff" />
  <defs
     id="defs4462" />
  <metadata
     id="metadata4465">
    <rdf:RDF>
      <cc:Work
         rdf:about="">
        <dc:format>image/svg+xml</dc:format>
        <dc:type
           rdf:resource="http://purl.org/dc/dcmitype/StillImage" />
        <dc:title />
      </cc:Work>
    </rdf:RDF>
  </metadata>
</svg>
