<?xml version="1.0" encoding="UTF-8" standalone="no"?>
<svg
   xmlns:dc="http://purl.org/dc/elements/1.1/"
   xmlns:cc="http://creativecommons.org/ns#"
   xmlns:rdf="http://www.w3.org/1999/02/22-rdf-syntax-ns#"
   xmlns:svg="http://www.w3.org/2000/svg"
   xmlns="http://www.w3.org/2000/svg"
   xmlns:sodipodi="http://sodipodi.sourceforge.net/DTD/sodipodi-0.dtd"
   xmlns:inkscape="http://www.inkscape.org/namespaces/inkscape"
   inkscape:version="1.0 (4035a4fb49, 2020-05-01)"
   sodipodi:docname="compass-n.svg"
   id="svg4460"
   height="100"
   width="100"
   version="1.1">
  <sodipodi:namedview
     inkscape:document-rotation="0"
     inkscape:current-layer="svg4460"
     inkscape:window-maximized="1"
     inkscape:window-y="-8"
     inkscape:window-x="-8"
     inkscape:cy="62.094171"
     inkscape:cx="41.441106"
     inkscape:zoom="5.6568543"
     showgrid="false"
     id="namedview11"
     inkscape:window-height="1017"
     inkscape:window-width="1920"
     inkscape:pageshadow="2"
     inkscape:pageopacity="0"
     guidetolerance="10"
     gridtolerance="10"
     objecttolerance="10"
     borderopacity="1"
     bordercolor="#666666"
     pagecolor="#ffffff" />
  <defs
     id="defs4462" />
  <metadata
     id="metadata4465">
    <rdf:RDF>
      <cc:Work
         rdf:about="">
        <dc:format>image/svg+xml</dc:format>
        <dc:type
           rdf:resource="http://purl.org/dc/dcmitype/StillImage" />
        <dc:title></dc:title>
      </cc:Work>
    </rdf:RDF>
  </metadata>
  <path
     d="m 49.956389,10.000019 c -0.591598,-0.00319 -0.915988,0.400336 -1.007473,0.872002 L 46.505752,19.114 c -5.973216,0.669682 -11.435079,3.031652 -15.896911,6.599187 -2.538151,-1.377393 -5.074993,-2.762044 -7.614448,-4.132667 -0.469702,-0.25299 -0.882037,-0.233363 -1.262846,0.149486 -0.3807,0.382955 -0.272652,0.94671 -0.05761,1.35316 l 4.068824,7.494548 c -3.584906,4.469004 -5.962078,9.942667 -6.633446,15.932725 -2.774207,0.822398 -5.552782,1.638441 -8.322949,2.466521 -0.511019,0.153239 -0.7878019,0.458144 -0.786359,0.998131 0.0016,0.539986 0.476145,0.862782 0.915602,0.998131 l 8.189035,2.426035 c 0.654639,6.004554 3.018356,11.49644 6.599189,15.97944 -1.385059,2.552758 -2.777639,5.10421 -4.156025,7.658047 -0.252994,0.469698 -0.23336,0.880483 0.149486,1.261289 0.382954,0.380699 0.946711,0.274206 1.353161,0.05917 l 7.53659,-4.090624 c 4.466669,3.579703 9.937162,5.951543 15.921826,6.622545 0.822609,2.77482 1.639813,5.553724 2.468077,8.324507 0.153233,0.511019 0.458147,0.787782 0.998131,0.786363 0.539984,-0.0016 0.86278,-0.476149 0.998131,-0.915606 l 2.426035,-8.189035 c 6.019888,-0.656794 11.520386,-3.033374 16.005911,-6.631888 l 7.567733,4.10931 c 0.548927,0.279636 0.920169,0.328915 1.340704,-0.0872 0.42058,-0.416069 0.365374,-0.931597 0.09654,-1.329803 l -4.12021,-7.592648 c 3.571195,-4.479342 5.935798,-9.961898 6.591402,-15.95764 l 8.232635,-2.440049 c 0.585882,-0.190419 0.882895,-0.417426 0.88602,-1.009031 0.0032,-0.591601 -0.40034,-0.915991 -0.872006,-1.007474 L 80.857967,46.497982 C 80.185956,40.519388 77.821921,35.052372 74.250993,30.588614 l 4.089067,-7.531919 c 0.279636,-0.548927 0.328919,-0.920167 -0.0872,-1.340703 -0.208034,-0.210291 -0.440666,-0.300223 -0.67113,-0.305201 -0.230464,-0.0049 -0.459569,0.0758 -0.658673,0.210215 l -7.545933,4.096853 C 64.896422,22.129185 59.407687,19.754783 53.399241,19.098427 l -2.43382,-8.212391 c -0.190419,-0.585882 -0.417425,-0.882891 -1.009032,-0.886017 z m -0.0016,4.176268 v 4.732169 2.391777 23.916217 c -0.808606,0.0078 -1.602031,0.220516 -2.306134,0.618188 L 42.6705,39.526636 47.883827,21.384319 48.584543,18.942713 Z m 4.18561,7.422918 c 4.812315,0.695342 9.232467,2.584484 12.960133,5.355028 l -9.797568,5.317656 z m -8.377449,0.02492 -3.143879,10.607284 c -3.241541,-1.762803 -6.484238,-3.517761 -9.725939,-5.278728 3.703741,-2.749468 8.093655,-4.623875 12.869818,-5.328556 z m -21.111796,3.025536 15.601054,15.571467 -0.0078,0.02336 c -1.987632,0.588351 -3.972767,1.179708 -5.960758,1.767361 l -5.987229,-10.792584 -1.223917,-2.20492 z m 50.647756,0.01868 -3.343195,3.343195 -1.672375,1.672375 -10.552784,10.552784 -0.07474,-0.0218 -1.753347,-5.915599 10.864213,-6.015258 1.308004,-0.722516 0.890687,-0.493616 z m -2.278106,8.187478 c 2.764503,3.711262 4.647947,8.115321 5.355028,12.90719 l -10.64777,-3.156337 z m -46.038601,0.0078 5.289628,9.744625 c -3.554246,1.05056 -7.103817,2.107707 -10.657113,3.15945 0.70808,-4.792167 2.600144,-9.19267 5.367485,-12.904075 z m 33.391455,9.778881 18.241974,5.241357 2.413578,0.69293 4.794455,1.378074 H 81.091539 78.699761 54.783544 c -0.0079,-0.817105 -0.225047,-1.618557 -0.630645,-2.327933 z m -15.155709,7.312361 c -5.9e-4,0.01505 -0.0011,0.03011 -0.0016,0.04516 4.3e-5,0.79797 0.19971,1.583253 0.580816,2.284334 l -6.297102,4.956398 -6.241044,-1.787604 -11.879473,-3.400808 v -0.0016 L 18.94114,51.353166 14.127999,49.975091 Z m 33.184354,4.184054 c -0.69444,4.808043 -2.582546,9.223503 -5.348799,12.949233 l -5.312985,-9.789782 z m -56.790699,0.0031 10.64777,3.15478 c -1.775461,3.265339 -3.542561,6.532009 -5.3161,9.797567 -2.762986,-3.725524 -4.638573,-8.144765 -5.33167,-12.952347 z m 30.697591,0.04672 4.959513,6.211458 -1.803176,6.295544 -3.414823,11.924631 -0.697602,2.438491 -1.378075,4.813141 -0.02024,-31.089992 c 0.842535,0.0018 1.716249,-0.218152 2.354406,-0.593273 z m 13.402362,3.71068 6.010587,10.859542 1.217689,2.198691 2.421363,4.374026 L 71.986859,71.957337 70.314483,70.284961 59.707199,59.677677 Z M 40.236636,59.73062 c 0.591906,1.999592 1.187092,3.996608 1.778262,5.996572 l -10.786356,5.984115 -2.206477,1.223917 -4.405168,2.444721 z m 17.074114,7.966363 9.820925,5.333228 c -3.733169,2.777737 -8.166414,4.66285 -12.989719,5.358142 z m -14.699465,0.04204 c 1.04944,3.550631 2.10563,7.096549 3.156336,10.646213 -4.78741,-0.707515 -9.18412,-2.596696 -12.893175,-5.3597 z"
     style="color:#000000;font-style:normal;font-variant:normal;font-weight:normal;font-stretch:normal;font-size:medium;line-height:normal;font-family:sans-serif;font-variant-ligatures:normal;font-variant-position:normal;font-variant-caps:normal;font-variant-numeric:normal;font-variant-alternates:normal;font-variant-east-asian:normal;font-feature-settings:normal;font-variation-settings:normal;text-indent:0;text-align:start;text-decoration:none;text-decoration-line:none;text-decoration-style:solid;text-decoration-color:#000000;letter-spacing:normal;word-spacing:normal;text-transform:none;writing-mode:lr-tb;direction:ltr;text-orientation:mixed;dominant-baseline:auto;baseline-shift:baseline;text-anchor:start;white-space:normal;shape-padding:0;shape-margin:0;inline-size:0;clip-rule:nonzero;display:inline;overflow:visible;visibility:visible;opacity:1;isolation:auto;mix-blend-mode:normal;color-interpolation:sRGB;color-interpolation-filters:linearRGB;solid-color:#000000;solid-opacity:1;vector-effect:none;fill:#000080;fill-opacity:1;fill-rule:nonzero;stroke:none;stroke-width:2.39178;stroke-linecap:round;stroke-linejoin:round;stroke-miterlimit:4;stroke-dasharray:none;stroke-dashoffset:20;stroke-opacity:1;color-rendering:auto;image-rendering:auto;shape-rendering:auto;text-rendering:auto;enable-background:accumulate;stop-color:#000000;stop-opacity:1"
     id="path1194" />
  <g
     aria-label="N"
     id="text903"
     style="font-style:normal;font-weight:normal;font-size:27.94px;line-height:100%;font-family:sans-serif;text-align:end;letter-spacing:0px;word-spacing:0px;text-anchor:end;fill:#000000;fill-opacity:1;stroke:none;stroke-width:1.1176px;stroke-linecap:butt;stroke-linejoin:miter;stroke-opacity:1" />
  <g
     transform="matrix(0.56350814,0,0,0.44703956,63.60228,4.2857695)"
     style="font-style:normal;font-weight:normal;font-size:25px;line-height:100%;font-family:sans-serif;text-align:end;letter-spacing:0px;word-spacing:0px;text-anchor:end;fill:#000000;fill-opacity:1;stroke:none;stroke-width:1px;stroke-linecap:butt;stroke-linejoin:miter;stroke-opacity:1"
     id="text1215"
     aria-label="N">
    <path
       id="path1271"
       style="font-style:normal;font-variant:normal;font-weight:bold;font-stretch:normal;font-family:Arial;-inkscape-font-specification:'Arial Bold'"
       d="M -31.236957,8.3085051 V -9.5870028 h 3.515625 l 7.324219,11.9506836 V -9.5870028 h 3.356934 V 8.3085051 h -3.625489 L -27.880023,-3.3614168 V 8.3085051 Z" />
  </g>
  <g
     transform="matrix(0.54979866,0,0,0.43201054,55.603184,86.451189)"
     style="font-style:normal;font-weight:normal;font-size:25px;line-height:100%;font-family:sans-serif;text-align:end;letter-spacing:0px;word-spacing:0px;text-anchor:end;fill:#000000;fill-opacity:1;stroke:none;stroke-width:1px;stroke-linecap:butt;stroke-linejoin:miter;stroke-opacity:1"
     id="text1215-4"
     aria-label="S">
    <path
       id="path1274"
       style="font-style:normal;font-variant:normal;font-weight:bold;font-stretch:normal;font-family:Arial;-inkscape-font-specification:'Arial Bold'"
       d="m -17.466728,25.222086 3.515625,-0.341797 q 0.317383,1.77002 1.281738,2.600098 0.976563,0.830078 2.624512,0.830078 1.7456055,0 2.6245117,-0.732422 0.8911133,-0.744629 0.8911133,-1.733398 0,-0.634766 -0.3784179,-1.074219 -0.366211,-0.45166 -1.2939454,-0.78125 -0.6347656,-0.219727 -2.8930667,-0.78125 -2.905273,-0.720215 -4.077148,-1.77002 -1.647949,-1.477051 -1.647949,-3.601074 0,-1.367187 0.769043,-2.551269 0.78125,-1.19629 2.233886,-1.818848 1.464844,-0.622559 3.527832,-0.622559 3.369141,0 5.0659184,1.477051 1.7089843,1.477051 1.7944336,3.942871 l -3.6132813,0.158692 q -0.2319336,-1.379395 -1.0009765,-1.97754 -0.756836,-0.610351 -2.2827152,-0.610351 -1.574707,0 -2.46582,0.646973 -0.57373,0.415039 -0.57373,1.110839 0,0.634766 0.537109,1.086426 0.683594,0.573731 3.3203124,1.196289 2.6367188,0.622559 3.894043,1.293946 1.2695312,0.659179 1.977539,1.818847 0.7202149,1.147461 0.7202149,2.844239 0,1.538085 -0.8544922,2.880859 -0.8544922,1.342773 -2.4169922,2.001953 -1.5625,0.646973 -3.8940429,0.646973 -3.393555,0 -5.212402,-1.5625 -1.818848,-1.574707 -2.172852,-4.577637 z" />
  </g>
  <g
     transform="matrix(0.58776681,0,0,0.44703955,108.79368,28.74196)"
     style="font-style:normal;font-weight:normal;font-size:25px;line-height:100%;font-family:sans-serif;text-align:end;letter-spacing:0px;word-spacing:0px;text-anchor:end;fill:#000000;fill-opacity:1;stroke:none;stroke-width:1px;stroke-linecap:butt;stroke-linejoin:miter;stroke-opacity:1"
     id="text1215-9"
     aria-label="E">
    <path
       id="path1277"
       style="font-style:normal;font-variant:normal;font-weight:bold;font-stretch:normal;font-family:Arial;-inkscape-font-specification:'Arial Bold'"
       d="M -28.572016,56.500683 V 38.605175 h 13.269043 v 3.027344 h -9.655762 v 3.967285 h 8.984375 v 3.015137 h -8.984375 v 4.870605 h 9.997559 v 3.015137 z" />
  </g>
  <g
     transform="matrix(0.3406237,0,0,0.44703958,18.869933,38.304125)"
     style="font-style:normal;font-weight:normal;font-size:25px;line-height:100%;font-family:sans-serif;text-align:end;letter-spacing:0px;word-spacing:0px;text-anchor:end;fill:#000000;fill-opacity:1;stroke:none;stroke-width:1px;stroke-linecap:butt;stroke-linejoin:miter;stroke-opacity:1"
     id="text1215-0"
     aria-label="W">
    <path
       id="path1280"
       style="font-style:normal;font-variant:normal;font-weight:bold;font-stretch:normal;font-family:Arial;-inkscape-font-specification:'Arial Bold'"
       d="M -51.125719,35.110706 -55.39818,17.215199 h 3.69873 l 2.697754,12.29248 3.271485,-12.29248 h 4.296875 l 3.137207,12.5 2.746582,-12.5 h 3.637695 l -4.345703,17.895507 h -3.833008 L -43.655016,21.7318 -47.207262,35.110706 Z" />
  </g>
</svg>
