<?xml version="1.0" encoding="UTF-8" standalone="no"?>
<svg
   xmlns:dc="http://purl.org/dc/elements/1.1/"
   xmlns:cc="http://creativecommons.org/ns#"
   xmlns:rdf="http://www.w3.org/1999/02/22-rdf-syntax-ns#"
   xmlns:svg="http://www.w3.org/2000/svg"
   xmlns="http://www.w3.org/2000/svg"
   xmlns:sodipodi="http://sodipodi.sourceforge.net/DTD/sodipodi-0.dtd"
   xmlns:inkscape="http://www.inkscape.org/namespaces/inkscape"
   version="1.1"
   width="100"
   height="100"
   id="svg4460"
   sodipodi:docname="uEB06-compass-alt.svg"
   inkscape:version="0.92.4 (5da689c313, 2019-01-14)">
  <sodipodi:namedview
     pagecolor="#ffffff"
     bordercolor="#666666"
     borderopacity="1"
     objecttolerance="10"
     gridtolerance="10"
     guidetolerance="10"
     inkscape:pageopacity="0"
     inkscape:pageshadow="2"
     inkscape:window-width="1920"
     inkscape:window-height="1177"
     id="namedview11"
     showgrid="false"
     inkscape:zoom="5.0911688"
     inkscape:cx="59.894242"
     inkscape:cy="15.262346"
     inkscape:window-x="1272"
     inkscape:window-y="-8"
     inkscape:window-maximized="1"
     inkscape:current-layer="svg4460"
     inkscape:document-rotation="0" />
  <defs
     id="defs4462" />
  <metadata
     id="metadata4465">
    <rdf:RDF>
      <cc:Work
         rdf:about="">
        <dc:format>image/svg+xml</dc:format>
        <dc:type
           rdf:resource="http://purl.org/dc/dcmitype/StillImage" />
        <dc:title />
      </cc:Work>
    </rdf:RDF>
  </metadata>
  <g
     style="font-style:normal;font-weight:normal;font-size:27.94px;line-height:100%;font-family:sans-serif;text-align:end;letter-spacing:0px;word-spacing:0px;text-anchor:end;fill:#000080;fill-opacity:1;stroke:none;stroke-width:1.1176px;stroke-linecap:butt;stroke-linejoin:miter;stroke-opacity:1"
     id="text903"
     aria-label="N" />
  <path
     style="color:#000000;font-style:normal;font-variant:normal;font-weight:normal;font-stretch:normal;font-size:medium;line-height:normal;font-family:sans-serif;font-variant-ligatures:normal;font-variant-position:normal;font-variant-caps:normal;font-variant-numeric:normal;font-variant-alternates:normal;font-feature-settings:normal;text-indent:0;text-align:start;text-decoration:none;text-decoration-line:none;text-decoration-style:solid;text-decoration-color:#000000;letter-spacing:normal;word-spacing:normal;text-transform:none;writing-mode:lr-tb;direction:ltr;text-orientation:mixed;dominant-baseline:auto;baseline-shift:baseline;text-anchor:start;white-space:normal;shape-padding:0;clip-rule:nonzero;display:inline;overflow:visible;visibility:visible;isolation:auto;mix-blend-mode:normal;color-interpolation:sRGB;color-interpolation-filters:linearRGB;solid-color:#000000;solid-opacity:1;vector-effect:none;fill:#000080;fill-opacity:1;fill-rule:evenodd;stroke:none;stroke-width:3;stroke-linecap:round;stroke-linejoin:round;stroke-miterlimit:4;stroke-dasharray:none;stroke-dashoffset:0;stroke-opacity:1;color-rendering:auto;image-rendering:auto;shape-rendering:auto;text-rendering:auto;enable-background:accumulate"
     d="M 49.945312 -0.171875 C 49.203272 -0.175875 48.796391 0.3302651 48.681641 0.921875 L 37.763672 37.763672 C 25.443052 41.410652 13.112723 45.040507 0.81445312 48.716797 C 0.17348312 48.908997 -0.173685 49.29145 -0.171875 49.96875 C -0.169875 50.64605 0.4253525 51.050943 0.9765625 51.220703 L 37.726562 62.109375 C 41.386223 74.472175 45.027887 86.845074 48.716797 99.185547 C 48.908997 99.826517 49.29145 100.17365 49.96875 100.17188 C 50.64605 100.16988 51.050933 99.574648 51.220703 99.023438 L 62.146484 62.148438 L 99.060547 51.210938 C 99.795417 50.972096 100.16796 50.687362 100.17188 49.945312 C 100.17588 49.203272 99.669735 48.796391 99.078125 48.681641 L 62.111328 37.726562 L 51.210938 0.93945312 C 50.972088 0.20458323 50.687362 -0.167955 49.945312 -0.171875 z M 50 42.5 A 7.5 7.5 0 0 1 57.5 50 A 7.5 7.5 0 0 1 50 57.5 A 7.5 7.5 0 0 1 42.5 50 A 7.5 7.5 0 0 1 50 42.5 z "
     id="path830" />
  <path
     style="color:#000000;font-style:normal;font-variant:normal;font-weight:normal;font-stretch:normal;font-size:medium;line-height:normal;font-family:sans-serif;font-variant-ligatures:normal;font-variant-position:normal;font-variant-caps:normal;font-variant-numeric:normal;font-variant-alternates:normal;font-feature-settings:normal;text-indent:0;text-align:start;text-decoration:none;text-decoration-line:none;text-decoration-style:solid;text-decoration-color:#000000;letter-spacing:normal;word-spacing:normal;text-transform:none;writing-mode:lr-tb;direction:ltr;text-orientation:mixed;dominant-baseline:auto;baseline-shift:baseline;text-anchor:start;white-space:normal;shape-padding:0;clip-rule:nonzero;display:inline;overflow:visible;visibility:visible;isolation:auto;mix-blend-mode:normal;color-interpolation:sRGB;color-interpolation-filters:linearRGB;solid-color:#000000;solid-opacity:1;vector-effect:none;fill:#000080;fill-opacity:1;fill-rule:evenodd;stroke:none;stroke-width:3;stroke-linecap:round;stroke-linejoin:round;stroke-miterlimit:4;stroke-dasharray:none;stroke-dashoffset:0;stroke-opacity:1;color-rendering:auto;image-rendering:auto;shape-rendering:auto;text-rendering:auto;enable-background:accumulate"
     d="M 84.595703 14.099609 C 84.306634 14.093364 84.02122 14.196639 83.771484 14.365234 L 62.658203 25.824219 C 63.479327 28.752963 64.335 31.659635 65.308594 34.501953 L 74.167969 37.126953 L 85.546875 16.166016 C 85.897614 15.477492 85.959437 15.011856 85.4375 14.484375 C 85.176564 14.22061 84.884772 14.105855 84.595703 14.099609 z M 15.294922 14.107422 C 15.032594 14.134019 14.783744 14.261851 14.544922 14.501953 C 14.067413 14.98229 14.202934 15.689416 14.472656 16.199219 L 25.876953 37.207031 C 28.790399 36.389985 31.688714 35.538792 34.537109 34.570312 L 37.158203 25.726562 C 30.148951 21.916239 23.140355 18.097857 16.126953 14.3125 C 15.832383 14.153836 15.55725 14.080825 15.294922 14.107422 z M 74.171875 62.652344 C 71.192169 63.483902 68.241394 64.3529 65.371094 65.345703 C 64.519228 68.270835 63.641417 71.190683 62.769531 74.111328 L 83.833984 85.546875 C 84.522502 85.89762 84.988145 85.959437 85.515625 85.4375 C 86.043155 84.915627 85.971957 84.270956 85.634766 83.771484 L 74.171875 62.652344 z M 25.78125 62.738281 C 21.952122 69.781776 18.116385 76.823358 14.3125 83.871094 C 13.995171 84.460234 14.021778 84.977406 14.501953 85.455078 C 14.98229 85.932587 15.689409 85.797065 16.199219 85.527344 L 37.207031 74.123047 C 36.378838 71.16668 35.515809 68.226095 34.533203 65.335938 C 31.612627 64.485388 28.697323 63.608923 25.78125 62.738281 z "
     id="path830-9" />
</svg>
