<?xml version="1.0" encoding="UTF-8" standalone="no"?>
<svg
   xmlns:dc="http://purl.org/dc/elements/1.1/"
   xmlns:cc="http://creativecommons.org/ns#"
   xmlns:rdf="http://www.w3.org/1999/02/22-rdf-syntax-ns#"
   xmlns:svg="http://www.w3.org/2000/svg"
   xmlns="http://www.w3.org/2000/svg"
   xmlns:sodipodi="http://sodipodi.sourceforge.net/DTD/sodipodi-0.dtd"
   xmlns:inkscape="http://www.inkscape.org/namespaces/inkscape"
   version="1.1"
   width="100"
   height="100"
   id="svg4460"
   sodipodi:docname="geojson-file.svg"
   inkscape:version="1.0 (4035a4fb49, 2020-05-01)">
  <sodipodi:namedview
     pagecolor="#ffffff"
     bordercolor="#666666"
     borderopacity="1"
     objecttolerance="10"
     gridtolerance="10"
     guidetolerance="10"
     inkscape:pageopacity="0"
     inkscape:pageshadow="2"
     inkscape:window-width="1920"
     inkscape:window-height="1017"
     id="namedview11"
     showgrid="false"
     inkscape:zoom="4"
     inkscape:cx="63.654303"
     inkscape:cy="26.39424"
     inkscape:window-x="-8"
     inkscape:window-y="-8"
     inkscape:window-maximized="1"
     inkscape:current-layer="svg4460"
     inkscape:document-rotation="0" />
  <defs
     id="defs4462" />
  <metadata
     id="metadata4465">
    <rdf:RDF>
      <cc:Work
         rdf:about="">
        <dc:format>image/svg+xml</dc:format>
        <dc:type
           rdf:resource="http://purl.org/dc/dcmitype/StillImage" />
        <dc:title />
      </cc:Work>
    </rdf:RDF>
  </metadata>
  <path
     d="M 13.996094 0 C 12.615439 0.00013804476 11.496232 1.1193453 11.496094 2.5 L 11.496094 70 L 0 70 L 0 92 L 11.496094 92 L 11.496094 97.5 C 11.496232 98.880655 12.615439 99.999862 13.996094 100 L 85.996094 100 C 87.376749 99.999862 88.495956 98.880655 88.496094 97.5 L 88.496094 21.625 C 88.522594 20.512022 88.500094 19.848304 87.763672 19.035156 L 69.460938 0.73242188 C 68.984528 0.25584936 68.335919 -0.00824228 67.662109 0 L 13.996094 0 z M 16.496094 5 L 65.398438 5 L 66.650391 19.568359 C 66.754393 20.780413 67.71568 21.741701 68.927734 21.845703 L 83.496094 23.097656 L 83.496094 95 L 16.496094 95 L 16.496094 92 L 80 92 L 80 70 L 16.496094 70 L 16.496094 5 z M 70.771484 9.1152344 L 79.380859 17.724609 L 71.453125 17.042969 L 70.771484 9.1152344 z M 10.478516 73 C 11.84826 73 12.917888 73.378643 13.685547 74.136719 C 14.458224 74.888202 14.955017 75.930143 15.175781 77.261719 L 12.962891 77.804688 C 12.807352 77.092755 12.513526 76.533701 12.082031 76.125 C 11.655554 75.709706 11.12074 75.501953 10.478516 75.501953 C 9.505143 75.501953 8.7312959 75.907939 8.1542969 76.71875 C 7.5823156 77.529561 7.2949219 78.730918 7.2949219 80.326172 C 7.2949219 82.046673 7.5859527 83.339578 8.1679688 84.203125 C 8.7499851 85.06008 9.5137633 85.488281 10.457031 85.488281 C 10.923647 85.488281 11.388852 85.370124 11.855469 85.132812 C 12.327103 84.88891 12.732195 84.594735 13.068359 84.251953 L 13.068359 82.414062 L 10.517578 82.414062 L 10.517578 79.970703 L 15.318359 79.970703 L 15.318359 85.746094 C 14.851743 86.33937 14.175185 86.863514 13.287109 87.318359 C 12.40405 87.766613 11.507755 87.990234 10.599609 87.990234 C 9.4456118 87.990234 8.4400034 87.673844 7.5820312 87.041016 C 6.7240593 86.401596 6.0779794 85.492461 5.6464844 84.3125 C 5.2149894 83.125948 5 81.836216 5 80.445312 C 5 78.935755 5.2409877 77.595244 5.7226562 76.421875 C 6.2043248 75.248506 6.9096749 74.348892 7.8378906 73.722656 C 8.5453412 73.241443 9.4248647 73 10.478516 73 z M 47.808594 73 C 49.193391 73 50.234225 73.399638 50.931641 74.197266 C 51.634074 74.994892 52.001988 76.05905 52.037109 77.390625 L 49.810547 77.519531 C 49.715217 76.77464 49.509455 76.239022 49.193359 75.916016 C 48.882282 75.586418 48.412329 75.421875 47.785156 75.421875 C 47.137914 75.421875 46.631894 75.597892 46.265625 75.947266 C 46.029808 76.171392 45.912109 76.469962 45.912109 76.845703 C 45.912109 77.188485 46.021422 77.48266 46.242188 77.726562 C 46.523162 78.036385 47.205309 78.359123 48.289062 78.695312 C 49.372817 79.031503 50.174616 79.381583 50.691406 79.744141 C 51.213214 80.100106 51.619148 80.590561 51.910156 81.216797 C 52.206182 81.836441 52.353516 82.605202 52.353516 83.521484 C 52.353516 84.352071 52.179342 85.1284 51.828125 85.853516 C 51.476908 86.578631 50.980115 87.120597 50.337891 87.476562 C 49.695665 87.825936 48.893866 88 47.935547 88 C 46.540715 88 45.470246 87.578145 44.722656 86.734375 C 43.975066 85.884012 43.528316 84.648966 43.382812 83.027344 L 45.550781 82.75 C 45.681233 83.705834 45.94347 84.407215 46.339844 84.855469 C 46.741234 85.303721 47.281638 85.527344 47.958984 85.527344 C 48.67647 85.527344 49.21492 85.331064 49.576172 84.935547 C 49.942441 84.533438 50.126953 84.065199 50.126953 83.53125 C 50.126953 83.188468 50.048117 82.897466 49.892578 82.660156 C 49.742057 82.416254 49.477024 82.205326 49.095703 82.027344 C 48.8348 81.908688 48.240716 81.697761 47.3125 81.394531 C 46.118363 81.005606 45.280497 80.527845 44.798828 79.960938 C 44.121482 79.163311 43.78125 78.191923 43.78125 77.044922 C 43.78125 76.306623 43.939765 75.617936 44.255859 74.978516 C 44.576972 74.332504 45.035744 73.840096 45.632812 73.503906 C 46.234899 73.167716 46.960656 73 47.808594 73 z M 59.126953 73 C 60.752584 73 62.052019 73.663297 63.025391 74.988281 C 64.00378 76.313265 64.494141 78.155704 64.494141 80.515625 C 64.494141 82.85577 64.00937 84.686735 63.041016 86.011719 C 62.072661 87.33011 60.778817 87.990234 59.158203 87.990234 C 57.517519 87.990234 56.212495 87.333284 55.244141 86.021484 C 54.275786 84.703093 53.791016 82.89117 53.791016 80.583984 C 53.791016 79.107386 53.958757 77.867212 54.294922 76.865234 C 54.545791 76.126935 54.886865 75.465591 55.318359 74.878906 C 55.754871 74.292223 56.233209 73.857673 56.75 73.574219 C 57.437381 73.191885 58.228842 73 59.126953 73 z M 39.349609 73.248047 L 41.568359 73.248047 L 41.568359 82.423828 C 41.568359 83.623565 41.488682 84.545395 41.328125 85.191406 C 41.112378 86.035177 40.721261 86.714343 40.154297 87.228516 C 39.587333 87.736097 38.840325 87.990234 37.912109 87.990234 C 36.823337 87.990234 35.985472 87.590596 35.398438 86.792969 C 34.811404 85.98875 34.514783 84.812782 34.509766 83.263672 L 36.609375 82.947266 C 36.634462 83.777852 36.728115 84.36425 36.888672 84.707031 C 37.129506 85.227797 37.494625 85.488281 37.986328 85.488281 C 38.483049 85.488281 38.835302 85.304697 39.041016 84.935547 C 39.246728 84.559805 39.349609 83.784696 39.349609 82.611328 L 39.349609 73.248047 z M 66.248047 73.248047 L 68.414062 73.248047 L 72.929688 82.927734 L 72.929688 73.248047 L 75 73.248047 L 75 87.742188 L 72.765625 87.742188 L 68.316406 78.291016 L 68.316406 87.742188 L 66.248047 87.742188 L 66.248047 73.248047 z M 59.150391 75.501953 C 58.23221 75.501953 57.491635 75.91746 56.929688 76.748047 C 56.36774 77.572042 56.087891 78.81661 56.087891 80.484375 C 56.087891 82.125772 56.376126 83.372294 56.953125 84.222656 C 57.530124 85.066427 58.262314 85.488281 59.150391 85.488281 C 60.038467 85.488281 60.765067 85.069601 61.332031 84.232422 C 61.904013 83.388651 62.191406 82.126262 62.191406 80.445312 C 62.191406 78.784139 61.912398 77.545918 61.355469 76.728516 C 60.803557 75.911112 60.068571 75.501953 59.150391 75.501953 z M 20.398438 77.003906 C 21.587557 77.003906 22.525509 77.521703 23.212891 78.556641 C 23.900272 79.584986 24.229323 81.163766 24.199219 83.292969 L 18.900391 83.292969 C 18.915444 84.116963 19.085981 84.759266 19.412109 85.220703 C 19.738239 85.675548 20.144173 85.904297 20.630859 85.904297 C 20.962007 85.904297 21.241014 85.784186 21.466797 85.546875 C 21.692579 85.309564 21.863116 84.927747 21.978516 84.400391 L 24.085938 84.865234 C 23.814998 85.880396 23.385862 86.655505 22.798828 87.189453 C 22.216811 87.71681 21.487416 87.980469 20.609375 87.980469 C 19.21956 87.980469 18.19075 87.384551 17.523438 86.191406 C 16.996613 85.235573 16.732422 84.029088 16.732422 82.572266 C 16.732422 80.831988 17.079086 79.470483 17.771484 78.488281 C 18.463883 77.499487 19.33977 77.003906 20.398438 77.003906 z M 29.556641 77.003906 C 30.76583 77.003906 31.758573 77.521703 32.53125 78.556641 C 33.303927 79.584986 33.689453 80.887413 33.689453 82.462891 C 33.689453 84.051553 33.298337 85.369847 32.515625 86.417969 C 31.737932 87.459498 30.756368 87.980469 29.572266 87.980469 C 28.839728 87.980469 28.139968 87.763194 27.472656 87.328125 C 26.810362 86.893056 26.307137 86.257101 25.960938 85.419922 C 25.614739 84.576151 25.441406 83.550078 25.441406 82.34375 C 25.441406 81.420876 25.614739 80.527609 25.960938 79.664062 C 26.307137 78.800517 26.795544 78.142345 27.427734 77.6875 C 28.064942 77.232655 28.773929 77.003906 29.556641 77.003906 z M 20.525391 79.130859 C 20.063792 79.130859 19.683856 79.351308 19.382812 79.792969 C 19.08177 80.23463 18.932483 80.833722 18.9375 81.591797 L 22.099609 81.591797 C 22.084556 80.787578 21.926041 80.178965 21.625 79.763672 C 21.323957 79.341787 20.956885 79.130859 20.525391 79.130859 z M 29.564453 79.269531 C 29.012541 79.269531 28.548178 79.545885 28.171875 80.099609 C 27.795571 80.653333 27.607422 81.450658 27.607422 82.492188 C 27.607422 83.533716 27.795571 84.331041 28.171875 84.884766 C 28.548178 85.43849 29.012541 85.716797 29.564453 85.716797 C 30.116365 85.716797 30.577932 85.43849 30.949219 84.884766 C 31.325522 84.331041 31.513672 83.527369 31.513672 82.472656 C 31.513672 81.44431 31.325522 80.653333 30.949219 80.099609 C 30.577932 79.545885 30.116365 79.269531 29.564453 79.269531 z "
     style="color:#000000;font-style:normal;font-variant:normal;font-weight:normal;font-stretch:normal;font-size:medium;line-height:normal;font-family:sans-serif;font-variant-ligatures:normal;font-variant-position:normal;font-variant-caps:normal;font-variant-numeric:normal;font-variant-alternates:normal;font-variant-east-asian:normal;font-feature-settings:normal;font-variation-settings:normal;text-indent:0;text-align:start;text-decoration:none;text-decoration-line:none;text-decoration-style:solid;text-decoration-color:#000000;letter-spacing:normal;word-spacing:normal;text-transform:none;writing-mode:lr-tb;direction:ltr;text-orientation:mixed;dominant-baseline:auto;baseline-shift:baseline;text-anchor:start;white-space:normal;shape-padding:0;shape-margin:0;inline-size:0;clip-rule:nonzero;display:inline;overflow:visible;visibility:visible;opacity:1;isolation:auto;mix-blend-mode:normal;color-interpolation:sRGB;color-interpolation-filters:linearRGB;solid-color:#000000;solid-opacity:1;vector-effect:none;fill:#000080;fill-opacity:1;fill-rule:nonzero;stroke:none;stroke-width:5;stroke-linecap:round;stroke-linejoin:round;stroke-miterlimit:4;stroke-dasharray:none;stroke-dashoffset:20;stroke-opacity:1;color-rendering:auto;image-rendering:auto;shape-rendering:auto;text-rendering:auto;enable-background:accumulate;stop-color:#000000;stop-opacity:1"
     id="path841" />
  <path
     d="m 51.25201,18 v 10.11 h 8.852106 C 59.609486,26.696 59.037367,25.391 58.397274,24.229 56.411513,20.623 53.890036,18.449 51.25201,18 Z m -2.504022,0.1 c -2.468714,0.613 -4.812548,2.735 -6.681628,6.13 -0.640094,1.162 -1.212212,2.467 -1.706843,3.881 h 8.388471 z m -5.76903,0.678 c -5.005568,1.636 -9.23247,4.973 -12.004628,9.333 h 6.73836 c 0.59445,-1.851 1.318515,-3.562 2.159716,-5.089 0.897522,-1.63 1.94268,-3.067 3.106552,-4.244 z m 14.728732,0.231 c 1.074155,1.134 2.043867,2.488 2.883537,4.013 0.841018,1.527 1.563562,3.238 2.156784,5.089 h 6.27766 C 66.380851,23.951 62.413957,20.718 57.70769,19.009 Z M 29.595162,30.615 c -1.197757,2.551 -1.9332,5.362 -2.095162,8.329 h 8.408032 c 0.09731,-2.941 0.479491,-5.744 1.103333,-8.329 z m 10.003367,0 c -0.661224,2.542 -1.077406,5.357 -1.183539,8.329 h 10.332998 v -8.329 z m 11.653481,0 v 8.329 h 10.796636 c -0.106132,-2.972 -0.522321,-5.787 -1.183542,-8.329 z m 12.197322,0 c 0.62215,2.586 1.003374,5.388 1.1004,8.329 H 72.5 C 72.338038,35.977 71.602594,33.166 70.404839,30.615 Z M 27.5,41.447 c 0.161962,2.967 0.897405,5.778 2.095162,8.329 h 7.297853 C 36.305217,47.183 35.958837,44.38 35.894338,41.447 Z m 10.898363,0 c 0.07035,2.962 0.451395,5.774 1.074965,8.329 h 9.27466 v -8.329 z m 12.853647,0 v 8.329 h 9.738295 c 0.623567,-2.555 1.004638,-5.367 1.074969,-8.329 z m 13.30946,0 c -0.06448,2.932 -0.408374,5.736 -0.994761,8.329 h 6.83813 C 71.602594,47.225 72.338038,44.414 72.5,41.447 Z M 30.97433,52.28 c 2.646833,4.162 6.617775,7.397 11.328737,9.105 -0.894434,-1.026 -1.710698,-2.207 -2.430661,-3.514 -0.916929,-1.666 -1.697371,-3.546 -2.319151,-5.591 z m 9.212057,0 c 0.531489,1.61 1.164592,3.084 1.879973,4.383 1.752589,3.182 3.922987,5.246 6.221905,5.997 0.153328,0.01 0.305548,0.03 0.459723,0.03 V 52.275 Z m 11.065623,0 v 10.415 c 0.35725,-0.02 0.712595,-0.04 1.065187,-0.08 2.246341,-0.789 4.363506,-2.834 6.080077,-5.951 0.71538,-1.299 1.348482,-2.773 1.879972,-4.383 z m 11.656415,0 c -0.620622,2.045 -1.400321,3.926 -2.317198,5.591 -0.657021,1.193 -1.393657,2.282 -2.196887,3.243 4.4049,-1.766 8.116518,-4.879 10.631331,-8.834 z"
     style="color:#000000;font-style:normal;font-variant:normal;font-weight:normal;font-stretch:normal;font-size:medium;line-height:normal;font-family:sans-serif;font-variant-ligatures:normal;font-variant-position:normal;font-variant-caps:normal;font-variant-numeric:normal;font-variant-alternates:normal;font-variant-east-asian:normal;font-feature-settings:normal;font-variation-settings:normal;text-indent:0;text-align:start;text-decoration:none;text-decoration-line:none;text-decoration-style:solid;text-decoration-color:#000000;letter-spacing:normal;word-spacing:normal;text-transform:none;writing-mode:lr-tb;direction:ltr;text-orientation:mixed;dominant-baseline:auto;baseline-shift:baseline;text-anchor:start;white-space:normal;shape-padding:0;shape-margin:0;inline-size:0;clip-rule:nonzero;display:inline;overflow:visible;visibility:visible;opacity:1;isolation:auto;mix-blend-mode:normal;color-interpolation:sRGB;color-interpolation-filters:linearRGB;solid-color:#000000;solid-opacity:1;vector-effect:none;fill:#000080;fill-opacity:1;fill-rule:nonzero;stroke:none;stroke-width:2.50402;stroke-linecap:round;stroke-linejoin:round;stroke-miterlimit:4;stroke-dasharray:none;stroke-dashoffset:188.976;stroke-opacity:1;color-rendering:auto;image-rendering:auto;shape-rendering:auto;text-rendering:auto;enable-background:accumulate;stop-color:#000000;stop-opacity:1"
     id="path862" />
</svg>
