<?xml version="1.0" encoding="UTF-8" standalone="no"?>
<svg
   xmlns:dc="http://purl.org/dc/elements/1.1/"
   xmlns:cc="http://creativecommons.org/ns#"
   xmlns:rdf="http://www.w3.org/1999/02/22-rdf-syntax-ns#"
   xmlns:svg="http://www.w3.org/2000/svg"
   xmlns="http://www.w3.org/2000/svg"
   xmlns:sodipodi="http://sodipodi.sourceforge.net/DTD/sodipodi-0.dtd"
   xmlns:inkscape="http://www.inkscape.org/namespaces/inkscape"
   inkscape:version="1.0 (4035a4fb49, 2020-05-01)"
   sodipodi:docname="uEA9F-WMTS.svg"
   id="svg4460"
   height="100"
   width="100"
   version="1.1">
  <sodipodi:namedview
     inkscape:document-rotation="0"
     inkscape:current-layer="svg4460"
     inkscape:window-maximized="1"
     inkscape:window-y="-8"
     inkscape:window-x="-8"
     inkscape:cy="11.274349"
     inkscape:cx="116.62196"
     inkscape:zoom="3.605"
     showgrid="false"
     id="namedview11"
     inkscape:window-height="1017"
     inkscape:window-width="1920"
     inkscape:pageshadow="2"
     inkscape:pageopacity="0"
     guidetolerance="10"
     gridtolerance="10"
     objecttolerance="10"
     borderopacity="1"
     bordercolor="#666666"
     pagecolor="#ffffff" />
  <defs
     id="defs4462" />
  <metadata
     id="metadata4465">
    <rdf:RDF>
      <cc:Work
         rdf:about="">
        <dc:format>image/svg+xml</dc:format>
        <dc:type
           rdf:resource="http://purl.org/dc/dcmitype/StillImage" />
        <dc:title />
      </cc:Work>
    </rdf:RDF>
  </metadata>
  <path
     d="M 49.953125 5 A 45 45 0 0 0 7.7578125 34.498047 L 2.5 34.498047 A 3.0020802 3.0020802 0 0 0 -0.50195312 37.5 L -0.50195312 62.5 A 3.0020802 3.0020802 0 0 0 2.5 65.501953 L 7.7558594 65.501953 A 45 45 0 0 0 50 95 A 45 45 0 0 0 92.242188 65.501953 L 97.5 65.501953 A 3.0020802 3.0020802 0 0 0 100.50195 62.5 L 100.50195 37.5 A 3.0020802 3.0020802 0 0 0 97.5 34.498047 L 92.244141 34.498047 A 45 45 0 0 0 50 5 A 45 45 0 0 0 49.953125 5 z M 52.25 10.113281 C 56.99082 10.919864 61.521215 14.825827 65.089844 21.306641 C 66.240162 23.395677 67.269298 25.740003 68.158203 28.28125 L 52.25 28.28125 L 52.25 10.113281 z M 47.75 10.291016 L 47.75 28.28125 L 32.675781 28.28125 C 33.564686 25.740003 34.591869 23.395677 35.742188 21.306641 C 39.101129 15.206628 43.31345 11.392162 47.75 10.291016 z M 37.382812 11.509766 C 35.291207 13.626435 33.411772 16.207528 31.798828 19.136719 C 30.287091 21.88211 28.986258 24.955506 27.917969 28.28125 L 15.808594 28.28125 C 20.790471 20.446054 28.387263 14.450248 37.382812 11.509766 z M 63.851562 11.925781 C 72.309241 14.996952 79.438377 20.805971 84.191406 28.28125 L 72.910156 28.28125 C 71.844072 24.955365 70.544603 21.881504 69.033203 19.136719 C 67.524224 16.396338 65.781937 13.962562 63.851562 11.925781 z M 13.330078 32.78125 L 26.658203 32.78125 C 26.522788 33.342396 26.411541 33.92411 26.291016 34.498047 L 12.580078 34.498047 C 12.818287 33.919155 13.065064 33.3456 13.330078 32.78125 z M 31.306641 32.78125 L 47.75 32.78125 L 47.75 34.498047 L 30.908203 34.498047 C 31.039484 33.924061 31.161231 33.34037 31.306641 32.78125 z M 52.25 32.78125 L 69.525391 32.78125 C 69.6708 33.34037 69.792548 33.924061 69.923828 34.498047 L 52.25 34.498047 L 52.25 32.78125 z M 74.169922 32.78125 L 86.669922 32.78125 C 86.934936 33.3456 87.181713 33.919155 87.419922 34.498047 L 74.535156 34.498047 C 74.415036 33.924081 74.304972 33.342498 74.169922 32.78125 z M 65.330078 42.5 C 67.700468 42.5 69.481991 42.897664 70.675781 43.695312 C 71.878161 44.49296 72.510212 45.559014 72.570312 46.890625 L 68.757812 47.017578 C 68.594642 46.272667 68.240289 45.740983 67.699219 45.417969 C 67.166739 45.088363 66.366519 44.921875 65.292969 44.921875 C 64.185069 44.921875 63.316413 45.09593 62.689453 45.445312 C 62.285803 45.669446 62.082031 45.969952 62.082031 46.345703 C 62.082031 46.688494 62.272511 46.982653 62.650391 47.226562 C 63.131361 47.536392 64.299197 47.859114 66.154297 48.195312 C 68.009387 48.531512 69.379062 48.879621 70.263672 49.242188 C 71.156862 49.598163 71.853443 50.090544 72.351562 50.716797 C 72.858272 51.336456 73.111328 52.105177 73.111328 53.021484 C 73.111328 53.852092 72.810174 54.630335 72.208984 55.355469 C 71.607794 56.080604 70.757523 56.620588 69.658203 56.976562 C 68.558883 57.325947 67.191161 57.5 65.550781 57.5 C 63.163201 57.5 61.328508 57.078167 60.048828 56.234375 C 58.769158 55.38399 58.002976 54.147056 57.753906 52.525391 L 61.464844 52.248047 C 61.688134 53.203906 62.139879 53.907204 62.818359 54.355469 C 63.505439 54.803734 64.428441 55.029297 65.587891 55.029297 C 66.816021 55.029297 67.739062 54.831075 68.357422 54.435547 C 68.984372 54.033426 69.296875 53.565213 69.296875 53.03125 C 69.296875 52.688459 69.164676 52.397472 68.898438 52.160156 C 68.640788 51.916246 68.185913 51.705331 67.533203 51.527344 C 67.086603 51.408686 66.069319 51.197769 64.480469 50.894531 C 62.436429 50.505595 61.000281 50.027861 60.175781 49.460938 C 59.016351 48.66329 58.439453 47.690001 58.439453 46.542969 C 58.439453 45.804651 58.706977 45.117953 59.248047 44.478516 C 59.797697 43.832487 60.585402 43.340105 61.607422 43.003906 C 62.638042 42.667708 63.878628 42.5 65.330078 42.5 z M 10 42.746094 L 13.902344 42.746094 L 16.75 52.705078 L 20.203125 42.746094 L 24.738281 42.746094 L 28.048828 52.873047 L 30.945312 42.746094 L 34.787109 42.746094 L 30.199219 57.244141 L 26.154297 57.244141 L 22.392578 46.40625 L 18.642578 57.244141 L 14.507812 57.244141 L 10 42.746094 z M 36.666016 42.746094 L 42.373047 42.746094 L 45.798828 52.634766 L 49.1875 42.746094 L 54.908203 42.746094 L 54.908203 57.244141 L 51.365234 57.244141 L 51.365234 45.832031 L 47.617188 57.244141 L 43.943359 57.244141 L 40.208984 45.832031 L 40.208984 57.244141 L 36.666016 57.244141 L 36.666016 42.746094 z M 74.992188 42.746094 L 90 42.746094 L 90 45.199219 L 84.410156 45.199219 L 84.410156 57.244141 L 80.597656 57.244141 L 80.597656 45.199219 L 74.992188 45.199219 L 74.992188 42.746094 z M 12.580078 65.501953 L 26.103516 65.501953 C 26.215939 66.074902 26.318143 66.655834 26.445312 67.216797 L 13.330078 67.216797 C 13.06532 66.652992 12.818082 66.080047 12.580078 65.501953 z M 30.708984 65.501953 L 47.75 65.501953 L 47.75 67.216797 L 31.082031 67.216797 C 30.945425 66.657193 30.831709 66.075256 30.708984 65.501953 z M 52.25 65.501953 L 70.123047 65.501953 C 70.000115 66.075174 69.886591 66.657254 69.75 67.216797 L 52.25 67.216797 L 52.25 65.501953 z M 74.722656 65.501953 L 87.419922 65.501953 C 87.181918 66.080047 86.93468 66.652992 86.669922 67.216797 L 74.380859 67.216797 C 74.507739 66.655709 74.610579 66.074978 74.722656 65.501953 z M 15.808594 71.716797 L 27.632812 71.716797 C 28.75022 75.392109 30.151012 78.773109 31.798828 81.765625 C 33.092679 84.115327 34.560572 86.238127 36.167969 88.082031 C 27.701853 85.012686 20.565238 79.197761 15.808594 71.716797 z M 32.363281 71.716797 L 47.75 71.716797 L 47.75 90.435547 C 47.47293 90.420427 47.199375 90.391744 46.923828 90.371094 C 42.792421 89.021738 38.891781 85.313581 35.742188 79.59375 C 34.456573 77.259007 33.318425 74.609992 32.363281 71.716797 z M 52.25 71.716797 L 68.46875 71.716797 C 67.513607 74.609993 66.37546 77.259007 65.089844 79.59375 C 62.004979 85.196027 58.200983 88.87214 54.164062 90.289062 C 53.530417 90.353572 52.892018 90.400502 52.25 90.435547 L 52.25 71.716797 z M 73.197266 71.716797 L 84.191406 71.716797 C 79.672015 78.824626 73.002024 84.420394 65.085938 87.59375 C 66.52943 85.865666 67.852464 83.909906 69.033203 81.765625 C 70.680931 78.773263 72.081942 75.392941 73.197266 71.716797 z "
     style="color:#000000;overflow:visible;fill:#000080;stroke-width:8.653;stroke-linecap:round;stroke-linejoin:round;stroke-dashoffset:20"
     id="rect910" />
</svg>
