<?xml version="1.0" encoding="UTF-8" standalone="no"?>
<svg
   xmlns:dc="http://purl.org/dc/elements/1.1/"
   xmlns:cc="http://creativecommons.org/ns#"
   xmlns:rdf="http://www.w3.org/1999/02/22-rdf-syntax-ns#"
   xmlns:svg="http://www.w3.org/2000/svg"
   xmlns="http://www.w3.org/2000/svg"
   xmlns:sodipodi="http://sodipodi.sourceforge.net/DTD/sodipodi-0.dtd"
   xmlns:inkscape="http://www.inkscape.org/namespaces/inkscape"
   inkscape:version="1.0 (4035a4fb49, 2020-05-01)"
   sodipodi:docname="uEAA3-esri-json.svg"
   id="svg4460"
   height="100"
   width="100"
   version="1.1">
  <sodipodi:namedview
     showguides="false"
     inkscape:document-rotation="0"
     inkscape:current-layer="svg4460"
     inkscape:window-maximized="1"
     inkscape:window-y="-8"
     inkscape:window-x="-8"
     inkscape:cy="39.389705"
     inkscape:cx="109.01045"
     inkscape:zoom="5.0982399"
     showgrid="false"
     id="namedview11"
     inkscape:window-height="1017"
     inkscape:window-width="1920"
     inkscape:pageshadow="2"
     inkscape:pageopacity="0"
     guidetolerance="10"
     gridtolerance="10"
     objecttolerance="10"
     borderopacity="1"
     bordercolor="#666666"
     pagecolor="#ffffff" />
  <defs
     id="defs4462" />
  <metadata
     id="metadata4465">
    <rdf:RDF>
      <cc:Work
         rdf:about="">
        <dc:format>image/svg+xml</dc:format>
        <dc:type
           rdf:resource="http://purl.org/dc/dcmitype/StillImage" />
        <dc:title></dc:title>
      </cc:Work>
    </rdf:RDF>
  </metadata>
  <path
     d="M 49.869141 18.951172 C 47.808647 18.958572 47.002059 19.023092 45.792969 19.279297 C 39.310594 20.6529 34.376081 23.948315 30.830078 29.28125 C 28.124111 33.350831 27 37.293559 27 42.658203 C 27 47.453871 28.091135 51.139626 30.628906 54.888672 C 34.807599 61.06186 40.11352 64.159044 47.853516 64.957031 C 49.681609 65.145507 53.30604 65.048441 54.910156 64.757812 C 57.525499 64.283986 60.716782 62.999439 62.859375 61.554688 C 66.969829 58.783009 70.580594 53.48775 72.105469 48.0625 C 73.323411 43.729257 73.299958 39.093504 72.025391 35.126953 C 69.753971 28.058074 63.81595 22.942786 56.097656 21.371094 C 54.152816 20.975055 50.551476 20.831847 48.667969 21.082031 C 47.984412 21.172831 47.141775 21.28267 46.804688 21.324219 C 46.380407 21.376489 46.014286 21.482171 45.724609 21.708984 C 45.423479 21.944766 45.259766 22.308956 45.259766 22.6875 C 45.259766 22.982337 45.345476 23.335853 45.646484 23.666016 C 45.932459 23.979686 46.386185 24.348252 47.242188 25.046875 C 47.964179 25.636126 48.703592 26.294672 49.015625 26.597656 L 48.90625 26.615234 C 47.204096 26.881285 45.04549 27.429309 43.044922 28.101562 C 42.554327 28.266416 42.104576 28.413529 41.779297 28.513672 C 41.762937 28.518672 41.755434 28.520771 41.740234 28.525391 C 41.738634 28.515791 41.737928 28.511993 41.736328 28.501953 C 41.686578 28.19481 41.629408 27.769002 41.574219 27.298828 C 41.46377 26.357896 41.359349 25.227553 41.324219 24.457031 L 41.253906 22.912109 L 41.630859 22.734375 C 43.934284 21.644819 48.690234 20.576177 51.296875 20.564453 C 51.890689 20.561853 52.303318 20.537353 52.634766 20.421875 C 52.795141 20.366005 53.051195 20.23627 53.132812 19.949219 C 53.217883 19.650016 53.051682 19.399775 52.919922 19.267578 C 52.767864 19.115472 52.581105 19.07493 52.451172 19.048828 C 52.301592 19.018778 52.126053 18.998375 51.902344 18.984375 C 51.455533 18.956395 50.811707 18.947652 49.869141 18.951172 z M 48.804688 22.78125 L 49.154297 22.78125 C 54.464657 22.76938 59.977936 24.727775 63.447266 27.578125 L 62.259766 27.144531 C 61.940129 27.042825 61.924227 27.105291 61.259766 26.580078 C 60.804839 26.220528 60.422012 25.954665 60.089844 25.779297 C 59.929863 25.694837 59.77439 25.617193 59.603516 25.574219 C 59.432641 25.531249 59.239575 25.530592 59.054688 25.601562 L 59.054688 25.599609 C 58.944251 25.641989 58.794525 25.716853 58.683594 25.865234 C 58.552836 26.040142 58.53071 26.238666 58.572266 26.421875 C 58.592646 26.511705 58.666836 26.567374 58.707031 26.642578 C 57.629068 26.457703 56.465066 26.316679 54.546875 26.25 L 52.25 26.169922 L 50.765625 24.609375 L 48.804688 22.78125 z M 39.332031 24.068359 C 39.343871 24.243396 39.357157 24.390048 39.367188 24.591797 C 39.386338 24.977515 39.410627 25.351484 39.435547 25.646484 C 39.447877 25.79252 39.460016 25.919558 39.472656 26.025391 C 39.483796 26.118671 39.489037 26.199491 39.523438 26.306641 C 39.523527 26.306919 39.536984 26.364251 39.552734 26.462891 C 39.569414 26.567374 39.588785 26.707712 39.609375 26.867188 C 39.650695 27.187269 39.697395 27.590952 39.738281 27.986328 C 39.779191 28.381986 39.814458 28.771989 39.835938 29.058594 C 39.841538 29.133884 39.842503 29.177606 39.845703 29.236328 C 39.773963 29.274318 39.708974 29.308468 39.609375 29.361328 C 39.313168 29.518523 38.9106 29.729285 38.474609 29.955078 C 36.567187 30.942887 34.585724 32.151338 33.353516 33.083984 C 33.185569 33.211105 33.038497 33.318978 32.892578 33.427734 C 32.849508 33.092182 32.808118 32.679868 32.763672 31.912109 L 32.683594 30.525391 L 33.267578 29.757812 C 34.917594 27.621672 37.007987 25.533668 39.332031 24.068359 z M 54.818359 28.560547 C 55.276162 28.564847 55.829119 28.582125 56.396484 28.609375 C 57.531573 28.663875 58.755478 28.759135 59.496094 28.861328 L 60.599609 29.011719 L 61.087891 29.556641 C 62.347239 30.957343 64.087492 33.783937 64.953125 35.863281 C 64.970565 35.905181 64.980054 35.932981 64.996094 35.972656 C 64.844217 35.923366 64.746664 35.876386 64.53125 35.822266 C 63.964314 35.67982 63.259461 35.525428 62.503906 35.376953 C 60.992642 35.079973 59.287244 34.806428 58.115234 34.701172 L 57.359375 34.632812 L 56.494141 32.863281 C 55.93809 31.726328 55.064697 30.169125 54.507812 29.332031 L 54.007812 28.580078 C 54.205157 28.567868 54.447284 28.557037 54.818359 28.560547 z M 50.96875 28.800781 L 51.355469 29.287109 C 52.248372 30.407972 53.272224 32.050739 54.091797 33.689453 C 54.300349 34.106446 54.453995 34.425371 54.550781 34.652344 C 54.572731 34.703824 54.582136 34.733414 54.597656 34.775391 C 54.586846 34.775676 54.591258 34.777244 54.580078 34.777344 C 53.641819 34.782644 52.141711 35.042901 50.498047 35.421875 C 48.853969 35.800943 47.090226 36.301587 45.716797 36.8125 C 45.244271 36.988278 44.78092 37.160191 44.423828 37.291016 C 44.185882 37.378186 44.106107 37.405153 43.994141 37.445312 C 43.726373 36.707237 42.605168 32.801849 42.380859 31.775391 L 42.210938 30.992188 L 42.421875 30.902344 C 44.244929 30.120884 48.020706 29.137599 50.154297 28.894531 L 50.15625 28.894531 L 50.96875 28.800781 z M 64.142578 30.064453 L 65.369141 30.503906 C 66.655105 31.050166 66.559935 30.972898 67.269531 31.886719 C 68.403099 33.34653 69.183833 35.605779 69.732422 38.115234 C 69.663332 38.058634 69.607412 38.0011 69.525391 37.943359 C 69.198989 37.713582 68.755509 37.45896 68.208984 37.181641 C 68.056346 37.104191 67.896169 36.999783 67.78125 36.910156 C 67.73292 36.872466 67.68663 36.825786 67.654297 36.791016 C 67.643997 36.779936 67.637176 36.770849 67.628906 36.761719 C 67.555666 36.591821 67.20601 35.766765 66.830078 34.876953 C 66.037444 33.000828 65.33752 31.755265 64.142578 30.064453 z M 40.289062 31.833984 C 40.295763 31.925574 40.306032 32.01093 40.326172 32.125 C 40.352332 32.273178 40.388792 32.459072 40.433594 32.675781 C 40.523004 33.108301 40.643551 33.662811 40.779297 34.251953 C 41.050714 35.429926 41.375479 36.743853 41.595703 37.519531 L 41.828125 38.335938 L 40.707031 38.933594 C 39.139116 39.769801 37.229388 40.947467 35.929688 41.8125 L 35.929688 41.726562 L 35.140625 42.289062 C 34.97819 42.40451 34.846596 42.493277 34.712891 42.583984 C 34.710791 42.578084 34.709231 42.576483 34.707031 42.570312 C 34.588722 42.234808 34.4376 41.746516 34.279297 41.179688 C 33.9627 40.04605 33.612741 38.601606 33.380859 37.404297 C 33.304609 37.010598 33.244419 36.72749 33.226562 36.554688 C 33.208042 36.375444 33.215147 36.353209 33.248047 36.289062 C 33.268127 36.249893 33.374193 36.128263 33.589844 35.951172 C 33.805495 35.774081 34.12434 35.534816 34.568359 35.205078 C 35.991078 34.148543 37.772975 33.055634 39.466797 32.205078 C 39.793684 32.041046 40.052551 31.927077 40.236328 31.853516 C 40.258688 31.844616 40.268953 31.841694 40.289062 31.833984 z M 30.539062 34.685547 L 30.578125 35.277344 L 30.208984 35.765625 C 30.324986 35.379849 30.430264 34.981232 30.539062 34.685547 z M 67.648438 36.810547 C 67.650738 36.815947 67.660286 36.840304 67.660156 36.839844 C 67.660091 36.839612 67.667969 36.881019 67.667969 36.880859 C 67.667951 36.880695 67.660156 36.976663 67.660156 36.976562 C 67.66017 36.976514 67.617167 37.060587 67.617188 37.060547 C 67.617193 37.060539 67.603462 37.071984 67.595703 37.078125 C 67.497416 36.990624 67.411197 36.890035 67.419922 36.910156 L 67.648438 36.810547 z M 55.609375 37.193359 C 55.649295 37.289879 55.693445 37.394949 55.748047 37.537109 C 55.8853 37.894435 56.060425 38.376873 56.25 38.912109 C 56.629252 39.982872 57.064114 41.268444 57.353516 42.207031 L 57.910156 44.015625 L 56.740234 44.076172 C 53.5808 44.244298 50.49884 44.880726 48.025391 45.888672 C 47.756334 45.998314 47.493139 46.099794 47.294922 46.169922 C 47.279922 46.175222 47.271953 46.176721 47.257812 46.181641 C 47.239263 46.148581 47.228311 46.132177 47.207031 46.091797 C 47.074786 45.840842 46.905051 45.478199 46.736328 45.080078 C 46.432932 44.36418 45.921865 43.032011 45.492188 41.861328 C 45.277357 41.276004 45.081767 40.728817 44.941406 40.318359 C 44.882846 40.147115 44.840916 40.01534 44.804688 39.900391 C 44.901157 39.845911 45.008149 39.786915 45.175781 39.710938 C 45.606904 39.515533 46.231577 39.272458 46.933594 39.027344 C 48.337761 38.537067 50.0686 38.028912 51.291016 37.785156 C 52.000655 37.643652 53.166131 37.469386 54.148438 37.345703 C 54.639798 37.283843 55.087307 37.234413 55.408203 37.207031 C 55.495303 37.199631 55.543466 37.197129 55.609375 37.193359 z M 58.332031 37.199219 C 59.921396 37.229049 62.801996 37.704777 64.886719 38.339844 C 65.381804 38.490662 65.680323 38.602026 65.822266 38.677734 C 65.978197 38.760904 65.949001 38.739654 66.005859 38.849609 C 66.047049 38.929259 66.141939 39.1851 66.238281 39.515625 C 66.334621 39.84615 66.440753 40.262451 66.541016 40.712891 C 66.74195 41.615604 66.93379 42.684641 67.052734 43.619141 C 67.113344 44.095333 67.163382 44.590376 67.195312 45 C 67.222932 45.354388 67.227092 45.608091 67.226562 45.71875 L 67.027344 45.646484 C 65.840442 45.214145 63.555698 44.671086 61.693359 44.365234 L 60.505859 44.169922 L 59.998047 42.337891 C 59.667737 41.145002 59.143631 39.470771 58.818359 38.570312 C 58.580274 37.911212 58.435001 37.494651 58.332031 37.199219 z M 30.916016 38.167969 C 30.922416 38.209159 30.930007 38.236589 30.935547 38.279297 C 31.068977 39.306881 31.863567 42.634266 32.207031 43.59375 C 32.256701 43.732481 32.30124 43.872067 32.335938 43.992188 C 32.027755 44.219195 31.574597 44.526602 31.105469 44.927734 C 30.822674 45.169538 30.554168 45.427749 30.349609 45.714844 C 30.205952 45.916465 30.176921 46.184667 30.144531 46.445312 C 29.827953 44.909962 29.621937 43.266871 29.560547 41.544922 C 29.515307 40.275902 29.515077 39.466303 29.560547 39.050781 C 29.573487 38.932387 29.582303 38.926414 29.595703 38.880859 C 29.630433 38.875459 29.668003 38.883047 29.701172 38.873047 L 29.701172 38.875 C 29.803968 38.84391 29.905466 38.79942 30.011719 38.746094 C 30.222892 38.640094 30.456003 38.494487 30.689453 38.320312 C 30.774693 38.256712 30.837087 38.221632 30.916016 38.167969 z M 69.988281 39.335938 C 70.074471 39.861824 70.251694 40.297461 70.306641 40.847656 C 70.487143 42.655118 70.170935 44.797516 69.636719 47.056641 C 69.549309 46.965621 69.536717 46.828196 69.433594 46.751953 C 69.293106 46.648085 69.259579 46.599103 69.251953 46.583984 C 69.243453 46.567224 69.230055 46.530094 69.234375 46.367188 C 69.252375 45.688618 69.135055 44.453681 68.958984 43.056641 C 68.800554 41.799523 68.584919 40.481 68.369141 39.365234 C 68.793244 39.513653 69.120824 39.60778 69.439453 39.591797 C 69.605785 39.583397 69.81009 39.535037 69.970703 39.380859 C 69.984323 39.367789 69.976101 39.349617 69.988281 39.335938 z M 42.566406 40.939453 C 42.568806 40.945653 42.569866 40.948748 42.572266 40.955078 C 42.657116 41.179195 42.762394 41.482216 42.865234 41.798828 C 43.083785 42.471675 43.648098 44.027051 44.134766 45.298828 C 44.37632 45.930066 44.597235 46.511479 44.755859 46.939453 C 44.811849 47.090517 44.847959 47.193634 44.886719 47.300781 C 44.883519 47.302681 44.882206 47.302788 44.878906 47.304688 C 44.673578 47.426769 44.379096 47.590181 44.056641 47.761719 C 42.595111 48.539207 40.362264 49.980683 39.125 50.949219 C 38.926274 51.104781 38.752808 51.234627 38.601562 51.345703 C 38.523933 51.23126 38.446102 51.119484 38.347656 50.960938 C 38.072493 50.517784 37.747106 49.949589 37.515625 49.490234 C 37.048145 48.562545 36.200837 46.5526 35.851562 45.541016 L 35.726562 45.181641 L 36.761719 44.439453 C 37.915269 43.610214 39.45401 42.639003 40.716797 41.910156 C 41.348357 41.545638 41.913085 41.238154 42.316406 41.044922 C 42.425773 40.992522 42.48439 40.973752 42.566406 40.939453 z M 58.572266 46.625 C 58.572266 46.625 58.572266 46.626953 58.572266 46.626953 C 58.627226 46.808234 58.697451 47.07663 58.775391 47.386719 C 58.930874 48.005321 59.109989 48.799163 59.248047 49.507812 C 59.320367 49.879024 59.461208 50.865612 59.576172 51.789062 C 59.633662 52.250887 59.686579 52.70145 59.724609 53.064453 C 59.751809 53.324076 59.759208 53.453539 59.767578 53.582031 C 59.689108 53.588831 59.685048 53.59375 59.513672 53.59375 C 58.992211 53.59375 57.81142 53.730125 55.597656 54.179688 L 55.582031 54.181641 L 55.572266 54.185547 L 52.25 54.992188 L 51.638672 54.039062 C 50.730885 52.627116 49.888237 51.253419 49.275391 50.203125 C 48.968917 49.677894 48.719016 49.233227 48.550781 48.910156 C 48.507731 48.827486 48.486718 48.779948 48.455078 48.714844 C 48.523978 48.683324 48.565598 48.660217 48.65625 48.623047 C 49.026965 48.471051 49.558653 48.28176 50.150391 48.087891 C 51.333996 47.700111 52.768476 47.294987 53.679688 47.119141 C 54.348262 46.990119 55.633167 46.834515 56.751953 46.734375 C 57.310994 46.684335 57.834028 46.649575 58.220703 46.632812 C 58.369421 46.626413 58.473048 46.6253 58.572266 46.625 z M 30.056641 46.710938 C 30.057125 46.719237 30.0618 46.724272 30.0625 46.732422 C 30.06313 46.736022 30.059947 46.738488 30.060547 46.742188 L 30.056641 46.710938 z M 61.197266 46.810547 C 61.437593 46.840387 61.70165 46.875577 62.019531 46.921875 C 63.610658 47.153615 65.997156 47.718413 66.982422 48.083984 L 67.376953 48.230469 L 67.384766 49.503906 C 67.390066 50.377889 67.353911 51.723791 67.306641 52.449219 C 67.267421 53.051268 67.232421 53.386535 67.177734 53.597656 C 67.121974 53.812922 67.054757 53.934174 66.871094 54.208984 C 66.754091 54.384052 66.669211 54.495066 66.611328 54.554688 C 66.553448 54.614308 66.534388 54.620173 66.507812 54.626953 C 66.480752 54.633853 66.189445 54.618953 65.644531 54.460938 L 65.638672 54.458984 L 63.566406 53.951172 L 63.554688 53.947266 L 63.539062 53.943359 C 62.957226 53.827683 62.434942 53.726585 62.208984 53.683594 C 62.189694 53.597734 62.150381 53.367098 62.113281 52.914062 C 61.990221 51.411198 61.665576 49.182337 61.326172 47.5 C 61.272472 47.233839 61.234522 47.019118 61.197266 46.810547 z M 33.314453 46.837891 C 34.094734 48.718551 35.093194 50.854975 35.761719 51.976562 C 35.995655 52.369039 36.208085 52.727463 36.361328 52.990234 C 36.391718 53.042344 36.409194 53.071274 36.433594 53.113281 C 36.427694 53.119581 36.424299 53.122176 36.417969 53.128906 C 36.257672 53.297214 36.036279 53.52648 35.791016 53.775391 C 35.525441 54.044907 35.28465 54.321637 35.099609 54.566406 C 35.007739 54.687925 34.927651 54.801645 34.863281 54.912109 C 34.807531 55.007779 34.735594 55.133332 34.716797 55.306641 C 34.707797 55.389241 34.699202 55.554832 34.763672 55.726562 C 33.343068 54.126674 32.139674 52.331288 31.341797 50.439453 C 30.974812 49.569294 30.728349 48.538664 30.46875 47.527344 C 30.49283 47.554074 30.507613 47.585738 30.533203 47.611328 C 30.691163 47.769283 30.855757 47.962456 31.150391 48.013672 C 31.318893 48.042952 31.465944 48.004467 31.576172 47.960938 C 31.679882 47.920028 31.767115 47.870088 31.861328 47.816406 C 32.125665 47.665786 32.620388 47.326332 33.048828 47.013672 C 33.207809 46.897652 33.235517 46.887857 33.314453 46.837891 z M 69.294922 48.525391 C 69.273722 48.620741 69.242223 48.719458 69.220703 48.814453 L 69.234375 48.546875 L 69.294922 48.525391 z M 46.15625 49.794922 C 46.296876 50.11296 46.470843 50.468731 46.818359 51.074219 C 47.271173 51.863168 47.868888 52.855117 48.537109 53.921875 C 48.948815 54.579132 49.321795 55.191317 49.591797 55.642578 C 49.690127 55.806928 49.755564 55.920258 49.822266 56.035156 C 49.659757 56.139767 49.454548 56.264926 49.214844 56.396484 C 48.614902 56.725751 47.476542 57.467141 46.609375 58.087891 L 45.400391 58.955078 L 44.089844 57.703125 C 43.360131 57.006289 42.31001 55.902389 41.451172 54.951172 C 41.021752 54.475561 40.639241 54.035842 40.369141 53.708984 C 40.282831 53.604538 40.232067 53.536815 40.171875 53.458984 C 40.311435 53.338422 40.493969 53.189228 40.726562 53.011719 C 41.240927 52.619171 41.925013 52.132328 42.574219 51.710938 C 43.332362 51.218835 44.336785 50.661358 45.146484 50.257812 C 45.551123 50.056145 45.911014 49.890568 46.152344 49.796875 C 46.154244 49.796132 46.15435 49.795722 46.15625 49.794922 z M 38.089844 55.0625 C 38.974881 56.191939 40.845062 58.128221 42.296875 59.429688 C 42.808398 59.888238 43.190377 60.255978 43.425781 60.507812 C 43.478001 60.563682 43.493801 60.588632 43.529297 60.630859 C 43.437127 60.744209 43.32376 60.878548 43.210938 61.005859 C 43.110937 61.118699 43.014232 61.216504 42.935547 61.289062 C 42.892057 61.274932 42.855227 61.263911 42.800781 61.244141 C 42.614145 61.176371 42.367266 61.0791 42.097656 60.966797 C 41.558492 60.742212 40.924328 60.455913 40.453125 60.21875 C 38.476057 59.223664 36.641414 57.75604 35.060547 56.044922 C 35.1224 56.086499 35.185227 56.12469 35.253906 56.140625 C 35.556163 56.210765 35.862369 56.173943 36.417969 56.132812 C 36.57786 56.120942 36.694552 56.055382 36.761719 56.021484 C 36.853019 55.975414 36.946193 55.920019 37.046875 55.855469 C 37.249995 55.725235 37.481808 55.556137 37.708984 55.371094 L 38.089844 55.0625 z M 62.160156 55.976562 L 62.273438 55.976562 C 62.565596 55.976562 63.017282 56.014042 64.283203 56.181641 C 64.733415 56.241241 64.968121 56.286258 65.222656 56.332031 C 65.181626 56.373661 65.159106 56.402961 65.113281 56.447266 C 64.782508 56.767075 64.334831 57.155875 63.859375 57.541016 C 63.198642 58.076238 62.62237 58.454769 62.111328 58.785156 C 62.138708 57.8528 62.163536 56.917718 62.160156 55.976562 z M 59.923828 55.982422 L 59.923828 60.125 C 58.92449 60.628918 57.973911 61.066265 56.994141 61.400391 C 56.965751 61.372251 56.948802 61.358786 56.914062 61.322266 C 56.740154 61.139459 56.498969 60.8647 56.228516 60.539062 C 55.687394 59.887529 55.019483 59.028121 54.439453 58.216797 C 54.127081 57.779861 53.894508 57.463079 53.753906 57.25 C 53.732946 57.21824 53.728361 57.205957 53.712891 57.179688 C 53.842832 57.135868 53.98984 57.090028 54.25 57.007812 C 55.746313 56.53492 57.687211 56.154342 59.181641 56.039062 L 59.923828 55.982422 z M 51.265625 58.132812 C 51.322625 58.212522 51.374471 58.286536 51.451172 58.394531 C 51.679954 58.71666 51.988489 59.15352 52.322266 59.625 L 52.396484 59.730469 L 52.400391 59.730469 L 54.099609 62.056641 C 52.864215 62.28117 51.681192 62.451542 50.210938 62.443359 C 50.200277 62.439859 50.190714 62.436061 50.177734 62.431641 C 50.125784 62.413971 50.053281 62.388296 49.982422 62.353516 C 49.821767 62.274666 49.610737 62.155862 49.388672 62.021484 C 48.949906 61.755978 48.462365 61.429012 48.136719 61.195312 L 47.263672 60.548828 C 47.85416 60.105871 48.835923 59.468557 49.757812 58.933594 C 50.256861 58.644002 50.723312 58.390271 51.060547 58.224609 C 51.150707 58.180319 51.198503 58.162353 51.265625 58.132812 z M 45.585938 62.029297 C 45.601287 62.038397 45.626358 62.05275 45.642578 62.0625 C 45.617458 62.0587 45.589136 62.056434 45.566406 62.052734 C 45.573406 62.044234 45.579067 62.037387 45.585938 62.029297 z M 50.169922 62.447266 L 50.169922 62.697266 C 50.193373 62.697266 50.061639 62.653548 49.945312 62.607422 C 49.946855 62.600771 49.949223 62.585929 49.949219 62.585938 C 49.949197 62.58598 50.003946 62.511679 50.003906 62.511719 C 50.003864 62.511758 50.054757 62.476532 50.054688 62.476562 C 50.054558 62.476633 50.115444 62.453075 50.115234 62.453125 C 50.115019 62.453177 50.137441 62.450019 50.144531 62.449219 C 50.158711 62.447619 50.164992 62.447266 50.169922 62.447266 z "
     style="color:#000000;font-style:normal;font-variant:normal;font-weight:normal;font-stretch:normal;font-size:medium;line-height:normal;font-family:sans-serif;font-variant-ligatures:normal;font-variant-position:normal;font-variant-caps:normal;font-variant-numeric:normal;font-variant-alternates:normal;font-variant-east-asian:normal;font-feature-settings:normal;font-variation-settings:normal;text-indent:0;text-align:start;text-decoration:none;text-decoration-line:none;text-decoration-style:solid;text-decoration-color:#000000;letter-spacing:normal;word-spacing:normal;text-transform:none;writing-mode:lr-tb;direction:ltr;text-orientation:mixed;dominant-baseline:auto;baseline-shift:baseline;text-anchor:start;white-space:normal;shape-padding:0;shape-margin:0;inline-size:0;clip-rule:nonzero;display:inline;overflow:visible;visibility:visible;isolation:auto;mix-blend-mode:normal;color-interpolation:sRGB;color-interpolation-filters:linearRGB;solid-color:#000000;solid-opacity:1;vector-effect:none;fill:#000080;fill-opacity:1;fill-rule:nonzero;stroke:none;stroke-width:0.5;stroke-linecap:butt;stroke-linejoin:miter;stroke-miterlimit:4;stroke-dasharray:none;stroke-dashoffset:0;stroke-opacity:1;color-rendering:auto;image-rendering:auto;shape-rendering:auto;text-rendering:auto;enable-background:accumulate;stop-color:#000000"
     id="path911" />
  <path
     d="M 13.996094 0 C 12.615444 0.00014 11.496234 1.11935 11.496094 2.5 L 11.496094 70 L 0 70 L 0 92 L 11.496094 92 L 11.496094 97.5 C 11.496234 98.8806 12.615444 99.999799 13.996094 100 L 85.996094 100 C 87.376754 99.999799 88.495964 98.8806 88.496094 97.5 L 88.496094 21.625 C 88.522594 20.51202 88.500094 19.848306 87.763672 19.035156 L 69.460938 0.73242188 C 68.984527 0.25585188 68.335919 -0.00824 67.662109 0 L 13.996094 0 z M 16.496094 5 L 65.398438 5 L 66.650391 19.568359 C 66.754391 20.780419 67.715684 21.741693 68.927734 21.845703 L 83.496094 23.097656 L 83.496094 95 L 16.496094 95 L 16.496094 92 L 80 92 L 80 70 L 16.496094 70 L 16.496094 5 z M 70.771484 9.1152344 L 79.380859 17.724609 L 71.453125 17.042969 L 70.771484 9.1152344 z M 47.324219 73 C 48.733731 73 49.792089 73.397664 50.501953 74.195312 C 51.216922 74.992961 51.593155 76.059014 51.628906 77.390625 L 49.361328 77.517578 C 49.264297 76.772667 49.054157 76.240985 48.732422 75.917969 C 48.415792 75.588364 47.939146 75.421875 47.300781 75.421875 C 46.641987 75.421875 46.126712 75.595929 45.753906 75.945312 C 45.513882 76.169445 45.392578 76.469952 45.392578 76.845703 C 45.392578 77.188494 45.505765 77.482653 45.730469 77.726562 C 46.016457 78.036392 46.711358 78.359114 47.814453 78.695312 C 48.917549 79.03151 49.7318 79.379621 50.257812 79.742188 C 50.788933 80.098163 51.203799 80.590545 51.5 81.216797 C 51.801309 81.836458 51.951172 82.605178 51.951172 83.521484 C 51.951172 84.352093 51.771547 85.130334 51.414062 85.855469 C 51.056577 86.580603 50.55017 87.120587 49.896484 87.476562 C 49.242797 87.825944 48.428547 88 47.453125 88 C 46.0334 88 44.944525 87.578168 44.183594 86.734375 C 43.422661 85.883989 42.96646 84.649008 42.818359 83.027344 L 45.025391 82.75 C 45.158171 83.705859 45.426631 84.407203 45.830078 84.855469 C 46.238631 85.303734 46.787126 85.529297 47.476562 85.529297 C 48.206851 85.529297 48.755349 85.331075 49.123047 84.935547 C 49.495852 84.533427 49.683594 84.065213 49.683594 83.53125 C 49.683594 83.188459 49.603625 82.897473 49.445312 82.660156 C 49.292105 82.416247 49.020938 82.205331 48.632812 82.027344 C 48.367252 81.908686 47.76314 81.697769 46.818359 81.394531 C 45.602911 81.005595 44.75003 80.527862 44.259766 79.960938 C 43.57033 79.163289 43.226562 78.189999 43.226562 77.042969 C 43.226562 76.304649 43.385295 75.617953 43.707031 74.978516 C 44.033874 74.332487 44.501651 73.840104 45.109375 73.503906 C 45.722205 73.167707 46.461149 73 47.324219 73 z M 58.84375 73 C 60.498393 73 61.821756 73.66131 62.8125 74.986328 C 63.808349 76.311347 64.306641 78.155642 64.306641 80.515625 C 64.306641 82.855832 63.813762 84.688654 62.828125 86.013672 C 61.842489 87.332098 60.524536 87.990234 58.875 87.990234 C 57.205037 87.990234 55.878213 87.333318 54.892578 86.021484 C 53.906941 84.703057 53.414062 82.89123 53.414062 80.583984 C 53.414062 79.107347 53.585569 77.869191 53.927734 76.867188 C 54.18308 76.128869 54.529555 75.465606 54.96875 74.878906 C 55.413053 74.292207 55.897815 73.857681 56.423828 73.574219 C 57.123477 73.191876 57.92961 73 58.84375 73 z M 5 73.246094 L 13.326172 73.246094 L 13.326172 75.699219 L 7.2675781 75.699219 L 7.2675781 78.914062 L 12.90625 78.914062 L 12.90625 81.355469 L 7.2675781 81.355469 L 7.2675781 85.300781 L 13.541016 85.300781 L 13.541016 87.744141 L 5 87.744141 L 5 73.246094 z M 30.294922 73.246094 L 32.447266 73.246094 L 32.447266 75.818359 L 30.294922 75.818359 L 30.294922 73.246094 z M 38.712891 73.246094 L 40.972656 73.246094 L 40.972656 82.423828 C 40.972656 83.623596 40.891937 84.545377 40.728516 85.191406 C 40.508917 86.035199 40.110286 86.716283 39.533203 87.230469 C 38.956121 87.738063 38.194781 87.990234 37.25 87.990234 C 36.141797 87.990234 35.288917 87.59257 34.691406 86.794922 C 34.093895 85.990682 33.792209 84.812823 33.787109 83.263672 L 35.923828 82.947266 C 35.949364 83.777875 36.043611 84.36424 36.207031 84.707031 C 36.452164 85.227809 36.825693 85.488281 37.326172 85.488281 C 37.831758 85.488281 38.189054 85.304706 38.398438 84.935547 C 38.607822 84.559796 38.712891 83.784727 38.712891 82.611328 L 38.712891 73.246094 z M 66.091797 73.246094 L 68.298828 73.246094 L 72.894531 82.927734 L 72.894531 73.246094 L 75 73.246094 L 75 87.744141 L 72.724609 87.744141 L 68.199219 78.291016 L 68.199219 87.744141 L 66.091797 87.744141 L 66.091797 73.246094 z M 58.867188 75.501953 C 57.93262 75.501953 57.179397 75.917438 56.607422 76.748047 C 56.035446 77.572064 55.75 78.816566 55.75 80.484375 C 55.75 82.125815 56.043563 83.372271 56.630859 84.222656 C 57.218156 85.066448 57.963262 85.488281 58.867188 85.488281 C 59.771112 85.488281 60.512762 85.069622 61.089844 84.232422 C 61.672033 83.388629 61.962891 82.126306 61.962891 80.445312 C 61.962891 78.784096 61.678195 77.543987 61.111328 76.726562 C 60.549565 75.909139 59.801753 75.501953 58.867188 75.501953 z M 18.427734 77.003906 C 19.541043 77.003906 20.368822 77.23899 20.910156 77.707031 C 21.45149 78.175072 21.82502 78.866896 22.029297 79.783203 L 19.998047 80.267578 C 19.91123 79.858867 19.745133 79.545666 19.5 79.328125 C 19.259975 79.110585 18.916206 79.001953 18.466797 79.001953 C 17.899928 79.001953 17.495132 79.104238 17.25 79.308594 C 17.086577 79.453621 17.003906 79.642322 17.003906 79.873047 C 17.003906 80.070811 17.075755 80.236566 17.21875 80.375 C 17.412812 80.55958 18.080657 80.822004 19.224609 81.158203 C 20.373667 81.494402 21.176343 81.906713 21.630859 82.394531 C 22.080269 82.888942 22.304688 83.577591 22.304688 84.460938 C 22.304687 85.423388 21.992186 86.249232 21.369141 86.941406 C 20.746097 87.633579 19.826024 87.980469 18.605469 87.980469 C 17.497265 87.980469 16.61733 87.691435 15.96875 87.111328 C 15.325278 86.531221 14.904248 85.743458 14.705078 84.748047 L 16.865234 84.322266 C 16.957159 84.862821 17.144899 85.275132 17.425781 85.558594 C 17.706661 85.835463 18.099883 85.972656 18.605469 85.972656 C 19.162123 85.972656 19.580447 85.84181 19.861328 85.578125 C 20.050285 85.393545 20.144531 85.145768 20.144531 84.835938 C 20.144531 84.624989 20.092372 84.450935 19.990234 84.3125 C 19.882988 84.180657 19.644289 84.059332 19.271484 83.947266 C 17.53513 83.452856 16.433481 82.998556 15.96875 82.589844 C 15.325278 82.02292 15.005859 81.237112 15.005859 80.228516 C 15.005859 79.318802 15.283189 78.555208 15.839844 77.935547 C 16.396499 77.315887 17.258249 77.003906 18.427734 77.003906 z M 27.957031 77.003906 C 28.447295 77.003906 28.920484 77.177961 29.375 77.527344 L 28.708984 79.951172 C 28.346392 79.647935 28.008788 79.496094 27.697266 79.496094 C 27.395957 79.496094 27.141025 79.606679 26.931641 79.824219 C 26.722257 80.035168 26.55616 80.420138 26.433594 80.980469 C 26.316134 81.540801 26.257812 82.713532 26.257812 84.5 L 26.257812 87.744141 L 24.105469 87.744141 L 24.105469 77.242188 L 26.105469 77.242188 L 26.105469 78.734375 C 26.447634 78.029018 26.752771 77.56593 27.023438 77.341797 C 27.299211 77.117665 27.60976 77.003906 27.957031 77.003906 z M 30.294922 77.242188 L 32.447266 77.242188 L 32.447266 87.744141 L 30.294922 87.744141 L 30.294922 77.242188 z "
     style="color:#000000;font-style:normal;font-variant:normal;font-weight:normal;font-stretch:normal;font-size:medium;line-height:normal;font-family:sans-serif;font-variant-ligatures:normal;font-variant-position:normal;font-variant-caps:normal;font-variant-numeric:normal;font-variant-alternates:normal;font-variant-east-asian:normal;font-feature-settings:normal;font-variation-settings:normal;text-indent:0;text-align:start;text-decoration:none;text-decoration-line:none;text-decoration-style:solid;text-decoration-color:#000000;letter-spacing:normal;word-spacing:normal;text-transform:none;writing-mode:lr-tb;direction:ltr;text-orientation:mixed;dominant-baseline:auto;baseline-shift:baseline;text-anchor:start;white-space:normal;shape-padding:0;shape-margin:0;inline-size:0;clip-rule:nonzero;display:inline;overflow:visible;visibility:visible;opacity:1;isolation:auto;mix-blend-mode:normal;color-interpolation:sRGB;color-interpolation-filters:linearRGB;solid-color:#000000;solid-opacity:1;vector-effect:none;fill:#000080;fill-opacity:1;fill-rule:nonzero;stroke:none;stroke-width:5;stroke-linecap:round;stroke-linejoin:round;stroke-miterlimit:4;stroke-dasharray:none;stroke-dashoffset:20;stroke-opacity:1;color-rendering:auto;image-rendering:auto;shape-rendering:auto;text-rendering:auto;enable-background:accumulate;stop-color:#000000;stop-opacity:1"
     id="path841-8" />
</svg>
