<?xml version="1.0" encoding="UTF-8" standalone="no"?>
<svg
   xmlns:dc="http://purl.org/dc/elements/1.1/"
   xmlns:cc="http://creativecommons.org/ns#"
   xmlns:rdf="http://www.w3.org/1999/02/22-rdf-syntax-ns#"
   xmlns:svg="http://www.w3.org/2000/svg"
   xmlns="http://www.w3.org/2000/svg"
   xmlns:sodipodi="http://sodipodi.sourceforge.net/DTD/sodipodi-0.dtd"
   xmlns:inkscape="http://www.inkscape.org/namespaces/inkscape"
   version="1.1"
   width="100"
   height="100"
   id="svg4460"
   inkscape:version="1.0 (4035a4fb49, 2020-05-01)"
   sodipodi:docname="layer-down.svg">
  <sodipodi:namedview
     pagecolor="#ffffff"
     bordercolor="#666666"
     borderopacity="1"
     objecttolerance="10"
     gridtolerance="10"
     guidetolerance="10"
     inkscape:pageopacity="0"
     inkscape:pageshadow="2"
     inkscape:window-width="1920"
     inkscape:window-height="1017"
     id="namedview11"
     showgrid="false"
     inkscape:zoom="4.9166667"
     inkscape:cx="41.152581"
     inkscape:cy="43.71533"
     inkscape:window-x="-8"
     inkscape:window-y="-8"
     inkscape:window-maximized="1"
     inkscape:current-layer="svg4460"
     inkscape:document-rotation="0" />
  <defs
     id="defs4462" />
  <metadata
     id="metadata4465">
    <rdf:RDF>
      <cc:Work
         rdf:about="">
        <dc:format>image/svg+xml</dc:format>
        <dc:type
           rdf:resource="http://purl.org/dc/dcmitype/StillImage" />
        <dc:title></dc:title>
      </cc:Work>
    </rdf:RDF>
  </metadata>
  <path
     d="M 28.134766 10.357422 A 3.50035 3.50035 0 0 0 25.466797 11.591797 L 0.83203125 40.607422 A 3.50035 3.50035 0 0 0 3.5019531 46.373047 L 37.111328 46.349609 L 40.205078 61.023438 L 11.068359 61.042969 L 19.287109 51.361328 L 10.099609 51.369141 L 0.83203125 62.283203 A 3.50035 3.50035 0 0 0 3.5019531 68.048828 L 41.679688 68.021484 L 44.755859 82.613281 L 11.068359 82.636719 L 19.287109 72.955078 L 10.099609 72.962891 L 0.83203125 83.876953 A 3.50035 3.50035 0 0 0 3.5019531 89.642578 L 46.230469 89.613281 L 47.554688 95.890625 A 2.50025 2.50025 0 0 0 52.445312 95.890625 L 53.769531 89.607422 L 96.501953 89.578125 A 3.50035 3.50035 0 0 0 99.167969 83.8125 L 89.910156 72.90625 L 80.732422 72.914062 L 88.943359 82.583984 L 55.246094 82.607422 L 58.322266 68.011719 L 96.501953 67.984375 A 3.50035 3.50035 0 0 0 99.167969 62.21875 L 89.910156 51.3125 L 80.732422 51.320312 L 88.943359 60.990234 L 59.798828 61.009766 L 62.892578 46.332031 L 96.501953 46.308594 A 3.50035 3.50035 0 0 0 99.167969 40.542969 L 74.589844 11.591797 A 3.50035 3.50035 0 0 0 71.921875 10.357422 L 28.134766 10.357422 z M 29.753906 17.357422 L 70.300781 17.357422 L 88.941406 39.314453 L 64.369141 39.332031 L 66.818359 27.710938 A 2.50025 2.50025 0 0 0 64.373047 24.695312 L 35.626953 24.695312 A 2.50025 2.50025 0 0 0 33.181641 27.710938 L 35.634766 39.349609 L 11.068359 39.367188 L 29.753906 17.357422 z "
     style="color:#000000;font-style:normal;font-variant:normal;font-weight:normal;font-stretch:normal;font-size:medium;line-height:normal;font-family:sans-serif;font-variant-ligatures:normal;font-variant-position:normal;font-variant-caps:normal;font-variant-numeric:normal;font-variant-alternates:normal;font-variant-east-asian:normal;font-feature-settings:normal;font-variation-settings:normal;text-indent:0;text-align:start;text-decoration:none;text-decoration-line:none;text-decoration-style:solid;text-decoration-color:#000000;letter-spacing:normal;word-spacing:normal;text-transform:none;writing-mode:lr-tb;direction:ltr;text-orientation:mixed;dominant-baseline:auto;baseline-shift:baseline;text-anchor:start;white-space:normal;shape-padding:0;shape-margin:0;inline-size:0;clip-rule:nonzero;display:inline;overflow:visible;visibility:visible;opacity:1;isolation:auto;mix-blend-mode:normal;color-interpolation:sRGB;color-interpolation-filters:linearRGB;solid-color:#000000;solid-opacity:1;vector-effect:none;fill:#000080;fill-opacity:1;fill-rule:nonzero;stroke:none;stroke-width:7;stroke-linecap:round;stroke-linejoin:round;stroke-miterlimit:4;stroke-dasharray:none;stroke-dashoffset:0;stroke-opacity:1;color-rendering:auto;image-rendering:auto;shape-rendering:auto;text-rendering:auto;enable-background:accumulate;stop-color:#000000;stop-opacity:1"
     id="path951" />
  <g
     style="opacity:1;stroke:none;fill:#000080;fill-opacity:1"
     inkscape:transform-center-y="8.0427078"
     id="g884" />
</svg>
