<?xml version="1.0" encoding="UTF-8" standalone="no"?>
<svg
   xmlns:dc="http://purl.org/dc/elements/1.1/"
   xmlns:cc="http://creativecommons.org/ns#"
   xmlns:rdf="http://www.w3.org/1999/02/22-rdf-syntax-ns#"
   xmlns:svg="http://www.w3.org/2000/svg"
   xmlns="http://www.w3.org/2000/svg"
   xmlns:sodipodi="http://sodipodi.sourceforge.net/DTD/sodipodi-0.dtd"
   xmlns:inkscape="http://www.inkscape.org/namespaces/inkscape"
   sodipodi:docname="uEA4C-layer-add-o.svg"
   inkscape:version="0.92.4 (5da689c313, 2019-01-14)"
   id="svg4460"
   height="100"
   width="100"
   version="1.1">
  <sodipodi:namedview
     inkscape:document-rotation="0"
     inkscape:current-layer="svg4460"
     inkscape:window-maximized="1"
     inkscape:window-y="-8"
     inkscape:window-x="1272"
     inkscape:cy="67.711735"
     inkscape:cx="97.811792"
     inkscape:zoom="10.762165"
     showgrid="false"
     id="namedview11"
     inkscape:window-height="1177"
     inkscape:window-width="1920"
     inkscape:pageshadow="2"
     inkscape:pageopacity="0"
     guidetolerance="10"
     gridtolerance="10"
     objecttolerance="10"
     borderopacity="1"
     bordercolor="#666666"
     pagecolor="#ffffff" />
  <defs
     id="defs4462" />
  <metadata
     id="metadata4465">
    <rdf:RDF>
      <cc:Work
         rdf:about="">
        <dc:format>image/svg+xml</dc:format>
        <dc:type
           rdf:resource="http://purl.org/dc/dcmitype/StillImage" />
        <dc:title />
      </cc:Work>
    </rdf:RDF>
  </metadata>
  <path
     style="color:#000000;font-style:normal;font-variant:normal;font-weight:normal;font-stretch:normal;font-size:medium;line-height:normal;font-family:sans-serif;font-variant-ligatures:normal;font-variant-position:normal;font-variant-caps:normal;font-variant-numeric:normal;font-variant-alternates:normal;font-feature-settings:normal;text-indent:0;text-align:start;text-decoration:none;text-decoration-line:none;text-decoration-style:solid;text-decoration-color:#000000;letter-spacing:normal;word-spacing:normal;text-transform:none;writing-mode:lr-tb;direction:ltr;text-orientation:mixed;dominant-baseline:auto;baseline-shift:baseline;text-anchor:start;white-space:normal;shape-padding:0;clip-rule:nonzero;display:inline;overflow:visible;visibility:visible;opacity:1;isolation:auto;mix-blend-mode:normal;color-interpolation:sRGB;color-interpolation-filters:linearRGB;solid-color:#000000;solid-opacity:1;vector-effect:none;fill:#000080;fill-opacity:1;fill-rule:nonzero;stroke:none;stroke-width:7;stroke-linecap:round;stroke-linejoin:round;stroke-miterlimit:4;stroke-dasharray:none;stroke-dashoffset:0;stroke-opacity:1;color-rendering:auto;image-rendering:auto;shape-rendering:auto;text-rendering:auto;enable-background:accumulate"
     d="M 80.5 0 C 73.354976 0 67.247641 4.2463178 64.523438 10.357422 L 28.134766 10.357422 C 27.107388 10.357408 26.131877 10.808743 25.466797 11.591797 L 0.83203125 40.607422 C -1.0986566 42.881791 0.51861472 46.374245 3.5019531 46.373047 L 96.501953 46.308594 C 99.483458 46.306494 101.09747 42.81594 99.167969 40.542969 L 91.298828 31.271484 C 95.378123 28.073051 98 23.108594 98 17.5 C 98 7.805405 90.194595 0 80.5 0 z M 77 5 L 84 5 L 84 14 L 93 14 L 93 21 L 84 21 L 84 30 L 77 30 L 77 21 L 68 21 L 68 14 L 77 14 L 77 5 z M 29.753906 17.357422 L 63.007812 17.357422 C 63.007428 17.405469 63 17.451858 63 17.5 C 63 27.194595 70.805405 35 80.5 35 C 81.991527 35 83.43 34.795232 84.810547 34.447266 L 88.941406 39.314453 L 11.068359 39.367188 L 29.753906 17.357422 z M 89.910156 51.3125 L 80.732422 51.320312 L 88.943359 60.990234 L 11.068359 61.042969 L 19.287109 51.361328 L 10.099609 51.369141 L 0.83203125 62.283203 C -1.0986566 64.557572 0.51861472 68.050026 3.5019531 68.048828 L 96.501953 67.984375 C 99.483458 67.982275 101.09747 64.491721 99.167969 62.21875 L 89.910156 51.3125 z M 89.910156 72.90625 L 80.732422 72.914062 L 88.943359 82.583984 L 11.068359 82.636719 L 19.287109 72.955078 L 10.099609 72.962891 L 0.83203125 83.876953 C -1.0986566 86.151322 0.51861472 89.643776 3.5019531 89.642578 L 96.501953 89.578125 C 99.483458 89.576025 101.09747 86.085471 99.167969 83.8125 L 89.910156 72.90625 z "
     id="path951" />
</svg>
