<?xml version="1.0" encoding="UTF-8" standalone="no"?>
<svg
   xmlns:dc="http://purl.org/dc/elements/1.1/"
   xmlns:cc="http://creativecommons.org/ns#"
   xmlns:rdf="http://www.w3.org/1999/02/22-rdf-syntax-ns#"
   xmlns:svg="http://www.w3.org/2000/svg"
   xmlns="http://www.w3.org/2000/svg"
   xmlns:sodipodi="http://sodipodi.sourceforge.net/DTD/sodipodi-0.dtd"
   xmlns:inkscape="http://www.inkscape.org/namespaces/inkscape"
   version="1.1"
   width="100"
   height="100"
   id="svg4460"
   inkscape:version="1.0 (4035a4fb49, 2020-05-01)"
   sodipodi:docname="uEA49-layer-stack.svg">
  <sodipodi:namedview
     pagecolor="#ffffff"
     bordercolor="#666666"
     borderopacity="1"
     objecttolerance="10"
     gridtolerance="10"
     guidetolerance="10"
     inkscape:pageopacity="0"
     inkscape:pageshadow="2"
     inkscape:window-width="1920"
     inkscape:window-height="1017"
     id="namedview11"
     showgrid="false"
     inkscape:zoom="3.4766084"
     inkscape:cx="-3.2836961"
     inkscape:cy="89.247207"
     inkscape:window-x="-8"
     inkscape:window-y="-8"
     inkscape:window-maximized="1"
     inkscape:current-layer="svg4460"
     inkscape:document-rotation="0" />
  <defs
     id="defs4462" />
  <metadata
     id="metadata4465">
    <rdf:RDF>
      <cc:Work
         rdf:about="">
        <dc:format>image/svg+xml</dc:format>
        <dc:type
           rdf:resource="http://purl.org/dc/dcmitype/StillImage" />
        <dc:title />
      </cc:Work>
    </rdf:RDF>
  </metadata>
  <path
     d="M 50.048828 9.5097656 A 4.725134 2.5930375 0 0 0 46.658203 10.269531 L 1.3828125 35.115234 A 4.725134 2.5930375 0 0 0 1.3828125 38.783203 L 46.658203 63.628906 A 4.725134 2.5930375 0 0 0 53.341797 63.628906 L 98.617188 38.783203 A 4.725134 2.5930375 0 0 0 98.617188 35.115234 L 53.341797 10.269531 A 4.725134 2.5930375 0 0 0 50.048828 9.5097656 z M 4.7265625 46.332031 L 1.3828125 48.166016 A 4.725134 2.5930375 0 0 0 1.3828125 51.833984 L 46.658203 76.679688 A 4.725134 2.5930375 0 0 0 53.341797 76.679688 L 98.617188 51.833984 A 4.725134 2.5930375 0 0 0 98.615234 48.166016 L 95.273438 46.332031 L 88.589844 49.998047 L 88.59375 50 L 50 71.179688 L 11.404297 50 L 11.408203 49.998047 L 4.7265625 46.332031 z M 4.7265625 59.382812 L 1.3828125 61.216797 A 4.725134 2.5930375 0 0 0 1.3828125 64.884766 L 46.658203 89.730469 A 4.725134 2.5930375 0 0 0 53.341797 89.730469 L 98.617188 64.884766 A 4.725134 2.5930375 0 0 0 98.615234 61.216797 L 95.273438 59.382812 L 88.589844 63.048828 L 88.59375 63.050781 L 50 84.230469 L 11.404297 63.050781 L 11.408203 63.048828 L 4.7265625 59.382812 z "
     style="color:#000000;font-style:normal;font-variant:normal;font-weight:normal;font-stretch:normal;font-size:medium;line-height:normal;font-family:sans-serif;font-variant-ligatures:normal;font-variant-position:normal;font-variant-caps:normal;font-variant-numeric:normal;font-variant-alternates:normal;font-variant-east-asian:normal;font-feature-settings:normal;font-variation-settings:normal;text-indent:0;text-align:start;text-decoration:none;text-decoration-line:none;text-decoration-style:solid;text-decoration-color:#000000;letter-spacing:normal;word-spacing:normal;text-transform:none;writing-mode:lr-tb;direction:ltr;text-orientation:mixed;dominant-baseline:auto;baseline-shift:baseline;text-anchor:start;white-space:normal;shape-padding:0;shape-margin:0;inline-size:0;clip-rule:nonzero;display:inline;overflow:visible;visibility:visible;opacity:1;isolation:auto;mix-blend-mode:normal;color-interpolation:sRGB;color-interpolation-filters:linearRGB;solid-color:#000000;solid-opacity:1;vector-effect:none;fill:#000080;fill-opacity:1;fill-rule:nonzero;stroke:none;stroke-width:7;stroke-linecap:round;stroke-linejoin:round;stroke-miterlimit:4;stroke-dasharray:none;stroke-dashoffset:0;stroke-opacity:1;paint-order:normal;color-rendering:auto;image-rendering:auto;shape-rendering:auto;text-rendering:auto;enable-background:accumulate;stop-color:#000000;stop-opacity:1"
     id="path836" />
</svg>
