<?xml version="1.0" encoding="UTF-8" standalone="no"?>
<svg
   xmlns:dc="http://purl.org/dc/elements/1.1/"
   xmlns:cc="http://creativecommons.org/ns#"
   xmlns:rdf="http://www.w3.org/1999/02/22-rdf-syntax-ns#"
   xmlns:svg="http://www.w3.org/2000/svg"
   xmlns="http://www.w3.org/2000/svg"
   xmlns:sodipodi="http://sodipodi.sourceforge.net/DTD/sodipodi-0.dtd"
   xmlns:inkscape="http://www.inkscape.org/namespaces/inkscape"
   sodipodi:docname="uEA6A-layer-poi.svg"
   inkscape:version="1.0 (4035a4fb49, 2020-05-01)"
   id="svg4460"
   height="100"
   width="100"
   version="1.1">
  <sodipodi:namedview
     inkscape:document-rotation="0"
     inkscape:current-layer="svg4460"
     inkscape:window-maximized="1"
     inkscape:window-y="-8"
     inkscape:window-x="-8"
     inkscape:cy="56.779614"
     inkscape:cx="15.277046"
     inkscape:zoom="4.9166667"
     showgrid="false"
     id="namedview11"
     inkscape:window-height="1017"
     inkscape:window-width="1920"
     inkscape:pageshadow="2"
     inkscape:pageopacity="0"
     guidetolerance="10"
     gridtolerance="10"
     objecttolerance="10"
     borderopacity="1"
     bordercolor="#666666"
     pagecolor="#ffffff" />
  <defs
     id="defs4462" />
  <metadata
     id="metadata4465">
    <rdf:RDF>
      <cc:Work
         rdf:about="">
        <dc:format>image/svg+xml</dc:format>
        <dc:type
           rdf:resource="http://purl.org/dc/dcmitype/StillImage" />
        <dc:title />
      </cc:Work>
    </rdf:RDF>
  </metadata>
  <path
     id="path951"
     style="color:#000000;font-style:normal;font-variant:normal;font-weight:normal;font-stretch:normal;font-size:medium;line-height:normal;font-family:sans-serif;font-variant-ligatures:normal;font-variant-position:normal;font-variant-caps:normal;font-variant-numeric:normal;font-variant-alternates:normal;font-variant-east-asian:normal;font-feature-settings:normal;font-variation-settings:normal;text-indent:0;text-align:start;text-decoration:none;text-decoration-line:none;text-decoration-style:solid;text-decoration-color:#000000;letter-spacing:normal;word-spacing:normal;text-transform:none;writing-mode:lr-tb;direction:ltr;text-orientation:mixed;dominant-baseline:auto;baseline-shift:baseline;text-anchor:start;white-space:normal;shape-padding:0;shape-margin:0;inline-size:0;clip-rule:nonzero;display:inline;overflow:visible;visibility:visible;opacity:1;isolation:auto;mix-blend-mode:normal;color-interpolation:sRGB;color-interpolation-filters:linearRGB;solid-color:#000000;solid-opacity:1;vector-effect:none;fill:#000080;fill-opacity:1;fill-rule:nonzero;stroke:none;stroke-width:7;stroke-linecap:round;stroke-linejoin:round;stroke-miterlimit:4;stroke-dasharray:none;stroke-dashoffset:0;stroke-opacity:1;color-rendering:auto;image-rendering:auto;shape-rendering:auto;text-rendering:auto;enable-background:accumulate;stop-color:#000000;stop-opacity:1"
     d="M 50.001953,0 C 36.53511,0 25.5,11.003267 25.5,24.431641 c 0,5.202945 1.661925,10.038326 4.474609,14.013671 l 17.03711,29.451172 c 2.385943,3.11697 3.971209,2.523195 5.955078,-0.166015 L 71.757812,35.753906 c 0.379617,-0.686691 0.6778,-1.419356 0.9375,-2.166015 C 73.855157,30.755068 74.500007,27.665928 74.5,24.431641 74.5,11.003267 63.468796,0 50.001953,0 Z m 0,11.447266 c 7.251509,0 13.017578,5.753576 13.017578,12.984375 0,7.230789 -5.766069,12.980468 -13.017578,12.980468 -7.251509,0 -13.021484,-5.749679 -13.021484,-12.980468 0,-7.230799 5.769975,-12.984375 13.021484,-12.984375 z M 28.134766,50 a 3.50035,3.50035 0 0 0 -2.667969,1.234375 L 0.83203087,80.25 A 3.50035,3.50035 0 0 0 3.5019527,86.015625 L 96.501953,85.951175 A 3.50035,3.50035 0 0 0 99.167969,80.18555 L 74.589844,51.234375 A 3.50035,3.50035 0 0 0 71.921875,50 h -3.900391 c -1.36959,2.332543 -2.731243,4.668928 -4.103515,7 h 6.382812 l 18.640625,21.957031 -77.873047,0.05273 18.685547,-22.009766 h 6.332032 c -1.349165,-2.333671 -2.700804,-4.665521 -4.048829,-7 z" />
</svg>
