<?xml version="1.0" encoding="UTF-8" standalone="no"?>
<svg
   xmlns:dc="http://purl.org/dc/elements/1.1/"
   xmlns:cc="http://creativecommons.org/ns#"
   xmlns:rdf="http://www.w3.org/1999/02/22-rdf-syntax-ns#"
   xmlns:svg="http://www.w3.org/2000/svg"
   xmlns="http://www.w3.org/2000/svg"
   xmlns:sodipodi="http://sodipodi.sourceforge.net/DTD/sodipodi-0.dtd"
   xmlns:inkscape="http://www.inkscape.org/namespaces/inkscape"
   version="1.1"
   width="100"
   height="100"
   id="svg4460"
   inkscape:version="0.92.4 (5da689c313, 2019-01-14)"
   sodipodi:docname="uEAF2-layer-landcover.svg">
  <sodipodi:namedview
     pagecolor="#ffffff"
     bordercolor="#666666"
     borderopacity="1"
     objecttolerance="10"
     gridtolerance="10"
     guidetolerance="10"
     inkscape:pageopacity="0"
     inkscape:pageshadow="2"
     inkscape:window-width="1920"
     inkscape:window-height="1177"
     id="namedview11"
     showgrid="false"
     inkscape:zoom="2.4583333"
     inkscape:cx="-57.599166"
     inkscape:cy="61.544486"
     inkscape:window-x="1272"
     inkscape:window-y="-8"
     inkscape:window-maximized="1"
     inkscape:current-layer="svg4460"
     inkscape:document-rotation="0" />
  <defs
     id="defs4462" />
  <metadata
     id="metadata4465">
    <rdf:RDF>
      <cc:Work
         rdf:about="">
        <dc:format>image/svg+xml</dc:format>
        <dc:type
           rdf:resource="http://purl.org/dc/dcmitype/StillImage" />
        <dc:title />
      </cc:Work>
    </rdf:RDF>
  </metadata>
  <g
     transform="matrix(0,-0.61438032,0.61438032,0,-192.38003,63.295285)"
     id="g879"
     style="stroke-width:16.2766;stroke-miterlimit:4;stroke-dasharray:none" />
  <path
     style="color:#000000;font-style:normal;font-variant:normal;font-weight:normal;font-stretch:normal;font-size:medium;line-height:normal;font-family:sans-serif;font-variant-ligatures:normal;font-variant-position:normal;font-variant-caps:normal;font-variant-numeric:normal;font-variant-alternates:normal;font-feature-settings:normal;text-indent:0;text-align:start;text-decoration:none;text-decoration-line:none;text-decoration-style:solid;text-decoration-color:#000000;letter-spacing:normal;word-spacing:normal;text-transform:none;writing-mode:lr-tb;direction:ltr;text-orientation:mixed;dominant-baseline:auto;baseline-shift:baseline;text-anchor:start;white-space:normal;shape-padding:0;clip-rule:nonzero;display:inline;overflow:visible;visibility:visible;opacity:1;isolation:auto;mix-blend-mode:normal;color-interpolation:sRGB;color-interpolation-filters:linearRGB;solid-color:#000000;solid-opacity:1;vector-effect:none;fill:#000080;fill-opacity:1;fill-rule:nonzero;stroke:none;stroke-width:7;stroke-linecap:round;stroke-linejoin:round;stroke-miterlimit:4;stroke-dasharray:none;stroke-dashoffset:0;stroke-opacity:1;paint-order:normal;color-rendering:auto;image-rendering:auto;shape-rendering:auto;text-rendering:auto;enable-background:accumulate"
     d="M 49.931641 22.560547 A 4.725134 2.5930375 0 0 0 46.658203 23.320312 L 1.3828125 48.166016 A 4.725134 2.5930375 0 0 0 1.3828125 51.833984 L 46.658203 76.679688 A 4.725134 2.5930375 0 0 0 53.341797 76.679688 L 98.617188 51.833984 A 4.725134 2.5930375 0 0 0 98.617188 48.166016 L 53.341797 23.320312 A 4.725134 2.5930375 0 0 0 49.931641 22.560547 z M 50 28.820312 L 58.712891 33.601562 C 57.499544 34.062379 56.286802 34.635316 55.107422 35.306641 C 52.279708 36.916225 49.649179 39.080664 48.113281 41.943359 C 42.01562 40.983297 35.787111 40.405191 29.644531 39.990234 L 50 28.820312 z M 65.296875 37.214844 L 88.595703 50 L 80.957031 54.191406 C 73.143831 48.330286 63.626697 44.950881 53.515625 42.900391 C 54.533912 41.726436 55.967194 40.570426 57.580078 39.652344 C 60.010126 38.269117 62.817036 37.424651 64.542969 37.347656 A 2.50025 2.50025 0 0 0 65.296875 37.214844 z M 21.503906 44.458984 A 2.50025 2.50025 0 0 0 22.009766 44.537109 C 41.436062 45.607379 62.061195 47.515228 76.083984 56.865234 L 72.75 58.695312 C 65.157628 53.796164 56.448291 50.24059 45.621094 50.802734 C 39.164713 51.137948 31.950166 52.948354 23.78125 56.791016 L 11.40625 50 L 21.503906 44.458984 z M 48.761719 55.539062 C 56.031141 55.676918 62.039778 58.072508 67.722656 61.455078 L 50 71.179688 L 29.277344 59.806641 C 36.803127 56.66308 43.156504 55.432768 48.761719 55.539062 z "
     id="rect921" />
</svg>
