<?xml version="1.0" encoding="UTF-8" standalone="no"?>
<svg
   xmlns:dc="http://purl.org/dc/elements/1.1/"
   xmlns:cc="http://creativecommons.org/ns#"
   xmlns:rdf="http://www.w3.org/1999/02/22-rdf-syntax-ns#"
   xmlns:svg="http://www.w3.org/2000/svg"
   xmlns="http://www.w3.org/2000/svg"
   xmlns:sodipodi="http://sodipodi.sourceforge.net/DTD/sodipodi-0.dtd"
   xmlns:inkscape="http://www.inkscape.org/namespaces/inkscape"
   version="1.1"
   width="100"
   height="100"
   id="svg4460"
   inkscape:version="0.92.4 (5da689c313, 2019-01-14)"
   sodipodi:docname="uEAF4-layer-stat.svg">
  <sodipodi:namedview
     pagecolor="#ffffff"
     bordercolor="#666666"
     borderopacity="1"
     objecttolerance="10"
     gridtolerance="10"
     guidetolerance="10"
     inkscape:pageopacity="0"
     inkscape:pageshadow="2"
     inkscape:window-width="1920"
     inkscape:window-height="1177"
     id="namedview11"
     showgrid="false"
     inkscape:zoom="6.9532166"
     inkscape:cx="53.213513"
     inkscape:cy="43.345013"
     inkscape:window-x="1272"
     inkscape:window-y="-8"
     inkscape:window-maximized="1"
     inkscape:current-layer="svg4460"
     inkscape:document-rotation="0" />
  <defs
     id="defs4462" />
  <metadata
     id="metadata4465">
    <rdf:RDF>
      <cc:Work
         rdf:about="">
        <dc:format>image/svg+xml</dc:format>
        <dc:type
           rdf:resource="http://purl.org/dc/dcmitype/StillImage" />
        <dc:title />
      </cc:Work>
    </rdf:RDF>
  </metadata>
  <path
     style="color:#000000;font-style:normal;font-variant:normal;font-weight:normal;font-stretch:normal;font-size:medium;line-height:normal;font-family:sans-serif;font-variant-ligatures:normal;font-variant-position:normal;font-variant-caps:normal;font-variant-numeric:normal;font-variant-alternates:normal;font-feature-settings:normal;text-indent:0;text-align:start;text-decoration:none;text-decoration-line:none;text-decoration-style:solid;text-decoration-color:#000000;letter-spacing:normal;word-spacing:normal;text-transform:none;writing-mode:lr-tb;direction:ltr;text-orientation:mixed;dominant-baseline:auto;baseline-shift:baseline;text-anchor:start;white-space:normal;shape-padding:0;clip-rule:nonzero;display:inline;overflow:visible;visibility:visible;opacity:1;isolation:auto;mix-blend-mode:normal;color-interpolation:sRGB;color-interpolation-filters:linearRGB;solid-color:#000000;solid-opacity:1;vector-effect:none;fill:#000080;fill-opacity:1;fill-rule:nonzero;stroke:none;stroke-width:7;stroke-linecap:round;stroke-linejoin:round;stroke-miterlimit:4;stroke-dasharray:none;stroke-dashoffset:0;stroke-opacity:1;paint-order:normal;color-rendering:auto;image-rendering:auto;shape-rendering:auto;text-rendering:auto;enable-background:accumulate"
     d="M 49.931641 22.560547 A 4.725134 2.5930375 0 0 0 46.658203 23.320312 L 1.3828125 48.166016 A 4.725134 2.5930375 0 0 0 1.3828125 51.833984 L 46.658203 76.679688 A 4.725134 2.5930375 0 0 0 53.341797 76.679688 L 98.617188 51.833984 A 4.725134 2.5930375 0 0 0 98.617188 48.166016 L 53.341797 23.320312 A 4.725134 2.5930375 0 0 0 49.931641 22.560547 z M 50 28.820312 L 88.595703 50 L 50 71.179688 L 11.40625 50 L 50 28.820312 z M 59.730469 37.5 L 52.71875 48.248047 L 71.099609 48.4375 A 18.384775 11.628375 0 0 0 59.730469 37.5 z M 47.275391 38.294922 A 18.384775 11.628375 0 0 0 32.003906 43.455078 A 18.384775 11.628375 0 0 0 34.341797 58.181641 L 47.28125 49.921875 L 54.421875 39.207031 A 18.384775 11.628375 0 0 0 47.275391 38.294922 z M 48.65625 50.871094 L 35.474609 58.976562 A 18.384775 11.628375 0 0 0 55.572266 61.646484 A 18.384775 11.628375 0 0 0 67.041016 50.871094 L 48.65625 50.871094 z "
     id="rect921" />
</svg>
