<?xml version="1.0" encoding="UTF-8" standalone="no"?>
<svg
   xmlns:dc="http://purl.org/dc/elements/1.1/"
   xmlns:cc="http://creativecommons.org/ns#"
   xmlns:rdf="http://www.w3.org/1999/02/22-rdf-syntax-ns#"
   xmlns:svg="http://www.w3.org/2000/svg"
   xmlns="http://www.w3.org/2000/svg"
   xmlns:sodipodi="http://sodipodi.sourceforge.net/DTD/sodipodi-0.dtd"
   xmlns:inkscape="http://www.inkscape.org/namespaces/inkscape"
   version="1.1"
   width="100"
   height="100"
   id="svg4460"
   inkscape:version="0.92.4 (5da689c313, 2019-01-14)"
   sodipodi:docname="uEAF1-layer-hydro.svg">
  <sodipodi:namedview
     pagecolor="#ffffff"
     bordercolor="#666666"
     borderopacity="1"
     objecttolerance="10"
     gridtolerance="10"
     guidetolerance="10"
     inkscape:pageopacity="0"
     inkscape:pageshadow="2"
     inkscape:window-width="1920"
     inkscape:window-height="1177"
     id="namedview11"
     showgrid="false"
     inkscape:zoom="4.9166667"
     inkscape:cx="35.507926"
     inkscape:cy="40.735237"
     inkscape:window-x="1272"
     inkscape:window-y="-8"
     inkscape:window-maximized="1"
     inkscape:current-layer="svg4460"
     inkscape:document-rotation="0" />
  <defs
     id="defs4462" />
  <metadata
     id="metadata4465">
    <rdf:RDF>
      <cc:Work
         rdf:about="">
        <dc:format>image/svg+xml</dc:format>
        <dc:type
           rdf:resource="http://purl.org/dc/dcmitype/StillImage" />
        <dc:title />
      </cc:Work>
    </rdf:RDF>
  </metadata>
  <g
     transform="matrix(0,-0.61438032,0.61438032,0,-192.38003,63.295285)"
     id="g879"
     style="stroke-width:16.2766;stroke-miterlimit:4;stroke-dasharray:none" />
  <path
     style="color:#000000;font-style:normal;font-variant:normal;font-weight:normal;font-stretch:normal;font-size:medium;line-height:normal;font-family:sans-serif;font-variant-ligatures:normal;font-variant-position:normal;font-variant-caps:normal;font-variant-numeric:normal;font-variant-alternates:normal;font-feature-settings:normal;text-indent:0;text-align:start;text-decoration:none;text-decoration-line:none;text-decoration-style:solid;text-decoration-color:#000000;letter-spacing:normal;word-spacing:normal;text-transform:none;writing-mode:lr-tb;direction:ltr;text-orientation:mixed;dominant-baseline:auto;baseline-shift:baseline;text-anchor:start;white-space:normal;shape-padding:0;clip-rule:nonzero;display:inline;overflow:visible;visibility:visible;opacity:1;isolation:auto;mix-blend-mode:normal;color-interpolation:sRGB;color-interpolation-filters:linearRGB;solid-color:#000000;solid-opacity:1;vector-effect:none;fill:#000080;fill-opacity:1;fill-rule:nonzero;stroke:none;stroke-width:7;stroke-linecap:round;stroke-linejoin:round;stroke-miterlimit:4;stroke-dasharray:none;stroke-dashoffset:0;stroke-opacity:1;paint-order:normal;color-rendering:auto;image-rendering:auto;shape-rendering:auto;text-rendering:auto;enable-background:accumulate"
     d="m 49.931641,22.560547 c -1.229742,0.0098 -2.404051,0.282377 -3.273438,0.759765 L 1.3828125,48.166016 c -1.84632363,1.012742 -1.84632363,2.655226 0,3.667968 L 46.658203,76.679688 c 1.845422,1.0131 4.838172,1.0131 6.683594,0 L 98.617188,51.833984 c 1.846322,-1.012742 1.846322,-2.655226 0,-3.667968 L 53.341797,23.320312 C 52.438916,22.824536 51.208758,22.550463 49.931641,22.560547 Z M 50,28.820312 60.849609,34.773438 C 59.495233,36.755742 57.71177,38.502504 55.734375,40.451172 54.178852,41.984097 52.51738,43.653212 51,45.650391 50.426743,44.730309 49.747297,43.9015 48.980469,43.199219 46.811983,41.213262 41.93758,40.405401 39.188785,39.51189 36.922247,38.775139 33.176896,39.453947 34.425781,37.367188 Z m 15.244141,8.365235 19.234375,10.554687 c -6.378425,0.420049 -19.537118,2.1496 -27.648616,6.451047 -6.200812,-2.112669 -0.10864,-7.687199 2.414241,-10.179562 2.046547,-2.016816 4.244128,-4.116229 6,-6.826172 z M 25.130859,42.46875 c 4.97805,1.330905 10.209871,2.067843 14.123047,3.339844 2.239043,0.727813 3.975568,1.616321 4.998047,2.552734 1.022479,0.936414 1.503548,1.771692 1.582031,3.476563 0.177907,3.86459 1.019902,7.178712 2.044922,9.888671 -1.228605,3.637922 -2.826774,5.336206 -3.943359,6.125 L 11.40625,50 Z"
     id="rect921"
     inkscape:connector-curvature="0"
     sodipodi:nodetypes="ccccccccccccscssccccccccssscccc" />
</svg>
