<?xml version="1.0" encoding="UTF-8" standalone="no"?>
<svg
   xmlns:dc="http://purl.org/dc/elements/1.1/"
   xmlns:cc="http://creativecommons.org/ns#"
   xmlns:rdf="http://www.w3.org/1999/02/22-rdf-syntax-ns#"
   xmlns:svg="http://www.w3.org/2000/svg"
   xmlns="http://www.w3.org/2000/svg"
   xmlns:sodipodi="http://sodipodi.sourceforge.net/DTD/sodipodi-0.dtd"
   xmlns:inkscape="http://www.inkscape.org/namespaces/inkscape"
   sodipodi:docname="uEB2E-layer-alt-edit.svg"
   inkscape:version="0.92.4 (5da689c313, 2019-01-14)"
   id="svg4460"
   height="100"
   width="100"
   version="1.1">
  <sodipodi:namedview
     inkscape:document-rotation="0"
     inkscape:current-layer="svg4460"
     inkscape:window-maximized="1"
     inkscape:window-y="-8"
     inkscape:window-x="1272"
     inkscape:cy="-6.5247584"
     inkscape:cx="240.98229"
     inkscape:zoom="1.7383042"
     showgrid="false"
     id="namedview11"
     inkscape:window-height="1177"
     inkscape:window-width="1920"
     inkscape:pageshadow="2"
     inkscape:pageopacity="0"
     guidetolerance="10"
     gridtolerance="10"
     objecttolerance="10"
     borderopacity="1"
     bordercolor="#666666"
     pagecolor="#ffffff" />
  <defs
     id="defs4462" />
  <metadata
     id="metadata4465">
    <rdf:RDF>
      <cc:Work
         rdf:about="">
        <dc:format>image/svg+xml</dc:format>
        <dc:type
           rdf:resource="http://purl.org/dc/dcmitype/StillImage" />
        <dc:title />
      </cc:Work>
    </rdf:RDF>
  </metadata>
  <path
     style="color:#000000;font-style:normal;font-variant:normal;font-weight:normal;font-stretch:normal;font-size:medium;line-height:normal;font-family:sans-serif;font-variant-ligatures:normal;font-variant-position:normal;font-variant-caps:normal;font-variant-numeric:normal;font-variant-alternates:normal;font-feature-settings:normal;text-indent:0;text-align:start;text-decoration:none;text-decoration-line:none;text-decoration-style:solid;text-decoration-color:#000000;letter-spacing:normal;word-spacing:normal;text-transform:none;writing-mode:lr-tb;direction:ltr;text-orientation:mixed;dominant-baseline:auto;baseline-shift:baseline;text-anchor:start;white-space:normal;shape-padding:0;clip-rule:nonzero;display:inline;overflow:visible;visibility:visible;opacity:1;isolation:auto;mix-blend-mode:normal;color-interpolation:sRGB;color-interpolation-filters:linearRGB;solid-color:#000000;solid-opacity:1;vector-effect:none;fill:#000080;fill-opacity:1;fill-rule:nonzero;stroke:none;stroke-width:7;stroke-linecap:round;stroke-linejoin:round;stroke-miterlimit:4;stroke-dasharray:none;stroke-dashoffset:0;stroke-opacity:1;paint-order:normal;color-rendering:auto;image-rendering:auto;shape-rendering:auto;text-rendering:auto;enable-background:accumulate"
     d="m 50.048828,24.035156 c -1.270371,-0.0072 -2.492495,0.266668 -3.390625,0.759766 L 1.3828125,49.640625 c -1.84632485,1.012742 -1.84632485,2.655227 0,3.667969 L 46.658203,78.154297 c 1.845422,1.0131 4.838172,1.0131 6.683594,0 L 98.617188,53.308594 c 1.846322,-1.012742 1.846322,-2.655227 0,-3.667969 L 79.265625,39.021484 74.835938,43.923828 88.595703,51.474609 50,72.654297 11.40625,51.474609 50,30.294922 l 0.779297,0.427734 4.490234,-4.86914 -1.927734,-1.058594 C 52.467592,24.314959 51.285359,24.04219 50.048828,24.035156 Z m -45.3222655,36.822266 -3.34375,1.833984 c -1.84632485,1.012742 -1.84632485,2.655227 0,3.667969 L 46.658203,91.205078 c 1.845422,1.0131 4.838172,1.0131 6.683594,0 L 98.617188,66.359375 c 1.845782,-1.013039 1.844912,-2.655523 -0.002,-3.667969 l -3.341796,-1.833984 -6.683594,3.666016 0.0039,0.002 L 50,85.705078 11.404297,64.525391 l 0.0039,-0.002 z"
     id="path884"
     inkscape:connector-curvature="0"
     sodipodi:nodetypes="cccccccccccccccccccccccccccccccc" />
  <path
     style="color:#000000;font-style:normal;font-variant:normal;font-weight:normal;font-stretch:normal;font-size:medium;line-height:normal;font-family:sans-serif;font-variant-ligatures:normal;font-variant-position:normal;font-variant-caps:normal;font-variant-numeric:normal;font-variant-alternates:normal;font-feature-settings:normal;text-indent:0;text-align:start;text-decoration:none;text-decoration-line:none;text-decoration-style:solid;text-decoration-color:#000000;letter-spacing:normal;word-spacing:normal;text-transform:none;writing-mode:lr-tb;direction:ltr;text-orientation:mixed;dominant-baseline:auto;baseline-shift:baseline;text-anchor:start;white-space:normal;shape-padding:0;clip-rule:nonzero;display:inline;overflow:visible;visibility:visible;opacity:1;isolation:auto;mix-blend-mode:normal;color-interpolation:sRGB;color-interpolation-filters:linearRGB;solid-color:#000000;solid-opacity:1;vector-effect:none;fill:#000080;fill-opacity:1;fill-rule:nonzero;stroke:none;stroke-width:5.95278072;stroke-linecap:round;stroke-linejoin:round;stroke-miterlimit:4;stroke-dasharray:none;stroke-dashoffset:4;stroke-opacity:1;paint-order:normal;color-rendering:auto;image-rendering:auto;shape-rendering:auto;text-rendering:auto;enable-background:accumulate"
     d="m 90.361283,0.87164175 c -1.16242,-1.162189 -3.04683,-1.162189 -4.209251,0 L 51.341851,35.681822 c -0.290548,0.290606 -0.507491,0.626607 -0.652762,0.9849 l -4.75514,16.623255 c -0.217836,0.686904 0.116758,0.980278 0.858293,0.753061 l 16.541043,-4.73212 c 0.358292,-0.145273 0.694294,-0.362215 0.984898,-0.652763 L 99.128365,13.847974 c 1.162185,-1.16242 1.162185,-3.04683 0,-4.2092512 z m -7.576652,11.78590325 4.55783,4.55783 -25.128904,25.128903 -4.557828,-4.55783 z"
     id="rect812"
     inkscape:connector-curvature="0" />
  <path
     style="color:#000000;font-style:normal;font-variant:normal;font-weight:normal;font-stretch:normal;font-size:medium;line-height:normal;font-family:sans-serif;font-variant-ligatures:normal;font-variant-position:normal;font-variant-caps:normal;font-variant-numeric:normal;font-variant-alternates:normal;font-feature-settings:normal;text-indent:0;text-align:start;text-decoration:none;text-decoration-line:none;text-decoration-style:solid;text-decoration-color:#000000;letter-spacing:normal;word-spacing:normal;text-transform:none;writing-mode:lr-tb;direction:ltr;text-orientation:mixed;dominant-baseline:auto;baseline-shift:baseline;text-anchor:start;white-space:normal;shape-padding:0;clip-rule:nonzero;display:inline;overflow:visible;visibility:visible;opacity:1;isolation:auto;mix-blend-mode:normal;color-interpolation:sRGB;color-interpolation-filters:linearRGB;solid-color:#000000;solid-opacity:1;vector-effect:none;fill:#000080;fill-opacity:1;fill-rule:nonzero;stroke:none;stroke-width:5.95278072;stroke-linecap:round;stroke-linejoin:round;stroke-miterlimit:4;stroke-dasharray:none;stroke-dashoffset:4;stroke-opacity:1;paint-order:normal;color-rendering:auto;image-rendering:auto;shape-rendering:auto;text-rendering:auto;enable-background:accumulate"
     d="m 90.361283,0.87164175 c -1.16242,-1.162189 -3.04683,-1.162189 -4.209251,0 L 51.341851,35.681822 c -0.290548,0.290606 -0.507491,0.626607 -0.652762,0.9849 l -4.75514,16.623255 c -0.217836,0.686904 0.116758,0.980278 0.858293,0.753061 l 16.541043,-4.73212 c 0.358292,-0.145273 0.694294,-0.362215 0.984898,-0.652763 L 99.128365,13.847974 c 1.162185,-1.16242 1.162185,-3.04683 0,-4.2092512 z m -7.576652,11.78590325 4.55783,4.55783 -25.128904,25.128903 -4.557828,-4.55783 z"
     id="rect812-3"
     inkscape:connector-curvature="0" />
</svg>
