<?xml version="1.0" encoding="UTF-8" standalone="no"?>
<svg
   xmlns:dc="http://purl.org/dc/elements/1.1/"
   xmlns:cc="http://creativecommons.org/ns#"
   xmlns:rdf="http://www.w3.org/1999/02/22-rdf-syntax-ns#"
   xmlns:svg="http://www.w3.org/2000/svg"
   xmlns="http://www.w3.org/2000/svg"
   xmlns:sodipodi="http://sodipodi.sourceforge.net/DTD/sodipodi-0.dtd"
   xmlns:inkscape="http://www.inkscape.org/namespaces/inkscape"
   version="1.1"
   width="100"
   height="100"
   id="svg4460"
   inkscape:version="1.0 (4035a4fb49, 2020-05-01)"
   sodipodi:docname="uEB41-layer-height.svg">
  <sodipodi:namedview
     pagecolor="#ffffff"
     bordercolor="#666666"
     borderopacity="1"
     objecttolerance="10"
     gridtolerance="10"
     guidetolerance="10"
     inkscape:pageopacity="0"
     inkscape:pageshadow="2"
     inkscape:window-width="1920"
     inkscape:window-height="1017"
     id="namedview11"
     showgrid="false"
     inkscape:zoom="9.8333334"
     inkscape:cx="61.621737"
     inkscape:cy="55.759685"
     inkscape:window-x="-8"
     inkscape:window-y="-8"
     inkscape:window-maximized="1"
     inkscape:current-layer="svg4460"
     inkscape:document-rotation="0" />
  <defs
     id="defs4462" />
  <metadata
     id="metadata4465">
    <rdf:RDF>
      <cc:Work
         rdf:about="">
        <dc:format>image/svg+xml</dc:format>
        <dc:type
           rdf:resource="http://purl.org/dc/dcmitype/StillImage" />
        <dc:title />
      </cc:Work>
    </rdf:RDF>
  </metadata>
  <path
     d="M 50.048828 16.035156 A 4.725134 2.5930375 0 0 0 46.658203 16.794922 L 1.3828125 41.640625 A 4.725134 2.5930375 0 0 0 1.3828125 45.308594 L 46.658203 70.154297 A 4.725134 2.5930375 0 0 0 53.341797 70.154297 L 98.617188 45.308594 A 4.725134 2.5930375 0 0 0 98.617188 41.640625 L 53.341797 16.794922 A 4.725134 2.5930375 0 0 0 50.048828 16.035156 z M 50 22.294922 L 58.128906 26.755859 C 55.088453 28.634879 50.748121 30.825507 49.921875 31.238281 C 48.515429 30.679897 46.452835 29.57748 44.710938 28.542969 C 43.379804 27.75241 42.447394 27.15858 41.845703 26.769531 L 50 22.294922 z M 39.039062 28.310547 A 1.5 1.5 0 0 0 39.525391 28.839844 C 39.525391 28.839844 41.143504 29.913759 43.179688 31.123047 C 44.264102 31.767081 45.448586 32.4419 46.611328 33.035156 L 40.105469 36.605469 C 38.85164 36.292796 36.738672 35.218712 35.035156 34.121094 C 33.619483 33.208939 32.662161 32.49045 32.144531 32.09375 L 39.039062 28.310547 z M 60.964844 28.3125 L 66.84375 31.539062 C 64.219647 32.141587 61.278247 32.462603 59.824219 32.646484 C 58.127985 32.02892 56.537957 31.94569 55.115234 31.925781 C 56.914026 30.963461 58.905359 29.858688 60.464844 28.849609 A 1.5 1.5 0 0 0 60.964844 28.3125 z M 70.550781 33.572266 L 77.371094 37.314453 C 76.384383 37.765128 74.895031 38.289071 73.457031 38.71875 C 71.953139 39.168118 70.640724 39.516655 69.626953 39.816406 C 67.864316 38.39936 66.072502 36.633995 64.101562 35.125 C 66.168494 34.809706 68.560387 34.333758 70.546875 33.574219 A 1.5 1.5 0 0 0 70.550781 33.572266 z M 29.388672 33.605469 A 1.5 1.5 0 0 0 29.771484 34.060547 C 29.771484 34.060547 31.363993 35.324184 33.410156 36.642578 C 34.413661 37.289162 35.502484 37.962841 36.625 38.515625 L 30.578125 41.833984 C 29.117649 41.306155 27.2654 40.487871 25.658203 39.632812 C 24.745771 39.147382 23.914206 38.653251 23.302734 38.226562 C 22.718152 37.818639 22.36016 37.404872 22.376953 37.453125 L 29.388672 33.605469 z M 59.357422 35.705078 C 61.472431 36.673736 63.714331 38.771567 66.123047 40.826172 C 65.643835 40.960227 65.203497 41.07832 64.673828 41.236328 C 63.173754 41.683823 61.522365 42.241098 59.986328 42.945312 C 58.764026 41.61322 57.525218 39.935917 56.183594 38.349609 C 55.463692 37.498414 54.703319 36.667373 53.867188 35.947266 C 54.447207 35.867327 55.029578 35.805186 55.597656 35.777344 C 57.054399 35.705947 58.289118 35.782881 59.357422 35.705078 z M 50.154297 37.105469 C 51.345332 37.60243 52.605915 38.765788 53.892578 40.287109 C 54.983888 41.577449 56.078245 43.070374 57.287109 44.449219 C 55.936415 45.336526 54.545509 46.406127 53.255859 47.447266 C 51.922418 48.523758 50.829633 49.446044 49.992188 50.136719 C 47.755603 48.286852 45.454704 45.936666 42.787109 44.34375 C 43.593939 43.424467 44.52573 42.328796 45.580078 41.189453 C 47.11063 39.535519 48.851871 37.908238 50.154297 37.105469 z M 19.740234 38.900391 A 1.5 1.5 0 0 0 19.751953 38.923828 C 20.215146 39.734416 20.825157 40.154669 21.585938 40.685547 C 22.346718 41.216425 23.260546 41.755881 24.248047 42.28125 C 25.273305 42.826707 26.367757 43.353118 27.433594 43.816406 C 27.061547 44.052205 26.783381 44.239949 26.361328 44.496094 C 24.412663 45.678742 21.983725 46.961825 20.662109 47.322266 A 1.5 1.5 0 0 0 19.742188 48.048828 L 11.40625 43.474609 L 19.740234 38.900391 z M 80.261719 38.900391 L 88.595703 43.474609 L 80.261719 48.048828 A 1.5 1.5 0 0 0 79.851562 47.572266 L 72.595703 42.085938 C 73.26354 41.898985 73.56848 41.815279 74.316406 41.591797 C 76.28693 41.002998 78.315144 40.359646 79.751953 39.445312 A 1.5 1.5 0 0 0 80.261719 38.900391 z M 43.330078 39.205078 C 41.873601 40.782337 40.681561 42.178362 39.90625 43.03125 C 38.348909 42.572169 36.886201 42.523546 35.578125 42.509766 L 40.712891 39.693359 C 41.673696 39.716382 42.544423 39.516362 43.330078 39.205078 z M 68.994141 43.125 L 77.505859 49.560547 L 70.611328 53.34375 A 1.5 1.5 0 0 0 70.337891 52.984375 L 62.285156 45.226562 C 63.341741 44.80753 64.464799 44.429467 65.53125 44.111328 C 66.910719 43.699812 68.058117 43.399622 68.994141 43.125 z M 30.958984 45.109375 C 32.602608 45.52241 34.123272 45.494329 35.482422 45.507812 C 36.225664 45.515187 36.918817 45.535047 37.59375 45.613281 C 36.879846 46.463633 36.078632 47.432136 35.185547 48.419922 C 33.48141 50.304762 31.487241 52.113714 30.128906 52.679688 A 1.5 1.5 0 0 0 29.390625 53.34375 L 22.828125 49.742188 C 24.515265 49.066867 26.32558 48.026971 27.917969 47.060547 C 29.4245 46.14623 30.423592 45.47448 30.958984 45.109375 z M 40.703125 46.613281 C 42.868401 47.814464 45.166521 50.053013 47.640625 52.101562 C 46.790832 52.856638 45.802968 53.758292 44.712891 54.679688 C 42.913777 56.200398 40.853462 57.634378 39.908203 57.927734 A 1.5 1.5 0 0 0 39.039062 58.638672 L 32.296875 54.939453 C 34.184719 53.864718 35.879564 52.126693 37.412109 50.431641 C 38.724216 48.9804 39.92186 47.520599 40.703125 46.613281 z M 59.431641 46.640625 L 67.921875 54.820312 L 60.962891 58.638672 A 1.5 1.5 0 0 0 60.277344 57.998047 C 59.357554 57.573529 56.82739 55.734543 54.771484 54.083984 C 53.836874 53.333644 53.016365 52.649629 52.347656 52.087891 C 53.159534 51.411172 54.077844 50.639238 55.140625 49.78125 C 56.567563 48.629277 58.118742 47.461589 59.431641 46.640625 z M 50.007812 54.041016 C 50.69974 54.628641 51.648341 55.423339 52.894531 56.423828 C 54.640734 57.825746 56.509963 59.299017 58.082031 60.21875 L 50 64.654297 L 42.033203 60.283203 C 43.608171 59.500864 45.151773 58.235767 46.648438 56.970703 C 48.019008 55.812221 49.164027 54.780924 50.007812 54.041016 z "
     style="color:#000000;font-style:normal;font-variant:normal;font-weight:normal;font-stretch:normal;font-size:medium;line-height:normal;font-family:sans-serif;font-variant-ligatures:normal;font-variant-position:normal;font-variant-caps:normal;font-variant-numeric:normal;font-variant-alternates:normal;font-variant-east-asian:normal;font-feature-settings:normal;font-variation-settings:normal;text-indent:0;text-align:start;text-decoration:none;text-decoration-line:none;text-decoration-style:solid;text-decoration-color:#000000;letter-spacing:normal;word-spacing:normal;text-transform:none;writing-mode:lr-tb;direction:ltr;text-orientation:mixed;dominant-baseline:auto;baseline-shift:baseline;text-anchor:start;white-space:normal;shape-padding:0;shape-margin:0;inline-size:0;clip-rule:nonzero;display:inline;overflow:visible;visibility:visible;opacity:1;isolation:auto;mix-blend-mode:normal;color-interpolation:sRGB;color-interpolation-filters:linearRGB;solid-color:#000000;solid-opacity:1;vector-effect:none;fill:#000080;fill-opacity:1;fill-rule:nonzero;stroke:none;stroke-width:7;stroke-linecap:round;stroke-linejoin:round;stroke-miterlimit:4;stroke-dasharray:none;stroke-dashoffset:0;stroke-opacity:1;paint-order:normal;color-rendering:auto;image-rendering:auto;shape-rendering:auto;text-rendering:auto;enable-background:accumulate;stop-color:#000000;stop-opacity:1"
     id="path884" />
</svg>
