<?xml version="1.0" encoding="UTF-8" standalone="no"?>
<svg
   xmlns:dc="http://purl.org/dc/elements/1.1/"
   xmlns:cc="http://creativecommons.org/ns#"
   xmlns:rdf="http://www.w3.org/1999/02/22-rdf-syntax-ns#"
   xmlns:svg="http://www.w3.org/2000/svg"
   xmlns="http://www.w3.org/2000/svg"
   xmlns:sodipodi="http://sodipodi.sourceforge.net/DTD/sodipodi-0.dtd"
   xmlns:inkscape="http://www.inkscape.org/namespaces/inkscape"
   sodipodi:docname="uEB41-layer-height.svg"
   inkscape:version="1.0 (4035a4fb49, 2020-05-01)"
   id="svg4460"
   height="100"
   width="100"
   version="1.1">
  <sodipodi:namedview
     inkscape:document-rotation="0"
     inkscape:current-layer="svg4460"
     inkscape:window-maximized="1"
     inkscape:window-y="-8"
     inkscape:window-x="-8"
     inkscape:cy="27.872888"
     inkscape:cx="17.854546"
     inkscape:zoom="4.9166667"
     showgrid="false"
     id="namedview11"
     inkscape:window-height="1017"
     inkscape:window-width="1920"
     inkscape:pageshadow="2"
     inkscape:pageopacity="0"
     guidetolerance="10"
     gridtolerance="10"
     objecttolerance="10"
     borderopacity="1"
     bordercolor="#666666"
     pagecolor="#ffffff" />
  <defs
     id="defs4462" />
  <metadata
     id="metadata4465">
    <rdf:RDF>
      <cc:Work
         rdf:about="">
        <dc:format>image/svg+xml</dc:format>
        <dc:type
           rdf:resource="http://purl.org/dc/dcmitype/StillImage" />
        <dc:title />
      </cc:Work>
    </rdf:RDF>
  </metadata>
  <path
     id="path884"
     style="color:#000000;font-style:normal;font-variant:normal;font-weight:normal;font-stretch:normal;font-size:medium;line-height:normal;font-family:sans-serif;font-variant-ligatures:normal;font-variant-position:normal;font-variant-caps:normal;font-variant-numeric:normal;font-variant-alternates:normal;font-variant-east-asian:normal;font-feature-settings:normal;font-variation-settings:normal;text-indent:0;text-align:start;text-decoration:none;text-decoration-line:none;text-decoration-style:solid;text-decoration-color:#000000;letter-spacing:normal;word-spacing:normal;text-transform:none;writing-mode:lr-tb;direction:ltr;text-orientation:mixed;dominant-baseline:auto;baseline-shift:baseline;text-anchor:start;white-space:normal;shape-padding:0;shape-margin:0;inline-size:0;clip-rule:nonzero;display:inline;overflow:visible;visibility:visible;opacity:1;isolation:auto;mix-blend-mode:normal;color-interpolation:sRGB;color-interpolation-filters:linearRGB;solid-color:#000000;solid-opacity:1;vector-effect:none;fill:#000080;fill-opacity:1;fill-rule:nonzero;stroke:none;stroke-width:7;stroke-linecap:round;stroke-linejoin:round;stroke-miterlimit:4;stroke-dasharray:none;stroke-dashoffset:0;stroke-opacity:1;paint-order:normal;color-rendering:auto;image-rendering:auto;shape-rendering:auto;text-rendering:auto;enable-background:accumulate;stop-color:#000000;stop-opacity:1"
     d="m 50.048828,22.560586 a 4.725134,2.5930375 0 0 0 -3.390625,0.759766 L 1.3828123,48.166055 a 4.725134,2.5930375 0 0 0 0,3.667969 L 46.658203,76.679727 a 4.725134,2.5930375 0 0 0 6.683594,0 L 98.617188,51.834024 a 4.725134,2.5930375 0 0 0 0,-3.667969 L 53.341797,23.320352 A 4.725134,2.5930375 0 0 0 50.048828,22.560586 Z M 50,28.820352 l 8.128906,4.460937 c -3.040453,1.87902 -7.380785,4.069648 -8.207031,4.482422 -1.406446,-0.558384 -3.46904,-1.660801 -5.210937,-2.695312 -1.331134,-0.790559 -2.263544,-1.384389 -2.865235,-1.773438 z m -10.960938,6.015625 a 1.5,1.5 0 0 0 0.486329,0.529297 c 0,0 1.618113,1.073915 3.654297,2.283203 1.084414,0.644034 2.268898,1.318853 3.43164,1.912109 l -6.505859,3.570313 C 38.85164,42.818226 36.738672,41.744142 35.035156,40.646524 33.619483,39.734369 32.662161,39.01588 32.144531,38.61918 Z m 21.925782,0.002 5.878906,3.226562 c -2.624103,0.602525 -5.565503,0.923541 -7.019531,1.107422 -1.696234,-0.617564 -3.286262,-0.700794 -4.708985,-0.720703 1.798792,-0.96232 3.790125,-2.067093 5.34961,-3.076172 a 1.5,1.5 0 0 0 0.5,-0.537109 z m 9.585937,5.259766 6.820313,3.742187 c -0.986711,0.450675 -2.476063,0.974618 -3.914063,1.404297 -1.503892,0.449368 -2.816307,0.797905 -3.830078,1.097656 -1.762637,-1.417046 -3.554451,-3.182411 -5.525391,-4.691406 2.066932,-0.315294 4.458825,-0.791242 6.445313,-1.550781 a 1.5,1.5 0 0 0 0.0039,-0.002 z m -41.162109,0.0332 a 1.5,1.5 0 0 0 0.382812,0.455078 c 0,0 1.592509,1.263637 3.638672,2.582031 1.003505,0.646584 2.092328,1.320263 3.214844,1.873047 l -6.046875,3.318359 c -1.460476,-0.527829 -3.312725,-1.346113 -4.919922,-2.201172 -0.912432,-0.48543 -1.743997,-0.979561 -2.355469,-1.40625 -0.584582,-0.407923 -0.942574,-0.82169 -0.925781,-0.773437 z m 29.96875,2.099609 c 2.115009,0.968658 4.356909,3.066489 6.765625,5.121094 -0.479212,0.134055 -0.91955,0.252148 -1.449219,0.410156 -1.500074,0.447495 -3.151463,1.00477 -4.6875,1.708984 -1.222302,-1.332092 -2.46111,-3.009395 -3.802734,-4.595703 -0.719902,-0.851195 -1.480275,-1.682236 -2.316406,-2.402343 0.580019,-0.07994 1.16239,-0.14208 1.730468,-0.169922 1.456743,-0.0714 2.691462,0.0055 3.759766,-0.07227 z m -9.203125,1.400391 c 1.191035,0.496961 2.451618,1.660319 3.738281,3.18164 1.09131,1.29034 2.185667,2.783265 3.394531,4.16211 -1.350694,0.887307 -2.7416,1.956908 -4.03125,2.998047 -1.333441,1.076492 -2.426226,1.998778 -3.263671,2.689453 -2.236585,-1.849867 -4.537484,-4.200053 -7.205079,-5.792969 0.80683,-0.919283 1.738621,-2.014954 2.792969,-3.154297 1.530552,-1.653934 3.271793,-3.281215 4.574219,-4.083984 z m -30.414063,1.794922 a 1.5,1.5 0 0 0 0.01172,0.02344 c 0.463193,0.810588 1.073204,1.230841 1.833985,1.761719 0.76078,0.530878 1.674608,1.070334 2.662109,1.595703 1.025258,0.545457 2.11971,1.071868 3.185547,1.535156 -0.372047,0.235799 -0.650213,0.423543 -1.072266,0.679688 -1.948665,1.182648 -4.377603,2.465731 -5.699219,2.826172 a 1.5,1.5 0 0 0 -0.919921,0.726562 L 11.40625,50.000039 Z m 60.521485,0 8.333984,4.574218 -8.333984,4.574219 A 1.5,1.5 0 0 0 79.851562,54.09774 l -7.255859,-5.486328 c 0.667837,-0.186953 0.972777,-0.270659 1.720703,-0.494141 1.970524,-0.588799 3.998738,-1.232151 5.435547,-2.146485 a 1.5,1.5 0 0 0 0.509766,-0.544921 z m -36.931641,0.304687 c -1.456477,1.577259 -2.648517,2.973284 -3.423828,3.826172 -1.557341,-0.459081 -3.020049,-0.507704 -4.328125,-0.521484 l 5.134766,-2.816407 c 0.960805,0.02302 1.831532,-0.176997 2.617187,-0.488281 z m 25.664063,3.919922 8.511718,6.435547 -6.894531,3.783203 a 1.5,1.5 0 0 0 -0.273437,-0.359375 l -8.052735,-7.757813 c 1.056585,-0.419032 2.179643,-0.797095 3.246094,-1.115234 1.379469,-0.411516 2.526867,-0.711706 3.462891,-0.986328 z m -38.035157,1.984375 c 1.643624,0.413035 3.164288,0.384954 4.523438,0.398437 0.743242,0.0074 1.436395,0.02723 2.111328,0.105469 -0.713904,0.850352 -1.515118,1.818855 -2.408203,2.806641 -1.704137,1.88484 -3.698306,3.693792 -5.056641,4.259766 a 1.5,1.5 0 0 0 -0.738281,0.664062 l -6.5625,-3.601562 c 1.68714,-0.675321 3.497455,-1.715217 5.089844,-2.681641 1.506531,-0.914317 2.505623,-1.586067 3.041015,-1.951172 z m 9.744141,1.503906 c 2.165276,1.201183 4.463396,3.439732 6.9375,5.488281 -0.849793,0.755076 -1.837657,1.65673 -2.927734,2.578126 -1.799114,1.52071 -3.859429,2.95469 -4.804688,3.248046 a 1.5,1.5 0 0 0 -0.869141,0.710938 l -6.742187,-3.699219 c 1.887844,-1.074735 3.582689,-2.81276 5.115234,-4.507812 1.312107,-1.451241 2.509751,-2.911042 3.291016,-3.81836 z m 18.728516,0.02734 8.490234,8.179687 -6.958984,3.81836 a 1.5,1.5 0 0 0 -0.685547,-0.640625 c -0.91979,-0.424518 -3.449954,-2.263504 -5.50586,-3.914063 -0.93461,-0.75034 -1.755119,-1.434355 -2.423828,-1.996093 0.811878,-0.676719 1.730188,-1.448653 2.792969,-2.306641 1.426938,-1.151973 2.978117,-2.319661 4.291016,-3.140625 z m -9.423829,7.400391 c 0.691928,0.587625 1.640529,1.382323 2.886719,2.382812 1.746203,1.401918 3.615432,2.875189 5.1875,3.794922 L 50,71.179727 42.033203,66.808633 c 1.574968,-0.782339 3.11857,-2.047436 4.615235,-3.3125 1.37057,-1.158482 2.515589,-2.189779 3.359374,-2.929687 z" />
</svg>
