<?xml version="1.0" encoding="UTF-8" standalone="no"?>
<svg
   xmlns:dc="http://purl.org/dc/elements/1.1/"
   xmlns:cc="http://creativecommons.org/ns#"
   xmlns:rdf="http://www.w3.org/1999/02/22-rdf-syntax-ns#"
   xmlns:svg="http://www.w3.org/2000/svg"
   xmlns="http://www.w3.org/2000/svg"
   xmlns:sodipodi="http://sodipodi.sourceforge.net/DTD/sodipodi-0.dtd"
   xmlns:inkscape="http://www.inkscape.org/namespaces/inkscape"
   sodipodi:docname="uEB46-layer-2-add-o.svg"
   inkscape:version="1.0 (4035a4fb49, 2020-05-01)"
   id="svg4460"
   height="100"
   width="100"
   version="1.1">
  <sodipodi:namedview
     inkscape:document-rotation="0"
     inkscape:current-layer="svg4460"
     inkscape:window-maximized="1"
     inkscape:window-y="-8"
     inkscape:window-x="-8"
     inkscape:cy="43.101023"
     inkscape:cx="53.520372"
     inkscape:zoom="5.3810826"
     showgrid="false"
     id="namedview11"
     inkscape:window-height="1017"
     inkscape:window-width="1920"
     inkscape:pageshadow="2"
     inkscape:pageopacity="0"
     guidetolerance="10"
     gridtolerance="10"
     objecttolerance="10"
     borderopacity="1"
     bordercolor="#666666"
     pagecolor="#ffffff" />
  <defs
     id="defs4462" />
  <metadata
     id="metadata4465">
    <rdf:RDF>
      <cc:Work
         rdf:about="">
        <dc:format>image/svg+xml</dc:format>
        <dc:type
           rdf:resource="http://purl.org/dc/dcmitype/StillImage" />
        <dc:title />
      </cc:Work>
    </rdf:RDF>
  </metadata>
  <path
     id="path951"
     style="color:#000000;font-style:normal;font-variant:normal;font-weight:normal;font-stretch:normal;font-size:medium;line-height:normal;font-family:sans-serif;font-variant-ligatures:normal;font-variant-position:normal;font-variant-caps:normal;font-variant-numeric:normal;font-variant-alternates:normal;font-feature-settings:normal;text-indent:0;text-align:start;text-decoration:none;text-decoration-line:none;text-decoration-style:solid;text-decoration-color:#000000;letter-spacing:normal;word-spacing:normal;text-transform:none;writing-mode:lr-tb;direction:ltr;text-orientation:mixed;dominant-baseline:auto;baseline-shift:baseline;text-anchor:start;white-space:normal;shape-padding:0;clip-rule:nonzero;display:inline;overflow:visible;visibility:visible;opacity:1;isolation:auto;mix-blend-mode:normal;color-interpolation:sRGB;color-interpolation-filters:linearRGB;solid-color:#000000;solid-opacity:1;vector-effect:none;fill:#000080;fill-opacity:1;fill-rule:nonzero;stroke:none;stroke-width:7;stroke-linecap:round;stroke-linejoin:round;stroke-miterlimit:4;stroke-dasharray:none;stroke-dashoffset:0;stroke-opacity:1;color-rendering:auto;image-rendering:auto;shape-rendering:auto;text-rendering:auto;enable-background:accumulate"
     d="m 80.499984,10.796889 c -7.14502,0 -13.252355,4.246318 -15.976558,10.357422 H 28.134754 c -1.027378,-1.4e-5 -2.002889,0.451321 -2.667969,1.234375 L 0.832019,51.404311 c -1.930688,2.274369 -0.313417,5.766823 2.669922,5.765625 l 93.000003,-0.06445 c 2.9815,-0.0021 4.595506,-3.492654 2.66601,-5.765625 l -7.86914,-9.271488 c 4.0793,-3.198433 6.70117,-8.16289 6.70117,-13.771484 0,-9.694595 -7.8054,-17.5 -17.5,-17.5 z m -3.5,5 h 7 v 9 h 9 v 7 h -9 v 9 h -7 v -9 h -8.999996 v -7 h 8.999996 z M 29.753894,28.154311 H 63.0078 C 63.007416,28.202361 63,28.248751 63,28.296889 c 0,9.694595 7.805405,17.5 17.499996,17.5 1.49153,0 2.93,-0.204768 4.31055,-0.552734 l 4.13086,4.867187 -77.873047,0.05273 z m 60.15625,33.955078 -9.17773,0.0078 8.21093,9.669922 -77.874997,0.05273 8.21875,-9.681641 -9.1875,0.0078 -9.267578,10.914062 c -1.930688,2.274369 -0.313417,5.766823 2.669922,5.765625 l 93.000003,-0.06445 c 2.9815,-0.0021 4.595506,-3.492654 2.66601,-5.765625 z" />
</svg>
