<?xml version="1.0" encoding="UTF-8" standalone="no"?>
<svg
   xmlns:dc="http://purl.org/dc/elements/1.1/"
   xmlns:cc="http://creativecommons.org/ns#"
   xmlns:rdf="http://www.w3.org/1999/02/22-rdf-syntax-ns#"
   xmlns:svg="http://www.w3.org/2000/svg"
   xmlns="http://www.w3.org/2000/svg"
   xmlns:sodipodi="http://sodipodi.sourceforge.net/DTD/sodipodi-0.dtd"
   xmlns:inkscape="http://www.inkscape.org/namespaces/inkscape"
   sodipodi:docname="uEB47-layer-2-rm-o.svg"
   inkscape:version="1.0 (4035a4fb49, 2020-05-01)"
   id="svg4460"
   height="100"
   width="100"
   version="1.1">
  <sodipodi:namedview
     inkscape:document-rotation="0"
     inkscape:current-layer="svg4460"
     inkscape:window-maximized="1"
     inkscape:window-y="-8"
     inkscape:window-x="-8"
     inkscape:cy="56.831457"
     inkscape:cx="54.825136"
     inkscape:zoom="7.6099999"
     showgrid="false"
     id="namedview11"
     inkscape:window-height="1017"
     inkscape:window-width="1920"
     inkscape:pageshadow="2"
     inkscape:pageopacity="0"
     guidetolerance="10"
     gridtolerance="10"
     objecttolerance="10"
     borderopacity="1"
     bordercolor="#666666"
     pagecolor="#ffffff" />
  <defs
     id="defs4462" />
  <metadata
     id="metadata4465">
    <rdf:RDF>
      <cc:Work
         rdf:about="">
        <dc:format>image/svg+xml</dc:format>
        <dc:type
           rdf:resource="http://purl.org/dc/dcmitype/StillImage" />
        <dc:title />
      </cc:Work>
    </rdf:RDF>
  </metadata>
  <path
     id="path951"
     style="color:#000000;font-style:normal;font-variant:normal;font-weight:normal;font-stretch:normal;font-size:medium;line-height:normal;font-family:sans-serif;font-variant-ligatures:normal;font-variant-position:normal;font-variant-caps:normal;font-variant-numeric:normal;font-variant-alternates:normal;font-feature-settings:normal;text-indent:0;text-align:start;text-decoration:none;text-decoration-line:none;text-decoration-style:solid;text-decoration-color:#000000;letter-spacing:normal;word-spacing:normal;text-transform:none;writing-mode:lr-tb;direction:ltr;text-orientation:mixed;dominant-baseline:auto;baseline-shift:baseline;text-anchor:start;white-space:normal;shape-padding:0;clip-rule:nonzero;display:inline;overflow:visible;visibility:visible;opacity:1;isolation:auto;mix-blend-mode:normal;color-interpolation:sRGB;color-interpolation-filters:linearRGB;solid-color:#000000;solid-opacity:1;vector-effect:none;fill:#000080;fill-opacity:1;fill-rule:nonzero;stroke:none;stroke-width:7;stroke-linecap:round;stroke-linejoin:round;stroke-miterlimit:4;stroke-dasharray:none;stroke-dashoffset:0;stroke-opacity:1;color-rendering:auto;image-rendering:auto;shape-rendering:auto;text-rendering:auto;enable-background:accumulate"
     d="m 80.5,10.796889 c -7.145024,0 -13.252359,4.246318 -15.976562,10.357422 H 28.134766 c -1.027378,-1.4e-5 -2.002889,0.451321 -2.667969,1.234375 L 0.83203125,51.404311 C -1.0986566,53.67868 0.51861472,57.171134 3.5019531,57.169936 l 92.9999999,-0.06445 c 2.981505,-0.0021 4.595517,-3.492654 2.666016,-5.765625 L 91.298828,42.068373 C 95.378123,38.86994 98,33.905483 98,28.296889 c 0,-9.694595 -7.805405,-17.5 -17.5,-17.5 z m 12.5,14 v 7 H 68 v -7 z M 29.753906,28.154311 H 63.007812 C 63.007428,28.202358 63,28.248747 63,28.296889 c 0,9.694595 7.805405,17.5 17.5,17.5 1.491527,0 2.93,-0.204768 4.310547,-0.552734 l 4.130859,4.867187 -77.873047,0.05273 z m 60.15625,33.955078 -9.177734,0.0078 8.210937,9.669922 -77.875,0.05273 8.21875,-9.681641 -9.1875,0.0078 -9.26757775,10.914062 c -1.93068785,2.274369 -0.31341653,5.766823 2.66992185,5.765625 l 92.9999999,-0.06445 c 2.981505,-0.0021 4.595517,-3.492654 2.666016,-5.765625 z"
     sodipodi:nodetypes="sccccccccsscccccccssccccccccccccccc" />
</svg>
