<?xml version="1.0" encoding="UTF-8" standalone="no"?>
<svg
   xmlns:dc="http://purl.org/dc/elements/1.1/"
   xmlns:cc="http://creativecommons.org/ns#"
   xmlns:rdf="http://www.w3.org/1999/02/22-rdf-syntax-ns#"
   xmlns:svg="http://www.w3.org/2000/svg"
   xmlns="http://www.w3.org/2000/svg"
   xmlns:sodipodi="http://sodipodi.sourceforge.net/DTD/sodipodi-0.dtd"
   xmlns:inkscape="http://www.inkscape.org/namespaces/inkscape"
   sodipodi:docname="uEA12-measure.svg"
   inkscape:version="1.0 (4035a4fb49, 2020-05-01)"
   id="svg4460"
   height="100"
   width="100"
   version="1.1">
  <sodipodi:namedview
     inkscape:document-rotation="0"
     inkscape:current-layer="svg4460"
     inkscape:window-maximized="1"
     inkscape:window-y="-8"
     inkscape:window-x="-8"
     inkscape:cy="46.924383"
     inkscape:cx="49.133716"
     inkscape:zoom="6.9532165"
     showgrid="false"
     id="namedview11"
     inkscape:window-height="1017"
     inkscape:window-width="1920"
     inkscape:pageshadow="2"
     inkscape:pageopacity="0"
     guidetolerance="10"
     gridtolerance="10"
     objecttolerance="10"
     borderopacity="1"
     bordercolor="#666666"
     pagecolor="#ffffff" />
  <defs
     id="defs4462" />
  <metadata
     id="metadata4465">
    <rdf:RDF>
      <cc:Work
         rdf:about="">
        <dc:format>image/svg+xml</dc:format>
        <dc:type
           rdf:resource="http://purl.org/dc/dcmitype/StillImage" />
        <dc:title></dc:title>
      </cc:Work>
    </rdf:RDF>
  </metadata>
  <path
     inkscape:connector-curvature="0"
     id="rect4210"
     d="M 2.0632685,51.732584 A 4.1272532,4.1272532 0 0 0 0.55274003,57.369951 L 18.893804,89.137609 a 4.1272532,4.1272532 0 0 0 5.63737,1.510525 L 97.936729,48.267418 a 4.1272532,4.1272532 0 0 0 1.510529,-5.637371 L 81.106192,10.862392 A 4.1272532,4.1272532 0 0 0 75.468825,9.351864 Z m 7.7007893,5.084475 66.2576552,-38.253877 14.214225,24.619761 -4.774567,2.756596 -5.327817,-9.228045 -3.57395,2.06342 5.327813,9.228045 -5.465629,3.155584 -5.327813,-9.22805 -3.57395,2.063421 5.327817,9.22805 -5.45865,3.151554 -5.327813,-9.22805 -3.57395,2.063421 5.327817,9.228045 -5.465629,3.155584 -7.403325,-12.822938 -3.57395,2.063421 7.403325,12.822937 -5.465629,3.155584 -5.327813,-9.22805 -3.57395,2.063421 5.327813,9.22805 -5.458646,3.15155 -5.327815,-9.228046 -3.573948,2.063416 5.327815,9.22805 -5.465629,3.15558 -5.327815,-9.228042 -3.573948,2.063421 5.327815,9.228041 -3.685635,2.127905 z"
     style="color:#000000;font-style:normal;font-variant:normal;font-weight:normal;font-stretch:normal;font-size:medium;line-height:normal;font-family:sans-serif;text-indent:0;text-align:start;text-decoration:none;text-decoration-line:none;text-decoration-style:solid;text-decoration-color:#000000;letter-spacing:normal;word-spacing:normal;text-transform:none;writing-mode:lr-tb;direction:ltr;baseline-shift:baseline;text-anchor:start;white-space:normal;clip-rule:nonzero;display:inline;overflow:visible;visibility:visible;opacity:1;isolation:auto;mix-blend-mode:normal;color-interpolation:sRGB;color-interpolation-filters:linearRGB;solid-color:#000000;solid-opacity:1;fill:#000000;fill-opacity:1;fill-rule:nonzero;stroke:none;stroke-width:8.33333;stroke-linecap:round;stroke-linejoin:round;stroke-miterlimit:4;stroke-dasharray:none;stroke-dashoffset:0;stroke-opacity:1;marker:none;color-rendering:auto;image-rendering:auto;shape-rendering:auto;text-rendering:auto;enable-background:accumulate" />
</svg>
