<?xml version="1.0" encoding="UTF-8" standalone="no"?>
<svg
   inkscape:version="1.3.2 (091e20ef0f, 2023-11-25)"
   sodipodi:docname="proj_utm.svg"
   id="svg4460"
   height="100"
   width="100"
   version="1.1"
   xmlns:inkscape="http://www.inkscape.org/namespaces/inkscape"
   xmlns:sodipodi="http://sodipodi.sourceforge.net/DTD/sodipodi-0.dtd"
   xmlns="http://www.w3.org/2000/svg"
   xmlns:svg="http://www.w3.org/2000/svg"
   xmlns:rdf="http://www.w3.org/1999/02/22-rdf-syntax-ns#"
   xmlns:cc="http://creativecommons.org/ns#"
   xmlns:dc="http://purl.org/dc/elements/1.1/">
  <sodipodi:namedview
     inkscape:document-rotation="0"
     inkscape:current-layer="g850"
     inkscape:window-maximized="0"
     inkscape:window-y="530"
     inkscape:window-x="1865"
     inkscape:cy="61.525423"
     inkscape:cx="52.98305"
     inkscape:zoom="4.9166667"
     showgrid="false"
     id="namedview11"
     inkscape:window-height="1243"
     inkscape:window-width="1584"
     inkscape:pageshadow="2"
     inkscape:pageopacity="0"
     guidetolerance="10"
     gridtolerance="10"
     objecttolerance="10"
     borderopacity="1"
     bordercolor="#666666"
     pagecolor="#ffffff"
     inkscape:showpageshadow="2"
     inkscape:pagecheckerboard="0"
     inkscape:deskcolor="#d1d1d1" />
  <defs
     id="defs4462" />
  <metadata
     id="metadata4465">
    <rdf:RDF>
      <cc:Work
         rdf:about="">
        <dc:format>image/svg+xml</dc:format>
        <dc:type
           rdf:resource="http://purl.org/dc/dcmitype/StillImage" />
      </cc:Work>
    </rdf:RDF>
  </metadata>
  <g
     id="g850">
    <path
       id="path4"
       style="color:#000000;fill:#000080;stroke-linecap:round;stroke-linejoin:round;-inkscape-stroke:none"
       d="M 49.388672 1.6738281 A 2.5 2.5 0 0 0 48.460938 1.9804688 C 27.061609 14.113648 16.34597 31.244205 16.613281 48.818359 C 16.87716 66.166815 27.73383 83.475831 47.857422 96.666016 A 2.5 2.5 0 0 0 47.882812 96.691406 C 47.962487 96.789517 48.036978 96.892649 48.117188 96.990234 A 2.5051849 2.5051849 0 0 0 48.34375 97.152344 A 2.5 2.5 0 0 0 49.009766 97.626953 A 2.5051849 2.5051849 0 0 0 49.603516 97.787109 A 2.5 2.5 0 0 0 50 97.892578 A 2.5 2.5 0 0 0 50.183594 97.84375 A 2.5051849 2.5051849 0 0 0 51.007812 97.623047 A 2.5 2.5 0 0 0 51.332031 97.476562 A 2.5051849 2.5051849 0 0 0 51.642578 97.335938 A 2.5051849 2.5051849 0 0 0 51.890625 97.09375 C 72.443947 85.221572 82.842701 67.506673 82.771484 49.710938 C 82.699711 31.775905 72.0287 14.046438 51.794922 2.3554688 A 2.5 2.5 0 0 0 51.414062 2.2539062 A 2.5 2.5 0 0 0 50.654297 1.8925781 A 2.5 2.5 0 0 0 50.361328 1.7460938 A 2.5 2.5 0 0 0 49.388672 1.6738281 z M 52.5 11.541016 C 55.471383 15.935058 57.877592 20.852953 59.673828 26.091797 C 57.283344 26.992747 54.888438 27.556911 52.5 27.791016 L 52.5 11.541016 z M 47.5 12.048828 L 47.5 27.802734 C 45.138306 27.577035 42.787535 27.027676 40.455078 26.158203 C 42.177001 21.198964 44.513482 16.449082 47.5 12.048828 z M 41 12.931641 C 38.922018 16.476229 37.206592 20.182768 35.832031 24.001953 C 34.54106 23.2778 33.258941 22.449771 31.984375 21.527344 C 34.510484 18.540363 37.508797 15.662328 41 12.931641 z M 59.947266 14.193359 C 62.800208 16.643415 65.308054 19.237063 67.472656 21.941406 C 66.399467 22.681792 65.323399 23.355285 64.246094 23.957031 C 63.057458 20.569834 61.618545 17.303516 59.947266 14.193359 z M 28.945312 25.498047 C 30.688933 26.76173 32.47186 27.863069 34.287109 28.796875 C 32.581705 34.888407 31.693756 41.190673 31.578125 47.5 L 21.619141 47.5 C 21.751651 39.97099 24.137782 32.492744 28.945312 25.498047 z M 70.40625 25.990234 C 74.843945 32.791605 77.264526 40.13096 77.695312 47.5 L 68.580078 47.5 C 68.366799 41.158962 67.419608 34.83347 65.744141 28.775391 C 67.316733 27.970195 68.873562 27.045043 70.40625 25.990234 z M 61.091797 30.787109 C 62.534972 36.19222 63.374466 41.834974 63.580078 47.5 L 52.5 47.5 L 52.5 32.619141 C 55.376629 32.394098 58.251938 31.78607 61.091797 30.787109 z M 39.023438 30.833984 C 41.809705 31.804773 44.645832 32.400626 47.5 32.619141 L 47.5 47.5 L 36.71875 47.5 C 36.827508 41.876214 37.584743 36.263241 39.023438 30.833984 z M 21.865234 52.5 L 31.662109 52.5 C 31.967172 59.234284 33.120949 65.910397 35.072266 72.275391 C 33.661806 72.855145 32.238433 73.509628 30.798828 74.238281 C 25.678065 67.216896 22.705925 59.829261 21.865234 52.5 z M 36.798828 52.5 L 47.5 52.5 L 47.5 69.171875 C 44.96054 69.368291 42.430847 69.844114 39.880859 70.583984 C 38.137587 64.763707 37.092517 58.659778 36.798828 52.5 z M 52.5 52.5 L 63.599609 52.5 C 63.415714 58.736488 62.469538 64.89612 60.748047 70.679688 C 57.940025 69.837939 55.202263 69.330535 52.5 69.146484 L 52.5 52.5 z M 68.599609 52.5 L 77.685547 52.5 C 77.206652 60.032047 74.646355 67.535038 69.886719 74.472656 C 68.38847 73.687855 66.918566 72.994161 65.470703 72.384766 C 67.387573 66.027439 68.414773 59.290172 68.599609 52.5 z M 52.5 73.939453 C 54.663085 74.128043 56.865685 74.574945 59.160156 75.294922 C 57.437219 79.773327 55.216959 83.949831 52.5 87.679688 L 52.5 73.939453 z M 47.5 73.960938 L 47.5 87.542969 C 45.093239 83.707428 43.066348 79.556483 41.4375 75.197266 C 43.489987 74.57315 45.496551 74.155445 47.5 73.960938 z M 36.685547 76.966797 C 37.617009 79.432701 38.656975 81.846881 39.828125 84.177734 C 37.69544 82.237968 35.74478 80.24973 33.988281 78.220703 C 34.903075 77.767952 35.800999 77.351815 36.685547 76.966797 z M 63.851562 77.082031 C 64.8169 77.51136 65.803816 77.990027 66.8125 78.507812 C 64.803837 80.895413 62.508364 83.196895 59.929688 85.388672 C 61.436212 82.743814 62.742735 79.966018 63.851562 77.082031 z " />
  </g>
</svg>
