<?xml version="1.0" encoding="UTF-8" standalone="no"?>
<svg
   inkscape:version="1.3.2 (091e20ef0f, 2023-11-25)"
   sodipodi:docname="proj_conic.svg"
   id="svg4460"
   height="100"
   width="100"
   version="1.1"
   xmlns:inkscape="http://www.inkscape.org/namespaces/inkscape"
   xmlns:sodipodi="http://sodipodi.sourceforge.net/DTD/sodipodi-0.dtd"
   xmlns="http://www.w3.org/2000/svg"
   xmlns:svg="http://www.w3.org/2000/svg"
   xmlns:rdf="http://www.w3.org/1999/02/22-rdf-syntax-ns#"
   xmlns:cc="http://creativecommons.org/ns#"
   xmlns:dc="http://purl.org/dc/elements/1.1/">
  <sodipodi:namedview
     inkscape:document-rotation="0"
     inkscape:current-layer="g850"
     inkscape:window-maximized="0"
     inkscape:window-y="530"
     inkscape:window-x="1865"
     inkscape:cy="91.037001"
     inkscape:cx="76.367532"
     inkscape:zoom="3.4766084"
     showgrid="false"
     id="namedview11"
     inkscape:window-height="1243"
     inkscape:window-width="1584"
     inkscape:pageshadow="2"
     inkscape:pageopacity="0"
     guidetolerance="10"
     gridtolerance="10"
     objecttolerance="10"
     borderopacity="1"
     bordercolor="#666666"
     pagecolor="#ffffff"
     inkscape:showpageshadow="2"
     inkscape:pagecheckerboard="0"
     inkscape:deskcolor="#d1d1d1" />
  <defs
     id="defs4462" />
  <metadata
     id="metadata4465">
    <rdf:RDF>
      <cc:Work
         rdf:about="">
        <dc:format>image/svg+xml</dc:format>
        <dc:type
           rdf:resource="http://purl.org/dc/dcmitype/StillImage" />
      </cc:Work>
    </rdf:RDF>
  </metadata>
  <g
     id="g850">
    <path
       id="path4"
       style="color:#000000;fill:#000080;stroke-linecap:round;stroke-linejoin:round;-inkscape-stroke:none"
       d="M 49.853516 2.8867188 A 2.5 2.5 0 0 0 49.824219 2.8964844 A 2.5 2.5 0 0 0 49.615234 2.9414062 A 2.5 2.5 0 0 0 49.494141 2.9355469 A 2.5 2.5 0 0 0 49.314453 3.0253906 A 2.5 2.5 0 0 0 49.003906 3.1191406 A 2.5 2.5 0 0 0 48.849609 3.1640625 A 2.5 2.5 0 0 0 48.751953 3.2519531 A 2.5 2.5 0 0 0 48.501953 3.4335938 A 2.5 2.5 0 0 0 48.226562 3.6855469 A 2.5 2.5 0 0 0 47.994141 3.9453125 A 2.5 2.5 0 0 0 47.855469 4.1621094 A 2.5 2.5 0 0 0 47.765625 4.2617188 L 23.166016 53.322266 A 2.5 2.5 0 0 0 22.796875 53.701172 A 2.5 2.5 0 0 0 22.439453 54.769531 L 9.0234375 81.525391 A 2.5 2.5 0 0 0 8.8613281 82.310547 A 2.5 2.5 0 0 0 8.6777344 82.515625 A 2.5 2.5 0 0 0 9.7871094 85.873047 C 38.872391 100.51986 63.372051 101.22946 91.191406 86.150391 A 2.5 2.5 0 0 0 92.333984 83.074219 A 2.5 2.5 0 0 0 92.150391 81.259766 L 52.21875 4.2324219 A 2.5 2.5 0 0 0 52.199219 4.2070312 A 2.5 2.5 0 0 0 52.107422 4.0449219 A 2.5 2.5 0 0 0 51.998047 3.8925781 A 2.5 2.5 0 0 0 51.867188 3.7207031 A 2.5 2.5 0 0 0 51.865234 3.71875 A 2.5 2.5 0 0 0 51.84375 3.6972656 A 2.5 2.5 0 0 0 51.714844 3.5742188 A 2.5 2.5 0 0 0 51.617188 3.4804688 A 2.5 2.5 0 0 0 51.603516 3.4667969 A 2.5 2.5 0 0 0 51.521484 3.4023438 A 2.5 2.5 0 0 0 51.376953 3.3066406 A 2.5 2.5 0 0 0 51.15625 3.1699219 A 2.5 2.5 0 0 0 51.121094 3.1484375 A 2.5 2.5 0 0 0 51.095703 3.1425781 A 2.5 2.5 0 0 0 50.769531 3.0078125 A 2.5 2.5 0 0 0 50.755859 3 A 2.5 2.5 0 0 0 50.724609 2.9960938 A 2.5 2.5 0 0 0 50.386719 2.9121094 A 2.5 2.5 0 0 0 50.171875 2.9355469 A 2.5 2.5 0 0 0 49.988281 2.9140625 A 2.5 2.5 0 0 0 49.853516 2.8867188 z M 50.34375 19.384766 L 55.527344 44.458984 C 54.161313 44.652967 52.731857 44.739981 51.271484 44.705078 C 49.673734 44.666892 48.054713 44.484161 46.46875 44.179688 L 50.34375 19.384766 z M 45.056641 20.818359 L 41.619141 42.808594 C 39.543193 42.013687 37.655597 40.993525 36.125 39.783203 A 2.5 2.5 0 0 0 35.679688 39.517578 L 45.056641 20.818359 z M 56.113281 22.603516 L 65.136719 40.011719 A 2.5 2.5 0 0 0 64.703125 40.349609 C 63.611663 41.519132 62.118991 42.469888 60.367188 43.185547 L 56.113281 22.603516 z M 33.429688 44.007812 C 35.610033 45.653818 38.130492 46.941519 40.828125 47.873047 L 39.195312 58.318359 C 35.302887 57.374865 31.591904 55.987384 28.324219 54.1875 L 33.429688 44.007812 z M 67.513672 44.595703 L 72.376953 53.976562 C 69.997386 55.807384 66.944708 57.241469 63.476562 58.224609 L 61.402344 48.195312 C 63.686582 47.373078 65.771873 46.194238 67.513672 44.595703 z M 45.693359 49.140625 C 47.497887 49.468941 49.330891 49.659592 51.152344 49.703125 C 52.969034 49.746544 54.781571 49.644116 56.544922 49.386719 L 58.587891 59.269531 C 56.169964 59.637561 53.638262 59.820573 51.058594 59.796875 C 48.755892 59.775722 46.423501 59.592819 44.111328 59.261719 L 45.693359 49.140625 z M 74.708984 58.474609 L 79.90625 68.5 A 2.5 2.5 0 0 0 79.353516 68.712891 C 75.791526 70.962377 71.438161 72.608848 66.669922 73.677734 L 64.498047 63.167969 C 68.290772 62.133963 71.767196 60.586418 74.708984 58.474609 z M 26.082031 58.662109 C 29.866513 60.73281 34.059887 62.278501 38.417969 63.296875 L 36.820312 73.519531 C 31.267271 72.338376 26.114357 70.563406 21.904297 68.310547 A 2.5 2.5 0 0 0 21.330078 68.136719 L 26.082031 58.662109 z M 59.607422 64.199219 L 61.748047 74.552734 C 58.250116 75.029325 54.613351 75.233365 50.957031 75.15625 C 47.869406 75.091129 44.77445 74.827271 41.746094 74.392578 L 43.337891 64.212891 C 45.890848 64.576132 48.464699 64.773477 51.011719 64.796875 C 53.931957 64.823702 56.821506 64.626721 59.607422 64.199219 z M 19.181641 72.421875 A 2.5 2.5 0 0 0 19.544922 72.720703 C 24.344486 75.289014 30.005859 77.229386 36.044922 78.486328 L 34.417969 88.896484 A 2.5 2.5 0 0 0 34.550781 90.126953 C 28.021565 88.477371 21.282213 85.906477 14.152344 82.451172 L 19.181641 72.421875 z M 82.15625 72.84375 L 87.212891 82.595703 C 81.245309 85.717333 75.508113 88.079078 69.880859 89.691406 A 2.5 2.5 0 0 0 69.84375 89.029297 L 67.689453 78.603516 C 72.937493 77.437069 77.832317 75.588206 82.023438 72.941406 A 2.5 2.5 0 0 0 82.15625 72.84375 z M 40.972656 79.34375 C 44.221422 79.807022 47.535953 80.084368 50.851562 80.154297 C 54.8666 80.238978 58.879576 80.023836 62.767578 79.482422 L 64.949219 90.041016 A 2.5 2.5 0 0 0 65.347656 90.833984 C 56.418293 92.772662 47.672113 92.810799 38.595703 91.027344 A 2.5 2.5 0 0 0 39.359375 89.667969 L 40.972656 79.34375 z " />
  </g>
</svg>
