<?xml version="1.0" encoding="UTF-8" standalone="no"?>
<svg
   inkscape:version="1.3.2 (091e20ef0f, 2023-11-25)"
   sodipodi:docname="proj_geo.svg"
   id="svg4460"
   height="100"
   width="100"
   version="1.1"
   xmlns:inkscape="http://www.inkscape.org/namespaces/inkscape"
   xmlns:sodipodi="http://sodipodi.sourceforge.net/DTD/sodipodi-0.dtd"
   xmlns="http://www.w3.org/2000/svg"
   xmlns:svg="http://www.w3.org/2000/svg"
   xmlns:rdf="http://www.w3.org/1999/02/22-rdf-syntax-ns#"
   xmlns:cc="http://creativecommons.org/ns#"
   xmlns:dc="http://purl.org/dc/elements/1.1/">
  <sodipodi:namedview
     inkscape:document-rotation="0"
     inkscape:current-layer="g850"
     inkscape:window-maximized="0"
     inkscape:window-y="530"
     inkscape:window-x="1865"
     inkscape:cy="62.440678"
     inkscape:cx="86.440677"
     inkscape:zoom="2.4583334"
     showgrid="false"
     id="namedview11"
     inkscape:window-height="1243"
     inkscape:window-width="1584"
     inkscape:pageshadow="2"
     inkscape:pageopacity="0"
     guidetolerance="10"
     gridtolerance="10"
     objecttolerance="10"
     borderopacity="1"
     bordercolor="#666666"
     pagecolor="#ffffff"
     inkscape:showpageshadow="2"
     inkscape:pagecheckerboard="0"
     inkscape:deskcolor="#d1d1d1" />
  <defs
     id="defs4462" />
  <metadata
     id="metadata4465">
    <rdf:RDF>
      <cc:Work
         rdf:about="">
        <dc:format>image/svg+xml</dc:format>
        <dc:type
           rdf:resource="http://purl.org/dc/dcmitype/StillImage" />
      </cc:Work>
    </rdf:RDF>
  </metadata>
  <g
     id="g850">
    <path
       id="path1"
       style="color:#000000;fill:#000080;stroke-linecap:round;stroke-linejoin:round;-inkscape-stroke:none"
       d="M 50 1.0585938 C 23.011869 1.0585938 1.0585938 23.011869 1.0585938 50 C 1.0585938 76.988131 23.011869 98.941406 50 98.941406 C 76.988131 98.941406 98.941406 76.988131 98.941406 50 C 98.941406 23.011869 76.988131 1.0585938 50 1.0585938 z M 52.5 9.0585938 C 59.040079 13.972422 64.124442 19.670292 67.75 25.792969 C 62.640412 26.816204 57.559696 27.357571 52.5 27.458984 L 52.5 9.0585938 z M 40.712891 9.0976562 C 35.28006 13.865989 30.990749 19.111942 27.839844 24.650391 C 24.791653 23.915434 21.747019 23.048492 18.703125 22.054688 C 24.409632 15.665651 32.048646 11.048802 40.712891 9.0976562 z M 60.792969 9.4609375 C 68.799306 11.578811 75.857835 15.994807 81.222656 21.96875 C 78.410316 23.005121 75.608832 23.887658 72.816406 24.621094 C 69.799861 19.189572 65.784713 14.06594 60.792969 9.4609375 z M 47.5 10.011719 L 47.5 27.419922 C 42.632853 27.243763 37.783264 26.672408 32.943359 25.75 C 36.39115 20.118584 41.227381 14.805728 47.5 10.011719 z M 84.474609 26.087891 C 88.73525 32.227077 91.396798 39.561406 91.861328 47.5 L 79.460938 47.5 C 79.158771 41.277568 77.684637 35.091729 75.082031 29.183594 C 78.205407 28.330777 81.335682 27.30148 84.474609 26.087891 z M 15.425781 26.228516 C 18.779057 27.371173 22.14633 28.370952 25.527344 29.216797 C 22.892771 35.121027 21.488759 41.284719 21.289062 47.5 L 8.1386719 47.5 C 8.5996277 39.622495 11.222387 32.338726 15.425781 26.228516 z M 30.470703 30.339844 C 36.112027 31.489633 41.789272 32.192081 47.5 32.386719 L 47.5 47.5 L 26.298828 47.5 C 26.501103 41.673698 27.859984 35.890508 30.470703 30.339844 z M 70.144531 30.392578 C 72.693684 35.922917 74.124723 41.704033 74.435547 47.5 L 52.5 47.5 L 52.5 32.423828 C 58.349381 32.314769 64.231784 31.664769 70.144531 30.392578 z M 8.1386719 52.5 L 21.386719 52.5 C 21.847878 58.96056 23.591035 65.385325 26.548828 71.558594 C 22.926722 72.361928 19.377968 73.334896 15.912109 74.455078 C 11.427139 68.20716 8.6170297 60.674896 8.1386719 52.5 z M 26.398438 52.5 L 47.5 52.5 L 47.5 68.957031 C 42.098709 69.103532 36.7993 69.655434 31.630859 70.556641 C 28.639764 64.674556 26.88104 58.579911 26.398438 52.5 z M 52.5 52.5 L 74.447266 52.5 C 74.092053 58.694448 72.448835 64.837992 69.474609 70.642578 C 63.743102 69.594135 58.074755 69.048975 52.5 68.939453 L 52.5 52.5 z M 79.451172 52.5 L 91.861328 52.5 C 91.384162 60.654534 88.586554 68.169444 84.121094 74.408203 C 80.900533 73.336404 77.690288 72.432255 74.496094 71.6875 C 77.452472 65.543874 79.106393 59.049973 79.451172 52.5 z M 52.5 73.929688 C 57.198997 74.027334 61.967326 74.451434 66.787109 75.246094 C 63.266087 80.580052 58.517823 85.529987 52.5 89.849609 L 52.5 73.929688 z M 47.5 73.947266 L 47.5 90.185547 C 42.050395 85.538504 37.624211 80.479024 34.261719 75.177734 C 38.590983 74.495783 43.009637 74.075031 47.5 73.947266 z M 29.013672 76.140625 C 32.090735 81.352676 36.064156 86.329994 40.884766 90.941406 C 32.461906 89.081957 25.002855 84.701874 19.330078 78.625 C 22.495273 77.661373 25.725246 76.827007 29.013672 76.140625 z M 72.015625 76.253906 C 74.904468 76.887599 77.808813 77.656055 80.724609 78.568359 C 75.086057 84.631281 67.671824 89.012295 59.296875 90.900391 C 64.565893 86.49434 68.804048 81.541852 72.015625 76.253906 z " />
  </g>
</svg>
