<?xml version="1.0" encoding="UTF-8" standalone="no"?>
<svg
   inkscape:version="1.3.2 (091e20ef0f, 2023-11-25)"
   sodipodi:docname="proj_stereo.svg"
   id="svg4460"
   height="100"
   width="100"
   version="1.1"
   xmlns:inkscape="http://www.inkscape.org/namespaces/inkscape"
   xmlns:sodipodi="http://sodipodi.sourceforge.net/DTD/sodipodi-0.dtd"
   xmlns="http://www.w3.org/2000/svg"
   xmlns:svg="http://www.w3.org/2000/svg"
   xmlns:rdf="http://www.w3.org/1999/02/22-rdf-syntax-ns#"
   xmlns:cc="http://creativecommons.org/ns#"
   xmlns:dc="http://purl.org/dc/elements/1.1/">
  <sodipodi:namedview
     inkscape:document-rotation="0"
     inkscape:current-layer="g850"
     inkscape:window-maximized="0"
     inkscape:window-y="477"
     inkscape:window-x="1683"
     inkscape:cy="61.410426"
     inkscape:cx="84.996631"
     inkscape:zoom="3.4766084"
     showgrid="false"
     id="namedview11"
     inkscape:window-height="1243"
     inkscape:window-width="1584"
     inkscape:pageshadow="2"
     inkscape:pageopacity="0"
     guidetolerance="10"
     gridtolerance="10"
     objecttolerance="10"
     borderopacity="1"
     bordercolor="#666666"
     pagecolor="#ffffff"
     inkscape:showpageshadow="2"
     inkscape:pagecheckerboard="0"
     inkscape:deskcolor="#d1d1d1" />
  <defs
     id="defs4462" />
  <metadata
     id="metadata4465">
    <rdf:RDF>
      <cc:Work
         rdf:about="">
        <dc:format>image/svg+xml</dc:format>
        <dc:type
           rdf:resource="http://purl.org/dc/dcmitype/StillImage" />
        <dc:title />
      </cc:Work>
    </rdf:RDF>
  </metadata>
  <g
     id="g850">
    <path
       id="path1"
       style="color:#000000;fill:#000080;stroke-linecap:round;stroke-linejoin:round;-inkscape-stroke:none"
       d="M 50 1.0585938 C 23.011869 1.0585938 1.0585938 23.011869 1.0585938 50 C 1.0585938 76.988131 23.011869 98.941406 50 98.941406 C 76.988131 98.941406 98.941406 76.988131 98.941406 50 C 98.941406 23.011869 76.988131 1.0585938 50 1.0585938 z M 47.5 8.1386719 L 47.5 17.804688 C 40.471255 18.346007 34.067906 21.142874 29.011719 25.476562 L 22.154297 18.619141 C 28.974387 12.565503 37.78478 8.7071624 47.5 8.1386719 z M 52.5 8.1386719 C 62.21522 8.7071624 71.025613 12.565503 77.845703 18.619141 L 70.988281 25.476562 C 65.932094 21.142874 59.528745 18.346007 52.5 17.804688 L 52.5 8.1386719 z M 18.619141 22.154297 L 25.476562 29.011719 C 21.142874 34.067906 18.346007 40.471255 17.804688 47.5 L 8.1386719 47.5 C 8.7071624 37.78478 12.565503 28.974387 18.619141 22.154297 z M 81.380859 22.154297 C 87.434497 28.974387 91.292838 37.78478 91.861328 47.5 L 82.195312 47.5 C 81.653993 40.471255 78.857126 34.067906 74.523438 29.011719 L 81.380859 22.154297 z M 47.5 22.814453 L 47.5 33.853516 C 44.861162 34.262105 42.428672 35.307992 40.361328 36.826172 L 32.533203 28.998047 C 36.663635 25.561436 41.82773 23.326715 47.5 22.814453 z M 52.5 22.814453 C 58.17227 23.326715 63.336365 25.561436 67.466797 28.998047 L 59.638672 36.826172 C 57.571328 35.307992 55.138838 34.262105 52.5 33.853516 L 52.5 22.814453 z M 28.998047 32.533203 L 36.826172 40.361328 C 35.307992 42.428672 34.262105 44.861162 33.853516 47.5 L 22.814453 47.5 C 23.326715 41.82773 25.561436 36.663635 28.998047 32.533203 z M 71.001953 32.533203 C 74.438564 36.663635 76.673285 41.82773 77.185547 47.5 L 66.146484 47.5 C 65.737895 44.861162 64.692008 42.428672 63.173828 40.361328 L 71.001953 32.533203 z M 47.5 38.935547 L 47.5 43.964844 L 43.9375 40.402344 C 45.014256 39.723654 46.215084 39.221614 47.5 38.935547 z M 52.5 38.935547 C 53.784916 39.221614 54.985744 39.723654 56.0625 40.402344 L 52.5 43.964844 L 52.5 38.935547 z M 40.402344 43.9375 L 43.964844 47.5 L 38.935547 47.5 C 39.221614 46.215084 39.723654 45.014256 40.402344 43.9375 z M 59.597656 43.9375 C 60.276346 45.014256 60.778386 46.215084 61.064453 47.5 L 56.035156 47.5 L 59.597656 43.9375 z M 8.1386719 52.5 L 17.804688 52.5 C 18.346007 59.528745 21.142874 65.932094 25.476562 70.988281 L 18.619141 77.845703 C 12.565503 71.025613 8.7071624 62.21522 8.1386719 52.5 z M 22.814453 52.5 L 33.853516 52.5 C 34.262105 55.138838 35.307992 57.571328 36.826172 59.638672 L 28.998047 67.466797 C 25.561436 63.336365 23.326715 58.17227 22.814453 52.5 z M 38.935547 52.5 L 43.964844 52.5 L 40.402344 56.0625 C 39.723654 54.985744 39.221614 53.784916 38.935547 52.5 z M 56.035156 52.5 L 61.064453 52.5 C 60.778386 53.784916 60.276346 54.985744 59.597656 56.0625 L 56.035156 52.5 z M 66.146484 52.5 L 77.185547 52.5 C 76.673285 58.17227 74.438564 63.336365 71.001953 67.466797 L 63.173828 59.638672 C 64.692008 57.571328 65.737895 55.138838 66.146484 52.5 z M 82.195312 52.5 L 91.861328 52.5 C 91.292838 62.21522 87.434497 71.025613 81.380859 77.845703 L 74.523438 70.988281 C 78.857126 65.932094 81.653993 59.528745 82.195312 52.5 z M 47.5 56.035156 L 47.5 61.064453 C 46.215084 60.778386 45.014256 60.276346 43.9375 59.597656 L 47.5 56.035156 z M 52.5 56.035156 L 56.0625 59.597656 C 54.985744 60.276346 53.784916 60.778386 52.5 61.064453 L 52.5 56.035156 z M 40.361328 63.173828 C 42.428672 64.692008 44.861162 65.737895 47.5 66.146484 L 47.5 77.185547 C 41.82773 76.673285 36.663635 74.438564 32.533203 71.001953 L 40.361328 63.173828 z M 59.638672 63.173828 L 67.466797 71.001953 C 63.336365 74.438564 58.17227 76.673285 52.5 77.185547 L 52.5 66.146484 C 55.138838 65.737895 57.571328 64.692008 59.638672 63.173828 z M 29.011719 74.523438 C 34.067906 78.857126 40.471255 81.653993 47.5 82.195312 L 47.5 91.861328 C 37.78478 91.292838 28.974387 87.434497 22.154297 81.380859 L 29.011719 74.523438 z M 70.988281 74.523438 L 77.845703 81.380859 C 71.025613 87.434497 62.21522 91.292838 52.5 91.861328 L 52.5 82.195312 C 59.528745 81.653993 65.932094 78.857126 70.988281 74.523438 z " />
  </g>
</svg>
