<?xml version="1.0" encoding="UTF-8" standalone="no"?>
<svg
   xmlns:dc="http://purl.org/dc/elements/1.1/"
   xmlns:cc="http://creativecommons.org/ns#"
   xmlns:rdf="http://www.w3.org/1999/02/22-rdf-syntax-ns#"
   xmlns:svg="http://www.w3.org/2000/svg"
   xmlns="http://www.w3.org/2000/svg"
   xmlns:sodipodi="http://sodipodi.sourceforge.net/DTD/sodipodi-0.dtd"
   xmlns:inkscape="http://www.inkscape.org/namespaces/inkscape"
   version="1.1"
   width="100"
   height="100"
   id="svg4460"
   sodipodi:docname="uEA40-modify-poly-o.svg"
   inkscape:version="1.0 (4035a4fb49, 2020-05-01)">
  <sodipodi:namedview
     showguides="false"
     pagecolor="#ffffff"
     bordercolor="#666666"
     borderopacity="1"
     objecttolerance="10"
     gridtolerance="10"
     guidetolerance="10"
     inkscape:pageopacity="0"
     inkscape:pageshadow="2"
     inkscape:window-width="1920"
     inkscape:window-height="1017"
     id="namedview11"
     showgrid="false"
     inkscape:zoom="4.0399999"
     inkscape:cx="-27.030963"
     inkscape:cy="84.601839"
     inkscape:window-x="-8"
     inkscape:window-y="-8"
     inkscape:window-maximized="1"
     inkscape:current-layer="svg4460"
     inkscape:document-rotation="0" />
  <defs
     id="defs4462" />
  <metadata
     id="metadata4465">
    <rdf:RDF>
      <cc:Work
         rdf:about="">
        <dc:format>image/svg+xml</dc:format>
        <dc:type
           rdf:resource="http://purl.org/dc/dcmitype/StillImage" />
        <dc:title />
      </cc:Work>
    </rdf:RDF>
  </metadata>
  <path
     id="path4133"
     style="color:#000000;font-style:normal;font-variant:normal;font-weight:normal;font-stretch:normal;font-size:medium;line-height:normal;font-family:sans-serif;text-indent:0;text-align:start;text-decoration:none;text-decoration-line:none;text-decoration-style:solid;text-decoration-color:#000000;letter-spacing:normal;word-spacing:normal;text-transform:none;writing-mode:lr-tb;direction:ltr;baseline-shift:baseline;text-anchor:start;white-space:normal;clip-rule:nonzero;display:inline;overflow:visible;visibility:visible;opacity:1;isolation:auto;mix-blend-mode:normal;color-interpolation:sRGB;color-interpolation-filters:linearRGB;solid-color:#000000;solid-opacity:1;fill:#000080;fill-opacity:1;fill-rule:evenodd;stroke:none;stroke-width:8.46826;stroke-linecap:butt;stroke-linejoin:miter;stroke-miterlimit:4;stroke-dasharray:none;stroke-dashoffset:0;stroke-opacity:1;color-rendering:auto;image-rendering:auto;shape-rendering:auto;text-rendering:auto;enable-background:accumulate"
     d="M 42.019531 3.4238281 C 37.72982 3.4244129 33.542899 5.6063196 31.220703 9.5449219 C 28.649545 13.905781 29.05602 19.241329 31.802734 23.15625 L 19.236328 35.576172 A 3.5 3.5 0 0 0 19.191406 35.560547 C 13.347896 32.549607 6.0222662 34.56214 2.6445312 40.291016 C -0.8547064 46.225953 1.1451423 53.977328 7.0800781 57.476562 C 10.543403 59.518535 14.622569 59.67606 18.117188 58.283203 L 30.857422 77.419922 C 28.893141 79.637442 27.685547 82.537404 27.685547 85.707031 C 27.685547 92.596743 33.344664 98.257813 40.234375 98.257812 C 46.591665 98.257813 51.844295 93.422382 52.623047 87.263672 L 54.759766 86.503906 L 53.339844 82.513672 L 52.392578 82.851562 C 51.991123 81.15602 51.249572 79.587538 50.238281 78.228516 L 50.421875 78.371094 L 83.105469 38.115234 C 84.29617 38.506288 85.521997 38.685253 86.744141 38.708984 L 86.673828 40.109375 L 90.900391 40.316406 L 91.009766 38.068359 C 93.789048 37.145889 96.264087 35.279172 97.855469 32.580078 C 101.23593 26.846588 99.446418 19.455256 93.972656 15.802734 A 3.5 3.5 0 0 0 93.417969 15.394531 A 3.5 3.5 0 0 0 92.779297 15.101562 C 86.935772 12.090682 79.610162 14.103155 76.232422 19.832031 C 76.164432 19.947337 76.112672 20.066962 76.048828 20.183594 L 54.544922 15.46875 C 54.376665 11.567581 52.392142 7.8064978 48.958984 5.515625 A 3.5 3.5 0 0 0 48.40625 5.1074219 A 3.5 3.5 0 0 0 47.767578 4.8144531 C 45.941477 3.8735528 43.9694 3.4235623 42.019531 3.4238281 z M 42.220703 10.353516 C 43.113531 10.388875 44.015277 10.643646 44.851562 11.136719 C 47.527676 12.714554 48.390335 16.062167 46.8125 18.738281 C 45.234666 21.414396 41.889005 22.277053 39.212891 20.699219 C 36.536776 19.121384 35.672166 15.775724 37.25 13.099609 C 38.334762 11.259781 40.256482 10.275724 42.220703 10.353516 z M 87.232422 20.640625 C 88.12525 20.675985 89.026996 20.930755 89.863281 21.423828 C 92.539396 23.001663 93.404005 26.349277 91.826172 29.025391 C 90.248337 31.701506 86.900723 32.566116 84.224609 30.988281 C 81.548494 29.410447 80.685838 26.062834 82.263672 23.386719 C 83.348433 21.54689 85.268201 20.562833 87.232422 20.640625 z M 52.857422 22.263672 L 74.541016 27.015625 C 74.715921 29.593857 75.686826 32.087374 77.333984 34.123047 L 44.900391 74.072266 C 43.457932 73.483545 41.883091 73.158203 40.234375 73.158203 C 39.031605 73.158203 37.869825 73.340732 36.765625 73.662109 L 23.652344 53.970703 C 23.86758 53.670583 24.074717 53.364808 24.265625 53.041016 C 26.628231 49.033874 26.458529 44.220178 24.277344 40.435547 L 37.326172 27.537109 C 42.974779 29.816137 49.663966 27.686099 52.84375 22.292969 C 52.84945 22.283369 52.851882 22.273372 52.857422 22.263672 z M 13.642578 41.101562 C 14.535406 41.136922 15.437152 41.391693 16.273438 41.884766 C 18.949552 43.462601 19.814162 46.80826 18.236328 49.484375 C 16.658493 52.160489 13.312834 53.0251 10.636719 51.447266 C 7.9606036 49.869431 7.0959937 46.521817 8.6738281 43.845703 C 9.7585897 42.005874 11.678357 41.023771 13.642578 41.101562 z M 86.46875 44.335938 L 86.044922 52.791016 L 90.279297 53.001953 L 90.693359 44.542969 L 86.46875 44.335938 z M 85.839844 57.017578 L 85.791016 58.011719 C 85.712936 58.010219 85.637011 58 85.558594 58 C 78.668883 58 73.007813 63.659117 73.007812 70.548828 C 73.007812 72.195942 73.33924 73.768736 73.925781 75.214844 L 69.306641 76.855469 L 70.720703 80.841797 L 76.230469 78.892578 C 78.534871 81.463526 81.865133 83.09961 85.558594 83.099609 C 92.208481 83.099609 97.661949 77.812094 98.037109 71.25 A 3.5 3.5 0 0 0 98.107422 70.548828 A 3.5 3.5 0 0 0 98.037109 69.855469 C 97.753031 64.831047 94.486875 60.563291 89.990234 58.832031 L 90.070312 57.234375 L 85.839844 57.017578 z M 85.558594 65 C 88.665224 65 91.107422 67.442198 91.107422 70.548828 C 91.107422 73.655458 88.665224 76.099609 85.558594 76.099609 C 82.451964 76.099609 80.007813 73.655459 80.007812 70.548828 C 80.007812 67.442198 82.451964 65.000001 85.558594 65 z M 65.310547 78.271484 L 57.333984 81.105469 L 58.746094 85.091797 L 66.730469 82.261719 L 65.310547 78.271484 z M 40.234375 80.158203 C 43.341005 80.158203 45.785156 82.600401 45.785156 85.707031 C 45.785156 88.813662 43.341005 91.257813 40.234375 91.257812 C 37.127745 91.257813 34.685547 88.813662 34.685547 85.707031 C 34.685547 82.600401 37.127745 80.158203 40.234375 80.158203 z " />
</svg>
