<?xml version="1.0" encoding="UTF-8" standalone="no"?>
<svg
   xmlns:dc="http://purl.org/dc/elements/1.1/"
   xmlns:cc="http://creativecommons.org/ns#"
   xmlns:rdf="http://www.w3.org/1999/02/22-rdf-syntax-ns#"
   xmlns:svg="http://www.w3.org/2000/svg"
   xmlns="http://www.w3.org/2000/svg"
   xmlns:sodipodi="http://sodipodi.sourceforge.net/DTD/sodipodi-0.dtd"
   xmlns:inkscape="http://www.inkscape.org/namespaces/inkscape"
   sodipodi:docname="copypoly.svg"
   inkscape:version="1.0 (4035a4fb49, 2020-05-01)"
   id="svg4460"
   height="100"
   width="100"
   version="1.1">
  <sodipodi:namedview
     inkscape:document-rotation="0"
     inkscape:current-layer="svg4460"
     inkscape:window-maximized="1"
     inkscape:window-y="-8"
     inkscape:window-x="-8"
     inkscape:cy="135.50154"
     inkscape:cx="-195.27465"
     inkscape:zoom="1.7383041"
     showgrid="false"
     id="namedview11"
     inkscape:window-height="1017"
     inkscape:window-width="1920"
     inkscape:pageshadow="2"
     inkscape:pageopacity="0"
     guidetolerance="10"
     gridtolerance="10"
     objecttolerance="10"
     borderopacity="1"
     bordercolor="#666666"
     pagecolor="#ffffff" />
  <defs
     id="defs4462" />
  <metadata
     id="metadata4465">
    <rdf:RDF>
      <cc:Work
         rdf:about="">
        <dc:format>image/svg+xml</dc:format>
        <dc:type
           rdf:resource="http://purl.org/dc/dcmitype/StillImage" />
        <dc:title></dc:title>
      </cc:Work>
    </rdf:RDF>
  </metadata>
  <path
     d="M 65.550781 0 A 3.5 3.5 0 0 0 64.851562 0.072265625 C 58.288632 0.44646762 53 5.9002813 53 12.550781 C 53 12.684636 53.015331 12.814371 53.019531 12.947266 L 32.101562 19.808594 C 29.975252 16.533504 26.355285 14.300042 22.234375 14.070312 A 3.5 3.5 0 0 0 21.550781 14 A 3.5 3.5 0 0 0 20.851562 14.072266 C 14.288657 14.446508 9 19.900281 9 26.550781 C 9 31.613183 12.061581 36.003109 16.416016 37.980469 L 11.898438 55.0625 A 3.5 3.5 0 0 0 11.851562 55.072266 C 5.2886225 55.446476 -1.1842379e-15 60.900281 0 67.550781 C 0 74.440491 5.6610702 80.101562 12.550781 80.101562 C 16.571262 80.101562 20.163882 78.166136 22.466797 75.191406 L 43.222656 85.234375 C 43.079446 85.985835 43 86.758821 43 87.550781 C 43 94.440491 48.661071 100.10156 55.550781 100.10156 C 62.440491 100.10156 68.101562 94.440491 68.101562 87.550781 C 68.101562 84.459139 66.950294 81.634775 65.066406 79.453125 L 65.884766 77.761719 L 60.628906 75.21875 L 67.884766 26.949219 L 69.314453 26.480469 L 68.722656 24.673828 C 70.042473 24.324757 71.278873 23.768043 72.394531 23.035156 L 73.115234 25.232422 L 80.716797 22.740234 L 79.470703 18.939453 L 75.408203 20.271484 C 77.089089 18.136733 78.101562 15.455605 78.101562 12.550781 C 78.101562 5.8949242 72.804675 0.4365875 66.234375 0.0703125 A 3.5 3.5 0 0 0 65.550781 0 z M 65.550781 7 C 68.657411 7 71.101562 9.4441513 71.101562 12.550781 C 71.101562 15.657411 68.657411 18.101562 65.550781 18.101562 C 62.444151 18.101562 60 15.657411 60 12.550781 C 60 9.4441513 62.444151 7 65.550781 7 z M 97.884766 13 A 2.0002 2.0002 0 0 0 97.269531 13.099609 L 94.673828 13.951172 L 95.603516 16.785156 L 95.132812 19.910156 L 99.087891 20.505859 L 99.871094 15.296875 A 2.0002 2.0002 0 0 0 97.884766 13 z M 90.873047 15.197266 L 83.271484 17.691406 L 84.517578 21.492188 L 92.119141 18.998047 L 90.873047 15.197266 z M 55.191406 19.597656 C 56.651536 21.729764 58.754231 23.385742 61.207031 24.302734 L 61.107422 24.960938 L 60.466797 25.171875 L 60.884766 26.447266 L 54.033203 72.027344 L 47.882812 69.050781 L 46.140625 72.650391 L 52.128906 75.546875 C 49.924831 76.176211 47.957949 77.382238 46.421875 79.005859 L 25.044922 68.664062 C 25.077902 68.296212 25.101562 67.926661 25.101562 67.550781 C 25.101562 62.898991 22.510085 58.83985 18.708984 56.6875 L 23.398438 38.949219 C 29.421761 38.043529 34.101562 32.811523 34.101562 26.550781 C 34.101562 26.539571 34.099609 26.528778 34.099609 26.517578 L 55.191406 19.597656 z M 21.550781 21 C 24.657411 21 27.101562 23.444151 27.101562 26.550781 C 27.101562 29.657413 24.657411 32.101562 21.550781 32.101562 C 18.444151 32.101563 16 29.657413 16 26.550781 C 16 23.444151 18.444151 21 21.550781 21 z M 94.539062 23.867188 L 93.349609 31.777344 L 97.304688 32.373047 L 98.494141 24.460938 L 94.539062 23.867188 z M 56.666016 26.419922 L 53.779297 27.367188 A 2.0002 2.0002 0 0 0 52.46875 28.755859 L 51.201172 33.552734 L 55.068359 34.574219 L 56.058594 30.828125 L 57.912109 30.220703 L 56.666016 26.419922 z M 92.753906 35.732422 L 91.566406 43.644531 L 95.521484 44.238281 L 96.710938 36.328125 L 92.753906 35.732422 z M 50.179688 37.419922 L 48.134766 45.154297 L 52.001953 46.175781 L 54.046875 38.441406 L 50.179688 37.419922 z M 90.970703 47.599609 L 89.78125 55.511719 L 93.738281 56.105469 L 94.925781 48.195312 L 90.970703 47.599609 z M 47.111328 49.021484 L 45.066406 56.755859 L 48.933594 57.777344 L 50.978516 50.042969 L 47.111328 49.021484 z M 89.1875 59.466797 L 87.998047 67.376953 L 91.953125 67.972656 L 93.142578 60.060547 L 89.1875 59.466797 z M 44.044922 60.623047 L 42 68.357422 L 45.867188 69.378906 L 47.912109 61.644531 L 44.044922 60.623047 z M 12.550781 62 C 15.657411 62 18.101562 64.444151 18.101562 67.550781 C 18.101562 70.657411 15.657411 73.101562 12.550781 73.101562 C 9.4441513 73.101562 7 70.657411 7 67.550781 C 7 64.444151 9.4441513 62 12.550781 62 z M 87.404297 71.333984 L 86.214844 79.244141 L 90.169922 79.839844 L 91.359375 71.927734 L 87.404297 71.333984 z M 69.486328 79.503906 L 67.744141 83.105469 L 74.945312 86.589844 L 76.6875 82.988281 L 69.486328 79.503906 z M 55.550781 82 C 58.657411 82 61.101563 84.444151 61.101562 87.550781 C 61.101562 90.657411 58.657411 93.101562 55.550781 93.101562 C 52.444151 93.101562 50 90.657411 50 87.550781 C 50 84.444151 52.444151 82 55.550781 82 z M 85.621094 83.199219 L 85.044922 87.03125 L 80.289062 84.730469 L 78.544922 88.332031 L 85.748047 91.816406 L 86.619141 90.015625 L 88.595703 90.3125 L 89.576172 83.794922 L 85.621094 83.199219 z "
     style="color:#000000;font-style:normal;font-variant:normal;font-weight:normal;font-stretch:normal;font-size:medium;line-height:normal;font-family:sans-serif;font-variant-ligatures:normal;font-variant-position:normal;font-variant-caps:normal;font-variant-numeric:normal;font-variant-alternates:normal;font-variant-east-asian:normal;font-feature-settings:normal;font-variation-settings:normal;text-indent:0;text-align:start;text-decoration:none;text-decoration-line:none;text-decoration-style:solid;text-decoration-color:#000000;letter-spacing:normal;word-spacing:normal;text-transform:none;writing-mode:lr-tb;direction:ltr;text-orientation:mixed;dominant-baseline:auto;baseline-shift:baseline;text-anchor:start;white-space:normal;shape-padding:0;shape-margin:0;inline-size:0;clip-rule:nonzero;display:inline;overflow:visible;visibility:visible;isolation:auto;mix-blend-mode:normal;color-interpolation:sRGB;color-interpolation-filters:linearRGB;solid-color:#000000;solid-opacity:1;vector-effect:none;fill:#000080;fill-opacity:1;fill-rule:nonzero;stroke:none;stroke-width:4;stroke-linecap:butt;stroke-linejoin:round;stroke-miterlimit:4;stroke-dasharray:8, 4;stroke-dashoffset:36;stroke-opacity:1;color-rendering:auto;image-rendering:auto;shape-rendering:auto;text-rendering:auto;enable-background:accumulate;stop-color:#000000;stop-opacity:1;opacity:1"
     id="path853" />
</svg>
