<?xml version="1.0" encoding="UTF-8" standalone="no"?>
<svg
   xmlns:dc="http://purl.org/dc/elements/1.1/"
   xmlns:cc="http://creativecommons.org/ns#"
   xmlns:rdf="http://www.w3.org/1999/02/22-rdf-syntax-ns#"
   xmlns:svg="http://www.w3.org/2000/svg"
   xmlns="http://www.w3.org/2000/svg"
   xmlns:sodipodi="http://sodipodi.sourceforge.net/DTD/sodipodi-0.dtd"
   xmlns:inkscape="http://www.inkscape.org/namespaces/inkscape"
   version="1.1"
   width="100"
   height="100"
   id="svg4460"
   inkscape:version="1.0 (4035a4fb49, 2020-05-01)"
   sodipodi:docname="uEA6E-buffer.svg">
  <sodipodi:namedview
     pagecolor="#ffffff"
     bordercolor="#666666"
     borderopacity="1"
     objecttolerance="10"
     gridtolerance="10"
     guidetolerance="10"
     inkscape:pageopacity="0"
     inkscape:pageshadow="2"
     inkscape:window-width="1920"
     inkscape:window-height="1017"
     id="namedview11"
     showgrid="false"
     inkscape:zoom="3.805"
     inkscape:cx="-22.039536"
     inkscape:cy="52.185994"
     inkscape:window-x="-8"
     inkscape:window-y="-8"
     inkscape:window-maximized="1"
     inkscape:current-layer="svg4460"
     inkscape:document-rotation="0" />
  <defs
     id="defs4462" />
  <metadata
     id="metadata4465">
    <rdf:RDF>
      <cc:Work
         rdf:about="">
        <dc:format>image/svg+xml</dc:format>
        <dc:type
           rdf:resource="http://purl.org/dc/dcmitype/StillImage" />
        <dc:title />
      </cc:Work>
    </rdf:RDF>
  </metadata>
  <path
     d="m 72.609499,2.5136716 c -3.718648,0.043923 -7.404374,0.9426888 -10.726562,2.6113282 l 2.24414,4.4667968 c 2.636485,-1.3242301 5.591828,-2.0432907 8.541016,-2.078125 z m 3.837891,0.2539063 -0.714844,4.9492187 c 2.919137,0.421867 5.756302,1.5237981 8.197266,3.1816404 L 86.738405,6.7617185 C 83.663618,4.673398 80.127593,3.2994323 76.44739,2.7675779 Z M 57.240359,8.1464842 C 54.291827,10.560739 52.35338,13.365486 50.13489,15.117187 l 3.097656,3.923828 c 3.010399,-2.376985 4.961775,-5.212564 7.175781,-7.02539 z M 90.951296,10.375 87.29114,13.781249 c 2.000738,2.150472 3.496794,4.794945 4.333984,7.623047 l 4.794922,-1.419922 C 95.364728,16.419419 93.493988,13.107984 90.951296,10.375 Z m -44.570312,8.470702 -7.072266,7.072266 3.537109,3.535156 7.070313,-7.070312 z m 51.019531,6.589844 -4.988281,0.339844 c 0.201731,2.955929 -0.256662,5.967901 -1.341797,8.712891 l 4.65039,1.83789 c 1.366446,-3.4566 1.931841,-7.19588 1.679688,-10.890625 z m -61.626953,4.017578 -7.070313,7.070313 3.535156,3.535156 7.070313,-7.070312 z m 53.21875,8.933594 c -0.653086,0.942976 -1.390141,1.827775 -2.195313,2.628906 l -0.0039,0.0039 -4.324219,4.324218 3.535157,3.535157 4.320312,-4.320313 0.0039,-0.0039 c 1.027289,-1.022624 1.953648,-2.138589 2.773438,-3.322266 z m -63.826172,1.671875 -7.070313,7.070313 3.535157,3.537109 7.070312,-7.072266 z m 53.767578,8.820313 -7.070313,7.072265 3.535157,3.535157 7.070312,-7.072266 z m -64.375,1.787109 -4.8867184,4.886719 C 8.8602204,56.364481 8.106735,57.23342 7.4180934,58.154296 L 11.422,61.148437 c 0.544228,-0.727762 1.141255,-1.416671 1.785156,-2.060547 l 4.888671,-4.886719 z m 53.767578,8.820313 -7.070312,7.070312 3.535156,3.535156 7.072265,-7.070312 z M 4.6212184,62.960937 C 3.1291116,66.367772 2.4324731,70.087908 2.5548122,73.789062 L 7.552859,73.624999 C 7.45498,70.663839 8.0179682,67.668616 9.2012965,64.966796 Z m 53.0996086,7.130859 -7.070312,7.072266 3.535156,3.535156 7.070313,-7.070312 z M 8.1837184,78.023437 3.3419215,79.269531 c 0.9268825,3.597588 2.6712903,6.975373 5.1113281,9.800781 L 12.238406,85.802734 C 10.318738,83.579882 8.9201562,80.881836 8.1837184,78.023437 Z m 39.2441406,2.410156 c -3.239423,2.31832 -5.143968,5.304597 -7.296875,7.201172 l 3.304687,3.75 c 2.851203,-2.51173 4.67957,-5.294019 6.902344,-6.884766 z m -31.941407,8.361328 -2.943359,4.041016 c 3.016305,2.196311 6.521581,3.657378 10.175781,4.296875 l 0.861328,-4.925781 c -2.912239,-0.509652 -5.717865,-1.682118 -8.09375,-3.41211 z m 21.019532,1.369141 c -2.592631,1.397563 -5.53134,2.194359 -8.490235,2.328125 l 0.226563,4.994141 c 3.700417,-0.167289 7.358203,-1.154584 10.636719,-2.921876 z"
     style="color:#000000;font-style:normal;font-variant:normal;font-weight:normal;font-stretch:normal;font-size:medium;line-height:normal;font-family:sans-serif;font-variant-ligatures:normal;font-variant-position:normal;font-variant-caps:normal;font-variant-numeric:normal;font-variant-alternates:normal;font-variant-east-asian:normal;font-feature-settings:normal;font-variation-settings:normal;text-indent:0;text-align:start;text-decoration:none;text-decoration-line:none;text-decoration-style:solid;text-decoration-color:#000000;letter-spacing:normal;word-spacing:normal;text-transform:none;writing-mode:lr-tb;direction:ltr;text-orientation:mixed;dominant-baseline:auto;baseline-shift:baseline;text-anchor:start;white-space:normal;shape-padding:0;shape-margin:0;inline-size:0;clip-rule:nonzero;display:inline;overflow:visible;visibility:visible;isolation:auto;mix-blend-mode:normal;color-interpolation:sRGB;color-interpolation-filters:linearRGB;solid-color:#000000;solid-opacity:1;vector-effect:none;fill:#000080;fill-opacity:1;fill-rule:evenodd;stroke:none;stroke-width:5;stroke-linecap:butt;stroke-linejoin:bevel;stroke-miterlimit:4;stroke-dasharray:10, 5;stroke-dashoffset:0;stroke-opacity:1;color-rendering:auto;image-rendering:auto;shape-rendering:auto;text-rendering:auto;enable-background:accumulate;stop-color:#000000"
     id="path927" />
  <g
     style="opacity:1;fill:#000080"
     id="g930">
    <path
       id="path932"
       d="M 24.1127,75.8873 75.8873,24.1127"
       style="color:#000000;font-style:normal;font-variant:normal;font-weight:normal;font-stretch:normal;font-size:medium;line-height:normal;font-family:sans-serif;font-variant-ligatures:normal;font-variant-position:normal;font-variant-caps:normal;font-variant-numeric:normal;font-variant-alternates:normal;font-variant-east-asian:normal;font-feature-settings:normal;font-variation-settings:normal;text-indent:0;text-align:start;text-decoration:none;text-decoration-line:none;text-decoration-style:solid;text-decoration-color:#000000;letter-spacing:normal;word-spacing:normal;text-transform:none;writing-mode:lr-tb;direction:ltr;text-orientation:mixed;dominant-baseline:auto;baseline-shift:baseline;text-anchor:start;white-space:normal;shape-padding:0;shape-margin:0;inline-size:0;clip-rule:nonzero;display:inline;overflow:visible;visibility:visible;isolation:auto;mix-blend-mode:normal;color-interpolation:sRGB;color-interpolation-filters:linearRGB;solid-color:#000000;solid-opacity:1;vector-effect:none;fill:#000080;fill-opacity:1;fill-rule:evenodd;stroke:none;stroke-width:5;stroke-linecap:round;stroke-linejoin:round;stroke-miterlimit:4;stroke-dasharray:none;stroke-dashoffset:0;stroke-opacity:1;color-rendering:auto;image-rendering:auto;shape-rendering:auto;text-rendering:auto;enable-background:accumulate;stop-color:#000000;stop-opacity:1" />
    <path
       id="path934"
       d="M 75.855469 21.613281 A 2.5 2.5 0 0 0 74.119141 22.345703 L 22.345703 74.119141 A 2.5 2.5 0 0 0 22.345703 77.654297 A 2.5 2.5 0 0 0 25.880859 77.654297 L 77.654297 25.880859 A 2.5 2.5 0 0 0 77.654297 22.345703 A 2.5 2.5 0 0 0 75.855469 21.613281 z "
       style="color:#000000;font-style:normal;font-variant:normal;font-weight:normal;font-stretch:normal;font-size:medium;line-height:normal;font-family:sans-serif;font-variant-ligatures:normal;font-variant-position:normal;font-variant-caps:normal;font-variant-numeric:normal;font-variant-alternates:normal;font-variant-east-asian:normal;font-feature-settings:normal;font-variation-settings:normal;text-indent:0;text-align:start;text-decoration:none;text-decoration-line:none;text-decoration-style:solid;text-decoration-color:#000000;letter-spacing:normal;word-spacing:normal;text-transform:none;writing-mode:lr-tb;direction:ltr;text-orientation:mixed;dominant-baseline:auto;baseline-shift:baseline;text-anchor:start;white-space:normal;shape-padding:0;shape-margin:0;inline-size:0;clip-rule:nonzero;display:inline;overflow:visible;visibility:visible;isolation:auto;mix-blend-mode:normal;color-interpolation:sRGB;color-interpolation-filters:linearRGB;solid-color:#000000;solid-opacity:1;vector-effect:none;fill:#000080;fill-opacity:1;fill-rule:evenodd;stroke:none;stroke-width:5;stroke-linecap:round;stroke-linejoin:round;stroke-miterlimit:4;stroke-dasharray:none;stroke-dashoffset:0;stroke-opacity:1;color-rendering:auto;image-rendering:auto;shape-rendering:auto;text-rendering:auto;enable-background:accumulate;stop-color:#000000;stop-opacity:1" />
  </g>
</svg>
