<?xml version="1.0" encoding="UTF-8" standalone="no"?>
<svg
   xmlns:dc="http://purl.org/dc/elements/1.1/"
   xmlns:cc="http://creativecommons.org/ns#"
   xmlns:rdf="http://www.w3.org/1999/02/22-rdf-syntax-ns#"
   xmlns:svg="http://www.w3.org/2000/svg"
   xmlns="http://www.w3.org/2000/svg"
   xmlns:sodipodi="http://sodipodi.sourceforge.net/DTD/sodipodi-0.dtd"
   xmlns:inkscape="http://www.inkscape.org/namespaces/inkscape"
   version="1.1"
   width="100"
   height="100"
   id="svg4460"
   inkscape:version="1.0 (4035a4fb49, 2020-05-01)"
   sodipodi:docname="uEA71-union.svg">
  <sodipodi:namedview
     pagecolor="#ffffff"
     bordercolor="#666666"
     borderopacity="1"
     objecttolerance="10"
     gridtolerance="10"
     guidetolerance="10"
     inkscape:pageopacity="0"
     inkscape:pageshadow="2"
     inkscape:window-width="1920"
     inkscape:window-height="1017"
     id="namedview11"
     showgrid="false"
     inkscape:zoom="3.805"
     inkscape:cx="-22.039536"
     inkscape:cy="52.185994"
     inkscape:window-x="-8"
     inkscape:window-y="-8"
     inkscape:window-maximized="1"
     inkscape:current-layer="svg4460"
     inkscape:document-rotation="0" />
  <defs
     id="defs4462" />
  <metadata
     id="metadata4465">
    <rdf:RDF>
      <cc:Work
         rdf:about="">
        <dc:format>image/svg+xml</dc:format>
        <dc:type
           rdf:resource="http://purl.org/dc/dcmitype/StillImage" />
        <dc:title />
      </cc:Work>
    </rdf:RDF>
  </metadata>
  <path
     d="M 65 10.875 C 56.064877 10.875 47.911555 14.250112 41.722656 19.78125 C 39.546696 19.353701 37.299925 19.125 35 19.125 C 15.699645 19.125 0 34.824645 0 54.125 C 0 73.425355 15.699645 89.125 35 89.125 C 43.935123 89.125 52.088445 85.749888 58.277344 80.21875 C 60.453304 80.646299 62.700075 80.875 65 80.875 C 84.300355 80.875 100 65.175355 100 45.875 C 100 26.574645 84.300355 10.875 65 10.875 z M 48.804688 21.908203 C 52.107301 23.322991 55.180414 25.24721 57.898438 27.591797 L 54.632812 31.378906 C 52.30291 29.369116 49.659642 27.716327 46.833984 26.505859 L 48.804688 21.908203 z M 35.925781 26.400391 L 40.080078 29.183594 C 38.367868 31.740162 37.046135 34.563962 36.1875 37.515625 L 31.386719 36.117188 C 32.390287 32.667298 33.928347 29.382839 35.925781 26.400391 z M 61.691406 31.404297 C 64.023428 34.137567 65.925245 37.230288 67.3125 40.546875 L 62.701172 42.476562 C 61.515743 39.642491 59.881821 36.988771 57.886719 34.650391 L 61.691406 31.404297 z M 30.283203 41.380859 L 35.242188 42.029297 C 34.843986 45.074492 34.925154 48.190184 35.476562 51.214844 L 30.558594 52.111328 C 29.914336 48.577369 29.816936 44.946579 30.283203 41.380859 z M 69.001953 45.654297 C 69.432262 47.39508 69.730605 49.168662 69.892578 50.955078 C 70.054558 52.741495 70.079231 54.54057 69.964844 56.333984 L 64.976562 56.015625 C 65.172153 52.949091 64.885477 49.843096 64.146484 46.853516 L 69.001953 45.654297 z M 36.644531 55.681641 C 37.644299 58.589813 39.096877 61.347437 40.933594 63.808594 L 36.927734 66.798828 C 34.776846 63.916688 33.083591 60.704893 31.916016 57.308594 L 36.644531 55.681641 z M 64.330078 60.580078 L 69.210938 61.662109 C 68.433796 65.170947 67.111074 68.549594 65.304688 71.654297 L 60.982422 69.140625 C 62.528683 66.483011 63.665555 63.580442 64.330078 60.580078 z M 43.966797 67.28125 C 46.159671 69.435174 48.695057 71.253177 51.439453 72.644531 L 49.177734 77.103516 C 45.976097 75.480348 43.028277 73.367511 40.464844 70.849609 L 43.966797 67.28125 z "
     style="color:#000000;font-style:normal;font-variant:normal;font-weight:normal;font-stretch:normal;font-size:medium;line-height:normal;font-family:sans-serif;font-variant-ligatures:normal;font-variant-position:normal;font-variant-caps:normal;font-variant-numeric:normal;font-variant-alternates:normal;font-variant-east-asian:normal;font-feature-settings:normal;font-variation-settings:normal;text-indent:0;text-align:start;text-decoration:none;text-decoration-line:none;text-decoration-style:solid;text-decoration-color:#000000;letter-spacing:normal;word-spacing:normal;text-transform:none;writing-mode:lr-tb;direction:ltr;text-orientation:mixed;dominant-baseline:auto;baseline-shift:baseline;text-anchor:start;white-space:normal;shape-padding:0;shape-margin:0;inline-size:0;clip-rule:nonzero;display:inline;overflow:visible;visibility:visible;isolation:auto;mix-blend-mode:normal;color-interpolation:sRGB;color-interpolation-filters:linearRGB;solid-color:#000000;solid-opacity:1;vector-effect:none;fill:#000080;fill-opacity:1;fill-rule:nonzero;stroke:none;stroke-width:5;stroke-linecap:butt;stroke-linejoin:bevel;stroke-miterlimit:4;stroke-dasharray:none;stroke-dashoffset:50;stroke-opacity:1;color-rendering:auto;image-rendering:auto;shape-rendering:auto;text-rendering:auto;enable-background:accumulate;stop-color:#000000;stop-opacity:1;opacity:1"
     id="path869" />
</svg>
