<?xml version="1.0" encoding="UTF-8" standalone="no"?>
<svg
   xmlns:dc="http://purl.org/dc/elements/1.1/"
   xmlns:cc="http://creativecommons.org/ns#"
   xmlns:rdf="http://www.w3.org/1999/02/22-rdf-syntax-ns#"
   xmlns:svg="http://www.w3.org/2000/svg"
   xmlns="http://www.w3.org/2000/svg"
   xmlns:sodipodi="http://sodipodi.sourceforge.net/DTD/sodipodi-0.dtd"
   xmlns:inkscape="http://www.inkscape.org/namespaces/inkscape"
   version="1.1"
   width="100"
   height="100"
   id="svg4460"
   inkscape:version="1.0 (4035a4fb49, 2020-05-01)"
   sodipodi:docname="uEA75-offset.svg">
  <sodipodi:namedview
     pagecolor="#ffffff"
     bordercolor="#666666"
     borderopacity="1"
     objecttolerance="10"
     gridtolerance="10"
     guidetolerance="10"
     inkscape:pageopacity="0"
     inkscape:pageshadow="2"
     inkscape:window-width="1920"
     inkscape:window-height="1017"
     id="namedview11"
     showgrid="false"
     inkscape:zoom="3.805"
     inkscape:cx="111.64999"
     inkscape:cy="51.943742"
     inkscape:window-x="-8"
     inkscape:window-y="-8"
     inkscape:window-maximized="1"
     inkscape:current-layer="svg4460"
     inkscape:document-rotation="0" />
  <defs
     id="defs4462" />
  <metadata
     id="metadata4465">
    <rdf:RDF>
      <cc:Work
         rdf:about="">
        <dc:format>image/svg+xml</dc:format>
        <dc:type
           rdf:resource="http://purl.org/dc/dcmitype/StillImage" />
        <dc:title />
      </cc:Work>
    </rdf:RDF>
  </metadata>
  <path
     id="path835"
     d="m 96,70.895093 -8.266738,8.266739 -13.16183,-13.16183 -8.571429,8.571429 13.16183,13.161832 L 70.895093,96 H 96 Z"
     style="color:#000000;overflow:visible;fill:#000080;stroke:none;stroke-width:4.75427;stroke-linejoin:bevel;stroke-miterlimit:4;stroke-dasharray:none" />
  <g
     transform="matrix(0.43443249,-0.43443249,0.43443249,0.43443249,6.5567515,50)"
     id="g879"
     style="stroke-width:16.2766;stroke-miterlimit:4;stroke-dasharray:none" />
  <path
     d="M 48.8125,4 C 48.647049,17.107453 46.749318,28.688267 40.537109,37.083985 34.3249,45.479703 23.64711,51.357366 4,52.587891 l 0.4375,6.986328 C 25.355811,58.264077 38.554941,51.52972 46.164062,41.246094 53.773183,30.962468 55.639468,17.795983 55.8125,4.0878907 Z m 25.96875,2.1230469 c -0.06848,3.2901639 -0.221563,6.5647391 -0.513672,9.8125001 l 4.980469,0.447266 c 0.305126,-3.392497 0.461009,-6.7817062 0.53125,-10.1562504 z M 73.722656,20.78711 c -0.441205,3.218865 -1.042778,6.405385 -1.849609,9.52539 l 4.839843,1.251953 c 0.862401,-3.334889 1.498878,-6.712391 1.962891,-10.097656 z m -3.212891,14.162109 c -1.00779,3.049571 -2.235449,6.024785 -3.685547,8.880859 l 4.457032,2.263672 c 1.568043,-3.088377 2.892653,-6.294309 3.976562,-9.574219 z m -6.023437,13.072266 c -1.678188,2.74076 -3.542999,5.348205 -5.628907,7.736328 l 3.765626,3.289062 C 64.923511,56.413109 66.948034,53.575723 68.75,50.632813 Z M 55.558593,59.212891 C 53.2582,61.4191 50.758484,63.428777 48.113281,65.234375 l 2.818359,4.13086 c 2.860468,-1.952537 5.576403,-4.134308 8.087891,-6.542969 z m -11.519531,8.583984 c -2.781289,1.60823 -5.685102,3.017245 -8.671875,4.240235 l 1.894531,4.626953 c 3.182273,-1.30304 6.28894,-2.809943 9.279297,-4.539063 z m -13.212891,5.939453 c -3.062139,1.042433 -6.190434,1.904621 -9.361328,2.605469 l 1.078125,4.882813 c 3.338344,-0.737859 6.645402,-1.649771 9.894532,-2.75586 z m -14.146484,3.53711 c -3.207232,0.541055 -6.442848,0.925452 -9.6933588,1.167969 l 0.3710937,4.986328 c 3.3974981,-0.253483 6.7876401,-0.65666 10.1542961,-1.22461 z"
     style="color:#000000;font-style:normal;font-variant:normal;font-weight:normal;font-stretch:normal;font-size:medium;line-height:normal;font-family:sans-serif;font-variant-ligatures:normal;font-variant-position:normal;font-variant-caps:normal;font-variant-numeric:normal;font-variant-alternates:normal;font-variant-east-asian:normal;font-feature-settings:normal;font-variation-settings:normal;text-indent:0;text-align:start;text-decoration:none;text-decoration-line:none;text-decoration-style:solid;text-decoration-color:#000000;letter-spacing:normal;word-spacing:normal;text-transform:none;writing-mode:lr-tb;direction:ltr;text-orientation:mixed;dominant-baseline:auto;baseline-shift:baseline;text-anchor:start;white-space:normal;shape-padding:0;shape-margin:0;inline-size:0;clip-rule:nonzero;display:inline;overflow:visible;visibility:visible;opacity:1;isolation:auto;mix-blend-mode:normal;color-interpolation:sRGB;color-interpolation-filters:linearRGB;solid-color:#000000;solid-opacity:1;vector-effect:none;fill:#000080;fill-opacity:1;fill-rule:evenodd;stroke:none;stroke-width:7;stroke-linecap:butt;stroke-linejoin:miter;stroke-miterlimit:4;stroke-dasharray:none;stroke-dashoffset:0;stroke-opacity:1;color-rendering:auto;image-rendering:auto;shape-rendering:auto;text-rendering:auto;enable-background:accumulate;stop-color:#000000;stop-opacity:1"
     id="path929" />
</svg>
