<?xml version="1.0" encoding="UTF-8" standalone="no"?>
<svg
   xmlns:dc="http://purl.org/dc/elements/1.1/"
   xmlns:cc="http://creativecommons.org/ns#"
   xmlns:rdf="http://www.w3.org/1999/02/22-rdf-syntax-ns#"
   xmlns:svg="http://www.w3.org/2000/svg"
   xmlns="http://www.w3.org/2000/svg"
   xmlns:sodipodi="http://sodipodi.sourceforge.net/DTD/sodipodi-0.dtd"
   xmlns:inkscape="http://www.inkscape.org/namespaces/inkscape"
   sodipodi:docname="uEA73-move.svg"
   inkscape:version="1.0 (4035a4fb49, 2020-05-01)"
   id="svg4460"
   height="100"
   width="100"
   version="1.1">
  <sodipodi:namedview
     inkscape:document-rotation="0"
     inkscape:current-layer="svg4460"
     inkscape:window-maximized="1"
     inkscape:window-y="-8"
     inkscape:window-x="-8"
     inkscape:cy="37.303998"
     inkscape:cx="80.4582"
     inkscape:zoom="7.61"
     showgrid="false"
     id="namedview11"
     inkscape:window-height="1017"
     inkscape:window-width="1920"
     inkscape:pageshadow="2"
     inkscape:pageopacity="0"
     guidetolerance="10"
     gridtolerance="10"
     objecttolerance="10"
     borderopacity="1"
     bordercolor="#666666"
     pagecolor="#ffffff" />
  <defs
     id="defs4462" />
  <metadata
     id="metadata4465">
    <rdf:RDF>
      <cc:Work
         rdf:about="">
        <dc:format>image/svg+xml</dc:format>
        <dc:type
           rdf:resource="http://purl.org/dc/dcmitype/StillImage" />
        <dc:title />
      </cc:Work>
    </rdf:RDF>
  </metadata>
  <path
     d="M 50 0 L 35.355469 14.644531 L 45 14.644531 L 45 30 L 55 30 L 55 14.644531 L 64.644531 14.644531 L 50 0 z M 14.644531 35.355469 L 0 50 L 14.644531 64.644531 L 14.644531 55 L 30 55 L 30 45 L 14.644531 45 L 14.644531 35.355469 z M 85.355469 35.355469 L 85.355469 45 L 70 45 L 70 55 L 85.355469 55 L 85.355469 64.644531 L 100 50 L 85.355469 35.355469 z M 50 37.449219 C 43.110289 37.449219 37.449219 43.110289 37.449219 50 C 37.449219 56.889711 43.110289 62.550781 50 62.550781 C 56.655857 62.550781 62.114194 57.253892 62.480469 50.683594 A 3.5 3.5 0 0 0 62.550781 50 A 3.5 3.5 0 0 0 62.478516 49.300781 C 62.104267 42.737846 56.6505 37.449219 50 37.449219 z M 50 44.449219 C 53.10663 44.449219 55.550781 46.89337 55.550781 50 C 55.550781 53.10663 53.10663 55.550781 50 55.550781 C 46.89337 55.550781 44.449219 53.10663 44.449219 50 C 44.449219 46.89337 46.89337 44.449219 50 44.449219 z M 45 70 L 45 85.355469 L 35.355469 85.355469 L 50 100 L 64.644531 85.355469 L 55 85.355469 L 55 70 L 45 70 z "
     style="color:#000000;overflow:visible;fill:#000080;stroke:none;stroke-width:3.92207;stroke-linejoin:bevel;stroke-miterlimit:4;stroke-dasharray:none"
     id="rect836" />
  <g
     style="stroke-width:16.2766;stroke-miterlimit:4;stroke-dasharray:none"
     id="g879"
     transform="matrix(0.43443249,-0.43443249,0.43443249,0.43443249,6.5567515,50)" />
</svg>
