<?xml version="1.0" encoding="UTF-8" standalone="no"?>
<svg
   xmlns:dc="http://purl.org/dc/elements/1.1/"
   xmlns:cc="http://creativecommons.org/ns#"
   xmlns:rdf="http://www.w3.org/1999/02/22-rdf-syntax-ns#"
   xmlns:svg="http://www.w3.org/2000/svg"
   xmlns="http://www.w3.org/2000/svg"
   xmlns:sodipodi="http://sodipodi.sourceforge.net/DTD/sodipodi-0.dtd"
   xmlns:inkscape="http://www.inkscape.org/namespaces/inkscape"
   sodipodi:docname="uEA76-snap.svg"
   inkscape:version="1.0 (4035a4fb49, 2020-05-01)"
   id="svg4460"
   height="100"
   width="100"
   version="1.1">
  <sodipodi:namedview
     inkscape:document-rotation="0"
     inkscape:current-layer="svg4460"
     inkscape:window-maximized="1"
     inkscape:window-y="-8"
     inkscape:window-x="-8"
     inkscape:cy="53.407576"
     inkscape:cx="42.154321"
     inkscape:zoom="4"
     showgrid="false"
     id="namedview11"
     inkscape:window-height="1017"
     inkscape:window-width="1920"
     inkscape:pageshadow="2"
     inkscape:pageopacity="0"
     guidetolerance="10"
     gridtolerance="10"
     objecttolerance="10"
     borderopacity="1"
     bordercolor="#666666"
     pagecolor="#ffffff" />
  <defs
     id="defs4462" />
  <metadata
     id="metadata4465">
    <rdf:RDF>
      <cc:Work
         rdf:about="">
        <dc:format>image/svg+xml</dc:format>
        <dc:type
           rdf:resource="http://purl.org/dc/dcmitype/StillImage" />
        <dc:title></dc:title>
      </cc:Work>
    </rdf:RDF>
  </metadata>
  <path
     sodipodi:nodetypes="ssccscccccccsccccccccssccccscccccssssccccssssccsssccss"
     inkscape:connector-curvature="0"
     id="path4133"
     d="m 29.045387,2.3340607 c -7.467034,0 -14.940614,2.8219321 -20.5825234,8.4638413 -11.2838206,11.283818 -11.2838144,29.872485 0,41.156302 h 0.00873 c 4.5936614,4.58474 9.2770204,9.27449 13.9373584,13.937358 3.097239,3.098926 6.164185,6.162374 9.259512,9.259515 l 1.582599,1.582595 3.156453,3.165196 15.834726,-15.825983 -3.165195,-3.165196 -10.842111,-10.84211 c -4.662415,-4.664945 -9.340483,-9.349431 -13.946102,-13.946103 -2.751074,-2.756093 -2.755434,-6.740153 0,-9.49559 2.75544,-2.755437 6.748071,-2.756263 9.504334,0 l 13.93736,13.946101 10.84211,10.842111 3.165196,3.156452 L 77.56383,38.742567 74.407378,35.586114 63.556524,24.744004 49.619167,10.797902 C 43.977258,5.1559941 36.512421,2.3340607 29.045387,2.3340607 Z m 0,4.4679989 c 6.318841,0 12.635822,2.3882794 17.408584,7.1610394 L 60.391328,27.9092 50.895737,37.404791 36.958379,23.458689 c -4.386814,-4.386816 -11.449185,-4.385545 -15.834728,0 -4.385551,4.385548 -4.379377,11.438616 0,15.825985 4.603511,4.594575 9.282004,9.279172 13.946102,13.9461 l -9.49559,9.495592 C 20.913117,58.062491 16.232579,53.375861 11.636805,48.789009 h -0.0087 c -9.5455211,-9.545521 -9.5455211,-25.280388 0,-34.82591 C 16.400838,9.1903381 22.72656,6.8020592 29.045401,6.8020596 Z M 92.87394,45.04673 c -3.933624,0 -7.117322,3.183702 -7.117322,7.117322 0,2.658889 1.469495,4.958243 3.62861,6.18175 -1.190124,8.333545 -2.375019,16.855772 -3.62861,25.076755 -1.557727,0 -2.989613,0.515644 -4.161969,1.364005 L 69.729531,76.331464 c 0.12038,-0.519101 0.192366,-1.0531 0.192366,-1.60883 0,-3.933624 -3.183698,-7.12606 -7.117322,-7.12606 -3.933625,0 -7.126066,3.192436 -7.126066,7.12606 0,3.933624 3.192441,7.117323 7.126066,7.117323 1.74331,0 3.317436,-0.647628 4.555439,-1.687522 l 11.629036,8.280223 c -0.210765,0.672922 -0.358497,1.37355 -0.358497,2.115964 0,3.933624 3.192441,7.117317 7.126061,7.117317 3.933624,0 7.117322,-3.183693 7.117322,-7.117317 0,-2.282857 -1.09271,-4.292475 -2.762987,-5.595928 l 3.681068,-25.75876 C 97.28671,58.738734 100,55.782831 100,52.164052 100,48.230428 96.80756,45.04673 92.873936,45.04673 Z"
     style="color:#000000;font-style:normal;font-variant:normal;font-weight:normal;font-stretch:normal;font-size:medium;line-height:normal;font-family:sans-serif;text-indent:0;text-align:start;text-decoration:none;text-decoration-line:none;text-decoration-style:solid;text-decoration-color:#000000;letter-spacing:normal;word-spacing:normal;text-transform:none;writing-mode:lr-tb;direction:ltr;baseline-shift:baseline;text-anchor:start;white-space:normal;clip-rule:nonzero;display:inline;overflow:visible;visibility:visible;opacity:1;isolation:auto;mix-blend-mode:normal;color-interpolation:sRGB;color-interpolation-filters:linearRGB;solid-color:#000000;solid-opacity:1;fill:#000080;fill-opacity:1;fill-rule:evenodd;stroke:none;stroke-width:4.47674;stroke-linecap:butt;stroke-linejoin:miter;stroke-miterlimit:4;stroke-dasharray:none;stroke-dashoffset:0;stroke-opacity:1;color-rendering:auto;image-rendering:auto;shape-rendering:auto;text-rendering:auto;enable-background:accumulate" />
</svg>
