<?xml version="1.0" encoding="UTF-8" standalone="no"?>
<svg
   xmlns:dc="http://purl.org/dc/elements/1.1/"
   xmlns:cc="http://creativecommons.org/ns#"
   xmlns:rdf="http://www.w3.org/1999/02/22-rdf-syntax-ns#"
   xmlns:svg="http://www.w3.org/2000/svg"
   xmlns="http://www.w3.org/2000/svg"
   xmlns:sodipodi="http://sodipodi.sourceforge.net/DTD/sodipodi-0.dtd"
   xmlns:inkscape="http://www.inkscape.org/namespaces/inkscape"
   version="1.1"
   width="100"
   height="100"
   id="svg4460"
   inkscape:version="1.0 (4035a4fb49, 2020-05-01)"
   sodipodi:docname="uEA77-split.svg">
  <sodipodi:namedview
     pagecolor="#ffffff"
     bordercolor="#666666"
     borderopacity="1"
     objecttolerance="10"
     gridtolerance="10"
     guidetolerance="10"
     inkscape:pageopacity="0"
     inkscape:pageshadow="2"
     inkscape:window-width="1920"
     inkscape:window-height="1017"
     id="namedview11"
     showgrid="false"
     inkscape:zoom="5.6568542"
     inkscape:cx="58.125284"
     inkscape:cy="64.39518"
     inkscape:window-x="-8"
     inkscape:window-y="-8"
     inkscape:window-maximized="1"
     inkscape:current-layer="svg4460"
     inkscape:document-rotation="0" />
  <defs
     id="defs4462" />
  <metadata
     id="metadata4465">
    <rdf:RDF>
      <cc:Work
         rdf:about="">
        <dc:format>image/svg+xml</dc:format>
        <dc:type
           rdf:resource="http://purl.org/dc/dcmitype/StillImage" />
        <dc:title />
      </cc:Work>
    </rdf:RDF>
  </metadata>
  <path
     sodipodi:nodetypes="ccccccccccccccc"
     d="M 4.7265857,1.0622022 -1.2654186e-7,5.7381221 9.3512802,15.193382 14.077866,10.517462 Z m 14.0272003,14.1818458 -4.726586,4.67592 9.351839,9.453171 4.727145,-4.678008 z m 14.028318,14.177669 -4.726586,4.67592 9.35184,9.453171 4.726586,-4.67592 z"
     style="color:#000000;overflow:visible;fill:#000080;stroke:none;stroke-width:10.2145;stroke-linecap:round;stroke-linejoin:round;stroke-dasharray:20.429, 10.2145;stroke-dashoffset:51.0724;stop-color:#000000"
     id="path836" />
  <path
     sodipodi:nodetypes="sccccccccsscccsszccccssscsssssssssssscssssss"
     d="m 43.011585,8.9478322 c -0.640782,-0.2053195 -1.290782,-0.3055837 -1.938002,-0.293424 -0.493124,0.00924 -0.983809,0.083992 -1.465502,0.2311286 L 52.900623,52.400654 8.569982,42.154417 c -0.9074039,3.925812 2.786939,10.106754 8.283078,11.377121 l 38.484467,8.843777 3.881727,10.717713 c -3.788376,-0.293343 -7.142315,3.189866 -8.19232,6.349994 -0.8936,2.835435 -0.854706,6.103437 0.141703,9.365535 0.996404,3.262083 2.789288,5.993016 5.114716,7.845199 2.325432,1.852198 5.404401,2.85329 8.38483,1.942869 13.461126,-5.072285 3.56332,-26.362406 0.778887,-34.354888 9.878392,1.708047 31.332783,9.816643 34.352475,-3.302427 0.701785,-3.0363 -0.510796,-6.036458 -2.519581,-8.228054 -2.008763,-2.19159 -4.855676,-3.789579 -8.178929,-4.557713 -3.323264,-0.768127 -6.454188,-0.912305 -9.352755,0.505432 -2.898567,1.417737 -6.290069,4.410782 -5.788377,7.894885 -0.0036,0.240933 0.007,0.479019 0.02005,0.717913 L 63.023201,54.278631 51.538678,16.499267 C 50.367125,12.663769 45.788314,9.8375282 43.011585,8.9478322 Z M 87.789803,53.819815 c 2.271297,0.524984 4.126118,1.650778 5.201697,2.824251 1.075587,1.173477 1.327286,2.181014 1.141103,2.986526 -0.186135,0.805521 -0.852845,1.596534 -2.33429,2.178983 -1.481436,0.582451 -3.642445,0.779559 -5.913744,0.254578 -2.271301,-0.524984 -4.125444,-1.653285 -5.201025,-2.826758 -1.075582,-1.173473 -1.331137,-2.17667 -1.144953,-2.98218 0.18619,-0.805511 0.855355,-1.595863 2.336796,-2.178311 0.740722,-0.291225 1.650821,-0.489171 2.660244,-0.545565 1.009422,-0.0564 2.118516,0.02598 3.254172,0.288476 z m -28.03182,24.84901 c 0.556553,0.114933 1.186443,0.418258 1.886827,0.976121 1.245137,0.991739 2.499114,2.760725 3.180115,4.990224 0.681002,2.229496 0.632166,4.400748 0.153692,5.918974 -0.478471,1.518211 -1.220402,2.236489 -2.011085,2.478002 -0.790683,0.241526 -1.812359,0.05935 -3.057487,-0.932185 -1.24514,-0.991744 -2.495933,-2.762557 -3.176935,-4.992062 -0.681,-2.229497 -0.632166,-4.400756 -0.153691,-5.918973 0.478463,-1.51822 1.221071,-2.238997 2.011759,-2.480512 0.197673,-0.06039 0.409964,-0.09442 0.636026,-0.09577 0.169544,-0.001 0.345259,0.01788 0.530782,0.05617 z"
     style="color:#000000;overflow:visible;fill:#000080;stroke:none;stroke-width:10.2145;stroke-linecap:round;stroke-linejoin:round;stroke-dasharray:20.429, 10.2145;stroke-dashoffset:51.0724;stop-color:#000000"
     id="rect830" />
</svg>
