<?xml version="1.0" encoding="UTF-8" standalone="no"?>
<svg
   xmlns:dc="http://purl.org/dc/elements/1.1/"
   xmlns:cc="http://creativecommons.org/ns#"
   xmlns:rdf="http://www.w3.org/1999/02/22-rdf-syntax-ns#"
   xmlns:svg="http://www.w3.org/2000/svg"
   xmlns="http://www.w3.org/2000/svg"
   xmlns:sodipodi="http://sodipodi.sourceforge.net/DTD/sodipodi-0.dtd"
   xmlns:inkscape="http://www.inkscape.org/namespaces/inkscape"
   version="1.1"
   width="100"
   height="100"
   id="svg4460"
   inkscape:version="1.0 (4035a4fb49, 2020-05-01)"
   sodipodi:docname="uEA70-intersection.svg">
  <sodipodi:namedview
     pagecolor="#ffffff"
     bordercolor="#666666"
     borderopacity="1"
     objecttolerance="10"
     gridtolerance="10"
     guidetolerance="10"
     inkscape:pageopacity="0"
     inkscape:pageshadow="2"
     inkscape:window-width="1920"
     inkscape:window-height="1017"
     id="namedview11"
     showgrid="false"
     inkscape:zoom="3.805"
     inkscape:cx="-22.039536"
     inkscape:cy="52.185994"
     inkscape:window-x="-8"
     inkscape:window-y="-8"
     inkscape:window-maximized="1"
     inkscape:current-layer="svg4460"
     inkscape:document-rotation="0" />
  <defs
     id="defs4462" />
  <metadata
     id="metadata4465">
    <rdf:RDF>
      <cc:Work
         rdf:about="">
        <dc:format>image/svg+xml</dc:format>
        <dc:type
           rdf:resource="http://purl.org/dc/dcmitype/StillImage" />
        <dc:title />
      </cc:Work>
    </rdf:RDF>
  </metadata>
  <path
     d="M 66.076172 10.865234 L 65.931641 15.861328 C 69.007279 15.950918 72.073064 16.516791 74.974609 17.53125 L 76.625 12.808594 C 73.233143 11.622709 69.66424 10.969752 66.076172 10.865234 z M 60.707031 11.119141 C 57.142229 11.561617 53.64959 12.554213 50.386719 14.064453 L 52.486328 18.603516 C 55.273826 17.313305 58.27121 16.458787 61.322266 16.080078 L 60.707031 11.119141 z M 81.550781 14.966797 L 79.199219 19.380859 C 81.909432 20.825007 84.397559 22.701121 86.541016 24.90625 L 90.126953 21.419922 C 87.623724 18.844669 84.72458 16.657969 81.550781 14.966797 z M 31.669922 19.289062 C 29.881103 19.460942 28.109116 19.771223 26.371094 20.214844 C 24.633071 20.658464 22.929649 21.234244 21.279297 21.935547 L 23.234375 26.537109 C 26.068654 25.332716 29.089758 24.559518 32.148438 24.265625 L 31.669922 19.289062 z M 41.710938 19.777344 C 41.295364 20.148578 40.891047 20.531214 40.494141 20.921875 C 40.332121 21.080989 40.176503 21.245998 40.017578 21.408203 C 39.802304 21.628512 39.586397 21.848307 39.376953 22.074219 C 39.166578 22.300477 38.962227 22.531924 38.757812 22.763672 C 38.605964 22.936285 38.455186 23.109591 38.306641 23.285156 C 38.084711 23.546886 37.866652 23.811854 37.652344 24.080078 C 37.609644 24.133568 37.563894 24.184542 37.521484 24.238281 C 37.523384 24.238442 37.525344 24.23812 37.527344 24.238281 C 32.821561 30.197391 30 37.708916 30 45.875 C 30 61.284826 40.010524 74.392719 53.869141 79.052734 C 54.825753 79.374399 55.799754 79.657356 56.791016 79.896484 C 57.286236 80.01595 57.785953 80.124548 58.289062 80.222656 C 58.704636 79.851422 59.108953 79.468786 59.505859 79.078125 C 59.667879 78.919011 59.823497 78.754002 59.982422 78.591797 C 60.197696 78.371488 60.413603 78.151693 60.623047 77.925781 C 60.833422 77.699523 61.037773 77.468076 61.242188 77.236328 C 61.394036 77.063715 61.544814 76.890409 61.693359 76.714844 C 61.915289 76.453114 62.133348 76.188146 62.347656 75.919922 C 62.390356 75.866432 62.436106 75.815458 62.478516 75.761719 C 62.476616 75.761558 62.474656 75.76188 62.472656 75.761719 C 67.178439 69.802609 70 62.291084 70 54.125 C 70 38.715174 59.989476 25.607281 46.130859 20.947266 C 45.174247 20.625601 44.200246 20.342644 43.208984 20.103516 C 42.713606 19.983758 42.214457 19.875532 41.710938 19.777344 z M 16.503906 24.414062 C 13.449722 26.310423 10.699326 28.679517 8.3710938 31.416016 L 12.179688 34.658203 C 14.171546 32.317061 16.530779 30.282576 19.140625 28.662109 L 16.503906 24.414062 z M 93.570312 25.542969 L 89.501953 28.449219 C 91.289402 30.950747 92.689879 33.733537 93.626953 36.658203 L 98.388672 35.132812 C 97.291421 31.708225 95.658737 28.46571 93.570312 25.542969 z M 5.2109375 35.765625 C 3.3277585 38.821501 1.9153098 42.163054 1.0429688 45.648438 L 5.8925781 46.863281 C 6.6389377 43.881249 7.8505741 41.008183 9.4648438 38.388672 L 5.2109375 35.765625 z M 99.632812 40.365234 L 94.695312 41.144531 C 95.17598 44.180734 95.182552 47.299397 94.722656 50.341797 L 99.666016 51.089844 C 100.20252 47.540634 100.19461 43.913933 99.632812 40.365234 z M 0.140625 50.949219 C -0.19041877 54.530024 0.040873695 58.153098 0.81835938 61.660156 L 5.6992188 60.578125 C 5.0337822 57.576491 4.8344701 54.468237 5.1171875 51.410156 L 0.140625 50.949219 z M 93.6875 54.837891 C 92.771181 57.77197 91.396027 60.567212 89.628906 63.080078 L 93.71875 65.957031 C 95.786738 63.016345 97.389872 59.757691 98.460938 56.328125 L 93.6875 54.837891 z M 7.0371094 65 L 2.3730469 66.800781 C 3.6682675 70.150481 5.4799022 73.298947 7.7382812 76.097656 L 11.630859 72.957031 C 9.7023531 70.567118 8.1461767 67.868271 7.0371094 65 z M 86.693359 66.636719 C 84.556832 68.85459 82.080335 70.750856 79.380859 72.21875 L 81.769531 76.611328 C 83.348275 75.752851 84.857585 74.772233 86.283203 73.683594 C 87.708802 72.594932 89.050879 71.396924 90.294922 70.105469 L 86.693359 66.636719 z M 75.173828 74.101562 C 72.280572 75.13734 69.219334 75.723115 66.146484 75.830078 L 66.320312 80.826172 C 69.910105 80.701212 73.475788 80.019896 76.859375 78.808594 L 75.173828 74.101562 z M 14.792969 76.314453 L 11.427734 80.011719 C 14.084585 82.430844 17.108391 84.430752 20.369141 85.931641 L 22.460938 81.388672 C 19.665872 80.102134 17.065756 78.38388 14.792969 76.314453 z M 49.169922 80.585938 C 46.458431 82.035094 43.514098 83.065856 40.488281 83.632812 L 41.408203 88.546875 C 44.934354 87.88617 48.357318 86.689271 51.525391 84.996094 L 49.169922 80.585938 z M 26.787109 82.992188 L 25.412109 87.800781 C 28.865596 88.789229 32.466866 89.2412 36.060547 89.128906 L 35.904297 84.130859 C 32.834184 84.226789 29.742892 83.838183 26.787109 82.992188 z "
     style="color:#000000;font-style:normal;font-variant:normal;font-weight:normal;font-stretch:normal;font-size:medium;line-height:normal;font-family:sans-serif;font-variant-ligatures:normal;font-variant-position:normal;font-variant-caps:normal;font-variant-numeric:normal;font-variant-alternates:normal;font-variant-east-asian:normal;font-feature-settings:normal;font-variation-settings:normal;text-indent:0;text-align:start;text-decoration:none;text-decoration-line:none;text-decoration-style:solid;text-decoration-color:#000000;letter-spacing:normal;word-spacing:normal;text-transform:none;writing-mode:lr-tb;direction:ltr;text-orientation:mixed;dominant-baseline:auto;baseline-shift:baseline;text-anchor:start;white-space:normal;shape-padding:0;shape-margin:0;inline-size:0;clip-rule:nonzero;display:inline;overflow:visible;visibility:visible;isolation:auto;mix-blend-mode:normal;color-interpolation:sRGB;color-interpolation-filters:linearRGB;solid-color:#000000;solid-opacity:1;vector-effect:none;fill:#000080;fill-opacity:1;fill-rule:nonzero;stroke:none;stroke-width:5;stroke-linecap:butt;stroke-linejoin:bevel;stroke-miterlimit:4;stroke-dasharray:none;stroke-dashoffset:50;stroke-opacity:1;color-rendering:auto;image-rendering:auto;shape-rendering:auto;text-rendering:auto;enable-background:accumulate;stop-color:#000000"
     id="path864" />
</svg>
