<?xml version="1.0" encoding="UTF-8" standalone="no"?>
<svg
   xmlns:dc="http://purl.org/dc/elements/1.1/"
   xmlns:cc="http://creativecommons.org/ns#"
   xmlns:rdf="http://www.w3.org/1999/02/22-rdf-syntax-ns#"
   xmlns:svg="http://www.w3.org/2000/svg"
   xmlns="http://www.w3.org/2000/svg"
   xmlns:sodipodi="http://sodipodi.sourceforge.net/DTD/sodipodi-0.dtd"
   xmlns:inkscape="http://www.inkscape.org/namespaces/inkscape"
   sodipodi:docname="uEAA8-convex-hull.svg"
   inkscape:version="1.0 (4035a4fb49, 2020-05-01)"
   id="svg4460"
   height="100"
   width="100"
   version="1.1">
  <sodipodi:namedview
     inkscape:document-rotation="0"
     inkscape:current-layer="svg4460"
     inkscape:window-maximized="1"
     inkscape:window-y="-8"
     inkscape:window-x="-8"
     inkscape:cy="58.240203"
     inkscape:cx="21.592348"
     inkscape:zoom="5.6568542"
     showgrid="false"
     id="namedview11"
     inkscape:window-height="1017"
     inkscape:window-width="1920"
     inkscape:pageshadow="2"
     inkscape:pageopacity="0"
     guidetolerance="10"
     gridtolerance="10"
     objecttolerance="10"
     borderopacity="1"
     bordercolor="#666666"
     pagecolor="#ffffff" />
  <defs
     id="defs4462" />
  <metadata
     id="metadata4465">
    <rdf:RDF>
      <cc:Work
         rdf:about="">
        <dc:format>image/svg+xml</dc:format>
        <dc:type
           rdf:resource="http://purl.org/dc/dcmitype/StillImage" />
        <dc:title />
      </cc:Work>
    </rdf:RDF>
  </metadata>
  <path
     d="M 41.785156 0 A 3.50035 3.50035 0 0 0 41.386719 0.01953125 L 3.1367188 4.0195312 A 3.50035 3.50035 0 0 0 0 7.5 L 0 53 A 3.50035 3.50035 0 0 0 3.7480469 56.490234 L 47.9375 53.351562 A 3.50035 3.50035 0 0 0 51.009766 50.970703 L 61.570312 19.359375 A 3.50035 3.50035 0 0 0 60.582031 15.640625 L 44.082031 0.890625 A 3.50035 3.50035 0 0 0 41.785156 0 z M 40.572266 7.1425781 L 54.201172 19.324219 L 45.109375 46.535156 L 7 49.244141 L 7 10.652344 L 40.572266 7.1425781 z M 14.162109 12.486328 L 10.699219 16.091797 L 17.912109 23.019531 L 21.375 19.412109 L 14.162109 12.486328 z M 24.980469 22.875 L 21.517578 26.482422 L 28.730469 33.408203 L 32.193359 29.802734 L 24.980469 22.875 z M 35.800781 33.265625 L 32.335938 36.871094 L 39.548828 43.798828 L 43.011719 40.193359 L 35.800781 33.265625 z M 60.712891 37.458984 C 60.373872 37.453584 60.035624 37.494364 59.701172 37.583984 L 67.796875 67.796875 L 37.583984 59.701172 C 36.867056 62.376786 39.304921 65.338097 43.050781 66.341797 L 69.28125 73.333984 L 71.646484 82.164062 C 71.482041 82.160763 71.317794 82.159869 71.152344 82.167969 A 2 2 0 0 0 70.044922 82.144531 A 2 2 0 0 0 69.095703 82.71875 C 67.596785 83.489475 66.422696 84.755845 65.865234 86.332031 C 65.183765 88.258833 65.133344 90.504581 65.740234 92.769531 C 66.347124 95.034471 67.514789 96.95333 69.068359 98.28125 C 70.621933 99.60918 72.71188 100.37089 74.78125 99.816406 C 76.850619 99.261916 78.277517 97.557669 78.958984 95.630859 C 79.640454 93.704059 79.692827 91.458301 79.085938 89.193359 C 78.79629 88.112384 78.375928 87.113491 77.849609 86.216797 L 74.808594 74.808594 L 86.216797 77.849609 C 87.113491 78.375928 88.112384 78.796291 89.193359 79.085938 C 91.458301 79.692826 93.704058 79.640454 95.630859 78.958984 C 97.557671 78.277517 99.261921 76.850619 99.816406 74.78125 C 100.37089 72.71188 99.609184 70.621933 98.28125 69.068359 C 96.953326 67.514789 95.034473 66.347124 92.769531 65.740234 C 90.50458 65.133344 88.258833 65.183765 86.332031 65.865234 C 84.755845 66.422696 83.489475 67.596785 82.71875 69.095703 A 2 2 0 0 0 82.144531 70.044922 A 2 2 0 0 0 82.167969 71.152344 C 82.159769 71.317794 82.160762 71.482041 82.164062 71.646484 L 73.333984 69.28125 L 66.341797 43.050781 C 65.463559 39.773154 63.08602 37.496647 60.712891 37.458984 z M 57.4375 54.044922 L 53.974609 57.652344 L 57.580078 61.115234 L 61.042969 57.509766 L 57.4375 54.044922 z M 89.505859 69.328125 C 90.200725 69.313415 90.960379 69.396125 91.734375 69.603516 C 93.282368 70.018299 94.529205 70.836118 95.240234 71.667969 C 95.951263 72.499819 96.100227 73.197103 95.953125 73.746094 C 95.806024 74.295083 95.330523 74.822611 94.298828 75.1875 C 93.267134 75.552389 91.776508 75.637436 90.228516 75.222656 C 88.680523 74.807872 87.433685 73.9881 86.722656 73.15625 C 86.011627 72.3244 85.860711 71.629068 86.007812 71.080078 C 86.154915 70.531087 86.632368 70.00356 87.664062 69.638672 C 88.179911 69.456227 88.810994 69.342831 89.505859 69.328125 z M 71.519531 85.957031 C 71.985571 85.970411 72.532362 86.189385 73.15625 86.722656 C 73.9881 87.433685 74.807872 88.680523 75.222656 90.228516 C 75.63744 91.776508 75.552393 93.267128 75.1875 94.298828 C 74.822611 95.330518 74.295083 95.806025 73.746094 95.953125 C 73.197103 96.100235 72.499819 95.951124 71.667969 95.240234 C 70.836118 94.529204 70.018299 93.282371 69.603516 91.734375 C 69.188733 90.186382 69.273779 88.695757 69.638672 87.664062 C 70.00356 86.632368 70.531087 86.154915 71.080078 86.007812 C 71.217326 85.971033 71.364185 85.952572 71.519531 85.957031 z "
     style="color:#000000;overflow:visible;fill:#000080;stroke:none;stroke-width:7.02209;stroke-linecap:round;stroke-linejoin:round;stroke-dasharray:14.0442, 7.02209000000000039;stroke-dashoffset:35.1104;stop-color:#000000"
     id="rect830" />
</svg>
