<?xml version="1.0" encoding="UTF-8" standalone="no"?>
<svg
   xmlns:dc="http://purl.org/dc/elements/1.1/"
   xmlns:cc="http://creativecommons.org/ns#"
   xmlns:rdf="http://www.w3.org/1999/02/22-rdf-syntax-ns#"
   xmlns:svg="http://www.w3.org/2000/svg"
   xmlns="http://www.w3.org/2000/svg"
   xmlns:sodipodi="http://sodipodi.sourceforge.net/DTD/sodipodi-0.dtd"
   xmlns:inkscape="http://www.inkscape.org/namespaces/inkscape"
   version="1.1"
   width="100"
   height="100"
   id="svg4460"
   sodipodi:docname="select-extent.svg"
   inkscape:version="1.0 (4035a4fb49, 2020-05-01)">
  <sodipodi:namedview
     pagecolor="#ffffff"
     bordercolor="#666666"
     borderopacity="1"
     objecttolerance="10"
     gridtolerance="10"
     guidetolerance="10"
     inkscape:pageopacity="0"
     inkscape:pageshadow="2"
     inkscape:window-width="1920"
     inkscape:window-height="1017"
     id="namedview11"
     showgrid="false"
     inkscape:zoom="3.805"
     inkscape:cx="45.933245"
     inkscape:cy="43.167347"
     inkscape:window-x="-8"
     inkscape:window-y="-8"
     inkscape:window-maximized="1"
     inkscape:current-layer="svg4460"
     inkscape:document-rotation="0"
     showguides="false" />
  <defs
     id="defs4462" />
  <metadata
     id="metadata4465">
    <rdf:RDF>
      <cc:Work
         rdf:about="">
        <dc:format>image/svg+xml</dc:format>
        <dc:type
           rdf:resource="http://purl.org/dc/dcmitype/StillImage" />
        <dc:title />
      </cc:Work>
    </rdf:RDF>
  </metadata>
  <path
     d="M 2.0996094 0 L 2.0996094 1.9140625 L 0 1.9140625 L 0 7.9140625 L 3 7.9140625 L 3 3 L 8.0996094 3 L 8.0996094 0 L 2.0996094 0 z M 11.099609 0 L 11.099609 3 L 17.099609 3 L 17.099609 0 L 11.099609 0 z M 20.099609 0 L 20.099609 3 L 26.099609 3 L 26.099609 0 L 20.099609 0 z M 29.099609 0 L 29.099609 3 L 35.099609 3 L 35.099609 0 L 29.099609 0 z M 38.099609 0 L 38.099609 3 L 44.099609 3 L 44.099609 0 L 38.099609 0 z M 47.099609 0 L 47.099609 3 L 53.099609 3 L 53.099609 0 L 47.099609 0 z M 56.099609 0 L 56.099609 3 L 62.099609 3 L 62.099609 0 L 56.099609 0 z M 65.099609 0 L 65.099609 3 L 66.900391 3 L 66.900391 4.1992188 L 69.900391 4.1992188 L 69.900391 0 L 65.099609 0 z M 66.900391 7.1992188 L 66.900391 13.199219 L 69.900391 13.199219 L 69.900391 7.1992188 L 66.900391 7.1992188 z M 0 10.914062 L 0 16.914062 L 3 16.914062 L 3 10.914062 L 0 10.914062 z M 66.900391 16.199219 L 66.900391 22.199219 L 69.900391 22.199219 L 69.900391 16.199219 L 66.900391 16.199219 z M 0 19.914062 L 0 25.914062 L 3 25.914062 L 3 19.914062 L 0 19.914062 z M 66.900391 25.199219 L 66.900391 31.199219 L 69.900391 31.199219 L 69.900391 25.199219 L 66.900391 25.199219 z M 0 28.914062 L 0 34.914062 L 3 34.914062 L 3 28.914062 L 0 28.914062 z M 66.900391 34.199219 L 66.900391 40.199219 L 69.900391 40.199219 L 69.900391 34.199219 L 66.900391 34.199219 z M 0 37.914062 L 0 43.914062 L 3 43.914062 L 3 37.914062 L 0 37.914062 z M 66.900391 43.199219 L 66.900391 49.199219 L 69.900391 49.199219 L 69.900391 43.199219 L 66.900391 43.199219 z M 0 46.914062 L 0 52.914062 L 3 52.914062 L 3 46.914062 L 0 46.914062 z M 66.900391 52.199219 L 66.900391 58.199219 L 69.900391 58.199219 L 69.900391 52.199219 L 66.900391 52.199219 z M 0 55.914062 L 0 61.105469 L 3.8085938 61.105469 L 3.8085938 58.105469 L 3 58.105469 L 3 55.914062 L 0 55.914062 z M 6.8085938 58.105469 L 6.8085938 61.105469 L 12.808594 61.105469 L 12.808594 58.105469 L 6.8085938 58.105469 z M 15.808594 58.105469 L 15.808594 61.105469 L 21.808594 61.105469 L 21.808594 58.105469 L 15.808594 58.105469 z M 24.808594 58.105469 L 24.808594 61.105469 L 30.808594 61.105469 L 30.808594 58.105469 L 24.808594 58.105469 z M 33.808594 58.105469 L 33.808594 61.105469 L 39.808594 61.105469 L 39.808594 58.105469 L 33.808594 58.105469 z M 42.808594 58.105469 L 42.808594 61.105469 L 48.808594 61.105469 L 48.808594 58.105469 L 42.808594 58.105469 z M 51.808594 58.105469 L 51.808594 61.105469 L 57.808594 61.105469 L 57.808594 58.105469 L 51.808594 58.105469 z M 60.808594 58.105469 L 60.808594 61.105469 L 66.808594 61.105469 L 66.808594 58.105469 L 60.808594 58.105469 z M 70.457031 60.003906 C 70.059715 59.979146 69.655153 60.068896 69.294922 60.275391 C 68.570342 60.690686 68.166457 61.499114 68.267578 62.328125 L 71.404297 96.003906 C 71.604904 97.639044 73.538711 98.40257 74.800781 97.34375 L 81.423828 91.972656 L 84.392578 97.115234 C 86.100229 100.07297 88.809838 100.79944 91.767578 99.091797 C 94.725318 97.384146 95.451793 94.674536 93.744141 91.716797 L 90.785156 86.591797 L 98.632812 83.583984 C 100.18082 83.020409 100.48764 80.963956 99.171875 79.972656 L 71.576172 60.416016 C 71.244365 60.166394 70.854347 60.028666 70.457031 60.003906 z "
     style="color:#000000;font-style:normal;font-variant:normal;font-weight:normal;font-stretch:normal;font-size:medium;line-height:normal;font-family:sans-serif;font-variant-ligatures:normal;font-variant-position:normal;font-variant-caps:normal;font-variant-numeric:normal;font-variant-alternates:normal;font-variant-east-asian:normal;font-feature-settings:normal;font-variation-settings:normal;text-indent:0;text-align:start;text-decoration:none;text-decoration-line:none;text-decoration-style:solid;text-decoration-color:#000000;letter-spacing:normal;word-spacing:normal;text-transform:none;writing-mode:lr-tb;direction:ltr;text-orientation:mixed;dominant-baseline:auto;baseline-shift:baseline;text-anchor:start;white-space:normal;shape-padding:0;shape-margin:0;inline-size:0;clip-rule:nonzero;display:inline;overflow:visible;visibility:visible;isolation:auto;mix-blend-mode:normal;color-interpolation:sRGB;color-interpolation-filters:linearRGB;solid-color:#000000;solid-opacity:1;vector-effect:none;fill:#000080;fill-opacity:1;fill-rule:nonzero;stroke:none;stroke-width:4.1531;stroke-linecap:round;stroke-linejoin:round;stroke-miterlimit:4;stroke-dasharray:none;stroke-dashoffset:20;stroke-opacity:1;color-rendering:auto;image-rendering:auto;shape-rendering:auto;text-rendering:auto;enable-background:accumulate;stop-color:#000000"
     id="path1014" />
</svg>
