<?xml version="1.0" encoding="UTF-8" standalone="no"?>
<svg
   xmlns:dc="http://purl.org/dc/elements/1.1/"
   xmlns:cc="http://creativecommons.org/ns#"
   xmlns:rdf="http://www.w3.org/1999/02/22-rdf-syntax-ns#"
   xmlns:svg="http://www.w3.org/2000/svg"
   xmlns="http://www.w3.org/2000/svg"
   xmlns:sodipodi="http://sodipodi.sourceforge.net/DTD/sodipodi-0.dtd"
   xmlns:inkscape="http://www.inkscape.org/namespaces/inkscape"
   sodipodi:docname="uEB26-translate.svg"
   inkscape:version="1.0 (4035a4fb49, 2020-05-01)"
   id="svg4460"
   height="100"
   width="100"
   version="1.1">
  <sodipodi:namedview
     inkscape:document-rotation="0"
     inkscape:current-layer="svg4460"
     inkscape:window-maximized="1"
     inkscape:window-y="-8"
     inkscape:window-x="-8"
     inkscape:cy="61.495034"
     inkscape:cx="71.720061"
     inkscape:zoom="7.61"
     showgrid="false"
     id="namedview11"
     inkscape:window-height="1017"
     inkscape:window-width="1920"
     inkscape:pageshadow="2"
     inkscape:pageopacity="0"
     guidetolerance="10"
     gridtolerance="10"
     objecttolerance="10"
     borderopacity="1"
     bordercolor="#666666"
     pagecolor="#ffffff" />
  <defs
     id="defs4462" />
  <metadata
     id="metadata4465">
    <rdf:RDF>
      <cc:Work
         rdf:about="">
        <dc:format>image/svg+xml</dc:format>
        <dc:type
           rdf:resource="http://purl.org/dc/dcmitype/StillImage" />
        <dc:title />
      </cc:Work>
    </rdf:RDF>
  </metadata>
  <path
     style="color:#000000;overflow:visible;fill:#000080;stroke:none;stroke-width:4.75427;stroke-linejoin:bevel;stroke-miterlimit:4;stroke-dasharray:none"
     d="m 65.214619,39.958232 -9.837124,6.317353 -10.058131,-15.662105 -10.199693,6.550195 10.05813,15.662107 -9.837123,6.317354 24.529423,5.344516 z"
     id="path835" />
  <g
     style="stroke-width:16.2766;stroke-miterlimit:4;stroke-dasharray:none"
     id="g879"
     transform="matrix(0.43443249,-0.43443249,0.43443249,0.43443249,6.5567515,50)" />
  <path
     id="path942"
     d="m 69.474609,2 a 3.5,3.5 0 0 0 -2.658203,1.140625 l -9.822265,10.757813 -34.035157,2.089843 a 3.50035,3.50035 0 0 0 -2.140625,0.904297 L 1.1445312,34.787109 a 3.5,3.5 0 0 0 -0.23437495,4.94336 3.5,3.5 0 0 0 4.94531255,0.234375 L 24.617188,22.900391 58.837891,20.798828 a 3.50035,3.50035 0 0 0 2.36914,-1.132812 L 71.986328,7.859375 A 3.5,3.5 0 0 0 71.761719,2.9160156 3.5,3.5 0 0 0 69.474609,2 Z"
     style="color:#000000;font-style:normal;font-variant:normal;font-weight:normal;font-stretch:normal;font-size:medium;line-height:normal;font-family:sans-serif;font-variant-ligatures:normal;font-variant-position:normal;font-variant-caps:normal;font-variant-numeric:normal;font-variant-alternates:normal;font-variant-east-asian:normal;font-feature-settings:normal;font-variation-settings:normal;text-indent:0;text-align:start;text-decoration:none;text-decoration-line:none;text-decoration-style:solid;text-decoration-color:#000000;letter-spacing:normal;word-spacing:normal;text-transform:none;writing-mode:lr-tb;direction:ltr;text-orientation:mixed;dominant-baseline:auto;baseline-shift:baseline;text-anchor:start;white-space:normal;shape-padding:0;shape-margin:0;inline-size:0;clip-rule:nonzero;display:inline;overflow:visible;visibility:visible;opacity:1;isolation:auto;mix-blend-mode:normal;color-interpolation:sRGB;color-interpolation-filters:linearRGB;solid-color:#000000;solid-opacity:1;vector-effect:none;fill:#000080;fill-opacity:1;fill-rule:evenodd;stroke:none;stroke-width:7;stroke-linecap:round;stroke-linejoin:round;stroke-miterlimit:4;stroke-dasharray:none;stroke-dashoffset:0;stroke-opacity:1;color-rendering:auto;image-rendering:auto;shape-rendering:auto;text-rendering:auto;enable-background:accumulate;stop-color:#000000;stop-opacity:1" />
  <path
     id="path938"
     d="m 96.308594,60.939453 -3.773438,4.132813 3.691407,3.371093 L 100,64.310547 Z m -7.144531,7.824219 -2.951172,3.232422 -3.591797,0.220703 0.306641,4.990234 4.601562,-0.28125 a 2.50025,2.50025 0 0 0 1.693359,-0.810547 l 3.632813,-3.980468 z m -11.533204,3.759766 -9.982421,0.613281 0.30664,4.990234 9.982422,-0.613281 z m -14.972656,0.919921 -9.980468,0.611329 0.30664,4.992187 9.980469,-0.613281 z m -15.443359,4.06836 -7.396485,6.728515 3.363282,3.699219 7.398437,-6.730469 z m -11.095703,10.091797 -5.548828,5.046875 3.365234,3.699218 5.546875,-5.046875 z"
     style="color:#000000;font-style:normal;font-variant:normal;font-weight:normal;font-stretch:normal;font-size:medium;line-height:normal;font-family:sans-serif;font-variant-ligatures:normal;font-variant-position:normal;font-variant-caps:normal;font-variant-numeric:normal;font-variant-alternates:normal;font-variant-east-asian:normal;font-feature-settings:normal;font-variation-settings:normal;text-indent:0;text-align:start;text-decoration:none;text-decoration-line:none;text-decoration-style:solid;text-decoration-color:#000000;letter-spacing:normal;word-spacing:normal;text-transform:none;writing-mode:lr-tb;direction:ltr;text-orientation:mixed;dominant-baseline:auto;baseline-shift:baseline;text-anchor:start;white-space:normal;shape-padding:0;shape-margin:0;inline-size:0;clip-rule:nonzero;display:inline;overflow:visible;visibility:visible;opacity:1;isolation:auto;mix-blend-mode:normal;color-interpolation:sRGB;color-interpolation-filters:linearRGB;solid-color:#000000;solid-opacity:1;vector-effect:none;fill:#000080;fill-opacity:1;fill-rule:evenodd;stroke:none;stroke-width:5;stroke-linecap:butt;stroke-linejoin:round;stroke-miterlimit:4;stroke-dasharray:10, 5;stroke-dashoffset:32.5;stroke-opacity:1;color-rendering:auto;image-rendering:auto;shape-rendering:auto;text-rendering:auto;enable-background:accumulate;stop-color:#000000;stop-opacity:1" />
</svg>
