<?xml version="1.0" encoding="UTF-8" standalone="no"?>
<svg
   xmlns:dc="http://purl.org/dc/elements/1.1/"
   xmlns:cc="http://creativecommons.org/ns#"
   xmlns:rdf="http://www.w3.org/1999/02/22-rdf-syntax-ns#"
   xmlns:svg="http://www.w3.org/2000/svg"
   xmlns="http://www.w3.org/2000/svg"
   xmlns:sodipodi="http://sodipodi.sourceforge.net/DTD/sodipodi-0.dtd"
   xmlns:inkscape="http://www.inkscape.org/namespaces/inkscape"
   sodipodi:docname="translate-y.svg"
   inkscape:version="1.0 (4035a4fb49, 2020-05-01)"
   id="svg4460"
   height="100"
   width="100"
   version="1.1">
  <sodipodi:namedview
     inkscape:document-rotation="0"
     inkscape:current-layer="svg4460"
     inkscape:window-maximized="1"
     inkscape:window-y="-8"
     inkscape:window-x="-8"
     inkscape:cy="71.34695"
     inkscape:cx="55.466655"
     inkscape:zoom="3.805"
     showgrid="false"
     id="namedview11"
     inkscape:window-height="1017"
     inkscape:window-width="1920"
     inkscape:pageshadow="2"
     inkscape:pageopacity="0"
     guidetolerance="10"
     gridtolerance="10"
     objecttolerance="10"
     borderopacity="1"
     bordercolor="#666666"
     pagecolor="#ffffff" />
  <defs
     id="defs4462" />
  <metadata
     id="metadata4465">
    <rdf:RDF>
      <cc:Work
         rdf:about="">
        <dc:format>image/svg+xml</dc:format>
        <dc:type
           rdf:resource="http://purl.org/dc/dcmitype/StillImage" />
        <dc:title></dc:title>
      </cc:Work>
    </rdf:RDF>
  </metadata>
  <path
     d="M 99.999021,24.661133 68.129881,8.6494137 A 3.50035,3.50035 0 0 0 65.971678,8.3271481 L 25.520506,15.202148 3.508787,2.450195 9.789875e-4,8.5068356 23.106443,21.893555 a 3.50035,3.50035 0 0 0 2.339844,0.421875 l 40.566406,-6.894532 30.845703,15.494141 z m -0.425781,68.421875 -4.167969,-2.09375 -2.246094,4.466797 4.169922,2.09375 z m -8.636719,-4.339844 -8.935546,-4.488281 -2.244141,4.466797 8.935547,4.490234 z m -13.404296,-6.732422 -8.935547,-4.490234 -2.244141,4.46875 8.935547,4.488281 z m -9.757813,-31.251953 -11.691406,0.0918 -0.146485,-18.611328 -12.121093,0.09375 0.146484,18.613281 -11.691406,0.0918 17.890625,17.611328 z m -4.716797,31.681641 -0.83789,-4.929688 -9.859375,1.675782 0.83789,4.929687 z m -14.789062,2.513672 -0.837891,-4.929688 -9.857422,1.675781 0.837891,4.929688 z m -14.78711,2.513672 -0.83789,-4.929688 -7.289063,1.238281 -0.691406,-0.40039 -2.507813,4.326171 1.47461,0.853516 a 2.50025,2.50025 0 0 0 1.671875,0.300781 z M 20.334959,80.868164 11.682615,75.856445 9.176756,80.182617 17.8291,85.194336 Z M 7.356443,73.348633 3.030271,70.842774 0.52441199,75.168945 4.850584,77.676758 Z"
     style="color:#000000;font-style:normal;font-variant:normal;font-weight:normal;font-stretch:normal;font-size:medium;line-height:normal;font-family:sans-serif;font-variant-ligatures:normal;font-variant-position:normal;font-variant-caps:normal;font-variant-numeric:normal;font-variant-alternates:normal;font-variant-east-asian:normal;font-feature-settings:normal;font-variation-settings:normal;text-indent:0;text-align:start;text-decoration:none;text-decoration-line:none;text-decoration-style:solid;text-decoration-color:#000000;letter-spacing:normal;word-spacing:normal;text-transform:none;writing-mode:lr-tb;direction:ltr;text-orientation:mixed;dominant-baseline:auto;baseline-shift:baseline;text-anchor:start;white-space:normal;shape-padding:0;shape-margin:0;inline-size:0;clip-rule:nonzero;display:inline;overflow:visible;visibility:visible;opacity:1;isolation:auto;mix-blend-mode:normal;color-interpolation:sRGB;color-interpolation-filters:linearRGB;solid-color:#000000;solid-opacity:1;vector-effect:none;fill:#000080;fill-opacity:1;fill-rule:evenodd;stroke:none;stroke-width:5;stroke-linecap:butt;stroke-linejoin:round;stroke-miterlimit:4;stroke-dasharray:10, 5;stroke-dashoffset:20;stroke-opacity:1;color-rendering:auto;image-rendering:auto;shape-rendering:auto;text-rendering:auto;enable-background:accumulate;stop-color:#000000;stop-opacity:1"
     id="path994" />
  <g
     style="stroke-width:16.2766;stroke-miterlimit:4;stroke-dasharray:none"
     id="g879"
     transform="matrix(0.43443249,-0.43443249,0.43443249,0.43443249,6.5567515,50)" />
</svg>
