<?xml version="1.0" encoding="UTF-8" standalone="no"?>
<svg
   xmlns:dc="http://purl.org/dc/elements/1.1/"
   xmlns:cc="http://creativecommons.org/ns#"
   xmlns:rdf="http://www.w3.org/1999/02/22-rdf-syntax-ns#"
   xmlns:svg="http://www.w3.org/2000/svg"
   xmlns="http://www.w3.org/2000/svg"
   xmlns:sodipodi="http://sodipodi.sourceforge.net/DTD/sodipodi-0.dtd"
   xmlns:inkscape="http://www.inkscape.org/namespaces/inkscape"
   sodipodi:docname="uEB27-translate-x.svg"
   inkscape:version="1.0 (4035a4fb49, 2020-05-01)"
   id="svg4460"
   height="100"
   width="100"
   version="1.1">
  <sodipodi:namedview
     inkscape:document-rotation="0"
     inkscape:current-layer="svg4460"
     inkscape:window-maximized="1"
     inkscape:window-y="-8"
     inkscape:window-x="-8"
     inkscape:cy="71.34695"
     inkscape:cx="55.466655"
     inkscape:zoom="3.805"
     showgrid="false"
     id="namedview11"
     inkscape:window-height="1017"
     inkscape:window-width="1920"
     inkscape:pageshadow="2"
     inkscape:pageopacity="0"
     guidetolerance="10"
     gridtolerance="10"
     objecttolerance="10"
     borderopacity="1"
     bordercolor="#666666"
     pagecolor="#ffffff" />
  <defs
     id="defs4462" />
  <metadata
     id="metadata4465">
    <rdf:RDF>
      <cc:Work
         rdf:about="">
        <dc:format>image/svg+xml</dc:format>
        <dc:type
           rdf:resource="http://purl.org/dc/dcmitype/StillImage" />
        <dc:title></dc:title>
      </cc:Work>
    </rdf:RDF>
  </metadata>
  <path
     d="M 24.661133,9.7875e-4 8.6494139,31.870119 A 3.50035,3.50035 0 0 0 8.3271483,34.028322 L 15.202148,74.479494 2.4501952,96.491213 8.5068358,99.999021 21.893555,76.893557 A 3.50035,3.50035 0 0 0 22.31543,74.553713 L 15.420898,33.987307 30.915039,3.1416038 Z M 93.083008,0.42676 l -2.09375,4.1679688 4.466797,2.2460937 2.09375,-4.1699218 z m -4.339844,8.6367188 -4.488281,8.9355462 4.466797,2.244141 4.490234,-8.935547 z m -6.732422,13.4042962 -4.490234,8.935547 4.46875,2.244141 4.488281,-8.935547 z m -31.251953,9.757813 0.0918,11.691406 -18.611328,0.146485 0.09375,12.121093 18.613281,-0.146484 0.0918,11.691406 17.611328,-17.890625 z m 31.681641,4.716797 -4.929688,0.83789 1.675782,9.859375 4.929687,-0.83789 z m 2.513672,14.789062 -4.929688,0.837891 1.675781,9.857422 4.929688,-0.837891 z m 2.513672,14.78711 -4.929688,0.83789 1.238281,7.289063 -0.40039,0.691406 4.326171,2.507813 0.853516,-1.47461 a 2.50025,2.50025 0 0 0 0.300781,-1.671875 z m -6.59961,13.146484 -5.011719,8.652344 4.326172,2.505859 5.011719,-8.652344 z m -7.519531,12.978516 -2.505859,4.326172 4.326171,2.505859 2.507813,-4.326172 z"
     style="color:#000000;font-style:normal;font-variant:normal;font-weight:normal;font-stretch:normal;font-size:medium;line-height:normal;font-family:sans-serif;font-variant-ligatures:normal;font-variant-position:normal;font-variant-caps:normal;font-variant-numeric:normal;font-variant-alternates:normal;font-variant-east-asian:normal;font-feature-settings:normal;font-variation-settings:normal;text-indent:0;text-align:start;text-decoration:none;text-decoration-line:none;text-decoration-style:solid;text-decoration-color:#000000;letter-spacing:normal;word-spacing:normal;text-transform:none;writing-mode:lr-tb;direction:ltr;text-orientation:mixed;dominant-baseline:auto;baseline-shift:baseline;text-anchor:start;white-space:normal;shape-padding:0;shape-margin:0;inline-size:0;clip-rule:nonzero;display:inline;overflow:visible;visibility:visible;opacity:1;isolation:auto;mix-blend-mode:normal;color-interpolation:sRGB;color-interpolation-filters:linearRGB;solid-color:#000000;solid-opacity:1;vector-effect:none;fill:#000080;fill-opacity:1;fill-rule:evenodd;stroke:none;stroke-width:5;stroke-linecap:butt;stroke-linejoin:round;stroke-miterlimit:4;stroke-dasharray:10, 5;stroke-dashoffset:20;stroke-opacity:1;color-rendering:auto;image-rendering:auto;shape-rendering:auto;text-rendering:auto;enable-background:accumulate;stop-color:#000000;stop-opacity:1"
     id="path994" />
  <g
     style="stroke-width:16.2766;stroke-miterlimit:4;stroke-dasharray:none"
     id="g879"
     transform="matrix(0.43443249,-0.43443249,0.43443249,0.43443249,6.5567515,50)" />
</svg>
