<?xml version="1.0" encoding="UTF-8" standalone="no"?>
<svg
   xmlns:dc="http://purl.org/dc/elements/1.1/"
   xmlns:cc="http://creativecommons.org/ns#"
   xmlns:rdf="http://www.w3.org/1999/02/22-rdf-syntax-ns#"
   xmlns:svg="http://www.w3.org/2000/svg"
   xmlns="http://www.w3.org/2000/svg"
   xmlns:sodipodi="http://sodipodi.sourceforge.net/DTD/sodipodi-0.dtd"
   xmlns:inkscape="http://www.inkscape.org/namespaces/inkscape"
   version="1.1"
   width="100"
   height="100"
   id="svg4460"
   inkscape:version="1.0 (4035a4fb49, 2020-05-01)"
   sodipodi:docname="uEB14-home.svg">
  <path
     id="path866"
     style="color:#000000;font-style:normal;font-variant:normal;font-weight:normal;font-stretch:normal;font-size:medium;line-height:normal;font-family:sans-serif;font-variant-ligatures:normal;font-variant-position:normal;font-variant-caps:normal;font-variant-numeric:normal;font-variant-alternates:normal;font-variant-east-asian:normal;font-feature-settings:normal;font-variation-settings:normal;text-indent:0;text-align:start;text-decoration:none;text-decoration-line:none;text-decoration-style:solid;text-decoration-color:#000000;letter-spacing:normal;word-spacing:normal;text-transform:none;writing-mode:lr-tb;direction:ltr;text-orientation:mixed;dominant-baseline:auto;baseline-shift:baseline;text-anchor:start;white-space:normal;shape-padding:0;shape-margin:0;inline-size:0;clip-rule:nonzero;display:inline;overflow:visible;visibility:visible;isolation:auto;mix-blend-mode:normal;color-interpolation:sRGB;color-interpolation-filters:linearRGB;solid-color:#000000;solid-opacity:1;vector-effect:none;fill:#000080;fill-opacity:1;fill-rule:nonzero;stroke:none;stroke-width:4.79697;stroke-linecap:butt;stroke-linejoin:round;stroke-miterlimit:4;stroke-dasharray:none;stroke-dashoffset:0;stroke-opacity:1;color-rendering:auto;image-rendering:auto;shape-rendering:auto;text-rendering:auto;enable-background:accumulate;stop-color:#000000"
     d="m 49.968146,3.9200596 c -1.214055,0.00802 -2.391192,0.4459066 -3.301667,1.2873127 L 1.4756175,45.050359 a 2.3987265,2.3987265 0 0 0 -0.041224,0.03748 c -1.45451869,1.344833 -1.79279049,3.540699 -1.06058079,5.14363 0.73220959,1.602929 2.44796189,2.748236 4.39410249,2.74889 H 16.421187 v 38.508828 c 2.88e-4,2.628737 2.287998,4.590625 4.796974,4.590854 h 57.56368 c 2.508975,-2.29e-4 4.796685,-1.962117 4.796973,-4.590854 V 52.980355 h 11.653272 c 1.946141,-6.54e-4 3.661891,-1.14596 4.394101,-2.74889 0.732213,-1.602931 0.393933,-3.798797 -1.060582,-5.14363 a 2.3987265,2.3987265 0 0 0 -0.04123,-0.03748 L 53.333522,5.2073723 C 52.406323,4.3505185 51.204503,3.9123348 49.968146,3.9200596 Z m 0.03186,24.2865514 c 10.599911,0 19.283457,8.659488 19.283457,19.229118 0,2.545745 -0.507432,4.978825 -1.420353,7.208577 -0.204413,0.587704 -0.437604,1.162796 -0.736411,1.7033 L 52.336651,81.518599 c -1.561528,2.116716 -2.810288,2.5827 -4.688292,0.129293 L 34.237446,58.466894 c -2.213901,-3.129042 -3.520903,-6.935863 -3.520903,-11.031165 0,-10.56963 8.683547,-19.229118 19.283458,-19.229118 z m 0,9.011189 c -5.707748,0 -10.24791,4.526489 -10.24791,10.217929 0,5.691443 4.540162,10.217928 10.24791,10.217928 5.707743,0 10.247909,-4.526485 10.247909,-10.217928 0,-5.69144 -4.540166,-10.217929 -10.247909,-10.217929 z" />
  <sodipodi:namedview
     pagecolor="#ffffff"
     bordercolor="#666666"
     borderopacity="1"
     objecttolerance="10"
     gridtolerance="10"
     guidetolerance="10"
     inkscape:pageopacity="0"
     inkscape:pageshadow="2"
     inkscape:window-width="1920"
     inkscape:window-height="1017"
     id="namedview11"
     showgrid="false"
     inkscape:zoom="3.4766084"
     inkscape:cx="3.5719482"
     inkscape:cy="65.211128"
     inkscape:window-x="-8"
     inkscape:window-y="-8"
     inkscape:window-maximized="1"
     inkscape:current-layer="svg4460"
     inkscape:document-rotation="0" />
  <defs
     id="defs4462" />
  <metadata
     id="metadata4465">
    <rdf:RDF>
      <cc:Work
         rdf:about="">
        <dc:format>image/svg+xml</dc:format>
        <dc:type
           rdf:resource="http://purl.org/dc/dcmitype/StillImage" />
        <dc:title />
      </cc:Work>
    </rdf:RDF>
  </metadata>
</svg>
