<?xml version="1.0" encoding="UTF-8" standalone="no"?>
<svg
   xmlns:dc="http://purl.org/dc/elements/1.1/"
   xmlns:cc="http://creativecommons.org/ns#"
   xmlns:rdf="http://www.w3.org/1999/02/22-rdf-syntax-ns#"
   xmlns:svg="http://www.w3.org/2000/svg"
   xmlns="http://www.w3.org/2000/svg"
   xmlns:sodipodi="http://sodipodi.sourceforge.net/DTD/sodipodi-0.dtd"
   xmlns:inkscape="http://www.inkscape.org/namespaces/inkscape"
   sodipodi:docname="satellite.svg"
   inkscape:version="1.0 (4035a4fb49, 2020-05-01)"
   id="svg4460"
   height="100"
   width="100"
   version="1.1">
  <path
     d="m 32.102578,24.707424 c -2.314993,1.336562 -3.102349,4.275013 -1.765787,6.590006 l 3.170899,5.492157 -3.614097,0.740201 -29.4448634,17 12.5000004,21.650635 29.444863,-17 2.448081,-2.7598 3.170898,5.492158 c 1.336562,2.314993 4.275013,3.102348 6.590006,1.765786 l 13.294843,-7.675781 c 2.314993,-1.336562 3.102348,-4.275012 1.765786,-6.590005 l -3.170898,-5.492158 3.614097,-0.7402 29.444864,-17 -12.5,-21.6506349 -29.444864,16.9999999 -2.448081,2.759799 -3.170899,-5.492157 c -1.336562,-2.314993 -4.275012,-3.102349 -6.590005,-1.765787 z m -24.8237213,31.652491 25.9807613,-15 7.5,12.990381 -25.980761,15 z m 51.9615233,-30 25.980763,-15 7.5,12.990381 -25.980763,15 z m 10.998897,38.554554 c -1.070172,4.014391 -5.120546,6.36882 -9.138534,5.31222 l -1.271636,4.836523 c 6.625557,1.742303 13.477717,-2.241469 15.242406,-8.861095 z m -11.728139,14.971422 -1.269945,4.835548 c 12.002812,3.156692 24.36217,-3.972971 27.546265,-15.917376 L 79.9562,67.51811 C 77.470732,76.841785 67.92181,82.360862 58.511137,79.885889 Z m -2.57698,9.665446 -1.271637,4.836524 C 72.018705,98.952471 89.855137,88.66063 94.456618,71.399195 L 89.626075,70.110576 C 85.723219,84.751274 70.698202,93.434228 55.934158,89.551337 Z"
     style="color:#000000;font-style:normal;font-variant:normal;font-weight:normal;font-stretch:normal;font-size:medium;line-height:normal;font-family:sans-serif;font-variant-ligatures:normal;font-variant-position:normal;font-variant-caps:normal;font-variant-numeric:normal;font-variant-alternates:normal;font-variant-east-asian:normal;font-feature-settings:normal;font-variation-settings:normal;text-indent:0;text-align:start;text-decoration:none;text-decoration-line:none;text-decoration-style:solid;text-decoration-color:#000000;letter-spacing:normal;word-spacing:normal;text-transform:none;writing-mode:lr-tb;direction:ltr;text-orientation:mixed;dominant-baseline:auto;baseline-shift:baseline;text-anchor:start;white-space:normal;shape-padding:0;shape-margin:0;inline-size:0;clip-rule:nonzero;display:inline;overflow:visible;visibility:visible;opacity:1;isolation:auto;mix-blend-mode:normal;color-interpolation:sRGB;color-interpolation-filters:linearRGB;solid-color:#000000;solid-opacity:1;vector-effect:none;fill:#000080;fill-opacity:1;fill-rule:nonzero;stroke:none;stroke-width:5;stroke-linecap:butt;stroke-linejoin:miter;stroke-miterlimit:4;stroke-dasharray:none;stroke-dashoffset:0;stroke-opacity:1;color-rendering:auto;image-rendering:auto;shape-rendering:auto;text-rendering:auto;enable-background:accumulate;stop-color:#000000;stop-opacity:1"
     id="path866" />
  <sodipodi:namedview
     inkscape:document-rotation="0"
     inkscape:current-layer="svg4460"
     inkscape:window-maximized="1"
     inkscape:window-y="-8"
     inkscape:window-x="-8"
     inkscape:cy="63.376235"
     inkscape:cx="-38.150919"
     inkscape:zoom="1.7383042"
     showgrid="false"
     id="namedview11"
     inkscape:window-height="1017"
     inkscape:window-width="1920"
     inkscape:pageshadow="2"
     inkscape:pageopacity="0"
     guidetolerance="10"
     gridtolerance="10"
     objecttolerance="10"
     borderopacity="1"
     bordercolor="#666666"
     pagecolor="#ffffff" />
  <defs
     id="defs4462" />
  <metadata
     id="metadata4465">
    <rdf:RDF>
      <cc:Work
         rdf:about="">
        <dc:format>image/svg+xml</dc:format>
        <dc:type
           rdf:resource="http://purl.org/dc/dcmitype/StillImage" />
        <dc:title />
      </cc:Work>
    </rdf:RDF>
  </metadata>
</svg>
