<?xml version="1.0" encoding="UTF-8" standalone="no"?>
<svg
   xmlns:dc="http://purl.org/dc/elements/1.1/"
   xmlns:cc="http://creativecommons.org/ns#"
   xmlns:rdf="http://www.w3.org/1999/02/22-rdf-syntax-ns#"
   xmlns:svg="http://www.w3.org/2000/svg"
   xmlns="http://www.w3.org/2000/svg"
   xmlns:sodipodi="http://sodipodi.sourceforge.net/DTD/sodipodi-0.dtd"
   xmlns:inkscape="http://www.inkscape.org/namespaces/inkscape"
   sodipodi:docname="uEB3F-drone.svg"
   inkscape:version="1.0 (4035a4fb49, 2020-05-01)"
   id="svg4460"
   height="100"
   width="100"
   version="1.1">
  <sodipodi:namedview
     inkscape:document-rotation="0"
     inkscape:current-layer="svg4460"
     inkscape:window-maximized="1"
     inkscape:window-y="-8"
     inkscape:window-x="-8"
     inkscape:cy="62.282909"
     inkscape:cx="6.4467948"
     inkscape:zoom="4.9166667"
     showgrid="false"
     id="namedview11"
     inkscape:window-height="1017"
     inkscape:window-width="1920"
     inkscape:pageshadow="2"
     inkscape:pageopacity="0"
     guidetolerance="10"
     gridtolerance="10"
     objecttolerance="10"
     borderopacity="1"
     bordercolor="#666666"
     pagecolor="#ffffff" />
  <defs
     id="defs4462" />
  <metadata
     id="metadata4465">
    <rdf:RDF>
      <cc:Work
         rdf:about="">
        <dc:format>image/svg+xml</dc:format>
        <dc:type
           rdf:resource="http://purl.org/dc/dcmitype/StillImage" />
        <dc:title />
      </cc:Work>
    </rdf:RDF>
  </metadata>
  <path
     sodipodi:nodetypes="scccccccccccccsssccccccccccccccccsssccccccccccccccccccccccccccccscsssssssssss"
     d="m 19.529595,28.490905 c -1.539898,0.0045 -2.929137,0.925732 -3.532539,2.342494 C 6.705722,31.364178 -0.02889047,32.257447 9.3225852e-5,32.955212 0.02704323,33.647885 6.7120853,33.951815 15.9284,33.679374 c 0.319042,0.861221 0.935309,1.580103 1.737663,2.027001 h -1.495731 v 2.741356 h -1.83084 c -0.483049,-1.15e-4 -0.874667,0.391503 -0.874553,0.874552 v 1.953441 c -1.14e-4,0.48305 0.391504,0.874668 0.874553,0.874553 h 12.315666 c 3.102843,0.729882 3.450671,1.842962 5.774272,3.879392 -0.381231,2.113826 -0.939806,4.420159 -1.378622,6.414177 v 16.972865 c 0,1.155594 0.936794,2.092388 2.092388,2.092388 1.155594,0 2.092388,-0.936794 2.092388,-2.092388 v -8.206085 c -0.04754,-6.898899 1.066322,-9.689556 4.90567,-15.030867 l 0.96446,-0.447903 c 5.15e-4,4.146596 2.866273,4.394874 6.90815,5.320878 h -3.035597 c -0.924437,9.2e-5 -1.673819,0.749474 -1.673911,1.673911 v 10.000116 c 9.2e-5,0.924437 0.749474,1.673818 1.673911,1.67391 H 55.02173 c 0.924437,-9.2e-5 1.673818,-0.749473 1.673911,-1.67391 V 52.726645 c -9.3e-5,-0.924437 -0.749474,-1.673819 -1.673911,-1.673911 h -3.032328 c 4.040577,-0.92731 6.904716,-1.175256 6.904881,-5.320878 l 0.96446,0.447903 c 4.857641,5.026216 4.905669,8.447236 4.905669,15.030867 v 8.206085 c 0,1.155594 0.936794,2.092388 2.092389,2.092388 1.155594,0 2.092388,-0.936794 2.092388,-2.092388 V 52.443846 c -0.513021,-2.19098 -1.061971,-4.486857 -1.579317,-6.761804 2.197839,-2.154747 3.100087,-2.639616 5.955351,-3.531765 h 12.335283 c 0.483049,1.15e-4 0.874666,-0.391503 0.874552,-0.874553 v -1.953441 c 1.14e-4,-0.483049 -0.391504,-0.874667 -0.874552,-0.874552 h -1.83084 v -2.741356 h -1.495731 c 0.802354,-0.446898 1.418621,-1.16578 1.737663,-2.027001 9.216313,0.272441 15.901401,-0.03149 15.928309,-0.724162 0.02896,-0.697765 -6.705627,-1.591034 -15.996965,-2.121813 -0.603403,-1.416762 -1.992642,-2.337974 -3.53254,-2.342494 -0.0038,-6e-6 -0.0076,-6e-6 -0.01144,0 -1.422653,2.36e-4 -2.729337,0.784625 -3.398496,2.040079 -9.307086,-0.283053 -16.103873,0.01841 -16.142449,0.715989 -0.02852,0.692945 6.615371,1.57953 15.826955,2.112004 0.272974,0.99764 0.935704,1.84358 1.839013,2.347398 h -1.49573 v 2.741356 c -9.434361,-0.02201 -16.736047,-4.763159 -27.088256,-4.95798 -10.003066,0.212664 -18.380017,4.95798 -27.088253,4.95798 v -2.741356 h -1.495731 c 0.903309,-0.503818 1.56604,-1.349758 1.839013,-2.347398 9.211584,-0.532474 15.855481,-1.419059 15.826955,-2.112004 -0.03858,-0.697574 -6.835362,-0.999042 -16.142447,-0.715989 -0.66916,-1.255454 -1.975845,-2.039843 -3.398497,-2.040079 -0.0038,-6e-6 -0.0076,-6e-6 -0.01144,0 z m 30.470403,25.01097 c 2.347243,1e-6 4.27632,1.929075 4.276319,4.276319 0,2.347242 -1.929077,4.276318 -4.276319,4.276318 -2.347242,10e-7 -4.277953,-1.929076 -4.277953,-4.276318 0,-2.347245 1.930711,-4.276317 4.277953,-4.276319 z m 0,2.510866 c -0.990269,0 -1.767087,0.775182 -1.767087,1.765453 0,0.99027 0.776818,1.765453 1.767087,1.765452 0.99027,0 1.765453,-0.775182 1.765453,-1.765452 0,-0.990271 -0.775182,-1.765452 -1.765453,-1.765453 z"
     style="color:#000000;overflow:visible;fill:#000080;stroke-width:4.67272;stroke-linecap:round;stroke-linejoin:round;stop-color:#000000"
     id="path844" />
</svg>
