<?xml version="1.0" encoding="UTF-8" standalone="no"?>
<svg
   xmlns:dc="http://purl.org/dc/elements/1.1/"
   xmlns:cc="http://creativecommons.org/ns#"
   xmlns:rdf="http://www.w3.org/1999/02/22-rdf-syntax-ns#"
   xmlns:svg="http://www.w3.org/2000/svg"
   xmlns="http://www.w3.org/2000/svg"
   xmlns:sodipodi="http://sodipodi.sourceforge.net/DTD/sodipodi-0.dtd"
   xmlns:inkscape="http://www.inkscape.org/namespaces/inkscape"
   version="1.1"
   width="100"
   height="100"
   id="svg4460"
   sodipodi:docname="uEA5B-bus-map.svg"
   inkscape:version="1.0 (4035a4fb49, 2020-05-01)">
  <sodipodi:namedview
     pagecolor="#ffffff"
     bordercolor="#666666"
     borderopacity="1"
     objecttolerance="10"
     gridtolerance="10"
     guidetolerance="10"
     inkscape:pageopacity="0"
     inkscape:pageshadow="2"
     inkscape:window-width="1920"
     inkscape:window-height="1017"
     id="namedview11"
     showgrid="false"
     inkscape:zoom="4.0400001"
     inkscape:cx="23.012922"
     inkscape:cy="96.576446"
     inkscape:window-x="-8"
     inkscape:window-y="-8"
     inkscape:window-maximized="1"
     inkscape:current-layer="svg4460"
     inkscape:document-rotation="0" />
  <defs
     id="defs4462" />
  <metadata
     id="metadata4465">
    <rdf:RDF>
      <cc:Work
         rdf:about="">
        <dc:format>image/svg+xml</dc:format>
        <dc:type
           rdf:resource="http://purl.org/dc/dcmitype/StillImage" />
        <dc:title />
      </cc:Work>
    </rdf:RDF>
  </metadata>
  <g
     transform="translate(-13.118813,29.455442)"
     aria-label="284"
     id="text1135-7-0"
     style="font-style:normal;font-weight:normal;font-size:10.6667px;line-height:100%;font-family:sans-serif;text-align:end;letter-spacing:0px;word-spacing:0px;text-anchor:end;fill:#ff0000;fill-opacity:1;stroke:none;stroke-width:3;stroke-linecap:butt;stroke-linejoin:miter;stroke-miterlimit:4;stroke-dasharray:none;stroke-opacity:1" />
  <path
     d="M 2 12 A 2.50025 2.50025 0 0 0 -0.5 14.5 L -0.5 85.5 A 2.50025 2.50025 0 0 0 2 88 L 98 88 A 2.50025 2.50025 0 0 0 100.5 85.5 L 100.5 14.5 A 2.50025 2.50025 0 0 0 98 12 L 2 12 z M 5.609375 17 L 8.6347656 17 L 18.560547 27.035156 C 18.525287 27.168463 18.477517 27.297065 18.451172 27.433594 L 15.623047 27.445312 L 5.609375 17 z M 15.925781 17 L 21.789062 17 L 21.958984 22.972656 C 21.930974 22.985756 21.906906 23.004058 21.878906 23.017578 L 15.925781 17 z M 26.978516 17 L 92.091797 17 C 90.158162 19.05667 88.222051 21.11859 86.300781 23.146484 C 85.612719 22.814437 84.850289 22.611328 84.007812 22.611328 C 81.16337 22.611328 78.759842 24.574555 78.03125 27.201172 L 30.658203 27.388672 C 30.263795 25.425252 28.92312 23.796416 27.148438 22.96875 L 26.978516 17 z M 95.5 20.953125 L 95.5 27.132812 L 89.666016 27.15625 C 91.600775 25.110303 93.551917 23.028613 95.5 20.953125 z M 4.5 23.337891 L 12.650391 31.835938 A 2.5930068 2.5930068 0 0 0 14.533203 32.634766 L 19.853516 32.613281 C 20.510063 33.379919 21.33326 33.994054 22.283203 34.373047 L 22.833984 53.570312 C 20.673997 54.54746 19.148438 56.720788 19.148438 59.226562 L 19.148438 60.505859 C 14.82466 60.497128 9.5415304 60.486201 4.5 60.476562 L 4.5 23.337891 z M 24.556641 26.525391 C 25.72676 26.525391 26.630859 27.42949 26.630859 28.599609 C 26.630859 29.769728 25.72676 30.673828 24.556641 30.673828 C 23.386523 30.673828 22.482422 29.769728 22.482422 28.599609 C 22.482422 27.42949 23.386523 26.525391 24.556641 26.525391 z M 84.007812 26.759766 C 85.177927 26.759766 86.082031 27.663865 86.082031 28.833984 C 86.082031 30.004103 85.177928 30.908203 84.007812 30.908203 C 82.837694 30.908203 81.933594 30.004103 81.933594 28.833984 C 81.933594 27.663865 82.837694 26.759766 84.007812 26.759766 z M 95.5 32.324219 L 95.5 34.789062 L 85.195312 34.910156 C 86.682228 34.572626 87.879248 33.622515 88.695312 32.351562 L 95.5 32.324219 z M 77.498047 32.390625 C 76.645306 33.278538 75.787517 34.173707 74.957031 35.033203 L 64.933594 35.150391 A 2.5930068 2.5930068 0 0 0 63.091797 35.947266 L 51.25 48.332031 C 49.896781 47.949446 48.446101 48.00717 47.138672 48.550781 L 31.330078 32.570312 L 77.498047 32.390625 z M 82.367188 34.806641 C 82.528414 34.851641 82.683593 34.907603 82.849609 34.939453 L 82.232422 34.947266 C 82.278162 34.899516 82.321674 34.854091 82.367188 34.806641 z M 27.521484 36.09375 L 43.646484 52.392578 C 43.248429 53.653029 43.255978 55.00655 43.673828 56.261719 L 39.574219 60.546875 C 38.729378 60.544775 34.751446 60.540006 31.59375 60.535156 L 31.59375 59.226562 C 31.59375 56.768358 30.118253 54.637911 28.023438 53.634766 L 27.521484 36.09375 z M 95.5 39.972656 L 95.5 83 L 81.21875 83 L 59.626953 61.169922 C 60.180218 59.89522 60.28011 58.479596 59.943359 57.144531 C 63.533845 54.011424 68.423272 49.202662 74.507812 42.980469 C 75.340378 42.129065 76.330162 41.079257 77.193359 40.189453 L 95.5 39.972656 z M 69.888672 40.275391 C 64.51164 45.750615 60.026479 50.097355 56.933594 52.869141 L 55.478516 51.416016 L 66.085938 40.320312 L 69.888672 40.275391 z M 49.544922 52.181641 C 50.065711 52.181641 50.585466 52.388182 51.001953 52.804688 L 55.417969 57.220703 C 56.250954 58.053684 56.250954 59.305681 55.417969 60.138672 L 55.402344 60.154297 C 54.569389 60.987245 53.317351 60.987267 52.484375 60.154297 L 48.070312 55.738281 C 47.237338 54.905301 47.237357 53.653261 48.070312 52.820312 L 48.085938 52.804688 C 48.502432 52.388191 49.024124 52.181641 49.544922 52.181641 z M 25.359375 57.164062 L 25.382812 57.164062 C 26.560834 57.164062 27.445312 58.048553 27.445312 59.226562 L 27.445312 65.472656 C 27.445312 66.650656 26.560834 67.535156 25.382812 67.535156 L 25.359375 67.535156 C 24.181357 67.535156 23.296875 66.650667 23.296875 65.472656 L 23.296875 59.226562 C 23.296875 58.048552 24.181354 57.164041 25.359375 57.164062 z M 46.878906 60.414062 L 47.033203 60.570312 A 2.5930068 2.5930068 0 0 0 46.875 60.5625 L 46.732422 60.5625 L 46.878906 60.414062 z M 55.730469 64.605469 L 73.925781 83 L 70.136719 83 L 53.421875 66.09375 L 53.429688 64.845703 C 54.204327 64.909083 54.980994 64.828119 55.730469 64.605469 z M 4.5 65.658203 C 9.7264783 65.668325 15.438715 65.680159 19.167969 65.6875 C 19.285369 68.992282 22.028337 71.683594 25.359375 71.683594 L 25.382812 71.683594 C 28.705492 71.683594 31.438013 69.006264 31.568359 65.712891 C 32.799645 65.716091 34.110963 65.719603 34.630859 65.720703 L 18.111328 83 L 4.5 83 L 4.5 65.658203 z M 41.787109 65.736328 C 42.086126 65.73693 45.715038 65.743041 45.78125 65.744141 L 48.226562 68.220703 L 48.154297 83 L 25.285156 83 L 41.787109 65.736328 z M 53.384766 73.4375 L 62.839844 83 L 53.339844 83 L 53.384766 73.4375 z "
     style="color:#000000;font-style:normal;font-variant:normal;font-weight:normal;font-stretch:normal;font-size:medium;line-height:normal;font-family:sans-serif;font-variant-ligatures:normal;font-variant-position:normal;font-variant-caps:normal;font-variant-numeric:normal;font-variant-alternates:normal;font-variant-east-asian:normal;font-feature-settings:normal;font-variation-settings:normal;text-indent:0;text-align:start;text-decoration:none;text-decoration-line:none;text-decoration-style:solid;text-decoration-color:#000000;letter-spacing:normal;word-spacing:normal;text-transform:none;writing-mode:lr-tb;direction:ltr;text-orientation:mixed;dominant-baseline:auto;baseline-shift:baseline;text-anchor:start;white-space:normal;shape-padding:0;shape-margin:0;inline-size:0;clip-rule:nonzero;display:inline;overflow:visible;visibility:visible;isolation:auto;mix-blend-mode:normal;color-interpolation:sRGB;color-interpolation-filters:linearRGB;solid-color:#000000;solid-opacity:1;vector-effect:none;fill:#000080;fill-opacity:1;fill-rule:nonzero;stroke:none;stroke-width:5;stroke-linecap:round;stroke-linejoin:round;stroke-miterlimit:4;stroke-dasharray:none;stroke-dashoffset:20;stroke-opacity:1;color-rendering:auto;image-rendering:auto;shape-rendering:auto;text-rendering:auto;enable-background:accumulate;stop-color:#000000"
     id="path1305" />
</svg>
