<?xml version="1.0" encoding="UTF-8" standalone="no"?>
<svg
   xmlns:dc="http://purl.org/dc/elements/1.1/"
   xmlns:cc="http://creativecommons.org/ns#"
   xmlns:rdf="http://www.w3.org/1999/02/22-rdf-syntax-ns#"
   xmlns:svg="http://www.w3.org/2000/svg"
   xmlns="http://www.w3.org/2000/svg"
   xmlns:sodipodi="http://sodipodi.sourceforge.net/DTD/sodipodi-0.dtd"
   xmlns:inkscape="http://www.inkscape.org/namespaces/inkscape"
   inkscape:version="1.0 (4035a4fb49, 2020-05-01)"
   sodipodi:docname="uEA59-cadastre-map.svg"
   id="svg4460"
   height="100"
   width="100"
   version="1.1">
  <sodipodi:namedview
     inkscape:document-rotation="0"
     inkscape:current-layer="svg4460"
     inkscape:window-maximized="1"
     inkscape:window-y="-8"
     inkscape:window-x="-8"
     inkscape:cy="71.713325"
     inkscape:cx="-74.153818"
     inkscape:zoom="2.8567115"
     showgrid="false"
     id="namedview11"
     inkscape:window-height="1017"
     inkscape:window-width="1920"
     inkscape:pageshadow="2"
     inkscape:pageopacity="0"
     guidetolerance="10"
     gridtolerance="10"
     objecttolerance="10"
     borderopacity="1"
     bordercolor="#666666"
     pagecolor="#ffffff" />
  <defs
     id="defs4462" />
  <metadata
     id="metadata4465">
    <rdf:RDF>
      <cc:Work
         rdf:about="">
        <dc:format>image/svg+xml</dc:format>
        <dc:type
           rdf:resource="http://purl.org/dc/dcmitype/StillImage" />
        <dc:title />
      </cc:Work>
    </rdf:RDF>
  </metadata>
  <path
     d="M 2 12 A 2.50025 2.50025 0 0 0 -0.5 14.5 L -0.5 85.5 A 2.50025 2.50025 0 0 0 2 88 L 98 88 A 2.50025 2.50025 0 0 0 100.5 85.5 L 100.5 14.5 A 2.50025 2.50025 0 0 0 98 12 L 2 12 z M 4.5 17 L 14.408203 17 L 12.40625 54.132812 L 4.5 53.992188 L 4.5 17 z M 17.267578 17 L 69.064453 17 L 66.626953 26.998047 L 35.501953 26.162109 L 17.199219 18.5625 L 17.267578 17 z M 72.193359 17 L 75.791016 17 L 74.199219 27.029297 L 69.748047 27.029297 L 72.193359 17 z M 84.523438 17 L 95.5 17 L 95.5 20.365234 L 84.523438 17 z M 78.871094 18.701172 L 95.5 23.513672 L 95.5 26.152344 L 90.177734 55.871094 L 89.712891 55.6875 L 89.712891 34.830078 L 82.146484 34.314453 L 82.146484 34.304688 L 80.613281 34.208984 L 76.203125 33.931641 L 76.917969 28.767578 L 78.871094 18.701172 z M 18.935547 22.404297 L 32.816406 28.28125 L 26.25 36.892578 L 18.935547 22.404297 z M 16.951172 25.128906 L 24.228516 39.542969 L 15.582031 50.882812 L 16.951172 25.128906 z M 36.59375 29.193359 L 65.738281 29.976562 L 65.722656 30.029297 L 73.714844 30.029297 L 73.201172 33.744141 L 47.302734 32.117188 L 46.34375 50.255859 L 35.220703 52.863281 L 36.59375 29.193359 z M 33.398438 32.46875 L 32.429688 49.130859 L 27.753906 39.869141 L 33.398438 32.46875 z M 50.138672 35.302734 L 52.029297 35.421875 L 50.027344 37.423828 L 50.138672 35.302734 z M 54.691406 35.587891 L 57.394531 35.757812 L 49.707031 43.445312 L 49.869141 40.410156 L 54.691406 35.587891 z M 60.054688 35.925781 L 62.759766 36.09375 L 59.707031 39.146484 C 59.983935 39.292012 60.247339 39.461561 60.478516 39.679688 C 60.535096 39.733078 60.578046 39.799999 60.630859 39.857422 C 60.698139 39.780462 60.755841 39.694679 60.830078 39.625 L 60.832031 39.623047 L 60.833984 39.619141 C 61.424975 39.069263 62.188905 38.793785 62.978516 38.703125 L 65.419922 36.261719 L 68.123047 36.431641 L 65.464844 39.089844 C 65.748461 39.229781 66.020231 39.395192 66.257812 39.615234 C 66.521507 39.85847 66.737818 40.154155 66.908203 40.474609 L 70.785156 36.597656 L 73.488281 36.767578 L 71.595703 38.660156 L 72.814453 38.660156 L 72.814453 40.267578 L 76.148438 36.933594 L 78.851562 37.103516 L 72.814453 43.140625 L 72.814453 43.503906 L 73.761719 43.503906 L 73.761719 45.023438 L 78.599609 40.185547 L 78.3125 43.34375 L 72.814453 48.841797 L 72.814453 49.328125 L 72.328125 49.328125 L 70.548828 51.107422 L 67.814453 50.96875 L 69.455078 49.328125 L 68.398438 49.328125 L 68.398438 47.791016 L 68.164062 47.791016 L 65.123047 50.832031 L 62.388672 50.695312 L 63.621094 49.462891 C 62.918414 49.462891 62.216367 49.309798 61.595703 48.996094 L 60.927734 49.328125 L 59.697266 50.558594 L 56.962891 50.419922 L 58.054688 49.328125 L 55.226562 49.328125 L 54.271484 50.283203 L 51.537109 50.144531 L 53.408203 48.273438 L 53.474609 47.666016 C 53.553599 46.935344 53.797387 46.227692 54.179688 45.595703 L 54.181641 45.59375 L 54.181641 45.591797 C 54.500889 45.061876 55.055081 44.529857 55.613281 43.976562 L 54.943359 43.910156 L 49.388672 49.464844 L 49.550781 46.429688 L 53.636719 42.34375 L 53.646484 42.259766 C 53.760935 41.197662 54.180727 40.155839 55.042969 39.496094 C 55.687773 39.002719 56.481177 38.750254 57.292969 38.6875 L 60.054688 35.925781 z M 81.875 37.300781 L 86.712891 37.630859 L 86.712891 54.5 L 80.533203 52.052734 L 81.875 37.300781 z M 57.673828 40.160156 C 56.986325 40.160156 56.413413 40.336804 55.955078 40.6875 C 55.496743 41.038195 55.223525 41.616317 55.136719 42.421875 L 56.595703 42.566406 C 56.623483 42.139322 56.727647 41.834419 56.908203 41.650391 C 57.088759 41.466362 57.331162 41.375 57.636719 41.375 C 57.945747 41.375 58.187716 41.46354 58.361328 41.640625 C 58.538412 41.814236 58.626953 42.064235 58.626953 42.390625 C 58.626953 42.685765 58.525609 42.983072 58.324219 43.285156 C 58.174913 43.503907 57.771052 43.920571 57.111328 44.535156 C 56.291881 45.295576 55.742622 45.907334 55.464844 46.369141 C 55.187063 46.827476 55.020397 47.314235 54.964844 47.828125 L 60.095703 47.828125 L 60.095703 46.46875 L 57.189453 46.46875 C 57.265843 46.336805 57.3648 46.201389 57.486328 46.0625 C 57.611329 45.923611 57.905379 45.642363 58.367188 45.21875 C 58.828995 44.795137 59.147135 44.469835 59.324219 44.244141 C 59.591581 43.903861 59.786674 43.57856 59.908203 43.269531 C 60.033203 42.957031 60.095703 42.628908 60.095703 42.285156 C 60.095703 41.680988 59.879775 41.175783 59.449219 40.769531 C 59.018661 40.36328 58.427302 40.160156 57.673828 40.160156 z M 63.554688 40.160156 C 62.822046 40.160156 62.254776 40.347221 61.855469 40.71875 C 61.459634 41.090279 61.261719 41.55946 61.261719 42.128906 C 61.261719 42.46224 61.347439 42.76953 61.517578 43.050781 C 61.691189 43.32856 61.96723 43.547309 62.345703 43.707031 C 61.90473 43.894532 61.581815 44.162542 61.376953 44.509766 C 61.172091 44.853516 61.070312 45.231335 61.070312 45.644531 C 61.070312 46.394533 61.341578 46.985458 61.886719 47.416016 C 62.348526 47.7806 62.926647 47.962891 63.621094 47.962891 C 64.367624 47.962891 64.966145 47.741755 65.414062 47.300781 C 65.865454 46.859808 66.089844 46.286895 66.089844 45.582031 C 66.089844 45.154947 65.980036 44.779515 65.757812 44.453125 C 65.539062 44.126735 65.216581 43.877171 64.792969 43.707031 C 65.126303 43.561197 65.386285 43.352432 65.570312 43.078125 C 65.75434 42.800346 65.845703 42.483074 65.845703 42.128906 C 65.845703 41.55946 65.644962 41.090279 65.242188 40.71875 C 64.842878 40.347221 64.280383 40.160156 63.554688 40.160156 z M 70.085938 40.160156 L 66.773438 45.009766 L 66.773438 46.291016 L 69.898438 46.291016 L 69.898438 47.828125 L 71.314453 47.828125 L 71.314453 46.291016 L 72.261719 46.291016 L 72.261719 45.003906 L 71.314453 45.003906 L 71.314453 40.160156 L 70.085938 40.160156 z M 65.269531 40.5 C 65.274231 40.5045 65.270791 40.512978 65.275391 40.517578 C 65.279991 40.522178 65.288469 40.518838 65.292969 40.523438 L 65.269531 40.5 z M 59.412109 40.568359 C 59.416509 40.572659 59.413669 40.579664 59.417969 40.583984 C 59.421769 40.587784 59.427971 40.586044 59.431641 40.589844 L 59.412109 40.568359 z M 63.570312 41.322266 C 63.841147 41.322266 64.057508 41.405596 64.220703 41.572266 C 64.38737 41.735461 64.470703 41.95421 64.470703 42.228516 C 64.470703 42.520184 64.387373 42.749349 64.220703 42.916016 C 64.054036 43.079211 63.832465 43.160156 63.554688 43.160156 C 63.28038 43.160156 63.059245 43.079216 62.892578 42.916016 C 62.729383 42.752821 62.648434 42.526042 62.648438 42.234375 C 62.648438 41.960068 62.731767 41.738933 62.898438 41.572266 C 63.065104 41.405598 63.289063 41.322266 63.570312 41.322266 z M 69.898438 42.394531 L 69.898438 45.003906 L 68.142578 45.003906 L 69.898438 42.394531 z M 25.732422 42.519531 L 31.220703 53.388672 L 16.962891 54.019531 L 25.732422 42.519531 z M 95.5 43.169922 L 95.5 57.978516 L 93.023438 56.998047 L 95.5 43.169922 z M 63.574219 44.332031 C 63.883247 44.332031 64.138454 44.441406 64.339844 44.660156 C 64.541233 44.875434 64.642578 45.161891 64.642578 45.519531 C 64.642578 45.929255 64.543618 46.24414 64.345703 46.462891 C 64.147786 46.678169 63.897788 46.785156 63.595703 46.785156 C 63.286674 46.785156 63.028647 46.67296 62.820312 46.447266 C 62.615451 46.22157 62.511719 45.906686 62.511719 45.503906 C 62.511719 45.215711 62.599829 44.949654 62.773438 44.703125 C 62.950522 44.456597 63.216579 44.332031 63.574219 44.332031 z M 78.029297 46.455078 L 77.742188 49.615234 L 75.974609 51.382812 L 73.240234 51.244141 L 78.029297 46.455078 z M 47.919922 52.966797 L 78.613281 54.517578 L 95.5 61.205078 L 95.5 83 L 90.777344 83 L 90.462891 80.027344 L 77.351562 77.556641 L 52.5625 70.701172 L 37.732422 70.171875 L 4.5 67.251953 L 4.5 56.994141 L 13.800781 57.158203 L 13.800781 57.15625 C 13.831371 57.157186 13.861978 57.157186 13.892578 57.15625 L 33.626953 56.283203 C 33.641933 56.282776 33.656915 56.28215 33.671875 56.28125 C 33.702545 56.27955 33.733152 56.276937 33.763672 56.273438 C 33.767572 56.273452 33.771471 56.273453 33.775391 56.273438 C 33.809411 56.269438 33.843291 56.264143 33.876953 56.257812 C 33.900493 56.253813 33.923946 56.249211 33.947266 56.244141 L 47.919922 52.966797 z M 72.552734 63.125 C 72.132594 63.125 71.752388 63.20551 71.412109 63.365234 C 71.075303 63.521485 70.810114 63.737846 70.619141 64.015625 C 70.43164 64.289932 70.291016 64.659287 70.197266 65.121094 L 71.546875 65.349609 C 71.585065 65.016275 71.692057 64.763455 71.869141 64.589844 C 72.046225 64.416232 72.259765 64.328125 72.509766 64.328125 C 72.763239 64.328125 72.966363 64.405815 73.119141 64.558594 C 73.271919 64.711372 73.349609 64.91493 73.349609 65.171875 C 73.349609 65.473959 73.245443 65.718315 73.037109 65.902344 C 72.828775 66.082903 72.526694 66.16667 72.130859 66.15625 L 71.96875 67.349609 C 72.229167 67.276689 72.453124 67.240234 72.640625 67.240234 C 72.925348 67.240234 73.167317 67.347222 73.365234 67.5625 C 73.563152 67.777779 73.662109 68.069443 73.662109 68.4375 C 73.662109 68.82639 73.557943 69.136067 73.349609 69.365234 C 73.144747 69.594402 72.889975 69.708984 72.587891 69.708984 C 72.306639 69.708984 72.067058 69.612844 71.869141 69.421875 C 71.671225 69.230902 71.550999 68.954862 71.505859 68.59375 L 70.087891 68.765625 C 70.160811 69.407988 70.425997 69.928818 70.880859 70.328125 C 71.335722 70.72396 71.908635 70.921875 72.599609 70.921875 C 73.328779 70.921875 73.93815 70.687068 74.427734 70.214844 C 74.917319 69.74262 75.162109 69.170141 75.162109 68.5 C 75.162109 68.038193 75.029514 67.644749 74.765625 67.318359 C 74.505208 66.991969 74.156252 66.781251 73.71875 66.6875 C 74.451391 66.288193 74.818359 65.754125 74.818359 65.083984 C 74.818359 64.61176 74.63889 64.187501 74.28125 63.8125 C 73.847221 63.354165 73.271487 63.125 72.552734 63.125 z M 78.552734 63.125 C 77.813148 63.125 77.235461 63.385415 76.822266 63.90625 C 76.322264 64.538196 76.072266 65.574214 76.072266 67.011719 C 76.072266 68.477001 76.300997 69.495441 76.755859 70.068359 C 77.210722 70.637806 77.809676 70.921875 78.552734 70.921875 C 79.29232 70.921875 79.868054 70.66146 80.28125 70.140625 C 80.781251 69.508679 81.03125 68.471793 81.03125 67.027344 C 81.03125 65.579422 80.783639 64.542971 80.287109 63.917969 C 79.870441 63.390189 79.29232 63.125 78.552734 63.125 z M 84.806641 63.125 C 83.980249 63.125 83.308379 63.434677 82.791016 64.052734 C 82.273653 64.670792 82.015625 65.678815 82.015625 67.078125 C 82.015625 68.442712 82.263236 69.426647 82.759766 70.027344 C 83.256295 70.624568 83.891273 70.921875 84.662109 70.921875 C 85.380861 70.921875 85.969399 70.687068 86.427734 70.214844 C 86.886069 69.74262 87.115234 69.115237 87.115234 68.333984 C 87.115234 67.597871 86.896486 66.996529 86.458984 66.53125 C 86.024955 66.065971 85.501738 65.833984 84.890625 65.833984 C 84.348957 65.833984 83.895835 66.049912 83.53125 66.480469 C 83.58681 65.601994 83.719835 65.023872 83.931641 64.746094 C 84.146919 64.468315 84.409721 64.328125 84.71875 64.328125 C 84.951389 64.328125 85.141275 64.398215 85.287109 64.537109 C 85.432945 64.675999 85.521921 64.891926 85.556641 65.183594 L 86.974609 65.027344 C 86.870443 64.409286 86.626087 63.938152 86.244141 63.615234 C 85.865667 63.288844 85.386503 63.125 84.806641 63.125 z M 78.552734 64.339844 C 78.729818 64.339844 78.886068 64.397134 79.021484 64.511719 C 79.160374 64.62283 79.274956 64.846787 79.365234 65.183594 C 79.455514 65.516928 79.5 66.131508 79.5 67.027344 C 79.5 67.92318 79.45031 68.558592 79.349609 68.933594 C 79.273219 69.225262 79.16428 69.428385 79.025391 69.542969 C 78.886501 69.65408 78.729818 69.708984 78.552734 69.708984 C 78.37565 69.708984 78.217014 69.654084 78.078125 69.542969 C 77.942708 69.431857 77.830512 69.208335 77.740234 68.875 C 77.649954 68.538193 77.603516 67.92318 77.603516 67.027344 C 77.603516 66.131508 77.655166 65.493708 77.755859 65.115234 C 77.832249 64.823566 77.939236 64.62283 78.078125 64.511719 C 78.217014 64.397135 78.37565 64.339844 78.552734 64.339844 z M 84.662109 66.912109 C 84.953777 66.912109 85.19618 67.029079 85.390625 67.261719 C 85.58507 67.490886 85.681641 67.85308 85.681641 68.349609 C 85.681641 68.83225 85.592661 69.178819 85.412109 69.390625 C 85.231553 69.602431 85.005209 69.708984 84.734375 69.708984 C 84.453124 69.708984 84.203126 69.581164 83.984375 69.324219 C 83.765624 69.063801 83.65625 68.694446 83.65625 68.21875 C 83.65625 67.788193 83.75282 67.464844 83.947266 67.246094 C 84.141711 67.023871 84.380859 66.912109 84.662109 66.912109 z M 4.5 70.261719 L 35.716797 73.005859 L 33.027344 83 L 4.5 83 L 4.5 70.261719 z M 38.769531 73.210938 L 40.646484 73.277344 L 38.052734 75.871094 L 38.769531 73.210938 z M 43.376953 73.375 L 46.150391 73.474609 L 36.625 83 L 36.134766 83 L 37.011719 79.740234 L 43.376953 73.375 z M 48.882812 73.570312 L 51.65625 73.669922 L 42.326172 83 L 39.453125 83 L 48.882812 73.570312 z M 53.957031 74.197266 L 56.207031 74.820312 L 48.027344 83 L 45.154297 83 L 53.957031 74.197266 z M 58.421875 75.433594 L 60.671875 76.056641 L 53.726562 83 L 50.855469 83 L 58.421875 75.433594 z M 62.886719 76.667969 L 65.136719 77.291016 L 59.427734 83 L 56.556641 83 L 62.886719 76.667969 z M 67.353516 77.904297 L 69.601562 78.527344 L 65.128906 83 L 62.255859 83 L 67.353516 77.904297 z M 71.818359 79.138672 L 74.068359 79.761719 L 70.830078 83 L 67.957031 83 L 71.818359 79.138672 z M 78.304688 80.789062 L 87.712891 82.5625 L 87.759766 83 L 78.033203 83 L 78.304688 80.789062 z M 75.201172 81.457031 L 75.011719 83 L 73.658203 83 L 75.201172 81.457031 z "
     style="color:#000000;font-style:normal;font-variant:normal;font-weight:normal;font-stretch:normal;font-size:medium;line-height:normal;font-family:sans-serif;font-variant-ligatures:normal;font-variant-position:normal;font-variant-caps:normal;font-variant-numeric:normal;font-variant-alternates:normal;font-variant-east-asian:normal;font-feature-settings:normal;font-variation-settings:normal;text-indent:0;text-align:start;text-decoration:none;text-decoration-line:none;text-decoration-style:solid;text-decoration-color:#000000;letter-spacing:normal;word-spacing:normal;text-transform:none;writing-mode:lr-tb;direction:ltr;text-orientation:mixed;dominant-baseline:auto;baseline-shift:baseline;text-anchor:start;white-space:normal;shape-padding:0;shape-margin:0;inline-size:0;clip-rule:nonzero;display:inline;overflow:visible;visibility:visible;isolation:auto;mix-blend-mode:normal;color-interpolation:sRGB;color-interpolation-filters:linearRGB;solid-color:#000000;solid-opacity:1;vector-effect:none;fill:#000080;fill-opacity:1;fill-rule:nonzero;stroke:none;stroke-width:3;stroke-linecap:butt;stroke-linejoin:miter;stroke-miterlimit:4;stroke-dasharray:none;stroke-dashoffset:20;stroke-opacity:1;color-rendering:auto;image-rendering:auto;shape-rendering:auto;text-rendering:auto;enable-background:accumulate;stop-color:#000000"
     id="path1128" />
  <g
     aria-label="284"
     id="text1135-7-0"
     style="font-style:normal;font-weight:normal;font-size:10.6667px;line-height:100%;font-family:sans-serif;text-align:end;letter-spacing:0px;word-spacing:0px;text-anchor:end;fill:#000080;fill-opacity:1;stroke:none;stroke-width:3;stroke-linecap:butt;stroke-linejoin:miter;stroke-miterlimit:4;stroke-dasharray:none;stroke-opacity:1" />
</svg>
