<?xml version="1.0" encoding="UTF-8" standalone="no"?>
<svg
   xmlns:dc="http://purl.org/dc/elements/1.1/"
   xmlns:cc="http://creativecommons.org/ns#"
   xmlns:rdf="http://www.w3.org/1999/02/22-rdf-syntax-ns#"
   xmlns:svg="http://www.w3.org/2000/svg"
   xmlns="http://www.w3.org/2000/svg"
   xmlns:sodipodi="http://sodipodi.sourceforge.net/DTD/sodipodi-0.dtd"
   xmlns:inkscape="http://www.inkscape.org/namespaces/inkscape"
   version="1.1"
   width="100"
   height="100"
   id="svg4460"
   sodipodi:docname="uEA5C-contour-map.svg"
   inkscape:version="1.0 (4035a4fb49, 2020-05-01)">
  <sodipodi:namedview
     pagecolor="#ffffff"
     bordercolor="#666666"
     borderopacity="1"
     objecttolerance="10"
     gridtolerance="10"
     guidetolerance="10"
     inkscape:pageopacity="0"
     inkscape:pageshadow="2"
     inkscape:window-width="1920"
     inkscape:window-height="1017"
     id="namedview11"
     showgrid="false"
     inkscape:zoom="4.0400001"
     inkscape:cx="43.296189"
     inkscape:cy="42.267563"
     inkscape:window-x="-8"
     inkscape:window-y="-8"
     inkscape:window-maximized="1"
     inkscape:current-layer="svg4460"
     inkscape:document-rotation="0" />
  <defs
     id="defs4462" />
  <metadata
     id="metadata4465">
    <rdf:RDF>
      <cc:Work
         rdf:about="">
        <dc:format>image/svg+xml</dc:format>
        <dc:type
           rdf:resource="http://purl.org/dc/dcmitype/StillImage" />
        <dc:title />
      </cc:Work>
    </rdf:RDF>
  </metadata>
  <g
     transform="matrix(1.7473321,0,0,1.7473321,-30.238474,-31.36847)"
     style="font-style:normal;font-weight:normal;font-size:10.6667px;line-height:100%;font-family:sans-serif;text-align:end;letter-spacing:0px;word-spacing:0px;text-anchor:end;fill:#000080;fill-opacity:1;stroke:none;stroke-width:1.43075263;stroke-linecap:butt;stroke-linejoin:miter;stroke-miterlimit:4;stroke-dasharray:none;stroke-opacity:1"
     id="text1135-7-0"
     aria-label="284" />
  <path
     d="m 2.0000015,12 a 2.50025,2.50025 0 0 0 -2.49999994,2.5 v 71 A 2.50025,2.50025 0 0 0 2.0000015,88 H 98.000001 A 2.50025,2.50025 0 0 0 100.5,85.5 v -71 A 2.50025,2.50025 0 0 0 98.000001,12 Z m 2.5,5 h 0.578125 c -0.1227041,1.116579 -0.2989942,2.148105 -0.578125,2.925781 z m 3.0976563,0 h 8.8710932 c -0.833348,3.0687 -1.635734,6.149379 -2.023437,8.175781 -1.023819,5.351168 -1.042994,9.338972 -1.517578,12.845703 -0.474416,3.505472 -1.468734,6.614128 -1.38086,9.173828 0.04343,1.265212 0.398031,2.172381 0.638672,2.722657 0.240641,0.550275 0.236608,0.520935 0.224609,0.566406 -0.08719,0.33041 -0.173231,0.483073 -0.207031,0.539063 0.03837,0.0161 0.02564,0.02811 -0.01172,0.02539 -6.21e-4,9.48e-4 -0.0034,0.0071 -0.0039,0.0078 -0.0097,-0.0036 0.0032,-0.0086 -0.04492,-0.0098 0.04438,0.0011 0.03044,6.15e-4 0.04883,0.002 0.002,-0.003 0.0083,-0.01978 0.01172,-0.02539 -0.02884,-0.0121 -0.05286,-0.01882 -0.103516,-0.05469 -0.151219,-0.107067 -0.363936,-0.300069 -0.558603,-0.521482 -0.389336,-0.442826 -0.685723,-1.152793 -0.66211,-1.009766 -0.04967,-0.300867 -0.50605,-3.423768 -1.1425774,-6.726562 -0.6365269,-3.302795 -1.3343142,-6.7285 -2.4335937,-8.63086 -0.8653088,-1.49746 -2.0603223,-2.05827 -2.8027344,-2.27539 V 25.802734 C 5.0489385,24.336797 5.7359974,22.910165 6.335939,21.900391 7.2084928,20.431778 7.4442845,18.693579 7.5976578,17 Z m 11.4687492,0 h 0.416016 c -0.617689,2.252195 -1.003145,4.895233 -1.298828,7.597656 -0.450054,4.113312 -0.651472,8.296141 -0.869141,10.925782 -0.215578,2.60441 -0.479379,3.123799 -0.603515,4.292968 -0.124137,1.169169 -0.0385,2.594495 0.439453,6.660156 0.489397,4.162932 2.066442,12.688483 3.923828,20.591797 0.928693,3.951658 1.925939,7.73632 2.90039,10.734375 0.487226,1.499028 0.966276,2.799214 1.445313,3.84961 0.23163,0.507901 0.44752,0.952861 0.6875,1.347656 H 23.695314 C 22.938211,78.474317 22.17214,74.098395 20.751954,71.513672 19.476588,69.19252 18.648627,68.203581 17.775392,67.619141 16.902156,67.034701 16.504508,67.057823 15.60547,66.289062 14.361222,65.225116 12.629745,64.347863 11.101564,63.439453 9.5733815,62.531043 8.3393319,61.496077 8.1503922,61.074219 7.968015,60.667013 7.9751555,60.521556 7.9746109,60.529297 c -5.446e-4,0.0077 -0.030659,0.05246 0.078125,-0.126953 0.2175676,-0.358818 0.7894806,-1.435533 0.5839844,-2.892578 -0.3909014,-2.771641 -2.1638412,-7.737538 -4.1347657,-10.332032 -6.101e-4,-8.03e-4 -0.00134,-0.0012 -0.00195,-0.002 v -12.71875 c 0.1696484,0.147131 0.3529156,0.378532 0.6386719,0.873047 0.5743949,0.99402 1.519291,4.619422 2.1425781,7.853516 0.6232871,3.234094 1.0435328,6.133147 1.1308594,6.662109 0.1606143,0.972853 0.6591538,1.579931 1.25,2.251953 0.2954231,0.336011 0.620476,0.648912 0.992187,0.91211 0.371712,0.263198 0.786316,0.521258 1.425781,0.537109 0.698714,0.01732 1.467496,-0.269856 1.933594,-0.773437 0.466098,-0.503582 0.66009,-1.072811 0.8125,-1.650391 0.245354,-0.92981 -0.133348,-1.712506 -0.349609,-2.207031 -0.216262,-0.494526 -0.401339,-0.923861 -0.431641,-1.806641 -0.05961,-1.736284 0.853357,-5.012955 1.359375,-8.751953 0.505848,-3.737743 0.514665,-7.583279 1.496094,-12.712891 0.388373,-2.029904 1.266755,-5.361183 2.166015,-8.644531 z m 3.03125,0 h 4.632813 c -0.395478,0.344289 -0.740392,0.716738 -1.035156,1.171875 -0.648537,1.001388 -1.078082,2.204518 -1.935547,4.351562 -1.828926,4.579526 -3.84535,13.936254 -3.56836,20.812501 0.27705,6.877878 2.985827,12.478278 4.6875,18.380859 0.841778,2.919871 1.562807,6.768352 2.44336,10.255859 0.880553,3.487507 1.774164,6.623759 3.71289,8.402344 0.864794,0.793359 1.736686,1.226944 2.583985,1.296875 0.847298,0.06993 1.532404,-0.225359 1.974609,-0.439453 0.421859,-0.204244 0.631189,-0.274538 0.609375,-0.279297 -0.02207,-0.02885 6.57e-4,-0.01201 0.0293,-0.01367 0.0023,-1.34e-4 -0.03035,0.01344 -0.0293,0.01367 0.0164,0.02143 0.04705,0.05456 0.173828,0.210937 0.264634,0.32642 0.375841,0.97268 0.388672,1.835938 h -7.017578 c -0.269028,-0.158707 -0.612875,-0.388164 -1.121094,-0.816406 -0.06954,-0.0586 -0.51583,-0.656602 -0.93164,-1.56836 -0.415811,-0.911758 -0.874768,-2.143037 -1.34375,-3.585937 -0.937966,-2.8858 -1.924993,-6.621872 -2.84375,-10.53125 -1.837514,-7.818756 -3.410733,-16.379947 -3.873047,-20.3125 -0.473743,-4.029824 -0.524805,-5.283194 -0.4375,-6.105469 0.08731,-0.822274 0.382254,-1.607714 0.609375,-4.351562 0.225034,-2.718615 0.424469,-6.84686 0.863281,-10.857422 C 20.988644,21.958118 21.469337,19.099708 22.097657,17 Z m 19.427735,0 h 16.015625 c -1.868198,0.43342 -3.758787,0.938984 -5.576172,1.474609 -2.991574,0.881687 -5.773375,1.818757 -7.853516,2.533203 -1.04007,0.357224 -1.906227,0.658548 -2.52539,0.867188 -0.309582,0.10432 -0.559365,0.18463 -0.72461,0.234375 -0.02658,0.008 -0.03283,0.0094 -0.05469,0.01563 0.01321,-0.0041 0.03802,5.7e-4 -0.111328,-0.04492 -0.214766,-0.06542 -0.521564,-0.167182 -0.884763,-0.285156 -0.726397,-0.235948 -1.68393,-0.53529 -2.753906,-0.753906 -2.139953,-0.437233 -4.845624,-0.608311 -7.039063,0.986328 -2.180747,1.585414 -3.194677,4.330085 -3.867187,7.263672 -0.672511,2.933586 -0.96856,6.150335 -1.316406,8.847656 -0.74612,5.785686 0.885187,10.751183 2.197265,16.84375 0.681406,3.16402 2.09469,8.159095 3.429688,12.412109 0.667499,2.126507 1.313611,4.060897 1.84375,5.488281 0.265069,0.713693 0.498153,1.296767 0.708984,1.746094 0.105415,0.224664 0.19985,0.410907 0.328125,0.605469 0.06414,0.09728 0.131141,0.19658 0.267578,0.328125 0.136437,0.131545 0.366768,0.390625 0.939453,0.390625 0.424715,0 0.521712,-0.06713 0.744141,-0.123047 0.222429,-0.05592 0.474521,-0.124185 0.761719,-0.193359 0.574396,-0.13835 1.282233,-0.280168 2.015625,-0.324219 1.466782,-0.0881 2.877311,0.1489 3.916015,1.492188 0.389407,0.503592 0.635057,1.516911 0.613281,2.888671 C 42.58409,80.670861 42.429836,81.817063 42.238282,83 H 39.32422 c 0.01302,-1.231441 -0.190452,-2.40437 -1.00586,-3.410156 -0.58585,-0.722634 -1.447399,-1.192059 -2.230468,-1.146485 -0.78307,0.04557 -1.244193,0.375498 -1.582032,0.539063 -0.337837,0.163565 -0.504998,0.211844 -0.68164,0.197266 -0.176642,-0.01458 -0.499564,-0.09601 -1.09961,-0.646485 -0.990951,-0.909097 -2.126399,-3.796994 -2.978515,-7.171875 -0.852117,-3.374881 -1.567635,-7.225749 -2.464844,-10.33789 -1.776303,-6.161451 -4.339358,-11.522173 -4.591797,-17.789063 -0.252509,-6.268518 1.776587,-15.743699 3.390625,-19.785156 0.864018,-2.163452 1.316918,-3.303542 1.714844,-3.917969 0.397926,-0.614427 0.754227,-0.878746 1.904297,-1.558594 0.996149,-0.58886 0.98168,-0.456681 2.144531,-0.308594 1.162851,0.148088 3.096456,0.371668 6.65625,-0.08203 C 39.385284,17.469202 40.422278,17.255471 41.525392,17 Z m 30.167968,0 h 9.44336 c 0.948381,0.968925 1.851422,2.01401 2.832031,3.123047 3.457603,3.910429 4.887348,7.100636 6.351563,12.947265 1.392033,5.558407 0.971568,15.397808 0.792968,21.25 -0.08199,2.68649 -0.914143,5.32928 -1.511718,7.695313 -0.298788,1.183017 -0.54499,2.297306 -0.554688,3.388672 -0.0097,1.091366 0.266499,2.239583 1.082031,3.099609 0.678264,0.715266 1.455771,1.183831 2.267579,1.34961 0.811807,0.165778 1.596099,0.02075 2.255859,-0.242188 0.300724,-0.119849 0.579646,-0.265617 0.847656,-0.419922 v 1.050782 c -1.457504,1.18734 -2.720426,2.143825 -3.525391,2.529296 l -0.03125,0.01563 -0.0332,0.01758 c -1.254727,0.693727 -2.173332,1.066306 -2.738281,1.195312 -0.564949,0.129006 -0.653922,0.04328 -0.673828,0.0293 -0.01991,-0.01398 -0.155946,-0.159926 -0.28125,-0.625 -0.125304,-0.465074 -0.220472,-1.166497 -0.328125,-1.988281 l -0.002,-0.002 v -0.0039 c -0.223741,-1.650856 0.06364,-4.787868 0.35356,-8.347625 0.289918,-3.559757 0.557338,-7.600183 0.140624,-11.427734 C 87.576541,44.246988 86.17357,33.659896 82.337892,27.382812 80.551312,24.459075 79.123508,22.13808 77.126954,20.267578 75.682445,18.914267 73.94895,17.848402 71.69336,17 Z m 12.830079,0 h 3.34375 c 2.813712,3.571557 4.832462,7.682214 5.769531,10.900391 1.166767,4.007005 0.03217,6.33745 0.289062,9.880859 0.240886,3.322506 0.933943,6.179028 1.007813,8.958984 0.03047,1.147286 -0.45763,3.040148 -0.8125,4.775391 -0.177435,0.867622 -0.323781,1.701964 -0.292969,2.527344 0.03081,0.825379 0.314019,1.836815 1.207031,2.373047 0.16317,0.09798 0.316374,0.167953 0.464844,0.21875 v 9.480468 c -0.651642,0.505181 -1.277169,0.97605 -1.773437,1.173828 -0.342445,0.136477 -0.588652,0.164536 -0.830078,0.115235 -0.241428,-0.0493 -0.539083,-0.182515 -0.953126,-0.619141 -0.276767,-0.291867 -0.402753,-0.651943 -0.396484,-1.357422 0.0063,-0.705478 0.195046,-1.67646 0.478516,-2.798828 0.56694,-2.244736 1.49011,-5.092451 1.585937,-8.232422 C 93.788358,48.59575 94.326954,38.775281 92.746095,32.462891 91.237418,26.43872 89.532597,22.640962 85.841798,18.466797 85.405909,17.973821 84.965213,17.486603 84.523439,17 Z m 6.476562,0 h 4.5 v 8.564453 C 94.527426,22.852539 93.00498,19.842483 91.000001,17 Z m -25.615234,1.320312 c 1.151665,-0.03664 2.137151,0.03278 2.865234,0.21875 3.460725,0.883943 5.49801,1.990161 7.167969,3.554688 1.669959,1.564527 3.00604,3.679032 4.787109,6.59375 3.299622,5.399827 4.893641,15.907151 5.689453,23.216797 0.383357,3.521165 0.140836,7.42724 -0.146484,10.955078 -0.28732,3.527838 -0.64522,6.619519 -0.337891,8.886719 0.106407,0.812678 0.196594,1.581179 0.392579,2.308594 0.196494,0.729306 0.519379,1.500747 1.257812,2.019531 0.738433,0.518784 1.706922,0.580336 2.666016,0.361328 0.946351,-0.216099 2.009297,-0.687026 3.347656,-1.423828 0.748909,-0.360596 1.562045,-0.88658 2.425781,-1.519531 v 3.730468 c -0.528311,0.497403 -1.012719,0.950166 -1.371094,1.273438 -0.398609,0.359566 -0.749827,0.625191 -0.699218,0.59375 -0.536731,0.333451 -2.08231,1.159468 -3.648438,1.748047 -1.566128,0.588579 -3.248362,0.792684 -3.646484,0.642578 -0.568254,-0.214251 -0.954591,-0.347957 -1.125,-0.427735 -0.170409,-0.07978 -0.09954,-0.0296 -0.142578,-0.09375 -0.08607,-0.1283 -0.396873,-1.064983 -1.048829,-3.142578 -0.496893,-1.583465 -0.338994,-5.068891 -0.0918,-8.861328 0.247197,-3.792436 0.518845,-7.961013 -0.197266,-11.519531 -1.375084,-6.833137 -4.831138,-14.734369 -7.62109,-18.826172 -1.391709,-2.04111 -2.630486,-3.092082 -3.671875,-3.816406 -1.041389,-0.724324 -1.755559,-1.088924 -2.552734,-2.00586 -0.582538,-0.670053 -0.453919,-1.521327 -0.847656,-3.042968 -0.393738,-1.521642 -1.629638,-3.24685 -4.642579,-4.433594 -0.858031,-0.337964 -1.818931,-0.53629 -2.857421,-0.621094 -0.389434,-0.0318 -0.789229,-0.04759 -1.199219,-0.04883 -2.869928,-0.0087 -6.211528,0.698045 -9.56836,1.654297 -5.115164,1.457145 -10.133058,3.605822 -13.039062,5.570312 -2.675195,1.808466 -4.087595,2.612141 -5.132812,3.933594 -1.045218,1.321453 -1.414476,2.836655 -2.158204,5.705078 -0.859072,3.31329 -0.260901,7.923905 0.748047,12.44336 1.008949,4.519454 2.469935,8.844999 3.722657,11.361328 1.18887,2.388073 2.049426,3.809736 3.060546,4.791015 1.011121,0.981279 2.157392,1.376346 3.353516,1.654297 1.064452,0.247354 2.03382,-0.253119 2.677734,-0.796875 0.643914,-0.543756 1.139756,-1.186383 1.603516,-1.742187 0.46376,-0.555804 0.905751,-1.01327 1.166016,-1.177735 0.260264,-0.164464 0.106868,-0.170632 0.316406,-0.04883 0.03181,0.01849 0.325662,0.390228 0.476562,1.298828 0.150901,0.908601 0.183938,2.193908 0.160157,3.613282 -0.04756,2.838747 -0.315313,6.195178 0.101562,8.90039 0.057,0.369906 0.0802,0.776947 0.08984,1.199219 h -2.941406 c 0.171611,-1.114023 0.309515,-2.218278 0.326171,-3.267578 0.02608,-1.64291 -0.178882,-3.218328 -1.136718,-4.457031 -1.65578,-2.141311 -4.133417,-2.573681 -6.042969,-2.458985 -0.954776,0.05735 -1.805624,0.235138 -2.451172,0.390625 -0.125043,0.03012 -0.196554,0.05062 -0.304687,0.07813 -0.145813,-0.332308 -0.309149,-0.717504 -0.515625,-1.273437 -0.504091,-1.35725 -1.143694,-3.265673 -1.802735,-5.365235 -1.318081,-4.199122 -2.726161,-9.194792 -3.371094,-12.189453 -1.340552,-6.224789 -2.822738,-10.862092 -2.160156,-16 0.356507,-2.764479 0.655197,-5.910566 1.273438,-8.607422 0.618241,-2.696855 1.591183,-4.8504 2.898437,-5.800781 1.294568,-0.941156 3.234107,-0.933765 5.070313,-0.558594 0.918103,0.187586 1.78103,0.45445 2.480468,0.681641 0.34972,0.113596 0.657634,0.217912 0.929688,0.300781 0.272054,0.08287 0.417013,0.171875 0.888672,0.171875 0.278064,0 0.327806,-0.03286 0.425781,-0.05664 0.09798,-0.02378 0.1926,-0.05142 0.300781,-0.08398 0.216364,-0.06513 0.481614,-0.151557 0.802735,-0.259765 0.642242,-0.216417 1.505318,-0.517997 2.539062,-0.873047 2.067489,-0.710102 4.814104,-1.635299 7.748047,-2.5 2.933943,-0.864702 6.056203,-1.667259 8.847656,-2.136719 1.395727,-0.23473 2.71357,-0.377425 3.865235,-0.414063 z m -5.5625,8.914063 c 1.447809,-0.04018 2.649702,0.08589 3.453125,0.402344 2.561643,1.008986 2.892569,1.775735 3.140625,2.734375 0.248056,0.958639 0.09417,2.576652 1.380859,4.05664 1.07205,1.233106 2.110146,1.790893 3.011719,2.417969 0.901572,0.627077 1.796412,1.355107 3.035156,3.171875 2.470953,3.623952 5.949015,11.524856 7.234375,17.91211 0.614116,3.051676 0.400772,7.079973 0.154297,10.861328 -0.246475,3.781354 -0.592278,7.244931 0.201172,9.773437 0.638393,2.034378 0.774944,2.918855 1.357422,3.787109 0.173049,0.257952 0.406644,0.46794 0.652343,0.648438 H 77.845704 C 78.272402,80.979977 77.82676,78.535316 77.027345,75.798828 76.086557,72.578407 74.5493,68.992136 72.771486,65.619141 70.993669,62.246145 68.980858,59.096089 67.04297,56.759766 c -0.968944,-1.168162 -1.914328,-2.135287 -2.857422,-2.837891 -0.825207,-0.614778 -1.670709,-1.084671 -2.626953,-1.121094 -0.136606,-0.0052 -0.274583,-0.0016 -0.416016,0.01172 -0.946343,0.08921 -1.687002,0.611045 -2.365234,1.285156 -0.678233,0.674112 -1.304713,1.553759 -1.890625,2.613282 -1.171824,2.119042 -2.170278,4.965368 -2.69336,8.248046 -1.485794,9.324427 0.245957,13.666643 2.589844,18.041016 H 50.22461 c -0.01437,-0.535624 -0.04955,-1.065109 -0.128906,-1.580078 -0.340349,-2.208619 -0.121642,-5.529615 -0.07226,-8.476563 0.02469,-1.473473 0.0071,-2.857666 -0.19336,-4.064453 -0.200423,-1.206786 -0.5593,-2.396915 -1.6875,-3.052734 -0.950467,-0.552504 -2.161316,-0.374312 -2.908203,0.09766 -0.746887,0.471969 -1.261177,1.103612 -1.75,1.689453 -0.488823,0.585842 -0.944489,1.13602 -1.296875,1.433594 -0.352386,0.297574 -0.424196,0.288646 -0.498047,0.271484 -1.080484,-0.251079 -1.554828,-0.405301 -2.179687,-1.011718 -0.624859,-0.606418 -1.417079,-1.812485 -2.5625,-4.113282 -1.08157,-2.17254 -2.552095,-6.448759 -3.521485,-10.791015 -0.969389,-4.342257 -1.39499,-8.851668 -0.767578,-11.271485 0.742759,-2.864684 1.071547,-3.987692 1.699219,-4.78125 0.627672,-0.793557 1.862238,-1.582049 4.572266,-3.414062 2.479223,-1.675984 7.427102,-3.839345 12.324218,-5.234375 3.060698,-0.871894 6.155344,-1.399831 8.56836,-1.466797 z m -14.421875,9.335937 c -0.300522,-0.03004 -0.603641,-0.02569 -0.90625,0.0059 -0.605218,0.06311 -1.2123,0.23465 -1.81836,0.458984 -1.212119,0.448668 -2.430301,1.166372 -3.498046,2.056641 -1.067747,0.890269 -1.991324,1.947981 -2.529297,3.173828 -0.537974,1.225847 -0.629359,2.737273 0.142578,4.017578 0.687699,1.14059 1.733491,1.868412 2.826172,2.003906 1.09268,0.135495 2.091194,-0.232847 2.951171,-0.738281 1.719958,-1.010868 3.051307,-2.615507 3.751954,-3.863281 0.477416,-0.850226 1.370679,-1.842918 1.880859,-3.068359 0.25509,-0.612721 0.427227,-1.424779 0.07813,-2.220704 -0.349102,-0.795924 -1.093538,-1.303919 -1.984375,-1.625 -0.296084,-0.106716 -0.594009,-0.171134 -0.894531,-0.201172 z m -0.226563,2.511719 c 0.119759,0.0061 0.212922,0.02116 0.273438,0.04297 0.491174,0.177031 0.542327,0.289559 0.53125,0.267578 -0.0033,0.02473 -0.01608,0.09588 -0.08594,0.263672 -0.239045,0.574181 -1.091923,1.6312 -1.751953,2.806641 -0.4368,0.777892 -1.702301,2.262269 -2.83789,2.929687 -0.567795,0.333709 -1.061488,0.451228 -1.376954,0.41211 -0.315466,-0.03912 -0.592756,-0.146782 -0.99414,-0.8125 -0.317146,-0.526006 -0.308028,-1.00742 0.0059,-1.722657 0.313888,-0.715236 0.991454,-1.54881 1.841797,-2.257812 0.850343,-0.709002 1.866189,-1.298655 2.763672,-1.63086 0.673112,-0.249153 1.271583,-0.316997 1.630859,-0.298828 z M 4.5000015,52.605469 c 0.8143113,2.003427 1.5041986,4.148107 1.6601563,5.253906 0.1301415,0.922752 0.04558,0.765058 -0.2460938,1.246094 -0.1458371,0.240518 -0.3941729,0.68768 -0.4335937,1.248047 -0.039421,0.560366 0.1095377,1.118946 0.3886719,1.742187 0.7340837,1.639036 2.3453267,2.537243 3.9550781,3.494141 1.6097507,0.956898 3.3094497,1.875517 4.1562497,2.599609 1.19201,1.019279 1.987412,1.228799 2.404297,1.507813 0.416885,0.279013 0.974057,0.832406 2.175781,3.019531 0.947891,1.725152 1.84454,5.930993 2.59375,10.283203 H 19.644532 C 18.011742,78.544768 16.329348,74.809972 14.191407,72.396484 12.41534,70.391518 10.907978,69.854792 9.8945328,69.693359 8.8810874,69.531926 8.7398043,69.73256 7.7304703,68.662109 6.9492482,67.833584 6.2533922,65.469208 5.4902359,62.988281 5.2077552,62.069971 4.8956777,61.121608 4.5000015,60.216797 Z m 56.8769525,2.697265 c 0.106468,-0.01004 0.619811,0.107492 1.314453,0.625 0.694643,0.517508 1.541073,1.358773 2.427735,2.427735 1.773324,2.137924 3.728162,5.177247 5.441406,8.427734 1.713244,3.250487 3.191799,6.72292 4.066406,9.716797 0.852011,2.916528 1.011707,5.399342 0.625,6.5 H 59.60547 c -2.630872,-4.672157 -4.49199,-7.927708 -2.94336,-17.646484 0.479949,-3.012025 1.411089,-5.621466 2.41211,-7.431641 0.50051,-0.905088 1.021383,-1.610015 1.464844,-2.050781 0.443461,-0.440767 0.798724,-0.564667 0.83789,-0.56836 z M 4.5000015,68.130859 c 0.3580308,0.833304 0.8034077,1.600535 1.4121094,2.246094 1.385227,1.469105 2.8099607,1.660928 3.5898437,1.785156 0.7798834,0.124229 1.2921234,0.169643 2.8183594,1.892579 C 13.916327,75.8564 15.403382,79.043589 16.916017,83 H 13.248048 C 12.112194,80.572898 10.819153,78.4311 9.2714859,77.054688 7.6161871,75.582549 5.9303349,75.031798 4.5000015,74.808594 Z m 0,9.19336 c 0.9747943,0.188869 1.9769688,0.590552 3.109375,1.597656 C 8.4944941,79.709052 9.4762642,81.207498 10.412111,83 H 4.5000015 Z M 95.500001,80.625 V 83 h -4.398437 c 1.578793,-0.629551 2.958376,-1.356447 3.648437,-1.785156 0.269582,-0.167481 0.494871,-0.361267 0.75,-0.589844 z"
     style="color:#000000;font-style:normal;font-variant:normal;font-weight:normal;font-stretch:normal;font-size:medium;line-height:normal;font-family:sans-serif;font-variant-ligatures:normal;font-variant-position:normal;font-variant-caps:normal;font-variant-numeric:normal;font-variant-alternates:normal;font-variant-east-asian:normal;font-feature-settings:normal;font-variation-settings:normal;text-indent:0;text-align:start;text-decoration:none;text-decoration-line:none;text-decoration-style:solid;text-decoration-color:#000000;letter-spacing:normal;word-spacing:normal;text-transform:none;writing-mode:lr-tb;direction:ltr;text-orientation:mixed;dominant-baseline:auto;baseline-shift:baseline;text-anchor:start;white-space:normal;shape-padding:0;shape-margin:0;inline-size:0;clip-rule:nonzero;display:inline;overflow:visible;visibility:visible;isolation:auto;mix-blend-mode:normal;color-interpolation:sRGB;color-interpolation-filters:linearRGB;solid-color:#000000;solid-opacity:1;vector-effect:none;fill:#000080;fill-opacity:1;fill-rule:nonzero;stroke:none;stroke-width:5;stroke-linecap:round;stroke-linejoin:round;stroke-miterlimit:4;stroke-dasharray:none;stroke-dashoffset:20;stroke-opacity:1;color-rendering:auto;image-rendering:auto;shape-rendering:auto;text-rendering:auto;enable-background:accumulate;stop-color:#000000"
     id="path1401" />
</svg>
