<?xml version="1.0" encoding="UTF-8" standalone="no"?>
<svg
   xmlns:dc="http://purl.org/dc/elements/1.1/"
   xmlns:cc="http://creativecommons.org/ns#"
   xmlns:rdf="http://www.w3.org/1999/02/22-rdf-syntax-ns#"
   xmlns:svg="http://www.w3.org/2000/svg"
   xmlns="http://www.w3.org/2000/svg"
   xmlns:sodipodi="http://sodipodi.sourceforge.net/DTD/sodipodi-0.dtd"
   xmlns:inkscape="http://www.inkscape.org/namespaces/inkscape"
   version="1.1"
   width="100"
   height="100"
   id="svg4460"
   sodipodi:docname="uEA52-copy-point.svg"
   inkscape:version="1.0 (4035a4fb49, 2020-05-01)">
  <sodipodi:namedview
     showguides="false"
     pagecolor="#ffffff"
     bordercolor="#666666"
     borderopacity="1"
     objecttolerance="10"
     gridtolerance="10"
     guidetolerance="10"
     inkscape:pageopacity="0"
     inkscape:pageshadow="2"
     inkscape:window-width="1920"
     inkscape:window-height="1017"
     id="namedview11"
     showgrid="false"
     inkscape:zoom="5.7134227"
     inkscape:cx="41.469103"
     inkscape:cy="55.721416"
     inkscape:window-x="-8"
     inkscape:window-y="-8"
     inkscape:window-maximized="1"
     inkscape:current-layer="svg4460"
     inkscape:document-rotation="0" />
  <defs
     id="defs4462" />
  <metadata
     id="metadata4465">
    <rdf:RDF>
      <cc:Work
         rdf:about="">
        <dc:format>image/svg+xml</dc:format>
        <dc:type
           rdf:resource="http://purl.org/dc/dcmitype/StillImage" />
        <dc:title />
      </cc:Work>
    </rdf:RDF>
  </metadata>
  <path
     id="path944"
     style="color:#000000;font-style:normal;font-variant:normal;font-weight:normal;font-stretch:normal;font-size:medium;line-height:normal;font-family:sans-serif;font-variant-ligatures:normal;font-variant-position:normal;font-variant-caps:normal;font-variant-numeric:normal;font-variant-alternates:normal;font-variant-east-asian:normal;font-feature-settings:normal;font-variation-settings:normal;text-indent:0;text-align:start;text-decoration:none;text-decoration-line:none;text-decoration-style:solid;text-decoration-color:#000000;letter-spacing:normal;word-spacing:normal;text-transform:none;writing-mode:lr-tb;direction:ltr;text-orientation:mixed;dominant-baseline:auto;baseline-shift:baseline;text-anchor:start;white-space:normal;shape-padding:0;shape-margin:0;inline-size:0;clip-rule:nonzero;display:inline;overflow:visible;visibility:visible;isolation:auto;mix-blend-mode:normal;color-interpolation:sRGB;color-interpolation-filters:linearRGB;solid-color:#000000;solid-opacity:1;vector-effect:none;fill:#000085;fill-opacity:1;fill-rule:nonzero;stroke:none;stroke-width:7;stroke-linecap:round;stroke-linejoin:round;stroke-miterlimit:4;stroke-dasharray:none;stroke-dashoffset:0;stroke-opacity:1;paint-order:normal;color-rendering:auto;image-rendering:auto;shape-rendering:auto;text-rendering:auto;enable-background:accumulate;stop-color:#000000"
     d="m 44,29.449219 c -6.889711,0 -12.550781,5.659117 -12.550781,12.548828 0,6.889712 5.66107,12.552734 12.550781,12.552734 6.654534,-10e-7 12.112224,-5.296754 12.480469,-11.865234 a 3.5,3.5 0 0 0 0.07031,-0.6875 3.5,3.5 0 0 0 -0.07031,-0.691406 C 56.109985,34.740228 50.65303,29.44922 44,29.449219 Z m 0,7 c 3.10663,0 5.550781,2.442198 5.550781,5.548828 0,3.10663 -2.444151,5.552733 -5.550781,5.552734 -3.10663,0 -5.550781,-2.446103 -5.550781,-5.552734 0,-3.10663 2.444151,-5.548828 5.550781,-5.548828 z m 24.96875,19.417969 c -0.920663,0.03934 -1.83675,0.194969 -2.726562,0.464843 l 1.160156,3.828125 c 1.487922,-0.451277 3.171827,-0.384452 4.615234,0.1875 a 2.0002,2.0002 0 0 0 0.0039,0.002 c 0.470711,0.18568 0.921689,0.423471 1.339844,0.705079 l 2.234375,-3.31836 c -0.660615,-0.444893 -1.368301,-0.815863 -2.107422,-1.107422 -1.152911,-0.456368 -2.371509,-0.711562 -3.597656,-0.761718 -0.306855,-0.01255 -0.614987,-0.01311 -0.921875,0 z m -6.941406,2.845703 c -1.060627,0.957523 -1.927954,2.116062 -2.548828,3.404297 0,0 0,0.002 0,0.002 0,0 -0.002,0.002 -0.002,0.002 -0.800561,1.6569 -1.166377,3.492268 -1.076171,5.322265 l 3.99414,-0.195312 c -0.05719,-1.160248 0.18282,-2.34926 0.685547,-3.388672 a 2.0002,2.0002 0 0 0 0,-0.0039 c 0.393506,-0.817299 0.95482,-1.565269 1.628906,-2.173828 z m 16.894531,2.529297 -3.427734,2.0625 c 0.613383,1.02011 0.961936,2.224189 0.990234,3.419921 l 0.002,0.212891 4,-0.05078 -0.0039,-0.234375 a 2.0002,2.0002 0 0 0 0,-0.02148 c -0.04483,-1.894373 -0.580735,-3.759158 -1.560547,-5.388671 z m -3.113281,8.6875 c -0.603005,1.279481 -1.630794,2.392277 -2.861328,3.097656 a 2.0002,2.0002 0 0 0 -0.002,0 c -0.56268,0.323373 -1.170521,0.570767 -1.792968,0.724609 l 0.958984,3.882813 c 0.993264,-0.245492 1.94401,-0.631129 2.824219,-1.136719 l 0.002,-0.002 c 1.951817,-1.119494 3.52899,-2.821719 4.490234,-4.861328 z m -12.59375,0.300781 -3.529297,1.880859 c 0.555269,1.042885 1.27546,1.986303 2.125,2.796875 0,0 0.002,0 0.002,0 0,0 0,0.002 0,0.002 1.508782,1.441891 3.410638,2.436783 5.46875,2.839844 l 0.767578,-3.925781 C 66.763467,73.572493 65.527196,72.92876 64.574219,72.017578 a 2.0002,2.0002 0 0 0 -0.002,-0.002 C 64.027928,71.496509 63.564995,70.88815 63.214797,70.230422 Z" />
</svg>
