<?xml version="1.0" encoding="UTF-8" standalone="no"?>
<svg
   xmlns:dc="http://purl.org/dc/elements/1.1/"
   xmlns:cc="http://creativecommons.org/ns#"
   xmlns:rdf="http://www.w3.org/1999/02/22-rdf-syntax-ns#"
   xmlns:svg="http://www.w3.org/2000/svg"
   xmlns="http://www.w3.org/2000/svg"
   xmlns:sodipodi="http://sodipodi.sourceforge.net/DTD/sodipodi-0.dtd"
   xmlns:inkscape="http://www.inkscape.org/namespaces/inkscape"
   version="1.1"
   width="100"
   height="100"
   id="svg4460"
   sodipodi:docname="earth-o.svg"
   inkscape:version="1.0 (4035a4fb49, 2020-05-01)">
  <sodipodi:namedview
     pagecolor="#ffffff"
     bordercolor="#666666"
     borderopacity="1"
     objecttolerance="10"
     gridtolerance="10"
     guidetolerance="10"
     inkscape:pageopacity="0"
     inkscape:pageshadow="2"
     inkscape:window-width="1920"
     inkscape:window-height="1017"
     id="namedview11"
     showgrid="false"
     inkscape:zoom="2.6905413"
     inkscape:cx="47.316509"
     inkscape:cy="81.590116"
     inkscape:window-x="-8"
     inkscape:window-y="-8"
     inkscape:window-maximized="1"
     inkscape:current-layer="svg4460"
     inkscape:document-rotation="0" />
  <defs
     id="defs4462" />
  <metadata
     id="metadata4465">
    <rdf:RDF>
      <cc:Work
         rdf:about="">
        <dc:format>image/svg+xml</dc:format>
        <dc:type
           rdf:resource="http://purl.org/dc/dcmitype/StillImage" />
        <dc:title></dc:title>
      </cc:Work>
    </rdf:RDF>
  </metadata>
  <path
     d="M 50 0 C 22.403544 -1.7069981e-07 -1.706998e-07 22.403544 0 50 C 7.32047e-15 77.596456 22.403544 100 50 100 C 77.546342 100 99.911024 77.675897 99.992188 50.148438 A 1.5 1.5 0 0 0 100 50 A 1.5 1.5 0 0 0 99.994141 49.867188 C 99.921533 22.332437 77.551636 0 50 0 z M 49.679688 3.0078125 C 50.612303 3.0936767 51.541733 3.2083079 52.462891 3.3867188 C 52.529691 5.5909796 53.021684 9.708805 48.714844 9.5625 C 45.170554 9.761351 41.808053 17.812422 39.814453 12.001953 C 40.046883 9.0216339 45.176249 3.0157958 38.980469 5.1992188 C 37.661029 7.1034057 38.004397 10.641957 35.560547 10.224609 C 34.692047 13.361269 32.247159 11.492135 31.761719 10.132812 C 30.587149 10.821053 32.633279 12.585031 31.318359 13.525391 C 35.120379 10.96899 31.631338 16.723301 33.804688 18.203125 C 31.728668 20.196912 35.44205 25.295934 31.0625 24.005859 C 27.02762 23.362657 34.199602 18.911209 29.257812 21.035156 C 26.151823 21.732654 26.318868 23.505552 28.642578 23.972656 C 26.556648 25.930718 23.897266 26.037613 22.660156 25.15625 C 19.491516 27.177366 16.468278 29.675965 13.861328 32.611328 C 10.030438 32.791795 10.893721 40.555722 9.0507812 39.765625 C 8.8487513 37.386725 9.6616669 33.545625 7.2167969 34.101562 C 6.6008816 33.898344 6.040005 34.168709 5.5527344 34.708984 C 11.860088 16.349459 29.200833 3.1449414 49.679688 3.0078125 z M 56.455078 3.4511719 C 57.10048 3.539708 57.740216 3.6433882 58.376953 3.7578125 C 59.225395 4.0837411 59.776609 4.5226102 58.494141 4.6816406 L 57.470703 4.3339844 C 56.608246 3.8392801 56.363 3.5698522 56.455078 3.4511719 z M 67.414062 6.3417969 C 84.754032 13.2567 97 30.180846 97 50 C 97 63.085556 91.65948 74.909951 83.042969 83.427734 C 84.026809 80.745219 84.543557 77.757598 86.380859 75.509766 C 87.553379 71.46487 83.411509 68.574638 85.787109 64.833984 C 83.725719 65.081559 80.075302 62.623309 77.794922 65.976562 C 75.188872 66.011483 72.664147 68.999291 70.242188 67.439453 C 67.024017 65.529153 63.332092 63.295093 62.419922 59.392578 C 62.811962 56.349961 61.877196 52.449921 62.166016 49.628906 C 63.605356 44.747845 67.483086 41.814505 68.285156 36.990234 C 68.616096 36.698996 71.427982 34.505313 71.544922 34.414062 C 74.966542 33.528979 79.620734 28.036416 81.664062 33.542969 C 82.361843 34.047911 87.021142 36.39568 86.601562 34.542969 C 86.715352 31.64804 94.435763 33.218418 90.470703 29.431641 C 90.060033 29.188914 88.496516 28.734431 87.460938 29.023438 C 87.034786 29.124523 85.201509 31.153754 83.636719 28.427734 C 81.228629 26.184547 83.507541 34.439111 80.275391 30.171875 C 83.599461 29.067203 76.053701 25.204819 77.832031 27.451172 C 80.440091 31.882448 75.577774 28.973023 76.458984 25.917969 C 72.252004 25.401891 74.293423 33.301478 70.345703 34.515625 C 70.372003 34.519825 70.401134 34.514378 70.427734 34.517578 L 69.740234 34.607422 L 68.677734 34.705078 C 67.704314 33.713131 64.866351 33.587858 65.707031 30.716797 C 63.917031 27.616062 65.692175 26.434663 68.859375 26.726562 C 72.054425 24.680983 62.213976 22.231521 68.535156 21.164062 C 65.768116 21.341739 64.611083 21.446683 64.251953 18.033203 C 64.693673 22.267643 59.22303 19.624719 62.15625 17.105469 C 63.27409 16.354129 59.586847 14.821566 62.685547 14.298828 C 64.758537 14.188808 68.84467 22.589938 69.59375 17.550781 C 71.00242 17.098717 68.278177 14.40328 68.929688 14.259766 C 65.259887 15.42864 64.189156 8.9874659 64.160156 6.5761719 C 65.375825 6.6237895 66.605801 6.5243777 67.414062 6.3417969 z M 33.378906 7.9667969 C 33.114636 7.9990029 32.622573 8.2325265 31.845703 8.7890625 C 30.873683 9.2065345 28.930668 11.776465 31.210938 9.875 C 32.921236 9.590542 34.171726 7.8701769 33.378906 7.9667969 z M 68.349609 9.2246094 C 67.873959 9.2623194 69.422573 10.508978 68.689453 9.2929688 C 68.526293 9.2382988 68.417509 9.2192094 68.349609 9.2246094 z M 28.095703 9.796875 C 27.690983 9.767552 27.093796 9.9481127 26.259766 10.4375 C 23.533246 10.669122 23.38995 16.665097 23.46875 16.304688 C 24.27592 15.7665 24.988713 14.120347 26.033203 14.216797 C 27.981433 14.014975 29.849453 9.923941 28.095703 9.796875 z M 53.333984 9.90625 C 55.300794 9.824066 58.386978 11.391616 54.117188 11.921875 C 53.424148 11.918375 52.663335 11.795816 52.140625 11.292969 C 51.775985 10.321202 52.439974 9.94361 53.333984 9.90625 z M 68.458984 10.6875 C 67.638944 10.612871 71.580416 13.388097 69.916016 11.289062 C 69.092416 10.873329 68.648224 10.70472 68.458984 10.6875 z M 60.236328 12.228516 C 60.471868 12.125295 60.904224 13.453124 60.121094 12.574219 C 60.137024 12.353418 60.182028 12.252336 60.236328 12.228516 z M 63.259766 12.955078 C 63.450396 13.007325 64.159219 14.472732 63.318359 13.515625 C 63.190059 13.076783 63.196266 12.937658 63.259766 12.955078 z M 71.820312 12.964844 C 71.407544 12.966597 71.439274 13.398986 72.683594 14.5 C 73.046864 16.164373 72.186442 16.966911 74.044922 15.464844 C 74.433102 14.158924 72.508253 12.961944 71.820312 12.964844 z M 17.621094 19.039062 C 17.032844 18.970062 17.552557 21.657349 18.216797 19.619141 C 17.951137 19.217702 17.756844 19.054983 17.621094 19.039062 z M 26.90625 20.220703 C 26.536 20.21615 26.880117 21.090563 27.529297 20.601562 C 27.231727 20.321801 27.02967 20.222203 26.90625 20.220703 z M 83.796875 20.580078 C 83.032765 20.668864 85.484153 25.800706 86.070312 23.462891 C 89.177543 22.985157 85.596234 20.338157 84.902344 21.478516 C 84.321074 20.808211 83.973205 20.559588 83.796875 20.580078 z M 17.693359 21.519531 C 17.237659 21.621102 16.963764 24.410594 17.896484 21.664062 C 17.826934 21.544861 17.758459 21.505021 17.693359 21.519531 z M 78.177734 24.341797 C 78.022086 24.389032 78.382341 24.789749 79.6875 25.763672 C 80.15471 25.623965 82.460725 27.772204 81.921875 26.566406 C 81.042345 25.692477 78.835551 24.43681 78.275391 24.34375 C 78.233379 24.336771 78.19997 24.335049 78.177734 24.341797 z M 16.542969 24.365234 C 16.048859 24.265871 15.084314 25.948132 16.771484 24.775391 C 16.745924 24.505679 16.656999 24.388164 16.542969 24.365234 z M 84.919922 26.599609 C 84.660692 26.710392 85.856725 28.405531 85.765625 27.183594 C 85.254185 26.701687 85.006322 26.562679 84.919922 26.599609 z M 74.646484 28.914062 C 75.268454 28.816753 74.8971 31.678494 73.6875 30.265625 C 74.12123 29.307703 74.439154 28.946503 74.646484 28.914062 z M 87.382812 29.921875 C 88.059803 29.833866 88.642899 31.755959 86.761719 30.859375 C 86.920159 30.204812 87.157144 29.951215 87.382812 29.921875 z M 50.84375 32.701172 C 51.57495 32.765959 51.439543 33.949122 49.845703 33.125 C 50.260133 32.782332 50.60002 32.679572 50.84375 32.701172 z M 53.048828 33.453125 C 53.346568 33.565472 52.760892 34.636245 52.414062 33.767578 C 52.750682 33.484715 52.949628 33.415675 53.048828 33.453125 z M 60.988281 38.53125 C 61.403711 38.431288 61.218356 39.920075 60.603516 38.904297 C 60.765626 38.661662 60.892381 38.55432 60.988281 38.53125 z M 10.822266 38.958984 C 11.096366 38.956005 11.705879 40.999545 10.730469 39.837891 C 10.675869 39.187231 10.730866 38.959977 10.822266 38.958984 z M 10.279297 40.609375 C 10.553917 40.655639 10.419831 43.273145 9.8691406 41.671875 C 10.051421 40.864528 10.187797 40.593955 10.279297 40.609375 z M 5.453125 41.414062 C 6.0176686 41.726617 4.4322881 45.865024 5.0332031 46.875 C 6.9658131 49.816007 3.7648138 55.069489 8.3398438 56.082031 C 9.9595937 52.942712 11.466332 55.791624 11.826172 55.412109 C 13.316222 55.149366 14.377081 58.828837 17.050781 58.332031 C 20.148531 58.006144 18.615927 64.095552 22.841797 64.769531 C 28.001787 66.264604 27.468001 73.180542 33.150391 74.039062 C 36.510151 76.006597 45.922939 76.867279 42.974609 82.271484 C 38.573459 84.08542 41.395404 92.103528 34.914062 90.537109 C 33.486866 90.948781 32.868186 92.387199 31.806641 93.351562 C 25.895914 90.870837 20.609219 87.211786 16.220703 82.675781 C 13.684408 78.780551 10.060455 75.647491 8.4101562 71.173828 C 4.9395764 66.737526 7.7595662 61.971778 7.0664062 57.345703 C 6.8624563 54.896545 6.2594263 58.80906 5.4414062 55.701172 C 4.2047906 53.165785 3.7757123 49.815656 3.109375 46.931641 C 3.2229865 45.166998 3.4375218 43.430666 3.7402344 41.724609 C 3.7937307 42.09165 3.8817274 42.405305 4.0117188 42.634766 C 4.8384513 41.631399 5.2649438 41.309878 5.453125 41.414062 z M 7.4863281 41.453125 C 7.7637181 41.481795 8.1530906 41.58439 8.6816406 41.777344 C 9.6706306 44.551001 12.363312 45.45336 11.601562 46.675781 C 13.543332 47.450564 16.372492 51.132099 11.794922 49.484375 C 8.7549119 48.258748 12.852542 47.160774 9.2578125 46.191406 C 9.1169725 44.680134 5.5446381 41.252432 7.4863281 41.453125 z M 64.189453 42.21875 C 64.643973 42.218629 65.001926 44.054983 63.660156 43.732422 C 63.755546 42.598176 63.982843 42.218805 64.189453 42.21875 z M 11.263672 43.035156 C 11.462846 43.086369 11.780545 43.634659 11.59375 44.298828 L 11.367188 44.148438 C 11.076226 43.437969 11.08284 43.112482 11.1875 43.044922 C 11.209305 43.030846 11.235218 43.02784 11.263672 43.035156 z M 60.769531 43.119141 C 62.062001 43.044807 64.361741 44.098596 61.394531 44.197266 L 60.396484 44.197266 L 60.220703 44.115234 C 59.802553 43.419539 60.182051 43.152931 60.769531 43.119141 z M 8.4804688 46.763672 C 9.0597186 46.885083 10.734427 48.74462 8.8105469 48.076172 C 8.1807469 47.012668 8.2171788 46.708482 8.4804688 46.763672 z M 15.076172 49.582031 C 15.797182 49.491438 16.767653 51.430364 14.564453 50.529297 C 14.622243 49.86765 14.835842 49.612231 15.076172 49.582031 z M 18.585938 53.226562 C 18.877718 53.341251 19.142248 57.75013 18.361328 55.666016 L 18.322266 54.941406 C 18.387886 53.625653 18.488637 53.188333 18.585938 53.226562 z M 53.662109 56.162109 C 54.210229 56.221514 55.949133 57.352444 54.101562 56.986328 C 53.410404 56.328798 53.412969 56.135109 53.662109 56.162109 z M 56.347656 56.777344 C 56.844816 56.769409 56.661031 58.282255 55.894531 57.078125 C 56.083171 56.862274 56.232926 56.779144 56.347656 56.777344 z M 55.902344 58.09375 C 56.664584 57.97041 56.063611 59.483665 55.144531 58.492188 C 55.478561 58.238627 55.726434 58.12221 55.902344 58.09375 z M 54.611328 58.287109 C 54.892488 58.316826 54.731901 59.67829 54.181641 58.832031 C 54.375791 58.414717 54.517628 58.277209 54.611328 58.287109 z M 83.832031 67.599609 C 84.113201 67.629327 83.952604 68.990794 83.402344 68.144531 C 83.596494 67.727217 83.738331 67.589709 83.832031 67.599609 z "
     style="color:#000000;overflow:visible;fill:#000080;stroke:none;stroke-width:3;stroke-linecap:round;stroke-linejoin:round;stroke-miterlimit:4;stroke-dasharray:none;stroke-dashoffset:188.976;stroke-opacity:1"
     id="path1091-0" />
</svg>
