<?xml version="1.0" encoding="UTF-8" standalone="no"?>
<svg
   xmlns:dc="http://purl.org/dc/elements/1.1/"
   xmlns:cc="http://creativecommons.org/ns#"
   xmlns:rdf="http://www.w3.org/1999/02/22-rdf-syntax-ns#"
   xmlns:svg="http://www.w3.org/2000/svg"
   xmlns="http://www.w3.org/2000/svg"
   xmlns:sodipodi="http://sodipodi.sourceforge.net/DTD/sodipodi-0.dtd"
   xmlns:inkscape="http://www.inkscape.org/namespaces/inkscape"
   version="1.1"
   width="100"
   height="100"
   id="svg4460"
   sodipodi:docname="uEA24-earth-atlantic.svg"
   inkscape:version="1.0 (4035a4fb49, 2020-05-01)">
  <sodipodi:namedview
     pagecolor="#ffffff"
     bordercolor="#666666"
     borderopacity="1"
     objecttolerance="10"
     gridtolerance="10"
     guidetolerance="10"
     inkscape:pageopacity="0"
     inkscape:pageshadow="2"
     inkscape:window-width="1920"
     inkscape:window-height="1017"
     id="namedview11"
     showgrid="false"
     inkscape:zoom="5.3810828"
     inkscape:cx="46.388022"
     inkscape:cy="60.199029"
     inkscape:window-x="-8"
     inkscape:window-y="-8"
     inkscape:window-maximized="1"
     inkscape:current-layer="svg4460"
     inkscape:document-rotation="0" />
  <defs
     id="defs4462" />
  <metadata
     id="metadata4465">
    <rdf:RDF>
      <cc:Work
         rdf:about="">
        <dc:format>image/svg+xml</dc:format>
        <dc:type
           rdf:resource="http://purl.org/dc/dcmitype/StillImage" />
        <dc:title />
      </cc:Work>
    </rdf:RDF>
  </metadata>
  <path
     d="M 50 0 C 22.403544 -1.7069981e-07 -1.706998e-07 22.403544 0 50 C 7.32047e-15 77.596456 22.403544 100 50 100 C 77.546342 100 99.911024 77.675897 99.992188 50.148438 A 1.5 1.5 0 0 0 100 50 A 1.5 1.5 0 0 0 99.994141 49.867188 C 99.921533 22.332437 77.551636 0 50 0 z M 50 3 C 55.065499 3 59.938049 3.8091174 64.507812 5.2890625 C 64.836381 5.617993 65.151601 5.9683305 65.445312 6.3535156 C 68.152242 5.2072931 68.784996 10.592007 66.066406 8.328125 C 62.751076 8.08163 62.540895 3.6323837 59.828125 5.7480469 C 61.255835 6.598658 57.957868 9.2189119 61.611328 8.9511719 C 62.912188 6.0106973 62.209037 11.126718 65.216797 9.921875 C 63.352607 10.498991 64.819641 11.404995 66.087891 11.78125 C 70.330241 14.575474 64.876483 13.011873 63.033203 13.898438 C 63.913883 16.36421 64.337434 18.987181 67.089844 19.669922 C 65.187864 21.436801 65.982526 24.867324 63.410156 26.035156 L 62.310547 27.050781 C 62.142468 28.730466 58.099391 32.730928 60.988281 32.78125 C 59.29464 33.219629 60.958834 35.324604 61.080078 36.84375 C 59.598238 39.671316 60.105082 44.165984 63.451172 45.326172 C 65.405832 48.231848 68.899389 52.442214 72.974609 50.847656 C 76.529729 52.695882 80.293663 45.972016 82.376953 50.462891 C 86.134733 50.296397 85.660677 53.434367 85.029297 56.445312 C 87.281607 59.727515 88.185611 64.629959 85.738281 68.148438 C 83.457691 73.046875 84.870347 78.836135 81.998047 83.580078 C 82.294215 83.634306 82.586589 83.625214 82.876953 83.585938 C 74.403417 91.881429 62.807012 97 50 97 C 41.184595 97 32.943228 94.572281 25.896484 90.357422 C 25.77544 89.209545 27.49544 88.235102 27.216797 87.25 C 28.238067 87.19159 31.486597 83.399347 30.773438 80.677734 C 33.997658 79.172591 38.197158 79.037887 37.648438 74.056641 C 36.247608 69.487269 42.256122 67.745354 41.507812 63.414062 C 39.821934 59.868105 34.860952 58.843464 31.294922 57.818359 C 29.081262 55.780383 25.42009 56.091445 24.71875 52.240234 C 24.26734 47.750958 18.102257 49.105084 16.841797 45.107422 C 17.533157 41.529123 16.643314 43.889987 14.464844 42.757812 C 13.674274 42.56334 14.165315 43.801372 12.015625 43.207031 C 12.711865 41.364863 10.690637 40.8377 10.404297 41.658203 C 8.5538368 40.888499 5.8239931 46.722569 4.7832031 42.9375 C 5.899405 40.186053 4.7170167 38.148639 5.0683594 36.166016 C 5.1743022 35.821066 5.2945918 35.482132 5.4082031 35.140625 C 6.0576393 34.094444 6.2509137 33.376599 6.1699219 33.019531 C 7.078903 30.672243 8.1702907 28.418377 9.4277344 26.271484 C 9.7167982 26.815447 9.415737 28.116936 8.8984375 29.693359 C 9.3259975 30.482807 11.548607 26.674027 9.6484375 30.955078 C 11.452068 28.374666 9.9425036 32.235186 10.996094 32.259766 C 12.285664 34.75101 7.2901 28.644927 6.71875 32.646484 C 8.87751 32.188755 7.8986015 35.459724 10.394531 34.839844 C 8.3131014 37.654384 13.277514 36.074188 14.914062 36.611328 C 17.141503 35.155452 12.685871 36.257104 12.806641 34.527344 C 10.091021 34.128236 12.335497 32.863562 12.054688 32.201172 C 10.617266 31.466966 12.381197 27.348832 10.466797 27.902344 C 11.637497 22.999074 16.478989 20.444619 19.667969 16.955078 C 22.779749 14.092545 24.992828 14.856108 28.611328 12.558594 C 27.003678 12.093802 27.152045 11.144031 29.359375 10.460938 C 33.502915 8.940747 28.262054 11.287333 29.990234 11.935547 C 34.078864 13.305709 32.304685 10.002695 33.765625 8.5605469 C 33.161835 8.0456143 33.674814 6.621965 33.542969 5.9628906 C 35.588142 5.1991715 37.703886 4.581277 39.873047 4.1054688 C 39.835721 5.0378663 40.583052 5.8629039 42.101562 5.1777344 C 43.667843 4.0974962 45.461518 3.5114791 47.287109 3.0820312 C 48.18549 3.0309727 49.08874 3 50 3 z M 73.541016 14.189453 C 73.63264 14.179711 73.718041 14.182885 73.796875 14.199219 C 75.163322 14.482338 74.719871 18.426708 76.759766 17.529297 C 74.559276 14.836636 76.118721 15.311956 78.244141 16.849609 C 81.607221 17.950879 76.962569 17.975711 79.230469 19.177734 C 81.720279 23.17016 79.74886 15.296316 82.375 18.867188 C 83.977086 21.51785 85.700488 20.871896 87.351562 21.46875 C 88.046552 22.377554 88.707536 23.314057 89.335938 24.273438 C 88.091013 24.133261 83.978912 21.319771 84.892578 23.822266 C 84.505228 24.550383 79.667359 21.813774 78.912109 20.080078 C 76.754109 16.627091 71.548421 20.407903 68.431641 19.679688 C 71.557781 19.911821 70.573986 15.288326 72.509766 14.693359 C 72.930468 14.371562 73.266142 14.21868 73.541016 14.189453 z M 59.03125 25.517578 C 56.66476 25.796979 59.448762 26.971017 61.351562 26.791016 L 61.333984 25.574219 C 60.635355 25.732514 59.851539 25.892717 59.03125 25.517578 z M 16.738281 35.994141 C 16.69313 35.981838 16.646513 35.994945 16.601562 36.035156 C 15.621302 36.671636 17.558195 40.787878 15.984375 42.738281 C 18.027553 41.921945 17.415545 36.178673 16.738281 35.994141 z M 3.6308594 42.339844 C 3.7995397 44.062428 4.0688642 45.896746 4.9414062 46.523438 C 6.3341863 44.291293 6.1392694 49.106746 5.6933594 50.667969 C 3.9682194 54.388884 4.7275938 58.966152 6.4648438 62.585938 C 7.5139737 66.677785 10.512626 69.663459 12.910156 72.929688 C 14.341014 76.76007 15.719478 80.788923 17.873047 84.302734 C 8.7221288 75.729536 3 63.541649 3 50 C 3 47.390111 3.2226513 44.833476 3.6308594 42.339844 z "
     style="fill:#000080;stroke-width:0.208996"
     id="path964" />
</svg>
