<?xml version="1.0" encoding="UTF-8" standalone="no"?>
<svg
   xmlns:dc="http://purl.org/dc/elements/1.1/"
   xmlns:cc="http://creativecommons.org/ns#"
   xmlns:rdf="http://www.w3.org/1999/02/22-rdf-syntax-ns#"
   xmlns:svg="http://www.w3.org/2000/svg"
   xmlns="http://www.w3.org/2000/svg"
   xmlns:sodipodi="http://sodipodi.sourceforge.net/DTD/sodipodi-0.dtd"
   xmlns:inkscape="http://www.inkscape.org/namespaces/inkscape"
   version="1.1"
   width="100"
   height="100"
   id="svg4460"
   sodipodi:docname="uEA25-earth-australia.svg"
   inkscape:version="1.0 (4035a4fb49, 2020-05-01)">
  <path
     id="path845"
     style="color:#000000;font-style:normal;font-variant:normal;font-weight:normal;font-stretch:normal;font-size:medium;line-height:normal;font-family:sans-serif;font-variant-ligatures:normal;font-variant-position:normal;font-variant-caps:normal;font-variant-numeric:normal;font-variant-alternates:normal;font-variant-east-asian:normal;font-feature-settings:normal;font-variation-settings:normal;text-indent:0;text-align:start;text-decoration:none;text-decoration-line:none;text-decoration-style:solid;text-decoration-color:#000000;letter-spacing:normal;word-spacing:normal;text-transform:none;writing-mode:lr-tb;direction:ltr;text-orientation:mixed;dominant-baseline:auto;baseline-shift:baseline;text-anchor:start;white-space:normal;shape-padding:0;shape-margin:0;inline-size:0;clip-rule:nonzero;display:inline;overflow:visible;visibility:visible;isolation:auto;mix-blend-mode:normal;color-interpolation:sRGB;color-interpolation-filters:linearRGB;solid-color:#000000;solid-opacity:1;vector-effect:none;fill:#000080;fill-opacity:1;fill-rule:nonzero;stroke:none;stroke-width:3;stroke-linecap:round;stroke-linejoin:round;stroke-miterlimit:4;stroke-dasharray:none;stroke-dashoffset:188.976;stroke-opacity:1;color-rendering:auto;image-rendering:auto;shape-rendering:auto;text-rendering:auto;enable-background:accumulate;stop-color:#000000;stop-opacity:1;opacity:1"
     d="M 50 0 C 22.403544 -1.7069981e-07 -1.706998e-07 22.403544 0 50 C 7.32047e-15 77.596456 22.403544 100 50 100 C 77.546342 100 99.911024 77.675897 99.992188 50.148438 A 1.5 1.5 0 0 0 100 50 A 1.5 1.5 0 0 0 99.994141 49.867188 C 99.921533 22.332437 77.551636 0 50 0 z M 51.349609 3.0332031 C 52.41809 3.0633538 53.479904 3.1205226 54.529297 3.2207031 C 54.592164 3.2545481 54.311218 3.2826465 53.142578 3.5839844 C 52.828689 3.3842005 52.138886 3.2034402 51.349609 3.0332031 z M 66.595703 7.6757812 C 67.345269 7.5461034 68.547508 8.2631344 67.833984 9.6503906 C 70.365626 12.110412 72.586891 16.278363 68.056641 18.095703 C 67.172599 18.477123 66.007348 18.167244 65.595703 17.246094 C 66.498391 17.343664 66.315388 16.810269 65.197266 15.386719 C 67.65799 15.892529 62.227604 10.291926 62.443359 11.779297 C 56.73965 10.327786 63.568498 7.7418681 66.246094 8.8613281 C 65.859648 8.1354481 66.145964 7.7535879 66.595703 7.6757812 z M 70.859375 7.875 C 73.465815 9.1669982 75.937966 10.688066 78.242188 12.421875 C 78.059298 12.679004 78.117965 12.864304 78.951172 12.978516 C 89.936644 21.578448 97 34.953346 97 50 C 97 69.202696 85.504129 85.689122 69.017578 92.986328 C 69.953511 92.169205 70.943383 91.154394 71.914062 90.744141 C 73.939714 88.758631 79.607013 84.783438 77.113281 82.298828 C 76.16797 80.342118 74.156483 78.930147 74.064453 76.560547 C 71.167617 75.609267 73.262479 68.856282 76.419922 72.392578 C 78.938529 75.237438 81.688802 69.730629 79.402344 70.568359 C 75.913949 70.711575 79.906055 68.006941 81.621094 67.082031 C 83.18046 63.779111 83.79834 72.17152 85.353516 68.621094 C 84.743453 69.503974 89.301677 71.867299 87.232422 68.195312 C 84.509506 68.236582 83.183011 64.593219 81.013672 64.449219 C 79.414028 62.248939 78.51208 64.623118 80.287109 65.267578 C 81.246438 67.583488 77.877579 66.719356 76.839844 67.978516 C 75.555341 65.876926 70.608853 65.21575 67.591797 65.21875 C 65.770585 64.52707 61.816252 63.905699 59.910156 64.443359 C 60.561991 66.404979 56.993754 68.995279 55.671875 66.099609 C 52.390644 65.982789 53.652573 64.69086 55.425781 63.28125 C 56.275628 59.57883 52.861258 65.047169 50.652344 62.699219 C 48.008645 64.205729 47.119791 67.774696 48.296875 69.660156 C 51.577203 73.360742 46.83574 72.796513 44.074219 72.470703 C 46.570051 71.206873 41.582724 71.507415 39.28125 70.255859 C 38.47172 72.173565 31.625749 67.972278 35.728516 67.892578 C 38.793359 66.716548 32.285148 66.216579 33.101562 63.943359 C 32.050119 60.689459 31.970351 57.686199 28.777344 55.162109 C 26.487409 52.647949 29.460731 47.764231 31.091797 52.431641 C 32.587794 54.563591 33.516427 55.866274 35.617188 53.458984 C 39.328883 52.356694 38.580471 47.299711 36.146484 45.306641 C 32.116348 43.605311 39.270859 39.423596 37.818359 42.347656 C 35.484571 46.119706 41.532682 44.428957 40.203125 41.373047 C 44.80023 40.822537 49.298764 38.285959 51.167969 33.855469 C 54.188394 30.365599 46.492727 26.666171 51.925781 25.056641 C 49.785725 23.420981 51.224624 23.820785 52.601562 23.046875 C 53.191702 23.341315 55.536123 26.133655 53.996094 27.265625 C 55.511031 29.472955 55.329141 28.685105 57.070312 27.453125 C 56.759511 29.439085 59.26667 29.620119 58.384766 32.318359 C 60.336847 30.849339 61.562495 28.089488 64.306641 27.992188 C 67.972472 28.383668 68.348297 23.446714 66.242188 20.646484 C 67.875007 20.819864 71.33234 17.265251 71.546875 14.337891 C 73.175464 12.216231 69.103433 8.8028212 70.882812 8.3632812 C 70.858779 8.172705 70.857338 8.0212207 70.859375 7.875 z M 63.205078 13.550781 C 63.555756 13.674054 65.284368 18.23181 65.078125 19.101562 C 63.680297 20.325183 66.262338 23.949852 64.107422 24.169922 C 62.886368 26.039772 60.487507 25.000424 58.927734 27.458984 C 58.90714 27.876784 57.955266 27.863184 58.238281 27.333984 C 58.956269 24.390934 54.635226 23.036586 57.730469 20.884766 C 60.025287 19.884646 63.218397 18.903281 63.435547 15.207031 C 63.12378 13.962018 63.088185 13.50969 63.205078 13.550781 z M 6.2714844 33.060547 C 6.3648331 33.052381 6.472232 33.160562 6.6015625 33.417969 C 10.649837 33.946449 7.1486563 36.597968 9.3320312 38.642578 C 8.8044562 42.929738 8.7396366 47.588409 9.9628906 51.855469 C 11.161291 51.847439 11.707469 51.227908 11.486328 54.142578 C 14.830638 56.140018 11.420177 49.223363 12.550781 47.695312 C 12.635735 43.799583 16.948605 42.355631 19.357422 39.775391 C 23.617465 38.062891 23.096179 44.070772 23.591797 46.326172 C 25.471137 45.936932 26.647419 45.902612 26.355469 48.794922 C 25.340528 51.640592 25.923644 55.247607 27.839844 57.623047 C 29.654409 63.114927 26.030476 56.213352 23.302734 56.513672 C 23.052776 58.573212 25.39634 61.118321 26.074219 63.087891 C 26.530708 67.081041 29.639557 66.445614 31.636719 69.339844 C 34.225826 72.48197 38.363139 73.000474 42.207031 73.433594 C 45.572225 73.340764 48.796631 75.662838 51.611328 75.205078 C 48.993653 74.673788 52.885444 73.070861 52.865234 74.269531 C 50.095441 78.138821 57.888587 73.168481 57.433594 72.869141 C 61.384194 73.269271 55.501532 70.995966 53.748047 72.509766 C 51.545562 74.381856 51.394405 70.239873 50.914062 72.724609 C 50.146098 71.869329 49.537854 67.436427 51.626953 70.783203 C 55.297101 72.233173 53.282702 68.445149 51.611328 66.787109 C 54.775598 66.715619 56.608374 69.979066 60.326172 68.472656 C 64.578033 70.741242 59.192024 66.265116 61.980469 66.566406 C 62.095398 70.610056 67.300055 67.382916 68.748047 70.826172 C 65.659668 73.299792 69.629002 71.769526 71.017578 73.003906 C 72.679036 73.052166 69.716118 80.865878 69.121094 78.892578 C 65.502297 79.163688 66.103944 78.037133 66.957031 75.314453 C 66.192543 75.177533 60.003751 74.157671 59.867188 76.238281 C 59.940421 79.619351 56.841082 77.192138 54.740234 78.304688 C 51.646217 80.432138 49.578792 83.879875 45.261719 83.578125 C 39.704275 84.815055 45.456162 89.403374 45.142578 92.115234 C 48.928509 94.010204 53.895965 91.251217 58.091797 90.929688 C 61.22636 90.913928 62.964249 92.843362 65.666016 92.976562 C 65.923372 93.53846 66.210305 93.855595 66.519531 94.011719 C 61.380517 95.939239 55.815744 97 50 97 C 24.024865 97 3 75.975135 3 50 C 3 46.227007 3.4569896 42.563668 4.2949219 39.048828 C 5.6479684 37.487073 5.703025 33.110275 6.2714844 33.060547 z M 50.96875 36.978516 C 49.879571 36.905635 47.981631 38.648825 49.576172 40.449219 C 51.528847 41.328129 50.737971 40.231999 51.125 39.449219 C 51.98432 37.718823 51.622257 37.022244 50.96875 36.978516 z M 50.664062 43.3125 C 49.890574 43.390214 49.116165 44.267562 49 46.142578 C 48.736539 48.955918 50.414831 50.958456 47.849609 53.041016 C 45.296501 55.616076 44.107002 59.915171 40.054688 60.863281 C 38.250376 64.610691 37.44782 59.354143 36.007812 59.101562 C 37.481195 61.316283 35.653914 65.112753 37.925781 66.470703 C 38.580181 69.169123 43.569514 68.418877 44.566406 69.341797 C 45.960291 70.129247 45.940345 64.514792 47.746094 64.326172 C 49.811758 63.134072 45.440537 60.828783 48.478516 59.876953 C 51.354917 60.037833 52.455541 54.610954 54.244141 58.714844 C 58.53112 59.391494 56.657026 52.195395 54.853516 50.390625 C 55.122464 48.454485 49.799341 48.400937 52.238281 46.560547 C 52.650162 44.43473 51.658547 43.212582 50.664062 43.3125 z M 50.148438 51.791016 C 50.545411 52.981536 50.210492 52.789082 51.402344 52.414062 C 51.421542 54.330422 51.997577 57.409075 49.490234 58.296875 L 49.253906 58.515625 L 48.505859 58.511719 C 43.881927 56.590379 49.41238 54.119696 50.148438 51.791016 z M 58.861328 61.931641 C 57.950914 61.838181 56.166351 63.799863 57.041016 66.089844 C 57.812835 67.712884 59.379366 65.835876 58.792969 64.691406 C 59.638934 62.783519 59.407577 61.987716 58.861328 61.931641 z " />
  <sodipodi:namedview
     pagecolor="#ffffff"
     bordercolor="#666666"
     borderopacity="1"
     objecttolerance="10"
     gridtolerance="10"
     guidetolerance="10"
     inkscape:pageopacity="0"
     inkscape:pageshadow="2"
     inkscape:window-width="1920"
     inkscape:window-height="1017"
     id="namedview11"
     showgrid="false"
     inkscape:zoom="5.3810826"
     inkscape:cx="55.165521"
     inkscape:cy="50.669997"
     inkscape:window-x="-8"
     inkscape:window-y="-8"
     inkscape:window-maximized="1"
     inkscape:current-layer="svg4460"
     inkscape:document-rotation="0" />
  <defs
     id="defs4462" />
  <metadata
     id="metadata4465">
    <rdf:RDF>
      <cc:Work
         rdf:about="">
        <dc:format>image/svg+xml</dc:format>
        <dc:type
           rdf:resource="http://purl.org/dc/dcmitype/StillImage" />
        <dc:title />
      </cc:Work>
    </rdf:RDF>
  </metadata>
</svg>
