<?xml version="1.0" encoding="UTF-8" standalone="no"?>
<svg
   xmlns:dc="http://purl.org/dc/elements/1.1/"
   xmlns:cc="http://creativecommons.org/ns#"
   xmlns:rdf="http://www.w3.org/1999/02/22-rdf-syntax-ns#"
   xmlns:svg="http://www.w3.org/2000/svg"
   xmlns="http://www.w3.org/2000/svg"
   xmlns:sodipodi="http://sodipodi.sourceforge.net/DTD/sodipodi-0.dtd"
   xmlns:inkscape="http://www.inkscape.org/namespaces/inkscape"
   version="1.1"
   width="100"
   height="100"
   id="svg4460"
   sodipodi:docname="uEA22-earth-america.svg"
   inkscape:version="1.0 (4035a4fb49, 2020-05-01)">
  <sodipodi:namedview
     pagecolor="#ffffff"
     bordercolor="#666666"
     borderopacity="1"
     objecttolerance="10"
     gridtolerance="10"
     guidetolerance="10"
     inkscape:pageopacity="0"
     inkscape:pageshadow="2"
     inkscape:window-width="1920"
     inkscape:window-height="1017"
     id="namedview11"
     showgrid="false"
     inkscape:zoom="2.6905413"
     inkscape:cx="-59.705599"
     inkscape:cy="37.320263"
     inkscape:window-x="-8"
     inkscape:window-y="-8"
     inkscape:window-maximized="1"
     inkscape:current-layer="svg4460"
     inkscape:document-rotation="0" />
  <defs
     id="defs4462" />
  <metadata
     id="metadata4465">
    <rdf:RDF>
      <cc:Work
         rdf:about="">
        <dc:format>image/svg+xml</dc:format>
        <dc:type
           rdf:resource="http://purl.org/dc/dcmitype/StillImage" />
        <dc:title />
      </cc:Work>
    </rdf:RDF>
  </metadata>
  <path
     d="M 50 0 C 22.403544 -1.7069981e-07 -1.706998e-07 22.403544 0 50 C 7.32047e-15 77.596456 22.403544 100 50 100 C 77.546342 100 99.911024 77.675897 99.992188 50.148438 A 1.5 1.5 0 0 0 100 50 A 1.5 1.5 0 0 0 99.994141 49.867188 C 99.921533 22.332437 77.551636 0 50 0 z M 51.400391 3.0351562 C 53.21608 3.0883212 55.007495 3.2371512 56.765625 3.4902344 C 57.905616 3.9518903 58.956243 4.5033392 59.580078 5.0371094 C 61.386268 6.4963372 70.070553 10.896522 65.789062 6.0214844 C 65.726202 5.8910038 65.69058 5.7872638 65.646484 5.6738281 C 83.917255 12.115374 97 29.513286 97 50 C 97 72.294211 81.506329 90.928262 60.693359 95.765625 C 61.934115 95.098584 63.363823 94.404388 64.208984 93.921875 C 68.504524 91.971428 72.507604 89.637879 76.083984 86.398438 C 78.577764 82.179722 84.103366 81.087976 86.003906 76.332031 C 87.195456 72.057146 91.047576 68.811027 91.166016 64.251953 C 89.119416 61.285281 82.806237 63.906951 81.654297 59.648438 C 81.225017 55.172923 76.449019 57.132566 74.349609 55.027344 C 71.205059 54.664198 73.134802 49.466082 70.544922 51.865234 C 67.356472 50.350915 68.145411 52.355607 64.738281 52.429688 C 65.160711 50.896569 62.478496 49.4592 61.916016 50.863281 C 61.583576 50.994529 56.201664 50.791359 55.683594 54.177734 C 53.658014 54.273094 50.633207 54.696921 48.654297 53.582031 C 46.888977 51.094183 50.510807 46.772885 45.404297 46.558594 C 41.774467 47.454748 43.594776 45.100047 44.228516 42.552734 C 45.810416 38.480179 39.579681 41.269887 38.837891 43.375 C 34.931921 45.564954 32.481348 39.386229 34.642578 36.470703 C 35.204918 30.489097 41.870843 34.169546 44.914062 32.03125 C 48.105183 31.976607 49.487727 35.790054 49.685547 37.935547 C 54.734367 37.115332 47.334869 30.396269 52.386719 28.892578 C 56.410939 27.865083 54.288939 24.177557 57.136719 21.984375 C 60.763719 22.212048 57.148242 19.142724 60.169922 18.863281 C 61.350702 19.762054 66.951104 18.669466 64.583984 16.298828 C 62.618024 18.093741 62.012498 14.974636 60.492188 14.640625 C 62.438769 14.669527 63.176953 15.549208 64.609375 13.568359 C 64.131035 16.175898 67.341517 17.23957 69.529297 16.599609 C 66.784167 12.99432 62.867073 10.801951 58.908203 8.3496094 C 58.055411 4.7301892 55.119245 3.9480225 51.400391 3.0351562 z M 50.951172 4.7324219 C 51.61024 4.698907 52.350096 4.8400062 52.716797 5.1992188 C 49.595957 6.7987595 51.085713 6.9614925 51.533203 9.6640625 C 52.948303 8.9700855 51.552669 11.540434 51.724609 10.527344 C 52.681259 9.093052 49.448003 9.6890067 50.695312 11.974609 C 49.267572 10.267768 45.571654 10.442621 43.833984 8.75 C 43.897764 5.2872055 49.507765 8.4839498 50.421875 6.1679688 C 48.97745 5.3317238 49.852724 4.78828 50.951172 4.7324219 z M 25.828125 9.6816406 C 24.968203 10.999107 23.1799 12.914463 24.300781 12.509766 C 24.402901 13.28317 22.790108 17.875297 20.804688 19.425781 C 19.027368 21.644855 18.18445 26.96889 20 28.193359 C 20.14352 30.846027 20.497416 33.955556 21.197266 36.335938 C 23.632056 41.579331 23.862979 35.290489 22.349609 32.955078 C 24.019459 35.194994 26.088276 39.489342 26.322266 42.964844 C 28.733036 44.961543 31.750511 47.358484 35.056641 47.205078 C 37.707981 48.469419 41.510203 50.416128 44.251953 52.220703 C 45.174103 54.93124 48.322827 56.6081 50.904297 57.404297 C 52.166407 54.305306 54.465409 58.039435 54.105469 60.375 C 52.942749 62.561372 49.320026 65.008735 50.416016 67.636719 C 48.097626 70.345184 52.274662 72.503003 53.226562 75.373047 C 54.732532 77.514434 55.6885 80.398769 58.84375 80.953125 C 63.10296 83.970527 58.258433 89.356022 56.658203 92.835938 C 56.240843 94.120455 54.052503 95.603232 53.587891 96.849609 C 52.402295 96.939033 51.208651 97 50 97 C 24.024865 97 3 75.975135 3 50 C 2.9999999 32.868418 12.14859 17.894908 25.828125 9.6816406 z M 53.435547 35.033203 C 53.066882 35.016424 52.686962 35.173641 52.298828 35.583984 C 54.857118 35.429336 51.128313 38.991036 54.095703 38.916016 C 55.279913 35.270753 54.854279 39.762828 57.105469 40.308594 C 58.541189 41.728101 57.452869 38.161912 57.355469 38.46875 C 56.418965 38.433251 55.033093 35.105912 53.435547 35.033203 z M 49.707031 38.589844 C 48.975801 38.567686 48.235739 38.739629 47.494141 39.214844 C 44.719801 40.800448 47.213449 40.72613 48.193359 41.498047 C 49.951289 40.01061 51.377787 41.464985 53.492188 42.216797 C 53.513988 45.157979 58.243375 41.250831 58.234375 43.496094 C 55.636135 44.48842 58.754446 45.346555 60.097656 45.193359 C 60.657806 46.168087 60.995714 44.81309 61.621094 44.90625 C 63.695604 45.139508 65.555419 43.778826 62.162109 42.675781 C 59.398319 43.092123 59.165624 41.415133 58.271484 40.736328 C 55.891794 42.410194 52.875695 38.685862 49.707031 38.589844 z M 68.814453 43.867188 C 68.729233 43.900404 68.675109 44.044439 68.666016 44.365234 C 69.799486 46.086909 71.739511 48.35959 70.556641 50.859375 C 72.835131 50.607676 71.110094 45.954485 70.464844 44.253906 C 70.129777 45.656247 69.18374 43.723251 68.814453 43.867188 z "
     style="fill:#000080;stroke-width:0.208996"
     id="path980" />
</svg>
