<?xml version="1.0" encoding="UTF-8" standalone="no"?>
<svg
   xmlns:dc="http://purl.org/dc/elements/1.1/"
   xmlns:cc="http://creativecommons.org/ns#"
   xmlns:rdf="http://www.w3.org/1999/02/22-rdf-syntax-ns#"
   xmlns:svg="http://www.w3.org/2000/svg"
   xmlns="http://www.w3.org/2000/svg"
   xmlns:sodipodi="http://sodipodi.sourceforge.net/DTD/sodipodi-0.dtd"
   xmlns:inkscape="http://www.inkscape.org/namespaces/inkscape"
   inkscape:version="1.0 (4035a4fb49, 2020-05-01)"
   sodipodi:docname="uEA22-earth.svg"
   id="svg4460"
   height="100"
   width="100"
   version="1.1">
  <sodipodi:namedview
     inkscape:document-rotation="0"
     inkscape:current-layer="svg4460"
     inkscape:window-maximized="1"
     inkscape:window-y="-8"
     inkscape:window-x="-8"
     inkscape:cy="83.331876"
     inkscape:cx="-24.749037"
     inkscape:zoom="2.6905413"
     showgrid="false"
     id="namedview11"
     inkscape:window-height="1017"
     inkscape:window-width="1920"
     inkscape:pageshadow="2"
     inkscape:pageopacity="0"
     guidetolerance="10"
     gridtolerance="10"
     objecttolerance="10"
     borderopacity="1"
     bordercolor="#666666"
     pagecolor="#ffffff" />
  <defs
     id="defs4462" />
  <metadata
     id="metadata4465">
    <rdf:RDF>
      <cc:Work
         rdf:about="">
        <dc:format>image/svg+xml</dc:format>
        <dc:type
           rdf:resource="http://purl.org/dc/dcmitype/StillImage" />
        <dc:title />
      </cc:Work>
    </rdf:RDF>
  </metadata>
  <path
     id="path919"
     style="color:#000000;font-style:normal;font-variant:normal;font-weight:normal;font-stretch:normal;font-size:medium;line-height:normal;font-family:sans-serif;font-variant-ligatures:normal;font-variant-position:normal;font-variant-caps:normal;font-variant-numeric:normal;font-variant-alternates:normal;font-variant-east-asian:normal;font-feature-settings:normal;font-variation-settings:normal;text-indent:0;text-align:start;text-decoration:none;text-decoration-line:none;text-decoration-style:solid;text-decoration-color:#000000;letter-spacing:normal;word-spacing:normal;text-transform:none;writing-mode:lr-tb;direction:ltr;text-orientation:mixed;dominant-baseline:auto;baseline-shift:baseline;text-anchor:start;white-space:normal;shape-padding:0;shape-margin:0;inline-size:0;clip-rule:nonzero;display:inline;overflow:visible;visibility:visible;isolation:auto;mix-blend-mode:normal;color-interpolation:sRGB;color-interpolation-filters:linearRGB;solid-color:#000000;solid-opacity:1;vector-effect:none;fill:#000080;fill-opacity:1;fill-rule:nonzero;stroke:none;stroke-width:3;stroke-linecap:round;stroke-linejoin:round;stroke-miterlimit:4;stroke-dasharray:none;stroke-dashoffset:188.976;stroke-opacity:1;color-rendering:auto;image-rendering:auto;shape-rendering:auto;text-rendering:auto;enable-background:accumulate;stop-color:#000000;stop-opacity:1;opacity:1"
     d="M 50 0 C 22.403544 -1.7069981e-07 -1.706998e-07 22.403544 0 50 C 7.32047e-15 77.596456 22.403544 100 50 100 C 77.546342 100 99.911024 77.675897 99.992188 50.148438 A 1.5 1.5 0 0 0 100 50 A 1.5 1.5 0 0 0 99.994141 49.867188 C 99.921533 22.332437 77.551636 0 50 0 z M 50 3 C 52.191312 3 54.343879 3.1615579 56.455078 3.4511719 C 56.36572 3.5705052 56.611283 3.8410222 57.470703 4.3339844 L 58.494141 4.6816406 C 59.77309 4.5230467 59.229184 4.0854292 58.384766 3.7597656 C 61.513654 4.3225933 64.533857 5.1932169 67.414062 6.3417969 C 66.605801 6.5243774 65.375824 6.6237894 64.160156 6.5761719 C 64.189156 8.9874659 65.259887 15.42864 68.929688 14.259766 C 68.278177 14.40328 71.00242 17.098717 69.59375 17.550781 C 68.84467 22.589938 64.758537 14.188808 62.685547 14.298828 C 59.586847 14.821566 63.27409 16.354129 62.15625 17.105469 C 59.22303 19.624719 64.693673 22.267643 64.251953 18.033203 C 64.611083 21.446683 65.768116 21.341739 68.535156 21.164062 C 62.213976 22.23152 72.054425 24.680983 68.859375 26.726562 C 65.692175 26.434663 63.917031 27.616062 65.707031 30.716797 C 64.866351 33.587858 67.704314 33.713131 68.677734 34.705078 L 69.740234 34.607422 L 70.427734 34.517578 C 70.401134 34.514378 70.372003 34.519825 70.345703 34.515625 C 74.293423 33.301478 72.252004 25.401891 76.458984 25.917969 C 75.577774 28.973023 80.440091 31.882448 77.832031 27.451172 C 76.053701 25.204819 83.599461 29.067203 80.275391 30.171875 C 83.507541 34.439111 81.228629 26.184547 83.636719 28.427734 C 85.201509 31.153754 87.034787 29.124523 87.460938 29.023438 C 88.496517 28.734431 90.060033 29.188914 90.470703 29.431641 C 94.435763 33.218418 86.715352 31.64804 86.601562 34.542969 C 87.021142 36.39568 82.361843 34.047911 81.664062 33.542969 C 79.620733 28.036416 74.966542 33.528979 71.544922 34.414062 C 71.427982 34.505313 68.616096 36.698996 68.285156 36.990234 C 67.483086 41.814505 63.605356 44.747845 62.166016 49.628906 C 61.877196 52.449921 62.811962 56.349961 62.419922 59.392578 C 63.332092 63.295093 67.024018 65.529153 70.242188 67.439453 C 72.664147 68.999291 75.188872 66.011483 77.794922 65.976562 C 80.075302 62.623308 83.725719 65.081559 85.787109 64.833984 C 83.411509 68.574638 87.553379 71.46487 86.380859 75.509766 C 84.543557 77.757598 84.02681 80.745219 83.042969 83.427734 C 74.555504 91.81795 62.889579 97 50 97 C 43.547784 97 37.401596 95.699759 31.806641 93.351562 C 32.868189 92.387199 33.486865 90.948781 34.914062 90.537109 C 41.395403 92.103528 38.573459 84.08542 42.974609 82.271484 C 45.922939 76.867279 36.510151 76.006597 33.150391 74.039062 C 27.468001 73.180541 28.001787 66.264604 22.841797 64.769531 C 18.615927 64.095552 20.148531 58.006144 17.050781 58.332031 C 14.377081 58.828837 13.316222 55.149366 11.826172 55.412109 C 11.466332 55.791624 9.9595938 52.942712 8.3398438 56.082031 C 3.7648138 55.069489 6.9658131 49.816007 5.0332031 46.875 C 4.2319831 45.528365 7.3186488 38.621299 4.0117188 42.634766 C 3.8817275 42.405305 3.7937306 42.09165 3.7402344 41.724609 C 4.167354 39.317406 4.7745436 36.974152 5.5527344 34.708984 C 6.0403404 34.167606 6.6002653 33.89814 7.2167969 34.101562 C 9.6616669 33.545625 8.8487512 37.386725 9.0507812 39.765625 C 10.893721 40.555722 10.030438 32.791795 13.861328 32.611328 C 16.468278 29.675965 19.491516 27.177366 22.660156 25.15625 C 23.897266 26.037613 26.556648 25.930718 28.642578 23.972656 C 26.318868 23.505552 26.151823 21.732654 29.257812 21.035156 C 34.199602 18.911209 27.02762 23.362657 31.0625 24.005859 C 35.44205 25.295934 31.728668 20.196912 33.804688 18.203125 C 31.631338 16.723301 35.120379 10.96899 31.318359 13.525391 C 32.633279 12.585031 30.587149 10.821053 31.761719 10.132812 C 32.247159 11.492135 34.692047 13.361269 35.560547 10.224609 C 38.004397 10.641957 37.661029 7.1034057 38.980469 5.1992188 C 45.176249 3.0157958 40.046883 9.0216338 39.814453 12.001953 C 41.808053 17.812422 45.170554 9.761351 48.714844 9.5625 C 53.021684 9.708805 52.529691 5.5909797 52.462891 3.3867188 C 51.531977 3.2064183 50.593133 3.0928088 49.650391 3.0078125 C 49.76745 3.006957 49.882737 3 50 3 z M 33.378906 7.9667969 C 34.171726 7.8701769 32.921237 9.590542 31.210938 9.875 C 28.930668 11.776465 30.873683 9.2065345 31.845703 8.7890625 C 32.622573 8.2325265 33.114636 7.9990029 33.378906 7.9667969 z M 68.349609 9.2246094 C 68.417509 9.2192094 68.526293 9.2382988 68.689453 9.2929688 C 69.422573 10.508978 67.873959 9.2623194 68.349609 9.2246094 z M 28.095703 9.796875 C 29.849453 9.923941 27.981433 14.014975 26.033203 14.216797 C 24.988713 14.120347 24.27592 15.7665 23.46875 16.304688 C 23.38995 16.665098 23.533246 10.669122 26.259766 10.4375 C 27.093796 9.9481127 27.690983 9.767552 28.095703 9.796875 z M 53.333984 9.90625 C 52.439974 9.94361 51.775985 10.321202 52.140625 11.292969 C 52.663335 11.795816 53.424148 11.918375 54.117188 11.921875 C 58.386978 11.391616 55.300794 9.824066 53.333984 9.90625 z M 68.458984 10.6875 C 68.648224 10.70472 69.092416 10.873328 69.916016 11.289062 C 71.580416 13.388096 67.638944 10.612871 68.458984 10.6875 z M 60.236328 12.228516 C 60.182028 12.252336 60.137024 12.353418 60.121094 12.574219 C 60.904224 13.453124 60.471868 12.125295 60.236328 12.228516 z M 63.259766 12.955078 C 63.196266 12.937658 63.190059 13.076783 63.318359 13.515625 C 64.159219 14.472732 63.450396 13.007325 63.259766 12.955078 z M 71.820312 12.964844 C 72.508252 12.961944 74.433102 14.158924 74.044922 15.464844 C 72.186442 16.966911 73.046864 16.164373 72.683594 14.5 C 71.439274 13.398986 71.407543 12.966597 71.820312 12.964844 z M 17.621094 19.039062 C 17.756844 19.054983 17.951137 19.217702 18.216797 19.619141 C 17.552557 21.657349 17.032844 18.970062 17.621094 19.039062 z M 26.90625 20.220703 C 27.02967 20.222203 27.231727 20.321801 27.529297 20.601562 C 26.880117 21.090563 26.536 20.21615 26.90625 20.220703 z M 83.796875 20.580078 C 83.973205 20.559588 84.321074 20.808211 84.902344 21.478516 C 85.596234 20.338157 89.177543 22.985157 86.070312 23.462891 C 85.484152 25.800706 83.032765 20.668864 83.796875 20.580078 z M 17.693359 21.519531 C 17.758459 21.505021 17.826934 21.544861 17.896484 21.664062 C 16.963764 24.410594 17.237659 21.621102 17.693359 21.519531 z M 78.177734 24.341797 C 78.19997 24.335049 78.233379 24.336771 78.275391 24.34375 C 78.835551 24.43681 81.042345 25.692477 81.921875 26.566406 C 82.460725 27.772204 80.15471 25.623965 79.6875 25.763672 C 78.382341 24.789749 78.022086 24.389032 78.177734 24.341797 z M 16.542969 24.365234 C 16.656999 24.388164 16.745924 24.505679 16.771484 24.775391 C 15.084314 25.948132 16.048859 24.265871 16.542969 24.365234 z M 84.919922 26.599609 C 85.006322 26.562679 85.254185 26.701687 85.765625 27.183594 C 85.856725 28.405531 84.660692 26.710392 84.919922 26.599609 z M 74.646484 28.914062 C 74.439154 28.946503 74.12123 29.307703 73.6875 30.265625 C 74.8971 31.678494 75.268454 28.816753 74.646484 28.914062 z M 87.382812 29.921875 C 87.157143 29.951215 86.920159 30.204812 86.761719 30.859375 C 88.642899 31.755959 88.059802 29.833866 87.382812 29.921875 z M 50.84375 32.701172 C 50.60002 32.679572 50.260133 32.782332 49.845703 33.125 C 51.439543 33.949122 51.57495 32.765959 50.84375 32.701172 z M 53.048828 33.453125 C 52.949628 33.415675 52.750682 33.484715 52.414062 33.767578 C 52.760892 34.636245 53.346568 33.565472 53.048828 33.453125 z M 60.988281 38.53125 C 60.892381 38.55432 60.765626 38.661662 60.603516 38.904297 C 61.218356 39.920075 61.403711 38.431288 60.988281 38.53125 z M 10.822266 38.958984 C 10.730866 38.959977 10.675869 39.187231 10.730469 39.837891 C 11.705879 40.999545 11.096366 38.956005 10.822266 38.958984 z M 10.279297 40.609375 C 10.187797 40.593955 10.051421 40.864528 9.8691406 41.671875 C 10.419831 43.273145 10.553917 40.655639 10.279297 40.609375 z M 7.4863281 41.453125 C 5.5446381 41.252432 9.1169725 44.680134 9.2578125 46.191406 C 12.852542 47.160774 8.754912 48.258748 11.794922 49.484375 C 16.372492 51.132099 13.543332 47.450564 11.601562 46.675781 C 12.363312 45.45336 9.6706306 44.551001 8.6816406 41.777344 C 8.1530906 41.58439 7.7637181 41.481795 7.4863281 41.453125 z M 64.189453 42.21875 C 63.982843 42.218805 63.755546 42.598176 63.660156 43.732422 C 65.001926 44.054983 64.643973 42.218629 64.189453 42.21875 z M 11.263672 43.035156 C 11.235218 43.02784 11.209305 43.030846 11.1875 43.044922 C 11.08284 43.112482 11.076227 43.437969 11.367188 44.148438 L 11.59375 44.298828 C 11.780545 43.634659 11.462846 43.086369 11.263672 43.035156 z M 60.769531 43.119141 C 60.182051 43.152931 59.802553 43.419539 60.220703 44.115234 L 60.396484 44.197266 L 61.394531 44.197266 C 64.361741 44.098596 62.062001 43.044807 60.769531 43.119141 z M 8.4804688 46.763672 C 8.2171788 46.708482 8.1807469 47.012668 8.8105469 48.076172 C 10.734427 48.74462 9.0597187 46.885083 8.4804688 46.763672 z M 3.1113281 46.914062 C 3.7780506 49.802656 4.2030822 53.162282 5.4414062 55.701172 C 6.2594262 58.80906 6.8624563 54.896545 7.0664062 57.345703 C 7.7595662 61.971778 4.9395763 66.737526 8.4101562 71.173828 C 10.060455 75.647491 13.684409 78.780551 16.220703 82.675781 C 8.0399692 74.22011 3 62.70655 3 50 C 3 48.961947 3.0451978 47.935278 3.1113281 46.914062 z M 15.076172 49.582031 C 14.835842 49.612231 14.622243 49.86765 14.564453 50.529297 C 16.767653 51.430364 15.797182 49.491438 15.076172 49.582031 z M 18.585938 53.226562 C 18.488637 53.188333 18.387886 53.625653 18.322266 54.941406 L 18.361328 55.666016 C 19.142248 57.75013 18.877718 53.34125 18.585938 53.226562 z M 53.662109 56.162109 C 53.412969 56.135109 53.410403 56.328798 54.101562 56.986328 C 55.949132 57.352444 54.210229 56.221514 53.662109 56.162109 z M 56.347656 56.777344 C 56.232926 56.779144 56.083171 56.862274 55.894531 57.078125 C 56.661031 58.282255 56.844816 56.769409 56.347656 56.777344 z M 55.902344 58.09375 C 55.726434 58.12221 55.478561 58.238628 55.144531 58.492188 C 56.063611 59.483665 56.664584 57.97041 55.902344 58.09375 z M 54.611328 58.287109 C 54.517628 58.277209 54.375791 58.414717 54.181641 58.832031 C 54.731901 59.67829 54.892488 58.316826 54.611328 58.287109 z M 83.832031 67.599609 C 83.738331 67.589709 83.596494 67.727217 83.402344 68.144531 C 83.952604 68.990794 84.113201 67.629327 83.832031 67.599609 z " />
</svg>
