<?xml version="1.0" encoding="UTF-8" standalone="no"?>
<svg
   xmlns:dc="http://purl.org/dc/elements/1.1/"
   xmlns:cc="http://creativecommons.org/ns#"
   xmlns:rdf="http://www.w3.org/1999/02/22-rdf-syntax-ns#"
   xmlns:svg="http://www.w3.org/2000/svg"
   xmlns="http://www.w3.org/2000/svg"
   xmlns:sodipodi="http://sodipodi.sourceforge.net/DTD/sodipodi-0.dtd"
   xmlns:inkscape="http://www.inkscape.org/namespaces/inkscape"
   version="1.1"
   width="100"
   height="100"
   id="svg4460"
   sodipodi:docname="earth-atlantic-o.svg"
   inkscape:version="1.0 (4035a4fb49, 2020-05-01)">
  <sodipodi:namedview
     pagecolor="#ffffff"
     bordercolor="#666666"
     borderopacity="1"
     objecttolerance="10"
     gridtolerance="10"
     guidetolerance="10"
     inkscape:pageopacity="0"
     inkscape:pageshadow="2"
     inkscape:window-width="1920"
     inkscape:window-height="1017"
     id="namedview11"
     showgrid="false"
     inkscape:zoom="3.8050001"
     inkscape:cx="-20.599855"
     inkscape:cy="88.288127"
     inkscape:window-x="-8"
     inkscape:window-y="-8"
     inkscape:window-maximized="1"
     inkscape:current-layer="svg4460"
     inkscape:document-rotation="0" />
  <defs
     id="defs4462" />
  <metadata
     id="metadata4465">
    <rdf:RDF>
      <cc:Work
         rdf:about="">
        <dc:format>image/svg+xml</dc:format>
        <dc:type
           rdf:resource="http://purl.org/dc/dcmitype/StillImage" />
        <dc:title />
      </cc:Work>
    </rdf:RDF>
  </metadata>
  <path
     id="path1091-2"
     style="color:#000000;overflow:visible;fill:#000080;stroke:none;stroke-width:3;stroke-linecap:round;stroke-linejoin:round;stroke-miterlimit:4;stroke-dasharray:none;stroke-dashoffset:188.976;stroke-opacity:1"
     d="M 50 0 C 22.403544 -1.7069981e-07 -1.706998e-07 22.403544 0 50 C 7.32047e-15 77.596456 22.403544 100 50 100 C 77.546342 100 99.911024 77.675897 99.992188 50.148438 A 1.5 1.5 0 0 0 100 50 A 1.5 1.5 0 0 0 99.994141 49.867188 C 99.921533 22.332437 77.551636 0 50 0 z M 47.287109 3.0820312 C 45.461518 3.5114791 43.667844 4.0974962 42.101562 5.1777344 C 40.583052 5.8629039 39.835721 5.0378663 39.873047 4.1054688 C 42.281174 3.5772429 44.755687 3.225902 47.287109 3.0820312 z M 61.126953 5.1796875 C 62.728753 5.1533847 63.372701 8.1278478 66.066406 8.328125 C 68.784996 10.592007 68.152242 5.2072931 65.445312 6.3535156 C 65.148915 5.9648074 64.828571 5.6153724 64.496094 5.2851562 C 73.678673 8.2562995 81.617548 13.970665 87.351562 21.46875 C 85.700488 20.871896 83.977086 21.51785 82.375 18.867188 C 79.74886 15.296316 81.720279 23.17016 79.230469 19.177734 C 76.962569 17.975711 81.607221 17.950879 78.244141 16.849609 C 76.118721 15.311956 74.559276 14.836636 76.759766 17.529297 C 74.719871 18.426708 75.163322 14.482338 73.796875 14.199219 C 73.718041 14.182885 73.63264 14.179711 73.541016 14.189453 C 73.266142 14.21868 72.930468 14.371562 72.509766 14.693359 C 70.573986 15.288326 71.557781 19.91182 68.431641 19.679688 C 71.548421 20.407903 76.754109 16.627091 78.912109 20.080078 C 79.667359 21.813774 84.505228 24.550383 84.892578 23.822266 C 83.978912 21.319771 88.091013 24.133261 89.335938 24.273438 C 94.176875 31.664092 97 40.497131 97 50 C 97 63.168123 91.589411 75.056544 82.876953 83.585938 C 82.586589 83.625214 82.294215 83.634306 81.998047 83.580078 C 84.870347 78.836135 83.457691 73.046874 85.738281 68.148438 C 88.185611 64.629959 87.281607 59.727515 85.029297 56.445312 C 85.660677 53.434368 86.134733 50.296397 82.376953 50.462891 C 80.293663 45.972016 76.529729 52.695882 72.974609 50.847656 C 68.899389 52.442214 65.405832 48.231848 63.451172 45.326172 C 60.105082 44.165984 59.598238 39.671316 61.080078 36.84375 C 60.958834 35.324604 59.29464 33.219629 60.988281 32.78125 C 58.099391 32.730928 62.142468 28.730466 62.310547 27.050781 L 63.410156 26.035156 C 65.982526 24.867324 65.187864 21.436801 67.089844 19.669922 C 64.337434 18.987181 63.913883 16.36421 63.033203 13.898438 C 64.876483 13.011872 70.330241 14.575474 66.087891 11.78125 C 64.819641 11.404995 63.352607 10.498991 65.216797 9.921875 C 62.209037 11.126718 62.912188 6.0106973 61.611328 8.9511719 C 57.957868 9.2189119 61.255835 6.598658 59.828125 5.7480469 C 60.336769 5.35136 60.757307 5.1857574 61.126953 5.1796875 z M 33.542969 5.9628906 C 33.674814 6.621965 33.161835 8.0456143 33.765625 8.5605469 C 32.304685 10.002695 34.078864 13.305709 29.990234 11.935547 C 28.262054 11.287333 33.502915 8.9407465 29.359375 10.460938 C 27.152045 11.14403 27.003678 12.093802 28.611328 12.558594 C 24.992828 14.856108 22.779749 14.092545 19.667969 16.955078 C 16.478989 20.444619 11.637497 22.999074 10.466797 27.902344 C 12.381197 27.348832 10.617266 31.466966 12.054688 32.201172 C 12.335496 32.863562 10.091021 34.128236 12.806641 34.527344 C 12.685871 36.257104 17.141504 35.155452 14.914062 36.611328 C 13.277515 36.074188 8.3131017 37.654384 10.394531 34.839844 C 7.8986017 35.459724 8.87751 32.188755 6.71875 32.646484 C 7.2901 28.644927 12.285664 34.75101 10.996094 32.259766 C 9.9425034 32.235186 11.452068 28.374666 9.6484375 30.955078 C 11.548607 26.674027 9.3259975 30.482807 8.8984375 29.693359 C 9.415737 28.116936 9.7167982 26.815447 9.4277344 26.271484 C 14.854435 17.006225 23.354407 9.7675557 33.542969 5.9628906 z M 59.03125 25.517578 C 59.851539 25.892717 60.635355 25.732514 61.333984 25.574219 L 61.351562 26.791016 C 59.448763 26.971017 56.66476 25.796979 59.03125 25.517578 z M 6.1699219 33.019531 C 6.2509137 33.376599 6.0576393 34.094444 5.4082031 35.140625 C 5.6459303 34.426036 5.8993001 33.718366 6.1699219 33.019531 z M 16.738281 35.994141 C 17.415545 36.178673 18.027553 41.921945 15.984375 42.738281 C 17.558195 40.787878 15.621302 36.671636 16.601562 36.035156 C 16.646513 35.994945 16.69313 35.981838 16.738281 35.994141 z M 5.0683594 36.166016 C 4.7170167 38.148639 5.899405 40.186053 4.7832031 42.9375 C 5.8239931 46.722569 8.5538367 40.888499 10.404297 41.658203 C 10.690637 40.8377 12.711865 41.364863 12.015625 43.207031 C 14.165315 43.801372 13.674274 42.56334 14.464844 42.757812 C 16.643314 43.889987 17.533157 41.529123 16.841797 45.107422 C 18.102257 49.105084 24.26734 47.750958 24.71875 52.240234 C 25.42009 56.091445 29.081262 55.780383 31.294922 57.818359 C 34.860952 58.843464 39.821934 59.868106 41.507812 63.414062 C 42.256122 67.745355 36.247608 69.487269 37.648438 74.056641 C 38.197158 79.037887 33.997658 79.172591 30.773438 80.677734 C 31.486597 83.399347 28.238067 87.19159 27.216797 87.25 C 27.49544 88.235102 25.77544 89.209545 25.896484 90.357422 C 23.004309 88.62753 20.318005 86.593336 17.873047 84.302734 C 15.719478 80.788923 14.341014 76.760069 12.910156 72.929688 C 10.512626 69.663459 7.5139736 66.677785 6.4648438 62.585938 C 4.7275938 58.966152 3.9682194 54.388884 5.6933594 50.667969 C 6.1392694 49.106746 6.3341864 44.291293 4.9414062 46.523438 C 4.0691311 45.896938 3.7982235 44.065548 3.6289062 42.345703 C 3.974059 40.23553 4.4524512 38.171409 5.0683594 36.166016 z " />
</svg>
