<?xml version="1.0" encoding="UTF-8" standalone="no"?>
<svg
   xmlns:dc="http://purl.org/dc/elements/1.1/"
   xmlns:cc="http://creativecommons.org/ns#"
   xmlns:rdf="http://www.w3.org/1999/02/22-rdf-syntax-ns#"
   xmlns:svg="http://www.w3.org/2000/svg"
   xmlns="http://www.w3.org/2000/svg"
   xmlns:sodipodi="http://sodipodi.sourceforge.net/DTD/sodipodi-0.dtd"
   xmlns:inkscape="http://www.inkscape.org/namespaces/inkscape"
   version="1.1"
   width="100"
   height="100"
   id="svg4460"
   sodipodi:docname="uEA29-earth-south.svg"
   inkscape:version="1.0 (4035a4fb49, 2020-05-01)">
  <sodipodi:namedview
     pagecolor="#ffffff"
     bordercolor="#666666"
     borderopacity="1"
     objecttolerance="10"
     gridtolerance="10"
     guidetolerance="10"
     inkscape:pageopacity="0"
     inkscape:pageshadow="2"
     inkscape:window-width="1920"
     inkscape:window-height="1017"
     id="namedview11"
     showgrid="false"
     inkscape:zoom="3.805"
     inkscape:cx="108.93549"
     inkscape:cy="61.707366"
     inkscape:window-x="-8"
     inkscape:window-y="-8"
     inkscape:window-maximized="1"
     inkscape:current-layer="svg4460"
     inkscape:document-rotation="0" />
  <defs
     id="defs4462" />
  <metadata
     id="metadata4465">
    <rdf:RDF>
      <cc:Work
         rdf:about="">
        <dc:format>image/svg+xml</dc:format>
        <dc:type
           rdf:resource="http://purl.org/dc/dcmitype/StillImage" />
        <dc:title />
      </cc:Work>
    </rdf:RDF>
  </metadata>
  <path
     id="path1060"
     style="fill:#000080;stroke-width:0.208996"
     d="M 50 0 C 22.403544 -1.7069981e-07 -1.706998e-07 22.403544 0 50 C 7.32047e-15 77.596456 22.403544 100 50 100 C 77.546342 100 99.911024 77.675897 99.992188 50.148438 A 1.5 1.5 0 0 0 100 50 A 1.5 1.5 0 0 0 99.994141 49.867188 C 99.921533 22.332437 77.551636 0 50 0 z M 50 3 C 67.193508 3 82.210485 12.216696 90.404297 25.978516 C 90.398352 26.043003 90.40041 26.104889 90.392578 26.169922 C 89.876011 30.128097 92.727833 33.811726 95.177734 37.037109 C 96.355851 41.155835 97 45.500677 97 50 C 97 69.553326 85.084439 86.296677 68.113281 93.382812 C 67.835466 93.10271 67.585353 92.735209 67.373047 92.261719 C 62.785897 93.376959 58.454572 96.340544 53.507812 96.121094 C 50.522883 95.936364 46.634328 93.221006 44.455078 93.722656 C 42.871078 92.997824 37.744569 93.604571 36.998047 95.166016 C 17.358974 89.5299 3 71.461535 3 50 C 2.9999999 32.323198 12.742546 16.947412 27.150391 8.921875 C 27.195508 10.789698 26.762548 13.109291 27.779297 14.998047 C 27.875177 18.761867 33.02026 21.197536 36.125 18.910156 C 40.17862 16.009436 33.585669 19.044139 33.818359 15.699219 C 36.011419 13.624449 32.27107 13.227598 34.21875 12.111328 C 34.46086 9.0221783 38.148831 8.1414856 39.144531 6.0410156 C 40.916417 5.2806306 42.683566 4.2302368 44.519531 3.328125 C 46.318372 3.1194803 48.144799 3 50 3 z M 42.408203 21.927734 C 42.112246 21.873207 40.725813 22.796134 40.285156 23.544922 C 41.340446 25.560312 37.497894 27.968427 40.240234 29.654297 C 38.285825 29.231789 37.00993 33.389431 39.443359 33.589844 C 38.847497 33.897117 38.500139 36.408171 36.947266 36.501953 C 33.815696 36.654453 31.106106 42.465264 35.285156 41.527344 C 34.420696 43.250384 31.003024 46.510241 32.052734 48.650391 C 33.071374 52.147661 35.360444 55.939779 38.958984 57.105469 C 38.613844 60.190839 45.198935 62.254021 42.328125 63.994141 C 41.620075 65.536291 36.370769 66.247762 40.255859 69.076172 C 42.534729 72.498412 46.168106 74.282634 49.972656 75.458984 C 49.838116 75.092514 51.251689 75.988416 51.130859 75.566406 C 54.257529 75.142686 56.97888 73.372731 60.5 73.550781 C 62.30871 70.838961 65.090794 72.652719 66.871094 70.105469 C 66.854574 67.532179 71.710203 65.530259 69.908203 61.699219 C 71.019093 59.234609 74.588143 56.17048 75.501953 52.71875 C 75.630233 49.86568 71.857551 47.873576 72.431641 44.972656 C 69.989101 42.777666 70.004659 39.011836 67.537109 36.910156 C 65.509219 33.503856 62.172263 31.940182 58.408203 32.476562 C 54.341273 31.871253 52.539137 38.829607 48.029297 35.404297 C 44.581537 34.610257 44.652501 31.968541 43.306641 29.119141 C 43.018081 26.633231 40.730636 24.925792 43.603516 23.888672 C 45.598936 20.819162 41.060419 24.167998 41.324219 23.330078 C 42.371699 22.346262 42.585778 21.960451 42.408203 21.927734 z M 21.503906 83.099609 C 19.922801 83.182208 21.932361 85.334746 22.884766 87.048828 C 24.935956 88.605668 22.044082 85.270754 23.826172 85.458984 C 22.908772 83.296804 30.047213 87.968473 30.189453 85.070312 C 29.523743 82.818162 25.289789 84.605017 23.230469 83.404297 C 22.426088 83.17211 21.868777 83.080548 21.503906 83.099609 z M 42.494141 91.212891 C 41.802013 91.133411 41.223359 91.507222 41.332031 92.857422 C 41.705211 93.475602 42.184406 93.0161 42.566406 92.75 C 46.085073 93.756658 44.01682 91.387746 42.494141 91.212891 z " />
</svg>
