<?xml version="1.0" encoding="UTF-8" standalone="no"?>
<svg
   xmlns:dc="http://purl.org/dc/elements/1.1/"
   xmlns:cc="http://creativecommons.org/ns#"
   xmlns:rdf="http://www.w3.org/1999/02/22-rdf-syntax-ns#"
   xmlns:svg="http://www.w3.org/2000/svg"
   xmlns="http://www.w3.org/2000/svg"
   xmlns:sodipodi="http://sodipodi.sourceforge.net/DTD/sodipodi-0.dtd"
   xmlns:inkscape="http://www.inkscape.org/namespaces/inkscape"
   inkscape:version="1.0 (4035a4fb49, 2020-05-01)"
   sodipodi:docname="uEA26-earth-euro-africa.svg"
   id="svg4460"
   height="100"
   width="100"
   version="1.1">
  <sodipodi:namedview
     inkscape:document-rotation="0"
     inkscape:current-layer="svg4460"
     inkscape:window-maximized="1"
     inkscape:window-y="-8"
     inkscape:window-x="-8"
     inkscape:cy="54.139615"
     inkscape:cx="75.165445"
     inkscape:zoom="5.3810826"
     showgrid="false"
     id="namedview11"
     inkscape:window-height="1017"
     inkscape:window-width="1920"
     inkscape:pageshadow="2"
     inkscape:pageopacity="0"
     guidetolerance="10"
     gridtolerance="10"
     objecttolerance="10"
     borderopacity="1"
     bordercolor="#666666"
     pagecolor="#ffffff" />
  <defs
     id="defs4462" />
  <metadata
     id="metadata4465">
    <rdf:RDF>
      <cc:Work
         rdf:about="">
        <dc:format>image/svg+xml</dc:format>
        <dc:type
           rdf:resource="http://purl.org/dc/dcmitype/StillImage" />
        <dc:title />
      </cc:Work>
    </rdf:RDF>
  </metadata>
  <path
     id="path948"
     style="fill:#000080;stroke-width:0.208996"
     d="M 50 0 C 22.403544 -1.7069981e-07 -1.706998e-07 22.403544 0 50 C 7.32047e-15 77.596456 22.403544 100 50 100 C 77.546342 100 99.911024 77.675897 99.992188 50.148438 A 1.5 1.5 0 0 0 100 50 A 1.5 1.5 0 0 0 99.994141 49.867188 C 99.921533 22.332437 77.551636 0 50 0 z M 50 3 C 52.775623 3 55.489851 3.2543162 58.132812 3.7148438 C 58.771221 5.1105444 62.236397 5.4105585 58.5625 5.1660156 C 57.147128 7.1858375 51.544316 3.0432784 47.8125 5.2128906 C 46.694418 6.7891661 39.612958 8.4846455 42.273438 11.041016 C 46.060212 10.35351 41.856415 10.974036 41.96875 12.853516 C 40.033133 13.52311 37.282986 16.723126 37.322266 13.449219 C 36.841495 11.051097 39.483627 8.8422243 35.207031 10.638672 C 34.971729 11.944756 28.533478 14.458203 31.753906 15.037109 C 35.140812 13.336615 30.401073 17.735276 34.34375 16 C 31.653038 17.219854 33.694786 18.550995 32.458984 21.240234 C 28.10633 19.205038 26.100493 23.061745 25.189453 26.759766 C 26.22103 26.856866 26.571248 27.39609 26.470703 28.039062 C 26.993057 28.091472 27.730404 28.163285 28.064453 28.193359 C 30.24728 28.02629 32.25684 26.595471 33.298828 24.509766 C 35.781743 22.616765 37.814461 21.529568 40.822266 21.671875 C 39.378837 21.427094 37.45394 27.75361 40.378906 25.359375 C 39.120786 19.993627 45.958689 25.877296 44.460938 25.910156 C 41.947941 26.281817 41.140843 26.925816 43.304688 28.740234 C 44.811718 29.887182 45.737915 24.34813 47.580078 25.3125 C 47.334796 24.258178 43.026852 20.863616 43.664062 21.041016 C 43.811113 21.081956 44.221323 21.314627 45.005859 21.808594 C 48.551501 22.925402 47.971049 27.499567 51.191406 29.107422 C 53.430384 32.020305 56.896845 27.417951 59.345703 28.814453 C 59.430213 30.73604 61.597672 30.540714 61.513672 28.482422 C 63.958745 30.354445 61.253812 34.96862 57.859375 33.123047 C 54.635382 34.980836 50.026121 28.710192 48.074219 33.466797 C 47.203767 35.711309 44.225058 31.730491 42.992188 31.644531 C 38.686934 32.122011 42.819901 27.437356 39.837891 26.935547 C 35.994853 26.902497 32.041402 28.515539 28.339844 28.275391 C 26.327047 28.89357 25.064435 29.719824 23.861328 30.462891 C 22.705639 32.187146 20.436383 33.417272 18.101562 36.716797 C 17.673013 37.37704 16.929227 38.195049 16.042969 39.1875 C 14.830663 43.309873 13.346485 47.436743 13.580078 51.726562 C 16.223316 54.51536 16.843033 61.248682 22.035156 60.714844 C 25.464988 62.487326 28.063462 59.426527 31.279297 60.455078 C 31.872204 63.796366 38.144266 62.40491 36.453125 65.75 C 34.687507 69.745788 39.84595 71.673384 40.689453 75.310547 C 42.891033 78.945792 37.366963 82.736445 41.802734 85.865234 C 44.259487 89.935761 47.104775 96.118202 52.982422 93.712891 C 57.555693 93.41985 60.353366 89.562707 63.208984 86.931641 C 62.949991 82.106041 71.6676 82.632026 69.716797 76.496094 C 68.5665 75.772193 69.788637 72.871287 69.15625 71.84375 C 69.810742 70.499337 72.11452 66.668354 74.34375 64.792969 C 77.761306 62.142523 79.194118 57.996926 80.322266 53.986328 C 79.623733 50.612581 78.03144 53.913568 76.003906 53.771484 C 70.608374 55.772424 76.130652 51.451718 78.162109 50.220703 C 81.028128 48.532313 83.815757 45.651031 84.447266 42.580078 C 87.102585 39.710855 78.034262 36.923407 83.732422 37.861328 C 87.335261 37.157585 89.183278 36.729715 90.105469 40.179688 C 93.634983 41.575581 93.353887 47.97277 95.341797 51.457031 C 96.371298 50.187003 95.959659 51.173902 96.398438 52.701172 C 97.547472 49.403663 95.125231 44.091419 95.878906 39.804688 C 96.604386 43.088502 97 46.496649 97 50 C 97 75.975135 75.975135 97 50 97 C 24.024865 97 3 75.975135 3 50 C 2.9999998 29.806481 15.709104 12.610273 33.570312 5.953125 C 35.303553 5.4565668 37.040003 4.9660472 38.738281 4.3652344 C 42.346917 3.4789436 46.116311 3 50 3 z M 60.292969 4.1425781 C 60.79182 4.253908 61.292448 4.3612512 61.785156 4.4882812 C 61.671386 5.2428487 61.036584 4.7750312 60.292969 4.1425781 z M 35.167969 6.21875 C 34.019566 6.240486 32.710836 6.6661921 33.050781 7.7304688 C 33.681261 7.9624732 34.335795 7.7905839 34.953125 7.6386719 C 37.854763 6.8312057 36.644486 6.1908036 35.167969 6.21875 z M 49.28125 9.9765625 C 50.808624 9.7516044 49.36556 14.159879 47 13.023438 C 43.12205 13.424437 47.584043 12.778123 47.724609 10.998047 C 48.41876 10.327424 48.928779 10.028476 49.28125 9.9765625 z M 70.771484 18.705078 C 71.061417 18.739568 71.149093 19.092516 70.748047 19.933594 C 70.421377 21.012122 75.677461 24.502909 75.351562 26.726562 C 70.683916 27.952265 73.601123 23.401014 70.5625 22.474609 C 67.224992 21.370309 69.901687 18.601623 70.771484 18.705078 z M 57.232422 19.578125 C 58.965528 21.901351 61.671381 20.079328 64.199219 21.964844 C 67.291304 25.085429 59.324988 21.55527 57.941406 23.353516 C 53.809674 24.624981 55.83803 20.844563 57.232422 19.578125 z M 16.835938 33.753906 C 16.542067 33.710196 16.300508 33.914873 16.087891 34.744141 C 16.798835 34.781101 17.328443 34.861131 17.708984 34.982422 L 17.941406 34.263672 C 17.497646 34.104035 17.138446 33.798903 16.835938 33.753906 z M 75.214844 34.261719 C 75.894139 36.621047 81.180348 36.246893 79.900391 38.457031 L 79.296875 38.882812 C 78.264975 38.208343 73.97248 35.363819 75.214844 34.261719 z M 62.677734 37.291016 C 65.115803 38.953571 66.863063 42.360521 68.421875 45.03125 C 70.563982 46.554668 70.632244 49.004435 72.021484 50.929688 C 71.454335 51.649971 70.344482 50.33732 70.117188 49.869141 C 68.259648 48.570991 66.726124 45.26947 65.414062 42.632812 C 64.589316 40.805462 62.575651 39.138193 62.677734 37.291016 z M 77.263672 76.195312 C 77.042069 76.180472 76.70426 76.440362 76.226562 77.09375 C 72.784133 79.630714 70.051354 82.649787 69.847656 87.003906 C 72.231578 88.087554 74.253239 83.719411 75.535156 82.193359 C 77.003534 81.482586 78.223951 76.259631 77.263672 76.195312 z " />
</svg>
