<?xml version="1.0" encoding="UTF-8" standalone="no"?>
<svg
   xmlns:dc="http://purl.org/dc/elements/1.1/"
   xmlns:cc="http://creativecommons.org/ns#"
   xmlns:rdf="http://www.w3.org/1999/02/22-rdf-syntax-ns#"
   xmlns:svg="http://www.w3.org/2000/svg"
   xmlns="http://www.w3.org/2000/svg"
   xmlns:sodipodi="http://sodipodi.sourceforge.net/DTD/sodipodi-0.dtd"
   xmlns:inkscape="http://www.inkscape.org/namespaces/inkscape"
   inkscape:version="1.0 (4035a4fb49, 2020-05-01)"
   sodipodi:docname="earth-pacific-o.svg"
   id="svg4460"
   height="100"
   width="100"
   version="1.1">
  <sodipodi:namedview
     inkscape:document-rotation="0"
     inkscape:current-layer="svg4460"
     inkscape:window-maximized="1"
     inkscape:window-y="-8"
     inkscape:window-x="-8"
     inkscape:cy="54.877544"
     inkscape:cx="85.530515"
     inkscape:zoom="3.805"
     showgrid="false"
     id="namedview11"
     inkscape:window-height="1017"
     inkscape:window-width="1920"
     inkscape:pageshadow="2"
     inkscape:pageopacity="0"
     guidetolerance="10"
     gridtolerance="10"
     objecttolerance="10"
     borderopacity="1"
     bordercolor="#666666"
     pagecolor="#ffffff" />
  <defs
     id="defs4462" />
  <metadata
     id="metadata4465">
    <rdf:RDF>
      <cc:Work
         rdf:about="">
        <dc:format>image/svg+xml</dc:format>
        <dc:type
           rdf:resource="http://purl.org/dc/dcmitype/StillImage" />
        <dc:title />
      </cc:Work>
    </rdf:RDF>
  </metadata>
  <path
     id="path1091-2"
     style="color:#000000;overflow:visible;fill:#000080;stroke:none;stroke-width:3;stroke-linecap:round;stroke-linejoin:round;stroke-miterlimit:4;stroke-dasharray:none;stroke-dashoffset:188.976;stroke-opacity:1"
     d="M 50 0 C 22.403544 -1.7069981e-07 -1.706998e-07 22.403544 0 50 C 7.32047e-15 77.596456 22.403544 100 50 100 C 77.546342 100 99.911024 77.675897 99.992188 50.148438 A 1.5 1.5 0 0 0 100 50 A 1.5 1.5 0 0 0 99.994141 49.867188 C 99.921533 22.332437 77.551636 0 50 0 z M 50 3 C 67.417486 3 82.597333 12.461105 90.716797 26.521484 C 90.004137 28.159564 92.19367 33.069566 94.054688 34.757812 L 94.242188 34.755859 L 94.373047 34.587891 L 94.373047 34.585938 C 94.377652 34.566138 94.380353 34.54529 94.384766 34.525391 C 94.914362 36.046361 95.364998 37.603593 95.738281 39.191406 C 93.453777 36.925107 89.573777 36.427495 88.652344 32.541016 C 88.462264 32.129396 84.53673 27.094247 83.5 26.75 C 84.83179 28.006504 88.454476 33.729495 84.572266 29.986328 C 82.080196 27.273223 79.94986 23.655393 76.6875 21.701172 C 73.3784 19.10132 70.283387 15.944815 68.617188 12.033203 C 65.697716 9.046129 62.561811 8.7411136 59.550781 6.5898438 C 55.912241 4.018674 51.163079 5.1865206 47.636719 6.0742188 C 45.495089 6.8885445 38.965336 8.5803539 39.166016 7.8417969 C 41.559846 7.0713579 49.887172 5.3075829 43.351562 5 C 42.249549 5.2673291 43.799137 3.6759789 43.861328 3.4121094 C 45.871659 3.1501771 47.917768 3 50 3 z M 43.714844 3.4296875 C 43.581907 3.4962607 43.372675 3.6285275 42.947266 3.9414062 C 42.220165 3.8485744 41.494277 3.8593591 40.769531 3.9101562 C 41.740265 3.7171205 42.72348 3.5620136 43.714844 3.4296875 z M 43.873047 31.943359 C 44.038472 31.945981 44.412859 32.051503 45.085938 32.291016 C 46.627218 32.135193 49.219986 35.400053 46.103516 35.169922 C 46.355033 33.852001 43.156206 31.931997 43.873047 31.943359 z M 3.4628906 54.328125 C 4.4849006 53.963611 5.873595 60.438262 8.765625 61.546875 C 10.486355 63.606612 9.7473625 65.648442 8.0078125 62.615234 C 7.1923025 62.237703 5.4364706 58.854317 4.9316406 57.773438 C 2.5880306 59.315188 5.3459536 61.759736 6.4648438 63.988281 C 5.9919028 64.083118 5.3341645 63.380541 4.7207031 62.605469 C 4.1942726 60.708005 3.7786993 58.765525 3.4921875 56.779297 C 4.025291 57.169116 4.2574003 56.633141 3.4628906 54.328125 z M 22.101562 70.929688 C 23.356841 70.813686 23.216842 73.38509 23.214844 73.921875 C 22.532634 73.841875 20.677884 73.999615 20.990234 71.498047 C 21.447397 71.127076 21.811883 70.956457 22.101562 70.929688 z M 23.332031 85.445312 C 24.203251 85.322615 30.425551 88.282342 27.613281 90.652344 C 27.570926 90.715997 27.501494 90.96431 27.392578 91.216797 C 26.692255 90.832148 26.004143 90.428493 25.326172 90.009766 C 25.17048 88.520869 26.090821 86.636631 23.332031 85.445312 z " />
</svg>
