<?xml version="1.0" encoding="UTF-8" standalone="no"?>
<svg
   xmlns:dc="http://purl.org/dc/elements/1.1/"
   xmlns:cc="http://creativecommons.org/ns#"
   xmlns:rdf="http://www.w3.org/1999/02/22-rdf-syntax-ns#"
   xmlns:svg="http://www.w3.org/2000/svg"
   xmlns="http://www.w3.org/2000/svg"
   xmlns:sodipodi="http://sodipodi.sourceforge.net/DTD/sodipodi-0.dtd"
   xmlns:inkscape="http://www.inkscape.org/namespaces/inkscape"
   inkscape:version="1.0 (4035a4fb49, 2020-05-01)"
   sodipodi:docname="-earth-south.-o.svg"
   id="svg4460"
   height="100"
   width="100"
   version="1.1">
  <sodipodi:namedview
     inkscape:document-rotation="0"
     inkscape:current-layer="svg4460"
     inkscape:window-maximized="1"
     inkscape:window-y="-8"
     inkscape:window-x="-8"
     inkscape:cy="61.707366"
     inkscape:cx="108.93549"
     inkscape:zoom="3.805"
     showgrid="false"
     id="namedview11"
     inkscape:window-height="1017"
     inkscape:window-width="1920"
     inkscape:pageshadow="2"
     inkscape:pageopacity="0"
     guidetolerance="10"
     gridtolerance="10"
     objecttolerance="10"
     borderopacity="1"
     bordercolor="#666666"
     pagecolor="#ffffff" />
  <defs
     id="defs4462" />
  <metadata
     id="metadata4465">
    <rdf:RDF>
      <cc:Work
         rdf:about="">
        <dc:format>image/svg+xml</dc:format>
        <dc:type
           rdf:resource="http://purl.org/dc/dcmitype/StillImage" />
        <dc:title></dc:title>
      </cc:Work>
    </rdf:RDF>
  </metadata>
  <path
     d="M 50 0 C 22.403544 -1.7069981e-07 -1.706998e-07 22.403544 0 50 C 7.32047e-15 77.596456 22.403544 100 50 100 C 77.546342 100 99.911024 77.675897 99.992188 50.148438 A 1.5 1.5 0 0 0 100 50 A 1.5 1.5 0 0 0 99.994141 49.867188 C 99.921533 22.332437 77.551636 0 50 0 z M 44.507812 3.328125 C 42.675158 4.2292485 40.913479 5.2818915 39.144531 6.0410156 C 38.148831 8.1414856 34.46086 9.0221784 34.21875 12.111328 C 32.27107 13.227598 36.011419 13.624449 33.818359 15.699219 C 33.585669 19.044139 40.17862 16.009436 36.125 18.910156 C 33.02026 21.197536 27.875177 18.761867 27.779297 14.998047 C 26.762548 13.109291 27.195273 10.789458 27.150391 8.921875 C 32.398758 5.9984006 38.26474 4.0538116 44.507812 3.328125 z M 42.408203 21.927734 C 42.585778 21.960451 42.371699 22.346262 41.324219 23.330078 C 41.060419 24.167998 45.598936 20.819162 43.603516 23.888672 C 40.730636 24.925792 43.018081 26.633231 43.306641 29.119141 C 44.652501 31.968541 44.581537 34.610257 48.029297 35.404297 C 52.539137 38.829607 54.341273 31.871253 58.408203 32.476562 C 62.172263 31.940182 65.509219 33.503856 67.537109 36.910156 C 70.004659 39.011836 69.989101 42.777666 72.431641 44.972656 C 71.857551 47.873576 75.630233 49.86568 75.501953 52.71875 C 74.588143 56.17048 71.019093 59.234609 69.908203 61.699219 C 71.710203 65.530259 66.854574 67.532179 66.871094 70.105469 C 65.090794 72.652719 62.30871 70.838961 60.5 73.550781 C 56.97888 73.372731 54.257529 75.142686 51.130859 75.566406 C 51.251689 75.988416 49.838116 75.092514 49.972656 75.458984 C 46.168106 74.282634 42.534729 72.498412 40.255859 69.076172 C 36.370769 66.247762 41.620075 65.536291 42.328125 63.994141 C 45.198935 62.254021 38.613844 60.190839 38.958984 57.105469 C 35.360444 55.939779 33.071374 52.147661 32.052734 48.650391 C 31.003024 46.510241 34.420696 43.250384 35.285156 41.527344 C 31.106106 42.465264 33.815696 36.654453 36.947266 36.501953 C 38.500139 36.408171 38.847497 33.897117 39.443359 33.589844 C 37.00993 33.389431 38.285825 29.231789 40.240234 29.654297 C 37.497894 27.968427 41.340446 25.560312 40.285156 23.544922 C 40.725813 22.796134 42.112246 21.873207 42.408203 21.927734 z M 90.400391 25.970703 C 92.443286 29.400376 94.055627 33.114193 95.177734 37.037109 C 92.727975 33.811522 89.876011 30.128097 90.392578 26.169922 C 90.400782 26.101802 90.394279 26.038213 90.400391 25.970703 z M 21.503906 83.099609 C 21.868777 83.080548 22.426088 83.17211 23.230469 83.404297 C 25.289789 84.605017 29.523743 82.818163 30.189453 85.070312 C 30.047213 87.968474 22.908772 83.296804 23.826172 85.458984 C 22.044082 85.270754 24.935956 88.605668 22.884766 87.048828 C 21.932361 85.334746 19.922801 83.182208 21.503906 83.099609 z M 42.240234 91.205078 C 42.322084 91.199826 42.407625 91.202956 42.494141 91.212891 C 44.01682 91.387746 46.085073 93.756658 42.566406 92.75 C 42.184406 93.0161 41.705211 93.475602 41.332031 92.857422 C 41.236943 91.675997 41.66729 91.241842 42.240234 91.205078 z M 67.373047 92.261719 C 67.586672 92.738152 67.840815 93.099018 68.121094 93.378906 C 62.545186 95.708288 56.424887 97 50 97 C 45.485742 97 41.126943 96.351687 36.996094 95.166016 C 37.742072 93.6044 42.870986 92.997782 44.455078 93.722656 C 46.634328 93.221006 50.522883 95.936364 53.507812 96.121094 C 58.454572 96.340544 62.785897 93.376959 67.373047 92.261719 z "
     style="color:#000000;overflow:visible;fill:#000080;stroke:none;stroke-width:3;stroke-linecap:round;stroke-linejoin:round;stroke-miterlimit:4;stroke-dasharray:none;stroke-dashoffset:188.976;stroke-opacity:1"
     id="path1091-7" />
</svg>
