<?xml version="1.0" encoding="UTF-8" standalone="no"?>
<svg
   xmlns:dc="http://purl.org/dc/elements/1.1/"
   xmlns:cc="http://creativecommons.org/ns#"
   xmlns:rdf="http://www.w3.org/1999/02/22-rdf-syntax-ns#"
   xmlns:svg="http://www.w3.org/2000/svg"
   xmlns="http://www.w3.org/2000/svg"
   xmlns:sodipodi="http://sodipodi.sourceforge.net/DTD/sodipodi-0.dtd"
   xmlns:inkscape="http://www.inkscape.org/namespaces/inkscape"
   version="1.1"
   width="100"
   height="100"
   id="svg4460"
   sodipodi:docname="uEA36-globe.svg"
   inkscape:version="1.0 (4035a4fb49, 2020-05-01)">
  <sodipodi:namedview
     pagecolor="#ffffff"
     bordercolor="#666666"
     borderopacity="1"
     objecttolerance="10"
     gridtolerance="10"
     guidetolerance="10"
     inkscape:pageopacity="0"
     inkscape:pageshadow="2"
     inkscape:window-width="1920"
     inkscape:window-height="1017"
     id="namedview11"
     showgrid="false"
     inkscape:zoom="3.805"
     inkscape:cx="124.89651"
     inkscape:cy="56.210995"
     inkscape:window-x="-8"
     inkscape:window-y="-8"
     inkscape:window-maximized="1"
     inkscape:current-layer="svg4460"
     inkscape:document-rotation="0" />
  <defs
     id="defs4462" />
  <metadata
     id="metadata4465">
    <rdf:RDF>
      <cc:Work
         rdf:about="">
        <dc:format>image/svg+xml</dc:format>
        <dc:type
           rdf:resource="http://purl.org/dc/dcmitype/StillImage" />
        <dc:title />
      </cc:Work>
    </rdf:RDF>
  </metadata>
  <path
     d="M 52.5 5.6816406 L 52.5 25.869141 L 70.175781 25.869141 C 69.188109 23.045533 68.045709 20.440292 66.767578 18.119141 C 62.802435 10.918236 57.767578 6.577844 52.5 5.6816406 z M 47.5 5.8789062 C 42.5705 7.1024017 37.890361 11.341349 34.158203 18.119141 C 32.880072 20.440292 31.737672 23.045533 30.75 25.869141 L 47.5 25.869141 L 47.5 5.8789062 z M 35.980469 7.2324219 C 25.985415 10.499624 17.545184 17.163368 12.009766 25.869141 L 25.464844 25.869141 C 26.651832 22.17387 28.097637 18.757465 29.777344 15.707031 C 31.569505 12.452374 33.656462 9.5842768 35.980469 7.2324219 z M 65.390625 7.6953125 C 67.535486 9.9584025 69.471795 12.662163 71.148438 15.707031 C 72.827772 18.756792 74.27054 22.173713 75.455078 25.869141 L 87.990234 25.869141 C 82.70909 17.563275 74.788044 11.107725 65.390625 7.6953125 z M 9.2558594 30.869141 C 6.8641975 35.962202 5.3956707 41.575313 5.0722656 47.5 L 21.861328 47.5 C 22.055644 41.62805 22.818773 36.03111 24.064453 30.869141 L 9.2558594 30.869141 z M 29.230469 30.869141 C 27.910149 35.945958 27.07911 41.565457 26.867188 47.5 L 47.5 47.5 L 47.5 30.869141 L 29.230469 30.869141 z M 52.5 30.869141 L 52.5 47.5 L 74.058594 47.5 C 73.846672 41.565457 73.015632 35.945958 71.695312 30.869141 L 52.5 30.869141 z M 76.855469 30.869141 C 78.09777 36.031966 78.858992 41.628492 79.052734 47.5 L 94.927734 47.5 C 94.604329 41.575313 93.135803 35.962202 90.744141 30.869141 L 76.855469 30.869141 z M 5.0722656 52.5 C 5.3956707 58.424687 6.8641975 64.037798 9.2558594 69.130859 L 23.828125 69.130859 C 22.654426 63.953511 21.962781 58.356194 21.833984 52.5 L 5.0722656 52.5 z M 26.833984 52.5 C 26.974419 58.415464 27.735338 64.030209 28.980469 69.130859 L 47.5 69.130859 L 47.5 52.5 L 26.833984 52.5 z M 52.5 52.5 L 52.5 69.130859 L 71.945312 69.130859 C 73.190444 64.030209 73.951362 58.415464 74.091797 52.5 L 52.5 52.5 z M 79.076172 52.5 C 78.947413 58.355459 78.260736 63.952928 77.089844 69.130859 L 90.744141 69.130859 C 93.135803 64.037798 94.604329 58.424687 94.927734 52.5 L 79.076172 52.5 z M 12.009766 74.130859 C 17.294926 82.443041 25.224063 88.902117 34.630859 92.3125 C 32.844862 90.263718 31.214957 87.905702 29.777344 85.294922 C 27.946438 81.969904 26.388048 78.214539 25.146484 74.130859 L 12.009766 74.130859 z M 30.404297 74.130859 C 31.465568 77.345521 32.729742 80.288653 34.158203 82.882812 C 37.657754 89.238179 41.991579 93.35814 46.582031 94.857422 C 46.888194 94.880362 47.192144 94.910934 47.5 94.927734 L 47.5 74.130859 L 30.404297 74.130859 z M 52.5 74.130859 L 52.5 94.927734 C 53.213353 94.888795 53.922902 94.837305 54.626953 94.765625 C 59.11242 93.191264 63.33995 89.107563 66.767578 82.882812 C 68.19604 80.288653 69.460213 77.345521 70.521484 74.130859 L 52.5 74.130859 z M 75.775391 74.130859 C 74.536142 78.215463 72.979247 81.970075 71.148438 85.294922 C 69.836506 87.677457 68.365599 89.851391 66.761719 91.771484 C 75.557371 88.245533 82.968688 82.028446 87.990234 74.130859 L 75.775391 74.130859 z "
     style="color:#000000;font-style:normal;font-variant:normal;font-weight:normal;font-stretch:normal;font-size:medium;line-height:normal;font-family:sans-serif;font-variant-ligatures:normal;font-variant-position:normal;font-variant-caps:normal;font-variant-numeric:normal;font-variant-alternates:normal;font-variant-east-asian:normal;font-feature-settings:normal;font-variation-settings:normal;text-indent:0;text-align:start;text-decoration:none;text-decoration-line:none;text-decoration-style:solid;text-decoration-color:#000000;letter-spacing:normal;word-spacing:normal;text-transform:none;writing-mode:lr-tb;direction:ltr;text-orientation:mixed;dominant-baseline:auto;baseline-shift:baseline;text-anchor:start;white-space:normal;shape-padding:0;shape-margin:0;inline-size:0;clip-rule:nonzero;display:inline;overflow:visible;visibility:visible;isolation:auto;mix-blend-mode:normal;color-interpolation:sRGB;color-interpolation-filters:linearRGB;solid-color:#000000;solid-opacity:1;vector-effect:none;fill:#000080;fill-opacity:1;fill-rule:nonzero;stroke:none;stroke-width:5;stroke-linecap:round;stroke-linejoin:round;stroke-miterlimit:4;stroke-dasharray:none;stroke-dashoffset:188.976;stroke-opacity:1;color-rendering:auto;image-rendering:auto;shape-rendering:auto;text-rendering:auto;enable-background:accumulate;stop-color:#000000;stop-opacity:1;opacity:1"
     id="path862" />
</svg>
