<?xml version="1.0" encoding="UTF-8" standalone="no"?>
<svg
   xmlns:dc="http://purl.org/dc/elements/1.1/"
   xmlns:cc="http://creativecommons.org/ns#"
   xmlns:rdf="http://www.w3.org/1999/02/22-rdf-syntax-ns#"
   xmlns:svg="http://www.w3.org/2000/svg"
   xmlns="http://www.w3.org/2000/svg"
   xmlns:sodipodi="http://sodipodi.sourceforge.net/DTD/sodipodi-0.dtd"
   xmlns:inkscape="http://www.inkscape.org/namespaces/inkscape"
   version="1.1"
   width="100"
   height="100"
   id="svg4460"
   sodipodi:docname="uEA5D-hydro-map.svg"
   inkscape:version="1.0 (4035a4fb49, 2020-05-01)">
  <sodipodi:namedview
     pagecolor="#ffffff"
     bordercolor="#666666"
     borderopacity="1"
     objecttolerance="10"
     gridtolerance="10"
     guidetolerance="10"
     inkscape:pageopacity="0"
     inkscape:pageshadow="2"
     inkscape:window-width="1920"
     inkscape:window-height="1017"
     id="namedview11"
     showgrid="false"
     inkscape:zoom="5.713423"
     inkscape:cx="-4.849951"
     inkscape:cy="35.402015"
     inkscape:window-x="-8"
     inkscape:window-y="-8"
     inkscape:window-maximized="1"
     inkscape:current-layer="svg4460"
     inkscape:document-rotation="0" />
  <defs
     id="defs4462" />
  <metadata
     id="metadata4465">
    <rdf:RDF>
      <cc:Work
         rdf:about="">
        <dc:format>image/svg+xml</dc:format>
        <dc:type
           rdf:resource="http://purl.org/dc/dcmitype/StillImage" />
        <dc:title />
      </cc:Work>
    </rdf:RDF>
  </metadata>
  <path
     d="m 2.0000002,12 a 2.50025,2.50025 0 0 0 -2.49999995,2.5 v 71 A 2.50025,2.50025 0 0 0 2.0000002,88 H 98 a 2.50025,2.50025 0 0 0 2.5,-2.5 v -71 A 2.50025,2.50025 0 0 0 98,12 Z m 2.5,5 H 95.5 V 83 H 17.427735 c 0.07449,-0.04035 0.134503,-0.07093 0.208984,-0.111328 1.943168,-1.053922 3.839844,-2.107422 3.839844,-2.107422 3.128983,-2.371443 6.168956,-5.205595 9.546875,-7.142578 0.0048,-0.0027 0.0088,-0.0051 0.01367,-0.0078 0.60737,-0.337711 1.288231,-0.634697 1.99414,-0.917968 0.623512,0.359047 1.816268,1.038622 3.560547,1.93164 2.318885,1.187198 5.062815,2.486885 7.21875,2.957031 4.172841,0.909973 8.010453,-0.316948 11.080079,-0.01172 1.360587,0.135291 2.393144,0.830418 3.484374,1.644531 1.091235,0.814114 2.25155,1.879751 3.966797,1.826172 1.54575,-0.04829 3.848269,-0.734424 6.5625,-1.371094 2.714233,-0.636669 5.690323,-1.226066 7.583985,-1.181641 0.6894,0.01574 1.262455,-0.529379 1.279297,-1.21875 0.01396,-0.58616 -0.381859,-1.103906 -0.951172,-1.24414 -0.08772,-0.02184 -0.177209,-0.03271 -0.267578,-0.03516 -2.42659,-0.05693 -5.453855,0.596502 -8.214844,1.244141 -2.760991,0.647637 -5.406334,1.287914 -6.068359,1.308594 -0.492529,0.01539 -1.254201,-0.48129 -2.394532,-1.332031 -1.140329,-0.850742 -2.649314,-1.921771 -4.732422,-2.128907 -3.817766,-0.379624 -7.454825,0.78697 -10.794922,0.05859 -1.600532,-0.349029 -4.365438,-1.591359 -6.613281,-2.742187 -0.603503,-0.308976 -1.02398,-0.54816 -1.535156,-0.824219 2.129403,-0.696326 4.291234,-1.397408 6.087891,-2.355469 0.529474,0.183063 1.096495,0.524237 1.835937,0.958984 0.913327,0.536981 2.091144,1.158649 3.662109,1.339844 1.667306,0.192305 3.371915,-0.236328 5.072266,-0.660156 1.700349,-0.423828 3.392661,-0.868457 4.777344,-0.923828 1.357086,-0.05427 2.928467,0.298165 4.439453,0.611328 1.510987,0.313164 2.981189,0.706299 4.449219,0.0625 1.68474,-0.738839 4.556922,-1.69784 5.763672,-2.257812 -0.188991,0.0877 -0.0785,0.01251 0.216796,0.06836 0.295332,0.05586 0.734575,0.184273 1.232422,0.328125 0.995698,0.287699 2.241682,0.682979 3.611328,0.417969 1.31893,-0.255188 2.960955,-1.05136 4.478516,-1.796875 1.517559,-0.745522 2.789063,-1.445313 2.789063,-1.445313 0.605215,-0.331916 0.827845,-1.091992 0.496093,-1.697265 -0.168461,-0.306523 -0.457208,-0.527898 -0.796875,-0.611329 -0.303898,-0.07507 -0.62574,-0.03297 -0.90039,0.117188 0,0 -1.229221,0.675217 -2.689453,1.392578 -1.460232,0.717359 -3.269589,1.472962 -3.853516,1.585937 -0.533209,0.103173 -1.479315,-0.08586 -2.439453,-0.363281 -0.480071,-0.138711 -0.960042,-0.288066 -1.460938,-0.382812 -0.500896,-0.09475 -1.062766,-0.195367 -1.736328,0.117187 -0.731538,0.339455 -3.817677,1.407139 -5.71289,2.238282 -0.32195,0.14118 -1.47677,0.0805 -2.939453,-0.222657 -1.462683,-0.303152 -3.213662,-0.733463 -5.046876,-0.660156 -1.805616,0.0722 -3.614884,0.580733 -5.28125,0.996094 -1.666367,0.415357 -3.193385,0.715548 -4.18164,0.601562 -1.08459,-0.125095 -1.845152,-0.519919 -2.681641,-1.011719 -0.113883,-0.06695 -0.24996,-0.140076 -0.367187,-0.210937 0.340926,-0.169593 0.67732,-0.34759 1.035156,-0.582031 1.02483,-0.671419 1.998286,-1.694535 3.501953,-3.820313 0,0 0.0058,-0.0039 0.0059,-0.0039 0.009,-0.01134 1.340306,-1.664208 4.048829,-3.189453 2.216807,0.272687 4.097371,-0.609791 5.548828,-1.933594 2.611287,-0.285255 6.467003,-0.104099 10.357422,0.105469 4.910659,0.264529 9.867069,0.567644 13.304687,-0.683594 6.421846,-2.337452 10.46875,-8.171875 10.46875,-8.171875 0.398851,-0.563671 0.264975,-1.343517 -0.298828,-1.742187 -0.128486,-0.09085 -0.272891,-0.15612 -0.425781,-0.19336 -0.498413,-0.12159 -1.020148,0.07334 -1.316407,0.492188 0,0 -3.819477,5.279577 -9.28125,7.267578 -2.504193,0.911486 -7.427571,0.79666 -12.318359,0.533203 -3.504292,-0.188769 -6.96885,-0.444883 -9.865234,-0.212891 0.373214,-0.398924 0.813629,-0.823523 1.34375,-1.263671 0.977817,-0.811859 3.073023,-1.85156 5.330078,-2.951172 2.257053,-1.099613 4.698236,-2.295357 6.603515,-3.777344 3.776067,-2.937145 9.06836,-9.478516 9.06836,-9.478516 0.437915,-0.53444 0.359177,-1.322488 -0.175781,-1.759765 -0.146312,-0.119597 -0.318119,-0.206243 -0.501953,-0.25 -0.465576,-0.11068 -0.952815,0.05541 -1.25586,0.425781 0,0 -5.453225,6.587792 -8.669922,9.089844 -1.591105,1.237611 -3.917449,2.410331 -6.162109,3.503906 -1.273693,0.62053 -2.496929,1.20835 -3.595703,1.816406 0.03079,-0.243022 0.05727,-0.479354 0.09961,-0.736328 0.277013,-1.681014 0.966293,-3.466777 1.5625,-3.9375 0.969444,-0.7654 3.947256,-2.619826 6.865235,-4.816406 2.917975,-2.196582 5.887676,-4.717038 7.140624,-7.582032 0.275892,-0.632066 -0.01286,-1.367734 -0.644531,-1.644531 -0.05732,-0.02547 -0.115305,-0.0459 -0.175781,-0.0625 -0.597294,-0.160573 -1.223015,0.138338 -1.470703,0.705078 -0.849236,1.941865 -3.552204,4.479133 -6.353516,6.587891 -2.801311,2.108758 -5.58986,3.809157 -6.910156,4.851562 -1.693529,1.337086 -2.166803,3.586803 -2.480469,5.490235 -0.229733,1.3941 -0.280319,2.412653 -0.298828,2.986328 -0.710458,0.634019 -1.298479,1.256664 -1.759766,1.820313 -1.347912,-0.164173 -2.518196,0.392665 -3.099609,1.078124 -0.622705,0.964445 -1.313978,1.764144 -2.078125,2.414063 0.738196,-1.870364 1.439088,-3.917141 2.09375,-5.917969 0.686352,-2.097684 1.30063,-4.112483 1.792969,-5.708984 0.492335,-1.596502 0.911071,-2.872903 1.013672,-3.103516 0.0615,-0.138246 0.443627,-0.658836 1.029297,-1.199218 0.58567,-0.540383 1.366672,-1.147928 2.232422,-1.726563 1.731495,-1.15727 3.832969,-2.203007 5.335937,-2.574219 1.510422,-0.373056 2.509982,-1.572905 3.570313,-3.001953 1.060328,-1.429048 2.076468,-3.180594 2.964843,-4.898437 0.888376,-1.717842 1.644128,-3.394638 2.15625,-4.667969 0.256057,-0.636665 0.449255,-1.165342 0.576172,-1.583985 0.06344,-0.209326 0.111352,-0.377987 0.142578,-0.601562 0.01562,-0.111792 0.04609,-0.222943 -0.0039,-0.501953 -0.02498,-0.139507 -0.06448,-0.348054 -0.28125,-0.607422 -0.162584,-0.194528 -0.469504,-0.360514 -0.755859,-0.425781 v -0.002 c -0.09544,-0.02178 -0.188764,-0.03083 -0.273438,-0.02734 -0.689358,0.02837 -1.227,0.609445 -1.199219,1.298828 7e-4,0.01521 0.0024,0.03171 0.0039,0.04687 -0.0101,0.04082 -0.0065,0.03128 -0.02539,0.09375 -0.08863,0.292413 -0.265054,0.783075 -0.503906,1.376953 -0.477704,1.187754 -1.210056,2.812316 -2.058594,4.453125 -0.848538,1.640812 -1.820066,3.305286 -2.75,4.558594 -0.929935,1.253307 -1.922658,2.005311 -2.162109,2.064453 -1.94032,0.479234 -4.082908,1.583951 -5.957032,2.818359 0.203327,-0.423626 0.403852,-0.816339 0.589844,-1.111328 1.006963,-1.597081 3.574323,-2.934617 4.927734,-5.625 0.671433,-1.33471 1.033476,-3.009535 1.28125,-4.410156 0.24774,-1.400629 0.351563,-2.521484 0.351563,-2.521484 0.05509,-0.584485 -0.304205,-1.129459 -0.863281,-1.308594 -0.0861,-0.02751 -0.173667,-0.04632 -0.263672,-0.05469 -0.68756,-0.0647 -1.298922,0.441314 -1.363281,1.128907 0,0 -0.09515,1.025254 -0.324219,2.320312 -0.229068,1.295058 -0.620954,2.86434 -1.052734,3.722656 -0.853015,1.695664 -3.276753,2.981411 -4.810547,5.414063 -1.476945,2.342486 -2.841797,6.652344 -2.841797,6.652344 -0.005,0.01618 -0.0093,0.03247 -0.01367,0.04883 -0.28467,0.68146 -0.596779,1.712954 -1.060547,3.216797 -0.49391,1.601614 -1.10465,3.600075 -1.78125,5.667968 -1.352431,4.13341 -3.058664,8.625143 -4.322266,10.419922 -7.63e-4,0.0011 -0.0031,0.0029 -0.0039,0.0039 -0.0054,0.0071 -0.01019,0.01421 -0.01563,0.02148 -1.444524,2.046319 -2.177802,2.759825 -2.857422,3.205078 -0.674955,0.442199 -1.56171,0.728614 -3.121094,1.638672 -0.01734,0.01017 -0.02936,0.01515 -0.04687,0.02539 -1.992351,1.169399 -5.445441,1.978542 -8.701172,3.248047 -0.16128,0.03276 -0.312866,0.09728 -0.449219,0.189453 -8.07e-4,4.45e-4 -0.003,-5.16e-4 -0.0039,0 -0.01464,0.006 -0.02836,0.01159 -0.04297,0.01758 0.297708,-1.132537 0.430635,-1.648614 0.880859,-3.355469 0.759643,-2.879929 1.511511,-5.706532 1.65625,-6.230469 0.06616,-0.126082 0.110665,-0.261401 0.13086,-0.402344 0,0 0.0038,-0.03059 0.0039,-0.03125 0.02897,-0.06627 0.265422,-0.706676 0.634765,-1.583984 0.400818,-0.952066 0.933166,-2.184235 1.513672,-3.490234 1.161016,-2.611996 2.526453,-5.542322 3.363282,-7.070313 0.776772,-1.41833 1.687324,-2.215206 2.783203,-3.189453 1.095879,-0.974249 2.365044,-2.120804 3.419922,-4.035156 1.103239,-2.002108 2.103884,-5.381904 2.917968,-8.38086 0.814089,-2.998955 1.386719,-5.558593 1.386719,-5.558593 0.143319,-0.642115 -0.236097,-1.284773 -0.867187,-1.470704 -0.02622,-0.0078 -0.05338,-0.01545 -0.08008,-0.02148 -0.674013,-0.150647 -1.34194,0.27316 -1.492187,0.947266 0,0 -0.561896,2.509482 -1.359375,5.447265 -0.797482,2.937783 -1.885394,6.361865 -2.693359,7.828125 -0.856321,1.554017 -1.805782,2.408825 -2.892579,3.375 -1.086798,0.966175 -2.326387,2.049717 -3.316406,3.857422 -0.734481,1.34111 -1.722992,3.458551 -2.6875,5.583985 0.012,-1.150233 -0.0229,-2.286641 -0.146484,-3.28125 -0.295169,-2.37553 -1.663439,-4.39223 -2.503906,-6.275391 -0.840447,-1.883168 -1.224412,-3.341325 -0.234375,-5.005859 1.240874,-2.086261 2.788785,-4.573827 3.90625,-7.027344 0.489477,-2.73614 2.490354,-6.320244 1.75,-8.933594 -0.182271,-0.609859 -0.42864,-1.363094 -1.138672,-2.017578 -0.480752,-0.299341 -0.940142,-0.442496 -1.361328,-0.460937 -1.82514,-0.07991 -2.928056,2.166235 -1.898438,4.042968 2.201871,1.948298 1.365486,4.121838 0.373047,6.333985 -1.018448,2.236116 -2.521426,4.667034 -3.78125,6.785156 -1.51066,2.539851 -0.849077,5.170709 0.101562,7.300781 0.950642,2.130073 2.117917,4.04947 2.306641,5.56836 0.41158,3.312465 -0.360861,9.442081 -0.453125,10.154296 -0.0018,0.006 -0.006,0.01355 -0.0078,0.01953 -0.157623,0.547004 -0.953419,3.565987 -1.75,6.585937 -0.731166,2.77197 -1.324423,5.02709 -1.435547,5.449219 -3.877726,2.286019 -9.451654,7.063471 -9.455078,7.066406 h -0.002 c -0.317233,0.175993 -1.70458,0.946498 -3.445313,1.890625 -0.964646,0.523198 -1.93972,1.044617 -2.685547,1.431641 -0.372913,0.193512 -0.690991,0.355241 -0.908203,0.458984 -0.07453,0.0356 -0.113472,0.05248 -0.158203,0.07227 -0.07178,0.0053 -0.140802,0.007 -0.259766,0.01563 -0.237036,0.01711 -0.551415,0.03953 -0.917968,0.06836 -0.733108,0.05766 -1.6748427,0.134298 -2.6054694,0.210938 -0.3054509,0.02516 -0.4338066,0.0363 -0.6035158,0.05078 H 8.0468752 l 3.4042968,-4.480469 c 0.02142,-0.02842 0.04163,-0.05774 0.06055,-0.08789 0.0885,-0.09298 0.168224,-0.196252 0.226563,-0.31836 0.804904,-1.684716 1.073382,-3.15639 1.128906,-4.220703 0.04106,-0.787075 -0.04372,-1.078233 -0.0918,-1.347656 0.514344,-2.892351 1.542212,-4.917292 2.625,-6.84961 1.08922,-1.943797 2.270226,-3.811781 2.792969,-6.24414 0.547508,-2.547604 -0.253045,-4.469659 -0.632813,-6.154297 -0.379769,-1.68464 -0.535295,-3.219478 0.917969,-5.976563 1.537106,-2.916144 2.260935,-3.670057 2.945313,-4.335937 0.684378,-0.665881 1.503207,-1.412075 2.515625,-3.519531 0.29815,-0.622385 0.03435,-1.36951 -0.587891,-1.667969 -0.05662,-0.02732 -0.1157,-0.04987 -0.175781,-0.06836 -0.590299,-0.180089 -1.222676,0.09619 -1.490235,0.652344 -0.909347,1.892898 -1.238876,2.064293 -2.005859,2.810547 -0.766984,0.746252 -1.798321,1.901265 -3.412109,4.962891 -1.697629,3.220684 -1.588021,5.732745 -1.146485,7.691406 0.441543,1.958664 1.017235,3.273178 0.628906,5.080078 -0.41309,1.922145 -1.407035,3.538677 -2.53125,5.544922 -0.427977,0.76376 -0.861287,1.610905 -1.27539,2.513672 -0.406861,-2.4251 -0.863125,-5.003153 -1.335938,-7.402344 -0.342438,-1.737636 0.228722,-3.838126 0.91211,-6.382812 0.683387,-2.544687 1.42571,-5.519664 0.976562,-8.935547 -0.0629,-0.479213 -0.397339,-0.877329 -0.857422,-1.025391 -0.176267,-0.05693 -0.361269,-0.07489 -0.544922,-0.05078 -0.684596,0.09059 -1.1670161,0.719734 -1.076172,1.404297 0.378168,2.876023 -0.2390083,5.452599 -0.9121091,7.958984 -0.6730996,2.506385 -1.4558886,4.954551 -0.9511717,7.515625 0.841509,4.270073 1.7044745,9.444638 2.1406248,12.488281 0.0011,0.0057 0.0028,0.01187 0.0039,0.01758 0.0038,0.02446 0.0084,0.04806 0.01367,0.07227 v 0.002 l -0.002,0.002 c 0.0028,0.011 0.0067,0.02224 0.0098,0.0332 0,0 0.09095,0.312028 0.05078,1.082031 -0.03912,0.750027 -0.230421,1.843916 -0.8457032,3.167969 -0.02249,0.02452 -0.043991,0.04993 -0.064453,0.07617 L 4.9082033,83 H 4.5000002 Z"
     style="color:#000000;font-style:normal;font-variant:normal;font-weight:normal;font-stretch:normal;font-size:medium;line-height:normal;font-family:sans-serif;font-variant-ligatures:normal;font-variant-position:normal;font-variant-caps:normal;font-variant-numeric:normal;font-variant-alternates:normal;font-variant-east-asian:normal;font-feature-settings:normal;font-variation-settings:normal;text-indent:0;text-align:start;text-decoration:none;text-decoration-line:none;text-decoration-style:solid;text-decoration-color:#000000;letter-spacing:normal;word-spacing:normal;text-transform:none;writing-mode:lr-tb;direction:ltr;text-orientation:mixed;dominant-baseline:auto;baseline-shift:baseline;text-anchor:start;white-space:normal;shape-padding:0;shape-margin:0;inline-size:0;clip-rule:nonzero;display:inline;overflow:visible;visibility:visible;isolation:auto;mix-blend-mode:normal;color-interpolation:sRGB;color-interpolation-filters:linearRGB;solid-color:#000000;solid-opacity:1;vector-effect:none;fill:#000080;fill-opacity:1;fill-rule:nonzero;stroke:none;stroke-width:5;stroke-linecap:round;stroke-linejoin:round;stroke-miterlimit:4;stroke-dasharray:none;stroke-dashoffset:20;stroke-opacity:1;color-rendering:auto;image-rendering:auto;shape-rendering:auto;text-rendering:auto;enable-background:accumulate;stop-color:#000000"
     id="path1013" />
</svg>
