<?xml version="1.0" encoding="UTF-8" standalone="no"?>
<svg
   xmlns:dc="http://purl.org/dc/elements/1.1/"
   xmlns:cc="http://creativecommons.org/ns#"
   xmlns:rdf="http://www.w3.org/1999/02/22-rdf-syntax-ns#"
   xmlns:svg="http://www.w3.org/2000/svg"
   xmlns="http://www.w3.org/2000/svg"
   xmlns:sodipodi="http://sodipodi.sourceforge.net/DTD/sodipodi-0.dtd"
   xmlns:inkscape="http://www.inkscape.org/namespaces/inkscape"
   version="1.1"
   width="100"
   height="100"
   id="svg4460"
   sodipodi:docname="uEA5A-landcover-map.svg"
   inkscape:version="1.0 (4035a4fb49, 2020-05-01)">
  <sodipodi:namedview
     pagecolor="#ffffff"
     bordercolor="#666666"
     borderopacity="1"
     objecttolerance="10"
     gridtolerance="10"
     guidetolerance="10"
     inkscape:pageopacity="0"
     inkscape:pageshadow="2"
     inkscape:window-width="1920"
     inkscape:window-height="1017"
     id="namedview11"
     showgrid="false"
     inkscape:zoom="2.0200001"
     inkscape:cx="106.0183"
     inkscape:cy="-15.963253"
     inkscape:window-x="-8"
     inkscape:window-y="-8"
     inkscape:window-maximized="1"
     inkscape:current-layer="svg4460"
     inkscape:document-rotation="0" />
  <defs
     id="defs4462" />
  <metadata
     id="metadata4465">
    <rdf:RDF>
      <cc:Work
         rdf:about="">
        <dc:format>image/svg+xml</dc:format>
        <dc:type
           rdf:resource="http://purl.org/dc/dcmitype/StillImage" />
        <dc:title />
      </cc:Work>
    </rdf:RDF>
  </metadata>
  <path
     d="M 2 12 A 2.50025 2.50025 0 0 0 -0.5 14.5 L -0.5 85.5 A 2.50025 2.50025 0 0 0 2 88 L 98 88 A 2.50025 2.50025 0 0 0 100.5 85.5 L 100.5 14.5 A 2.50025 2.50025 0 0 0 98 12 L 2 12 z M 5.5976562 17 L 11.382812 17 A 2.5 2.5 0 0 0 10.990234 18.341797 A 2.5 2.5 0 0 0 13.490234 20.841797 A 2.5 2.5 0 0 0 15.990234 18.341797 A 2.5 2.5 0 0 0 15.982422 18.150391 L 18.064453 20.878906 A 2.5 2.5 0 0 0 15.990234 23.341797 A 2.5 2.5 0 0 0 18.490234 25.841797 A 2.5 2.5 0 0 0 20.751953 24.402344 L 22.148438 26.234375 A 2.5 2.5 0 0 0 20.990234 28.341797 A 2.5 2.5 0 0 0 23.490234 30.841797 A 2.5 2.5 0 0 0 25.167969 30.193359 L 26.458984 31.884766 A 2.5 2.5 0 0 0 25.990234 33.341797 A 2.5 2.5 0 0 0 26.587891 34.962891 L 25.220703 36.537109 A 2.5 2.5 0 0 0 23.490234 35.841797 A 2.5 2.5 0 0 0 20.990234 38.341797 A 2.5 2.5 0 0 0 21.945312 40.308594 L 21.804688 40.470703 L 20.544922 41.919922 A 2.5 2.5 0 0 0 18.490234 40.841797 A 2.5 2.5 0 0 0 18.417969 40.841797 A 2.5 2.5 0 0 0 15.990234 43.341797 A 2.5 2.5 0 0 0 18.490234 45.841797 A 2.5 2.5 0 0 0 19.722656 45.515625 L 19.486328 47.439453 L 19.060547 50.908203 A 2.5 2.5 0 0 0 18.490234 50.841797 A 2.5 2.5 0 0 0 18.417969 50.841797 A 2.5 2.5 0 0 0 15.990234 53.341797 A 2.5 2.5 0 0 0 16.085938 54.025391 L 10.335938 51.658203 A 2.5 2.5 0 0 0 8.4902344 50.841797 A 2.5 2.5 0 0 0 8.4179688 50.841797 A 2.5 2.5 0 0 0 8.3632812 50.845703 L 5.5859375 49.703125 A 2.5 2.5 0 0 0 5.9902344 48.341797 A 2.5 2.5 0 0 0 4.5 46.054688 L 4.5 40.628906 A 2.5 2.5 0 0 0 5.9902344 38.341797 A 2.5 2.5 0 0 0 4.5 36.054688 L 4.5 30.628906 A 2.5 2.5 0 0 0 5.9902344 28.341797 A 2.5 2.5 0 0 0 4.5 26.054688 L 4.5 20.628906 A 2.5 2.5 0 0 0 5.9902344 18.341797 A 2.5 2.5 0 0 0 5.5976562 17 z M 18.878906 17 L 30.279297 17 L 60.388672 55.583984 L 52.232422 63.96875 L 52.128906 64.171875 C 52.128906 64.171875 48.415254 71.475539 44.669922 78.904297 C 43.928293 80.375296 43.283939 81.667533 42.617188 83 L 32.408203 83 L 39.074219 70.974609 C 50.84552 60.408796 49.4589 53.866076 43.498047 43.583984 L 30.802734 32.630859 L 18.878906 17 z M 34.083984 17 L 34.267578 17 L 34.164062 17.103516 L 34.083984 17 z M 37.095703 17 L 39.613281 17 L 36.507812 20.105469 L 35.404297 18.691406 L 37.095703 17 z M 42.441406 17 L 44.957031 17 L 38.851562 23.107422 L 37.748047 21.693359 L 42.441406 17 z M 47.787109 17 L 50.302734 17 L 41.193359 26.109375 L 40.089844 24.697266 L 47.787109 17 z M 53.130859 17 L 55.648438 17 L 43.537109 29.111328 L 42.433594 27.699219 L 53.130859 17 z M 59.935547 17 L 64.064453 17 A 1.9999999 1.9999999 0 0 0 66 18.5 A 1.9999999 1.9999999 0 0 0 67.935547 17 L 72.064453 17 A 1.9999999 1.9999999 0 0 0 74 18.5 A 1.9999999 1.9999999 0 0 0 75.935547 17 L 80.064453 17 A 1.9999999 1.9999999 0 0 0 82 18.5 A 1.9999999 1.9999999 0 0 0 83.935547 17 L 88.064453 17 A 1.9999999 1.9999999 0 0 0 90 18.5 A 1.9999999 1.9999999 0 0 0 91.935547 17 L 95.5 17 L 95.5 19.177734 A 1.9999999 1.9999999 0 0 0 94 18.5 A 1.9999999 1.9999999 0 0 0 92 20.5 A 1.9999999 1.9999999 0 0 0 94 22.5 A 1.9999999 1.9999999 0 0 0 95.5 21.820312 L 95.5 27.177734 A 1.9999999 1.9999999 0 0 0 94 26.5 A 1.9999999 1.9999999 0 0 0 93.990234 26.5 A 1.9999999 1.9999999 0 0 0 92 28.5 A 1.9999999 1.9999999 0 0 0 94 30.5 A 1.9999999 1.9999999 0 0 0 95.5 29.820312 L 95.5 35.177734 A 1.9999999 1.9999999 0 0 0 94 34.5 A 1.9999999 1.9999999 0 0 0 93.990234 34.5 A 1.9999999 1.9999999 0 0 0 92 36.5 A 1.9999999 1.9999999 0 0 0 94 38.5 A 1.9999999 1.9999999 0 0 0 95.5 37.820312 L 95.5 43.177734 A 1.9999999 1.9999999 0 0 0 94 42.5 A 1.9999999 1.9999999 0 0 0 92.052734 44.044922 L 88.894531 44.464844 L 87.998047 44.583984 A 1.9999999 1.9999999 0 0 0 88 44.5 A 1.9999999 1.9999999 0 0 0 86 42.5 A 1.9999999 1.9999999 0 0 0 84 44.5 A 1.9999999 1.9999999 0 0 0 84.09375 45.101562 L 82.648438 45.292969 L 79.603516 45.695312 A 1.9999999 1.9999999 0 0 0 80 44.5 A 1.9999999 1.9999999 0 0 0 78 42.5 A 1.9999999 1.9999999 0 0 0 76.339844 43.382812 L 75.400391 41.927734 A 1.9999999 1.9999999 0 0 0 76 40.5 A 1.9999999 1.9999999 0 0 0 74 38.5 A 1.9999999 1.9999999 0 0 0 73.990234 38.5 A 1.9999999 1.9999999 0 0 0 73.275391 38.636719 L 71.994141 36.650391 A 1.9999999 1.9999999 0 0 0 72 36.5 A 1.9999999 1.9999999 0 0 0 70.685547 34.623047 L 65.375 26.398438 A 1.9999999 1.9999999 0 0 0 66 26.5 A 1.9999999 1.9999999 0 0 0 68 24.5 A 1.9999999 1.9999999 0 0 0 66 22.5 A 1.9999999 1.9999999 0 0 0 65.990234 22.5 A 1.9999999 1.9999999 0 0 0 64.011719 24.285156 L 62.761719 22.349609 A 1.9999999 1.9999999 0 0 0 64 20.5 A 1.9999999 1.9999999 0 0 0 62 18.5 A 1.9999999 1.9999999 0 0 0 60.628906 19.046875 L 59.681641 17.580078 A 1.9999999 1.9999999 0 0 0 59.681641 17.578125 A 1.9999999 1.9999999 0 0 0 59.935547 17 z M 70 18.5 A 1.9999999 1.9999999 0 0 0 68 20.5 A 1.9999999 1.9999999 0 0 0 70 22.5 A 1.9999999 1.9999999 0 0 0 72 20.5 A 1.9999999 1.9999999 0 0 0 70 18.5 z M 78 18.5 A 1.9999999 1.9999999 0 0 0 76 20.5 A 1.9999999 1.9999999 0 0 0 78 22.5 A 1.9999999 1.9999999 0 0 0 80 20.5 A 1.9999999 1.9999999 0 0 0 78 18.5 z M 86 18.5 A 1.9999999 1.9999999 0 0 0 84 20.5 A 1.9999999 1.9999999 0 0 0 86 22.5 A 1.9999999 1.9999999 0 0 0 88 20.5 A 1.9999999 1.9999999 0 0 0 86 18.5 z M 56.810547 18.666016 L 57.798828 20.195312 L 45.878906 32.115234 L 44.777344 30.701172 C 50.118804 25.359333 53.215344 22.261527 56.810547 18.666016 z M 8.4902344 20.841797 A 2.5 2.5 0 0 0 5.9902344 23.341797 A 2.5 2.5 0 0 0 8.4902344 25.841797 A 2.5 2.5 0 0 0 10.990234 23.341797 A 2.5 2.5 0 0 0 8.4902344 20.841797 z M 58.908203 21.914062 L 59.896484 23.443359 L 48.222656 35.117188 L 47.119141 33.703125 L 58.908203 21.914062 z M 73.990234 22.5 A 1.9999999 1.9999999 0 0 0 72 24.5 A 1.9999999 1.9999999 0 0 0 74 26.5 A 1.9999999 1.9999999 0 0 0 76 24.5 A 1.9999999 1.9999999 0 0 0 74 22.5 A 1.9999999 1.9999999 0 0 0 73.990234 22.5 z M 81.990234 22.5 A 1.9999999 1.9999999 0 0 0 80 24.5 A 1.9999999 1.9999999 0 0 0 82 26.5 A 1.9999999 1.9999999 0 0 0 84 24.5 A 1.9999999 1.9999999 0 0 0 82 22.5 A 1.9999999 1.9999999 0 0 0 81.990234 22.5 z M 89.990234 22.5 A 1.9999999 1.9999999 0 0 0 88 24.5 A 1.9999999 1.9999999 0 0 0 90 26.5 A 1.9999999 1.9999999 0 0 0 92 24.5 A 1.9999999 1.9999999 0 0 0 90 22.5 A 1.9999999 1.9999999 0 0 0 89.990234 22.5 z M 61.005859 25.162109 L 61.992188 26.693359 L 50.566406 38.119141 L 49.462891 36.705078 L 61.005859 25.162109 z M 13.490234 25.841797 A 2.5 2.5 0 0 0 10.990234 28.341797 A 2.5 2.5 0 0 0 13.490234 30.841797 A 2.5 2.5 0 0 0 15.990234 28.341797 A 2.5 2.5 0 0 0 13.490234 25.841797 z M 69.990234 26.5 A 1.9999999 1.9999999 0 0 0 68 28.5 A 1.9999999 1.9999999 0 0 0 70 30.5 A 1.9999999 1.9999999 0 0 0 72 28.5 A 1.9999999 1.9999999 0 0 0 70 26.5 A 1.9999999 1.9999999 0 0 0 69.990234 26.5 z M 77.990234 26.5 A 1.9999999 1.9999999 0 0 0 76 28.5 A 1.9999999 1.9999999 0 0 0 78 30.5 A 1.9999999 1.9999999 0 0 0 80 28.5 A 1.9999999 1.9999999 0 0 0 78 26.5 A 1.9999999 1.9999999 0 0 0 77.990234 26.5 z M 85.990234 26.5 A 1.9999999 1.9999999 0 0 0 84 28.5 A 1.9999999 1.9999999 0 0 0 86 30.5 A 1.9999999 1.9999999 0 0 0 88 28.5 A 1.9999999 1.9999999 0 0 0 86 26.5 A 1.9999999 1.9999999 0 0 0 85.990234 26.5 z M 63.101562 28.412109 L 63.974609 29.761719 L 64.089844 29.941406 L 52.908203 41.123047 L 51.804688 39.708984 L 63.101562 28.412109 z M 73.990234 30.5 A 1.9999999 1.9999999 0 0 0 72 32.5 A 1.9999999 1.9999999 0 0 0 74 34.5 A 1.9999999 1.9999999 0 0 0 76 32.5 A 1.9999999 1.9999999 0 0 0 74 30.5 A 1.9999999 1.9999999 0 0 0 73.990234 30.5 z M 81.990234 30.5 A 1.9999999 1.9999999 0 0 0 80 32.5 A 1.9999999 1.9999999 0 0 0 82 34.5 A 1.9999999 1.9999999 0 0 0 84 32.5 A 1.9999999 1.9999999 0 0 0 82 30.5 A 1.9999999 1.9999999 0 0 0 81.990234 30.5 z M 89.990234 30.5 A 1.9999999 1.9999999 0 0 0 88 32.5 A 1.9999999 1.9999999 0 0 0 90 34.5 A 1.9999999 1.9999999 0 0 0 92 32.5 A 1.9999999 1.9999999 0 0 0 90 30.5 A 1.9999999 1.9999999 0 0 0 89.990234 30.5 z M 8.4902344 30.841797 A 2.5 2.5 0 0 0 5.9902344 33.341797 A 2.5 2.5 0 0 0 8.4902344 35.841797 A 2.5 2.5 0 0 0 10.990234 33.341797 A 2.5 2.5 0 0 0 8.4902344 30.841797 z M 18.490234 30.841797 A 2.5 2.5 0 0 0 15.990234 33.341797 A 2.5 2.5 0 0 0 18.490234 35.841797 A 2.5 2.5 0 0 0 20.990234 33.341797 A 2.5 2.5 0 0 0 18.490234 30.841797 z M 65.199219 31.660156 L 65.394531 31.962891 L 66.185547 33.189453 L 55.25 44.125 L 54.148438 42.710938 L 65.199219 31.660156 z M 77.990234 34.5 A 1.9999999 1.9999999 0 0 0 76 36.5 A 1.9999999 1.9999999 0 0 0 78 38.5 A 1.9999999 1.9999999 0 0 0 80 36.5 A 1.9999999 1.9999999 0 0 0 78 34.5 A 1.9999999 1.9999999 0 0 0 77.990234 34.5 z M 85.990234 34.5 A 1.9999999 1.9999999 0 0 0 84 36.5 A 1.9999999 1.9999999 0 0 0 86 38.5 A 1.9999999 1.9999999 0 0 0 88 36.5 A 1.9999999 1.9999999 0 0 0 86 34.5 A 1.9999999 1.9999999 0 0 0 85.990234 34.5 z M 67.296875 34.908203 L 67.6875 35.513672 L 68.283203 36.4375 L 57.59375 47.126953 L 56.492188 45.712891 L 67.296875 34.908203 z M 13.490234 35.841797 A 2.5 2.5 0 0 0 10.990234 38.341797 A 2.5 2.5 0 0 0 13.490234 40.841797 A 2.5 2.5 0 0 0 15.990234 38.341797 A 2.5 2.5 0 0 0 13.490234 35.841797 z M 69.392578 38.15625 L 70.380859 39.685547 L 59.9375 50.128906 L 58.833984 48.714844 L 69.392578 38.15625 z M 81.990234 38.5 A 1.9999999 1.9999999 0 0 0 80 40.5 A 1.9999999 1.9999999 0 0 0 82 42.5 A 1.9999999 1.9999999 0 0 0 84 40.5 A 1.9999999 1.9999999 0 0 0 82 38.5 A 1.9999999 1.9999999 0 0 0 81.990234 38.5 z M 89.990234 38.5 A 1.9999999 1.9999999 0 0 0 88 40.5 A 1.9999999 1.9999999 0 0 0 90 42.5 A 1.9999999 1.9999999 0 0 0 92 40.5 A 1.9999999 1.9999999 0 0 0 90 38.5 A 1.9999999 1.9999999 0 0 0 89.990234 38.5 z M 8.4179688 40.841797 A 2.5 2.5 0 0 0 5.9902344 43.341797 A 2.5 2.5 0 0 0 8.4902344 45.841797 A 2.5 2.5 0 0 0 10.990234 43.341797 A 2.5 2.5 0 0 0 8.4902344 40.841797 A 2.5 2.5 0 0 0 8.4179688 40.841797 z M 71.490234 41.404297 L 72.478516 42.933594 L 62.28125 53.130859 L 61.177734 51.716797 L 71.490234 41.404297 z M 33.304688 44.478516 A 5.5747089 5.5747089 0 0 1 33.326172 44.478516 A 5.5747089 5.5747089 0 0 1 38.900391 50.052734 A 5.5747089 5.5747089 0 0 1 33.326172 55.626953 A 5.5747089 5.5747089 0 0 1 27.751953 50.052734 A 5.5747089 5.5747089 0 0 1 33.304688 44.478516 z M 73.587891 44.652344 L 74.574219 46.183594 L 72.15625 48.601562 L 66.560547 51.679688 L 73.587891 44.652344 z M 13.417969 45.841797 A 2.5 2.5 0 0 0 10.990234 48.341797 A 2.5 2.5 0 0 0 13.490234 50.841797 A 2.5 2.5 0 0 0 15.990234 48.341797 A 2.5 2.5 0 0 0 13.490234 45.841797 A 2.5 2.5 0 0 0 13.417969 45.841797 z M 95.5 46.617188 L 95.5 47.740234 L 94.507812 46.748047 L 95.5 46.617188 z M 92.009766 47.080078 L 95.5 50.570312 L 95.5 53.085938 L 89.787109 47.373047 L 90.425781 47.289062 L 92.009766 47.080078 z M 87.291016 47.705078 L 95.5 55.914062 L 95.5 58.431641 C 91.427534 54.359174 86.544776 49.476417 85.068359 48 L 87.291016 47.705078 z M 82.570312 48.330078 L 95.5 61.259766 L 95.5 63.777344 L 80.347656 48.625 L 82.570312 48.330078 z M 77.849609 48.955078 C 80.170875 51.276343 88.14329 59.248758 95.5 66.605469 L 95.5 69.123047 L 76.185547 49.808594 L 77.703125 48.974609 L 77.849609 48.955078 z M 74.361328 50.8125 L 95.5 71.951172 L 95.5 74.46875 L 72.738281 51.705078 L 74.361328 50.8125 z M 70.912109 52.708984 L 95.5 77.296875 L 95.5 79.814453 L 69.289062 53.603516 L 70.912109 52.708984 z M 6.0644531 53.144531 L 7.8476562 53.876953 L 4.5 57.224609 L 4.5 54.708984 L 6.0644531 53.144531 z M 67.464844 54.605469 L 95.5 82.642578 L 95.5 83 L 93.341797 83 L 65.841797 55.5 L 67.464844 54.605469 z M 9.8515625 54.703125 L 9.9238281 54.732422 L 11.632812 55.4375 L 4.5 62.570312 L 4.5 60.054688 L 9.8515625 54.703125 z M 13.638672 56.261719 L 15.015625 56.830078 L 15.419922 56.996094 L 4.5 67.916016 L 4.5 65.400391 L 13.638672 56.261719 z M 64.017578 56.503906 C 72.482445 64.969123 82.459448 74.94722 90.511719 83 L 87.996094 83 L 62.605469 57.609375 L 63.294922 56.900391 L 64.017578 56.503906 z M 17.423828 57.820312 L 18.845703 58.40625 L 19.0625 58.699219 L 4.5 73.261719 L 4.5 70.746094 C 8.7164048 66.529148 12.656772 62.587577 17.423828 57.820312 z M 61.210938 59.042969 L 85.167969 83 L 82.650391 83 L 59.96875 60.318359 L 61.210938 59.042969 z M 20.269531 60.320312 L 21.34375 61.763672 L 4.5 78.607422 L 4.5 76.089844 L 20.269531 60.320312 z M 58.574219 61.751953 L 79.822266 83 L 77.304688 83 L 57.333984 63.029297 L 58.574219 61.751953 z M 22.550781 63.384766 L 23.625 64.828125 L 5.453125 83 L 4.5 83 L 4.5 81.435547 L 22.550781 63.384766 z M 55.939453 64.462891 L 74.476562 83 L 71.958984 83 L 54.699219 65.738281 L 54.699219 65.736328 L 55.939453 64.462891 z M 24.832031 66.449219 L 25.083984 66.789062 L 25.904297 67.892578 L 10.798828 83 L 8.28125 83 L 24.832031 66.449219 z M 53.748047 67.615234 L 69.130859 83 L 66.615234 83 L 52.902344 69.287109 C 53.08586 68.925873 53.639734 67.828305 53.748047 67.615234 z M 27.351562 69.275391 L 29.414062 69.728516 L 16.142578 83 L 13.626953 83 L 27.351562 69.275391 z M 31.734375 70.238281 L 33.796875 70.691406 L 21.488281 83 L 18.972656 83 L 31.734375 70.238281 z M 51.951172 71.164062 L 63.785156 83 L 61.269531 83 L 51.105469 72.835938 C 51.41496 72.225707 51.69531 71.668121 51.951172 71.164062 z M 34.769531 72.546875 L 31.636719 78.197266 L 26.833984 83 L 24.316406 83 L 34.769531 72.546875 z M 50.154297 74.712891 L 58.441406 83 L 55.923828 83 L 49.306641 76.382812 C 49.696111 75.61313 49.796855 75.418452 50.154297 74.712891 z M 48.357422 78.261719 L 53.095703 83 L 50.578125 83 L 47.509766 79.931641 C 47.933596 79.091297 47.944065 79.079897 48.357422 78.261719 z M 46.564453 81.814453 L 47.75 83 L 45.970703 83 C 46.164327 82.612549 46.350605 82.239248 46.564453 81.814453 z "
     style="color:#000000;font-style:normal;font-variant:normal;font-weight:normal;font-stretch:normal;font-size:medium;line-height:normal;font-family:sans-serif;font-variant-ligatures:normal;font-variant-position:normal;font-variant-caps:normal;font-variant-numeric:normal;font-variant-alternates:normal;font-variant-east-asian:normal;font-feature-settings:normal;font-variation-settings:normal;text-indent:0;text-align:start;text-decoration:none;text-decoration-line:none;text-decoration-style:solid;text-decoration-color:#000000;letter-spacing:normal;word-spacing:normal;text-transform:none;writing-mode:lr-tb;direction:ltr;text-orientation:mixed;dominant-baseline:auto;baseline-shift:baseline;text-anchor:start;white-space:normal;shape-padding:0;shape-margin:0;inline-size:0;clip-rule:nonzero;display:inline;overflow:visible;visibility:visible;isolation:auto;mix-blend-mode:normal;color-interpolation:sRGB;color-interpolation-filters:linearRGB;solid-color:#000000;solid-opacity:1;vector-effect:none;fill:#000080;fill-opacity:1;fill-rule:nonzero;stroke:none;stroke-width:5;stroke-linecap:round;stroke-linejoin:round;stroke-miterlimit:4;stroke-dasharray:none;stroke-dashoffset:20;stroke-opacity:1;color-rendering:auto;image-rendering:auto;shape-rendering:auto;text-rendering:auto;enable-background:accumulate;stop-color:#000000"
     id="path1680" />
</svg>
