<?xml version="1.0" encoding="UTF-8" standalone="no"?>
<svg
   xmlns:dc="http://purl.org/dc/elements/1.1/"
   xmlns:cc="http://creativecommons.org/ns#"
   xmlns:rdf="http://www.w3.org/1999/02/22-rdf-syntax-ns#"
   xmlns:svg="http://www.w3.org/2000/svg"
   xmlns="http://www.w3.org/2000/svg"
   xmlns:sodipodi="http://sodipodi.sourceforge.net/DTD/sodipodi-0.dtd"
   xmlns:inkscape="http://www.inkscape.org/namespaces/inkscape"
   version="1.1"
   width="100"
   height="100"
   id="svg4460"
   sodipodi:docname="uEA53-map.svg"
   inkscape:version="1.0 (4035a4fb49, 2020-05-01)">
  <sodipodi:namedview
     pagecolor="#ffffff"
     bordercolor="#666666"
     borderopacity="1"
     objecttolerance="10"
     gridtolerance="10"
     guidetolerance="10"
     inkscape:pageopacity="0"
     inkscape:pageshadow="2"
     inkscape:window-width="1920"
     inkscape:window-height="1017"
     id="namedview11"
     showgrid="false"
     inkscape:zoom="5.7134228"
     inkscape:cx="51.556115"
     inkscape:cy="62.919572"
     inkscape:window-x="-8"
     inkscape:window-y="-8"
     inkscape:window-maximized="1"
     inkscape:current-layer="svg4460"
     inkscape:document-rotation="0" />
  <defs
     id="defs4462" />
  <metadata
     id="metadata4465">
    <rdf:RDF>
      <cc:Work
         rdf:about="">
        <dc:format>image/svg+xml</dc:format>
        <dc:type
           rdf:resource="http://purl.org/dc/dcmitype/StillImage" />
        <dc:title />
      </cc:Work>
    </rdf:RDF>
  </metadata>
  <path
     d="m 70.285069,9.9651987 a 1.6012837,1.6012837 0 0 0 -1.63865,1.6094613 l 0.369008,64.607843 a 1.6012837,1.6012837 0 0 0 0.925651,1.44476 l 25.282325,11.74366 A 1.6012837,1.6012837 0 0 0 97.5,87.917823 V 23.483017 A 1.6012837,1.6012837 0 0 0 96.57435,22.029915 L 70.923016,10.11322 A 1.6012837,1.6012837 0 0 0 70.285069,9.9651987 Z m -7.530284,0.3606693 a 1.6012837,1.6012837 0 0 0 -0.652542,0.14802 L 35.752502,22.715813 a 1.6012837,1.6012837 0 0 0 -0.925651,1.461442 l 0.366925,64.263848 a 1.6012837,1.6012837 0 0 0 2.276598,1.44476 l 26.349742,-12.24192 a 1.6012837,1.6012837 0 0 0 0.925648,-1.46144 L 64.37884,11.918652 A 1.6012837,1.6012837 0 0 0 62.754785,10.325868 Z M 4.1386487,10.642757 a 1.6012837,1.6012837 0 0 0 -1.638649,1.601124 v 64.432712 a 1.6012837,1.6012837 0 0 0 0.925649,1.45102 l 25.2218663,11.71864 a 1.6012837,1.6012837 0 0 0 2.276598,-1.45935 L 30.555105,23.779059 A 1.6012837,1.6012837 0 0 0 29.629454,22.334295 L 4.7765967,10.790777 a 1.6012837,1.6012837 0 0 0 -0.637948,-0.14802 z"
     style="color:#000000;font-style:normal;font-variant:normal;font-weight:normal;font-stretch:normal;font-size:medium;line-height:normal;font-family:sans-serif;font-variant-ligatures:normal;font-variant-position:normal;font-variant-caps:normal;font-variant-numeric:normal;font-variant-alternates:normal;font-variant-east-asian:normal;font-feature-settings:normal;font-variation-settings:normal;text-indent:0;text-align:start;text-decoration:none;text-decoration-line:none;text-decoration-style:solid;text-decoration-color:#000000;letter-spacing:normal;word-spacing:normal;text-transform:none;writing-mode:lr-tb;direction:ltr;text-orientation:mixed;dominant-baseline:auto;baseline-shift:baseline;text-anchor:start;white-space:normal;shape-padding:0;shape-margin:0;inline-size:0;clip-rule:nonzero;display:inline;overflow:visible;visibility:visible;isolation:auto;mix-blend-mode:normal;color-interpolation:sRGB;color-interpolation-filters:linearRGB;solid-color:#000000;solid-opacity:1;vector-effect:none;fill:#000080;fill-opacity:1;fill-rule:evenodd;stroke:none;stroke-width:3.20225;stroke-linecap:round;stroke-linejoin:round;stroke-miterlimit:4;stroke-dasharray:none;stroke-dashoffset:0;stroke-opacity:1;color-rendering:auto;image-rendering:auto;shape-rendering:auto;text-rendering:auto;enable-background:accumulate;stop-color:#000000"
     id="path870" />
</svg>
