<?xml version="1.0" encoding="UTF-8" standalone="no"?>
<svg
   xmlns:dc="http://purl.org/dc/elements/1.1/"
   xmlns:cc="http://creativecommons.org/ns#"
   xmlns:rdf="http://www.w3.org/1999/02/22-rdf-syntax-ns#"
   xmlns:svg="http://www.w3.org/2000/svg"
   xmlns="http://www.w3.org/2000/svg"
   id="svg4460"
   height="100"
   width="100"
   version="1.1">
  <defs
     id="defs4462" />
  <metadata
     id="metadata4465">
    <rdf:RDF>
      <cc:Work
         rdf:about="">
        <dc:format>image/svg+xml</dc:format>
        <dc:type
           rdf:resource="http://purl.org/dc/dcmitype/StillImage" />
        <dc:title></dc:title>
      </cc:Work>
    </rdf:RDF>
  </metadata>
  <path
     d="M 34.265625 0 C 28.071055 0 22.982422 5.0905857 22.982422 11.285156 C 22.982422 14.779478 24.603051 17.918659 27.126953 19.994141 L 18.021484 38.810547 C 17.45391 38.720816 16.877218 38.662109 16.285156 38.662109 C 10.090585 38.662109 5 43.750742 5 49.945312 C 5 56.139884 10.090585 61.228517 16.285156 61.228516 C 22.265123 61.228516 27.168121 56.473681 27.503906 50.572266 A 3.1468657 3.1468657 0 0 0 27.566406 49.945312 A 3.1468657 3.1468657 0 0 0 27.503906 49.318359 C 27.328022 46.22481 25.888461 43.45567 23.705078 41.511719 L 32.916016 22.478516 C 33.360127 22.532486 33.807839 22.566406 34.265625 22.566406 C 38.413595 22.566407 42.041283 20.279346 43.988281 16.908203 L 59.998047 21.138672 C 60.838144 26.394438 65.347842 30.474713 70.789062 30.640625 L 77.087891 49.841797 C 74.277777 51.901762 72.433594 55.215907 72.433594 58.9375 C 72.433594 65.132071 77.522227 70.218751 83.716797 70.21875 C 89.696766 70.218751 94.60171 65.465868 94.9375 59.564453 A 3.1468657 3.1468657 0 0 0 95 58.9375 A 3.1468657 3.1468657 0 0 0 94.9375 58.310547 C 94.601955 52.408904 89.69693 47.652344 83.716797 47.652344 C 83.476689 47.652344 83.242416 47.67244 83.005859 47.6875 L 76.888672 29.039062 C 79.991393 27.159582 82.132063 23.82728 82.349609 20.003906 A 3.1468657 3.1468657 0 0 0 82.412109 19.376953 A 3.1468657 3.1468657 0 0 0 82.349609 18.75 C 82.01407 12.848357 77.109038 8.0917969 71.128906 8.0917969 C 66.543712 8.0917969 62.571025 10.884489 60.8125 14.845703 L 45.509766 10.798828 A 3.1468657 3.1468657 0 0 0 45.486328 10.658203 C 45.150784 4.7565608 40.245758 0 34.265625 0 z M 34.265625 6.2929688 C 37.058811 6.2929688 39.255859 8.4919709 39.255859 11.285156 C 39.255859 14.078341 37.058811 16.273438 34.265625 16.273438 C 31.47244 16.273438 29.275391 14.078341 29.275391 11.285156 C 29.275391 8.4919708 31.47244 6.2929687 34.265625 6.2929688 z M 71.128906 14.384766 C 73.922091 14.384766 76.119141 16.583768 76.119141 19.376953 C 76.119141 22.170139 73.922091 24.365234 71.128906 24.365234 C 68.335721 24.365234 66.138672 22.170139 66.138672 19.376953 C 66.138672 16.583768 68.335721 14.384766 71.128906 14.384766 z M 16.285156 44.955078 C 19.078341 44.955078 21.273438 47.152128 21.273438 49.945312 C 21.273438 52.738498 19.078341 54.935547 16.285156 54.935547 C 13.491971 54.935547 11.292969 52.738498 11.292969 49.945312 C 11.292969 47.152127 13.491971 44.955078 16.285156 44.955078 z M 83.716797 53.945312 C 86.509983 53.945312 88.707031 56.144315 88.707031 58.9375 C 88.707031 61.730686 86.509983 63.925781 83.716797 63.925781 C 80.923612 63.925781 78.726562 61.730686 78.726562 58.9375 C 78.726562 56.144315 80.923612 53.945313 83.716797 53.945312 z M 5 76 L 5 100 L 11.269531 100 L 88.730469 100 L 93.5625 100 L 95 100 L 95 76 L 88.730469 76 L 88.730469 93.896484 L 81.042969 93.896484 L 81.042969 81.173828 L 74.773438 81.173828 L 74.773438 93.896484 L 67.091797 93.896484 L 67.091797 81.173828 L 60.824219 81.173828 L 60.824219 93.896484 L 53.134766 93.896484 L 53.134766 76 L 46.865234 76 L 46.865234 93.896484 L 39.175781 93.896484 L 39.175781 81.173828 L 32.908203 81.173828 L 32.908203 93.896484 L 25.226562 93.896484 L 25.226562 81.173828 L 18.957031 81.173828 L 18.957031 93.896484 L 11.269531 93.896484 L 11.269531 76 L 5 76 z "
     style="color:#000000;font-style:normal;font-variant:normal;font-weight:normal;font-stretch:normal;font-size:medium;line-height:normal;font-family:sans-serif;text-indent:0;text-align:start;text-decoration:none;text-decoration-line:none;text-decoration-style:solid;text-decoration-color:#000000;letter-spacing:normal;word-spacing:normal;text-transform:none;writing-mode:lr-tb;direction:ltr;baseline-shift:baseline;text-anchor:start;white-space:normal;clip-rule:nonzero;display:inline;overflow:visible;visibility:visible;opacity:1;isolation:auto;mix-blend-mode:normal;color-interpolation:sRGB;color-interpolation-filters:linearRGB;solid-color:#000000;solid-opacity:1;fill:#000080;fill-opacity:1;fill-rule:evenodd;stroke:none;stroke-width:8.24735;stroke-linecap:butt;stroke-linejoin:miter;stroke-miterlimit:4;stroke-dasharray:none;stroke-dashoffset:0;stroke-opacity:1;color-rendering:auto;image-rendering:auto;shape-rendering:auto;text-rendering:auto;enable-background:accumulate"
     id="path846" />
</svg>
