<?xml version="1.0" encoding="UTF-8" standalone="no"?>
<svg
   xmlns:dc="http://purl.org/dc/elements/1.1/"
   xmlns:cc="http://creativecommons.org/ns#"
   xmlns:rdf="http://www.w3.org/1999/02/22-rdf-syntax-ns#"
   xmlns:svg="http://www.w3.org/2000/svg"
   xmlns="http://www.w3.org/2000/svg"
   xmlns:sodipodi="http://sodipodi.sourceforge.net/DTD/sodipodi-0.dtd"
   xmlns:inkscape="http://www.inkscape.org/namespaces/inkscape"
   sodipodi:docname="uEA3C-modify-line.svg"
   inkscape:version="1.0 (4035a4fb49, 2020-05-01)"
   id="svg4460"
   height="100"
   width="100"
   version="1.1">
  <sodipodi:namedview
     inkscape:document-rotation="0"
     inkscape:current-layer="svg4460"
     inkscape:window-maximized="1"
     inkscape:window-y="-8"
     inkscape:window-x="-8"
     inkscape:cy="23.767421"
     inkscape:cx="68.500949"
     inkscape:zoom="3.4766084"
     showgrid="false"
     id="namedview11"
     inkscape:window-height="1017"
     inkscape:window-width="1920"
     inkscape:pageshadow="2"
     inkscape:pageopacity="0"
     guidetolerance="10"
     gridtolerance="10"
     objecttolerance="10"
     borderopacity="1"
     bordercolor="#666666"
     pagecolor="#ffffff" />
  <defs
     id="defs4462" />
  <metadata
     id="metadata4465">
    <rdf:RDF>
      <cc:Work
         rdf:about="">
        <dc:format>image/svg+xml</dc:format>
        <dc:type
           rdf:resource="http://purl.org/dc/dcmitype/StillImage" />
        <dc:title />
      </cc:Work>
    </rdf:RDF>
  </metadata>
  <path
     id="path4181"
     style="color:#000000;font-style:normal;font-variant:normal;font-weight:normal;font-stretch:normal;font-size:medium;line-height:normal;font-family:sans-serif;text-indent:0;text-align:start;text-decoration:none;text-decoration-line:none;text-decoration-style:solid;text-decoration-color:#000000;letter-spacing:normal;word-spacing:normal;text-transform:none;writing-mode:lr-tb;direction:ltr;baseline-shift:baseline;text-anchor:start;white-space:normal;clip-rule:nonzero;display:inline;overflow:visible;visibility:visible;opacity:1;isolation:auto;mix-blend-mode:normal;color-interpolation:sRGB;color-interpolation-filters:linearRGB;solid-color:#000000;solid-opacity:1;fill:#000080;fill-opacity:1;fill-rule:nonzero;stroke:none;stroke-width:6.27041;stroke-linecap:round;stroke-linejoin:round;stroke-miterlimit:4;stroke-dasharray:none;stroke-dashoffset:0;stroke-opacity:1;marker:none;color-rendering:auto;image-rendering:auto;shape-rendering:auto;text-rendering:auto;enable-background:accumulate"
     d="m 33.417969,11 c -3.496817,0 -6.672176,1.453561 -8.960938,3.78125 -2.30986,2.281 -3.751953,5.4401 -3.751953,8.914062 0,3.373332 1.363158,6.445462 3.556641,8.708985 L 14.015625,53.003906 c -0.139426,-0.01637 -0.279151,-0.0313 -0.419922,-0.04297 -0.331392,-0.04632 -0.661953,-0.09375 -1.005859,-0.09375 C 5.6732032,52.867187 0,58.540401 0,65.457031 c 0,6.91662 5.6732032,12.59961 12.589844,12.59961 6.91664,0 12.589844,-5.68299 12.589844,-12.59961 0,-3.42505 -1.396196,-6.539066 -3.640626,-8.816406 L 31.734375,36.142578 c 0.499597,0.06144 1.004319,0.101563 1.519531,0.101563 1.913182,0 3.721057,-0.448973 5.34375,-1.228516 0.0095,-0.0044 0.01977,-0.0073 0.0293,-0.01172 L 75.90625,71.6875 c -0.6851,1.54853 -1.085938,3.244379 -1.085938,5.037109 0,6.91662 5.673204,12.589844 12.589844,12.589844 5.789478,0 10.693353,-3.980199 12.142578,-9.332031 0.06238,-0.217529 0.121116,-0.436166 0.171875,-0.658203 0.01049,-0.04932 0.01939,-0.09892 0.0293,-0.148438 0.135694,-0.628442 0.237943,-1.269593 0.275394,-1.927734 0.0467,-0.229484 0.0703,-0.463077 0.0703,-0.697266 -5e-5,-0.234189 -0.0236,-0.467781 -0.0703,-0.697265 C 99.703969,70.13154 95.515683,65.381184 90.041016,64.255859 l -0.197266,-2.652343 -5.421875,0.408203 0.177734,2.357422 c -1.065597,0.260928 -2.085324,0.646373 -3.027343,1.162109 L 44.626953,29.173828 c 0.74058,-1.471887 1.191268,-3.09201 1.298828,-4.816406 l 6.328125,0.253906 0.210938,-5.429687 -7.396485,-0.294922 C 43.190579,14.282072 38.6714,11 33.417969,11 Z m 50.800781,0 c -6.91664,0 -12.589844,5.673217 -12.589844,12.589844 0,3.453463 1.426982,6.5743 3.708985,8.841797 1.874958,1.889183 4.222937,2.998379 6.779297,3.503906 0.115835,0.01989 0.228856,0.04775 0.345703,0.06445 l 0.326171,4.335938 5.421876,-0.408204 -0.328126,-4.361328 c 5.137851,-1.588839 8.933594,-6.34142 8.933594,-11.976562 C 96.816406,16.673218 91.13534,11 84.21875,11 Z m -0.02148,7.023438 c 3.10663,-10e-7 5.548828,2.44415 5.548828,5.550781 0,3.10663 -2.442198,5.548828 -5.548828,5.548828 -3.106631,0 -5.550782,-2.442198 -5.550782,-5.548828 0,-3.106631 2.444151,-5.550782 5.550782,-5.550781 z m -50.94336,0.121093 c 3.106631,0 5.550782,2.444151 5.550782,5.550781 0,3.106632 -2.444151,5.548829 -5.550782,5.548829 -3.10663,0 -5.548828,-2.442198 -5.548828,-5.548829 0,-3.10663 2.442198,-5.550781 5.548828,-5.550781 z m 24.640625,1.248047 -0.210937,5.429688 10.857422,0.433593 0.21289,-5.429687 z m 30.72461,25.955078 -5.421875,0.408203 0.816406,10.84375 5.421875,-0.408203 z m -76.050782,14.5625 c 3.106631,0 5.548829,2.444152 5.548829,5.550782 0,3.106628 -2.442199,5.548828 -5.548829,5.548828 -3.1066282,0 -5.5507807,-2.442201 -5.5507809,-5.548828 -10e-8,-3.106632 2.4441524,-5.550782 5.5507809,-5.550782 z M 87.550781,71 c 3.10663,0 5.548828,2.444151 5.548828,5.550781 0,3.10663 -2.442198,5.548828 -5.548828,5.548828 C 84.444151,82.099609 82,79.657412 82,76.550781 82,73.444151 84.444151,71 87.550781,71 Z"
     sodipodi:nodetypes="scsccccsssccscccssccccccccccccccccsssccccccssssssssssssccccccccccssssssssss" />
</svg>
