<?xml version="1.0" encoding="UTF-8" standalone="no"?>
<svg
   xmlns:dc="http://purl.org/dc/elements/1.1/"
   xmlns:cc="http://creativecommons.org/ns#"
   xmlns:rdf="http://www.w3.org/1999/02/22-rdf-syntax-ns#"
   xmlns:svg="http://www.w3.org/2000/svg"
   xmlns="http://www.w3.org/2000/svg"
   xmlns:sodipodi="http://sodipodi.sourceforge.net/DTD/sodipodi-0.dtd"
   xmlns:inkscape="http://www.inkscape.org/namespaces/inkscape"
   inkscape:version="1.0 (4035a4fb49, 2020-05-01)"
   sodipodi:docname="multipoint.svg"
   id="svg4460"
   height="100"
   width="100"
   version="1.1">
  <sodipodi:namedview
     inkscape:document-rotation="0"
     inkscape:current-layer="svg4460"
     inkscape:window-maximized="1"
     inkscape:window-y="-8"
     inkscape:window-x="-8"
     inkscape:cy="55.721416"
     inkscape:cx="41.469103"
     inkscape:zoom="5.7134227"
     showgrid="false"
     id="namedview11"
     inkscape:window-height="1017"
     inkscape:window-width="1920"
     inkscape:pageshadow="2"
     inkscape:pageopacity="0"
     guidetolerance="10"
     gridtolerance="10"
     objecttolerance="10"
     borderopacity="1"
     bordercolor="#666666"
     pagecolor="#ffffff"
     showguides="false" />
  <defs
     id="defs4462" />
  <metadata
     id="metadata4465">
    <rdf:RDF>
      <cc:Work
         rdf:about="">
        <dc:format>image/svg+xml</dc:format>
        <dc:type
           rdf:resource="http://purl.org/dc/dcmitype/StillImage" />
        <dc:title />
      </cc:Work>
    </rdf:RDF>
  </metadata>
  <path
     d="m 31.743165,12.041995 c -6.889711,0 -12.550781,5.659117 -12.550781,12.548828 0,6.889712 5.66107,12.552734 12.550781,12.552734 6.654534,-1e-6 12.112223,-5.296754 12.480469,-11.865234 a 3.5,3.5 0 0 0 0.07031,-0.6875 3.5,3.5 0 0 0 -0.07031,-0.691407 C 43.85315,17.333004 38.396195,12.041995 31.743165,12.041995 Z m 44.513672,6.884765 c -6.889712,0 -12.550781,5.659117 -12.550781,12.548828 0,6.889713 5.661069,12.550782 12.550781,12.550782 6.654538,-10e-7 12.112229,-5.294803 12.480468,-11.863282 a 3.5,3.5 0 0 0 0.07031,-0.6875 3.5,3.5 0 0 0 -0.07031,-0.691406 C 88.366826,24.217769 82.909874,18.92676 76.256837,18.92676 Z m -44.513672,0.115235 c 3.10663,0 5.550781,2.442197 5.550781,5.548828 0,3.10663 -2.444151,5.552733 -5.550781,5.552734 -3.106631,0 -5.550781,-2.446103 -5.550781,-5.552734 0,-3.106631 2.44415,-5.548828 5.550781,-5.548828 z m 44.513672,6.884765 c 3.106629,0 5.550777,2.442197 5.550777,5.548828 0,3.106631 -2.444148,5.550781 -5.550777,5.550782 -3.10663,0 -5.550781,-2.444151 -5.550781,-5.550782 0,-3.106631 2.444151,-5.548828 5.550781,-5.548828 z M 37.051759,62.858401 c -6.88971,0 -12.550781,5.659115 -12.550782,12.548824 0,6.88971 5.661072,12.55078 12.550782,12.55078 6.654539,0 12.112228,-5.294799 12.480468,-11.86328 a 3.5,3.5 0 0 0 0.07031,-0.6875 3.5,3.5 0 0 0 -0.07031,-0.6914 C 49.161747,68.149411 43.704789,62.858401 37.051759,62.858401 Z m 0,7 c 3.10663,0 5.550781,2.442195 5.550781,5.548824 0,3.10663 -2.444151,5.55078 -5.550781,5.55078 -3.106631,0 -5.550782,-2.444149 -5.550782,-5.55078 0,-3.106629 2.444151,-5.548824 5.550782,-5.548824 z"
     style="color:#000000;font-style:normal;font-variant:normal;font-weight:normal;font-stretch:normal;font-size:medium;line-height:normal;font-family:sans-serif;font-variant-ligatures:normal;font-variant-position:normal;font-variant-caps:normal;font-variant-numeric:normal;font-variant-alternates:normal;font-variant-east-asian:normal;font-feature-settings:normal;font-variation-settings:normal;text-indent:0;text-align:start;text-decoration:none;text-decoration-line:none;text-decoration-style:solid;text-decoration-color:#000000;letter-spacing:normal;word-spacing:normal;text-transform:none;writing-mode:lr-tb;direction:ltr;text-orientation:mixed;dominant-baseline:auto;baseline-shift:baseline;text-anchor:start;white-space:normal;shape-padding:0;shape-margin:0;inline-size:0;clip-rule:nonzero;display:inline;overflow:visible;visibility:visible;isolation:auto;mix-blend-mode:normal;color-interpolation:sRGB;color-interpolation-filters:linearRGB;solid-color:#000000;solid-opacity:1;vector-effect:none;fill:#000080;fill-opacity:1;fill-rule:nonzero;stroke:none;stroke-width:7;stroke-linecap:round;stroke-linejoin:round;stroke-miterlimit:4;stroke-dasharray:none;stroke-dashoffset:0;stroke-opacity:1;paint-order:normal;color-rendering:auto;image-rendering:auto;shape-rendering:auto;text-rendering:auto;enable-background:accumulate;stop-color:#000000"
     id="path944" />
</svg>
