<?xml version="1.0" encoding="UTF-8" standalone="no"?>
<svg
   xmlns:dc="http://purl.org/dc/elements/1.1/"
   xmlns:cc="http://creativecommons.org/ns#"
   xmlns:rdf="http://www.w3.org/1999/02/22-rdf-syntax-ns#"
   xmlns:svg="http://www.w3.org/2000/svg"
   xmlns="http://www.w3.org/2000/svg"
   xmlns:sodipodi="http://sodipodi.sourceforge.net/DTD/sodipodi-0.dtd"
   xmlns:inkscape="http://www.inkscape.org/namespaces/inkscape"
   inkscape:version="1.0 (4035a4fb49, 2020-05-01)"
   sodipodi:docname="uEA1F-poi-favorite-o.svg"
   id="svg4460"
   height="100"
   width="100"
   version="1.1">
  <sodipodi:namedview
     inkscape:document-rotation="0"
     inkscape:current-layer="svg4460"
     inkscape:window-maximized="1"
     inkscape:window-y="-8"
     inkscape:window-x="-8"
     inkscape:cy="25.197682"
     inkscape:cx="33.917399"
     inkscape:zoom="5.6568543"
     showgrid="false"
     id="namedview11"
     inkscape:window-height="1017"
     inkscape:window-width="1920"
     inkscape:pageshadow="2"
     inkscape:pageopacity="0"
     guidetolerance="10"
     gridtolerance="10"
     objecttolerance="10"
     borderopacity="1"
     bordercolor="#666666"
     pagecolor="#ffffff" />
  <defs
     id="defs4462" />
  <metadata
     id="metadata4465">
    <rdf:RDF>
      <cc:Work
         rdf:about="">
        <dc:format>image/svg+xml</dc:format>
        <dc:type
           rdf:resource="http://purl.org/dc/dcmitype/StillImage" />
        <dc:title />
      </cc:Work>
    </rdf:RDF>
  </metadata>
  <path
     d="M 50.001953 0 C 29.43854 0 12.439453 15.988025 12.439453 35.65625 C 12.439453 43.233982 14.985799 50.288092 19.263672 56.064453 L 43.673828 96.085938 L 43.777344 96.212891 C 45.703151 98.598753 47.879566 100.21971 50.4375 99.976562 C 52.995434 99.733418 54.655595 97.964518 56.21875 95.955078 L 56.300781 95.851562 L 83.28125 52.310547 L 83.298828 52.28125 C 83.929349 51.199634 84.39273 50.097561 84.789062 49.025391 C 86.564348 44.896125 87.560549 40.377506 87.560547 35.65625 C 87.560546 15.988386 70.565368 -4.7369516e-15 50.001953 0 z M 50.001953 5 C 67.982542 5 82.560547 18.876007 82.560547 35.65625 C 82.560549 39.695195 81.714811 43.547089 80.183594 47.09375 L 80.15625 47.158203 L 80.130859 47.224609 C 79.790986 48.151287 79.421077 49.002027 78.982422 49.755859 C 78.981022 49.758259 78.979916 49.761272 78.978516 49.763672 L 52.224609 92.935547 C 50.978716 94.517397 50.100862 94.984932 49.962891 94.998047 C 49.825745 95.011087 49.161145 94.878726 47.736328 93.142578 L 23.416016 53.271484 L 23.345703 53.177734 C 19.619131 48.182869 17.439453 42.155893 17.439453 35.65625 C 17.439453 18.876365 32.021366 5 50.001953 5 z M 43.175781 22.677734 C 36.340795 22.677734 30.808613 27.939125 30.785156 34.345703 L 30.785156 34.427734 L 30.792969 34.509766 C 31.381183 40.059819 35.968496 45.354309 40.421875 49.576172 C 44.650703 53.585158 48.540332 56.26282 48.90625 56.513672 L 49.742188 57.087891 L 50.587891 56.525391 C 50.96455 56.273747 55.134287 53.474211 59.554688 49.396484 C 64.220617 45.092223 68.944146 39.872432 69.033203 34.404297 L 69.033203 34.390625 L 69.033203 34.376953 C 69.029003 27.954878 63.483322 22.677734 56.636719 22.677734 C 54.492781 22.677978 52.486467 23.795727 50.394531 24.962891 L 49.90625 25.236328 L 49.417969 24.962891 C 47.326031 23.795728 45.319717 22.677978 43.175781 22.677734 z "
     style="color:#000000;font-style:normal;font-variant:normal;font-weight:normal;font-stretch:normal;font-size:medium;line-height:normal;font-family:sans-serif;font-variant-ligatures:normal;font-variant-position:normal;font-variant-caps:normal;font-variant-numeric:normal;font-variant-alternates:normal;font-variant-east-asian:normal;font-feature-settings:normal;font-variation-settings:normal;text-indent:0;text-align:start;text-decoration:none;text-decoration-line:none;text-decoration-style:solid;text-decoration-color:#000000;letter-spacing:normal;word-spacing:normal;text-transform:none;writing-mode:lr-tb;direction:ltr;text-orientation:mixed;dominant-baseline:auto;baseline-shift:baseline;text-anchor:start;white-space:normal;shape-padding:0;shape-margin:0;inline-size:0;clip-rule:nonzero;display:inline;overflow:visible;visibility:visible;isolation:auto;mix-blend-mode:normal;color-interpolation:sRGB;color-interpolation-filters:linearRGB;solid-color:#000000;solid-opacity:1;vector-effect:none;fill:#000080;fill-opacity:1;fill-rule:nonzero;stroke:none;stroke-width:5;stroke-linecap:butt;stroke-linejoin:miter;stroke-miterlimit:4;stroke-dasharray:none;stroke-dashoffset:0;stroke-opacity:1;color-rendering:auto;image-rendering:auto;shape-rendering:auto;text-rendering:auto;enable-background:accumulate;stop-color:#000000;stop-opacity:1;opacity:1"
     id="path832" />
</svg>
