<?xml version="1.0" encoding="UTF-8" standalone="no"?>
<svg
   xmlns:dc="http://purl.org/dc/elements/1.1/"
   xmlns:cc="http://creativecommons.org/ns#"
   xmlns:rdf="http://www.w3.org/1999/02/22-rdf-syntax-ns#"
   xmlns:svg="http://www.w3.org/2000/svg"
   xmlns="http://www.w3.org/2000/svg"
   xmlns:sodipodi="http://sodipodi.sourceforge.net/DTD/sodipodi-0.dtd"
   xmlns:inkscape="http://www.inkscape.org/namespaces/inkscape"
   inkscape:version="1.0 (4035a4fb49, 2020-05-01)"
   sodipodi:docname="poi.svg"
   id="svg4460"
   height="100"
   width="100"
   version="1.1">
  <sodipodi:namedview
     inkscape:document-rotation="0"
     inkscape:current-layer="svg4460"
     inkscape:window-maximized="1"
     inkscape:window-y="-8"
     inkscape:window-x="-8"
     inkscape:cy="70.031285"
     inkscape:cx="-78.460726"
     inkscape:zoom="2.02"
     showgrid="false"
     id="namedview11"
     inkscape:window-height="1017"
     inkscape:window-width="1920"
     inkscape:pageshadow="2"
     inkscape:pageopacity="0"
     guidetolerance="10"
     gridtolerance="10"
     objecttolerance="10"
     borderopacity="1"
     bordercolor="#666666"
     pagecolor="#ffffff" />
  <defs
     id="defs4462" />
  <metadata
     id="metadata4465">
    <rdf:RDF>
      <cc:Work
         rdf:about="">
        <dc:format>image/svg+xml</dc:format>
        <dc:type
           rdf:resource="http://purl.org/dc/dcmitype/StillImage" />
        <dc:title></dc:title>
      </cc:Work>
    </rdf:RDF>
  </metadata>
  <path
     d="M 50.001528,3.3861402e-7 C 30.763177,3.3861402e-7 15,15.718144 15,34.901534 c 0,7.432782 2.373565,14.339962 6.391689,20.019029 l 24.338528,42.073163 c 3.40849,4.452814 5.674917,3.607154 8.509014,-0.23458 L 81.083105,51.075788 C 81.625418,50.0948 82.050328,49.050173 82.421327,47.983517 84.078241,43.936622 85.000002,39.521943 85,34.901534 85,15.718144 69.23988,3.3861402e-7 50.001528,3.3861402e-7 Z m 0,16.35400066138598 c 10.359296,0 18.597616,8.21783 18.597618,18.547533 0,10.329703 -8.238322,18.544487 -18.597618,18.544487 -10.359299,0 -18.600672,-8.214784 -18.600672,-18.544487 0,-10.329703 8.241373,-18.547533 18.600672,-18.547533 z"
     style="fill:#000080;stroke-width:4.26019"
     id="path4135" />
</svg>
