<?xml version="1.0" encoding="UTF-8" standalone="no"?>
<svg
   xmlns:dc="http://purl.org/dc/elements/1.1/"
   xmlns:cc="http://creativecommons.org/ns#"
   xmlns:rdf="http://www.w3.org/1999/02/22-rdf-syntax-ns#"
   xmlns:svg="http://www.w3.org/2000/svg"
   xmlns="http://www.w3.org/2000/svg"
   xmlns:sodipodi="http://sodipodi.sourceforge.net/DTD/sodipodi-0.dtd"
   xmlns:inkscape="http://www.inkscape.org/namespaces/inkscape"
   version="1.1"
   width="100"
   height="100"
   id="svg4460"
   sodipodi:docname="uEA18-poi-alt-o.svg"
   inkscape:version="1.0 (4035a4fb49, 2020-05-01)">
  <sodipodi:namedview
     pagecolor="#ffffff"
     bordercolor="#666666"
     borderopacity="1"
     objecttolerance="10"
     gridtolerance="10"
     guidetolerance="10"
     inkscape:pageopacity="0"
     inkscape:pageshadow="2"
     inkscape:window-width="1920"
     inkscape:window-height="1017"
     id="namedview11"
     showgrid="false"
     inkscape:zoom="0.71417785"
     inkscape:cx="-47.995377"
     inkscape:cy="143.26476"
     inkscape:window-x="-8"
     inkscape:window-y="-8"
     inkscape:window-maximized="1"
     inkscape:current-layer="svg4460"
     inkscape:document-rotation="0" />
  <defs
     id="defs4462" />
  <metadata
     id="metadata4465">
    <rdf:RDF>
      <cc:Work
         rdf:about="">
        <dc:format>image/svg+xml</dc:format>
        <dc:type
           rdf:resource="http://purl.org/dc/dcmitype/StillImage" />
        <dc:title />
      </cc:Work>
    </rdf:RDF>
  </metadata>
  <path
     id="path832"
     d="M 50.035156 0 C 43.302811 -0.015127873 36.576357 1.9654603 30.539062 5.9433594 C 26.974884 8.2916419 22.685645 12.602183 20.259766 16.240234 C 14.297964 25.182399 12.082137 35.786949 13.916016 46.521484 C 14.498642 49.932901 15.123523 52.11212 16.59375 55.876953 C 21.549979 68.569623 30.580056 81.762525 43.390625 95.251953 C 44.238594 96.144824 45.080767 96.998777 45.777344 97.675781 C 46.001243 97.89339 46.183188 98.059479 46.375 98.238281 L 46.375 98.505859 L 47.578125 99.236328 C 48.055632 99.526445 48.666267 99.870079 49.533203 99.976562 C 50.400139 100.08305 51.354346 99.821912 52.033203 99.439453 C 53.390917 98.674536 54.283477 97.628992 55.910156 95.867188 C 70.384567 80.189952 78.952159 67.676224 83.695312 54.994141 C 86.153081 48.418334 87.102834 42.321416 86.564453 36.134766 C 85.915459 28.675504 83.7128 22.285453 79.683594 16.230469 C 77.304154 12.655062 73.013864 8.3051866 69.564453 6.0273438 C 63.505485 2.0259267 56.767502 0.015127873 50.035156 0 z M 50.027344 4.9335938 C 55.767472 4.9468532 61.516001 6.7026355 66.810547 10.199219 C 69.254164 11.812878 73.727231 16.308796 75.519531 19.001953 C 79.128433 24.425317 80.996437 29.815341 81.583984 36.568359 C 82.05503 41.981245 81.266916 47.210316 79.011719 53.244141 C 74.582472 65.08603 66.477483 77.050013 52.236328 92.474609 C 50.872405 93.951832 50.220766 94.497943 49.939453 94.728516 C 49.753186 94.558167 49.536057 94.354575 49.263672 94.089844 C 48.629054 93.473058 47.819575 92.655115 47.015625 91.808594 C 34.51988 78.650672 25.883045 65.921653 21.25 54.056641 C 19.835013 50.433261 19.39077 48.882623 18.84375 45.679688 C 17.212473 36.131073 19.146174 26.923817 24.419922 19.013672 C 26.271448 16.236969 30.660498 11.850321 33.291016 10.117188 C 38.555216 6.648671 44.287215 4.9203343 50.027344 4.9335938 z M 50.890625 18.066406 C 49.085752 18.003686 47.258619 18.151096 45.683594 18.488281 L 45.683594 18.486328 C 42.420875 19.184621 39.032865 20.955712 36.583984 23.234375 C 32.368447 27.156666 30.177734 32.147639 30.177734 37.861328 C 30.177734 41.175824 30.776449 43.743124 32.251953 46.759766 C 33.28623 48.87414 34.06444 49.938411 35.972656 51.835938 C 37.667368 53.521249 38.904704 54.488608 40.464844 55.289062 C 42.899442 56.53823 45.196208 57.286972 47.605469 57.564453 L 50.390625 57.884766 L 50.390625 57.589844 C 55.28665 57.492951 59.921087 55.753923 63.515625 52.375 C 67.722047 48.421349 69.832031 43.584102 69.832031 37.861328 C 69.832031 32.0756 67.68651 27.234782 63.375 23.222656 C 61.339217 21.328666 58.771088 19.848898 55.966797 18.902344 C 54.479171 18.40011 52.695498 18.129126 50.890625 18.066406 z M 50.771484 23.234375 C 52.333213 23.299394 53.820969 23.456218 54.367188 23.640625 C 56.537611 24.373225 58.533321 25.547362 59.96875 26.882812 C 63.511514 30.179573 64.832031 33.179008 64.832031 37.861328 C 64.832031 42.47817 63.509834 45.517945 60.089844 48.732422 C 56.853824 51.774331 52.741116 53.120581 48.177734 52.595703 C 48.177098 52.59563 48.176418 52.595777 48.175781 52.595703 C 46.39068 52.389882 44.788145 51.88855 42.748047 50.841797 C 41.591551 50.248438 41.049903 49.834264 39.498047 48.291016 C 37.676943 46.480114 37.705798 46.528417 36.744141 44.5625 C 35.475988 41.969785 35.177734 40.688824 35.177734 37.861328 C 35.177734 33.329907 36.619752 30.028734 39.988281 26.894531 C 41.592179 25.402118 44.609129 23.830966 46.730469 23.376953 C 47.573433 23.196489 49.209755 23.169356 50.771484 23.234375 z "
     style="color:#000000;font-style:normal;font-variant:normal;font-weight:normal;font-stretch:normal;font-size:medium;line-height:normal;font-family:sans-serif;font-variant-ligatures:normal;font-variant-position:normal;font-variant-caps:normal;font-variant-numeric:normal;font-variant-alternates:normal;font-variant-east-asian:normal;font-feature-settings:normal;font-variation-settings:normal;text-indent:0;text-align:start;text-decoration:none;text-decoration-line:none;text-decoration-style:solid;text-decoration-color:#000000;letter-spacing:normal;word-spacing:normal;text-transform:none;writing-mode:lr-tb;direction:ltr;text-orientation:mixed;dominant-baseline:auto;baseline-shift:baseline;text-anchor:start;white-space:normal;shape-padding:0;shape-margin:0;inline-size:0;clip-rule:nonzero;display:inline;overflow:visible;visibility:visible;isolation:auto;mix-blend-mode:normal;color-interpolation:sRGB;color-interpolation-filters:linearRGB;solid-color:#000000;solid-opacity:1;vector-effect:none;fill:#000080;fill-opacity:1;fill-rule:nonzero;stroke:none;stroke-width:5;stroke-linecap:butt;stroke-linejoin:miter;stroke-miterlimit:4;stroke-dasharray:none;stroke-dashoffset:0;stroke-opacity:1;color-rendering:auto;image-rendering:auto;shape-rendering:auto;text-rendering:auto;enable-background:accumulate;stop-color:#000000;stop-opacity:1;opacity:1" />
</svg>
