<?xml version="1.0" encoding="UTF-8" standalone="no"?>
<svg
   xmlns:dc="http://purl.org/dc/elements/1.1/"
   xmlns:cc="http://creativecommons.org/ns#"
   xmlns:rdf="http://www.w3.org/1999/02/22-rdf-syntax-ns#"
   xmlns:svg="http://www.w3.org/2000/svg"
   xmlns="http://www.w3.org/2000/svg"
   xmlns:sodipodi="http://sodipodi.sourceforge.net/DTD/sodipodi-0.dtd"
   xmlns:inkscape="http://www.inkscape.org/namespaces/inkscape"
   inkscape:version="1.0 (4035a4fb49, 2020-05-01)"
   sodipodi:docname="uEA1C-pois.svg"
   id="svg4460"
   height="100"
   width="100"
   version="1.1">
  <sodipodi:namedview
     inkscape:document-rotation="0"
     inkscape:current-layer="svg4460"
     inkscape:window-maximized="1"
     inkscape:window-y="-8"
     inkscape:window-x="-8"
     inkscape:cy="71.704083"
     inkscape:cx="-10.096162"
     inkscape:zoom="2.8567114"
     showgrid="false"
     id="namedview11"
     inkscape:window-height="1017"
     inkscape:window-width="1920"
     inkscape:pageshadow="2"
     inkscape:pageopacity="0"
     guidetolerance="10"
     gridtolerance="10"
     objecttolerance="10"
     borderopacity="1"
     bordercolor="#666666"
     pagecolor="#ffffff" />
  <defs
     id="defs4462" />
  <metadata
     id="metadata4465">
    <rdf:RDF>
      <cc:Work
         rdf:about="">
        <dc:format>image/svg+xml</dc:format>
        <dc:type
           rdf:resource="http://purl.org/dc/dcmitype/StillImage" />
        <dc:title />
      </cc:Work>
    </rdf:RDF>
  </metadata>
  <path
     d="M 35.751953 0 C 16.11376 0 -4.7369516e-15 16.064138 0 35.658203 C 0 43.19209 2.3969756 50.208112 6.4394531 55.978516 L 29.609375 96.037109 L 29.708984 96.166016 C 30.622947 97.360024 31.516366 98.300754 32.564453 98.994141 C 33.612541 99.687529 34.913363 100.10448 36.189453 99.976562 C 38.741632 99.720743 40.304028 97.91861 41.787109 95.908203 L 41.865234 95.802734 L 58.382812 67.695312 L 66.103516 81.041016 L 66.201172 81.169922 C 66.941686 82.137336 67.677879 82.919385 68.576172 83.513672 C 69.474464 84.107959 70.632466 84.485091 71.771484 84.371094 C 74.049519 84.143099 75.356037 82.578531 76.550781 80.958984 L 76.626953 80.853516 L 96.748047 46.613281 L 96.763672 46.583984 C 97.249415 45.705322 97.603641 44.821197 97.904297 43.964844 C 99.247294 40.667557 100 37.063556 100 33.300781 C 100 17.612356 87.09861 4.75 71.376953 4.75 C 66.640139 4.75 62.149382 5.9212022 58.199219 7.9804688 C 52.048359 2.9999954 44.230965 -2.0452322e-15 35.751953 0 z M 35.751953 20.535156 C 44.270968 20.535156 50.91992 27.174061 50.919922 35.658203 C 50.919922 44.142344 44.271911 50.775391 35.751953 50.775391 C 27.231993 50.775391 20.580078 44.141714 20.580078 35.658203 C 20.580078 27.174691 27.232935 20.535156 35.751953 20.535156 z M 71.376953 21.957031 C 77.787485 21.957031 82.757812 26.919276 82.757812 33.300781 C 82.757812 39.682284 77.787485 44.646484 71.376953 44.646484 C 71.025621 44.646484 70.679814 44.626289 70.337891 44.595703 C 71.0899 41.73598 71.500002 38.741816 71.5 35.658203 C 71.5 30.918016 70.54938 26.387868 68.841797 22.238281 C 69.654149 22.054762 70.500859 21.957031 71.376953 21.957031 z "
     style="color:#000000;font-style:normal;font-variant:normal;font-weight:normal;font-stretch:normal;font-size:medium;line-height:normal;font-family:sans-serif;font-variant-ligatures:normal;font-variant-position:normal;font-variant-caps:normal;font-variant-numeric:normal;font-variant-alternates:normal;font-variant-east-asian:normal;font-feature-settings:normal;font-variation-settings:normal;text-indent:0;text-align:start;text-decoration:none;text-decoration-line:none;text-decoration-style:solid;text-decoration-color:#000000;letter-spacing:normal;word-spacing:normal;text-transform:none;writing-mode:lr-tb;direction:ltr;text-orientation:mixed;dominant-baseline:auto;baseline-shift:baseline;text-anchor:start;white-space:normal;shape-padding:0;shape-margin:0;inline-size:0;clip-rule:nonzero;display:inline;overflow:visible;visibility:visible;isolation:auto;mix-blend-mode:normal;color-interpolation:sRGB;color-interpolation-filters:linearRGB;solid-color:#000000;solid-opacity:1;vector-effect:none;fill:#000080;fill-opacity:1;fill-rule:nonzero;stroke:none;stroke-width:4.99996;stroke-linecap:butt;stroke-linejoin:miter;stroke-miterlimit:4;stroke-dasharray:none;stroke-dashoffset:0;stroke-opacity:1;color-rendering:auto;image-rendering:auto;shape-rendering:auto;text-rendering:auto;enable-background:accumulate;stop-color:#000000"
     id="path834" />
  <path
     id="path854"
     d="m 68.912802,48.907851 -0.04824,0.126174 c 0.01569,-0.03832 0.02717,-0.07672 0.04267,-0.115041 0.0015,-0.0039 0.004,-0.0072 0.0056,-0.01113 z"
     style="color:#000000;font-style:normal;font-variant:normal;font-weight:normal;font-stretch:normal;font-size:medium;line-height:normal;font-family:sans-serif;font-variant-ligatures:normal;font-variant-position:normal;font-variant-caps:normal;font-variant-numeric:normal;font-variant-alternates:normal;font-variant-east-asian:normal;font-feature-settings:normal;font-variation-settings:normal;text-indent:0;text-align:start;text-decoration:none;text-decoration-line:none;text-decoration-style:solid;text-decoration-color:#000000;letter-spacing:normal;word-spacing:normal;text-transform:none;writing-mode:lr-tb;direction:ltr;text-orientation:mixed;dominant-baseline:auto;baseline-shift:baseline;text-anchor:start;white-space:normal;shape-padding:0;shape-margin:0;inline-size:0;clip-rule:nonzero;display:inline;overflow:visible;visibility:visible;isolation:auto;mix-blend-mode:normal;color-interpolation:sRGB;color-interpolation-filters:linearRGB;solid-color:#000000;solid-opacity:1;vector-effect:none;fill:#000080;fill-opacity:1;fill-rule:nonzero;stroke:none;stroke-width:4.99996;stroke-linecap:butt;stroke-linejoin:miter;stroke-miterlimit:4;stroke-dasharray:none;stroke-dashoffset:0;stroke-opacity:1;color-rendering:auto;image-rendering:auto;shape-rendering:auto;text-rendering:auto;enable-background:accumulate;stop-color:#000000" />
</svg>
