<?xml version="1.0" encoding="UTF-8" standalone="no"?>
<svg
   xmlns:dc="http://purl.org/dc/elements/1.1/"
   xmlns:cc="http://creativecommons.org/ns#"
   xmlns:rdf="http://www.w3.org/1999/02/22-rdf-syntax-ns#"
   xmlns:svg="http://www.w3.org/2000/svg"
   xmlns="http://www.w3.org/2000/svg"
   xmlns:sodipodi="http://sodipodi.sourceforge.net/DTD/sodipodi-0.dtd"
   xmlns:inkscape="http://www.inkscape.org/namespaces/inkscape"
   inkscape:version="1.0 (4035a4fb49, 2020-05-01)"
   sodipodi:docname="pois-o.svg"
   id="svg4460"
   height="100"
   width="100"
   version="1.1">
  <sodipodi:namedview
     inkscape:document-rotation="0"
     inkscape:current-layer="svg4460"
     inkscape:window-maximized="1"
     inkscape:window-y="-8"
     inkscape:window-x="-8"
     inkscape:cy="72.753687"
     inkscape:cx="8.9440949"
     inkscape:zoom="5.7134228"
     showgrid="false"
     id="namedview11"
     inkscape:window-height="1017"
     inkscape:window-width="1920"
     inkscape:pageshadow="2"
     inkscape:pageopacity="0"
     guidetolerance="10"
     gridtolerance="10"
     objecttolerance="10"
     borderopacity="1"
     bordercolor="#666666"
     pagecolor="#ffffff" />
  <defs
     id="defs4462" />
  <metadata
     id="metadata4465">
    <rdf:RDF>
      <cc:Work
         rdf:about="">
        <dc:format>image/svg+xml</dc:format>
        <dc:type
           rdf:resource="http://purl.org/dc/dcmitype/StillImage" />
        <dc:title />
      </cc:Work>
    </rdf:RDF>
  </metadata>
  <g
     id="g876"
     transform="matrix(0.95000047,0,0,0.95001522,2.4999765,2.4999788)"
     style="stroke-width:5.26307;stroke-miterlimit:4;stroke-dasharray:none">
    <path
       transform="matrix(1.0526311,0,0,1.0526147,-2.6315529,-2.6315145)"
       d="M 35.751953 0 C 16.11376 0 4.7369516e-15 16.064138 0 35.658203 C 0 43.192091 2.3969756 50.208112 6.4394531 55.978516 L 29.609375 96.037109 L 29.708984 96.166016 C 30.622948 97.360024 31.516366 98.300753 32.564453 98.994141 C 33.612541 99.687528 34.913363 100.10447 36.189453 99.976562 C 38.741632 99.720742 40.304028 97.91861 41.787109 95.908203 L 41.865234 95.802734 L 58.382812 67.695312 L 66.103516 81.041016 L 66.201172 81.169922 C 66.941686 82.137336 67.677879 82.919385 68.576172 83.513672 C 69.474464 84.107959 70.632466 84.485091 71.771484 84.371094 C 74.049519 84.143099 75.356038 82.578531 76.550781 80.958984 L 76.626953 80.853516 L 96.748047 46.613281 L 96.763672 46.583984 C 97.249415 45.705322 97.603641 44.821197 97.904297 43.964844 C 99.247294 40.667558 100 37.063556 100 33.300781 C 100 17.612356 87.098611 4.75 71.376953 4.75 C 66.640139 4.75 62.149382 5.9212022 58.199219 7.9804688 C 52.048479 3.000226 44.230965 4.0904644e-15 35.751953 0 z M 35.751953 5 C 43.433794 5 50.475111 7.8522167 55.878906 12.539062 L 56.246094 12.869141 C 59.091098 15.417107 61.456396 18.484375 63.199219 21.914062 L 63.546875 22.597656 C 65.43745 26.566411 66.5 30.99431 66.5 35.658203 C 66.500001 39.162192 65.89504 42.523895 64.792969 45.666016 L 64.791016 45.671875 C 64.614659 46.174536 64.430447 46.664541 64.236328 47.138672 L 64.210938 47.201172 L 64.189453 47.263672 C 63.866973 48.190847 63.513623 49.043911 63.097656 49.798828 L 37.724609 92.980469 C 36.552923 94.540673 35.697697 95.001322 35.691406 95.001953 C 35.688197 95.002274 35.672516 95.055934 35.322266 94.824219 C 34.984657 94.600865 34.409691 94.049265 33.738281 93.1875 L 10.679688 53.324219 L 10.613281 53.230469 C 7.0797611 48.236244 5 42.187031 5 35.658203 C 5 18.803242 18.837261 5 35.751953 5 z M 71.376953 9.75 C 84.375417 9.75 95 20.35069 95 33.300781 C 95 36.417477 94.379959 39.387899 93.261719 42.119141 L 93.236328 42.181641 L 93.214844 42.244141 C 92.968739 42.951746 92.701315 43.593046 92.394531 44.150391 L 72.476562 78.048828 C 71.7964 78.934145 71.339257 79.238892 71.302734 79.314453 C 71.104415 79.175562 70.709313 78.800244 70.232422 78.193359 L 61.294922 62.740234 L 67.453125 52.259766 L 67.466797 52.232422 C 68.015503 51.239855 68.422542 50.235294 68.777344 49.248047 C 69.643049 49.390073 70.469259 49.644531 71.376953 49.644531 C 80.431385 49.644531 87.757812 42.340293 87.757812 33.300781 C 87.757812 24.261269 80.431385 16.958984 71.376953 16.958984 C 69.702239 16.958984 68.12731 17.288465 66.613281 17.753906 C 65.364723 15.62892 63.908167 13.638896 62.261719 11.820312 C 65.092999 10.604586 68.10894 9.75 71.376953 9.75 z M 35.751953 15.537109 C 24.588293 15.537109 15.580078 24.514964 15.580078 35.658203 C 15.580078 46.801442 24.589236 55.773438 35.751953 55.773438 C 46.914668 55.773438 55.919922 46.800812 55.919922 35.658203 C 55.919919 24.515594 46.915611 15.537109 35.751953 15.537109 z M 35.751953 20.535156 C 44.270967 20.535156 50.91992 27.174061 50.919922 35.658203 C 50.919922 44.142344 44.271911 50.775391 35.751953 50.775391 C 27.231993 50.775391 20.580078 44.141715 20.580078 35.658203 C 20.580078 27.174692 27.232935 20.535156 35.751953 20.535156 z M 71.376953 21.957031 C 77.787485 21.957031 82.757812 26.919276 82.757812 33.300781 C 82.757812 39.682285 77.787485 44.646484 71.376953 44.646484 C 71.025622 44.646484 70.679814 44.626289 70.337891 44.595703 C 71.089553 41.735974 71.500002 38.741816 71.5 35.658203 C 71.5 30.918016 70.549329 26.387771 68.841797 22.238281 C 69.654149 22.054762 70.500859 21.957031 71.376953 21.957031 z "
       style="color:#000000;font-style:normal;font-variant:normal;font-weight:normal;font-stretch:normal;font-size:medium;line-height:normal;font-family:sans-serif;font-variant-ligatures:normal;font-variant-position:normal;font-variant-caps:normal;font-variant-numeric:normal;font-variant-alternates:normal;font-variant-east-asian:normal;font-feature-settings:normal;font-variation-settings:normal;text-indent:0;text-align:start;text-decoration:none;text-decoration-line:none;text-decoration-style:solid;text-decoration-color:#000000;letter-spacing:normal;word-spacing:normal;text-transform:none;writing-mode:lr-tb;direction:ltr;text-orientation:mixed;dominant-baseline:auto;baseline-shift:baseline;text-anchor:start;white-space:normal;shape-padding:0;shape-margin:0;inline-size:0;clip-rule:nonzero;display:inline;overflow:visible;visibility:visible;opacity:1;isolation:auto;mix-blend-mode:normal;color-interpolation:sRGB;color-interpolation-filters:linearRGB;solid-color:#000000;solid-opacity:1;vector-effect:none;fill:#000080;fill-opacity:1;fill-rule:nonzero;stroke:none;stroke-width:4.99996;stroke-linecap:butt;stroke-linejoin:miter;stroke-miterlimit:4;stroke-dasharray:none;stroke-dashoffset:0;stroke-opacity:1;color-rendering:auto;image-rendering:auto;shape-rendering:auto;text-rendering:auto;enable-background:accumulate;stop-color:#000000;stop-opacity:1"
       id="path834" />
  </g>
</svg>
