<?xml version="1.0" encoding="UTF-8" standalone="no"?>
<svg
   xmlns:dc="http://purl.org/dc/elements/1.1/"
   xmlns:cc="http://creativecommons.org/ns#"
   xmlns:rdf="http://www.w3.org/1999/02/22-rdf-syntax-ns#"
   xmlns:svg="http://www.w3.org/2000/svg"
   xmlns="http://www.w3.org/2000/svg"
   xmlns:sodipodi="http://sodipodi.sourceforge.net/DTD/sodipodi-0.dtd"
   xmlns:inkscape="http://www.inkscape.org/namespaces/inkscape"
   inkscape:version="1.0 (4035a4fb49, 2020-05-01)"
   sodipodi:docname="uEA1E-poi-favorite.svg"
   id="svg4460"
   height="100"
   width="100"
   version="1.1">
  <sodipodi:namedview
     inkscape:document-rotation="0"
     inkscape:current-layer="svg4460"
     inkscape:window-maximized="1"
     inkscape:window-y="-8"
     inkscape:window-x="-8"
     inkscape:cy="15.276901"
     inkscape:cx="-136.97207"
     inkscape:zoom="2"
     showgrid="false"
     id="namedview11"
     inkscape:window-height="1017"
     inkscape:window-width="1920"
     inkscape:pageshadow="2"
     inkscape:pageopacity="0"
     guidetolerance="10"
     gridtolerance="10"
     objecttolerance="10"
     borderopacity="1"
     bordercolor="#666666"
     pagecolor="#ffffff" />
  <defs
     id="defs4462" />
  <metadata
     id="metadata4465">
    <rdf:RDF>
      <cc:Work
         rdf:about="">
        <dc:format>image/svg+xml</dc:format>
        <dc:type
           rdf:resource="http://purl.org/dc/dcmitype/StillImage" />
        <dc:title />
      </cc:Work>
    </rdf:RDF>
  </metadata>
  <path
     d="M 50.00223,-3.3221425e-7 C 28.01555,-3.3221425e-7 10,16.707984 10,37.098384 c 0,7.900449 2.71366,15.240684 7.3058,21.277075 l 27.81474,38.429016 c 3.89541,4.732975 6.48424,3.834335 9.72321,-0.249122 l 30.6808,-42.265491 c 0.6198,-1.042711 1.10502,-2.152561 1.52902,-3.286331 C 88.94719,46.702007 90,42.009508 90,37.098384 90,16.707984 71.98892,-3.3221425e-7 50.00223,-3.3221425e-7 Z M 42.21429,21.457689 c 2.73401,3.02e-4 5.33783,1.418013 7.67857,2.698818 2.34074,-1.280807 4.94455,-2.698516 7.67857,-2.698818 8.41499,0 15.28571,6.390145 15.28571,14.216549 9e-5,0.01042 9e-5,0.02076 0,0.03114 -0.1045,6.619589 -5.83641,12.752944 -11.18303,17.590073 -5.34667,4.837124 -10.65179,8.27707 -10.65179,8.27707 -0.7945,0.514701 -1.85146,0.508047 -2.63839,-0.01661 0,0 -4.96894,-3.304721 -10.09598,-8.071545 -5.12704,-4.766822 -10.65574,-10.931045 -11.34822,-17.606681 -0.0072,-0.06761 -0.011,-0.135507 -0.011,-0.20345 0,-7.826403 6.87072,-14.216549 15.28571,-14.216549 z"
     style="fill:#000080;stroke-width:4.69541"
     id="path4135"
     sodipodi:nodetypes="sscccccssccccccccscccc" />
</svg>
