<?xml version="1.0" encoding="UTF-8" standalone="no"?>
<svg
   xmlns:dc="http://purl.org/dc/elements/1.1/"
   xmlns:cc="http://creativecommons.org/ns#"
   xmlns:rdf="http://www.w3.org/1999/02/22-rdf-syntax-ns#"
   xmlns:svg="http://www.w3.org/2000/svg"
   xmlns="http://www.w3.org/2000/svg"
   xmlns:sodipodi="http://sodipodi.sourceforge.net/DTD/sodipodi-0.dtd"
   xmlns:inkscape="http://www.inkscape.org/namespaces/inkscape"
   version="1.1"
   width="100"
   height="100"
   id="svg4460"
   sodipodi:docname="uEA1E-poi-favorite.svg"
   inkscape:version="1.0 (4035a4fb49, 2020-05-01)">
  <sodipodi:namedview
     pagecolor="#ffffff"
     bordercolor="#666666"
     borderopacity="1"
     objecttolerance="10"
     gridtolerance="10"
     guidetolerance="10"
     inkscape:pageopacity="0"
     inkscape:pageshadow="2"
     inkscape:window-width="1920"
     inkscape:window-height="1017"
     id="namedview11"
     showgrid="false"
     inkscape:zoom="4"
     inkscape:cx="8.1773232"
     inkscape:cy="6.6151473"
     inkscape:window-x="-8"
     inkscape:window-y="-8"
     inkscape:window-maximized="1"
     inkscape:current-layer="svg4460"
     inkscape:document-rotation="0" />
  <defs
     id="defs4462" />
  <metadata
     id="metadata4465">
    <rdf:RDF>
      <cc:Work
         rdf:about="">
        <dc:format>image/svg+xml</dc:format>
        <dc:type
           rdf:resource="http://purl.org/dc/dcmitype/StillImage" />
        <dc:title />
      </cc:Work>
    </rdf:RDF>
  </metadata>
  <path
     sodipodi:nodetypes="sscccccssccccccccsccc"
     id="path4135"
     style="fill:#000080;stroke-width:4.26019"
     d="M 50.001953,0 C 30.763602,0 15,15.718954 15,34.902344 c 0,7.432782 2.374454,14.338511 6.392578,20.017578 l 24.337891,42.074219 c 3.40849,4.452809 5.673715,3.607359 8.507812,-0.234375 L 81.083984,51.076172 c 0.542313,-0.980988 0.966892,-2.025141 1.337891,-3.091797 C 84.078789,43.93748 85.000002,39.522753 85,34.902344 85,15.718954 69.240305,0 50.001953,0 Z M 43.1875,20.1875 c 2.392265,2.85e-4 4.670603,1.334074 6.71875,2.539062 2.048147,-1.20499 4.326485,-2.538777 6.71875,-2.539062 7.363119,0 13.375,6.011881 13.375,13.375 7.2e-5,0.0098 7.2e-5,0.01953 0,0.0293 -0.0914,6.227742 -5.106861,11.998033 -9.785156,16.548828 -4.678329,4.55079 -9.320313,7.787109 -9.320313,7.787109 -0.695183,0.484233 -1.620028,0.477973 -2.308593,-0.01563 0,0 -4.347825,-3.109099 -8.833985,-7.59375 -4.48616,-4.48465 -9.323771,-10.283981 -9.929687,-16.564453 -0.0063,-0.06361 -0.0096,-0.127485 -0.0098,-0.191406 0,-7.363119 6.011881,-13.375 13.375,-13.375 z" />
</svg>
