<?xml version="1.0" encoding="UTF-8" standalone="no"?>
<svg
   xmlns:dc="http://purl.org/dc/elements/1.1/"
   xmlns:cc="http://creativecommons.org/ns#"
   xmlns:rdf="http://www.w3.org/1999/02/22-rdf-syntax-ns#"
   xmlns:svg="http://www.w3.org/2000/svg"
   xmlns="http://www.w3.org/2000/svg"
   xmlns:sodipodi="http://sodipodi.sourceforge.net/DTD/sodipodi-0.dtd"
   xmlns:inkscape="http://www.inkscape.org/namespaces/inkscape"
   version="1.1"
   width="100"
   height="100"
   id="svg4460"
   sodipodi:docname="uEA1F-poi-favorite-o.svg"
   inkscape:version="1.0 (4035a4fb49, 2020-05-01)">
  <sodipodi:namedview
     pagecolor="#ffffff"
     bordercolor="#666666"
     borderopacity="1"
     objecttolerance="10"
     gridtolerance="10"
     guidetolerance="10"
     inkscape:pageopacity="0"
     inkscape:pageshadow="2"
     inkscape:window-width="1920"
     inkscape:window-height="1017"
     id="namedview11"
     showgrid="false"
     inkscape:zoom="5.6568543"
     inkscape:cx="33.917399"
     inkscape:cy="53.481953"
     inkscape:window-x="-8"
     inkscape:window-y="-8"
     inkscape:window-maximized="1"
     inkscape:current-layer="svg4460"
     inkscape:document-rotation="0" />
  <defs
     id="defs4462" />
  <metadata
     id="metadata4465">
    <rdf:RDF>
      <cc:Work
         rdf:about="">
        <dc:format>image/svg+xml</dc:format>
        <dc:type
           rdf:resource="http://purl.org/dc/dcmitype/StillImage" />
        <dc:title />
      </cc:Work>
    </rdf:RDF>
  </metadata>
  <path
     sodipodi:nodetypes="sscccscccccsssscccsccscccssccccsccccccsccccc"
     id="path832"
     style="color:#000000;font-style:normal;font-variant:normal;font-weight:normal;font-stretch:normal;font-size:medium;line-height:normal;font-family:sans-serif;font-variant-ligatures:normal;font-variant-position:normal;font-variant-caps:normal;font-variant-numeric:normal;font-variant-alternates:normal;font-variant-east-asian:normal;font-feature-settings:normal;font-variation-settings:normal;text-indent:0;text-align:start;text-decoration:none;text-decoration-line:none;text-decoration-style:solid;text-decoration-color:#000000;letter-spacing:normal;word-spacing:normal;text-transform:none;writing-mode:lr-tb;direction:ltr;text-orientation:mixed;dominant-baseline:auto;baseline-shift:baseline;text-anchor:start;white-space:normal;shape-padding:0;shape-margin:0;inline-size:0;clip-rule:nonzero;display:inline;overflow:visible;visibility:visible;opacity:1;isolation:auto;mix-blend-mode:normal;color-interpolation:sRGB;color-interpolation-filters:linearRGB;solid-color:#000000;solid-opacity:1;vector-effect:none;fill:#000080;fill-opacity:1;fill-rule:nonzero;stroke:none;stroke-width:5.32192;stroke-linecap:butt;stroke-linejoin:miter;stroke-miterlimit:4;stroke-dasharray:none;stroke-dashoffset:0;stroke-opacity:1;color-rendering:auto;image-rendering:auto;shape-rendering:auto;text-rendering:auto;enable-background:accumulate;stop-color:#000000;stop-opacity:1"
     d="M 50.002079,-1.5056253e-7 C 28.10313,-1.5056253e-7 10,17.008417 10,37.931913 c 0,8.061361 2.711724,15.56568 7.267433,21.710702 l 25.995527,36.192814 0.110239,0.135055 c 2.050883,2.538133 4.36865,4.262546 7.092715,4.003877 2.724065,-0.258662 4.492048,-2.140457 6.156726,-4.278144 L 56.71,95.586094 85.442774,55.649126 l 0.01872,-0.03117 C 86.132966,54.467309 86.626442,53.294899 87.048515,52.1543 88.939101,47.761495 90.000002,42.954488 90,37.93191 89.999998,17.008801 71.901031,-1.5056253e-7 50.002079,-1.5056253e-7 Z m 0,5.31911135056253 c 19.148378,0 34.673184,14.7616058 34.673184,32.6128018 2e-6,4.29672 -0.900664,8.394451 -2.53133,12.167468 l -0.02912,0.06856 -0.02704,0.07065 c -0.361947,0.98582 -0.755881,1.890857 -1.223025,2.6928 -0.0015,0.0026 -0.0027,0.0057 -0.0042,0.0083 l -28.49151,39.544281 c -1.326811,1.682808 -2.261679,2.180182 -2.408611,2.194134 -0.146053,0.01387 -0.853817,-0.126936 -2.371172,-1.973889 L 21.68946,56.671392 21.61458,56.571662 c -3.968602,-5.313649 -6.289844,-11.72528 -6.289844,-18.639746 0,-17.850815 15.528967,-32.6128018 34.677343,-32.6128018 z M 42.732567,24.125079 c -7.2789,0 -13.170381,5.597185 -13.195362,12.412645 v 0.08727 l 0.0083,0.08727 c 0.626417,5.90427 5.511663,11.536667 10.254276,16.027979 4.503479,4.264848 8.645728,7.113405 9.035412,7.380267 l 0.890229,0.610867 0.900629,-0.5984 c 0.401122,-0.267705 4.841672,-3.245914 9.549166,-7.583891 4.968968,-4.578968 9.999277,-10.131898 10.094118,-15.949022 v -0.01454 -0.01454 c -0.0045,-6.831947 -5.91033,-12.44589 -13.201601,-12.44589 -2.283181,2.59e-4 -4.419799,1.189346 -6.647601,2.431001 l -0.519986,0.290874 -0.519994,-0.290888 c -2.227803,-1.241654 -4.364422,-2.430742 -6.6476,-2.431001 z" />
</svg>
