<?xml version="1.0" encoding="UTF-8" standalone="no"?>
<svg
   xmlns:dc="http://purl.org/dc/elements/1.1/"
   xmlns:cc="http://creativecommons.org/ns#"
   xmlns:rdf="http://www.w3.org/1999/02/22-rdf-syntax-ns#"
   xmlns:svg="http://www.w3.org/2000/svg"
   xmlns="http://www.w3.org/2000/svg"
   xmlns:sodipodi="http://sodipodi.sourceforge.net/DTD/sodipodi-0.dtd"
   xmlns:inkscape="http://www.inkscape.org/namespaces/inkscape"
   version="1.1"
   width="100"
   height="100"
   id="svg4460"
   sodipodi:docname="poi-home.svg"
   inkscape:version="1.0 (4035a4fb49, 2020-05-01)">
  <sodipodi:namedview
     pagecolor="#ffffff"
     bordercolor="#666666"
     borderopacity="1"
     objecttolerance="10"
     gridtolerance="10"
     guidetolerance="10"
     inkscape:pageopacity="0"
     inkscape:pageshadow="2"
     inkscape:window-width="1920"
     inkscape:window-height="1017"
     id="namedview11"
     showgrid="false"
     inkscape:zoom="2.02"
     inkscape:cx="165.81781"
     inkscape:cy="189.21911"
     inkscape:window-x="-8"
     inkscape:window-y="-8"
     inkscape:window-maximized="1"
     inkscape:current-layer="svg4460"
     inkscape:document-rotation="0" />
  <defs
     id="defs4462" />
  <metadata
     id="metadata4465">
    <rdf:RDF>
      <cc:Work
         rdf:about="">
        <dc:format>image/svg+xml</dc:format>
        <dc:type
           rdf:resource="http://purl.org/dc/dcmitype/StillImage" />
        <dc:title></dc:title>
      </cc:Work>
    </rdf:RDF>
  </metadata>
  <path
     d="M 50.001953 0 C 30.763602 0 15 15.718954 15 34.902344 C 15 42.335126 17.374454 49.240855 21.392578 54.919922 L 45.730469 96.994141 C 49.138959 101.44695 51.404184 100.6015 54.238281 96.759766 L 81.083984 51.076172 C 81.626297 50.095184 82.050876 49.051031 82.421875 47.984375 C 84.078789 43.93748 85.000002 39.522753 85 34.902344 C 85 15.718954 69.240305 4.7369516e-15 50.001953 0 z M 49.998047 13.240234 A 1.3151316 1.3151316 0 0 1 50.878906 13.576172 L 69.59375 30.369141 A 1.3151316 1.3151316 0 0 1 68.714844 32.664062 L 65.365234 32.664062 L 65.365234 53.890625 A 1.3151316 1.3151316 0 0 1 64.050781 55.205078 L 35.949219 55.205078 A 1.3151316 1.3151316 0 0 1 34.634766 53.890625 L 34.634766 32.664062 L 31.285156 32.664062 A 1.3151316 1.3151316 0 0 1 30.40625 30.369141 L 49.121094 13.576172 A 1.3151316 1.3151316 0 0 1 49.998047 13.240234 z "
     style="fill:#000080;stroke-width:4.26019"
     id="path4135" />
</svg>
