<?xml version="1.0" encoding="UTF-8" standalone="no"?>
<svg
   xmlns:dc="http://purl.org/dc/elements/1.1/"
   xmlns:cc="http://creativecommons.org/ns#"
   xmlns:rdf="http://www.w3.org/1999/02/22-rdf-syntax-ns#"
   xmlns:svg="http://www.w3.org/2000/svg"
   xmlns="http://www.w3.org/2000/svg"
   xmlns:sodipodi="http://sodipodi.sourceforge.net/DTD/sodipodi-0.dtd"
   xmlns:inkscape="http://www.inkscape.org/namespaces/inkscape"
   version="1.1"
   width="100"
   height="100"
   id="svg4460"
   sodipodi:docname="uEA34-poi-earth.svg"
   inkscape:version="1.0 (4035a4fb49, 2020-05-01)">
  <sodipodi:namedview
     pagecolor="#ffffff"
     bordercolor="#666666"
     borderopacity="1"
     objecttolerance="10"
     gridtolerance="10"
     guidetolerance="10"
     inkscape:pageopacity="0"
     inkscape:pageshadow="2"
     inkscape:window-width="1920"
     inkscape:window-height="1017"
     id="namedview11"
     showgrid="false"
     inkscape:zoom="2.8567114"
     inkscape:cx="-88.253131"
     inkscape:cy="11.93901"
     inkscape:window-x="-8"
     inkscape:window-y="-8"
     inkscape:window-maximized="1"
     inkscape:current-layer="svg4460"
     inkscape:document-rotation="0" />
  <defs
     id="defs4462" />
  <metadata
     id="metadata4465">
    <rdf:RDF>
      <cc:Work
         rdf:about="">
        <dc:format>image/svg+xml</dc:format>
        <dc:type
           rdf:resource="http://purl.org/dc/dcmitype/StillImage" />
        <dc:title />
      </cc:Work>
    </rdf:RDF>
  </metadata>
  <path
     d="M 50.001953 0 C 28.015266 0 10 16.723107 10 37.130859 C 10 45.038031 12.7145 52.384253 17.306641 58.425781 L 45.121094 96.800781 C 49.016511 101.53779 51.604782 100.63966 54.84375 96.552734 L 85.525391 54.335938 C 86.145177 53.292338 86.628736 52.181609 87.052734 51.046875 C 88.94635 46.74169 90.000002 42.046161 90 37.130859 C 90 16.723107 71.988641 0 50.001953 0 z M 50 12.980469 C 64.346706 12.980469 75.999999 24.63438 76 38.980469 C 76 53.32656 64.346706 64.980469 50 64.980469 C 35.653294 64.980469 24 53.32656 24 38.980469 C 24.000001 24.63438 35.653294 12.980469 50 12.980469 z M 50 15.21875 C 49.38839 15.21875 48.783495 15.249662 48.183594 15.294922 C 49.201721 15.310302 50.216361 15.361696 51.212891 15.554688 C 51.245781 16.639868 51.48758 18.667744 49.367188 18.595703 C 47.62222 18.693603 45.965887 22.655479 44.984375 19.794922 C 45.098808 18.327681 47.624596 15.372345 44.574219 16.447266 C 43.924617 17.384718 44.095762 19.127342 42.892578 18.921875 C 42.464988 20.466081 41.258527 19.544218 41.019531 18.875 C 40.441252 19.213827 41.450111 20.081971 40.802734 20.544922 C 42.67459 19.286377 40.957334 22.121079 42.027344 22.849609 C 41.005253 23.831173 42.831972 26.340193 40.675781 25.705078 C 38.689282 25.388419 42.222061 23.196549 39.789062 24.242188 C 38.259887 24.585573 38.340338 25.459496 39.484375 25.689453 C 38.457404 26.653431 37.150084 26.705387 36.541016 26.271484 C 34.980993 27.266498 33.490514 28.498246 32.207031 29.943359 C 30.320962 30.032199 30.747183 33.851865 29.839844 33.462891 C 29.740384 32.291733 30.141188 30.402084 28.9375 30.675781 C 27.648754 30.250581 26.827794 33.938647 27.359375 34.876953 C 28.987481 32.901084 27.468813 36.30188 27.863281 36.964844 C 28.814767 38.412728 27.235849 40.99761 29.488281 41.496094 C 30.285735 39.950574 31.029871 41.354807 31.207031 41.167969 C 31.94063 41.038615 32.460997 42.848096 33.777344 42.603516 C 35.302463 42.443077 34.55033 45.44163 36.630859 45.773438 C 39.171285 46.509476 38.907458 49.915231 41.705078 50.337891 C 43.359193 51.306526 47.992571 51.730078 46.541016 54.390625 C 44.37419 55.283645 45.763234 59.23015 42.572266 58.458984 C 41.567314 58.748849 41.386539 60.085286 40.199219 60.271484 L 39.488281 60.271484 C 42.659785 61.838422 46.218827 62.742188 50 62.742188 C 55.560881 62.742188 60.659788 60.823032 64.705078 57.630859 L 64.828125 57.189453 L 64.777344 57.197266 C 66.713854 55.717999 66.418886 52.887341 67.912109 51.060547 C 68.489377 49.069206 66.449558 47.646254 67.619141 45.804688 C 66.604254 45.926575 64.80825 44.716342 63.685547 46.367188 C 62.402506 46.384377 61.157252 47.855817 59.964844 47.087891 C 58.380437 46.147431 56.562371 45.048199 56.113281 43.126953 C 56.306296 41.629039 55.846086 39.70913 55.988281 38.320312 C 56.696914 35.917316 58.607068 34.474648 59.001953 32.099609 C 59.164885 31.956229 60.547894 30.875025 60.605469 30.830078 C 62.29004 30.394253 64.583849 27.689453 65.589844 30.400391 C 65.933383 30.648979 68.228057 31.804688 68.021484 30.892578 C 68.077504 29.467374 71.877903 30.241226 69.925781 28.376953 C 69.723595 28.257452 68.953209 28.033503 68.443359 28.175781 C 68.233552 28.225561 67.330943 29.222908 66.560547 27.880859 C 65.374968 26.776514 66.497534 30.842995 64.90625 28.742188 C 66.542794 28.198346 62.827597 26.29449 63.703125 27.400391 C 64.987155 29.581957 62.591544 28.150517 63.025391 26.646484 C 60.954163 26.392413 61.961167 30.281171 60.017578 30.878906 C 60.030538 30.880806 60.043501 30.87942 60.056641 30.880859 L 59.71875 30.923828 L 59.197266 30.972656 C 58.718015 30.484271 57.320481 30.423218 57.734375 29.009766 C 56.853101 27.483243 57.72787 26.903171 59.287109 27.046875 C 60.860132 26.039815 56.012883 24.832159 59.125 24.306641 C 57.762699 24.394111 57.192436 24.446116 57.015625 22.765625 C 57.233098 24.850285 54.540258 23.548847 55.984375 22.308594 C 56.534723 21.938701 54.720506 21.185083 56.246094 20.927734 C 57.266691 20.873574 59.277688 25.00817 59.646484 22.527344 C 60.340018 22.304784 58.999552 20.978849 59.320312 20.908203 C 57.513554 21.483651 56.986941 18.312105 56.972656 17.125 C 57.742711 17.15516 58.512461 17.064648 58.847656 16.921875 C 56.113028 15.825576 53.129393 15.21875 50 15.21875 z M 53.285156 15.548828 C 53.735359 15.524058 55.254098 16.058423 54.181641 16.191406 L 53.679688 16.019531 C 53.099948 15.687005 53.080518 15.56015 53.285156 15.548828 z M 41.816406 17.808594 C 41.686297 17.824444 41.444978 17.938901 41.0625 18.212891 C 40.583943 18.418417 39.627351 19.686113 40.75 18.75 C 41.592035 18.609963 42.206735 17.761039 41.816406 17.808594 z M 59.033203 18.427734 C 58.799026 18.446284 59.562109 19.05959 59.201172 18.460938 C 59.120852 18.434017 59.066634 18.425334 59.033203 18.427734 z M 39.214844 18.708984 C 39.015587 18.694544 38.723119 18.78643 38.3125 19.027344 C 36.970142 19.141382 36.900645 22.09345 36.939453 21.916016 C 37.336849 21.65106 37.686937 20.837269 38.201172 20.884766 C 39.160345 20.785406 40.078271 18.771543 39.214844 18.708984 z M 51.642578 18.763672 C 52.610902 18.723212 54.127545 19.496759 52.025391 19.757812 C 51.684186 19.756113 51.312035 19.69483 51.054688 19.447266 C 50.875163 18.968858 51.202429 18.782085 51.642578 18.763672 z M 59.087891 19.150391 C 58.684163 19.113661 60.624125 20.478687 59.804688 19.445312 C 59.399203 19.240637 59.18106 19.158854 59.087891 19.150391 z M 55.039062 19.90625 C 55.155028 19.85543 55.369927 20.508867 54.984375 20.076172 C 54.992275 19.967463 55.012332 19.917972 55.039062 19.90625 z M 56.527344 20.263672 C 56.621194 20.289402 56.970624 21.012212 56.556641 20.541016 C 56.493471 20.32497 56.496084 20.255094 56.527344 20.263672 z M 60.742188 20.271484 C 60.538967 20.272351 60.555352 20.483348 61.167969 21.025391 C 61.346818 21.844778 60.922902 22.241436 61.837891 21.501953 C 62.029005 20.859033 61.080883 20.270112 60.742188 20.271484 z M 34.058594 23.259766 C 33.76898 23.225806 34.024526 24.548353 34.351562 23.544922 C 34.220771 23.347292 34.125434 23.267543 34.058594 23.259766 z M 38.628906 23.84375 C 38.44662 23.84145 38.617906 24.27199 38.9375 24.03125 C 38.790997 23.893522 38.689673 23.844243 38.628906 23.84375 z M 66.640625 24.019531 C 66.264429 24.063241 67.471181 26.588428 67.759766 25.4375 C 69.289554 25.202309 67.525215 23.899525 67.183594 24.460938 C 66.897415 24.130951 66.727435 24.009467 66.640625 24.019531 z M 34.095703 24.482422 C 33.871348 24.532412 33.736107 25.90488 34.195312 24.552734 C 34.161062 24.494004 34.127756 24.475222 34.095703 24.482422 z M 63.921875 25.871094 C 63.756408 25.843604 63.88087 26.022345 64.615234 26.570312 C 64.845258 26.501532 65.980135 27.558473 65.714844 26.964844 C 65.281824 26.534604 64.19766 25.916933 63.921875 25.871094 z M 33.527344 25.882812 C 33.284081 25.833893 32.809979 26.663289 33.640625 26.085938 C 33.628035 25.953146 33.583492 25.894136 33.527344 25.882812 z M 67.191406 26.984375 C 67.063782 27.038915 67.654221 27.871105 67.609375 27.269531 C 67.357577 27.032281 67.233942 26.966214 67.191406 26.984375 z M 62.134766 28.123047 C 62.440981 28.075137 62.257634 29.484634 61.662109 28.789062 C 61.875648 28.317467 62.032687 28.13899 62.134766 28.123047 z M 68.404297 28.619141 C 68.737601 28.575811 69.025774 29.519519 68.099609 29.078125 C 68.177609 28.755878 68.293194 28.633563 68.404297 28.619141 z M 50.416016 29.986328 C 50.776009 30.018218 50.708527 30.60104 49.923828 30.195312 C 50.127866 30.026635 50.296024 29.975691 50.416016 29.986328 z M 51.501953 30.357422 C 51.648539 30.412742 51.358256 30.937422 51.1875 30.509766 C 51.35323 30.370514 51.453104 30.338963 51.501953 30.357422 z M 55.410156 32.855469 C 55.614687 32.806249 55.523412 33.541098 55.220703 33.041016 C 55.300523 32.921569 55.362932 32.866906 55.410156 32.855469 z M 30.712891 33.068359 C 30.847833 33.066859 31.146248 34.071897 30.666016 33.5 C 30.639136 33.179666 30.667871 33.068846 30.712891 33.068359 z M 30.445312 33.878906 C 30.580517 33.901676 30.513301 35.190668 30.242188 34.402344 C 30.331937 34.004873 30.400271 33.871246 30.445312 33.878906 z M 29.068359 34.294922 C 29.204926 34.309042 29.397981 34.360087 29.658203 34.455078 C 30.145113 35.820576 31.470741 36.263393 31.095703 36.865234 C 32.051705 37.246667 33.445095 39.059237 31.191406 38.248047 C 29.694714 37.644657 31.711206 37.106137 29.941406 36.628906 C 29.872066 35.884891 28.112403 34.196118 29.068359 34.294922 z M 56.984375 34.671875 C 57.208149 34.671817 57.387157 35.576769 56.726562 35.417969 C 56.773533 34.859566 56.882663 34.671904 56.984375 34.671875 z M 30.890625 35.078125 C 30.976505 35.022695 31.196906 35.321624 31.091797 35.695312 L 30.980469 35.621094 C 30.837227 35.27132 30.839105 35.111406 30.890625 35.078125 z M 55.302734 35.115234 C 55.939059 35.078634 57.070226 35.5979 55.609375 35.646484 L 55.117188 35.646484 L 55.033203 35.605469 C 54.827335 35.262973 55.013497 35.131876 55.302734 35.115234 z M 26.484375 35.572266 C 26.324745 36.685898 26.238281 37.822254 26.238281 38.980469 C 26.238281 46.330298 29.567629 52.889866 34.798828 57.246094 L 34.617188 56.857422 C 34.378093 56.265419 34.030847 55.720219 33.726562 55.160156 C 32.488053 52.962422 30.415407 51.345594 29.523438 48.927734 C 27.814764 46.743697 29.204544 44.396603 28.863281 42.119141 C 28.762872 40.913394 28.465238 42.838636 28.0625 41.308594 C 27.232921 39.60781 27.143502 37.159402 26.484375 35.572266 z M 29.558594 36.910156 C 29.843779 36.969926 30.667889 37.885721 29.720703 37.556641 C 29.410633 37.03307 29.428969 36.882982 29.558594 36.910156 z M 32.806641 38.296875 C 33.161615 38.252275 33.637439 39.207277 32.552734 38.763672 C 32.581184 38.437933 32.688314 38.311742 32.806641 38.296875 z M 34.535156 40.091797 C 34.678803 40.148257 34.808303 42.318998 34.423828 41.292969 L 34.402344 40.935547 C 34.434634 40.287787 34.487247 40.072983 34.535156 40.091797 z M 51.802734 41.537109 C 52.072588 41.566349 52.929148 42.123605 52.019531 41.943359 C 51.679251 41.619647 51.680073 41.523831 51.802734 41.537109 z M 53.125 41.839844 C 53.369767 41.835944 53.279717 42.581085 52.902344 41.988281 C 52.995214 41.881999 53.06851 41.840829 53.125 41.839844 z M 52.90625 42.488281 C 53.281524 42.427561 52.98569 43.173662 52.533203 42.685547 C 52.697658 42.560722 52.819646 42.502268 52.90625 42.488281 z M 52.269531 42.582031 C 52.407955 42.596661 52.331462 43.266229 52.060547 42.849609 C 52.156127 42.644158 52.223392 42.577113 52.269531 42.582031 z M 66.65625 47.167969 C 66.794679 47.182599 66.716227 47.852169 66.445312 47.435547 C 66.540903 47.230095 66.610123 47.163051 66.65625 47.167969 z "
     style="fill:#000080;stroke-width:4.69742"
     id="path838" />
</svg>
