<?xml version="1.0" encoding="UTF-8" standalone="no"?>
<svg
   xmlns:dc="http://purl.org/dc/elements/1.1/"
   xmlns:cc="http://creativecommons.org/ns#"
   xmlns:rdf="http://www.w3.org/1999/02/22-rdf-syntax-ns#"
   xmlns:svg="http://www.w3.org/2000/svg"
   xmlns="http://www.w3.org/2000/svg"
   xmlns:sodipodi="http://sodipodi.sourceforge.net/DTD/sodipodi-0.dtd"
   xmlns:inkscape="http://www.inkscape.org/namespaces/inkscape"
   version="1.1"
   width="100"
   height="100"
   id="svg4460"
   sodipodi:docname="poi-earth.svg"
   inkscape:version="1.0 (4035a4fb49, 2020-05-01)">
  <sodipodi:namedview
     pagecolor="#ffffff"
     bordercolor="#666666"
     borderopacity="1"
     objecttolerance="10"
     gridtolerance="10"
     guidetolerance="10"
     inkscape:pageopacity="0"
     inkscape:pageshadow="2"
     inkscape:window-width="1920"
     inkscape:window-height="1017"
     id="namedview11"
     showgrid="false"
     inkscape:zoom="2.02"
     inkscape:cx="-35.405663"
     inkscape:cy="91.40134"
     inkscape:window-x="-8"
     inkscape:window-y="-8"
     inkscape:window-maximized="1"
     inkscape:current-layer="svg4460"
     inkscape:document-rotation="0" />
  <defs
     id="defs4462" />
  <metadata
     id="metadata4465">
    <rdf:RDF>
      <cc:Work
         rdf:about="">
        <dc:format>image/svg+xml</dc:format>
        <dc:type
           rdf:resource="http://purl.org/dc/dcmitype/StillImage" />
        <dc:title />
      </cc:Work>
    </rdf:RDF>
  </metadata>
  <path
     d="M 50.001953 0 C 30.763602 0 15 15.718954 15 34.902344 C 15 42.335126 17.374454 49.240855 21.392578 54.919922 L 45.730469 96.994141 C 49.138959 101.44695 51.404184 100.6015 54.238281 96.759766 L 81.083984 51.076172 C 81.626297 50.095184 82.050876 49.051031 82.421875 47.984375 C 84.078789 43.93748 85.000002 39.522753 85 34.902344 C 85 15.718954 69.240305 4.7369516e-15 50.001953 0 z M 52.292969 14.291016 C 57.408797 14.7967 62.250864 17.291011 65.695312 21.113281 C 69.467551 25.21562 71.473736 30.87186 71.115234 36.4375 C 70.930485 42.610222 67.669288 48.431423 62.826172 52.166016 L 62.964844 51.669922 L 62.919922 51.677734 C 64.613059 50.38432 64.354595 47.909778 65.660156 46.3125 C 66.164875 44.571347 64.381703 43.326991 65.404297 41.716797 C 64.516957 41.82337 62.946451 40.765549 61.964844 42.208984 C 60.843051 42.224016 59.755442 43.509335 58.712891 42.837891 C 57.327606 42.015588 55.738353 41.054864 55.345703 39.375 C 55.514461 38.065282 55.112003 36.386203 55.236328 35.171875 C 55.855902 33.070787 57.525836 31.809064 57.871094 29.732422 C 58.013549 29.607055 59.223098 28.662347 59.273438 28.623047 C 60.746298 28.241979 62.751293 25.877708 63.630859 28.248047 C 63.931224 28.465403 65.936471 29.475247 65.755859 28.677734 C 65.804841 27.431591 69.128663 28.108564 67.421875 26.478516 C 67.245099 26.374029 66.570774 26.178332 66.125 26.302734 C 65.941561 26.34625 65.152092 27.218357 64.478516 26.044922 C 63.441936 25.079325 64.424506 28.63374 63.033203 26.796875 C 64.464073 26.321361 61.214974 24.658043 61.980469 25.625 C 63.103127 27.532477 61.009349 26.279913 61.388672 24.964844 C 59.577747 24.742694 60.457138 28.14338 58.757812 28.666016 C 58.769143 28.667738 58.781479 28.666769 58.792969 28.667969 L 58.498047 28.705078 L 58.041016 28.748047 C 57.622 28.321059 56.399841 28.267118 56.761719 27.03125 C 55.991199 25.696517 56.755797 25.188804 58.119141 25.314453 C 59.494473 24.433919 55.257518 23.379414 57.978516 22.919922 C 56.787424 22.996402 56.289356 23.041623 56.134766 21.572266 C 56.324908 23.395012 53.969796 22.256305 55.232422 21.171875 C 55.713605 20.848455 54.12708 20.18986 55.460938 19.964844 C 56.353271 19.917485 58.111147 23.53242 58.433594 21.363281 C 59.039967 21.168683 57.86799 20.009036 58.148438 19.947266 C 56.568747 20.450415 56.108193 17.678583 56.095703 16.640625 C 57.496063 16.695474 58.945895 16.29677 56.818359 15.970703 C 55.625942 15.429886 54.403171 14.908471 53.125 14.65625 L 52.292969 14.291016 z M 44.164062 14.984375 L 44.820312 15.03125 C 46.897925 15.098385 49.017966 14.871971 51.060547 15.267578 C 51.089301 16.216418 51.301177 17.988771 49.447266 17.925781 C 47.9216 18.011378 46.473394 21.475769 45.615234 18.974609 C 45.715285 17.691709 47.922878 15.107006 45.255859 16.046875 C 44.687897 16.866547 44.837129 18.39059 43.785156 18.210938 C 43.411304 19.561132 42.357397 18.755052 42.148438 18.169922 C 41.642834 18.46618 42.525001 19.226073 41.958984 19.630859 C 43.595592 18.530437 42.093762 21.007532 43.029297 21.644531 C 42.135658 22.502772 43.732865 24.697898 41.847656 24.142578 C 40.110812 23.865703 43.199495 21.949015 41.072266 22.863281 C 39.73527 23.163525 39.806382 23.92784 40.806641 24.128906 C 39.908736 24.971771 38.764945 25.016107 38.232422 24.636719 C 36.868457 25.506721 35.565539 26.584105 34.443359 27.847656 C 32.794324 27.925336 33.166355 31.265885 32.373047 30.925781 C 32.286082 29.901766 32.636397 28.248972 31.583984 28.488281 C 30.457202 28.116503 29.740304 31.341691 30.205078 32.162109 C 31.62857 30.434486 30.299639 33.406658 30.644531 33.986328 C 31.476438 35.252303 30.097051 37.513364 32.066406 37.949219 C 32.763639 36.597876 33.413464 37.825473 33.568359 37.662109 C 34.209762 37.549007 34.665492 39.13182 35.816406 38.917969 C 37.149854 38.777687 36.491491 41.399333 38.310547 41.689453 C 40.531702 42.333016 40.302021 45.31013 42.748047 45.679688 C 44.19428 46.526625 48.245691 46.896377 46.976562 49.222656 C 45.082054 50.003479 46.295799 53.455528 43.505859 52.78125 C 42.627205 53.034696 42.469744 54.20243 41.431641 54.365234 L 40.714844 54.365234 C 39.313865 53.677139 37.992012 52.829785 36.771484 51.855469 L 36.550781 51.380859 C 36.341735 50.863235 36.037528 50.386181 35.771484 49.896484 C 34.688625 47.97487 32.877525 46.561349 32.097656 44.447266 C 30.603721 42.537629 31.817906 40.485466 31.519531 38.494141 C 31.431739 37.439882 31.172436 39.122965 30.820312 37.785156 C 30.015012 36.134076 30.012822 33.667198 29.234375 32.332031 L 29.083984 32.099609 C 29.510347 29.214412 30.51554 26.420403 32.125 23.96875 C 34.842995 19.595298 39.246878 16.400845 44.164062 14.984375 z M 52.873047 15.261719 C 53.26667 15.240054 54.593924 15.707945 53.65625 15.824219 L 53.216797 15.673828 C 52.709917 15.383081 52.694127 15.271619 52.873047 15.261719 z M 44.015625 15.648438 C 43.734093 15.621175 43.834902 15.906224 44.160156 15.681641 C 44.103878 15.662571 44.055825 15.652236 44.015625 15.648438 z M 42.845703 17.238281 C 42.731946 17.252146 42.519957 17.352231 42.185547 17.591797 C 41.767134 17.771501 40.930551 18.879048 41.912109 18.060547 C 42.648321 17.938104 43.186978 17.196701 42.845703 17.238281 z M 57.898438 17.779297 C 57.693691 17.795527 58.360498 18.332035 58.044922 17.808594 C 57.97469 17.785054 57.927667 17.777197 57.898438 17.779297 z M 40.570312 18.025391 C 40.396097 18.012769 40.140265 18.092077 39.78125 18.302734 C 38.607595 18.402441 38.546148 20.983266 38.580078 20.828125 C 38.927531 20.596457 39.233986 19.886204 39.683594 19.927734 C 40.522222 19.840859 41.325227 18.080091 40.570312 18.025391 z M 51.435547 18.072266 C 52.282176 18.036892 53.609447 18.713151 51.771484 18.941406 C 51.47316 18.939899 51.146879 18.886378 50.921875 18.669922 C 50.764912 18.251621 51.050714 18.088366 51.435547 18.072266 z M 57.945312 18.410156 C 57.592323 18.378035 59.288719 19.571512 58.572266 18.667969 C 58.217741 18.489009 58.026772 18.417556 57.945312 18.410156 z M 54.40625 19.072266 C 54.507641 19.027834 54.694525 19.599036 54.357422 19.220703 C 54.364282 19.125655 54.38287 19.082516 54.40625 19.072266 z M 55.707031 19.384766 C 55.789091 19.407257 56.094376 20.038949 55.732422 19.626953 C 55.677192 19.43805 55.679701 19.377266 55.707031 19.384766 z M 59.392578 19.390625 C 59.214898 19.391382 59.228046 19.576839 59.763672 20.050781 C 59.920044 20.767221 59.549613 21.113373 60.349609 20.466797 C 60.516705 19.904653 59.688707 19.389425 59.392578 19.390625 z M 36.0625 22.003906 C 35.809284 21.974204 36.032432 23.131267 36.318359 22.253906 C 36.204005 22.081106 36.12094 22.010706 36.0625 22.003906 z M 40.058594 22.513672 C 39.899217 22.511713 40.048681 22.888228 40.328125 22.677734 C 40.200034 22.55731 40.111724 22.514103 40.058594 22.513672 z M 64.548828 22.667969 C 64.219911 22.706185 65.275027 24.91453 65.527344 23.908203 C 66.864874 23.702561 65.322125 22.563811 65.023438 23.054688 C 64.773224 22.766161 64.624728 22.659169 64.548828 22.667969 z M 36.09375 23.072266 C 35.897592 23.115976 35.780146 24.31703 36.181641 23.134766 C 36.151701 23.083416 36.12177 23.065966 36.09375 23.072266 z M 62.171875 24.287109 C 62.027202 24.263073 62.137223 24.419317 62.779297 24.898438 C 62.980412 24.838299 63.972185 25.763187 63.740234 25.244141 C 63.361634 24.867956 62.412999 24.327189 62.171875 24.287109 z M 35.597656 24.296875 C 35.384965 24.254105 34.971011 24.979423 35.697266 24.474609 C 35.686256 24.358502 35.646746 24.306775 35.597656 24.296875 z M 65.03125 25.259766 C 64.919664 25.307456 65.435694 26.035759 65.396484 25.509766 C 65.176331 25.302323 65.06844 25.243886 65.03125 25.259766 z M 60.609375 26.255859 C 60.877107 26.213971 60.717947 27.446072 60.197266 26.837891 C 60.383968 26.425547 60.520125 26.269799 60.609375 26.255859 z M 66.091797 26.689453 C 66.383213 26.651569 66.633987 27.477735 65.824219 27.091797 C 65.892421 26.810036 65.994657 26.702063 66.091797 26.689453 z M 50.363281 27.884766 C 50.678031 27.91265 50.619674 28.423112 49.933594 28.068359 C 50.111989 27.920873 50.258369 27.875466 50.363281 27.884766 z M 51.3125 28.208984 C 51.440664 28.257351 51.188358 28.717676 51.039062 28.34375 C 51.183963 28.221993 51.26979 28.192844 51.3125 28.208984 z M 54.730469 30.394531 C 54.909295 30.351502 54.829115 30.993892 54.564453 30.556641 C 54.634245 30.4522 54.689179 30.404531 54.730469 30.394531 z M 33.136719 30.580078 C 33.254702 30.578795 33.515575 31.457076 33.095703 30.957031 C 33.072203 30.676943 33.097369 30.580504 33.136719 30.580078 z M 32.902344 31.289062 C 33.020557 31.308976 32.961656 32.435373 32.724609 31.746094 C 32.803074 31.39856 32.862964 31.282364 32.902344 31.289062 z M 31.699219 31.652344 C 31.818623 31.664686 31.987325 31.709909 32.214844 31.792969 C 32.640561 32.986908 33.798608 33.374164 33.470703 33.900391 C 34.306559 34.233901 35.525137 35.818648 33.554688 35.109375 C 32.246094 34.581794 34.010269 34.110631 32.462891 33.693359 C 32.402266 33.042821 30.863403 31.565954 31.699219 31.652344 z M 56.107422 31.982422 C 56.303073 31.982372 56.458433 32.773615 55.880859 32.634766 C 55.921919 32.14652 56.018492 31.982448 56.107422 31.982422 z M 33.292969 32.337891 C 33.368052 32.289422 33.56065 32.550215 33.46875 32.876953 L 33.371094 32.8125 C 33.245854 32.506674 33.247919 32.366991 33.292969 32.337891 z M 54.636719 32.369141 C 55.193073 32.337145 56.181554 32.791504 54.904297 32.833984 L 54.474609 32.833984 L 54.400391 32.798828 C 54.220396 32.499363 54.383834 32.383691 54.636719 32.369141 z M 32.126953 33.939453 C 32.376297 33.991715 33.097678 34.791641 32.269531 34.503906 C 31.998429 34.046115 32.013619 33.915693 32.126953 33.939453 z M 34.966797 35.152344 C 35.27716 35.113345 35.694478 35.948419 34.746094 35.560547 C 34.77097 35.275734 34.863342 35.165344 34.966797 35.152344 z M 36.478516 36.720703 C 36.60411 36.770068 36.717012 38.668604 36.380859 37.771484 L 36.363281 37.458984 C 36.391526 36.892609 36.436636 36.704253 36.478516 36.720703 z M 51.576172 37.984375 C 51.812112 38.009948 52.560925 38.497444 51.765625 38.339844 C 51.46811 38.056803 51.468926 37.972765 51.576172 37.984375 z M 52.732422 38.25 C 52.946428 38.246581 52.867055 38.897232 52.537109 38.378906 C 52.61831 38.285973 52.683032 38.250861 52.732422 38.25 z M 52.541016 38.816406 C 52.869128 38.763314 52.61047 39.41507 52.214844 38.988281 C 52.358631 38.879139 52.465296 38.828636 52.541016 38.816406 z M 51.984375 38.898438 C 52.105402 38.911231 52.037644 39.497088 51.800781 39.132812 C 51.884352 38.953173 51.944035 38.894137 51.984375 38.898438 z M 64.5625 42.908203 C 64.683532 42.920996 64.61577 43.506857 64.378906 43.142578 C 64.462485 42.962939 64.52217 42.903903 64.5625 42.908203 z "
     style="fill:#000080;stroke-width:4.26019"
     id="path838" />
</svg>
