<?xml version="1.0" encoding="UTF-8" standalone="no"?>
<svg
   xmlns:dc="http://purl.org/dc/elements/1.1/"
   xmlns:cc="http://creativecommons.org/ns#"
   xmlns:rdf="http://www.w3.org/1999/02/22-rdf-syntax-ns#"
   xmlns:svg="http://www.w3.org/2000/svg"
   xmlns="http://www.w3.org/2000/svg"
   xmlns:sodipodi="http://sodipodi.sourceforge.net/DTD/sodipodi-0.dtd"
   xmlns:inkscape="http://www.inkscape.org/namespaces/inkscape"
   version="1.1"
   width="100"
   height="100"
   id="svg4460"
   sodipodi:docname="uEABE-bookmark-poi.svg"
   inkscape:version="1.0 (4035a4fb49, 2020-05-01)">
  <sodipodi:namedview
     pagecolor="#ffffff"
     bordercolor="#666666"
     borderopacity="1"
     objecttolerance="10"
     gridtolerance="10"
     guidetolerance="10"
     inkscape:pageopacity="0"
     inkscape:pageshadow="2"
     inkscape:window-width="1920"
     inkscape:window-height="1017"
     id="namedview11"
     showgrid="false"
     inkscape:zoom="4.04"
     inkscape:cx="19.446209"
     inkscape:cy="38.176464"
     inkscape:window-x="-8"
     inkscape:window-y="-8"
     inkscape:window-maximized="1"
     inkscape:current-layer="svg4460"
     inkscape:document-rotation="0" />
  <defs
     id="defs4462" />
  <metadata
     id="metadata4465">
    <rdf:RDF>
      <cc:Work
         rdf:about="">
        <dc:format>image/svg+xml</dc:format>
        <dc:type
           rdf:resource="http://purl.org/dc/dcmitype/StillImage" />
        <dc:title />
      </cc:Work>
    </rdf:RDF>
  </metadata>
  <path
     d="M 30.027344 0.02734375 A 1.50015 1.50015 0 0 0 28.527344 1.5273438 L 28.527344 2 L 28.03125 2 A 2.5 2.5 0 0 0 25.53125 4.5 A 2.5 2.5 0 0 0 28.03125 7 L 28.527344 7 L 28.527344 56.527344 A 1.50015 1.50015 0 0 0 30.910156 57.740234 L 46.5 46.394531 L 46.5 83.167969 C 46.5 85.100966 48.067003 86.667969 50 86.667969 C 51.932997 86.667969 53.5 85.100966 53.5 83.167969 L 53.5 46.394531 L 69.089844 57.740234 A 1.50015 1.50015 0 0 0 71.472656 56.527344 L 71.472656 7 L 71.996094 7 A 2.5 2.5 0 0 0 74.496094 4.5 A 2.5 2.5 0 0 0 71.996094 2 L 71.472656 2 L 71.472656 1.5273438 A 1.50015 1.50015 0 0 0 69.972656 0.02734375 L 30.027344 0.02734375 z "
     style="color:#000000;font-style:normal;font-variant:normal;font-weight:normal;font-stretch:normal;font-size:medium;line-height:normal;font-family:sans-serif;font-variant-ligatures:normal;font-variant-position:normal;font-variant-caps:normal;font-variant-numeric:normal;font-variant-alternates:normal;font-variant-east-asian:normal;font-feature-settings:normal;font-variation-settings:normal;text-indent:0;text-align:start;text-decoration:none;text-decoration-line:none;text-decoration-style:solid;text-decoration-color:#000000;letter-spacing:normal;word-spacing:normal;text-transform:none;writing-mode:lr-tb;direction:ltr;text-orientation:mixed;dominant-baseline:auto;baseline-shift:baseline;text-anchor:start;white-space:normal;shape-padding:0;shape-margin:0;inline-size:0;clip-rule:nonzero;display:inline;overflow:visible;visibility:visible;isolation:auto;mix-blend-mode:normal;color-interpolation:sRGB;color-interpolation-filters:linearRGB;solid-color:#000000;solid-opacity:1;vector-effect:none;fill:#000080;fill-opacity:1;fill-rule:nonzero;stroke:none;stroke-width:3;stroke-linecap:round;stroke-linejoin:round;stroke-miterlimit:4;stroke-dasharray:none;stroke-dashoffset:20;stroke-opacity:1;color-rendering:auto;image-rendering:auto;shape-rendering:auto;text-rendering:auto;enable-background:accumulate;stop-color:#000000;stop-opacity:1;opacity:1"
     id="path879" />
  <path
     id="path887"
     style="color:#000000;overflow:visible;fill:#000080;fill-opacity:1;stroke:none;stroke-width:24.7397;stroke-linecap:round;stroke-linejoin:round;stroke-miterlimit:4;stroke-dasharray:none;stroke-dashoffset:20;stroke-opacity:1"
     d="M 38.004394,76.792481 C 27.41,78.289893 20,81.871151 20,87.143066 20,94.24387 32.381299,100 49.999999,100 67.618699,100 80,94.24387 80,87.143066 80,81.871346 72.590846,78.289983 61.997069,76.792481 61.508333,77.625926 61.018088,78.458096 60.529295,79.291503 68.513772,80.399298 74,82.727598 74,85.429203 74,89.216298 63.254833,92.286131 49.999999,92.286131 36.745165,92.286131 26,89.216298 26,85.429203 c -9.75e-4,-2.692185 5.449671,-5.018452 13.458983,-6.130372 -0.484164,-0.835905 -0.970878,-1.670153 -1.454589,-2.50635 z" />
</svg>
