<?xml version="1.0" encoding="UTF-8" standalone="no"?>
<svg
   xmlns:dc="http://purl.org/dc/elements/1.1/"
   xmlns:cc="http://creativecommons.org/ns#"
   xmlns:rdf="http://www.w3.org/1999/02/22-rdf-syntax-ns#"
   xmlns:svg="http://www.w3.org/2000/svg"
   xmlns="http://www.w3.org/2000/svg"
   xmlns:sodipodi="http://sodipodi.sourceforge.net/DTD/sodipodi-0.dtd"
   xmlns:inkscape="http://www.inkscape.org/namespaces/inkscape"
   inkscape:version="0.92.4 (5da689c313, 2019-01-14)"
   sodipodi:docname="uEAD6-poi-map.svg"
   id="svg4460"
   height="100"
   width="100"
   version="1.1">
  <sodipodi:namedview
     inkscape:document-rotation="0"
     inkscape:current-layer="svg4460"
     inkscape:window-maximized="1"
     inkscape:window-y="-8"
     inkscape:window-x="1272"
     inkscape:cy="51.654296"
     inkscape:cx="-3.6779459"
     inkscape:zoom="2.02"
     showgrid="false"
     id="namedview11"
     inkscape:window-height="1177"
     inkscape:window-width="1920"
     inkscape:pageshadow="2"
     inkscape:pageopacity="0"
     guidetolerance="10"
     gridtolerance="10"
     objecttolerance="10"
     borderopacity="1"
     bordercolor="#666666"
     pagecolor="#ffffff" />
  <defs
     id="defs4462" />
  <metadata
     id="metadata4465">
    <rdf:RDF>
      <cc:Work
         rdf:about="">
        <dc:format>image/svg+xml</dc:format>
        <dc:type
           rdf:resource="http://purl.org/dc/dcmitype/StillImage" />
        <dc:title />
      </cc:Work>
    </rdf:RDF>
  </metadata>
  <path
     style="opacity:1;fill:#000080;fill-opacity:1;stroke:none;stroke-width:68.83739471;stroke-linecap:round;stroke-linejoin:round;stroke-miterlimit:4;stroke-dasharray:none;stroke-dashoffset:0;stroke-opacity:1;paint-order:normal"
     d="m 70.386719,70 -3.853638,7.246724 18.869751,-3.084678 C 81.595308,72.252903 76.439658,70.887427 70.386719,70 Z M 21.777344,71.580141 C 13.036473,73.885043 7.5,77.661745 7.5,83.27243 c 1e-6,1.225103 0.272725,2.389163 0.774048,3.496723 l 30.2854,-4.950226 z m 70.012939,8.420489 -42.151096,6.869397 11.11655,12.646102 C 79.009674,97.881016 92.499996,92.04881 92.5,83.27243 c 0,-1.169861 -0.251615,-2.257187 -0.709717,-3.2718 z M 42.517857,88.054593 14.038941,92.709804 C 21.565136,97.373689 34.852257,100 50,100 c 0.917749,0 1.815216,-0.02624 2.718506,-0.04537 z"
     id="path812"
     inkscape:connector-curvature="0"
     sodipodi:nodetypes="cccccsccccccscccscc" />
  <path
     style="color:#000000;font-style:normal;font-variant:normal;font-weight:normal;font-stretch:normal;font-size:medium;line-height:normal;font-family:sans-serif;font-variant-ligatures:normal;font-variant-position:normal;font-variant-caps:normal;font-variant-numeric:normal;font-variant-alternates:normal;font-feature-settings:normal;text-indent:0;text-align:start;text-decoration:none;text-decoration-line:none;text-decoration-style:solid;text-decoration-color:#000000;letter-spacing:normal;word-spacing:normal;text-transform:none;writing-mode:lr-tb;direction:ltr;text-orientation:mixed;dominant-baseline:auto;baseline-shift:baseline;text-anchor:start;white-space:normal;shape-padding:0;clip-rule:nonzero;display:inline;overflow:visible;visibility:visible;opacity:1;isolation:auto;mix-blend-mode:normal;color-interpolation:sRGB;color-interpolation-filters:linearRGB;solid-color:#000000;solid-opacity:1;vector-effect:none;fill:#000080;fill-opacity:1;fill-rule:nonzero;stroke:none;stroke-width:4.15001869;stroke-linecap:butt;stroke-linejoin:miter;stroke-miterlimit:4;stroke-dasharray:none;stroke-dashoffset:0;stroke-opacity:1;color-rendering:auto;image-rendering:auto;shape-rendering:auto;text-rendering:auto;enable-background:accumulate"
     d="M 50.001953 0 C 33.701908 0 20.328125 13.332509 20.328125 29.595703 C 20.328125 35.847655 22.31545 41.671646 25.669922 46.460938 L 44.904297 79.710938 L 44.986328 79.818359 C 45.744979 80.809447 46.4854 81.59052 47.355469 82.166016 C 48.225538 82.741512 49.306058 83.086649 50.365234 82.980469 C 52.483592 82.768104 53.78066 81.27227 55.011719 79.603516 L 55.078125 79.517578 L 76.3125 43.376953 L 76.324219 43.353516 C 76.821786 42.453475 77.18982 41.538282 77.501953 40.646484 C 78.893908 37.228999 79.671877 33.495971 79.671875 29.595703 C 79.671864 13.332728 66.302 0 50.001953 0 z M 50.001953 17.044922 C 57.07309 17.044922 62.591795 22.553786 62.591797 29.595703 C 62.591797 36.637614 57.073498 42.144531 50.001953 42.144531 C 42.930406 42.144531 37.408203 36.637207 37.408203 29.595703 C 37.408203 22.554194 42.930813 17.044922 50.001953 17.044922 z "
     id="path849" />
</svg>
