<?xml version="1.0" encoding="UTF-8" standalone="no"?>
<svg
   xmlns:dc="http://purl.org/dc/elements/1.1/"
   xmlns:cc="http://creativecommons.org/ns#"
   xmlns:rdf="http://www.w3.org/1999/02/22-rdf-syntax-ns#"
   xmlns:svg="http://www.w3.org/2000/svg"
   xmlns="http://www.w3.org/2000/svg"
   xmlns:sodipodi="http://sodipodi.sourceforge.net/DTD/sodipodi-0.dtd"
   xmlns:inkscape="http://www.inkscape.org/namespaces/inkscape"
   inkscape:version="1.0 (4035a4fb49, 2020-05-01)"
   sodipodi:docname="uEB1C-poi-info.svg"
   id="svg4460"
   height="100"
   width="100"
   version="1.1">
  <sodipodi:namedview
     inkscape:document-rotation="0"
     inkscape:current-layer="svg4460"
     inkscape:window-maximized="1"
     inkscape:window-y="-8"
     inkscape:window-x="-8"
     inkscape:cy="43.112848"
     inkscape:cx="50.97497"
     inkscape:zoom="8.0538668"
     showgrid="false"
     id="namedview11"
     inkscape:window-height="1017"
     inkscape:window-width="1920"
     inkscape:pageshadow="2"
     inkscape:pageopacity="0"
     guidetolerance="10"
     gridtolerance="10"
     objecttolerance="10"
     borderopacity="1"
     bordercolor="#666666"
     pagecolor="#ffffff" />
  <defs
     id="defs4462" />
  <metadata
     id="metadata4465">
    <rdf:RDF>
      <cc:Work
         rdf:about="">
        <dc:format>image/svg+xml</dc:format>
        <dc:type
           rdf:resource="http://purl.org/dc/dcmitype/StillImage" />
        <dc:title />
      </cc:Work>
    </rdf:RDF>
  </metadata>
  <path
     d="M 50.001953 0 C 28.015774 0 10 16.372877 10 36.355469 C 10 44.097909 12.714605 51.291368 17.306641 57.207031 L 45.121094 96.869141 C 49.01642 101.50746 51.602905 100.62678 54.841797 96.625 L 85.523438 53.203125 C 86.143209 52.181268 86.628744 51.095469 87.052734 49.984375 C 88.946305 45.768881 90.000002 41.16837 90 36.355469 C 90 16.372877 71.988132 0 50.001953 0 z M 50.039062 12.431641 C 52.253299 12.431641 54.125422 13.223088 55.654297 14.804688 C 57.235893 16.333562 58.027344 18.205688 58.027344 20.419922 C 58.027344 22.634155 57.235893 24.531686 55.654297 26.113281 C 54.125422 27.694877 52.253299 28.484375 50.039062 28.484375 C 47.824829 28.484375 45.927297 27.694877 44.345703 26.113281 C 42.764107 24.531686 41.972656 22.634155 41.972656 20.419922 C 41.972656 18.205688 42.738703 16.333562 44.267578 14.804688 C 45.849174 13.223092 47.77211 12.431641 50.039062 12.431641 z M 53.929688 33.263672 L 55.753906 33.263672 C 56.808224 33.263755 57.663956 33.935279 57.664062 34.763672 L 57.664062 54.751953 C 57.664062 56.533285 57.933652 57.730786 58.013672 57.896484 C 58.223773 58.23726 58.441546 58.424857 58.736328 58.5625 C 58.824058 58.59816 59.87124 58.826172 61.521484 58.826172 C 62.575802 58.826255 63.429583 59.497779 63.429688 60.326172 L 63.429688 61.5 C 63.429583 62.328393 62.575802 62.999917 61.521484 63 L 39.0625 63 C 38.008182 62.999917 37.152449 62.328393 37.152344 61.5 L 37.152344 60.326172 C 37.152449 59.497779 38.008182 58.826255 39.0625 58.826172 C 40.791987 58.826172 41.910679 58.573136 41.855469 58.597656 C 42.078047 58.498806 42.300896 58.332596 42.537109 57.904297 C 42.543509 57.891857 42.549741 57.879486 42.556641 57.867188 C 42.651641 57.707245 42.958984 56.516634 42.958984 54.751953 C 42.958984 48.385541 43.19896 46.99255 42.623047 41.259766 C 42.480112 40.781879 42.275761 40.621159 42.390625 40.693359 C 42.371265 40.681279 42.350781 40.66891 42.332031 40.65625 C 42.329731 40.65465 42.281741 40.597656 41.880859 40.597656 C 41.447398 40.597656 40.699588 40.706643 39.730469 40.992188 C 38.751832 41.279871 37.659953 40.896028 37.28125 40.130859 L 36.699219 38.957031 C 36.321117 38.192893 36.794879 37.331789 37.761719 37.023438 L 53.210938 33.373047 C 53.439186 33.300537 54.175888 33.263672 53.929688 33.263672 z "
     style="fill:#000080;stroke-width:4.64818"
     id="path832" />
</svg>
