<?xml version="1.0" encoding="UTF-8" standalone="no"?>
<svg
   xmlns:dc="http://purl.org/dc/elements/1.1/"
   xmlns:cc="http://creativecommons.org/ns#"
   xmlns:rdf="http://www.w3.org/1999/02/22-rdf-syntax-ns#"
   xmlns:svg="http://www.w3.org/2000/svg"
   xmlns="http://www.w3.org/2000/svg"
   xmlns:sodipodi="http://sodipodi.sourceforge.net/DTD/sodipodi-0.dtd"
   xmlns:inkscape="http://www.inkscape.org/namespaces/inkscape"
   inkscape:version="1.0 (4035a4fb49, 2020-05-01)"
   sodipodi:docname="uEB1D-poi-info-o.svg"
   id="svg4460"
   height="100"
   width="100"
   version="1.1">
  <sodipodi:namedview
     inkscape:document-rotation="0"
     inkscape:current-layer="svg4460"
     inkscape:window-maximized="1"
     inkscape:window-y="-8"
     inkscape:window-x="-8"
     inkscape:cy="23.896703"
     inkscape:cx="36.242379"
     inkscape:zoom="2.8474719"
     showgrid="false"
     id="namedview11"
     inkscape:window-height="1017"
     inkscape:window-width="1920"
     inkscape:pageshadow="2"
     inkscape:pageopacity="0"
     guidetolerance="10"
     gridtolerance="10"
     objecttolerance="10"
     borderopacity="1"
     bordercolor="#666666"
     pagecolor="#ffffff" />
  <defs
     id="defs4462" />
  <metadata
     id="metadata4465">
    <rdf:RDF>
      <cc:Work
         rdf:about="">
        <dc:format>image/svg+xml</dc:format>
        <dc:type
           rdf:resource="http://purl.org/dc/dcmitype/StillImage" />
        <dc:title />
      </cc:Work>
    </rdf:RDF>
  </metadata>
  <path
     d="M 50.001953,0 C 28.103003,0 10,17.008145 10,37.931641 c 0,8.061361 2.711868,15.565915 7.267578,21.710937 l 25.996094,36.19336 0.109375,0.134765 c 2.05088,2.538133 4.36968,4.262577 7.09375,4.003906 2.72406,-0.258662 4.49157,-2.141609 6.15625,-4.279297 l 0.08789,-0.109374 28.732421,-39.9375 0.01758,-0.03125 c 0.671469,-1.150647 1.16581,-2.322292 1.58789,-3.462891 C 88.939408,47.761492 90,42.954219 90,37.931641 90,17.008532 71.900903,0 50.001953,0 Z m 0,5.3183594 c 19.14838,0 34.673828,14.7620856 34.673828,32.6132816 0,4.29672 -0.90059,8.394951 -2.53125,12.167968 l -0.0293,0.06836 -0.02734,0.07031 c -0.36195,0.98582 -0.755517,1.891417 -1.222657,2.69336 -0.001,0.0026 -0.0029,0.0052 -0.0039,0.0078 L 52.369141,92.484375 c -1.32681,1.682808 -2.261274,2.179407 -2.408203,2.193359 -0.146051,0.01387 -0.853744,-0.125703 -2.371094,-1.972656 l -25.900391,-36.033203 -0.07422,-0.09961 c -3.9686,-5.313649 -6.291015,-11.726159 -6.291015,-18.640625 0,-17.850815 15.529364,-32.6132816 34.677734,-32.6132816 z"
     style="color:#000000;font-style:normal;font-variant:normal;font-weight:normal;font-stretch:normal;font-size:medium;line-height:normal;font-family:sans-serif;font-variant-ligatures:normal;font-variant-position:normal;font-variant-caps:normal;font-variant-numeric:normal;font-variant-alternates:normal;font-variant-east-asian:normal;font-feature-settings:normal;font-variation-settings:normal;text-indent:0;text-align:start;text-decoration:none;text-decoration-line:none;text-decoration-style:solid;text-decoration-color:#000000;letter-spacing:normal;word-spacing:normal;text-transform:none;writing-mode:lr-tb;direction:ltr;text-orientation:mixed;dominant-baseline:auto;baseline-shift:baseline;text-anchor:start;white-space:normal;shape-padding:0;shape-margin:0;inline-size:0;clip-rule:nonzero;display:inline;overflow:visible;visibility:visible;opacity:1;isolation:auto;mix-blend-mode:normal;color-interpolation:sRGB;color-interpolation-filters:linearRGB;solid-color:#000000;solid-opacity:1;vector-effect:none;fill:#000080;fill-opacity:1;fill-rule:nonzero;stroke:none;stroke-width:5.32192;stroke-linecap:butt;stroke-linejoin:miter;stroke-miterlimit:4;stroke-dasharray:none;stroke-dashoffset:0;stroke-opacity:1;color-rendering:auto;image-rendering:auto;shape-rendering:auto;text-rendering:auto;enable-background:accumulate;stop-color:#000000;stop-opacity:1"
     id="path832-1" />
  <path
     d="M 50.039062 12.431641 C 47.77211 12.431641 45.849174 13.223092 44.267578 14.804688 C 42.738703 16.333562 41.972656 18.205688 41.972656 20.419922 C 41.972656 22.634155 42.764107 24.531686 44.345703 26.113281 C 45.927297 27.694877 47.824829 28.484375 50.039062 28.484375 C 52.2533 28.484375 54.125422 27.694877 55.654297 26.113281 C 57.235893 24.531686 58.027344 22.634155 58.027344 20.419922 C 58.027344 18.205688 57.235893 16.333562 55.654297 14.804688 C 54.125422 13.223087 52.253299 12.431641 50.039062 12.431641 z M 53.929688 33.263672 C 54.175888 33.263672 53.439186 33.300537 53.210938 33.373047 L 37.761719 37.023438 C 36.794879 37.331789 36.321117 38.192893 36.699219 38.957031 L 37.28125 40.130859 C 37.659953 40.896028 38.751832 41.279871 39.730469 40.992188 C 40.699588 40.706643 41.447398 40.597656 41.880859 40.597656 C 42.281741 40.597656 42.329731 40.65465 42.332031 40.65625 C 42.350781 40.66891 42.371265 40.681279 42.390625 40.693359 C 42.275761 40.621159 42.480112 40.781879 42.623047 41.259766 C 43.19896 46.99255 42.958984 48.385541 42.958984 54.751953 C 42.958984 56.516634 42.651641 57.707245 42.556641 57.867188 C 42.549741 57.879487 42.543509 57.891857 42.537109 57.904297 C 42.300896 58.332596 42.078047 58.498806 41.855469 58.597656 C 41.910679 58.573136 40.791987 58.826172 39.0625 58.826172 C 38.008182 58.826255 37.152449 59.497779 37.152344 60.326172 L 37.152344 61.5 C 37.152449 62.328393 38.008182 62.999917 39.0625 63 L 61.521484 63 C 62.575802 62.999917 63.429583 62.328393 63.429688 61.5 L 63.429688 60.326172 C 63.429583 59.497779 62.575802 58.826255 61.521484 58.826172 C 59.87124 58.826172 58.824058 58.59816 58.736328 58.5625 C 58.441546 58.424857 58.223773 58.23726 58.013672 57.896484 C 57.933652 57.730786 57.664062 56.533285 57.664062 54.751953 L 57.664062 34.763672 C 57.663956 33.935279 56.808224 33.263755 55.753906 33.263672 L 53.929688 33.263672 z "
     style="fill:#000080;stroke-width:4.64818"
     id="path851" />
</svg>
