<?xml version="1.0" encoding="UTF-8" standalone="no"?>
<svg
   xmlns:dc="http://purl.org/dc/elements/1.1/"
   xmlns:cc="http://creativecommons.org/ns#"
   xmlns:rdf="http://www.w3.org/1999/02/22-rdf-syntax-ns#"
   xmlns:svg="http://www.w3.org/2000/svg"
   xmlns="http://www.w3.org/2000/svg"
   xmlns:sodipodi="http://sodipodi.sourceforge.net/DTD/sodipodi-0.dtd"
   xmlns:inkscape="http://www.inkscape.org/namespaces/inkscape"
   version="1.1"
   width="100"
   height="100"
   id="svg4460"
   sodipodi:docname="uEB23-position-o.svg"
   inkscape:version="1.0 (4035a4fb49, 2020-05-01)">
  <path
     id="path859"
     d="m 50.001935,0 c -16.47755,0 -30.00195,13.4797 -30.00195,29.92187 0,6.37228 2.03945,12.31042 5.48047,17.17383 l -0.12305,-0.1914 19.20508,33.19726 0.0977,0.12696 c 0.77402,1.01117 1.53947,1.82413 2.4668,2.4375 0.92733,0.61337 2.11383,0.99965 3.27929,0.88281 2.33092,-0.23368 3.68518,-1.84413 4.93555,-3.53906 l 0.0781,-0.10547 21.17383,-36.03516 0.0176,-0.0293 c 0.50655,-0.9163 0.87363,-1.83875 1.1875,-2.73242 1.41016,-3.4582 2.20116,-7.23763 2.20116,-11.18555 C 80.000015,13.47996 66.479515,0 50.001965,0 Z m 0,5 c 13.75414,0 24.99805,11.21846 24.99805,24.92187 0,3.29783 -0.65636,6.44144 -1.83984,9.33204 l -0.0254,0.0625 -0.0215,0.0645 c -0.26331,0.75702 -0.54887,1.444 -0.87891,2.04101 l -20.95899,35.66407 c -0.92787,1.22154 -1.57511,1.50912 -1.36719,1.48828 0.10716,-0.0107 0.20593,0.0736 -0.0234,-0.0781 -0.21869,-0.14465 -0.66607,-0.57073 -1.19531,-1.24609 l -19.06054,-32.94922 -0.0664,-0.0937 c -2.87318,-4.06084 -4.5625,-8.97734 -4.5625,-14.28516 0,-13.70314 11.2478,-24.92187 25.00195,-24.92187 z m 0,7.84961 c -9.46158,0 -17.11523,7.62635 -17.11523,17.07226 0,9.44592 7.65414,17.07227 17.11523,17.07227 9.46109,0 17.11133,-7.62684 17.11133,-17.07227 -1e-5,-9.44542 -7.64975,-17.07226 -17.11133,-17.07226 z m 0,5 c 6.81731,0 12.11132,5.28529 12.11133,12.07226 0,6.78697 -5.29353,12.07227 -12.11133,12.07227 -6.8178,0 -12.11523,-5.28579 -12.11523,-12.07227 0,-6.78647 5.29792,-12.07226 12.11523,-12.07226 z"
     style="color:#000000;font-style:normal;font-variant:normal;font-weight:normal;font-stretch:normal;font-size:medium;line-height:normal;font-family:sans-serif;font-variant-ligatures:normal;font-variant-position:normal;font-variant-caps:normal;font-variant-numeric:normal;font-variant-alternates:normal;font-variant-east-asian:normal;font-feature-settings:normal;font-variation-settings:normal;text-indent:0;text-align:start;text-decoration:none;text-decoration-line:none;text-decoration-style:solid;text-decoration-color:#000000;letter-spacing:normal;word-spacing:normal;text-transform:none;writing-mode:lr-tb;direction:ltr;text-orientation:mixed;dominant-baseline:auto;baseline-shift:baseline;text-anchor:start;white-space:normal;shape-padding:0;shape-margin:0;inline-size:0;clip-rule:nonzero;display:inline;overflow:visible;visibility:visible;isolation:auto;mix-blend-mode:normal;color-interpolation:sRGB;color-interpolation-filters:linearRGB;solid-color:#000000;solid-opacity:1;vector-effect:none;fill:#000080;fill-opacity:1;fill-rule:nonzero;stroke:none;stroke-width:5;stroke-linecap:butt;stroke-linejoin:miter;stroke-miterlimit:4;stroke-dasharray:none;stroke-dashoffset:0;stroke-opacity:1;color-rendering:auto;image-rendering:auto;shape-rendering:auto;text-rendering:auto;enable-background:accumulate;stop-color:#000000" />
  <sodipodi:namedview
     inkscape:document-rotation="0"
     inkscape:current-layer="svg4460"
     inkscape:window-maximized="1"
     inkscape:window-y="-8"
     inkscape:window-x="-8"
     inkscape:cy="66.606093"
     inkscape:cx="99.919964"
     inkscape:zoom="2.8567114"
     showgrid="false"
     id="namedview11"
     inkscape:window-height="1017"
     inkscape:window-width="1920"
     inkscape:pageshadow="2"
     inkscape:pageopacity="0"
     guidetolerance="10"
     gridtolerance="10"
     objecttolerance="10"
     borderopacity="1"
     bordercolor="#666666"
     pagecolor="#ffffff" />
  <defs
     id="defs4462" />
  <metadata
     id="metadata4465">
    <rdf:RDF>
      <cc:Work
         rdf:about="">
        <dc:format>image/svg+xml</dc:format>
        <dc:type
           rdf:resource="http://purl.org/dc/dcmitype/StillImage" />
        <dc:title />
      </cc:Work>
    </rdf:RDF>
  </metadata>
  <path
     d="M 63.847656,73.353821 62.464844,75.0631 c 1.871002,0.226406 3.679689,0.492034 5.375,0.8125 l -5.478516,1.623047 7.3125,1.945312 5.451172,-1.71875 c 3.347581,1.122599 7.984304,2.495708 9.519531,4.056641 H 73.714844 l 1.085937,3.175781 h 11.341797 c -0.03339,1.789866 -3.233083,3.244857 -6.289062,4.422204 l -7.751954,-1.67611 -7.302734,2.617187 7.800781,1.780245 c -4.554508,1.240334 -12.201264,1.993814 -18.53125,2.341082 l -0.265625,-3.640625 h -7.605468 l -0.267578,3.640625 C 39.599702,94.094971 31.95479,93.341491 27.400391,92.101157 l 7.800781,-1.780245 -7.302734,-2.617187 -7.751954,1.67611 C 17.134262,88.465028 13.890809,86.747497 13.857422,84.957631 H 25.199219 L 26.285156,81.78185 H 15.355469 C 16.890697,80.220917 21.52731,78.847808 24.875,77.725209 l 5.451172,1.71875 7.3125,-1.945312 -5.478516,-1.623047 c 1.683353,-0.318206 3.479255,-0.581137 5.335938,-0.806641 l -1.363282,-1.713185 c -14.784792,1.537358 -27.0726135,4.810383 -30.2949214,9.97881 -5.13643533,8.2386 13.8203344,16.525164 43.5332034,16.654297 0.441643,0.02188 0.878341,0.0057 1.289062,0 29.69585,-0.135397 48.636363,-8.418965 43.501953,-16.654297 -3.223685,-5.170692 -15.520937,-8.444817 -30.314453,-9.980763 z"
     style="color:#000000;font-style:normal;font-variant:normal;font-weight:normal;font-stretch:normal;font-size:medium;line-height:normal;font-family:sans-serif;font-variant-ligatures:normal;font-variant-position:normal;font-variant-caps:normal;font-variant-numeric:normal;font-variant-alternates:normal;font-variant-east-asian:normal;font-feature-settings:normal;font-variation-settings:normal;text-indent:0;text-align:start;text-decoration:none;text-decoration-line:none;text-decoration-style:solid;text-decoration-color:#000000;letter-spacing:normal;word-spacing:normal;text-transform:none;writing-mode:lr-tb;direction:ltr;text-orientation:mixed;dominant-baseline:auto;baseline-shift:baseline;text-anchor:start;white-space:normal;shape-padding:0;shape-margin:0;inline-size:0;clip-rule:nonzero;display:inline;overflow:visible;visibility:visible;opacity:1;isolation:auto;mix-blend-mode:normal;color-interpolation:sRGB;color-interpolation-filters:linearRGB;solid-color:#000000;solid-opacity:1;vector-effect:none;fill:#000080;fill-opacity:1;fill-rule:nonzero;stroke:none;stroke-width:10.2343;stroke-linecap:round;stroke-linejoin:round;stroke-miterlimit:4;stroke-dasharray:none;stroke-dashoffset:70;stroke-opacity:1;color-rendering:auto;image-rendering:auto;shape-rendering:auto;text-rendering:auto;enable-background:accumulate;stop-color:#000000;stop-opacity:1"
     id="path958"
     sodipodi:nodetypes="ccccccccccccccccccccccccccccccccscccc" />
</svg>
