<?xml version="1.0" encoding="UTF-8" standalone="no"?>
<svg
   xmlns:dc="http://purl.org/dc/elements/1.1/"
   xmlns:cc="http://creativecommons.org/ns#"
   xmlns:rdf="http://www.w3.org/1999/02/22-rdf-syntax-ns#"
   xmlns:svg="http://www.w3.org/2000/svg"
   xmlns="http://www.w3.org/2000/svg"
   xmlns:sodipodi="http://sodipodi.sourceforge.net/DTD/sodipodi-0.dtd"
   xmlns:inkscape="http://www.inkscape.org/namespaces/inkscape"
   inkscape:version="1.0 (4035a4fb49, 2020-05-01)"
   sodipodi:docname="position-man.svg"
   id="svg4460"
   height="100"
   width="100"
   version="1.1">
  <sodipodi:namedview
     pagecolor="#ffffff"
     bordercolor="#666666"
     borderopacity="1"
     objecttolerance="10"
     gridtolerance="10"
     guidetolerance="10"
     inkscape:pageopacity="0"
     inkscape:pageshadow="2"
     inkscape:window-width="1920"
     inkscape:window-height="1017"
     id="namedview11"
     showgrid="false"
     inkscape:zoom="2.8567114"
     inkscape:cx="61.248972"
     inkscape:cy="43.225061"
     inkscape:window-x="-8"
     inkscape:window-y="-8"
     inkscape:window-maximized="1"
     inkscape:current-layer="svg4460"
     inkscape:document-rotation="0" />
  <defs
     id="defs4462" />
  <metadata
     id="metadata4465">
    <rdf:RDF>
      <cc:Work
         rdf:about="">
        <dc:format>image/svg+xml</dc:format>
        <dc:type
           rdf:resource="http://purl.org/dc/dcmitype/StillImage" />
        <dc:title />
      </cc:Work>
    </rdf:RDF>
  </metadata>
  <path
     style="color:#000000;font-style:normal;font-variant:normal;font-weight:normal;font-stretch:normal;font-size:medium;line-height:normal;font-family:sans-serif;font-variant-ligatures:normal;font-variant-position:normal;font-variant-caps:normal;font-variant-numeric:normal;font-variant-alternates:normal;font-variant-east-asian:normal;font-feature-settings:normal;font-variation-settings:normal;text-indent:0;text-align:start;text-decoration:none;text-decoration-line:none;text-decoration-style:solid;text-decoration-color:#000000;letter-spacing:normal;word-spacing:normal;text-transform:none;writing-mode:lr-tb;direction:ltr;text-orientation:mixed;dominant-baseline:auto;baseline-shift:baseline;text-anchor:start;white-space:normal;shape-padding:0;shape-margin:0;inline-size:0;clip-rule:nonzero;display:inline;overflow:visible;visibility:visible;isolation:auto;mix-blend-mode:normal;color-interpolation:sRGB;color-interpolation-filters:linearRGB;solid-color:#000000;solid-opacity:1;vector-effect:none;fill:#000080;fill-opacity:1;fill-rule:nonzero;stroke:none;stroke-width:4.99996;stroke-linecap:butt;stroke-linejoin:miter;stroke-miterlimit:4;stroke-dasharray:none;stroke-dashoffset:0;stroke-opacity:1;color-rendering:auto;image-rendering:auto;shape-rendering:auto;text-rendering:auto;enable-background:accumulate;stop-color:#000000"
     d="m 68.912802,48.907851 -0.04824,0.126174 c 0.01569,-0.03832 0.02717,-0.07672 0.04267,-0.115041 0.0015,-0.0039 0.004,-0.0072 0.0056,-0.01113 z"
     id="path854" />
  <path
     sodipodi:nodetypes="ccccccccccccccccccccccccccccccccscccc"
     id="path958"
     style="color:#000000;font-style:normal;font-variant:normal;font-weight:normal;font-stretch:normal;font-size:medium;line-height:normal;font-family:sans-serif;font-variant-ligatures:normal;font-variant-position:normal;font-variant-caps:normal;font-variant-numeric:normal;font-variant-alternates:normal;font-variant-east-asian:normal;font-feature-settings:normal;font-variation-settings:normal;text-indent:0;text-align:start;text-decoration:none;text-decoration-line:none;text-decoration-style:solid;text-decoration-color:#000000;letter-spacing:normal;word-spacing:normal;text-transform:none;writing-mode:lr-tb;direction:ltr;text-orientation:mixed;dominant-baseline:auto;baseline-shift:baseline;text-anchor:start;white-space:normal;shape-padding:0;shape-margin:0;inline-size:0;clip-rule:nonzero;display:inline;overflow:visible;visibility:visible;opacity:1;isolation:auto;mix-blend-mode:normal;color-interpolation:sRGB;color-interpolation-filters:linearRGB;solid-color:#000000;solid-opacity:1;vector-effect:none;fill:#000080;fill-opacity:1;fill-rule:nonzero;stroke:none;stroke-width:10.2343;stroke-linecap:round;stroke-linejoin:round;stroke-miterlimit:4;stroke-dasharray:none;stroke-dashoffset:70;stroke-opacity:1;color-rendering:auto;image-rendering:auto;shape-rendering:auto;text-rendering:auto;enable-background:accumulate;stop-color:#000000;stop-opacity:1"
     d="m 63.847656,73.353825 -1.382812,1.709279 c 1.871002,0.226406 3.679689,0.492034 5.375,0.8125 l -5.478516,1.623047 7.3125,1.945312 5.451172,-1.71875 c 3.347581,1.122599 7.984304,2.495708 9.519531,4.056641 H 73.714844 l 1.085937,3.175781 h 11.341797 c -0.03339,1.789866 -3.233083,3.244857 -6.289062,4.422204 l -7.751954,-1.67611 -7.302734,2.617187 7.800781,1.780245 c -4.554508,1.240334 -12.201264,1.993814 -18.53125,2.341082 l -0.265625,-3.640625 h -7.605468 l -0.267578,3.640625 C 39.599702,94.094975 31.95479,93.341495 27.400391,92.101161 l 7.800781,-1.780245 -7.302734,-2.617187 -7.751954,1.67611 c -3.012222,-0.914807 -6.255675,-2.632338 -6.289062,-4.422204 h 11.341797 l 1.085937,-3.175781 H 15.355469 C 16.890697,80.220921 21.52731,78.847812 24.875,77.725213 l 5.451172,1.71875 7.3125,-1.945312 -5.478516,-1.623047 c 1.683353,-0.318206 3.479255,-0.581137 5.335938,-0.806641 l -1.363282,-1.713185 c -14.784792,1.537358 -27.0726135,4.810383 -30.2949214,9.97881 -5.13643533,8.2386 13.8203344,16.525164 43.5332034,16.654297 0.441643,0.02188 0.878341,0.0057 1.289062,0 C 80.356006,99.853488 99.296519,91.56992 94.162109,83.334588 90.938424,78.163896 78.641172,74.889771 63.847656,73.353825 Z" />
  <path
     d="M 49.855091,2.4868057e-4 A 10.5,10.5 0 0 0 39.499621,10.500248 a 10.5,10.5 0 0 0 10.5,10.5 10.5,10.5 0 0 0 10.5,-10.5 10.5,10.5 0 0 0 -10.5,-10.49999931943 10.5,10.5 0 0 0 -0.14453,0 z M 49.798491,23.592045 c -7.83472,0.0015 -15.5968,3.368255 -14.78125,10.095703 l 2,14.625 c 0.35185,2.572928 2.09063,6.6875 4.6875,6.6875 h 0.18555 l 2.12695,24.53125 c 0.092,1.104173 0.892,2 2,2 h 8 c 1.108,0 1.90799,-0.895827 2,-2 l 2.12695,-24.53125 h 0.18555 c 2.59688,0 4.33565,-4.114572 4.6875,-6.6875 l 2,-14.625 c 0.52331,-6.73356 -7.38403,-10.097231 -15.21875,-10.095703 z"
     style="color:#000000;overflow:visible;fill:#000080;stroke:none;stroke-width:2.93395;stroke-linejoin:round;stop-color:#000000"
     id="rect839" />
  <path
     id="path854-9"
     d="m -159.24994,61.817049 -0.0482,0.126174 c 0.0157,-0.03832 0.0272,-0.07672 0.0427,-0.115041 0.001,-0.0039 0.004,-0.0072 0.006,-0.01113 z"
     style="color:#000000;font-style:normal;font-variant:normal;font-weight:normal;font-stretch:normal;font-size:medium;line-height:normal;font-family:sans-serif;font-variant-ligatures:normal;font-variant-position:normal;font-variant-caps:normal;font-variant-numeric:normal;font-variant-alternates:normal;font-variant-east-asian:normal;font-feature-settings:normal;font-variation-settings:normal;text-indent:0;text-align:start;text-decoration:none;text-decoration-line:none;text-decoration-style:solid;text-decoration-color:#000000;letter-spacing:normal;word-spacing:normal;text-transform:none;writing-mode:lr-tb;direction:ltr;text-orientation:mixed;dominant-baseline:auto;baseline-shift:baseline;text-anchor:start;white-space:normal;shape-padding:0;shape-margin:0;inline-size:0;clip-rule:nonzero;display:inline;overflow:visible;visibility:visible;isolation:auto;mix-blend-mode:normal;color-interpolation:sRGB;color-interpolation-filters:linearRGB;solid-color:#000000;solid-opacity:1;vector-effect:none;fill:#000080;fill-opacity:1;fill-rule:nonzero;stroke:none;stroke-width:4.99996;stroke-linecap:butt;stroke-linejoin:miter;stroke-miterlimit:4;stroke-dasharray:none;stroke-dashoffset:0;stroke-opacity:1;color-rendering:auto;image-rendering:auto;shape-rendering:auto;text-rendering:auto;enable-background:accumulate;stop-color:#000000" />
</svg>
