<?xml version="1.0" encoding="UTF-8" standalone="no"?>
<svg
   xmlns:dc="http://purl.org/dc/elements/1.1/"
   xmlns:cc="http://creativecommons.org/ns#"
   xmlns:rdf="http://www.w3.org/1999/02/22-rdf-syntax-ns#"
   xmlns:svg="http://www.w3.org/2000/svg"
   xmlns="http://www.w3.org/2000/svg"
   xmlns:sodipodi="http://sodipodi.sourceforge.net/DTD/sodipodi-0.dtd"
   xmlns:inkscape="http://www.inkscape.org/namespaces/inkscape"
   version="1.1"
   width="100"
   height="100"
   id="svg4460"
   sodipodi:docname="uEB4D-pois-slash.svg"
   inkscape:version="1.0 (4035a4fb49, 2020-05-01)">
  <sodipodi:namedview
     pagecolor="#ffffff"
     bordercolor="#666666"
     borderopacity="1"
     objecttolerance="10"
     gridtolerance="10"
     guidetolerance="10"
     inkscape:pageopacity="0"
     inkscape:pageshadow="2"
     inkscape:window-width="1920"
     inkscape:window-height="1017"
     id="namedview11"
     showgrid="false"
     inkscape:zoom="2.8567114"
     inkscape:cx="60.680434"
     inkscape:cy="90.545324"
     inkscape:window-x="-8"
     inkscape:window-y="-8"
     inkscape:window-maximized="1"
     inkscape:current-layer="svg4460"
     inkscape:document-rotation="0" />
  <defs
     id="defs4462" />
  <metadata
     id="metadata4465">
    <rdf:RDF>
      <cc:Work
         rdf:about="">
        <dc:format>image/svg+xml</dc:format>
        <dc:type
           rdf:resource="http://purl.org/dc/dcmitype/StillImage" />
        <dc:title />
      </cc:Work>
    </rdf:RDF>
  </metadata>
  <path
     style="color:#000000;font-style:normal;font-variant:normal;font-weight:normal;font-stretch:normal;font-size:medium;line-height:normal;font-family:sans-serif;font-variant-ligatures:normal;font-variant-position:normal;font-variant-caps:normal;font-variant-numeric:normal;font-variant-alternates:normal;font-variant-east-asian:normal;font-feature-settings:normal;font-variation-settings:normal;text-indent:0;text-align:start;text-decoration:none;text-decoration-line:none;text-decoration-style:solid;text-decoration-color:#000000;letter-spacing:normal;word-spacing:normal;text-transform:none;writing-mode:lr-tb;direction:ltr;text-orientation:mixed;dominant-baseline:auto;baseline-shift:baseline;text-anchor:start;white-space:normal;shape-padding:0;shape-margin:0;inline-size:0;clip-rule:nonzero;display:inline;overflow:visible;visibility:visible;isolation:auto;mix-blend-mode:normal;color-interpolation:sRGB;color-interpolation-filters:linearRGB;solid-color:#000000;solid-opacity:1;vector-effect:none;fill:#000080;fill-opacity:1;fill-rule:nonzero;stroke:none;stroke-width:4.99996;stroke-linecap:butt;stroke-linejoin:miter;stroke-miterlimit:4;stroke-dasharray:none;stroke-dashoffset:0;stroke-opacity:1;color-rendering:auto;image-rendering:auto;shape-rendering:auto;text-rendering:auto;enable-background:accumulate;stop-color:#000000"
     d="m 68.912802,48.907851 -0.04824,0.126174 c 0.01569,-0.03832 0.02717,-0.07672 0.04267,-0.115041 0.0015,-0.0039 0.004,-0.0072 0.0056,-0.01113 z"
     id="path854" />
  <path
     d="M 50.001953 0 C 30.763602 0 15 15.718954 15 34.902344 C 15 42.335126 17.374454 49.240855 21.392578 54.919922 L 24.113281 59.623047 L 36.279297 47.457031 C 33.252098 44.165372 31.400391 39.777074 31.400391 34.902344 C 31.400391 24.572641 39.642654 16.353516 50.001953 16.353516 C 54.871483 16.353516 59.257839 18.184215 62.554688 21.181641 L 74.082031 9.6542969 C 67.793818 3.6852168 59.308177 -4.5828388e-15 50.001953 0 z M 84.826172 31.4375 C 68.561659 47.702015 52.297718 63.965954 36.033203 80.230469 L 45.730469 96.994141 C 49.138959 101.44696 51.404184 100.6015 54.238281 96.759766 L 81.083984 51.076172 C 81.626297 50.095184 82.050876 49.051031 82.421875 47.984375 C 84.078789 43.93748 85.000002 39.522753 85 34.902344 C 85 33.733909 84.940333 32.577455 84.826172 31.4375 z "
     style="fill:#000080;stroke-width:4.26019"
     id="path4135" />
  <rect
     transform="rotate(45)"
     y="-60"
     x="63.210678"
     height="120"
     width="15"
     id="rect837"
     style="color:#000000;overflow:visible;fill:#000080;stroke-width:11.3718;stroke-linecap:round;stroke-linejoin:round;stop-color:#000000" />
</svg>
