<?xml version="1.0" encoding="UTF-8" standalone="no"?>
<svg
   xmlns:dc="http://purl.org/dc/elements/1.1/"
   xmlns:cc="http://creativecommons.org/ns#"
   xmlns:rdf="http://www.w3.org/1999/02/22-rdf-syntax-ns#"
   xmlns:svg="http://www.w3.org/2000/svg"
   xmlns="http://www.w3.org/2000/svg"
   xmlns:sodipodi="http://sodipodi.sourceforge.net/DTD/sodipodi-0.dtd"
   xmlns:inkscape="http://www.inkscape.org/namespaces/inkscape"
   version="1.1"
   width="100"
   height="100"
   id="svg4460"
   sodipodi:docname="poi-slash-o.svg"
   inkscape:version="1.0 (4035a4fb49, 2020-05-01)">
  <sodipodi:namedview
     pagecolor="#ffffff"
     bordercolor="#666666"
     borderopacity="1"
     objecttolerance="10"
     gridtolerance="10"
     guidetolerance="10"
     inkscape:pageopacity="0"
     inkscape:pageshadow="2"
     inkscape:window-width="1920"
     inkscape:window-height="1017"
     id="namedview11"
     showgrid="false"
     inkscape:zoom="2.02"
     inkscape:cx="-78.460726"
     inkscape:cy="70.031285"
     inkscape:window-x="-8"
     inkscape:window-y="-8"
     inkscape:window-maximized="1"
     inkscape:current-layer="svg4460"
     inkscape:document-rotation="0" />
  <defs
     id="defs4462" />
  <metadata
     id="metadata4465">
    <rdf:RDF>
      <cc:Work
         rdf:about="">
        <dc:format>image/svg+xml</dc:format>
        <dc:type
           rdf:resource="http://purl.org/dc/dcmitype/StillImage" />
        <dc:title />
      </cc:Work>
    </rdf:RDF>
  </metadata>
  <path
     d="M 50.001953 0 C 30.363433 0 14.25 16.062131 14.25 35.65625 C 14.25 43.179973 16.640808 50.188663 20.673828 55.955078 L 23.279297 60.457031 L 26.9375 56.798828 L 24.927734 53.324219 L 24.863281 53.232422 C 21.329904 48.238479 19.25 42.185311 19.25 35.65625 C 19.25 18.801163 33.086837 5 50.001953 5 C 57.955163 5 65.226265 8.052144 70.699219 13.037109 L 74.222656 9.5136719 C 67.837505 3.6204514 59.319577 -4.4949553e-15 50.001953 0 z M 50.001953 15.537109 C 38.838277 15.537109 29.830078 24.513105 29.830078 35.65625 C 29.830078 40.745743 31.724551 45.369676 34.830078 48.90625 L 38.326172 45.410156 C 36.13706 42.795071 34.830078 39.408986 34.830078 35.65625 C 34.830078 27.172545 41.482545 20.537109 50.001953 20.537109 C 53.75057 20.537109 57.134767 21.822906 59.751953 23.984375 L 63.248047 20.488281 C 59.706745 17.41028 55.084 15.537109 50.001953 15.537109 z M 85.414062 30.849609 C 83.858055 32.405617 82.302102 33.96157 80.746094 35.517578 C 80.746304 35.564049 80.75 35.609733 80.75 35.65625 C 80.750002 39.713233 79.94401 43.583157 78.488281 47.138672 L 78.460938 47.201172 L 78.439453 47.263672 C 78.115191 48.195955 77.760939 49.054318 77.341797 49.8125 L 51.974609 92.980469 C 50.803165 94.540186 49.948264 95.001266 49.941406 95.001953 C 49.937908 95.002304 49.924527 95.055926 49.574219 94.824219 C 49.23599 94.600502 48.6592 94.049852 47.986328 93.185547 L 38.857422 77.40625 C 37.638006 78.625665 36.418634 79.845038 35.199219 81.064453 L 43.861328 96.037109 L 43.958984 96.166016 C 44.873015 97.360094 45.766182 98.300776 46.814453 98.994141 C 47.862724 99.687505 49.163341 100.10449 50.439453 99.976562 C 52.991678 99.720703 54.555864 97.918741 56.039062 95.908203 L 56.117188 95.802734 L 81.701172 52.261719 L 81.716797 52.232422 C 82.316272 51.148038 82.758703 50.045153 83.134766 48.970703 C 84.811813 44.85327 85.750002 40.355347 85.75 35.65625 C 85.75 34.026379 85.629757 32.423397 85.414062 30.849609 z "
     style="color:#000000;font-style:normal;font-variant:normal;font-weight:normal;font-stretch:normal;font-size:medium;line-height:normal;font-family:sans-serif;font-variant-ligatures:normal;font-variant-position:normal;font-variant-caps:normal;font-variant-numeric:normal;font-variant-alternates:normal;font-variant-east-asian:normal;font-feature-settings:normal;font-variation-settings:normal;text-indent:0;text-align:start;text-decoration:none;text-decoration-line:none;text-decoration-style:solid;text-decoration-color:#000000;letter-spacing:normal;word-spacing:normal;text-transform:none;writing-mode:lr-tb;direction:ltr;text-orientation:mixed;dominant-baseline:auto;baseline-shift:baseline;text-anchor:start;white-space:normal;shape-padding:0;shape-margin:0;inline-size:0;clip-rule:nonzero;display:inline;overflow:visible;visibility:visible;isolation:auto;mix-blend-mode:normal;color-interpolation:sRGB;color-interpolation-filters:linearRGB;solid-color:#000000;solid-opacity:1;vector-effect:none;fill:#000080;fill-opacity:1;fill-rule:nonzero;stroke:none;stroke-width:5;stroke-linecap:butt;stroke-linejoin:miter;stroke-miterlimit:4;stroke-dasharray:none;stroke-dashoffset:0;stroke-opacity:1;color-rendering:auto;image-rendering:auto;shape-rendering:auto;text-rendering:auto;enable-background:accumulate;stop-color:#000000;stop-opacity:1;opacity:1"
     id="path832" />
  <rect
     style="color:#000000;overflow:visible;fill:#000080;stroke-width:11.3718;stroke-linecap:round;stroke-linejoin:round;stop-color:#000000"
     id="rect837"
     width="15"
     height="120"
     x="63.210678"
     y="-60"
     transform="rotate(45)" />
</svg>
