<?xml version="1.0" encoding="UTF-8" standalone="no"?>
<svg
   xmlns:dc="http://purl.org/dc/elements/1.1/"
   xmlns:cc="http://creativecommons.org/ns#"
   xmlns:rdf="http://www.w3.org/1999/02/22-rdf-syntax-ns#"
   xmlns:svg="http://www.w3.org/2000/svg"
   xmlns="http://www.w3.org/2000/svg"
   xmlns:sodipodi="http://sodipodi.sourceforge.net/DTD/sodipodi-0.dtd"
   xmlns:inkscape="http://www.inkscape.org/namespaces/inkscape"
   version="1.1"
   width="100"
   height="100"
   id="svg4460"
   sodipodi:docname="globe.svg"
   inkscape:version="1.0 (4035a4fb49, 2020-05-01)">
  <sodipodi:namedview
     pagecolor="#ffffff"
     bordercolor="#666666"
     borderopacity="1"
     objecttolerance="10"
     gridtolerance="10"
     guidetolerance="10"
     inkscape:pageopacity="0"
     inkscape:pageshadow="2"
     inkscape:window-width="1920"
     inkscape:window-height="1017"
     id="namedview11"
     showgrid="false"
     inkscape:zoom="0.67263533"
     inkscape:cx="260.49689"
     inkscape:cy="345.14298"
     inkscape:window-x="-8"
     inkscape:window-y="-8"
     inkscape:window-maximized="1"
     inkscape:current-layer="svg4460"
     inkscape:document-rotation="0" />
  <defs
     id="defs4462" />
  <metadata
     id="metadata4465">
    <rdf:RDF>
      <cc:Work
         rdf:about="">
        <dc:format>image/svg+xml</dc:format>
        <dc:type
           rdf:resource="http://purl.org/dc/dcmitype/StillImage" />
        <dc:title />
      </cc:Work>
    </rdf:RDF>
  </metadata>
  <path
     id="path948"
     style="fill:#000000;stroke-width:0.208996"
     d="m -147.86263,258.17422 c -17.90511,-0.26194 -34.93166,-11.4169 -42.49387,-27.61604 -8.27272,-16.50105 -6.28691,-37.67022 5.60017,-51.93565 10.81322,-13.9128 29.43455,-21.20909 46.79413,-17.86859 18.60994,3.0608 34.70987,17.67111 39.20215,36.04472 5.425842,19.07955 -2.89246,40.53212 -18.75949,52.07251 -8.66252,6.57353 -19.52724,9.65139 -30.34309,9.30305 z m 8.67329,-1.01732 c 3.48843,-0.0772 9.40229,-2.62854 11.29962,-2.94637 4.29074,-1.39548 7.98988,-4.58095 11.73653,-7.13869 10.42629,-8.06846 16.986874,-20.75715 18.554352,-33.75873 0.525858,-4.89788 -0.443135,-9.81152 -1.361086,-14.58291 -0.553559,-2.7282 -1.959606,-3.93517 -1.285856,-0.44523 -1.11494,4.37929 1.604117,10.0407 0.401506,13.49197 -0.438776,-1.52727 -0.02684,-2.5149 -1.056346,-1.24487 -1.98791,-3.48426 -1.70667,-9.87981 -5.23619,-11.27571 -0.92219,-3.44997 -2.77032,-3.02352 -6.37315,-2.31978 -5.69816,-0.93792 3.37048,1.84952 0.71516,4.71874 -0.63151,3.07095 -3.41993,5.95369 -6.28595,7.64208 -2.03146,1.23102 -7.55336,5.55029 -2.15783,3.54935 2.02753,0.14209 3.61916,-3.15935 4.3177,0.2144 -1.12815,4.0106 -2.56066,8.15716 -5.97822,10.8076 -2.22923,1.87539 -4.53408,5.70593 -5.18857,7.05034 0.63239,1.02754 -0.58983,3.92988 0.56047,4.65378 1.9508,6.13593 -6.76542,5.60866 -6.50643,10.43426 -2.85562,2.63107 -5.65338,6.48769 -10.22665,6.78074 -5.87764,2.40531 -8.72421,-3.77699 -11.18096,-7.84751 -4.43577,-3.12879 1.08984,-6.91865 -1.11174,-10.5539 -0.8435,-3.63716 -6.00314,-5.56578 -4.23752,-9.56157 1.69114,-3.34509 -4.58027,-1.95179 -5.17317,-5.29308 -3.21584,-1.02855 -5.8152,2.03183 -9.24503,0.25934 -5.19213,0.53384 -5.81162,-6.20054 -8.45486,-8.98934 -0.23359,-4.28982 1.25055,-8.41563 2.46285,-12.538 2.47518,-2.77176 3.9482,-4.24168 0.046,-4.44456 0.68038,-2.65366 1.64547,1.09185 3.7356,-1.11234 -0.97998,3.52096 3.71738,-1.55125 4.03706,-3.16859 2.35368,-0.6192 3.83981,-3.46703 1.32885,-3.70338 0.91104,-3.69803 2.91547,-7.55499 7.26813,-5.51979 1.2358,-2.68924 -0.80467,-4.02034 1.88604,-5.2402 -3.94267,1.73528 0.79714,-2.66193 -2.58976,-0.96144 -3.22043,-0.5789 3.21733,-3.09337 3.45263,-4.39945 4.27659,-1.79645 1.63444,0.4133 2.11521,2.81142 -0.0393,3.27391 2.71089,0.0733 4.6465,-0.59635 -0.11233,-1.87948 4.09224,-2.49893 0.30546,-1.81143 -2.66048,-2.55637 4.42025,-4.25191 5.53833,-5.82819 3.73182,-2.16961 9.33443,1.97234 10.7498,-0.0475 4.30278,0.28641 -1.20083,-0.16908 -0.46807,-2.26365 1.05271,-0.53073 3.68553,3.48624 3.71393,1.35959 1.15004,-1.4288 -3.72891,-2.03322 -6.35217,-2.34643 2.16254,0.93956 -4.08042,0.43397 -1.30615,-0.055 -4.84926,-0.98734 -9.54839,0.12726 -13.99534,1.97959 -4.88393,1.98386 -10.23964,2.61151 -14.85678,5.29846 2.6975,-3.51878 -4.08469,1.96593 -5.19121,2.72545 -3.64173,3.76475 -5.78275,4.47787 -8.70864,8.62127 -7.02168,9.67917 -11.5597,21.97691 -9.83315,34.03537 0.63547,4.80529 4.46117,8.69247 4.11035,13.70481 1.89455,8.31223 8.07249,14.98142 14.51847,20.22542 10.29493,8.1672 23.91163,11.47925 36.86022,9.63 z m 12.79312,-11.07792 c 0.2037,-4.35412 2.93711,-7.37258 6.37954,-9.90954 2.54771,-3.48474 1.1152,4.22439 -0.69203,5.09918 -1.28192,1.52606 -3.30359,5.894 -5.68751,4.81036 z m -36.79692,-79.27263 c -0.77702,-2.43263 7.06174,-1.52799 1.90327,-0.0925 -0.61733,0.15191 -1.27279,0.3245 -1.90327,0.0925 z m 38.97168,43.19875 c -1.38924,-1.92525 -1.45702,-4.37406 -3.59913,-5.89748 -1.55881,-2.67073 -3.30669,-6.07759 -5.74476,-7.74015 -0.10208,1.84718 1.91089,3.51327 2.73564,5.34063 1.31206,2.63665 2.84678,5.93836 4.70432,7.23651 0.22729,0.46818 1.33678,1.78077 1.90393,1.06049 z m 7.87833,-12.47262 c 1.27996,-2.21013 -4.00613,-1.8354 -4.68543,-4.19473 -1.24236,1.1021 3.04999,3.94684 4.08189,4.62131 z m -31.82639,-4.99082 c 1.9519,-4.75661 6.56221,1.51484 9.7862,-0.34295 3.39444,1.84557 6.09926,-2.76804 3.65419,-4.64006 0.084,2.05829 -2.08384,2.25377 -2.16834,0.33218 -2.44886,-1.3965 -5.91466,3.20534 -8.15364,0.29246 -3.22036,-1.60786 -2.64017,-6.18275 -6.18581,-7.29956 -4.1842,-2.63449 2.27275,2.20725 2.57463,3.50488 -1.84216,-0.96437 -2.76827,4.57514 -4.27531,3.42819 -2.16384,-1.81442 -1.35672,-2.45866 1.15627,-2.83032 1.49775,-0.0329 -5.34145,-5.91656 -4.08333,-0.55081 -2.92497,2.39424 -0.99871,-3.93229 0.44472,-3.68751 -3.0078,-0.14231 -5.04043,0.94492 -7.52335,2.83792 -1.06609,2.13395 -3.14509,3.59192 -5.38624,3.70221 3.80489,0.37959 7.95167,-1.3113 11.92458,-1.27713 2.98201,0.50181 -1.15087,5.18699 3.15438,4.70951 1.23288,0.086 4.2106,4.0655 5.08105,1.82099 z m 27.27766,-6.7401 c 0.32589,-2.22366 -4.92915,-5.71321 -4.60248,-6.79174 1.60416,-3.36431 -4.63636,1.06892 -0.18635,2.54132 3.03862,0.9264 0.12118,5.47612 4.78883,4.25042 z m -17.40977,-3.37162 c 1.38358,-1.79825 9.34977,1.73197 6.25769,-1.38861 -2.52784,-1.88552 -5.23337,-0.0644 -6.96648,-2.3876 -1.39439,1.26644 -3.42294,5.04768 0.70879,3.77621 z m -10.94191,-10.33029 c 2.91146,1.3987 4.42707,-5.60341 0.72493,-2.02675 -0.14057,1.78008 -4.60288,2.42775 -0.72493,2.02675 z" />
  <path
     id="path964"
     style="fill:#000000;stroke-width:0.208996"
     d="m 170.73465,101.13368 c -18.27535,-0.23669 -35.48419,-12.011215 -42.84308,-28.651062 -7.6699,-16.13057 -5.64302,-36.430044 5.62369,-50.400471 10.42398,-13.9341854 28.62962,-21.53801612 45.85102,-18.6393851 18.78892,2.6468557 35.17907,17.0392851 40.23356,35.3314921 4.83771,14.907148 1.14379,31.894649 -8.88412,43.82727 -9.59811,11.832825 -24.67758,19.106876 -39.98107,18.532156 z m 9.32208,-1.10374 c 12.94271,-2.238313 25.39694,-9.507659 32.49142,-20.705365 -2.2862,2.101833 -5.01425,6.806762 -8.03836,6.253048 2.8723,-4.743943 1.45976,-10.53187 3.74035,-15.430308 2.44733,-3.518477 1.54233,-8.421537 -0.70998,-11.70374 0.63138,-3.010946 1.10577,-6.148859 -2.65201,-5.982365 -2.08329,-4.490875 -5.84629,2.233901 -9.40141,0.385675 -4.07522,1.594558 -7.56949,-2.616553 -9.52415,-5.522229 -3.34609,-1.160188 -3.85373,-5.655565 -2.37189,-8.483131 -0.13882,-1.739364 -2.3014,-4.248358 0.87061,-4.142386 -5.12264,0.880609 1.27098,-4.816425 0.27548,-6.121817 -1.66595,0.834188 -5.96542,-0.733488 -3.19459,-1.060628 1.84026,0.841598 3.52471,-1.017256 4.37878,0.516915 2.57237,-1.167832 1.77917,-4.598543 3.68115,-6.365422 -2.75241,-0.682741 -3.17645,-3.306535 -4.05713,-5.772307 1.84328,-0.886565 7.29721,0.677318 3.05486,-2.116906 -1.26825,-0.376255 -2.73648,-1.282454 -0.87229,-1.85957 -3.00776,1.204843 -2.30323,-3.9095166 -3.60409,-0.969042 -3.65346,0.26774 -0.35637,-2.3538549 -1.78408,-3.204466 2.71277,-2.1156632 2.92234,2.333968 6.23767,2.580463 2.71859,2.263882 2.08724,-3.1204579 -0.61969,-1.9742354 -2.80664,-3.6807458 -7.27441,-4.7152186 -12.09716,-4.5897152 -3.52296,1.0274781 -7.90068,1.1069907 -11.24616,3.4143134 -2.70722,1.2215282 -2.96552,-2.3568706 -0.69276,-2.7882926 -2.81538,0.446493 -7.28521,2.9568892 -8.76463,3.3636759 1.84942,-0.8136507 0.21596,2.0357879 1.12106,2.8076879 -1.46094,1.442148 0.31178,4.744246 -3.77685,3.374084 -1.72818,-0.648214 3.51398,-2.994068 -0.62956,-1.473878 -2.20733,0.683095 -2.357,1.631551 -0.74935,2.096343 -3.6185,2.297514 -5.83026,1.5338 -8.94204,4.396333 -3.18898,3.489541 -8.03078,6.045067 -9.20148,10.948337 1.9144,-0.553512 0.14968,3.564899 1.5871,4.299105 0.28081,0.66239 -1.96326,1.925659 0.75236,2.324767 -0.12077,1.72976 4.3346,0.629088 2.10716,2.084964 -1.63655,-0.53714 -6.59995,1.042937 -4.51852,-1.771603 -2.49593,0.61988 -1.51775,-2.650742 -3.67651,-2.193013 0.57135,-4.001557 5.56688,2.103651 4.27731,-0.387593 -1.05359,-0.02458 0.45551,-3.883844 -1.34812,-1.303432 1.90017,-4.281051 -0.32222,-0.472563 -0.74978,-1.262011 0.88494,-2.696775 1.15207,-4.606028 -1.11959,-3.255144 -1.59217,2.334348 -3.51817,6.615695 -3.57711,8.480215 1.14639,-3.093002 3.12938,-2.784869 1.15688,0.313675 -1.07574,2.292613 0.71729,4.522123 -0.57425,7.70578 1.04079,3.785069 3.77025,-2.049244 5.62071,-1.27954 0.28634,-0.820503 2.30659,-0.2947 1.61035,1.547468 2.14969,0.594341 1.65989,-0.642976 2.45046,-0.448503 2.17847,1.132173 3.06707,-1.228854 2.37571,2.349445 1.26046,3.997662 7.42705,2.642842 7.87846,7.132118 0.70134,3.851211 4.36144,3.541692 6.5751,5.579668 3.56603,1.025105 8.52708,2.048283 10.21296,5.594241 0.74831,4.331291 -5.25972,6.073477 -3.85889,10.642849 0.54872,4.981246 -3.65043,5.117327 -6.87465,6.62247 0.71316,2.721613 -2.53565,6.513947 -3.55692,6.572357 0.39109,1.382641 -3.17243,2.741633 -0.025,4.592059 3.17067,3.155008 7.65326,4.665533 12.01293,5.568733 5.98698,1.560143 12.24998,1.355783 18.34013,0.619853 z M 138.49676,44.736597 c 1.57382,-1.950403 -0.36339,-6.066887 0.61687,-6.703367 0.71919,-0.643382 1.56252,5.832608 -0.61687,6.703367 z m 5.0389,45.640445 c -4.19659,-4.176828 -6.08753,-10.022168 -8.11462,-15.448656 -2.39753,-3.266229 -5.39606,-6.252128 -6.44519,-10.343977 -1.73725,-3.619785 -2.49689,-8.196213 -0.77175,-11.917128 0.44591,-1.561223 0.64147,-6.376972 -0.75131,-4.144828 -1.9655,-1.411692 -0.89379,-8.960366 -2.42027,-7.523329 -4.62668,18.567079 3.20102,39.484852 18.9237,50.424498 1.48857,1.362909 1.17516,0.55809 0.16036,-0.403721 z m 63.86792,-64.555606 c -1.29512,-3.547283 7.53708,3.616111 3.93445,-1.348206 -2.07018,-2.305692 -4.36513,-0.15388 -6.45222,-3.606985 -2.62614,-3.570872 -0.65462,4.30234 -3.14443,0.309914 -2.2679,-1.202023 2.37785,-1.227451 -0.98523,-2.328721 -2.12542,-1.537653 -3.68587,-2.011973 -1.48538,0.680688 -2.51064,1.104506 -1.25871,-5.124651 -4.25037,-2.836312 -1.93578,0.594967 -0.95162,5.218652 -4.07776,4.986518 3.11678,0.728216 8.3235,-3.052958 10.4815,0.400029 0.75525,1.733696 5.59209,4.471192 5.97944,3.743075 z" />
  <path
     id="path980"
     style="fill:#000000;stroke-width:0.208996"
     d="m 282.48299,103.54418 c -11.89982,-0.76408 -23.84788,-5.677723 -32.01183,-14.512378 1.76991,0.681845 5.42486,4.731572 8.29737,6.219754 8.98691,5.798524 20.03835,8.930904 30.70396,7.553404 -2.27679,-1.37691 1.89802,-3.602079 2.49038,-5.425196 1.60023,-3.479915 6.44383,-8.86628 2.18462,-11.883682 -3.15525,-0.554356 -4.11007,-3.438186 -5.61604,-5.579573 -0.9519,-2.870044 -5.12969,-5.027897 -2.8113,-7.736362 -1.09599,-2.627984 2.5263,-5.074868 3.68902,-7.26124 0.35994,-2.335565 -1.93866,-6.071179 -3.20077,-2.972188 -2.58147,-0.796197 -5.729,-2.471763 -6.65115,-5.1823 -2.74175,-1.804575 -6.54445,-3.751557 -9.19579,-5.015898 -3.30613,0.153406 -6.32468,-2.244707 -8.73545,-4.241406 -0.23399,-3.475502 -2.3018,-7.769047 -3.97165,-10.008963 1.51337,2.335411 1.28218,8.624118 -1.15261,3.380724 -0.69985,-2.380382 -1.05387,-5.489688 -1.19739,-8.142356 -1.81555,-1.224469 -0.97198,-6.548298 0.80534,-8.767372 1.98542,-1.550484 3.59877,-6.143571 3.49665,-6.916975 -1.96285,0.708692 5.09256,-5.758545 0.21839,-3.517405 -8.8904,4.642432 -14.9305,13.078903 -19.44925,21.78654 0.41661,-2.288788 3.90893,-8.496081 6.69956,-11.48503 4.55507,-5.202464 9.70238,-10.412026 16.27005,-12.905965 4.04787,-2.6417098 9.29851,-3.9591053 14.18745,-4.8254303 19.35924,-3.3396407 40.10984,6.3316743 49.97029,23.3285503 9.86261,16.233187 9.14372,38.195023 -2.14202,53.550446 -9.55033,13.64066 -26.27514,21.611251 -42.87783,20.560301 z m 13.32438,-1.54191 c 2.42809,-1.19906 5.16711,-0.85541 8.05116,-2.533946 18.18789,-7.321968 31.08191,-26.490249 29.98741,-46.208248 -1.62984,-5.287756 -2.41032,-10.763453 -4.26699,-15.991118 -0.46909,-2.532716 -2.43705,-2.645995 -1.31604,-4.430581 -1.59766,-4.57015 -5.09509,-7.960935 -7.84962,-11.804803 -3.42313,-3.382135 -7.344,-6.201819 -11.34897,-8.850432 -1.16874,-1.408685 -6.22296,-0.942813 -5.21152,-2.088833 0.87766,-0.2252399 -4.4477,-3.0337133 -2.75947,0.470578 4.28149,4.875038 -4.40156,0.474574 -6.20775,-0.9846538 -1.90213,-1.6275134 -7.67573,-3.5118283 -8.34347,-2.0426815 3.79766,0.9310864 6.80443,1.6811999 7.66991,5.3544683 3.95887,2.452342 7.8764,4.646114 10.62153,8.251403 -2.18778,0.639961 -5.39766,-0.424815 -4.91932,-3.032354 -1.57502,2.178042 -2.29377,0.885171 -4.72278,1.082575 2.00071,-0.530466 2.48939,3.665202 4.69772,1.649007 2.36712,2.370638 -3.23363,3.463402 -4.41441,2.564629 -3.02168,0.279443 0.59324,3.347971 -3.03376,3.120298 -2.84778,2.193182 -0.72527,5.880061 -4.74949,6.907556 -5.05185,1.503691 2.34695,8.224124 -2.70187,9.044339 -0.19782,-2.145493 -1.57912,-5.95992 -4.77024,-5.905277 -3.04322,2.138296 -9.71017,-1.541826 -10.27251,4.43978 -2.16123,2.915526 0.29026,9.093666 4.19623,6.903712 0.74179,-2.105113 6.97287,-4.893903 5.39097,-0.821348 -0.63374,2.547313 -2.45476,4.900678 1.17507,4.004524 5.10651,0.214291 1.48353,4.53607 3.24885,7.023918 1.97891,1.11489 5.0052,0.692295 7.03078,0.596935 0.51807,-3.386375 5.89855,-3.184511 6.23099,-3.315759 0.56248,-1.404081 3.24498,0.03345 2.82255,1.566569 3.40713,-0.07408 2.61966,-2.078205 5.80811,-0.563886 2.58988,-2.399152 0.65999,2.798665 3.80454,3.161811 2.09941,2.105222 6.87386,0.144697 7.30314,4.620212 1.15194,4.258514 7.46671,1.638234 9.51331,4.604906 -0.11844,4.559074 -3.97053,7.805213 -5.16208,12.080098 -1.90054,4.755945 -7.42737,5.847484 -9.92115,10.066199 -3.57638,3.239442 -7.57955,5.573468 -11.87509,7.523915 -1.87354,1.069626 -6.69673,3.168838 -5.70152,3.743068 -0.5158,0.0761 2.67154,-0.21154 1.99578,-0.20658 z m 10.05322,-46.59899 c 1.18287,-2.499785 -0.75706,-4.772809 -1.89053,-6.494484 0.0485,-1.710911 1.38755,1.613787 1.79994,-0.112171 0.64525,1.700579 2.36899,6.354956 0.0905,6.606655 z m -10.45894,-5.666589 c -1.34321,0.153196 -4.46102,-0.705508 -1.86278,-1.697834 0.009,-2.245263 -4.7197,1.661946 -4.7415,-1.279236 -2.1144,-0.751812 -3.54123,-2.206708 -5.29916,-0.719271 -0.97991,-0.771917 -3.47307,-0.697727 -0.69873,-2.283331 3.95519,-2.53448 7.84732,3.582463 10.77617,1.52232 0.89414,0.678805 1.12663,2.355096 3.89042,1.938754 3.39331,1.103045 1.53448,2.464734 -0.54003,2.231476 -0.62538,-0.09316 -0.96424,1.26185 -1.52439,0.287122 z m -2.9914,-4.885014 c -2.25119,-0.545766 -1.82563,-5.037695 -3.00984,-1.392432 -2.96739,0.07502 0.76103,-3.486974 -1.79726,-3.332326 2.07005,-2.1885 3.90515,2.841914 5.05777,2.885605 0.0974,-0.306838 1.18505,3.25866 -0.25067,1.839153 z M 285.9999,16.517711 c -1.24731,-2.285603 1.98539,-2.881204 1.02874,-1.446912 -0.17194,1.01309 1.22403,-1.557683 -0.19107,-0.863706 -0.44749,-2.70257 -1.93705,-2.864366 1.18379,-4.4639068 -0.97787,-0.9579001 -4.60567,-0.3703851 -2.29459,0.9676068 -0.91411,2.315981 -6.52392,-0.8802115 -6.5877,2.582583 1.73767,1.692621 5.43309,1.517494 6.86083,3.224335 z M 271.65517,8.5762324 c 2.83371,0.046211 1.92932,0.4896277 2.67189,-0.8220064 2.37959,-0.3052173 4.71821,-1.6945315 0.75292,-0.6322309 -1.03965,0.08757 -8.61381,2.3042817 -3.42481,1.4542373 z M 248.40482,87.016491 c -3.98964,-4.919279 -7.51072,-10.395036 -9.63828,-16.381591 0.80168,-0.77845 2.68445,5.932201 4.03189,7.701193 1.04388,2.892877 7.01397,8.748489 6.18242,9.283264 z M 238.10376,68.206914 c -1.80811,-6.478576 -2.31252,-13.3254 -1.54987,-20.000888 0.96324,-0.308157 -0.58455,6.593687 0.20778,8.94336 0.26828,3.929269 0.97671,8.017874 1.76639,11.736763 l -0.2134,-0.199533 z" />
  <path
     id="path996"
     style="fill:#000000;stroke-width:0.208996"
     d="m 23.462706,214.47208 c -18.7246631,-0.63532 -35.981404,-13.48867 -42.655555,-30.8773 -7.14642,-17.19508 -3.118494,-38.17163 9.6976769,-51.63551 14.096631,-15.47569 38.5082801,-20.03867 57.2384931,-10.68587 17.879395,8.54083 29.821875,28.54885 27.588085,48.42709 -1.71509,20.54562 -17.416318,39.26838 -37.737277,43.5811 -4.624298,1.05696 -9.396504,1.43036 -14.131423,1.19049 z m 7.001328,-0.59511 c 11.683901,-1.12654 23.179776,-6.16547 31.136528,-14.92498 4.717574,-5.08215 8.462844,-11.21964 10.595754,-17.81458 3.40135,-5.32784 2.66458,-12.11842 2.36183,-18.15713 -0.83554,-9.6917 -3.62114,-19.47275 -9.97731,-27.04914 -2.57693,-2.2715 -5.618375,-9.5444 -9.117785,-7.44819 -2.677033,-0.32857 2.03125,-1.30266 -1.541793,-2.92987 -2.148704,-0.10521 -7.070837,-5.50569 -6.59094,-1.70025 -1.779379,0.43954 2.292818,3.85409 0.664229,5.97575 -0.214535,2.92736 -3.671657,6.48072 -5.304476,6.30734 2.106109,2.80023 1.73082,7.73714 -1.935011,7.34566 -2.744146,0.0973 -3.969272,2.85821 -5.921353,4.32723 0.881904,-2.69824 -1.625439,-2.87952 -1.314637,-4.86548 -1.741172,1.23198 -1.559238,2.01981 -3.074175,-0.18752 1.540029,-1.13197 -0.804647,-3.92446 -1.394787,-4.2189 -1.376938,0.77391 -2.816252,0.37502 -0.676196,2.01068 -5.433054,1.60953 2.261852,5.30821 -0.758573,8.79808 -1.869205,4.43049 -6.366242,6.96738 -10.963347,7.51789 1.329557,3.05591 -4.71891,4.74688 -2.385122,0.97483 1.4525,-2.92406 -5.7021021,1.25765 -1.671967,2.95898 2.433987,1.99307 3.182664,7.04853 -0.529031,8.15082 -2.1007591,2.40729 -3.0306771,1.10621 -4.5266741,-1.02574 -1.631066,-4.66741 -4.604139,0.21504 -2.314204,2.7292 3.193007,2.52409 3.273018,5.52832 4.324462,8.78222 -0.816414,2.27322 5.6923061,2.77351 2.6274631,3.94954 -4.1027661,0.0797 2.743382,4.27935 3.552912,2.36164 2.301474,1.25156 7.288274,0.95241 4.792442,2.21624 2.761521,0.32581 7.503978,0.89024 4.22365,-2.81035 -1.177084,-1.88546 -0.288108,-5.45509 2.355591,-6.9616 2.208914,2.34795 5.621805,-3.12078 4.771958,0.58164 -1.773208,1.40961 -3.035374,2.70144 0.245857,2.81826 1.321879,2.89567 4.89179,0.30526 4.239955,-1.65636 1.906096,-0.53766 5.860143,0.0841 7.681355,0.77578 3.017056,-0.003 7.962755,0.65749 9.247258,2.75908 1.037735,-1.25916 4.40695,-0.39401 3.447621,-2.70992 -1.775029,-0.64446 -0.873849,-3.0191 0.725795,-0.81882 2.169339,0.144 3.497192,3.78769 6.220108,3.74642 2.069255,3.67199 -2.490582,1.3088 -1.880519,0.42592 -1.555176,3.55043 -2.171568,-4.84242 -3.730934,-1.5395 -1.715039,0.92491 -5.706749,3.62968 -2.218354,3.48646 2.286458,-0.83773 -0.463977,4.66888 -2.982584,1.82402 -3.157443,-3.5363 -5.253705,3.21687 -2.356869,4.16815 0.09203,2.3696 2.104554,3.7824 3.049865,5.73911 2.493732,2.48461 -3.174076,6.46007 -5.199728,8.44558 -2.316434,0.97903 -4.761952,5.47566 -6.248242,2.23058 -2.701767,-0.1332 -4.440015,-2.06216 -7.574578,-2.0464 -4.195832,0.32153 -9.162146,3.08093 -12.948077,1.18596 0.313584,-2.71186 -5.43889,-7.29943 0.118554,-8.53636 4.317073,0.30175 6.384271,-3.14732 9.478288,-5.27477 2.100848,-1.11255 5.199658,1.31562 5.126424,-2.06545 0.136564,-2.08061 6.325716,-1.06107 7.090204,-0.92415 -0.853087,2.72268 -1.453312,3.84896 2.165485,3.57785 0.595024,1.9733 3.556875,-5.84015 1.895417,-5.88841 -1.388576,-1.23438 -5.357194,0.29656 -2.268815,-2.17706 -1.447992,-3.44326 -6.65319,-0.21772 -6.768119,-4.26137 -2.788445,-0.30129 2.596912,4.17534 -1.654949,1.90675 -3.717798,1.50641 -5.550313,-1.75605 -8.714583,-1.68456 1.671374,1.65804 3.685208,5.44619 0.01506,3.99622 -2.089099,-3.34678 -1.479196,1.08463 -0.711232,1.93991 0.480343,-2.48474 0.631132,1.65837 2.833617,-0.21372 1.753485,-1.5138 7.636649,0.7586 3.686049,0.35847 0.454993,0.29934 -7.33921,5.26952 -4.569417,1.40023 0.02021,-1.19867 -3.871709,0.40588 -1.254034,0.93717 -2.814697,0.45776 -6.03958,-1.86497 -9.404774,-1.77214 -3.843892,-0.43312 -7.979645,-0.9519 -10.5687511,-4.09403 -1.997162,-2.89423 -5.107761,-2.25823 -5.56425,-6.25138 -0.677879,-1.96957 -3.01985001,-4.5157 -2.76989201,-6.57524 2.72774201,-0.30032 6.35138301,6.60258 4.53681801,1.1107 -1.9162,-2.37544 -2.499873,-5.98319 -1.484932,-8.82886 0.29195,-2.89231 -0.884924,-2.8586 -2.76426401,-2.46936 -0.495618,-2.2554 0.02724,-8.26294 -4.23280299,-6.55044 -2.408817,2.58024 -6.7226999,4.02411 -6.8076539,7.91984 -1.130604,1.52805 2.2801079,8.44428 -1.064203,6.44684 0.221141,-2.91467 -0.32584,-2.29459 -1.52424,-2.28656 -1.223254,-4.26706 -1.158192,-8.92656 -0.630617,-13.21372 -2.183375,-2.04461 1.31763,-4.69507 -2.730644,-5.22355 -1.034644,-2.05925 -0.659968,5.39447 -3.002445,6.12661 -2.84479,3.38061 -0.656849,4.12175 -2.078382,8.15157 -0.679651,8.86257 1.546073,17.8716 5.661915,25.63685 3.212223,6.0071 8.1328399,11.05254 13.3692519,15.35688 9.536782,6.78334 21.6422251,11.26058 33.4645921,9.69691 z m -9.448718,-29.04493 c -0.996892,-0.92292 -5.986921,-0.17373 -6.641321,-2.87215 -2.271867,-1.35795 -0.445038,-5.1539 -1.91842,-7.36862 1.440008,0.25258 2.243534,5.50986 4.047846,1.76245 4.052314,-0.94811 5.242157,-5.24826 7.795265,-7.82332 2.565222,-2.08256 0.885954,-4.08351 1.149415,-6.89685 0.265521,-4.28575 3.971659,-3.36123 3.239426,0.418 -2.43894,1.84039 2.883771,1.89273 2.614823,3.82887 1.80351,1.80477 3.676203,9.00166 -0.610776,8.32501 -1.7886,-4.10389 -2.887861,1.3225 -5.764262,1.16162 -3.037979,0.95183 1.332717,3.25699 -0.732947,4.44909 -1.805749,0.18862 -1.785164,5.80335 -3.179049,5.0159 z m 4.923945,-11.04435 c 2.507343,-0.8878 1.931545,-3.96791 1.912347,-5.88427 -1.191852,0.37502 -0.857773,0.56912 -1.254746,-0.6214 -0.736057,2.32868 -6.266508,4.79808 -1.642576,6.71942 l 0.748519,0.005 z m 7.55006,7.7913 c -1.399463,-3.66397 4.007846,-6.48552 1.751939,-1.39782 0.586397,1.14447 -0.98012,3.02086 -1.751939,1.39782 z m -7.465552,-25.64057 c -2.551265,-2.88063 3.841445,-5.613 1.549926,-0.99861 -0.387029,0.78278 0.402749,1.87752 -1.549926,0.99861 z m 9.351658,-12.98932 c 1.559773,-2.45856 3.959041,-1.42021 5.180095,-3.29006 2.154916,-0.22007 -0.42777,-3.84373 0.970058,-5.06735 0.274991,-1.15967 -2.888298,-8.87477 -1.64123,-3.89472 -0.21715,3.69625 -3.410108,4.67871 -5.704926,5.67883 -3.095243,2.15182 1.226098,3.50509 0.50811,6.44814 -0.283015,0.5292 0.667299,0.54296 0.687893,0.12516 z m 9.128684,-9.36292 c 4.53025,-1.81734 2.308965,-5.98638 -0.222677,-8.4464 1.141638,-2.21961 -2.61814,-2.72416 -1.587618,-0.78848 -2.677596,-1.11946 -9.506688,1.46606 -3.802979,2.91757 -0.215755,-1.48737 5.215161,4.11362 2.754437,3.60781 1.118122,1.42355 1.300691,1.95689 0.398003,1.85932 0.411645,0.92115 1.576792,1.2316 2.460834,0.85018 z m -3.835085,-14.09911 c -4.761071,-2.11754 -10.656797,-2.51877 -15.979638,-2.38628 -2.904592,0.73598 3.70513,1.21117 4.901916,1.9729 2.681677,-0.69148 0.805408,0.0592 0.409038,-1.13447 3.685743,-0.37518 6.81448,2.27236 10.668684,1.54785 z" />
  <path
     id="path1012"
     style="fill:#000000;stroke-width:0.208996"
     d="m 143.31944,215.4217 c -19.03251,-0.29694 -36.87855,-13.00108 -43.893472,-30.60884 -6.986199,-16.24807 -3.864109,-36.03319 7.446852,-49.5668 12.76492,-16.15331 36.18977,-22.10944 55.31591,-14.84074 20.63742,7.20695 34.23671,29.70295 31.52495,51.30947 -2.14337,20.8338 -18.86708,39.2786 -39.59017,42.88789 -3.55679,0.66931 -7.18733,0.93608 -10.80407,0.81902 z m 1.05601,-0.66658 c 3.45812,0.34181 8.64036,-0.30463 12.65524,-1.38186 6.43415,-1.91559 12.8886,-4.56747 18.08312,-8.90083 3.12544,-3.69285 4.88462,-8.3717 8.84782,-11.38895 2.81759,-3.84631 5.62769,-7.77511 7.37091,-12.22189 0.48334,-1.4162 0.60044,-4.45017 -1.20062,-1.86255 -1.04128,-2.90439 -0.29488,3.81425 -2.01572,2.90494 -0.61793,3.24588 3.93849,-3.07174 1.38506,1.32745 -1.13343,4.06201 -5.9486,3.41949 -8.97067,4.42661 -2.37814,0.13135 -4.05001,-3.14637 -5.62593,-2.87288 -1.65578,-2.37069 -1.00238,-4.62728 -3.40654,-6.90725 1.10167,-3.56348 6.96982,4.7534 4.41881,-1.12334 -3.15901,-2.52404 -1.857,-7.00313 -2.97685,-10.42329 -2.15044,1.45806 -3.42285,0.57373 -3.23652,-2.02101 -1.40503,-2.61892 -3.79167,-4.64661 -6.39237,-1.96726 -1.57868,2.76977 -4.47884,4.84679 -6.35109,7.03923 -1.00285,3.65644 2.30073,6.15772 1.62971,9.52917 -3.26754,2.7807 -1.58156,-5.56559 -4.50478,-1.58432 -3.09656,-1.86254 -3.49946,-6.61369 -5.22646,-9.71231 -1.1869,-2.20701 0.53839,-5.48641 -2.76388,-4.2309 -3.03447,-0.28764 -0.96592,-5.47836 -2.75535,-3.45565 -2.70221,-2.62751 -8.36956,-0.88211 -10.99109,-2.20018 2.44634,1.50046 4.26709,4.48015 1.16371,6.39535 -2.10745,2.87026 -5.96501,4.06216 -9.30633,5.01876 -1.43518,1.10659 -8.65746,1.8985 -3.37415,3.14251 2.14369,-0.0811 3.19047,-0.69156 5.05669,-0.38738 0.54645,2.99569 -2.19106,5.48007 -3.5755,8.12828 -2.14369,2.13611 -4.93526,3.36843 -6.50986,5.87035 -0.74129,2.53531 0.80492,5.57077 1.77739,8.05735 2.66623,3.72652 -4.65408,3.13337 -1.39413,6.32229 0.73061,1.75334 -0.96228,1.16711 -0.19192,3.67287 -4.31019,-0.19588 2.92908,3.11877 4.43237,4.3947 7.20638,4.14381 15.51899,6.64488 23.85735,6.51629 l 0.0925,-0.10429 z m -21.65066,-11.29233 c -1.72318,-2.16808 -3.26928,-6.712 0.66268,-7.06999 2.33211,-3.93715 4.01248,3.54688 2.37206,5.82718 0.38248,2.26882 -1.76535,3.02209 -3.03474,1.24281 z m -20.8465,-14.98878 c -0.88595,-5.49625 -4.125785,-10.53437 -3.896658,-16.22108 -0.696591,-1.76256 -1.716723,-7.53164 -1.479712,-2.29291 0.381967,6.61752 1.985925,13.32274 5.46661,19.00584 z m 79.35458,-2.91918 c 1.40626,0.18908 2.76177,-1.64438 4.40813,-0.99782 -2.21883,1.80629 4.15867,-0.75661 1.78109,-2.59656 0.14283,-2.73319 1.1367,-7.0267 -0.61685,-2.11321 0.63057,3.99186 -4.07907,3.00775 -4.70783,2.07696 0.81628,-1.34243 -1.1475,-8.5213 0.4682,-4.78287 2.96273,0.53279 4.42576,-6.97212 5.15487,-10.13252 0.8948,-2.42268 -1.63514,-7.716 -0.0502,-8.49131 0.95441,3.62984 2.8319,4.91042 3.22179,8.971 0.54359,2.50026 -0.28401,3.56677 -1.23913,3.04625 -1.29778,1.72887 -3.22111,7.92956 0.23597,4.33917 2.20094,-3.90146 -0.80723,2.37438 0.0244,1.66885 1.23198,1.70893 0.93383,-7.38058 2.20509,-2.60331 2.87515,-4.44604 1.14402,-10.35025 0.70355,-15.32025 -1.20158,-8.20832 -4.76498,-15.97757 -9.80666,-22.51898 -0.63175,0.97606 4.88564,5.98802 3.3721,9.2711 1.87949,6.24845 -2.69654,-4.64877 -2.03621,-0.0409 -1.52325,-2.7837 -3.2947,-5.46439 -4.86197,-4.89671 -1.73242,0.54773 3.46873,1.26366 1.8183,3.44522 3.04416,3.05052 4.61958,7.41605 3.40966,11.69243 -1.85445,2.37961 -2.74498,3.86647 -3.11783,6.63361 -1.54767,-0.61394 -0.35017,-5.38244 -2.39862,-1.12085 3.01221,2.95119 4.99748,9.49539 0.0371,11.71477 0.20771,-1.89461 -4.42074,-5.44951 -3.7397,-0.61431 1.50857,2.50693 4.60112,5.09949 4.14175,8.98265 -0.88707,1.77873 4.5267,1.1667 0.81428,2.88066 -0.53255,0.63361 -0.43579,2.56525 0.77895,1.50683 z m 7.33404,-14.05013 c 1.49664,-2.08386 -0.12278,-8.57947 -0.5166,-2.96842 -1.08459,0.50887 -0.54044,4.73433 0.5166,2.96842 z m -70.81319,-4.02109 c -0.62503,-3.81857 -2.06165,-7.40389 -2.76228,-11.41346 0.32658,-2.82769 -1.86934,-3.5085 -0.91531,-0.2629 0.77865,3.91372 0.35974,8.24316 2.64519,11.3577 0.26487,0.49888 1.09135,2.05789 1.0324,0.31866 z m 12.33405,-9.56384 c 2.17075,-1.62165 -3.849,-2.3626 -3.41412,-4.97739 -2.96348,-0.0606 1.9222,3.83261 1.59637,5.26734 0.6289,0.15403 1.24079,-0.0819 1.81775,-0.28995 z m -14.44842,-9.27729 c 1.71357,-2.1077 2.39797,-5.10748 0.31881,-2.24668 -1.5351,0.0461 0.60025,-2.72231 -2.06717,-1.66002 -2.78183,1.43339 -4.43108,-0.5197 -2.98681,-3.60813 -0.048,-3.16897 -5.45495,5.65782 -3.09591,-0.16835 2.86322,-0.32087 1.90154,-5.5389 -0.0414,-1.12887 -2.4899,0.5307 5.60546,-5.82841 0.28151,-2.68018 -2.63169,1.39079 0.63453,1.21149 -2.64206,2.66938 -0.22769,0.86452 3.1866,2.48092 0.91502,3.15524 -1.32863,1.58356 0.25303,7.32394 2.23276,3.25141 1.80834,1.57091 4.37736,3.64402 7.08514,2.4162 z m 16.28985,-3.45258 c 0.27786,-2.71673 -2.886,-6.96089 0.6028,-7.98991 -0.2027,-2.12193 -6.6339,1.92572 -2.89834,4.7016 -3.27183,1.98049 -0.17732,4.17175 2.29554,3.28831 z m 52.58413,-2.98939 c 0.40001,-3.21341 -3.07768,-6.77804 -5.4053,-9.26139 2.23364,2.9649 2.38402,6.61773 4.78611,9.10491 0.0322,0.24622 1.26236,2.09373 0.61919,0.15648 z m -60.96595,-1.9436 c 0.27991,-2.87331 -4.30022,-2.35547 -4.18929,-3.96645 -2.67423,1.16792 -4.31097,4.55578 -2.3e-4,3.06363 1.42832,0.15115 2.64352,2.02773 4.18952,0.90282 z m -7.48828,-11.03076 c 3.61932,-2.52549 6.49139,-5.52981 11.27706,-6.77612 2.7835,-1.95354 6.81526,-0.98858 8.09746,0.32929 1.18215,-1.13483 7.69807,0.14744 4.0762,-1.41039 1.27584,-2.1968 8.73131,-2.14869 3.08559,-0.83639 -3.88587,1.14547 2.06578,2.42229 2.57737,0.19609 2.55031,-0.0853 2.4101,-0.18065 3.05945,-0.7485 3.11251,0.12235 1.12016,-0.96829 0.062,-1.28737 2.72491,-0.35925 7.74958,2.23261 8.75916,1.12312 -4.01717,-2.46356 -9.74988,-1.52723 -14.45192,-1.73911 -2.74326,-0.79253 -5.74524,2.41348 -7.35749,1.14238 -2.70093,-0.0633 -9.29987,2.38923 -12.8818,4.35147 -1.16376,1.18355 -4.37491,1.91726 -3.3509,2.57494 -0.74925,0.13527 -6.83014,5.44728 -2.95224,3.08059 z" />
  <path
     id="path1028"
     style="fill:#000000;stroke-width:0.208996"
     d="M 392.22958,102.34845 C 374.3235,102.08561 357.30704,90.917147 349.74558,74.720717 341.4752,58.225228 343.44141,37.056744 355.33104,22.794683 366.15222,8.8954389 384.75561,1.5458341 402.12325,4.8968378 c 18.64757,3.0794097 34.6894,17.7829872 39.21114,36.1624272 5.42666,18.850644 -2.76561,40.004464 -18.277,51.593065 -8.73963,6.810195 -19.80121,10.06581 -30.82781,9.69612 z m 8.1508,-0.92696 c 18.85199,-2.483334 35.6698,-17.173242 40.54381,-35.57066 1.39116,-7.077682 2.58231,-14.7629 -0.11166,-21.664584 -1.68099,-3.975142 -7.17925,-3.686305 -8.29926,-8.410352 -0.19008,-0.41162 -4.11487,-5.447474 -5.1516,-5.791721 1.33179,1.256504 4.95509,6.980842 1.07288,3.237675 -2.49207,-2.713105 -4.62371,-6.332088 -7.88607,-8.286309 -3.3091,-2.599852 -6.40344,-5.756366 -8.06964,-9.667978 -2.91947,-2.987074 -6.05553,-3.290644 -9.06656,-5.4419139 -3.63854,-2.5711698 -8.38782,-1.403701 -11.91418,-0.5160028 -2.14163,0.8143257 -8.67181,2.5057057 -8.47113,1.7671487 2.39383,-0.770439 10.72235,-2.5336942 4.18674,-2.8412771 -1.5461,0.3750567 2.15874,-2.9442164 -0.40458,-1.0589545 -4.18112,-0.5338205 -8.32643,1.6341871 -12.40261,2.7356847 -2.28909,1.1981779 -8.66777,5.4556009 -8.63301,4.7816129 1.36392,-1.139939 8.3509,-5.8393002 3.23388,-3.094869 -2.05197,1.055549 -6.89721,4.747497 -6.42908,5.279053 -2.33816,1.917955 -7.80197,6.970569 -10.27672,10.933004 -4.84014,8.089794 -7.6009,17.702858 -6.99973,27.155209 -0.21449,3.357679 3.96419,8.229658 2.02266,2.596929 1.02201,-0.364514 2.41029,6.110547 5.30232,7.21916 1.72073,2.059737 0.98287,4.101312 -0.75668,1.068104 -0.81551,-0.377531 -2.5721,-3.760899 -3.07693,-4.841778 -2.34361,1.54175 0.4136,3.986301 1.53249,6.214846 -1.44844,0.29045 -4.67097,-6.802632 -2.83544,-1.040495 1.37678,5.04888 4.31304,9.357361 7.27834,13.577595 2.24496,3.86345 4.07126,8.126703 7.8916,10.743584 10.25756,8.876094 24.35403,12.584919 37.72016,10.917289 z m -30.51333,-6.868586 c -1.84941,-1.475145 0.99805,-4.287603 -2.67367,-5.873148 0.87122,-0.122697 7.09279,2.836827 4.28052,5.206829 -0.12884,0.193624 -0.46871,2.083484 -1.60685,0.666319 z m -2.79134,-17.396395 c -0.68221,-0.08 -2.53624,0.07746 -2.22389,-2.424108 2.4382,-1.978511 2.22635,1.76345 2.22389,2.424108 z M 389.96547,38.40528 c 0.30956,-1.622057 -4.60831,-4.156706 -1.01856,-2.879303 1.54128,-0.155823 4.13503,3.109434 1.01856,2.879303 z m 48.26874,-0.583536 c 0.67871,-2.918333 -0.7309,-6.932065 -2.86953,-8.61492 -2.40232,0.08439 0.31895,6.761794 2.5508,8.786447 l 0.18782,-0.0017 0.13091,-0.16972 z M 388.86083,5.8474481 c 3.47915,-1.5807113 8.26335,-0.03362 11.55936,-0.537149 -4.92632,-0.8010125 -10.32018,-0.6859085 -15.0754,0.4415262 1.05499,0.02636 2.63811,0.9871387 3.51604,0.095623 z" />
  <path
     id="path1044"
     style="fill:#000000;stroke-width:0.208996"
     d="m 254.66696,222.41393 c -18.47857,-0.28085 -35.94925,-12.2047 -43.25205,-29.12678 -7.87829,-16.967 -4.61403,-38.16786 7.71428,-52.17677 13.71785,-16.32628 38.52635,-21.29185 57.72562,-12.32133 19.7545,8.67445 31.88366,31.6099 27.75358,52.81727 -3.35045,20.01579 -20.04662,37.17348 -40.25455,40.18934 -3.19844,0.52272 -6.44815,0.72293 -9.68688,0.61827 z m 7.93809,-0.79278 c 2.97568,-0.55556 8.21728,-1.14003 9.63065,-2.69874 -4.19829,1.89166 -2.99597,-3.12046 -1.20322,-4.79201 1.62728,-0.73265 -0.48403,-2.4924 1.21076,-1.88854 2.04219,-0.15883 3.98557,-4.78789 4.09978,-6.58693 -3.0466,2.25812 -3.54592,-4.13476 -2.13514,-4.95765 2.62296,-0.12509 5.68279,-2.90871 2.14221,-4.0885 -5.06443,0.7354 4.97816,-6.52188 -0.66024,-2.68334 -2.24628,4.08036 -2.24477,-2.31312 -3.0531,-1.61556 0.55213,3.49498 -3.74687,3.58894 -2.87767,0.11963 3.08523,-1.52708 -1.04702,-3.37703 0.91168,-4.74767 0.83117,-1.00137 1.49313,-2.52373 2.20776,-0.35786 0.5104,1.51052 4.51229,4.05042 5.31441,3.57021 0.31883,-2.5732 2.03125,-4.24171 0.0103,-6.4962 1.18272,-5.26631 -1.52143,3.24746 -3.47785,-1.2113 -1.48953,-2.80853 0.4426,-8.89996 -1.95476,-9.2952 -1.09167,-4.94147 2.35403,-8.44032 6.96436,-9.29113 1.49085,-0.672 -3.49241,-1.26955 -0.47306,-2.70519 -0.58061,-1.98535 -0.86932,-5.91482 -2.74539,-2.34883 -2.31945,1.13415 -8.46334,-5.46872 -5.28485,-4.85609 1.22536,4.35195 8.30365,3.2307 5.92788,0.24541 -3.9063,0.62466 -2.24116,-2.81934 -3.79762,-2.23031 0.59736,-1.1718 -1.13454,-1.89633 -3.12516,-2.45204 -2.83138,-1.37173 -4.95199,-3.33728 -4.18169,0.61928 -4.74784,2.51285 -0.25155,-3.49455 -1.49024,-5.50121 3.18822,-2.50104 -2.79816,-2.18254 -2.68869,-4.41558 -0.23714,-2.20279 -4.6941,0.1719 -2.47716,2.54695 -2.7104,0.27625 -5.98328,-2.05652 -1.33839,-1.48534 -1.94791,-3.08953 -5.85518,-2.87471 -8.20661,-2.74035 -2.6512,2.816 -10.39189,0.0972 -10.60082,3.81638 3.804,-0.15112 -0.26152,5.78708 -2.24644,7.2261 -3.11133,2.28625 -0.19343,5.61477 -2.50646,8.3395 -0.80784,2.059 2.84325,-0.93216 1.79686,-1.98176 3.64616,-2.04015 3.96427,1.76708 1.86681,3.8251 2.85872,1.68859 -1.47072,3.05535 -1.88868,4.67982 -2.06912,0.9466 2.53922,0.8052 1.46857,-1.14673 1.09293,-1.58179 4.98123,-0.0486 2.37154,-2.77801 -1.90561,-1.52188 0.62908,-6.0966 2.47369,-3.68979 2.97803,1.31371 0.61621,2.91727 -0.87841,1.57996 -0.96534,0.8826 1.38923,0.59024 0.33839,1.5455 1.86722,-1.2408 3.69362,-1.08492 3.33662,1.02032 0.36038,-2.85707 6.74615,-0.43524 7.40592,1.92382 2.82389,-1.67259 8.22355,0.62355 6.48978,3.85232 0.15126,2.04864 1.50827,3.95294 0.94849,6.01115 -0.0383,3.46829 -0.18873,6.83504 -4.41356,8.06465 -3.00561,1.87649 -4.3906,4.541 -6.30105,7.55757 -4.09829,-2.02318 -3.29051,-7.96654 -2.28675,-11.64886 0.35933,-2.49326 2.86763,-6.61846 -0.27321,-8.519 -0.89254,-1.63376 0.91614,-3.72365 -1.57372,-1.98955 -2.93249,3.41443 -3.75944,-3.86318 -4.61577,-0.71727 -3.48362,-1.41562 -4.1246,7.58618 -2.44641,2.13861 3.2022,-4.7891 5.64913,1.22371 5.23604,4.20013 -0.65939,2.59995 -0.10879,4.58677 -0.14684,6.93126 -2.21118,-0.0874 -2.56541,4.36387 -4.27443,3.17631 -1.36448,-1.31527 -1.90546,-6.87712 -3.27478,-4.4371 1.8505,0.76242 1.32,4.55634 1.55862,6.37341 4.29289,-3.05939 0.36198,5.94391 3.52104,7.44754 -0.003,2.72519 -0.79626,3.96901 0.59716,6.21818 -0.75334,3.28999 -7.54299,-2.64847 -2.49119,-3.78594 -0.9448,0.40854 -3.85618,-1.3828 -3.16259,0.42971 -0.92696,-1.29428 -3.72382,-4.06291 -1.39858,-1.17204 -1.65253,1.75401 0.6148,3.61875 1.80499,3.24061 -0.41995,2.86105 -5.14894,0.37889 -6.15531,-1.06883 -2.16449,-0.98287 -1.29834,2.49378 -3.78605,0.13604 -2.72135,0.0896 -3.51261,2.76485 -6.46056,0.21396 -1.13742,0.2851 -0.35475,5.00111 -2.29677,1.85005 -0.0564,-5.12417 -3.4357,-7.46333 -5.81568,-11.57268 -2.24487,2.78804 1.28816,6.5264 3.00914,8.93628 -0.80036,2.20817 2.29557,6.65725 4.45553,9.19603 3.45596,3.15561 6.74116,6.80636 11.00314,8.83287 -1.22151,-1.72954 -1.37789,-2.9823 0.40603,-0.69692 0.14051,2.88666 5.32273,4.40446 8.34781,5.92129 7.39241,3.13353 15.69339,3.8053 23.60886,2.8641 z m -37.85471,-13.09767 c -2.96026,-2.59375 -3.35781,-3.42423 -5.86367,-5.80435 0.0183,-2.04525 -5.9141,-8.3221 -1.16208,-3.9119 1.02974,1.87222 2.03151,3.08392 1.68849,0.5598 2.33942,1.46326 3.75806,8.0979 1.1866,2.5121 -1.77237,-0.013 3.00299,4.03955 3.90533,5.4908 0.51076,0.45291 2.30464,2.84949 0.24533,1.15355 z m 35.75306,-23.39301 c -0.83459,-1.06922 -1.84279,-3.61404 1.4016,-3.21044 4.75132,-2.49167 2.38366,5.14904 -1.4016,3.21044 z m 6.59878,-18.51816 c -4.03879,1.03194 -3.62991,-6.02698 -0.83815,-4.25463 2.34873,-0.40876 -1.52502,1.44208 1.65346,1.63471 0.31145,1.54821 -1.66094,0.79032 -0.4242,2.63739 l -0.39106,-0.0178 z m -0.8849,-7.64169 c -0.73491,-1.48625 -1.81728,-5.39571 1.01533,-2.59207 0.29809,0.84403 0.5774,3.23865 -1.01533,2.59207 z m 12.17069,46.27364 c 3.55546,-2.04748 6.84762,-7.1184 10.03175,-7.98957 0.87318,3.09858 5.95591,-1.68533 5.84202,-3.96168 2.19923,-2.82326 7.32247,-8.46584 4.27688,-11.13088 0.69349,2.71568 -2.36782,2.77514 -2.29731,6.51208 -1.43787,4.66954 -5.50172,0.19962 -7.69173,2.37404 -5.02616,0.64726 0.95712,0.81098 2.48842,-0.184 -0.24248,1.79347 -0.3929,7.31323 -2.60605,4.70632 4.60568,-3.86854 -5.44383,-1.74027 -1.74237,0.97981 -2.68124,3.17781 -1.04428,-4.21396 -2.24052,-2.27497 -2.55128,2.69198 -3.19088,5.89508 -4.36792,9.2073 0.0942,0.22952 -3.13315,2.28934 -1.69317,1.76155 z m 3.64982,-21.21236 c 3.03986,-1.33749 1.28707,-7.11858 -0.69491,-6.65008 -1.12602,2.29684 2.03031,5.58165 0.183,6.51361 -0.59526,1.31941 0.11199,-0.0659 0.51191,0.13647 z m -52.85816,-0.53218 c 0.63568,-1.41206 3.90383,0.28324 3.1341,-3.05628 2.24572,-0.88202 3.13998,-5.90159 6.07793,-4.16383 3.27691,-0.5715 -1.366,-2.40948 0.93493,-3.16027 -1.09671,0.3782 0.3844,-2.13951 -1.34393,-0.0529 -2.9254,-0.37593 -2.11492,5.13627 -5.06721,2.89214 2.89326,-0.61683 -1.53241,-1.52671 1.18773,-2.79593 -3.56948,-1.72105 -8.08211,0.21364 -6.10389,4.73434 1.20966,2.02409 -0.12318,4.74038 1.06912,5.89493 l 0.11122,-0.29501 z m 65.59154,-0.18112 c -0.12145,-2.43427 3.74804,-6.74126 2.23693,-7.81365 -2.29817,1.21305 -1.3834,4.34907 -3.8526,4.86966 0.0563,0.58248 0.49099,4.83113 1.61567,2.94399 z m -86.04734,-2.91823 c -0.65521,-3.58771 -0.48561,-8.04252 1.28482,-12.17366 0.26007,-5.15962 4.62982,-7.19807 8.10774,-9.58619 0.67609,-2.02243 5.99957,-3.92599 2.39961,-3.34112 3.04956,-2.45573 7.76811,-4.16619 8.71109,-8.4516 0.8833,-1.30608 -1.65868,-4.73207 0.5745,-3.68381 -0.14907,-3.80158 3.42452,-6.88825 6.19959,-9.39477 3.53482,-1.83217 -4.57842,3.52094 -4.23193,5.89682 -2.67026,5.13671 3.17619,-0.46309 4.13224,0.13728 1.31154,1.13937 -0.62509,4.12883 1.88136,1.79999 2.83132,-0.37992 1.77157,-3.03604 5.02823,-3.19147 -2.06306,-2.63735 3.07133,-4.27368 4.94999,-6.12216 -0.40706,-2.21662 3.01944,-4.33203 4.82118,-4.72674 -2.15712,1.06523 1.3312,3.61202 -2.01668,4.88679 1.35097,1.35921 3.22741,-2.80328 5.83376,-1.02541 2.3883,0.82944 8.11117,-2.04035 2.86231,-1.92219 -1.19436,-2.42595 1.42136,-3.60472 -2.7317,-3.11858 -5.68185,0.16473 9.20617,-1.07454 2.78282,-1.51129 -18.81425,-1.48594 -37.76537,9.25096 -46.2637,26.08269 -5.15781,9.94401 -6.81856,21.61529 -4.43122,32.57713 0.11734,-1.0384 0.0721,-2.08929 0.10599,-3.13171 z m 91.76536,-10.23152 c 1.85288,-5.0019 -4.62037,-0.15032 -4.29555,-4.19122 -0.27255,1.90963 0.82082,5.62019 3.08769,3.23939 0.3881,0.28481 0.71668,2.40631 1.20786,0.95183 z m -39.60486,-42.33049 c 2.01692,-2.50317 7.17286,0.084 8.30779,-1.15999 -2.45382,-0.86872 -9.23465,-1.85113 -8.30779,1.15999 z" />
  <path
     id="path1060"
     style="fill:#000000;stroke-width:0.208996"
     d="m 363.64862,217.56531 c -17.96792,-0.65644 -34.74505,-12.37272 -41.83852,-28.84293 -7.70832,-16.60747 -5.19976,-37.49264 6.84986,-51.41145 11.18328,-13.8671 30.26632,-20.58344 47.66382,-16.74808 17.96166,3.45408 33.32868,17.72742 37.65068,35.56856 5.69039,20.62048 -4.17757,44.02647 -22.51945,54.83974 -8.28393,5.09507 -18.15899,7.1176 -27.80639,6.59416 z m -9.50927,-2.23254 c -3.22383,-2.6987 4.76711,-3.97527 6.81278,-3.03918 2.17925,-0.50165 6.06735,2.21373 9.05228,2.39846 4.94676,0.21945 9.27878,-2.74453 13.86593,-3.85977 1.71911,3.83401 5.81122,0.84634 8.62656,-1.16116 10.15596,-6.55212 17.79474,-16.92417 21.21627,-28.48778 0.36745,-4.01707 1.82547,-7.82877 0.94327,-11.91036 -0.50195,-4.14764 1.12047,-8.72847 -1.99194,-12.34942 -2.57054,-3.50822 -6.36289,-7.68669 -5.77616,-12.18249 0.52427,-4.35318 -3.21884,-7.47583 -5.89895,-10.43877 -8.53383,-8.38631 -20.2301,-14.19126 -32.33828,-14.13903 -4.9538,-0.59754 -8.95605,2.70842 -13.00982,4.44805 -0.9957,2.10047 -4.68403,2.98092 -4.92614,6.07007 -1.94768,1.11627 1.79228,1.5136 -0.40078,3.58837 -0.23269,3.34492 6.36035,0.31017 2.30673,3.21089 -3.10474,2.28738 -8.24875,-0.14796 -8.34463,-3.91178 -1.32638,-2.46394 -0.17744,-5.67043 -0.85437,-7.63564 -7.87529,3.77122 -14.20158,10.42774 -18.84284,17.74987 -5.95545,9.99832 -7.93683,22.23984 -6.15625,33.67685 2.66185,13.38019 11.08696,25.65586 22.79935,32.69708 4.14808,2.37241 8.44249,4.651 13.18141,5.73671 0.79922,0.34312 0.93138,-0.21126 -0.26442,-0.46097 z m 3.68833,-3.90499 c -0.34775,-4.32064 6.35243,1.35675 1.23437,-0.10748 -0.382,0.2661 -0.86119,0.72566 -1.23437,0.10748 z m -18.44632,-5.80837 c -1.17219,-2.10964 -3.94521,-4.88292 0.34482,-3.64459 2.05932,1.20072 6.2939,-0.58685 6.95961,1.6653 -0.14224,2.89816 -7.27983,-1.772 -6.36243,0.39018 -1.78209,-0.18823 1.10919,3.14595 -0.942,1.58911 z m 27.08875,-11.58953 c -3.80455,-1.17635 -7.43946,-2.96104 -9.71833,-6.38328 -3.88509,-2.82841 1.36529,-3.53991 2.07334,-5.08206 2.87081,-1.74012 -3.71561,-3.80233 -3.37047,-6.8877 -3.59854,-1.16569 -5.88728,-4.95903 -6.90592,-8.4563 -1.04971,-2.14015 2.36842,-5.39874 3.23288,-7.12178 -4.17905,0.93792 -1.46989,-4.87431 1.66168,-5.02681 1.77671,-0.1073 1.97614,-3.38022 2.77419,-2.89467 -2.81783,0.11274 -1.50838,-4.39139 0.51917,-3.95307 -2.74234,-1.68587 1.10039,-4.0936 0.0451,-6.10899 0.70505,-1.19806 3.83147,-2.83878 1.03819,-0.21527 -0.2638,0.83792 4.2757,-2.51005 2.28028,0.55946 -2.87288,1.03712 -0.58601,2.74541 -0.29745,5.23132 1.34586,2.8494 1.2755,5.49078 4.72326,6.28482 4.50984,3.42531 6.31273,-3.5331 10.37966,-2.92779 3.76406,-0.53638 7.09983,1.02698 9.12772,4.43328 2.46755,2.10168 2.45253,5.86782 4.89507,8.06281 -0.57409,2.90092 3.19883,4.89341 3.07055,7.74648 -0.91381,3.45173 -4.48327,6.51446 -5.59416,8.97907 1.802,3.83104 -3.05354,5.83415 -3.03702,8.40744 -1.7803,2.54725 -4.56172,0.73363 -6.37043,3.44545 -3.52112,-0.17805 -6.24342,1.59179 -9.37009,2.01551 0.12083,0.42201 -1.29176,-0.47439 -1.15722,-0.10792 z" />
  <circle
     style="color:#000000;overflow:visible;fill:none;stroke:#000000;stroke-width:3;stroke-linecap:round;stroke-linejoin:round;stroke-miterlimit:4;stroke-dasharray:none;stroke-dashoffset:188.976;stroke-opacity:1"
     id="path1091"
     cx="50"
     cy="50"
     r="48.499973" />
  <path
     sodipodi:nodetypes="scccccccssccccccccccccccccccccccccccccccccccccccccccccccccccccccccccccsscssccsscssccsscsscccssccsscsscsscssccsscsscssccsscssccsscsscsscsscsscsscsscsscsscssccccsscsccccccccsccsscccsscsscssccsscsscsscsscsscs"
     d="M 50.289379,0.83902073 C 33.649159,0.56362173 17.267859,9.4491197 8.4729691,23.600739 c -8.03582,12.240782 -9.671,28.143019 -5.13086,41.964844 5.75592,18.212877 23.1153199,31.915296 42.1503899,33.369141 5.19569,0.58791 10.49119,-0.0034 15.5918,-1.054688 20.89907,-4.38285 37.33186,-23.966169 37.9707,-45.310547 0.83284,-12.929597 -3.83043,-26.06942 -12.59375,-35.599609 -8.76777,-9.7294983 -21.4306,-15.7746393 -34.56055,-16.07421927 -0.53707,-0.02808 -1.07454,-0.04776 -1.61132,-0.05664 z m 3.9121,0.77148397 c 4.10043,0.127174 7.93177,1.728899 11.63868,3.410156 4.9425,0.757496 1.5735,1.682115 -1.67969,1.554688 0.029,2.411294 1.09973,8.8524673 4.76953,7.6835933 -0.65151,0.143514 2.07273,2.838952 0.66406,3.291016 -0.74908,5.039157 -4.83521,-3.361973 -6.9082,-3.251953 -3.0987,0.522738 0.58854,2.055301 -0.5293,2.806641 -2.93322,2.51925 2.53743,5.162174 2.09571,0.927734 0.35913,3.41348 1.51616,3.308535 4.2832,3.130859 -6.32118,1.067458 3.51927,3.516921 0.32422,5.5625 -3.1672,-0.2919 -4.94235,0.8895 -3.15235,3.990235 -0.84068,2.871061 1.99729,2.996334 2.97071,3.988281 l 1.0625,-0.09766 0.6875,-0.08984 c -0.0266,-0.0032 -0.0557,0.0022 -0.082,-0.002 3.94772,-1.214147 1.9063,-9.113734 6.11328,-8.597656 -0.88121,3.055054 3.9811,5.964479 1.37304,1.533203 -1.77833,-2.246353 5.76743,1.616031 2.44336,2.720703 3.23215,4.267236 0.95324,-3.987328 3.36133,-1.744141 1.56479,2.72602 3.39807,0.696788 3.82422,0.595703 1.03558,-0.289006 2.5991,0.165477 3.00977,0.408204 3.96506,3.786777 -3.75535,2.216399 -3.86914,5.111328 0.41958,1.852711 -4.23972,-0.495058 -4.9375,-1 -2.04333,-5.506553 -6.69752,-0.01399 -10.11914,0.871093 -0.11694,0.09125 -2.92883,2.284934 -3.25977,2.576172 -0.80207,4.824271 -4.6798,7.757611 -6.11914,12.638672 -0.28882,2.821015 0.64595,6.721055 0.25391,9.763672 0.91217,3.902515 4.60409,6.136575 7.82226,8.046875 2.42196,1.559838 4.94669,-1.427971 7.55274,-1.462891 2.28038,-3.353255 5.93079,-0.895003 7.99218,-1.142578 -2.3756,3.740654 1.76627,6.630885 0.59375,10.675781 -3.19121,3.904259 -2.35085,10.072164 -7.01172,12.917969 -7.44607,5.824783 -16.49582,9.693425 -25.99023,10.160157 -3.57989,0.443711 -7.14194,-0.09808 -10.72461,-0.324219 -4.25134,-0.995352 -8.79526,-1.837726 -12.56055,-4.046875 2.41163,-0.378217 2.77911,-3.090906 4.82032,-3.679688 6.48134,1.566419 3.65939,-6.451689 8.06054,-8.265625 2.94833,-5.404205 -6.46446,-6.264887 -9.82422,-8.232422 -5.68239,-0.858522 -5.1486,-7.774458 -10.30859,-9.269531 -4.22587,-0.673979 -2.69327,-6.763387 -5.79102,-6.4375 -2.6737,0.496806 -3.73456,-3.182665 -5.22461,-2.919922 -0.35984,0.379515 -1.8665699,-2.469397 -3.4863199,0.669922 -4.57503,-1.012542 -1.37403,-6.266024 -3.30664,-9.207031 -0.80122,-1.346635 2.28544,-8.253702 -1.02149,-4.240235 -1.07972,-1.90592 0.58744,-9.396884 3.20508,-8.533203 2.44487,-0.555938 1.63195,3.285163 1.83398,5.664063 1.8429399,0.790097 0.9796599,-6.97383 4.8105499,-7.154297 2.60695,-2.935363 5.63019,-5.433962 8.79883,-7.455078 1.23711,0.881363 3.89649,0.774468 5.98242,-1.183594 -2.32371,-0.467104 -2.49075,-2.240002 0.61524,-2.9375 4.94179,-2.123947 -2.2302,2.327501 1.80468,2.970703 4.37955,1.290075 0.66617,-3.808947 2.74219,-5.802734 -2.17335,-1.479824 1.31569,-7.234135 -2.48633,-4.677734 1.31492,-0.94036 -0.73121,-2.704338 0.44336,-3.392579 0.48544,1.359322 2.93033,3.22846 3.79883,0.0918 2.44385,0.417348 2.10048,-3.1212033 3.41992,-5.0253903 6.19578,-2.183423 1.06642,3.822415 0.83399,6.8027343 1.9936,5.810469 5.3561,-2.2406023 8.90039,-2.4394533 4.30684,0.146305 3.81484,-3.97152 3.74804,-6.175781 -4.74514,-0.919044 -9.67152,-0.390915 -14.49804,-0.546875 4.71492,-1.246472 9.61561,-1.278034 14.46093,-1.189453 0.59714,-0.04614 1.18962,-0.05723 1.77539,-0.03906 z m 4.45899,0.785156 c -0.16715,-0.05127 -0.38398,-0.01062 -0.625,0.222657 1.17078,0.912102 1.12644,-0.06884 0.625,-0.222657 z m -1.98438,0.980469 c -0.41565,0.02287 -0.38261,0.281596 0.79493,0.957031 l 1.02343,0.347657 c 2.17832,-0.270119 -0.90393,-1.355012 -1.81836,-1.304688 z m -20.57812,0.898438 c 0.0934,0.0091 0.20518,0.03194 0.33594,0.07617 -0.7556,0.52173 -0.98997,-0.139529 -0.33594,-0.07617 z m -2.71875,3.691406 c 0.79282,-0.09662 -0.45767,1.623745 -2.16797,1.908203 -2.28027,1.9014653 -0.33725,-0.668466 0.63477,-1.085938 0.77687,-0.556536 1.26893,-0.790059 1.5332,-0.822265 z m 34.9707,1.257812 c 0.0679,-0.0054 0.17669,0.01369 0.33985,0.06836 0.73312,1.2160093 -0.8155,-0.03065 -0.33985,-0.06836 z m -40.2539,0.572266 c 1.75375,0.127066 -0.11427,4.2181003 -2.0625,4.4199223 -1.04449,-0.09645 -1.75729,1.549702 -2.56446,2.08789 -0.0788,0.36041 0.0645,-5.635565 2.79102,-5.867187 0.83403,-0.4893873 1.43122,-0.6699483 1.83594,-0.6406253 z m 25.23828,0.109375 c -0.89401,0.03736 -1.558,0.4149523 -1.19336,1.3867193 0.52271,0.502847 1.28352,0.625406 1.97656,0.628906 4.26979,-0.530259 1.18361,-2.0978093 -0.7832,-2.0156253 z m 15.125,0.7812503 c 0.18924,0.01722 0.63343,0.185827 1.45703,0.601562 1.6644,2.099033 -2.27707,-0.676191 -1.45703,-0.601562 z m -8.22266,1.541015 c -0.0543,0.02382 -0.0993,0.124903 -0.11523,0.345704 0.78313,0.878905 0.35077,-0.448925 0.11523,-0.345704 z m 3.02344,0.726563 c -0.0635,-0.01742 -0.0697,0.121705 0.0586,0.560547 0.84086,0.957107 0.13203,-0.5083 -0.0586,-0.560547 z m 8.56055,0.0098 c 0.68794,-0.0029 2.61279,1.19408 2.22461,2.5 -1.85848,1.502067 -0.99806,0.699529 -1.36133,-0.964844 -1.24432,-1.101014 -1.27605,-1.533403 -0.86328,-1.535156 z m -54.19922,6.074218 c 0.13575,0.01592 0.33004,0.17864 0.5957,0.580079 -0.66424,2.038208 -1.18395,-0.649079 -0.5957,-0.580079 z m 9.28515,1.181641 c 0.12342,0.0015 0.32548,0.101098 0.62305,0.380859 -0.64918,0.489 -0.9933,-0.385412 -0.62305,-0.380859 z m 56.89063,0.359375 c 0.17633,-0.02049 0.5242,0.228132 1.10547,0.898437 0.69389,-1.140359 4.2752,1.506642 1.16797,1.984376 -0.58616,2.337815 -3.03755,-2.794027 -2.27344,-2.882813 z m -66.10352,0.939453 c 0.0651,-0.01451 0.13358,0.02533 0.20313,0.144531 -0.93272,2.746531 -0.65883,-0.04296 -0.20313,-0.144531 z m 60.58203,2.824219 c 0.56016,0.09306 2.76696,1.348727 3.64649,2.222656 0.53885,1.205798 -1.76717,-0.942441 -2.23438,-0.802734 -1.49161,-1.113055 -1.7482,-1.475758 -1.41211,-1.419922 z m -61.73242,0.02148 c 0.11403,0.02293 0.20296,0.140445 0.22852,0.410157 -1.68717,1.172741 -0.72263,-0.50952 -0.22852,-0.410157 z m 68.37696,2.234375 c 0.0864,-0.03693 0.33426,0.102078 0.8457,0.583985 0.0911,1.221937 -1.10493,-0.473202 -0.8457,-0.583985 z m -10.27344,2.314453 c -0.20733,0.03244 -0.52526,0.393641 -0.95899,1.351563 1.2096,1.412869 1.58096,-1.448872 0.95899,-1.351563 z m 12.73633,1.007813 c -0.22567,0.02934 -0.46266,0.282937 -0.6211,0.9375 1.88118,0.896584 1.29809,-1.025509 0.6211,-0.9375 z m -36.53907,2.779297 c -0.24373,-0.0216 -0.58361,0.08116 -0.99804,0.423828 1.59384,0.824122 1.72924,-0.359041 0.99804,-0.423828 z m 2.20508,0.751953 c -0.0992,-0.03745 -0.29814,0.03159 -0.63476,0.314453 0.34683,0.868667 0.9325,-0.202106 0.63476,-0.314453 z m 7.93945,5.078125 c -0.0959,0.02307 -0.22265,0.130412 -0.38476,0.373047 0.61484,1.015778 0.80019,-0.473009 0.38476,-0.373047 z m -50.16601,0.427734 c -0.0914,9.93e-4 -0.1464,0.228246 -0.0918,0.878906 0.97541,1.161654 0.3659,-0.881885 0.0918,-0.878906 z m -0.54297,1.650391 c -0.0915,-0.01542 -0.22788,0.255153 -0.4101599,1.0625 0.5506899,1.60127 0.6847799,-1.016236 0.4101599,-1.0625 z m -2.7929699,0.84375 c -1.94169,-0.200693 1.63065,3.227009 1.77149,4.738281 3.5947299,0.969368 -0.5029,2.067342 2.5371099,3.292969 4.57757,1.647724 1.74841,-2.033811 -0.19336,-2.808594 0.76175,-1.222421 -1.9309399,-2.124781 -2.9199299,-4.898438 -0.52855,-0.192954 -0.91792,-0.295548 -1.19531,-0.324218 z m 56.7031299,0.765625 c -0.20661,5.5e-5 -0.43391,0.379426 -0.5293,1.513672 1.34177,0.322561 0.98382,-1.513793 0.5293,-1.513672 z M 1.7600791,43.028504 c 1.80842,3.101737 1.81084,8.836243 3.68164,12.671875 0.81802,3.107888 1.42105,-0.804627 1.625,1.644531 0.69316,4.626075 -2.12683,9.391823 1.34375,13.828125 1.8117199,4.911247 6.0175999,8.196042 8.5331999,12.660156 0.61805,1.137617 1.32686,2.244762 1.8125,3.447266 C 14.156419,82.978169 9.5499291,78.30445 6.8635891,72.514832 1.8449491,63.645105 0.1727291,53.028381 1.7600791,43.028504 Z m 9.4277299,0.01563 c -0.10466,0.06756 -0.11127,0.393046 0.17969,1.103515 l 0.22656,0.150391 c 0.21348,-0.759051 -0.23181,-1.36651 -0.40625,-1.253906 z m 49.58203,0.07422 c -0.58748,0.03379 -0.96697,0.300398 -0.54882,0.996093 l 0.17578,0.08203 h 0.99804 c 2.96721,-0.09867 0.66747,-1.152457 -0.625,-1.078124 z M 8.4807791,46.762879 c -0.26329,-0.05519 -0.29972,0.248996 0.33008,1.3125 1.9238799,0.668448 0.24917,-1.191089 -0.33008,-1.3125 z m 6.5956999,2.818359 c -0.24033,0.0302 -0.45392,0.285619 -0.51171,0.947266 2.2032,0.901067 1.23272,-1.037859 0.51171,-0.947266 z m 3.50977,3.644531 c -0.0973,-0.03823 -0.19805,0.399091 -0.26367,1.714844 l 0.0391,0.72461 c 0.78092,2.084114 0.51639,-2.324767 0.22461,-2.439454 z m 35.07617,2.935547 c -0.24914,-0.027 -0.2517,0.166689 0.43946,0.824219 1.84757,0.366116 0.10866,-0.764814 -0.43946,-0.824219 z m 2.68555,0.615235 c -0.11473,0.0018 -0.26449,0.08493 -0.45313,0.300781 0.7665,1.20413 0.95029,-0.308716 0.45313,-0.300781 z m -0.44531,1.316406 c -0.17591,0.02846 -0.42379,0.144878 -0.75782,0.398437 0.91908,0.991477 1.52006,-0.521777 0.75782,-0.398437 z m -1.29102,0.193359 c -0.0937,-0.0099 -0.23554,0.127608 -0.42969,0.544922 0.55026,0.846259 0.71085,-0.515205 0.42969,-0.544922 z m 29.2207,9.3125 c -0.0937,-0.0099 -0.23553,0.127608 -0.42968,0.544922 0.55026,0.846263 0.71085,-0.515204 0.42968,-0.544922 z"
     style="fill:#000000;stroke-width:0.321106"
     id="path908" />
</svg>
