<?xml version="1.0" encoding="UTF-8" standalone="no"?>
<svg
   xmlns:dc="http://purl.org/dc/elements/1.1/"
   xmlns:cc="http://creativecommons.org/ns#"
   xmlns:rdf="http://www.w3.org/1999/02/22-rdf-syntax-ns#"
   xmlns:svg="http://www.w3.org/2000/svg"
   xmlns="http://www.w3.org/2000/svg"
   xmlns:sodipodi="http://sodipodi.sourceforge.net/DTD/sodipodi-0.dtd"
   xmlns:inkscape="http://www.inkscape.org/namespaces/inkscape"
   version="1.1"
   width="100"
   height="100"
   id="svg4460"
   sodipodi:docname="template.svg"
   inkscape:version="1.0 (4035a4fb49, 2020-05-01)">
  <sodipodi:namedview
     pagecolor="#ffffff"
     bordercolor="#666666"
     borderopacity="1"
     objecttolerance="10"
     gridtolerance="10"
     guidetolerance="10"
     inkscape:pageopacity="0"
     inkscape:pageshadow="2"
     inkscape:window-width="1920"
     inkscape:window-height="1017"
     id="namedview11"
     showgrid="false"
     inkscape:zoom="1.4283557"
     inkscape:cx="-47.729798"
     inkscape:cy="-347.61779"
     inkscape:window-x="-8"
     inkscape:window-y="-8"
     inkscape:window-maximized="1"
     inkscape:current-layer="svg4460"
     inkscape:document-rotation="0" />
  <defs
     id="defs4462">
    <clipPath
       id="a">
      <path
         d="M 0,841.89 H 595.28 V 0 H 0 Z"
         id="path4138" />
    </clipPath>
    <clipPath
       id="a-4">
      <path
         d="M 0,841.89 H 595.28 V 0 H 0 Z"
         id="path4138-6" />
    </clipPath>
  </defs>
  <metadata
     id="metadata4465">
    <rdf:RDF>
      <cc:Work
         rdf:about="">
        <dc:format>image/svg+xml</dc:format>
        <dc:type
           rdf:resource="http://purl.org/dc/dcmitype/StillImage" />
        <dc:title />
      </cc:Work>
    </rdf:RDF>
  </metadata>
  <path
     id="path967"
     style="color:#000000;font-style:normal;font-variant:normal;font-weight:normal;font-stretch:normal;font-size:medium;line-height:normal;font-family:sans-serif;font-variant-ligatures:normal;font-variant-position:normal;font-variant-caps:normal;font-variant-numeric:normal;font-variant-alternates:normal;font-variant-east-asian:normal;font-feature-settings:normal;font-variation-settings:normal;text-indent:0;text-align:start;text-decoration:none;text-decoration-line:none;text-decoration-style:solid;text-decoration-color:#000000;letter-spacing:normal;word-spacing:normal;text-transform:none;writing-mode:lr-tb;direction:ltr;text-orientation:mixed;dominant-baseline:auto;baseline-shift:baseline;text-anchor:start;white-space:normal;shape-padding:0;shape-margin:0;inline-size:0;clip-rule:nonzero;display:inline;overflow:visible;visibility:visible;opacity:1;isolation:auto;mix-blend-mode:normal;color-interpolation:sRGB;color-interpolation-filters:linearRGB;solid-color:#000000;solid-opacity:1;vector-effect:none;fill:#000080;fill-opacity:1;fill-rule:evenodd;stroke:none;stroke-width:3;stroke-linecap:butt;stroke-linejoin:miter;stroke-miterlimit:4;stroke-dasharray:none;stroke-dashoffset:0;stroke-opacity:1;color-rendering:auto;image-rendering:auto;shape-rendering:auto;text-rendering:auto;enable-background:accumulate;stop-color:#000000;stop-opacity:1"
     d="m 147.16551,-116.94437 a 2.50025,2.50025 0 0 0 -1.07617,0.23243 l -31.66602,14.71093 a 2.50025,2.50025 0 0 0 -1.44726,2.267583 v 70.289062 a 2.50025,2.50025 0 0 0 3.55273,2.267578 l 30.61328,-14.220703 30.61328,14.220703 a 2.50025,2.50025 0 0 0 2.10742,0 l 31.66602,-14.710937 a 2.50025,2.50025 0 0 0 1.44727,-2.267578 v -70.289068 a 2.50025,2.50025 0 0 0 -3.55274,-2.26757 l -30.61328,14.2207 -30.61328,-14.2207 a 2.50025,2.50025 0 0 0 -1.03125,-0.23243 z m 1.45703,5.94336 28.67578,13.32227 -0.36914,64.605469 -28.67578,-13.322266 z m -3,0.0195 -0.37109,64.949224 -27.27539,12.669921 v -64.775389 z m 62.35352,0.45508 v 64.777347 l -28.04883,13.029297 0.37109,-64.949219 z" />
  <circle
     style="opacity:1;fill:none;fill-opacity:0;stroke:#000080;stroke-width:7;stroke-linecap:round;stroke-linejoin:round;stroke-miterlimit:4;stroke-dasharray:none;stroke-dashoffset:0;stroke-opacity:1;paint-order:normal"
     id="path812"
     cx="-41.056187"
     cy="29.276724"
     r="9.0499887" />
  <path
     style="fill:#000000;fill-opacity:0;stroke:#000080;stroke-width:7;stroke-linecap:round;stroke-linejoin:round;stroke-miterlimit:4;stroke-dasharray:none;stroke-opacity:1"
     d="m -106.78503,93.516309 20.709899,-42.80032 40.039,10.58503 14.266703,43.490651"
     id="path822"
     inkscape:connector-curvature="0" />
  <path
     style="fill:none;fill-opacity:1;stroke:#000080;stroke-width:7;stroke-linecap:round;stroke-linejoin:round;stroke-miterlimit:4;stroke-dasharray:none;stroke-opacity:1"
     d="m -108.62283,156.88771 20.709799,-42.80033 40.0391,10.58503 14.266703,43.49066 z"
     id="path822-1"
     inkscape:connector-curvature="0" />
  <path
     d="m 53.228683,53.215972 c 3.295967,0.380868 6.388979,-0.629181 8.751232,-2.857827 2.398658,-2.26273 3.47761,-4.748632 3.47761,-8.012494 0,-3.304401 -1.089861,-5.779699 -3.560186,-8.086863 -1.091764,-1.019423 -2.527026,-1.856721 -4.091672,-2.386772 -1.279368,-0.433497 -4.11463,-0.541443 -5.63564,-0.214636 -1.693394,0.363743 -3.708343,1.41895 -4.983022,2.609348 -2.385339,2.227492 -3.528221,4.84501 -3.528221,8.079037 0,1.938816 0.282232,3.153075 1.145165,4.923756 0.627761,1.288007 0.863187,1.609257 2.036132,2.77988 1.02111,1.019145 1.581266,1.455025 2.435701,1.895004 1.40761,0.724861 2.633449,1.119162 3.952901,1.271681 z m 0.619389,26.528127 C 53.616198,79.602831 52.576949,78.588913 51.537826,77.490781 43.57849,69.079129 38.022255,60.8967 35.006238,53.144685 34.098782,50.812482 33.762513,49.634691 33.407217,47.546768 32.317357,41.144077 33.622602,34.890392 37.156404,29.5707 c 1.345329,-2.024918 4.074547,-4.770271 6.022902,-6.058633 7.109087,-4.701154 15.674997,-4.681594 22.816807,0.05213 1.853474,1.228414 4.60971,4.021106 5.921805,5.999877 2.402337,3.623318 3.682593,7.342354 4.071503,11.828681 0.317495,3.661574 -0.229084,7.236094 -1.711406,11.216521 -2.884859,7.741538 -8.128926,15.468489 -17.160741,25.286483 -2.016344,2.191797 -2.374049,2.394218 -3.269202,1.848374 z"
     style="fill:#000080;stroke-width:2.72726"
     id="path4135"
     inkscape:connector-curvature="0" />
  <path
     sodipodi:nodetypes="ccccc"
     style="fill:none;fill-opacity:1;stroke:#000080;stroke-width:7;stroke-linecap:round;stroke-linejoin:round;stroke-miterlimit:4;stroke-dasharray:none;stroke-opacity:1"
     d="m -68.089211,-44.526042 -24.6346,29.01569 93.00079952,-0.065 -24.57940252,-28.95065 z"
     id="path897"
     inkscape:connector-curvature="0" />
  <rect
     style="opacity:1;fill:none;fill-opacity:1;stroke:#000080;stroke-width:7.62166999;stroke-linecap:round;stroke-linejoin:round;stroke-miterlimit:4;stroke-dasharray:none;stroke-dashoffset:0;stroke-opacity:1;paint-order:normal"
     id="rect921"
     width="51.644939"
     height="51.644939"
     x="-142.13924"
     y="-92.355026"
     transform="matrix(0.87666883,-0.48109433,0.87666883,0.48109433,0,0)" />
  <circle
     style="opacity:1;fill:#000080;fill-opacity:1;stroke:none;stroke-width:7.01427;stroke-linecap:round;stroke-linejoin:round;stroke-miterlimit:4;stroke-dasharray:none;stroke-dashoffset:0;stroke-opacity:1;paint-order:normal"
     id="path981"
     cx="-195.78871"
     cy="98.851883"
     r="7.4999995" />
  <path
     style="fill:#000000;fill-opacity:0;stroke:#000080;stroke-width:5;stroke-linecap:round;stroke-linejoin:round;stroke-miterlimit:4;stroke-dasharray:none;stroke-opacity:1"
     d="m -181.19193,117.08615 24.4554,17.0297 6.1386,-39.009901"
     id="path983"
     inkscape:connector-curvature="0" />
  <path
     d="m -144.81163,-52.579208 v 7.767578 h -7.76758 v 5.464844 h 7.76758 v 7.767578 h 5.46484 v -7.767578 h 7.76758 v -5.464844 h -7.76758 v -7.767578 z"
     style="color:#000000;font-style:normal;font-variant:normal;font-weight:normal;font-stretch:normal;font-size:medium;line-height:normal;font-family:sans-serif;font-variant-ligatures:normal;font-variant-position:normal;font-variant-caps:normal;font-variant-numeric:normal;font-variant-alternates:normal;font-variant-east-asian:normal;font-feature-settings:normal;font-variation-settings:normal;text-indent:0;text-align:start;text-decoration:none;text-decoration-line:none;text-decoration-style:solid;text-decoration-color:#000000;letter-spacing:normal;word-spacing:normal;text-transform:none;writing-mode:lr-tb;direction:ltr;text-orientation:mixed;dominant-baseline:auto;baseline-shift:baseline;text-anchor:start;white-space:normal;shape-padding:0;shape-margin:0;inline-size:0;clip-rule:nonzero;display:inline;overflow:visible;visibility:visible;opacity:1;isolation:auto;mix-blend-mode:normal;color-interpolation:sRGB;color-interpolation-filters:linearRGB;solid-color:#000000;solid-opacity:1;vector-effect:none;fill:#000080;fill-opacity:1;fill-rule:evenodd;stroke:none;stroke-width:5.46564;stroke-linecap:butt;stroke-linejoin:miter;stroke-miterlimit:4;stroke-dasharray:none;stroke-dashoffset:0;stroke-opacity:1;color-rendering:auto;image-rendering:auto;shape-rendering:auto;text-rendering:auto;enable-background:accumulate;stop-color:#000000;stop-opacity:1"
     id="path879" />
  <circle
     style="opacity:1;fill:#000000;fill-opacity:0;stroke:#000080;stroke-width:7.00024;stroke-linecap:round;stroke-linejoin:round;stroke-miterlimit:4;stroke-dasharray:none;stroke-dashoffset:0;stroke-opacity:1;paint-order:normal"
     id="path812-3"
     cx="-258.41583"
     cy="-77.227722"
     r="46.499882" />
  <path
     d="m 55.264787,-95.183527 39.60396,-18.027143 v 86.138618 l -39.60396,18.0271384 z"
     style="color:#000000;overflow:visible;fill:#ffffff;stroke:#000080;stroke-width:1;stroke-linecap:round;stroke-linejoin:bevel;stroke-miterlimit:4;stroke-dasharray:none;stroke-dashoffset:188.976"
     id="rect870-3" />
  <path
     d="M -482.25781 -480.11914 A 7.5 7.5 0 0 0 -489.7207 -472.61914 A 7.5 7.5 0 0 0 -482.2207 -465.11914 A 7.5 7.5 0 0 0 -474.7207 -472.61914 A 7.5 7.5 0 0 0 -482.2207 -480.11914 A 7.5 7.5 0 0 0 -482.25781 -480.11914 z M -452.25781 -480.11914 A 7.5 7.5 0 0 0 -459.7207 -472.61914 A 7.5 7.5 0 0 0 -452.2207 -465.11914 A 7.5 7.5 0 0 0 -444.7207 -472.61914 A 7.5 7.5 0 0 0 -452.2207 -480.11914 A 7.5 7.5 0 0 0 -452.25781 -480.11914 z M -422.25781 -480.11914 A 7.5 7.5 0 0 0 -429.7207 -472.61914 A 7.5 7.5 0 0 0 -422.2207 -465.11914 A 7.5 7.5 0 0 0 -414.7207 -472.61914 A 7.5 7.5 0 0 0 -422.2207 -480.11914 A 7.5 7.5 0 0 0 -422.25781 -480.11914 z M -392.25781 -480.11914 A 7.5 7.5 0 0 0 -399.7207 -472.61914 A 7.5 7.5 0 0 0 -392.2207 -465.11914 A 7.5 7.5 0 0 0 -384.7207 -472.61914 A 7.5 7.5 0 0 0 -392.2207 -480.11914 A 7.5 7.5 0 0 0 -392.25781 -480.11914 z M -362.25781 -480.11914 A 7.5 7.5 0 0 0 -369.7207 -472.61914 A 7.5 7.5 0 0 0 -362.2207 -465.11914 A 7.5 7.5 0 0 0 -354.7207 -472.61914 A 7.5 7.5 0 0 0 -362.2207 -480.11914 A 7.5 7.5 0 0 0 -362.25781 -480.11914 z M -332.25781 -480.11914 A 7.5 7.5 0 0 0 -339.7207 -472.61914 A 7.5 7.5 0 0 0 -332.2207 -465.11914 A 7.5 7.5 0 0 0 -324.7207 -472.61914 A 7.5 7.5 0 0 0 -332.2207 -480.11914 A 7.5 7.5 0 0 0 -332.25781 -480.11914 z M -302.25781 -480.11914 A 7.5 7.5 0 0 0 -309.7207 -472.61914 A 7.5 7.5 0 0 0 -302.2207 -465.11914 A 7.5 7.5 0 0 0 -294.7207 -472.61914 A 7.5 7.5 0 0 0 -302.2207 -480.11914 A 7.5 7.5 0 0 0 -302.25781 -480.11914 z M -272.25781 -480.11914 A 7.5 7.5 0 0 0 -279.7207 -472.61914 A 7.5 7.5 0 0 0 -272.2207 -465.11914 A 7.5 7.5 0 0 0 -264.7207 -472.61914 A 7.5 7.5 0 0 0 -272.2207 -480.11914 A 7.5 7.5 0 0 0 -272.25781 -480.11914 z M -242.25781 -480.11914 A 7.5 7.5 0 0 0 -249.7207 -472.61914 A 7.5 7.5 0 0 0 -242.2207 -465.11914 A 7.5 7.5 0 0 0 -234.7207 -472.61914 A 7.5 7.5 0 0 0 -242.2207 -480.11914 A 7.5 7.5 0 0 0 -242.25781 -480.11914 z M -212.25781 -480.11914 A 7.5 7.5 0 0 0 -219.7207 -472.61914 A 7.5 7.5 0 0 0 -212.2207 -465.11914 A 7.5 7.5 0 0 0 -204.7207 -472.61914 A 7.5 7.5 0 0 0 -212.2207 -480.11914 A 7.5 7.5 0 0 0 -212.25781 -480.11914 z M -182.25781 -480.11914 A 7.5 7.5 0 0 0 -189.7207 -472.61914 A 7.5 7.5 0 0 0 -182.2207 -465.11914 A 7.5 7.5 0 0 0 -174.7207 -472.61914 A 7.5 7.5 0 0 0 -182.2207 -480.11914 A 7.5 7.5 0 0 0 -182.25781 -480.11914 z M -152.25781 -480.11914 A 7.5 7.5 0 0 0 -159.7207 -472.61914 A 7.5 7.5 0 0 0 -152.2207 -465.11914 A 7.5 7.5 0 0 0 -144.7207 -472.61914 A 7.5 7.5 0 0 0 -152.2207 -480.11914 A 7.5 7.5 0 0 0 -152.25781 -480.11914 z M -467.25781 -465.11914 A 7.5 7.5 0 0 0 -474.7207 -457.61914 A 7.5 7.5 0 0 0 -467.2207 -450.11914 A 7.5 7.5 0 0 0 -459.7207 -457.61914 A 7.5 7.5 0 0 0 -467.2207 -465.11914 A 7.5 7.5 0 0 0 -467.25781 -465.11914 z M -437.25781 -465.11914 A 7.5 7.5 0 0 0 -444.7207 -457.61914 A 7.5 7.5 0 0 0 -437.2207 -450.11914 A 7.5 7.5 0 0 0 -429.7207 -457.61914 A 7.5 7.5 0 0 0 -437.2207 -465.11914 A 7.5 7.5 0 0 0 -437.25781 -465.11914 z M -407.25781 -465.11914 A 7.5 7.5 0 0 0 -414.7207 -457.61914 A 7.5 7.5 0 0 0 -407.2207 -450.11914 A 7.5 7.5 0 0 0 -399.7207 -457.61914 A 7.5 7.5 0 0 0 -407.2207 -465.11914 A 7.5 7.5 0 0 0 -407.25781 -465.11914 z M -377.25781 -465.11914 A 7.5 7.5 0 0 0 -384.7207 -457.61914 A 7.5 7.5 0 0 0 -377.2207 -450.11914 A 7.5 7.5 0 0 0 -369.7207 -457.61914 A 7.5 7.5 0 0 0 -377.2207 -465.11914 A 7.5 7.5 0 0 0 -377.25781 -465.11914 z M -347.25781 -465.11914 A 7.5 7.5 0 0 0 -354.7207 -457.61914 A 7.5 7.5 0 0 0 -347.2207 -450.11914 A 7.5 7.5 0 0 0 -339.7207 -457.61914 A 7.5 7.5 0 0 0 -347.2207 -465.11914 A 7.5 7.5 0 0 0 -347.25781 -465.11914 z M -317.25781 -465.11914 A 7.5 7.5 0 0 0 -324.7207 -457.61914 A 7.5 7.5 0 0 0 -317.2207 -450.11914 A 7.5 7.5 0 0 0 -309.7207 -457.61914 A 7.5 7.5 0 0 0 -317.2207 -465.11914 A 7.5 7.5 0 0 0 -317.25781 -465.11914 z M -287.25781 -465.11914 A 7.5 7.5 0 0 0 -294.7207 -457.61914 A 7.5 7.5 0 0 0 -287.2207 -450.11914 A 7.5 7.5 0 0 0 -279.7207 -457.61914 A 7.5 7.5 0 0 0 -287.2207 -465.11914 A 7.5 7.5 0 0 0 -287.25781 -465.11914 z M -257.25781 -465.11914 A 7.5 7.5 0 0 0 -264.7207 -457.61914 A 7.5 7.5 0 0 0 -257.2207 -450.11914 A 7.5 7.5 0 0 0 -249.7207 -457.61914 A 7.5 7.5 0 0 0 -257.2207 -465.11914 A 7.5 7.5 0 0 0 -257.25781 -465.11914 z M -227.25781 -465.11914 A 7.5 7.5 0 0 0 -234.7207 -457.61914 A 7.5 7.5 0 0 0 -227.2207 -450.11914 A 7.5 7.5 0 0 0 -219.7207 -457.61914 A 7.5 7.5 0 0 0 -227.2207 -465.11914 A 7.5 7.5 0 0 0 -227.25781 -465.11914 z M -197.25781 -465.11914 A 7.5 7.5 0 0 0 -204.7207 -457.61914 A 7.5 7.5 0 0 0 -197.2207 -450.11914 A 7.5 7.5 0 0 0 -189.7207 -457.61914 A 7.5 7.5 0 0 0 -197.2207 -465.11914 A 7.5 7.5 0 0 0 -197.25781 -465.11914 z M -167.25781 -465.11914 A 7.5 7.5 0 0 0 -174.7207 -457.61914 A 7.5 7.5 0 0 0 -167.2207 -450.11914 A 7.5 7.5 0 0 0 -159.7207 -457.61914 A 7.5 7.5 0 0 0 -167.2207 -465.11914 A 7.5 7.5 0 0 0 -167.25781 -465.11914 z M -137.25781 -465.11914 A 7.5 7.5 0 0 0 -144.7207 -457.61914 A 7.5 7.5 0 0 0 -137.2207 -450.11914 A 7.5 7.5 0 0 0 -129.7207 -457.61914 A 7.5 7.5 0 0 0 -137.2207 -465.11914 A 7.5 7.5 0 0 0 -137.25781 -465.11914 z M -482.25781 -450.11914 A 7.5 7.5 0 0 0 -489.7207 -442.61914 A 7.5 7.5 0 0 0 -482.2207 -435.11914 A 7.5 7.5 0 0 0 -474.7207 -442.61914 A 7.5 7.5 0 0 0 -482.2207 -450.11914 A 7.5 7.5 0 0 0 -482.25781 -450.11914 z M -452.25781 -450.11914 A 7.5 7.5 0 0 0 -459.7207 -442.61914 A 7.5 7.5 0 0 0 -452.2207 -435.11914 A 7.5 7.5 0 0 0 -444.7207 -442.61914 A 7.5 7.5 0 0 0 -452.2207 -450.11914 A 7.5 7.5 0 0 0 -452.25781 -450.11914 z M -422.25781 -450.11914 A 7.5 7.5 0 0 0 -429.7207 -442.61914 A 7.5 7.5 0 0 0 -422.2207 -435.11914 A 7.5 7.5 0 0 0 -414.7207 -442.61914 A 7.5 7.5 0 0 0 -422.2207 -450.11914 A 7.5 7.5 0 0 0 -422.25781 -450.11914 z M -392.25781 -450.11914 A 7.5 7.5 0 0 0 -399.7207 -442.61914 A 7.5 7.5 0 0 0 -392.2207 -435.11914 A 7.5 7.5 0 0 0 -384.7207 -442.61914 A 7.5 7.5 0 0 0 -392.2207 -450.11914 A 7.5 7.5 0 0 0 -392.25781 -450.11914 z M -362.25781 -450.11914 A 7.5 7.5 0 0 0 -369.7207 -442.61914 A 7.5 7.5 0 0 0 -362.2207 -435.11914 A 7.5 7.5 0 0 0 -354.7207 -442.61914 A 7.5 7.5 0 0 0 -362.2207 -450.11914 A 7.5 7.5 0 0 0 -362.25781 -450.11914 z M -332.25781 -450.11914 A 7.5 7.5 0 0 0 -339.7207 -442.61914 A 7.5 7.5 0 0 0 -332.2207 -435.11914 A 7.5 7.5 0 0 0 -324.7207 -442.61914 A 7.5 7.5 0 0 0 -332.2207 -450.11914 A 7.5 7.5 0 0 0 -332.25781 -450.11914 z M -302.25781 -450.11914 A 7.5 7.5 0 0 0 -309.7207 -442.61914 A 7.5 7.5 0 0 0 -302.2207 -435.11914 A 7.5 7.5 0 0 0 -294.7207 -442.61914 A 7.5 7.5 0 0 0 -302.2207 -450.11914 A 7.5 7.5 0 0 0 -302.25781 -450.11914 z M -272.25781 -450.11914 A 7.5 7.5 0 0 0 -279.7207 -442.61914 A 7.5 7.5 0 0 0 -272.2207 -435.11914 A 7.5 7.5 0 0 0 -264.7207 -442.61914 A 7.5 7.5 0 0 0 -272.2207 -450.11914 A 7.5 7.5 0 0 0 -272.25781 -450.11914 z M -242.25781 -450.11914 A 7.5 7.5 0 0 0 -249.7207 -442.61914 A 7.5 7.5 0 0 0 -242.2207 -435.11914 A 7.5 7.5 0 0 0 -234.7207 -442.61914 A 7.5 7.5 0 0 0 -242.2207 -450.11914 A 7.5 7.5 0 0 0 -242.25781 -450.11914 z M -212.25781 -450.11914 A 7.5 7.5 0 0 0 -219.7207 -442.61914 A 7.5 7.5 0 0 0 -212.2207 -435.11914 A 7.5 7.5 0 0 0 -204.7207 -442.61914 A 7.5 7.5 0 0 0 -212.2207 -450.11914 A 7.5 7.5 0 0 0 -212.25781 -450.11914 z M -182.25781 -450.11914 A 7.5 7.5 0 0 0 -189.7207 -442.61914 A 7.5 7.5 0 0 0 -182.2207 -435.11914 A 7.5 7.5 0 0 0 -174.7207 -442.61914 A 7.5 7.5 0 0 0 -182.2207 -450.11914 A 7.5 7.5 0 0 0 -182.25781 -450.11914 z M -152.25781 -450.11914 A 7.5 7.5 0 0 0 -159.7207 -442.61914 A 7.5 7.5 0 0 0 -152.2207 -435.11914 A 7.5 7.5 0 0 0 -144.7207 -442.61914 A 7.5 7.5 0 0 0 -152.2207 -450.11914 A 7.5 7.5 0 0 0 -152.25781 -450.11914 z M -467.25781 -435.11914 A 7.5 7.5 0 0 0 -474.7207 -427.61914 A 7.5 7.5 0 0 0 -467.2207 -420.11914 A 7.5 7.5 0 0 0 -459.7207 -427.61914 A 7.5 7.5 0 0 0 -467.2207 -435.11914 A 7.5 7.5 0 0 0 -467.25781 -435.11914 z M -437.25781 -435.11914 A 7.5 7.5 0 0 0 -444.7207 -427.61914 A 7.5 7.5 0 0 0 -437.2207 -420.11914 A 7.5 7.5 0 0 0 -429.7207 -427.61914 A 7.5 7.5 0 0 0 -437.2207 -435.11914 A 7.5 7.5 0 0 0 -437.25781 -435.11914 z M -407.25781 -435.11914 A 7.5 7.5 0 0 0 -414.7207 -427.61914 A 7.5 7.5 0 0 0 -407.2207 -420.11914 A 7.5 7.5 0 0 0 -399.7207 -427.61914 A 7.5 7.5 0 0 0 -407.2207 -435.11914 A 7.5 7.5 0 0 0 -407.25781 -435.11914 z M -377.25781 -435.11914 A 7.5 7.5 0 0 0 -384.7207 -427.61914 A 7.5 7.5 0 0 0 -377.2207 -420.11914 A 7.5 7.5 0 0 0 -369.7207 -427.61914 A 7.5 7.5 0 0 0 -377.2207 -435.11914 A 7.5 7.5 0 0 0 -377.25781 -435.11914 z M -347.25781 -435.11914 A 7.5 7.5 0 0 0 -354.7207 -427.61914 A 7.5 7.5 0 0 0 -347.2207 -420.11914 A 7.5 7.5 0 0 0 -339.7207 -427.61914 A 7.5 7.5 0 0 0 -347.2207 -435.11914 A 7.5 7.5 0 0 0 -347.25781 -435.11914 z M -317.25781 -435.11914 A 7.5 7.5 0 0 0 -324.7207 -427.61914 A 7.5 7.5 0 0 0 -317.2207 -420.11914 A 7.5 7.5 0 0 0 -309.7207 -427.61914 A 7.5 7.5 0 0 0 -317.2207 -435.11914 A 7.5 7.5 0 0 0 -317.25781 -435.11914 z M -287.25781 -435.11914 A 7.5 7.5 0 0 0 -294.7207 -427.61914 A 7.5 7.5 0 0 0 -287.2207 -420.11914 A 7.5 7.5 0 0 0 -279.7207 -427.61914 A 7.5 7.5 0 0 0 -287.2207 -435.11914 A 7.5 7.5 0 0 0 -287.25781 -435.11914 z M -257.25781 -435.11914 A 7.5 7.5 0 0 0 -264.7207 -427.61914 A 7.5 7.5 0 0 0 -257.2207 -420.11914 A 7.5 7.5 0 0 0 -249.7207 -427.61914 A 7.5 7.5 0 0 0 -257.2207 -435.11914 A 7.5 7.5 0 0 0 -257.25781 -435.11914 z M -227.25781 -435.11914 A 7.5 7.5 0 0 0 -234.7207 -427.61914 A 7.5 7.5 0 0 0 -227.2207 -420.11914 A 7.5 7.5 0 0 0 -219.7207 -427.61914 A 7.5 7.5 0 0 0 -227.2207 -435.11914 A 7.5 7.5 0 0 0 -227.25781 -435.11914 z M -197.25781 -435.11914 A 7.5 7.5 0 0 0 -204.7207 -427.61914 A 7.5 7.5 0 0 0 -197.2207 -420.11914 A 7.5 7.5 0 0 0 -189.7207 -427.61914 A 7.5 7.5 0 0 0 -197.2207 -435.11914 A 7.5 7.5 0 0 0 -197.25781 -435.11914 z M -167.25781 -435.11914 A 7.5 7.5 0 0 0 -174.7207 -427.61914 A 7.5 7.5 0 0 0 -167.2207 -420.11914 A 7.5 7.5 0 0 0 -159.7207 -427.61914 A 7.5 7.5 0 0 0 -167.2207 -435.11914 A 7.5 7.5 0 0 0 -167.25781 -435.11914 z M -137.25781 -435.11914 A 7.5 7.5 0 0 0 -144.7207 -427.61914 A 7.5 7.5 0 0 0 -137.2207 -420.11914 A 7.5 7.5 0 0 0 -129.7207 -427.61914 A 7.5 7.5 0 0 0 -137.2207 -435.11914 A 7.5 7.5 0 0 0 -137.25781 -435.11914 z M -482.25781 -420.11914 A 7.5 7.5 0 0 0 -489.7207 -412.61914 A 7.5 7.5 0 0 0 -482.2207 -405.11914 A 7.5 7.5 0 0 0 -474.7207 -412.61914 A 7.5 7.5 0 0 0 -482.2207 -420.11914 A 7.5 7.5 0 0 0 -482.25781 -420.11914 z M -452.25781 -420.11914 A 7.5 7.5 0 0 0 -459.7207 -412.61914 A 7.5 7.5 0 0 0 -452.2207 -405.11914 A 7.5 7.5 0 0 0 -444.7207 -412.61914 A 7.5 7.5 0 0 0 -452.2207 -420.11914 A 7.5 7.5 0 0 0 -452.25781 -420.11914 z M -422.25781 -420.11914 A 7.5 7.5 0 0 0 -429.7207 -412.61914 A 7.5 7.5 0 0 0 -422.2207 -405.11914 A 7.5 7.5 0 0 0 -414.7207 -412.61914 A 7.5 7.5 0 0 0 -422.2207 -420.11914 A 7.5 7.5 0 0 0 -422.25781 -420.11914 z M -392.25781 -420.11914 A 7.5 7.5 0 0 0 -399.7207 -412.61914 A 7.5 7.5 0 0 0 -392.2207 -405.11914 A 7.5 7.5 0 0 0 -384.7207 -412.61914 A 7.5 7.5 0 0 0 -392.2207 -420.11914 A 7.5 7.5 0 0 0 -392.25781 -420.11914 z M -362.25781 -420.11914 A 7.5 7.5 0 0 0 -369.7207 -412.61914 A 7.5 7.5 0 0 0 -362.2207 -405.11914 A 7.5 7.5 0 0 0 -354.7207 -412.61914 A 7.5 7.5 0 0 0 -362.2207 -420.11914 A 7.5 7.5 0 0 0 -362.25781 -420.11914 z M -332.25781 -420.11914 A 7.5 7.5 0 0 0 -339.7207 -412.61914 A 7.5 7.5 0 0 0 -332.2207 -405.11914 A 7.5 7.5 0 0 0 -324.7207 -412.61914 A 7.5 7.5 0 0 0 -332.2207 -420.11914 A 7.5 7.5 0 0 0 -332.25781 -420.11914 z M -302.25781 -420.11914 A 7.5 7.5 0 0 0 -309.7207 -412.61914 A 7.5 7.5 0 0 0 -302.2207 -405.11914 A 7.5 7.5 0 0 0 -294.7207 -412.61914 A 7.5 7.5 0 0 0 -302.2207 -420.11914 A 7.5 7.5 0 0 0 -302.25781 -420.11914 z M -272.25781 -420.11914 A 7.5 7.5 0 0 0 -279.7207 -412.61914 A 7.5 7.5 0 0 0 -272.2207 -405.11914 A 7.5 7.5 0 0 0 -264.7207 -412.61914 A 7.5 7.5 0 0 0 -272.2207 -420.11914 A 7.5 7.5 0 0 0 -272.25781 -420.11914 z M -242.25781 -420.11914 A 7.5 7.5 0 0 0 -249.7207 -412.61914 A 7.5 7.5 0 0 0 -242.2207 -405.11914 A 7.5 7.5 0 0 0 -234.7207 -412.61914 A 7.5 7.5 0 0 0 -242.2207 -420.11914 A 7.5 7.5 0 0 0 -242.25781 -420.11914 z M -212.25781 -420.11914 A 7.5 7.5 0 0 0 -219.7207 -412.61914 A 7.5 7.5 0 0 0 -212.2207 -405.11914 A 7.5 7.5 0 0 0 -204.7207 -412.61914 A 7.5 7.5 0 0 0 -212.2207 -420.11914 A 7.5 7.5 0 0 0 -212.25781 -420.11914 z M -182.25781 -420.11914 A 7.5 7.5 0 0 0 -189.7207 -412.61914 A 7.5 7.5 0 0 0 -182.2207 -405.11914 A 7.5 7.5 0 0 0 -174.7207 -412.61914 A 7.5 7.5 0 0 0 -182.2207 -420.11914 A 7.5 7.5 0 0 0 -182.25781 -420.11914 z M -152.25781 -420.11914 A 7.5 7.5 0 0 0 -159.7207 -412.61914 A 7.5 7.5 0 0 0 -152.2207 -405.11914 A 7.5 7.5 0 0 0 -144.7207 -412.61914 A 7.5 7.5 0 0 0 -152.2207 -420.11914 A 7.5 7.5 0 0 0 -152.25781 -420.11914 z M -467.2207 -405.11914 A -7.5 7.5 0 0 0 -474.7207 -397.61914 A -7.5 7.5 0 0 0 -467.2207 -390.11914 A -7.5 7.5 0 0 0 -459.7207 -397.61914 A -7.5 7.5 0 0 0 -467.2207 -405.11914 z M -437.2207 -405.11914 A -7.5 7.5 0 0 0 -444.7207 -397.61914 A -7.5 7.5 0 0 0 -437.2207 -390.11914 A -7.5 7.5 0 0 0 -429.7207 -397.61914 A -7.5 7.5 0 0 0 -437.2207 -405.11914 z M -407.2207 -405.11914 A -7.5 7.5 0 0 0 -414.7207 -397.61914 A -7.5 7.5 0 0 0 -407.2207 -390.11914 A -7.5 7.5 0 0 0 -399.7207 -397.61914 A -7.5 7.5 0 0 0 -407.2207 -405.11914 z M -377.2207 -405.11914 A -7.5 7.5 0 0 0 -384.7207 -397.61914 A -7.5 7.5 0 0 0 -377.2207 -390.11914 A -7.5 7.5 0 0 0 -369.7207 -397.61914 A -7.5 7.5 0 0 0 -377.2207 -405.11914 z M -347.2207 -405.11914 A -7.5 7.5 0 0 0 -354.7207 -397.61914 A -7.5 7.5 0 0 0 -347.2207 -390.11914 A -7.5 7.5 0 0 0 -339.7207 -397.61914 A -7.5 7.5 0 0 0 -347.2207 -405.11914 z M -317.2207 -405.11914 A -7.5 7.5 0 0 0 -324.7207 -397.61914 A -7.5 7.5 0 0 0 -317.2207 -390.11914 A -7.5 7.5 0 0 0 -309.7207 -397.61914 A -7.5 7.5 0 0 0 -317.2207 -405.11914 z M -287.2207 -405.11914 A -7.5 7.5 0 0 0 -294.7207 -397.61914 A -7.5 7.5 0 0 0 -287.2207 -390.11914 A -7.5 7.5 0 0 0 -279.7207 -397.61914 A -7.5 7.5 0 0 0 -287.2207 -405.11914 z M -257.2207 -405.11914 A -7.5 7.5 0 0 0 -264.7207 -397.61914 A -7.5 7.5 0 0 0 -257.2207 -390.11914 A -7.5 7.5 0 0 0 -249.7207 -397.61914 A -7.5 7.5 0 0 0 -257.2207 -405.11914 z M -227.2207 -405.11914 A -7.5 7.5 0 0 0 -234.7207 -397.61914 A -7.5 7.5 0 0 0 -227.2207 -390.11914 A -7.5 7.5 0 0 0 -219.7207 -397.61914 A -7.5 7.5 0 0 0 -227.2207 -405.11914 z M -197.2207 -405.11914 A -7.5 7.5 0 0 0 -204.7207 -397.61914 A -7.5 7.5 0 0 0 -197.2207 -390.11914 A -7.5 7.5 0 0 0 -189.7207 -397.61914 A -7.5 7.5 0 0 0 -197.2207 -405.11914 z M -167.2207 -405.11914 A -7.5 7.5 0 0 0 -174.7207 -397.61914 A -7.5 7.5 0 0 0 -167.2207 -390.11914 A -7.5 7.5 0 0 0 -159.7207 -397.61914 A -7.5 7.5 0 0 0 -167.2207 -405.11914 z M -137.2207 -405.11914 A -7.5 7.5 0 0 0 -144.7207 -397.61914 A -7.5 7.5 0 0 0 -137.2207 -390.11914 A -7.5 7.5 0 0 0 -129.7207 -397.61914 A -7.5 7.5 0 0 0 -137.2207 -405.11914 z M -482.2207 -390.11914 A -7.5 7.5 0 0 0 -489.7207 -382.61914 A -7.5 7.5 0 0 0 -482.2207 -375.11914 A -7.5 7.5 0 0 0 -474.7207 -382.61914 A -7.5 7.5 0 0 0 -482.2207 -390.11914 z M -452.2207 -390.11914 A -7.5 7.5 0 0 0 -459.7207 -382.61914 A -7.5 7.5 0 0 0 -452.2207 -375.11914 A -7.5 7.5 0 0 0 -444.7207 -382.61914 A -7.5 7.5 0 0 0 -452.2207 -390.11914 z M -422.2207 -390.11914 A -7.5 7.5 0 0 0 -429.7207 -382.61914 A -7.5 7.5 0 0 0 -422.2207 -375.11914 A -7.5 7.5 0 0 0 -414.7207 -382.61914 A -7.5 7.5 0 0 0 -422.2207 -390.11914 z M -392.2207 -390.11914 A -7.5 7.5 0 0 0 -399.7207 -382.61914 A -7.5 7.5 0 0 0 -392.2207 -375.11914 A -7.5 7.5 0 0 0 -384.7207 -382.61914 A -7.5 7.5 0 0 0 -392.2207 -390.11914 z M -362.2207 -390.11914 A -7.5 7.5 0 0 0 -369.7207 -382.61914 A -7.5 7.5 0 0 0 -362.2207 -375.11914 A -7.5 7.5 0 0 0 -354.7207 -382.61914 A -7.5 7.5 0 0 0 -362.2207 -390.11914 z M -332.2207 -390.11914 A -7.5 7.5 0 0 0 -339.7207 -382.61914 A -7.5 7.5 0 0 0 -332.2207 -375.11914 A -7.5 7.5 0 0 0 -324.7207 -382.61914 A -7.5 7.5 0 0 0 -332.2207 -390.11914 z M -302.2207 -390.11914 A -7.5 7.5 0 0 0 -309.7207 -382.61914 A -7.5 7.5 0 0 0 -302.2207 -375.11914 A -7.5 7.5 0 0 0 -294.7207 -382.61914 A -7.5 7.5 0 0 0 -302.2207 -390.11914 z M -272.2207 -390.11914 A -7.5 7.5 0 0 0 -279.7207 -382.61914 A -7.5 7.5 0 0 0 -272.2207 -375.11914 A -7.5 7.5 0 0 0 -264.7207 -382.61914 A -7.5 7.5 0 0 0 -272.2207 -390.11914 z M -242.2207 -390.11914 A -7.5 7.5 0 0 0 -249.7207 -382.61914 A -7.5 7.5 0 0 0 -242.2207 -375.11914 A -7.5 7.5 0 0 0 -234.7207 -382.61914 A -7.5 7.5 0 0 0 -242.2207 -390.11914 z M -212.2207 -390.11914 A -7.5 7.5 0 0 0 -219.7207 -382.61914 A -7.5 7.5 0 0 0 -212.2207 -375.11914 A -7.5 7.5 0 0 0 -204.7207 -382.61914 A -7.5 7.5 0 0 0 -212.2207 -390.11914 z M -182.2207 -390.11914 A -7.5 7.5 0 0 0 -189.7207 -382.61914 A -7.5 7.5 0 0 0 -182.2207 -375.11914 A -7.5 7.5 0 0 0 -174.7207 -382.61914 A -7.5 7.5 0 0 0 -182.2207 -390.11914 z M -152.2207 -390.11914 A -7.5 7.5 0 0 0 -159.7207 -382.61914 A -7.5 7.5 0 0 0 -152.2207 -375.11914 A -7.5 7.5 0 0 0 -144.7207 -382.61914 A -7.5 7.5 0 0 0 -152.2207 -390.11914 z M -467.2207 -375.11914 A -7.5 7.5 0 0 0 -474.7207 -367.61914 A -7.5 7.5 0 0 0 -467.2207 -360.11914 A -7.5 7.5 0 0 0 -459.7207 -367.61914 A -7.5 7.5 0 0 0 -467.2207 -375.11914 z M -437.2207 -375.11914 A -7.5 7.5 0 0 0 -444.7207 -367.61914 A -7.5 7.5 0 0 0 -437.2207 -360.11914 A -7.5 7.5 0 0 0 -429.7207 -367.61914 A -7.5 7.5 0 0 0 -437.2207 -375.11914 z M -407.2207 -375.11914 A -7.5 7.5 0 0 0 -414.7207 -367.61914 A -7.5 7.5 0 0 0 -407.2207 -360.11914 A -7.5 7.5 0 0 0 -399.7207 -367.61914 A -7.5 7.5 0 0 0 -407.2207 -375.11914 z M -377.2207 -375.11914 A -7.5 7.5 0 0 0 -384.7207 -367.61914 A -7.5 7.5 0 0 0 -377.2207 -360.11914 A -7.5 7.5 0 0 0 -369.7207 -367.61914 A -7.5 7.5 0 0 0 -377.2207 -375.11914 z M -347.2207 -375.11914 A -7.5 7.5 0 0 0 -354.7207 -367.61914 A -7.5 7.5 0 0 0 -347.2207 -360.11914 A -7.5 7.5 0 0 0 -339.7207 -367.61914 A -7.5 7.5 0 0 0 -347.2207 -375.11914 z M -317.2207 -375.11914 A -7.5 7.5 0 0 0 -324.7207 -367.61914 A -7.5 7.5 0 0 0 -317.2207 -360.11914 A -7.5 7.5 0 0 0 -309.7207 -367.61914 A -7.5 7.5 0 0 0 -317.2207 -375.11914 z M -287.2207 -375.11914 A -7.5 7.5 0 0 0 -294.7207 -367.61914 A -7.5 7.5 0 0 0 -287.2207 -360.11914 A -7.5 7.5 0 0 0 -279.7207 -367.61914 A -7.5 7.5 0 0 0 -287.2207 -375.11914 z M -257.2207 -375.11914 A -7.5 7.5 0 0 0 -264.7207 -367.61914 A -7.5 7.5 0 0 0 -257.2207 -360.11914 A -7.5 7.5 0 0 0 -249.7207 -367.61914 A -7.5 7.5 0 0 0 -257.2207 -375.11914 z M -227.2207 -375.11914 A -7.5 7.5 0 0 0 -234.7207 -367.61914 A -7.5 7.5 0 0 0 -227.2207 -360.11914 A -7.5 7.5 0 0 0 -219.7207 -367.61914 A -7.5 7.5 0 0 0 -227.2207 -375.11914 z M -197.2207 -375.11914 A -7.5 7.5 0 0 0 -204.7207 -367.61914 A -7.5 7.5 0 0 0 -197.2207 -360.11914 A -7.5 7.5 0 0 0 -189.7207 -367.61914 A -7.5 7.5 0 0 0 -197.2207 -375.11914 z M -167.2207 -375.11914 A -7.5 7.5 0 0 0 -174.7207 -367.61914 A -7.5 7.5 0 0 0 -167.2207 -360.11914 A -7.5 7.5 0 0 0 -159.7207 -367.61914 A -7.5 7.5 0 0 0 -167.2207 -375.11914 z M -137.2207 -375.11914 A -7.5 7.5 0 0 0 -144.7207 -367.61914 A -7.5 7.5 0 0 0 -137.2207 -360.11914 A -7.5 7.5 0 0 0 -129.7207 -367.61914 A -7.5 7.5 0 0 0 -137.2207 -375.11914 z M -482.2207 -360.11914 A -7.5 7.5 0 0 0 -489.7207 -352.61914 A -7.5 7.5 0 0 0 -482.2207 -345.11914 A -7.5 7.5 0 0 0 -474.7207 -352.61914 A -7.5 7.5 0 0 0 -482.2207 -360.11914 z M -452.2207 -360.11914 A -7.5 7.5 0 0 0 -459.7207 -352.61914 A -7.5 7.5 0 0 0 -452.2207 -345.11914 A -7.5 7.5 0 0 0 -444.7207 -352.61914 A -7.5 7.5 0 0 0 -452.2207 -360.11914 z M -422.2207 -360.11914 A -7.5 7.5 0 0 0 -429.7207 -352.61914 A -7.5 7.5 0 0 0 -422.2207 -345.11914 A -7.5 7.5 0 0 0 -414.7207 -352.61914 A -7.5 7.5 0 0 0 -422.2207 -360.11914 z M -392.2207 -360.11914 A -7.5 7.5 0 0 0 -399.7207 -352.61914 A -7.5 7.5 0 0 0 -392.2207 -345.11914 A -7.5 7.5 0 0 0 -384.7207 -352.61914 A -7.5 7.5 0 0 0 -392.2207 -360.11914 z M -362.2207 -360.11914 A -7.5 7.5 0 0 0 -369.7207 -352.61914 A -7.5 7.5 0 0 0 -362.2207 -345.11914 A -7.5 7.5 0 0 0 -354.7207 -352.61914 A -7.5 7.5 0 0 0 -362.2207 -360.11914 z M -332.2207 -360.11914 A -7.5 7.5 0 0 0 -339.7207 -352.61914 A -7.5 7.5 0 0 0 -332.2207 -345.11914 A -7.5 7.5 0 0 0 -324.7207 -352.61914 A -7.5 7.5 0 0 0 -332.2207 -360.11914 z M -302.2207 -360.11914 A -7.5 7.5 0 0 0 -309.7207 -352.61914 A -7.5 7.5 0 0 0 -302.2207 -345.11914 A -7.5 7.5 0 0 0 -294.7207 -352.61914 A -7.5 7.5 0 0 0 -302.2207 -360.11914 z M -272.2207 -360.11914 A -7.5 7.5 0 0 0 -279.7207 -352.61914 A -7.5 7.5 0 0 0 -272.2207 -345.11914 A -7.5 7.5 0 0 0 -264.7207 -352.61914 A -7.5 7.5 0 0 0 -272.2207 -360.11914 z M -242.2207 -360.11914 A -7.5 7.5 0 0 0 -249.7207 -352.61914 A -7.5 7.5 0 0 0 -242.2207 -345.11914 A -7.5 7.5 0 0 0 -234.7207 -352.61914 A -7.5 7.5 0 0 0 -242.2207 -360.11914 z M -212.2207 -360.11914 A -7.5 7.5 0 0 0 -219.7207 -352.61914 A -7.5 7.5 0 0 0 -212.2207 -345.11914 A -7.5 7.5 0 0 0 -204.7207 -352.61914 A -7.5 7.5 0 0 0 -212.2207 -360.11914 z M -182.2207 -360.11914 A -7.5 7.5 0 0 0 -189.7207 -352.61914 A -7.5 7.5 0 0 0 -182.2207 -345.11914 A -7.5 7.5 0 0 0 -174.7207 -352.61914 A -7.5 7.5 0 0 0 -182.2207 -360.11914 z M -152.2207 -360.11914 A -7.5 7.5 0 0 0 -159.7207 -352.61914 A -7.5 7.5 0 0 0 -152.2207 -345.11914 A -7.5 7.5 0 0 0 -144.7207 -352.61914 A -7.5 7.5 0 0 0 -152.2207 -360.11914 z M -467.2207 -345.11914 A -7.5 7.5 0 0 0 -474.7207 -337.61914 A -7.5 7.5 0 0 0 -467.2207 -330.11914 A -7.5 7.5 0 0 0 -459.7207 -337.61914 A -7.5 7.5 0 0 0 -467.2207 -345.11914 z M -437.2207 -345.11914 A -7.5 7.5 0 0 0 -444.7207 -337.61914 A -7.5 7.5 0 0 0 -437.2207 -330.11914 A -7.5 7.5 0 0 0 -429.7207 -337.61914 A -7.5 7.5 0 0 0 -437.2207 -345.11914 z M -407.2207 -345.11914 A -7.5 7.5 0 0 0 -414.7207 -337.61914 A -7.5 7.5 0 0 0 -407.2207 -330.11914 A -7.5 7.5 0 0 0 -399.7207 -337.61914 A -7.5 7.5 0 0 0 -407.2207 -345.11914 z M -377.2207 -345.11914 A -7.5 7.5 0 0 0 -384.7207 -337.61914 A -7.5 7.5 0 0 0 -377.2207 -330.11914 A -7.5 7.5 0 0 0 -369.7207 -337.61914 A -7.5 7.5 0 0 0 -377.2207 -345.11914 z M -347.2207 -345.11914 A -7.5 7.5 0 0 0 -354.7207 -337.61914 A -7.5 7.5 0 0 0 -347.2207 -330.11914 A -7.5 7.5 0 0 0 -339.7207 -337.61914 A -7.5 7.5 0 0 0 -347.2207 -345.11914 z M -317.2207 -345.11914 A -7.5 7.5 0 0 0 -324.7207 -337.61914 A -7.5 7.5 0 0 0 -317.2207 -330.11914 A -7.5 7.5 0 0 0 -309.7207 -337.61914 A -7.5 7.5 0 0 0 -317.2207 -345.11914 z M -287.2207 -345.11914 A -7.5 7.5 0 0 0 -294.7207 -337.61914 A -7.5 7.5 0 0 0 -287.2207 -330.11914 A -7.5 7.5 0 0 0 -279.7207 -337.61914 A -7.5 7.5 0 0 0 -287.2207 -345.11914 z M -257.2207 -345.11914 A -7.5 7.5 0 0 0 -264.7207 -337.61914 A -7.5 7.5 0 0 0 -257.2207 -330.11914 A -7.5 7.5 0 0 0 -249.7207 -337.61914 A -7.5 7.5 0 0 0 -257.2207 -345.11914 z M -227.2207 -345.11914 A -7.5 7.5 0 0 0 -234.7207 -337.61914 A -7.5 7.5 0 0 0 -227.2207 -330.11914 A -7.5 7.5 0 0 0 -219.7207 -337.61914 A -7.5 7.5 0 0 0 -227.2207 -345.11914 z M -197.2207 -345.11914 A -7.5 7.5 0 0 0 -204.7207 -337.61914 A -7.5 7.5 0 0 0 -197.2207 -330.11914 A -7.5 7.5 0 0 0 -189.7207 -337.61914 A -7.5 7.5 0 0 0 -197.2207 -345.11914 z M -167.2207 -345.11914 A -7.5 7.5 0 0 0 -174.7207 -337.61914 A -7.5 7.5 0 0 0 -167.2207 -330.11914 A -7.5 7.5 0 0 0 -159.7207 -337.61914 A -7.5 7.5 0 0 0 -167.2207 -345.11914 z M -137.2207 -345.11914 A -7.5 7.5 0 0 0 -144.7207 -337.61914 A -7.5 7.5 0 0 0 -137.2207 -330.11914 A -7.5 7.5 0 0 0 -129.7207 -337.61914 A -7.5 7.5 0 0 0 -137.2207 -345.11914 z M -482.25781 -330.11914 A 7.5 7.5 0 0 0 -489.7207 -322.61914 A 7.5 7.5 0 0 0 -482.2207 -315.11914 A 7.5 7.5 0 0 0 -474.7207 -322.61914 A 7.5 7.5 0 0 0 -482.2207 -330.11914 A 7.5 7.5 0 0 0 -482.25781 -330.11914 z M -452.25781 -330.11914 A 7.5 7.5 0 0 0 -459.7207 -322.61914 A 7.5 7.5 0 0 0 -452.2207 -315.11914 A 7.5 7.5 0 0 0 -444.7207 -322.61914 A 7.5 7.5 0 0 0 -452.2207 -330.11914 A 7.5 7.5 0 0 0 -452.25781 -330.11914 z M -422.25781 -330.11914 A 7.5 7.5 0 0 0 -429.7207 -322.61914 A 7.5 7.5 0 0 0 -422.2207 -315.11914 A 7.5 7.5 0 0 0 -414.7207 -322.61914 A 7.5 7.5 0 0 0 -422.2207 -330.11914 A 7.5 7.5 0 0 0 -422.25781 -330.11914 z M -392.25781 -330.11914 A 7.5 7.5 0 0 0 -399.7207 -322.61914 A 7.5 7.5 0 0 0 -392.2207 -315.11914 A 7.5 7.5 0 0 0 -384.7207 -322.61914 A 7.5 7.5 0 0 0 -392.2207 -330.11914 A 7.5 7.5 0 0 0 -392.25781 -330.11914 z M -362.25781 -330.11914 A 7.5 7.5 0 0 0 -369.7207 -322.61914 A 7.5 7.5 0 0 0 -362.2207 -315.11914 A 7.5 7.5 0 0 0 -354.7207 -322.61914 A 7.5 7.5 0 0 0 -362.2207 -330.11914 A 7.5 7.5 0 0 0 -362.25781 -330.11914 z M -332.25781 -330.11914 A 7.5 7.5 0 0 0 -339.7207 -322.61914 A 7.5 7.5 0 0 0 -332.2207 -315.11914 A 7.5 7.5 0 0 0 -324.7207 -322.61914 A 7.5 7.5 0 0 0 -332.2207 -330.11914 A 7.5 7.5 0 0 0 -332.25781 -330.11914 z M -302.25781 -330.11914 A 7.5 7.5 0 0 0 -309.7207 -322.61914 A 7.5 7.5 0 0 0 -302.2207 -315.11914 A 7.5 7.5 0 0 0 -294.7207 -322.61914 A 7.5 7.5 0 0 0 -302.2207 -330.11914 A 7.5 7.5 0 0 0 -302.25781 -330.11914 z M -272.25781 -330.11914 A 7.5 7.5 0 0 0 -279.7207 -322.61914 A 7.5 7.5 0 0 0 -272.2207 -315.11914 A 7.5 7.5 0 0 0 -264.7207 -322.61914 A 7.5 7.5 0 0 0 -272.2207 -330.11914 A 7.5 7.5 0 0 0 -272.25781 -330.11914 z M -242.25781 -330.11914 A 7.5 7.5 0 0 0 -249.7207 -322.61914 A 7.5 7.5 0 0 0 -242.2207 -315.11914 A 7.5 7.5 0 0 0 -234.7207 -322.61914 A 7.5 7.5 0 0 0 -242.2207 -330.11914 A 7.5 7.5 0 0 0 -242.25781 -330.11914 z M -212.25781 -330.11914 A 7.5 7.5 0 0 0 -219.7207 -322.61914 A 7.5 7.5 0 0 0 -212.2207 -315.11914 A 7.5 7.5 0 0 0 -204.7207 -322.61914 A 7.5 7.5 0 0 0 -212.2207 -330.11914 A 7.5 7.5 0 0 0 -212.25781 -330.11914 z M -182.25781 -330.11914 A 7.5 7.5 0 0 0 -189.7207 -322.61914 A 7.5 7.5 0 0 0 -182.2207 -315.11914 A 7.5 7.5 0 0 0 -174.7207 -322.61914 A 7.5 7.5 0 0 0 -182.2207 -330.11914 A 7.5 7.5 0 0 0 -182.25781 -330.11914 z M -152.25781 -330.11914 A 7.5 7.5 0 0 0 -159.7207 -322.61914 A 7.5 7.5 0 0 0 -152.2207 -315.11914 A 7.5 7.5 0 0 0 -144.7207 -322.61914 A 7.5 7.5 0 0 0 -152.2207 -330.11914 A 7.5 7.5 0 0 0 -152.25781 -330.11914 z M -467.25781 -315.11914 A 7.5 7.5 0 0 0 -474.7207 -307.61914 A 7.5 7.5 0 0 0 -467.2207 -300.11914 A 7.5 7.5 0 0 0 -459.7207 -307.61914 A 7.5 7.5 0 0 0 -467.2207 -315.11914 A 7.5 7.5 0 0 0 -467.25781 -315.11914 z M -437.25781 -315.11914 A 7.5 7.5 0 0 0 -444.7207 -307.61914 A 7.5 7.5 0 0 0 -437.2207 -300.11914 A 7.5 7.5 0 0 0 -429.7207 -307.61914 A 7.5 7.5 0 0 0 -437.2207 -315.11914 A 7.5 7.5 0 0 0 -437.25781 -315.11914 z M -407.25781 -315.11914 A 7.5 7.5 0 0 0 -414.7207 -307.61914 A 7.5 7.5 0 0 0 -407.2207 -300.11914 A 7.5 7.5 0 0 0 -399.7207 -307.61914 A 7.5 7.5 0 0 0 -407.2207 -315.11914 A 7.5 7.5 0 0 0 -407.25781 -315.11914 z M -377.25781 -315.11914 A 7.5 7.5 0 0 0 -384.7207 -307.61914 A 7.5 7.5 0 0 0 -377.2207 -300.11914 A 7.5 7.5 0 0 0 -369.7207 -307.61914 A 7.5 7.5 0 0 0 -377.2207 -315.11914 A 7.5 7.5 0 0 0 -377.25781 -315.11914 z M -347.25781 -315.11914 A 7.5 7.5 0 0 0 -354.7207 -307.61914 A 7.5 7.5 0 0 0 -347.2207 -300.11914 A 7.5 7.5 0 0 0 -339.7207 -307.61914 A 7.5 7.5 0 0 0 -347.2207 -315.11914 A 7.5 7.5 0 0 0 -347.25781 -315.11914 z M -317.25781 -315.11914 A 7.5 7.5 0 0 0 -324.7207 -307.61914 A 7.5 7.5 0 0 0 -317.2207 -300.11914 A 7.5 7.5 0 0 0 -309.7207 -307.61914 A 7.5 7.5 0 0 0 -317.2207 -315.11914 A 7.5 7.5 0 0 0 -317.25781 -315.11914 z M -287.25781 -315.11914 A 7.5 7.5 0 0 0 -294.7207 -307.61914 A 7.5 7.5 0 0 0 -287.2207 -300.11914 A 7.5 7.5 0 0 0 -279.7207 -307.61914 A 7.5 7.5 0 0 0 -287.2207 -315.11914 A 7.5 7.5 0 0 0 -287.25781 -315.11914 z M -257.25781 -315.11914 A 7.5 7.5 0 0 0 -264.7207 -307.61914 A 7.5 7.5 0 0 0 -257.2207 -300.11914 A 7.5 7.5 0 0 0 -249.7207 -307.61914 A 7.5 7.5 0 0 0 -257.2207 -315.11914 A 7.5 7.5 0 0 0 -257.25781 -315.11914 z M -227.25781 -315.11914 A 7.5 7.5 0 0 0 -234.7207 -307.61914 A 7.5 7.5 0 0 0 -227.2207 -300.11914 A 7.5 7.5 0 0 0 -219.7207 -307.61914 A 7.5 7.5 0 0 0 -227.2207 -315.11914 A 7.5 7.5 0 0 0 -227.25781 -315.11914 z M -197.25781 -315.11914 A 7.5 7.5 0 0 0 -204.7207 -307.61914 A 7.5 7.5 0 0 0 -197.2207 -300.11914 A 7.5 7.5 0 0 0 -189.7207 -307.61914 A 7.5 7.5 0 0 0 -197.2207 -315.11914 A 7.5 7.5 0 0 0 -197.25781 -315.11914 z M -167.25781 -315.11914 A 7.5 7.5 0 0 0 -174.7207 -307.61914 A 7.5 7.5 0 0 0 -167.2207 -300.11914 A 7.5 7.5 0 0 0 -159.7207 -307.61914 A 7.5 7.5 0 0 0 -167.2207 -315.11914 A 7.5 7.5 0 0 0 -167.25781 -315.11914 z M -137.25781 -315.11914 A 7.5 7.5 0 0 0 -144.7207 -307.61914 A 7.5 7.5 0 0 0 -137.2207 -300.11914 A 7.5 7.5 0 0 0 -129.7207 -307.61914 A 7.5 7.5 0 0 0 -137.2207 -315.11914 A 7.5 7.5 0 0 0 -137.25781 -315.11914 z M -482.25781 -300.11914 A 7.5 7.5 0 0 0 -489.7207 -292.61914 A 7.5 7.5 0 0 0 -482.2207 -285.11914 A 7.5 7.5 0 0 0 -474.7207 -292.61914 A 7.5 7.5 0 0 0 -482.2207 -300.11914 A 7.5 7.5 0 0 0 -482.25781 -300.11914 z M -452.25781 -300.11914 A 7.5 7.5 0 0 0 -459.7207 -292.61914 A 7.5 7.5 0 0 0 -452.2207 -285.11914 A 7.5 7.5 0 0 0 -444.7207 -292.61914 A 7.5 7.5 0 0 0 -452.2207 -300.11914 A 7.5 7.5 0 0 0 -452.25781 -300.11914 z M -422.25781 -300.11914 A 7.5 7.5 0 0 0 -429.7207 -292.61914 A 7.5 7.5 0 0 0 -422.2207 -285.11914 A 7.5 7.5 0 0 0 -414.7207 -292.61914 A 7.5 7.5 0 0 0 -422.2207 -300.11914 A 7.5 7.5 0 0 0 -422.25781 -300.11914 z M -392.25781 -300.11914 A 7.5 7.5 0 0 0 -399.7207 -292.61914 A 7.5 7.5 0 0 0 -392.2207 -285.11914 A 7.5 7.5 0 0 0 -384.7207 -292.61914 A 7.5 7.5 0 0 0 -392.2207 -300.11914 A 7.5 7.5 0 0 0 -392.25781 -300.11914 z M -362.25781 -300.11914 A 7.5 7.5 0 0 0 -369.7207 -292.61914 A 7.5 7.5 0 0 0 -362.2207 -285.11914 A 7.5 7.5 0 0 0 -354.7207 -292.61914 A 7.5 7.5 0 0 0 -362.2207 -300.11914 A 7.5 7.5 0 0 0 -362.25781 -300.11914 z M -332.25781 -300.11914 A 7.5 7.5 0 0 0 -339.7207 -292.61914 A 7.5 7.5 0 0 0 -332.2207 -285.11914 A 7.5 7.5 0 0 0 -324.7207 -292.61914 A 7.5 7.5 0 0 0 -332.2207 -300.11914 A 7.5 7.5 0 0 0 -332.25781 -300.11914 z M -302.25781 -300.11914 A 7.5 7.5 0 0 0 -309.7207 -292.61914 A 7.5 7.5 0 0 0 -302.2207 -285.11914 A 7.5 7.5 0 0 0 -294.7207 -292.61914 A 7.5 7.5 0 0 0 -302.2207 -300.11914 A 7.5 7.5 0 0 0 -302.25781 -300.11914 z M -272.25781 -300.11914 A 7.5 7.5 0 0 0 -279.7207 -292.61914 A 7.5 7.5 0 0 0 -272.2207 -285.11914 A 7.5 7.5 0 0 0 -264.7207 -292.61914 A 7.5 7.5 0 0 0 -272.2207 -300.11914 A 7.5 7.5 0 0 0 -272.25781 -300.11914 z M -242.25781 -300.11914 A 7.5 7.5 0 0 0 -249.7207 -292.61914 A 7.5 7.5 0 0 0 -242.2207 -285.11914 A 7.5 7.5 0 0 0 -234.7207 -292.61914 A 7.5 7.5 0 0 0 -242.2207 -300.11914 A 7.5 7.5 0 0 0 -242.25781 -300.11914 z M -212.25781 -300.11914 A 7.5 7.5 0 0 0 -219.7207 -292.61914 A 7.5 7.5 0 0 0 -212.2207 -285.11914 A 7.5 7.5 0 0 0 -204.7207 -292.61914 A 7.5 7.5 0 0 0 -212.2207 -300.11914 A 7.5 7.5 0 0 0 -212.25781 -300.11914 z M -182.25781 -300.11914 A 7.5 7.5 0 0 0 -189.7207 -292.61914 A 7.5 7.5 0 0 0 -182.2207 -285.11914 A 7.5 7.5 0 0 0 -174.7207 -292.61914 A 7.5 7.5 0 0 0 -182.2207 -300.11914 A 7.5 7.5 0 0 0 -182.25781 -300.11914 z M -152.25781 -300.11914 A 7.5 7.5 0 0 0 -159.7207 -292.61914 A 7.5 7.5 0 0 0 -152.2207 -285.11914 A 7.5 7.5 0 0 0 -144.7207 -292.61914 A 7.5 7.5 0 0 0 -152.2207 -300.11914 A 7.5 7.5 0 0 0 -152.25781 -300.11914 z M -467.25781 -285.11914 A 7.5 7.5 0 0 0 -474.7207 -277.61914 A 7.5 7.5 0 0 0 -467.2207 -270.11914 A 7.5 7.5 0 0 0 -459.7207 -277.61914 A 7.5 7.5 0 0 0 -467.2207 -285.11914 A 7.5 7.5 0 0 0 -467.25781 -285.11914 z M -437.25781 -285.11914 A 7.5 7.5 0 0 0 -444.7207 -277.61914 A 7.5 7.5 0 0 0 -437.2207 -270.11914 A 7.5 7.5 0 0 0 -429.7207 -277.61914 A 7.5 7.5 0 0 0 -437.2207 -285.11914 A 7.5 7.5 0 0 0 -437.25781 -285.11914 z M -407.25781 -285.11914 A 7.5 7.5 0 0 0 -414.7207 -277.61914 A 7.5 7.5 0 0 0 -407.2207 -270.11914 A 7.5 7.5 0 0 0 -399.7207 -277.61914 A 7.5 7.5 0 0 0 -407.2207 -285.11914 A 7.5 7.5 0 0 0 -407.25781 -285.11914 z M -377.25781 -285.11914 A 7.5 7.5 0 0 0 -384.7207 -277.61914 A 7.5 7.5 0 0 0 -377.2207 -270.11914 A 7.5 7.5 0 0 0 -369.7207 -277.61914 A 7.5 7.5 0 0 0 -377.2207 -285.11914 A 7.5 7.5 0 0 0 -377.25781 -285.11914 z M -347.25781 -285.11914 A 7.5 7.5 0 0 0 -354.7207 -277.61914 A 7.5 7.5 0 0 0 -347.2207 -270.11914 A 7.5 7.5 0 0 0 -339.7207 -277.61914 A 7.5 7.5 0 0 0 -347.2207 -285.11914 A 7.5 7.5 0 0 0 -347.25781 -285.11914 z M -317.25781 -285.11914 A 7.5 7.5 0 0 0 -324.7207 -277.61914 A 7.5 7.5 0 0 0 -317.2207 -270.11914 A 7.5 7.5 0 0 0 -309.7207 -277.61914 A 7.5 7.5 0 0 0 -317.2207 -285.11914 A 7.5 7.5 0 0 0 -317.25781 -285.11914 z M -287.25781 -285.11914 A 7.5 7.5 0 0 0 -294.7207 -277.61914 A 7.5 7.5 0 0 0 -287.2207 -270.11914 A 7.5 7.5 0 0 0 -279.7207 -277.61914 A 7.5 7.5 0 0 0 -287.2207 -285.11914 A 7.5 7.5 0 0 0 -287.25781 -285.11914 z M -257.25781 -285.11914 A 7.5 7.5 0 0 0 -264.7207 -277.61914 A 7.5 7.5 0 0 0 -257.2207 -270.11914 A 7.5 7.5 0 0 0 -249.7207 -277.61914 A 7.5 7.5 0 0 0 -257.2207 -285.11914 A 7.5 7.5 0 0 0 -257.25781 -285.11914 z M -227.25781 -285.11914 A 7.5 7.5 0 0 0 -234.7207 -277.61914 A 7.5 7.5 0 0 0 -227.2207 -270.11914 A 7.5 7.5 0 0 0 -219.7207 -277.61914 A 7.5 7.5 0 0 0 -227.2207 -285.11914 A 7.5 7.5 0 0 0 -227.25781 -285.11914 z M -197.25781 -285.11914 A 7.5 7.5 0 0 0 -204.7207 -277.61914 A 7.5 7.5 0 0 0 -197.2207 -270.11914 A 7.5 7.5 0 0 0 -189.7207 -277.61914 A 7.5 7.5 0 0 0 -197.2207 -285.11914 A 7.5 7.5 0 0 0 -197.25781 -285.11914 z M -167.25781 -285.11914 A 7.5 7.5 0 0 0 -174.7207 -277.61914 A 7.5 7.5 0 0 0 -167.2207 -270.11914 A 7.5 7.5 0 0 0 -159.7207 -277.61914 A 7.5 7.5 0 0 0 -167.2207 -285.11914 A 7.5 7.5 0 0 0 -167.25781 -285.11914 z M -137.25781 -285.11914 A 7.5 7.5 0 0 0 -144.7207 -277.61914 A 7.5 7.5 0 0 0 -137.2207 -270.11914 A 7.5 7.5 0 0 0 -129.7207 -277.61914 A 7.5 7.5 0 0 0 -137.2207 -285.11914 A 7.5 7.5 0 0 0 -137.25781 -285.11914 z M -482.25781 -270.11914 A 7.5 7.5 0 0 0 -489.7207 -262.61914 A 7.5 7.5 0 0 0 -482.2207 -255.11914 A 7.5 7.5 0 0 0 -474.7207 -262.61914 A 7.5 7.5 0 0 0 -482.2207 -270.11914 A 7.5 7.5 0 0 0 -482.25781 -270.11914 z M -452.25781 -270.11914 A 7.5 7.5 0 0 0 -459.7207 -262.61914 A 7.5 7.5 0 0 0 -452.2207 -255.11914 A 7.5 7.5 0 0 0 -444.7207 -262.61914 A 7.5 7.5 0 0 0 -452.2207 -270.11914 A 7.5 7.5 0 0 0 -452.25781 -270.11914 z M -422.25781 -270.11914 A 7.5 7.5 0 0 0 -429.7207 -262.61914 A 7.5 7.5 0 0 0 -422.2207 -255.11914 A 7.5 7.5 0 0 0 -414.7207 -262.61914 A 7.5 7.5 0 0 0 -422.2207 -270.11914 A 7.5 7.5 0 0 0 -422.25781 -270.11914 z M -392.25781 -270.11914 A 7.5 7.5 0 0 0 -399.7207 -262.61914 A 7.5 7.5 0 0 0 -392.2207 -255.11914 A 7.5 7.5 0 0 0 -384.7207 -262.61914 A 7.5 7.5 0 0 0 -392.2207 -270.11914 A 7.5 7.5 0 0 0 -392.25781 -270.11914 z M -362.25781 -270.11914 A 7.5 7.5 0 0 0 -369.7207 -262.61914 A 7.5 7.5 0 0 0 -362.2207 -255.11914 A 7.5 7.5 0 0 0 -354.7207 -262.61914 A 7.5 7.5 0 0 0 -362.2207 -270.11914 A 7.5 7.5 0 0 0 -362.25781 -270.11914 z M -332.25781 -270.11914 A 7.5 7.5 0 0 0 -339.7207 -262.61914 A 7.5 7.5 0 0 0 -332.2207 -255.11914 A 7.5 7.5 0 0 0 -324.7207 -262.61914 A 7.5 7.5 0 0 0 -332.2207 -270.11914 A 7.5 7.5 0 0 0 -332.25781 -270.11914 z M -302.25781 -270.11914 A 7.5 7.5 0 0 0 -309.7207 -262.61914 A 7.5 7.5 0 0 0 -302.2207 -255.11914 A 7.5 7.5 0 0 0 -294.7207 -262.61914 A 7.5 7.5 0 0 0 -302.2207 -270.11914 A 7.5 7.5 0 0 0 -302.25781 -270.11914 z M -272.25781 -270.11914 A 7.5 7.5 0 0 0 -279.7207 -262.61914 A 7.5 7.5 0 0 0 -272.2207 -255.11914 A 7.5 7.5 0 0 0 -264.7207 -262.61914 A 7.5 7.5 0 0 0 -272.2207 -270.11914 A 7.5 7.5 0 0 0 -272.25781 -270.11914 z M -242.25781 -270.11914 A 7.5 7.5 0 0 0 -249.7207 -262.61914 A 7.5 7.5 0 0 0 -242.2207 -255.11914 A 7.5 7.5 0 0 0 -234.7207 -262.61914 A 7.5 7.5 0 0 0 -242.2207 -270.11914 A 7.5 7.5 0 0 0 -242.25781 -270.11914 z M -212.25781 -270.11914 A 7.5 7.5 0 0 0 -219.7207 -262.61914 A 7.5 7.5 0 0 0 -212.2207 -255.11914 A 7.5 7.5 0 0 0 -204.7207 -262.61914 A 7.5 7.5 0 0 0 -212.2207 -270.11914 A 7.5 7.5 0 0 0 -212.25781 -270.11914 z M -182.25781 -270.11914 A 7.5 7.5 0 0 0 -189.7207 -262.61914 A 7.5 7.5 0 0 0 -182.2207 -255.11914 A 7.5 7.5 0 0 0 -174.7207 -262.61914 A 7.5 7.5 0 0 0 -182.2207 -270.11914 A 7.5 7.5 0 0 0 -182.25781 -270.11914 z M -152.25781 -270.11914 A 7.5 7.5 0 0 0 -159.7207 -262.61914 A 7.5 7.5 0 0 0 -152.2207 -255.11914 A 7.5 7.5 0 0 0 -144.7207 -262.61914 A 7.5 7.5 0 0 0 -152.2207 -270.11914 A 7.5 7.5 0 0 0 -152.25781 -270.11914 z M -467.2207 -255.11914 A -7.5 7.5 0 0 0 -474.7207 -247.61914 A -7.5 7.5 0 0 0 -467.2207 -240.11914 A -7.5 7.5 0 0 0 -459.7207 -247.61914 A -7.5 7.5 0 0 0 -467.2207 -255.11914 z M -437.2207 -255.11914 A -7.5 7.5 0 0 0 -444.7207 -247.61914 A -7.5 7.5 0 0 0 -437.2207 -240.11914 A -7.5 7.5 0 0 0 -429.7207 -247.61914 A -7.5 7.5 0 0 0 -437.2207 -255.11914 z M -407.2207 -255.11914 A -7.5 7.5 0 0 0 -414.7207 -247.61914 A -7.5 7.5 0 0 0 -407.2207 -240.11914 A -7.5 7.5 0 0 0 -399.7207 -247.61914 A -7.5 7.5 0 0 0 -407.2207 -255.11914 z M -377.2207 -255.11914 A -7.5 7.5 0 0 0 -384.7207 -247.61914 A -7.5 7.5 0 0 0 -377.2207 -240.11914 A -7.5 7.5 0 0 0 -369.7207 -247.61914 A -7.5 7.5 0 0 0 -377.2207 -255.11914 z M -347.2207 -255.11914 A -7.5 7.5 0 0 0 -354.7207 -247.61914 A -7.5 7.5 0 0 0 -347.2207 -240.11914 A -7.5 7.5 0 0 0 -339.7207 -247.61914 A -7.5 7.5 0 0 0 -347.2207 -255.11914 z M -317.2207 -255.11914 A -7.5 7.5 0 0 0 -324.7207 -247.61914 A -7.5 7.5 0 0 0 -317.2207 -240.11914 A -7.5 7.5 0 0 0 -309.7207 -247.61914 A -7.5 7.5 0 0 0 -317.2207 -255.11914 z M -287.2207 -255.11914 A -7.5 7.5 0 0 0 -294.7207 -247.61914 A -7.5 7.5 0 0 0 -287.2207 -240.11914 A -7.5 7.5 0 0 0 -279.7207 -247.61914 A -7.5 7.5 0 0 0 -287.2207 -255.11914 z M -257.2207 -255.11914 A -7.5 7.5 0 0 0 -264.7207 -247.61914 A -7.5 7.5 0 0 0 -257.2207 -240.11914 A -7.5 7.5 0 0 0 -249.7207 -247.61914 A -7.5 7.5 0 0 0 -257.2207 -255.11914 z M -227.2207 -255.11914 A -7.5 7.5 0 0 0 -234.7207 -247.61914 A -7.5 7.5 0 0 0 -227.2207 -240.11914 A -7.5 7.5 0 0 0 -219.7207 -247.61914 A -7.5 7.5 0 0 0 -227.2207 -255.11914 z M -197.2207 -255.11914 A -7.5 7.5 0 0 0 -204.7207 -247.61914 A -7.5 7.5 0 0 0 -197.2207 -240.11914 A -7.5 7.5 0 0 0 -189.7207 -247.61914 A -7.5 7.5 0 0 0 -197.2207 -255.11914 z M -167.2207 -255.11914 A -7.5 7.5 0 0 0 -174.7207 -247.61914 A -7.5 7.5 0 0 0 -167.2207 -240.11914 A -7.5 7.5 0 0 0 -159.7207 -247.61914 A -7.5 7.5 0 0 0 -167.2207 -255.11914 z M -137.2207 -255.11914 A -7.5 7.5 0 0 0 -144.7207 -247.61914 A -7.5 7.5 0 0 0 -137.2207 -240.11914 A -7.5 7.5 0 0 0 -129.7207 -247.61914 A -7.5 7.5 0 0 0 -137.2207 -255.11914 z M -482.2207 -240.11914 A -7.5 7.5 0 0 0 -489.7207 -232.61914 A -7.5 7.5 0 0 0 -482.2207 -225.11914 A -7.5 7.5 0 0 0 -474.7207 -232.61914 A -7.5 7.5 0 0 0 -482.2207 -240.11914 z M -452.2207 -240.11914 A -7.5 7.5 0 0 0 -459.7207 -232.61914 A -7.5 7.5 0 0 0 -452.2207 -225.11914 A -7.5 7.5 0 0 0 -444.7207 -232.61914 A -7.5 7.5 0 0 0 -452.2207 -240.11914 z M -422.2207 -240.11914 A -7.5 7.5 0 0 0 -429.7207 -232.61914 A -7.5 7.5 0 0 0 -422.2207 -225.11914 A -7.5 7.5 0 0 0 -414.7207 -232.61914 A -7.5 7.5 0 0 0 -422.2207 -240.11914 z M -392.2207 -240.11914 A -7.5 7.5 0 0 0 -399.7207 -232.61914 A -7.5 7.5 0 0 0 -392.2207 -225.11914 A -7.5 7.5 0 0 0 -384.7207 -232.61914 A -7.5 7.5 0 0 0 -392.2207 -240.11914 z M -362.2207 -240.11914 A -7.5 7.5 0 0 0 -369.7207 -232.61914 A -7.5 7.5 0 0 0 -362.2207 -225.11914 A -7.5 7.5 0 0 0 -354.7207 -232.61914 A -7.5 7.5 0 0 0 -362.2207 -240.11914 z M -332.2207 -240.11914 A -7.5 7.5 0 0 0 -339.7207 -232.61914 A -7.5 7.5 0 0 0 -332.2207 -225.11914 A -7.5 7.5 0 0 0 -324.7207 -232.61914 A -7.5 7.5 0 0 0 -332.2207 -240.11914 z M -302.2207 -240.11914 A -7.5 7.5 0 0 0 -309.7207 -232.61914 A -7.5 7.5 0 0 0 -302.2207 -225.11914 A -7.5 7.5 0 0 0 -294.7207 -232.61914 A -7.5 7.5 0 0 0 -302.2207 -240.11914 z M -272.2207 -240.11914 A -7.5 7.5 0 0 0 -279.7207 -232.61914 A -7.5 7.5 0 0 0 -272.2207 -225.11914 A -7.5 7.5 0 0 0 -264.7207 -232.61914 A -7.5 7.5 0 0 0 -272.2207 -240.11914 z M -242.2207 -240.11914 A -7.5 7.5 0 0 0 -249.7207 -232.61914 A -7.5 7.5 0 0 0 -242.2207 -225.11914 A -7.5 7.5 0 0 0 -234.7207 -232.61914 A -7.5 7.5 0 0 0 -242.2207 -240.11914 z M -212.2207 -240.11914 A -7.5 7.5 0 0 0 -219.7207 -232.61914 A -7.5 7.5 0 0 0 -212.2207 -225.11914 A -7.5 7.5 0 0 0 -204.7207 -232.61914 A -7.5 7.5 0 0 0 -212.2207 -240.11914 z M -182.2207 -240.11914 A -7.5 7.5 0 0 0 -189.7207 -232.61914 A -7.5 7.5 0 0 0 -182.2207 -225.11914 A -7.5 7.5 0 0 0 -174.7207 -232.61914 A -7.5 7.5 0 0 0 -182.2207 -240.11914 z M -152.2207 -240.11914 A -7.5 7.5 0 0 0 -159.7207 -232.61914 A -7.5 7.5 0 0 0 -152.2207 -225.11914 A -7.5 7.5 0 0 0 -144.7207 -232.61914 A -7.5 7.5 0 0 0 -152.2207 -240.11914 z M -467.2207 -225.11914 A -7.5 7.5 0 0 0 -474.7207 -217.61914 A -7.5 7.5 0 0 0 -467.2207 -210.11914 A -7.5 7.5 0 0 0 -459.7207 -217.61914 A -7.5 7.5 0 0 0 -467.2207 -225.11914 z M -437.2207 -225.11914 A -7.5 7.5 0 0 0 -444.7207 -217.61914 A -7.5 7.5 0 0 0 -437.2207 -210.11914 A -7.5 7.5 0 0 0 -429.7207 -217.61914 A -7.5 7.5 0 0 0 -437.2207 -225.11914 z M -407.2207 -225.11914 A -7.5 7.5 0 0 0 -414.7207 -217.61914 A -7.5 7.5 0 0 0 -407.2207 -210.11914 A -7.5 7.5 0 0 0 -399.7207 -217.61914 A -7.5 7.5 0 0 0 -407.2207 -225.11914 z M -377.2207 -225.11914 A -7.5 7.5 0 0 0 -384.7207 -217.61914 A -7.5 7.5 0 0 0 -377.2207 -210.11914 A -7.5 7.5 0 0 0 -369.7207 -217.61914 A -7.5 7.5 0 0 0 -377.2207 -225.11914 z M -347.2207 -225.11914 A -7.5 7.5 0 0 0 -354.7207 -217.61914 A -7.5 7.5 0 0 0 -347.2207 -210.11914 A -7.5 7.5 0 0 0 -339.7207 -217.61914 A -7.5 7.5 0 0 0 -347.2207 -225.11914 z M -317.2207 -225.11914 A -7.5 7.5 0 0 0 -324.7207 -217.61914 A -7.5 7.5 0 0 0 -317.2207 -210.11914 A -7.5 7.5 0 0 0 -309.7207 -217.61914 A -7.5 7.5 0 0 0 -317.2207 -225.11914 z M -287.2207 -225.11914 A -7.5 7.5 0 0 0 -294.7207 -217.61914 A -7.5 7.5 0 0 0 -287.2207 -210.11914 A -7.5 7.5 0 0 0 -279.7207 -217.61914 A -7.5 7.5 0 0 0 -287.2207 -225.11914 z M -257.2207 -225.11914 A -7.5 7.5 0 0 0 -264.7207 -217.61914 A -7.5 7.5 0 0 0 -257.2207 -210.11914 A -7.5 7.5 0 0 0 -249.7207 -217.61914 A -7.5 7.5 0 0 0 -257.2207 -225.11914 z M -227.2207 -225.11914 A -7.5 7.5 0 0 0 -234.7207 -217.61914 A -7.5 7.5 0 0 0 -227.2207 -210.11914 A -7.5 7.5 0 0 0 -219.7207 -217.61914 A -7.5 7.5 0 0 0 -227.2207 -225.11914 z M -197.2207 -225.11914 A -7.5 7.5 0 0 0 -204.7207 -217.61914 A -7.5 7.5 0 0 0 -197.2207 -210.11914 A -7.5 7.5 0 0 0 -189.7207 -217.61914 A -7.5 7.5 0 0 0 -197.2207 -225.11914 z M -167.2207 -225.11914 A -7.5 7.5 0 0 0 -174.7207 -217.61914 A -7.5 7.5 0 0 0 -167.2207 -210.11914 A -7.5 7.5 0 0 0 -159.7207 -217.61914 A -7.5 7.5 0 0 0 -167.2207 -225.11914 z M -137.2207 -225.11914 A -7.5 7.5 0 0 0 -144.7207 -217.61914 A -7.5 7.5 0 0 0 -137.2207 -210.11914 A -7.5 7.5 0 0 0 -129.7207 -217.61914 A -7.5 7.5 0 0 0 -137.2207 -225.11914 z M -482.2207 -210.11914 A -7.5 7.5 0 0 0 -489.7207 -202.61914 A -7.5 7.5 0 0 0 -482.2207 -195.11914 A -7.5 7.5 0 0 0 -474.7207 -202.61914 A -7.5 7.5 0 0 0 -482.2207 -210.11914 z M -452.2207 -210.11914 A -7.5 7.5 0 0 0 -459.7207 -202.61914 A -7.5 7.5 0 0 0 -452.2207 -195.11914 A -7.5 7.5 0 0 0 -444.7207 -202.61914 A -7.5 7.5 0 0 0 -452.2207 -210.11914 z M -422.2207 -210.11914 A -7.5 7.5 0 0 0 -429.7207 -202.61914 A -7.5 7.5 0 0 0 -422.2207 -195.11914 A -7.5 7.5 0 0 0 -414.7207 -202.61914 A -7.5 7.5 0 0 0 -422.2207 -210.11914 z M -392.2207 -210.11914 A -7.5 7.5 0 0 0 -399.7207 -202.61914 A -7.5 7.5 0 0 0 -392.2207 -195.11914 A -7.5 7.5 0 0 0 -384.7207 -202.61914 A -7.5 7.5 0 0 0 -392.2207 -210.11914 z M -362.2207 -210.11914 A -7.5 7.5 0 0 0 -369.7207 -202.61914 A -7.5 7.5 0 0 0 -362.2207 -195.11914 A -7.5 7.5 0 0 0 -354.7207 -202.61914 A -7.5 7.5 0 0 0 -362.2207 -210.11914 z M -332.2207 -210.11914 A -7.5 7.5 0 0 0 -339.7207 -202.61914 A -7.5 7.5 0 0 0 -332.2207 -195.11914 A -7.5 7.5 0 0 0 -324.7207 -202.61914 A -7.5 7.5 0 0 0 -332.2207 -210.11914 z M -302.2207 -210.11914 A -7.5 7.5 0 0 0 -309.7207 -202.61914 A -7.5 7.5 0 0 0 -302.2207 -195.11914 A -7.5 7.5 0 0 0 -294.7207 -202.61914 A -7.5 7.5 0 0 0 -302.2207 -210.11914 z M -272.2207 -210.11914 A -7.5 7.5 0 0 0 -279.7207 -202.61914 A -7.5 7.5 0 0 0 -272.2207 -195.11914 A -7.5 7.5 0 0 0 -264.7207 -202.61914 A -7.5 7.5 0 0 0 -272.2207 -210.11914 z M -242.2207 -210.11914 A -7.5 7.5 0 0 0 -249.7207 -202.61914 A -7.5 7.5 0 0 0 -242.2207 -195.11914 A -7.5 7.5 0 0 0 -234.7207 -202.61914 A -7.5 7.5 0 0 0 -242.2207 -210.11914 z M -212.2207 -210.11914 A -7.5 7.5 0 0 0 -219.7207 -202.61914 A -7.5 7.5 0 0 0 -212.2207 -195.11914 A -7.5 7.5 0 0 0 -204.7207 -202.61914 A -7.5 7.5 0 0 0 -212.2207 -210.11914 z M -182.2207 -210.11914 A -7.5 7.5 0 0 0 -189.7207 -202.61914 A -7.5 7.5 0 0 0 -182.2207 -195.11914 A -7.5 7.5 0 0 0 -174.7207 -202.61914 A -7.5 7.5 0 0 0 -182.2207 -210.11914 z M -152.2207 -210.11914 A -7.5 7.5 0 0 0 -159.7207 -202.61914 A -7.5 7.5 0 0 0 -152.2207 -195.11914 A -7.5 7.5 0 0 0 -144.7207 -202.61914 A -7.5 7.5 0 0 0 -152.2207 -210.11914 z M -467.2207 -195.11914 A -7.5 7.5 0 0 0 -474.7207 -187.61914 A -7.5 7.5 0 0 0 -467.2207 -180.11914 A -7.5 7.5 0 0 0 -459.7207 -187.61914 A -7.5 7.5 0 0 0 -467.2207 -195.11914 z M -437.2207 -195.11914 A -7.5 7.5 0 0 0 -444.7207 -187.61914 A -7.5 7.5 0 0 0 -437.2207 -180.11914 A -7.5 7.5 0 0 0 -429.7207 -187.61914 A -7.5 7.5 0 0 0 -437.2207 -195.11914 z M -407.2207 -195.11914 A -7.5 7.5 0 0 0 -414.7207 -187.61914 A -7.5 7.5 0 0 0 -407.2207 -180.11914 A -7.5 7.5 0 0 0 -399.7207 -187.61914 A -7.5 7.5 0 0 0 -407.2207 -195.11914 z M -377.2207 -195.11914 A -7.5 7.5 0 0 0 -384.7207 -187.61914 A -7.5 7.5 0 0 0 -377.2207 -180.11914 A -7.5 7.5 0 0 0 -369.7207 -187.61914 A -7.5 7.5 0 0 0 -377.2207 -195.11914 z M -347.2207 -195.11914 A -7.5 7.5 0 0 0 -354.7207 -187.61914 A -7.5 7.5 0 0 0 -347.2207 -180.11914 A -7.5 7.5 0 0 0 -339.7207 -187.61914 A -7.5 7.5 0 0 0 -347.2207 -195.11914 z M -317.2207 -195.11914 A -7.5 7.5 0 0 0 -324.7207 -187.61914 A -7.5 7.5 0 0 0 -317.2207 -180.11914 A -7.5 7.5 0 0 0 -309.7207 -187.61914 A -7.5 7.5 0 0 0 -317.2207 -195.11914 z M -287.2207 -195.11914 A -7.5 7.5 0 0 0 -294.7207 -187.61914 A -7.5 7.5 0 0 0 -287.2207 -180.11914 A -7.5 7.5 0 0 0 -279.7207 -187.61914 A -7.5 7.5 0 0 0 -287.2207 -195.11914 z M -257.2207 -195.11914 A -7.5 7.5 0 0 0 -264.7207 -187.61914 A -7.5 7.5 0 0 0 -257.2207 -180.11914 A -7.5 7.5 0 0 0 -249.7207 -187.61914 A -7.5 7.5 0 0 0 -257.2207 -195.11914 z M -227.2207 -195.11914 A -7.5 7.5 0 0 0 -234.7207 -187.61914 A -7.5 7.5 0 0 0 -227.2207 -180.11914 A -7.5 7.5 0 0 0 -219.7207 -187.61914 A -7.5 7.5 0 0 0 -227.2207 -195.11914 z M -197.2207 -195.11914 A -7.5 7.5 0 0 0 -204.7207 -187.61914 A -7.5 7.5 0 0 0 -197.2207 -180.11914 A -7.5 7.5 0 0 0 -189.7207 -187.61914 A -7.5 7.5 0 0 0 -197.2207 -195.11914 z M -167.2207 -195.11914 A -7.5 7.5 0 0 0 -174.7207 -187.61914 A -7.5 7.5 0 0 0 -167.2207 -180.11914 A -7.5 7.5 0 0 0 -159.7207 -187.61914 A -7.5 7.5 0 0 0 -167.2207 -195.11914 z M -137.2207 -195.11914 A -7.5 7.5 0 0 0 -144.7207 -187.61914 A -7.5 7.5 0 0 0 -137.2207 -180.11914 A -7.5 7.5 0 0 0 -129.7207 -187.61914 A -7.5 7.5 0 0 0 -137.2207 -195.11914 z "
     style="color:#000000;overflow:visible;fill:#000080;fill-opacity:1;stroke:none;stroke-width:15.15;stroke-linecap:round;stroke-miterlimit:4;stroke-dasharray:none;stroke-dashoffset:188.976"
     id="path957" />
  <rect
     ry="0"
     y="-265.36432"
     x="47.285152"
     height="71"
     width="96"
     id="rect837"
     style="color:#000000;overflow:visible;fill:#ffffff;stroke:#000080;stroke-width:5;stroke-linecap:round;stroke-linejoin:round;stroke-miterlimit:4;stroke-dasharray:none;stroke-dashoffset:20;stroke-opacity:1" />
  <path
     id="path958"
     style="color:#000000;font-style:normal;font-variant:normal;font-weight:normal;font-stretch:normal;font-size:medium;line-height:normal;font-family:sans-serif;font-variant-ligatures:normal;font-variant-position:normal;font-variant-caps:normal;font-variant-numeric:normal;font-variant-alternates:normal;font-variant-east-asian:normal;font-feature-settings:normal;font-variation-settings:normal;text-indent:0;text-align:start;text-decoration:none;text-decoration-line:none;text-decoration-style:solid;text-decoration-color:#000000;letter-spacing:normal;word-spacing:normal;text-transform:none;writing-mode:lr-tb;direction:ltr;text-orientation:mixed;dominant-baseline:auto;baseline-shift:baseline;text-anchor:start;white-space:normal;shape-padding:0;shape-margin:0;inline-size:0;clip-rule:nonzero;display:inline;overflow:visible;visibility:visible;opacity:1;isolation:auto;mix-blend-mode:normal;color-interpolation:sRGB;color-interpolation-filters:linearRGB;solid-color:#000000;solid-opacity:1;vector-effect:none;fill:#000080;fill-opacity:1;fill-rule:evenodd;stroke:none;stroke-width:2;stroke-linecap:butt;stroke-linejoin:miter;stroke-miterlimit:4;stroke-dasharray:none;stroke-dashoffset:0;stroke-opacity:1;color-rendering:auto;image-rendering:auto;shape-rendering:auto;text-rendering:auto;enable-background:accumulate;stop-color:#000000;stop-opacity:1"
     d="m -46.474236,-444.87719 -52.41212,52.41406 1.41407,1.41407 52.41211,-52.41407 z m 5.3457,0 -52.41407,52.41406 1.41406,1.41407 52.41407,-52.41407 z m 5.3457,0 -52.41406,52.41406 1.41406,1.41407 52.41407,-52.41407 z m 5.34571,0 c 0,0 -49.81506,49.81506 -52.41407,52.41406 l 1.41406,1.41407 52.41407,-52.41407 z m 5.34375,0 -52.41212,52.41406 1.41406,1.41407 52.41407,-52.41407 z m 5.3457,0 -52.41211,52.41406 1.41406,1.41407 52.41211,-52.41407 z m 5.3457,0 c 0,0 -49.81504,49.81505 -52.41407,52.41406 l 1.41407,1.41407 c 2.599,-2.59901 52.41406,-52.41407 52.41406,-52.41407 z m 5.3457096,0 c 0,0 -49.8150596,49.81506 -52.4140696,52.41406 l 1.41407,1.41407 c 2.59901,-2.59902 52.4140596,-52.41407 52.4140596,-52.41407 z m 5.3457,0 c 0,0 -49.8150596,49.81506 -52.4140596,52.41406 l 1.41406,1.41407 c 2.59901,-2.59902 52.4140596,-52.41407 52.4140596,-52.41407 z m 5.34374,0 -52.4120996,52.41406 1.41406,1.41407 52.4140596,-52.41407 z m 5.34571,0 -52.4121096,52.41406 1.41406,1.41407 52.4121096,-52.41407 z m 5.3457004,0 -52.41406,52.41406 1.41602,1.41407 c 2.59901,-2.59902 52.4121,-52.41407 52.4121,-52.41407 z m 5.3457,0 -52.41405,52.41406 1.41406,1.41407 52.41406,-52.41407 z m 5.34571,0 -52.41406,52.41406 1.41406,1.41407 52.41406,-52.41407 z m 5.3457,0 -52.41406,52.41406 1.41406,1.41407 52.41406,-52.41407 z m 5.34375,0 -52.41211,52.41406 1.41407,1.41407 52.4121,-52.41407 z m 5.3457,0 -52.41406,52.41406 1.41602,1.41407 52.4121,-52.41407 z m 5.34571,0 -52.4140604,52.41406 1.41406,1.41407 52.4140604,-52.41407 z m 5.3457,0 -52.4140604,52.41406 1.41406,1.41407 c 2.599,-2.59901 52.4140604,-52.41407 52.4140604,-52.41407 z m 5.3457,0 -52.4140604,52.41406 1.41406,1.41407 52.4140604,-52.41407 z m 5.34375,0 -52.4121104,52.41406 1.41406,1.41407 52.4121104,-52.41407 z m 5.3457,0 -52.4121,52.41406 1.41406,1.41407 52.41211,-52.41407 z m 5.34571,0 -52.41406,52.41406 1.41406,1.41407 52.41406,-52.41407 z m 5.3457,0 -52.41406,52.41406 1.41406,1.41407 52.41406,-52.41407 z" />
</svg>
