<?xml version="1.0" encoding="UTF-8" standalone="no"?>
<svg
   xmlns:dc="http://purl.org/dc/elements/1.1/"
   xmlns:cc="http://creativecommons.org/ns#"
   xmlns:rdf="http://www.w3.org/1999/02/22-rdf-syntax-ns#"
   xmlns:svg="http://www.w3.org/2000/svg"
   xmlns="http://www.w3.org/2000/svg"
   xmlns:sodipodi="http://sodipodi.sourceforge.net/DTD/sodipodi-0.dtd"
   xmlns:inkscape="http://www.inkscape.org/namespaces/inkscape"
   inkscape:version="1.0 (4035a4fb49, 2020-05-01)"
   sodipodi:docname="template.svg"
   id="svg4460"
   height="100"
   width="100"
   version="1.1">
  <sodipodi:namedview
     inkscape:document-rotation="0"
     inkscape:current-layer="svg4460"
     inkscape:window-maximized="1"
     inkscape:window-y="-8"
     inkscape:window-x="-8"
     inkscape:cy="-126.71559"
     inkscape:cx="-271.23792"
     inkscape:zoom="0.71417785"
     showgrid="false"
     id="namedview11"
     inkscape:window-height="1017"
     inkscape:window-width="1920"
     inkscape:pageshadow="2"
     inkscape:pageopacity="0"
     guidetolerance="10"
     gridtolerance="10"
     objecttolerance="10"
     borderopacity="1"
     bordercolor="#666666"
     pagecolor="#ffffff" />
  <defs
     id="defs4462">
    <clipPath
       id="a">
      <path
         id="path4138"
         d="M 0,841.89 H 595.28 V 0 H 0 Z" />
    </clipPath>
    <clipPath
       id="a-4">
      <path
         id="path4138-6"
         d="M 0,841.89 H 595.28 V 0 H 0 Z" />
    </clipPath>
  </defs>
  <metadata
     id="metadata4465">
    <rdf:RDF>
      <cc:Work
         rdf:about="">
        <dc:format>image/svg+xml</dc:format>
        <dc:type
           rdf:resource="http://purl.org/dc/dcmitype/StillImage" />
        <dc:title />
      </cc:Work>
    </rdf:RDF>
  </metadata>
  <path
     d="m 147.16551,-116.94437 a 2.50025,2.50025 0 0 0 -1.07617,0.23243 l -31.66602,14.71093 a 2.50025,2.50025 0 0 0 -1.44726,2.267583 v 70.289062 a 2.50025,2.50025 0 0 0 3.55273,2.267578 l 30.61328,-14.220703 30.61328,14.220703 a 2.50025,2.50025 0 0 0 2.10742,0 l 31.66602,-14.710937 a 2.50025,2.50025 0 0 0 1.44727,-2.267578 v -70.289068 a 2.50025,2.50025 0 0 0 -3.55274,-2.26757 l -30.61328,14.2207 -30.61328,-14.2207 a 2.50025,2.50025 0 0 0 -1.03125,-0.23243 z m 1.45703,5.94336 28.67578,13.32227 -0.36914,64.605469 -28.67578,-13.322266 z m -3,0.0195 -0.37109,64.949224 -27.27539,12.669921 v -64.775389 z m 62.35352,0.45508 v 64.777347 l -28.04883,13.029297 0.37109,-64.949219 z"
     style="color:#000000;font-style:normal;font-variant:normal;font-weight:normal;font-stretch:normal;font-size:medium;line-height:normal;font-family:sans-serif;font-variant-ligatures:normal;font-variant-position:normal;font-variant-caps:normal;font-variant-numeric:normal;font-variant-alternates:normal;font-variant-east-asian:normal;font-feature-settings:normal;font-variation-settings:normal;text-indent:0;text-align:start;text-decoration:none;text-decoration-line:none;text-decoration-style:solid;text-decoration-color:#000000;letter-spacing:normal;word-spacing:normal;text-transform:none;writing-mode:lr-tb;direction:ltr;text-orientation:mixed;dominant-baseline:auto;baseline-shift:baseline;text-anchor:start;white-space:normal;shape-padding:0;shape-margin:0;inline-size:0;clip-rule:nonzero;display:inline;overflow:visible;visibility:visible;opacity:1;isolation:auto;mix-blend-mode:normal;color-interpolation:sRGB;color-interpolation-filters:linearRGB;solid-color:#000000;solid-opacity:1;vector-effect:none;fill:#000080;fill-opacity:1;fill-rule:evenodd;stroke:none;stroke-width:3;stroke-linecap:butt;stroke-linejoin:miter;stroke-miterlimit:4;stroke-dasharray:none;stroke-dashoffset:0;stroke-opacity:1;color-rendering:auto;image-rendering:auto;shape-rendering:auto;text-rendering:auto;enable-background:accumulate;stop-color:#000000;stop-opacity:1"
     id="path967" />
  <circle
     r="9.0499887"
     cy="29.276724"
     cx="-41.056187"
     id="path812"
     style="opacity:1;fill:none;fill-opacity:0;stroke:#000080;stroke-width:7;stroke-linecap:round;stroke-linejoin:round;stroke-miterlimit:4;stroke-dasharray:none;stroke-dashoffset:0;stroke-opacity:1;paint-order:normal" />
  <path
     inkscape:connector-curvature="0"
     id="path822"
     d="m -106.78503,93.516309 20.709899,-42.80032 40.039,10.58503 14.266703,43.490651"
     style="fill:#000000;fill-opacity:0;stroke:#000080;stroke-width:7;stroke-linecap:round;stroke-linejoin:round;stroke-miterlimit:4;stroke-dasharray:none;stroke-opacity:1" />
  <path
     inkscape:connector-curvature="0"
     id="path822-1"
     d="m -108.62283,156.88771 20.709799,-42.80033 40.0391,10.58503 14.266703,43.49066 z"
     style="fill:none;fill-opacity:1;stroke:#000080;stroke-width:7;stroke-linecap:round;stroke-linejoin:round;stroke-miterlimit:4;stroke-dasharray:none;stroke-opacity:1" />
  <path
     inkscape:connector-curvature="0"
     id="path4135"
     style="fill:#000080;stroke-width:2.72726"
     d="m 53.228683,53.215972 c 3.295967,0.380868 6.388979,-0.629181 8.751232,-2.857827 2.398658,-2.26273 3.47761,-4.748632 3.47761,-8.012494 0,-3.304401 -1.089861,-5.779699 -3.560186,-8.086863 -1.091764,-1.019423 -2.527026,-1.856721 -4.091672,-2.386772 -1.279368,-0.433497 -4.11463,-0.541443 -5.63564,-0.214636 -1.693394,0.363743 -3.708343,1.41895 -4.983022,2.609348 -2.385339,2.227492 -3.528221,4.84501 -3.528221,8.079037 0,1.938816 0.282232,3.153075 1.145165,4.923756 0.627761,1.288007 0.863187,1.609257 2.036132,2.77988 1.02111,1.019145 1.581266,1.455025 2.435701,1.895004 1.40761,0.724861 2.633449,1.119162 3.952901,1.271681 z m 0.619389,26.528127 C 53.616198,79.602831 52.576949,78.588913 51.537826,77.490781 43.57849,69.079129 38.022255,60.8967 35.006238,53.144685 34.098782,50.812482 33.762513,49.634691 33.407217,47.546768 32.317357,41.144077 33.622602,34.890392 37.156404,29.5707 c 1.345329,-2.024918 4.074547,-4.770271 6.022902,-6.058633 7.109087,-4.701154 15.674997,-4.681594 22.816807,0.05213 1.853474,1.228414 4.60971,4.021106 5.921805,5.999877 2.402337,3.623318 3.682593,7.342354 4.071503,11.828681 0.317495,3.661574 -0.229084,7.236094 -1.711406,11.216521 -2.884859,7.741538 -8.128926,15.468489 -17.160741,25.286483 -2.016344,2.191797 -2.374049,2.394218 -3.269202,1.848374 z" />
  <path
     inkscape:connector-curvature="0"
     id="path897"
     d="m -68.089211,-44.526042 -24.6346,29.01569 93.00079952,-0.065 -24.57940252,-28.95065 z"
     style="fill:none;fill-opacity:1;stroke:#000080;stroke-width:7;stroke-linecap:round;stroke-linejoin:round;stroke-miterlimit:4;stroke-dasharray:none;stroke-opacity:1"
     sodipodi:nodetypes="ccccc" />
  <rect
     transform="matrix(0.87666883,-0.48109433,0.87666883,0.48109433,0,0)"
     y="-92.355026"
     x="-142.13924"
     height="51.644939"
     width="51.644939"
     id="rect921"
     style="opacity:1;fill:none;fill-opacity:1;stroke:#000080;stroke-width:7.62166999;stroke-linecap:round;stroke-linejoin:round;stroke-miterlimit:4;stroke-dasharray:none;stroke-dashoffset:0;stroke-opacity:1;paint-order:normal" />
  <circle
     r="7.4999995"
     cy="98.851883"
     cx="-195.78871"
     id="path981"
     style="opacity:1;fill:#000080;fill-opacity:1;stroke:none;stroke-width:7.01427;stroke-linecap:round;stroke-linejoin:round;stroke-miterlimit:4;stroke-dasharray:none;stroke-dashoffset:0;stroke-opacity:1;paint-order:normal" />
  <path
     inkscape:connector-curvature="0"
     id="path983"
     d="m -181.19193,117.08615 24.4554,17.0297 6.1386,-39.009901"
     style="fill:#000000;fill-opacity:0;stroke:#000080;stroke-width:5;stroke-linecap:round;stroke-linejoin:round;stroke-miterlimit:4;stroke-dasharray:none;stroke-opacity:1" />
  <path
     id="path879"
     style="color:#000000;font-style:normal;font-variant:normal;font-weight:normal;font-stretch:normal;font-size:medium;line-height:normal;font-family:sans-serif;font-variant-ligatures:normal;font-variant-position:normal;font-variant-caps:normal;font-variant-numeric:normal;font-variant-alternates:normal;font-variant-east-asian:normal;font-feature-settings:normal;font-variation-settings:normal;text-indent:0;text-align:start;text-decoration:none;text-decoration-line:none;text-decoration-style:solid;text-decoration-color:#000000;letter-spacing:normal;word-spacing:normal;text-transform:none;writing-mode:lr-tb;direction:ltr;text-orientation:mixed;dominant-baseline:auto;baseline-shift:baseline;text-anchor:start;white-space:normal;shape-padding:0;shape-margin:0;inline-size:0;clip-rule:nonzero;display:inline;overflow:visible;visibility:visible;opacity:1;isolation:auto;mix-blend-mode:normal;color-interpolation:sRGB;color-interpolation-filters:linearRGB;solid-color:#000000;solid-opacity:1;vector-effect:none;fill:#000080;fill-opacity:1;fill-rule:evenodd;stroke:none;stroke-width:5.46564;stroke-linecap:butt;stroke-linejoin:miter;stroke-miterlimit:4;stroke-dasharray:none;stroke-dashoffset:0;stroke-opacity:1;color-rendering:auto;image-rendering:auto;shape-rendering:auto;text-rendering:auto;enable-background:accumulate;stop-color:#000000;stop-opacity:1"
     d="m -144.81163,-52.579208 v 7.767578 h -7.76758 v 5.464844 h 7.76758 v 7.767578 h 5.46484 v -7.767578 h 7.76758 v -5.464844 h -7.76758 v -7.767578 z" />
  <circle
     r="46.499882"
     cy="-77.227722"
     cx="-258.41583"
     id="path812-3"
     style="opacity:1;fill:#000000;fill-opacity:0;stroke:#000080;stroke-width:7.00024;stroke-linecap:round;stroke-linejoin:round;stroke-miterlimit:4;stroke-dasharray:none;stroke-dashoffset:0;stroke-opacity:1;paint-order:normal" />
  <path
     id="rect870-3"
     style="color:#000000;overflow:visible;fill:#ffffff;stroke:#000080;stroke-width:1;stroke-linecap:round;stroke-linejoin:bevel;stroke-miterlimit:4;stroke-dasharray:none;stroke-dashoffset:188.976"
     d="m 55.264787,-95.183527 39.60396,-18.027143 v 86.138618 l -39.60396,18.0271384 z" />
  <path
     id="path957"
     style="color:#000000;overflow:visible;fill:#000080;fill-opacity:1;stroke:none;stroke-width:7.575;stroke-linecap:round;stroke-miterlimit:4;stroke-dasharray:none;stroke-dashoffset:188.976"
     d="m -460.78545,-373.70308 a 3.7499997,3.7499997 0 0 0 -3.73144,3.75 3.7499997,3.7499997 0 0 0 3.75,3.75 3.7499997,3.7499997 0 0 0 3.75,-3.75 3.7499997,3.7499997 0 0 0 -3.75,-3.75 3.7499997,3.7499997 0 0 0 -0.0186,0 z m 15,0 a 3.7499997,3.7499997 0 0 0 -3.73144,3.75 3.7499997,3.7499997 0 0 0 3.75,3.75 3.7499997,3.7499997 0 0 0 3.75,-3.75 3.7499997,3.7499997 0 0 0 -3.75,-3.75 3.7499997,3.7499997 0 0 0 -0.0186,0 z m 15,0 a 3.7499997,3.7499997 0 0 0 -3.73144,3.75 3.7499997,3.7499997 0 0 0 3.75,3.75 3.7499997,3.7499997 0 0 0 3.75,-3.75 3.7499997,3.7499997 0 0 0 -3.75,-3.75 3.7499997,3.7499997 0 0 0 -0.0186,0 z m 15,0 a 3.7499997,3.7499997 0 0 0 -3.73144,3.75 3.7499997,3.7499997 0 0 0 3.75,3.75 3.7499997,3.7499997 0 0 0 3.75,-3.75 3.7499997,3.7499997 0 0 0 -3.75,-3.75 3.7499997,3.7499997 0 0 0 -0.0186,0 z m 15,0 a 3.7499997,3.7499997 0 0 0 -3.73144,3.75 3.7499997,3.7499997 0 0 0 3.75,3.75 3.7499997,3.7499997 0 0 0 3.74999,-3.75 3.7499997,3.7499997 0 0 0 -3.74999,-3.75 3.7499997,3.7499997 0 0 0 -0.0186,0 z m 15,0 a 3.7499997,3.7499997 0 0 0 -3.73145,3.75 3.7499997,3.7499997 0 0 0 3.75,3.75 3.7499997,3.7499997 0 0 0 3.75,-3.75 3.7499997,3.7499997 0 0 0 -3.75,-3.75 3.7499997,3.7499997 0 0 0 -0.0186,0 z m 15,0 a 3.7499997,3.7499997 0 0 0 -3.73145,3.75 3.7499997,3.7499997 0 0 0 3.75,3.75 3.7499997,3.7499997 0 0 0 3.75,-3.75 3.7499997,3.7499997 0 0 0 -3.75,-3.75 3.7499997,3.7499997 0 0 0 -0.0186,0 z m 15,0 a 3.7499997,3.7499997 0 0 0 -3.73145,3.75 3.7499997,3.7499997 0 0 0 3.75,3.75 3.7499997,3.7499997 0 0 0 3.75,-3.75 3.7499997,3.7499997 0 0 0 -3.75,-3.75 3.7499997,3.7499997 0 0 0 -0.0186,0 z m 15,0 a 3.7499997,3.7499997 0 0 0 -3.73145,3.75 3.7499997,3.7499997 0 0 0 3.75,3.75 3.7499997,3.7499997 0 0 0 3.75,-3.75 3.7499997,3.7499997 0 0 0 -3.75,-3.75 3.7499997,3.7499997 0 0 0 -0.0186,0 z m 14.99999,0 a 3.7499997,3.7499997 0 0 0 -3.73144,3.75 3.7499997,3.7499997 0 0 0 3.75,3.75 3.7499997,3.7499997 0 0 0 3.75,-3.75 3.7499997,3.7499997 0 0 0 -3.75,-3.75 3.7499997,3.7499997 0 0 0 -0.0186,0 z m 15,0 a 3.7499997,3.7499997 0 0 0 -3.73144,3.75 3.7499997,3.7499997 0 0 0 3.75,3.75 3.7499997,3.7499997 0 0 0 3.75,-3.75 3.7499997,3.7499997 0 0 0 -3.75,-3.75 3.7499997,3.7499997 0 0 0 -0.0186,0 z m 15,0 a 3.7499997,3.7499997 0 0 0 -3.73144,3.75 3.7499997,3.7499997 0 0 0 3.75,3.75 3.7499997,3.7499997 0 0 0 3.75,-3.75 3.7499997,3.7499997 0 0 0 -3.75,-3.75 3.7499997,3.7499997 0 0 0 -0.0186,0 z m -157.49999,7.5 a 3.7499997,3.7499997 0 0 0 -3.73144,3.75 3.7499997,3.7499997 0 0 0 3.75,3.75 3.7499997,3.7499997 0 0 0 3.75,-3.75 3.7499997,3.7499997 0 0 0 -3.75,-3.75 3.7499997,3.7499997 0 0 0 -0.0186,0 z m 15,0 a 3.7499997,3.7499997 0 0 0 -3.73144,3.75 3.7499997,3.7499997 0 0 0 3.75,3.75 3.7499997,3.7499997 0 0 0 3.75,-3.75 3.7499997,3.7499997 0 0 0 -3.75,-3.75 3.7499997,3.7499997 0 0 0 -0.0186,0 z m 15,0 a 3.7499997,3.7499997 0 0 0 -3.73144,3.75 3.7499997,3.7499997 0 0 0 3.75,3.75 3.7499997,3.7499997 0 0 0 3.75,-3.75 3.7499997,3.7499997 0 0 0 -3.75,-3.75 3.7499997,3.7499997 0 0 0 -0.0186,0 z m 15,0 a 3.7499997,3.7499997 0 0 0 -3.73144,3.75 3.7499997,3.7499997 0 0 0 3.75,3.75 3.7499997,3.7499997 0 0 0 3.75,-3.75 3.7499997,3.7499997 0 0 0 -3.75,-3.75 3.7499997,3.7499997 0 0 0 -0.0186,0 z m 15,0 a 3.7499997,3.7499997 0 0 0 -3.73145,3.75 3.7499997,3.7499997 0 0 0 3.75,3.75 3.7499997,3.7499997 0 0 0 3.75,-3.75 3.7499997,3.7499997 0 0 0 -3.75,-3.75 3.7499997,3.7499997 0 0 0 -0.0186,0 z m 15,0 a 3.7499997,3.7499997 0 0 0 -3.73145,3.75 3.7499997,3.7499997 0 0 0 3.75,3.75 3.7499997,3.7499997 0 0 0 3.75,-3.75 3.7499997,3.7499997 0 0 0 -3.75,-3.75 3.7499997,3.7499997 0 0 0 -0.0186,0 z m 15,0 a 3.7499997,3.7499997 0 0 0 -3.73145,3.75 3.7499997,3.7499997 0 0 0 3.75,3.75 3.7499997,3.7499997 0 0 0 3.75,-3.75 3.7499997,3.7499997 0 0 0 -3.75,-3.75 3.7499997,3.7499997 0 0 0 -0.0186,0 z m 15,0 a 3.7499997,3.7499997 0 0 0 -3.73145,3.75 3.7499997,3.7499997 0 0 0 3.75,3.75 3.7499997,3.7499997 0 0 0 3.75,-3.75 3.7499997,3.7499997 0 0 0 -3.75,-3.75 3.7499997,3.7499997 0 0 0 -0.0186,0 z m 14.99999,0 a 3.7499997,3.7499997 0 0 0 -3.73144,3.75 3.7499997,3.7499997 0 0 0 3.75,3.75 3.7499997,3.7499997 0 0 0 3.75,-3.75 3.7499997,3.7499997 0 0 0 -3.75,-3.75 3.7499997,3.7499997 0 0 0 -0.0186,0 z m 15,0 a 3.7499997,3.7499997 0 0 0 -3.73144,3.75 3.7499997,3.7499997 0 0 0 3.75,3.75 3.7499997,3.7499997 0 0 0 3.75,-3.75 3.7499997,3.7499997 0 0 0 -3.75,-3.75 3.7499997,3.7499997 0 0 0 -0.0186,0 z m 15,0 a 3.7499997,3.7499997 0 0 0 -3.73144,3.75 3.7499997,3.7499997 0 0 0 3.75,3.75 3.7499997,3.7499997 0 0 0 3.75,-3.75 3.7499997,3.7499997 0 0 0 -3.75,-3.75 3.7499997,3.7499997 0 0 0 -0.0186,0 z m 15,0 a 3.7499997,3.7499997 0 0 0 -3.73144,3.75 3.7499997,3.7499997 0 0 0 3.75,3.75 3.7499997,3.7499997 0 0 0 3.75,-3.75 3.7499997,3.7499997 0 0 0 -3.75,-3.75 3.7499997,3.7499997 0 0 0 -0.0186,0 z m -172.49999,7.5 a 3.7499997,3.7499997 0 0 0 -3.73144,3.75 3.7499997,3.7499997 0 0 0 3.75,3.75 3.7499997,3.7499997 0 0 0 3.75,-3.75 3.7499997,3.7499997 0 0 0 -3.75,-3.75 3.7499997,3.7499997 0 0 0 -0.0186,0 z m 15,0 a 3.7499997,3.7499997 0 0 0 -3.73144,3.75 3.7499997,3.7499997 0 0 0 3.75,3.75 3.7499997,3.7499997 0 0 0 3.75,-3.75 3.7499997,3.7499997 0 0 0 -3.75,-3.75 3.7499997,3.7499997 0 0 0 -0.0186,0 z m 15,0 a 3.7499997,3.7499997 0 0 0 -3.73144,3.75 3.7499997,3.7499997 0 0 0 3.75,3.75 3.7499997,3.7499997 0 0 0 3.75,-3.75 3.7499997,3.7499997 0 0 0 -3.75,-3.75 3.7499997,3.7499997 0 0 0 -0.0186,0 z m 15,0 a 3.7499997,3.7499997 0 0 0 -3.73144,3.75 3.7499997,3.7499997 0 0 0 3.75,3.75 3.7499997,3.7499997 0 0 0 3.75,-3.75 3.7499997,3.7499997 0 0 0 -3.75,-3.75 3.7499997,3.7499997 0 0 0 -0.0186,0 z m 15,0 a 3.7499997,3.7499997 0 0 0 -3.73144,3.75 3.7499997,3.7499997 0 0 0 3.75,3.75 3.7499997,3.7499997 0 0 0 3.74999,-3.75 3.7499997,3.7499997 0 0 0 -3.74999,-3.75 3.7499997,3.7499997 0 0 0 -0.0186,0 z m 15,0 a 3.7499997,3.7499997 0 0 0 -3.73145,3.75 3.7499997,3.7499997 0 0 0 3.75,3.75 3.7499997,3.7499997 0 0 0 3.75,-3.75 3.7499997,3.7499997 0 0 0 -3.75,-3.75 3.7499997,3.7499997 0 0 0 -0.0186,0 z m 15,0 a 3.7499997,3.7499997 0 0 0 -3.73145,3.75 3.7499997,3.7499997 0 0 0 3.75,3.75 3.7499997,3.7499997 0 0 0 3.75,-3.75 3.7499997,3.7499997 0 0 0 -3.75,-3.75 3.7499997,3.7499997 0 0 0 -0.0186,0 z m 15,0 a 3.7499997,3.7499997 0 0 0 -3.73145,3.75 3.7499997,3.7499997 0 0 0 3.75,3.75 3.7499997,3.7499997 0 0 0 3.75,-3.75 3.7499997,3.7499997 0 0 0 -3.75,-3.75 3.7499997,3.7499997 0 0 0 -0.0186,0 z m 15,0 a 3.7499997,3.7499997 0 0 0 -3.73145,3.75 3.7499997,3.7499997 0 0 0 3.75,3.75 3.7499997,3.7499997 0 0 0 3.75,-3.75 3.7499997,3.7499997 0 0 0 -3.75,-3.75 3.7499997,3.7499997 0 0 0 -0.0186,0 z m 14.99999,0 a 3.7499997,3.7499997 0 0 0 -3.73144,3.75 3.7499997,3.7499997 0 0 0 3.75,3.75 3.7499997,3.7499997 0 0 0 3.75,-3.75 3.7499997,3.7499997 0 0 0 -3.75,-3.75 3.7499997,3.7499997 0 0 0 -0.0186,0 z m 15,0 a 3.7499997,3.7499997 0 0 0 -3.73144,3.75 3.7499997,3.7499997 0 0 0 3.75,3.75 3.7499997,3.7499997 0 0 0 3.75,-3.75 3.7499997,3.7499997 0 0 0 -3.75,-3.75 3.7499997,3.7499997 0 0 0 -0.0186,0 z m 15,0 a 3.7499997,3.7499997 0 0 0 -3.73144,3.75 3.7499997,3.7499997 0 0 0 3.75,3.75 3.7499997,3.7499997 0 0 0 3.75,-3.75 3.7499997,3.7499997 0 0 0 -3.75,-3.75 3.7499997,3.7499997 0 0 0 -0.0186,0 z m -157.49999,7.5 a 3.7499997,3.7499997 0 0 0 -3.73144,3.75 3.7499997,3.7499997 0 0 0 3.75,3.75 3.7499997,3.7499997 0 0 0 3.75,-3.75 3.7499997,3.7499997 0 0 0 -3.75,-3.75 3.7499997,3.7499997 0 0 0 -0.0186,0 z m 15,0 a 3.7499997,3.7499997 0 0 0 -3.73144,3.75 3.7499997,3.7499997 0 0 0 3.75,3.75 3.7499997,3.7499997 0 0 0 3.75,-3.75 3.7499997,3.7499997 0 0 0 -3.75,-3.75 3.7499997,3.7499997 0 0 0 -0.0186,0 z m 15,0 a 3.7499997,3.7499997 0 0 0 -3.73144,3.75 3.7499997,3.7499997 0 0 0 3.75,3.75 3.7499997,3.7499997 0 0 0 3.75,-3.75 3.7499997,3.7499997 0 0 0 -3.75,-3.75 3.7499997,3.7499997 0 0 0 -0.0186,0 z m 15,0 a 3.7499997,3.7499997 0 0 0 -3.73144,3.75 3.7499997,3.7499997 0 0 0 3.75,3.75 3.7499997,3.7499997 0 0 0 3.75,-3.75 3.7499997,3.7499997 0 0 0 -3.75,-3.75 3.7499997,3.7499997 0 0 0 -0.0186,0 z m 15,0 a 3.7499997,3.7499997 0 0 0 -3.73145,3.75 3.7499997,3.7499997 0 0 0 3.75,3.75 3.7499997,3.7499997 0 0 0 3.75,-3.75 3.7499997,3.7499997 0 0 0 -3.75,-3.75 3.7499997,3.7499997 0 0 0 -0.0186,0 z m 15,0 a 3.7499997,3.7499997 0 0 0 -3.73145,3.75 3.7499997,3.7499997 0 0 0 3.75,3.75 3.7499997,3.7499997 0 0 0 3.75,-3.75 3.7499997,3.7499997 0 0 0 -3.75,-3.75 3.7499997,3.7499997 0 0 0 -0.0186,0 z m 15,0 a 3.7499997,3.7499997 0 0 0 -3.73145,3.75 3.7499997,3.7499997 0 0 0 3.75,3.75 3.7499997,3.7499997 0 0 0 3.75,-3.75 3.7499997,3.7499997 0 0 0 -3.75,-3.75 3.7499997,3.7499997 0 0 0 -0.0186,0 z m 15,0 a 3.7499997,3.7499997 0 0 0 -3.73145,3.75 3.7499997,3.7499997 0 0 0 3.75,3.75 3.7499997,3.7499997 0 0 0 3.75,-3.75 3.7499997,3.7499997 0 0 0 -3.75,-3.75 3.7499997,3.7499997 0 0 0 -0.0186,0 z m 14.99999,0 a 3.7499997,3.7499997 0 0 0 -3.73144,3.75 3.7499997,3.7499997 0 0 0 3.75,3.75 3.7499997,3.7499997 0 0 0 3.75,-3.75 3.7499997,3.7499997 0 0 0 -3.75,-3.75 3.7499997,3.7499997 0 0 0 -0.0186,0 z m 15,0 a 3.7499997,3.7499997 0 0 0 -3.73144,3.75 3.7499997,3.7499997 0 0 0 3.75,3.75 3.7499997,3.7499997 0 0 0 3.75,-3.75 3.7499997,3.7499997 0 0 0 -3.75,-3.75 3.7499997,3.7499997 0 0 0 -0.0186,0 z m 15,0 a 3.7499997,3.7499997 0 0 0 -3.73144,3.75 3.7499997,3.7499997 0 0 0 3.75,3.75 3.7499997,3.7499997 0 0 0 3.75,-3.75 3.7499997,3.7499997 0 0 0 -3.75,-3.75 3.7499997,3.7499997 0 0 0 -0.0186,0 z m 15,0 a 3.7499997,3.7499997 0 0 0 -3.73144,3.75 3.7499997,3.7499997 0 0 0 3.75,3.75 3.7499997,3.7499997 0 0 0 3.75,-3.75 3.7499997,3.7499997 0 0 0 -3.75,-3.75 3.7499997,3.7499997 0 0 0 -0.0186,0 z m -172.49999,7.5 a 3.7499997,3.7499997 0 0 0 -3.73144,3.75 3.7499997,3.7499997 0 0 0 3.75,3.75 3.7499997,3.7499997 0 0 0 3.75,-3.75 3.7499997,3.7499997 0 0 0 -3.75,-3.75 3.7499997,3.7499997 0 0 0 -0.0186,0 z m 15,0 a 3.7499997,3.7499997 0 0 0 -3.73144,3.75 3.7499997,3.7499997 0 0 0 3.75,3.75 3.7499997,3.7499997 0 0 0 3.75,-3.75 3.7499997,3.7499997 0 0 0 -3.75,-3.75 3.7499997,3.7499997 0 0 0 -0.0186,0 z m 15,0 a 3.7499997,3.7499997 0 0 0 -3.73144,3.75 3.7499997,3.7499997 0 0 0 3.75,3.75 3.7499997,3.7499997 0 0 0 3.75,-3.75 3.7499997,3.7499997 0 0 0 -3.75,-3.75 3.7499997,3.7499997 0 0 0 -0.0186,0 z m 15,0 a 3.7499997,3.7499997 0 0 0 -3.73144,3.75 3.7499997,3.7499997 0 0 0 3.75,3.75 3.7499997,3.7499997 0 0 0 3.75,-3.75 3.7499997,3.7499997 0 0 0 -3.75,-3.75 3.7499997,3.7499997 0 0 0 -0.0186,0 z m 15,0 a 3.7499997,3.7499997 0 0 0 -3.73144,3.75 3.7499997,3.7499997 0 0 0 3.75,3.75 3.7499997,3.7499997 0 0 0 3.74999,-3.75 3.7499997,3.7499997 0 0 0 -3.74999,-3.75 3.7499997,3.7499997 0 0 0 -0.0186,0 z m 15,0 a 3.7499997,3.7499997 0 0 0 -3.73145,3.75 3.7499997,3.7499997 0 0 0 3.75,3.75 3.7499997,3.7499997 0 0 0 3.75,-3.75 3.7499997,3.7499997 0 0 0 -3.75,-3.75 3.7499997,3.7499997 0 0 0 -0.0186,0 z m 15,0 a 3.7499997,3.7499997 0 0 0 -3.73145,3.75 3.7499997,3.7499997 0 0 0 3.75,3.75 3.7499997,3.7499997 0 0 0 3.75,-3.75 3.7499997,3.7499997 0 0 0 -3.75,-3.75 3.7499997,3.7499997 0 0 0 -0.0186,0 z m 15,0 a 3.7499997,3.7499997 0 0 0 -3.73145,3.75 3.7499997,3.7499997 0 0 0 3.75,3.75 3.7499997,3.7499997 0 0 0 3.75,-3.75 3.7499997,3.7499997 0 0 0 -3.75,-3.75 3.7499997,3.7499997 0 0 0 -0.0186,0 z m 15,0 a 3.7499997,3.7499997 0 0 0 -3.73145,3.75 3.7499997,3.7499997 0 0 0 3.75,3.75 3.7499997,3.7499997 0 0 0 3.75,-3.75 3.7499997,3.7499997 0 0 0 -3.75,-3.75 3.7499997,3.7499997 0 0 0 -0.0186,0 z m 14.99999,0 a 3.7499997,3.7499997 0 0 0 -3.73144,3.75 3.7499997,3.7499997 0 0 0 3.75,3.75 3.7499997,3.7499997 0 0 0 3.75,-3.75 3.7499997,3.7499997 0 0 0 -3.75,-3.75 3.7499997,3.7499997 0 0 0 -0.0186,0 z m 15,0 a 3.7499997,3.7499997 0 0 0 -3.73144,3.75 3.7499997,3.7499997 0 0 0 3.75,3.75 3.7499997,3.7499997 0 0 0 3.75,-3.75 3.7499997,3.7499997 0 0 0 -3.75,-3.75 3.7499997,3.7499997 0 0 0 -0.0186,0 z m 15,0 a 3.7499997,3.7499997 0 0 0 -3.73144,3.75 3.7499997,3.7499997 0 0 0 3.75,3.75 3.7499997,3.7499997 0 0 0 3.75,-3.75 3.7499997,3.7499997 0 0 0 -3.75,-3.75 3.7499997,3.7499997 0 0 0 -0.0186,0 z m -157.48143,7.5 a 3.7499997,3.7499997 0 0 0 -3.75,3.75 3.7499997,3.7499997 0 0 0 3.75,3.75 3.7499997,3.7499997 0 0 0 3.75,-3.75 3.7499997,3.7499997 0 0 0 -3.75,-3.75 z m 15,0 a 3.7499997,3.7499997 0 0 0 -3.75,3.75 3.7499997,3.7499997 0 0 0 3.75,3.75 3.7499997,3.7499997 0 0 0 3.75,-3.75 3.7499997,3.7499997 0 0 0 -3.75,-3.75 z m 15,0 a 3.7499997,3.7499997 0 0 0 -3.75,3.75 3.7499997,3.7499997 0 0 0 3.75,3.75 3.7499997,3.7499997 0 0 0 3.75,-3.75 3.7499997,3.7499997 0 0 0 -3.75,-3.75 z m 15,0 a 3.7499997,3.7499997 0 0 0 -3.75,3.75 3.7499997,3.7499997 0 0 0 3.75,3.75 3.7499997,3.7499997 0 0 0 3.75,-3.75 3.7499997,3.7499997 0 0 0 -3.75,-3.75 z m 14.99999,0 a 3.7499997,3.7499997 0 0 0 -3.75,3.75 3.7499997,3.7499997 0 0 0 3.75,3.75 3.7499997,3.7499997 0 0 0 3.75,-3.75 3.7499997,3.7499997 0 0 0 -3.75,-3.75 z m 15,0 a 3.7499997,3.7499997 0 0 0 -3.75,3.75 3.7499997,3.7499997 0 0 0 3.75,3.75 3.7499997,3.7499997 0 0 0 3.75,-3.75 3.7499997,3.7499997 0 0 0 -3.75,-3.75 z m 15,0 a 3.7499997,3.7499997 0 0 0 -3.75,3.75 3.7499997,3.7499997 0 0 0 3.75,3.75 3.7499997,3.7499997 0 0 0 3.75,-3.75 3.7499997,3.7499997 0 0 0 -3.75,-3.75 z m 15,0 a 3.7499997,3.7499997 0 0 0 -3.75,3.75 3.7499997,3.7499997 0 0 0 3.75,3.75 3.7499997,3.7499997 0 0 0 3.75,-3.75 3.7499997,3.7499997 0 0 0 -3.75,-3.75 z m 15,0 a 3.7499997,3.7499997 0 0 0 -3.75,3.75 3.7499997,3.7499997 0 0 0 3.75,3.75 3.7499997,3.7499997 0 0 0 3.75,-3.75 3.7499997,3.7499997 0 0 0 -3.75,-3.75 z m 15,0 a 3.7499997,3.7499997 0 0 0 -3.75,3.75 3.7499997,3.7499997 0 0 0 3.75,3.75 3.7499997,3.7499997 0 0 0 3.75,-3.75 3.7499997,3.7499997 0 0 0 -3.75,-3.75 z m 15,0 a 3.7499997,3.7499997 0 0 0 -3.75,3.75 3.7499997,3.7499997 0 0 0 3.75,3.75 3.7499997,3.7499997 0 0 0 3.75,-3.75 3.7499997,3.7499997 0 0 0 -3.75,-3.75 z m 15,0 a 3.7499997,3.7499997 0 0 0 -3.75,3.75 3.7499997,3.7499997 0 0 0 3.75,3.75 3.7499997,3.7499997 0 0 0 3.75,-3.75 3.7499997,3.7499997 0 0 0 -3.75,-3.75 z m -172.49999,7.5 a 3.7499997,3.7499997 0 0 0 -3.75,3.74999 3.7499997,3.7499997 0 0 0 3.75,3.75 3.7499997,3.7499997 0 0 0 3.75,-3.75 3.7499997,3.7499997 0 0 0 -3.75,-3.74999 z m 15,0 a 3.7499997,3.7499997 0 0 0 -3.75,3.74999 3.7499997,3.7499997 0 0 0 3.75,3.75 3.7499997,3.7499997 0 0 0 3.75,-3.75 3.7499997,3.7499997 0 0 0 -3.75,-3.74999 z m 15,0 a 3.7499997,3.7499997 0 0 0 -3.75,3.74999 3.7499997,3.7499997 0 0 0 3.75,3.75 3.7499997,3.7499997 0 0 0 3.75,-3.75 3.7499997,3.7499997 0 0 0 -3.75,-3.74999 z m 15,0 a 3.7499997,3.7499997 0 0 0 -3.75,3.74999 3.7499997,3.7499997 0 0 0 3.75,3.75 3.7499997,3.7499997 0 0 0 3.75,-3.75 3.7499997,3.7499997 0 0 0 -3.75,-3.74999 z m 15,0 a 3.7499997,3.7499997 0 0 0 -3.75,3.74999 3.7499997,3.7499997 0 0 0 3.75,3.75 3.7499997,3.7499997 0 0 0 3.74999,-3.75 3.7499997,3.7499997 0 0 0 -3.74999,-3.74999 z m 14.99999,0 a 3.7499997,3.7499997 0 0 0 -3.75,3.74999 3.7499997,3.7499997 0 0 0 3.75,3.75 3.7499997,3.7499997 0 0 0 3.75,-3.75 3.7499997,3.7499997 0 0 0 -3.75,-3.74999 z m 15,0 a 3.7499997,3.7499997 0 0 0 -3.75,3.74999 3.7499997,3.7499997 0 0 0 3.75,3.75 3.7499997,3.7499997 0 0 0 3.75,-3.75 3.7499997,3.7499997 0 0 0 -3.75,-3.74999 z m 15,0 a 3.7499997,3.7499997 0 0 0 -3.75,3.74999 3.7499997,3.7499997 0 0 0 3.75,3.75 3.7499997,3.7499997 0 0 0 3.75,-3.75 3.7499997,3.7499997 0 0 0 -3.75,-3.74999 z m 15,0 a 3.7499997,3.7499997 0 0 0 -3.75,3.74999 3.7499997,3.7499997 0 0 0 3.75,3.75 3.7499997,3.7499997 0 0 0 3.75,-3.75 3.7499997,3.7499997 0 0 0 -3.75,-3.74999 z m 15,0 a 3.7499997,3.7499997 0 0 0 -3.75,3.74999 3.7499997,3.7499997 0 0 0 3.75,3.75 3.7499997,3.7499997 0 0 0 3.75,-3.75 3.7499997,3.7499997 0 0 0 -3.75,-3.74999 z m 15,0 a 3.7499997,3.7499997 0 0 0 -3.75,3.74999 3.7499997,3.7499997 0 0 0 3.75,3.75 3.7499997,3.7499997 0 0 0 3.75,-3.75 3.7499997,3.7499997 0 0 0 -3.75,-3.74999 z m 15,0 a 3.7499997,3.7499997 0 0 0 -3.75,3.74999 3.7499997,3.7499997 0 0 0 3.75,3.75 3.7499997,3.7499997 0 0 0 3.75,-3.75 3.7499997,3.7499997 0 0 0 -3.75,-3.74999 z m -157.49999,7.49999 a 3.7499997,3.7499997 0 0 0 -3.75,3.75 3.7499997,3.7499997 0 0 0 3.75,3.75 3.7499997,3.7499997 0 0 0 3.75,-3.75 3.7499997,3.7499997 0 0 0 -3.75,-3.75 z m 15,0 a 3.7499997,3.7499997 0 0 0 -3.75,3.75 3.7499997,3.7499997 0 0 0 3.75,3.75 3.7499997,3.7499997 0 0 0 3.75,-3.75 3.7499997,3.7499997 0 0 0 -3.75,-3.75 z m 15,0 a 3.7499997,3.7499997 0 0 0 -3.75,3.75 3.7499997,3.7499997 0 0 0 3.75,3.75 3.7499997,3.7499997 0 0 0 3.75,-3.75 3.7499997,3.7499997 0 0 0 -3.75,-3.75 z m 15,0 a 3.7499997,3.7499997 0 0 0 -3.75,3.75 3.7499997,3.7499997 0 0 0 3.75,3.75 3.7499997,3.7499997 0 0 0 3.75,-3.75 3.7499997,3.7499997 0 0 0 -3.75,-3.75 z m 14.99999,0 a 3.7499997,3.7499997 0 0 0 -3.75,3.75 3.7499997,3.7499997 0 0 0 3.75,3.75 3.7499997,3.7499997 0 0 0 3.75,-3.75 3.7499997,3.7499997 0 0 0 -3.75,-3.75 z m 15,0 a 3.7499997,3.7499997 0 0 0 -3.75,3.75 3.7499997,3.7499997 0 0 0 3.75,3.75 3.7499997,3.7499997 0 0 0 3.75,-3.75 3.7499997,3.7499997 0 0 0 -3.75,-3.75 z m 15,0 a 3.7499997,3.7499997 0 0 0 -3.75,3.75 3.7499997,3.7499997 0 0 0 3.75,3.75 3.7499997,3.7499997 0 0 0 3.75,-3.75 3.7499997,3.7499997 0 0 0 -3.75,-3.75 z m 15,0 a 3.7499997,3.7499997 0 0 0 -3.75,3.75 3.7499997,3.7499997 0 0 0 3.75,3.75 3.7499997,3.7499997 0 0 0 3.75,-3.75 3.7499997,3.7499997 0 0 0 -3.75,-3.75 z m 15,0 a 3.7499997,3.7499997 0 0 0 -3.75,3.75 3.7499997,3.7499997 0 0 0 3.75,3.75 3.7499997,3.7499997 0 0 0 3.75,-3.75 3.7499997,3.7499997 0 0 0 -3.75,-3.75 z m 15,0 a 3.7499997,3.7499997 0 0 0 -3.75,3.75 3.7499997,3.7499997 0 0 0 3.75,3.75 3.7499997,3.7499997 0 0 0 3.75,-3.75 3.7499997,3.7499997 0 0 0 -3.75,-3.75 z m 15,0 a 3.7499997,3.7499997 0 0 0 -3.75,3.75 3.7499997,3.7499997 0 0 0 3.75,3.75 3.7499997,3.7499997 0 0 0 3.75,-3.75 3.7499997,3.7499997 0 0 0 -3.75,-3.75 z m 15,0 a 3.7499997,3.7499997 0 0 0 -3.75,3.75 3.7499997,3.7499997 0 0 0 3.75,3.75 3.7499997,3.7499997 0 0 0 3.75,-3.75 3.7499997,3.7499997 0 0 0 -3.75,-3.75 z m -172.49999,7.5 a 3.7499997,3.7499997 0 0 0 -3.75,3.75 3.7499997,3.7499997 0 0 0 3.75,3.75 3.7499997,3.7499997 0 0 0 3.75,-3.75 3.7499997,3.7499997 0 0 0 -3.75,-3.75 z m 15,0 a 3.7499997,3.7499997 0 0 0 -3.75,3.75 3.7499997,3.7499997 0 0 0 3.75,3.75 3.7499997,3.7499997 0 0 0 3.75,-3.75 3.7499997,3.7499997 0 0 0 -3.75,-3.75 z m 15,0 a 3.7499997,3.7499997 0 0 0 -3.75,3.75 3.7499997,3.7499997 0 0 0 3.75,3.75 3.7499997,3.7499997 0 0 0 3.75,-3.75 3.7499997,3.7499997 0 0 0 -3.75,-3.75 z m 15,0 a 3.7499997,3.7499997 0 0 0 -3.75,3.75 3.7499997,3.7499997 0 0 0 3.75,3.75 3.7499997,3.7499997 0 0 0 3.75,-3.75 3.7499997,3.7499997 0 0 0 -3.75,-3.75 z m 15,0 a 3.7499997,3.7499997 0 0 0 -3.75,3.75 3.7499997,3.7499997 0 0 0 3.75,3.75 3.7499997,3.7499997 0 0 0 3.74999,-3.75 3.7499997,3.7499997 0 0 0 -3.74999,-3.75 z m 14.99999,0 a 3.7499997,3.7499997 0 0 0 -3.75,3.75 3.7499997,3.7499997 0 0 0 3.75,3.75 3.7499997,3.7499997 0 0 0 3.75,-3.75 3.7499997,3.7499997 0 0 0 -3.75,-3.75 z m 15,0 a 3.7499997,3.7499997 0 0 0 -3.75,3.75 3.7499997,3.7499997 0 0 0 3.75,3.75 3.7499997,3.7499997 0 0 0 3.75,-3.75 3.7499997,3.7499997 0 0 0 -3.75,-3.75 z m 15,0 a 3.7499997,3.7499997 0 0 0 -3.75,3.75 3.7499997,3.7499997 0 0 0 3.75,3.75 3.7499997,3.7499997 0 0 0 3.75,-3.75 3.7499997,3.7499997 0 0 0 -3.75,-3.75 z m 15,0 a 3.7499997,3.7499997 0 0 0 -3.75,3.75 3.7499997,3.7499997 0 0 0 3.75,3.75 3.7499997,3.7499997 0 0 0 3.75,-3.75 3.7499997,3.7499997 0 0 0 -3.75,-3.75 z m 15,0 a 3.7499997,3.7499997 0 0 0 -3.75,3.75 3.7499997,3.7499997 0 0 0 3.75,3.75 3.7499997,3.7499997 0 0 0 3.75,-3.75 3.7499997,3.7499997 0 0 0 -3.75,-3.75 z m 15,0 a 3.7499997,3.7499997 0 0 0 -3.75,3.75 3.7499997,3.7499997 0 0 0 3.75,3.75 3.7499997,3.7499997 0 0 0 3.75,-3.75 3.7499997,3.7499997 0 0 0 -3.75,-3.75 z m 15,0 a 3.7499997,3.7499997 0 0 0 -3.75,3.75 3.7499997,3.7499997 0 0 0 3.75,3.75 3.7499997,3.7499997 0 0 0 3.75,-3.75 3.7499997,3.7499997 0 0 0 -3.75,-3.75 z m -157.49999,7.5 a 3.7499997,3.7499997 0 0 0 -3.75,3.75 3.7499997,3.7499997 0 0 0 3.75,3.75 3.7499997,3.7499997 0 0 0 3.75,-3.75 3.7499997,3.7499997 0 0 0 -3.75,-3.75 z m 15,0 a 3.7499997,3.7499997 0 0 0 -3.75,3.75 3.7499997,3.7499997 0 0 0 3.75,3.75 3.7499997,3.7499997 0 0 0 3.75,-3.75 3.7499997,3.7499997 0 0 0 -3.75,-3.75 z m 15,0 a 3.7499997,3.7499997 0 0 0 -3.75,3.75 3.7499997,3.7499997 0 0 0 3.75,3.75 3.7499997,3.7499997 0 0 0 3.75,-3.75 3.7499997,3.7499997 0 0 0 -3.75,-3.75 z m 15,0 a 3.7499997,3.7499997 0 0 0 -3.75,3.75 3.7499997,3.7499997 0 0 0 3.75,3.75 3.7499997,3.7499997 0 0 0 3.75,-3.75 3.7499997,3.7499997 0 0 0 -3.75,-3.75 z m 14.99999,0 a 3.7499997,3.7499997 0 0 0 -3.75,3.75 3.7499997,3.7499997 0 0 0 3.75,3.75 3.7499997,3.7499997 0 0 0 3.75,-3.75 3.7499997,3.7499997 0 0 0 -3.75,-3.75 z m 15,0 a 3.7499997,3.7499997 0 0 0 -3.75,3.75 3.7499997,3.7499997 0 0 0 3.75,3.75 3.7499997,3.7499997 0 0 0 3.75,-3.75 3.7499997,3.7499997 0 0 0 -3.75,-3.75 z m 15,0 a 3.7499997,3.7499997 0 0 0 -3.75,3.75 3.7499997,3.7499997 0 0 0 3.75,3.75 3.7499997,3.7499997 0 0 0 3.75,-3.75 3.7499997,3.7499997 0 0 0 -3.75,-3.75 z m 15,0 a 3.7499997,3.7499997 0 0 0 -3.75,3.75 3.7499997,3.7499997 0 0 0 3.75,3.75 3.7499997,3.7499997 0 0 0 3.75,-3.75 3.7499997,3.7499997 0 0 0 -3.75,-3.75 z m 15,0 a 3.7499997,3.7499997 0 0 0 -3.75,3.75 3.7499997,3.7499997 0 0 0 3.75,3.75 3.7499997,3.7499997 0 0 0 3.75,-3.75 3.7499997,3.7499997 0 0 0 -3.75,-3.75 z m 15,0 a 3.7499997,3.7499997 0 0 0 -3.75,3.75 3.7499997,3.7499997 0 0 0 3.75,3.75 3.7499997,3.7499997 0 0 0 3.75,-3.75 3.7499997,3.7499997 0 0 0 -3.75,-3.75 z m 15,0 a 3.7499997,3.7499997 0 0 0 -3.75,3.75 3.7499997,3.7499997 0 0 0 3.75,3.75 3.7499997,3.7499997 0 0 0 3.75,-3.75 3.7499997,3.7499997 0 0 0 -3.75,-3.75 z m 15,0 a 3.7499997,3.7499997 0 0 0 -3.75,3.75 3.7499997,3.7499997 0 0 0 3.75,3.75 3.7499997,3.7499997 0 0 0 3.75,-3.75 3.7499997,3.7499997 0 0 0 -3.75,-3.75 z m -172.51855,7.5 a 3.7499997,3.7499997 0 0 0 -3.73144,3.75 3.7499997,3.7499997 0 0 0 3.75,3.75 3.7499997,3.7499997 0 0 0 3.75,-3.75 3.7499997,3.7499997 0 0 0 -3.75,-3.75 3.7499997,3.7499997 0 0 0 -0.0186,0 z m 15,0 a 3.7499997,3.7499997 0 0 0 -3.73144,3.75 3.7499997,3.7499997 0 0 0 3.75,3.75 3.7499997,3.7499997 0 0 0 3.75,-3.75 3.7499997,3.7499997 0 0 0 -3.75,-3.75 3.7499997,3.7499997 0 0 0 -0.0186,0 z m 15,0 a 3.7499997,3.7499997 0 0 0 -3.73144,3.75 3.7499997,3.7499997 0 0 0 3.75,3.75 3.7499997,3.7499997 0 0 0 3.75,-3.75 3.7499997,3.7499997 0 0 0 -3.75,-3.75 3.7499997,3.7499997 0 0 0 -0.0186,0 z m 15,0 a 3.7499997,3.7499997 0 0 0 -3.73144,3.75 3.7499997,3.7499997 0 0 0 3.75,3.75 3.7499997,3.7499997 0 0 0 3.75,-3.75 3.7499997,3.7499997 0 0 0 -3.75,-3.75 3.7499997,3.7499997 0 0 0 -0.0186,0 z m 15,0 a 3.7499997,3.7499997 0 0 0 -3.73144,3.75 3.7499997,3.7499997 0 0 0 3.75,3.75 3.7499997,3.7499997 0 0 0 3.74999,-3.75 3.7499997,3.7499997 0 0 0 -3.74999,-3.75 3.7499997,3.7499997 0 0 0 -0.0186,0 z m 15,0 a 3.7499997,3.7499997 0 0 0 -3.73145,3.75 3.7499997,3.7499997 0 0 0 3.75,3.75 3.7499997,3.7499997 0 0 0 3.75,-3.75 3.7499997,3.7499997 0 0 0 -3.75,-3.75 3.7499997,3.7499997 0 0 0 -0.0186,0 z m 15,0 a 3.7499997,3.7499997 0 0 0 -3.73145,3.75 3.7499997,3.7499997 0 0 0 3.75,3.75 3.7499997,3.7499997 0 0 0 3.75,-3.75 3.7499997,3.7499997 0 0 0 -3.75,-3.75 3.7499997,3.7499997 0 0 0 -0.0186,0 z m 15,0 a 3.7499997,3.7499997 0 0 0 -3.73145,3.75 3.7499997,3.7499997 0 0 0 3.75,3.75 3.7499997,3.7499997 0 0 0 3.75,-3.75 3.7499997,3.7499997 0 0 0 -3.75,-3.75 3.7499997,3.7499997 0 0 0 -0.0186,0 z m 15,0 a 3.7499997,3.7499997 0 0 0 -3.73145,3.75 3.7499997,3.7499997 0 0 0 3.75,3.75 3.7499997,3.7499997 0 0 0 3.75,-3.75 3.7499997,3.7499997 0 0 0 -3.75,-3.75 3.7499997,3.7499997 0 0 0 -0.0186,0 z m 14.99999,0 a 3.7499997,3.7499997 0 0 0 -3.73144,3.75 3.7499997,3.7499997 0 0 0 3.75,3.75 3.7499997,3.7499997 0 0 0 3.75,-3.75 3.7499997,3.7499997 0 0 0 -3.75,-3.75 3.7499997,3.7499997 0 0 0 -0.0186,0 z m 15,0 a 3.7499997,3.7499997 0 0 0 -3.73144,3.75 3.7499997,3.7499997 0 0 0 3.75,3.75 3.7499997,3.7499997 0 0 0 3.75,-3.75 3.7499997,3.7499997 0 0 0 -3.75,-3.75 3.7499997,3.7499997 0 0 0 -0.0186,0 z m 15,0 a 3.7499997,3.7499997 0 0 0 -3.73144,3.75 3.7499997,3.7499997 0 0 0 3.75,3.75 3.7499997,3.7499997 0 0 0 3.75,-3.75 3.7499997,3.7499997 0 0 0 -3.75,-3.75 3.7499997,3.7499997 0 0 0 -0.0186,0 z m -157.49999,7.5 a 3.7499997,3.7499997 0 0 0 -3.73144,3.75 3.7499997,3.7499997 0 0 0 3.75,3.75 3.7499997,3.7499997 0 0 0 3.75,-3.75 3.7499997,3.7499997 0 0 0 -3.75,-3.75 3.7499997,3.7499997 0 0 0 -0.0186,0 z m 15,0 a 3.7499997,3.7499997 0 0 0 -3.73144,3.75 3.7499997,3.7499997 0 0 0 3.75,3.75 3.7499997,3.7499997 0 0 0 3.75,-3.75 3.7499997,3.7499997 0 0 0 -3.75,-3.75 3.7499997,3.7499997 0 0 0 -0.0186,0 z m 15,0 a 3.7499997,3.7499997 0 0 0 -3.73144,3.75 3.7499997,3.7499997 0 0 0 3.75,3.75 3.7499997,3.7499997 0 0 0 3.75,-3.75 3.7499997,3.7499997 0 0 0 -3.75,-3.75 3.7499997,3.7499997 0 0 0 -0.0186,0 z m 15,0 a 3.7499997,3.7499997 0 0 0 -3.73144,3.75 3.7499997,3.7499997 0 0 0 3.75,3.75 3.7499997,3.7499997 0 0 0 3.75,-3.75 3.7499997,3.7499997 0 0 0 -3.75,-3.75 3.7499997,3.7499997 0 0 0 -0.0186,0 z m 15,0 a 3.7499997,3.7499997 0 0 0 -3.73145,3.75 3.7499997,3.7499997 0 0 0 3.75,3.75 3.7499997,3.7499997 0 0 0 3.75,-3.75 3.7499997,3.7499997 0 0 0 -3.75,-3.75 3.7499997,3.7499997 0 0 0 -0.0186,0 z m 15,0 a 3.7499997,3.7499997 0 0 0 -3.73145,3.75 3.7499997,3.7499997 0 0 0 3.75,3.75 3.7499997,3.7499997 0 0 0 3.75,-3.75 3.7499997,3.7499997 0 0 0 -3.75,-3.75 3.7499997,3.7499997 0 0 0 -0.0186,0 z m 15,0 a 3.7499997,3.7499997 0 0 0 -3.73145,3.75 3.7499997,3.7499997 0 0 0 3.75,3.75 3.7499997,3.7499997 0 0 0 3.75,-3.75 3.7499997,3.7499997 0 0 0 -3.75,-3.75 3.7499997,3.7499997 0 0 0 -0.0186,0 z m 15,0 a 3.7499997,3.7499997 0 0 0 -3.73145,3.75 3.7499997,3.7499997 0 0 0 3.75,3.75 3.7499997,3.7499997 0 0 0 3.75,-3.75 3.7499997,3.7499997 0 0 0 -3.75,-3.75 3.7499997,3.7499997 0 0 0 -0.0186,0 z m 14.99999,0 a 3.7499997,3.7499997 0 0 0 -3.73144,3.75 3.7499997,3.7499997 0 0 0 3.75,3.75 3.7499997,3.7499997 0 0 0 3.75,-3.75 3.7499997,3.7499997 0 0 0 -3.75,-3.75 3.7499997,3.7499997 0 0 0 -0.0186,0 z m 15,0 a 3.7499997,3.7499997 0 0 0 -3.73144,3.75 3.7499997,3.7499997 0 0 0 3.75,3.75 3.7499997,3.7499997 0 0 0 3.75,-3.75 3.7499997,3.7499997 0 0 0 -3.75,-3.75 3.7499997,3.7499997 0 0 0 -0.0186,0 z m 15,0 a 3.7499997,3.7499997 0 0 0 -3.73144,3.75 3.7499997,3.7499997 0 0 0 3.75,3.75 3.7499997,3.7499997 0 0 0 3.75,-3.75 3.7499997,3.7499997 0 0 0 -3.75,-3.75 3.7499997,3.7499997 0 0 0 -0.0186,0 z m 15,0 a 3.7499997,3.7499997 0 0 0 -3.73144,3.75 3.7499997,3.7499997 0 0 0 3.75,3.75 3.7499997,3.7499997 0 0 0 3.75,-3.75 3.7499997,3.7499997 0 0 0 -3.75,-3.75 3.7499997,3.7499997 0 0 0 -0.0186,0 z m -172.49999,7.5 a 3.7499997,3.7499997 0 0 0 -3.73144,3.75 3.7499997,3.7499997 0 0 0 3.75,3.75 3.7499997,3.7499997 0 0 0 3.75,-3.75 3.7499997,3.7499997 0 0 0 -3.75,-3.75 3.7499997,3.7499997 0 0 0 -0.0186,0 z m 15,0 a 3.7499997,3.7499997 0 0 0 -3.73144,3.75 3.7499997,3.7499997 0 0 0 3.75,3.75 3.7499997,3.7499997 0 0 0 3.75,-3.75 3.7499997,3.7499997 0 0 0 -3.75,-3.75 3.7499997,3.7499997 0 0 0 -0.0186,0 z m 15,0 a 3.7499997,3.7499997 0 0 0 -3.73144,3.75 3.7499997,3.7499997 0 0 0 3.75,3.75 3.7499997,3.7499997 0 0 0 3.75,-3.75 3.7499997,3.7499997 0 0 0 -3.75,-3.75 3.7499997,3.7499997 0 0 0 -0.0186,0 z m 15,0 a 3.7499997,3.7499997 0 0 0 -3.73144,3.75 3.7499997,3.7499997 0 0 0 3.75,3.75 3.7499997,3.7499997 0 0 0 3.75,-3.75 3.7499997,3.7499997 0 0 0 -3.75,-3.75 3.7499997,3.7499997 0 0 0 -0.0186,0 z m 15,0 a 3.7499997,3.7499997 0 0 0 -3.73144,3.75 3.7499997,3.7499997 0 0 0 3.75,3.75 3.7499997,3.7499997 0 0 0 3.74999,-3.75 3.7499997,3.7499997 0 0 0 -3.74999,-3.75 3.7499997,3.7499997 0 0 0 -0.0186,0 z m 15,0 a 3.7499997,3.7499997 0 0 0 -3.73145,3.75 3.7499997,3.7499997 0 0 0 3.75,3.75 3.7499997,3.7499997 0 0 0 3.75,-3.75 3.7499997,3.7499997 0 0 0 -3.75,-3.75 3.7499997,3.7499997 0 0 0 -0.0186,0 z m 15,0 a 3.7499997,3.7499997 0 0 0 -3.73145,3.75 3.7499997,3.7499997 0 0 0 3.75,3.75 3.7499997,3.7499997 0 0 0 3.75,-3.75 3.7499997,3.7499997 0 0 0 -3.75,-3.75 3.7499997,3.7499997 0 0 0 -0.0186,0 z m 15,0 a 3.7499997,3.7499997 0 0 0 -3.73145,3.75 3.7499997,3.7499997 0 0 0 3.75,3.75 3.7499997,3.7499997 0 0 0 3.75,-3.75 3.7499997,3.7499997 0 0 0 -3.75,-3.75 3.7499997,3.7499997 0 0 0 -0.0186,0 z m 15,0 a 3.7499997,3.7499997 0 0 0 -3.73145,3.75 3.7499997,3.7499997 0 0 0 3.75,3.75 3.7499997,3.7499997 0 0 0 3.75,-3.75 3.7499997,3.7499997 0 0 0 -3.75,-3.75 3.7499997,3.7499997 0 0 0 -0.0186,0 z m 14.99999,0 a 3.7499997,3.7499997 0 0 0 -3.73144,3.75 3.7499997,3.7499997 0 0 0 3.75,3.75 3.7499997,3.7499997 0 0 0 3.75,-3.75 3.7499997,3.7499997 0 0 0 -3.75,-3.75 3.7499997,3.7499997 0 0 0 -0.0186,0 z m 15,0 a 3.7499997,3.7499997 0 0 0 -3.73144,3.75 3.7499997,3.7499997 0 0 0 3.75,3.75 3.7499997,3.7499997 0 0 0 3.75,-3.75 3.7499997,3.7499997 0 0 0 -3.75,-3.75 3.7499997,3.7499997 0 0 0 -0.0186,0 z m 15,0 a 3.7499997,3.7499997 0 0 0 -3.73144,3.75 3.7499997,3.7499997 0 0 0 3.75,3.75 3.7499997,3.7499997 0 0 0 3.75,-3.75 3.7499997,3.7499997 0 0 0 -3.75,-3.75 3.7499997,3.7499997 0 0 0 -0.0186,0 z m -157.49999,7.5 a 3.7499997,3.7499997 0 0 0 -3.73144,3.75 3.7499997,3.7499997 0 0 0 3.75,3.75 3.7499997,3.7499997 0 0 0 3.75,-3.75 3.7499997,3.7499997 0 0 0 -3.75,-3.75 3.7499997,3.7499997 0 0 0 -0.0186,0 z m 15,0 a 3.7499997,3.7499997 0 0 0 -3.73144,3.75 3.7499997,3.7499997 0 0 0 3.75,3.75 3.7499997,3.7499997 0 0 0 3.75,-3.75 3.7499997,3.7499997 0 0 0 -3.75,-3.75 3.7499997,3.7499997 0 0 0 -0.0186,0 z m 15,0 a 3.7499997,3.7499997 0 0 0 -3.73144,3.75 3.7499997,3.7499997 0 0 0 3.75,3.75 3.7499997,3.7499997 0 0 0 3.75,-3.75 3.7499997,3.7499997 0 0 0 -3.75,-3.75 3.7499997,3.7499997 0 0 0 -0.0186,0 z m 15,0 a 3.7499997,3.7499997 0 0 0 -3.73144,3.75 3.7499997,3.7499997 0 0 0 3.75,3.75 3.7499997,3.7499997 0 0 0 3.75,-3.75 3.7499997,3.7499997 0 0 0 -3.75,-3.75 3.7499997,3.7499997 0 0 0 -0.0186,0 z m 15,0 a 3.7499997,3.7499997 0 0 0 -3.73145,3.75 3.7499997,3.7499997 0 0 0 3.75,3.75 3.7499997,3.7499997 0 0 0 3.75,-3.75 3.7499997,3.7499997 0 0 0 -3.75,-3.75 3.7499997,3.7499997 0 0 0 -0.0186,0 z m 15,0 a 3.7499997,3.7499997 0 0 0 -3.73145,3.75 3.7499997,3.7499997 0 0 0 3.75,3.75 3.7499997,3.7499997 0 0 0 3.75,-3.75 3.7499997,3.7499997 0 0 0 -3.75,-3.75 3.7499997,3.7499997 0 0 0 -0.0186,0 z m 15,0 a 3.7499997,3.7499997 0 0 0 -3.73145,3.75 3.7499997,3.7499997 0 0 0 3.75,3.75 3.7499997,3.7499997 0 0 0 3.75,-3.75 3.7499997,3.7499997 0 0 0 -3.75,-3.75 3.7499997,3.7499997 0 0 0 -0.0186,0 z m 15,0 a 3.7499997,3.7499997 0 0 0 -3.73145,3.75 3.7499997,3.7499997 0 0 0 3.75,3.75 3.7499997,3.7499997 0 0 0 3.75,-3.75 3.7499997,3.7499997 0 0 0 -3.75,-3.75 3.7499997,3.7499997 0 0 0 -0.0186,0 z m 14.99999,0 a 3.7499997,3.7499997 0 0 0 -3.73144,3.75 3.7499997,3.7499997 0 0 0 3.75,3.75 3.7499997,3.7499997 0 0 0 3.75,-3.75 3.7499997,3.7499997 0 0 0 -3.75,-3.75 3.7499997,3.7499997 0 0 0 -0.0186,0 z m 15,0 a 3.7499997,3.7499997 0 0 0 -3.73144,3.75 3.7499997,3.7499997 0 0 0 3.75,3.75 3.7499997,3.7499997 0 0 0 3.75,-3.75 3.7499997,3.7499997 0 0 0 -3.75,-3.75 3.7499997,3.7499997 0 0 0 -0.0186,0 z m 15,0 a 3.7499997,3.7499997 0 0 0 -3.73144,3.75 3.7499997,3.7499997 0 0 0 3.75,3.75 3.7499997,3.7499997 0 0 0 3.75,-3.75 3.7499997,3.7499997 0 0 0 -3.75,-3.75 3.7499997,3.7499997 0 0 0 -0.0186,0 z m 15,0 a 3.7499997,3.7499997 0 0 0 -3.73144,3.75 3.7499997,3.7499997 0 0 0 3.75,3.75 3.7499997,3.7499997 0 0 0 3.75,-3.75 3.7499997,3.7499997 0 0 0 -3.75,-3.75 3.7499997,3.7499997 0 0 0 -0.0186,0 z m -172.49999,7.5 a 3.7499997,3.7499997 0 0 0 -3.73144,3.75 3.7499997,3.7499997 0 0 0 3.75,3.75 3.7499997,3.7499997 0 0 0 3.75,-3.75 3.7499997,3.7499997 0 0 0 -3.75,-3.75 3.7499997,3.7499997 0 0 0 -0.0186,0 z m 15,0 a 3.7499997,3.7499997 0 0 0 -3.73144,3.75 3.7499997,3.7499997 0 0 0 3.75,3.75 3.7499997,3.7499997 0 0 0 3.75,-3.75 3.7499997,3.7499997 0 0 0 -3.75,-3.75 3.7499997,3.7499997 0 0 0 -0.0186,0 z m 15,0 a 3.7499997,3.7499997 0 0 0 -3.73144,3.75 3.7499997,3.7499997 0 0 0 3.75,3.75 3.7499997,3.7499997 0 0 0 3.75,-3.75 3.7499997,3.7499997 0 0 0 -3.75,-3.75 3.7499997,3.7499997 0 0 0 -0.0186,0 z m 15,0 a 3.7499997,3.7499997 0 0 0 -3.73144,3.75 3.7499997,3.7499997 0 0 0 3.75,3.75 3.7499997,3.7499997 0 0 0 3.75,-3.75 3.7499997,3.7499997 0 0 0 -3.75,-3.75 3.7499997,3.7499997 0 0 0 -0.0186,0 z m 15,0 a 3.7499997,3.7499997 0 0 0 -3.73144,3.75 3.7499997,3.7499997 0 0 0 3.75,3.75 3.7499997,3.7499997 0 0 0 3.74999,-3.75 3.7499997,3.7499997 0 0 0 -3.74999,-3.75 3.7499997,3.7499997 0 0 0 -0.0186,0 z m 15,0 a 3.7499997,3.7499997 0 0 0 -3.73145,3.75 3.7499997,3.7499997 0 0 0 3.75,3.75 3.7499997,3.7499997 0 0 0 3.75,-3.75 3.7499997,3.7499997 0 0 0 -3.75,-3.75 3.7499997,3.7499997 0 0 0 -0.0186,0 z m 15,0 a 3.7499997,3.7499997 0 0 0 -3.73145,3.75 3.7499997,3.7499997 0 0 0 3.75,3.75 3.7499997,3.7499997 0 0 0 3.75,-3.75 3.7499997,3.7499997 0 0 0 -3.75,-3.75 3.7499997,3.7499997 0 0 0 -0.0186,0 z m 15,0 a 3.7499997,3.7499997 0 0 0 -3.73145,3.75 3.7499997,3.7499997 0 0 0 3.75,3.75 3.7499997,3.7499997 0 0 0 3.75,-3.75 3.7499997,3.7499997 0 0 0 -3.75,-3.75 3.7499997,3.7499997 0 0 0 -0.0186,0 z m 15,0 a 3.7499997,3.7499997 0 0 0 -3.73145,3.75 3.7499997,3.7499997 0 0 0 3.75,3.75 3.7499997,3.7499997 0 0 0 3.75,-3.75 3.7499997,3.7499997 0 0 0 -3.75,-3.75 3.7499997,3.7499997 0 0 0 -0.0186,0 z m 14.99999,0 a 3.7499997,3.7499997 0 0 0 -3.73144,3.75 3.7499997,3.7499997 0 0 0 3.75,3.75 3.7499997,3.7499997 0 0 0 3.75,-3.75 3.7499997,3.7499997 0 0 0 -3.75,-3.75 3.7499997,3.7499997 0 0 0 -0.0186,0 z m 15,0 a 3.7499997,3.7499997 0 0 0 -3.73144,3.75 3.7499997,3.7499997 0 0 0 3.75,3.75 3.7499997,3.7499997 0 0 0 3.75,-3.75 3.7499997,3.7499997 0 0 0 -3.75,-3.75 3.7499997,3.7499997 0 0 0 -0.0186,0 z m 15,0 a 3.7499997,3.7499997 0 0 0 -3.73144,3.75 3.7499997,3.7499997 0 0 0 3.75,3.75 3.7499997,3.7499997 0 0 0 3.75,-3.75 3.7499997,3.7499997 0 0 0 -3.75,-3.75 3.7499997,3.7499997 0 0 0 -0.0186,0 z m -157.48143,7.5 a 3.7499997,3.7499997 0 0 0 -3.75,3.75 3.7499997,3.7499997 0 0 0 3.75,3.75 3.7499997,3.7499997 0 0 0 3.75,-3.75 3.7499997,3.7499997 0 0 0 -3.75,-3.75 z m 15,0 a 3.7499997,3.7499997 0 0 0 -3.75,3.75 3.7499997,3.7499997 0 0 0 3.75,3.75 3.7499997,3.7499997 0 0 0 3.75,-3.75 3.7499997,3.7499997 0 0 0 -3.75,-3.75 z m 15,0 a 3.7499997,3.7499997 0 0 0 -3.75,3.75 3.7499997,3.7499997 0 0 0 3.75,3.75 3.7499997,3.7499997 0 0 0 3.75,-3.75 3.7499997,3.7499997 0 0 0 -3.75,-3.75 z m 15,0 a 3.7499997,3.7499997 0 0 0 -3.75,3.75 3.7499997,3.7499997 0 0 0 3.75,3.75 3.7499997,3.7499997 0 0 0 3.75,-3.75 3.7499997,3.7499997 0 0 0 -3.75,-3.75 z m 14.99999,0 a 3.7499997,3.7499997 0 0 0 -3.75,3.75 3.7499997,3.7499997 0 0 0 3.75,3.75 3.7499997,3.7499997 0 0 0 3.75,-3.75 3.7499997,3.7499997 0 0 0 -3.75,-3.75 z m 15,0 a 3.7499997,3.7499997 0 0 0 -3.75,3.75 3.7499997,3.7499997 0 0 0 3.75,3.75 3.7499997,3.7499997 0 0 0 3.75,-3.75 3.7499997,3.7499997 0 0 0 -3.75,-3.75 z m 15,0 a 3.7499997,3.7499997 0 0 0 -3.75,3.75 3.7499997,3.7499997 0 0 0 3.75,3.75 3.7499997,3.7499997 0 0 0 3.75,-3.75 3.7499997,3.7499997 0 0 0 -3.75,-3.75 z m 15,0 a 3.7499997,3.7499997 0 0 0 -3.75,3.75 3.7499997,3.7499997 0 0 0 3.75,3.75 3.7499997,3.7499997 0 0 0 3.75,-3.75 3.7499997,3.7499997 0 0 0 -3.75,-3.75 z m 15,0 a 3.7499997,3.7499997 0 0 0 -3.75,3.75 3.7499997,3.7499997 0 0 0 3.75,3.75 3.7499997,3.7499997 0 0 0 3.75,-3.75 3.7499997,3.7499997 0 0 0 -3.75,-3.75 z m 15,0 a 3.7499997,3.7499997 0 0 0 -3.75,3.75 3.7499997,3.7499997 0 0 0 3.75,3.75 3.7499997,3.7499997 0 0 0 3.75,-3.75 3.7499997,3.7499997 0 0 0 -3.75,-3.75 z m 15,0 a 3.7499997,3.7499997 0 0 0 -3.75,3.75 3.7499997,3.7499997 0 0 0 3.75,3.75 3.7499997,3.7499997 0 0 0 3.75,-3.75 3.7499997,3.7499997 0 0 0 -3.75,-3.75 z m 15,0 a 3.7499997,3.7499997 0 0 0 -3.75,3.75 3.7499997,3.7499997 0 0 0 3.75,3.75 3.7499997,3.7499997 0 0 0 3.75,-3.75 3.7499997,3.7499997 0 0 0 -3.75,-3.75 z m -172.49999,7.5 a 3.7499997,3.7499997 0 0 0 -3.75,3.75 3.7499997,3.7499997 0 0 0 3.75,3.75 3.7499997,3.7499997 0 0 0 3.75,-3.75 3.7499997,3.7499997 0 0 0 -3.75,-3.75 z m 15,0 a 3.7499997,3.7499997 0 0 0 -3.75,3.75 3.7499997,3.7499997 0 0 0 3.75,3.75 3.7499997,3.7499997 0 0 0 3.75,-3.75 3.7499997,3.7499997 0 0 0 -3.75,-3.75 z m 15,0 a 3.7499997,3.7499997 0 0 0 -3.75,3.75 3.7499997,3.7499997 0 0 0 3.75,3.75 3.7499997,3.7499997 0 0 0 3.75,-3.75 3.7499997,3.7499997 0 0 0 -3.75,-3.75 z m 15,0 a 3.7499997,3.7499997 0 0 0 -3.75,3.75 3.7499997,3.7499997 0 0 0 3.75,3.75 3.7499997,3.7499997 0 0 0 3.75,-3.75 3.7499997,3.7499997 0 0 0 -3.75,-3.75 z m 15,0 a 3.7499997,3.7499997 0 0 0 -3.75,3.75 3.7499997,3.7499997 0 0 0 3.75,3.75 3.7499997,3.7499997 0 0 0 3.74999,-3.75 3.7499997,3.7499997 0 0 0 -3.74999,-3.75 z m 14.99999,0 a 3.7499997,3.7499997 0 0 0 -3.75,3.75 3.7499997,3.7499997 0 0 0 3.75,3.75 3.7499997,3.7499997 0 0 0 3.75,-3.75 3.7499997,3.7499997 0 0 0 -3.75,-3.75 z m 15,0 a 3.7499997,3.7499997 0 0 0 -3.75,3.75 3.7499997,3.7499997 0 0 0 3.75,3.75 3.7499997,3.7499997 0 0 0 3.75,-3.75 3.7499997,3.7499997 0 0 0 -3.75,-3.75 z m 15,0 a 3.7499997,3.7499997 0 0 0 -3.75,3.75 3.7499997,3.7499997 0 0 0 3.75,3.75 3.7499997,3.7499997 0 0 0 3.75,-3.75 3.7499997,3.7499997 0 0 0 -3.75,-3.75 z m 15,0 a 3.7499997,3.7499997 0 0 0 -3.75,3.75 3.7499997,3.7499997 0 0 0 3.75,3.75 3.7499997,3.7499997 0 0 0 3.75,-3.75 3.7499997,3.7499997 0 0 0 -3.75,-3.75 z m 15,0 a 3.7499997,3.7499997 0 0 0 -3.75,3.75 3.7499997,3.7499997 0 0 0 3.75,3.75 3.7499997,3.7499997 0 0 0 3.75,-3.75 3.7499997,3.7499997 0 0 0 -3.75,-3.75 z m 15,0 a 3.7499997,3.7499997 0 0 0 -3.75,3.75 3.7499997,3.7499997 0 0 0 3.75,3.75 3.7499997,3.7499997 0 0 0 3.75,-3.75 3.7499997,3.7499997 0 0 0 -3.75,-3.75 z m 15,0 a 3.7499997,3.7499997 0 0 0 -3.75,3.75 3.7499997,3.7499997 0 0 0 3.75,3.75 3.7499997,3.7499997 0 0 0 3.75,-3.75 3.7499997,3.7499997 0 0 0 -3.75,-3.75 z m -157.49999,7.5 a 3.7499997,3.7499997 0 0 0 -3.75,3.75 3.7499997,3.7499997 0 0 0 3.75,3.75 3.7499997,3.7499997 0 0 0 3.75,-3.75 3.7499997,3.7499997 0 0 0 -3.75,-3.75 z m 15,0 a 3.7499997,3.7499997 0 0 0 -3.75,3.75 3.7499997,3.7499997 0 0 0 3.75,3.75 3.7499997,3.7499997 0 0 0 3.75,-3.75 3.7499997,3.7499997 0 0 0 -3.75,-3.75 z m 15,0 a 3.7499997,3.7499997 0 0 0 -3.75,3.75 3.7499997,3.7499997 0 0 0 3.75,3.75 3.7499997,3.7499997 0 0 0 3.75,-3.75 3.7499997,3.7499997 0 0 0 -3.75,-3.75 z m 15,0 a 3.7499997,3.7499997 0 0 0 -3.75,3.75 3.7499997,3.7499997 0 0 0 3.75,3.75 3.7499997,3.7499997 0 0 0 3.75,-3.75 3.7499997,3.7499997 0 0 0 -3.75,-3.75 z m 14.99999,0 a 3.7499997,3.7499997 0 0 0 -3.75,3.75 3.7499997,3.7499997 0 0 0 3.75,3.75 3.7499997,3.7499997 0 0 0 3.75,-3.75 3.7499997,3.7499997 0 0 0 -3.75,-3.75 z m 15,0 a 3.7499997,3.7499997 0 0 0 -3.75,3.75 3.7499997,3.7499997 0 0 0 3.75,3.75 3.7499997,3.7499997 0 0 0 3.75,-3.75 3.7499997,3.7499997 0 0 0 -3.75,-3.75 z m 15,0 a 3.7499997,3.7499997 0 0 0 -3.75,3.75 3.7499997,3.7499997 0 0 0 3.75,3.75 3.7499997,3.7499997 0 0 0 3.75,-3.75 3.7499997,3.7499997 0 0 0 -3.75,-3.75 z m 15,0 a 3.7499997,3.7499997 0 0 0 -3.75,3.75 3.7499997,3.7499997 0 0 0 3.75,3.75 3.7499997,3.7499997 0 0 0 3.75,-3.75 3.7499997,3.7499997 0 0 0 -3.75,-3.75 z m 15,0 a 3.7499997,3.7499997 0 0 0 -3.75,3.75 3.7499997,3.7499997 0 0 0 3.75,3.75 3.7499997,3.7499997 0 0 0 3.75,-3.75 3.7499997,3.7499997 0 0 0 -3.75,-3.75 z m 15,0 a 3.7499997,3.7499997 0 0 0 -3.75,3.75 3.7499997,3.7499997 0 0 0 3.75,3.75 3.7499997,3.7499997 0 0 0 3.75,-3.75 3.7499997,3.7499997 0 0 0 -3.75,-3.75 z m 15,0 a 3.7499997,3.7499997 0 0 0 -3.75,3.75 3.7499997,3.7499997 0 0 0 3.75,3.75 3.7499997,3.7499997 0 0 0 3.75,-3.75 3.7499997,3.7499997 0 0 0 -3.75,-3.75 z m 15,0 a 3.7499997,3.7499997 0 0 0 -3.75,3.75 3.7499997,3.7499997 0 0 0 3.75,3.75 3.7499997,3.7499997 0 0 0 3.75,-3.75 3.7499997,3.7499997 0 0 0 -3.75,-3.75 z m -172.49999,7.5 a 3.7499997,3.7499997 0 0 0 -3.75,3.75 3.7499997,3.7499997 0 0 0 3.75,3.75 3.7499997,3.7499997 0 0 0 3.75,-3.75 3.7499997,3.7499997 0 0 0 -3.75,-3.75 z m 15,0 a 3.7499997,3.7499997 0 0 0 -3.75,3.75 3.7499997,3.7499997 0 0 0 3.75,3.75 3.7499997,3.7499997 0 0 0 3.75,-3.75 3.7499997,3.7499997 0 0 0 -3.75,-3.75 z m 15,0 a 3.7499997,3.7499997 0 0 0 -3.75,3.75 3.7499997,3.7499997 0 0 0 3.75,3.75 3.7499997,3.7499997 0 0 0 3.75,-3.75 3.7499997,3.7499997 0 0 0 -3.75,-3.75 z m 15,0 a 3.7499997,3.7499997 0 0 0 -3.75,3.75 3.7499997,3.7499997 0 0 0 3.75,3.75 3.7499997,3.7499997 0 0 0 3.75,-3.75 3.7499997,3.7499997 0 0 0 -3.75,-3.75 z m 15,0 a 3.7499997,3.7499997 0 0 0 -3.75,3.75 3.7499997,3.7499997 0 0 0 3.75,3.75 3.7499997,3.7499997 0 0 0 3.74999,-3.75 3.7499997,3.7499997 0 0 0 -3.74999,-3.75 z m 14.99999,0 a 3.7499997,3.7499997 0 0 0 -3.75,3.75 3.7499997,3.7499997 0 0 0 3.75,3.75 3.7499997,3.7499997 0 0 0 3.75,-3.75 3.7499997,3.7499997 0 0 0 -3.75,-3.75 z m 15,0 a 3.7499997,3.7499997 0 0 0 -3.75,3.75 3.7499997,3.7499997 0 0 0 3.75,3.75 3.7499997,3.7499997 0 0 0 3.75,-3.75 3.7499997,3.7499997 0 0 0 -3.75,-3.75 z m 15,0 a 3.7499997,3.7499997 0 0 0 -3.75,3.75 3.7499997,3.7499997 0 0 0 3.75,3.75 3.7499997,3.7499997 0 0 0 3.75,-3.75 3.7499997,3.7499997 0 0 0 -3.75,-3.75 z m 15,0 a 3.7499997,3.7499997 0 0 0 -3.75,3.75 3.7499997,3.7499997 0 0 0 3.75,3.75 3.7499997,3.7499997 0 0 0 3.75,-3.75 3.7499997,3.7499997 0 0 0 -3.75,-3.75 z m 15,0 a 3.7499997,3.7499997 0 0 0 -3.75,3.75 3.7499997,3.7499997 0 0 0 3.75,3.75 3.7499997,3.7499997 0 0 0 3.75,-3.75 3.7499997,3.7499997 0 0 0 -3.75,-3.75 z m 15,0 a 3.7499997,3.7499997 0 0 0 -3.75,3.75 3.7499997,3.7499997 0 0 0 3.75,3.75 3.7499997,3.7499997 0 0 0 3.75,-3.75 3.7499997,3.7499997 0 0 0 -3.75,-3.75 z m 15,0 a 3.7499997,3.7499997 0 0 0 -3.75,3.75 3.7499997,3.7499997 0 0 0 3.75,3.75 3.7499997,3.7499997 0 0 0 3.75,-3.75 3.7499997,3.7499997 0 0 0 -3.75,-3.75 z m -157.49999,7.5 a 3.7499997,3.7499997 0 0 0 -3.75,3.75 3.7499997,3.7499997 0 0 0 3.75,3.75 3.7499997,3.7499997 0 0 0 3.75,-3.75 3.7499997,3.7499997 0 0 0 -3.75,-3.75 z m 15,0 a 3.7499997,3.7499997 0 0 0 -3.75,3.75 3.7499997,3.7499997 0 0 0 3.75,3.75 3.7499997,3.7499997 0 0 0 3.75,-3.75 3.7499997,3.7499997 0 0 0 -3.75,-3.75 z m 15,0 a 3.7499997,3.7499997 0 0 0 -3.75,3.75 3.7499997,3.7499997 0 0 0 3.75,3.75 3.7499997,3.7499997 0 0 0 3.75,-3.75 3.7499997,3.7499997 0 0 0 -3.75,-3.75 z m 15,0 a 3.7499997,3.7499997 0 0 0 -3.75,3.75 3.7499997,3.7499997 0 0 0 3.75,3.75 3.7499997,3.7499997 0 0 0 3.75,-3.75 3.7499997,3.7499997 0 0 0 -3.75,-3.75 z m 14.99999,0 a 3.7499997,3.7499997 0 0 0 -3.75,3.75 3.7499997,3.7499997 0 0 0 3.75,3.75 3.7499997,3.7499997 0 0 0 3.75,-3.75 3.7499997,3.7499997 0 0 0 -3.75,-3.75 z m 15,0 a 3.7499997,3.7499997 0 0 0 -3.75,3.75 3.7499997,3.7499997 0 0 0 3.75,3.75 3.7499997,3.7499997 0 0 0 3.75,-3.75 3.7499997,3.7499997 0 0 0 -3.75,-3.75 z m 15,0 a 3.7499997,3.7499997 0 0 0 -3.75,3.75 3.7499997,3.7499997 0 0 0 3.75,3.75 3.7499997,3.7499997 0 0 0 3.75,-3.75 3.7499997,3.7499997 0 0 0 -3.75,-3.75 z m 15,0 a 3.7499997,3.7499997 0 0 0 -3.75,3.75 3.7499997,3.7499997 0 0 0 3.75,3.75 3.7499997,3.7499997 0 0 0 3.75,-3.75 3.7499997,3.7499997 0 0 0 -3.75,-3.75 z m 15,0 a 3.7499997,3.7499997 0 0 0 -3.75,3.75 3.7499997,3.7499997 0 0 0 3.75,3.75 3.7499997,3.7499997 0 0 0 3.75,-3.75 3.7499997,3.7499997 0 0 0 -3.75,-3.75 z m 15,0 a 3.7499997,3.7499997 0 0 0 -3.75,3.75 3.7499997,3.7499997 0 0 0 3.75,3.75 3.7499997,3.7499997 0 0 0 3.75,-3.75 3.7499997,3.7499997 0 0 0 -3.75,-3.75 z m 15,0 a 3.7499997,3.7499997 0 0 0 -3.75,3.75 3.7499997,3.7499997 0 0 0 3.75,3.75 3.7499997,3.7499997 0 0 0 3.75,-3.75 3.7499997,3.7499997 0 0 0 -3.75,-3.75 z m 15,0 a 3.7499997,3.7499997 0 0 0 -3.75,3.75 3.7499997,3.7499997 0 0 0 3.75,3.75 3.7499997,3.7499997 0 0 0 3.75,-3.75 3.7499997,3.7499997 0 0 0 -3.75,-3.75 z" />
  <rect
     style="color:#000000;overflow:visible;fill:#ffffff;stroke:#000080;stroke-width:5;stroke-linecap:round;stroke-linejoin:round;stroke-miterlimit:4;stroke-dasharray:none;stroke-dashoffset:20;stroke-opacity:1"
     id="rect837"
     width="96"
     height="71"
     x="47.285152"
     y="-265.36432"
     ry="0" />
  <path
     d="m -214.49961,-327.25943 -52.41212,52.41406 1.41407,1.41407 52.41211,-52.41407 z m 5.3457,0 -52.41407,52.41406 1.41406,1.41407 52.41407,-52.41407 z m 5.3457,0 -52.41406,52.41406 1.41406,1.41407 52.41407,-52.41407 z m 5.34571,0 c 0,0 -49.81506,49.81506 -52.41407,52.41406 l 1.41406,1.41407 52.41407,-52.41407 z m 5.34375,0 -52.41212,52.41406 1.41406,1.41407 52.41407,-52.41407 z m 5.3457,0 -52.41211,52.41406 1.41406,1.41407 52.41211,-52.41407 z m 5.3457,0 c 0,0 -49.81504,49.81505 -52.41407,52.41406 l 1.41407,1.41407 c 2.599,-2.59901 52.41406,-52.41407 52.41406,-52.41407 z m 5.34571,0 c 0,0 -49.81506,49.81506 -52.41407,52.41406 l 1.41407,1.41407 c 2.59901,-2.59902 52.41406,-52.41407 52.41406,-52.41407 z m 5.3457,0 c 0,0 -49.81506,49.81506 -52.41406,52.41406 l 1.41406,1.41407 c 2.59901,-2.59902 52.41406,-52.41407 52.41406,-52.41407 z m 5.34374,0 -52.4121,52.41406 1.41406,1.41407 52.41406,-52.41407 z m 5.34571,0 -52.41211,52.41406 1.41406,1.41407 52.41211,-52.41407 z m 5.3457,0 -52.41406,52.41406 1.41602,1.41407 c 2.59901,-2.59902 52.4121,-52.41407 52.4121,-52.41407 z m 5.3457,0 -52.41405,52.41406 1.41406,1.41407 52.41406,-52.41407 z m 5.34571,0 -52.41406,52.41406 1.41406,1.41407 52.41406,-52.41407 z m 5.3457,0 -52.41406,52.41406 1.41406,1.41407 52.41406,-52.41407 z m 5.34375,0 -52.41211,52.41406 1.41407,1.41407 52.4121,-52.41407 z m 5.3457,0 -52.41406,52.41406 1.41602,1.41407 52.4121,-52.41407 z m 5.34571,0 -52.41406,52.41406 1.41406,1.41407 52.41406,-52.41407 z m 5.3457,0 -52.41406,52.41406 1.41406,1.41407 c 2.599,-2.59901 52.41406,-52.41407 52.41406,-52.41407 z m 5.3457,0 -52.41406,52.41406 1.41406,1.41407 52.41406,-52.41407 z m 5.34375,0 -52.41211,52.41406 1.41406,1.41407 52.41211,-52.41407 z m 5.3457,0 -52.4121,52.41406 1.41406,1.41407 52.41211,-52.41407 z m 5.345711,0 -52.414061,52.41406 1.41406,1.41407 52.414061,-52.41407 z m 5.3457,0 -52.414061,52.41406 1.41406,1.41407 52.414061,-52.41407 z"
     style="color:#000000;font-style:normal;font-variant:normal;font-weight:normal;font-stretch:normal;font-size:medium;line-height:normal;font-family:sans-serif;font-variant-ligatures:normal;font-variant-position:normal;font-variant-caps:normal;font-variant-numeric:normal;font-variant-alternates:normal;font-variant-east-asian:normal;font-feature-settings:normal;font-variation-settings:normal;text-indent:0;text-align:start;text-decoration:none;text-decoration-line:none;text-decoration-style:solid;text-decoration-color:#000000;letter-spacing:normal;word-spacing:normal;text-transform:none;writing-mode:lr-tb;direction:ltr;text-orientation:mixed;dominant-baseline:auto;baseline-shift:baseline;text-anchor:start;white-space:normal;shape-padding:0;shape-margin:0;inline-size:0;clip-rule:nonzero;display:inline;overflow:visible;visibility:visible;opacity:1;isolation:auto;mix-blend-mode:normal;color-interpolation:sRGB;color-interpolation-filters:linearRGB;solid-color:#000000;solid-opacity:1;vector-effect:none;fill:#000080;fill-opacity:1;fill-rule:evenodd;stroke:none;stroke-width:2;stroke-linecap:butt;stroke-linejoin:miter;stroke-miterlimit:4;stroke-dasharray:none;stroke-dashoffset:0;stroke-opacity:1;color-rendering:auto;image-rendering:auto;shape-rendering:auto;text-rendering:auto;enable-background:accumulate;stop-color:#000000;stop-opacity:1"
     id="path958" />
  <g
     transform="rotate(60,-127.05611,-324.73406)"
     id="g883">
    <circle
       r="20"
       cy="50"
       cx="33.7019"
       id="path830-9"
       style="color:#000000;overflow:visible;fill:#ffffff;stroke:#000080;stroke-width:5;stroke-linecap:round;stroke-linejoin:round;stroke-miterlimit:4;stroke-dasharray:none;stroke-dashoffset:20;stroke-opacity:1" />
    <g
       transform="rotate(-60,39.87859,46.991087)"
       id="g877">
      <path
         style="fill:none;fill-rule:evenodd;stroke:#000080;stroke-width:7;stroke-linecap:round;stroke-linejoin:miter;stroke-miterlimit:4;stroke-dasharray:none;stroke-opacity:1"
         d="M 48.754985,68.383276 64.988179,96.5"
         id="path851-6" />
      <path
         style="fill:none;fill-rule:evenodd;stroke:#000080;stroke-width:5;stroke-linecap:round;stroke-linejoin:miter;stroke-miterlimit:4;stroke-dasharray:none;stroke-opacity:1"
         d="m 44.638433,61.253203 4.271894,7.399136"
         id="path853-0" />
    </g>
  </g>
  <g
     transform="translate(-477.76446,-5.8932715)"
     id="g921">
    <path
       id="path875"
       d="m 60.564508,60.56451 c -12.915217,12.915217 -33.854923,12.915217 -46.770141,0 -12.9152169,-12.915219 -12.9152169,-33.854923 1e-6,-46.770141 12.915217,-12.91521748 33.854922,-12.91521748 46.77014,-10e-7 12.915218,12.915218 12.915218,33.854924 0,46.770142"
       style="color:#000000;font-style:normal;font-variant:normal;font-weight:normal;font-stretch:normal;font-size:medium;line-height:normal;font-family:sans-serif;font-variant-ligatures:normal;font-variant-position:normal;font-variant-caps:normal;font-variant-numeric:normal;font-variant-alternates:normal;font-variant-east-asian:normal;font-feature-settings:normal;font-variation-settings:normal;text-indent:0;text-align:start;text-decoration:none;text-decoration-line:none;text-decoration-style:solid;text-decoration-color:#000000;letter-spacing:normal;word-spacing:normal;text-transform:none;writing-mode:lr-tb;direction:ltr;text-orientation:mixed;dominant-baseline:auto;baseline-shift:baseline;text-anchor:start;white-space:normal;shape-padding:0;shape-margin:0;inline-size:0;clip-rule:nonzero;display:inline;overflow:visible;visibility:visible;isolation:auto;mix-blend-mode:normal;color-interpolation:sRGB;color-interpolation-filters:linearRGB;solid-color:#000000;solid-opacity:1;vector-effect:none;fill:#ffffff;fill-opacity:1;fill-rule:nonzero;stroke:none;stroke-width:8.26787;stroke-linecap:round;stroke-linejoin:round;stroke-miterlimit:4;stroke-dasharray:none;stroke-dashoffset:20;stroke-opacity:1;color-rendering:auto;image-rendering:auto;shape-rendering:auto;text-rendering:auto;enable-background:accumulate;stop-color:#000000" />
    <path
       d="m 37.179688,0 c -9.530233,0 -19.061096,3.6235956 -26.308594,10.871094 -14.4949966,14.494996 -14.4949966,38.122191 0,52.617187 13.568165,13.568166 35.097661,14.366388 49.685547,2.527344 l 3.576171,3.576172 a 3.9563019,5.9576969 45 0 0 0.646485,3.613281 L 90.730469,99.15625 a 3.9563019,5.9576969 45 0 0 7.009765,-1.416016 3.9563019,5.9576969 45 0 0 1.416016,-7.009765 L 73.205078,64.779297 A 3.9563019,5.9576969 45 0 0 69.589844,64.132812 L 66.013672,60.556641 C 77.853048,45.968833 77.056526,24.439339 63.488281,10.871094 56.240783,3.6235956 46.70992,0 37.179688,0 Z m 0,8.2167969 c 7.397091,10e-8 14.795171,2.8342341 20.46289,8.5019531 11.335439,11.33544 11.335439,29.588389 0,40.923828 -11.335439,11.335439 -29.588388,11.335439 -40.923828,0 C 5.3833109,46.307139 5.3833109,28.05419 16.71875,16.71875 22.38647,11.05103 29.782596,8.2167968 37.179688,8.2167969 Z"
       style="color:#000000;font-style:normal;font-variant:normal;font-weight:normal;font-stretch:normal;font-size:medium;line-height:normal;font-family:sans-serif;font-variant-ligatures:normal;font-variant-position:normal;font-variant-caps:normal;font-variant-numeric:normal;font-variant-alternates:normal;font-variant-east-asian:normal;font-feature-settings:normal;font-variation-settings:normal;text-indent:0;text-align:start;text-decoration:none;text-decoration-line:none;text-decoration-style:solid;text-decoration-color:#000000;letter-spacing:normal;word-spacing:normal;text-transform:none;writing-mode:lr-tb;direction:ltr;text-orientation:mixed;dominant-baseline:auto;baseline-shift:baseline;text-anchor:start;white-space:normal;shape-padding:0;shape-margin:0;inline-size:0;clip-rule:nonzero;display:inline;overflow:visible;visibility:visible;isolation:auto;mix-blend-mode:normal;color-interpolation:sRGB;color-interpolation-filters:linearRGB;solid-color:#000000;solid-opacity:1;vector-effect:none;fill:#000080;fill-opacity:1;fill-rule:nonzero;stroke:none;stroke-width:8.26787;stroke-linecap:round;stroke-linejoin:round;stroke-miterlimit:4;stroke-dasharray:none;stroke-dashoffset:20;stroke-opacity:1;color-rendering:auto;image-rendering:auto;shape-rendering:auto;text-rendering:auto;enable-background:accumulate;stop-color:#000000"
       id="path877-7" />
  </g>
  <path
     d="m -452.96688,-129.81206 c -19.23835,0 -35.00153,15.71815 -35.00153,34.901543 0,7.43278 2.37357,14.339959 6.39169,20.019026 l 24.33853,42.073163 c 3.40849,4.452814 5.67492,3.607154 8.50902,-0.23458 l 26.84387,-45.683358 c 0.54231,-0.980988 0.96722,-2.025615 1.33822,-3.092271 1.65692,-4.04689 2.57868,-8.46157 2.57867,-13.08198 0,-19.183393 -15.76012,-34.901543 -34.99847,-34.901543 z m 0,16.354 c 10.3593,0 18.59762,8.21783 18.59762,18.547543 0,10.3297 -8.23832,18.544484 -18.59762,18.544484 -10.3593,0 -18.60067,-8.214784 -18.60067,-18.544484 0,-10.329713 8.24137,-18.547543 18.60067,-18.547543 z"
     style="fill:#000080;stroke-width:4.26019"
     id="path4135-0" />
  <g
     id="g985"
     transform="translate(-421.05603,131.07791)"
     style="fill:none;stroke:#000080">
    <circle
       r="30"
       cy="57.5"
       cx="32.5"
       id="path936"
       style="color:#000000;overflow:visible;fill:none;stroke:#000080;stroke-width:5;stroke-linecap:butt;stroke-linejoin:bevel;stroke-miterlimit:4;stroke-dasharray:none;stroke-dashoffset:50;stroke-opacity:1" />
    <circle
       style="color:#000000;overflow:visible;fill:none;stroke:#000080;stroke-width:5;stroke-linecap:butt;stroke-linejoin:bevel;stroke-miterlimit:4;stroke-dasharray:none;stroke-dashoffset:50;stroke-opacity:1"
       id="path936-4"
       cx="67.5"
       cy="50"
       r="30" />
  </g>
</svg>
