<?xml version="1.0" encoding="UTF-8" standalone="no"?>
<svg
   xmlns:dc="http://purl.org/dc/elements/1.1/"
   xmlns:cc="http://creativecommons.org/ns#"
   xmlns:rdf="http://www.w3.org/1999/02/22-rdf-syntax-ns#"
   xmlns:svg="http://www.w3.org/2000/svg"
   xmlns="http://www.w3.org/2000/svg"
   xmlns:sodipodi="http://sodipodi.sourceforge.net/DTD/sodipodi-0.dtd"
   xmlns:inkscape="http://www.inkscape.org/namespaces/inkscape"
   version="1.1"
   width="100"
   height="100"
   id="svg4460"
   sodipodi:docname="utils.svg"
   inkscape:version="1.0 (4035a4fb49, 2020-05-01)">
  <sodipodi:namedview
     pagecolor="#ffffff"
     bordercolor="#666666"
     borderopacity="1"
     objecttolerance="10"
     gridtolerance="10"
     guidetolerance="10"
     inkscape:pageopacity="0"
     inkscape:pageshadow="2"
     inkscape:window-width="1920"
     inkscape:window-height="1017"
     id="namedview11"
     showgrid="false"
     inkscape:zoom="2"
     inkscape:cx="-550.81323"
     inkscape:cy="94.626574"
     inkscape:window-x="-8"
     inkscape:window-y="-8"
     inkscape:window-maximized="1"
     inkscape:current-layer="svg4460"
     inkscape:document-rotation="0" />
  <defs
     id="defs4462">
    <clipPath
       id="a">
      <path
         d="M 0,841.89 H 595.28 V 0 H 0 Z"
         id="path4138" />
    </clipPath>
    <clipPath
       id="a-4">
      <path
         d="M 0,841.89 H 595.28 V 0 H 0 Z"
         id="path4138-6" />
    </clipPath>
  </defs>
  <metadata
     id="metadata4465">
    <rdf:RDF>
      <cc:Work
         rdf:about="">
        <dc:format>image/svg+xml</dc:format>
        <dc:type
           rdf:resource="http://purl.org/dc/dcmitype/StillImage" />
        <dc:title></dc:title>
      </cc:Work>
    </rdf:RDF>
  </metadata>
  <path
     id="path967"
     style="color:#000000;font-style:normal;font-variant:normal;font-weight:normal;font-stretch:normal;font-size:medium;line-height:normal;font-family:sans-serif;font-variant-ligatures:normal;font-variant-position:normal;font-variant-caps:normal;font-variant-numeric:normal;font-variant-alternates:normal;font-variant-east-asian:normal;font-feature-settings:normal;font-variation-settings:normal;text-indent:0;text-align:start;text-decoration:none;text-decoration-line:none;text-decoration-style:solid;text-decoration-color:#000000;letter-spacing:normal;word-spacing:normal;text-transform:none;writing-mode:lr-tb;direction:ltr;text-orientation:mixed;dominant-baseline:auto;baseline-shift:baseline;text-anchor:start;white-space:normal;shape-padding:0;shape-margin:0;inline-size:0;clip-rule:nonzero;display:inline;overflow:visible;visibility:visible;opacity:1;isolation:auto;mix-blend-mode:normal;color-interpolation:sRGB;color-interpolation-filters:linearRGB;solid-color:#000000;solid-opacity:1;vector-effect:none;fill:#000080;fill-opacity:1;fill-rule:evenodd;stroke:none;stroke-width:3;stroke-linecap:butt;stroke-linejoin:miter;stroke-miterlimit:4;stroke-dasharray:none;stroke-dashoffset:0;stroke-opacity:1;color-rendering:auto;image-rendering:auto;shape-rendering:auto;text-rendering:auto;enable-background:accumulate;stop-color:#000000;stop-opacity:1"
     d="m 147.16551,-116.94437 a 2.50025,2.50025 0 0 0 -1.07617,0.23243 l -31.66602,14.71093 a 2.50025,2.50025 0 0 0 -1.44726,2.267583 v 70.289062 a 2.50025,2.50025 0 0 0 3.55273,2.267578 l 30.61328,-14.220703 30.61328,14.220703 a 2.50025,2.50025 0 0 0 2.10742,0 l 31.66602,-14.710937 a 2.50025,2.50025 0 0 0 1.44727,-2.267578 v -70.289068 a 2.50025,2.50025 0 0 0 -3.55274,-2.26757 l -30.61328,14.2207 -30.61328,-14.2207 a 2.50025,2.50025 0 0 0 -1.03125,-0.23243 z m 1.45703,5.94336 28.67578,13.32227 -0.36914,64.605469 -28.67578,-13.322266 z m -3,0.0195 -0.37109,64.949224 -27.27539,12.669921 v -64.775389 z m 62.35352,0.45508 v 64.777347 l -28.04883,13.029297 0.37109,-64.949219 z" />
  <circle
     style="opacity:1;fill:none;fill-opacity:0;stroke:#000080;stroke-width:7;stroke-linecap:round;stroke-linejoin:round;stroke-miterlimit:4;stroke-dasharray:none;stroke-dashoffset:0;stroke-opacity:1;paint-order:normal"
     id="path812"
     cx="-41.056187"
     cy="29.276724"
     r="9.0499887" />
  <path
     style="fill:#000000;fill-opacity:0;stroke:#000080;stroke-width:7;stroke-linecap:round;stroke-linejoin:round;stroke-miterlimit:4;stroke-dasharray:none;stroke-opacity:1"
     d="m -106.78503,93.516309 20.709899,-42.80032 40.039,10.58503 14.266703,43.490651"
     id="path822"
     inkscape:connector-curvature="0" />
  <path
     style="fill:none;fill-opacity:1;stroke:#000080;stroke-width:7;stroke-linecap:round;stroke-linejoin:round;stroke-miterlimit:4;stroke-dasharray:none;stroke-opacity:1"
     d="m -108.62283,156.88771 20.709799,-42.80033 40.0391,10.58503 14.266703,43.49066 z"
     id="path822-1"
     inkscape:connector-curvature="0" />
  <path
     d="m 53.228683,53.215972 c 3.295967,0.380868 6.388979,-0.629181 8.751232,-2.857827 2.398658,-2.26273 3.47761,-4.748632 3.47761,-8.012494 0,-3.304401 -1.089861,-5.779699 -3.560186,-8.086863 -1.091764,-1.019423 -2.527026,-1.856721 -4.091672,-2.386772 -1.279368,-0.433497 -4.11463,-0.541443 -5.63564,-0.214636 -1.693394,0.363743 -3.708343,1.41895 -4.983022,2.609348 -2.385339,2.227492 -3.528221,4.84501 -3.528221,8.079037 0,1.938816 0.282232,3.153075 1.145165,4.923756 0.627761,1.288007 0.863187,1.609257 2.036132,2.77988 1.02111,1.019145 1.581266,1.455025 2.435701,1.895004 1.40761,0.724861 2.633449,1.119162 3.952901,1.271681 z m 0.619389,26.528127 C 53.616198,79.602831 52.576949,78.588913 51.537826,77.490781 43.57849,69.079129 38.022255,60.8967 35.006238,53.144685 34.098782,50.812482 33.762513,49.634691 33.407217,47.546768 32.317357,41.144077 33.622602,34.890392 37.156404,29.5707 c 1.345329,-2.024918 4.074547,-4.770271 6.022902,-6.058633 7.109087,-4.701154 15.674997,-4.681594 22.816807,0.05213 1.853474,1.228414 4.60971,4.021106 5.921805,5.999877 2.402337,3.623318 3.682593,7.342354 4.071503,11.828681 0.317495,3.661574 -0.229084,7.236094 -1.711406,11.216521 -2.884859,7.741538 -8.128926,15.468489 -17.160741,25.286483 -2.016344,2.191797 -2.374049,2.394218 -3.269202,1.848374 z"
     style="fill:#000080;stroke-width:2.72726"
     id="path4135"
     inkscape:connector-curvature="0" />
  <path
     sodipodi:nodetypes="ccccc"
     style="fill:none;fill-opacity:1;stroke:#000080;stroke-width:7;stroke-linecap:round;stroke-linejoin:round;stroke-miterlimit:4;stroke-dasharray:none;stroke-opacity:1"
     d="m -68.089211,-44.526042 -24.6346,29.01569 93.00079952,-0.065 -24.57940252,-28.95065 z"
     id="path897"
     inkscape:connector-curvature="0" />
  <rect
     style="opacity:1;fill:none;fill-opacity:1;stroke:#000080;stroke-width:7.62166999;stroke-linecap:round;stroke-linejoin:round;stroke-miterlimit:4;stroke-dasharray:none;stroke-dashoffset:0;stroke-opacity:1;paint-order:normal"
     id="rect921"
     width="51.644939"
     height="51.644939"
     x="-142.13924"
     y="-92.355026"
     transform="matrix(0.87666883,-0.48109433,0.87666883,0.48109433,0,0)" />
  <circle
     style="opacity:1;fill:#000080;fill-opacity:1;stroke:none;stroke-width:7.01427;stroke-linecap:round;stroke-linejoin:round;stroke-miterlimit:4;stroke-dasharray:none;stroke-dashoffset:0;stroke-opacity:1;paint-order:normal"
     id="path981"
     cx="-195.78871"
     cy="98.851883"
     r="7.4999995" />
  <path
     style="fill:#000000;fill-opacity:0;stroke:#000080;stroke-width:5;stroke-linecap:round;stroke-linejoin:round;stroke-miterlimit:4;stroke-dasharray:none;stroke-opacity:1"
     d="m -181.19193,117.08615 24.4554,17.0297 6.1386,-39.009901"
     id="path983"
     inkscape:connector-curvature="0" />
  <path
     d="m -144.81163,-52.579208 v 7.767578 h -7.76758 v 5.464844 h 7.76758 v 7.767578 h 5.46484 v -7.767578 h 7.76758 v -5.464844 h -7.76758 v -7.767578 z"
     style="color:#000000;font-style:normal;font-variant:normal;font-weight:normal;font-stretch:normal;font-size:medium;line-height:normal;font-family:sans-serif;font-variant-ligatures:normal;font-variant-position:normal;font-variant-caps:normal;font-variant-numeric:normal;font-variant-alternates:normal;font-variant-east-asian:normal;font-feature-settings:normal;font-variation-settings:normal;text-indent:0;text-align:start;text-decoration:none;text-decoration-line:none;text-decoration-style:solid;text-decoration-color:#000000;letter-spacing:normal;word-spacing:normal;text-transform:none;writing-mode:lr-tb;direction:ltr;text-orientation:mixed;dominant-baseline:auto;baseline-shift:baseline;text-anchor:start;white-space:normal;shape-padding:0;shape-margin:0;inline-size:0;clip-rule:nonzero;display:inline;overflow:visible;visibility:visible;opacity:1;isolation:auto;mix-blend-mode:normal;color-interpolation:sRGB;color-interpolation-filters:linearRGB;solid-color:#000000;solid-opacity:1;vector-effect:none;fill:#000080;fill-opacity:1;fill-rule:evenodd;stroke:none;stroke-width:5.46564;stroke-linecap:butt;stroke-linejoin:miter;stroke-miterlimit:4;stroke-dasharray:none;stroke-dashoffset:0;stroke-opacity:1;color-rendering:auto;image-rendering:auto;shape-rendering:auto;text-rendering:auto;enable-background:accumulate;stop-color:#000000;stop-opacity:1"
     id="path879" />
  <circle
     style="opacity:1;fill:#000000;fill-opacity:0;stroke:#000080;stroke-width:7.00024;stroke-linecap:round;stroke-linejoin:round;stroke-miterlimit:4;stroke-dasharray:none;stroke-dashoffset:0;stroke-opacity:1;paint-order:normal"
     id="path812-3"
     cx="-258.41583"
     cy="-77.227722"
     r="46.499882" />
  <path
     d="m 55.264787,-95.183527 39.60396,-18.027143 v 86.138618 l -39.60396,18.0271384 z"
     style="color:#000000;overflow:visible;fill:#ffffff;stroke:#000080;stroke-width:1;stroke-linecap:round;stroke-linejoin:bevel;stroke-miterlimit:4;stroke-dasharray:none;stroke-dashoffset:188.976"
     id="rect870-3" />
  <path
     d="m -460.78545,-373.70308 a 3.7499997,3.7499997 0 0 0 -3.73144,3.75 3.7499997,3.7499997 0 0 0 3.75,3.75 3.7499997,3.7499997 0 0 0 3.75,-3.75 3.7499997,3.7499997 0 0 0 -3.75,-3.75 3.7499997,3.7499997 0 0 0 -0.0186,0 z m 15,0 a 3.7499997,3.7499997 0 0 0 -3.73144,3.75 3.7499997,3.7499997 0 0 0 3.75,3.75 3.7499997,3.7499997 0 0 0 3.75,-3.75 3.7499997,3.7499997 0 0 0 -3.75,-3.75 3.7499997,3.7499997 0 0 0 -0.0186,0 z m 15,0 a 3.7499997,3.7499997 0 0 0 -3.73144,3.75 3.7499997,3.7499997 0 0 0 3.75,3.75 3.7499997,3.7499997 0 0 0 3.75,-3.75 3.7499997,3.7499997 0 0 0 -3.75,-3.75 3.7499997,3.7499997 0 0 0 -0.0186,0 z m 15,0 a 3.7499997,3.7499997 0 0 0 -3.73144,3.75 3.7499997,3.7499997 0 0 0 3.75,3.75 3.7499997,3.7499997 0 0 0 3.75,-3.75 3.7499997,3.7499997 0 0 0 -3.75,-3.75 3.7499997,3.7499997 0 0 0 -0.0186,0 z m 15,0 a 3.7499997,3.7499997 0 0 0 -3.73144,3.75 3.7499997,3.7499997 0 0 0 3.75,3.75 3.7499997,3.7499997 0 0 0 3.74999,-3.75 3.7499997,3.7499997 0 0 0 -3.74999,-3.75 3.7499997,3.7499997 0 0 0 -0.0186,0 z m 15,0 a 3.7499997,3.7499997 0 0 0 -3.73145,3.75 3.7499997,3.7499997 0 0 0 3.75,3.75 3.7499997,3.7499997 0 0 0 3.75,-3.75 3.7499997,3.7499997 0 0 0 -3.75,-3.75 3.7499997,3.7499997 0 0 0 -0.0186,0 z m 15,0 a 3.7499997,3.7499997 0 0 0 -3.73145,3.75 3.7499997,3.7499997 0 0 0 3.75,3.75 3.7499997,3.7499997 0 0 0 3.75,-3.75 3.7499997,3.7499997 0 0 0 -3.75,-3.75 3.7499997,3.7499997 0 0 0 -0.0186,0 z m 15,0 a 3.7499997,3.7499997 0 0 0 -3.73145,3.75 3.7499997,3.7499997 0 0 0 3.75,3.75 3.7499997,3.7499997 0 0 0 3.75,-3.75 3.7499997,3.7499997 0 0 0 -3.75,-3.75 3.7499997,3.7499997 0 0 0 -0.0186,0 z m 15,0 a 3.7499997,3.7499997 0 0 0 -3.73145,3.75 3.7499997,3.7499997 0 0 0 3.75,3.75 3.7499997,3.7499997 0 0 0 3.75,-3.75 3.7499997,3.7499997 0 0 0 -3.75,-3.75 3.7499997,3.7499997 0 0 0 -0.0186,0 z m 14.99999,0 a 3.7499997,3.7499997 0 0 0 -3.73144,3.75 3.7499997,3.7499997 0 0 0 3.75,3.75 3.7499997,3.7499997 0 0 0 3.75,-3.75 3.7499997,3.7499997 0 0 0 -3.75,-3.75 3.7499997,3.7499997 0 0 0 -0.0186,0 z m 15,0 a 3.7499997,3.7499997 0 0 0 -3.73144,3.75 3.7499997,3.7499997 0 0 0 3.75,3.75 3.7499997,3.7499997 0 0 0 3.75,-3.75 3.7499997,3.7499997 0 0 0 -3.75,-3.75 3.7499997,3.7499997 0 0 0 -0.0186,0 z m 15,0 a 3.7499997,3.7499997 0 0 0 -3.73144,3.75 3.7499997,3.7499997 0 0 0 3.75,3.75 3.7499997,3.7499997 0 0 0 3.75,-3.75 3.7499997,3.7499997 0 0 0 -3.75,-3.75 3.7499997,3.7499997 0 0 0 -0.0186,0 z m -157.49999,7.5 a 3.7499997,3.7499997 0 0 0 -3.73144,3.75 3.7499997,3.7499997 0 0 0 3.75,3.75 3.7499997,3.7499997 0 0 0 3.75,-3.75 3.7499997,3.7499997 0 0 0 -3.75,-3.75 3.7499997,3.7499997 0 0 0 -0.0186,0 z m 15,0 a 3.7499997,3.7499997 0 0 0 -3.73144,3.75 3.7499997,3.7499997 0 0 0 3.75,3.75 3.7499997,3.7499997 0 0 0 3.75,-3.75 3.7499997,3.7499997 0 0 0 -3.75,-3.75 3.7499997,3.7499997 0 0 0 -0.0186,0 z m 15,0 a 3.7499997,3.7499997 0 0 0 -3.73144,3.75 3.7499997,3.7499997 0 0 0 3.75,3.75 3.7499997,3.7499997 0 0 0 3.75,-3.75 3.7499997,3.7499997 0 0 0 -3.75,-3.75 3.7499997,3.7499997 0 0 0 -0.0186,0 z m 15,0 a 3.7499997,3.7499997 0 0 0 -3.73144,3.75 3.7499997,3.7499997 0 0 0 3.75,3.75 3.7499997,3.7499997 0 0 0 3.75,-3.75 3.7499997,3.7499997 0 0 0 -3.75,-3.75 3.7499997,3.7499997 0 0 0 -0.0186,0 z m 15,0 a 3.7499997,3.7499997 0 0 0 -3.73145,3.75 3.7499997,3.7499997 0 0 0 3.75,3.75 3.7499997,3.7499997 0 0 0 3.75,-3.75 3.7499997,3.7499997 0 0 0 -3.75,-3.75 3.7499997,3.7499997 0 0 0 -0.0186,0 z m 15,0 a 3.7499997,3.7499997 0 0 0 -3.73145,3.75 3.7499997,3.7499997 0 0 0 3.75,3.75 3.7499997,3.7499997 0 0 0 3.75,-3.75 3.7499997,3.7499997 0 0 0 -3.75,-3.75 3.7499997,3.7499997 0 0 0 -0.0186,0 z m 15,0 a 3.7499997,3.7499997 0 0 0 -3.73145,3.75 3.7499997,3.7499997 0 0 0 3.75,3.75 3.7499997,3.7499997 0 0 0 3.75,-3.75 3.7499997,3.7499997 0 0 0 -3.75,-3.75 3.7499997,3.7499997 0 0 0 -0.0186,0 z m 15,0 a 3.7499997,3.7499997 0 0 0 -3.73145,3.75 3.7499997,3.7499997 0 0 0 3.75,3.75 3.7499997,3.7499997 0 0 0 3.75,-3.75 3.7499997,3.7499997 0 0 0 -3.75,-3.75 3.7499997,3.7499997 0 0 0 -0.0186,0 z m 14.99999,0 a 3.7499997,3.7499997 0 0 0 -3.73144,3.75 3.7499997,3.7499997 0 0 0 3.75,3.75 3.7499997,3.7499997 0 0 0 3.75,-3.75 3.7499997,3.7499997 0 0 0 -3.75,-3.75 3.7499997,3.7499997 0 0 0 -0.0186,0 z m 15,0 a 3.7499997,3.7499997 0 0 0 -3.73144,3.75 3.7499997,3.7499997 0 0 0 3.75,3.75 3.7499997,3.7499997 0 0 0 3.75,-3.75 3.7499997,3.7499997 0 0 0 -3.75,-3.75 3.7499997,3.7499997 0 0 0 -0.0186,0 z m 15,0 a 3.7499997,3.7499997 0 0 0 -3.73144,3.75 3.7499997,3.7499997 0 0 0 3.75,3.75 3.7499997,3.7499997 0 0 0 3.75,-3.75 3.7499997,3.7499997 0 0 0 -3.75,-3.75 3.7499997,3.7499997 0 0 0 -0.0186,0 z m 15,0 a 3.7499997,3.7499997 0 0 0 -3.73144,3.75 3.7499997,3.7499997 0 0 0 3.75,3.75 3.7499997,3.7499997 0 0 0 3.75,-3.75 3.7499997,3.7499997 0 0 0 -3.75,-3.75 3.7499997,3.7499997 0 0 0 -0.0186,0 z m -172.49999,7.5 a 3.7499997,3.7499997 0 0 0 -3.73144,3.75 3.7499997,3.7499997 0 0 0 3.75,3.75 3.7499997,3.7499997 0 0 0 3.75,-3.75 3.7499997,3.7499997 0 0 0 -3.75,-3.75 3.7499997,3.7499997 0 0 0 -0.0186,0 z m 15,0 a 3.7499997,3.7499997 0 0 0 -3.73144,3.75 3.7499997,3.7499997 0 0 0 3.75,3.75 3.7499997,3.7499997 0 0 0 3.75,-3.75 3.7499997,3.7499997 0 0 0 -3.75,-3.75 3.7499997,3.7499997 0 0 0 -0.0186,0 z m 15,0 a 3.7499997,3.7499997 0 0 0 -3.73144,3.75 3.7499997,3.7499997 0 0 0 3.75,3.75 3.7499997,3.7499997 0 0 0 3.75,-3.75 3.7499997,3.7499997 0 0 0 -3.75,-3.75 3.7499997,3.7499997 0 0 0 -0.0186,0 z m 15,0 a 3.7499997,3.7499997 0 0 0 -3.73144,3.75 3.7499997,3.7499997 0 0 0 3.75,3.75 3.7499997,3.7499997 0 0 0 3.75,-3.75 3.7499997,3.7499997 0 0 0 -3.75,-3.75 3.7499997,3.7499997 0 0 0 -0.0186,0 z m 15,0 a 3.7499997,3.7499997 0 0 0 -3.73144,3.75 3.7499997,3.7499997 0 0 0 3.75,3.75 3.7499997,3.7499997 0 0 0 3.74999,-3.75 3.7499997,3.7499997 0 0 0 -3.74999,-3.75 3.7499997,3.7499997 0 0 0 -0.0186,0 z m 15,0 a 3.7499997,3.7499997 0 0 0 -3.73145,3.75 3.7499997,3.7499997 0 0 0 3.75,3.75 3.7499997,3.7499997 0 0 0 3.75,-3.75 3.7499997,3.7499997 0 0 0 -3.75,-3.75 3.7499997,3.7499997 0 0 0 -0.0186,0 z m 15,0 a 3.7499997,3.7499997 0 0 0 -3.73145,3.75 3.7499997,3.7499997 0 0 0 3.75,3.75 3.7499997,3.7499997 0 0 0 3.75,-3.75 3.7499997,3.7499997 0 0 0 -3.75,-3.75 3.7499997,3.7499997 0 0 0 -0.0186,0 z m 15,0 a 3.7499997,3.7499997 0 0 0 -3.73145,3.75 3.7499997,3.7499997 0 0 0 3.75,3.75 3.7499997,3.7499997 0 0 0 3.75,-3.75 3.7499997,3.7499997 0 0 0 -3.75,-3.75 3.7499997,3.7499997 0 0 0 -0.0186,0 z m 15,0 a 3.7499997,3.7499997 0 0 0 -3.73145,3.75 3.7499997,3.7499997 0 0 0 3.75,3.75 3.7499997,3.7499997 0 0 0 3.75,-3.75 3.7499997,3.7499997 0 0 0 -3.75,-3.75 3.7499997,3.7499997 0 0 0 -0.0186,0 z m 14.99999,0 a 3.7499997,3.7499997 0 0 0 -3.73144,3.75 3.7499997,3.7499997 0 0 0 3.75,3.75 3.7499997,3.7499997 0 0 0 3.75,-3.75 3.7499997,3.7499997 0 0 0 -3.75,-3.75 3.7499997,3.7499997 0 0 0 -0.0186,0 z m 15,0 a 3.7499997,3.7499997 0 0 0 -3.73144,3.75 3.7499997,3.7499997 0 0 0 3.75,3.75 3.7499997,3.7499997 0 0 0 3.75,-3.75 3.7499997,3.7499997 0 0 0 -3.75,-3.75 3.7499997,3.7499997 0 0 0 -0.0186,0 z m 15,0 a 3.7499997,3.7499997 0 0 0 -3.73144,3.75 3.7499997,3.7499997 0 0 0 3.75,3.75 3.7499997,3.7499997 0 0 0 3.75,-3.75 3.7499997,3.7499997 0 0 0 -3.75,-3.75 3.7499997,3.7499997 0 0 0 -0.0186,0 z m -157.49999,7.5 a 3.7499997,3.7499997 0 0 0 -3.73144,3.75 3.7499997,3.7499997 0 0 0 3.75,3.75 3.7499997,3.7499997 0 0 0 3.75,-3.75 3.7499997,3.7499997 0 0 0 -3.75,-3.75 3.7499997,3.7499997 0 0 0 -0.0186,0 z m 15,0 a 3.7499997,3.7499997 0 0 0 -3.73144,3.75 3.7499997,3.7499997 0 0 0 3.75,3.75 3.7499997,3.7499997 0 0 0 3.75,-3.75 3.7499997,3.7499997 0 0 0 -3.75,-3.75 3.7499997,3.7499997 0 0 0 -0.0186,0 z m 15,0 a 3.7499997,3.7499997 0 0 0 -3.73144,3.75 3.7499997,3.7499997 0 0 0 3.75,3.75 3.7499997,3.7499997 0 0 0 3.75,-3.75 3.7499997,3.7499997 0 0 0 -3.75,-3.75 3.7499997,3.7499997 0 0 0 -0.0186,0 z m 15,0 a 3.7499997,3.7499997 0 0 0 -3.73144,3.75 3.7499997,3.7499997 0 0 0 3.75,3.75 3.7499997,3.7499997 0 0 0 3.75,-3.75 3.7499997,3.7499997 0 0 0 -3.75,-3.75 3.7499997,3.7499997 0 0 0 -0.0186,0 z m 15,0 a 3.7499997,3.7499997 0 0 0 -3.73145,3.75 3.7499997,3.7499997 0 0 0 3.75,3.75 3.7499997,3.7499997 0 0 0 3.75,-3.75 3.7499997,3.7499997 0 0 0 -3.75,-3.75 3.7499997,3.7499997 0 0 0 -0.0186,0 z m 15,0 a 3.7499997,3.7499997 0 0 0 -3.73145,3.75 3.7499997,3.7499997 0 0 0 3.75,3.75 3.7499997,3.7499997 0 0 0 3.75,-3.75 3.7499997,3.7499997 0 0 0 -3.75,-3.75 3.7499997,3.7499997 0 0 0 -0.0186,0 z m 15,0 a 3.7499997,3.7499997 0 0 0 -3.73145,3.75 3.7499997,3.7499997 0 0 0 3.75,3.75 3.7499997,3.7499997 0 0 0 3.75,-3.75 3.7499997,3.7499997 0 0 0 -3.75,-3.75 3.7499997,3.7499997 0 0 0 -0.0186,0 z m 15,0 a 3.7499997,3.7499997 0 0 0 -3.73145,3.75 3.7499997,3.7499997 0 0 0 3.75,3.75 3.7499997,3.7499997 0 0 0 3.75,-3.75 3.7499997,3.7499997 0 0 0 -3.75,-3.75 3.7499997,3.7499997 0 0 0 -0.0186,0 z m 14.99999,0 a 3.7499997,3.7499997 0 0 0 -3.73144,3.75 3.7499997,3.7499997 0 0 0 3.75,3.75 3.7499997,3.7499997 0 0 0 3.75,-3.75 3.7499997,3.7499997 0 0 0 -3.75,-3.75 3.7499997,3.7499997 0 0 0 -0.0186,0 z m 15,0 a 3.7499997,3.7499997 0 0 0 -3.73144,3.75 3.7499997,3.7499997 0 0 0 3.75,3.75 3.7499997,3.7499997 0 0 0 3.75,-3.75 3.7499997,3.7499997 0 0 0 -3.75,-3.75 3.7499997,3.7499997 0 0 0 -0.0186,0 z m 15,0 a 3.7499997,3.7499997 0 0 0 -3.73144,3.75 3.7499997,3.7499997 0 0 0 3.75,3.75 3.7499997,3.7499997 0 0 0 3.75,-3.75 3.7499997,3.7499997 0 0 0 -3.75,-3.75 3.7499997,3.7499997 0 0 0 -0.0186,0 z m 15,0 a 3.7499997,3.7499997 0 0 0 -3.73144,3.75 3.7499997,3.7499997 0 0 0 3.75,3.75 3.7499997,3.7499997 0 0 0 3.75,-3.75 3.7499997,3.7499997 0 0 0 -3.75,-3.75 3.7499997,3.7499997 0 0 0 -0.0186,0 z m -172.49999,7.5 a 3.7499997,3.7499997 0 0 0 -3.73144,3.75 3.7499997,3.7499997 0 0 0 3.75,3.75 3.7499997,3.7499997 0 0 0 3.75,-3.75 3.7499997,3.7499997 0 0 0 -3.75,-3.75 3.7499997,3.7499997 0 0 0 -0.0186,0 z m 15,0 a 3.7499997,3.7499997 0 0 0 -3.73144,3.75 3.7499997,3.7499997 0 0 0 3.75,3.75 3.7499997,3.7499997 0 0 0 3.75,-3.75 3.7499997,3.7499997 0 0 0 -3.75,-3.75 3.7499997,3.7499997 0 0 0 -0.0186,0 z m 15,0 a 3.7499997,3.7499997 0 0 0 -3.73144,3.75 3.7499997,3.7499997 0 0 0 3.75,3.75 3.7499997,3.7499997 0 0 0 3.75,-3.75 3.7499997,3.7499997 0 0 0 -3.75,-3.75 3.7499997,3.7499997 0 0 0 -0.0186,0 z m 15,0 a 3.7499997,3.7499997 0 0 0 -3.73144,3.75 3.7499997,3.7499997 0 0 0 3.75,3.75 3.7499997,3.7499997 0 0 0 3.75,-3.75 3.7499997,3.7499997 0 0 0 -3.75,-3.75 3.7499997,3.7499997 0 0 0 -0.0186,0 z m 15,0 a 3.7499997,3.7499997 0 0 0 -3.73144,3.75 3.7499997,3.7499997 0 0 0 3.75,3.75 3.7499997,3.7499997 0 0 0 3.74999,-3.75 3.7499997,3.7499997 0 0 0 -3.74999,-3.75 3.7499997,3.7499997 0 0 0 -0.0186,0 z m 15,0 a 3.7499997,3.7499997 0 0 0 -3.73145,3.75 3.7499997,3.7499997 0 0 0 3.75,3.75 3.7499997,3.7499997 0 0 0 3.75,-3.75 3.7499997,3.7499997 0 0 0 -3.75,-3.75 3.7499997,3.7499997 0 0 0 -0.0186,0 z m 15,0 a 3.7499997,3.7499997 0 0 0 -3.73145,3.75 3.7499997,3.7499997 0 0 0 3.75,3.75 3.7499997,3.7499997 0 0 0 3.75,-3.75 3.7499997,3.7499997 0 0 0 -3.75,-3.75 3.7499997,3.7499997 0 0 0 -0.0186,0 z m 15,0 a 3.7499997,3.7499997 0 0 0 -3.73145,3.75 3.7499997,3.7499997 0 0 0 3.75,3.75 3.7499997,3.7499997 0 0 0 3.75,-3.75 3.7499997,3.7499997 0 0 0 -3.75,-3.75 3.7499997,3.7499997 0 0 0 -0.0186,0 z m 15,0 a 3.7499997,3.7499997 0 0 0 -3.73145,3.75 3.7499997,3.7499997 0 0 0 3.75,3.75 3.7499997,3.7499997 0 0 0 3.75,-3.75 3.7499997,3.7499997 0 0 0 -3.75,-3.75 3.7499997,3.7499997 0 0 0 -0.0186,0 z m 14.99999,0 a 3.7499997,3.7499997 0 0 0 -3.73144,3.75 3.7499997,3.7499997 0 0 0 3.75,3.75 3.7499997,3.7499997 0 0 0 3.75,-3.75 3.7499997,3.7499997 0 0 0 -3.75,-3.75 3.7499997,3.7499997 0 0 0 -0.0186,0 z m 15,0 a 3.7499997,3.7499997 0 0 0 -3.73144,3.75 3.7499997,3.7499997 0 0 0 3.75,3.75 3.7499997,3.7499997 0 0 0 3.75,-3.75 3.7499997,3.7499997 0 0 0 -3.75,-3.75 3.7499997,3.7499997 0 0 0 -0.0186,0 z m 15,0 a 3.7499997,3.7499997 0 0 0 -3.73144,3.75 3.7499997,3.7499997 0 0 0 3.75,3.75 3.7499997,3.7499997 0 0 0 3.75,-3.75 3.7499997,3.7499997 0 0 0 -3.75,-3.75 3.7499997,3.7499997 0 0 0 -0.0186,0 z m -157.48143,7.5 a 3.7499997,3.7499997 0 0 0 -3.75,3.75 3.7499997,3.7499997 0 0 0 3.75,3.75 3.7499997,3.7499997 0 0 0 3.75,-3.75 3.7499997,3.7499997 0 0 0 -3.75,-3.75 z m 15,0 a 3.7499997,3.7499997 0 0 0 -3.75,3.75 3.7499997,3.7499997 0 0 0 3.75,3.75 3.7499997,3.7499997 0 0 0 3.75,-3.75 3.7499997,3.7499997 0 0 0 -3.75,-3.75 z m 15,0 a 3.7499997,3.7499997 0 0 0 -3.75,3.75 3.7499997,3.7499997 0 0 0 3.75,3.75 3.7499997,3.7499997 0 0 0 3.75,-3.75 3.7499997,3.7499997 0 0 0 -3.75,-3.75 z m 15,0 a 3.7499997,3.7499997 0 0 0 -3.75,3.75 3.7499997,3.7499997 0 0 0 3.75,3.75 3.7499997,3.7499997 0 0 0 3.75,-3.75 3.7499997,3.7499997 0 0 0 -3.75,-3.75 z m 14.99999,0 a 3.7499997,3.7499997 0 0 0 -3.75,3.75 3.7499997,3.7499997 0 0 0 3.75,3.75 3.7499997,3.7499997 0 0 0 3.75,-3.75 3.7499997,3.7499997 0 0 0 -3.75,-3.75 z m 15,0 a 3.7499997,3.7499997 0 0 0 -3.75,3.75 3.7499997,3.7499997 0 0 0 3.75,3.75 3.7499997,3.7499997 0 0 0 3.75,-3.75 3.7499997,3.7499997 0 0 0 -3.75,-3.75 z m 15,0 a 3.7499997,3.7499997 0 0 0 -3.75,3.75 3.7499997,3.7499997 0 0 0 3.75,3.75 3.7499997,3.7499997 0 0 0 3.75,-3.75 3.7499997,3.7499997 0 0 0 -3.75,-3.75 z m 15,0 a 3.7499997,3.7499997 0 0 0 -3.75,3.75 3.7499997,3.7499997 0 0 0 3.75,3.75 3.7499997,3.7499997 0 0 0 3.75,-3.75 3.7499997,3.7499997 0 0 0 -3.75,-3.75 z m 15,0 a 3.7499997,3.7499997 0 0 0 -3.75,3.75 3.7499997,3.7499997 0 0 0 3.75,3.75 3.7499997,3.7499997 0 0 0 3.75,-3.75 3.7499997,3.7499997 0 0 0 -3.75,-3.75 z m 15,0 a 3.7499997,3.7499997 0 0 0 -3.75,3.75 3.7499997,3.7499997 0 0 0 3.75,3.75 3.7499997,3.7499997 0 0 0 3.75,-3.75 3.7499997,3.7499997 0 0 0 -3.75,-3.75 z m 15,0 a 3.7499997,3.7499997 0 0 0 -3.75,3.75 3.7499997,3.7499997 0 0 0 3.75,3.75 3.7499997,3.7499997 0 0 0 3.75,-3.75 3.7499997,3.7499997 0 0 0 -3.75,-3.75 z m 15,0 a 3.7499997,3.7499997 0 0 0 -3.75,3.75 3.7499997,3.7499997 0 0 0 3.75,3.75 3.7499997,3.7499997 0 0 0 3.75,-3.75 3.7499997,3.7499997 0 0 0 -3.75,-3.75 z m -172.49999,7.5 a 3.7499997,3.7499997 0 0 0 -3.75,3.74999 3.7499997,3.7499997 0 0 0 3.75,3.75 3.7499997,3.7499997 0 0 0 3.75,-3.75 3.7499997,3.7499997 0 0 0 -3.75,-3.74999 z m 15,0 a 3.7499997,3.7499997 0 0 0 -3.75,3.74999 3.7499997,3.7499997 0 0 0 3.75,3.75 3.7499997,3.7499997 0 0 0 3.75,-3.75 3.7499997,3.7499997 0 0 0 -3.75,-3.74999 z m 15,0 a 3.7499997,3.7499997 0 0 0 -3.75,3.74999 3.7499997,3.7499997 0 0 0 3.75,3.75 3.7499997,3.7499997 0 0 0 3.75,-3.75 3.7499997,3.7499997 0 0 0 -3.75,-3.74999 z m 15,0 a 3.7499997,3.7499997 0 0 0 -3.75,3.74999 3.7499997,3.7499997 0 0 0 3.75,3.75 3.7499997,3.7499997 0 0 0 3.75,-3.75 3.7499997,3.7499997 0 0 0 -3.75,-3.74999 z m 15,0 a 3.7499997,3.7499997 0 0 0 -3.75,3.74999 3.7499997,3.7499997 0 0 0 3.75,3.75 3.7499997,3.7499997 0 0 0 3.74999,-3.75 3.7499997,3.7499997 0 0 0 -3.74999,-3.74999 z m 14.99999,0 a 3.7499997,3.7499997 0 0 0 -3.75,3.74999 3.7499997,3.7499997 0 0 0 3.75,3.75 3.7499997,3.7499997 0 0 0 3.75,-3.75 3.7499997,3.7499997 0 0 0 -3.75,-3.74999 z m 15,0 a 3.7499997,3.7499997 0 0 0 -3.75,3.74999 3.7499997,3.7499997 0 0 0 3.75,3.75 3.7499997,3.7499997 0 0 0 3.75,-3.75 3.7499997,3.7499997 0 0 0 -3.75,-3.74999 z m 15,0 a 3.7499997,3.7499997 0 0 0 -3.75,3.74999 3.7499997,3.7499997 0 0 0 3.75,3.75 3.7499997,3.7499997 0 0 0 3.75,-3.75 3.7499997,3.7499997 0 0 0 -3.75,-3.74999 z m 15,0 a 3.7499997,3.7499997 0 0 0 -3.75,3.74999 3.7499997,3.7499997 0 0 0 3.75,3.75 3.7499997,3.7499997 0 0 0 3.75,-3.75 3.7499997,3.7499997 0 0 0 -3.75,-3.74999 z m 15,0 a 3.7499997,3.7499997 0 0 0 -3.75,3.74999 3.7499997,3.7499997 0 0 0 3.75,3.75 3.7499997,3.7499997 0 0 0 3.75,-3.75 3.7499997,3.7499997 0 0 0 -3.75,-3.74999 z m 15,0 a 3.7499997,3.7499997 0 0 0 -3.75,3.74999 3.7499997,3.7499997 0 0 0 3.75,3.75 3.7499997,3.7499997 0 0 0 3.75,-3.75 3.7499997,3.7499997 0 0 0 -3.75,-3.74999 z m 15,0 a 3.7499997,3.7499997 0 0 0 -3.75,3.74999 3.7499997,3.7499997 0 0 0 3.75,3.75 3.7499997,3.7499997 0 0 0 3.75,-3.75 3.7499997,3.7499997 0 0 0 -3.75,-3.74999 z m -157.49999,7.49999 a 3.7499997,3.7499997 0 0 0 -3.75,3.75 3.7499997,3.7499997 0 0 0 3.75,3.75 3.7499997,3.7499997 0 0 0 3.75,-3.75 3.7499997,3.7499997 0 0 0 -3.75,-3.75 z m 15,0 a 3.7499997,3.7499997 0 0 0 -3.75,3.75 3.7499997,3.7499997 0 0 0 3.75,3.75 3.7499997,3.7499997 0 0 0 3.75,-3.75 3.7499997,3.7499997 0 0 0 -3.75,-3.75 z m 15,0 a 3.7499997,3.7499997 0 0 0 -3.75,3.75 3.7499997,3.7499997 0 0 0 3.75,3.75 3.7499997,3.7499997 0 0 0 3.75,-3.75 3.7499997,3.7499997 0 0 0 -3.75,-3.75 z m 15,0 a 3.7499997,3.7499997 0 0 0 -3.75,3.75 3.7499997,3.7499997 0 0 0 3.75,3.75 3.7499997,3.7499997 0 0 0 3.75,-3.75 3.7499997,3.7499997 0 0 0 -3.75,-3.75 z m 14.99999,0 a 3.7499997,3.7499997 0 0 0 -3.75,3.75 3.7499997,3.7499997 0 0 0 3.75,3.75 3.7499997,3.7499997 0 0 0 3.75,-3.75 3.7499997,3.7499997 0 0 0 -3.75,-3.75 z m 15,0 a 3.7499997,3.7499997 0 0 0 -3.75,3.75 3.7499997,3.7499997 0 0 0 3.75,3.75 3.7499997,3.7499997 0 0 0 3.75,-3.75 3.7499997,3.7499997 0 0 0 -3.75,-3.75 z m 15,0 a 3.7499997,3.7499997 0 0 0 -3.75,3.75 3.7499997,3.7499997 0 0 0 3.75,3.75 3.7499997,3.7499997 0 0 0 3.75,-3.75 3.7499997,3.7499997 0 0 0 -3.75,-3.75 z m 15,0 a 3.7499997,3.7499997 0 0 0 -3.75,3.75 3.7499997,3.7499997 0 0 0 3.75,3.75 3.7499997,3.7499997 0 0 0 3.75,-3.75 3.7499997,3.7499997 0 0 0 -3.75,-3.75 z m 15,0 a 3.7499997,3.7499997 0 0 0 -3.75,3.75 3.7499997,3.7499997 0 0 0 3.75,3.75 3.7499997,3.7499997 0 0 0 3.75,-3.75 3.7499997,3.7499997 0 0 0 -3.75,-3.75 z m 15,0 a 3.7499997,3.7499997 0 0 0 -3.75,3.75 3.7499997,3.7499997 0 0 0 3.75,3.75 3.7499997,3.7499997 0 0 0 3.75,-3.75 3.7499997,3.7499997 0 0 0 -3.75,-3.75 z m 15,0 a 3.7499997,3.7499997 0 0 0 -3.75,3.75 3.7499997,3.7499997 0 0 0 3.75,3.75 3.7499997,3.7499997 0 0 0 3.75,-3.75 3.7499997,3.7499997 0 0 0 -3.75,-3.75 z m 15,0 a 3.7499997,3.7499997 0 0 0 -3.75,3.75 3.7499997,3.7499997 0 0 0 3.75,3.75 3.7499997,3.7499997 0 0 0 3.75,-3.75 3.7499997,3.7499997 0 0 0 -3.75,-3.75 z m -172.49999,7.5 a 3.7499997,3.7499997 0 0 0 -3.75,3.75 3.7499997,3.7499997 0 0 0 3.75,3.75 3.7499997,3.7499997 0 0 0 3.75,-3.75 3.7499997,3.7499997 0 0 0 -3.75,-3.75 z m 15,0 a 3.7499997,3.7499997 0 0 0 -3.75,3.75 3.7499997,3.7499997 0 0 0 3.75,3.75 3.7499997,3.7499997 0 0 0 3.75,-3.75 3.7499997,3.7499997 0 0 0 -3.75,-3.75 z m 15,0 a 3.7499997,3.7499997 0 0 0 -3.75,3.75 3.7499997,3.7499997 0 0 0 3.75,3.75 3.7499997,3.7499997 0 0 0 3.75,-3.75 3.7499997,3.7499997 0 0 0 -3.75,-3.75 z m 15,0 a 3.7499997,3.7499997 0 0 0 -3.75,3.75 3.7499997,3.7499997 0 0 0 3.75,3.75 3.7499997,3.7499997 0 0 0 3.75,-3.75 3.7499997,3.7499997 0 0 0 -3.75,-3.75 z m 15,0 a 3.7499997,3.7499997 0 0 0 -3.75,3.75 3.7499997,3.7499997 0 0 0 3.75,3.75 3.7499997,3.7499997 0 0 0 3.74999,-3.75 3.7499997,3.7499997 0 0 0 -3.74999,-3.75 z m 14.99999,0 a 3.7499997,3.7499997 0 0 0 -3.75,3.75 3.7499997,3.7499997 0 0 0 3.75,3.75 3.7499997,3.7499997 0 0 0 3.75,-3.75 3.7499997,3.7499997 0 0 0 -3.75,-3.75 z m 15,0 a 3.7499997,3.7499997 0 0 0 -3.75,3.75 3.7499997,3.7499997 0 0 0 3.75,3.75 3.7499997,3.7499997 0 0 0 3.75,-3.75 3.7499997,3.7499997 0 0 0 -3.75,-3.75 z m 15,0 a 3.7499997,3.7499997 0 0 0 -3.75,3.75 3.7499997,3.7499997 0 0 0 3.75,3.75 3.7499997,3.7499997 0 0 0 3.75,-3.75 3.7499997,3.7499997 0 0 0 -3.75,-3.75 z m 15,0 a 3.7499997,3.7499997 0 0 0 -3.75,3.75 3.7499997,3.7499997 0 0 0 3.75,3.75 3.7499997,3.7499997 0 0 0 3.75,-3.75 3.7499997,3.7499997 0 0 0 -3.75,-3.75 z m 15,0 a 3.7499997,3.7499997 0 0 0 -3.75,3.75 3.7499997,3.7499997 0 0 0 3.75,3.75 3.7499997,3.7499997 0 0 0 3.75,-3.75 3.7499997,3.7499997 0 0 0 -3.75,-3.75 z m 15,0 a 3.7499997,3.7499997 0 0 0 -3.75,3.75 3.7499997,3.7499997 0 0 0 3.75,3.75 3.7499997,3.7499997 0 0 0 3.75,-3.75 3.7499997,3.7499997 0 0 0 -3.75,-3.75 z m 15,0 a 3.7499997,3.7499997 0 0 0 -3.75,3.75 3.7499997,3.7499997 0 0 0 3.75,3.75 3.7499997,3.7499997 0 0 0 3.75,-3.75 3.7499997,3.7499997 0 0 0 -3.75,-3.75 z m -157.49999,7.5 a 3.7499997,3.7499997 0 0 0 -3.75,3.75 3.7499997,3.7499997 0 0 0 3.75,3.75 3.7499997,3.7499997 0 0 0 3.75,-3.75 3.7499997,3.7499997 0 0 0 -3.75,-3.75 z m 15,0 a 3.7499997,3.7499997 0 0 0 -3.75,3.75 3.7499997,3.7499997 0 0 0 3.75,3.75 3.7499997,3.7499997 0 0 0 3.75,-3.75 3.7499997,3.7499997 0 0 0 -3.75,-3.75 z m 15,0 a 3.7499997,3.7499997 0 0 0 -3.75,3.75 3.7499997,3.7499997 0 0 0 3.75,3.75 3.7499997,3.7499997 0 0 0 3.75,-3.75 3.7499997,3.7499997 0 0 0 -3.75,-3.75 z m 15,0 a 3.7499997,3.7499997 0 0 0 -3.75,3.75 3.7499997,3.7499997 0 0 0 3.75,3.75 3.7499997,3.7499997 0 0 0 3.75,-3.75 3.7499997,3.7499997 0 0 0 -3.75,-3.75 z m 14.99999,0 a 3.7499997,3.7499997 0 0 0 -3.75,3.75 3.7499997,3.7499997 0 0 0 3.75,3.75 3.7499997,3.7499997 0 0 0 3.75,-3.75 3.7499997,3.7499997 0 0 0 -3.75,-3.75 z m 15,0 a 3.7499997,3.7499997 0 0 0 -3.75,3.75 3.7499997,3.7499997 0 0 0 3.75,3.75 3.7499997,3.7499997 0 0 0 3.75,-3.75 3.7499997,3.7499997 0 0 0 -3.75,-3.75 z m 15,0 a 3.7499997,3.7499997 0 0 0 -3.75,3.75 3.7499997,3.7499997 0 0 0 3.75,3.75 3.7499997,3.7499997 0 0 0 3.75,-3.75 3.7499997,3.7499997 0 0 0 -3.75,-3.75 z m 15,0 a 3.7499997,3.7499997 0 0 0 -3.75,3.75 3.7499997,3.7499997 0 0 0 3.75,3.75 3.7499997,3.7499997 0 0 0 3.75,-3.75 3.7499997,3.7499997 0 0 0 -3.75,-3.75 z m 15,0 a 3.7499997,3.7499997 0 0 0 -3.75,3.75 3.7499997,3.7499997 0 0 0 3.75,3.75 3.7499997,3.7499997 0 0 0 3.75,-3.75 3.7499997,3.7499997 0 0 0 -3.75,-3.75 z m 15,0 a 3.7499997,3.7499997 0 0 0 -3.75,3.75 3.7499997,3.7499997 0 0 0 3.75,3.75 3.7499997,3.7499997 0 0 0 3.75,-3.75 3.7499997,3.7499997 0 0 0 -3.75,-3.75 z m 15,0 a 3.7499997,3.7499997 0 0 0 -3.75,3.75 3.7499997,3.7499997 0 0 0 3.75,3.75 3.7499997,3.7499997 0 0 0 3.75,-3.75 3.7499997,3.7499997 0 0 0 -3.75,-3.75 z m 15,0 a 3.7499997,3.7499997 0 0 0 -3.75,3.75 3.7499997,3.7499997 0 0 0 3.75,3.75 3.7499997,3.7499997 0 0 0 3.75,-3.75 3.7499997,3.7499997 0 0 0 -3.75,-3.75 z m -172.51855,7.5 a 3.7499997,3.7499997 0 0 0 -3.73144,3.75 3.7499997,3.7499997 0 0 0 3.75,3.75 3.7499997,3.7499997 0 0 0 3.75,-3.75 3.7499997,3.7499997 0 0 0 -3.75,-3.75 3.7499997,3.7499997 0 0 0 -0.0186,0 z m 15,0 a 3.7499997,3.7499997 0 0 0 -3.73144,3.75 3.7499997,3.7499997 0 0 0 3.75,3.75 3.7499997,3.7499997 0 0 0 3.75,-3.75 3.7499997,3.7499997 0 0 0 -3.75,-3.75 3.7499997,3.7499997 0 0 0 -0.0186,0 z m 15,0 a 3.7499997,3.7499997 0 0 0 -3.73144,3.75 3.7499997,3.7499997 0 0 0 3.75,3.75 3.7499997,3.7499997 0 0 0 3.75,-3.75 3.7499997,3.7499997 0 0 0 -3.75,-3.75 3.7499997,3.7499997 0 0 0 -0.0186,0 z m 15,0 a 3.7499997,3.7499997 0 0 0 -3.73144,3.75 3.7499997,3.7499997 0 0 0 3.75,3.75 3.7499997,3.7499997 0 0 0 3.75,-3.75 3.7499997,3.7499997 0 0 0 -3.75,-3.75 3.7499997,3.7499997 0 0 0 -0.0186,0 z m 15,0 a 3.7499997,3.7499997 0 0 0 -3.73144,3.75 3.7499997,3.7499997 0 0 0 3.75,3.75 3.7499997,3.7499997 0 0 0 3.74999,-3.75 3.7499997,3.7499997 0 0 0 -3.74999,-3.75 3.7499997,3.7499997 0 0 0 -0.0186,0 z m 15,0 a 3.7499997,3.7499997 0 0 0 -3.73145,3.75 3.7499997,3.7499997 0 0 0 3.75,3.75 3.7499997,3.7499997 0 0 0 3.75,-3.75 3.7499997,3.7499997 0 0 0 -3.75,-3.75 3.7499997,3.7499997 0 0 0 -0.0186,0 z m 15,0 a 3.7499997,3.7499997 0 0 0 -3.73145,3.75 3.7499997,3.7499997 0 0 0 3.75,3.75 3.7499997,3.7499997 0 0 0 3.75,-3.75 3.7499997,3.7499997 0 0 0 -3.75,-3.75 3.7499997,3.7499997 0 0 0 -0.0186,0 z m 15,0 a 3.7499997,3.7499997 0 0 0 -3.73145,3.75 3.7499997,3.7499997 0 0 0 3.75,3.75 3.7499997,3.7499997 0 0 0 3.75,-3.75 3.7499997,3.7499997 0 0 0 -3.75,-3.75 3.7499997,3.7499997 0 0 0 -0.0186,0 z m 15,0 a 3.7499997,3.7499997 0 0 0 -3.73145,3.75 3.7499997,3.7499997 0 0 0 3.75,3.75 3.7499997,3.7499997 0 0 0 3.75,-3.75 3.7499997,3.7499997 0 0 0 -3.75,-3.75 3.7499997,3.7499997 0 0 0 -0.0186,0 z m 14.99999,0 a 3.7499997,3.7499997 0 0 0 -3.73144,3.75 3.7499997,3.7499997 0 0 0 3.75,3.75 3.7499997,3.7499997 0 0 0 3.75,-3.75 3.7499997,3.7499997 0 0 0 -3.75,-3.75 3.7499997,3.7499997 0 0 0 -0.0186,0 z m 15,0 a 3.7499997,3.7499997 0 0 0 -3.73144,3.75 3.7499997,3.7499997 0 0 0 3.75,3.75 3.7499997,3.7499997 0 0 0 3.75,-3.75 3.7499997,3.7499997 0 0 0 -3.75,-3.75 3.7499997,3.7499997 0 0 0 -0.0186,0 z m 15,0 a 3.7499997,3.7499997 0 0 0 -3.73144,3.75 3.7499997,3.7499997 0 0 0 3.75,3.75 3.7499997,3.7499997 0 0 0 3.75,-3.75 3.7499997,3.7499997 0 0 0 -3.75,-3.75 3.7499997,3.7499997 0 0 0 -0.0186,0 z m -157.49999,7.5 a 3.7499997,3.7499997 0 0 0 -3.73144,3.75 3.7499997,3.7499997 0 0 0 3.75,3.75 3.7499997,3.7499997 0 0 0 3.75,-3.75 3.7499997,3.7499997 0 0 0 -3.75,-3.75 3.7499997,3.7499997 0 0 0 -0.0186,0 z m 15,0 a 3.7499997,3.7499997 0 0 0 -3.73144,3.75 3.7499997,3.7499997 0 0 0 3.75,3.75 3.7499997,3.7499997 0 0 0 3.75,-3.75 3.7499997,3.7499997 0 0 0 -3.75,-3.75 3.7499997,3.7499997 0 0 0 -0.0186,0 z m 15,0 a 3.7499997,3.7499997 0 0 0 -3.73144,3.75 3.7499997,3.7499997 0 0 0 3.75,3.75 3.7499997,3.7499997 0 0 0 3.75,-3.75 3.7499997,3.7499997 0 0 0 -3.75,-3.75 3.7499997,3.7499997 0 0 0 -0.0186,0 z m 15,0 a 3.7499997,3.7499997 0 0 0 -3.73144,3.75 3.7499997,3.7499997 0 0 0 3.75,3.75 3.7499997,3.7499997 0 0 0 3.75,-3.75 3.7499997,3.7499997 0 0 0 -3.75,-3.75 3.7499997,3.7499997 0 0 0 -0.0186,0 z m 15,0 a 3.7499997,3.7499997 0 0 0 -3.73145,3.75 3.7499997,3.7499997 0 0 0 3.75,3.75 3.7499997,3.7499997 0 0 0 3.75,-3.75 3.7499997,3.7499997 0 0 0 -3.75,-3.75 3.7499997,3.7499997 0 0 0 -0.0186,0 z m 15,0 a 3.7499997,3.7499997 0 0 0 -3.73145,3.75 3.7499997,3.7499997 0 0 0 3.75,3.75 3.7499997,3.7499997 0 0 0 3.75,-3.75 3.7499997,3.7499997 0 0 0 -3.75,-3.75 3.7499997,3.7499997 0 0 0 -0.0186,0 z m 15,0 a 3.7499997,3.7499997 0 0 0 -3.73145,3.75 3.7499997,3.7499997 0 0 0 3.75,3.75 3.7499997,3.7499997 0 0 0 3.75,-3.75 3.7499997,3.7499997 0 0 0 -3.75,-3.75 3.7499997,3.7499997 0 0 0 -0.0186,0 z m 15,0 a 3.7499997,3.7499997 0 0 0 -3.73145,3.75 3.7499997,3.7499997 0 0 0 3.75,3.75 3.7499997,3.7499997 0 0 0 3.75,-3.75 3.7499997,3.7499997 0 0 0 -3.75,-3.75 3.7499997,3.7499997 0 0 0 -0.0186,0 z m 14.99999,0 a 3.7499997,3.7499997 0 0 0 -3.73144,3.75 3.7499997,3.7499997 0 0 0 3.75,3.75 3.7499997,3.7499997 0 0 0 3.75,-3.75 3.7499997,3.7499997 0 0 0 -3.75,-3.75 3.7499997,3.7499997 0 0 0 -0.0186,0 z m 15,0 a 3.7499997,3.7499997 0 0 0 -3.73144,3.75 3.7499997,3.7499997 0 0 0 3.75,3.75 3.7499997,3.7499997 0 0 0 3.75,-3.75 3.7499997,3.7499997 0 0 0 -3.75,-3.75 3.7499997,3.7499997 0 0 0 -0.0186,0 z m 15,0 a 3.7499997,3.7499997 0 0 0 -3.73144,3.75 3.7499997,3.7499997 0 0 0 3.75,3.75 3.7499997,3.7499997 0 0 0 3.75,-3.75 3.7499997,3.7499997 0 0 0 -3.75,-3.75 3.7499997,3.7499997 0 0 0 -0.0186,0 z m 15,0 a 3.7499997,3.7499997 0 0 0 -3.73144,3.75 3.7499997,3.7499997 0 0 0 3.75,3.75 3.7499997,3.7499997 0 0 0 3.75,-3.75 3.7499997,3.7499997 0 0 0 -3.75,-3.75 3.7499997,3.7499997 0 0 0 -0.0186,0 z m -172.49999,7.5 a 3.7499997,3.7499997 0 0 0 -3.73144,3.75 3.7499997,3.7499997 0 0 0 3.75,3.75 3.7499997,3.7499997 0 0 0 3.75,-3.75 3.7499997,3.7499997 0 0 0 -3.75,-3.75 3.7499997,3.7499997 0 0 0 -0.0186,0 z m 15,0 a 3.7499997,3.7499997 0 0 0 -3.73144,3.75 3.7499997,3.7499997 0 0 0 3.75,3.75 3.7499997,3.7499997 0 0 0 3.75,-3.75 3.7499997,3.7499997 0 0 0 -3.75,-3.75 3.7499997,3.7499997 0 0 0 -0.0186,0 z m 15,0 a 3.7499997,3.7499997 0 0 0 -3.73144,3.75 3.7499997,3.7499997 0 0 0 3.75,3.75 3.7499997,3.7499997 0 0 0 3.75,-3.75 3.7499997,3.7499997 0 0 0 -3.75,-3.75 3.7499997,3.7499997 0 0 0 -0.0186,0 z m 15,0 a 3.7499997,3.7499997 0 0 0 -3.73144,3.75 3.7499997,3.7499997 0 0 0 3.75,3.75 3.7499997,3.7499997 0 0 0 3.75,-3.75 3.7499997,3.7499997 0 0 0 -3.75,-3.75 3.7499997,3.7499997 0 0 0 -0.0186,0 z m 15,0 a 3.7499997,3.7499997 0 0 0 -3.73144,3.75 3.7499997,3.7499997 0 0 0 3.75,3.75 3.7499997,3.7499997 0 0 0 3.74999,-3.75 3.7499997,3.7499997 0 0 0 -3.74999,-3.75 3.7499997,3.7499997 0 0 0 -0.0186,0 z m 15,0 a 3.7499997,3.7499997 0 0 0 -3.73145,3.75 3.7499997,3.7499997 0 0 0 3.75,3.75 3.7499997,3.7499997 0 0 0 3.75,-3.75 3.7499997,3.7499997 0 0 0 -3.75,-3.75 3.7499997,3.7499997 0 0 0 -0.0186,0 z m 15,0 a 3.7499997,3.7499997 0 0 0 -3.73145,3.75 3.7499997,3.7499997 0 0 0 3.75,3.75 3.7499997,3.7499997 0 0 0 3.75,-3.75 3.7499997,3.7499997 0 0 0 -3.75,-3.75 3.7499997,3.7499997 0 0 0 -0.0186,0 z m 15,0 a 3.7499997,3.7499997 0 0 0 -3.73145,3.75 3.7499997,3.7499997 0 0 0 3.75,3.75 3.7499997,3.7499997 0 0 0 3.75,-3.75 3.7499997,3.7499997 0 0 0 -3.75,-3.75 3.7499997,3.7499997 0 0 0 -0.0186,0 z m 15,0 a 3.7499997,3.7499997 0 0 0 -3.73145,3.75 3.7499997,3.7499997 0 0 0 3.75,3.75 3.7499997,3.7499997 0 0 0 3.75,-3.75 3.7499997,3.7499997 0 0 0 -3.75,-3.75 3.7499997,3.7499997 0 0 0 -0.0186,0 z m 14.99999,0 a 3.7499997,3.7499997 0 0 0 -3.73144,3.75 3.7499997,3.7499997 0 0 0 3.75,3.75 3.7499997,3.7499997 0 0 0 3.75,-3.75 3.7499997,3.7499997 0 0 0 -3.75,-3.75 3.7499997,3.7499997 0 0 0 -0.0186,0 z m 15,0 a 3.7499997,3.7499997 0 0 0 -3.73144,3.75 3.7499997,3.7499997 0 0 0 3.75,3.75 3.7499997,3.7499997 0 0 0 3.75,-3.75 3.7499997,3.7499997 0 0 0 -3.75,-3.75 3.7499997,3.7499997 0 0 0 -0.0186,0 z m 15,0 a 3.7499997,3.7499997 0 0 0 -3.73144,3.75 3.7499997,3.7499997 0 0 0 3.75,3.75 3.7499997,3.7499997 0 0 0 3.75,-3.75 3.7499997,3.7499997 0 0 0 -3.75,-3.75 3.7499997,3.7499997 0 0 0 -0.0186,0 z m -157.49999,7.5 a 3.7499997,3.7499997 0 0 0 -3.73144,3.75 3.7499997,3.7499997 0 0 0 3.75,3.75 3.7499997,3.7499997 0 0 0 3.75,-3.75 3.7499997,3.7499997 0 0 0 -3.75,-3.75 3.7499997,3.7499997 0 0 0 -0.0186,0 z m 15,0 a 3.7499997,3.7499997 0 0 0 -3.73144,3.75 3.7499997,3.7499997 0 0 0 3.75,3.75 3.7499997,3.7499997 0 0 0 3.75,-3.75 3.7499997,3.7499997 0 0 0 -3.75,-3.75 3.7499997,3.7499997 0 0 0 -0.0186,0 z m 15,0 a 3.7499997,3.7499997 0 0 0 -3.73144,3.75 3.7499997,3.7499997 0 0 0 3.75,3.75 3.7499997,3.7499997 0 0 0 3.75,-3.75 3.7499997,3.7499997 0 0 0 -3.75,-3.75 3.7499997,3.7499997 0 0 0 -0.0186,0 z m 15,0 a 3.7499997,3.7499997 0 0 0 -3.73144,3.75 3.7499997,3.7499997 0 0 0 3.75,3.75 3.7499997,3.7499997 0 0 0 3.75,-3.75 3.7499997,3.7499997 0 0 0 -3.75,-3.75 3.7499997,3.7499997 0 0 0 -0.0186,0 z m 15,0 a 3.7499997,3.7499997 0 0 0 -3.73145,3.75 3.7499997,3.7499997 0 0 0 3.75,3.75 3.7499997,3.7499997 0 0 0 3.75,-3.75 3.7499997,3.7499997 0 0 0 -3.75,-3.75 3.7499997,3.7499997 0 0 0 -0.0186,0 z m 15,0 a 3.7499997,3.7499997 0 0 0 -3.73145,3.75 3.7499997,3.7499997 0 0 0 3.75,3.75 3.7499997,3.7499997 0 0 0 3.75,-3.75 3.7499997,3.7499997 0 0 0 -3.75,-3.75 3.7499997,3.7499997 0 0 0 -0.0186,0 z m 15,0 a 3.7499997,3.7499997 0 0 0 -3.73145,3.75 3.7499997,3.7499997 0 0 0 3.75,3.75 3.7499997,3.7499997 0 0 0 3.75,-3.75 3.7499997,3.7499997 0 0 0 -3.75,-3.75 3.7499997,3.7499997 0 0 0 -0.0186,0 z m 15,0 a 3.7499997,3.7499997 0 0 0 -3.73145,3.75 3.7499997,3.7499997 0 0 0 3.75,3.75 3.7499997,3.7499997 0 0 0 3.75,-3.75 3.7499997,3.7499997 0 0 0 -3.75,-3.75 3.7499997,3.7499997 0 0 0 -0.0186,0 z m 14.99999,0 a 3.7499997,3.7499997 0 0 0 -3.73144,3.75 3.7499997,3.7499997 0 0 0 3.75,3.75 3.7499997,3.7499997 0 0 0 3.75,-3.75 3.7499997,3.7499997 0 0 0 -3.75,-3.75 3.7499997,3.7499997 0 0 0 -0.0186,0 z m 15,0 a 3.7499997,3.7499997 0 0 0 -3.73144,3.75 3.7499997,3.7499997 0 0 0 3.75,3.75 3.7499997,3.7499997 0 0 0 3.75,-3.75 3.7499997,3.7499997 0 0 0 -3.75,-3.75 3.7499997,3.7499997 0 0 0 -0.0186,0 z m 15,0 a 3.7499997,3.7499997 0 0 0 -3.73144,3.75 3.7499997,3.7499997 0 0 0 3.75,3.75 3.7499997,3.7499997 0 0 0 3.75,-3.75 3.7499997,3.7499997 0 0 0 -3.75,-3.75 3.7499997,3.7499997 0 0 0 -0.0186,0 z m 15,0 a 3.7499997,3.7499997 0 0 0 -3.73144,3.75 3.7499997,3.7499997 0 0 0 3.75,3.75 3.7499997,3.7499997 0 0 0 3.75,-3.75 3.7499997,3.7499997 0 0 0 -3.75,-3.75 3.7499997,3.7499997 0 0 0 -0.0186,0 z m -172.49999,7.5 a 3.7499997,3.7499997 0 0 0 -3.73144,3.75 3.7499997,3.7499997 0 0 0 3.75,3.75 3.7499997,3.7499997 0 0 0 3.75,-3.75 3.7499997,3.7499997 0 0 0 -3.75,-3.75 3.7499997,3.7499997 0 0 0 -0.0186,0 z m 15,0 a 3.7499997,3.7499997 0 0 0 -3.73144,3.75 3.7499997,3.7499997 0 0 0 3.75,3.75 3.7499997,3.7499997 0 0 0 3.75,-3.75 3.7499997,3.7499997 0 0 0 -3.75,-3.75 3.7499997,3.7499997 0 0 0 -0.0186,0 z m 15,0 a 3.7499997,3.7499997 0 0 0 -3.73144,3.75 3.7499997,3.7499997 0 0 0 3.75,3.75 3.7499997,3.7499997 0 0 0 3.75,-3.75 3.7499997,3.7499997 0 0 0 -3.75,-3.75 3.7499997,3.7499997 0 0 0 -0.0186,0 z m 15,0 a 3.7499997,3.7499997 0 0 0 -3.73144,3.75 3.7499997,3.7499997 0 0 0 3.75,3.75 3.7499997,3.7499997 0 0 0 3.75,-3.75 3.7499997,3.7499997 0 0 0 -3.75,-3.75 3.7499997,3.7499997 0 0 0 -0.0186,0 z m 15,0 a 3.7499997,3.7499997 0 0 0 -3.73144,3.75 3.7499997,3.7499997 0 0 0 3.75,3.75 3.7499997,3.7499997 0 0 0 3.74999,-3.75 3.7499997,3.7499997 0 0 0 -3.74999,-3.75 3.7499997,3.7499997 0 0 0 -0.0186,0 z m 15,0 a 3.7499997,3.7499997 0 0 0 -3.73145,3.75 3.7499997,3.7499997 0 0 0 3.75,3.75 3.7499997,3.7499997 0 0 0 3.75,-3.75 3.7499997,3.7499997 0 0 0 -3.75,-3.75 3.7499997,3.7499997 0 0 0 -0.0186,0 z m 15,0 a 3.7499997,3.7499997 0 0 0 -3.73145,3.75 3.7499997,3.7499997 0 0 0 3.75,3.75 3.7499997,3.7499997 0 0 0 3.75,-3.75 3.7499997,3.7499997 0 0 0 -3.75,-3.75 3.7499997,3.7499997 0 0 0 -0.0186,0 z m 15,0 a 3.7499997,3.7499997 0 0 0 -3.73145,3.75 3.7499997,3.7499997 0 0 0 3.75,3.75 3.7499997,3.7499997 0 0 0 3.75,-3.75 3.7499997,3.7499997 0 0 0 -3.75,-3.75 3.7499997,3.7499997 0 0 0 -0.0186,0 z m 15,0 a 3.7499997,3.7499997 0 0 0 -3.73145,3.75 3.7499997,3.7499997 0 0 0 3.75,3.75 3.7499997,3.7499997 0 0 0 3.75,-3.75 3.7499997,3.7499997 0 0 0 -3.75,-3.75 3.7499997,3.7499997 0 0 0 -0.0186,0 z m 14.99999,0 a 3.7499997,3.7499997 0 0 0 -3.73144,3.75 3.7499997,3.7499997 0 0 0 3.75,3.75 3.7499997,3.7499997 0 0 0 3.75,-3.75 3.7499997,3.7499997 0 0 0 -3.75,-3.75 3.7499997,3.7499997 0 0 0 -0.0186,0 z m 15,0 a 3.7499997,3.7499997 0 0 0 -3.73144,3.75 3.7499997,3.7499997 0 0 0 3.75,3.75 3.7499997,3.7499997 0 0 0 3.75,-3.75 3.7499997,3.7499997 0 0 0 -3.75,-3.75 3.7499997,3.7499997 0 0 0 -0.0186,0 z m 15,0 a 3.7499997,3.7499997 0 0 0 -3.73144,3.75 3.7499997,3.7499997 0 0 0 3.75,3.75 3.7499997,3.7499997 0 0 0 3.75,-3.75 3.7499997,3.7499997 0 0 0 -3.75,-3.75 3.7499997,3.7499997 0 0 0 -0.0186,0 z m -157.48143,7.5 a 3.7499997,3.7499997 0 0 0 -3.75,3.75 3.7499997,3.7499997 0 0 0 3.75,3.75 3.7499997,3.7499997 0 0 0 3.75,-3.75 3.7499997,3.7499997 0 0 0 -3.75,-3.75 z m 15,0 a 3.7499997,3.7499997 0 0 0 -3.75,3.75 3.7499997,3.7499997 0 0 0 3.75,3.75 3.7499997,3.7499997 0 0 0 3.75,-3.75 3.7499997,3.7499997 0 0 0 -3.75,-3.75 z m 15,0 a 3.7499997,3.7499997 0 0 0 -3.75,3.75 3.7499997,3.7499997 0 0 0 3.75,3.75 3.7499997,3.7499997 0 0 0 3.75,-3.75 3.7499997,3.7499997 0 0 0 -3.75,-3.75 z m 15,0 a 3.7499997,3.7499997 0 0 0 -3.75,3.75 3.7499997,3.7499997 0 0 0 3.75,3.75 3.7499997,3.7499997 0 0 0 3.75,-3.75 3.7499997,3.7499997 0 0 0 -3.75,-3.75 z m 14.99999,0 a 3.7499997,3.7499997 0 0 0 -3.75,3.75 3.7499997,3.7499997 0 0 0 3.75,3.75 3.7499997,3.7499997 0 0 0 3.75,-3.75 3.7499997,3.7499997 0 0 0 -3.75,-3.75 z m 15,0 a 3.7499997,3.7499997 0 0 0 -3.75,3.75 3.7499997,3.7499997 0 0 0 3.75,3.75 3.7499997,3.7499997 0 0 0 3.75,-3.75 3.7499997,3.7499997 0 0 0 -3.75,-3.75 z m 15,0 a 3.7499997,3.7499997 0 0 0 -3.75,3.75 3.7499997,3.7499997 0 0 0 3.75,3.75 3.7499997,3.7499997 0 0 0 3.75,-3.75 3.7499997,3.7499997 0 0 0 -3.75,-3.75 z m 15,0 a 3.7499997,3.7499997 0 0 0 -3.75,3.75 3.7499997,3.7499997 0 0 0 3.75,3.75 3.7499997,3.7499997 0 0 0 3.75,-3.75 3.7499997,3.7499997 0 0 0 -3.75,-3.75 z m 15,0 a 3.7499997,3.7499997 0 0 0 -3.75,3.75 3.7499997,3.7499997 0 0 0 3.75,3.75 3.7499997,3.7499997 0 0 0 3.75,-3.75 3.7499997,3.7499997 0 0 0 -3.75,-3.75 z m 15,0 a 3.7499997,3.7499997 0 0 0 -3.75,3.75 3.7499997,3.7499997 0 0 0 3.75,3.75 3.7499997,3.7499997 0 0 0 3.75,-3.75 3.7499997,3.7499997 0 0 0 -3.75,-3.75 z m 15,0 a 3.7499997,3.7499997 0 0 0 -3.75,3.75 3.7499997,3.7499997 0 0 0 3.75,3.75 3.7499997,3.7499997 0 0 0 3.75,-3.75 3.7499997,3.7499997 0 0 0 -3.75,-3.75 z m 15,0 a 3.7499997,3.7499997 0 0 0 -3.75,3.75 3.7499997,3.7499997 0 0 0 3.75,3.75 3.7499997,3.7499997 0 0 0 3.75,-3.75 3.7499997,3.7499997 0 0 0 -3.75,-3.75 z m -172.49999,7.5 a 3.7499997,3.7499997 0 0 0 -3.75,3.75 3.7499997,3.7499997 0 0 0 3.75,3.75 3.7499997,3.7499997 0 0 0 3.75,-3.75 3.7499997,3.7499997 0 0 0 -3.75,-3.75 z m 15,0 a 3.7499997,3.7499997 0 0 0 -3.75,3.75 3.7499997,3.7499997 0 0 0 3.75,3.75 3.7499997,3.7499997 0 0 0 3.75,-3.75 3.7499997,3.7499997 0 0 0 -3.75,-3.75 z m 15,0 a 3.7499997,3.7499997 0 0 0 -3.75,3.75 3.7499997,3.7499997 0 0 0 3.75,3.75 3.7499997,3.7499997 0 0 0 3.75,-3.75 3.7499997,3.7499997 0 0 0 -3.75,-3.75 z m 15,0 a 3.7499997,3.7499997 0 0 0 -3.75,3.75 3.7499997,3.7499997 0 0 0 3.75,3.75 3.7499997,3.7499997 0 0 0 3.75,-3.75 3.7499997,3.7499997 0 0 0 -3.75,-3.75 z m 15,0 a 3.7499997,3.7499997 0 0 0 -3.75,3.75 3.7499997,3.7499997 0 0 0 3.75,3.75 3.7499997,3.7499997 0 0 0 3.74999,-3.75 3.7499997,3.7499997 0 0 0 -3.74999,-3.75 z m 14.99999,0 a 3.7499997,3.7499997 0 0 0 -3.75,3.75 3.7499997,3.7499997 0 0 0 3.75,3.75 3.7499997,3.7499997 0 0 0 3.75,-3.75 3.7499997,3.7499997 0 0 0 -3.75,-3.75 z m 15,0 a 3.7499997,3.7499997 0 0 0 -3.75,3.75 3.7499997,3.7499997 0 0 0 3.75,3.75 3.7499997,3.7499997 0 0 0 3.75,-3.75 3.7499997,3.7499997 0 0 0 -3.75,-3.75 z m 15,0 a 3.7499997,3.7499997 0 0 0 -3.75,3.75 3.7499997,3.7499997 0 0 0 3.75,3.75 3.7499997,3.7499997 0 0 0 3.75,-3.75 3.7499997,3.7499997 0 0 0 -3.75,-3.75 z m 15,0 a 3.7499997,3.7499997 0 0 0 -3.75,3.75 3.7499997,3.7499997 0 0 0 3.75,3.75 3.7499997,3.7499997 0 0 0 3.75,-3.75 3.7499997,3.7499997 0 0 0 -3.75,-3.75 z m 15,0 a 3.7499997,3.7499997 0 0 0 -3.75,3.75 3.7499997,3.7499997 0 0 0 3.75,3.75 3.7499997,3.7499997 0 0 0 3.75,-3.75 3.7499997,3.7499997 0 0 0 -3.75,-3.75 z m 15,0 a 3.7499997,3.7499997 0 0 0 -3.75,3.75 3.7499997,3.7499997 0 0 0 3.75,3.75 3.7499997,3.7499997 0 0 0 3.75,-3.75 3.7499997,3.7499997 0 0 0 -3.75,-3.75 z m 15,0 a 3.7499997,3.7499997 0 0 0 -3.75,3.75 3.7499997,3.7499997 0 0 0 3.75,3.75 3.7499997,3.7499997 0 0 0 3.75,-3.75 3.7499997,3.7499997 0 0 0 -3.75,-3.75 z m -157.49999,7.5 a 3.7499997,3.7499997 0 0 0 -3.75,3.75 3.7499997,3.7499997 0 0 0 3.75,3.75 3.7499997,3.7499997 0 0 0 3.75,-3.75 3.7499997,3.7499997 0 0 0 -3.75,-3.75 z m 15,0 a 3.7499997,3.7499997 0 0 0 -3.75,3.75 3.7499997,3.7499997 0 0 0 3.75,3.75 3.7499997,3.7499997 0 0 0 3.75,-3.75 3.7499997,3.7499997 0 0 0 -3.75,-3.75 z m 15,0 a 3.7499997,3.7499997 0 0 0 -3.75,3.75 3.7499997,3.7499997 0 0 0 3.75,3.75 3.7499997,3.7499997 0 0 0 3.75,-3.75 3.7499997,3.7499997 0 0 0 -3.75,-3.75 z m 15,0 a 3.7499997,3.7499997 0 0 0 -3.75,3.75 3.7499997,3.7499997 0 0 0 3.75,3.75 3.7499997,3.7499997 0 0 0 3.75,-3.75 3.7499997,3.7499997 0 0 0 -3.75,-3.75 z m 14.99999,0 a 3.7499997,3.7499997 0 0 0 -3.75,3.75 3.7499997,3.7499997 0 0 0 3.75,3.75 3.7499997,3.7499997 0 0 0 3.75,-3.75 3.7499997,3.7499997 0 0 0 -3.75,-3.75 z m 15,0 a 3.7499997,3.7499997 0 0 0 -3.75,3.75 3.7499997,3.7499997 0 0 0 3.75,3.75 3.7499997,3.7499997 0 0 0 3.75,-3.75 3.7499997,3.7499997 0 0 0 -3.75,-3.75 z m 15,0 a 3.7499997,3.7499997 0 0 0 -3.75,3.75 3.7499997,3.7499997 0 0 0 3.75,3.75 3.7499997,3.7499997 0 0 0 3.75,-3.75 3.7499997,3.7499997 0 0 0 -3.75,-3.75 z m 15,0 a 3.7499997,3.7499997 0 0 0 -3.75,3.75 3.7499997,3.7499997 0 0 0 3.75,3.75 3.7499997,3.7499997 0 0 0 3.75,-3.75 3.7499997,3.7499997 0 0 0 -3.75,-3.75 z m 15,0 a 3.7499997,3.7499997 0 0 0 -3.75,3.75 3.7499997,3.7499997 0 0 0 3.75,3.75 3.7499997,3.7499997 0 0 0 3.75,-3.75 3.7499997,3.7499997 0 0 0 -3.75,-3.75 z m 15,0 a 3.7499997,3.7499997 0 0 0 -3.75,3.75 3.7499997,3.7499997 0 0 0 3.75,3.75 3.7499997,3.7499997 0 0 0 3.75,-3.75 3.7499997,3.7499997 0 0 0 -3.75,-3.75 z m 15,0 a 3.7499997,3.7499997 0 0 0 -3.75,3.75 3.7499997,3.7499997 0 0 0 3.75,3.75 3.7499997,3.7499997 0 0 0 3.75,-3.75 3.7499997,3.7499997 0 0 0 -3.75,-3.75 z m 15,0 a 3.7499997,3.7499997 0 0 0 -3.75,3.75 3.7499997,3.7499997 0 0 0 3.75,3.75 3.7499997,3.7499997 0 0 0 3.75,-3.75 3.7499997,3.7499997 0 0 0 -3.75,-3.75 z m -172.49999,7.5 a 3.7499997,3.7499997 0 0 0 -3.75,3.75 3.7499997,3.7499997 0 0 0 3.75,3.75 3.7499997,3.7499997 0 0 0 3.75,-3.75 3.7499997,3.7499997 0 0 0 -3.75,-3.75 z m 15,0 a 3.7499997,3.7499997 0 0 0 -3.75,3.75 3.7499997,3.7499997 0 0 0 3.75,3.75 3.7499997,3.7499997 0 0 0 3.75,-3.75 3.7499997,3.7499997 0 0 0 -3.75,-3.75 z m 15,0 a 3.7499997,3.7499997 0 0 0 -3.75,3.75 3.7499997,3.7499997 0 0 0 3.75,3.75 3.7499997,3.7499997 0 0 0 3.75,-3.75 3.7499997,3.7499997 0 0 0 -3.75,-3.75 z m 15,0 a 3.7499997,3.7499997 0 0 0 -3.75,3.75 3.7499997,3.7499997 0 0 0 3.75,3.75 3.7499997,3.7499997 0 0 0 3.75,-3.75 3.7499997,3.7499997 0 0 0 -3.75,-3.75 z m 15,0 a 3.7499997,3.7499997 0 0 0 -3.75,3.75 3.7499997,3.7499997 0 0 0 3.75,3.75 3.7499997,3.7499997 0 0 0 3.74999,-3.75 3.7499997,3.7499997 0 0 0 -3.74999,-3.75 z m 14.99999,0 a 3.7499997,3.7499997 0 0 0 -3.75,3.75 3.7499997,3.7499997 0 0 0 3.75,3.75 3.7499997,3.7499997 0 0 0 3.75,-3.75 3.7499997,3.7499997 0 0 0 -3.75,-3.75 z m 15,0 a 3.7499997,3.7499997 0 0 0 -3.75,3.75 3.7499997,3.7499997 0 0 0 3.75,3.75 3.7499997,3.7499997 0 0 0 3.75,-3.75 3.7499997,3.7499997 0 0 0 -3.75,-3.75 z m 15,0 a 3.7499997,3.7499997 0 0 0 -3.75,3.75 3.7499997,3.7499997 0 0 0 3.75,3.75 3.7499997,3.7499997 0 0 0 3.75,-3.75 3.7499997,3.7499997 0 0 0 -3.75,-3.75 z m 15,0 a 3.7499997,3.7499997 0 0 0 -3.75,3.75 3.7499997,3.7499997 0 0 0 3.75,3.75 3.7499997,3.7499997 0 0 0 3.75,-3.75 3.7499997,3.7499997 0 0 0 -3.75,-3.75 z m 15,0 a 3.7499997,3.7499997 0 0 0 -3.75,3.75 3.7499997,3.7499997 0 0 0 3.75,3.75 3.7499997,3.7499997 0 0 0 3.75,-3.75 3.7499997,3.7499997 0 0 0 -3.75,-3.75 z m 15,0 a 3.7499997,3.7499997 0 0 0 -3.75,3.75 3.7499997,3.7499997 0 0 0 3.75,3.75 3.7499997,3.7499997 0 0 0 3.75,-3.75 3.7499997,3.7499997 0 0 0 -3.75,-3.75 z m 15,0 a 3.7499997,3.7499997 0 0 0 -3.75,3.75 3.7499997,3.7499997 0 0 0 3.75,3.75 3.7499997,3.7499997 0 0 0 3.75,-3.75 3.7499997,3.7499997 0 0 0 -3.75,-3.75 z m -157.49999,7.5 a 3.7499997,3.7499997 0 0 0 -3.75,3.75 3.7499997,3.7499997 0 0 0 3.75,3.75 3.7499997,3.7499997 0 0 0 3.75,-3.75 3.7499997,3.7499997 0 0 0 -3.75,-3.75 z m 15,0 a 3.7499997,3.7499997 0 0 0 -3.75,3.75 3.7499997,3.7499997 0 0 0 3.75,3.75 3.7499997,3.7499997 0 0 0 3.75,-3.75 3.7499997,3.7499997 0 0 0 -3.75,-3.75 z m 15,0 a 3.7499997,3.7499997 0 0 0 -3.75,3.75 3.7499997,3.7499997 0 0 0 3.75,3.75 3.7499997,3.7499997 0 0 0 3.75,-3.75 3.7499997,3.7499997 0 0 0 -3.75,-3.75 z m 15,0 a 3.7499997,3.7499997 0 0 0 -3.75,3.75 3.7499997,3.7499997 0 0 0 3.75,3.75 3.7499997,3.7499997 0 0 0 3.75,-3.75 3.7499997,3.7499997 0 0 0 -3.75,-3.75 z m 14.99999,0 a 3.7499997,3.7499997 0 0 0 -3.75,3.75 3.7499997,3.7499997 0 0 0 3.75,3.75 3.7499997,3.7499997 0 0 0 3.75,-3.75 3.7499997,3.7499997 0 0 0 -3.75,-3.75 z m 15,0 a 3.7499997,3.7499997 0 0 0 -3.75,3.75 3.7499997,3.7499997 0 0 0 3.75,3.75 3.7499997,3.7499997 0 0 0 3.75,-3.75 3.7499997,3.7499997 0 0 0 -3.75,-3.75 z m 15,0 a 3.7499997,3.7499997 0 0 0 -3.75,3.75 3.7499997,3.7499997 0 0 0 3.75,3.75 3.7499997,3.7499997 0 0 0 3.75,-3.75 3.7499997,3.7499997 0 0 0 -3.75,-3.75 z m 15,0 a 3.7499997,3.7499997 0 0 0 -3.75,3.75 3.7499997,3.7499997 0 0 0 3.75,3.75 3.7499997,3.7499997 0 0 0 3.75,-3.75 3.7499997,3.7499997 0 0 0 -3.75,-3.75 z m 15,0 a 3.7499997,3.7499997 0 0 0 -3.75,3.75 3.7499997,3.7499997 0 0 0 3.75,3.75 3.7499997,3.7499997 0 0 0 3.75,-3.75 3.7499997,3.7499997 0 0 0 -3.75,-3.75 z m 15,0 a 3.7499997,3.7499997 0 0 0 -3.75,3.75 3.7499997,3.7499997 0 0 0 3.75,3.75 3.7499997,3.7499997 0 0 0 3.75,-3.75 3.7499997,3.7499997 0 0 0 -3.75,-3.75 z m 15,0 a 3.7499997,3.7499997 0 0 0 -3.75,3.75 3.7499997,3.7499997 0 0 0 3.75,3.75 3.7499997,3.7499997 0 0 0 3.75,-3.75 3.7499997,3.7499997 0 0 0 -3.75,-3.75 z m 15,0 a 3.7499997,3.7499997 0 0 0 -3.75,3.75 3.7499997,3.7499997 0 0 0 3.75,3.75 3.7499997,3.7499997 0 0 0 3.75,-3.75 3.7499997,3.7499997 0 0 0 -3.75,-3.75 z"
     style="color:#000000;overflow:visible;fill:#000080;fill-opacity:1;stroke:none;stroke-width:7.575;stroke-linecap:round;stroke-miterlimit:4;stroke-dasharray:none;stroke-dashoffset:188.976"
     id="path957" />
  <rect
     ry="0"
     y="-265.39319"
     x="47.25629"
     height="70"
     width="95"
     id="rect837"
     style="color:#000000;overflow:visible;fill:#ffffff;stroke:#000080;stroke-width:5;stroke-linecap:round;stroke-linejoin:round;stroke-miterlimit:4;stroke-dasharray:none;stroke-dashoffset:20;stroke-opacity:1" />
  <path
     id="path958"
     style="color:#000000;font-style:normal;font-variant:normal;font-weight:normal;font-stretch:normal;font-size:medium;line-height:normal;font-family:sans-serif;font-variant-ligatures:normal;font-variant-position:normal;font-variant-caps:normal;font-variant-numeric:normal;font-variant-alternates:normal;font-variant-east-asian:normal;font-feature-settings:normal;font-variation-settings:normal;text-indent:0;text-align:start;text-decoration:none;text-decoration-line:none;text-decoration-style:solid;text-decoration-color:#000000;letter-spacing:normal;word-spacing:normal;text-transform:none;writing-mode:lr-tb;direction:ltr;text-orientation:mixed;dominant-baseline:auto;baseline-shift:baseline;text-anchor:start;white-space:normal;shape-padding:0;shape-margin:0;inline-size:0;clip-rule:nonzero;display:inline;overflow:visible;visibility:visible;opacity:1;isolation:auto;mix-blend-mode:normal;color-interpolation:sRGB;color-interpolation-filters:linearRGB;solid-color:#000000;solid-opacity:1;vector-effect:none;fill:#000080;fill-opacity:1;fill-rule:evenodd;stroke:none;stroke-width:2;stroke-linecap:butt;stroke-linejoin:miter;stroke-miterlimit:4;stroke-dasharray:none;stroke-dashoffset:0;stroke-opacity:1;color-rendering:auto;image-rendering:auto;shape-rendering:auto;text-rendering:auto;enable-background:accumulate;stop-color:#000000;stop-opacity:1"
     d="m -214.49961,-327.25943 -52.41212,52.41406 1.41407,1.41407 52.41211,-52.41407 z m 5.3457,0 -52.41407,52.41406 1.41406,1.41407 52.41407,-52.41407 z m 5.3457,0 -52.41406,52.41406 1.41406,1.41407 52.41407,-52.41407 z m 5.34571,0 c 0,0 -49.81506,49.81506 -52.41407,52.41406 l 1.41406,1.41407 52.41407,-52.41407 z m 5.34375,0 -52.41212,52.41406 1.41406,1.41407 52.41407,-52.41407 z m 5.3457,0 -52.41211,52.41406 1.41406,1.41407 52.41211,-52.41407 z m 5.3457,0 c 0,0 -49.81504,49.81505 -52.41407,52.41406 l 1.41407,1.41407 c 2.599,-2.59901 52.41406,-52.41407 52.41406,-52.41407 z m 5.34571,0 c 0,0 -49.81506,49.81506 -52.41407,52.41406 l 1.41407,1.41407 c 2.59901,-2.59902 52.41406,-52.41407 52.41406,-52.41407 z m 5.3457,0 c 0,0 -49.81506,49.81506 -52.41406,52.41406 l 1.41406,1.41407 c 2.59901,-2.59902 52.41406,-52.41407 52.41406,-52.41407 z m 5.34374,0 -52.4121,52.41406 1.41406,1.41407 52.41406,-52.41407 z m 5.34571,0 -52.41211,52.41406 1.41406,1.41407 52.41211,-52.41407 z m 5.3457,0 -52.41406,52.41406 1.41602,1.41407 c 2.59901,-2.59902 52.4121,-52.41407 52.4121,-52.41407 z m 5.3457,0 -52.41405,52.41406 1.41406,1.41407 52.41406,-52.41407 z m 5.34571,0 -52.41406,52.41406 1.41406,1.41407 52.41406,-52.41407 z m 5.3457,0 -52.41406,52.41406 1.41406,1.41407 52.41406,-52.41407 z m 5.34375,0 -52.41211,52.41406 1.41407,1.41407 52.4121,-52.41407 z m 5.3457,0 -52.41406,52.41406 1.41602,1.41407 52.4121,-52.41407 z m 5.34571,0 -52.41406,52.41406 1.41406,1.41407 52.41406,-52.41407 z m 5.3457,0 -52.41406,52.41406 1.41406,1.41407 c 2.599,-2.59901 52.41406,-52.41407 52.41406,-52.41407 z m 5.3457,0 -52.41406,52.41406 1.41406,1.41407 52.41406,-52.41407 z m 5.34375,0 -52.41211,52.41406 1.41406,1.41407 52.41211,-52.41407 z m 5.3457,0 -52.4121,52.41406 1.41406,1.41407 52.41211,-52.41407 z m 5.345711,0 -52.414061,52.41406 1.41406,1.41407 52.414061,-52.41407 z m 5.3457,0 -52.414061,52.41406 1.41406,1.41407 52.414061,-52.41407 z" />
  <g
     id="g883"
     transform="rotate(60,-127.05611,-324.73406)">
    <circle
       style="color:#000000;overflow:visible;fill:#ffffff;stroke:#000080;stroke-width:5;stroke-linecap:round;stroke-linejoin:round;stroke-miterlimit:4;stroke-dasharray:none;stroke-dashoffset:20;stroke-opacity:1"
       id="path830-9"
       cx="33.7019"
       cy="50"
       r="20" />
    <g
       id="g877"
       transform="rotate(-60,39.87859,46.991087)">
      <path
         id="path851-6"
         d="M 48.754985,68.383276 64.988179,96.5"
         style="fill:none;fill-rule:evenodd;stroke:#000080;stroke-width:7;stroke-linecap:round;stroke-linejoin:miter;stroke-miterlimit:4;stroke-dasharray:none;stroke-opacity:1" />
      <path
         id="path853-0"
         d="m 44.638433,61.253203 4.271894,7.399136"
         style="fill:none;fill-rule:evenodd;stroke:#000080;stroke-width:5;stroke-linecap:round;stroke-linejoin:miter;stroke-miterlimit:4;stroke-dasharray:none;stroke-opacity:1" />
    </g>
  </g>
  <g
     id="g921"
     transform="translate(-477.76446,-5.8932715)">
    <path
       style="color:#000000;font-style:normal;font-variant:normal;font-weight:normal;font-stretch:normal;font-size:medium;line-height:normal;font-family:sans-serif;font-variant-ligatures:normal;font-variant-position:normal;font-variant-caps:normal;font-variant-numeric:normal;font-variant-alternates:normal;font-variant-east-asian:normal;font-feature-settings:normal;font-variation-settings:normal;text-indent:0;text-align:start;text-decoration:none;text-decoration-line:none;text-decoration-style:solid;text-decoration-color:#000000;letter-spacing:normal;word-spacing:normal;text-transform:none;writing-mode:lr-tb;direction:ltr;text-orientation:mixed;dominant-baseline:auto;baseline-shift:baseline;text-anchor:start;white-space:normal;shape-padding:0;shape-margin:0;inline-size:0;clip-rule:nonzero;display:inline;overflow:visible;visibility:visible;isolation:auto;mix-blend-mode:normal;color-interpolation:sRGB;color-interpolation-filters:linearRGB;solid-color:#000000;solid-opacity:1;vector-effect:none;fill:#ffffff;fill-opacity:1;fill-rule:nonzero;stroke:none;stroke-width:8.26787;stroke-linecap:round;stroke-linejoin:round;stroke-miterlimit:4;stroke-dasharray:none;stroke-dashoffset:20;stroke-opacity:1;color-rendering:auto;image-rendering:auto;shape-rendering:auto;text-rendering:auto;enable-background:accumulate;stop-color:#000000"
       d="m 60.564508,60.56451 c -12.915217,12.915217 -33.854923,12.915217 -46.770141,0 -12.9152169,-12.915219 -12.9152169,-33.854923 1e-6,-46.770141 12.915217,-12.91521748 33.854922,-12.91521748 46.77014,-10e-7 12.915218,12.915218 12.915218,33.854924 0,46.770142"
       id="path875" />
    <path
       id="path877-7"
       style="color:#000000;font-style:normal;font-variant:normal;font-weight:normal;font-stretch:normal;font-size:medium;line-height:normal;font-family:sans-serif;font-variant-ligatures:normal;font-variant-position:normal;font-variant-caps:normal;font-variant-numeric:normal;font-variant-alternates:normal;font-variant-east-asian:normal;font-feature-settings:normal;font-variation-settings:normal;text-indent:0;text-align:start;text-decoration:none;text-decoration-line:none;text-decoration-style:solid;text-decoration-color:#000000;letter-spacing:normal;word-spacing:normal;text-transform:none;writing-mode:lr-tb;direction:ltr;text-orientation:mixed;dominant-baseline:auto;baseline-shift:baseline;text-anchor:start;white-space:normal;shape-padding:0;shape-margin:0;inline-size:0;clip-rule:nonzero;display:inline;overflow:visible;visibility:visible;isolation:auto;mix-blend-mode:normal;color-interpolation:sRGB;color-interpolation-filters:linearRGB;solid-color:#000000;solid-opacity:1;vector-effect:none;fill:#000080;fill-opacity:1;fill-rule:nonzero;stroke:none;stroke-width:8.26787;stroke-linecap:round;stroke-linejoin:round;stroke-miterlimit:4;stroke-dasharray:none;stroke-dashoffset:20;stroke-opacity:1;color-rendering:auto;image-rendering:auto;shape-rendering:auto;text-rendering:auto;enable-background:accumulate;stop-color:#000000"
       d="m 37.179688,0 c -9.530233,0 -19.061096,3.6235956 -26.308594,10.871094 -14.4949966,14.494996 -14.4949966,38.122191 0,52.617187 13.568165,13.568166 35.097661,14.366388 49.685547,2.527344 l 3.576171,3.576172 a 3.9563019,5.9576969 45 0 0 0.646485,3.613281 L 90.730469,99.15625 a 3.9563019,5.9576969 45 0 0 7.009765,-1.416016 3.9563019,5.9576969 45 0 0 1.416016,-7.009765 L 73.205078,64.779297 A 3.9563019,5.9576969 45 0 0 69.589844,64.132812 L 66.013672,60.556641 C 77.853048,45.968833 77.056526,24.439339 63.488281,10.871094 56.240783,3.6235956 46.70992,0 37.179688,0 Z m 0,8.2167969 c 7.397091,10e-8 14.795171,2.8342341 20.46289,8.5019531 11.335439,11.33544 11.335439,29.588389 0,40.923828 -11.335439,11.335439 -29.588388,11.335439 -40.923828,0 C 5.3833109,46.307139 5.3833109,28.05419 16.71875,16.71875 22.38647,11.05103 29.782596,8.2167968 37.179688,8.2167969 Z" />
  </g>
  <path
     id="path4135-0"
     style="fill:#000080;stroke-width:4.26019"
     d="m -452.96688,-129.81206 c -19.23835,0 -35.00153,15.71815 -35.00153,34.901543 0,7.43278 2.37357,14.339959 6.39169,20.019026 l 24.33853,42.073163 c 3.40849,4.452814 5.67492,3.607154 8.50902,-0.23458 l 26.84387,-45.683358 c 0.54231,-0.980988 0.96722,-2.025615 1.33822,-3.092271 1.65692,-4.04689 2.57868,-8.46157 2.57867,-13.08198 0,-19.183393 -15.76012,-34.901543 -34.99847,-34.901543 z m 0,16.354 c 10.3593,0 18.59762,8.21783 18.59762,18.547543 0,10.3297 -8.23832,18.544484 -18.59762,18.544484 -10.3593,0 -18.60067,-8.214784 -18.60067,-18.544484 0,-10.329713 8.24137,-18.547543 18.60067,-18.547543 z" />
  <g
     style="fill:none;stroke:#000080"
     transform="translate(-426.05603,146.57791)"
     id="g985">
    <circle
       style="color:#000000;overflow:visible;fill:none;stroke:#000080;stroke-width:5;stroke-linecap:butt;stroke-linejoin:bevel;stroke-miterlimit:4;stroke-dasharray:none;stroke-dashoffset:50;stroke-opacity:1"
       id="path936"
       cx="32.5"
       cy="57.5"
       r="30" />
    <circle
       r="30"
       cy="50"
       cx="67.5"
       id="path936-4"
       style="color:#000000;overflow:visible;fill:none;stroke:#000080;stroke-width:5;stroke-linecap:butt;stroke-linejoin:bevel;stroke-miterlimit:4;stroke-dasharray:none;stroke-dashoffset:50;stroke-opacity:1" />
  </g>
  <g
     transform="translate(-528.87231,100.49805)"
     id="g866">
    <circle
       r="32.5"
       cy="56.25"
       cx="35"
       id="path936-8"
       style="color:#000000;overflow:visible;fill:none;stroke:#ff0000;stroke-width:5;stroke-linecap:butt;stroke-linejoin:bevel;stroke-miterlimit:4;stroke-dasharray:none;stroke-dashoffset:50;stroke-opacity:1" />
    <circle
       style="color:#000000;overflow:visible;fill:none;stroke:#ff0000;stroke-width:5;stroke-linecap:butt;stroke-linejoin:bevel;stroke-miterlimit:4;stroke-dasharray:none;stroke-dashoffset:50;stroke-opacity:1"
       id="path936-6"
       cx="65"
       cy="48"
       r="32.5" />
  </g>
  <path
     sodipodi:nodetypes="sccccccccccccccccsssscssssssssccssccssccssccssssccsscccccccscc"
     d="m -608.72851,-111.92384 c -4.11501,-0.0178 -6.84961,0.0703 -6.84961,0.0703 -1.3493,0.0423 -2.42135,1.14809 -2.42188,2.49805 v 5.10351 h -1.52929 c -1.36438,3.8e-4 -2.47033,1.10633 -2.47071,2.47071 v 70.058589 c 3.8e-4,1.36438 1.10633,2.47033 2.47071,2.4707 h 43.42968 c 2.62608,1.76707 6.00619,1.36177 8.19922,0 h 43.42969 c 1.36437,-3.7e-4 2.47032,-1.10632 2.4707,-2.4707 v -70.058589 c -3.8e-4,-1.36438 -1.10633,-2.47033 -2.4707,-2.47071 H -526 v -5.10351 c -5.2e-4,-1.34996 -1.07258,-2.45573 -2.42187,-2.49805 0,0 -2.73461,-0.0882 -6.84961,-0.0703 -4.11501,0.0179 -9.60892,0.14127 -15.12891,0.5625 -5.51999,0.42123 -11.05773,1.12105 -15.45703,2.40234 -2.19965,0.64065 -4.12517,1.4074 -5.70117,2.53907 -0.15013,0.10779 -0.29657,0.22647 -0.44141,0.3457 -0.14516,-0.11935 -0.29104,-0.23773 -0.4414,-0.3457 -1.576,-1.13167 -3.50153,-1.89842 -5.70118,-2.53907 -4.39929,-1.28129 -9.93704,-1.98111 -15.45703,-2.40234 -5.51998,-0.42123 -11.0139,-0.54465 -15.1289,-0.5625 z m 0.0215,5.00195 c 4.02497,0.0182 9.38651,0.13728 14.72851,0.54492 5.342,0.40765 10.67274,1.1217 14.43946,2.21875 1.88335,0.54853 3.3645,1.21208 4.18164,1.79883 0.81713,0.58676 0.85513,0.82526 0.85742,1.03125 v 63.681639 c -1.1314,-0.55427 -2.34012,-1.04306 -3.69337,-1.4414 -4.4137,-1.29923 -9.95248,-1.98901 -15.46679,-2.39063 -8.9326,-0.65057 -16.29712,-0.50145 -19.33985,-0.41797 v -64.984369 c 1.12772,-0.0232 1.7197,-0.0527 4.29297,-0.041 z m 73.41406,0 c 2.57326,-0.0117 3.16524,0.0179 4.29296,0.041 v 64.984369 c -3.04273,-0.0835 -10.40725,-0.2326 -19.33984,0.41797 -5.51432,0.40162 -11.0531,1.0914 -15.4668,2.39063 -1.35324,0.39834 -2.56197,0.88713 -3.69336,1.4414 v -63.681639 c 0.002,-0.20599 0.0403,-0.44449 0.85742,-1.03125 0.81714,-0.58675 2.29829,-1.2503 4.18164,-1.79883 3.76672,-1.09705 9.09746,-1.8111 14.43946,-2.21875 5.342,-0.40764 10.70354,-0.52667 14.72851,-0.54492 z m -81.76563,69.519529 c 0.46881,0.3745 1.05666,0.56791 1.65625,0.54493 0,0 10.71864,-0.41118 21.3789,0.36523 5.33014,0.3882 10.65251,1.09276 14.41797,2.20117 0.10559,0.0311 0.19582,0.0659 0.29883,0.0977 h -37.75195 z m 90.11719,0 v 3.20899 h -37.75196 c 0.10302,-0.0318 0.19324,-0.0666 0.29883,-0.0977 3.76546,-1.10841 9.08783,-1.81297 14.41797,-2.20117 10.66027,-0.77641 21.37891,-0.36524 21.37891,-0.36524 0.59958,0.023 1.18744,-0.17043 1.65625,-0.54492 z"
     style="color:#000000;font-style:normal;font-variant:normal;font-weight:normal;font-stretch:normal;font-size:medium;line-height:normal;font-family:sans-serif;font-variant-ligatures:normal;font-variant-position:normal;font-variant-caps:normal;font-variant-numeric:normal;font-variant-alternates:normal;font-variant-east-asian:normal;font-feature-settings:normal;font-variation-settings:normal;text-indent:0;text-align:start;text-decoration:none;text-decoration-line:none;text-decoration-style:solid;text-decoration-color:#000000;letter-spacing:normal;word-spacing:normal;text-transform:none;writing-mode:lr-tb;direction:ltr;text-orientation:mixed;dominant-baseline:auto;baseline-shift:baseline;text-anchor:start;white-space:normal;shape-padding:0;shape-margin:0;inline-size:0;clip-rule:nonzero;display:inline;overflow:visible;visibility:visible;isolation:auto;mix-blend-mode:normal;color-interpolation:sRGB;color-interpolation-filters:linearRGB;solid-color:#000000;solid-opacity:1;vector-effect:none;fill:#000080;fill-opacity:1;fill-rule:nonzero;stroke:none;stroke-width:5;stroke-linecap:round;stroke-linejoin:round;stroke-miterlimit:4;stroke-dasharray:none;stroke-dashoffset:50;stroke-opacity:1;color-rendering:auto;image-rendering:auto;shape-rendering:auto;text-rendering:auto;enable-background:accumulate;stop-color:#000000"
     id="path1334" />
  <path
     style="fill:#000080;fill-opacity:1;fill-rule:evenodd;stroke:#000080;stroke-width:5;stroke-linecap:round;stroke-linejoin:round;stroke-miterlimit:4;stroke-dasharray:none;stroke-opacity:1"
     d="m -236.00016,225.4331 v -72.93428 l 35.00031,95.00157 z"
     id="path830" />
  <path
     id="path830-5"
     d="m -235.99984,225.4331 v -72.93428 l -35.00031,95.00157 z"
     style="fill:#ffffff;fill-opacity:1;fill-rule:evenodd;stroke:#000080;stroke-width:5;stroke-linecap:round;stroke-linejoin:round;stroke-miterlimit:4;stroke-dasharray:none;stroke-opacity:1" />
  <path
     id="path983-72"
     style="color:#000000;font-style:normal;font-variant:normal;font-weight:normal;font-stretch:normal;font-size:medium;line-height:normal;font-family:sans-serif;font-variant-ligatures:normal;font-variant-position:normal;font-variant-caps:normal;font-variant-numeric:normal;font-variant-alternates:normal;font-variant-east-asian:normal;font-feature-settings:normal;font-variation-settings:normal;text-indent:0;text-align:start;text-decoration:none;text-decoration-line:none;text-decoration-style:solid;text-decoration-color:#000000;letter-spacing:normal;word-spacing:normal;text-transform:none;writing-mode:lr-tb;direction:ltr;text-orientation:mixed;dominant-baseline:auto;baseline-shift:baseline;text-anchor:start;white-space:normal;shape-padding:0;shape-margin:0;inline-size:0;clip-rule:nonzero;display:inline;overflow:visible;visibility:visible;isolation:auto;mix-blend-mode:normal;color-interpolation:sRGB;color-interpolation-filters:linearRGB;solid-color:#000000;solid-opacity:1;vector-effect:none;fill:#000080;fill-opacity:1;fill-rule:evenodd;stroke:none;stroke-width:3;stroke-linecap:round;stroke-linejoin:round;stroke-miterlimit:4;stroke-dasharray:none;stroke-dashoffset:0;stroke-opacity:1;color-rendering:auto;image-rendering:auto;shape-rendering:auto;text-rendering:auto;enable-background:accumulate;stop-color:#000000"
     d="m -543.11055,34.144207 c -0.28907,-0.006 -0.57644,0.0951 -0.82617,0.26367 l -33.76953,18.33203 c -0.0189,-0.0103 -0.0377,-0.021 -0.0566,-0.0312 v 1.73633 14 l -9.13672,-11.57813 2.26562,-7.88672 c -8.98066,-4.88273 -17.9591,-9.7729 -26.94531,-14.62304 -0.58915,-0.31733 -1.10634,-0.29271 -1.58398,0.1875 -0.47752,0.48034 -0.34199,1.18745 -0.0723,1.69726 l 18.28515,33.68555 c -0.004,0.006 -0.006,0.0131 -0.01,0.0195 h 1.69336 14 l -11.60933,9.13867 -7.82813,-2.24219 c -4.90509,9.02285 -9.81687,18.04447 -14.68945,27.072273 -0.31733,0.58914 -0.29271,1.10439 0.1875,1.58203 0.48034,0.47751 1.18745,0.34394 1.69726,0.0742 l 33.7461,-18.318363 v -1.69336 -14 l 9.17383,11.48828 -2.26172,7.89649 26.97656,14.646483 c 0.68852,0.35075 1.15416,0.41256 1.68164,-0.10937 0.52753,-0.52188 0.45829,-1.1685 0.12109,-1.66797 l -18.38281,-33.867193 h -1.68945 -14 l 11.44922,-9.17188 7.95898,2.28711 14.57617,-26.85351 c 0.35075,-0.68852 0.41256,-1.15416 -0.10937,-1.68164 -0.26094,-0.26377 -0.55273,-0.37657 -0.8418,-0.38281 z m -66.39062,4.0625 1.20703,1.16992 19.62304,19.62304 c -0.34351,0.33199 -0.69214,0.73057 -1.03711,1.27539 -1.24058,2.29347 -2.49024,4.58439 -3.73437,6.87696 z m 63.52734,0.0234 -20.77148,20.77148 c -0.31823,-0.31826 -0.69159,-0.64005 -1.19532,-0.95899 -2.32677,-1.25859 -4.65071,-2.52682 -6.97656,-3.78906 z m -16.00586,34.49023 16.08398,29.056643 -20.76953,-20.769533 c 0.36049,-0.38684 0.62507,-0.81489 0.87891,-1.27539 z m -26.76758,8.2832 c 0.40627,0.39989 0.86012,0.68808 1.35156,0.95898 l 6.91016,3.75196 -29.05859,16.123043 1.16992,-1.20703 z" />
  <path
     id="path983-7"
     style="color:#000000;font-style:normal;font-variant:normal;font-weight:normal;font-stretch:normal;font-size:medium;line-height:normal;font-family:sans-serif;font-variant-ligatures:normal;font-variant-position:normal;font-variant-caps:normal;font-variant-numeric:normal;font-variant-alternates:normal;font-variant-east-asian:normal;font-feature-settings:normal;font-variation-settings:normal;text-indent:0;text-align:start;text-decoration:none;text-decoration-line:none;text-decoration-style:solid;text-decoration-color:#000000;letter-spacing:normal;word-spacing:normal;text-transform:none;writing-mode:lr-tb;direction:ltr;text-orientation:mixed;dominant-baseline:auto;baseline-shift:baseline;text-anchor:start;white-space:normal;shape-padding:0;shape-margin:0;inline-size:0;clip-rule:nonzero;display:inline;overflow:visible;visibility:visible;isolation:auto;mix-blend-mode:normal;color-interpolation:sRGB;color-interpolation-filters:linearRGB;solid-color:#000000;solid-opacity:1;vector-effect:none;fill:#ff0000;fill-opacity:1;fill-rule:evenodd;stroke:none;stroke-width:3;stroke-linecap:round;stroke-linejoin:round;stroke-miterlimit:4;stroke-dasharray:none;stroke-dashoffset:0;stroke-opacity:1;color-rendering:auto;image-rendering:auto;shape-rendering:auto;text-rendering:auto;enable-background:accumulate;stop-color:#000000"
     d="m -577.76094,19.831697 c -0.74204,-0.004 -1.14892,0.50214 -1.26367,1.09375 l -10.91797,36.8418 c -12.32062,3.64698 -24.65095,7.27684 -36.94922,10.95313 -0.64097,0.1922 -0.98814,0.57465 -0.98633,1.25195 0.002,0.6773 0.59723,1.08219 1.14844,1.25195 l 36.75,10.88868 c 3.65966,12.3628 7.30132,24.735703 10.99023,37.076173 0.1922,0.64097 0.57466,0.98811 1.25196,0.98633 0.6773,-0.002 1.08218,-0.59723 1.25195,-1.14844 l 10.92578,-36.875003 36.91406,-10.9375 c 0.73487,-0.23884 1.10742,-0.52358 1.11134,-1.26563 0.004,-0.74204 -0.50215,-1.14892 -1.09376,-1.26367 l -36.96679,-10.95508 -10.90039,-36.78711 c -0.23885,-0.73487 -0.52358,-1.10741 -1.26563,-1.11133 z m -0.002,5.23829 v 43.375 l -9.13667,-11.57813 z m 13.06836,35.70507 31.92187,9.17188 h -43.37104 z m -56.32417,9.17188 h 41.75195 l -11.60937,9.13867 -31.82422,-9.11328 z m 43.25586,1.61328 9.17383,11.48828 -9.14844,31.949223 -0.0254,-1.68164 z" />
  <path
     id="path841"
     style="color:#000000;font-style:normal;font-variant:normal;font-weight:normal;font-stretch:normal;font-size:medium;line-height:normal;font-family:sans-serif;font-variant-ligatures:normal;font-variant-position:normal;font-variant-caps:normal;font-variant-numeric:normal;font-variant-alternates:normal;font-variant-east-asian:normal;font-feature-settings:normal;font-variation-settings:normal;text-indent:0;text-align:start;text-decoration:none;text-decoration-line:none;text-decoration-style:solid;text-decoration-color:#000000;letter-spacing:normal;word-spacing:normal;text-transform:none;writing-mode:lr-tb;direction:ltr;text-orientation:mixed;dominant-baseline:auto;baseline-shift:baseline;text-anchor:start;white-space:normal;shape-padding:0;shape-margin:0;inline-size:0;clip-rule:nonzero;display:inline;overflow:visible;visibility:visible;opacity:1;isolation:auto;mix-blend-mode:normal;color-interpolation:sRGB;color-interpolation-filters:linearRGB;solid-color:#000000;solid-opacity:1;vector-effect:none;fill:#000080;fill-opacity:1;fill-rule:nonzero;stroke:none;stroke-width:5;stroke-linecap:round;stroke-linejoin:round;stroke-miterlimit:4;stroke-dasharray:none;stroke-dashoffset:20;stroke-opacity:1;color-rendering:auto;image-rendering:auto;shape-rendering:auto;text-rendering:auto;enable-background:accumulate;stop-color:#000000;stop-opacity:1"
     d="m -650.2635,149.12667 c -1.38066,1.4e-4 -2.49987,1.11934 -2.5,2.5 v 95 c 1.3e-4,1.38065 1.11934,2.49986 2.5,2.5 h 72 c 1.38065,-1.4e-4 2.49986,-1.11935 2.5,-2.5 v -75.875 c 0.0265,-1.11298 0.004,-1.7767 -0.73243,-2.58985 l -18.30273,-18.30273 c -0.47641,-0.47657 -1.12502,-0.74067 -1.79883,-0.73242 z m 2.5,5 h 48.90234 l 1.25195,14.56836 c 0.104,1.21205 1.06529,2.17334 2.27735,2.27734 l 14.56836,1.25195 v 71.90235 h -67 z m 54.27539,4.11523 8.60937,8.60938 -7.92773,-0.68164 z"
     sodipodi:nodetypes="ccccccccccccccccccccccc" />
  <path
     id="path841-8"
     style="color:#000000;font-style:normal;font-variant:normal;font-weight:normal;font-stretch:normal;font-size:medium;line-height:normal;font-family:sans-serif;font-variant-ligatures:normal;font-variant-position:normal;font-variant-caps:normal;font-variant-numeric:normal;font-variant-alternates:normal;font-variant-east-asian:normal;font-feature-settings:normal;font-variation-settings:normal;text-indent:0;text-align:start;text-decoration:none;text-decoration-line:none;text-decoration-style:solid;text-decoration-color:#000000;letter-spacing:normal;word-spacing:normal;text-transform:none;writing-mode:lr-tb;direction:ltr;text-orientation:mixed;dominant-baseline:auto;baseline-shift:baseline;text-anchor:start;white-space:normal;shape-padding:0;shape-margin:0;inline-size:0;clip-rule:nonzero;display:inline;overflow:visible;visibility:visible;opacity:1;isolation:auto;mix-blend-mode:normal;color-interpolation:sRGB;color-interpolation-filters:linearRGB;solid-color:#000000;solid-opacity:1;vector-effect:none;fill:#000080;fill-opacity:1;fill-rule:nonzero;stroke:none;stroke-width:5;stroke-linecap:round;stroke-linejoin:round;stroke-miterlimit:4;stroke-dasharray:none;stroke-dashoffset:20;stroke-opacity:1;color-rendering:auto;image-rendering:auto;shape-rendering:auto;text-rendering:auto;enable-background:accumulate;stop-color:#000000;stop-opacity:1"
     d="m -745.75517,147.00009 c -1.38065,1.4e-4 -2.49986,1.11935 -2.5,2.5 v 67.5 h -11.49609 v 22 h 11.49609 v 5.5 c 1.4e-4,1.38066 1.11935,2.49987 2.5,2.50001 h 72 c 1.38066,-1.4e-4 2.49987,-1.11935 2.5,-2.50001 v -75.875 c 0.0265,-1.11298 0.004,-1.77669 -0.73242,-2.58984 l -18.30273,-18.30274 c -0.47641,-0.47657 -1.12502,-0.74066 -1.79883,-0.73242 z m 2.5,5 h 48.90235 l 1.25195,14.56836 c 0.104,1.21206 1.06529,2.17334 2.27734,2.27735 l 14.56836,1.25195 v 71.90234 h -67 v -3 h 63.50391 v -22 h -63.50391 z m 54.27539,4.11524 8.60938,8.60937 -7.92773,-0.68164 z" />
  <path
     id="path862"
     style="color:#000000;font-style:normal;font-variant:normal;font-weight:normal;font-stretch:normal;font-size:medium;line-height:normal;font-family:sans-serif;font-variant-ligatures:normal;font-variant-position:normal;font-variant-caps:normal;font-variant-numeric:normal;font-variant-alternates:normal;font-variant-east-asian:normal;font-feature-settings:normal;font-variation-settings:normal;text-indent:0;text-align:start;text-decoration:none;text-decoration-line:none;text-decoration-style:solid;text-decoration-color:#000000;letter-spacing:normal;word-spacing:normal;text-transform:none;writing-mode:lr-tb;direction:ltr;text-orientation:mixed;dominant-baseline:auto;baseline-shift:baseline;text-anchor:start;white-space:normal;shape-padding:0;shape-margin:0;inline-size:0;clip-rule:nonzero;display:inline;overflow:visible;visibility:visible;opacity:1;isolation:auto;mix-blend-mode:normal;color-interpolation:sRGB;color-interpolation-filters:linearRGB;solid-color:#000000;solid-opacity:1;vector-effect:none;fill:#000080;fill-opacity:1;fill-rule:nonzero;stroke:none;stroke-width:2.50402;stroke-linecap:round;stroke-linejoin:round;stroke-miterlimit:4;stroke-dasharray:none;stroke-dashoffset:188.976;stroke-opacity:1;color-rendering:auto;image-rendering:auto;shape-rendering:auto;text-rendering:auto;enable-background:accumulate;stop-color:#000000;stop-opacity:1"
     d="m -708.49925,165.00009 v 10.11 h 8.85211 c -0.49463,-1.414 -1.06675,-2.719 -1.70685,-3.881 -1.98576,-3.606 -4.50723,-5.78 -7.14526,-6.229 z m -2.50402,0.1 c -2.46872,0.613 -4.81255,2.735 -6.68163,6.13 -0.64009,1.162 -1.21221,2.467 -1.70684,3.881 h 8.38847 z m -5.76903,0.678 c -5.00557,1.636 -9.23247,4.973 -12.00463,9.333 h 6.73836 c 0.59445,-1.851 1.31852,-3.562 2.15972,-5.089 0.89752,-1.63 1.94268,-3.067 3.10655,-4.244 z m 14.72873,0.231 c 1.07416,1.134 2.04387,2.488 2.88354,4.013 0.84102,1.527 1.56356,3.238 2.15678,5.089 h 6.27766 c -2.64482,-4.16 -6.61171,-7.393 -11.31798,-9.102 z m -28.11253,11.606 c -1.19775,2.551 -1.9332,5.362 -2.09516,8.329 h 8.40803 c 0.0973,-2.941 0.47949,-5.744 1.10334,-8.329 z m 10.00337,0 c -0.66122,2.542 -1.07741,5.357 -1.18354,8.329 h 10.333 v -8.329 z m 11.65348,0 v 8.329 h 10.79664 c -0.10614,-2.972 -0.52232,-5.787 -1.18355,-8.329 z m 12.19732,0 c 0.62215,2.586 1.00338,5.388 1.1004,8.329 h 7.95027 c -0.16196,-2.967 -0.89741,-5.778 -2.09516,-8.329 z m -35.94933,10.832 c 0.16196,2.967 0.89741,5.778 2.09516,8.329 h 7.29786 c -0.5878,-2.593 -0.93418,-5.396 -0.99868,-8.329 z m 10.89836,0 c 0.0703,2.962 0.4514,5.774 1.07497,8.329 h 9.27466 v -8.329 z m 12.85365,0 v 8.329 h 9.7383 c 0.62356,-2.555 1.00463,-5.367 1.07496,-8.329 z m 13.30946,0 c -0.0645,2.932 -0.40837,5.736 -0.99476,8.329 h 6.83813 c 1.19775,-2.551 1.9332,-5.362 2.09516,-8.329 z m -33.58714,10.833 c 2.64683,4.162 6.61778,7.397 11.32874,9.105 -0.89444,-1.026 -1.7107,-2.207 -2.43066,-3.514 -0.91693,-1.666 -1.69737,-3.546 -2.31915,-5.591 z m 9.21206,0 c 0.53149,1.61 1.16459,3.084 1.87997,4.383 1.75259,3.182 3.92299,5.246 6.22191,5.997 0.15332,0.01 0.30554,0.03 0.45972,0.03 v -10.415 z m 11.06562,0 v 10.415 c 0.35725,-0.02 0.7126,-0.04 1.06519,-0.08 2.24634,-0.789 4.3635,-2.834 6.08007,-5.951 0.71538,-1.299 1.34849,-2.773 1.87998,-4.383 z m 11.65642,0 c -0.62063,2.045 -1.40033,3.926 -2.3172,5.591 -0.65702,1.193 -1.39366,2.282 -2.19689,3.243 4.4049,-1.766 8.11652,-4.879 10.63133,-8.834 z" />
  <path
     id="rect910"
     style="color:#000000;overflow:visible;fill:#000080;stroke-width:8.653;stroke-linecap:round;stroke-linejoin:round;stroke-dashoffset:20"
     d="m -824.54688,137.5 a 45,45 0 0 0 -43.58593,34 H -874.5 v 22 h 6.36523 a 45,45 0 0 0 43.63477,34 45,45 0 0 0 43.63281,-34 H -774.5 v -22 h -6.36523 a 45,45 0 0 0 -43.63477,-34 45,45 0 0 0 -0.0469,0 z m 2.29688,5.11328 c 4.74082,0.80659 9.27121,4.71255 12.83984,11.19336 1.15032,2.08904 2.17946,4.43337 3.06836,6.97461 H -822.25 Z m -4.5,0.17774 v 17.99023 h -15.07422 c 0.88891,-2.54124 1.91609,-4.88557 3.06641,-6.97461 3.35894,-6.10001 7.57126,-9.91447 12.00781,-11.01562 z m -10.36719,1.21875 c -2.0916,2.11667 -3.97104,4.69776 -5.58398,7.62695 -1.51174,2.74539 -2.81257,5.81879 -3.88086,9.14453 h -12.10938 c 4.98188,-7.83519 12.57867,-13.831 21.57422,-16.77148 z m 26.46875,0.41601 c 8.45768,3.07118 15.58682,8.88019 20.33985,16.35547 h -11.28125 c -1.06609,-3.32588 -2.36556,-6.39974 -3.87696,-9.14453 -1.50898,-2.74038 -3.25126,-5.17415 -5.18164,-7.21094 z m -50.52148,20.85547 h 13.32812 c -0.4825,1.99946 -0.86621,4.08575 -1.18164,6.21875 h -14.45117 c 0.60469,-2.14872 1.37116,-4.23079 2.30469,-6.21875 z m 17.97656,0 H -826.75 V 171.5 h -17.72656 c 0.3404,-2.15207 0.76707,-4.23417 1.2832,-6.21875 z m 20.94336,0 h 17.27539 c 0.51613,1.98458 0.9428,4.06668 1.2832,6.21875 H -822.25 Z m 21.91992,0 h 12.5 c 0.93353,1.98796 1.7,4.07003 2.30469,6.21875 h -13.62695 c -0.3146,-2.13297 -0.69655,-4.21898 -1.17774,-6.21875 z M -863.47461,193.5 h 14.32227 c 0.28793,2.13062 0.64369,4.21429 1.09765,6.2168 h -13.11523 c -0.93353,-1.98795 -1.7,-4.06808 -2.30469,-6.2168 z m 18.86133,0 H -826.75 v 6.2168 h -16.66797 c -0.48571,-1.98969 -0.88333,-4.0689 -1.19531,-6.2168 z m 22.36328,0 h 18.69727 c -0.31199,2.14795 -0.71155,4.22706 -1.19727,6.2168 h -17.5 z m 23.22461,0 h 13.5 c -0.60469,2.14872 -1.37116,4.22885 -2.30469,6.2168 h -12.28906 c 0.45287,-2.00271 0.80711,-4.08616 1.09375,-6.2168 z m -59.66602,10.7168 h 11.82422 c 1.11741,3.67531 2.5182,7.05631 4.16602,10.04883 1.29385,2.3497 2.76174,4.4725 4.36914,6.3164 -8.46612,-3.06934 -15.60273,-8.88427 -20.35938,-16.36523 z m 16.55469,0 H -826.75 v 18.71875 c -0.27707,-0.0151 -0.55063,-0.0438 -0.82617,-0.0644 -4.13141,-1.34936 -8.03205,-5.05751 -11.18164,-10.77734 -1.28562,-2.33475 -2.42377,-4.98376 -3.37891,-7.87696 z m 19.88672,0 h 16.21875 c -0.95514,2.8932 -2.09329,5.54221 -3.37891,7.87695 -3.08486,5.60228 -6.88886,9.27839 -10.92578,10.69532 -0.63364,0.0645 -1.27204,0.11144 -1.91406,0.14648 z m 20.94727,0 h 10.99414 c -4.5194,7.10783 -11.18939,12.7036 -19.10547,15.87695 1.44349,-1.72808 2.76652,-3.68384 3.94726,-5.82812 1.64773,-2.99236 3.04874,-6.37269 4.16407,-10.04883 z" />
</svg>
