<?xml version="1.0" encoding="UTF-8" standalone="no"?>
<svg
   xmlns:dc="http://purl.org/dc/elements/1.1/"
   xmlns:cc="http://creativecommons.org/ns#"
   xmlns:rdf="http://www.w3.org/1999/02/22-rdf-syntax-ns#"
   xmlns:svg="http://www.w3.org/2000/svg"
   xmlns="http://www.w3.org/2000/svg"
   xmlns:sodipodi="http://sodipodi.sourceforge.net/DTD/sodipodi-0.dtd"
   xmlns:inkscape="http://www.inkscape.org/namespaces/inkscape"
   version="1.1"
   width="100"
   height="100"
   id="svg4460"
   sodipodi:docname="utils.svg"
   inkscape:version="1.0 (4035a4fb49, 2020-05-01)">
  <sodipodi:namedview
     pagecolor="#ffffff"
     bordercolor="#666666"
     borderopacity="1"
     objecttolerance="10"
     gridtolerance="10"
     guidetolerance="10"
     inkscape:pageopacity="0"
     inkscape:pageshadow="2"
     inkscape:window-width="1920"
     inkscape:window-height="1017"
     id="namedview11"
     showgrid="false"
     inkscape:zoom="0.5"
     inkscape:cx="-433.36609"
     inkscape:cy="-171.05182"
     inkscape:window-x="-8"
     inkscape:window-y="-8"
     inkscape:window-maximized="1"
     inkscape:current-layer="svg4460"
     inkscape:document-rotation="0" />
  <defs
     id="defs4462">
    <clipPath
       id="a">
      <path
         d="M 0,841.89 H 595.28 V 0 H 0 Z"
         id="path4138" />
    </clipPath>
    <clipPath
       id="a-4">
      <path
         d="M 0,841.89 H 595.28 V 0 H 0 Z"
         id="path4138-6" />
    </clipPath>
  </defs>
  <metadata
     id="metadata4465">
    <rdf:RDF>
      <cc:Work
         rdf:about="">
        <dc:format>image/svg+xml</dc:format>
        <dc:type
           rdf:resource="http://purl.org/dc/dcmitype/StillImage" />
        <dc:title></dc:title>
      </cc:Work>
    </rdf:RDF>
  </metadata>
  <path
     id="path967"
     style="color:#000000;font-style:normal;font-variant:normal;font-weight:normal;font-stretch:normal;font-size:medium;line-height:normal;font-family:sans-serif;font-variant-ligatures:normal;font-variant-position:normal;font-variant-caps:normal;font-variant-numeric:normal;font-variant-alternates:normal;font-variant-east-asian:normal;font-feature-settings:normal;font-variation-settings:normal;text-indent:0;text-align:start;text-decoration:none;text-decoration-line:none;text-decoration-style:solid;text-decoration-color:#000000;letter-spacing:normal;word-spacing:normal;text-transform:none;writing-mode:lr-tb;direction:ltr;text-orientation:mixed;dominant-baseline:auto;baseline-shift:baseline;text-anchor:start;white-space:normal;shape-padding:0;shape-margin:0;inline-size:0;clip-rule:nonzero;display:inline;overflow:visible;visibility:visible;opacity:1;isolation:auto;mix-blend-mode:normal;color-interpolation:sRGB;color-interpolation-filters:linearRGB;solid-color:#000000;solid-opacity:1;vector-effect:none;fill:#000080;fill-opacity:1;fill-rule:evenodd;stroke:none;stroke-width:3;stroke-linecap:butt;stroke-linejoin:miter;stroke-miterlimit:4;stroke-dasharray:none;stroke-dashoffset:0;stroke-opacity:1;color-rendering:auto;image-rendering:auto;shape-rendering:auto;text-rendering:auto;enable-background:accumulate;stop-color:#000000;stop-opacity:1"
     d="m 147.16551,-116.94437 a 2.50025,2.50025 0 0 0 -1.07617,0.23243 l -31.66602,14.71093 a 2.50025,2.50025 0 0 0 -1.44726,2.267583 v 70.289062 a 2.50025,2.50025 0 0 0 3.55273,2.267578 l 30.61328,-14.220703 30.61328,14.220703 a 2.50025,2.50025 0 0 0 2.10742,0 l 31.66602,-14.710937 a 2.50025,2.50025 0 0 0 1.44727,-2.267578 v -70.289068 a 2.50025,2.50025 0 0 0 -3.55274,-2.26757 l -30.61328,14.2207 -30.61328,-14.2207 a 2.50025,2.50025 0 0 0 -1.03125,-0.23243 z m 1.45703,5.94336 28.67578,13.32227 -0.36914,64.605469 -28.67578,-13.322266 z m -3,0.0195 -0.37109,64.949224 -27.27539,12.669921 v -64.775389 z m 62.35352,0.45508 v 64.777347 l -28.04883,13.029297 0.37109,-64.949219 z" />
  <circle
     style="opacity:1;fill:none;fill-opacity:0;stroke:#000080;stroke-width:7;stroke-linecap:round;stroke-linejoin:round;stroke-miterlimit:4;stroke-dasharray:none;stroke-dashoffset:0;stroke-opacity:1;paint-order:normal"
     id="path812"
     cx="-41.056187"
     cy="29.276724"
     r="9.0499887" />
  <path
     style="fill:#000000;fill-opacity:0;stroke:#000080;stroke-width:7;stroke-linecap:round;stroke-linejoin:round;stroke-miterlimit:4;stroke-dasharray:none;stroke-opacity:1"
     d="m -106.78503,93.516309 20.709899,-42.80032 40.039,10.58503 14.266703,43.490651"
     id="path822"
     inkscape:connector-curvature="0" />
  <path
     style="fill:none;fill-opacity:1;stroke:#000080;stroke-width:7;stroke-linecap:round;stroke-linejoin:round;stroke-miterlimit:4;stroke-dasharray:none;stroke-opacity:1"
     d="m -108.62283,156.88771 20.709799,-42.80033 40.0391,10.58503 14.266703,43.49066 z"
     id="path822-1"
     inkscape:connector-curvature="0" />
  <path
     d="m 53.228683,53.215972 c 3.295967,0.380868 6.388979,-0.629181 8.751232,-2.857827 2.398658,-2.26273 3.47761,-4.748632 3.47761,-8.012494 0,-3.304401 -1.089861,-5.779699 -3.560186,-8.086863 -1.091764,-1.019423 -2.527026,-1.856721 -4.091672,-2.386772 -1.279368,-0.433497 -4.11463,-0.541443 -5.63564,-0.214636 -1.693394,0.363743 -3.708343,1.41895 -4.983022,2.609348 -2.385339,2.227492 -3.528221,4.84501 -3.528221,8.079037 0,1.938816 0.282232,3.153075 1.145165,4.923756 0.627761,1.288007 0.863187,1.609257 2.036132,2.77988 1.02111,1.019145 1.581266,1.455025 2.435701,1.895004 1.40761,0.724861 2.633449,1.119162 3.952901,1.271681 z m 0.619389,26.528127 C 53.616198,79.602831 52.576949,78.588913 51.537826,77.490781 43.57849,69.079129 38.022255,60.8967 35.006238,53.144685 34.098782,50.812482 33.762513,49.634691 33.407217,47.546768 32.317357,41.144077 33.622602,34.890392 37.156404,29.5707 c 1.345329,-2.024918 4.074547,-4.770271 6.022902,-6.058633 7.109087,-4.701154 15.674997,-4.681594 22.816807,0.05213 1.853474,1.228414 4.60971,4.021106 5.921805,5.999877 2.402337,3.623318 3.682593,7.342354 4.071503,11.828681 0.317495,3.661574 -0.229084,7.236094 -1.711406,11.216521 -2.884859,7.741538 -8.128926,15.468489 -17.160741,25.286483 -2.016344,2.191797 -2.374049,2.394218 -3.269202,1.848374 z"
     style="fill:#000080;stroke-width:2.72726"
     id="path4135"
     inkscape:connector-curvature="0" />
  <path
     sodipodi:nodetypes="ccccc"
     style="fill:none;fill-opacity:1;stroke:#000080;stroke-width:7;stroke-linecap:round;stroke-linejoin:round;stroke-miterlimit:4;stroke-dasharray:none;stroke-opacity:1"
     d="m -68.089211,-44.526042 -24.6346,29.01569 93.00079952,-0.065 -24.57940252,-28.95065 z"
     id="path897"
     inkscape:connector-curvature="0" />
  <rect
     style="opacity:1;fill:none;fill-opacity:1;stroke:#000080;stroke-width:7.62166999;stroke-linecap:round;stroke-linejoin:round;stroke-miterlimit:4;stroke-dasharray:none;stroke-dashoffset:0;stroke-opacity:1;paint-order:normal"
     id="rect921"
     width="51.644939"
     height="51.644939"
     x="-142.13924"
     y="-92.355026"
     transform="matrix(0.87666883,-0.48109433,0.87666883,0.48109433,0,0)" />
  <circle
     style="opacity:1;fill:#000080;fill-opacity:1;stroke:none;stroke-width:7.01427;stroke-linecap:round;stroke-linejoin:round;stroke-miterlimit:4;stroke-dasharray:none;stroke-dashoffset:0;stroke-opacity:1;paint-order:normal"
     id="path981"
     cx="-195.78871"
     cy="98.851883"
     r="7.4999995" />
  <path
     style="fill:#000000;fill-opacity:0;stroke:#000080;stroke-width:5;stroke-linecap:round;stroke-linejoin:round;stroke-miterlimit:4;stroke-dasharray:none;stroke-opacity:1"
     d="m -181.19193,117.08615 24.4554,17.0297 6.1386,-39.009901"
     id="path983"
     inkscape:connector-curvature="0" />
  <path
     d="m -144.81163,-52.579208 v 7.767578 h -7.76758 v 5.464844 h 7.76758 v 7.767578 h 5.46484 v -7.767578 h 7.76758 v -5.464844 h -7.76758 v -7.767578 z"
     style="color:#000000;font-style:normal;font-variant:normal;font-weight:normal;font-stretch:normal;font-size:medium;line-height:normal;font-family:sans-serif;font-variant-ligatures:normal;font-variant-position:normal;font-variant-caps:normal;font-variant-numeric:normal;font-variant-alternates:normal;font-variant-east-asian:normal;font-feature-settings:normal;font-variation-settings:normal;text-indent:0;text-align:start;text-decoration:none;text-decoration-line:none;text-decoration-style:solid;text-decoration-color:#000000;letter-spacing:normal;word-spacing:normal;text-transform:none;writing-mode:lr-tb;direction:ltr;text-orientation:mixed;dominant-baseline:auto;baseline-shift:baseline;text-anchor:start;white-space:normal;shape-padding:0;shape-margin:0;inline-size:0;clip-rule:nonzero;display:inline;overflow:visible;visibility:visible;opacity:1;isolation:auto;mix-blend-mode:normal;color-interpolation:sRGB;color-interpolation-filters:linearRGB;solid-color:#000000;solid-opacity:1;vector-effect:none;fill:#000080;fill-opacity:1;fill-rule:evenodd;stroke:none;stroke-width:5.46564;stroke-linecap:butt;stroke-linejoin:miter;stroke-miterlimit:4;stroke-dasharray:none;stroke-dashoffset:0;stroke-opacity:1;color-rendering:auto;image-rendering:auto;shape-rendering:auto;text-rendering:auto;enable-background:accumulate;stop-color:#000000;stop-opacity:1"
     id="path879" />
  <circle
     style="opacity:1;fill:#000000;fill-opacity:0;stroke:#000080;stroke-width:7.00024;stroke-linecap:round;stroke-linejoin:round;stroke-miterlimit:4;stroke-dasharray:none;stroke-dashoffset:0;stroke-opacity:1;paint-order:normal"
     id="path812-3"
     cx="-258.41583"
     cy="-77.227722"
     r="46.499882" />
  <path
     d="m 55.264787,-95.183527 39.60396,-18.027143 v 86.138618 l -39.60396,18.0271384 z"
     style="color:#000000;overflow:visible;fill:#ffffff;stroke:#000080;stroke-width:1;stroke-linecap:round;stroke-linejoin:bevel;stroke-miterlimit:4;stroke-dasharray:none;stroke-dashoffset:188.976"
     id="rect870-3" />
  <path
     d="m -460.78545,-373.70308 a 3.7499997,3.7499997 0 0 0 -3.73144,3.75 3.7499997,3.7499997 0 0 0 3.75,3.75 3.7499997,3.7499997 0 0 0 3.75,-3.75 3.7499997,3.7499997 0 0 0 -3.75,-3.75 3.7499997,3.7499997 0 0 0 -0.0186,0 z m 15,0 a 3.7499997,3.7499997 0 0 0 -3.73144,3.75 3.7499997,3.7499997 0 0 0 3.75,3.75 3.7499997,3.7499997 0 0 0 3.75,-3.75 3.7499997,3.7499997 0 0 0 -3.75,-3.75 3.7499997,3.7499997 0 0 0 -0.0186,0 z m 15,0 a 3.7499997,3.7499997 0 0 0 -3.73144,3.75 3.7499997,3.7499997 0 0 0 3.75,3.75 3.7499997,3.7499997 0 0 0 3.75,-3.75 3.7499997,3.7499997 0 0 0 -3.75,-3.75 3.7499997,3.7499997 0 0 0 -0.0186,0 z m 15,0 a 3.7499997,3.7499997 0 0 0 -3.73144,3.75 3.7499997,3.7499997 0 0 0 3.75,3.75 3.7499997,3.7499997 0 0 0 3.75,-3.75 3.7499997,3.7499997 0 0 0 -3.75,-3.75 3.7499997,3.7499997 0 0 0 -0.0186,0 z m 15,0 a 3.7499997,3.7499997 0 0 0 -3.73144,3.75 3.7499997,3.7499997 0 0 0 3.75,3.75 3.7499997,3.7499997 0 0 0 3.74999,-3.75 3.7499997,3.7499997 0 0 0 -3.74999,-3.75 3.7499997,3.7499997 0 0 0 -0.0186,0 z m 15,0 a 3.7499997,3.7499997 0 0 0 -3.73145,3.75 3.7499997,3.7499997 0 0 0 3.75,3.75 3.7499997,3.7499997 0 0 0 3.75,-3.75 3.7499997,3.7499997 0 0 0 -3.75,-3.75 3.7499997,3.7499997 0 0 0 -0.0186,0 z m 15,0 a 3.7499997,3.7499997 0 0 0 -3.73145,3.75 3.7499997,3.7499997 0 0 0 3.75,3.75 3.7499997,3.7499997 0 0 0 3.75,-3.75 3.7499997,3.7499997 0 0 0 -3.75,-3.75 3.7499997,3.7499997 0 0 0 -0.0186,0 z m 15,0 a 3.7499997,3.7499997 0 0 0 -3.73145,3.75 3.7499997,3.7499997 0 0 0 3.75,3.75 3.7499997,3.7499997 0 0 0 3.75,-3.75 3.7499997,3.7499997 0 0 0 -3.75,-3.75 3.7499997,3.7499997 0 0 0 -0.0186,0 z m 15,0 a 3.7499997,3.7499997 0 0 0 -3.73145,3.75 3.7499997,3.7499997 0 0 0 3.75,3.75 3.7499997,3.7499997 0 0 0 3.75,-3.75 3.7499997,3.7499997 0 0 0 -3.75,-3.75 3.7499997,3.7499997 0 0 0 -0.0186,0 z m 14.99999,0 a 3.7499997,3.7499997 0 0 0 -3.73144,3.75 3.7499997,3.7499997 0 0 0 3.75,3.75 3.7499997,3.7499997 0 0 0 3.75,-3.75 3.7499997,3.7499997 0 0 0 -3.75,-3.75 3.7499997,3.7499997 0 0 0 -0.0186,0 z m 15,0 a 3.7499997,3.7499997 0 0 0 -3.73144,3.75 3.7499997,3.7499997 0 0 0 3.75,3.75 3.7499997,3.7499997 0 0 0 3.75,-3.75 3.7499997,3.7499997 0 0 0 -3.75,-3.75 3.7499997,3.7499997 0 0 0 -0.0186,0 z m 15,0 a 3.7499997,3.7499997 0 0 0 -3.73144,3.75 3.7499997,3.7499997 0 0 0 3.75,3.75 3.7499997,3.7499997 0 0 0 3.75,-3.75 3.7499997,3.7499997 0 0 0 -3.75,-3.75 3.7499997,3.7499997 0 0 0 -0.0186,0 z m -157.49999,7.5 a 3.7499997,3.7499997 0 0 0 -3.73144,3.75 3.7499997,3.7499997 0 0 0 3.75,3.75 3.7499997,3.7499997 0 0 0 3.75,-3.75 3.7499997,3.7499997 0 0 0 -3.75,-3.75 3.7499997,3.7499997 0 0 0 -0.0186,0 z m 15,0 a 3.7499997,3.7499997 0 0 0 -3.73144,3.75 3.7499997,3.7499997 0 0 0 3.75,3.75 3.7499997,3.7499997 0 0 0 3.75,-3.75 3.7499997,3.7499997 0 0 0 -3.75,-3.75 3.7499997,3.7499997 0 0 0 -0.0186,0 z m 15,0 a 3.7499997,3.7499997 0 0 0 -3.73144,3.75 3.7499997,3.7499997 0 0 0 3.75,3.75 3.7499997,3.7499997 0 0 0 3.75,-3.75 3.7499997,3.7499997 0 0 0 -3.75,-3.75 3.7499997,3.7499997 0 0 0 -0.0186,0 z m 15,0 a 3.7499997,3.7499997 0 0 0 -3.73144,3.75 3.7499997,3.7499997 0 0 0 3.75,3.75 3.7499997,3.7499997 0 0 0 3.75,-3.75 3.7499997,3.7499997 0 0 0 -3.75,-3.75 3.7499997,3.7499997 0 0 0 -0.0186,0 z m 15,0 a 3.7499997,3.7499997 0 0 0 -3.73145,3.75 3.7499997,3.7499997 0 0 0 3.75,3.75 3.7499997,3.7499997 0 0 0 3.75,-3.75 3.7499997,3.7499997 0 0 0 -3.75,-3.75 3.7499997,3.7499997 0 0 0 -0.0186,0 z m 15,0 a 3.7499997,3.7499997 0 0 0 -3.73145,3.75 3.7499997,3.7499997 0 0 0 3.75,3.75 3.7499997,3.7499997 0 0 0 3.75,-3.75 3.7499997,3.7499997 0 0 0 -3.75,-3.75 3.7499997,3.7499997 0 0 0 -0.0186,0 z m 15,0 a 3.7499997,3.7499997 0 0 0 -3.73145,3.75 3.7499997,3.7499997 0 0 0 3.75,3.75 3.7499997,3.7499997 0 0 0 3.75,-3.75 3.7499997,3.7499997 0 0 0 -3.75,-3.75 3.7499997,3.7499997 0 0 0 -0.0186,0 z m 15,0 a 3.7499997,3.7499997 0 0 0 -3.73145,3.75 3.7499997,3.7499997 0 0 0 3.75,3.75 3.7499997,3.7499997 0 0 0 3.75,-3.75 3.7499997,3.7499997 0 0 0 -3.75,-3.75 3.7499997,3.7499997 0 0 0 -0.0186,0 z m 14.99999,0 a 3.7499997,3.7499997 0 0 0 -3.73144,3.75 3.7499997,3.7499997 0 0 0 3.75,3.75 3.7499997,3.7499997 0 0 0 3.75,-3.75 3.7499997,3.7499997 0 0 0 -3.75,-3.75 3.7499997,3.7499997 0 0 0 -0.0186,0 z m 15,0 a 3.7499997,3.7499997 0 0 0 -3.73144,3.75 3.7499997,3.7499997 0 0 0 3.75,3.75 3.7499997,3.7499997 0 0 0 3.75,-3.75 3.7499997,3.7499997 0 0 0 -3.75,-3.75 3.7499997,3.7499997 0 0 0 -0.0186,0 z m 15,0 a 3.7499997,3.7499997 0 0 0 -3.73144,3.75 3.7499997,3.7499997 0 0 0 3.75,3.75 3.7499997,3.7499997 0 0 0 3.75,-3.75 3.7499997,3.7499997 0 0 0 -3.75,-3.75 3.7499997,3.7499997 0 0 0 -0.0186,0 z m 15,0 a 3.7499997,3.7499997 0 0 0 -3.73144,3.75 3.7499997,3.7499997 0 0 0 3.75,3.75 3.7499997,3.7499997 0 0 0 3.75,-3.75 3.7499997,3.7499997 0 0 0 -3.75,-3.75 3.7499997,3.7499997 0 0 0 -0.0186,0 z m -172.49999,7.5 a 3.7499997,3.7499997 0 0 0 -3.73144,3.75 3.7499997,3.7499997 0 0 0 3.75,3.75 3.7499997,3.7499997 0 0 0 3.75,-3.75 3.7499997,3.7499997 0 0 0 -3.75,-3.75 3.7499997,3.7499997 0 0 0 -0.0186,0 z m 15,0 a 3.7499997,3.7499997 0 0 0 -3.73144,3.75 3.7499997,3.7499997 0 0 0 3.75,3.75 3.7499997,3.7499997 0 0 0 3.75,-3.75 3.7499997,3.7499997 0 0 0 -3.75,-3.75 3.7499997,3.7499997 0 0 0 -0.0186,0 z m 15,0 a 3.7499997,3.7499997 0 0 0 -3.73144,3.75 3.7499997,3.7499997 0 0 0 3.75,3.75 3.7499997,3.7499997 0 0 0 3.75,-3.75 3.7499997,3.7499997 0 0 0 -3.75,-3.75 3.7499997,3.7499997 0 0 0 -0.0186,0 z m 15,0 a 3.7499997,3.7499997 0 0 0 -3.73144,3.75 3.7499997,3.7499997 0 0 0 3.75,3.75 3.7499997,3.7499997 0 0 0 3.75,-3.75 3.7499997,3.7499997 0 0 0 -3.75,-3.75 3.7499997,3.7499997 0 0 0 -0.0186,0 z m 15,0 a 3.7499997,3.7499997 0 0 0 -3.73144,3.75 3.7499997,3.7499997 0 0 0 3.75,3.75 3.7499997,3.7499997 0 0 0 3.74999,-3.75 3.7499997,3.7499997 0 0 0 -3.74999,-3.75 3.7499997,3.7499997 0 0 0 -0.0186,0 z m 15,0 a 3.7499997,3.7499997 0 0 0 -3.73145,3.75 3.7499997,3.7499997 0 0 0 3.75,3.75 3.7499997,3.7499997 0 0 0 3.75,-3.75 3.7499997,3.7499997 0 0 0 -3.75,-3.75 3.7499997,3.7499997 0 0 0 -0.0186,0 z m 15,0 a 3.7499997,3.7499997 0 0 0 -3.73145,3.75 3.7499997,3.7499997 0 0 0 3.75,3.75 3.7499997,3.7499997 0 0 0 3.75,-3.75 3.7499997,3.7499997 0 0 0 -3.75,-3.75 3.7499997,3.7499997 0 0 0 -0.0186,0 z m 15,0 a 3.7499997,3.7499997 0 0 0 -3.73145,3.75 3.7499997,3.7499997 0 0 0 3.75,3.75 3.7499997,3.7499997 0 0 0 3.75,-3.75 3.7499997,3.7499997 0 0 0 -3.75,-3.75 3.7499997,3.7499997 0 0 0 -0.0186,0 z m 15,0 a 3.7499997,3.7499997 0 0 0 -3.73145,3.75 3.7499997,3.7499997 0 0 0 3.75,3.75 3.7499997,3.7499997 0 0 0 3.75,-3.75 3.7499997,3.7499997 0 0 0 -3.75,-3.75 3.7499997,3.7499997 0 0 0 -0.0186,0 z m 14.99999,0 a 3.7499997,3.7499997 0 0 0 -3.73144,3.75 3.7499997,3.7499997 0 0 0 3.75,3.75 3.7499997,3.7499997 0 0 0 3.75,-3.75 3.7499997,3.7499997 0 0 0 -3.75,-3.75 3.7499997,3.7499997 0 0 0 -0.0186,0 z m 15,0 a 3.7499997,3.7499997 0 0 0 -3.73144,3.75 3.7499997,3.7499997 0 0 0 3.75,3.75 3.7499997,3.7499997 0 0 0 3.75,-3.75 3.7499997,3.7499997 0 0 0 -3.75,-3.75 3.7499997,3.7499997 0 0 0 -0.0186,0 z m 15,0 a 3.7499997,3.7499997 0 0 0 -3.73144,3.75 3.7499997,3.7499997 0 0 0 3.75,3.75 3.7499997,3.7499997 0 0 0 3.75,-3.75 3.7499997,3.7499997 0 0 0 -3.75,-3.75 3.7499997,3.7499997 0 0 0 -0.0186,0 z m -157.49999,7.5 a 3.7499997,3.7499997 0 0 0 -3.73144,3.75 3.7499997,3.7499997 0 0 0 3.75,3.75 3.7499997,3.7499997 0 0 0 3.75,-3.75 3.7499997,3.7499997 0 0 0 -3.75,-3.75 3.7499997,3.7499997 0 0 0 -0.0186,0 z m 15,0 a 3.7499997,3.7499997 0 0 0 -3.73144,3.75 3.7499997,3.7499997 0 0 0 3.75,3.75 3.7499997,3.7499997 0 0 0 3.75,-3.75 3.7499997,3.7499997 0 0 0 -3.75,-3.75 3.7499997,3.7499997 0 0 0 -0.0186,0 z m 15,0 a 3.7499997,3.7499997 0 0 0 -3.73144,3.75 3.7499997,3.7499997 0 0 0 3.75,3.75 3.7499997,3.7499997 0 0 0 3.75,-3.75 3.7499997,3.7499997 0 0 0 -3.75,-3.75 3.7499997,3.7499997 0 0 0 -0.0186,0 z m 15,0 a 3.7499997,3.7499997 0 0 0 -3.73144,3.75 3.7499997,3.7499997 0 0 0 3.75,3.75 3.7499997,3.7499997 0 0 0 3.75,-3.75 3.7499997,3.7499997 0 0 0 -3.75,-3.75 3.7499997,3.7499997 0 0 0 -0.0186,0 z m 15,0 a 3.7499997,3.7499997 0 0 0 -3.73145,3.75 3.7499997,3.7499997 0 0 0 3.75,3.75 3.7499997,3.7499997 0 0 0 3.75,-3.75 3.7499997,3.7499997 0 0 0 -3.75,-3.75 3.7499997,3.7499997 0 0 0 -0.0186,0 z m 15,0 a 3.7499997,3.7499997 0 0 0 -3.73145,3.75 3.7499997,3.7499997 0 0 0 3.75,3.75 3.7499997,3.7499997 0 0 0 3.75,-3.75 3.7499997,3.7499997 0 0 0 -3.75,-3.75 3.7499997,3.7499997 0 0 0 -0.0186,0 z m 15,0 a 3.7499997,3.7499997 0 0 0 -3.73145,3.75 3.7499997,3.7499997 0 0 0 3.75,3.75 3.7499997,3.7499997 0 0 0 3.75,-3.75 3.7499997,3.7499997 0 0 0 -3.75,-3.75 3.7499997,3.7499997 0 0 0 -0.0186,0 z m 15,0 a 3.7499997,3.7499997 0 0 0 -3.73145,3.75 3.7499997,3.7499997 0 0 0 3.75,3.75 3.7499997,3.7499997 0 0 0 3.75,-3.75 3.7499997,3.7499997 0 0 0 -3.75,-3.75 3.7499997,3.7499997 0 0 0 -0.0186,0 z m 14.99999,0 a 3.7499997,3.7499997 0 0 0 -3.73144,3.75 3.7499997,3.7499997 0 0 0 3.75,3.75 3.7499997,3.7499997 0 0 0 3.75,-3.75 3.7499997,3.7499997 0 0 0 -3.75,-3.75 3.7499997,3.7499997 0 0 0 -0.0186,0 z m 15,0 a 3.7499997,3.7499997 0 0 0 -3.73144,3.75 3.7499997,3.7499997 0 0 0 3.75,3.75 3.7499997,3.7499997 0 0 0 3.75,-3.75 3.7499997,3.7499997 0 0 0 -3.75,-3.75 3.7499997,3.7499997 0 0 0 -0.0186,0 z m 15,0 a 3.7499997,3.7499997 0 0 0 -3.73144,3.75 3.7499997,3.7499997 0 0 0 3.75,3.75 3.7499997,3.7499997 0 0 0 3.75,-3.75 3.7499997,3.7499997 0 0 0 -3.75,-3.75 3.7499997,3.7499997 0 0 0 -0.0186,0 z m 15,0 a 3.7499997,3.7499997 0 0 0 -3.73144,3.75 3.7499997,3.7499997 0 0 0 3.75,3.75 3.7499997,3.7499997 0 0 0 3.75,-3.75 3.7499997,3.7499997 0 0 0 -3.75,-3.75 3.7499997,3.7499997 0 0 0 -0.0186,0 z m -172.49999,7.5 a 3.7499997,3.7499997 0 0 0 -3.73144,3.75 3.7499997,3.7499997 0 0 0 3.75,3.75 3.7499997,3.7499997 0 0 0 3.75,-3.75 3.7499997,3.7499997 0 0 0 -3.75,-3.75 3.7499997,3.7499997 0 0 0 -0.0186,0 z m 15,0 a 3.7499997,3.7499997 0 0 0 -3.73144,3.75 3.7499997,3.7499997 0 0 0 3.75,3.75 3.7499997,3.7499997 0 0 0 3.75,-3.75 3.7499997,3.7499997 0 0 0 -3.75,-3.75 3.7499997,3.7499997 0 0 0 -0.0186,0 z m 15,0 a 3.7499997,3.7499997 0 0 0 -3.73144,3.75 3.7499997,3.7499997 0 0 0 3.75,3.75 3.7499997,3.7499997 0 0 0 3.75,-3.75 3.7499997,3.7499997 0 0 0 -3.75,-3.75 3.7499997,3.7499997 0 0 0 -0.0186,0 z m 15,0 a 3.7499997,3.7499997 0 0 0 -3.73144,3.75 3.7499997,3.7499997 0 0 0 3.75,3.75 3.7499997,3.7499997 0 0 0 3.75,-3.75 3.7499997,3.7499997 0 0 0 -3.75,-3.75 3.7499997,3.7499997 0 0 0 -0.0186,0 z m 15,0 a 3.7499997,3.7499997 0 0 0 -3.73144,3.75 3.7499997,3.7499997 0 0 0 3.75,3.75 3.7499997,3.7499997 0 0 0 3.74999,-3.75 3.7499997,3.7499997 0 0 0 -3.74999,-3.75 3.7499997,3.7499997 0 0 0 -0.0186,0 z m 15,0 a 3.7499997,3.7499997 0 0 0 -3.73145,3.75 3.7499997,3.7499997 0 0 0 3.75,3.75 3.7499997,3.7499997 0 0 0 3.75,-3.75 3.7499997,3.7499997 0 0 0 -3.75,-3.75 3.7499997,3.7499997 0 0 0 -0.0186,0 z m 15,0 a 3.7499997,3.7499997 0 0 0 -3.73145,3.75 3.7499997,3.7499997 0 0 0 3.75,3.75 3.7499997,3.7499997 0 0 0 3.75,-3.75 3.7499997,3.7499997 0 0 0 -3.75,-3.75 3.7499997,3.7499997 0 0 0 -0.0186,0 z m 15,0 a 3.7499997,3.7499997 0 0 0 -3.73145,3.75 3.7499997,3.7499997 0 0 0 3.75,3.75 3.7499997,3.7499997 0 0 0 3.75,-3.75 3.7499997,3.7499997 0 0 0 -3.75,-3.75 3.7499997,3.7499997 0 0 0 -0.0186,0 z m 15,0 a 3.7499997,3.7499997 0 0 0 -3.73145,3.75 3.7499997,3.7499997 0 0 0 3.75,3.75 3.7499997,3.7499997 0 0 0 3.75,-3.75 3.7499997,3.7499997 0 0 0 -3.75,-3.75 3.7499997,3.7499997 0 0 0 -0.0186,0 z m 14.99999,0 a 3.7499997,3.7499997 0 0 0 -3.73144,3.75 3.7499997,3.7499997 0 0 0 3.75,3.75 3.7499997,3.7499997 0 0 0 3.75,-3.75 3.7499997,3.7499997 0 0 0 -3.75,-3.75 3.7499997,3.7499997 0 0 0 -0.0186,0 z m 15,0 a 3.7499997,3.7499997 0 0 0 -3.73144,3.75 3.7499997,3.7499997 0 0 0 3.75,3.75 3.7499997,3.7499997 0 0 0 3.75,-3.75 3.7499997,3.7499997 0 0 0 -3.75,-3.75 3.7499997,3.7499997 0 0 0 -0.0186,0 z m 15,0 a 3.7499997,3.7499997 0 0 0 -3.73144,3.75 3.7499997,3.7499997 0 0 0 3.75,3.75 3.7499997,3.7499997 0 0 0 3.75,-3.75 3.7499997,3.7499997 0 0 0 -3.75,-3.75 3.7499997,3.7499997 0 0 0 -0.0186,0 z m -157.48143,7.5 a 3.7499997,3.7499997 0 0 0 -3.75,3.75 3.7499997,3.7499997 0 0 0 3.75,3.75 3.7499997,3.7499997 0 0 0 3.75,-3.75 3.7499997,3.7499997 0 0 0 -3.75,-3.75 z m 15,0 a 3.7499997,3.7499997 0 0 0 -3.75,3.75 3.7499997,3.7499997 0 0 0 3.75,3.75 3.7499997,3.7499997 0 0 0 3.75,-3.75 3.7499997,3.7499997 0 0 0 -3.75,-3.75 z m 15,0 a 3.7499997,3.7499997 0 0 0 -3.75,3.75 3.7499997,3.7499997 0 0 0 3.75,3.75 3.7499997,3.7499997 0 0 0 3.75,-3.75 3.7499997,3.7499997 0 0 0 -3.75,-3.75 z m 15,0 a 3.7499997,3.7499997 0 0 0 -3.75,3.75 3.7499997,3.7499997 0 0 0 3.75,3.75 3.7499997,3.7499997 0 0 0 3.75,-3.75 3.7499997,3.7499997 0 0 0 -3.75,-3.75 z m 14.99999,0 a 3.7499997,3.7499997 0 0 0 -3.75,3.75 3.7499997,3.7499997 0 0 0 3.75,3.75 3.7499997,3.7499997 0 0 0 3.75,-3.75 3.7499997,3.7499997 0 0 0 -3.75,-3.75 z m 15,0 a 3.7499997,3.7499997 0 0 0 -3.75,3.75 3.7499997,3.7499997 0 0 0 3.75,3.75 3.7499997,3.7499997 0 0 0 3.75,-3.75 3.7499997,3.7499997 0 0 0 -3.75,-3.75 z m 15,0 a 3.7499997,3.7499997 0 0 0 -3.75,3.75 3.7499997,3.7499997 0 0 0 3.75,3.75 3.7499997,3.7499997 0 0 0 3.75,-3.75 3.7499997,3.7499997 0 0 0 -3.75,-3.75 z m 15,0 a 3.7499997,3.7499997 0 0 0 -3.75,3.75 3.7499997,3.7499997 0 0 0 3.75,3.75 3.7499997,3.7499997 0 0 0 3.75,-3.75 3.7499997,3.7499997 0 0 0 -3.75,-3.75 z m 15,0 a 3.7499997,3.7499997 0 0 0 -3.75,3.75 3.7499997,3.7499997 0 0 0 3.75,3.75 3.7499997,3.7499997 0 0 0 3.75,-3.75 3.7499997,3.7499997 0 0 0 -3.75,-3.75 z m 15,0 a 3.7499997,3.7499997 0 0 0 -3.75,3.75 3.7499997,3.7499997 0 0 0 3.75,3.75 3.7499997,3.7499997 0 0 0 3.75,-3.75 3.7499997,3.7499997 0 0 0 -3.75,-3.75 z m 15,0 a 3.7499997,3.7499997 0 0 0 -3.75,3.75 3.7499997,3.7499997 0 0 0 3.75,3.75 3.7499997,3.7499997 0 0 0 3.75,-3.75 3.7499997,3.7499997 0 0 0 -3.75,-3.75 z m 15,0 a 3.7499997,3.7499997 0 0 0 -3.75,3.75 3.7499997,3.7499997 0 0 0 3.75,3.75 3.7499997,3.7499997 0 0 0 3.75,-3.75 3.7499997,3.7499997 0 0 0 -3.75,-3.75 z m -172.49999,7.5 a 3.7499997,3.7499997 0 0 0 -3.75,3.74999 3.7499997,3.7499997 0 0 0 3.75,3.75 3.7499997,3.7499997 0 0 0 3.75,-3.75 3.7499997,3.7499997 0 0 0 -3.75,-3.74999 z m 15,0 a 3.7499997,3.7499997 0 0 0 -3.75,3.74999 3.7499997,3.7499997 0 0 0 3.75,3.75 3.7499997,3.7499997 0 0 0 3.75,-3.75 3.7499997,3.7499997 0 0 0 -3.75,-3.74999 z m 15,0 a 3.7499997,3.7499997 0 0 0 -3.75,3.74999 3.7499997,3.7499997 0 0 0 3.75,3.75 3.7499997,3.7499997 0 0 0 3.75,-3.75 3.7499997,3.7499997 0 0 0 -3.75,-3.74999 z m 15,0 a 3.7499997,3.7499997 0 0 0 -3.75,3.74999 3.7499997,3.7499997 0 0 0 3.75,3.75 3.7499997,3.7499997 0 0 0 3.75,-3.75 3.7499997,3.7499997 0 0 0 -3.75,-3.74999 z m 15,0 a 3.7499997,3.7499997 0 0 0 -3.75,3.74999 3.7499997,3.7499997 0 0 0 3.75,3.75 3.7499997,3.7499997 0 0 0 3.74999,-3.75 3.7499997,3.7499997 0 0 0 -3.74999,-3.74999 z m 14.99999,0 a 3.7499997,3.7499997 0 0 0 -3.75,3.74999 3.7499997,3.7499997 0 0 0 3.75,3.75 3.7499997,3.7499997 0 0 0 3.75,-3.75 3.7499997,3.7499997 0 0 0 -3.75,-3.74999 z m 15,0 a 3.7499997,3.7499997 0 0 0 -3.75,3.74999 3.7499997,3.7499997 0 0 0 3.75,3.75 3.7499997,3.7499997 0 0 0 3.75,-3.75 3.7499997,3.7499997 0 0 0 -3.75,-3.74999 z m 15,0 a 3.7499997,3.7499997 0 0 0 -3.75,3.74999 3.7499997,3.7499997 0 0 0 3.75,3.75 3.7499997,3.7499997 0 0 0 3.75,-3.75 3.7499997,3.7499997 0 0 0 -3.75,-3.74999 z m 15,0 a 3.7499997,3.7499997 0 0 0 -3.75,3.74999 3.7499997,3.7499997 0 0 0 3.75,3.75 3.7499997,3.7499997 0 0 0 3.75,-3.75 3.7499997,3.7499997 0 0 0 -3.75,-3.74999 z m 15,0 a 3.7499997,3.7499997 0 0 0 -3.75,3.74999 3.7499997,3.7499997 0 0 0 3.75,3.75 3.7499997,3.7499997 0 0 0 3.75,-3.75 3.7499997,3.7499997 0 0 0 -3.75,-3.74999 z m 15,0 a 3.7499997,3.7499997 0 0 0 -3.75,3.74999 3.7499997,3.7499997 0 0 0 3.75,3.75 3.7499997,3.7499997 0 0 0 3.75,-3.75 3.7499997,3.7499997 0 0 0 -3.75,-3.74999 z m 15,0 a 3.7499997,3.7499997 0 0 0 -3.75,3.74999 3.7499997,3.7499997 0 0 0 3.75,3.75 3.7499997,3.7499997 0 0 0 3.75,-3.75 3.7499997,3.7499997 0 0 0 -3.75,-3.74999 z m -157.49999,7.49999 a 3.7499997,3.7499997 0 0 0 -3.75,3.75 3.7499997,3.7499997 0 0 0 3.75,3.75 3.7499997,3.7499997 0 0 0 3.75,-3.75 3.7499997,3.7499997 0 0 0 -3.75,-3.75 z m 15,0 a 3.7499997,3.7499997 0 0 0 -3.75,3.75 3.7499997,3.7499997 0 0 0 3.75,3.75 3.7499997,3.7499997 0 0 0 3.75,-3.75 3.7499997,3.7499997 0 0 0 -3.75,-3.75 z m 15,0 a 3.7499997,3.7499997 0 0 0 -3.75,3.75 3.7499997,3.7499997 0 0 0 3.75,3.75 3.7499997,3.7499997 0 0 0 3.75,-3.75 3.7499997,3.7499997 0 0 0 -3.75,-3.75 z m 15,0 a 3.7499997,3.7499997 0 0 0 -3.75,3.75 3.7499997,3.7499997 0 0 0 3.75,3.75 3.7499997,3.7499997 0 0 0 3.75,-3.75 3.7499997,3.7499997 0 0 0 -3.75,-3.75 z m 14.99999,0 a 3.7499997,3.7499997 0 0 0 -3.75,3.75 3.7499997,3.7499997 0 0 0 3.75,3.75 3.7499997,3.7499997 0 0 0 3.75,-3.75 3.7499997,3.7499997 0 0 0 -3.75,-3.75 z m 15,0 a 3.7499997,3.7499997 0 0 0 -3.75,3.75 3.7499997,3.7499997 0 0 0 3.75,3.75 3.7499997,3.7499997 0 0 0 3.75,-3.75 3.7499997,3.7499997 0 0 0 -3.75,-3.75 z m 15,0 a 3.7499997,3.7499997 0 0 0 -3.75,3.75 3.7499997,3.7499997 0 0 0 3.75,3.75 3.7499997,3.7499997 0 0 0 3.75,-3.75 3.7499997,3.7499997 0 0 0 -3.75,-3.75 z m 15,0 a 3.7499997,3.7499997 0 0 0 -3.75,3.75 3.7499997,3.7499997 0 0 0 3.75,3.75 3.7499997,3.7499997 0 0 0 3.75,-3.75 3.7499997,3.7499997 0 0 0 -3.75,-3.75 z m 15,0 a 3.7499997,3.7499997 0 0 0 -3.75,3.75 3.7499997,3.7499997 0 0 0 3.75,3.75 3.7499997,3.7499997 0 0 0 3.75,-3.75 3.7499997,3.7499997 0 0 0 -3.75,-3.75 z m 15,0 a 3.7499997,3.7499997 0 0 0 -3.75,3.75 3.7499997,3.7499997 0 0 0 3.75,3.75 3.7499997,3.7499997 0 0 0 3.75,-3.75 3.7499997,3.7499997 0 0 0 -3.75,-3.75 z m 15,0 a 3.7499997,3.7499997 0 0 0 -3.75,3.75 3.7499997,3.7499997 0 0 0 3.75,3.75 3.7499997,3.7499997 0 0 0 3.75,-3.75 3.7499997,3.7499997 0 0 0 -3.75,-3.75 z m 15,0 a 3.7499997,3.7499997 0 0 0 -3.75,3.75 3.7499997,3.7499997 0 0 0 3.75,3.75 3.7499997,3.7499997 0 0 0 3.75,-3.75 3.7499997,3.7499997 0 0 0 -3.75,-3.75 z m -172.49999,7.5 a 3.7499997,3.7499997 0 0 0 -3.75,3.75 3.7499997,3.7499997 0 0 0 3.75,3.75 3.7499997,3.7499997 0 0 0 3.75,-3.75 3.7499997,3.7499997 0 0 0 -3.75,-3.75 z m 15,0 a 3.7499997,3.7499997 0 0 0 -3.75,3.75 3.7499997,3.7499997 0 0 0 3.75,3.75 3.7499997,3.7499997 0 0 0 3.75,-3.75 3.7499997,3.7499997 0 0 0 -3.75,-3.75 z m 15,0 a 3.7499997,3.7499997 0 0 0 -3.75,3.75 3.7499997,3.7499997 0 0 0 3.75,3.75 3.7499997,3.7499997 0 0 0 3.75,-3.75 3.7499997,3.7499997 0 0 0 -3.75,-3.75 z m 15,0 a 3.7499997,3.7499997 0 0 0 -3.75,3.75 3.7499997,3.7499997 0 0 0 3.75,3.75 3.7499997,3.7499997 0 0 0 3.75,-3.75 3.7499997,3.7499997 0 0 0 -3.75,-3.75 z m 15,0 a 3.7499997,3.7499997 0 0 0 -3.75,3.75 3.7499997,3.7499997 0 0 0 3.75,3.75 3.7499997,3.7499997 0 0 0 3.74999,-3.75 3.7499997,3.7499997 0 0 0 -3.74999,-3.75 z m 14.99999,0 a 3.7499997,3.7499997 0 0 0 -3.75,3.75 3.7499997,3.7499997 0 0 0 3.75,3.75 3.7499997,3.7499997 0 0 0 3.75,-3.75 3.7499997,3.7499997 0 0 0 -3.75,-3.75 z m 15,0 a 3.7499997,3.7499997 0 0 0 -3.75,3.75 3.7499997,3.7499997 0 0 0 3.75,3.75 3.7499997,3.7499997 0 0 0 3.75,-3.75 3.7499997,3.7499997 0 0 0 -3.75,-3.75 z m 15,0 a 3.7499997,3.7499997 0 0 0 -3.75,3.75 3.7499997,3.7499997 0 0 0 3.75,3.75 3.7499997,3.7499997 0 0 0 3.75,-3.75 3.7499997,3.7499997 0 0 0 -3.75,-3.75 z m 15,0 a 3.7499997,3.7499997 0 0 0 -3.75,3.75 3.7499997,3.7499997 0 0 0 3.75,3.75 3.7499997,3.7499997 0 0 0 3.75,-3.75 3.7499997,3.7499997 0 0 0 -3.75,-3.75 z m 15,0 a 3.7499997,3.7499997 0 0 0 -3.75,3.75 3.7499997,3.7499997 0 0 0 3.75,3.75 3.7499997,3.7499997 0 0 0 3.75,-3.75 3.7499997,3.7499997 0 0 0 -3.75,-3.75 z m 15,0 a 3.7499997,3.7499997 0 0 0 -3.75,3.75 3.7499997,3.7499997 0 0 0 3.75,3.75 3.7499997,3.7499997 0 0 0 3.75,-3.75 3.7499997,3.7499997 0 0 0 -3.75,-3.75 z m 15,0 a 3.7499997,3.7499997 0 0 0 -3.75,3.75 3.7499997,3.7499997 0 0 0 3.75,3.75 3.7499997,3.7499997 0 0 0 3.75,-3.75 3.7499997,3.7499997 0 0 0 -3.75,-3.75 z m -157.49999,7.5 a 3.7499997,3.7499997 0 0 0 -3.75,3.75 3.7499997,3.7499997 0 0 0 3.75,3.75 3.7499997,3.7499997 0 0 0 3.75,-3.75 3.7499997,3.7499997 0 0 0 -3.75,-3.75 z m 15,0 a 3.7499997,3.7499997 0 0 0 -3.75,3.75 3.7499997,3.7499997 0 0 0 3.75,3.75 3.7499997,3.7499997 0 0 0 3.75,-3.75 3.7499997,3.7499997 0 0 0 -3.75,-3.75 z m 15,0 a 3.7499997,3.7499997 0 0 0 -3.75,3.75 3.7499997,3.7499997 0 0 0 3.75,3.75 3.7499997,3.7499997 0 0 0 3.75,-3.75 3.7499997,3.7499997 0 0 0 -3.75,-3.75 z m 15,0 a 3.7499997,3.7499997 0 0 0 -3.75,3.75 3.7499997,3.7499997 0 0 0 3.75,3.75 3.7499997,3.7499997 0 0 0 3.75,-3.75 3.7499997,3.7499997 0 0 0 -3.75,-3.75 z m 14.99999,0 a 3.7499997,3.7499997 0 0 0 -3.75,3.75 3.7499997,3.7499997 0 0 0 3.75,3.75 3.7499997,3.7499997 0 0 0 3.75,-3.75 3.7499997,3.7499997 0 0 0 -3.75,-3.75 z m 15,0 a 3.7499997,3.7499997 0 0 0 -3.75,3.75 3.7499997,3.7499997 0 0 0 3.75,3.75 3.7499997,3.7499997 0 0 0 3.75,-3.75 3.7499997,3.7499997 0 0 0 -3.75,-3.75 z m 15,0 a 3.7499997,3.7499997 0 0 0 -3.75,3.75 3.7499997,3.7499997 0 0 0 3.75,3.75 3.7499997,3.7499997 0 0 0 3.75,-3.75 3.7499997,3.7499997 0 0 0 -3.75,-3.75 z m 15,0 a 3.7499997,3.7499997 0 0 0 -3.75,3.75 3.7499997,3.7499997 0 0 0 3.75,3.75 3.7499997,3.7499997 0 0 0 3.75,-3.75 3.7499997,3.7499997 0 0 0 -3.75,-3.75 z m 15,0 a 3.7499997,3.7499997 0 0 0 -3.75,3.75 3.7499997,3.7499997 0 0 0 3.75,3.75 3.7499997,3.7499997 0 0 0 3.75,-3.75 3.7499997,3.7499997 0 0 0 -3.75,-3.75 z m 15,0 a 3.7499997,3.7499997 0 0 0 -3.75,3.75 3.7499997,3.7499997 0 0 0 3.75,3.75 3.7499997,3.7499997 0 0 0 3.75,-3.75 3.7499997,3.7499997 0 0 0 -3.75,-3.75 z m 15,0 a 3.7499997,3.7499997 0 0 0 -3.75,3.75 3.7499997,3.7499997 0 0 0 3.75,3.75 3.7499997,3.7499997 0 0 0 3.75,-3.75 3.7499997,3.7499997 0 0 0 -3.75,-3.75 z m 15,0 a 3.7499997,3.7499997 0 0 0 -3.75,3.75 3.7499997,3.7499997 0 0 0 3.75,3.75 3.7499997,3.7499997 0 0 0 3.75,-3.75 3.7499997,3.7499997 0 0 0 -3.75,-3.75 z m -172.51855,7.5 a 3.7499997,3.7499997 0 0 0 -3.73144,3.75 3.7499997,3.7499997 0 0 0 3.75,3.75 3.7499997,3.7499997 0 0 0 3.75,-3.75 3.7499997,3.7499997 0 0 0 -3.75,-3.75 3.7499997,3.7499997 0 0 0 -0.0186,0 z m 15,0 a 3.7499997,3.7499997 0 0 0 -3.73144,3.75 3.7499997,3.7499997 0 0 0 3.75,3.75 3.7499997,3.7499997 0 0 0 3.75,-3.75 3.7499997,3.7499997 0 0 0 -3.75,-3.75 3.7499997,3.7499997 0 0 0 -0.0186,0 z m 15,0 a 3.7499997,3.7499997 0 0 0 -3.73144,3.75 3.7499997,3.7499997 0 0 0 3.75,3.75 3.7499997,3.7499997 0 0 0 3.75,-3.75 3.7499997,3.7499997 0 0 0 -3.75,-3.75 3.7499997,3.7499997 0 0 0 -0.0186,0 z m 15,0 a 3.7499997,3.7499997 0 0 0 -3.73144,3.75 3.7499997,3.7499997 0 0 0 3.75,3.75 3.7499997,3.7499997 0 0 0 3.75,-3.75 3.7499997,3.7499997 0 0 0 -3.75,-3.75 3.7499997,3.7499997 0 0 0 -0.0186,0 z m 15,0 a 3.7499997,3.7499997 0 0 0 -3.73144,3.75 3.7499997,3.7499997 0 0 0 3.75,3.75 3.7499997,3.7499997 0 0 0 3.74999,-3.75 3.7499997,3.7499997 0 0 0 -3.74999,-3.75 3.7499997,3.7499997 0 0 0 -0.0186,0 z m 15,0 a 3.7499997,3.7499997 0 0 0 -3.73145,3.75 3.7499997,3.7499997 0 0 0 3.75,3.75 3.7499997,3.7499997 0 0 0 3.75,-3.75 3.7499997,3.7499997 0 0 0 -3.75,-3.75 3.7499997,3.7499997 0 0 0 -0.0186,0 z m 15,0 a 3.7499997,3.7499997 0 0 0 -3.73145,3.75 3.7499997,3.7499997 0 0 0 3.75,3.75 3.7499997,3.7499997 0 0 0 3.75,-3.75 3.7499997,3.7499997 0 0 0 -3.75,-3.75 3.7499997,3.7499997 0 0 0 -0.0186,0 z m 15,0 a 3.7499997,3.7499997 0 0 0 -3.73145,3.75 3.7499997,3.7499997 0 0 0 3.75,3.75 3.7499997,3.7499997 0 0 0 3.75,-3.75 3.7499997,3.7499997 0 0 0 -3.75,-3.75 3.7499997,3.7499997 0 0 0 -0.0186,0 z m 15,0 a 3.7499997,3.7499997 0 0 0 -3.73145,3.75 3.7499997,3.7499997 0 0 0 3.75,3.75 3.7499997,3.7499997 0 0 0 3.75,-3.75 3.7499997,3.7499997 0 0 0 -3.75,-3.75 3.7499997,3.7499997 0 0 0 -0.0186,0 z m 14.99999,0 a 3.7499997,3.7499997 0 0 0 -3.73144,3.75 3.7499997,3.7499997 0 0 0 3.75,3.75 3.7499997,3.7499997 0 0 0 3.75,-3.75 3.7499997,3.7499997 0 0 0 -3.75,-3.75 3.7499997,3.7499997 0 0 0 -0.0186,0 z m 15,0 a 3.7499997,3.7499997 0 0 0 -3.73144,3.75 3.7499997,3.7499997 0 0 0 3.75,3.75 3.7499997,3.7499997 0 0 0 3.75,-3.75 3.7499997,3.7499997 0 0 0 -3.75,-3.75 3.7499997,3.7499997 0 0 0 -0.0186,0 z m 15,0 a 3.7499997,3.7499997 0 0 0 -3.73144,3.75 3.7499997,3.7499997 0 0 0 3.75,3.75 3.7499997,3.7499997 0 0 0 3.75,-3.75 3.7499997,3.7499997 0 0 0 -3.75,-3.75 3.7499997,3.7499997 0 0 0 -0.0186,0 z m -157.49999,7.5 a 3.7499997,3.7499997 0 0 0 -3.73144,3.75 3.7499997,3.7499997 0 0 0 3.75,3.75 3.7499997,3.7499997 0 0 0 3.75,-3.75 3.7499997,3.7499997 0 0 0 -3.75,-3.75 3.7499997,3.7499997 0 0 0 -0.0186,0 z m 15,0 a 3.7499997,3.7499997 0 0 0 -3.73144,3.75 3.7499997,3.7499997 0 0 0 3.75,3.75 3.7499997,3.7499997 0 0 0 3.75,-3.75 3.7499997,3.7499997 0 0 0 -3.75,-3.75 3.7499997,3.7499997 0 0 0 -0.0186,0 z m 15,0 a 3.7499997,3.7499997 0 0 0 -3.73144,3.75 3.7499997,3.7499997 0 0 0 3.75,3.75 3.7499997,3.7499997 0 0 0 3.75,-3.75 3.7499997,3.7499997 0 0 0 -3.75,-3.75 3.7499997,3.7499997 0 0 0 -0.0186,0 z m 15,0 a 3.7499997,3.7499997 0 0 0 -3.73144,3.75 3.7499997,3.7499997 0 0 0 3.75,3.75 3.7499997,3.7499997 0 0 0 3.75,-3.75 3.7499997,3.7499997 0 0 0 -3.75,-3.75 3.7499997,3.7499997 0 0 0 -0.0186,0 z m 15,0 a 3.7499997,3.7499997 0 0 0 -3.73145,3.75 3.7499997,3.7499997 0 0 0 3.75,3.75 3.7499997,3.7499997 0 0 0 3.75,-3.75 3.7499997,3.7499997 0 0 0 -3.75,-3.75 3.7499997,3.7499997 0 0 0 -0.0186,0 z m 15,0 a 3.7499997,3.7499997 0 0 0 -3.73145,3.75 3.7499997,3.7499997 0 0 0 3.75,3.75 3.7499997,3.7499997 0 0 0 3.75,-3.75 3.7499997,3.7499997 0 0 0 -3.75,-3.75 3.7499997,3.7499997 0 0 0 -0.0186,0 z m 15,0 a 3.7499997,3.7499997 0 0 0 -3.73145,3.75 3.7499997,3.7499997 0 0 0 3.75,3.75 3.7499997,3.7499997 0 0 0 3.75,-3.75 3.7499997,3.7499997 0 0 0 -3.75,-3.75 3.7499997,3.7499997 0 0 0 -0.0186,0 z m 15,0 a 3.7499997,3.7499997 0 0 0 -3.73145,3.75 3.7499997,3.7499997 0 0 0 3.75,3.75 3.7499997,3.7499997 0 0 0 3.75,-3.75 3.7499997,3.7499997 0 0 0 -3.75,-3.75 3.7499997,3.7499997 0 0 0 -0.0186,0 z m 14.99999,0 a 3.7499997,3.7499997 0 0 0 -3.73144,3.75 3.7499997,3.7499997 0 0 0 3.75,3.75 3.7499997,3.7499997 0 0 0 3.75,-3.75 3.7499997,3.7499997 0 0 0 -3.75,-3.75 3.7499997,3.7499997 0 0 0 -0.0186,0 z m 15,0 a 3.7499997,3.7499997 0 0 0 -3.73144,3.75 3.7499997,3.7499997 0 0 0 3.75,3.75 3.7499997,3.7499997 0 0 0 3.75,-3.75 3.7499997,3.7499997 0 0 0 -3.75,-3.75 3.7499997,3.7499997 0 0 0 -0.0186,0 z m 15,0 a 3.7499997,3.7499997 0 0 0 -3.73144,3.75 3.7499997,3.7499997 0 0 0 3.75,3.75 3.7499997,3.7499997 0 0 0 3.75,-3.75 3.7499997,3.7499997 0 0 0 -3.75,-3.75 3.7499997,3.7499997 0 0 0 -0.0186,0 z m 15,0 a 3.7499997,3.7499997 0 0 0 -3.73144,3.75 3.7499997,3.7499997 0 0 0 3.75,3.75 3.7499997,3.7499997 0 0 0 3.75,-3.75 3.7499997,3.7499997 0 0 0 -3.75,-3.75 3.7499997,3.7499997 0 0 0 -0.0186,0 z m -172.49999,7.5 a 3.7499997,3.7499997 0 0 0 -3.73144,3.75 3.7499997,3.7499997 0 0 0 3.75,3.75 3.7499997,3.7499997 0 0 0 3.75,-3.75 3.7499997,3.7499997 0 0 0 -3.75,-3.75 3.7499997,3.7499997 0 0 0 -0.0186,0 z m 15,0 a 3.7499997,3.7499997 0 0 0 -3.73144,3.75 3.7499997,3.7499997 0 0 0 3.75,3.75 3.7499997,3.7499997 0 0 0 3.75,-3.75 3.7499997,3.7499997 0 0 0 -3.75,-3.75 3.7499997,3.7499997 0 0 0 -0.0186,0 z m 15,0 a 3.7499997,3.7499997 0 0 0 -3.73144,3.75 3.7499997,3.7499997 0 0 0 3.75,3.75 3.7499997,3.7499997 0 0 0 3.75,-3.75 3.7499997,3.7499997 0 0 0 -3.75,-3.75 3.7499997,3.7499997 0 0 0 -0.0186,0 z m 15,0 a 3.7499997,3.7499997 0 0 0 -3.73144,3.75 3.7499997,3.7499997 0 0 0 3.75,3.75 3.7499997,3.7499997 0 0 0 3.75,-3.75 3.7499997,3.7499997 0 0 0 -3.75,-3.75 3.7499997,3.7499997 0 0 0 -0.0186,0 z m 15,0 a 3.7499997,3.7499997 0 0 0 -3.73144,3.75 3.7499997,3.7499997 0 0 0 3.75,3.75 3.7499997,3.7499997 0 0 0 3.74999,-3.75 3.7499997,3.7499997 0 0 0 -3.74999,-3.75 3.7499997,3.7499997 0 0 0 -0.0186,0 z m 15,0 a 3.7499997,3.7499997 0 0 0 -3.73145,3.75 3.7499997,3.7499997 0 0 0 3.75,3.75 3.7499997,3.7499997 0 0 0 3.75,-3.75 3.7499997,3.7499997 0 0 0 -3.75,-3.75 3.7499997,3.7499997 0 0 0 -0.0186,0 z m 15,0 a 3.7499997,3.7499997 0 0 0 -3.73145,3.75 3.7499997,3.7499997 0 0 0 3.75,3.75 3.7499997,3.7499997 0 0 0 3.75,-3.75 3.7499997,3.7499997 0 0 0 -3.75,-3.75 3.7499997,3.7499997 0 0 0 -0.0186,0 z m 15,0 a 3.7499997,3.7499997 0 0 0 -3.73145,3.75 3.7499997,3.7499997 0 0 0 3.75,3.75 3.7499997,3.7499997 0 0 0 3.75,-3.75 3.7499997,3.7499997 0 0 0 -3.75,-3.75 3.7499997,3.7499997 0 0 0 -0.0186,0 z m 15,0 a 3.7499997,3.7499997 0 0 0 -3.73145,3.75 3.7499997,3.7499997 0 0 0 3.75,3.75 3.7499997,3.7499997 0 0 0 3.75,-3.75 3.7499997,3.7499997 0 0 0 -3.75,-3.75 3.7499997,3.7499997 0 0 0 -0.0186,0 z m 14.99999,0 a 3.7499997,3.7499997 0 0 0 -3.73144,3.75 3.7499997,3.7499997 0 0 0 3.75,3.75 3.7499997,3.7499997 0 0 0 3.75,-3.75 3.7499997,3.7499997 0 0 0 -3.75,-3.75 3.7499997,3.7499997 0 0 0 -0.0186,0 z m 15,0 a 3.7499997,3.7499997 0 0 0 -3.73144,3.75 3.7499997,3.7499997 0 0 0 3.75,3.75 3.7499997,3.7499997 0 0 0 3.75,-3.75 3.7499997,3.7499997 0 0 0 -3.75,-3.75 3.7499997,3.7499997 0 0 0 -0.0186,0 z m 15,0 a 3.7499997,3.7499997 0 0 0 -3.73144,3.75 3.7499997,3.7499997 0 0 0 3.75,3.75 3.7499997,3.7499997 0 0 0 3.75,-3.75 3.7499997,3.7499997 0 0 0 -3.75,-3.75 3.7499997,3.7499997 0 0 0 -0.0186,0 z m -157.49999,7.5 a 3.7499997,3.7499997 0 0 0 -3.73144,3.75 3.7499997,3.7499997 0 0 0 3.75,3.75 3.7499997,3.7499997 0 0 0 3.75,-3.75 3.7499997,3.7499997 0 0 0 -3.75,-3.75 3.7499997,3.7499997 0 0 0 -0.0186,0 z m 15,0 a 3.7499997,3.7499997 0 0 0 -3.73144,3.75 3.7499997,3.7499997 0 0 0 3.75,3.75 3.7499997,3.7499997 0 0 0 3.75,-3.75 3.7499997,3.7499997 0 0 0 -3.75,-3.75 3.7499997,3.7499997 0 0 0 -0.0186,0 z m 15,0 a 3.7499997,3.7499997 0 0 0 -3.73144,3.75 3.7499997,3.7499997 0 0 0 3.75,3.75 3.7499997,3.7499997 0 0 0 3.75,-3.75 3.7499997,3.7499997 0 0 0 -3.75,-3.75 3.7499997,3.7499997 0 0 0 -0.0186,0 z m 15,0 a 3.7499997,3.7499997 0 0 0 -3.73144,3.75 3.7499997,3.7499997 0 0 0 3.75,3.75 3.7499997,3.7499997 0 0 0 3.75,-3.75 3.7499997,3.7499997 0 0 0 -3.75,-3.75 3.7499997,3.7499997 0 0 0 -0.0186,0 z m 15,0 a 3.7499997,3.7499997 0 0 0 -3.73145,3.75 3.7499997,3.7499997 0 0 0 3.75,3.75 3.7499997,3.7499997 0 0 0 3.75,-3.75 3.7499997,3.7499997 0 0 0 -3.75,-3.75 3.7499997,3.7499997 0 0 0 -0.0186,0 z m 15,0 a 3.7499997,3.7499997 0 0 0 -3.73145,3.75 3.7499997,3.7499997 0 0 0 3.75,3.75 3.7499997,3.7499997 0 0 0 3.75,-3.75 3.7499997,3.7499997 0 0 0 -3.75,-3.75 3.7499997,3.7499997 0 0 0 -0.0186,0 z m 15,0 a 3.7499997,3.7499997 0 0 0 -3.73145,3.75 3.7499997,3.7499997 0 0 0 3.75,3.75 3.7499997,3.7499997 0 0 0 3.75,-3.75 3.7499997,3.7499997 0 0 0 -3.75,-3.75 3.7499997,3.7499997 0 0 0 -0.0186,0 z m 15,0 a 3.7499997,3.7499997 0 0 0 -3.73145,3.75 3.7499997,3.7499997 0 0 0 3.75,3.75 3.7499997,3.7499997 0 0 0 3.75,-3.75 3.7499997,3.7499997 0 0 0 -3.75,-3.75 3.7499997,3.7499997 0 0 0 -0.0186,0 z m 14.99999,0 a 3.7499997,3.7499997 0 0 0 -3.73144,3.75 3.7499997,3.7499997 0 0 0 3.75,3.75 3.7499997,3.7499997 0 0 0 3.75,-3.75 3.7499997,3.7499997 0 0 0 -3.75,-3.75 3.7499997,3.7499997 0 0 0 -0.0186,0 z m 15,0 a 3.7499997,3.7499997 0 0 0 -3.73144,3.75 3.7499997,3.7499997 0 0 0 3.75,3.75 3.7499997,3.7499997 0 0 0 3.75,-3.75 3.7499997,3.7499997 0 0 0 -3.75,-3.75 3.7499997,3.7499997 0 0 0 -0.0186,0 z m 15,0 a 3.7499997,3.7499997 0 0 0 -3.73144,3.75 3.7499997,3.7499997 0 0 0 3.75,3.75 3.7499997,3.7499997 0 0 0 3.75,-3.75 3.7499997,3.7499997 0 0 0 -3.75,-3.75 3.7499997,3.7499997 0 0 0 -0.0186,0 z m 15,0 a 3.7499997,3.7499997 0 0 0 -3.73144,3.75 3.7499997,3.7499997 0 0 0 3.75,3.75 3.7499997,3.7499997 0 0 0 3.75,-3.75 3.7499997,3.7499997 0 0 0 -3.75,-3.75 3.7499997,3.7499997 0 0 0 -0.0186,0 z m -172.49999,7.5 a 3.7499997,3.7499997 0 0 0 -3.73144,3.75 3.7499997,3.7499997 0 0 0 3.75,3.75 3.7499997,3.7499997 0 0 0 3.75,-3.75 3.7499997,3.7499997 0 0 0 -3.75,-3.75 3.7499997,3.7499997 0 0 0 -0.0186,0 z m 15,0 a 3.7499997,3.7499997 0 0 0 -3.73144,3.75 3.7499997,3.7499997 0 0 0 3.75,3.75 3.7499997,3.7499997 0 0 0 3.75,-3.75 3.7499997,3.7499997 0 0 0 -3.75,-3.75 3.7499997,3.7499997 0 0 0 -0.0186,0 z m 15,0 a 3.7499997,3.7499997 0 0 0 -3.73144,3.75 3.7499997,3.7499997 0 0 0 3.75,3.75 3.7499997,3.7499997 0 0 0 3.75,-3.75 3.7499997,3.7499997 0 0 0 -3.75,-3.75 3.7499997,3.7499997 0 0 0 -0.0186,0 z m 15,0 a 3.7499997,3.7499997 0 0 0 -3.73144,3.75 3.7499997,3.7499997 0 0 0 3.75,3.75 3.7499997,3.7499997 0 0 0 3.75,-3.75 3.7499997,3.7499997 0 0 0 -3.75,-3.75 3.7499997,3.7499997 0 0 0 -0.0186,0 z m 15,0 a 3.7499997,3.7499997 0 0 0 -3.73144,3.75 3.7499997,3.7499997 0 0 0 3.75,3.75 3.7499997,3.7499997 0 0 0 3.74999,-3.75 3.7499997,3.7499997 0 0 0 -3.74999,-3.75 3.7499997,3.7499997 0 0 0 -0.0186,0 z m 15,0 a 3.7499997,3.7499997 0 0 0 -3.73145,3.75 3.7499997,3.7499997 0 0 0 3.75,3.75 3.7499997,3.7499997 0 0 0 3.75,-3.75 3.7499997,3.7499997 0 0 0 -3.75,-3.75 3.7499997,3.7499997 0 0 0 -0.0186,0 z m 15,0 a 3.7499997,3.7499997 0 0 0 -3.73145,3.75 3.7499997,3.7499997 0 0 0 3.75,3.75 3.7499997,3.7499997 0 0 0 3.75,-3.75 3.7499997,3.7499997 0 0 0 -3.75,-3.75 3.7499997,3.7499997 0 0 0 -0.0186,0 z m 15,0 a 3.7499997,3.7499997 0 0 0 -3.73145,3.75 3.7499997,3.7499997 0 0 0 3.75,3.75 3.7499997,3.7499997 0 0 0 3.75,-3.75 3.7499997,3.7499997 0 0 0 -3.75,-3.75 3.7499997,3.7499997 0 0 0 -0.0186,0 z m 15,0 a 3.7499997,3.7499997 0 0 0 -3.73145,3.75 3.7499997,3.7499997 0 0 0 3.75,3.75 3.7499997,3.7499997 0 0 0 3.75,-3.75 3.7499997,3.7499997 0 0 0 -3.75,-3.75 3.7499997,3.7499997 0 0 0 -0.0186,0 z m 14.99999,0 a 3.7499997,3.7499997 0 0 0 -3.73144,3.75 3.7499997,3.7499997 0 0 0 3.75,3.75 3.7499997,3.7499997 0 0 0 3.75,-3.75 3.7499997,3.7499997 0 0 0 -3.75,-3.75 3.7499997,3.7499997 0 0 0 -0.0186,0 z m 15,0 a 3.7499997,3.7499997 0 0 0 -3.73144,3.75 3.7499997,3.7499997 0 0 0 3.75,3.75 3.7499997,3.7499997 0 0 0 3.75,-3.75 3.7499997,3.7499997 0 0 0 -3.75,-3.75 3.7499997,3.7499997 0 0 0 -0.0186,0 z m 15,0 a 3.7499997,3.7499997 0 0 0 -3.73144,3.75 3.7499997,3.7499997 0 0 0 3.75,3.75 3.7499997,3.7499997 0 0 0 3.75,-3.75 3.7499997,3.7499997 0 0 0 -3.75,-3.75 3.7499997,3.7499997 0 0 0 -0.0186,0 z m -157.48143,7.5 a 3.7499997,3.7499997 0 0 0 -3.75,3.75 3.7499997,3.7499997 0 0 0 3.75,3.75 3.7499997,3.7499997 0 0 0 3.75,-3.75 3.7499997,3.7499997 0 0 0 -3.75,-3.75 z m 15,0 a 3.7499997,3.7499997 0 0 0 -3.75,3.75 3.7499997,3.7499997 0 0 0 3.75,3.75 3.7499997,3.7499997 0 0 0 3.75,-3.75 3.7499997,3.7499997 0 0 0 -3.75,-3.75 z m 15,0 a 3.7499997,3.7499997 0 0 0 -3.75,3.75 3.7499997,3.7499997 0 0 0 3.75,3.75 3.7499997,3.7499997 0 0 0 3.75,-3.75 3.7499997,3.7499997 0 0 0 -3.75,-3.75 z m 15,0 a 3.7499997,3.7499997 0 0 0 -3.75,3.75 3.7499997,3.7499997 0 0 0 3.75,3.75 3.7499997,3.7499997 0 0 0 3.75,-3.75 3.7499997,3.7499997 0 0 0 -3.75,-3.75 z m 14.99999,0 a 3.7499997,3.7499997 0 0 0 -3.75,3.75 3.7499997,3.7499997 0 0 0 3.75,3.75 3.7499997,3.7499997 0 0 0 3.75,-3.75 3.7499997,3.7499997 0 0 0 -3.75,-3.75 z m 15,0 a 3.7499997,3.7499997 0 0 0 -3.75,3.75 3.7499997,3.7499997 0 0 0 3.75,3.75 3.7499997,3.7499997 0 0 0 3.75,-3.75 3.7499997,3.7499997 0 0 0 -3.75,-3.75 z m 15,0 a 3.7499997,3.7499997 0 0 0 -3.75,3.75 3.7499997,3.7499997 0 0 0 3.75,3.75 3.7499997,3.7499997 0 0 0 3.75,-3.75 3.7499997,3.7499997 0 0 0 -3.75,-3.75 z m 15,0 a 3.7499997,3.7499997 0 0 0 -3.75,3.75 3.7499997,3.7499997 0 0 0 3.75,3.75 3.7499997,3.7499997 0 0 0 3.75,-3.75 3.7499997,3.7499997 0 0 0 -3.75,-3.75 z m 15,0 a 3.7499997,3.7499997 0 0 0 -3.75,3.75 3.7499997,3.7499997 0 0 0 3.75,3.75 3.7499997,3.7499997 0 0 0 3.75,-3.75 3.7499997,3.7499997 0 0 0 -3.75,-3.75 z m 15,0 a 3.7499997,3.7499997 0 0 0 -3.75,3.75 3.7499997,3.7499997 0 0 0 3.75,3.75 3.7499997,3.7499997 0 0 0 3.75,-3.75 3.7499997,3.7499997 0 0 0 -3.75,-3.75 z m 15,0 a 3.7499997,3.7499997 0 0 0 -3.75,3.75 3.7499997,3.7499997 0 0 0 3.75,3.75 3.7499997,3.7499997 0 0 0 3.75,-3.75 3.7499997,3.7499997 0 0 0 -3.75,-3.75 z m 15,0 a 3.7499997,3.7499997 0 0 0 -3.75,3.75 3.7499997,3.7499997 0 0 0 3.75,3.75 3.7499997,3.7499997 0 0 0 3.75,-3.75 3.7499997,3.7499997 0 0 0 -3.75,-3.75 z m -172.49999,7.5 a 3.7499997,3.7499997 0 0 0 -3.75,3.75 3.7499997,3.7499997 0 0 0 3.75,3.75 3.7499997,3.7499997 0 0 0 3.75,-3.75 3.7499997,3.7499997 0 0 0 -3.75,-3.75 z m 15,0 a 3.7499997,3.7499997 0 0 0 -3.75,3.75 3.7499997,3.7499997 0 0 0 3.75,3.75 3.7499997,3.7499997 0 0 0 3.75,-3.75 3.7499997,3.7499997 0 0 0 -3.75,-3.75 z m 15,0 a 3.7499997,3.7499997 0 0 0 -3.75,3.75 3.7499997,3.7499997 0 0 0 3.75,3.75 3.7499997,3.7499997 0 0 0 3.75,-3.75 3.7499997,3.7499997 0 0 0 -3.75,-3.75 z m 15,0 a 3.7499997,3.7499997 0 0 0 -3.75,3.75 3.7499997,3.7499997 0 0 0 3.75,3.75 3.7499997,3.7499997 0 0 0 3.75,-3.75 3.7499997,3.7499997 0 0 0 -3.75,-3.75 z m 15,0 a 3.7499997,3.7499997 0 0 0 -3.75,3.75 3.7499997,3.7499997 0 0 0 3.75,3.75 3.7499997,3.7499997 0 0 0 3.74999,-3.75 3.7499997,3.7499997 0 0 0 -3.74999,-3.75 z m 14.99999,0 a 3.7499997,3.7499997 0 0 0 -3.75,3.75 3.7499997,3.7499997 0 0 0 3.75,3.75 3.7499997,3.7499997 0 0 0 3.75,-3.75 3.7499997,3.7499997 0 0 0 -3.75,-3.75 z m 15,0 a 3.7499997,3.7499997 0 0 0 -3.75,3.75 3.7499997,3.7499997 0 0 0 3.75,3.75 3.7499997,3.7499997 0 0 0 3.75,-3.75 3.7499997,3.7499997 0 0 0 -3.75,-3.75 z m 15,0 a 3.7499997,3.7499997 0 0 0 -3.75,3.75 3.7499997,3.7499997 0 0 0 3.75,3.75 3.7499997,3.7499997 0 0 0 3.75,-3.75 3.7499997,3.7499997 0 0 0 -3.75,-3.75 z m 15,0 a 3.7499997,3.7499997 0 0 0 -3.75,3.75 3.7499997,3.7499997 0 0 0 3.75,3.75 3.7499997,3.7499997 0 0 0 3.75,-3.75 3.7499997,3.7499997 0 0 0 -3.75,-3.75 z m 15,0 a 3.7499997,3.7499997 0 0 0 -3.75,3.75 3.7499997,3.7499997 0 0 0 3.75,3.75 3.7499997,3.7499997 0 0 0 3.75,-3.75 3.7499997,3.7499997 0 0 0 -3.75,-3.75 z m 15,0 a 3.7499997,3.7499997 0 0 0 -3.75,3.75 3.7499997,3.7499997 0 0 0 3.75,3.75 3.7499997,3.7499997 0 0 0 3.75,-3.75 3.7499997,3.7499997 0 0 0 -3.75,-3.75 z m 15,0 a 3.7499997,3.7499997 0 0 0 -3.75,3.75 3.7499997,3.7499997 0 0 0 3.75,3.75 3.7499997,3.7499997 0 0 0 3.75,-3.75 3.7499997,3.7499997 0 0 0 -3.75,-3.75 z m -157.49999,7.5 a 3.7499997,3.7499997 0 0 0 -3.75,3.75 3.7499997,3.7499997 0 0 0 3.75,3.75 3.7499997,3.7499997 0 0 0 3.75,-3.75 3.7499997,3.7499997 0 0 0 -3.75,-3.75 z m 15,0 a 3.7499997,3.7499997 0 0 0 -3.75,3.75 3.7499997,3.7499997 0 0 0 3.75,3.75 3.7499997,3.7499997 0 0 0 3.75,-3.75 3.7499997,3.7499997 0 0 0 -3.75,-3.75 z m 15,0 a 3.7499997,3.7499997 0 0 0 -3.75,3.75 3.7499997,3.7499997 0 0 0 3.75,3.75 3.7499997,3.7499997 0 0 0 3.75,-3.75 3.7499997,3.7499997 0 0 0 -3.75,-3.75 z m 15,0 a 3.7499997,3.7499997 0 0 0 -3.75,3.75 3.7499997,3.7499997 0 0 0 3.75,3.75 3.7499997,3.7499997 0 0 0 3.75,-3.75 3.7499997,3.7499997 0 0 0 -3.75,-3.75 z m 14.99999,0 a 3.7499997,3.7499997 0 0 0 -3.75,3.75 3.7499997,3.7499997 0 0 0 3.75,3.75 3.7499997,3.7499997 0 0 0 3.75,-3.75 3.7499997,3.7499997 0 0 0 -3.75,-3.75 z m 15,0 a 3.7499997,3.7499997 0 0 0 -3.75,3.75 3.7499997,3.7499997 0 0 0 3.75,3.75 3.7499997,3.7499997 0 0 0 3.75,-3.75 3.7499997,3.7499997 0 0 0 -3.75,-3.75 z m 15,0 a 3.7499997,3.7499997 0 0 0 -3.75,3.75 3.7499997,3.7499997 0 0 0 3.75,3.75 3.7499997,3.7499997 0 0 0 3.75,-3.75 3.7499997,3.7499997 0 0 0 -3.75,-3.75 z m 15,0 a 3.7499997,3.7499997 0 0 0 -3.75,3.75 3.7499997,3.7499997 0 0 0 3.75,3.75 3.7499997,3.7499997 0 0 0 3.75,-3.75 3.7499997,3.7499997 0 0 0 -3.75,-3.75 z m 15,0 a 3.7499997,3.7499997 0 0 0 -3.75,3.75 3.7499997,3.7499997 0 0 0 3.75,3.75 3.7499997,3.7499997 0 0 0 3.75,-3.75 3.7499997,3.7499997 0 0 0 -3.75,-3.75 z m 15,0 a 3.7499997,3.7499997 0 0 0 -3.75,3.75 3.7499997,3.7499997 0 0 0 3.75,3.75 3.7499997,3.7499997 0 0 0 3.75,-3.75 3.7499997,3.7499997 0 0 0 -3.75,-3.75 z m 15,0 a 3.7499997,3.7499997 0 0 0 -3.75,3.75 3.7499997,3.7499997 0 0 0 3.75,3.75 3.7499997,3.7499997 0 0 0 3.75,-3.75 3.7499997,3.7499997 0 0 0 -3.75,-3.75 z m 15,0 a 3.7499997,3.7499997 0 0 0 -3.75,3.75 3.7499997,3.7499997 0 0 0 3.75,3.75 3.7499997,3.7499997 0 0 0 3.75,-3.75 3.7499997,3.7499997 0 0 0 -3.75,-3.75 z m -172.49999,7.5 a 3.7499997,3.7499997 0 0 0 -3.75,3.75 3.7499997,3.7499997 0 0 0 3.75,3.75 3.7499997,3.7499997 0 0 0 3.75,-3.75 3.7499997,3.7499997 0 0 0 -3.75,-3.75 z m 15,0 a 3.7499997,3.7499997 0 0 0 -3.75,3.75 3.7499997,3.7499997 0 0 0 3.75,3.75 3.7499997,3.7499997 0 0 0 3.75,-3.75 3.7499997,3.7499997 0 0 0 -3.75,-3.75 z m 15,0 a 3.7499997,3.7499997 0 0 0 -3.75,3.75 3.7499997,3.7499997 0 0 0 3.75,3.75 3.7499997,3.7499997 0 0 0 3.75,-3.75 3.7499997,3.7499997 0 0 0 -3.75,-3.75 z m 15,0 a 3.7499997,3.7499997 0 0 0 -3.75,3.75 3.7499997,3.7499997 0 0 0 3.75,3.75 3.7499997,3.7499997 0 0 0 3.75,-3.75 3.7499997,3.7499997 0 0 0 -3.75,-3.75 z m 15,0 a 3.7499997,3.7499997 0 0 0 -3.75,3.75 3.7499997,3.7499997 0 0 0 3.75,3.75 3.7499997,3.7499997 0 0 0 3.74999,-3.75 3.7499997,3.7499997 0 0 0 -3.74999,-3.75 z m 14.99999,0 a 3.7499997,3.7499997 0 0 0 -3.75,3.75 3.7499997,3.7499997 0 0 0 3.75,3.75 3.7499997,3.7499997 0 0 0 3.75,-3.75 3.7499997,3.7499997 0 0 0 -3.75,-3.75 z m 15,0 a 3.7499997,3.7499997 0 0 0 -3.75,3.75 3.7499997,3.7499997 0 0 0 3.75,3.75 3.7499997,3.7499997 0 0 0 3.75,-3.75 3.7499997,3.7499997 0 0 0 -3.75,-3.75 z m 15,0 a 3.7499997,3.7499997 0 0 0 -3.75,3.75 3.7499997,3.7499997 0 0 0 3.75,3.75 3.7499997,3.7499997 0 0 0 3.75,-3.75 3.7499997,3.7499997 0 0 0 -3.75,-3.75 z m 15,0 a 3.7499997,3.7499997 0 0 0 -3.75,3.75 3.7499997,3.7499997 0 0 0 3.75,3.75 3.7499997,3.7499997 0 0 0 3.75,-3.75 3.7499997,3.7499997 0 0 0 -3.75,-3.75 z m 15,0 a 3.7499997,3.7499997 0 0 0 -3.75,3.75 3.7499997,3.7499997 0 0 0 3.75,3.75 3.7499997,3.7499997 0 0 0 3.75,-3.75 3.7499997,3.7499997 0 0 0 -3.75,-3.75 z m 15,0 a 3.7499997,3.7499997 0 0 0 -3.75,3.75 3.7499997,3.7499997 0 0 0 3.75,3.75 3.7499997,3.7499997 0 0 0 3.75,-3.75 3.7499997,3.7499997 0 0 0 -3.75,-3.75 z m 15,0 a 3.7499997,3.7499997 0 0 0 -3.75,3.75 3.7499997,3.7499997 0 0 0 3.75,3.75 3.7499997,3.7499997 0 0 0 3.75,-3.75 3.7499997,3.7499997 0 0 0 -3.75,-3.75 z m -157.49999,7.5 a 3.7499997,3.7499997 0 0 0 -3.75,3.75 3.7499997,3.7499997 0 0 0 3.75,3.75 3.7499997,3.7499997 0 0 0 3.75,-3.75 3.7499997,3.7499997 0 0 0 -3.75,-3.75 z m 15,0 a 3.7499997,3.7499997 0 0 0 -3.75,3.75 3.7499997,3.7499997 0 0 0 3.75,3.75 3.7499997,3.7499997 0 0 0 3.75,-3.75 3.7499997,3.7499997 0 0 0 -3.75,-3.75 z m 15,0 a 3.7499997,3.7499997 0 0 0 -3.75,3.75 3.7499997,3.7499997 0 0 0 3.75,3.75 3.7499997,3.7499997 0 0 0 3.75,-3.75 3.7499997,3.7499997 0 0 0 -3.75,-3.75 z m 15,0 a 3.7499997,3.7499997 0 0 0 -3.75,3.75 3.7499997,3.7499997 0 0 0 3.75,3.75 3.7499997,3.7499997 0 0 0 3.75,-3.75 3.7499997,3.7499997 0 0 0 -3.75,-3.75 z m 14.99999,0 a 3.7499997,3.7499997 0 0 0 -3.75,3.75 3.7499997,3.7499997 0 0 0 3.75,3.75 3.7499997,3.7499997 0 0 0 3.75,-3.75 3.7499997,3.7499997 0 0 0 -3.75,-3.75 z m 15,0 a 3.7499997,3.7499997 0 0 0 -3.75,3.75 3.7499997,3.7499997 0 0 0 3.75,3.75 3.7499997,3.7499997 0 0 0 3.75,-3.75 3.7499997,3.7499997 0 0 0 -3.75,-3.75 z m 15,0 a 3.7499997,3.7499997 0 0 0 -3.75,3.75 3.7499997,3.7499997 0 0 0 3.75,3.75 3.7499997,3.7499997 0 0 0 3.75,-3.75 3.7499997,3.7499997 0 0 0 -3.75,-3.75 z m 15,0 a 3.7499997,3.7499997 0 0 0 -3.75,3.75 3.7499997,3.7499997 0 0 0 3.75,3.75 3.7499997,3.7499997 0 0 0 3.75,-3.75 3.7499997,3.7499997 0 0 0 -3.75,-3.75 z m 15,0 a 3.7499997,3.7499997 0 0 0 -3.75,3.75 3.7499997,3.7499997 0 0 0 3.75,3.75 3.7499997,3.7499997 0 0 0 3.75,-3.75 3.7499997,3.7499997 0 0 0 -3.75,-3.75 z m 15,0 a 3.7499997,3.7499997 0 0 0 -3.75,3.75 3.7499997,3.7499997 0 0 0 3.75,3.75 3.7499997,3.7499997 0 0 0 3.75,-3.75 3.7499997,3.7499997 0 0 0 -3.75,-3.75 z m 15,0 a 3.7499997,3.7499997 0 0 0 -3.75,3.75 3.7499997,3.7499997 0 0 0 3.75,3.75 3.7499997,3.7499997 0 0 0 3.75,-3.75 3.7499997,3.7499997 0 0 0 -3.75,-3.75 z m 15,0 a 3.7499997,3.7499997 0 0 0 -3.75,3.75 3.7499997,3.7499997 0 0 0 3.75,3.75 3.7499997,3.7499997 0 0 0 3.75,-3.75 3.7499997,3.7499997 0 0 0 -3.75,-3.75 z"
     style="color:#000000;overflow:visible;fill:#000080;fill-opacity:1;stroke:none;stroke-width:7.575;stroke-linecap:round;stroke-miterlimit:4;stroke-dasharray:none;stroke-dashoffset:188.976"
     id="path957" />
  <rect
     ry="0"
     y="-265.39319"
     x="47.25629"
     height="70"
     width="95"
     id="rect837"
     style="color:#000000;overflow:visible;fill:#ffffff;stroke:#000080;stroke-width:5;stroke-linecap:round;stroke-linejoin:round;stroke-miterlimit:4;stroke-dasharray:none;stroke-dashoffset:20;stroke-opacity:1" />
  <path
     id="path958"
     style="color:#000000;font-style:normal;font-variant:normal;font-weight:normal;font-stretch:normal;font-size:medium;line-height:normal;font-family:sans-serif;font-variant-ligatures:normal;font-variant-position:normal;font-variant-caps:normal;font-variant-numeric:normal;font-variant-alternates:normal;font-variant-east-asian:normal;font-feature-settings:normal;font-variation-settings:normal;text-indent:0;text-align:start;text-decoration:none;text-decoration-line:none;text-decoration-style:solid;text-decoration-color:#000000;letter-spacing:normal;word-spacing:normal;text-transform:none;writing-mode:lr-tb;direction:ltr;text-orientation:mixed;dominant-baseline:auto;baseline-shift:baseline;text-anchor:start;white-space:normal;shape-padding:0;shape-margin:0;inline-size:0;clip-rule:nonzero;display:inline;overflow:visible;visibility:visible;opacity:1;isolation:auto;mix-blend-mode:normal;color-interpolation:sRGB;color-interpolation-filters:linearRGB;solid-color:#000000;solid-opacity:1;vector-effect:none;fill:#000080;fill-opacity:1;fill-rule:evenodd;stroke:none;stroke-width:2;stroke-linecap:butt;stroke-linejoin:miter;stroke-miterlimit:4;stroke-dasharray:none;stroke-dashoffset:0;stroke-opacity:1;color-rendering:auto;image-rendering:auto;shape-rendering:auto;text-rendering:auto;enable-background:accumulate;stop-color:#000000;stop-opacity:1"
     d="m -214.49961,-327.25943 -52.41212,52.41406 1.41407,1.41407 52.41211,-52.41407 z m 5.3457,0 -52.41407,52.41406 1.41406,1.41407 52.41407,-52.41407 z m 5.3457,0 -52.41406,52.41406 1.41406,1.41407 52.41407,-52.41407 z m 5.34571,0 c 0,0 -49.81506,49.81506 -52.41407,52.41406 l 1.41406,1.41407 52.41407,-52.41407 z m 5.34375,0 -52.41212,52.41406 1.41406,1.41407 52.41407,-52.41407 z m 5.3457,0 -52.41211,52.41406 1.41406,1.41407 52.41211,-52.41407 z m 5.3457,0 c 0,0 -49.81504,49.81505 -52.41407,52.41406 l 1.41407,1.41407 c 2.599,-2.59901 52.41406,-52.41407 52.41406,-52.41407 z m 5.34571,0 c 0,0 -49.81506,49.81506 -52.41407,52.41406 l 1.41407,1.41407 c 2.59901,-2.59902 52.41406,-52.41407 52.41406,-52.41407 z m 5.3457,0 c 0,0 -49.81506,49.81506 -52.41406,52.41406 l 1.41406,1.41407 c 2.59901,-2.59902 52.41406,-52.41407 52.41406,-52.41407 z m 5.34374,0 -52.4121,52.41406 1.41406,1.41407 52.41406,-52.41407 z m 5.34571,0 -52.41211,52.41406 1.41406,1.41407 52.41211,-52.41407 z m 5.3457,0 -52.41406,52.41406 1.41602,1.41407 c 2.59901,-2.59902 52.4121,-52.41407 52.4121,-52.41407 z m 5.3457,0 -52.41405,52.41406 1.41406,1.41407 52.41406,-52.41407 z m 5.34571,0 -52.41406,52.41406 1.41406,1.41407 52.41406,-52.41407 z m 5.3457,0 -52.41406,52.41406 1.41406,1.41407 52.41406,-52.41407 z m 5.34375,0 -52.41211,52.41406 1.41407,1.41407 52.4121,-52.41407 z m 5.3457,0 -52.41406,52.41406 1.41602,1.41407 52.4121,-52.41407 z m 5.34571,0 -52.41406,52.41406 1.41406,1.41407 52.41406,-52.41407 z m 5.3457,0 -52.41406,52.41406 1.41406,1.41407 c 2.599,-2.59901 52.41406,-52.41407 52.41406,-52.41407 z m 5.3457,0 -52.41406,52.41406 1.41406,1.41407 52.41406,-52.41407 z m 5.34375,0 -52.41211,52.41406 1.41406,1.41407 52.41211,-52.41407 z m 5.3457,0 -52.4121,52.41406 1.41406,1.41407 52.41211,-52.41407 z m 5.345711,0 -52.414061,52.41406 1.41406,1.41407 52.414061,-52.41407 z m 5.3457,0 -52.414061,52.41406 1.41406,1.41407 52.414061,-52.41407 z" />
  <g
     id="g883"
     transform="rotate(60,-127.05611,-324.73406)">
    <circle
       style="color:#000000;overflow:visible;fill:#ffffff;stroke:#000080;stroke-width:5;stroke-linecap:round;stroke-linejoin:round;stroke-miterlimit:4;stroke-dasharray:none;stroke-dashoffset:20;stroke-opacity:1"
       id="path830-9"
       cx="33.7019"
       cy="50"
       r="20" />
    <g
       id="g877"
       transform="rotate(-60,39.87859,46.991087)">
      <path
         id="path851-6"
         d="M 48.754985,68.383276 64.988179,96.5"
         style="fill:none;fill-rule:evenodd;stroke:#000080;stroke-width:7;stroke-linecap:round;stroke-linejoin:miter;stroke-miterlimit:4;stroke-dasharray:none;stroke-opacity:1" />
      <path
         id="path853-0"
         d="m 44.638433,61.253203 4.271894,7.399136"
         style="fill:none;fill-rule:evenodd;stroke:#000080;stroke-width:5;stroke-linecap:round;stroke-linejoin:miter;stroke-miterlimit:4;stroke-dasharray:none;stroke-opacity:1" />
    </g>
  </g>
  <g
     id="g921"
     transform="translate(-477.76446,-5.8932715)">
    <path
       style="color:#000000;font-style:normal;font-variant:normal;font-weight:normal;font-stretch:normal;font-size:medium;line-height:normal;font-family:sans-serif;font-variant-ligatures:normal;font-variant-position:normal;font-variant-caps:normal;font-variant-numeric:normal;font-variant-alternates:normal;font-variant-east-asian:normal;font-feature-settings:normal;font-variation-settings:normal;text-indent:0;text-align:start;text-decoration:none;text-decoration-line:none;text-decoration-style:solid;text-decoration-color:#000000;letter-spacing:normal;word-spacing:normal;text-transform:none;writing-mode:lr-tb;direction:ltr;text-orientation:mixed;dominant-baseline:auto;baseline-shift:baseline;text-anchor:start;white-space:normal;shape-padding:0;shape-margin:0;inline-size:0;clip-rule:nonzero;display:inline;overflow:visible;visibility:visible;isolation:auto;mix-blend-mode:normal;color-interpolation:sRGB;color-interpolation-filters:linearRGB;solid-color:#000000;solid-opacity:1;vector-effect:none;fill:#ffffff;fill-opacity:1;fill-rule:nonzero;stroke:none;stroke-width:8.26787;stroke-linecap:round;stroke-linejoin:round;stroke-miterlimit:4;stroke-dasharray:none;stroke-dashoffset:20;stroke-opacity:1;color-rendering:auto;image-rendering:auto;shape-rendering:auto;text-rendering:auto;enable-background:accumulate;stop-color:#000000"
       d="m 60.564508,60.56451 c -12.915217,12.915217 -33.854923,12.915217 -46.770141,0 -12.9152169,-12.915219 -12.9152169,-33.854923 1e-6,-46.770141 12.915217,-12.91521748 33.854922,-12.91521748 46.77014,-10e-7 12.915218,12.915218 12.915218,33.854924 0,46.770142"
       id="path875" />
    <path
       id="path877-7"
       style="color:#000000;font-style:normal;font-variant:normal;font-weight:normal;font-stretch:normal;font-size:medium;line-height:normal;font-family:sans-serif;font-variant-ligatures:normal;font-variant-position:normal;font-variant-caps:normal;font-variant-numeric:normal;font-variant-alternates:normal;font-variant-east-asian:normal;font-feature-settings:normal;font-variation-settings:normal;text-indent:0;text-align:start;text-decoration:none;text-decoration-line:none;text-decoration-style:solid;text-decoration-color:#000000;letter-spacing:normal;word-spacing:normal;text-transform:none;writing-mode:lr-tb;direction:ltr;text-orientation:mixed;dominant-baseline:auto;baseline-shift:baseline;text-anchor:start;white-space:normal;shape-padding:0;shape-margin:0;inline-size:0;clip-rule:nonzero;display:inline;overflow:visible;visibility:visible;isolation:auto;mix-blend-mode:normal;color-interpolation:sRGB;color-interpolation-filters:linearRGB;solid-color:#000000;solid-opacity:1;vector-effect:none;fill:#000080;fill-opacity:1;fill-rule:nonzero;stroke:none;stroke-width:8.26787;stroke-linecap:round;stroke-linejoin:round;stroke-miterlimit:4;stroke-dasharray:none;stroke-dashoffset:20;stroke-opacity:1;color-rendering:auto;image-rendering:auto;shape-rendering:auto;text-rendering:auto;enable-background:accumulate;stop-color:#000000"
       d="m 37.179688,0 c -9.530233,0 -19.061096,3.6235956 -26.308594,10.871094 -14.4949966,14.494996 -14.4949966,38.122191 0,52.617187 13.568165,13.568166 35.097661,14.366388 49.685547,2.527344 l 3.576171,3.576172 a 3.9563019,5.9576969 45 0 0 0.646485,3.613281 L 90.730469,99.15625 a 3.9563019,5.9576969 45 0 0 7.009765,-1.416016 3.9563019,5.9576969 45 0 0 1.416016,-7.009765 L 73.205078,64.779297 A 3.9563019,5.9576969 45 0 0 69.589844,64.132812 L 66.013672,60.556641 C 77.853048,45.968833 77.056526,24.439339 63.488281,10.871094 56.240783,3.6235956 46.70992,0 37.179688,0 Z m 0,8.2167969 c 7.397091,10e-8 14.795171,2.8342341 20.46289,8.5019531 11.335439,11.33544 11.335439,29.588389 0,40.923828 -11.335439,11.335439 -29.588388,11.335439 -40.923828,0 C 5.3833109,46.307139 5.3833109,28.05419 16.71875,16.71875 22.38647,11.05103 29.782596,8.2167968 37.179688,8.2167969 Z" />
  </g>
  <path
     id="path4135-0"
     style="fill:#000080;stroke-width:4.26019"
     d="m -452.96688,-129.81206 c -19.23835,0 -35.00153,15.71815 -35.00153,34.901543 0,7.43278 2.37357,14.339959 6.39169,20.019026 l 24.33853,42.073163 c 3.40849,4.452814 5.67492,3.607154 8.50902,-0.23458 l 26.84387,-45.683358 c 0.54231,-0.980988 0.96722,-2.025615 1.33822,-3.092271 1.65692,-4.04689 2.57868,-8.46157 2.57867,-13.08198 0,-19.183393 -15.76012,-34.901543 -34.99847,-34.901543 z m 0,16.354 c 10.3593,0 18.59762,8.21783 18.59762,18.547543 0,10.3297 -8.23832,18.544484 -18.59762,18.544484 -10.3593,0 -18.60067,-8.214784 -18.60067,-18.544484 0,-10.329713 8.24137,-18.547543 18.60067,-18.547543 z" />
  <g
     style="fill:none;stroke:#000080"
     transform="translate(-421.05603,131.07791)"
     id="g985">
    <circle
       style="color:#000000;overflow:visible;fill:none;stroke:#000080;stroke-width:5;stroke-linecap:butt;stroke-linejoin:bevel;stroke-miterlimit:4;stroke-dasharray:none;stroke-dashoffset:50;stroke-opacity:1"
       id="path936"
       cx="32.5"
       cy="57.5"
       r="30" />
    <circle
       r="30"
       cy="50"
       cx="67.5"
       id="path936-4"
       style="color:#000000;overflow:visible;fill:none;stroke:#000080;stroke-width:5;stroke-linecap:butt;stroke-linejoin:bevel;stroke-miterlimit:4;stroke-dasharray:none;stroke-dashoffset:50;stroke-opacity:1" />
  </g>
  <g
     transform="translate(-528.87231,100.49805)"
     id="g866">
    <circle
       r="32.5"
       cy="56.25"
       cx="35"
       id="path936-8"
       style="color:#000000;overflow:visible;fill:none;stroke:#ff0000;stroke-width:5;stroke-linecap:butt;stroke-linejoin:bevel;stroke-miterlimit:4;stroke-dasharray:none;stroke-dashoffset:50;stroke-opacity:1" />
    <circle
       style="color:#000000;overflow:visible;fill:none;stroke:#ff0000;stroke-width:5;stroke-linecap:butt;stroke-linejoin:bevel;stroke-miterlimit:4;stroke-dasharray:none;stroke-dashoffset:50;stroke-opacity:1"
       id="path936-6"
       cx="65"
       cy="48"
       r="32.5" />
  </g>
  <path
     sodipodi:nodetypes="sccccccccccccccccsssscssssssssccssccssccssccssssccsscccccccscc"
     d="m -608.72851,-111.92384 c -4.11501,-0.0178 -6.84961,0.0703 -6.84961,0.0703 -1.3493,0.0423 -2.42135,1.14809 -2.42188,2.49805 v 5.10351 h -1.52929 c -1.36438,3.8e-4 -2.47033,1.10633 -2.47071,2.47071 v 70.058589 c 3.8e-4,1.36438 1.10633,2.47033 2.47071,2.4707 h 43.42968 c 2.62608,1.76707 6.00619,1.36177 8.19922,0 h 43.42969 c 1.36437,-3.7e-4 2.47032,-1.10632 2.4707,-2.4707 v -70.058589 c -3.8e-4,-1.36438 -1.10633,-2.47033 -2.4707,-2.47071 H -526 v -5.10351 c -5.2e-4,-1.34996 -1.07258,-2.45573 -2.42187,-2.49805 0,0 -2.73461,-0.0882 -6.84961,-0.0703 -4.11501,0.0179 -9.60892,0.14127 -15.12891,0.5625 -5.51999,0.42123 -11.05773,1.12105 -15.45703,2.40234 -2.19965,0.64065 -4.12517,1.4074 -5.70117,2.53907 -0.15013,0.10779 -0.29657,0.22647 -0.44141,0.3457 -0.14516,-0.11935 -0.29104,-0.23773 -0.4414,-0.3457 -1.576,-1.13167 -3.50153,-1.89842 -5.70118,-2.53907 -4.39929,-1.28129 -9.93704,-1.98111 -15.45703,-2.40234 -5.51998,-0.42123 -11.0139,-0.54465 -15.1289,-0.5625 z m 0.0215,5.00195 c 4.02497,0.0182 9.38651,0.13728 14.72851,0.54492 5.342,0.40765 10.67274,1.1217 14.43946,2.21875 1.88335,0.54853 3.3645,1.21208 4.18164,1.79883 0.81713,0.58676 0.85513,0.82526 0.85742,1.03125 v 63.681639 c -1.1314,-0.55427 -2.34012,-1.04306 -3.69337,-1.4414 -4.4137,-1.29923 -9.95248,-1.98901 -15.46679,-2.39063 -8.9326,-0.65057 -16.29712,-0.50145 -19.33985,-0.41797 v -64.984369 c 1.12772,-0.0232 1.7197,-0.0527 4.29297,-0.041 z m 73.41406,0 c 2.57326,-0.0117 3.16524,0.0179 4.29296,0.041 v 64.984369 c -3.04273,-0.0835 -10.40725,-0.2326 -19.33984,0.41797 -5.51432,0.40162 -11.0531,1.0914 -15.4668,2.39063 -1.35324,0.39834 -2.56197,0.88713 -3.69336,1.4414 v -63.681639 c 0.002,-0.20599 0.0403,-0.44449 0.85742,-1.03125 0.81714,-0.58675 2.29829,-1.2503 4.18164,-1.79883 3.76672,-1.09705 9.09746,-1.8111 14.43946,-2.21875 5.342,-0.40764 10.70354,-0.52667 14.72851,-0.54492 z m -81.76563,69.519529 c 0.46881,0.3745 1.05666,0.56791 1.65625,0.54493 0,0 10.71864,-0.41118 21.3789,0.36523 5.33014,0.3882 10.65251,1.09276 14.41797,2.20117 0.10559,0.0311 0.19582,0.0659 0.29883,0.0977 h -37.75195 z m 90.11719,0 v 3.20899 h -37.75196 c 0.10302,-0.0318 0.19324,-0.0666 0.29883,-0.0977 3.76546,-1.10841 9.08783,-1.81297 14.41797,-2.20117 10.66027,-0.77641 21.37891,-0.36524 21.37891,-0.36524 0.59958,0.023 1.18744,-0.17043 1.65625,-0.54492 z"
     style="color:#000000;font-style:normal;font-variant:normal;font-weight:normal;font-stretch:normal;font-size:medium;line-height:normal;font-family:sans-serif;font-variant-ligatures:normal;font-variant-position:normal;font-variant-caps:normal;font-variant-numeric:normal;font-variant-alternates:normal;font-variant-east-asian:normal;font-feature-settings:normal;font-variation-settings:normal;text-indent:0;text-align:start;text-decoration:none;text-decoration-line:none;text-decoration-style:solid;text-decoration-color:#000000;letter-spacing:normal;word-spacing:normal;text-transform:none;writing-mode:lr-tb;direction:ltr;text-orientation:mixed;dominant-baseline:auto;baseline-shift:baseline;text-anchor:start;white-space:normal;shape-padding:0;shape-margin:0;inline-size:0;clip-rule:nonzero;display:inline;overflow:visible;visibility:visible;isolation:auto;mix-blend-mode:normal;color-interpolation:sRGB;color-interpolation-filters:linearRGB;solid-color:#000000;solid-opacity:1;vector-effect:none;fill:#000080;fill-opacity:1;fill-rule:nonzero;stroke:none;stroke-width:5;stroke-linecap:round;stroke-linejoin:round;stroke-miterlimit:4;stroke-dasharray:none;stroke-dashoffset:50;stroke-opacity:1;color-rendering:auto;image-rendering:auto;shape-rendering:auto;text-rendering:auto;enable-background:accumulate;stop-color:#000000"
     id="path1334" />
</svg>
