<?xml version="1.0" encoding="UTF-8" standalone="no"?>
<svg
   xmlns:dc="http://purl.org/dc/elements/1.1/"
   xmlns:cc="http://creativecommons.org/ns#"
   xmlns:rdf="http://www.w3.org/1999/02/22-rdf-syntax-ns#"
   xmlns:svg="http://www.w3.org/2000/svg"
   xmlns="http://www.w3.org/2000/svg"
   xmlns:sodipodi="http://sodipodi.sourceforge.net/DTD/sodipodi-0.dtd"
   xmlns:inkscape="http://www.inkscape.org/namespaces/inkscape"
   sodipodi:docname="uEAA7-full-screen.svg"
   inkscape:version="1.0 (4035a4fb49, 2020-05-01)"
   id="svg4460"
   height="100"
   width="100"
   version="1.1">
  <sodipodi:namedview
     inkscape:document-rotation="0"
     inkscape:current-layer="svg4460"
     inkscape:window-maximized="1"
     inkscape:window-y="-8"
     inkscape:window-x="-8"
     inkscape:cy="26.241073"
     inkscape:cx="33.40945"
     inkscape:zoom="5.6568542"
     showgrid="false"
     id="namedview11"
     inkscape:window-height="1017"
     inkscape:window-width="1920"
     inkscape:pageshadow="2"
     inkscape:pageopacity="0"
     guidetolerance="10"
     gridtolerance="10"
     objecttolerance="10"
     borderopacity="1"
     bordercolor="#666666"
     pagecolor="#ffffff" />
  <defs
     id="defs4462" />
  <metadata
     id="metadata4465">
    <rdf:RDF>
      <cc:Work
         rdf:about="">
        <dc:format>image/svg+xml</dc:format>
        <dc:type
           rdf:resource="http://purl.org/dc/dcmitype/StillImage" />
        <dc:title />
      </cc:Work>
    </rdf:RDF>
  </metadata>
  <path
     d="m 2.2595624e-7,10.588867 v 1.5 0.05469 5.464843 3.111328 6.220703 3.109376 6.222656 3.109375 6.222656 3.109375 6.220703 3.111328 6.220703 1.322266 H 75 V 13.700195 h 4.320312 V 10.588867 H 75 Z M 75,65.588867 l 1.160156,16.478516 5.404297,-5.832032 7.322266,6.785157 -5.404297,5.832031 L 100,88.758789 98.839844,72.280273 l -5.404297,5.832032 -7.322266,-6.785157 5.404297,-5.832031 z m 7.431641,-55 v 3.111328 h 6.220703 v -3.111328 z m 9.332031,0 v 3.111328 h 6.220703 v -3.111328 z m -76.041016,3 h 0.486328 c -0.08259,0.11567 -0.295321,0.11199 -0.486328,0 z m 7.607422,0 h 3.109375 v 0.111328 h 5.115235 c 0.08016,0.03126 0.09961,0.112994 0.09961,0.31836 1.6e-5,0.230276 -0.041,0.330078 -0.136719,0.330078 -0.09507,1.5e-5 -0.136719,0.09893 -0.136719,0.322265 0,0.177049 -0.05242,0.342951 -0.115234,0.369141 -0.09133,0.03804 -0.09133,0.04799 0,0.05469 0.167269,0.01089 0.146346,0.635955 -0.02344,0.703125 -0.193454,0.07657 -0.168907,0.215318 0.04687,0.273438 0.190402,0.05135 0.246844,0.297674 0.0918,0.396484 -0.04926,0.0314 -0.169028,0.01338 -0.267578,-0.04102 -0.125805,-0.06906 -0.195821,-0.07076 -0.238281,0 -0.03336,0.05573 0.02483,0.125716 0.130859,0.154296 0.124114,0.03345 0.191407,0.127093 0.191407,0.265625 0,0.281591 -0.406607,0.404283 -0.634766,0.191407 -0.143057,-0.133487 -0.174465,-0.129866 -0.326172,0.04297 -0.163881,0.186763 -0.160132,0.189529 0.101563,0.136719 0.367532,-0.07412 0.620002,0.126596 0.517578,0.41211 l -0.07813,0.216796 -0.25586,-0.246093 c -0.406523,-0.388546 -0.396686,-0.188723 0.01172,0.232422 0.202274,0.208557 0.359296,0.378906 0.347656,0.378906 -0.01124,0 0.0098,0.196503 0.04492,0.435547 l 0.0625,0.433593 -0.351562,-0.04883 c -0.199509,-0.02767 -0.331645,-0.01117 -0.302735,0.03711 0.02807,0.04695 0.152714,0.08594 0.275391,0.08594 0.122651,0 0.22115,0.05242 0.21875,0.117188 -0.0079,0.225793 -0.863591,0.885579 -1.367187,1.054687 -0.721054,0.242153 -0.760921,0.270194 -0.933594,0.640625 -0.19478,0.417871 -0.545219,0.706956 -0.949219,0.785156 -0.176103,0.03407 -0.310547,0.117197 -0.310547,0.191407 0,0.07209 -0.03066,0.130752 -0.06836,0.130859 -0.03766,9.2e-5 -0.07865,0.15602 -0.0918,0.345703 -0.01328,0.18967 -0.06604,0.395841 -0.115234,0.457031 -0.04927,0.06113 -0.06249,0.135882 -0.0293,0.169922 0.03302,0.03418 -0.0077,0.06445 -0.08984,0.06445 -0.09431,0 -0.128896,0.05164 -0.0957,0.140624 0.02865,0.07714 0.0024,0.35162 -0.05859,0.611329 -0.09982,0.428944 -0.133949,0.472656 -0.369141,0.472656 -0.181141,0 -0.276539,-0.05752 -0.318359,-0.193359 -0.04115,-0.133669 -0.124001,-0.185176 -0.265625,-0.166016 -0.113085,0.0153 -0.262934,-0.03649 -0.333984,-0.115234 -0.183366,-0.203235 -0.619007,-1.121711 -0.691407,-1.457032 -0.03355,-0.155461 -0.119849,-0.379054 -0.193359,-0.496094 -0.316024,-0.503204 -0.202165,-1.741517 0.169922,-1.841796 0.09483,-0.02557 0.165773,-0.1657 0.189453,-0.375 0.03205,-0.28333 0.0085,-0.340197 -0.158203,-0.373047 -0.152303,-0.03002 -0.187487,-0.0018 -0.154297,0.128906 0.06247,0.246451 -0.376412,0.342928 -0.583984,0.128906 -0.146471,-0.151049 -0.144687,-0.179525 0.01758,-0.490234 0.159057,-0.304534 0.197368,-0.322787 0.511718,-0.279297 l 0.341797,0.04492 -0.222656,-0.210938 c -0.121909,-0.116417 -0.201574,-0.239247 -0.177734,-0.273437 0.02388,-0.03404 -0.0042,-0.02102 -0.06445,0.03125 -0.15242,0.133046 -0.436309,0.119865 -0.449219,-0.02148 -0.02131,-0.239187 0.03148,-0.499481 0.125,-0.617187 0.06748,-0.08478 0.06772,-0.183806 0,-0.330078 -0.12493,-0.268968 -0.388672,-1.151729 -0.388672,-1.302735 0,-0.06391 -0.06364,-0.185787 -0.140625,-0.273437 -0.07698,-0.08767 -0.157747,-0.255342 -0.179688,-0.373047 -0.0479,-0.256408 -0.0013,-0.215679 -0.484374,-0.466797 l -0.394532,-0.205078 -0.3125,0.189453 c -0.25741,0.15667 -0.358338,0.172304 -0.58789,0.08984 -0.290068,-0.104274 -0.505347,-0.391938 -0.410157,-0.550781 0.03048,-0.05085 -0.05095,-0.135147 -0.179687,-0.185547 C 20.720247,14.237521 20.715414,14.038429 21,13.807617 l 0.132812,-0.107422 h 2.197266 z m -12.40039,0.111328 h 0.736328 c 0.03511,0.07699 0.04577,0.137892 0.0039,0.152344 -0.05255,0.01801 -0.07335,0.132211 -0.05078,0.253906 0.02255,0.121666 -0.0055,0.250196 -0.06055,0.285156 -0.05508,0.03505 -0.09926,0.135007 -0.09766,0.222657 0.0026,0.146095 0.01031,0.14733 0.0957,-0.0039 0.09877,-0.174895 0.449218,-0.231597 0.449218,-0.07226 0,0.05173 0.06284,0.09375 0.140625,0.09375 0.07773,0 0.213168,0.128072 0.298828,0.283203 0.09193,0.166636 0.229923,0.281622 0.337891,0.28125 0.13947,-6.7e-4 0.152742,-0.02121 0.05664,-0.08398 -0.06883,-0.04523 -0.10076,-0.125688 -0.06836,-0.179688 0.0324,-0.05409 0.01984,-0.125623 -0.03125,-0.158203 -0.144901,-0.09234 -0.111668,-0.27459 0.09375,-0.501953 0.194242,-0.214973 0.408959,-0.190624 0.324219,0.03711 -0.02638,0.07082 -0.0066,0.15466 0.04492,0.1875 0.05113,0.03282 0.07185,0.12088 0.04492,0.19336 -0.03376,0.0907 0.02281,0.130859 0.175781,0.130859 0.264847,0 0.420366,0.257106 0.347656,0.572266 -0.05022,0.217915 -0.04494,0.22125 0.08594,0.04687 0.133909,-0.178457 0.137569,-0.178113 0.242187,0.02344 0.05887,0.11298 0.08357,0.210097 0.05664,0.216797 -0.02688,0.0065 -0.16061,0.02568 -0.298828,0.04297 -0.684862,0.08587 -1.005097,0.174821 -1.226563,0.335937 -0.306669,0.223177 -0.579099,0.223716 -0.732421,0.0039 -0.06567,-0.09416 -0.254666,-0.251179 -0.417969,-0.349609 -0.225498,-0.135738 -0.283351,-0.225539 -0.244141,-0.371094 0.03477,-0.12969 0.02412,-0.152102 -0.03125,-0.07031 -0.08096,0.119687 -0.386719,0.06387 -0.386719,-0.07031 0,-0.112824 0.323072,-0.380859 0.458985,-0.380859 0.09584,0 0.101312,-0.02506 0.01953,-0.109375 -0.08179,-0.08434 -0.152651,-0.05022 -0.302734,0.146484 -0.133743,0.17532 -0.24431,0.235957 -0.345703,0.191407 -0.08191,-0.03604 -0.218895,-0.06119 -0.302735,-0.05859 -0.248873,0.01003 -0.267755,-0.24537 -0.03711,-0.501953 0.118257,-0.131577 0.312971,-0.386764 0.43164,-0.56836 0.06115,-0.09362 0.128323,-0.168555 0.189454,-0.220703 z m 1.322265,0 h 0.314453 c -0.177654,0.06974 -0.254445,0.06356 -0.314453,0 z m 1.425781,0 h 0.269532 c 0.02942,0.314883 -0.150647,0.295583 -0.269532,0 z m 3.576172,0 h 2.123047 c -0.0142,0.0235 -0.01973,0.04941 -0.03906,0.07031 -0.194656,0.210473 -0.239978,0.398697 -0.08984,0.367187 0.06157,-0.01295 0.124075,0.06708 0.140625,0.177735 0.02164,0.14509 -0.0576,0.25663 -0.283203,0.40039 -0.358147,0.228274 -0.534917,0.255155 -0.466797,0.07227 0.03414,-0.09177 -0.04188,-0.123888 -0.277344,-0.117188 -0.178218,0.0046 -0.322266,0.04133 -0.322266,0.08203 2e-6,0.04087 -0.204364,0.04576 -0.453124,0.01172 -0.343748,-0.04709 -0.486157,-0.0269 -0.591797,0.08203 -0.124506,0.128371 -0.105734,0.160173 0.18164,0.300781 0.299517,0.146539 0.351789,0.146364 0.779297,0 0.373307,-0.12793 0.506763,-0.136292 0.720703,-0.04492 0.305344,0.13041 0.415221,0.345862 0.267578,0.529297 -0.0572,0.07089 -0.08222,0.211954 -0.05664,0.3125 0.02553,0.100519 -0.0046,0.202212 -0.06641,0.226562 -0.148181,0.05865 -1.871678,0.05385 -2.105468,-0.0059 h -0.002 c -0.315719,-0.08059 -0.41051,-0.2239 -0.41211,-0.625 -0.002,-0.635966 -0.07958,-0.821616 -0.318359,-0.759766 -0.157822,0.04085 -0.252296,-0.01211 -0.400391,-0.226562 -0.290028,-0.419986 -0.255341,-0.580078 0.125,-0.580078 0.21817,0 0.355051,0.05711 0.431641,0.183593 0.07499,0.123729 0.173998,0.168016 0.302734,0.134766 0.115192,-0.02979 0.242897,0.01228 0.316406,0.103516 0.109878,0.136511 0.135237,0.122831 0.240235,-0.134766 0.06457,-0.158322 0.177103,-0.287109 0.251953,-0.287109 0.119417,0 0.122503,-0.03454 0.0078,-0.261719 -0.0026,-0.0051 -0.0017,-0.0072 -0.0039,-0.01172 z m 20.664063,0 h 0.873047 c -0.01919,0.09388 -0.03312,0.178885 -0.07422,0.316406 -0.165679,0.554769 -0.352846,0.673011 -0.447266,0.285157 -0.03153,-0.129569 -0.107795,-0.234375 -0.171875,-0.234375 -0.111876,0 -0.196587,-0.220764 -0.179686,-0.367188 z m 1.654297,0 h 0.421875 c -0.201414,0.180665 -0.449091,0.259734 -0.34375,0.08398 0.02565,-0.04263 -0.01361,-0.07262 -0.07813,-0.08398 z m 16.40039,0 h 0.871094 c 0.0068,0.03024 0.0099,0.0604 0.002,0.0918 -0.02941,0.115978 0.0016,0.181641 0.08594,0.181641 0.0723,0 0.154683,0.06296 0.183593,0.140625 0.0331,0.08891 0.177155,0.143031 0.386719,0.144531 0.501459,0.0045 0.851667,0.367139 0.904297,0.931641 0.04311,0.462721 -0.006,0.546024 -0.679688,1.138671 -0.151224,0.133051 -0.152538,0.142522 0.01758,0.175782 0.09887,0.01939 0.21234,0.0838 0.25,0.142578 0.04865,0.07565 0.09528,0.06513 0.160156,-0.03516 0.07667,-0.118699 0.100444,-0.108537 0.146484,0.06445 0.0452,0.169705 0.0908,0.190086 0.261719,0.123046 0.282496,-0.11075 0.965174,0.0714 0.902344,0.240235 -0.03147,0.0844 0.05949,0.14574 0.27539,0.1875 0.392257,0.07588 0.515625,0.0063 0.515625,-0.28711 0,-0.308316 0.128282,-0.362537 0.449219,-0.191406 0.14976,0.07987 0.350113,0.146485 0.445313,0.146485 0.334879,0 0.483354,0.30176 0.458984,0.9375 -0.01879,0.491435 0.0088,0.611957 0.158203,0.724609 0.16577,0.124953 0.183086,0.111298 0.253906,-0.175781 0.104072,-0.421571 0.208954,-0.508777 0.330078,-0.275391 0.0791,0.152929 0.158025,0.184468 0.361329,0.142578 0.154267,-0.03179 0.289295,-0.01022 0.328125,0.05469 0.04828,0.08059 0.106122,0.07209 0.216796,-0.03125 0.08297,-0.07739 0.192648,-0.132347 0.242188,-0.123047 0.04954,0.0093 0.102221,-0.05774 0.119141,-0.148438 0.0169,-0.09072 -0.01249,-0.166015 -0.06641,-0.166015 -0.05405,0 -0.09766,-0.06295 -0.09766,-0.140625 0,-0.0778 0.07747,-0.138672 0.173828,-0.138672 0.09629,0 0.190155,-0.0493 0.208985,-0.107422 0.05345,-0.165318 1.793451,0.276377 1.90039,0.482422 0.04669,0.09009 0.06052,0.18858 0.03125,0.21875 -0.02931,0.03018 0.05589,0.08119 0.1875,0.115234 0.21144,0.05469 0.275066,0.139937 0.253907,0.333985 -0.0033,0.03099 0.292939,0.03802 0.660156,0.01367 0.621104,-0.0411 0.67874,-0.02974 0.818359,0.175782 0.08253,0.121523 0.150391,0.314019 0.150391,0.427734 -10e-7,0.243438 0.16624,0.326257 0.380859,0.189453 0.106704,-0.06784 0.259605,-0.06386 0.503906,0.01367 0.318499,0.101018 0.363097,0.09395 0.498047,-0.08984 0.09297,-0.126572 0.203615,-0.181501 0.296875,-0.144531 0.175437,0.06948 0.198613,0.314443 0.03516,0.376953 -0.08488,0.03241 -0.07511,0.08351 0.03711,0.205078 0.170166,0.184346 0.42033,0.107747 0.267578,-0.08203 -0.04993,-0.06286 -0.06897,-0.210421 -0.03906,-0.328125 0.04566,-0.180042 0.09398,-0.204921 0.294922,-0.144531 0.13138,0.03949 0.402465,0.07924 0.603516,0.08594 0.437169,0.01596 0.673959,0.136163 1.279297,0.648438 0,0 0.002,0.002 0.002,0.002 v 1.933594 c -0.0739,0.04493 -0.143174,0.107631 -0.214844,0.201172 -0.190777,0.248975 -0.201189,0.31216 -0.105468,0.611328 0.138587,0.432994 0.06154,0.644179 -0.208985,0.574219 -0.113334,-0.02938 -0.308599,0.0064 -0.433594,0.08008 -0.124957,0.0736 -0.289904,0.165235 -0.365234,0.203125 -0.0754,0.0379 -0.294729,0.232974 -0.488281,0.433593 -0.330573,0.342594 -0.361752,0.356334 -0.517578,0.210938 -0.128255,-0.1197 -0.206666,-0.132486 -0.347657,-0.05469 -0.100368,0.05536 -0.204798,0.15345 -0.230468,0.21875 -0.03541,0.09045 -0.06892,0.08598 -0.142579,-0.02148 -0.06577,-0.09575 -0.09694,-0.103234 -0.09766,-0.02344 -4.89e-4,0.06477 -0.08311,0.117188 -0.183594,0.117188 -0.100536,0 -0.185546,0.04166 -0.185546,0.0918 0,0.05012 0.06334,0.0669 0.138672,0.03711 0.209739,-0.08294 0.167422,0.223558 -0.04688,0.341797 -0.135638,0.07473 -0.18164,0.07233 -0.18164,-0.01172 0,-0.06203 -0.0283,-0.08599 -0.06055,-0.05273 -0.03227,0.0333 -0.01803,0.113716 0.0293,0.179688 0.113879,0.159027 0.103067,0.826265 -0.01367,0.822265 -0.0503,-0.0018 -0.113512,0.136175 -0.138672,0.306641 -0.02833,0.191759 -0.09689,0.310547 -0.18164,0.310547 -0.08161,0 -0.148846,0.105511 -0.166016,0.259765 -0.01681,0.150607 -0.08472,0.259766 -0.16211,0.259766 -0.07331,0 -0.175342,0.115303 -0.226562,0.257812 -0.11714,0.32642 -0.657668,0.840658 -0.710938,0.675782 -0.02078,-0.06427 0.03154,-0.169735 0.117188,-0.234375 0.13661,-0.102954 0.142032,-0.185268 0.05664,-0.66211 -0.140371,-0.782134 -0.124744,-1.406689 0.03906,-1.546875 0.07543,-0.06456 0.138672,-0.149143 0.138672,-0.189453 0,-0.0403 0.133519,-0.217573 0.296875,-0.394531 0.894555,-0.969062 1.083998,-1.205078 0.974609,-1.205078 -0.06641,0 -0.231115,0.109718 -0.367187,0.24414 -0.242929,0.240079 -0.249254,0.24177 -0.308594,0.04883 -0.03355,-0.108052 -0.0335,-0.240698 -0.002,-0.292968 0.03134,-0.0524 0.0015,-0.09682 -0.06445,-0.103516 -0.239038,-0.0223 -0.392994,0.03008 -0.464844,0.160156 -0.0403,0.07307 -0.178017,0.249657 -0.304687,0.390625 -0.126345,0.140954 -0.186733,0.270583 -0.132813,0.289063 0.182513,0.06272 0.09965,0.300594 -0.107422,0.308594 -0.113089,0.0042 -0.318812,0.02541 -0.457031,0.04883 -0.189029,0.03204 -0.25,0.0053 -0.25,-0.111328 0,-0.12847 -0.05995,-0.144152 -0.34375,-0.08789 -0.188485,0.03735 -0.553864,0.06389 -0.810547,0.05859 -0.463436,-0.0095 -0.468449,-0.0059 -0.949219,0.578125 -0.266281,0.32347 -0.612023,0.702636 -0.767578,0.84375 -0.208373,0.189048 -0.241907,0.260219 -0.128906,0.261718 0.08436,0.0014 0.217925,0.06705 0.296875,0.148438 0.07898,0.08153 0.144531,0.104286 0.144531,0.04883 0,-0.150697 0.326442,-0.123168 0.457031,0.03906 0.149981,0.186319 0.401422,0.186319 0.332032,0 -0.0307,-0.08271 -0.0019,-0.140625 0.07031,-0.140625 0.144939,0 0.233828,0.287595 0.236328,0.765625 4.9e-4,0.187821 0.06282,0.522255 0.138672,0.74414 0.154507,0.451387 0.123288,0.559736 -0.105468,0.365235 -0.14241,-0.121094 -0.150024,-0.09416 -0.09766,0.365234 0.03211,0.282013 0.02248,0.476506 -0.02344,0.447266 -0.04456,-0.02847 -0.110631,-0.0057 -0.144532,0.05078 -0.1,0.166824 0.329592,0.571206 0.535157,0.503906 0.125242,-0.04097 0.156052,-0.0263 0.107422,0.05469 -0.03818,0.06385 -0.01356,0.151822 0.05469,0.195312 0.09156,0.05836 0.06309,0.100092 -0.115234,0.169922 -0.131628,0.05159 -0.269228,0.143945 -0.304688,0.203125 -0.03729,0.06196 -0.16072,0.0826 -0.291015,0.04883 -0.203769,-0.05272 -0.218914,-0.03641 -0.152344,0.158203 0.102916,0.301216 0.08089,0.700813 -0.07227,1.244141 -0.107683,0.382 -0.178675,0.480588 -0.40039,0.548828 -0.148356,0.04568 -0.374358,0.128357 -0.5,0.185547 -0.125638,0.0572 -0.26818,0.111794 -0.31836,0.121094 -0.292917,0.05011 -0.686474,0.299853 -0.771484,0.492187 -0.11042,0.249809 -0.28125,0.207545 -0.28125,-0.07227 0,-0.100529 -0.03966,-0.183593 -0.08984,-0.183593 -0.182592,0 -0.08527,-0.205929 0.25,-0.523438 0.244289,-0.23138 0.429484,-0.325853 0.642578,-0.326172 0.229985,-3.7e-4 0.322234,-0.05318 0.402344,-0.234375 0.06719,-0.152044 0.178519,-0.234375 0.314453,-0.234375 0.283724,0 0.41211,-0.284859 0.41211,-0.90625 0,-0.391936 0.04329,-0.556587 0.18164,-0.689453 0.155687,-0.149545 0.189189,-0.336874 0.230469,-1.316406 0.03329,-0.78854 0.01758,-1.142578 -0.05078,-1.142578 -0.05457,0 -0.09961,0.150946 -0.09961,0.333984 0,0.470801 -0.236046,0.969755 -0.865234,1.820313 -0.353843,0.47836 -0.642266,0.653235 -0.90625,0.548828 -0.135174,-0.05349 -0.421875,0.207544 -0.421875,0.384765 0,0.05694 -0.103325,0.188301 -0.232422,0.292969 l -0.236328,0.191407 0.195312,0.273437 c 0.130779,0.182265 0.185886,0.375943 0.166016,0.583984 -0.02526,0.265305 -0.07946,0.329989 -0.371094,0.433594 l -0.341797,0.121094 -0.01172,-0.347656 c -0.0052,-0.191627 -0.0039,-0.400854 0.0039,-0.464844 0.0081,-0.06492 -0.04575,-0.09358 -0.119141,-0.06445 -0.185572,0.0734 -0.265563,-0.110372 -0.148437,-0.335938 0.08442,-0.162579 0.06973,-0.189453 -0.0918,-0.189453 -0.104043,0 -0.290504,0.06958 -0.416016,0.154297 -0.282556,0.190909 -0.348201,0.134554 -0.226562,-0.195312 l 0.09375,-0.25586 -0.357422,0.265625 c -0.331812,0.245395 -0.348071,0.279383 -0.214844,0.431641 0.09129,0.10426 0.180421,0.134336 0.244141,0.08008 0.120271,-0.102487 0.603515,-0.02288 0.603515,0.09961 0,0.04739 -0.07414,0.113838 -0.162109,0.148438 -0.08795,0.03462 -0.231846,0.134123 -0.322266,0.220703 -0.157693,0.151047 -0.155199,0.175994 0.101563,0.625 0.194316,0.340132 0.245254,0.511285 0.183594,0.625 -0.05409,0.09985 -0.05061,0.15625 0.0078,0.15625 0.231259,0 -0.48983,1.199835 -0.923828,1.537109 -0.165256,0.128428 -0.550047,0.303915 -0.853516,0.390625 -0.481511,0.137641 -0.555235,0.188508 -0.572265,0.400391 -0.03546,0.442158 -0.412651,0.681572 -0.539063,0.341797 -0.03729,-0.100094 0.01699,-0.218983 0.152344,-0.332032 0.115998,-0.09687 0.188113,-0.199628 0.158203,-0.230468 -0.102007,-0.105177 -0.474044,0.05228 -0.59375,0.251953 -0.107708,0.179692 -0.08443,0.239208 0.25,0.613281 0.319857,0.357874 0.371094,0.474235 0.371094,0.84375 0,0.376506 -0.03093,0.440471 -0.251953,0.541016 -0.138214,0.06287 -0.303481,0.18975 -0.369141,0.28125 -0.160648,0.223848 -0.384766,0.209605 -0.384766,-0.02344 10e-7,-0.106466 -0.0596,-0.1875 -0.138671,-0.1875 -0.07699,-10e-7 -0.16446,-0.06296 -0.19336,-0.140625 -0.02891,-0.07779 -0.109647,-0.142578 -0.179687,-0.142578 -0.07005,0 -0.126953,-0.06295 -0.126953,-0.140625 0,-0.07779 -0.04149,-0.142578 -0.0918,-0.142578 -0.10462,0 -0.123006,0.848412 -0.02148,0.994141 0.03689,0.05302 0.176506,0.165373 0.308594,0.251953 0.132093,0.08654 0.26054,0.276416 0.287109,0.421875 0.02657,0.14545 0.07753,0.359921 0.113282,0.476562 0.05233,0.170745 0.02984,0.212891 -0.115235,0.212891 -0.272525,0 -0.637755,-0.405996 -0.748047,-0.828125 -0.05404,-0.207014 -0.159684,-0.426384 -0.234374,-0.490235 -0.09211,-0.07879 -0.132801,-0.278819 -0.125,-0.61914 0.0076,-0.342035 -0.03529,-0.547892 -0.132813,-0.648438 -0.0787,-0.08108 -0.167469,-0.232596 -0.199219,-0.335937 -0.06248,-0.20309 -0.18497,-0.24454 -0.27539,-0.09375 -0.03108,0.05174 -0.136855,0.09375 -0.234375,0.09375 -0.138139,0 -0.177735,-0.06538 -0.177735,-0.296875 0,-0.164654 -0.0933,-0.42837 -0.210937,-0.589844 C 53.894947,35.633651 53.77285,35.42377 53.7383,35.32721 c -0.04724,-0.13192 -0.09603,-0.14886 -0.185547,-0.07227 -0.06553,0.05613 -0.250141,0.11171 -0.410156,0.125 -0.161566,0.01262 -0.289062,0.07466 -0.289062,0.140625 0,0.06537 -0.12461,0.185165 -0.275391,0.265625 -0.150767,0.0804 -0.273437,0.182542 -0.273437,0.226562 0,0.04406 -0.201958,0.222105 -0.447266,0.396484 -0.43441,0.30917 -0.444,0.328106 -0.4375,0.783204 0.0046,0.317149 0.05978,0.52101 0.171875,0.636718 0.313104,0.322818 0.185034,0.923829 -0.197266,0.923828 -0.1308,2e-6 -0.194074,-0.467044 -0.08984,-0.667968 0.159216,-0.306661 0.02732,-0.322144 -0.222657,-0.02539 -0.200186,0.23767 -0.243501,0.253262 -0.355469,0.128906 -0.22744,-0.252831 -0.897929,-1.975101 -0.912109,-2.341797 -0.01237,-0.320154 -0.03564,-0.352093 -0.226562,-0.314453 -0.216723,0.04272 -0.570319,-0.201931 -0.574219,-0.396484 -0.0013,-0.05675 -0.107805,-0.208255 -0.238281,-0.335937 -0.212246,-0.207642 -0.321367,-0.233537 -1.048829,-0.248047 -0.488869,-0.0098 -0.869391,-0.06272 -0.951171,-0.132813 -0.111196,-0.09514 -0.136719,-0.08702 -0.136719,0.03906 0,0.08492 0.14636,0.224096 0.322266,0.310547 0.372984,0.183378 0.423429,0.485573 0.134765,0.783203 -0.100549,0.103645 -0.18164,0.218479 -0.181641,0.255859 10e-7,0.126524 -0.594127,0.589619 -0.755859,0.589844 -0.08845,9.4e-5 -0.230366,0.0839 -0.316406,0.1875 -0.08606,0.103659 -0.19828,0.189133 -0.25,0.189453 -0.05167,2.68e-4 -0.200182,0.05908 -0.330078,0.128906 -0.129922,0.06989 -0.468483,0.201729 -0.75,0.292969 -0.445344,0.144426 -0.499463,0.187132 -0.414063,0.328125 0.08721,0.1439 0.151344,0.148436 0.566406,0.04883 0.256918,-0.06162 0.556759,-0.140011 0.666016,-0.175781 0.573489,-0.187902 -0.04822,1.364937 -0.828125,2.068359 l -0.462891,0.419922 -0.15039,0.0918 -0.22461,0.261719 c -0.390957,0.447797 -0.495788,0.725115 -0.449218,1.199218 0.02387,0.242643 0.07392,0.490662 0.111328,0.550782 0.03728,0.06014 0.07618,0.373263 0.08398,0.697265 0.01355,0.528048 -0.01073,0.608621 -0.21875,0.777344 -0.127651,0.10351 -0.275921,0.189906 -0.332031,0.191406 -0.05608,0.0014 -0.21618,0.123033 -0.355469,0.269532 -0.197315,0.207504 -0.237607,0.313057 -0.179687,0.474609 0.127715,0.355973 0.02575,0.822224 -0.203125,0.929687 -0.122415,0.05751 -0.228819,0.215495 -0.261719,0.384766 -0.06347,0.327313 -0.719148,1.303263 -1.044922,1.556641 -0.19585,0.152313 -1.234082,0.367065 -1.710937,0.353515 -0.22503,-0.0064 -0.43631,-0.287379 -0.38086,-0.507812 0.04357,-0.173247 -0.236769,-0.858531 -0.457031,-1.117188 -0.07072,-0.08307 -0.181747,-0.44337 -0.248047,-0.800781 -0.119144,-0.642888 -0.337447,-1.196965 -0.515625,-1.310547 -0.200547,-0.127788 -0.03671,-1.042615 0.248047,-1.382812 0.0819,-0.09789 0.111232,-0.234713 0.07227,-0.361328 -0.0346,-0.11252 -0.07574,-0.296749 -0.08984,-0.408204 -0.04704,-0.372186 -0.235789,-0.751283 -0.554688,-1.115234 -0.173813,-0.198361 -0.316406,-0.42247 -0.316406,-0.5 0,-0.0064 -0.0097,-0.01033 -0.01367,-0.01563 l 0.01953,-0.002 0.06641,-0.216797 0.0625,-0.34375 c 0.0728,-0.400154 -0.05038,-0.534934 -0.423828,-0.464844 -0.186107,0.03493 -0.278141,-0.0084 -0.390625,-0.185547 -0.173394,-0.272796 -0.433803,-0.295387 -0.931641,-0.07813 -0.194621,0.08499 -0.600784,0.166871 -0.902344,0.181641 -0.301553,0.01474 -0.626166,0.03236 -0.722656,0.03906 -0.231145,0.01557 -1.146074,-0.6387 -1.240234,-0.886718 -0.04056,-0.106853 -0.22156,-0.340949 -0.402344,-0.519532 -0.180784,-0.178588 -0.328125,-0.397841 -0.328125,-0.488281 0,-0.09041 -0.04607,-0.192512 -0.09961,-0.226562 -0.06541,-0.04165 -0.05358,-0.114347 0.03516,-0.21875 0.216201,-0.254337 0.257161,-0.535286 0.146484,-0.988281 -0.09844,-0.403056 -0.08673,-0.45815 0.183594,-0.945313 0.26427,-0.476208 0.52146,-0.784976 1.007812,-1.212891 0.103077,-0.09069 0.1875,-0.27572 0.1875,-0.412109 0,-0.159335 0.109579,-0.355235 0.306641,-0.546875 0.558693,-0.543292 0.615378,-0.900391 0.142578,-0.900391 -0.297668,0 -0.291777,0.0195 -0.304687,-1.085937 -0.0053,-0.459318 0.03247,-0.690169 0.121093,-0.761719 0.07811,-0.0633 0.386012,-0.08587 0.798829,-0.05859 l 0.671874,0.04492 v -0.345703 c 0,-0.415317 -0.229554,-0.808594 -0.470703,-0.808594 -0.218903,0 -0.329616,-0.271674 -0.158203,-0.386718 0.07015,-0.04712 0.224169,-0.06429 0.34375,-0.03516 0.187006,0.04548 0.209976,0.02507 0.166016,-0.148437 -0.04305,-0.169742 -0.01909,-0.194504 0.148437,-0.152344 0.189283,0.04763 0.60028,-0.168265 0.50586,-0.265625 -0.04599,-0.04741 -0.867592,0.08116 -1.259766,0.197266 -0.215795,0.06388 -0.216682,0.06116 -0.07031,-0.154297 0.11303,-0.166171 0.12387,-0.251896 0.04687,-0.347656 -0.07815,-0.09708 -0.0602,-0.158378 0.07227,-0.261719 0.13479,-0.105199 0.141697,-0.137278 0.03516,-0.142578 -0.09655,-0.0043 -0.06976,-0.06168 0.08594,-0.195313 0.196712,-0.168818 0.204313,-0.205951 0.08203,-0.332031 -0.122313,-0.126105 -0.149898,-0.123774 -0.263672,0.01758 -0.07024,0.08737 -0.133172,0.205952 -0.138672,0.263672 -0.0058,0.05775 -0.01554,0.190917 -0.02344,0.294922 -0.0097,0.132799 -0.123183,0.222357 -0.378906,0.304687 -0.480831,0.154719 -0.520092,0.15084 -0.576172,-0.07031 -0.02622,-0.103677 -0.0059,-0.189453 0.04492,-0.189453 0.05252,0 0.06856,-0.09755 0.03711,-0.226563 -0.07632,-0.313589 0.02518,-0.551628 0.205078,-0.480468 0.07968,0.03151 0.11432,0.02763 0.07813,-0.0098 -0.108269,-0.11163 0.206422,-0.395806 0.384766,-0.347656 0.111478,0.03007 0.17939,-0.01988 0.212891,-0.152344 0.02732,-0.107856 0.01498,-0.197266 -0.0293,-0.197266 -0.08957,0 -0.0139,-0.518865 0.113281,-0.77539 0.04592,-0.09273 0.185758,-0.166016 0.318359,-0.166016 0.190337,0 0.22623,0.03499 0.1875,0.1875 -0.03543,0.139708 -0.0047,0.191406 0.125,0.191406 0.196756,0 0.220837,0.111741 0.07813,0.386719 -0.07214,0.139132 -0.0669,0.228471 0.01953,0.335937 0.139848,0.173751 0.30877,0.467973 0.4375,0.761719 0.05169,0.117916 0.156985,0.238951 0.234374,0.269531 0.10588,0.0419 0.12811,0.136542 0.08398,0.378907 -0.05672,0.311544 -0.05118,0.316677 0.158203,0.216797 0.118978,-0.05679 0.276232,-0.23721 0.351562,-0.402344 0.101735,-0.222815 0.226116,-0.321939 0.480469,-0.386719 0.295083,-0.07516 0.341797,-0.124412 0.341797,-0.353515 0,-0.146286 -0.0397,-0.267579 -0.08984,-0.267579 -0.201029,0 -0.09151,-0.551487 0.148438,-0.746093 0.132428,-0.107335 0.270814,-0.19336 0.308594,-0.19336 0.135193,0 0.163628,0.608969 0.03516,0.759766 -0.251873,0.295604 -0.09506,0.514909 0.34375,0.480469 0.136341,-0.01065 0.273317,0.0239 0.304687,0.07617 0.03676,0.06131 0.143638,0.0494 0.302735,-0.0332 0.386028,-0.200398 0.748047,-0.268175 0.748047,-0.140625 0,0.256211 0.352657,-0.239674 0.398437,-0.560546 0.09494,-0.665215 0.173416,-0.960938 0.253906,-0.960938 0.04454,0 0.161235,-0.0839 0.261719,-0.1875 0.117013,-0.120688 0.307938,-0.188353 0.527344,-0.189453 0.188483,-8e-4 0.402502,-0.04156 0.476562,-0.08984 0.271271,-0.176899 -0.191724,-0.228704 -0.611328,-0.06836 -0.370519,0.141835 -0.421468,0.143327 -0.625,0.0059 -0.122187,-0.08259 -0.226115,-0.178097 -0.228515,-0.210937 -0.0025,-0.03291 -0.02314,-0.267576 -0.04492,-0.521485 -0.03559,-0.414452 -0.0073,-0.498129 0.257812,-0.810547 0.609975,-0.718958 0.631205,-0.758807 0.515625,-0.902343 -0.05927,-0.0736 -0.177382,-0.132813 -0.263672,-0.132813 -0.171627,0 -0.406316,0.428142 -0.316406,0.578125 0.03082,0.0514 -0.133353,0.270733 -0.365234,0.490235 -0.52598,0.49787 -0.659051,0.900316 -0.410157,1.226562 0.24335,0.318962 0.212497,0.8125 -0.05078,0.8125 -0.06816,0 -0.160929,0.232592 -0.224609,0.566406 -0.08769,0.459585 -0.14226,0.564453 -0.28711,0.564453 -0.09802,0 -0.175781,0.04383 -0.175781,0.0957 0,0.05173 -0.08311,0.0918 -0.183593,0.0918 -0.100553,0 -0.183594,0.04382 -0.183594,0.0957 0,0.155643 -0.273918,0.106291 -0.335938,-0.06055 -0.03444,-0.09262 0.0043,-0.201125 0.09766,-0.271485 0.146977,-0.110801 0.146559,-0.151095 -0.01758,-0.652343 l -0.175781,-0.533204 -0.277344,0.240235 c -0.473331,0.410637 -0.707284,0.287722 -0.802734,-0.423828 -0.0518,-0.389527 -0.07193,-0.81562 -0.05078,-1.107422 0.0053,-0.06716 0.05322,-0.09651 0.103515,-0.06445 0.05021,0.03206 0.091,0.0014 0.0918,-0.06641 0.0013,-0.06784 0.168873,-0.248817 0.373047,-0.404297 0.315596,-0.240289 0.944872,-1.074694 0.951172,-1.261718 0.0052,-0.136604 0.448828,-0.955078 0.517578,-0.955078 0.04127,0 0.07422,-0.05313 0.07422,-0.121094 0,-0.06796 0.07218,-0.206224 0.160156,-0.306641 0.08796,-0.100454 0.213077,-0.291227 0.279297,-0.423828 0.06616,-0.132572 0.262977,-0.320267 0.435547,-0.416016 0.172578,-0.09583 0.314453,-0.211169 0.314453,-0.255859 0,-0.04457 0.09407,-0.05361 0.210937,-0.02344 0.198434,0.05135 0.512819,-0.177264 0.449219,-0.326172 -0.01323,-0.03087 0.06788,-0.06814 0.181641,-0.08008 0.676325,-0.07422 0.804532,-0.05371 1.027344,0.162109 0.221039,0.214114 0.22544,0.22993 0.07227,0.40625 -0.155866,0.179408 -0.153248,0.183287 0.142578,0.117187 0.260052,-0.05811 0.310566,-0.04035 0.353516,0.128907 0.03291,0.12966 0.124638,0.199218 0.265625,0.199218 0.118044,1e-6 0.348575,0.116936 0.513672,0.261719 0.165098,0.144783 0.415729,0.338188 0.55664,0.429688 0.456063,0.295887 0.502693,0.794725 0.09766,1.068359 -0.187455,0.126602 -0.279849,0.131224 -0.652344,0.02734 -0.237914,-0.06636 -0.493029,-0.166776 -0.568359,-0.222656 -0.09637,-0.07137 -0.093,-0.04627 0.01563,0.08594 0.0849,0.103379 0.153537,0.326202 0.148437,0.494141 -0.0092,0.332445 0.231795,0.681734 0.466797,0.677734 0.124657,-0.0024 0.121142,-0.01755 -0.01563,-0.09961 -0.08799,-0.05283 -0.160156,-0.199155 -0.160156,-0.326172 0,-0.264116 0.06412,-0.281155 0.314453,-0.08594 0.254125,0.198221 0.409482,0.173651 0.351562,-0.05469 -0.06968,-0.274737 0.40675,-0.75639 0.679688,-0.6875 0.194668,0.04912 0.199374,0.03168 0.146484,-0.453125 -0.03041,-0.277153 -0.09499,-0.556314 -0.144531,-0.621094 -0.06523,-0.08539 -0.04402,-0.118287 0.08008,-0.117187 0.538078,0.004 0.854421,0.363289 0.533203,0.605468 -0.08807,0.06606 -0.131446,0.166853 -0.0957,0.226563 0.100474,0.167623 0.310214,0.127492 0.371094,-0.07031 0.05294,-0.171929 0.690144,-0.669922 0.857422,-0.669922 0.04523,0 0.134705,-0.06296 0.197265,-0.140625 0.0626,-0.0778 0.187694,-0.140625 0.277344,-0.140625 0.122807,10e-7 0.148738,0.05122 0.111328,0.210938 -0.04063,0.17371 -0.02588,0.192263 0.07422,0.0957 0.06715,-0.06477 0.21356,-0.119141 0.326172,-0.119141 0.112636,0 0.232085,-0.04557 0.265625,-0.101562 0.03357,-0.05544 0.152884,-0.07796 0.265625,-0.04883 0.112701,0.02908 0.228965,0.02787 0.259766,-0.0039 0.08712,-0.08983 -0.10907,-0.410157 -0.251954,-0.410157 -0.147639,0 -0.273893,-0.325952 -0.183593,-0.476562 0.0403,-0.06726 0.128804,-0.04028 0.257812,0.08008 0.107785,0.100551 0.402033,0.252241 0.652344,0.337891 0.250323,0.08565 0.613567,0.287622 0.808594,0.449218 0.341774,0.283192 0.351752,0.286999 0.289062,0.07031 -0.0358,-0.123645 -0.126765,-0.275791 -0.203125,-0.337891 -0.09213,-0.07536 -0.118908,-0.191975 -0.08008,-0.351562 0.03226,-0.131828 0.008,-0.323546 -0.05273,-0.423828 -0.09279,-0.153188 -0.07209,-0.239111 0.134765,-0.546875 0.135302,-0.201227 0.246108,-0.45628 0.246094,-0.566407 0,-0.110107 0.05543,-0.255738 0.121094,-0.324218 0.06563,-0.06848 0.144434,-0.200316 0.177734,-0.291016 0.0333,-0.09073 0.119816,-0.164063 0.191406,-0.164063 0.198653,0 0.254661,0.264961 0.07813,0.371094 -0.131037,0.07874 -0.115237,0.09701 0.0957,0.09961 0.218839,0.0025 0.25,0.03745 0.25,0.289062 -10e-7,0.158884 -0.03941,0.369707 -0.08984,0.466797 -0.06409,0.123503 -0.06037,0.195107 0.01367,0.242187 0.06142,0.03908 0.08078,0.0254 0.04687,-0.03125 -0.03218,-0.05375 0.03256,-0.214656 0.144531,-0.361328 0.111829,-0.146673 0.192164,-0.339684 0.177734,-0.427734 -0.01419,-0.08795 0.01427,-0.18684 0.06445,-0.21875 0.101906,-0.06493 0.254315,0.20212 0.240235,0.419922 -0.01301,0.20214 0.151721,0.28997 0.265625,0.142578 0.192973,-0.249935 0.468012,-0.250988 0.726562,-0.0039 0.136426,0.130341 0.292575,0.238281 0.347657,0.238281 0.05501,0 -0.0055,-0.101317 -0.134766,-0.224609 -0.153243,-0.146418 -0.256755,-0.372716 -0.296875,-0.648438 -0.07064,-0.485661 -0.06234,-0.489295 0.71875,-0.589844 0.492063,-0.06339 0.627038,-0.153037 0.425781,-0.28125 -0.145036,-0.09243 -0.109667,-0.519531 0.04297,-0.519531 0.08176,0 0.114142,-0.05457 0.08203,-0.140625 -0.03598,-0.09654 0.0059,-0.140625 0.13086,-0.140625 0.100509,0 0.203508,-0.05838 0.230468,-0.130859 0.02701,-0.07252 0.206443,-0.186783 0.398438,-0.251953 0.192004,-0.0652 0.389273,-0.171065 0.439453,-0.234375 0.139039,-0.175294 0.59455,-0.253525 0.740234,-0.128907 0.07232,0.06185 0.19552,0.07586 0.28711,0.03516 0.08859,-0.03934 0.264983,-0.06081 0.390625,-0.04883 0.18471,0.01782 0.205641,-0.0017 0.113281,-0.09961 -0.173675,-0.184268 -0.137821,-0.271484 0.111328,-0.271484 0.160897,-1.5e-5 0.210718,-0.04128 0.173828,-0.140625 -0.0406,-0.10911 0.09327,-0.379469 0.251953,-0.603516 z m -7.083984,0.373047 c 0.133381,-0.01315 0.232264,0.05972 0.271484,0.220703 0.08601,0.353392 -0.08947,0.570649 -0.679687,0.84375 -0.319295,0.147739 -0.663539,0.397259 -0.832031,0.603516 -0.158069,0.193514 -0.36891,0.452749 -0.46875,0.576172 -0.09988,0.123477 -0.307165,0.502669 -0.460938,0.841796 -0.316175,0.697342 -0.310402,1.12052 0.01758,1.480469 0.105933,0.116655 0.157531,0.235472 0.113281,0.263672 -0.104565,0.06664 -0.628748,0.05153 -0.736328,-0.02148 -0.04584,-0.03107 -0.110721,-0.173896 -0.144531,-0.316407 -0.04134,-0.174145 -0.122501,-0.257812 -0.244141,-0.257812 -0.133329,0 -0.18164,-0.0627 -0.18164,-0.240234 0,-0.136701 0.0419,-0.216584 0.09375,-0.183594 0.08932,0.0574 0.128066,-0.06927 0.0957,-0.314453 -0.0091,-0.06895 0.05696,-0.23862 0.146484,-0.376953 0.08948,-0.138344 0.152245,-0.301478 0.140625,-0.361329 -0.01216,-0.05987 0.06468,-0.259897 0.171875,-0.447265 0.109788,-0.191877 0.173955,-0.424941 0.146485,-0.533203 -0.03212,-0.126496 0.0028,-0.21236 0.103515,-0.25 0.08407,-0.03145 0.342895,-0.258429 0.574219,-0.503906 0.35726,-0.379169 0.470971,-0.443547 0.753906,-0.435547 0.258296,0.0076 0.400915,-0.05929 0.634766,-0.292969 0.183017,-0.182862 0.350985,-0.281632 0.484375,-0.294922 z m -36.980469,0.01953 c 0.0961,-0.0016 0.189453,0.06955 0.189453,0.167969 -8e-6,0.109592 -0.0986,0.11239 -0.261718,0.0059 -0.08641,-0.05647 -0.09206,-0.101534 -0.02149,-0.146484 0.02906,-0.01836 0.06167,-0.02697 0.09375,-0.02734 z m 3.199219,0.166016 c 0.02919,0.0015 0.07087,0.02923 0.132812,0.08203 0.121331,0.10334 0.151582,0.271451 0.138672,0.777344 l -0.01758,0.644531 h -0.363281 c -0.346341,0 -0.360339,-0.01185 -0.324219,-0.265625 0.03401,-0.23873 0.01506,-0.260213 -0.185547,-0.220703 -0.203657,0.04014 -0.219139,0.02132 -0.162109,-0.212891 0.04127,-0.169419 0.03001,-0.237565 -0.0332,-0.197265 -0.178622,0.113823 -0.414345,-0.03976 -0.427735,-0.279297 -0.01511,-0.271002 0.156683,-0.31097 0.373047,-0.08789 0.079,0.08182 0.144531,0.11145 0.144531,0.06836 10e-7,-0.163495 0.375546,-0.326879 0.501954,-0.21875 0.08938,0.07648 0.130766,0.07232 0.160156,-0.01758 0.01568,-0.04808 0.03398,-0.07313 0.0625,-0.07227 z m 16.039062,0.03516 c -0.03073,-0.02168 -0.07655,0.01594 -0.171875,0.08789 -0.153234,0.115428 -0.15574,0.132715 -0.01172,0.28125 0.227156,0.234252 0.338041,0.192616 0.269531,-0.101563 -0.03867,-0.166358 -0.05521,-0.245908 -0.08594,-0.267578 z m 32.212891,0.486328 c 0.04063,-0.01098 0.08364,-0.011 0.126953,0 0.04951,0.01262 0.100341,0.04108 0.150391,0.08789 0.149368,0.139524 0.175275,0.140099 0.246093,0.0098 0.06786,-0.125018 0.137328,-0.107238 0.488282,0.132812 0.224938,0.153853 0.513031,0.285062 0.638672,0.289063 0.247746,0.0076 0.649168,0.156566 0.5,0.185546 -0.05024,0.0097 0.03281,0.04486 0.183593,0.07813 0.302762,0.06675 0.358963,0.265893 0.119141,0.421875 -0.194859,0.126723 -0.802734,-0.147067 -0.802734,-0.361328 0,-0.205674 -0.139173,-0.176645 -0.416016,0.08789 -0.132993,0.127097 -0.350918,0.231212 -0.484375,0.230469 -0.133472,-6.5e-4 -0.372369,0.02621 -0.53125,0.06055 -0.244905,0.05285 -0.313533,0.02378 -0.445313,-0.183593 -0.250228,-0.393768 -0.05779,-0.962213 0.226563,-1.039063 z m 33.529297,0.01367 v 6.220703 H 100 v -6.220703 z m -34.072266,0.216797 c 0.05017,0 0.08984,0.125785 0.08984,0.28125 0,0.155436 -0.03966,0.283203 -0.08984,0.283203 -0.05018,0 -0.0918,-0.127738 -0.0918,-0.283203 0,-0.155449 0.04162,-0.28125 0.0918,-0.28125 z m -47.033203,0.1875 c 0.344805,0 0.58931,0.763606 0.283203,0.884766 -0.190638,0.07544 -0.159799,0.09042 -0.402344,-0.175782 -0.183816,-0.201682 -0.199155,-0.269377 -0.109374,-0.472656 0.0575,-0.130086 0.159925,-0.236328 0.228515,-0.236328 z m -5.28125,0.871094 c 0.08846,0.01489 0.154163,0.05313 0.220703,0.115234 0.09424,0.08792 0.254892,0.145926 0.359375,0.128906 0.129886,-0.0211 0.308067,0.09879 0.558594,0.38086 0.201434,0.226791 0.365234,0.45172 0.365234,0.5 0,0.04839 0.03902,0.06239 0.08789,0.03125 0.04888,-0.03112 0.193255,0.01382 0.320312,0.09961 0.216484,0.146047 0.230469,0.146852 0.230469,-0.0059 0,-0.152351 0.01711,-0.15388 0.230469,-0.0098 0.222614,0.150563 0.226563,0.147929 0.226562,-0.08398 10e-7,-0.140449 0.05374,-0.236328 0.128907,-0.236328 0.07001,0 0.150777,-0.06491 0.179687,-0.142579 0.0543,-0.1459 0.471208,-0.197899 0.548828,-0.06836 0.02414,0.04022 -0.0026,0.250011 -0.05859,0.464844 -0.07452,0.28901 -0.0737,0.485116 0.0039,0.751953 0.0578,0.19837 0.131769,0.453671 0.162109,0.570312 0.0303,0.116592 0.10263,0.215297 0.16211,0.216797 0.170582,0.0049 0.519531,0.342018 0.519531,0.501953 0,0.07981 -0.07257,0.185789 -0.160156,0.236329 -0.08802,0.05047 -0.128704,0.122116 -0.0918,0.160156 0.115255,0.118837 -0.124883,0.322265 -0.38086,0.322265 -0.09472,-0.02634 -0.370317,-0.110585 -0.398437,-0.111328 -0.0021,6.13e-4 -0.776911,0.224433 -0.916016,0.257813 -0.081,-0.01181 -0.157363,-0.02158 -0.298828,-0.01758 -0.16899,-0.05416 -0.397794,0.08732 -0.496094,-0.195313 0,-0.05816 -0.141038,-0.1545 -0.3125,-0.21289 -0.280895,-0.09557 -0.417968,-0.252844 -0.417968,-0.47461 0,-0.0433 0.113743,-0.119875 0.251953,-0.171875 l 0.25,-0.09375 -0.285156,-0.0098 c -0.29147,-0.0075 -0.400391,-0.137896 -0.400391,-0.486329 0,-0.09937 -0.0397,-0.179687 -0.08984,-0.179687 -0.129239,0 -0.114963,-0.315977 0.02149,-0.464844 0.09431,-0.1028 0.07984,-0.105665 -0.08984,-0.01563 -0.113108,0.05998 -0.207031,0.195354 -0.207032,0.298828 0,0.103446 -0.07022,0.213924 -0.158203,0.246094 -0.08794,0.03216 -0.230093,0.118879 -0.314453,0.193359 -0.136975,0.121018 -0.169536,0.105349 -0.2949214,-0.144531 -0.07715,-0.153839 -0.2061225,-0.30506 -0.2890625,-0.33789 -0.10641,-0.04209 -0.1338539,-0.122738 -0.091797,-0.271485 0.03291,-0.115964 0.077136,-0.325845 0.097656,-0.466797 0.02056,-0.140943 0.077659,-0.336987 0.1289063,-0.435547 0.0583,-0.11201 0.064132,-0.287468 0.013672,-0.46875 -0.08006,-0.287904 -0.07784,-0.291005 0.3261716,-0.353515 0.158107,-0.02515 0.268932,-0.03235 0.357422,-0.01758 z m 53.326172,0.201172 c 0.09325,0.03315 0.172787,0.174878 0.117187,0.267578 -0.02475,0.04136 0.03161,0.07422 0.125,0.07422 0.215407,-1e-6 0.390626,0.175509 0.390626,0.394532 0,0.130818 -0.06983,0.166203 -0.298829,0.158203 -0.163344,-0.006 -0.367108,-0.03102 -0.455078,-0.05469 -0.173503,-0.04679 -0.222968,-0.216797 -0.0625,-0.216797 0.0614,-10e-7 0.0774,-0.103239 0.04102,-0.273437 -0.03599,-0.168315 -0.0189,-0.299907 0.04687,-0.341797 0.02877,-0.01871 0.0646,-0.01846 0.0957,-0.0078 z m -47.761719,0.105468 c 0.11779,-0.01236 0.262717,0.0099 0.439453,0.06445 0.361775,0.111748 0.394012,0.166242 0.261719,0.431641 -0.04481,0.08999 -0.125117,0.279368 -0.179687,0.421875 -0.05457,0.142497 -0.157466,0.259766 -0.228516,0.259766 -0.170782,0 -0.26868,0.42647 -0.150391,0.654297 0.05144,0.09918 0.09375,0.25197 0.09375,0.33789 0,0.08593 0.0809,0.264418 0.181641,0.396485 0.13992,0.183379 0.160682,0.269427 0.08203,0.367187 -0.07962,0.09894 -0.06962,0.126953 0.04492,0.126953 0.09022,0 0.148438,0.07948 0.148438,0.201172 0,0.16998 0.02027,0.1812 0.140625,0.07813 0.205181,-0.175584 0.423828,0.08222 0.423828,0.498047 0,0.179667 0.03752,0.386634 0.08203,0.458984 0.04604,0.0749 0.08131,0.08577 0.08203,0.02539 4.83e-4,-0.05845 0.07019,-0.270044 0.154297,-0.470703 0.232277,-0.553837 0.101985,-1.072266 -0.269531,-1.072266 -0.308333,0 -0.641565,-0.720555 -0.578125,-1.248047 0.09792,-0.813919 0.370345,-1.201172 0.845703,-1.201172 0.229545,-1e-6 0.288047,0.03121 0.248047,0.138672 -0.04645,0.125116 -0.02305,0.124979 0.207031,0.002 0.407445,-0.217935 1.210826,-0.09549 1.472656,0.222657 0.112818,0.137109 0.207385,0.29187 0.208985,0.34375 0.0059,0.176927 0.499213,0.768639 0.609375,0.730468 0.06038,-0.0209 0.183047,0.05646 0.273437,0.169922 0.09035,0.113504 0.21939,0.252167 0.28711,0.310547 0.41562,0.358279 0.650485,0.683309 0.603515,0.835938 -0.03147,0.102255 -0.0051,0.166468 0.06836,0.167968 0.08086,0.002 0.06826,0.04681 -0.03906,0.13086 -0.211198,0.165293 -0.201831,0.313029 0.02344,0.386719 0.100551,0.03294 0.18164,0.09589 0.18164,0.142578 0,0.04665 0.07219,0.05992 0.160156,0.02734 0.08802,-0.03245 0.129184,-0.02485 0.0918,0.01758 -0.03735,0.04244 0.09423,0.232787 0.294922,0.423828 0.411169,0.391366 0.438429,0.511752 0.183594,0.847656 -0.09825,0.129554 -0.180849,0.288736 -0.181641,0.353516 -0.0013,0.06476 -0.04499,0.11914 -0.09766,0.11914 -0.121616,0 -0.540922,-0.465383 -0.544922,-0.603515 -0.0013,-0.05719 -0.04504,-0.03346 -0.09375,0.05273 -0.107897,0.190627 -0.02231,0.455078 0.146485,0.455078 0.296938,0 0.521637,1.105802 0.24414,1.201172 -0.062,0.02128 -0.113281,-0.0064 -0.113281,-0.0625 0,-0.05612 -0.03479,-0.101563 -0.07813,-0.101562 -0.04364,-1e-6 -0.05628,0.110777 -0.03125,0.246093 0.04834,0.260947 0.0735,0.255682 -0.505859,0.08398 -0.113101,-0.03353 -0.207032,-0.09597 -0.207032,-0.138672 0,-0.04274 -0.100387,-0.102596 -0.224609,-0.134766 -0.124206,-0.03213 -0.274424,-0.152668 -0.333984,-0.267578 -0.234448,-0.451694 -0.490412,-0.587105 -0.820313,-0.431641 -0.247652,0.116697 -0.485769,-0.135047 -0.412109,-0.4375 0.05476,-0.224904 0.100042,-0.253534 0.316406,-0.208984 0.289212,0.05965 0.524381,-0.05417 0.431641,-0.208984 -0.03478,-0.05811 0.02116,-0.21747 0.125,-0.353516 0.103722,-0.136032 0.1875,-0.340209 0.1875,-0.453125 0,-0.282252 -0.470092,-0.736497 -0.677735,-0.654297 -0.129046,0.05104 -0.156022,0.02011 -0.132812,-0.162109 0.03154,-0.248031 -0.233906,-0.717732 -0.322266,-0.570313 -0.03022,0.0504 -0.201453,0.0918 -0.380859,0.0918 -0.391966,0 -0.50363,0.08879 -0.302735,0.240234 0.111237,0.08382 0.144619,0.255911 0.136719,0.69336 -0.0134,0.705297 -0.297794,1.150847 -0.693359,1.085937 -0.212784,-0.03494 -0.202325,-0.01159 0.132812,0.298829 0.200499,0.185695 0.395254,0.339843 0.433594,0.339843 0.03833,0 0.07031,0.05188 0.07031,0.117188 0,0.06527 0.08312,0.172311 0.185546,0.238281 0.102423,0.06598 0.16088,0.162741 0.13086,0.212891 -0.07392,0.123198 -0.475211,0.114367 -0.550782,-0.01172 -0.03918,-0.06542 -0.129714,-0.0322 -0.259765,0.09375 -0.176182,0.17064 -0.232889,0.180797 -0.447266,0.07813 -0.240725,-0.115296 -0.308592,-0.25784 -0.183593,-0.386719 0.03468,-0.03588 0.07527,-0.160081 0.08984,-0.27539 l 0.02734,-0.208985 -0.119141,0.216797 c -0.06491,0.118926 -0.249791,0.29789 -0.410156,0.398438 -0.16038,0.100561 -0.289062,0.237034 -0.289062,0.302734 0,0.06572 -0.131114,0.246681 -0.289063,0.40039 -0.508998,0.49533 -0.715924,1.335834 -0.353515,1.433594 0.113734,0.03066 0.198361,0.157432 0.232421,0.34375 0.04482,0.245264 0.09889,0.296688 0.3125,0.304688 0.141703,0.0052 0.396081,0.111972 0.564453,0.236328 0.472658,0.348976 0.718993,0.460937 1.00586,0.460937 0.251584,0 0.261719,0.02115 0.261719,0.419922 0,0.312028 0.05758,0.48661 0.226562,0.683594 0.294759,0.343512 0.41604,0.181176 0.308594,-0.412109 -0.07246,-0.399905 -0.05866,-0.444904 0.197265,-0.691407 0.150266,-0.144742 0.27177,-0.29972 0.271485,-0.34375 -0.0013,-0.253645 -0.204994,-0.774692 -0.320313,-0.820312 -0.176435,-0.06996 -0.175399,-0.341797 0.002,-0.341797 0.11288,0 0.133924,-0.133498 0.115234,-0.730469 -0.01912,-0.610649 -0.0014,-0.723466 0.113281,-0.691406 0.0754,0.02114 0.303456,0.04157 0.507813,0.04687 0.284023,0.0067 0.430121,0.06967 0.613281,0.273438 0.131787,0.146618 0.309391,0.277725 0.394531,0.291015 0.111682,0.0169 0.158228,0.129452 0.173828,0.404297 0.01315,0.232361 0.09467,0.454474 0.207032,0.570312 0.173028,0.178414 0.191943,0.179567 0.318359,0.02734 0.07385,-0.08899 0.161812,-0.274111 0.195312,-0.412109 0.0596,-0.244707 0.332032,-0.360141 0.332032,-0.140625 0,0.06069 0.05786,0.177965 0.128906,0.259766 0.07107,0.08181 0.216765,0.417738 0.324219,0.748046 0.212538,0.653239 0.315786,0.799264 0.630859,0.902344 0.113806,0.03724 0.251431,0.171854 0.306641,0.296875 0.05528,0.125112 0.15127,0.228516 0.21289,0.228516 0.14308,0 0.221487,0.526619 0.09766,0.654297 -0.06371,0.06572 -0.05551,0.09766 0.02148,0.09766 0.08507,0 0.08813,0.04588 0.01367,0.189453 -0.113521,0.218715 0.05749,0.46875 0.322265,0.46875 0.09815,0 0.135543,0.05161 0.101563,0.142578 -0.02891,0.07766 -0.01746,0.140625 0.02539,0.140625 0.12704,0 0.187616,0.393732 0.08984,0.582031 -0.07252,0.13978 -0.124668,0.156114 -0.269531,0.07617 -0.09944,-0.05546 -0.219845,-0.07602 -0.265625,-0.04687 -0.04574,0.02913 -0.109025,0.0097 -0.140625,-0.04297 -0.03153,-0.05268 -0.200331,-0.09766 -0.375,-0.09766 -0.278358,0 -0.312113,-0.0233 -0.283203,-0.208984 0.01806,-0.116601 0.108042,-0.372732 0.201172,-0.566406 0.188665,-0.392396 0.132286,-0.558247 -0.113281,-0.330079 -0.08827,0.08201 -0.276444,0.178914 -0.416016,0.214844 -0.203245,0.05231 -0.232528,0.09078 -0.148438,0.195313 0.08449,0.10507 0.06313,0.129553 -0.111328,0.126953 -0.11924,-0.0016 -0.297011,-0.06259 -0.394531,-0.138672 -0.202559,-0.158009 -0.505859,-0.187248 -0.505859,-0.04687 0,0.05173 0.126134,0.0957 0.283203,0.0957 0.270271,0 0.283778,0.01443 0.230469,0.289063 -0.06183,0.318891 0.04725,0.491545 0.36914,0.578125 0.125331,0.03366 0.217477,0.0059 0.248047,-0.07617 0.07074,-0.190034 0.215953,-0.161589 0.283203,0.05664 0.07015,0.227853 -0.07177,0.386626 -0.501953,0.560547 -0.175889,0.07112 -0.383561,0.1867 -0.462891,0.25586 -0.225861,0.196974 -0.359287,0.149357 -0.367187,-0.132813 -0.0038,-0.142183 -0.02638,-0.208324 -0.05078,-0.146484 -0.02441,0.06186 -0.183243,0.158807 -0.353516,0.216797 -0.311221,0.105906 -0.534489,0.476645 -0.330078,0.546875 0.139933,0.04813 0.130848,0.206288 -0.01172,0.207031 -0.211517,9.46e-4 -0.816155,0.201766 -0.765625,0.253906 0.0276,0.02843 -0.05392,0.259643 -0.179687,0.515625 -0.129307,0.262929 -0.204248,0.543768 -0.173829,0.642578 0.03918,0.127399 -0.04153,0.245075 -0.292968,0.439453 -0.600848,0.464528 -0.84961,0.717978 -0.84961,0.863282 0,0.07756 0.06862,0.36674 0.152344,0.640625 0.12502,0.409068 0.131892,0.5243 0.03516,0.644531 -0.06471,0.0804 -0.148743,0.144531 -0.183593,0.144531 -0.09136,0 -0.462891,-0.703391 -0.462891,-0.876953 0,-0.201708 -0.07665,-0.23867 -0.685547,-0.3125 -0.470249,-0.05708 -0.524226,-0.04679 -0.472656,0.0918 0.0632,0.16997 -0.172012,0.193687 -0.712891,0.07227 -0.196365,-0.04405 -0.356385,-0.0056 -0.5625,0.130859 -0.259681,0.171915 -0.294009,0.248033 -0.349609,0.800781 -0.06612,0.656992 0.01634,1.007422 0.302734,1.302734 0.235121,0.242409 0.86467,0.156457 0.91211,-0.125 0.01734,-0.102861 0.09894,-0.239917 0.179687,-0.304687 0.152919,-0.12263 0.751953,-0.166402 0.751953,-0.05469 0,0.07227 -0.16777,0.628969 -0.285156,0.949218 -0.07234,0.197336 -0.05408,0.210938 0.277344,0.210938 0.586018,0 0.644531,0.05696 0.644531,0.609375 0,0.645512 0.247513,0.985829 0.595703,0.822265 0.159818,-0.07511 0.300585,-0.0811 0.472656,-0.01367 0.210051,0.08229 0.271328,0.06522 0.433594,-0.130859 0.194471,-0.234944 0.966797,-0.497049 0.966797,-0.328125 0,0.04988 0.08101,0.06552 0.179688,0.0332 0.09861,-0.03232 0.272683,-0.0082 0.386718,0.05469 0.114052,0.06292 0.445009,0.110022 0.736328,0.107422 0.449156,-0.0043 0.570937,0.03472 0.794922,0.246093 0.634526,0.598809 0.884061,0.767579 1.132813,0.767578 0.446321,0 0.836157,0.256368 1.009765,0.66211 0.08785,0.205154 0.133013,0.414387 0.101563,0.466797 -0.0016,0.0026 0.05309,0.0033 0.05859,0.0059 l -0.01758,0.01563 0.597657,0.169922 0.304687,0.191406 c 0.166962,0.104953 0.49534,0.215467 0.730469,0.248047 0.235112,0.03262 0.550391,0.155375 0.701172,0.271484 0.150796,0.116031 0.356548,0.225531 0.457031,0.244141 0.141562,0.02631 0.189788,0.12114 0.210938,0.417969 0.02394,0.335452 -0.02674,0.44655 -0.390625,0.902344 -0.339988,0.425664 -0.414063,0.59033 -0.414063,0.898437 0,0.447746 -0.137649,0.891895 -0.419922,1.357422 -0.16381,0.270159 -0.282055,0.352521 -0.572265,0.400391 -0.49059,0.08089 -0.927735,0.466559 -0.927735,0.818359 0,0.268217 -0.283411,0.812641 -0.613281,1.173828 -0.09467,0.103634 -0.267768,0.330634 -0.384766,0.503906 -0.180427,0.267352 -0.258216,0.309617 -0.509765,0.279297 -0.295366,-0.03555 -0.343202,0.03443 -0.191406,0.285156 0.186464,0.307987 -0.302743,0.769532 -0.816407,0.769532 -0.170907,-1.4e-5 -0.237208,0.06864 -0.298828,0.30664 -0.06616,0.255673 -0.119264,0.30188 -0.322265,0.28711 -0.133775,-0.0097 -0.242188,0.02163 -0.242188,0.07031 0,0.04868 0.05498,0.08789 0.125,0.08789 0.210823,0 0.248698,0.270777 0.05273,0.378906 -0.09864,0.05444 -0.177734,0.170833 -0.177734,0.257813 0,0.08691 -0.115688,0.254674 -0.253906,0.373046 l -0.25,0.216797 0.21289,0.183594 c 0.238932,0.209195 0.213389,0.440884 -0.07813,0.712891 -0.09928,0.0926 -0.179687,0.210648 -0.179687,0.261718 0,0.05103 -0.07217,0.146158 -0.158203,0.210938 -0.13257,0.09996 -0.138834,0.154839 -0.04492,0.367188 0.06089,0.137667 0.111328,0.325808 0.111328,0.417968 0,0.189192 0.362445,0.578125 0.539063,0.578125 0.06377,0 0.09905,0.05241 0.07812,0.117188 -0.0371,0.11477 -0.684108,0.165258 -1.146484,0.08984 -0.139532,-0.02273 -0.203634,-0.08714 -0.183594,-0.191406 0.01667,-0.08669 -0.04779,-0.200093 -0.144531,-0.251953 -0.09671,-0.05183 -0.207914,-0.156705 -0.246094,-0.234375 -0.140372,-0.285467 -0.288126,-1.206114 -0.253906,-1.576172 0.0258,-0.279031 0.0049,-0.367504 -0.08008,-0.333984 -0.07158,0.02833 -0.117187,-0.03363 -0.117187,-0.16211 -2e-6,-0.12816 0.07073,-0.227342 0.183593,-0.257812 0.10055,-0.02711 0.181641,-0.123427 0.181641,-0.216797 0,-0.09336 0.02817,-0.238382 0.05859,-0.320312 0.03729,-0.100338 0.0025,-0.148438 -0.103516,-0.148438 -0.1196,0 -0.143568,-0.05192 -0.09961,-0.212891 0.03191,-0.116602 0.08102,-0.487383 0.109375,-0.824218 0.02847,-0.336834 0.130202,-0.811887 0.226562,-1.054688 0.0964,-0.242806 0.173812,-0.622108 0.173828,-0.845703 0,-0.22359 0.06529,-0.738361 0.140625,-1.144531 0.0753,-0.406183 0.134766,-1.037542 0.134766,-1.400391 0,-0.56892 -0.02774,-0.683412 -0.205078,-0.835937 -0.113093,-0.09726 -0.240673,-0.178188 -0.283203,-0.179688 -0.258115,-0.01047 -0.645189,-0.478394 -0.976563,-1.177734 -0.204784,-0.432197 -0.452871,-0.857849 -0.550781,-0.949219 -0.178667,-0.166688 -0.23747,-0.515835 -0.109375,-0.648437 0.0377,-0.03905 0.07031,-0.205219 0.07031,-0.369141 v -0.296875 l 0.134766,-0.214844 c 0,-0.0394 0.114248,-0.196513 0.251953,-0.349609 0.137671,-0.153111 0.237599,-0.363281 0.22461,-0.46875 -0.0793,-0.639355 -0.128487,-0.804688 -0.25,-0.804688 -0.07316,0 -0.132813,0.06295 -0.132813,0.140625 0,0.158539 -0.232982,0.192461 -0.320313,0.04687 -0.03107,-0.05174 -0.114683,-0.09375 -0.183593,-0.09375 -0.168602,0 -0.766391,-0.401294 -0.775391,-0.519531 -0.01537,-0.209302 -0.344153,-0.480807 -0.732422,-0.607422 -0.226178,-0.07378 -0.528279,-0.232746 -0.671875,-0.353515 -0.199731,-0.168644 -0.328373,-0.207163 -0.550781,-0.164063 -0.218883,0.04233 -0.469962,-0.02681 -1.015625,-0.283203 -0.873569,-0.410449 -1.06622,-0.573892 -1,-0.845703 0.03618,-0.148588 -0.05434,-0.314931 -0.34375,-0.63086 -0.616396,-0.672938 -1.067726,-1.266514 -1.166016,-1.533203 -0.04958,-0.134529 -0.132103,-0.246093 -0.183593,-0.246093 -0.14853,-10e-7 -0.110866,0.141581 0.111328,0.408203 0.11318,0.135796 0.30808,0.449298 0.433594,0.697265 0.12556,0.247963 0.28094,0.485864 0.34375,0.527344 0.0628,0.04145 0.113281,0.135798 0.113281,0.210938 0,0.07518 -0.05047,0.134312 -0.113281,0.132812 -0.169308,-0.0044 -0.636532,-0.455956 -0.576172,-0.55664 0.02865,-0.04777 -0.08216,-0.182053 -0.246094,-0.298829 -0.163936,-0.11668 -0.316244,-0.226533 -0.339844,-0.246093 -0.02374,-0.01955 0.01713,-0.07467 0.08984,-0.121094 0.112856,-0.07194 0.107998,-0.10927 -0.03125,-0.253906 -0.08979,-0.09329 -0.260469,-0.358611 -0.376953,-0.591797 C 11.29811,32.76688 11.094025,32.523864 10.94531,32.448324 10.629145,32.287609 10.553569,32.185839 10.175779,31.42684 9.8947785,30.862226 9.882732,30.793795 9.871092,29.655355 9.861012,28.604622 9.838222,28.453503 9.683592,28.336996 9.1505949,27.93527 8.9796668,27.717525 9.0878888,27.58309 c 0.08494,-0.105561 0.072633,-0.190856 -0.054687,-0.394532 -0.08926,-0.142771 -0.2176662,-0.292504 -0.2851562,-0.333984 -0.06749,-0.04144 -0.1210938,-0.18105 -0.1210938,-0.308594 0,-0.127481 -0.08506,-0.303868 -0.1855469,-0.392578 -0.1005509,-0.08875 -0.1816406,-0.21568 -0.1816406,-0.28125 0,-0.162256 -0.2889962,-0.500669 -0.3789062,-0.443359 -0.039789,0.0253 -0.098699,-0.06177 -0.1308579,-0.193442 -0.03663,-0.150408 -0.1223737,-0.238281 -0.2304688,-0.238281 -0.09464,0 -0.3593807,-0.148707 -0.5898437,-0.330078 -0.291462,-0.229343 -0.515498,-0.330078 -0.734375,-0.330078 -0.178629,0 -0.4712714,-0.101947 -0.6777344,-0.236328 -0.20004,-0.130248 -0.3652344,-0.198541 -0.3652343,-0.150391 0,0.04814 0.05242,0.107086 0.1152343,0.128906 0.08962,0.03122 0.089371,0.07055 -0.00586,0.189454 -0.06649,0.08311 -0.18061,0.128952 -0.25,0.101562 -0.06939,-0.0274 -0.2179963,0.01728 -0.3320313,0.09961 -0.337327,0.243604 -0.472391,0.194511 -0.40625,-0.146484 l 0.056641,-0.292969 -0.1816406,0.238282 c -0.100851,0.132108 -0.1614825,0.303719 -0.1328125,0.380859 0.02868,0.07709 0.0087,0.166982 -0.044922,0.201172 -0.05377,0.03421 -0.097303,0.114071 -0.095703,0.175781 0.0013,0.06172 0.044453,0.03797 0.095703,-0.05273 0.05122,-0.09074 0.1527163,-0.164063 0.2226563,-0.164063 0.22838,0 0.1032801,0.433248 -0.2011719,0.697266 l -0.2949219,0.253906 0.025391,-0.332031 c 0.02832,-0.370696 0.054749,-0.378209 -0.6035156,0.242187 -0.00272,0.0026 -0.00516,0.0034 -0.00781,0.0059 V 20.719726 H 3.0000002 v -2.080078 c 0.0579,-0.02676 0.1240457,-0.07082 0.1835938,-0.138672 0.1442929,-0.164395 0.1915208,-0.17094 0.4042968,-0.06055 0.132103,0.06857 0.3539615,0.151397 0.4921875,0.185547 0.138202,0.03417 0.25,0.103487 0.25,0.154297 0,0.05081 0.1269089,0.09375 0.2792969,0.09375 0.152412,0 0.4230796,0.06101 0.6035156,0.138672 0.180436,0.07777 0.4838523,0.142578 0.6757813,0.142578 0.191945,0 0.3729006,0.03796 0.4003906,0.08398 0.02754,0.04598 0.189797,0.109738 0.359375,0.142578 0.16956,0.03281 0.3806931,0.143492 0.4707031,0.246093 0.235255,0.268037 0.4097994,0.234656 1.0371094,-0.197265 0.392634,-0.270355 0.6127666,-0.365216 0.7441406,-0.322266 0.12173,0.0399 0.1785094,0.02109 0.1621094,-0.05273 -0.0138,-0.06222 0.026244,-0.130357 0.089844,-0.154297 0.06774,-0.02558 0.176745,0.104389 0.265625,0.316406 l 0.1523437,0.361328 0.09375,-0.259765 c 0.108817,-0.302489 0.202414,-0.329544 0.265625,-0.08008 0.03278,0.12905 0.1026211,0.164212 0.2617181,0.132812 0.126724,-0.02498 0.416553,0.0589 0.6875,0.199219 0.257473,0.133348 0.566637,0.24414 0.6875,0.24414 0.116602,0 0.256313,0.04824 0.320313,0.107422 l 0.169922,0.265625 c 0.01092,0.02472 -0.03853,0.0916 -0.121094,0.15625 -0.139993,0.10958 -0.118524,0.124353 0.189453,0.126953 0.191786,0.0017 0.427324,-0.0398 0.521484,-0.0918 0.114432,-0.06317 0.190736,-0.06317 0.228516,0 0.03114,0.05187 0.116583,0.0957 0.189453,0.0957 0.202733,-0.153138 0.453898,-0.482795 1.048828,-0.189453 0.09183,0 0.19079,0.0373 0.21875,0.08398 0.02801,0.04683 0.191226,0.08342 0.363281,0.07813 0.250497,-0.0073 0.319323,-0.05271 0.351563,-0.226563 0.02605,-0.140644 -0.0012,-0.21875 -0.08203,-0.21875 -0.16319,0 -0.159931,-0.02245 0.07422,-0.43164 l 0.199219,-0.347656 0.300781,0.33789 c 0.19059,0.214433 0.323282,0.301015 0.363282,0.234375 0.03467,-0.05785 -0.0451,-0.200564 -0.175782,-0.316406 -0.189834,-0.16843 -0.236421,-0.291672 -0.232421,-0.617188 0.0033,-0.223893 0.06736,-0.503829 0.140625,-0.61914 0.0983,-0.154693 0.116254,-0.343687 0.07031,-0.722656 -0.09157,-0.755746 0.008,-1.107562 0.361328,-1.144532 z m -0.578125,0.242188 -0.05078,0.332031 c -0.03407,0.220222 -0.0079,0.378134 0.07617,0.464844 0.178986,0.184549 0.120784,0.677291 -0.107422,0.896484 -0.266976,0.256468 -0.409458,0.231544 -0.550781,-0.09766 -0.06674,-0.15545 -0.16576,-0.283203 -0.21875,-0.283203 -0.133988,0 -0.33975,-0.295412 -0.34375,-0.494141 -0.0033,-0.189559 0.1848,-0.218629 0.345703,-0.05273 0.140784,0.145155 0.140887,0.02568 0,-0.238281 -0.233426,-0.437358 -0.161457,-0.511458 0.503906,-0.523438 z m 41.988281,0.210937 c 0.0081,-0.02191 -0.02115,-0.02132 -0.08398,0.002 -0.09207,0.03408 -0.205773,0.0625 -0.251953,0.0625 -0.04605,0 -0.08203,0.06491 -0.08203,0.142579 0,0.184292 0.02041,0.180727 0.28125,-0.06055 0.08257,-0.07626 0.128918,-0.124405 0.136718,-0.146485 z m 14.484376,1.400391 c 0.01479,0.0023 0.02492,0.01204 0.03906,0.01563 v 0.513672 c -0.229587,0.03707 -0.502815,0.0034 -0.5,-0.09766 0.0059,-0.228332 0.256429,-0.462891 0.460938,-0.431641 z M 49.980469,18.57129 c -0.03262,0.03384 -0.05006,0.225555 -0.05078,0.58789 -0.0013,0.70732 0.130631,1.081164 0.289062,0.820313 0.04438,-0.07305 0.01711,-0.129911 -0.07422,-0.150391 -0.12176,-0.02726 -0.13851,-0.124144 -0.09375,-0.566406 0.02981,-0.293211 0.01609,-0.596428 -0.03125,-0.673828 -0.01459,-0.02381 -0.02873,-0.02823 -0.03906,-0.01758 z m 1.992187,0.06836 c -0.01395,0.01439 -0.02935,0.07138 -0.04883,0.169922 -0.03404,0.17124 -0.02016,0.232898 0.03711,0.173828 0.04855,-0.05025 0.07245,-0.169465 0.05273,-0.265625 -0.01329,-0.06454 -0.02709,-0.09248 -0.04102,-0.07813 z m -6.859375,0.837891 c 0.04316,0.0012 0.08838,0.03907 0.167969,0.113281 0.161215,0.150621 0.161617,0.172098 0.01953,0.333984 -0.156405,0.178216 -0.3208,0.219635 -0.427734,0.109375 -0.103519,-0.106769 -0.06681,-0.293618 0.08789,-0.453125 0.0682,-0.07037 0.109123,-0.104615 0.152343,-0.103515 z m -25.375,0.728515 c 0.122418,0.0243 0.173828,0.115923 0.173828,0.316407 0,0.236992 -0.04036,0.28738 -0.251953,0.3125 -0.210453,0.02497 -0.252745,-0.0067 -0.251953,-0.189453 0.002,-0.308772 0.129833,-0.479224 0.330078,-0.439454 z m 30.375,0.08008 c -0.05017,0 -0.0918,0.08305 -0.0918,0.183593 0,0.100588 -0.04163,0.210128 -0.0918,0.242188 -0.09107,0.05799 -0.129421,0.328125 -0.04688,0.328125 0.02381,0 0.105011,-0.124448 0.181641,-0.277344 0.161764,-0.322256 0.17787,-0.476562 0.04883,-0.476562 z m -0.419922,0.810546 c -0.03307,-0.0064 -0.07873,-0.0018 -0.128906,0.01172 -0.100547,0.02713 -0.183594,0.06415 -0.183594,0.08398 0,0.01981 0.08311,0.03516 0.183594,0.03516 0.100549,0 0.183594,-0.03703 0.183594,-0.08398 0,-0.02355 -0.02154,-0.04016 -0.05469,-0.04688 z m -19.15039,0.04883 c 0.07628,-4.01e-4 0.146558,0.0652 0.236328,0.197265 0.07821,0.11462 0.144531,0.166128 0.144531,0.111328 0,-0.05492 0.172168,-0.109187 0.382813,-0.117187 0.210661,-0.0087 0.40756,-0.05559 0.4375,-0.105469 0.103129,-0.172034 0.41297,0.01191 0.572265,0.337891 0.145722,0.298215 0.147374,0.344621 0.01758,0.548828 -0.07826,0.123131 -0.28425,0.29148 -0.455078,0.375 -0.170828,0.08359 -0.335054,0.195684 -0.365234,0.246094 -0.07507,0.125274 -0.22672,0.110148 -0.498047,-0.04883 -0.12564,-0.07362 -0.305428,-0.110912 -0.398437,-0.08203 -0.147425,0.04562 -0.161602,0.01414 -0.107422,-0.240234 0.05155,-0.242476 0.03754,-0.281715 -0.08203,-0.234375 -0.183612,0.07255 -0.185179,-0.04356 -0.0039,-0.25 0.128971,-0.146963 0.121125,-0.155171 -0.0918,-0.113281 -0.280986,0.05538 -0.301546,-0.118276 -0.05273,-0.425782 0.107723,-0.133102 0.187392,-0.198845 0.263672,-0.199218 z m -19.929688,0.126953 c -0.02757,-0.0064 -0.05988,-0.003 -0.08594,0.01367 -0.06115,0.03894 -0.05068,0.08939 0.0293,0.142578 0.07881,0.05242 0.09322,0.107523 0.03516,0.152344 -0.176882,0.136818 -0.343663,0.40039 -0.251953,0.40039 0.051,0 0.115488,-0.05798 0.142578,-0.130859 0.02709,-0.07288 0.176478,-0.162416 0.330078,-0.197266 0.353925,-0.08015 0.453865,-0.236328 0.152344,-0.236328 -0.125648,0 -0.251603,-0.04499 -0.283203,-0.09766 -0.01568,-0.02633 -0.04072,-0.04018 -0.06836,-0.04687 z m 8.646485,1.36914 h 0.002 c 0.07,0 0.150777,0.06491 0.179687,0.142578 0.05272,0.141651 -0.128715,0.199151 -0.246094,0.07813 -0.102495,-0.105639 -0.06991,-0.220704 0.06445,-0.220704 z m -0.826172,0.296875 c 0.144067,0.03112 0.146918,0.04899 0.01367,0.244141 -0.139208,0.203931 -0.410157,0.294321 -0.410157,0.136719 0,-0.171769 0.250608,-0.41237 0.396485,-0.38086 z m 0.509765,0.269532 c 0.129252,0 0.162833,0.04809 0.126953,0.189453 -0.05456,0.214924 -0.155767,0.303964 -0.242187,0.214844 -0.130423,-0.134438 -0.05353,-0.404297 0.115234,-0.404297 z m -6.808593,0.261718 c -0.04587,-0.0275 -0.183992,0.05094 -0.308594,0.173829 -0.266154,0.26243 -0.117067,0.301485 0.185547,0.04883 0.114862,-0.09535 0.168987,-0.195117 0.123047,-0.222657 z m 29.242187,0.208985 c -0.08418,0 -0.08608,0.05347 -0.0078,0.224609 0.08997,0.196575 0.33789,0.245141 0.33789,0.06641 0,-0.105628 -0.210632,-0.291015 -0.330078,-0.291015 z m 55.511719,0.447265 v 6.220703 H 100 V 24.12598 Z m -57.09961,0.822266 c -0.05727,0.03647 -0.04973,0.124749 0.02148,0.242187 0.120618,0.198514 0.211917,0.08436 0.123047,-0.154296 -0.02947,-0.07899 -0.09502,-0.119552 -0.144532,-0.08789 z m -0.871093,0.04883 c 0.164561,0 0.181777,0.202169 0.0293,0.359375 -0.156156,0.161053 -0.286133,0.138744 -0.220704,-0.03711 0.0305,-0.08197 0.05469,-0.188728 0.05469,-0.236328 0,-0.04762 0.06139,-0.08594 0.136719,-0.08594 z m 30.066406,1.035156 v 0.002 c 0.07543,0 0.136719,0.01739 0.136719,0.03906 0,0.02166 0.02619,0.10557 0.05664,0.1875 0.06545,0.175794 -0.06649,0.198102 -0.222656,0.03711 -0.149161,-0.153896 -0.135935,-0.265625 0.0293,-0.265625 z M 8.2500002,26.411133 c 0.13687,0 0.1937188,0.06034 0.1992188,0.210937 0.004,0.1166 0.023772,0.307191 0.044922,0.423828 0.04611,0.255264 0.02028,0.262207 -0.1679687,0.04687 -0.07931,-0.09068 -0.1706183,-0.281316 -0.2050783,-0.423823 -0.0535,-0.221105 -0.03559,-0.257812 0.1289062,-0.257812 z m 6.9355468,0.378906 c -0.08181,9.2e-4 -0.07631,0.02797 0.01953,0.0918 0.07549,0.05013 0.10313,0.09105 0.0625,0.0918 -0.04063,7.97e-4 -0.04686,0.04818 -0.01367,0.103515 0.08603,0.143413 0.166193,0.02902 0.101563,-0.144531 -0.02976,-0.0799 -0.105522,-0.143321 -0.169922,-0.142578 z m 55.220703,0.0918 c 0.103505,0 0.163922,0.04187 0.132812,0.09375 -0.03108,0.05174 -0.119046,0.09375 -0.191406,0.09375 -0.0724,0 -0.130859,-0.04189 -0.130859,-0.09375 -2.7e-5,-0.05173 0.086,-0.09375 0.189453,-0.09375 z m 0.966797,0.300781 c 0.02027,0.008 0.03125,0.02759 0.03125,0.05859 0,0.0506 -0.06299,0.116927 -0.142578,0.148437 -0.089,0.03525 -0.131555,0.0142 -0.109375,-0.05469 0.03415,-0.105622 0.160213,-0.176134 0.220703,-0.152344 z m -54.033203,1.25 c -0.100942,0.0044 -0.197562,0.04471 -0.326172,0.123047 -0.28015,0.170582 -0.352712,0.36492 -0.0957,0.255859 0.314463,-0.13339 0.487076,-0.163432 0.472656,-0.08203 -0.03265,0.183016 0.015,0.2419 0.152344,0.1875 0.07951,-0.03137 0.182335,-0.05664 0.228515,-0.05664 0.148548,0 0.08913,-0.260174 -0.07617,-0.333984 -0.148039,-0.06612 -0.25447,-0.09775 -0.355468,-0.09375 z M 45.5625,28.920898 c -0.278857,0.01318 -0.705329,0.270916 -0.787109,0.476563 -0.07744,0.194726 0.108005,0.680089 0.40625,1.068359 0.158131,0.205813 0.244156,0.373047 0.191406,0.373047 -0.05273,0 -0.143902,0.09078 -0.201172,0.201172 -0.08975,0.172913 -0.06855,0.232006 0.15625,0.421875 0.143468,0.121209 0.315863,0.198028 0.382813,0.173828 0.06693,-0.02418 0.158898,-0.04297 0.205078,-0.04297 0.124994,1.4e-5 0.102392,-0.402343 -0.03516,-0.615234 -0.06602,-0.102213 -0.128341,-0.322376 -0.138671,-0.488281 -0.01113,-0.184871 -0.124592,-0.421244 -0.292969,-0.611329 -0.180071,-0.203248 -0.235107,-0.323809 -0.160157,-0.349609 0.06287,-0.02161 0.172541,-0.100018 0.244141,-0.173828 0.07165,-0.07379 0.228209,-0.115324 0.347656,-0.0918 0.203553,0.04011 0.210824,0.03072 0.08789,-0.15625 -0.08946,-0.136014 -0.218575,-0.194847 -0.40625,-0.185547 z m -2.90625,0.06836 c -0.0912,-0.01336 -0.215579,0.01396 -0.292969,0.09375 -0.13851,0.143493 -0.128988,0.154297 0.0957,0.154297 0.133456,0 0.26763,-0.04356 0.298828,-0.0957 0.05021,-0.08382 -0.0092,-0.138093 -0.09961,-0.152343 z m 23.232422,0.07813 c 0.02024,0.008 0.0332,0.02759 0.0332,0.05859 0,0.05058 -0.06494,0.116928 -0.144531,0.148438 -0.08899,0.03525 -0.129602,0.0142 -0.107422,-0.05469 0.03415,-0.105592 0.15826,-0.176133 0.21875,-0.152343 z m -24.275391,0.05078 c -0.09777,-0.01436 -0.218174,0.006 -0.271484,0.07227 -0.05351,0.06651 -0.196029,0.317305 -0.314453,0.558594 -0.188709,0.384211 -0.196686,0.455942 -0.08008,0.576172 0.169046,0.174137 0.480414,0.170437 0.708984,-0.0078 0.2292,-0.17854 0.637701,-0.176353 0.8125,0.0039 0.154597,0.159458 0.76433,0.185773 0.972656,0.04297 0.114144,-0.07826 0.08472,-0.140678 -0.18164,-0.375 -0.510299,-0.449288 -0.796795,-0.570472 -1.050782,-0.451172 -0.173021,0.08126 -0.249158,0.06895 -0.367187,-0.05273 -0.08164,-0.08422 -0.125372,-0.190038 -0.09766,-0.236328 0.04081,-0.06811 -0.03308,-0.116499 -0.13086,-0.130859 z m 5.75,0.06836 c -0.04553,-0.0025 -0.100069,0.0088 -0.162109,0.04297 -0.234633,0.129539 -0.257473,0.451023 -0.03516,0.501953 0.192775,0.04421 0.160214,0.06286 0.277343,-0.169922 0.106279,-0.211203 0.05662,-0.367 -0.08008,-0.375 z m -29.169922,0.02148 c -0.01445,0.02176 0.02292,0.111613 0.105469,0.314453 0.08311,0.204074 0.158965,0.372676 0.171875,0.373047 0.01268,5.58e-4 0.02344,-0.116778 0.02344,-0.259766 0,-0.153574 -0.06906,-0.304854 -0.171875,-0.371094 -0.04229,-0.02726 -0.07612,-0.04734 -0.09766,-0.05664 -0.01624,-0.0067 -0.02645,-0.0067 -0.03125,0 z m 0.472657,0.0293 c -0.05014,0 -0.06629,0.04382 -0.03516,0.0957 0.03109,0.05172 0.09814,0.0918 0.148438,0.0918 0.05022,0 0.06433,-0.03992 0.0332,-0.0918 -0.0311,-0.05174 -0.09618,-0.0957 -0.146484,-0.0957 z m 46.814453,0 c 0.145041,-2e-6 0.04132,0.206134 -0.179688,0.357421 -0.116504,0.07979 -0.201172,0.09469 -0.201172,0.03711 0,-0.12631 0.259477,-0.394532 0.38086,-0.394531 z m -27.679688,0.002 c -0.01497,9.33e-4 -0.03467,0.04588 -0.07031,0.130859 -0.04968,0.118888 -0.03017,0.21183 0.05664,0.28125 0.07168,0.05729 0.201496,0.221065 0.291016,0.365234 0.08946,0.144191 0.203553,0.237882 0.251953,0.207032 0.04844,-0.03086 0.111235,0.0089 0.140625,0.08789 0.02944,0.07911 0.129503,0.169299 0.220703,0.199219 0.166858,0.05461 0.317302,0.314834 0.232422,0.402344 -0.02513,0.02593 -0.115369,-0.01217 -0.199219,-0.08398 -0.13607,-0.116436 -0.146636,-0.108126 -0.08984,0.07617 0.04466,0.145129 0.0087,0.264534 -0.123047,0.400391 -0.103084,0.106292 -0.1875,0.234383 -0.1875,0.283203 0,0.177817 -0.182843,0.196058 -0.458985,0.04883 -0.331176,-0.176609 -0.314016,-0.372206 0.0332,-0.378906 0.414186,-0.0074 0.505143,-0.198679 0.222656,-0.46875 -0.134464,-0.128505 -0.284821,-0.234375 -0.332032,-0.234375 -0.09919,0 -0.608851,-0.581015 -0.675781,-0.769531 -0.03538,-0.09958 -0.122082,-0.08134 -0.402343,0.07813 -0.258899,0.147362 -0.401725,0.178981 -0.515626,0.113281 -0.195183,-0.112614 -0.335937,-0.02873 -0.335937,0.197266 0,0.09443 -0.146353,0.283527 -0.322266,0.421874 -0.202313,0.159121 -0.318359,0.331469 -0.318359,0.46875 0,0.319746 -0.383452,0.696902 -0.744141,0.732422 -0.169101,0.01662 -0.30664,0.07313 -0.30664,0.125 0,0.168932 0.601392,0.130425 0.912109,-0.05859 0.297845,-0.181252 1.949462,-0.402609 2.216797,-0.296875 0.138804,0.0549 0.153021,0.648065 0.01758,0.734375 -0.147089,0.09374 0.191338,0.320218 0.484375,0.324218 0.138202,0.0016 0.336387,0.08905 0.439453,0.195313 0.304792,0.31432 0.81836,0.47844 0.81836,0.261719 0,-0.319882 0.55203,-0.582814 0.78125,-0.373047 0.04775,0.04369 0.32039,0.150854 0.605468,0.240234 0.392229,0.12303 0.59498,0.140892 0.835938,0.07227 0.177949,-0.05085 0.352504,-0.0551 0.396484,-0.0098 0.135264,0.139465 0.495755,-0.02039 0.583985,-0.259766 0.04644,-0.125841 0.08594,-0.400011 0.08594,-0.607421 0,-0.349127 -0.01666,-0.372071 -0.207031,-0.306641 -0.11309,0.03882 -0.286236,0.06399 -0.386719,0.05469 -0.100527,-0.0092 -0.292038,-0.01748 -0.425781,-0.01758 -0.357956,-2.78e-4 -0.716797,-0.163814 -0.716797,-0.328125 0,-0.07895 -0.04548,-0.142578 -0.101563,-0.142578 -0.05738,0 -0.08138,-0.08412 -0.05469,-0.189453 0.0263,-0.103676 0.01353,-0.189453 -0.02734,-0.189453 -0.04079,0 -0.05169,-0.08389 -0.02539,-0.1875 0.03696,-0.145836 0.0039,-0.1875 -0.150391,-0.1875 -0.110248,0 -0.174028,0.04122 -0.142578,0.09375 0.03122,0.05215 -0.0074,0.121244 -0.08594,0.152344 -0.169233,0.06695 -0.190997,0.285584 -0.0332,0.339844 0.148443,0.05102 -0.105804,0.59525 -0.277343,0.59375 -0.14834,-0.0016 -0.380413,-0.314464 -0.382813,-0.515626 -0.0013,-0.08078 -0.08139,-0.253268 -0.179687,-0.382812 -0.09826,-0.129555 -0.180848,-0.329243 -0.181641,-0.443359 -0.0013,-0.138585 -0.139362,-0.303174 -0.414063,-0.498047 -0.226186,-0.160449 -0.410156,-0.352081 -0.410156,-0.425782 0,-0.07637 -0.05501,-0.113238 -0.128906,-0.08398 -0.07632,0.03027 -0.144599,-0.01753 -0.167969,-0.11914 -0.01877,-0.08178 -0.02995,-0.123789 -0.04492,-0.123047 z m -20.107422,0.03906 c -0.01204,-9.2e-4 -0.03145,0.0063 -0.05664,0.01563 -0.144677,0.05724 -0.234728,0.333814 -0.236328,0.726563 -5.2e-4,0.15338 0.03669,0.238998 0.08984,0.205078 0.05046,-0.03214 0.06597,-0.160361 0.03516,-0.28711 -0.03444,-0.140992 0.0018,-0.322906 0.0918,-0.464843 0.08689,-0.136455 0.110096,-0.19086 0.07422,-0.19336 z m 19.285157,0.730469 c 0.201509,-0.0415 0.216626,1.068897 0.01563,1.148437 -0.07603,0.03005 -0.158174,-1.38e-4 -0.183594,-0.06836 -0.09629,-0.258723 0.02658,-1.050948 0.167969,-1.080078 z m 8.958984,0.392578 c -0.01648,0.0076 -0.02734,0.0273 -0.02734,0.05469 0,0.05493 0.03967,0.09961 0.08984,0.09961 0.05017,0 0.0918,-0.01815 0.0918,-0.04102 0,-0.02288 -0.04162,-0.06755 -0.0918,-0.09961 -0.02515,-0.01604 -0.04598,-0.02167 -0.0625,-0.01367 z m -10.115234,0.388672 c 0.03153,0.002 0.0592,0.01334 0.07227,0.03516 0.0675,0.112608 -0.07149,0.273466 -0.197265,0.228516 -0.06284,-0.02248 -0.113282,-0.07517 -0.113282,-0.117188 0,-0.07935 0.143482,-0.151784 0.238282,-0.146484 z m 61.066406,2.667969 v 6.220703 H 100 v -6.220703 z m -51.757813,0.0332 c -0.03212,-0.0066 -0.06312,-0.0048 -0.08594,0.0059 -0.03041,0.01462 -0.04883,0.04752 -0.04883,0.09766 0,0.07175 0.08116,0.220711 0.18164,0.332032 0.10055,0.11124 0.183594,0.244465 0.183594,0.296875 0,0.05281 0.06139,0.07082 0.136719,0.04102 0.100206,-0.03967 0.138672,0.01178 0.138672,0.191407 0,0.342079 0.344561,0.328946 0.673828,-0.02539 l 0.251953,-0.271485 -0.25,0.05078 c -0.305868,0.06029 -0.78695,-0.192421 -0.908203,-0.476563 -0.0564,-0.132149 -0.177208,-0.223297 -0.273438,-0.242187 z m -12.83789,0.173828 c 0.05021,0 0.0918,0.04103 0.0918,0.08984 0,0.04874 -0.04166,0.114414 -0.0918,0.146484 -0.05021,0.03205 -0.08984,-0.0072 -0.08984,-0.08789 0,-0.08079 0.0397,-0.148437 0.08984,-0.148437 z m -0.490235,0.03516 c 0.05949,-0.0161 0.133347,0.0022 0.216797,0.05664 0.1085,0.07069 0.113856,0.111988 0.02344,0.205078 -0.0828,0.08547 -0.115235,0.08815 -0.115235,0.0078 0,-0.06329 -0.06448,-0.08482 -0.15039,-0.05078 -0.101193,0.03977 -0.135062,0.01689 -0.107422,-0.06836 0.02725,-0.08422 0.07332,-0.134271 0.132812,-0.150391 z m 10.341797,0.265625 c -0.01599,-0.0026 -0.03006,4.32e-4 -0.03906,0.0098 -0.05985,0.06174 0.154988,0.548656 0.582031,1.322265 0.06204,0.112464 0.112562,0.298529 0.113281,0.41211 5.2e-4,0.11354 0.04267,0.233045 0.09375,0.265625 0.05103,0.03252 0.150663,0.200213 0.220703,0.373047 0.07004,0.172845 0.210059,0.34215 0.310547,0.375 0.100473,0.03287 0.204172,0.121455 0.232422,0.197265 0.09461,0.255961 0.164099,0.140432 0.09961,-0.167969 -0.08116,-0.388186 -0.463808,-1.075371 -0.638671,-1.144531 -0.0733,-0.02899 -0.132827,-0.159879 -0.132813,-0.291015 0,-0.131191 -0.0802,-0.319419 -0.175781,-0.417969 -0.09557,-0.09852 -0.197566,-0.257766 -0.228516,-0.353516 -0.07841,-0.24291 -0.325792,-0.557888 -0.4375,-0.580078 z M 19.214844,34.081055 C 19.344111,34.066731 19.5,34.159343 19.5,34.288086 c 0,0.07221 -0.0217,0.130859 -0.04687,0.130859 -0.02511,0 -0.04492,-0.04187 -0.04492,-0.09375 0,-0.05174 -0.09062,-0.09375 -0.201172,-0.09375 -0.138313,0 -0.172292,-0.03076 -0.107422,-0.09766 0.03031,-0.03111 0.07214,-0.04744 0.115235,-0.05273 z m 40.74414,0.363281 c 0.03263,-0.0025 0.0492,0.03231 0.07422,0.09961 0.06385,0.171611 -0.117857,0.816406 -0.230469,0.816406 -0.04094,0 -0.09846,-0.06455 -0.128906,-0.146484 -0.09945,-0.267301 -0.06116,-0.480467 0.123047,-0.652344 0.08103,-0.07567 0.129459,-0.114687 0.162109,-0.117187 z m -40.714843,0.01563 h 0.002 c 0.0244,-0.0087 0.05088,-0.0075 0.07813,0.0098 0.110542,0.07073 0.109674,0.326172 -0.002,0.326172 -0.04727,0 -0.111448,-0.04188 -0.142578,-0.09375 -0.05601,-0.09324 -0.0086,-0.215987 0.06445,-0.242187 z m -0.8125,0.441406 c 0.10682,-0.0012 0.243286,0.02582 0.46289,0.08008 0.282416,0.06991 0.513672,0.15492 0.513672,0.1875 0,0.03262 0.227478,0.16169 0.503906,0.28711 0.419215,0.190266 0.5,0.26727 0.5,0.466796 0,0.204413 -0.04045,0.240235 -0.28125,0.240235 -0.154962,0 -0.299402,-0.0195 -0.320312,-0.04102 -0.08608,-0.08871 -0.02777,-0.195312 0.105469,-0.195312 0.07794,0 0.11902,-0.04382 0.08789,-0.0957 -0.03108,-0.05173 -0.197088,-0.0918 -0.367187,-0.0918 -0.198249,-10e-7 -0.353168,-0.06508 -0.429688,-0.177735 -0.159335,-0.234545 -0.706224,-0.360546 -0.814453,-0.1875 -0.06456,0.10322 -0.0951,0.105446 -0.15625,0.0078 -0.04475,-0.07144 -0.144797,-0.09521 -0.242187,-0.05664 -0.252143,0.09975 -0.126948,-0.172426 0.154297,-0.335937 0.09968,-0.05798 0.176399,-0.08679 0.283203,-0.08789 z m 1.662109,0.08398 c 0.07547,0 0.136719,0.03907 0.136719,0.08789 0,0.118492 -0.141814,0.204186 -0.214844,0.128906 -0.102931,-0.106055 -0.06318,-0.216797 0.07813,-0.216797 z M 3.1113283,35.305664 c 0.2281884,0.09353 0.671875,0.43387 0.671875,0.539062 0,0.03485 -0.06364,0.08672 -0.140625,0.117188 -0.09234,0.03654 -0.1696394,-0.02107 -0.2246093,-0.169922 -0.045798,-0.124126 -0.1660783,-0.253339 -0.2695313,-0.287109 -0.017199,-0.0056 -0.022637,-0.02093 -0.037109,-0.0293 z m 17.1445307,0.04687 h 0.002 c 0.109183,0.01165 0.08652,0.143154 -0.03125,0.183594 -0.05996,0.02062 -0.09434,-0.01407 -0.07422,-0.07617 0.01999,-0.06211 0.06715,-0.111422 0.103515,-0.107422 z m 0.457032,0.291016 c 0.227612,0 0.615234,0.241196 0.615234,0.382812 0,0.04894 -0.115146,0.08789 -0.255859,0.08789 -0.140737,0 -0.29852,0.04303 -0.34961,0.0957 -0.05114,0.05266 -0.119997,0.06662 -0.154297,0.03125 -0.0343,-0.0354 -0.06445,-0.183245 -0.06445,-0.330078 0,-0.215038 0.04135,-0.267578 0.208985,-0.267578 z m -1.3125,0.294921 c 0.04841,-0.0017 0.09875,0.0034 0.144531,0.02148 0.07543,0.02982 0.138672,0.09888 0.138672,0.152344 0,0.125512 -0.429136,0.126791 -0.503906,0.002 -0.05361,-0.08943 0.0753,-0.170482 0.220703,-0.175782 z m 2.224609,0.0059 c 0.113119,0.01649 0.205078,0.07118 0.205078,0.123047 0,0.05188 -0.09195,0.10836 -0.205078,0.125 -0.141476,0.02072 -0.205078,-0.01873 -0.205078,-0.125 0,-0.106265 0.06358,-0.143797 0.205078,-0.123047 z m 38.179688,0.0098 c 0.02773,0.0019 0.06397,0.01103 0.109374,0.02539 0.24737,0.07837 0.21564,0.04688 0.28711,0.287109 0.03728,0.125219 0.0076,0.241397 -0.08008,0.316407 -0.206,0.176274 -0.17122,0.264684 0.134765,0.333984 0.210224,0.04761 0.275391,0.112618 0.275391,0.283203 0,0.211608 -0.01308,0.215532 -0.248047,0.08984 -0.135918,-0.07252 -0.267562,-0.105218 -0.294922,-0.07422 -0.02747,0.03112 0.0011,0.07619 0.06445,0.09961 0.246444,0.09065 0.38542,0.323631 0.330078,0.550782 -0.06288,0.258695 0.06287,0.298974 0.267579,0.08789 0.216015,-0.222725 0.400192,0.104277 0.351562,0.625 -0.01649,0.176208 -0.168763,0.250726 -0.402344,0.197266 -0.088,-0.02015 -0.160156,-0.102101 -0.160156,-0.181641 0,-0.10722 -0.05913,-0.127878 -0.228515,-0.08398 -0.170153,0.04402 -0.230469,0.0209 -0.230469,-0.08789 0,-0.08029 0.06398,-0.169708 0.138672,-0.199218 0.120091,-0.04752 0.120091,-0.07908 0,-0.25586 -0.07467,-0.109926 -0.138672,-0.273054 -0.138672,-0.365234 1e-5,-0.09217 -0.03454,-0.169922 -0.08008,-0.169922 -0.124479,0 -0.397769,-0.885118 -0.285157,-0.923828 0.05134,-0.01765 0.09374,-0.157856 0.09375,-0.3125 0,-0.186024 0.01237,-0.247488 0.0957,-0.242188 z m -0.240235,1.574219 c 0.140975,0 0.02844,0.332373 -0.179687,0.53125 -0.278545,0.26615 -0.455897,0.298847 -0.320313,0.05859 0.129367,-0.229241 0.43499,-0.589844 0.5,-0.589844 z m 9.607422,0 c 0.07789,0 0.117045,0.04383 0.08594,0.0957 -0.03102,0.05173 -0.09525,0.09375 -0.142578,0.09375 -0.04721,0 -0.08594,-0.04187 -0.08594,-0.09375 0,-0.05174 0.06428,-0.0957 0.142578,-0.0957 z m 0.04492,0.388672 c 0.07776,0.01019 0.177734,0.100204 0.177734,0.183594 0,0.120214 -0.157992,0.110548 -0.232422,-0.01367 -0.03329,-0.05522 -0.03843,-0.120788 -0.01172,-0.148438 0.01639,-0.01714 0.04049,-0.02408 0.06641,-0.02148 z m 0.816406,0.130859 c 0.05017,0.03197 0.09375,0.09766 0.09375,0.146485 0,0.04882 -0.04357,0.08789 -0.09375,0.08789 -0.05017,0 -0.08984,-0.06575 -0.08984,-0.146484 0,-0.08029 0.03966,-0.119961 0.08984,-0.08789 z m -11.048828,0.326172 0.308594,0.253906 0.310547,0.25586 -0.197266,0.177734 c -0.189906,0.169788 -0.190975,0.187204 -0.04297,0.453125 0.09597,0.172392 0.1166,0.275391 0.05273,0.275391 -0.0374,0 -0.05268,0.01497 -0.05273,0.0332 -0.0024,0.0023 -0.175133,0.171001 -0.189453,0.181641 -0.01329,0.01026 -0.0678,0.213224 -0.07813,0.302734 -0.01588,0.02607 -0.03009,0.04277 -0.04492,0.07031 -0.224435,0.415645 -0.22341,0.416166 -0.896484,0.322266 -0.125694,-0.01759 -0.300702,-0.03889 -0.388672,-0.04687 -0.08798,-0.0081 -0.160609,-0.08899 -0.162109,-0.179687 -0.07089,-0.247696 -0.165444,-0.468867 -0.214844,-0.789063 h -0.002 c 0.0063,-0.01248 0.01303,-0.01925 0.01953,-0.0332 0.06091,-0.137765 0.154726,-0.214797 0.228516,-0.185547 0.06887,0.02727 0.175734,-0.01563 0.240234,-0.0957 0.06443,-0.08013 0.174716,-0.144531 0.242188,-0.144531 0.06746,0 0.166923,-0.08584 0.220703,-0.189453 0.05378,-0.103677 0.152843,-0.189454 0.220703,-0.189454 0.06784,0 0.190627,-0.10599 0.273437,-0.236328 z m 0.902344,0.285156 c 0.05328,0 0.09375,0.04188 0.09375,0.09375 0,0.05173 -0.01493,0.09375 -0.03711,0.09375 -0.02219,0 -0.06656,-0.04187 -0.09766,-0.09375 -0.03108,-0.05174 -0.01225,-0.09375 0.04102,-0.09375 z m -5.095703,0.140626 c 0.157537,0.02769 0.389745,0.139047 0.621093,0.318359 0.332209,0.257486 0.577228,0.425486 0.789063,0.544922 0.174206,0.260494 0.196417,0.440674 0.460937,0.464843 0.141235,-0.05587 0.396485,0.144643 0.396485,0.3125 0,0.05421 0.06139,0.07471 0.136718,0.04492 0.07545,-0.02979 0.136719,-0.0046 0.136719,0.05859 0,0.07515 -0.07869,0.09352 -0.228515,0.05469 -0.204463,-0.05292 -0.226563,-0.02868 -0.226563,0.216796 0,0.309198 0.190356,0.400707 0.908203,0.435547 0.223728,0.0109 0.422187,0.0675 0.441406,0.126953 0.01917,0.05931 0.112625,0.107422 0.208985,0.107422 0.111321,0 0.177734,0.06753 0.177734,0.181641 0,0.156291 -0.0504,0.171373 -0.388672,0.126953 -0.2136,-0.02806 -0.458348,-0.08799 -0.542968,-0.132812 -0.08464,-0.04481 -0.262263,-0.08203 -0.394532,-0.08203 -0.132258,0 -0.331631,-0.04704 -0.441406,-0.107422 -0.288169,-0.158442 -1.107501,-0.983285 -1.25,-1.257812 l -0.123047,-0.236328 -0.11914,-0.220703 c 0,-0.0013 0.0046,-0.0024 0.0039,-0.0039 -0.0018,-0.0052 -0.01313,-0.01423 -0.01563,-0.01953 l -0.0039,-0.0059 h -0.002 c -0.04361,-0.07214 -0.163696,-0.166899 -0.298829,-0.22461 -0.280396,-0.119738 -0.445312,-0.344444 -0.445312,-0.603515 0,-0.05212 0.02555,-0.08355 0.07031,-0.09766 0.03359,-0.0109 0.07642,-0.0112 0.128907,-0.002 z m 6.439453,0.648437 c 0.0625,-0.0062 0.135995,0.05864 0.197265,0.197266 l 0.103516,0.240234 c -0.06331,0.07323 -0.129104,0.134151 -0.177734,0.207031 -0.0097,-0.0093 -0.237358,-0.01568 -0.304688,-0.292968 0.02178,-0.03099 0.03907,-0.06895 0.04687,-0.121094 0.02103,-0.1469 0.07233,-0.223769 0.134766,-0.230469 z m -0.578125,0.111328 c 0.1157,-0.016 0.156169,0.06821 0.05078,0.199219 -0.02284,0.02832 -0.03396,0.04885 -0.03906,0.06641 l -0.255859,0.04492 c -0.2156,0.04478 -0.476678,0.04052 -0.609375,0.193359 0,0.0475 0.08311,0.06228 0.183594,0.03516 0.03018,-0.0081 0.02953,-0.01414 0.05469,-0.02344 l 0.0918,-0.01172 0.283203,0.04102 -0.01563,0.02344 c -0.03018,0.01915 -0.06639,0.03183 -0.0918,0.05469 -0.133984,0.120098 -0.197117,0.246661 -0.154297,0.306641 0.04001,0.05614 0.07226,0.186251 0.06836,0.289062 -0.0073,0.24038 -0.298589,0.302488 -0.355469,0.07617 -0.02721,-0.108438 -0.04623,-0.07369 -0.05273,0.0957 -0.008,0.199904 -0.05178,0.258575 -0.171875,0.234375 -0.08799,-0.01771 -0.158203,-0.116073 -0.158203,-0.21875 0,-0.102676 -0.03226,-0.234542 -0.07031,-0.294922 -0.03804,-0.06042 -0.02726,-0.222093 0.02344,-0.359375 0.03948,-0.106971 0.04505,-0.142186 0.05664,-0.191406 0.02465,-0.06813 0.128913,-0.356417 0.132813,-0.373047 0,-0.0014 -0.01295,0.0023 -0.01367,0.002 0.127461,-0.119041 0.255339,-0.148335 0.453125,-0.103515 0.151206,0.03431 0.354302,0.01831 0.451172,-0.03516 0.05336,-0.0294 0.100102,-0.04548 0.138672,-0.05078 z m -18.798828,0.417969 c -0.1373,0 -0.260235,0.229212 -0.171875,0.320312 0.06445,0.06645 0.298828,-0.118752 0.298828,-0.236328 0,-0.04548 -0.05691,-0.08398 -0.126953,-0.08398 z m 20.298828,0.05859 c 0.09396,-0.0084 0.192521,-0.01068 0.269531,0.01367 h 0.0078 v 0.002 c 0.06399,0.01364 0.156328,0.129517 0.205078,0.261718 l 0.08984,0.242188 0.25586,-0.185547 0.253906,-0.189453 0.726563,0.240234 c 0.420556,0.138266 0.817444,0.335514 0.941406,0.46875 0.171717,0.18461 0.268403,0.218239 0.490234,0.167969 0.152236,-0.03446 0.328575,-0.07078 0.390625,-0.08008 0.06208,-0.0094 0.183491,-0.08902 0.269531,-0.177734 0.192793,-0.198863 0.315756,-0.204885 0.384766,-0.01953 0.08862,0.238069 -0.331092,0.523588 -0.720703,0.492188 -0.475852,-0.03836 -0.498362,0.149898 -0.06641,0.507812 0.197606,0.163779 0.33802,0.334263 0.3125,0.376953 -0.08567,0.142936 -0.63218,-0.03556 -0.935547,-0.30664 -0.356148,-0.318227 -0.436639,-0.332021 -0.566406,-0.08203 -0.114572,0.220705 -0.478733,0.251454 -0.638672,0.05273 -0.073,-0.09106 -0.199233,-0.12017 -0.375,-0.08398 -0.294854,0.06081 -0.319009,0.02195 -0.154297,-0.25 0.08687,-0.143133 0.086,-0.209895 0.002,-0.296876 -0.117682,-0.121332 -0.723026,-0.360681 -0.919922,-0.363281 -0.138335,-0.0016 -0.282986,-0.147735 -0.458984,-0.464843 -0.10255,-0.184924 -0.10255,-0.233742 0,-0.300782 0.05309,-0.0012 0.142418,-0.01739 0.236328,-0.02539 z m 2.998047,0.224609 c 0.07791,0 0.11899,0.04382 0.08789,0.0957 -0.03114,0.05172 -0.09719,0.09375 -0.144531,0.09375 -0.04721,0 -0.08398,-0.04188 -0.08398,-0.09375 0,-0.05174 0.06233,-0.0957 0.140625,-0.0957 z m 0.679687,0.0957 c 0.05017,0 0.0918,0.04188 0.0918,0.09375 0,0.05174 -0.04163,0.09375 -0.0918,0.09375 -0.05017,0 -0.08984,-0.04187 -0.08984,-0.09375 0,-0.05175 0.03966,-0.09375 0.08984,-0.09375 z m -4.33789,0.123047 c 0.257716,-0.0019 0.408203,0.06439 0.408203,0.191406 0,0.10092 -0.964411,0.16346 -1.056641,0.06836 -0.106973,-0.11027 -2.27e-4,-0.180999 0.357422,-0.236329 0.107554,-0.01697 0.205106,-0.02269 0.291016,-0.02344 z m 5.214843,0.556641 c 0.03786,-0.01769 0.109498,0.01622 0.205078,0.105468 0.09223,0.08604 0.210652,0.15625 0.263672,0.15625 0.05299,0 0.121394,0.0943 0.152344,0.210938 0.0404,0.15202 0.0772,0.17927 0.130859,0.09375 0.05914,-0.09416 0.137473,-0.08703 0.371094,0.0332 0.324556,0.16689 0.337021,0.351487 0.02734,0.398437 -0.149669,0.0227 -0.197266,-0.01957 -0.197266,-0.167968 0,-0.159857 -0.04133,-0.185975 -0.216797,-0.140625 -0.167089,0.04325 -0.229268,0.01251 -0.267578,-0.138672 -0.02918,-0.115067 -0.123659,-0.195313 -0.230469,-0.195313 -0.09988,0 -0.206681,-0.07113 -0.238281,-0.15625 -0.04297,-0.114082 -0.03793,-0.181508 0,-0.199218 z m -5.691406,0.488281 c 0.09104,0.0056 0.154844,0.06454 0.152344,0.171875 -0.0013,0.0664 -0.158534,0.194456 -0.34961,0.285156 -0.423527,0.200998 -0.470703,0.201289 -0.470703,0.02148 0,-0.07781 0.03346,-0.138671 0.07422,-0.138671 0.04075,0 0.166686,-0.08914 0.279297,-0.197266 0.105132,-0.100919 0.223383,-0.147878 0.314453,-0.142578 z m -1.320313,0.09961 c 0.869462,-0.003 0.808183,0.18178 -0.07227,0.21875 -0.512232,0.02154 -0.653607,4.1e-4 -0.623047,-0.09375 0.02748,-0.08445 0.241529,-0.1235 0.695312,-0.125 z m 4.595704,0.482422 c 0.04289,0.02219 0.0777,0.128144 0.142578,0.357422 0.07175,0.2537 0.176093,0.433594 0.251953,0.433594 0.115872,0 0.320767,0.521052 0.322265,0.820312 2.75e-4,0.06185 0.122659,0.187387 0.273438,0.279297 0.150756,0.09184 0.275391,0.195219 0.275391,0.230469 0,0.03521 0.101824,0.165014 0.226562,0.287109 0.12475,0.122039 0.227795,0.261597 0.228516,0.310547 0.0013,0.04898 0.108075,0.203625 0.238281,0.34375 0.206004,0.221767 0.237088,0.338549 0.242188,0.900391 0.0052,0.563055 -0.03696,0.731083 -0.328126,1.320312 -0.183582,0.371508 -0.333984,0.765185 -0.333984,0.873047 0,0.128466 -0.05822,0.195313 -0.169922,0.195313 -0.09375,0 -0.274507,0.08584 -0.402344,0.189453 -0.25993,0.210937 -0.282036,0.217067 -0.378906,0.117187 -0.03768,-0.03883 -0.251013,-0.07533 -0.474609,-0.08203 -0.44625,-0.01281 -0.740136,-0.215488 -0.785156,-0.541016 -0.02079,-0.150583 -0.124069,-0.226115 -0.408203,-0.296875 -0.372288,-0.09263 -0.531704,-0.185484 -0.533204,-0.3125 -0.0013,-0.158468 -0.298395,-0.450129 -0.546875,-0.537109 -0.364729,-0.127626 -1.599609,0.125154 -1.599609,0.328125 0,0.03924 -0.187649,0.100231 -0.417969,0.132813 -0.230329,0.03254 -0.534764,0.126217 -0.673828,0.210937 -0.220234,0.134065 -0.285858,0.140265 -0.513672,0.02734 -0.242781,-0.120419 -0.262484,-0.170538 -0.271484,-0.695313 -0.0059,-0.359138 -0.0761,-0.7056 -0.193359,-0.951172 -0.133685,-0.280097 -0.178987,-0.535762 -0.160157,-0.921875 0.02924,-0.599754 0.08111,-0.730459 0.253907,-0.662109 0.06572,0.02594 0.171828,-0.01954 0.236328,-0.09961 0.06444,-0.08013 0.179879,-0.146485 0.255859,-0.146485 0.07598,0 0.296072,-0.04744 0.490234,-0.107422 0.276664,-0.08547 0.385895,-0.188476 0.50586,-0.46875 0.08415,-0.196663 0.185009,-0.335828 0.224609,-0.310546 0.0397,0.02528 0.184406,-0.08296 0.320313,-0.240235 0.243296,-0.281453 0.606782,-0.380211 0.71875,-0.193359 0.09251,0.154333 0.175465,0.110327 0.339843,-0.1875 0.08561,-0.155184 0.221985,-0.28125 0.302735,-0.28125 0.08695,0 0.118386,-0.04541 0.08008,-0.109375 -0.04613,-0.07701 0.01214,-0.08632 0.201172,-0.03711 0.145685,0.03792 0.395637,0.07403 0.554687,0.08203 0.388372,0.02058 0.432971,0.09208 0.271485,0.414062 -0.136452,0.272079 -0.133344,0.274004 0.273437,0.527344 0.22441,0.139754 0.440492,0.253906 0.482422,0.253906 0.09132,0 0.191406,-0.468609 0.191406,-0.900391 -10e-7,-0.171186 0.06968,-0.383323 0.154297,-0.470703 0.03611,-0.03709 0.06222,-0.06288 0.08594,-0.07617 0.01779,-0.0094 0.03257,-0.01382 0.04687,-0.0059 z M 43.898436,42.28815 c 0.05108,-0.03245 0.09375,0.0072 0.09375,0.08789 0,0.165577 -0.05647,0.191284 -0.134766,0.06055 -0.02888,-0.04819 -0.01006,-0.115857 0.04102,-0.148437 z m 1.144531,0.144531 c 0.07661,0.0086 0.166806,0.07001 0.222656,0.177734 0.117258,0.225504 0.124478,0.587255 0.01367,0.873047 -0.04613,0.119048 -0.179345,0.570808 -0.294922,1.003907 -0.169368,0.634638 -0.252894,0.803253 -0.425781,0.871093 -0.317262,0.124386 -0.461145,0.104089 -0.552735,-0.08008 -0.178774,-0.359166 -0.200868,-0.688996 -0.06445,-0.960937 0.07654,-0.151727 0.11415,-0.342698 0.08398,-0.423828 -0.108951,-0.292747 0.05308,-0.613538 0.378906,-0.753907 0.175032,-0.0754 0.316406,-0.202873 0.316406,-0.283203 0,-0.0804 0.04163,-0.146484 0.0918,-0.146484 0.05017,0 0.0918,-0.06296 0.0918,-0.140625 0,-0.101394 0.06205,-0.144719 0.138672,-0.136719 z m -0.855469,0.01367 c 0.03161,0.0073 0.06448,0.02647 0.09375,0.05664 0.138074,0.142305 0.06328,0.224029 -0.107422,0.115235 -0.07288,-0.04615 -0.101606,-0.115997 -0.06445,-0.154297 0.01844,-0.01975 0.04653,-0.02428 0.07813,-0.01758 z m 52.701172,0.34375 v 6.220703 H 100 v -6.220703 z m -28.347656,1.333984 c 0.107866,-1.4e-5 0.671875,0.478673 0.671875,0.570313 0,0.163376 -0.228794,0.09406 -0.482422,-0.148438 -0.235915,-0.225555 -0.323155,-0.421875 -0.189453,-0.421875 z m -22.175782,0.1875 c 0.05018,0 0.09375,0.04382 0.09375,0.0957 0,0.05174 -0.04357,0.09375 -0.09375,0.09375 -0.05018,0 -0.08984,-0.04187 -0.08984,-0.09375 0,-0.05174 0.03966,-0.0957 0.08984,-0.0957 z m 16.728516,3.205078 c -0.05328,0 -0.0957,0.04187 -0.0957,0.09375 0,0.05174 0.01883,0.09375 0.04102,0.09375 0.02218,0 0.06656,-0.04188 0.09766,-0.09375 0.03108,-0.05174 0.0103,-0.09375 -0.04297,-0.09375 z m 7.296875,0.03125 c 0.172995,0.0635 0.642584,0.557179 0.646484,0.708985 0.002,0.08831 0.07089,0.110084 0.22461,0.07031 0.122568,-0.03166 0.245674,-0.02357 0.271484,0.01953 0.0828,0.138118 -0.05317,0.490235 -0.189453,0.490235 -0.07279,0 -0.109502,0.03627 -0.08203,0.08203 0.06967,0.116243 -0.310314,0.592998 -0.4375,0.548828 -0.09654,-0.03347 -0.349721,0.429277 -0.306641,0.560547 0.01054,0.03208 -0.07334,0.09322 -0.1875,0.136719 -0.126892,0.0484 -0.227515,0.184889 -0.259766,0.351562 -0.03768,0.194369 -0.159403,0.331252 -0.419921,0.47461 -0.44884,0.24713 -0.47184,0.246926 -0.41211,0.01172 0.03109,-0.122424 0.0039,-0.1875 -0.08008,-0.1875 -0.296596,0 -0.06639,-0.47631 0.382813,-0.791015 0.177895,-0.124648 0.398644,-0.368659 0.490234,-0.542969 0.141716,-0.269772 0.206943,-0.310276 0.449219,-0.285156 0.314059,0.03265 0.364913,-0.04429 0.138672,-0.214844 -0.127322,-0.09608 -0.131941,-0.140525 -0.02539,-0.316406 0.108667,-0.179497 0.09652,-0.254784 -0.09961,-0.625 -0.122721,-0.231605 -0.19262,-0.452725 -0.15625,-0.490234 0.01033,-0.0109 0.02796,-0.0112 0.05273,-0.002 z m -5.335937,1.613282 c 0.397898,0.0024 0.409872,0.01453 0.410156,0.296875 2.7e-4,0.290552 -0.230473,0.603515 -0.445313,0.603515 -0.06142,10e-7 -0.17126,-0.148418 -0.24414,-0.328125 -0.208801,-0.51524 -0.179518,-0.574765 0.279297,-0.572265 z m 31.833984,2.960937 v 6.220703 H 100 V 52.12207 Z m -73.333984,4.910156 c 0.19477,0 0.193237,0.261272 -0.002,0.300782 -0.142075,0.02873 -0.38466,0.609683 -0.578125,1.384765 -0.131055,0.525081 -0.0059,3.383955 0.160157,3.871094 h -2.707032 c -0.0029,-0.05476 0.0069,-0.06903 -0.0078,-0.162109 -0.03978,-0.252366 -0.106443,-0.359533 -0.236328,-0.382813 -0.195327,-0.035 -0.410156,-0.268632 -0.410156,-0.445312 0,-0.05991 0.0939,-0.152632 0.207031,-0.207032 l 0.205078,-0.09961 -0.228516,-0.0957 c -0.197612,-0.08173 -0.208104,-0.102696 -0.07031,-0.160156 0.113796,-0.0476 0.144677,-0.129781 0.105469,-0.291016 -0.04025,-0.165628 -0.0098,-0.243136 0.115234,-0.291016 0.09327,-0.03575 0.229357,-0.134513 0.304687,-0.220703 0.0754,-0.08614 0.22298,-0.201562 0.326172,-0.257812 0.153101,-0.08357 0.208018,-0.0698 0.298828,0.08008 0.11021,0.182021 0.113251,0.181993 0.304688,-0.002 0.166316,-0.159771 0.184932,-0.250797 0.132812,-0.65625 -0.05309,-0.412616 -0.03731,-0.482746 0.125,-0.572266 0.101957,-0.05625 0.185547,-0.158509 0.185547,-0.224609 0,-0.06613 0.08311,-0.210946 0.183594,-0.322266 0.10055,-0.111255 0.181641,-0.223893 0.181641,-0.251953 0,-0.08528 0.359698,-0.429688 0.449218,-0.429688 0.0462,0 0.09649,-0.03311 0.113282,-0.07422 0.05018,-0.122956 0.681242,-0.490235 0.841797,-0.490235 z m 39.27539,0.820313 c 0.05485,0.01149 0.08303,0.107243 0.05078,0.28125 -0.03401,0.183245 0.0072,0.251432 0.197266,0.326172 0.271413,0.106759 0.887046,0.247079 1.423828,0.324218 0.451293,0.06492 0.532447,0.116532 0.466797,0.292969 -0.03506,0.09426 0.03792,0.174144 0.222656,0.246094 0.150882,0.05867 0.273438,0.139247 0.273438,0.179687 0,0.04056 0.244246,0.07422 0.542968,0.07422 0.419989,0 0.56975,0.03954 0.66211,0.171875 0.136681,0.196178 0.439453,0.336881 0.439453,0.205078 0,-0.15621 0.653678,0.302488 0.753906,0.529297 0.05333,0.120669 0.172755,0.244921 0.265625,0.275391 0.09293,0.03045 0.169922,0.10118 0.169922,0.15625 0,0.06197 0.150338,0.08171 0.400391,0.05273 0.347869,-0.04043 0.435256,-0.01091 0.679687,0.22461 0.154726,0.149131 0.329579,0.259783 0.386719,0.246093 0.134308,-0.03209 0.291601,0.374209 0.173828,0.449219 -0.04798,0.03062 -0.08789,0.179772 -0.08789,0.332031 0,0.110519 -0.05185,0.23663 -0.128906,0.369141 H 31.267578 c 0.129668,-0.229289 0.239599,-0.367999 0.339844,-0.371094 0.100522,-0.0034 0.28647,-0.09006 0.412109,-0.191406 0.125656,-0.101312 0.293587,-0.184447 0.373047,-0.185547 0.07946,-0.0011 0.201704,-0.111525 0.271484,-0.246094 0.185767,-0.357876 0.636436,-0.720768 0.832032,-0.667968 0.09221,0.02488 0.19063,0.0059 0.21875,-0.04102 0.02813,-0.04696 0.183369,-0.0839 0.34375,-0.08398 0.160396,-7.9e-5 0.43347,-0.07532 0.609375,-0.166016 0.264,-0.136165 0.316622,-0.210138 0.294922,-0.423828 -0.021,-0.206598 0.01156,-0.257813 0.160156,-0.257813 0.102463,0 0.185547,0.05522 0.185547,0.123047 0,0.06783 0.05637,0.204305 0.126953,0.302735 0.112301,0.158411 0.255222,0.179593 1.234375,0.183593 0.608681,0.0023 1.105462,-0.02877 1.105469,-0.06641 2.4e-5,-0.03766 0.109216,-0.140066 0.240234,-0.228515 0.22316,-0.150639 0.243469,-0.150598 0.324219,-0.002 0.0558,0.102845 0.204889,0.161463 0.423828,0.164063 0.185964,0.0023 0.482298,0.05476 0.658203,0.119141 0.417814,0.15294 0.975558,0.188761 1.048828,0.06641 0.03187,-0.05319 0.149771,-0.09766 0.263672,-0.09766 0.113925,0 0.30804,-0.108699 0.429687,-0.242188 0.168636,-0.18436 0.281346,-0.228963 0.472657,-0.189453 0.138046,0.02845 0.247287,0.01993 0.242187,-0.01758 -0.05633,-0.383484 0.140587,-0.394331 0.509766,-0.02539 0.360846,0.360561 0.720309,0.418692 0.761719,0.121094 0.01628,-0.117386 0.144639,-0.273836 0.283203,-0.347656 0.138306,-0.07373 0.308073,-0.203413 0.376953,-0.289063 0.166415,-0.206745 0.878284,-0.547219 0.992187,-0.474609 0.04955,0.03152 0.128702,-0.01472 0.175782,-0.101563 0.05285,-0.09738 0.144501,-0.134772 0.238281,-0.09766 0.109279,0.0432 0.14407,0.01504 0.125,-0.09961 -0.03337,-0.200815 0.41741,-0.440338 0.808594,-0.429688 0.340929,0.0091 0.789785,0.290306 0.728515,0.455078 -0.06104,0.164093 0.815037,0.39641 1.785156,0.47461 0.715114,0.0576 0.800714,0.08549 0.890626,0.289062 0.08745,0.198035 0.121527,0.210539 0.285156,0.105469 0.165537,-0.106241 0.221682,-0.08212 0.509765,0.232422 0.27193,0.296944 0.351176,0.339109 0.501953,0.255859 0.09866,-0.05448 0.154797,-0.144195 0.123047,-0.197266 -0.08038,-0.134092 0.295401,-0.523483 0.574219,-0.595703 0.126814,-0.03286 0.204388,-0.08568 0.173828,-0.117187 -0.03071,-0.03156 -0.0066,-0.11621 0.05078,-0.1875 0.07866,-0.09782 0.07611,-0.184576 -0.01367,-0.357422 -0.09604,-0.184223 -0.09831,-0.2584 -0.0059,-0.373047 0.101467,-0.126093 0.132863,-0.122732 0.265625,0.03711 0.194766,0.23448 0.443529,0.268046 0.81836,0.107422 0.278933,-0.119562 0.309758,-0.115848 0.433593,0.06641 0.116686,0.171828 0.197434,0.190728 0.613282,0.142578 0.579413,-0.06716 0.707031,-0.15874 0.707031,-0.511719 0,-0.227258 0.03657,-0.269531 0.230469,-0.269531 0.127251,0 0.25389,0.05912 0.28125,0.132812 0.08039,0.21613 0.322851,0.258785 0.503906,0.08984 0.132372,-0.12355 0.195114,-0.131678 0.298828,-0.04297 0.103643,0.08871 0.149537,0.0818 0.210938,-0.03125 0.104004,-0.191625 0.430589,-0.09769 0.570312,0.164063 0.05993,0.112228 0.247255,0.271325 0.416016,0.353515 0.29782,0.145089 0.31672,0.142268 0.691406,-0.117187 0.461085,-0.319314 0.553083,-0.329657 0.708984,-0.07227 0.06597,0.108855 0.176577,0.174805 0.248047,0.146485 0.07088,-0.02806 0.181854,0.0023 0.246094,0.06836 0.148291,0.152654 0.50678,0.2536 0.673828,0.1875 0.07056,-0.02792 0.126953,-0.174305 0.126953,-0.324219 0,-0.323541 0.112339,-0.350796 0.292969,-0.07031 0.103464,0.160665 0.164992,0.183492 0.296875,0.107422 0.199939,-0.115364 0.777736,0.03889 0.847656,0.226562 0.08073,0.216873 0.28494,0.129848 0.34375,-0.146484 0.05489,-0.257603 0.07432,-0.26624 0.494141,-0.22461 0.41852,0.04146 0.442464,0.03131 0.554687,-0.248046 0.06697,-0.166709 0.146612,-0.240496 0.201172,-0.228516 z M 96.88867,61.45221 v 6.222657 H 100 V 61.45221 Z m -81.353516,0.375 c 0.06928,-0.05828 0.141243,0.0094 0.220703,0.207031 0.113346,0.282151 0.132326,0.288729 0.53711,0.230469 0.687905,-0.09906 1.041854,-0.08029 1.5,0.08008 0.631438,0.220988 1.614391,0.191508 1.472656,-0.04492 -0.0278,-0.04644 0.05728,-0.08594 0.1875,-0.08594 0.130194,0 0.25638,0.05628 0.28125,0.123047 0.02486,0.06678 0.13529,0.127419 0.246094,0.136719 0.08713,0.0068 0.180214,0.05665 0.248047,0.115234 h -6.070313 c -0.02842,-0.384788 0.03931,-0.50428 0.296875,-0.615234 0.175018,-0.0754 0.46706,-0.12076 0.648438,-0.09961 0.181379,0.02101 0.37524,4.6e-4 0.43164,-0.04687 z M 2.2595624e-7,66.163086 v 6.220703 H 3.1113283 v -6.220703 z m 0,9.332031 V 81.71582 H 3.1113283 v -6.220703 z m 0,9.332031 v 3.027344 A 1.5554555,1.5554555 0 0 0 1.5546877,89.411133 H 4.7480471 V 86.299805 H 3.1113283 V 84.827148 Z M 7.8593752,86.299805 v 3.111328 h 6.2207028 v -3.111328 z m 9.3320308,0 v 3.111328 h 6.220703 v -3.111328 z m 9.330078,0 v 3.111328 h 6.222657 v -3.111328 z m 9.332032,0 v 3.111328 h 6.222656 v -3.111328 z m 9.332031,0 v 3.111328 h 6.220703 v -3.111328 z m 9.332031,0 v 3.111328 h 6.220703 v -3.111328 z m 9.332031,0 v 3.111328 h 6.220703 v -3.111328 z m 9.332032,0 v 3.111328 h 6.220703 v -3.111328 z"
     style="color:#000000;font-style:normal;font-variant:normal;font-weight:normal;font-stretch:normal;font-size:medium;line-height:normal;font-family:sans-serif;font-variant-ligatures:normal;font-variant-position:normal;font-variant-caps:normal;font-variant-numeric:normal;font-variant-alternates:normal;font-variant-east-asian:normal;font-feature-settings:normal;font-variation-settings:normal;text-indent:0;text-align:start;text-decoration:none;text-decoration-line:none;text-decoration-style:solid;text-decoration-color:#000000;letter-spacing:normal;word-spacing:normal;text-transform:none;writing-mode:lr-tb;direction:ltr;text-orientation:mixed;dominant-baseline:auto;baseline-shift:baseline;text-anchor:start;white-space:normal;shape-padding:0;shape-margin:0;inline-size:0;clip-rule:nonzero;display:inline;overflow:visible;visibility:visible;isolation:auto;mix-blend-mode:normal;color-interpolation:sRGB;color-interpolation-filters:linearRGB;solid-color:#000000;solid-opacity:1;vector-effect:none;fill:#000080;fill-opacity:1;fill-rule:nonzero;stroke:none;stroke-width:3.1106;stroke-linecap:butt;stroke-linejoin:round;stroke-miterlimit:4;stroke-dasharray:6.2212, 3.1106;stroke-dashoffset:31.106;stroke-opacity:1;color-rendering:auto;image-rendering:auto;shape-rendering:auto;text-rendering:auto;enable-background:accumulate;stop-color:#000000"
     id="path1146" />
</svg>
