<?xml version="1.0" encoding="UTF-8" standalone="no"?>
<svg
   xmlns:dc="http://purl.org/dc/elements/1.1/"
   xmlns:cc="http://creativecommons.org/ns#"
   xmlns:rdf="http://www.w3.org/1999/02/22-rdf-syntax-ns#"
   xmlns:svg="http://www.w3.org/2000/svg"
   xmlns="http://www.w3.org/2000/svg"
   xmlns:sodipodi="http://sodipodi.sourceforge.net/DTD/sodipodi-0.dtd"
   xmlns:inkscape="http://www.inkscape.org/namespaces/inkscape"
   version="1.1"
   width="100"
   height="100"
   id="svg4460"
   sodipodi:docname="uEADC-screen-dub.svg"
   inkscape:version="0.92.4 (5da689c313, 2019-01-14)">
  <sodipodi:namedview
     pagecolor="#ffffff"
     bordercolor="#666666"
     borderopacity="1"
     objecttolerance="10"
     gridtolerance="10"
     guidetolerance="10"
     inkscape:pageopacity="0"
     inkscape:pageshadow="2"
     inkscape:window-width="1920"
     inkscape:window-height="1177"
     id="namedview11"
     showgrid="false"
     inkscape:zoom="4.0000001"
     inkscape:cx="68.64154"
     inkscape:cy="34.476543"
     inkscape:window-x="1272"
     inkscape:window-y="-8"
     inkscape:window-maximized="1"
     inkscape:current-layer="svg4460"
     inkscape:document-rotation="0" />
  <defs
     id="defs4462" />
  <metadata
     id="metadata4465">
    <rdf:RDF>
      <cc:Work
         rdf:about="">
        <dc:format>image/svg+xml</dc:format>
        <dc:type
           rdf:resource="http://purl.org/dc/dcmitype/StillImage" />
        <dc:title />
      </cc:Work>
    </rdf:RDF>
  </metadata>
  <path
     id="path883"
     style="color:#000000;font-style:normal;font-variant:normal;font-weight:normal;font-stretch:normal;font-size:medium;line-height:normal;font-family:sans-serif;font-variant-ligatures:normal;font-variant-position:normal;font-variant-caps:normal;font-variant-numeric:normal;font-variant-alternates:normal;font-feature-settings:normal;text-indent:0;text-align:start;text-decoration:none;text-decoration-line:none;text-decoration-style:solid;text-decoration-color:#000000;letter-spacing:normal;word-spacing:normal;text-transform:none;writing-mode:lr-tb;direction:ltr;text-orientation:mixed;dominant-baseline:auto;baseline-shift:baseline;text-anchor:start;white-space:normal;shape-padding:0;clip-rule:nonzero;display:inline;overflow:visible;visibility:visible;opacity:1;isolation:auto;mix-blend-mode:normal;color-interpolation:sRGB;color-interpolation-filters:linearRGB;solid-color:#000000;solid-opacity:1;vector-effect:none;fill:#000080;fill-opacity:1;fill-rule:nonzero;stroke:none;stroke-width:5;stroke-linecap:round;stroke-linejoin:round;stroke-miterlimit:4;stroke-dasharray:none;stroke-dashoffset:20;stroke-opacity:1;color-rendering:auto;image-rendering:auto;shape-rendering:auto;text-rendering:auto;enable-background:accumulate"
     d="m 76.537109,35.625 c 2.825522,0 5.045573,0.761719 6.660157,2.285156 1.614583,1.523438 2.421875,3.417974 2.421875,5.683594 0,1.28906 -0.234375,2.519526 -0.703125,3.691406 -0.45573,1.15885 -1.184896,2.376304 -2.1875,3.652344 -0.664063,0.84635 -1.86198,2.063804 -3.59375,3.652344 -1.731772,1.58854 -2.832032,2.643222 -3.300782,3.164062 -0.455728,0.52083 -0.826822,1.028648 -1.113281,1.523438 H 85.619141 V 64.375 H 66.380859 c 0.208334,-1.92708 0.833334,-3.75 1.875,-5.46875 1.041667,-1.73177 3.098959,-4.02344 6.171875,-6.875 2.473959,-2.30469 3.990886,-3.86719 4.550782,-4.6875 0.755208,-1.13281 1.132812,-2.252605 1.132812,-3.359375 0,-1.22396 -0.332031,-2.16146 -0.996094,-2.8125 -0.651041,-0.66407 -1.555989,-0.996094 -2.714843,-0.996094 -1.145834,0 -2.057292,0.345045 -2.734375,1.035157 -0.677084,0.6901 -1.067709,1.835939 -1.171875,3.4375 l -5.46875,-0.546876 c 0.32552,-3.020828 1.347656,-5.188802 3.066406,-6.503906 1.71875,-1.315104 3.867188,-1.972656 6.445312,-1.972656 z m -52.701171,0 h 4.453124 v 28.75 H 22.800781 V 43.691406 c -2.005208,1.875 -4.36849,3.261719 -7.089843,4.160156 v -4.980468 c 1.432292,-0.46875 2.988281,-1.354167 4.667968,-2.65625 1.679688,-1.315105 2.832032,-2.845053 3.457032,-4.589844 z M 47.5,17.5 h 5 v 65 h -5 z m -45,-5 A 2.50025,2.50025 0 0 0 0,15 v 70 a 2.50025,2.50025 0 0 0 2.5,2.5 h 95 A 2.50025,2.50025 0 0 0 100,85 V 15 a 2.50025,2.50025 0 0 0 -2.5,-2.5 z" />
  <g
     aria-label="1"
     style="font-style:normal;font-weight:normal;font-size:40px;line-height:1.25;font-family:sans-serif;letter-spacing:0px;word-spacing:0px;fill:#000000;fill-opacity:1;stroke:none"
     id="text814"
     transform="translate(-89,14.000001)" />
  <g
     aria-label="2"
     style="font-style:normal;font-weight:normal;font-size:40px;line-height:1.25;font-family:sans-serif;letter-spacing:0px;word-spacing:0px;fill:#000000;fill-opacity:1;stroke:none"
     id="text814-0"
     transform="translate(-93.749999,59.75)" />
</svg>
