<?xml version="1.0" encoding="UTF-8" standalone="no"?>
<svg
   xmlns:dc="http://purl.org/dc/elements/1.1/"
   xmlns:cc="http://creativecommons.org/ns#"
   xmlns:rdf="http://www.w3.org/1999/02/22-rdf-syntax-ns#"
   xmlns:svg="http://www.w3.org/2000/svg"
   xmlns="http://www.w3.org/2000/svg"
   xmlns:sodipodi="http://sodipodi.sourceforge.net/DTD/sodipodi-0.dtd"
   xmlns:inkscape="http://www.inkscape.org/namespaces/inkscape"
   version="1.1"
   width="100"
   height="100"
   id="svg4460"
   sodipodi:docname="uEADF-screen-mag.svg"
   inkscape:version="0.92.4 (5da689c313, 2019-01-14)">
  <sodipodi:namedview
     pagecolor="#ffffff"
     bordercolor="#666666"
     borderopacity="1"
     objecttolerance="10"
     gridtolerance="10"
     guidetolerance="10"
     inkscape:pageopacity="0"
     inkscape:pageshadow="2"
     inkscape:window-width="1920"
     inkscape:window-height="1177"
     id="namedview11"
     showgrid="false"
     inkscape:zoom="5.6568544"
     inkscape:cx="51.411808"
     inkscape:cy="40.385664"
     inkscape:window-x="1272"
     inkscape:window-y="-8"
     inkscape:window-maximized="1"
     inkscape:current-layer="svg4460"
     inkscape:document-rotation="0" />
  <defs
     id="defs4462" />
  <metadata
     id="metadata4465">
    <rdf:RDF>
      <cc:Work
         rdf:about="">
        <dc:format>image/svg+xml</dc:format>
        <dc:type
           rdf:resource="http://purl.org/dc/dcmitype/StillImage" />
        <dc:title />
      </cc:Work>
    </rdf:RDF>
  </metadata>
  <path
     id="path877-3"
     style="color:#000000;font-style:normal;font-variant:normal;font-weight:normal;font-stretch:normal;font-size:medium;line-height:normal;font-family:sans-serif;font-variant-ligatures:normal;font-variant-position:normal;font-variant-caps:normal;font-variant-numeric:normal;font-variant-alternates:normal;font-feature-settings:normal;text-indent:0;text-align:start;text-decoration:none;text-decoration-line:none;text-decoration-style:solid;text-decoration-color:#000000;letter-spacing:normal;word-spacing:normal;text-transform:none;writing-mode:lr-tb;direction:ltr;text-orientation:mixed;dominant-baseline:auto;baseline-shift:baseline;text-anchor:start;white-space:normal;shape-padding:0;clip-rule:nonzero;display:inline;overflow:visible;visibility:visible;isolation:auto;mix-blend-mode:normal;color-interpolation:sRGB;color-interpolation-filters:linearRGB;solid-color:#000000;solid-opacity:1;vector-effect:none;fill:#000080;fill-opacity:1;fill-rule:nonzero;stroke:none;stroke-width:6.40945482;stroke-linecap:round;stroke-linejoin:round;stroke-miterlimit:4;stroke-dasharray:none;stroke-dashoffset:20;stroke-opacity:1;color-rendering:auto;image-rendering:auto;shape-rendering:auto;text-rendering:auto;enable-background:accumulate"
     d="m 44.366324,61.379617 -7.974819,2.617896 c 3.475796,3.356906 7.922794,5.221296 12.48233,5.518932 z m 25.400717,-8.333663 -19.75006,6.480392 5.197942,9.381426 c 2.70803,-0.713404 5.311598,-2.010687 7.619007,-3.918517 3.822461,-3.160524 6.156088,-7.429723 6.933111,-11.943301 z M 30.371406,47.7178 c -0.379689,3.849932 0.362736,7.809639 2.278734,11.357341 l 7.381292,-2.421062 z m 37.46514,-7.158713 -4.110806,8.320036 6.136684,-2.012253 C 69.552932,44.700181 68.878292,42.566907 67.836546,40.559087 Z M 49.444649,35.786612 c 2.796133,0 5.020795,2.217505 5.020795,5.005648 0,2.78814 -2.224662,5.007163 -5.020795,5.007163 -2.796126,0 -5.020788,-2.219023 -5.020788,-5.007163 0,-2.788143 2.224662,-5.005648 5.020788,-5.005648 z m 0,-4.413631 c -5.192717,0 -9.446529,4.241393 -9.446529,9.419279 0,2.006219 0.640018,3.870991 1.724572,5.403859 l 6.568206,8.910539 c 0.920005,1.201882 1.533455,0.973336 2.298424,-0.06359 l 7.246526,-9.884111 c 0.146386,-0.264783 0.260228,-0.544855 0.360363,-0.832761 0.44722,-1.092319 0.694974,-2.286816 0.694974,-3.533934 0,-5.177886 -4.253812,-9.419277 -9.446536,-9.419279 z m 1.266194,-8.905558 c -0.378783,-0.0054 -0.757582,-0.0021 -1.136719,0.0098 C 30.228423,21.941381 15.869517,45.664067 25.484281,62.547501 33.114085,78.205503 56.4852,82.929494 68.945218,70.281876 81.107734,59.219069 80.527196,37.28619 66.558499,27.924454 62.002181,24.545289 56.392593,22.547714 50.710843,22.467423 Z m -0.566406,5.105469 c 5.734405,0 11.469526,2.19609 15.863281,6.589844 8.78751,8.78751 8.78751,22.939052 0,31.726562 -8.78751,8.787509 -22.937099,8.787509 -31.724609,0 -8.78751,-8.78751 -8.78751,-22.939052 0,-31.726562 4.393755,-4.393755 10.126923,-6.589844 15.861328,-6.589844 z"
     inkscape:connector-curvature="0" />
  <path
     id="rect837"
     style="color:#000000;font-style:normal;font-variant:normal;font-weight:normal;font-stretch:normal;font-size:medium;line-height:normal;font-family:sans-serif;font-variant-ligatures:normal;font-variant-position:normal;font-variant-caps:normal;font-variant-numeric:normal;font-variant-alternates:normal;font-feature-settings:normal;text-indent:0;text-align:start;text-decoration:none;text-decoration-line:none;text-decoration-style:solid;text-decoration-color:#000000;letter-spacing:normal;word-spacing:normal;text-transform:none;writing-mode:lr-tb;direction:ltr;text-orientation:mixed;dominant-baseline:auto;baseline-shift:baseline;text-anchor:start;white-space:normal;shape-padding:0;clip-rule:nonzero;display:inline;overflow:visible;visibility:visible;opacity:1;isolation:auto;mix-blend-mode:normal;color-interpolation:sRGB;color-interpolation-filters:linearRGB;solid-color:#000000;solid-opacity:1;vector-effect:none;fill:#000080;fill-opacity:1;fill-rule:nonzero;stroke:none;stroke-width:5;stroke-linecap:round;stroke-linejoin:round;stroke-miterlimit:4;stroke-dasharray:none;stroke-dashoffset:20;stroke-opacity:1;color-rendering:auto;image-rendering:auto;shape-rendering:auto;text-rendering:auto;enable-background:accumulate"
     d="m 5,17.5 h 90 v 65 H 5 Z m -2.5,-5 A 2.50025,2.50025 0 0 0 0,15 v 70 a 2.50025,2.50025 0 0 0 2.5,2.5 h 95 A 2.50025,2.50025 0 0 0 100,85 V 15 a 2.50025,2.50025 0 0 0 -2.5,-2.5 z" />
</svg>
