<?xml version="1.0" encoding="UTF-8" standalone="no"?>
<svg
   xmlns:dc="http://purl.org/dc/elements/1.1/"
   xmlns:cc="http://creativecommons.org/ns#"
   xmlns:rdf="http://www.w3.org/1999/02/22-rdf-syntax-ns#"
   xmlns:svg="http://www.w3.org/2000/svg"
   xmlns="http://www.w3.org/2000/svg"
   xmlns:sodipodi="http://sodipodi.sourceforge.net/DTD/sodipodi-0.dtd"
   xmlns:inkscape="http://www.inkscape.org/namespaces/inkscape"
   inkscape:version="1.0 (4035a4fb49, 2020-05-01)"
   sodipodi:docname="uEB1A-coord-system.svg"
   id="svg4460"
   height="100"
   width="100"
   version="1.1">
  <sodipodi:namedview
     inkscape:document-rotation="0"
     inkscape:current-layer="svg4460"
     inkscape:window-maximized="1"
     inkscape:window-y="-8"
     inkscape:window-x="-8"
     inkscape:cy="50.123617"
     inkscape:cx="89.962773"
     inkscape:zoom="5.6568543"
     showgrid="false"
     id="namedview11"
     inkscape:window-height="1017"
     inkscape:window-width="1920"
     inkscape:pageshadow="2"
     inkscape:pageopacity="0"
     guidetolerance="10"
     gridtolerance="10"
     objecttolerance="10"
     borderopacity="1"
     bordercolor="#666666"
     pagecolor="#ffffff" />
  <defs
     id="defs4462">
    <marker
       inkscape:isstock="true"
       style="overflow:visible"
       id="TriangleOutM"
       refX="0.0"
       refY="0.0"
       orient="auto"
       inkscape:stockid="TriangleOutM">
      <path
         transform="scale(0.25)"
         style="fill-rule:evenodd;stroke:#000000;stroke-width:1pt;stroke-opacity:1;fill:#000000;fill-opacity:1"
         d="M 5.77,0.0 L -2.88,5.0 L -2.88,-5.0 L 5.77,0.0 z "
         id="path983" />
    </marker>
    <marker
       inkscape:stockid="TriangleOutM"
       orient="auto"
       refY="0"
       refX="0"
       id="TriangleOutM-1"
       style="overflow:visible"
       inkscape:isstock="true">
      <path
         id="path983-4"
         d="M 5.77,0 -2.88,5 V -5 Z"
         style="fill:#000000;fill-opacity:1;fill-rule:evenodd;stroke:#000000;stroke-width:1pt;stroke-opacity:1"
         transform="scale(0.25)" />
    </marker>
  </defs>
  <metadata
     id="metadata4465">
    <rdf:RDF>
      <cc:Work
         rdf:about="">
        <dc:format>image/svg+xml</dc:format>
        <dc:type
           rdf:resource="http://purl.org/dc/dcmitype/StillImage" />
        <dc:title />
      </cc:Work>
    </rdf:RDF>
  </metadata>
  <path
     d="M 8 0 L 14.091797 14.197266 L 13.96875 14.574219 C 13.781576 15.184571 13.517578 15.6097 13.175781 15.845703 C 12.842122 16.081705 12.305013 16.199219 11.564453 16.199219 L 10.197266 16.199219 L 10.197266 19.068359 L 12.724609 19.068359 C 13.986003 19.068359 14.998698 18.762696 15.763672 18.152344 C 16.536784 17.55013 17.213216 16.486654 17.791016 14.964844 L 23.539062 0 L 19.169922 0 L 16.044922 9.2773438 L 12.371094 0 L 8 0 z M 32.199219 0 L 22.201172 15.298828 L 29.701172 15.298828 L 29.701172 63.435547 L 0 63.435547 L 0 68.435547 L 29.701172 68.435547 L 29.701172 100 L 34.701172 100 L 34.701172 68.435547 L 84.701172 68.435547 L 84.701172 75.935547 L 100 65.9375 L 84.701172 55.935547 L 84.701172 63.435547 L 77.541016 63.435547 L 77.541016 56.435547 L 72.541016 56.435547 L 72.541016 63.435547 L 63.261719 63.435547 L 63.261719 56.435547 L 58.261719 56.435547 L 58.261719 63.435547 L 48.980469 63.435547 L 48.980469 56.435547 L 43.980469 56.435547 L 43.980469 63.435547 L 34.701172 63.435547 L 34.701172 54.15625 L 41.701172 54.15625 L 41.701172 49.15625 L 34.701172 49.15625 L 34.701172 39.875 L 41.701172 39.875 L 41.701172 34.875 L 34.701172 34.875 L 34.701172 25.595703 L 41.701172 25.595703 L 41.701172 20.595703 L 34.701172 20.595703 L 34.701172 15.298828 L 42.201172 15.298828 L 32.199219 0 z M 15.507812 75.708984 C 13.107098 75.708984 11.255208 76.531901 9.953125 78.175781 C 8.6510417 79.811523 8 82.142578 8 85.169922 C 8 88.189127 8.6510417 90.520182 9.953125 92.164062 C 11.255208 93.799807 13.107098 94.619141 15.507812 94.619141 C 17.900391 94.619141 19.746745 93.799807 21.048828 92.164062 C 22.350911 90.520184 23.001953 88.189127 23.001953 85.169922 C 23.001953 82.142578 22.350911 79.811523 21.048828 78.175781 C 19.746745 76.531901 17.900391 75.708984 15.507812 75.708984 z M 84.875 78.328125 L 89.806641 85.005859 L 84.630859 92 L 89.257812 92 L 92.296875 87.679688 L 95.373047 92 L 100 92 L 94.824219 84.980469 L 99.755859 78.328125 L 95.128906 78.328125 L 92.296875 82.380859 L 89.501953 78.328125 L 84.875 78.328125 z M 15.507812 78.919922 C 16.516928 78.919922 17.233073 79.388347 17.65625 80.324219 C 18.087565 81.251953 18.302734 82.854169 18.302734 85.132812 C 18.302734 87.435873 18.087565 89.059896 17.65625 90.003906 C 17.224935 90.947917 16.508789 91.419922 15.507812 91.419922 C 14.498698 91.419922 13.778971 90.947917 13.347656 90.003906 C 12.916341 89.059896 12.699219 87.435873 12.699219 85.132812 C 12.699219 82.854168 12.916341 81.251953 13.347656 80.324219 C 13.778971 79.388347 14.498699 78.919922 15.507812 78.919922 z "
     style="color:#000000;font-style:normal;font-variant:normal;font-weight:normal;font-stretch:normal;font-size:medium;line-height:normal;font-family:sans-serif;font-variant-ligatures:normal;font-variant-position:normal;font-variant-caps:normal;font-variant-numeric:normal;font-variant-alternates:normal;font-variant-east-asian:normal;font-feature-settings:normal;font-variation-settings:normal;text-indent:0;text-align:start;text-decoration:none;text-decoration-line:none;text-decoration-style:solid;text-decoration-color:#000000;letter-spacing:normal;word-spacing:normal;text-transform:none;writing-mode:lr-tb;direction:ltr;text-orientation:mixed;dominant-baseline:auto;baseline-shift:baseline;text-anchor:start;white-space:normal;shape-padding:0;shape-margin:0;inline-size:0;clip-rule:nonzero;display:inline;overflow:visible;visibility:visible;isolation:auto;mix-blend-mode:normal;color-interpolation:sRGB;color-interpolation-filters:linearRGB;solid-color:#000000;solid-opacity:1;vector-effect:none;fill:#000080;fill-opacity:1;fill-rule:evenodd;stroke:none;stroke-width:5;stroke-linecap:butt;stroke-linejoin:miter;stroke-miterlimit:4;stroke-dasharray:none;stroke-dashoffset:0;stroke-opacity:1;color-rendering:auto;image-rendering:auto;shape-rendering:auto;text-rendering:auto;enable-background:accumulate;stop-color:#000000"
     id="path1520" />
  <g
     style="fill:#000080"
     transform="matrix(1.2996573,0,0,1.2996573,3.3459882,0)"
     id="g1484" />
  <g
     style="fill:#000080"
     transform="translate(22.938019,24.648079)"
     id="g1319">
    <g
       style="font-style:normal;font-weight:normal;font-size:25px;line-height:100%;font-family:sans-serif;text-align:end;letter-spacing:0px;word-spacing:0px;text-anchor:end;fill:#000080;fill-opacity:1;stroke:none;stroke-width:1px;stroke-linecap:butt;stroke-linejoin:miter;stroke-opacity:1"
       id="text1315"
       aria-label="x" />
  </g>
  <g
     transform="translate(8)"
     style="font-style:normal;font-weight:normal;font-size:25px;line-height:100%;font-family:sans-serif;text-align:end;letter-spacing:0px;word-spacing:0px;text-anchor:end;fill:#000080;fill-opacity:1;stroke:none;stroke-width:1px;stroke-linecap:butt;stroke-linejoin:miter;stroke-opacity:1"
     id="text1315-3"
     aria-label="y" />
  <g
     transform="translate(8,-5.381592)"
     style="font-style:normal;font-weight:normal;font-size:25px;line-height:100%;font-family:sans-serif;text-align:end;letter-spacing:0px;word-spacing:0px;text-anchor:end;fill:#000080;fill-opacity:1;stroke:none;stroke-width:1px;stroke-linecap:butt;stroke-linejoin:miter;stroke-opacity:1"
     id="text1315-3-7"
     aria-label="0" />
</svg>
