<?xml version="1.0" encoding="UTF-8" standalone="no"?>
<svg
   xmlns:dc="http://purl.org/dc/elements/1.1/"
   xmlns:cc="http://creativecommons.org/ns#"
   xmlns:rdf="http://www.w3.org/1999/02/22-rdf-syntax-ns#"
   xmlns:svg="http://www.w3.org/2000/svg"
   xmlns="http://www.w3.org/2000/svg"
   xmlns:sodipodi="http://sodipodi.sourceforge.net/DTD/sodipodi-0.dtd"
   xmlns:inkscape="http://www.inkscape.org/namespaces/inkscape"
   version="1.1"
   width="100"
   height="100"
   id="svg4460"
   sodipodi:docname="uEB56-screen-dub-o.svg"
   inkscape:version="0.92.4 (5da689c313, 2019-01-14)">
  <sodipodi:namedview
     pagecolor="#ffffff"
     bordercolor="#666666"
     borderopacity="1"
     objecttolerance="10"
     gridtolerance="10"
     guidetolerance="10"
     inkscape:pageopacity="0"
     inkscape:pageshadow="2"
     inkscape:window-width="1920"
     inkscape:window-height="1177"
     id="namedview11"
     showgrid="false"
     inkscape:zoom="4.0000001"
     inkscape:cx="23.016541"
     inkscape:cy="34.476543"
     inkscape:window-x="1272"
     inkscape:window-y="-8"
     inkscape:window-maximized="1"
     inkscape:current-layer="svg4460"
     inkscape:document-rotation="0" />
  <defs
     id="defs4462" />
  <metadata
     id="metadata4465">
    <rdf:RDF>
      <cc:Work
         rdf:about="">
        <dc:format>image/svg+xml</dc:format>
        <dc:type
           rdf:resource="http://purl.org/dc/dcmitype/StillImage" />
        <dc:title />
      </cc:Work>
    </rdf:RDF>
  </metadata>
  <path
     id="path871"
     style="color:#000000;font-style:normal;font-variant:normal;font-weight:normal;font-stretch:normal;font-size:medium;line-height:normal;font-family:sans-serif;font-variant-ligatures:normal;font-variant-position:normal;font-variant-caps:normal;font-variant-numeric:normal;font-variant-alternates:normal;font-feature-settings:normal;text-indent:0;text-align:start;text-decoration:none;text-decoration-line:none;text-decoration-style:solid;text-decoration-color:#000000;letter-spacing:normal;word-spacing:normal;text-transform:none;writing-mode:lr-tb;direction:ltr;text-orientation:mixed;dominant-baseline:auto;baseline-shift:baseline;text-anchor:start;white-space:normal;shape-padding:0;clip-rule:nonzero;display:inline;overflow:visible;visibility:visible;opacity:1;isolation:auto;mix-blend-mode:normal;color-interpolation:sRGB;color-interpolation-filters:linearRGB;solid-color:#000000;solid-opacity:1;vector-effect:none;fill:#000080;fill-opacity:1;fill-rule:nonzero;stroke:none;stroke-width:5;stroke-linecap:round;stroke-linejoin:round;stroke-miterlimit:4;stroke-dasharray:none;stroke-dashoffset:20;stroke-opacity:1;color-rendering:auto;image-rendering:auto;shape-rendering:auto;text-rendering:auto;enable-background:accumulate"
     d="m 76.537109,35.625 c -2.578124,0 -4.726562,0.657552 -6.445312,1.972656 -1.71875,1.315104 -2.740886,3.483077 -3.066406,6.503906 l 5.46875,0.546876 c 0.104166,-1.601561 0.494791,-2.7474 1.171875,-3.4375 0.677083,-0.690111 1.588541,-1.035157 2.734375,-1.035157 1.158854,0 2.063802,0.332024 2.714843,0.996094 0.664063,0.65104 0.996094,1.58854 0.996094,2.8125 0,1.10677 -0.377604,2.226565 -1.132812,3.359375 -0.559896,0.82031 -2.076823,2.38281 -4.550782,4.6875 -3.072916,2.85156 -5.130208,5.14323 -6.171875,6.875 -1.041666,1.71875 -1.666666,3.54167 -1.875,5.46875 H 85.619141 V 59.277344 H 74.720703 c 0.286459,-0.49479 0.657553,-1.002608 1.113281,-1.523438 0.46875,-0.52084 1.56901,-1.575522 3.300782,-3.164062 1.73177,-1.58854 2.929687,-2.805994 3.59375,-3.652344 1.002604,-1.27604 1.73177,-2.493494 2.1875,-3.652344 0.46875,-1.17188 0.703125,-2.402346 0.703125,-3.691406 0,-2.26562 -0.807292,-4.160156 -2.421875,-5.683594 C 81.582682,36.386719 79.362631,35.625 76.537109,35.625 Z m -52.701171,0 c -0.625,1.744791 -1.777344,3.274739 -3.457032,4.589844 -1.679687,1.302083 -3.235676,2.1875 -4.667968,2.65625 v 4.980468 c 2.721353,-0.898437 5.084635,-2.285156 7.089843,-4.160156 V 64.375 h 5.488281 V 35.625 Z M 57,17.5 h 38 v 65 H 57 Z m -9.5,0 h 5 v 65 h -5 z M 5,17.5 h 38 v 65 H 5 Z m -2.5,-5 A 2.50025,2.50025 0 0 0 0,15 v 70 a 2.50025,2.50025 0 0 0 2.5,2.5 h 95 A 2.50025,2.50025 0 0 0 100,85 V 15 a 2.50025,2.50025 0 0 0 -2.5,-2.5 z" />
  <g
     aria-label="1"
     style="font-style:normal;font-weight:normal;font-size:40px;line-height:1.25;font-family:sans-serif;letter-spacing:0px;word-spacing:0px;fill:#000000;fill-opacity:1;stroke:none"
     id="text814"
     transform="translate(-89,14.000001)" />
  <g
     aria-label="2"
     style="font-style:normal;font-weight:normal;font-size:40px;line-height:1.25;font-family:sans-serif;letter-spacing:0px;word-spacing:0px;fill:#000000;fill-opacity:1;stroke:none"
     id="text814-0"
     transform="translate(-93.749999,59.75)" />
</svg>
