<?xml version="1.0" encoding="UTF-8" standalone="no"?>
<svg
   xmlns:dc="http://purl.org/dc/elements/1.1/"
   xmlns:cc="http://creativecommons.org/ns#"
   xmlns:rdf="http://www.w3.org/1999/02/22-rdf-syntax-ns#"
   xmlns:svg="http://www.w3.org/2000/svg"
   xmlns="http://www.w3.org/2000/svg"
   xmlns:sodipodi="http://sodipodi.sourceforge.net/DTD/sodipodi-0.dtd"
   xmlns:inkscape="http://www.inkscape.org/namespaces/inkscape"
   version="1.1"
   width="100"
   height="100"
   id="svg4460"
   sodipodi:docname="screen-dub2.svg"
   inkscape:version="0.92.4 (5da689c313, 2019-01-14)">
  <sodipodi:namedview
     pagecolor="#ffffff"
     bordercolor="#666666"
     borderopacity="1"
     objecttolerance="10"
     gridtolerance="10"
     guidetolerance="10"
     inkscape:pageopacity="0"
     inkscape:pageshadow="2"
     inkscape:window-width="1280"
     inkscape:window-height="971"
     id="namedview11"
     showgrid="false"
     inkscape:zoom="4.0000001"
     inkscape:cx="64.89154"
     inkscape:cy="41.226543"
     inkscape:window-x="-8"
     inkscape:window-y="-8"
     inkscape:window-maximized="1"
     inkscape:current-layer="svg4460"
     inkscape:document-rotation="0" />
  <defs
     id="defs4462" />
  <metadata
     id="metadata4465">
    <rdf:RDF>
      <cc:Work
         rdf:about="">
        <dc:format>image/svg+xml</dc:format>
        <dc:type
           rdf:resource="http://purl.org/dc/dcmitype/StillImage" />
        <dc:title />
      </cc:Work>
    </rdf:RDF>
  </metadata>
  <path
     style="color:#000000;font-style:normal;font-variant:normal;font-weight:normal;font-stretch:normal;font-size:medium;line-height:normal;font-family:sans-serif;font-variant-ligatures:normal;font-variant-position:normal;font-variant-caps:normal;font-variant-numeric:normal;font-variant-alternates:normal;font-feature-settings:normal;text-indent:0;text-align:start;text-decoration:none;text-decoration-line:none;text-decoration-style:solid;text-decoration-color:#000000;letter-spacing:normal;word-spacing:normal;text-transform:none;writing-mode:lr-tb;direction:ltr;text-orientation:mixed;dominant-baseline:auto;baseline-shift:baseline;text-anchor:start;white-space:normal;shape-padding:0;clip-rule:nonzero;display:inline;overflow:visible;visibility:visible;opacity:1;isolation:auto;mix-blend-mode:normal;color-interpolation:sRGB;color-interpolation-filters:linearRGB;solid-color:#000000;solid-opacity:1;vector-effect:none;fill:#000080;fill-opacity:1;fill-rule:nonzero;stroke:none;stroke-width:5;stroke-linecap:round;stroke-linejoin:round;stroke-miterlimit:4;stroke-dasharray:none;stroke-dashoffset:20;stroke-opacity:1;color-rendering:auto;image-rendering:auto;shape-rendering:auto;text-rendering:auto;enable-background:accumulate"
     d="M 2.5 12.5 A 2.50025 2.50025 0 0 0 0 15 L 0 85 A 2.50025 2.50025 0 0 0 2.5 87.5 L 97.5 87.5 A 2.50025 2.50025 0 0 0 100 85 L 100 15 A 2.50025 2.50025 0 0 0 97.5 12.5 L 2.5 12.5 z M 5 17.5 L 43 17.5 L 43 82.5 L 5 82.5 L 5 17.5 z M 47.5 17.5 L 52.5 17.5 L 52.5 82.5 L 47.5 82.5 L 47.5 17.5 z M 76.537109 35.625 C 79.362631 35.625 81.582682 36.386719 83.197266 37.910156 C 84.811849 39.433594 85.619141 41.328125 85.619141 43.59375 C 85.619141 44.882813 85.384766 46.113282 84.916016 47.285156 C 84.460286 48.44401 83.73112 49.661458 82.728516 50.9375 C 82.064453 51.783854 80.866536 53.001302 79.134766 54.589844 C 77.402994 56.178385 76.302734 57.233073 75.833984 57.753906 C 75.378256 58.27474 75.007162 58.782552 74.720703 59.277344 L 85.619141 59.277344 L 85.619141 64.375 L 66.380859 64.375 C 66.589193 62.447917 67.214193 60.625 68.255859 58.90625 C 69.297526 57.174479 71.354818 54.882813 74.427734 52.03125 C 76.901693 49.726563 78.41862 48.164063 78.978516 47.34375 C 79.733724 46.210937 80.111328 45.091146 80.111328 43.984375 C 80.111328 42.760416 79.779297 41.822916 79.115234 41.171875 C 78.464193 40.507812 77.559245 40.175781 76.400391 40.175781 C 75.254557 40.175781 74.343099 40.520834 73.666016 41.210938 C 72.988932 41.901041 72.598307 43.046875 72.494141 44.648438 L 67.025391 44.101562 C 67.350911 41.080729 68.373047 38.91276 70.091797 37.597656 C 71.810547 36.282552 73.958985 35.625 76.537109 35.625 z "
     id="path822" />
  <g
     aria-label="2"
     style="font-style:normal;font-weight:normal;font-size:40px;line-height:1.25;font-family:sans-serif;letter-spacing:0px;word-spacing:0px;fill:#000000;fill-opacity:1;stroke:none"
     id="text814" />
</svg>
